<?xml version="1.0" encoding="UTF-8" standalone="no"?>
<!-- Created with Inkscape (http://www.inkscape.org/) -->

<svg
   width="26.983mm"
   height="26.983mm"
   viewBox="0 0 26.983 26.983"
   version="1.1"
   id="svg1"
   inkscape:version="1.3 (0e150ed6c4, 2023-07-21)"
   sodipodi:docname="gimp-wilber-symbolic.svg"
   xmlns:inkscape="http://www.inkscape.org/namespaces/inkscape"
   xmlns:sodipodi="http://sodipodi.sourceforge.net/DTD/sodipodi-0.dtd"
   xmlns="http://www.w3.org/2000/svg"
   xmlns:svg="http://www.w3.org/2000/svg">
  <sodipodi:namedview
     id="namedview1"
     pagecolor="#ffffff"
     bordercolor="#cccccc"
     borderopacity="1"
     inkscape:showpageshadow="0"
     inkscape:pageopacity="1"
     inkscape:pagecheckerboard="0"
     inkscape:deskcolor="#d1d1d1"
     inkscape:document-units="mm"
     inkscape:zoom="5.6568542"
     inkscape:cx="64.081553"
     inkscape:cy="52.149126"
     inkscape:window-width="1920"
     inkscape:window-height="1131"
     inkscape:window-x="0"
     inkscape:window-y="32"
     inkscape:window-maximized="1"
     inkscape:current-layer="layer1" />
  <defs
     id="defs1" />
  <g
     inkscape:label="Layer 1"
     inkscape:groupmode="layer"
     id="layer1"
     transform="translate(-134.06741,-171.14091)">
    <g
       id="g2"
       transform="translate(57.589944,17.676125)"
       style="fill:#b4b4b4;fill-opacity:1">
      <path
         id="path1-9-85-8"
         style="color:#000000;fill:#b4b4b4;fill-opacity:1;stroke-linecap:round;-inkscape-stroke:none;paint-order:stroke fill markers"
         d="m 101.14472,155.52125 v 5.1e-4 c -0.0867,0.01 -0.1899,0.0595 -0.29611,0.19586 -1.96385,2.94755 -4.65715,4.5657 -6.9727,5.42189 a 4.3609829,4.4514189 0 0 1 3.64112,4.38888 4.3609829,4.4514189 0 0 1 -4.36097,4.45141 4.3609829,4.4514189 0 0 1 -4.21215,-3.32693 3.1408117,3.519099 0 0 1 -3.05511,2.71611 3.1408117,3.519099 0 0 1 -3.14089,-3.51917 3.1408117,3.519099 0 0 1 3.14089,-3.51864 3.1408117,3.519099 0 0 1 2.97502,2.44946 4.3609829,4.4514189 0 0 1 1.7048,-2.82153 c -2.06008,0.27839 -3.1405,-0.007 -4.701,-0.6811 -1.0931,-0.59776 -1.83838,-1.25167 -2.64842,-2.51767 -0.0382,-0.0598 -0.11578,-0.0923 -0.16898,-0.0274 -0.19334,0.25754 -1.03617,6.10835 -1.04697,6.6461 -0.0351,1.74274 -0.75375,3.83531 -2.91455,3.90881 1.99043,4.0541 6.31787,5.83325 11.3006,5.75985 2.96493,0.0206 8.11226,-1.41693 10.43916,-6.165 2.32689,-4.74808 0.69636,-12.99686 0.65526,-13.11702 -0.0411,-0.12015 -0.15949,-0.22677 -0.25839,-0.24237 -0.0247,-0.004 -0.0517,-0.005 -0.0806,-0.002 z" />
      <path
         id="path17-1-7-9"
         style="fill:#b4b4b4;fill-opacity:1;stroke:none;stroke-width:0.102496;stroke-linecap:round;stroke-linejoin:round"
         d="m 79.00294,162.5957 c -0.0381,1.2e-4 -0.0612,0.001 -0.0808,0.002 -0.0152,2.1e-4 -0.0145,0.0131 4e-5,0.014 0.89007,0 1.61161,0.72154 1.61161,1.61162 0,0.89007 -0.72154,1.61161 -1.61161,1.61161 -0.89008,0 -1.61163,-0.72154 -1.61162,-1.61161 0.001,-0.5876 0.3216,-1.11792 0.81987,-1.3991 0.008,-0.005 9.3e-4,-0.0174 -0.008,-0.0142 -1.22216,0.57011 -1.89249,2.21253 -1.55999,3.94129 0.38347,1.97729 1.93335,3.33991 3.46175,3.04356 1.52843,-0.29643 2.45661,-2.13963 2.07313,-4.11694 -0.34843,-1.79665 -1.67223,-3.11544 -3.09462,-3.08293 z"
         sodipodi:nodetypes="ccccscccccscc" />
      <path
         id="path18-0-4-7"
         style="fill:#b4b4b4;fill-opacity:1;stroke:none;stroke-width:0.0963779;stroke-linecap:round;stroke-linejoin:round"
         d="m 86.70461,163.68313 a 0.86070313,0.86070313 0 0 1 0.6444,0.83289 0.86070313,0.86070313 0 0 1 -0.86075,0.86076 0.86070313,0.86070313 0 0 1 -0.86074,-0.86076 0.86070313,0.86070313 0 0 1 0.45441,-0.75634 1.8822709,2.2996181 0 0 0 -1.39096,2.21682 1.8822709,2.2996181 0 0 0 1.88224,2.29963 1.8822709,2.2996181 0 0 0 1.88226,-2.29963 1.8822709,2.2996181 0 0 0 -1.75086,-2.29337 z" />
      <path
         id="path19-6-1-7"
         style="fill:#b4b4b4;fill-opacity:1;stroke:none;stroke-width:0.131104;stroke-linecap:round;stroke-linejoin:round"
         d="m 94.30842,162.73454 a 1.1563777,1.1563777 0 0 1 0.98272,1.14323 1.1563777,1.1563777 0 0 1 -1.15641,1.15641 1.1563777,1.1563777 0 0 1 -1.1564,-1.15641 1.1563777,1.1563777 0 0 1 0.86513,-1.11701 2.7046136,2.9614688 0 0 0 -2.33727,2.93275 2.7046136,2.9614688 0 0 0 2.70459,2.96149 2.7046136,2.9614688 0 0 0 2.7046,-2.96149 2.7046136,2.9614688 0 0 0 -2.60696,-2.95897 z" />
      <path
         id="rect30-5-36-1-89-4"
         style="fill:#b4b4b4;fill-opacity:1;stroke:none;stroke-width:0.707453;stroke-linecap:round;stroke-linejoin:round"
         d="m 92.11909,171.48667 c 0,0 4.39255,2.82282 5.17475,3.23837 0.78219,0.41557 1.90036,-0.32647 1.90036,-0.32647 l 0.34815,-0.65531 c 0,0 -0.0102,-1.34192 -0.79322,-1.75749 -0.78219,-0.41556 -4.80227,-0.83801 -4.80227,-0.83801 z"
         sodipodi:nodetypes="czcczcc" />
      <path
         id="path25-4-9-0"
         style="fill:#b4b4b4;fill-opacity:1;stroke:none;stroke-width:0.441142;stroke-linecap:round;stroke-linejoin:round"
         d="m 86.71253,163.69026 a 0.86094654,0.86094654 0 0 1 0.6413,0.8325 0.86094654,0.86094654 0 0 1 -0.86093,0.86093 0.86094654,0.86094654 0 0 1 -0.86093,-0.86093 0.86094654,0.86094654 0 0 1 0.46767,-0.76377 1.8897178,2.2973046 0 0 0 -1.42317,2.22157 1.8897178,2.2973046 0 0 0 1.88981,2.29701 1.8897178,2.2973046 0 0 0 1.88981,-2.29701 1.8897178,2.2973046 0 0 0 -1.74356,-2.2903 z" />
      <path
         style="fill:#b4b4b4;fill-opacity:1;stroke:none;stroke-width:0.134789;stroke-linecap:round;stroke-linejoin:round"
         d="m 98.46014,174.54015 c -0.28832,0.47371 -0.17458,1.53302 0.91151,2.2619 0.79302,0.53221 1.90821,0.3046 2.40135,0.46504 0.49313,0.16044 0.90563,0.54882 1.18243,1.05301 0.23201,0.42254 0.73757,-1.05321 0.3819,-2.82855 -0.30452,-1.52 -1.26473,-2.08427 -1.74699,-2.34368 -0.45245,-0.24339 -1.03002,-0.18351 -1.21079,-0.15981 -0.79313,0.10382 -1.49476,0.77073 -1.91944,1.55203 z"
         id="path20-5-3-3"
         sodipodi:nodetypes="csssssscc" />
      <path
         id="ellipse25-9-7-0"
         style="fill:#b4b4b4;fill-opacity:1;stroke:none;stroke-width:0.598569;stroke-linecap:round;stroke-linejoin:round"
         d="m 94.30276,162.73373 a 1.1592642,1.1592642 0 0 1 0.98805,1.1467 1.1592642,1.1592642 0 0 1 -1.15962,1.15962 1.1592642,1.1592642 0 0 1 -1.1591,-1.15962 1.1592642,1.1592642 0 0 1 0.86817,-1.11983 2.7002013,2.9599726 0 0 0 -2.32958,2.93109 2.7002013,2.9599726 0 0 0 2.70061,2.96002 2.7002013,2.9599726 0 0 0 2.7001,-2.96002 2.7002013,2.9599726 0 0 0 -2.60863,-2.95796 z" />
    </g>
  </g>
</svg>
