<?xml version="1.0" encoding="UTF-8" standalone="no"?>
<!-- Created with Inkscape (http://www.inkscape.org/) -->

<svg
   width="26.804001mm"
   height="26.804001mm"
   viewBox="0 0 26.804001 26.804001"
   version="1.1"
   id="svg1"
   inkscape:version="1.3 (0e150ed6c4, 2023-07-21)"
   sodipodi:docname="GIMP logo color+shadow.svg"
   xmlns:inkscape="http://www.inkscape.org/namespaces/inkscape"
   xmlns:sodipodi="http://sodipodi.sourceforge.net/DTD/sodipodi-0.dtd"
   xmlns="http://www.w3.org/2000/svg"
   xmlns:svg="http://www.w3.org/2000/svg">
  <sodipodi:namedview
     id="namedview1"
     pagecolor="#ffffff"
     bordercolor="#cccccc"
     borderopacity="1"
     inkscape:showpageshadow="0"
     inkscape:pageopacity="1"
     inkscape:pagecheckerboard="0"
     inkscape:deskcolor="#d1d1d1"
     inkscape:document-units="mm"
     inkscape:zoom="2"
     inkscape:cx="176.5"
     inkscape:cy="-74.500001"
     inkscape:window-width="2560"
     inkscape:window-height="1371"
     inkscape:window-x="1920"
     inkscape:window-y="32"
     inkscape:window-maximized="1"
     inkscape:current-layer="layer1"
     showguides="true">
    <sodipodi:guide
       position="0,15.436817"
       orientation="1,0"
       id="guide1"
       inkscape:locked="false" />
    <sodipodi:guide
       position="26.804002,16.220668"
       orientation="1,0"
       id="guide2"
       inkscape:locked="false" />
  </sodipodi:namedview>
  <defs
     id="defs1">
    <filter
       inkscape:collect="always"
       style="color-interpolation-filters:sRGB"
       id="filter62"
       x="-0.037920636"
       y="-0.043392133"
       width="1.0758413"
       height="1.0867843">
      <feGaussianBlur
         inkscape:collect="always"
         stdDeviation="0.40450813"
         id="feGaussianBlur62" />
    </filter>
  </defs>
  <g
     inkscape:label="Layer 1"
     inkscape:groupmode="layer"
     id="layer1"
     transform="translate(-76.147049,-128.99845)">
    <g
       id="g62"
       style="mix-blend-mode:normal;fill:#000000;fill-opacity:0.450022;filter:url(#filter62)"
       transform="matrix(0.97208047,0,0,0.97208047,81.48614,-70.693917)">
      <path
         d="m 20.17777,208.0299 c 0.0289,-0.003 0.0559,-0.002 0.0806,0.002 0.0989,0.0156 0.21728,0.12222 0.25838,0.24237 0.0411,0.12016 1.67163,8.36893 -0.65526,13.11703 -2.3269,4.74807 -7.47422,6.18559 -10.43915,6.16499 -4.98275,0.0734 -9.31018,-1.70573 -11.30061,-5.75985 2.1608,-0.0735 2.87945,-2.16607 2.91455,-3.90881 0.0108,-0.53775 0.85363,-6.38856 1.04697,-6.6461 0.0532,-0.0649 0.13078,-0.0324 0.16898,0.0274 0.81004,1.26602 1.55532,1.91991 2.64842,2.51767 1.7369,0.75028 2.868,1.0257 5.43067,0.56999 2.56267,-0.45571 6.78289,-1.97672 9.55033,-6.13037 0.10621,-0.13634 0.20937,-0.18601 0.2961,-0.19586 z"
         style="color:#000000;fill:#000000;fill-opacity:0.450022;stroke-linecap:round;-inkscape-stroke:none;paint-order:stroke fill markers"
         id="path52" />
      <path
         id="path53"
         style="fill:#000000;fill-opacity:0.450022;stroke:none;stroke-width:0.0881315;stroke-linecap:round;stroke-linejoin:round"
         d="m -2.31955,215.10358 c -0.0328,1e-4 -0.0526,9.3e-4 -0.0695,0.002 -0.0131,1.8e-4 -0.0125,0.0113 3e-5,0.012 0.76533,0 1.38575,0.62042 1.38575,1.38576 0,0.76532 -0.62042,1.38574 -1.38575,1.38574 -0.76533,0 -1.38576,-0.62042 -1.38575,-1.38574 0.001,-0.50525 0.27653,-0.96125 0.70497,-1.20302 0.007,-0.004 8e-4,-0.015 -0.007,-0.0122 -1.05088,0.49021 -1.62726,1.90244 -1.34136,3.38892 0.32973,1.70017 1.66239,2.87182 2.97659,2.617 1.31422,-0.25488 2.11231,-1.83976 1.78258,-3.53995 -0.2996,-1.54485 -1.43787,-2.67881 -2.66091,-2.65086 z"
         sodipodi:nodetypes="ccccscccccscc" />
      <path
         id="path54"
         style="fill:#000000;fill-opacity:0.450022;stroke:none;stroke-width:0.087651;stroke-linecap:round;stroke-linejoin:round"
         d="m 5.37958,215.95568 a 0.78276744,0.78276744 0 0 1 0.58605,0.75747 0.78276744,0.78276744 0 0 1 -0.78281,0.78282 0.78276744,0.78276744 0 0 1 -0.7828,-0.78282 0.78276744,0.78276744 0 0 1 0.41326,-0.68785 1.7118334,2.0913903 0 0 0 -1.26501,2.01609 1.7118334,2.0913903 0 0 0 1.71181,2.0914 1.7118334,2.0913903 0 0 0 1.71182,-2.0914 1.7118334,2.0913903 0 0 0 -1.59232,-2.08571 z" />
      <path
         id="path55"
         style="fill:#000000;fill-opacity:0.450022;stroke:none;stroke-width:0.119233;stroke-linecap:round;stroke-linejoin:round"
         d="m 12.29487,215.09298 a 1.051669,1.051669 0 0 1 0.89374,1.03971 1.051669,1.051669 0 0 1 -1.0517,1.0517 1.051669,1.051669 0 0 1 -1.05169,-1.0517 1.051669,1.051669 0 0 1 0.7868,-1.01586 2.4597139,2.6933112 0 0 0 -2.12564,2.66719 2.4597139,2.6933112 0 0 0 2.4597,2.69333 2.4597139,2.6933112 0 0 0 2.4597,-2.69333 2.4597139,2.6933112 0 0 0 -2.37091,-2.69104 z" />
      <ellipse
         style="fill:#000000;fill-opacity:0.450022;stroke:none;stroke-width:0.388941;stroke-linecap:round;stroke-linejoin:round"
         id="ellipse55"
         cx="4.6377287"
         cy="217.92641"
         rx="2.8564148"
         ry="3.2004485" />
      <ellipse
         style="fill:#000000;fill-opacity:0.450022;stroke:none;stroke-width:0.384542;stroke-linecap:round;stroke-linejoin:round"
         id="ellipse56"
         cx="11.246905"
         cy="217.63388"
         rx="3.9661009"
         ry="4.0483479" />
      <ellipse
         style="fill:#000000;fill-opacity:0.450022;stroke:none;stroke-width:0.401197;stroke-linecap:round;stroke-linejoin:round"
         id="ellipse57"
         cx="5.2537565"
         cy="218.04504"
         rx="1.718606"
         ry="2.0892863" />
      <ellipse
         style="fill:#000000;fill-opacity:0.450022;stroke:none;stroke-width:0.544369;stroke-linecap:round;stroke-linejoin:round"
         id="ellipse58"
         cx="12.206286"
         cy="217.7823"
         rx="2.4557011"
         ry="2.6919506" />
      <circle
         style="fill:#000000;fill-opacity:0.450022;stroke:none;stroke-width:0.399206;stroke-linecap:round;stroke-linejoin:round"
         id="circle58"
         cx="12.133914"
         cy="216.13531"
         r="1.0542941" />
      <circle
         style="fill:#000000;fill-opacity:0.450022;stroke:none;stroke-width:0.387622;stroke-linecap:round;stroke-linejoin:round"
         id="circle59"
         cx="5.1868773"
         cy="216.71912"
         r="0.78298879" />
      <ellipse
         style="fill:#000000;fill-opacity:0.450022;stroke:none;stroke-width:0.688646;stroke-linecap:round;stroke-linejoin:round"
         id="ellipse59"
         cx="-48.431007"
         cy="211.96747"
         rx="1.3851966"
         ry="1.3969434"
         transform="matrix(0.98103702,-0.19382043,0.2128635,0.97708195,0,0)" />
      <path
         id="path59"
         style="fill:#000000;fill-opacity:0.450022;stroke:none;stroke-width:0.406667;stroke-linecap:round;stroke-linejoin:round"
         d="m 13.04585,225.02246 c 0,0 2.52498,1.62265 2.97461,1.86152 0.44963,0.23888 1.09239,-0.18767 1.09239,-0.18767 l 0.20013,-0.37669 c 0,0 -0.006,-0.77138 -0.45597,-1.01026 -0.44963,-0.23888 -3.20757,-1.42343 -3.20757,-1.42343 z"
         sodipodi:nodetypes="czcczcc" />
      <path
         d="m 11.85271,225.80955 c -3.05299,0.96692 -5.17855,0.22931 -5.35493,0.11767 -0.21092,-0.13352 -0.0773,-0.40153 0.15955,-0.40003 0.25331,0.002 1.42345,0.42656 3.80928,-0.0352 2.52226,-0.48822 4.1923,-2.64594 4.1923,-2.64594 0,0 -0.2465,-0.16905 -0.61699,-0.42674 -0.17458,-0.12145 0.0344,-0.31088 0.41121,-0.32414 0.22612,-0.007 0.51266,0.0476 0.81316,0.21925 0.8086,0.46191 0.83623,1.03059 0.57076,1.15409 -0.18571,0.0864 -0.4653,-0.16538 -0.4653,-0.16538 0,0 -0.56868,0.75463 -1.38955,1.35527 -0.92985,0.68038 -1.38924,0.89775 -2.12949,1.15119 z"
         style="fill:#000000;fill-opacity:0.450022;stroke:none;stroke-width:0.0876784;stroke-linecap:round;stroke-linejoin:round;stroke-dasharray:none"
         id="path60"
         sodipodi:nodetypes="csccccccccsc" />
      <path
         style="fill:#000000;fill-opacity:0.450022;stroke:none;stroke-width:0.087651;stroke-linecap:round;stroke-linejoin:round"
         d="m 17.75817,227.89586 c -0.18749,0.30805 -0.11353,0.9969 0.59274,1.47088 0.51569,0.34609 1.24088,0.19808 1.56156,0.30241 0.32068,0.10433 0.58892,0.35689 0.76892,0.68476 0.15087,0.27477 0.47963,-0.68489 0.24834,-1.83937 -0.19802,-0.98843 -0.82243,-1.35537 -1.13604,-1.52406 -0.29422,-0.15827 -0.63152,-0.14426 -0.6606,-0.0293 -0.0219,0.0865 0.34156,0.27603 0.53291,0.54543 0.17003,0.23937 0.2227,0.38313 0.0443,0.48398 -0.27872,0.15754 -0.58274,-0.19849 -0.7261,-0.0899 -0.16274,0.12333 0.11282,0.3949 -0.0796,0.5227 -0.20052,0.13321 -0.52384,-0.0259 -0.67093,-0.15902 -0.17375,-0.15728 -0.36076,-0.58666 -0.47551,-0.36852 z"
         id="path61"
         sodipodi:nodetypes="cssssssssssscc" />
      <path
         id="path62"
         style="fill:#000000;fill-opacity:0.450022;stroke:none;stroke-width:0.0847641;stroke-linecap:round;stroke-linejoin:round"
         d="m 16.57008,226.85414 c 0.084,0.29697 0.37965,0.16219 0.55911,0.26182 0.17937,0.0998 0.22085,0.4219 0.51741,0.33652 0.29658,-0.0854 0.68517,-0.78456 0.60111,-1.08154 -0.084,-0.29697 -0.37967,-0.16197 -0.5591,-0.2617 -0.17937,-0.0998 -0.22083,-0.42209 -0.51742,-0.33663 -0.29656,0.0854 -0.68516,0.78455 -0.60111,1.08153 z"
         sodipodi:nodetypes="zzzzzzz" />
    </g>
    <path
       d="m 100.81595,130.82337 c 0.0289,-0.003 0.0559,-0.002 0.0806,0.002 0.0989,0.0156 0.21728,0.12222 0.25838,0.24237 0.0411,0.12016 1.67163,8.36893 -0.65526,13.11703 -2.326902,4.74807 -7.474222,6.18559 -10.439152,6.16499 -4.98275,0.0734 -9.31018,-1.70573 -11.30061,-5.75985 2.1608,-0.0735 2.87945,-2.16607 2.91455,-3.90881 0.0108,-0.53775 0.85363,-6.38856 1.04697,-6.6461 0.0532,-0.0649 0.13078,-0.0324 0.16898,0.0274 0.81004,1.26602 1.55532,1.91991 2.64842,2.51767 1.7369,0.75028 2.868,1.0257 5.43067,0.56999 2.56267,-0.45571 6.78289,-1.97672 9.550332,-6.13037 0.10621,-0.13634 0.20937,-0.18601 0.2961,-0.19586 z"
       style="color:#000000;fill:#878787;fill-opacity:1;stroke-linecap:round;-inkscape-stroke:none;paint-order:stroke fill markers"
       id="path41" />
    <path
       id="path42"
       style="fill:#000000;stroke:none;stroke-width:0.0881315;stroke-linecap:round;stroke-linejoin:round"
       d="m 78.318628,137.89705 c -0.0328,1e-4 -0.0526,9.3e-4 -0.0695,0.002 -0.0131,1.8e-4 -0.0125,0.0113 3e-5,0.012 0.76533,0 1.38575,0.62042 1.38575,1.38576 0,0.76532 -0.62042,1.38574 -1.38575,1.38574 -0.76533,0 -1.38576,-0.62042 -1.38575,-1.38574 10e-4,-0.50525 0.27653,-0.96125 0.70497,-1.20302 0.007,-0.004 8e-4,-0.015 -0.007,-0.0122 -1.05088,0.49021 -1.62726,1.90244 -1.34136,3.38892 0.32973,1.70017 1.66239,2.87182 2.97659,2.617 1.31422,-0.25488 2.11231,-1.83976 1.78258,-3.53995 -0.2996,-1.54485 -1.43787,-2.67881 -2.66091,-2.65086 z"
       sodipodi:nodetypes="ccccscccccscc" />
    <path
       id="path43"
       style="fill:#000000;stroke:none;stroke-width:0.087651;stroke-linecap:round;stroke-linejoin:round"
       d="m 86.017758,138.74915 a 0.78276744,0.78276744 0 0 1 0.58605,0.75747 0.78276744,0.78276744 0 0 1 -0.78281,0.78282 0.78276744,0.78276744 0 0 1 -0.7828,-0.78282 0.78276744,0.78276744 0 0 1 0.41326,-0.68785 1.7118334,2.0913903 0 0 0 -1.26501,2.01609 1.7118334,2.0913903 0 0 0 1.71181,2.0914 1.7118334,2.0913903 0 0 0 1.71182,-2.0914 1.7118334,2.0913903 0 0 0 -1.59232,-2.08571 z" />
    <path
       id="path44"
       style="fill:#000000;stroke:none;stroke-width:0.119233;stroke-linecap:round;stroke-linejoin:round"
       d="m 92.933048,137.88645 a 1.051669,1.051669 0 0 1 0.89374,1.03971 1.051669,1.051669 0 0 1 -1.0517,1.0517 1.051669,1.051669 0 0 1 -1.05169,-1.0517 1.051669,1.051669 0 0 1 0.7868,-1.01586 2.4597139,2.6933112 0 0 0 -2.12564,2.66719 2.4597139,2.6933112 0 0 0 2.4597,2.69333 2.4597139,2.6933112 0 0 0 2.4597,-2.69333 2.4597139,2.6933112 0 0 0 -2.37091,-2.69104 z" />
    <ellipse
       style="fill:#ffffff;fill-opacity:1;stroke:none;stroke-width:0.388941;stroke-linecap:round;stroke-linejoin:round"
       id="ellipse44"
       cx="85.275909"
       cy="140.71988"
       rx="2.8564148"
       ry="3.2004485" />
    <ellipse
       style="fill:#ffffff;fill-opacity:1;stroke:none;stroke-width:0.384542;stroke-linecap:round;stroke-linejoin:round"
       id="ellipse45"
       cx="91.885086"
       cy="140.42735"
       rx="3.9661009"
       ry="4.0483479" />
    <ellipse
       style="fill:#000000;fill-opacity:1;stroke:none;stroke-width:0.401197;stroke-linecap:round;stroke-linejoin:round"
       id="ellipse46"
       cx="85.891937"
       cy="140.83852"
       rx="1.718606"
       ry="2.0892863" />
    <ellipse
       style="fill:#000000;fill-opacity:1;stroke:none;stroke-width:0.544369;stroke-linecap:round;stroke-linejoin:round"
       id="ellipse47"
       cx="92.844467"
       cy="140.57578"
       rx="2.4557011"
       ry="2.6919506" />
    <circle
       style="fill:#ffffff;fill-opacity:1;stroke:none;stroke-width:0.399206;stroke-linecap:round;stroke-linejoin:round"
       id="circle47"
       cx="92.772095"
       cy="138.92879"
       r="1.0542941" />
    <circle
       style="fill:#ffffff;fill-opacity:1;stroke:none;stroke-width:0.387622;stroke-linecap:round;stroke-linejoin:round"
       id="circle48"
       cx="85.825058"
       cy="139.51259"
       r="0.78298879" />
    <ellipse
       style="fill:#ffffff;fill-opacity:1;stroke:none;stroke-width:0.688646;stroke-linecap:round;stroke-linejoin:round"
       id="ellipse48"
       cx="46.811565"
       cy="151.84296"
       rx="1.3851966"
       ry="1.3969434"
       transform="matrix(0.98103702,-0.19382043,0.2128635,0.97708195,0,0)" />
    <path
       id="path48"
       style="fill:#f58a19;fill-opacity:1;stroke:none;stroke-width:0.406667;stroke-linecap:round;stroke-linejoin:round"
       d="m 93.684028,147.81593 c 0,0 2.52498,1.62265 2.97461,1.86152 0.44963,0.23888 1.09239,-0.18767 1.09239,-0.18767 l 0.20013,-0.37669 c 0,0 -0.006,-0.77138 -0.45597,-1.01026 -0.44963,-0.23888 -3.20757,-1.42343 -3.20757,-1.42343 z"
       sodipodi:nodetypes="czcczcc" />
    <path
       d="m 92.490888,148.60302 c -3.05299,0.96692 -5.17855,0.22931 -5.35493,0.11767 -0.21092,-0.13352 -0.0773,-0.40153 0.15955,-0.40003 0.25331,0.002 1.42345,0.42656 3.80928,-0.0352 2.52226,-0.48822 4.1923,-2.64594 4.1923,-2.64594 0,0 -0.2465,-0.16905 -0.61699,-0.42674 -0.17458,-0.12145 0.0344,-0.31088 0.41121,-0.32414 0.22612,-0.007 0.51266,0.0476 0.81316,0.21925 0.8086,0.46191 0.83623,1.03059 0.57076,1.15409 -0.18571,0.0864 -0.4653,-0.16538 -0.4653,-0.16538 0,0 -0.56868,0.75463 -1.38955,1.35527 -0.92985,0.68038 -1.38924,0.89775 -2.12949,1.15119 z"
       style="fill:#000000;fill-opacity:1;stroke:none;stroke-width:0.0876784;stroke-linecap:round;stroke-linejoin:round;stroke-dasharray:none"
       id="path49"
       sodipodi:nodetypes="csccccccccsc" />
    <path
       style="fill:#000000;fill-opacity:1;stroke:none;stroke-width:0.087651;stroke-linecap:round;stroke-linejoin:round"
       d="m 98.396348,150.68933 c -0.18749,0.30805 -0.11353,0.9969 0.59274,1.47088 0.51569,0.34609 1.240882,0.19808 1.561562,0.30241 0.32068,0.10433 0.58892,0.35689 0.76892,0.68476 0.15087,0.27477 0.47963,-0.68489 0.24834,-1.83937 -0.19802,-0.98843 -0.82243,-1.35537 -1.13604,-1.52406 -0.29422,-0.15827 -0.631522,-0.14426 -0.660602,-0.0293 -0.0219,0.0865 0.341562,0.27603 0.532912,0.54543 0.17003,0.23937 0.2227,0.38313 0.0443,0.48398 -0.27872,0.15754 -0.582742,-0.19849 -0.726102,-0.0899 -0.16274,0.12333 0.11282,0.3949 -0.0796,0.5227 -0.20052,0.13321 -0.52384,-0.0259 -0.67093,-0.15902 -0.17375,-0.15728 -0.36076,-0.58666 -0.47551,-0.36852 z"
       id="path50"
       sodipodi:nodetypes="cssssssssssscc" />
    <path
       id="path51"
       style="fill:#cccccc;fill-opacity:1;stroke:none;stroke-width:0.0847641;stroke-linecap:round;stroke-linejoin:round"
       d="m 97.208258,149.64761 c 0.084,0.29697 0.37965,0.16219 0.55911,0.26182 0.17937,0.0998 0.22085,0.4219 0.51741,0.33652 0.29658,-0.0854 0.68517,-0.78456 0.60111,-1.08154 -0.084,-0.29697 -0.37967,-0.16197 -0.5591,-0.2617 -0.17937,-0.0998 -0.22083,-0.42209 -0.51742,-0.33663 -0.29656,0.0854 -0.68516,0.78455 -0.60111,1.08153 z"
       sodipodi:nodetypes="zzzzzzz" />
  </g>
</svg>
