<?xml version="1.0" encoding="UTF-8" standalone="no"?>
<!-- Created with Inkscape (http://www.inkscape.org/) -->

<svg
   width="25.618999mm"
   height="25.618999mm"
   viewBox="0 0 25.618999 25.618999"
   version="1.1"
   id="svg1"
   inkscape:version="1.3.2 (091e20ef0f, 2023-11-25)"
   sodipodi:docname="gimp-wilber-symbolic.svg"
   xmlns:inkscape="http://www.inkscape.org/namespaces/inkscape"
   xmlns:sodipodi="http://sodipodi.sourceforge.net/DTD/sodipodi-0.dtd"
   xmlns="http://www.w3.org/2000/svg"
   xmlns:svg="http://www.w3.org/2000/svg">
  <sodipodi:namedview
     id="namedview1"
     pagecolor="#888888"
     bordercolor="#cccccc"
     borderopacity="1"
     inkscape:showpageshadow="0"
     inkscape:pageopacity="1"
     inkscape:pagecheckerboard="0"
     inkscape:deskcolor="#d1d1d1"
     inkscape:document-units="mm"
     inkscape:zoom="11.284361"
     inkscape:cx="46.83473"
     inkscape:cy="39.700963"
     inkscape:window-width="1920"
     inkscape:window-height="1131"
     inkscape:window-x="0"
     inkscape:window-y="32"
     inkscape:window-maximized="1"
     inkscape:current-layer="layer1" />
  <defs
     id="defs1" />
  <g
     inkscape:label="Layer 1"
     inkscape:groupmode="layer"
     id="layer1">
    <g
       id="g424"
       style="fill:#ffffff"
       transform="translate(-1438.3018,-728.17534)">
      <path
         id="path429-0-1-7"
         style="color:#000000;fill:#ffffff;fill-opacity:1;stroke-width:0.999988;stroke-linecap:round;-inkscape-stroke:none;paint-order:stroke fill markers"
         d="m 1462.9822,729.86322 c -0.087,0.01 -0.19,0.0595 -0.2961,0.19585 -2.4071,3.61304 -5.9128,5.23299 -8.4713,5.8937 a 3.7499065,3.8277867 0 0 1 3.47,3.8163 3.7499065,3.8277867 0 0 1 -3.7501,3.82768 3.7499065,3.8277867 0 0 1 -3.6024,-2.76986 2.8563435,3.2004485 0 0 1 -2.6908,2.13527 2.8563435,3.2004485 0 0 1 -2.8561,-3.20084 2.8563435,3.2004485 0 0 1 2.8561,-3.20032 2.8563435,3.2004485 0 0 1 2.6862,2.17351 3.7499065,3.8277867 0 0 1 2.0045,-2.42259 c -2.0138,0.26224 -3.0842,-0.0262 -4.6266,-0.69246 -1.0931,-0.5977 -1.8384,-1.25168 -2.6484,-2.51768 -0.038,-0.059 -0.116,-0.0919 -0.169,-0.0269 -0.1934,0.2575 -1.036,6.1083 -1.047,6.6461 -0.035,1.7427 -0.7537,3.83529 -2.9145,3.90829 1.9904,4.0541 6.318,5.83286 11.3006,5.75986 1.4978,0.0104 3.5523,-0.35375 5.519,-1.32654 -0.6428,-0.40331 -1.3715,-0.86899 -1.6733,-1.06246 -3e-4,-2.3e-4 -7e-4,-2.9e-4 0,-5.2e-4 -1.4369,0.84133 -3.1322,1.16275 -4.9883,1.08727 -2.3662,-0.0966 -1.9719,-0.78058 -1.4526,-0.71158 3.8158,0.54055 6.2135,-0.66645 7.8093,-2.7187 -0.1791,-0.11918 -0.4038,-0.26953 -0.5943,-0.40204 -0.1746,-0.1214 0.034,-0.31123 0.4114,-0.32453 0.014,-6.3e-4 0.028,-9.5e-4 0.043,-10e-4 0.2188,-10e-4 0.4882,0.0602 0.7699,0.22065 0.8086,0.462 0.8366,1.03044 0.5711,1.15394 -0.085,0.0393 -0.2807,-0.0514 -0.4682,-0.16123 -0.2723,0.35113 -0.565,0.66342 -0.8728,0.94671 h 0.01 c 0.7133,0.30954 1.674,0.7304 2.1399,0.95033 1.2729,-0.92686 2.4156,-2.17275 3.2205,-3.81527 2.3268,-4.7481 0.6963,-12.99683 0.6553,-13.11703 -0.041,-0.1202 -0.1594,-0.22636 -0.2584,-0.24236 h -0.081 z" />
      <path
         id="path435-5-7-4"
         style="fill:#ffffff;fill-opacity:1;stroke:none;stroke-width:0.0847624;stroke-linecap:round;stroke-linejoin:round"
         d="m 1460.0754,747.5934 c -0.03,-8.3e-4 -0.063,0.004 -0.1003,0.0145 -0.2966,0.085 -0.6851,0.78459 -0.601,1.08159 0.084,0.2969 0.3797,0.16188 0.5592,0.26148 0.1592,0.0888 0.2097,0.35241 0.4263,0.35088 -0.034,0.47595 0.1346,0.96378 0.4258,1.31414 0.4952,0.60163 1.2524,0.61509 1.7363,0.72553 0.484,0.11044 0.8423,0.40601 1.0196,0.72864 h -0.01 c 0.1487,0.27038 0.4399,-1.02902 0.3338,-1.93166 -0.2124,-1.80633 -1.9507,-2.44894 -2.836,-1.98128 -0.1017,-0.23275 -0.3729,-0.11918 -0.5416,-0.21291 -0.1569,-0.0875 -0.208,-0.34507 -0.417,-0.35088 z" />
    </g>
    <path
       id="ellipse430-9-4-6"
       style="fill:#ffffff !important;fill-opacity:1;stroke:#000000 !important;stroke-width:0.289;stroke-linecap:round;stroke-linejoin:miter;stroke-dasharray:none;stroke-opacity:1;paint-order:fill markers stroke"
       d="m 15.632684,7.76529 c -1.671,8.6e-4 -3.1398,1.13018 -3.6018,2.76934 -0.3986,-1.28422 -1.4778,-2.14609 -2.6913,-2.14922 -1.5774,9e-5 -2.8561,1.43287 -2.8562,3.20032 -2e-4,1.76765 1.2786,3.20075 2.8562,3.20084 1.2093,-1.1e-4 2.2875,-0.85354 2.6918,-2.13062 0.4635,1.63734 1.9317,2.76465 3.6013,2.76521 2.0711,1.7e-4 3.7501,-1.71358 3.7502,-3.82768 2e-4,-2.1143 -1.6789,-3.82836 -3.7502,-3.82819 z"
       sodipodi:nodetypes="cccssccsc" />
    <ellipse
       style="fill:#ffffff !important;fill-opacity:1;stroke:none;stroke-width:0.387617;stroke-linecap:round;stroke-linejoin:round"
       id="circle431-6-0-4"
       cx="9.9621038"
       cy="10.550063"
       rx="0.7829693"
       ry="0.78298879" />
    <ellipse
       style="fill:#ffffff !important;stroke:none;stroke-width:0.595814;stroke-linecap:round;paint-order:stroke fill markers"
       id="circle432-2-1-9"
       cx="2.1685243"
       cy="10.279189"
       rx="1.323804"
       ry="1.323837" />
    <path
       id="ellipse432-9-2-4-0"
       style="fill:#000000 !important;fill-opacity:1;stroke:none;stroke-width:0.584722;stroke-linecap:round;stroke-linejoin:round"
       d="m 2.146484,8.76106 a 3.1361023,2.4320272 78.561234 0 0 -0.3158,0.0387 3.1361023,2.4320272 78.561234 0 0 -1.7477,3.56826 3.1361023,2.4320272 78.561234 0 0 3.0143,2.57451 3.1361023,2.4320272 78.561234 0 0 1.7472,-3.56826 3.1361023,2.4320272 78.561234 0 0 -2.698,-2.61328 z m 0.022,0.1948 a 1.323837,1.323804 89.982015 0 1 1.3239,1.32396 1.323837,1.323804 89.982015 0 1 -1.3239,1.32394 1.323837,1.323804 89.982015 0 1 -1.3239,-1.32396 1.323837,1.323804 89.982015 0 1 1.3239,-1.32394 z" />
    <path
       id="ellipse431-4-3-1-8"
       style="fill:#000000 !important;fill-opacity:1;stroke:none;stroke-width:0.401192;stroke-linecap:round;stroke-linejoin:round"
       d="m 9.955684,9.6154 a 1.7185632,2.0892863 0 0 0 -1.7187,2.08928 1.7185632,2.0892863 0 0 0 1.7187,2.08927 1.7185632,2.0892863 0 0 0 1.7188,-2.08927 1.7185632,2.0892863 0 0 0 -1.7188,-2.08928 z m 0.01,0.15193 a 0.7829693,0.78298879 0 0 1 0.7829,0.78289 0.7829693,0.78298879 0 0 1 -0.7829,0.7829 0.7829693,0.78298879 0 0 1 -0.7829,-0.7829 0.7829693,0.78298879 0 0 1 0.7829,-0.78289 z" />
    <path
       id="ellipse436-1-15-1-9"
       style="fill:#000000 !important;fill-opacity:1;stroke:none;stroke-width:0.514703;stroke-linecap:round;stroke-linejoin:round"
       d="m 16.540284,9.18872 a 2.3218393,2.5452883 0 0 0 -2.3218,2.54506 2.3218393,2.5452883 0 0 0 2.3218,2.54558 2.3218393,2.5452883 0 0 0 2.3218,-2.54558 2.3218393,2.5452883 0 0 0 -2.3218,-2.54506 z m -5e-4,0.16123 a 0.99682391,0.99685425 0 0 1 0.9968,0.99684 0.99682391,0.99685425 0 0 1 -0.9968,0.99684 0.99682391,0.99685425 0 0 1 -0.9968,-0.99684 0.99682391,0.99685425 0 0 1 0.9968,-0.99684 z" />
    <ellipse
       style="fill:#ffffff !important;fill-opacity:1;stroke:none;stroke-width:0.377451;stroke-linecap:round;stroke-linejoin:round"
       id="circle436-2-6-9"
       cx="16.539747"
       cy="10.346755"
       rx="0.99682391"
       ry="0.99685425" />
  </g>
</svg>
