<?xml version="1.0" encoding="UTF-8" standalone="no"?>
<!-- Created with Inkscape (http://www.inkscape.org/) -->

<svg
   width="135.46667mm"
   height="135.46684mm"
   viewBox="0 0 135.46667 135.46684"
   version="1.1"
   id="svg1"
   inkscape:version="1.3 (0e150ed6c4, 2023-07-21)"
   sodipodi:docname="gimp logo macos.svg"
   xmlns:inkscape="http://www.inkscape.org/namespaces/inkscape"
   xmlns:sodipodi="http://sodipodi.sourceforge.net/DTD/sodipodi-0.dtd"
   xmlns:xlink="http://www.w3.org/1999/xlink"
   xmlns="http://www.w3.org/2000/svg"
   xmlns:svg="http://www.w3.org/2000/svg">
  <sodipodi:namedview
     id="namedview1"
     pagecolor="#a6a6a6"
     bordercolor="#666666"
     borderopacity="1.0"
     inkscape:showpageshadow="2"
     inkscape:pageopacity="0.0"
     inkscape:pagecheckerboard="0"
     inkscape:deskcolor="#d1d1d1"
     inkscape:document-units="mm"
     inkscape:zoom="0.85521886"
     inkscape:cx="130.37598"
     inkscape:cy="130.96063"
     inkscape:window-width="2560"
     inkscape:window-height="1371"
     inkscape:window-x="1920"
     inkscape:window-y="32"
     inkscape:window-maximized="1"
     inkscape:current-layer="layer1" />
  <defs
     id="defs1">
    <clipPath
       clipPathUnits="userSpaceOnUse"
       id="clipPath15-7-4-0">
      <g
         id="g16-5-5-4">
        <rect
           style="display:inline;fill:#f9f9f9;fill-opacity:1;stroke:none;stroke-width:0.979998;enable-background:new"
           id="rect15-3-2-6"
           width="245"
           height="245"
           x="628.28412"
           y="9.2208347"
           rx="52.88694"
           ry="56.686279"
           inkscape:label="rect979" />
      </g>
    </clipPath>
    <clipPath
       clipPathUnits="userSpaceOnUse"
       id="clipPath14-5-5-2">
      <g
         id="g15-6-4-6">
        <rect
           style="display:inline;fill:#f9f9f9;fill-opacity:1;stroke:none;stroke-width:0.979998;enable-background:new"
           id="rect14-2-7-7"
           width="245"
           height="245"
           x="628.28412"
           y="9.2208347"
           rx="52.88694"
           ry="56.686279"
           inkscape:label="rect979" />
      </g>
    </clipPath>
    <clipPath
       clipPathUnits="userSpaceOnUse"
       id="clipPath13-9-4-56">
      <g
         id="g14-1-4-9">
        <rect
           style="display:inline;fill:#f9f9f9;fill-opacity:1;stroke:none;stroke-width:0.979998;enable-background:new"
           id="rect13-2-3-8"
           width="245"
           height="245"
           x="628.28412"
           y="9.2208347"
           rx="52.88694"
           ry="56.686279"
           inkscape:label="rect979" />
      </g>
    </clipPath>
    <clipPath
       clipPathUnits="userSpaceOnUse"
       id="clipPath12-7-0-7">
      <g
         id="g13-0-7-28">
        <rect
           style="display:inline;fill:#f9f9f9;fill-opacity:1;stroke:none;stroke-width:0.979998;enable-background:new"
           id="rect12-9-8-29"
           width="245"
           height="245"
           x="628.28412"
           y="9.2208347"
           rx="52.88694"
           ry="56.686279"
           inkscape:label="rect979" />
      </g>
    </clipPath>
    <clipPath
       clipPathUnits="userSpaceOnUse"
       id="clipPath11-3-6-9">
      <g
         id="g12-6-8-60">
        <rect
           style="display:inline;fill:#f9f9f9;fill-opacity:1;stroke:none;stroke-width:0.979998;enable-background:new"
           id="rect11-0-8-2"
           width="245"
           height="245"
           x="628.28412"
           y="9.2208347"
           rx="52.88694"
           ry="56.686279"
           inkscape:label="rect979" />
      </g>
    </clipPath>
    <clipPath
       clipPathUnits="userSpaceOnUse"
       id="clipPath10-6-4-7">
      <g
         id="g11-2-3-6">
        <rect
           style="display:inline;fill:#f9f9f9;fill-opacity:1;stroke:none;stroke-width:0.979998;enable-background:new"
           id="rect10-6-1-1"
           width="245"
           height="245"
           x="628.28412"
           y="9.2208347"
           rx="52.88694"
           ry="56.686279"
           inkscape:label="rect979" />
      </g>
    </clipPath>
    <clipPath
       clipPathUnits="userSpaceOnUse"
       id="clipPath9-1-4-3">
      <g
         id="g10-8-9-21">
        <rect
           style="display:inline;fill:#f9f9f9;fill-opacity:1;stroke:none;stroke-width:0.979998;enable-background:new"
           id="rect9-7-2-5"
           width="245"
           height="245"
           x="628.28412"
           y="9.2208347"
           rx="52.88694"
           ry="56.686279"
           inkscape:label="rect979" />
      </g>
    </clipPath>
    <clipPath
       clipPathUnits="userSpaceOnUse"
       id="clipPath8-9-0-9">
      <g
         id="g9-2-6-9">
        <rect
           style="display:inline;fill:#f9f9f9;fill-opacity:1;stroke:none;stroke-width:0.979998;enable-background:new"
           id="rect8-0-8-1"
           width="245"
           height="245"
           x="628.28412"
           y="9.2208347"
           rx="52.88694"
           ry="56.686279"
           inkscape:label="rect979" />
      </g>
    </clipPath>
    <clipPath
       clipPathUnits="userSpaceOnUse"
       id="clipPath7-2-9-4">
      <g
         id="g8-3-2-9">
        <rect
           style="display:inline;fill:#f9f9f9;fill-opacity:1;stroke:none;stroke-width:0.979998;enable-background:new"
           id="rect7-7-6-1"
           width="245"
           height="245"
           x="628.28412"
           y="9.2208347"
           rx="52.88694"
           ry="56.686279"
           inkscape:label="rect979" />
      </g>
    </clipPath>
    <clipPath
       clipPathUnits="userSpaceOnUse"
       id="clipPath6-5-6-0">
      <g
         id="g7-9-4-7"
         transform="matrix(0.9793994,0.20433647,-0.20194742,0.97890375,0,0)">
        <rect
           style="display:inline;fill:#f9f9f9;fill-opacity:1;stroke:none;stroke-width:0.979998;enable-background:new"
           id="rect6-2-9-5"
           width="245"
           height="245"
           x="628.28412"
           y="9.2208347"
           rx="52.88694"
           ry="56.686279"
           inkscape:label="rect979" />
      </g>
    </clipPath>
    <clipPath
       clipPathUnits="userSpaceOnUse"
       id="clipPath5-2-5-8">
      <g
         id="g6-8-0-7"
         transform="matrix(0.97726679,0.1938571,-0.21290378,0.98122261,0,0)">
        <rect
           style="display:inline;fill:#f9f9f9;fill-opacity:1;stroke:none;stroke-width:0.979998;enable-background:new"
           id="rect5-9-4-0"
           width="245"
           height="245"
           x="628.28412"
           y="9.2208347"
           rx="52.88694"
           ry="56.686279"
           inkscape:label="rect979" />
      </g>
    </clipPath>
    <clipPath
       clipPathUnits="userSpaceOnUse"
       id="clipPath4-7-8-4">
      <g
         id="g5-3-7-8">
        <rect
           style="display:inline;fill:#f9f9f9;fill-opacity:1;stroke:none;stroke-width:0.979998;enable-background:new"
           id="rect4-6-1-0"
           width="245"
           height="245"
           x="628.28412"
           y="9.2208347"
           rx="52.88694"
           ry="56.686279"
           inkscape:label="rect979" />
      </g>
    </clipPath>
    <clipPath
       clipPathUnits="userSpaceOnUse"
       id="clipPath3-1-7-4">
      <g
         id="g4-2-2-29">
        <rect
           style="display:inline;fill:#f9f9f9;fill-opacity:1;stroke:none;stroke-width:0.979998;enable-background:new"
           id="rect3-9-7-6"
           width="245"
           height="245"
           x="628.28412"
           y="9.2208347"
           rx="52.88694"
           ry="56.686279"
           inkscape:label="rect979" />
      </g>
    </clipPath>
    <clipPath
       clipPathUnits="userSpaceOnUse"
       id="clipPath2-3-2-1">
      <g
         id="g3-1-2-0">
        <rect
           style="display:inline;fill:#f9f9f9;fill-opacity:1;stroke:none;stroke-width:0.979998;enable-background:new"
           id="rect2-9-6-4"
           width="245"
           height="245"
           x="628.28412"
           y="9.2208347"
           rx="52.88694"
           ry="56.686279"
           inkscape:label="rect979" />
      </g>
    </clipPath>
    <clipPath
       clipPathUnits="userSpaceOnUse"
       id="clipPath1-4-1-2">
      <g
         id="g2-7-0-2">
        <rect
           style="display:inline;fill:#f9f9f9;fill-opacity:1;stroke:none;stroke-width:0.979998;enable-background:new"
           id="rect1-8-6-20"
           width="245"
           height="245"
           x="628.28412"
           y="9.2208347"
           rx="52.88694"
           ry="56.686279"
           inkscape:label="rect979" />
      </g>
    </clipPath>
    <clipPath
       clipPathUnits="userSpaceOnUse"
       id="clipPath159">
      <rect
         style="display:inline;opacity:1;fill:none;fill-opacity:1;fill-rule:nonzero;stroke:none;stroke-width:0.436031;enable-background:new"
         id="rect160"
         width="109.00833"
         height="109.00833"
         x="-654.04309"
         y="477.31082"
         rx="23.53109"
         ry="25.221537"
         inkscape:label="rect979" />
    </clipPath>
    <clipPath
       clipPathUnits="userSpaceOnUse"
       id="clipPath15-7-4-0-3">
      <g
         id="g16-5-5-4-6">
        <rect
           style="display:inline;fill:#f9f9f9;fill-opacity:1;stroke:none;stroke-width:0.979998;enable-background:new"
           id="rect15-3-2-6-0"
           width="245"
           height="245"
           x="628.28412"
           y="9.2208347"
           rx="52.88694"
           ry="56.686279"
           inkscape:label="rect979" />
      </g>
    </clipPath>
    <clipPath
       clipPathUnits="userSpaceOnUse"
       id="clipPath14-5-5-2-6">
      <g
         id="g15-6-4-6-2">
        <rect
           style="display:inline;fill:#f9f9f9;fill-opacity:1;stroke:none;stroke-width:0.979998;enable-background:new"
           id="rect14-2-7-7-6"
           width="245"
           height="245"
           x="628.28412"
           y="9.2208347"
           rx="52.88694"
           ry="56.686279"
           inkscape:label="rect979" />
      </g>
    </clipPath>
    <clipPath
       clipPathUnits="userSpaceOnUse"
       id="clipPath13-9-4-56-1">
      <g
         id="g14-1-4-9-8">
        <rect
           style="display:inline;fill:#f9f9f9;fill-opacity:1;stroke:none;stroke-width:0.979998;enable-background:new"
           id="rect13-2-3-8-7"
           width="245"
           height="245"
           x="628.28412"
           y="9.2208347"
           rx="52.88694"
           ry="56.686279"
           inkscape:label="rect979" />
      </g>
    </clipPath>
    <clipPath
       clipPathUnits="userSpaceOnUse"
       id="clipPath12-7-0-7-9">
      <g
         id="g13-0-7-28-2">
        <rect
           style="display:inline;fill:#f9f9f9;fill-opacity:1;stroke:none;stroke-width:0.979998;enable-background:new"
           id="rect12-9-8-29-0"
           width="245"
           height="245"
           x="628.28412"
           y="9.2208347"
           rx="52.88694"
           ry="56.686279"
           inkscape:label="rect979" />
      </g>
    </clipPath>
    <clipPath
       clipPathUnits="userSpaceOnUse"
       id="clipPath11-3-6-9-2">
      <g
         id="g12-6-8-60-3">
        <rect
           style="display:inline;fill:#f9f9f9;fill-opacity:1;stroke:none;stroke-width:0.979998;enable-background:new"
           id="rect11-0-8-2-7"
           width="245"
           height="245"
           x="628.28412"
           y="9.2208347"
           rx="52.88694"
           ry="56.686279"
           inkscape:label="rect979" />
      </g>
    </clipPath>
    <clipPath
       clipPathUnits="userSpaceOnUse"
       id="clipPath10-6-4-7-5">
      <g
         id="g11-2-3-6-9">
        <rect
           style="display:inline;fill:#f9f9f9;fill-opacity:1;stroke:none;stroke-width:0.979998;enable-background:new"
           id="rect10-6-1-1-2"
           width="245"
           height="245"
           x="628.28412"
           y="9.2208347"
           rx="52.88694"
           ry="56.686279"
           inkscape:label="rect979" />
      </g>
    </clipPath>
    <clipPath
       clipPathUnits="userSpaceOnUse"
       id="clipPath9-1-4-3-2">
      <g
         id="g10-8-9-21-8">
        <rect
           style="display:inline;fill:#f9f9f9;fill-opacity:1;stroke:none;stroke-width:0.979998;enable-background:new"
           id="rect9-7-2-5-9"
           width="245"
           height="245"
           x="628.28412"
           y="9.2208347"
           rx="52.88694"
           ry="56.686279"
           inkscape:label="rect979" />
      </g>
    </clipPath>
    <clipPath
       clipPathUnits="userSpaceOnUse"
       id="clipPath8-9-0-9-7">
      <g
         id="g9-2-6-9-3">
        <rect
           style="display:inline;fill:#f9f9f9;fill-opacity:1;stroke:none;stroke-width:0.979998;enable-background:new"
           id="rect8-0-8-1-6"
           width="245"
           height="245"
           x="628.28412"
           y="9.2208347"
           rx="52.88694"
           ry="56.686279"
           inkscape:label="rect979" />
      </g>
    </clipPath>
    <clipPath
       clipPathUnits="userSpaceOnUse"
       id="clipPath7-2-9-4-1">
      <g
         id="g8-3-2-9-2">
        <rect
           style="display:inline;fill:#f9f9f9;fill-opacity:1;stroke:none;stroke-width:0.979998;enable-background:new"
           id="rect7-7-6-1-9"
           width="245"
           height="245"
           x="628.28412"
           y="9.2208347"
           rx="52.88694"
           ry="56.686279"
           inkscape:label="rect979" />
      </g>
    </clipPath>
    <clipPath
       clipPathUnits="userSpaceOnUse"
       id="clipPath6-5-6-0-3">
      <g
         id="g7-9-4-7-1"
         transform="matrix(0.9793994,0.20433647,-0.20194742,0.97890375,0,0)">
        <rect
           style="display:inline;fill:#f9f9f9;fill-opacity:1;stroke:none;stroke-width:0.979998;enable-background:new"
           id="rect6-2-9-5-9"
           width="245"
           height="245"
           x="628.28412"
           y="9.2208347"
           rx="52.88694"
           ry="56.686279"
           inkscape:label="rect979" />
      </g>
    </clipPath>
    <clipPath
       clipPathUnits="userSpaceOnUse"
       id="clipPath5-2-5-8-4">
      <g
         id="g6-8-0-7-7"
         transform="matrix(0.97726679,0.1938571,-0.21290378,0.98122261,0,0)">
        <rect
           style="display:inline;fill:#f9f9f9;fill-opacity:1;stroke:none;stroke-width:0.979998;enable-background:new"
           id="rect5-9-4-0-8"
           width="245"
           height="245"
           x="628.28412"
           y="9.2208347"
           rx="52.88694"
           ry="56.686279"
           inkscape:label="rect979" />
      </g>
    </clipPath>
    <clipPath
       clipPathUnits="userSpaceOnUse"
       id="clipPath4-7-8-4-4">
      <g
         id="g5-3-7-8-5">
        <rect
           style="display:inline;fill:#f9f9f9;fill-opacity:1;stroke:none;stroke-width:0.979998;enable-background:new"
           id="rect4-6-1-0-0"
           width="245"
           height="245"
           x="628.28412"
           y="9.2208347"
           rx="52.88694"
           ry="56.686279"
           inkscape:label="rect979" />
      </g>
    </clipPath>
    <clipPath
       clipPathUnits="userSpaceOnUse"
       id="clipPath3-1-7-4-3">
      <g
         id="g4-2-2-29-6">
        <rect
           style="display:inline;fill:#f9f9f9;fill-opacity:1;stroke:none;stroke-width:0.979998;enable-background:new"
           id="rect3-9-7-6-1"
           width="245"
           height="245"
           x="628.28412"
           y="9.2208347"
           rx="52.88694"
           ry="56.686279"
           inkscape:label="rect979" />
      </g>
    </clipPath>
    <clipPath
       clipPathUnits="userSpaceOnUse"
       id="clipPath2-3-2-1-0">
      <g
         id="g3-1-2-0-6">
        <rect
           style="display:inline;fill:#f9f9f9;fill-opacity:1;stroke:none;stroke-width:0.979998;enable-background:new"
           id="rect2-9-6-4-3"
           width="245"
           height="245"
           x="628.28412"
           y="9.2208347"
           rx="52.88694"
           ry="56.686279"
           inkscape:label="rect979" />
      </g>
    </clipPath>
    <clipPath
       clipPathUnits="userSpaceOnUse"
       id="clipPath1-4-1-2-2">
      <g
         id="g2-7-0-2-0">
        <rect
           style="display:inline;fill:#f9f9f9;fill-opacity:1;stroke:none;stroke-width:0.979998;enable-background:new"
           id="rect1-8-6-20-6"
           width="245"
           height="245"
           x="628.28412"
           y="9.2208347"
           rx="52.88694"
           ry="56.686279"
           inkscape:label="rect979" />
      </g>
    </clipPath>
    <clipPath
       clipPathUnits="userSpaceOnUse"
       id="clipPath159-1">
      <rect
         style="display:inline;opacity:1;fill:none;fill-opacity:1;fill-rule:nonzero;stroke:none;stroke-width:0.436031;enable-background:new"
         id="rect160-5"
         width="109.00833"
         height="109.00833"
         x="-654.04309"
         y="477.31082"
         rx="23.53109"
         ry="25.221537"
         inkscape:label="rect979" />
    </clipPath>
    <filter
       inkscape:collect="always"
       style="color-interpolation-filters:sRGB"
       id="filter18-8"
       x="-0.068307705"
       y="-0.49436963"
       width="1.1366154"
       height="1.9887393">
      <feGaussianBlur
         inkscape:collect="always"
         stdDeviation="2.0589897"
         id="feGaussianBlur18-5" />
    </filter>
    <linearGradient
       inkscape:collect="always"
       xlink:href="#linearGradient300"
       id="linearGradient36"
       gradientUnits="userSpaceOnUse"
       gradientTransform="matrix(0.99990236,0,0,1.0000001,-0.09722079,-1.1723651)"
       x1="635.60394"
       y1="-419.92892"
       x2="623.62427"
       y2="-419.96301" />
    <linearGradient
       id="linearGradient300"
       inkscape:collect="always">
      <stop
         style="stop-color:#9c7432;stop-opacity:1;"
         offset="0"
         id="stop299" />
      <stop
         style="stop-color:#7f552b;stop-opacity:1;"
         offset="0.50017989"
         id="stop300" />
    </linearGradient>
    <linearGradient
       inkscape:collect="always"
       xlink:href="#linearGradient151"
       id="linearGradient37"
       gradientUnits="userSpaceOnUse"
       gradientTransform="matrix(0.99992304,0,0,0.99997935,1.285533,-0.80480132)"
       x1="756.59705"
       y1="-105.84973"
       x2="776.88995"
       y2="-112.4436" />
    <linearGradient
       id="linearGradient151"
       inkscape:collect="always">
      <stop
         style="stop-color:#e1b360;stop-opacity:1;"
         offset="0"
         id="stop150" />
      <stop
         style="stop-color:#c5854b;stop-opacity:1;"
         offset="1"
         id="stop151" />
    </linearGradient>
    <linearGradient
       inkscape:collect="always"
       xlink:href="#linearGradient296"
       id="linearGradient38"
       gradientUnits="userSpaceOnUse"
       gradientTransform="matrix(0.99992304,0,0,0.99997935,1.285553,-0.80486132)"
       x1="756.59698"
       y1="-114.57274"
       x2="774.0733"
       y2="-105.84967" />
    <linearGradient
       id="linearGradient296"
       inkscape:collect="always">
      <stop
         style="stop-color:#000000;stop-opacity:0.5;"
         offset="0.49745938"
         id="stop295" />
      <stop
         style="stop-color:#e1b360;stop-opacity:0;"
         offset="1"
         id="stop296" />
    </linearGradient>
    <linearGradient
       inkscape:collect="always"
       xlink:href="#linearGradient3"
       id="linearGradient9-9"
       gradientUnits="userSpaceOnUse"
       gradientTransform="translate(-1074.5699,-753.06281)"
       x1="756.59705"
       y1="-105.84973"
       x2="776.88995"
       y2="-112.4436" />
    <linearGradient
       id="linearGradient3"
       inkscape:collect="always">
      <stop
         style="stop-color:#c5854b;stop-opacity:1;"
         offset="0"
         id="stop3" />
      <stop
         style="stop-color:#e1b360;stop-opacity:1;"
         offset="1"
         id="stop4" />
    </linearGradient>
    <linearGradient
       inkscape:collect="always"
       xlink:href="#linearGradient298"
       id="linearGradient39"
       gradientUnits="userSpaceOnUse"
       gradientTransform="translate(-456.10036,973.48531)"
       x1="756.59698"
       y1="-114.57275"
       x2="774.0733"
       y2="-105.84967" />
    <linearGradient
       id="linearGradient298"
       inkscape:collect="always">
      <stop
         style="stop-color:#000000;stop-opacity:0.5;"
         offset="0.49577305"
         id="stop297" />
      <stop
         style="stop-color:#d6983d;stop-opacity:0;"
         offset="1"
         id="stop298" />
    </linearGradient>
    <linearGradient
       inkscape:collect="always"
       xlink:href="#linearGradient346"
       id="linearGradient190"
       gradientUnits="userSpaceOnUse"
       gradientTransform="matrix(2.690172,0,0,0.37168718,-1.0938378,1.4876255)"
       x1="-170.08971"
       y1="1662.6091"
       x2="-143.19827"
       y2="1689.5004" />
    <linearGradient
       id="linearGradient346"
       inkscape:collect="always"
       gradientTransform="matrix(2.6901717,0,0,0.37172348,-178.18127,-39.681345)"
       x1="-170.08971"
       y1="1662.6091"
       x2="-143.19827"
       y2="1662.6091"
       gradientUnits="userSpaceOnUse">
      <stop
         style="stop-color:#e1b360;stop-opacity:1;"
         offset="0"
         id="stop345" />
      <stop
         style="stop-color:#c5854b;stop-opacity:1;"
         offset="1"
         id="stop346" />
    </linearGradient>
  </defs>
  <g
     inkscape:label="Layer 1"
     inkscape:groupmode="layer"
     id="layer1"
     transform="translate(-186.79583,-162.98332)">
    <g
       id="g158"
       transform="translate(677.02221,-340.16741)">
      <rect
         style="opacity:0.469511;fill:none;fill-opacity:1;stroke:none;stroke-width:0.0264583;stroke-linecap:round;stroke-linejoin:round;stroke-dasharray:none;paint-order:stroke markers fill"
         id="rect158"
         width="135.46667"
         height="135.46666"
         x="-490.22638"
         y="503.15073"
         rx="0"
         ry="0" />
      <path
         id="rect84-5-5-90"
         style="display:inline;fill:#f9f9f9;fill-opacity:1;fill-rule:nonzero;stroke:none;stroke-width:0.436032;enable-background:new"
         inkscape:label="rect979"
         d="m -453.46638,516.37985 c -13.03621,0 -23.53086,11.249 -23.53086,25.22172 v 58.5649 c 0,13.97271 10.49465,25.22171 23.53086,25.22171 h 61.94661 c 13.03621,0 23.53086,-11.249 23.53086,-25.22171 v -58.5649 c 0,-13.97272 -10.49465,-25.22172 -23.53086,-25.22172 z" />
      <g
         id="g18-7-0"
         transform="matrix(0.44459312,0,0,0.4418489,-745.17719,364.56943)"
         style="display:inline;stroke:none;enable-background:new">
        <path
           d="m 849.73872,40.233648 c 0.25207,-0.0261 0.48758,-0.0185 0.70302,0.0185 0.86265,0.136157 1.89519,1.06604 2.25369,2.114019 0.35845,1.048076 14.5805,72.996533 -5.71541,114.411023 -20.29598,41.41419 -65.19258,53.95272 -91.05365,53.77304 -43.46117,0.64022 -81.20644,-14.87793 -98.56761,-50.23929 18.84719,-0.6411 25.11549,-18.89316 25.42165,-34.09392 0.0941,-4.69043 7.44564,-55.723095 9.132,-57.969445 0.46402,-0.566079 1.14071,-0.282593 1.47391,0.238995 7.06544,11.042646 13.566,16.746095 23.10038,21.959969 15.14982,6.544156 25.01565,8.946459 47.36807,4.971608 22.35244,-3.97485 59.16259,-17.241599 83.30111,-53.471073 0.92637,-1.189194 1.8262,-1.622436 2.58268,-1.708355 z"
           style="color:#000000;display:inline;fill:#878787;fill-opacity:1;stroke:none;stroke-width:8.72234;stroke-linecap:round;-inkscape-stroke:none;paint-order:stroke fill markers;enable-background:new"
           id="path1-9-5-1-0-7-9"
           clip-path="url(#clipPath15-7-4-0-3)"
           transform="translate(-25.08106,329.68772)" />
        <path
           id="path18-0-5-9-3-1-1"
           style="display:inline;fill:#000000;stroke:none;stroke-width:0.764521;stroke-linecap:round;stroke-linejoin:round;enable-background:new"
           d="m 720.66408,109.36487 a 6.8275524,6.8275524 0 0 1 5.11174,6.6069 6.8275524,6.8275524 0 0 1 -6.82795,6.82801 6.8275524,6.8275524 0 0 1 -6.82783,-6.82801 6.8275524,6.8275524 0 0 1 3.60461,-5.99965 14.931168,18.241787 0 0 0 -11.03384,17.585 14.931168,18.241787 0 0 0 14.93097,18.24188 14.931168,18.241787 0 0 0 14.93104,-18.24188 14.931168,18.241787 0 0 0 -13.88874,-18.19225 z"
           clip-path="url(#clipPath14-5-5-2-6)"
           transform="translate(-25.08106,329.68772)" />
        <path
           id="path19-6-0-1-6-1-9"
           style="display:inline;fill:#000000;stroke:none;stroke-width:1.03999;stroke-linecap:round;stroke-linejoin:round;enable-background:new"
           d="m 780.98149,101.84012 a 9.1729993,9.1729993 0 0 1 7.79549,9.06871 9.1729993,9.1729993 0 0 1 -9.17326,9.17326 9.1729993,9.1729993 0 0 1 -9.17317,-9.17326 9.1729993,9.1729993 0 0 1 6.86272,-8.86067 21.454427,23.491938 0 0 0 -18.54054,23.26409 21.454427,23.491938 0 0 0 21.45431,23.49211 21.454427,23.491938 0 0 0 21.45429,-23.49211 21.454427,23.491938 0 0 0 -20.67984,-23.47213 z"
           clip-path="url(#clipPath13-9-4-56-1)"
           transform="translate(-25.08106,329.68772)" />
        <ellipse
           style="display:inline;fill:#ffffff;fill-opacity:1;stroke:none;stroke-width:3.39246;stroke-linecap:round;stroke-linejoin:round;enable-background:new"
           id="path23-1-0-0-1-5-6"
           cx="714.19342"
           cy="126.55418"
           rx="24.914579"
           ry="27.915354"
           clip-path="url(#clipPath12-7-0-7-9)"
           transform="translate(-25.08106,329.68772)" />
        <ellipse
           style="display:inline;fill:#ffffff;fill-opacity:1;stroke:none;stroke-width:3.35411;stroke-linecap:round;stroke-linejoin:round;enable-background:new"
           id="path24-59-3-7-06-9-2"
           cx="771.84082"
           cy="124.00266"
           rx="34.593624"
           ry="35.311008"
           clip-path="url(#clipPath11-3-6-9-2)"
           transform="translate(-25.08106,329.68772)" />
        <ellipse
           style="display:inline;fill:#000000;fill-opacity:1;stroke:none;stroke-width:3.49939;stroke-linecap:round;stroke-linejoin:round;enable-background:new"
           id="path25-4-4-5-3-7-5"
           cx="719.56659"
           cy="127.58898"
           rx="14.990241"
           ry="18.223436"
           clip-path="url(#clipPath10-6-4-7-5)"
           transform="translate(-25.08106,329.68772)" />
        <ellipse
           style="display:inline;fill:#000000;fill-opacity:1;stroke:none;stroke-width:4.74816;stroke-linecap:round;stroke-linejoin:round;enable-background:new"
           id="ellipse25-9-6-87-2-7-4"
           cx="780.20886"
           cy="125.29725"
           rx="21.419426"
           ry="23.48007"
           clip-path="url(#clipPath9-1-4-3-2)"
           transform="translate(-25.08106,329.68772)" />
        <circle
           style="display:inline;fill:#ffffff;fill-opacity:1;stroke:none;stroke-width:3.482;stroke-linecap:round;stroke-linejoin:round;enable-background:new"
           id="path26-09-6-0-0-6-4"
           cx="779.57758"
           cy="110.93171"
           r="9.1958961"
           clip-path="url(#clipPath8-9-0-9-7)"
           transform="translate(-25.08106,329.68772)" />
        <circle
           style="display:inline;fill:#ffffff;fill-opacity:1;stroke:none;stroke-width:3.38096;stroke-linecap:round;stroke-linejoin:round;enable-background:new"
           id="path27-1-0-4-6-7-9"
           cx="718.98322"
           cy="116.02381"
           r="6.829483"
           clip-path="url(#clipPath7-2-9-4-1)"
           transform="translate(-25.08106,329.68772)" />
        <ellipse
           style="display:inline;fill:#000000;fill-opacity:1;stroke:none;stroke-width:5.10019;stroke-linecap:round;stroke-linejoin:round;enable-background:new"
           id="path25-2-7-2-8-1-3-9"
           cx="616.39062"
           cy="260.35126"
           rx="21.213598"
           ry="27.354008"
           transform="matrix(0.97890084,-0.20433586,0.20194682,0.97939649,-25.08106,329.68772)"
           clip-path="url(#clipPath6-5-6-0-3)" />
        <ellipse
           style="display:inline;fill:#ffffff;fill-opacity:1;stroke:none;stroke-width:6.0066;stroke-linecap:round;stroke-linejoin:round;enable-background:new"
           id="path27-0-7-5-0-5-6-3"
           cx="613.74329"
           cy="238.50417"
           rx="12.082136"
           ry="12.184595"
           transform="matrix(0.98103702,-0.19382043,0.21286351,0.97708194,-25.08106,329.68772)"
           clip-path="url(#clipPath5-2-5-8-4)" />
        <path
           id="rect30-5-36-1-8-42-5-5-6"
           style="display:inline;fill:#f58a19;fill-opacity:1;stroke:none;stroke-width:3.54708;stroke-linecap:round;stroke-linejoin:round;enable-background:new"
           d="m 787.53179,188.44829 c 0,0 22.02369,14.15329 25.94551,16.23677 3.92182,2.0836 9.52819,-1.63692 9.52819,-1.63692 l 1.74561,-3.28561 c 0,0 -0.0525,-6.72822 -3.97713,-8.81183 -3.92182,-2.08358 -27.97746,-12.4156 -27.97746,-12.4156 z"
           sodipodi:nodetypes="czcczcc"
           clip-path="url(#clipPath4-7-8-4-4)"
           transform="translate(-25.08106,329.68772)" />
        <path
           d="m 777.12485,195.31355 c -26.62918,8.4338 -45.16903,2.00011 -46.70745,1.02634 -1.83974,-1.1646 -0.67425,-3.50226 1.39163,-3.48918 2.20947,0.0185 12.41579,3.72058 33.22579,-0.30703 21.99996,-4.25842 36.56661,-23.07875 36.56661,-23.07875 0,0 -2.15006,-1.47451 -5.38158,-3.72217 -1.52275,-1.05931 0.30003,-2.7116 3.58671,-2.82724 1.97227,-0.0611 4.47157,0.41516 7.09264,1.91237 7.05287,4.02892 7.29387,8.98914 4.97835,10.06633 -1.61983,0.75361 -4.0585,-1.44249 -4.0585,-1.44249 0,0 -4.96022,6.58214 -12.12012,11.8211 -8.11045,5.9345 -12.1174,7.83045 -18.57408,10.04106 z"
           style="display:inline;fill:#000000;fill-opacity:1;stroke:none;stroke-width:0.76476;stroke-linecap:round;stroke-linejoin:round;stroke-dasharray:none;enable-background:new"
           id="path1-5-1-9-96-4-6-0"
           sodipodi:nodetypes="csccccccccsc"
           clip-path="url(#clipPath3-1-7-4-3)"
           transform="translate(-25.08106,329.68772)" />
        <path
           style="display:inline;fill:#000000;fill-opacity:1;stroke:none;stroke-width:0.764521;stroke-linecap:round;stroke-linejoin:round;enable-background:new"
           d="m 828.63418,213.51101 c -1.63536,2.68692 -0.99023,8.69529 5.17006,12.82949 4.49803,3.01872 10.82337,1.72772 13.62045,2.63772 2.79707,0.91001 5.13674,3.11293 6.70677,5.9727 1.31592,2.39663 4.18348,-5.97382 2.16609,-16.04359 -1.7272,-8.62139 -7.1735,-11.82197 -9.90889,-13.29335 -2.56628,-1.38047 -5.50834,-1.25826 -5.762,-0.25556 -0.19108,0.75449 2.97921,2.40764 4.64823,4.75743 1.48306,2.08787 1.94246,3.34177 0.38643,4.22143 -2.4311,1.3741 -5.08288,-1.73129 -6.3333,-0.78413 -1.41948,1.07573 0.98405,3.44443 -0.69431,4.55915 -1.74899,1.1619 -4.5691,-0.22593 -5.85206,-1.38701 -1.5155,-1.37186 -3.14668,-5.11704 -4.14755,-3.21435 z"
           id="path20-5-5-1-7-3-5"
           sodipodi:nodetypes="cssssssssssscc"
           clip-path="url(#clipPath2-3-2-1-0)"
           transform="translate(-25.08106,329.68772)" />
        <path
           id="path21-7-5-9-0-04-65-9-0"
           style="display:inline;fill:#cccccc;fill-opacity:1;stroke:none;stroke-width:0.739338;stroke-linecap:round;stroke-linejoin:round;enable-background:new"
           d="m 818.27129,204.42478 c 0.73266,2.59028 3.3114,1.41469 4.87673,2.2837 1.56451,0.87049 1.92632,3.67994 4.513,2.93524 2.58689,-0.74491 5.97627,-6.8432 5.24309,-9.43355 -0.73266,-2.59026 -3.31161,-1.41275 -4.87666,-2.28264 -1.56452,-0.87047 -1.92615,-3.6816 -4.51311,-2.93619 -2.58669,0.74488 -5.97617,6.84309 -5.24305,9.43344 z"
           sodipodi:nodetypes="zzzzzzz"
           clip-path="url(#clipPath1-4-1-2-2)"
           transform="translate(-25.08106,329.68772)" />
      </g>
      <path
         id="rect18-2"
         clip-path="url(#clipPath159-1)"
         style="display:inline;opacity:0.444465;fill:#000000;fill-opacity:1;stroke:none;stroke-width:0.90423;stroke-linecap:round;stroke-linejoin:round;paint-order:fill markers stroke;filter:url(#filter18-8);enable-background:new"
         d="m -633.65468,580.40721 c -1.13868,0 -2.05569,0.91669 -2.05569,2.05537 v 5.88497 c 0,1.13868 0.91701,2.05537 2.05569,2.05537 h 68.23149 c 1.13868,0 2.05569,-0.91669 2.05569,-2.05537 v -5.88497 c 0,-1.13868 -0.91701,-2.05537 -2.05569,-2.05537 z"
         transform="matrix(1.0000001,0,0,0.99990236,177.04592,39.107778)" />
      <path
         id="rect17-27-9"
         style="display:inline;fill:url(#linearGradient36);stroke:none;stroke-width:0.817439;stroke-linecap:round;stroke-linejoin:round;paint-order:fill markers stroke;enable-background:new"
         d="m 623.46625,-424.30426 c 0,-0.84547 0.75235,-1.5265 1.68688,-1.5265 l 8.59794,4.7e-4 c 0.93453,0 1.68709,0.68056 1.68709,1.52603 l -7e-5,6.33761 c 0,0.84548 -0.75235,1.52651 -1.68688,1.52651 l -8.59846,4e-5 c -0.93453,0 -1.68657,-0.68108 -1.68657,-1.52655 z"
         transform="matrix(-0.00215835,0.99999767,0.99999773,0.00213137,0,0)" />
      <rect
         style="display:inline;fill:url(#linearGradient37);stroke:none;stroke-width:0.834706;stroke-linecap:round;stroke-linejoin:round;paint-order:fill markers stroke;enable-background:new"
         id="rect7-6"
         width="17.474964"
         height="8.7229042"
         x="757.82434"
         y="-115.37524"
         rx="1.8429124"
         ry="1.4565468"
         transform="matrix(-0.46028144,0.88777305,0.88755453,0.46070268,0,0)" />
      <path
         id="rect14-8"
         style="display:inline;fill:url(#linearGradient38);stroke:none;stroke-width:0.834706;stroke-linecap:round;stroke-linejoin:round;paint-order:fill markers stroke;enable-background:new"
         d="m 757.96903,-114.48685 c 0.27903,-0.52313 0.93218,-0.8883 1.69791,-0.8883 l 13.78915,-10e-6 c 1.02098,0 1.84316,0.64965 1.84316,1.45658 l 3.3e-4,5.8097 c 0,0.80692 -0.82214,1.45636 -1.84311,1.45636 l -13.78915,10e-6 c -1.02098,0 -1.84316,-0.64964 -1.84316,-1.45657 l 1.3e-4,-5.80946 c 0,-0.20173 0.0517,-0.39393 0.14474,-0.56831 z"
         transform="matrix(-0.46028144,0.88777305,0.88755453,0.46070268,0,0)" />
      <g
         id="g154"
         transform="matrix(1.0000001,0,0,0.99990236,230.24182,-42.825085)"
         style="stroke:none">
        <rect
           style="display:inline;fill:url(#linearGradient9-9);stroke:none;stroke-width:0.834747;stroke-linecap:round;stroke-linejoin:round;paint-order:fill markers stroke;enable-background:new"
           id="rect9-3"
           width="17.476309"
           height="8.7230844"
           x="-317.97296"
           y="-867.63562"
           rx="1.8430542"
           ry="1.4565768"
           transform="matrix(-0.46024598,-0.88779144,0.88753611,-0.46073816,0,0)" />
        <rect
           style="display:inline;fill:url(#linearGradient39);stroke:none;stroke-width:0.834747;stroke-linecap:round;stroke-linejoin:round;paint-order:fill markers stroke;enable-background:new"
           id="rect8-0"
           width="17.476309"
           height="8.7230844"
           x="300.49664"
           y="858.91254"
           rx="1.8430542"
           ry="1.4565768"
           transform="matrix(0.46024598,0.88779144,-0.88753611,0.46073816,0,0)" />
      </g>
      <path
         id="rect19-1-4-1"
         style="display:inline;fill:url(#linearGradient190);stroke:none;stroke-width:0.904186;stroke-linecap:round;stroke-linejoin:round;paint-order:fill markers stroke;enable-background:new"
         d="m -456.60882,619.45831 c -1.13868,0 -2.05569,0.91649 -2.05569,2.05517 v 5.8844 c 0,1.13868 0.91701,2.05569 2.05569,2.05569 h 68.23149 c 1.13868,0 2.05569,-0.91701 2.05569,-2.05569 v -5.8844 c 0,-1.13868 -0.91701,-2.05517 -2.05569,-2.05517 z" />
    </g>
  </g>
</svg>
