<?xml version="1.0" encoding="UTF-8" standalone="no"?>
<!-- Created with Inkscape (http://www.inkscape.org/) -->

<svg
   width="26.962999mm"
   height="26.962999mm"
   viewBox="0 0 26.962999 26.962999"
   version="1.1"
   id="svg1"
   inkscape:version="1.3.2 (091e20ef0f, 2023-11-25)"
   sodipodi:docname="outline.svg"
   xmlns:inkscape="http://www.inkscape.org/namespaces/inkscape"
   xmlns:sodipodi="http://sodipodi.sourceforge.net/DTD/sodipodi-0.dtd"
   xmlns="http://www.w3.org/2000/svg"
   xmlns:svg="http://www.w3.org/2000/svg">
  <sodipodi:namedview
     id="namedview1"
     pagecolor="#88888f"
     bordercolor="#cccccc"
     borderopacity="1"
     inkscape:showpageshadow="0"
     inkscape:pageopacity="1"
     inkscape:pagecheckerboard="0"
     inkscape:deskcolor="#d1d1d1"
     inkscape:document-units="mm"
     inkscape:zoom="0.80533109"
     inkscape:cx="80.091283"
     inkscape:cy="-13.658978"
     inkscape:window-width="1920"
     inkscape:window-height="1131"
     inkscape:window-x="0"
     inkscape:window-y="32"
     inkscape:window-maximized="1"
     inkscape:current-layer="layer1" />
  <defs
     id="defs1" />
  <g
     inkscape:label="Layer 1"
     inkscape:groupmode="layer"
     id="layer1">
    <g
       id="g1"
       transform="translate(-85.195653,-94.550045)"
       style="fill:#ffffff">
      <g
         id="g99-96-3-2"
         transform="translate(-17.4798,-58.4866)"
         style="fill:#ffffff;fill-opacity:1">
        <g
           id="g98-7-4-2"
           style="fill:#ffffff;fill-opacity:1">
          <path
             id="path97-7-6-3"
             style="color:#000000;fill:#ffffff;fill-opacity:1;stroke-linecap:round;-inkscape-stroke:none;paint-order:stroke fill markers"
             d="m 128.08359,155.05953 c -0.31485,-0.002 -0.65018,0.15789 -0.88264,0.4563 l -0.004,0.004 -0.0176,0.0253 -0.0176,0.0217 -0.006,0.01 c -2.63414,3.93674 -6.6612,5.39049 -9.08989,5.82238 -2.47012,0.43924 -3.34054,0.20533 -5.01778,-0.51728 -1.00716,-0.55517 -1.61843,-1.08468 -2.3766,-2.26963 -0.0938,-0.14678 -0.25593,-0.29699 -0.48834,-0.35346 -0.14462,-0.0351 -0.28601,-0.0161 -0.41806,0.0289 -0.13206,0.045 -0.25668,0.11703 -0.3514,0.23254 l -0.004,0.004 -0.004,0.004 -0.01,0.0134 c -0.12814,0.17071 -0.14566,0.30507 -0.15245,0.32815 -0.0234,0.0797 -0.0433,0.1662 -0.0661,0.26768 -0.0451,0.20167 -0.0961,0.46136 -0.15038,0.76378 -0.10833,0.60398 -0.23323,1.3789 -0.35192,2.16369 -0.11874,0.78507 -0.22995,1.57807 -0.31419,2.21124 -0.0633,0.47564 0.0402,0.8696 0.093,1.14876 -0.003,0.0478 -0.0132,0.12142 -0.0139,0.15968 -0.0164,0.81319 -0.20112,1.70347 -0.59583,2.35542 -0.39471,0.65196 -0.94754,1.08174 -1.88464,1.11362 l -0.62942,0.0212 c -0.22853,-0.10998 -0.4222,-0.21084 -0.4222,-0.21084 l 0.46095,0.93534 c 2.12678,4.33184 6.76552,6.21298 11.91556,6.1371 3.18893,0.0177 8.56129,-1.49676 11.03343,-6.54121 1.25806,-2.56709 1.40956,-5.89725 1.28519,-8.62117 -0.0622,-1.36246 -0.19933,-2.57381 -0.32401,-3.45509 -0.0623,-0.44076 -0.12307,-0.7984 -0.16846,-1.05265 -0.0225,-0.1257 -0.039,-0.22636 -0.0543,-0.30282 -0.008,-0.0437 -0.0162,-0.0758 -0.0196,-0.0915 0.005,0.0214 8.5e-4,-0.0207 -0.0294,-0.10956 -0.0568,-0.16618 -0.1183,-0.30727 -0.26769,-0.44906 -0.14939,-0.14179 -0.3085,-0.20684 -0.52245,-0.24288 -0.0438,-0.007 -0.0883,-0.0106 -0.13332,-0.0109 z m -0.0537,0.67592 c 0.0289,-0.003 0.0559,-0.002 0.0806,0.002 0.0989,0.0156 0.21728,0.12221 0.25838,0.24236 0.0411,0.12016 1.67163,8.36894 -0.65526,13.11703 -2.32689,4.74807 -7.47422,6.1856 -10.43915,6.165 -4.98275,0.0734 -9.31018,-1.70574 -11.3006,-5.75986 2.16079,-0.0735 2.87945,-2.16606 2.91455,-3.9088 0.0108,-0.53775 0.85362,-6.38857 1.04696,-6.64611 0.0532,-0.0649 0.13078,-0.0324 0.16898,0.0274 0.81004,1.26602 1.55532,1.91992 2.64842,2.51768 1.7369,0.75028 2.86801,1.0257 5.43068,0.56999 2.56266,-0.45571 6.78288,-1.97673 9.55032,-6.13038 0.10621,-0.13634 0.20937,-0.186 0.2961,-0.19585 z" />
        </g>
      </g>
      <g
         id="g103-1-3-1"
         transform="matrix(0.97890084,-0.20433587,0.20194681,0.97939649,-17.4793,-58.48644)"
         style="fill:#ffffff;fill-opacity:1">
        <g
           id="g102-2-3-8"
           style="fill:#ffffff;fill-opacity:1">
          <path
             id="path101-21-4-3"
             style="color:#000000;fill:#ffffff;fill-opacity:1;stroke-linecap:round;stroke-linejoin:round;-inkscape-stroke:none;paint-order:stroke fill markers"
             d="m 70.626991,180.27531 c -0.162624,-0.0323 -0.329961,-0.0489 -0.499868,-0.0489 -0.907831,0 -1.709067,0.48169 -2.25192,1.18167 -0.541463,0.6982 -0.853801,1.62195 -0.853801,2.62889 0,1.00689 0.311982,1.93478 0.853606,2.63318 0.135758,0.17505 0.287644,0.336 0.453323,0.47923 0.165678,0.14324 0.345318,0.26852 0.536154,0.37198 0.09944,0.0539 0.237119,-0.007 0.376225,-0.0708 0.277841,0.11131 0.575538,0.17223 0.886188,0.17223 0.828401,0 1.567999,-0.43662 2.07605,-1.09173 0.508053,-0.65511 0.806987,-1.53378 0.806987,-2.49409 0,-0.13284 -0.0064,-0.26377 -0.01763,-0.39307 0.106064,-0.11632 0.202938,-0.23116 0.185086,-0.34445 -0.03771,-0.23929 -0.09401,-0.47101 -0.166851,-0.6933 -0.07285,-0.22228 -0.162536,-0.43507 -0.267935,-0.63577 -0.1054,-0.20071 -0.226534,-0.38953 -0.361907,-0.56409 -0.441266,-0.56899 -1.050642,-0.99154 -1.75371,-1.13096 z m -0.182261,0.65318 a 2.4321036,3.1360912 0 0 1 2.114701,3.10945 2.4321036,3.1360912 0 0 1 -2.432398,3.13637 2.4321036,3.1360912 0 0 1 -2.431767,-3.13603 2.4321036,3.1360912 0 0 1 2.431892,-3.13648 2.4321036,3.1360912 0 0 1 0.317572,0.0267 z" />
        </g>
      </g>
      <path
         id="ellipse430-9-4-4"
         style="fill:#ffffff;fill-opacity:1;stroke:none;stroke-width:0.388936;stroke-linecap:round;stroke-linejoin:miter"
         d="m 101.5028,103.32471 a 3.7499065,3.8277867 0 0 0 -3.6018,2.76934 2.8563435,3.2004485 0 0 0 -2.6913,-2.14922 2.8563435,3.2004485 0 0 0 -2.8562,3.20032 2.8563435,3.2004485 0 0 0 2.8562,3.20084 2.8563435,3.2004485 0 0 0 2.6918,-2.13062 3.7499065,3.8277867 0 0 0 3.6013,2.76521 3.7499065,3.8277867 0 0 0 3.7502,-3.82768 3.7499065,3.8277867 0 0 0 -3.7502,-3.82819 z m 0.907,1.42317 a 2.3218393,2.5452883 0 0 1 2.3218,2.54507 2.3218393,2.5452883 0 0 1 -2.3218,2.54558 2.3218393,2.5452883 0 0 1 -2.3219,-2.54558 2.3218393,2.5452883 0 0 1 2.3219,-2.54507 z m -6.5836,0.42685 a 1.7185632,2.0892863 0 0 1 1.7182,2.08928 1.7185632,2.0892863 0 0 1 -1.7182,2.08928 1.7185632,2.0892863 0 0 1 -1.7188,-2.08928 1.7185632,2.0892863 0 0 1 1.7188,-2.08928 z" />
      <ellipse
         style="fill:#ffffff;fill-opacity:1;stroke:none;stroke-width:0.387617;stroke-linecap:round;stroke-linejoin:round"
         id="circle431-6-0-2"
         cx="95.832359"
         cy="106.10946"
         rx="0.7829693"
         ry="0.78298879" />
      <ellipse
         style="fill:#ffffff;stroke:none;stroke-width:0.595814;stroke-linecap:round;paint-order:stroke fill markers"
         id="circle432-2-1-2"
         cx="88.03878"
         cy="105.83858"
         rx="1.323804"
         ry="1.323837" />
      <path
         d="m 104.4144,111.63825 c -0.1746,-0.1214 0.034,-0.3108 0.4112,-0.3241 0.2261,-0.01 0.5127,0.048 0.8132,0.2192 0.8086,0.462 0.8362,1.0306 0.5707,1.1541 -0.1857,0.086 -0.9024,-0.4493 -0.9024,-0.4493 0,0 -0.5222,-0.3422 -0.8927,-0.5999 z"
         style="fill:#ffffff;fill-opacity:1;stroke:none;stroke-width:0.0876773;stroke-linecap:round;stroke-linejoin:round;stroke-dasharray:none"
         id="path432-2-0-4"
         sodipodi:nodetypes="cccccc" />
      <path
         style="color:#000000;fill:#ffffff;stroke-width:0.999988;-inkscape-stroke:none"
         d="m 105.2083,111.77535 c -1.5937,2.2126 -4.031,3.5472 -8.0089,2.9837 -0.5193,-0.069 -0.9134,0.6153 1.4528,0.7119 2.9659,0.1206 5.5251,-0.7637 7.267,-3.1819 z"
         id="path433-4-2-5"
         sodipodi:nodetypes="ccscc" />
      <path
         d="m 104.8659,113.47005 c -0.6615,-0.2764 -1.5684,0.6625 -1.2246,0.9142 0.527,0.3379 2.3644,1.513 2.7517,1.7188 0.4496,0.2388 1.0919,-0.1876 1.0919,-0.1876 l 0.2005,-0.3768 c 0,0 -0.01,-0.7713 -0.4563,-1.0102 -0.2907,-0.1544 -1.5042,-0.6859 -2.3554,-1.0553 0,0 -0.01,0 -0.01,0 z"
         style="fill:#ffffff;stroke-width:0.40666;stroke-linecap:round;stroke-linejoin:round"
         id="path434-77-2-1" />
      <path
         id="path435-5-9-7"
         style="fill:#ffffff;fill-opacity:1;stroke:none;stroke-width:0.0847624;stroke-linecap:round;stroke-linejoin:round"
         d="m 106.9424,116.07315 c 0.084,0.2969 0.3796,0.1622 0.5591,0.2618 0.1794,0.1 0.2208,0.4219 0.5173,0.3365 0.2965,-0.085 0.6851,-0.7845 0.601,-1.0815 -0.084,-0.297 -0.3797,-0.162 -0.5591,-0.2617 -0.1793,-0.1 -0.2207,-0.4221 -0.5172,-0.3367 -0.2966,0.085 -0.6852,0.7846 -0.6011,1.0816 z"
         sodipodi:nodetypes="zzzzzzz" />
      <ellipse
         style="fill:#ffffff;fill-opacity:1;stroke:none;stroke-width:0.377451;stroke-linecap:round;stroke-linejoin:round"
         id="circle436-2-6-5"
         cx="102.41"
         cy="105.90615"
         rx="0.99682391"
         ry="0.99685425" />
      <path
         id="path421-1"
         style="fill:#ffffff;fill-opacity:1;stroke:none;stroke-width:0.0863068;stroke-linecap:round;stroke-linejoin:round"
         d="m 111.1047,119.45388 c 0.1487,0.27038 0.4395,-1.02899 0.3334,-1.93164 -0.2357,-2.00494 -2.3519,-2.57702 -3.0943,-1.78747 -0.6299,0.65669 -0.49,1.66327 0.01,2.26491 0.4952,0.60163 1.2521,0.61547 1.736,0.72591 0.484,0.11044 0.8424,0.40566 1.0197,0.72829 z"
         sodipodi:nodetypes="ssczcs" />
    </g>
    <g
       id="g10"
       transform="translate(-85.195653,-94.550045)"
       style="fill:#ffffff">
      <g
         id="g3"
         transform="translate(-17.4798,-58.4866)"
         style="fill:#ffffff;fill-opacity:1">
        <g
           id="g2"
           style="fill:#ffffff;fill-opacity:1">
          <path
             id="path1"
             style="color:#000000;fill:#ffffff;fill-opacity:1;stroke-linecap:round;-inkscape-stroke:none;paint-order:stroke fill markers"
             d="m 128.08359,155.05953 c -0.31485,-0.002 -0.65018,0.15789 -0.88264,0.4563 l -0.004,0.004 -0.0176,0.0253 -0.0176,0.0217 -0.006,0.01 c -2.63414,3.93674 -6.6612,5.39049 -9.08989,5.82238 -2.47012,0.43924 -3.34054,0.20533 -5.01778,-0.51728 -1.00716,-0.55517 -1.61843,-1.08468 -2.3766,-2.26963 -0.0938,-0.14678 -0.25593,-0.29699 -0.48834,-0.35346 -0.14462,-0.0351 -0.28601,-0.0161 -0.41806,0.0289 -0.13206,0.045 -0.25668,0.11703 -0.3514,0.23254 l -0.004,0.004 -0.004,0.004 -0.01,0.0134 c -0.12814,0.17071 -0.14566,0.30507 -0.15245,0.32815 -0.0234,0.0797 -0.0433,0.1662 -0.0661,0.26768 -0.0451,0.20167 -0.0961,0.46136 -0.15038,0.76378 -0.10833,0.60398 -0.23323,1.3789 -0.35192,2.16369 -0.11874,0.78507 -0.22995,1.57807 -0.31419,2.21124 -0.0633,0.47564 0.0402,0.8696 0.093,1.14876 -0.003,0.0478 -0.0132,0.12142 -0.0139,0.15968 -0.0164,0.81319 -0.20112,1.70347 -0.59583,2.35542 -0.39471,0.65196 -0.94754,1.08174 -1.88464,1.11362 l -0.62942,0.0212 c -0.22853,-0.10998 -0.4222,-0.21084 -0.4222,-0.21084 l 0.46095,0.93534 c 2.12678,4.33184 6.76552,6.21298 11.91556,6.1371 3.18893,0.0177 8.56129,-1.49676 11.03343,-6.54121 1.25806,-2.56709 1.40956,-5.89725 1.28519,-8.62117 -0.0622,-1.36246 -0.19933,-2.57381 -0.32401,-3.45509 -0.0623,-0.44076 -0.12307,-0.7984 -0.16846,-1.05265 -0.0225,-0.1257 -0.039,-0.22636 -0.0543,-0.30282 -0.008,-0.0437 -0.0162,-0.0758 -0.0196,-0.0915 0.005,0.0214 8.5e-4,-0.0207 -0.0294,-0.10956 -0.0568,-0.16618 -0.1183,-0.30727 -0.26769,-0.44906 -0.14939,-0.14179 -0.3085,-0.20684 -0.52245,-0.24288 -0.0438,-0.007 -0.0883,-0.0106 -0.13332,-0.0109 z m -0.0537,0.67592 c 0.0289,-0.003 0.0559,-0.002 0.0806,0.002 0.0989,0.0156 0.21728,0.12221 0.25838,0.24236 0.0411,0.12016 1.67163,8.36894 -0.65526,13.11703 -2.32689,4.74807 -7.47422,6.1856 -10.43915,6.165 -4.98275,0.0734 -9.31018,-1.70574 -11.3006,-5.75986 2.16079,-0.0735 2.87945,-2.16606 2.91455,-3.9088 0.0108,-0.53775 0.85362,-6.38857 1.04696,-6.64611 0.0532,-0.0649 0.13078,-0.0324 0.16898,0.0274 0.81004,1.26602 1.55532,1.91992 2.64842,2.51768 1.7369,0.75028 2.86801,1.0257 5.43068,0.56999 2.56266,-0.45571 6.78288,-1.97673 9.55032,-6.13038 0.10621,-0.13634 0.20937,-0.186 0.2961,-0.19585 z" />
        </g>
      </g>
      <g
         id="g5"
         transform="matrix(0.97890084,-0.20433587,0.20194681,0.97939649,-17.4793,-58.48644)"
         style="fill:#ffffff;fill-opacity:1">
        <g
           id="g4"
           style="fill:#ffffff;fill-opacity:1">
          <path
             id="path3"
             style="color:#000000;fill:#ffffff;fill-opacity:1;stroke-linecap:round;stroke-linejoin:round;-inkscape-stroke:none;paint-order:stroke fill markers"
             d="m 70.626991,180.27531 c -0.162624,-0.0323 -0.329961,-0.0489 -0.499868,-0.0489 -0.907831,0 -1.709067,0.48169 -2.25192,1.18167 -0.541463,0.6982 -0.853801,1.62195 -0.853801,2.62889 0,1.00689 0.311982,1.93478 0.853606,2.63318 0.135758,0.17505 0.287644,0.336 0.453323,0.47923 0.165678,0.14324 0.345318,0.26852 0.536154,0.37198 0.09944,0.0539 0.237119,-0.007 0.376225,-0.0708 0.277841,0.11131 0.575538,0.17223 0.886188,0.17223 0.828401,0 1.567999,-0.43662 2.07605,-1.09173 0.508053,-0.65511 0.806987,-1.53378 0.806987,-2.49409 0,-0.13284 -0.0064,-0.26377 -0.01763,-0.39307 0.106064,-0.11632 0.202938,-0.23116 0.185086,-0.34445 -0.03771,-0.23929 -0.09401,-0.47101 -0.166851,-0.6933 -0.07285,-0.22228 -0.162536,-0.43507 -0.267935,-0.63577 -0.1054,-0.20071 -0.226534,-0.38953 -0.361907,-0.56409 -0.441266,-0.56899 -1.050642,-0.99154 -1.75371,-1.13096 z m -0.182261,0.65318 a 2.4321036,3.1360912 0 0 1 2.114701,3.10945 2.4321036,3.1360912 0 0 1 -2.432398,3.13637 2.4321036,3.1360912 0 0 1 -2.431767,-3.13603 2.4321036,3.1360912 0 0 1 2.431892,-3.13648 2.4321036,3.1360912 0 0 1 0.317572,0.0267 z" />
        </g>
      </g>
      <path
         id="path5"
         style="fill:#ffffff;fill-opacity:1;stroke:none;stroke-width:0.388936;stroke-linecap:round;stroke-linejoin:miter"
         d="m 101.5028,103.32471 a 3.7499065,3.8277867 0 0 0 -3.6018,2.76934 2.8563435,3.2004485 0 0 0 -2.6913,-2.14922 2.8563435,3.2004485 0 0 0 -2.8562,3.20032 2.8563435,3.2004485 0 0 0 2.8562,3.20084 2.8563435,3.2004485 0 0 0 2.6918,-2.13062 3.7499065,3.8277867 0 0 0 3.6013,2.76521 3.7499065,3.8277867 0 0 0 3.7502,-3.82768 3.7499065,3.8277867 0 0 0 -3.7502,-3.82819 z m 0.907,1.42317 a 2.3218393,2.5452883 0 0 1 2.3218,2.54507 2.3218393,2.5452883 0 0 1 -2.3218,2.54558 2.3218393,2.5452883 0 0 1 -2.3219,-2.54558 2.3218393,2.5452883 0 0 1 2.3219,-2.54507 z m -6.5836,0.42685 a 1.7185632,2.0892863 0 0 1 1.7182,2.08928 1.7185632,2.0892863 0 0 1 -1.7182,2.08928 1.7185632,2.0892863 0 0 1 -1.7188,-2.08928 1.7185632,2.0892863 0 0 1 1.7188,-2.08928 z" />
      <ellipse
         style="fill:#ffffff;fill-opacity:1;stroke:none;stroke-width:0.387617;stroke-linecap:round;stroke-linejoin:round"
         id="ellipse5"
         cx="95.832359"
         cy="106.10946"
         rx="0.7829693"
         ry="0.78298879" />
      <ellipse
         style="fill:#ffffff;stroke:none;stroke-width:0.595814;stroke-linecap:round;paint-order:stroke fill markers"
         id="ellipse6"
         cx="88.03878"
         cy="105.83858"
         rx="1.323804"
         ry="1.323837" />
      <path
         d="m 104.4144,111.63825 c -0.1746,-0.1214 0.034,-0.3108 0.4112,-0.3241 0.2261,-0.01 0.5127,0.048 0.8132,0.2192 0.8086,0.462 0.8362,1.0306 0.5707,1.1541 -0.1857,0.086 -0.9024,-0.4493 -0.9024,-0.4493 0,0 -0.5222,-0.3422 -0.8927,-0.5999 z"
         style="fill:#ffffff;fill-opacity:1;stroke:none;stroke-width:0.0876773;stroke-linecap:round;stroke-linejoin:round;stroke-dasharray:none"
         id="path6"
         sodipodi:nodetypes="cccccc" />
      <path
         style="color:#000000;fill:#ffffff;stroke-width:0.999988;-inkscape-stroke:none"
         d="m 105.2083,111.77535 c -1.5937,2.2126 -4.031,3.5472 -8.0089,2.9837 -0.5193,-0.069 -0.9134,0.6153 1.4528,0.7119 2.9659,0.1206 5.5251,-0.7637 7.267,-3.1819 z"
         id="path7"
         sodipodi:nodetypes="ccscc" />
      <path
         d="m 104.8659,113.47005 c -0.6615,-0.2764 -1.5684,0.6625 -1.2246,0.9142 0.527,0.3379 2.3644,1.513 2.7517,1.7188 0.4496,0.2388 1.0919,-0.1876 1.0919,-0.1876 l 0.2005,-0.3768 c 0,0 -0.01,-0.7713 -0.4563,-1.0102 -0.2907,-0.1544 -1.5042,-0.6859 -2.3554,-1.0553 0,0 -0.01,0 -0.01,0 z"
         style="fill:#ffffff;stroke-width:0.40666;stroke-linecap:round;stroke-linejoin:round"
         id="path8" />
      <path
         id="path9"
         style="fill:#ffffff;fill-opacity:1;stroke:none;stroke-width:0.0847624;stroke-linecap:round;stroke-linejoin:round"
         d="m 106.9424,116.07315 c 0.084,0.2969 0.3796,0.1622 0.5591,0.2618 0.1794,0.1 0.2208,0.4219 0.5173,0.3365 0.2965,-0.085 0.6851,-0.7845 0.601,-1.0815 -0.084,-0.297 -0.3797,-0.162 -0.5591,-0.2617 -0.1793,-0.1 -0.2207,-0.4221 -0.5172,-0.3367 -0.2966,0.085 -0.6852,0.7846 -0.6011,1.0816 z"
         sodipodi:nodetypes="zzzzzzz" />
      <ellipse
         style="fill:#ffffff;fill-opacity:1;stroke:none;stroke-width:0.377451;stroke-linecap:round;stroke-linejoin:round"
         id="ellipse9"
         cx="102.41"
         cy="105.90615"
         rx="0.99682391"
         ry="0.99685425" />
      <path
         id="path10"
         style="fill:#ffffff;fill-opacity:1;stroke:none;stroke-width:0.0863068;stroke-linecap:round;stroke-linejoin:round"
         d="m 111.1047,119.45388 c 0.1487,0.27038 0.4395,-1.02899 0.3334,-1.93164 -0.2357,-2.00494 -2.3519,-2.57702 -3.0943,-1.78747 -0.6299,0.65669 -0.49,1.66327 0.01,2.26491 0.4952,0.60163 1.2521,0.61547 1.736,0.72591 0.484,0.11044 0.8424,0.40566 1.0197,0.72829 z"
         sodipodi:nodetypes="ssczcs" />
    </g>
  </g>
</svg>
