<?xml version="1.0" encoding="UTF-8" standalone="no"?>
<!-- Created with Inkscape (http://www.inkscape.org/) -->

<svg
   width="8.4666662mm"
   height="8.4666662mm"
   viewBox="0 0 8.4666662 8.4666662"
   version="1.1"
   id="svg1"
   inkscape:version="1.3 (0e150ed6c4, 2023-07-21)"
   sodipodi:docname="gimp-logo-macos-small.svg"
   xmlns:inkscape="http://www.inkscape.org/namespaces/inkscape"
   xmlns:sodipodi="http://sodipodi.sourceforge.net/DTD/sodipodi-0.dtd"
   xmlns="http://www.w3.org/2000/svg"
   xmlns:svg="http://www.w3.org/2000/svg">
  <sodipodi:namedview
     id="namedview1"
     pagecolor="#d4d4d4"
     bordercolor="#666666"
     borderopacity="1.0"
     inkscape:showpageshadow="2"
     inkscape:pageopacity="0.0"
     inkscape:pagecheckerboard="0"
     inkscape:deskcolor="#d1d1d1"
     inkscape:document-units="mm"
     inkscape:zoom="6.8417508"
     inkscape:cx="6.3580217"
     inkscape:cy="13.519931"
     inkscape:window-width="1920"
     inkscape:window-height="1011"
     inkscape:window-x="0"
     inkscape:window-y="32"
     inkscape:window-maximized="1"
     inkscape:current-layer="g231-5-1" />
  <defs
     id="defs1">
    <clipPath
       clipPathUnits="userSpaceOnUse"
       id="clipPath15-7-4-0-96">
      <g
         id="g16-5-5-4-0">
        <rect
           style="display:inline;fill:#f9f9f9;fill-opacity:1;stroke:none;stroke-width:0.979998;enable-background:new"
           id="rect15-3-2-6-4"
           width="245"
           height="245"
           x="628.28412"
           y="9.2208347"
           rx="52.88694"
           ry="56.686279"
           inkscape:label="rect979" />
      </g>
    </clipPath>
    <clipPath
       clipPathUnits="userSpaceOnUse"
       id="clipPath14-5-5-2-1">
      <g
         id="g15-6-4-6-0">
        <rect
           style="display:inline;fill:#f9f9f9;fill-opacity:1;stroke:none;stroke-width:0.979998;enable-background:new"
           id="rect14-2-7-7-4"
           width="245"
           height="245"
           x="628.28412"
           y="9.2208347"
           rx="52.88694"
           ry="56.686279"
           inkscape:label="rect979" />
      </g>
    </clipPath>
    <clipPath
       clipPathUnits="userSpaceOnUse"
       id="clipPath13-9-4-56-8">
      <g
         id="g14-1-4-9-7">
        <rect
           style="display:inline;fill:#f9f9f9;fill-opacity:1;stroke:none;stroke-width:0.979998;enable-background:new"
           id="rect13-2-3-8-0"
           width="245"
           height="245"
           x="628.28412"
           y="9.2208347"
           rx="52.88694"
           ry="56.686279"
           inkscape:label="rect979" />
      </g>
    </clipPath>
    <clipPath
       clipPathUnits="userSpaceOnUse"
       id="clipPath12-7-0-7-8">
      <g
         id="g13-0-7-28-62">
        <rect
           style="display:inline;fill:#f9f9f9;fill-opacity:1;stroke:none;stroke-width:0.979998;enable-background:new"
           id="rect12-9-8-29-47"
           width="245"
           height="245"
           x="628.28412"
           y="9.2208347"
           rx="52.88694"
           ry="56.686279"
           inkscape:label="rect979" />
      </g>
    </clipPath>
    <clipPath
       clipPathUnits="userSpaceOnUse"
       id="clipPath11-3-6-9-9">
      <g
         id="g12-6-8-60-39">
        <rect
           style="display:inline;fill:#f9f9f9;fill-opacity:1;stroke:none;stroke-width:0.979998;enable-background:new"
           id="rect11-0-8-2-2"
           width="245"
           height="245"
           x="628.28412"
           y="9.2208347"
           rx="52.88694"
           ry="56.686279"
           inkscape:label="rect979" />
      </g>
    </clipPath>
    <clipPath
       clipPathUnits="userSpaceOnUse"
       id="clipPath10-6-4-7-83">
      <g
         id="g11-2-3-6-0">
        <rect
           style="display:inline;fill:#f9f9f9;fill-opacity:1;stroke:none;stroke-width:0.979998;enable-background:new"
           id="rect10-6-1-1-1"
           width="245"
           height="245"
           x="628.28412"
           y="9.2208347"
           rx="52.88694"
           ry="56.686279"
           inkscape:label="rect979" />
      </g>
    </clipPath>
    <clipPath
       clipPathUnits="userSpaceOnUse"
       id="clipPath9-1-4-3-7">
      <g
         id="g10-8-9-21-89">
        <rect
           style="display:inline;fill:#f9f9f9;fill-opacity:1;stroke:none;stroke-width:0.979998;enable-background:new"
           id="rect9-7-2-5-1"
           width="245"
           height="245"
           x="628.28412"
           y="9.2208347"
           rx="52.88694"
           ry="56.686279"
           inkscape:label="rect979" />
      </g>
    </clipPath>
    <clipPath
       clipPathUnits="userSpaceOnUse"
       id="clipPath8-9-0-9-5">
      <g
         id="g9-2-6-9-4">
        <rect
           style="display:inline;fill:#f9f9f9;fill-opacity:1;stroke:none;stroke-width:0.979998;enable-background:new"
           id="rect8-0-8-1-9"
           width="245"
           height="245"
           x="628.28412"
           y="9.2208347"
           rx="52.88694"
           ry="56.686279"
           inkscape:label="rect979" />
      </g>
    </clipPath>
    <clipPath
       clipPathUnits="userSpaceOnUse"
       id="clipPath7-2-9-4-2">
      <g
         id="g8-3-2-9-5">
        <rect
           style="display:inline;fill:#f9f9f9;fill-opacity:1;stroke:none;stroke-width:0.979998;enable-background:new"
           id="rect7-7-6-1-7"
           width="245"
           height="245"
           x="628.28412"
           y="9.2208347"
           rx="52.88694"
           ry="56.686279"
           inkscape:label="rect979" />
      </g>
    </clipPath>
    <clipPath
       clipPathUnits="userSpaceOnUse"
       id="clipPath6-5-6-0-4">
      <g
         id="g7-9-4-7-9"
         transform="matrix(0.9793994,0.20433647,-0.20194742,0.97890375,0,0)">
        <rect
           style="display:inline;fill:#f9f9f9;fill-opacity:1;stroke:none;stroke-width:0.979998;enable-background:new"
           id="rect6-2-9-5-94"
           width="245"
           height="245"
           x="628.28412"
           y="9.2208347"
           rx="52.88694"
           ry="56.686279"
           inkscape:label="rect979" />
      </g>
    </clipPath>
    <clipPath
       clipPathUnits="userSpaceOnUse"
       id="clipPath5-2-5-8-5">
      <g
         id="g6-8-0-7-9"
         transform="matrix(0.97726679,0.1938571,-0.21290378,0.98122261,0,0)">
        <rect
           style="display:inline;fill:#f9f9f9;fill-opacity:1;stroke:none;stroke-width:0.979998;enable-background:new"
           id="rect5-9-4-0-3"
           width="245"
           height="245"
           x="628.28412"
           y="9.2208347"
           rx="52.88694"
           ry="56.686279"
           inkscape:label="rect979" />
      </g>
    </clipPath>
    <clipPath
       clipPathUnits="userSpaceOnUse"
       id="clipPath4-7-8-4-57">
      <g
         id="g5-3-7-8-0">
        <rect
           style="display:inline;fill:#f9f9f9;fill-opacity:1;stroke:none;stroke-width:0.979998;enable-background:new"
           id="rect4-6-1-0-8"
           width="245"
           height="245"
           x="628.28412"
           y="9.2208347"
           rx="52.88694"
           ry="56.686279"
           inkscape:label="rect979" />
      </g>
    </clipPath>
    <clipPath
       clipPathUnits="userSpaceOnUse"
       id="clipPath3-1-7-4-1">
      <g
         id="g4-2-2-29-99">
        <rect
           style="display:inline;fill:#f9f9f9;fill-opacity:1;stroke:none;stroke-width:0.979998;enable-background:new"
           id="rect3-9-7-6-7"
           width="245"
           height="245"
           x="628.28412"
           y="9.2208347"
           rx="52.88694"
           ry="56.686279"
           inkscape:label="rect979" />
      </g>
    </clipPath>
    <clipPath
       clipPathUnits="userSpaceOnUse"
       id="clipPath2-3-2-1-8">
      <g
         id="g3-1-2-0-2">
        <rect
           style="display:inline;fill:#f9f9f9;fill-opacity:1;stroke:none;stroke-width:0.979998;enable-background:new"
           id="rect2-9-6-4-5"
           width="245"
           height="245"
           x="628.28412"
           y="9.2208347"
           rx="52.88694"
           ry="56.686279"
           inkscape:label="rect979" />
      </g>
    </clipPath>
    <clipPath
       clipPathUnits="userSpaceOnUse"
       id="clipPath1-4-1-2-34">
      <g
         id="g2-7-0-2-9">
        <rect
           style="display:inline;fill:#f9f9f9;fill-opacity:1;stroke:none;stroke-width:0.979998;enable-background:new"
           id="rect1-8-6-20-0"
           width="245"
           height="245"
           x="628.28412"
           y="9.2208347"
           rx="52.88694"
           ry="56.686279"
           inkscape:label="rect979" />
      </g>
    </clipPath>
    <clipPath
       clipPathUnits="userSpaceOnUse"
       id="clipPath15-7-4-0-96-6">
      <g
         id="g16-5-5-4-0-5">
        <rect
           style="display:inline;fill:#f9f9f9;fill-opacity:1;stroke:none;stroke-width:0.979998;enable-background:new"
           id="rect15-3-2-6-4-6"
           width="245"
           height="245"
           x="628.28412"
           y="9.2208347"
           rx="52.88694"
           ry="56.686279"
           inkscape:label="rect979" />
      </g>
    </clipPath>
    <clipPath
       clipPathUnits="userSpaceOnUse"
       id="clipPath14-5-5-2-1-9">
      <g
         id="g15-6-4-6-0-3">
        <rect
           style="display:inline;fill:#f9f9f9;fill-opacity:1;stroke:none;stroke-width:0.979998;enable-background:new"
           id="rect14-2-7-7-4-7"
           width="245"
           height="245"
           x="628.28412"
           y="9.2208347"
           rx="52.88694"
           ry="56.686279"
           inkscape:label="rect979" />
      </g>
    </clipPath>
    <clipPath
       clipPathUnits="userSpaceOnUse"
       id="clipPath13-9-4-56-8-4">
      <g
         id="g14-1-4-9-7-5">
        <rect
           style="display:inline;fill:#f9f9f9;fill-opacity:1;stroke:none;stroke-width:0.979998;enable-background:new"
           id="rect13-2-3-8-0-2"
           width="245"
           height="245"
           x="628.28412"
           y="9.2208347"
           rx="52.88694"
           ry="56.686279"
           inkscape:label="rect979" />
      </g>
    </clipPath>
    <clipPath
       clipPathUnits="userSpaceOnUse"
       id="clipPath12-7-0-7-8-5">
      <g
         id="g13-0-7-28-62-4">
        <rect
           style="display:inline;fill:#f9f9f9;fill-opacity:1;stroke:none;stroke-width:0.979998;enable-background:new"
           id="rect12-9-8-29-47-7"
           width="245"
           height="245"
           x="628.28412"
           y="9.2208347"
           rx="52.88694"
           ry="56.686279"
           inkscape:label="rect979" />
      </g>
    </clipPath>
    <clipPath
       clipPathUnits="userSpaceOnUse"
       id="clipPath11-3-6-9-9-4">
      <g
         id="g12-6-8-60-39-4">
        <rect
           style="display:inline;fill:#f9f9f9;fill-opacity:1;stroke:none;stroke-width:0.979998;enable-background:new"
           id="rect11-0-8-2-2-3"
           width="245"
           height="245"
           x="628.28412"
           y="9.2208347"
           rx="52.88694"
           ry="56.686279"
           inkscape:label="rect979" />
      </g>
    </clipPath>
    <clipPath
       clipPathUnits="userSpaceOnUse"
       id="clipPath10-6-4-7-83-0">
      <g
         id="g11-2-3-6-0-7">
        <rect
           style="display:inline;fill:#f9f9f9;fill-opacity:1;stroke:none;stroke-width:0.979998;enable-background:new"
           id="rect10-6-1-1-1-8"
           width="245"
           height="245"
           x="628.28412"
           y="9.2208347"
           rx="52.88694"
           ry="56.686279"
           inkscape:label="rect979" />
      </g>
    </clipPath>
    <clipPath
       clipPathUnits="userSpaceOnUse"
       id="clipPath9-1-4-3-7-6">
      <g
         id="g10-8-9-21-89-8">
        <rect
           style="display:inline;fill:#f9f9f9;fill-opacity:1;stroke:none;stroke-width:0.979998;enable-background:new"
           id="rect9-7-2-5-1-8"
           width="245"
           height="245"
           x="628.28412"
           y="9.2208347"
           rx="52.88694"
           ry="56.686279"
           inkscape:label="rect979" />
      </g>
    </clipPath>
    <clipPath
       clipPathUnits="userSpaceOnUse"
       id="clipPath8-9-0-9-5-4">
      <g
         id="g9-2-6-9-4-3">
        <rect
           style="display:inline;fill:#f9f9f9;fill-opacity:1;stroke:none;stroke-width:0.979998;enable-background:new"
           id="rect8-0-8-1-9-1"
           width="245"
           height="245"
           x="628.28412"
           y="9.2208347"
           rx="52.88694"
           ry="56.686279"
           inkscape:label="rect979" />
      </g>
    </clipPath>
    <clipPath
       clipPathUnits="userSpaceOnUse"
       id="clipPath7-2-9-4-2-4">
      <g
         id="g8-3-2-9-5-9">
        <rect
           style="display:inline;fill:#f9f9f9;fill-opacity:1;stroke:none;stroke-width:0.979998;enable-background:new"
           id="rect7-7-6-1-7-2"
           width="245"
           height="245"
           x="628.28412"
           y="9.2208347"
           rx="52.88694"
           ry="56.686279"
           inkscape:label="rect979" />
      </g>
    </clipPath>
    <clipPath
       clipPathUnits="userSpaceOnUse"
       id="clipPath6-5-6-0-4-0">
      <g
         id="g7-9-4-7-9-6"
         transform="matrix(0.9793994,0.20433647,-0.20194742,0.97890375,0,0)">
        <rect
           style="display:inline;fill:#f9f9f9;fill-opacity:1;stroke:none;stroke-width:0.979998;enable-background:new"
           id="rect6-2-9-5-94-8"
           width="245"
           height="245"
           x="628.28412"
           y="9.2208347"
           rx="52.88694"
           ry="56.686279"
           inkscape:label="rect979" />
      </g>
    </clipPath>
    <clipPath
       clipPathUnits="userSpaceOnUse"
       id="clipPath5-2-5-8-5-9">
      <g
         id="g6-8-0-7-9-2"
         transform="matrix(0.97726679,0.1938571,-0.21290378,0.98122261,0,0)">
        <rect
           style="display:inline;fill:#f9f9f9;fill-opacity:1;stroke:none;stroke-width:0.979998;enable-background:new"
           id="rect5-9-4-0-3-6"
           width="245"
           height="245"
           x="628.28412"
           y="9.2208347"
           rx="52.88694"
           ry="56.686279"
           inkscape:label="rect979" />
      </g>
    </clipPath>
    <clipPath
       clipPathUnits="userSpaceOnUse"
       id="clipPath4-7-8-4-57-6">
      <g
         id="g5-3-7-8-0-4">
        <rect
           style="display:inline;fill:#f9f9f9;fill-opacity:1;stroke:none;stroke-width:0.979998;enable-background:new"
           id="rect4-6-1-0-8-9"
           width="245"
           height="245"
           x="628.28412"
           y="9.2208347"
           rx="52.88694"
           ry="56.686279"
           inkscape:label="rect979" />
      </g>
    </clipPath>
    <clipPath
       clipPathUnits="userSpaceOnUse"
       id="clipPath3-1-7-4-1-5">
      <g
         id="g4-2-2-29-99-0">
        <rect
           style="display:inline;fill:#f9f9f9;fill-opacity:1;stroke:none;stroke-width:0.979998;enable-background:new"
           id="rect3-9-7-6-7-4"
           width="245"
           height="245"
           x="628.28412"
           y="9.2208347"
           rx="52.88694"
           ry="56.686279"
           inkscape:label="rect979" />
      </g>
    </clipPath>
    <clipPath
       clipPathUnits="userSpaceOnUse"
       id="clipPath2-3-2-1-8-8">
      <g
         id="g3-1-2-0-2-7">
        <rect
           style="display:inline;fill:#f9f9f9;fill-opacity:1;stroke:none;stroke-width:0.979998;enable-background:new"
           id="rect2-9-6-4-5-1"
           width="245"
           height="245"
           x="628.28412"
           y="9.2208347"
           rx="52.88694"
           ry="56.686279"
           inkscape:label="rect979" />
      </g>
    </clipPath>
    <clipPath
       clipPathUnits="userSpaceOnUse"
       id="clipPath1-4-1-2-34-7">
      <g
         id="g2-7-0-2-9-2">
        <rect
           style="display:inline;fill:#f9f9f9;fill-opacity:1;stroke:none;stroke-width:0.979998;enable-background:new"
           id="rect1-8-6-20-0-7"
           width="245"
           height="245"
           x="628.28412"
           y="9.2208347"
           rx="52.88694"
           ry="56.686279"
           inkscape:label="rect979" />
      </g>
    </clipPath>
  </defs>
  <g
     inkscape:label="Layer 1"
     inkscape:groupmode="layer"
     id="layer1"
     transform="translate(-116.1182,-168.89738)">
    <rect
       style="opacity:0.469511;fill:none;fill-opacity:1;stroke:none;stroke-width:0.00165364;stroke-linecap:round;stroke-linejoin:round;stroke-dasharray:none;paint-order:stroke markers fill"
       id="rect214-4-2"
       width="8.4666662"
       height="8.4666662"
       x="116.1182"
       y="168.89738"
       rx="0"
       ry="0" />
    <rect
       style="display:inline;fill:#f9f9f9;fill-opacity:1;fill-rule:nonzero;stroke:none;stroke-width:0.0296332;enable-background:new"
       id="rect215-8-6"
       width="7.4083333"
       height="7.4083343"
       x="116.64736"
       y="169.42656"
       rx="1.5992002"
       ry="1.7140853"
       inkscape:label="rect979" />
    <g
       id="g231-5-1"
       transform="matrix(0.03553081,0,0,0.0353115,94.571681,156.8615)"
       style="display:inline;stroke:none;enable-background:new">
      <path
         d="m 849.73872,40.233648 c 0.25207,-0.0261 0.48758,-0.0185 0.70302,0.0185 0.86265,0.136157 1.89519,1.06604 2.25369,2.114019 0.35845,1.048076 14.5805,72.996533 -5.71541,114.411023 -20.29598,41.41419 -65.19258,53.95272 -91.05365,53.77304 -43.46117,0.64022 -81.20644,-14.87793 -98.56761,-50.23929 18.84719,-0.6411 25.11549,-18.89316 25.42165,-34.09392 0.0941,-4.69043 7.44564,-55.723095 9.132,-57.969445 0.46402,-0.566079 1.14071,-0.282593 1.47391,0.238995 7.06544,11.042646 13.566,16.746095 23.10038,21.959969 15.14982,6.544156 25.01565,8.946459 47.36807,4.971608 22.35244,-3.97485 59.16259,-17.241599 83.30111,-53.471073 0.92637,-1.189194 1.8262,-1.622436 2.58268,-1.708355 z"
         style="color:#000000;display:inline;fill:#878787;fill-opacity:1;stroke:none;stroke-width:8.72234;stroke-linecap:round;-inkscape-stroke:none;paint-order:stroke fill markers;enable-background:new"
         id="path221-8-0"
         transform="translate(-25.08106,329.68772)" />
      <path
         id="path222-2-6"
         style="display:inline;fill:#000000;stroke:none;stroke-width:0.764521;stroke-linecap:round;stroke-linejoin:round;enable-background:new"
         d="m 720.66408,109.36487 a 6.8275524,6.8275524 0 0 1 5.11174,6.6069 6.8275524,6.8275524 0 0 1 -6.82795,6.82801 6.8275524,6.8275524 0 0 1 -6.82783,-6.82801 6.8275524,6.8275524 0 0 1 3.60461,-5.99965 14.931168,18.241787 0 0 0 -11.03384,17.585 14.931168,18.241787 0 0 0 14.93097,18.24188 14.931168,18.241787 0 0 0 14.93104,-18.24188 14.931168,18.241787 0 0 0 -13.88874,-18.19225 z"
         transform="translate(-25.08106,329.68772)" />
      <path
         id="path223-6-1"
         style="display:inline;fill:#000000;stroke:none;stroke-width:1.03999;stroke-linecap:round;stroke-linejoin:round;enable-background:new"
         d="m 780.98149,101.84012 a 9.1729993,9.1729993 0 0 1 7.79549,9.06871 9.1729993,9.1729993 0 0 1 -9.17326,9.17326 9.1729993,9.1729993 0 0 1 -9.17317,-9.17326 9.1729993,9.1729993 0 0 1 6.86272,-8.86067 21.454427,23.491938 0 0 0 -18.54054,23.26409 21.454427,23.491938 0 0 0 21.45431,23.49211 21.454427,23.491938 0 0 0 21.45429,-23.49211 21.454427,23.491938 0 0 0 -20.67984,-23.47213 z"
         transform="translate(-25.08106,329.68772)" />
      <ellipse
         style="display:inline;fill:#ffffff;fill-opacity:1;stroke:none;stroke-width:3.39246;stroke-linecap:round;stroke-linejoin:round;enable-background:new"
         id="ellipse223-0-5"
         cx="714.19342"
         cy="126.55418"
         rx="24.914579"
         ry="27.915354"
         transform="translate(-25.08106,329.68772)" />
      <ellipse
         style="display:inline;fill:#ffffff;fill-opacity:1;stroke:none;stroke-width:3.35411;stroke-linecap:round;stroke-linejoin:round;enable-background:new"
         id="ellipse224-6-9"
         cx="771.84082"
         cy="124.00266"
         rx="34.593624"
         ry="35.311008"
         transform="translate(-25.08106,329.68772)" />
      <ellipse
         style="display:inline;fill:#000000;fill-opacity:1;stroke:none;stroke-width:3.49939;stroke-linecap:round;stroke-linejoin:round;enable-background:new"
         id="ellipse225-6-4"
         cx="719.56659"
         cy="127.58898"
         rx="14.990241"
         ry="18.223436"
         transform="translate(-25.08106,329.68772)" />
      <ellipse
         style="display:inline;fill:#000000;fill-opacity:1;stroke:none;stroke-width:4.74816;stroke-linecap:round;stroke-linejoin:round;enable-background:new"
         id="ellipse226-4-9"
         cx="780.20886"
         cy="125.29725"
         rx="21.419426"
         ry="23.48007"
         transform="translate(-25.08106,329.68772)" />
      <circle
         style="display:inline;fill:#ffffff;fill-opacity:1;stroke:none;stroke-width:3.482;stroke-linecap:round;stroke-linejoin:round;enable-background:new"
         id="circle226-6-0"
         cx="779.57758"
         cy="110.93171"
         r="9.1958961"
         transform="translate(-25.08106,329.68772)" />
      <circle
         style="display:inline;fill:#ffffff;fill-opacity:1;stroke:none;stroke-width:3.38096;stroke-linecap:round;stroke-linejoin:round;enable-background:new"
         id="circle227-2-9"
         cx="718.98322"
         cy="116.02381"
         r="6.829483"
         transform="translate(-25.08106,329.68772)" />
      <ellipse
         style="display:inline;fill:#000000;fill-opacity:1;stroke:none;stroke-width:5.10019;stroke-linecap:round;stroke-linejoin:round;enable-background:new"
         id="ellipse227-8-1"
         cx="616.39062"
         cy="260.35126"
         rx="21.213598"
         ry="27.354008"
         transform="matrix(0.97890084,-0.20433586,0.20194682,0.97939649,-25.08106,329.68772)" />
      <ellipse
         style="display:inline;fill:#ffffff;fill-opacity:1;stroke:none;stroke-width:6.0066;stroke-linecap:round;stroke-linejoin:round;enable-background:new"
         id="ellipse228-9-7"
         cx="613.74329"
         cy="238.50417"
         rx="12.082136"
         ry="12.184595"
         transform="matrix(0.98103702,-0.19382043,0.21286351,0.97708194,-25.08106,329.68772)" />
      <path
         id="path228-6-7"
         style="display:inline;fill:#f58a19;fill-opacity:1;stroke:none;stroke-width:3.54708;stroke-linecap:round;stroke-linejoin:round;enable-background:new"
         d="m 787.53179,188.44829 c 0,0 22.02369,14.15329 25.94551,16.23677 3.92182,2.0836 9.52819,-1.63692 9.52819,-1.63692 l 1.74561,-3.28561 c 0,0 -0.0525,-6.72822 -3.97713,-8.81183 -3.92182,-2.08358 -27.97746,-12.4156 -27.97746,-12.4156 z"
         sodipodi:nodetypes="czcczcc"
         transform="translate(-25.08106,329.68772)" />
      <path
         d="m 777.12485,195.31355 c -26.62918,8.4338 -45.16903,2.00011 -46.70745,1.02634 -1.83974,-1.1646 -0.67425,-3.50226 1.39163,-3.48918 2.20947,0.0185 12.41579,3.72058 33.22579,-0.30703 21.99996,-4.25842 36.56661,-23.07875 36.56661,-23.07875 0,0 -2.15006,-1.47451 -5.38158,-3.72217 -1.52275,-1.05931 0.30003,-2.7116 3.58671,-2.82724 1.97227,-0.0611 4.47157,0.41516 7.09264,1.91237 7.05287,4.02892 7.29387,8.98914 4.97835,10.06633 -1.61983,0.75361 -4.0585,-1.44249 -4.0585,-1.44249 0,0 -4.96022,6.58214 -12.12012,11.8211 -8.11045,5.9345 -12.1174,7.83045 -18.57408,10.04106 z"
         style="display:inline;fill:#000000;fill-opacity:1;stroke:none;stroke-width:0.76476;stroke-linecap:round;stroke-linejoin:round;stroke-dasharray:none;enable-background:new"
         id="path229-0-1"
         sodipodi:nodetypes="csccccccccsc"
         transform="translate(-25.08106,329.68772)" />
      <path
         style="display:inline;fill:#000000;fill-opacity:1;stroke:none;stroke-width:0.764521;stroke-linecap:round;stroke-linejoin:round;enable-background:new"
         d="m 828.63418,213.51101 c -1.63536,2.68692 -0.99023,8.69529 5.17006,12.82949 4.49803,3.01872 10.82337,1.72772 13.62045,2.63772 2.79707,0.91001 5.13674,3.11293 6.70677,5.9727 1.31592,2.39663 4.18348,-5.97382 2.16609,-16.04359 -1.7272,-8.62139 -7.1735,-11.82197 -9.90889,-13.29335 -2.56628,-1.38047 -5.50834,-1.25826 -5.762,-0.25556 -0.19108,0.75449 2.97921,2.40764 4.64823,4.75743 1.48306,2.08787 1.94246,3.34177 0.38643,4.22143 -2.4311,1.3741 -5.08288,-1.73129 -6.3333,-0.78413 -1.41948,1.07573 0.98405,3.44443 -0.69431,4.55915 -1.74899,1.1619 -4.5691,-0.22593 -5.85206,-1.38701 -1.5155,-1.37186 -3.14668,-5.11704 -4.14755,-3.21435 z"
         id="path230-7-1"
         sodipodi:nodetypes="cssssssssssscc"
         transform="translate(-25.08106,329.68772)" />
      <path
         id="path231-0-5"
         style="display:inline;fill:#cccccc;fill-opacity:1;stroke:none;stroke-width:0.739338;stroke-linecap:round;stroke-linejoin:round;enable-background:new"
         d="m 818.27129,204.42478 c 0.73266,2.59028 3.3114,1.41469 4.87673,2.2837 1.56451,0.87049 1.92632,3.67994 4.513,2.93524 2.58689,-0.74491 5.97627,-6.8432 5.24309,-9.43355 -0.73266,-2.59026 -3.31161,-1.41275 -4.87666,-2.28264 -1.56452,-0.87047 -1.92615,-3.6816 -4.51311,-2.93619 -2.58669,0.74488 -5.97617,6.84309 -5.24305,9.43344 z"
         sodipodi:nodetypes="zzzzzzz"
         transform="translate(-25.08106,329.68772)" />
    </g>
  </g>
</svg>
