<?xml version="1.0" encoding="UTF-8" standalone="no"?>
<!-- Created with Inkscape (http://www.inkscape.org/) -->

<svg
   xmlns:osb="http://www.openswatchbook.org/uri/2009/osb"
   xmlns:dc="http://purl.org/dc/elements/1.1/"
   xmlns:cc="http://creativecommons.org/ns#"
   xmlns:rdf="http://www.w3.org/1999/02/22-rdf-syntax-ns#"
   xmlns:svg="http://www.w3.org/2000/svg"
   xmlns="http://www.w3.org/2000/svg"
   xmlns:xlink="http://www.w3.org/1999/xlink"
   xmlns:sodipodi="http://sodipodi.sourceforge.net/DTD/sodipodi-0.dtd"
   xmlns:inkscape="http://www.inkscape.org/namespaces/inkscape"
   width="24"
   height="24"
   id="svg4136"
   version="1.1"
   inkscape:version="0.91 r13725"
   viewBox="0 0 24 24"
   sodipodi:docname="gimp-image-tag-sym-24.svg"
   inkscape:export-filename="D:\x\gimp-image-tag-sym-48.png"
   inkscape:export-xdpi="68.080002"
   inkscape:export-ydpi="68.080002">
  <defs
     id="defs4138">
    <linearGradient
       id="linearGradient8074"
       osb:paint="solid">
      <stop
         style="stop-color:#be00be;stop-opacity:1;"
         offset="0"
         id="stop8072" />
    </linearGradient>
    <linearGradient
       id="linearGradient7561"
       osb:paint="solid">
      <stop
         style="stop-color:#a5a5a5;stop-opacity:1;"
         offset="0"
         id="stop7558" />
    </linearGradient>
    <linearGradient
       id="linearGradient7548"
       osb:paint="solid">
      <stop
         style="stop-color:#ebebeb;stop-opacity:1;"
         offset="0"
         id="stop7546" />
    </linearGradient>
    <linearGradient
       id="linearGradient7542"
       osb:paint="solid">
      <stop
         style="stop-color:#c9c9c9;stop-opacity:1;"
         offset="0"
         id="stop7538" />
    </linearGradient>
    <linearGradient
       id="linearGradient19282"
       osb:paint="solid"
       gradientTransform="matrix(0,-735328.32,170712.69,0,2464326300,577972450)">
      <stop
         style="stop-color:#b4b4b4;stop-opacity:1;"
         offset="0"
         id="stop19284" />
    </linearGradient>
    <linearGradient
       id="linearGradient19282-4"
       osb:paint="solid"
       gradientTransform="matrix(0.34682586,0,0,0.30620888,-13.35187,382.03851)">
      <stop
         style="stop-color:#bebebe;stop-opacity:1;"
         offset="0"
         id="stop19284-0" />
    </linearGradient>
    <linearGradient
       xlink:href="#linearGradient19282-4"
       id="linearGradient10174"
       x1="-97"
       y1="168.5"
       x2="-87"
       y2="168.5"
       gradientUnits="userSpaceOnUse"
       gradientTransform="translate(520.93726,194.66866)" />
    <linearGradient
       xlink:href="#linearGradient19282-4"
       id="linearGradient10176"
       x1="142.0002"
       y1="386.95001"
       x2="156.0002"
       y2="386.95001"
       gradientUnits="userSpaceOnUse"
       gradientTransform="translate(520.93726,194.66866)" />
  </defs>
  <sodipodi:namedview
     id="base"
     pagecolor="#ffffff"
     bordercolor="#666666"
     borderopacity="1.0"
     inkscape:pageopacity="0.0"
     inkscape:pageshadow="2"
     inkscape:zoom="5.5"
     inkscape:cx="-7.7272727"
     inkscape:cy="32"
     inkscape:current-layer="g4559"
     showgrid="true"
     inkscape:document-units="px"
     inkscape:grid-bbox="true"
     inkscape:window-width="3440"
     inkscape:window-height="1377"
     inkscape:window-x="-8"
     inkscape:window-y="-8"
     inkscape:window-maximized="1" />
  <metadata
     id="metadata4141">
    <rdf:RDF>
      <cc:Work
         rdf:about="">
        <dc:format>image/svg+xml</dc:format>
        <dc:type
           rdf:resource="http://purl.org/dc/dcmitype/StillImage" />
        <dc:title></dc:title>
      </cc:Work>
    </rdf:RDF>
  </metadata>
  <g
     id="layer1"
     inkscape:label="Layer 1"
     inkscape:groupmode="layer"
     transform="translate(0,-40)">
    <g
       id="stock"
       style="display:inline"
       transform="matrix(1.4886364,0,0,1.508596,-93.79,-1.8312358)"
       inkscape:export-xdpi="90.773643"
       inkscape:export-ydpi="90.773643">
      <g
         transform="translate(-77.874095,-351.36258)"
         style="display:inline"
         id="gimp-image">
        <rect
           transform="translate(241.0002,217)"
           y="162"
           x="-100"
           height="16"
           width="16"
           id="rect6346"
           style="fill:none;stroke:none" />
        <path
           inkscape:connector-curvature="0"
           id="rect5882"
           d="m 142.0002,379.9 0,14.1 14,0 0,-14.1 z m 1,1.1 12,0 0,9 -12,0 z"
           style="fill:url(#linearGradient10176);fill-opacity:1;stroke:none" />
        <path
           inkscape:connector-curvature="0"
           id="rect10683"
           transform="translate(241.0002,217)"
           d="m -97,165 0,7 1,0 c 0,-0.75515 0.671573,-1.375 1.5,-1.375 0.828427,0 1.5,0.61985 1.5,1.375 l 1,0 0,-1.5 c 1.4e-4,-0.98573 -0.7274,-1.47402 -2,-2.0625 0,0 0.02947,3.7e-4 0.25,0 0.40803,0.0835 1.38212,0.3501 1.75,0.59375 -0.09819,-0.35554 -0.14101,-0.89353 -0.4375,-1.34375 C -92.73401,167.23732 -94,166.34375 -94,166.34375 l 0.0625,-0.0312 c 0.05568,-0.0402 0.9453,0.7655 1.25,0.6875 -0.13515,-0.32497 -0.25949,-0.63468 -0.40625,-0.8125 l 0.1875,-0.0312 c 0.35629,0.59147 0.46684,0.72309 0.84375,1.15625 0.12472,0.0571 -0.03108,-0.0423 1.0625,-0.59375 L -91,167 c 0,0 -1.0625,0.30993 -0.75,0.90625 0.22248,0.30573 0.39823,1.01025 0.75,1.09375 0,0 0.85009,-1.22532 1.5,-1.625 0,0 -0.21923,-0.50879 -0.21875,-0.78125 3.7e-4,-0.20918 0.15625,-0.59375 0.15625,-0.59375 0.02319,0.39561 -0.0029,0.83091 0.28125,1.21875 L -88.34375,166 -88,166 c 0,0 -2.25088,2.3886 -2,2.78125 0.39455,-0.048 2,-0.34375 2,-0.34375 l 0,0.0625 c -1.04689,0.34884 -1.67111,0.68872 -2,1.5 l 0,2 3,0 0,-7 z"
           style="opacity:0.3;fill:url(#linearGradient10174);fill-opacity:1;stroke:none" />
      </g>
    </g>
    <g
       transform="matrix(2.1155203,-2.1155203,2.1155203,2.1155203,-559.23734,114.18176)"
       style="fill:#808080;stroke:#f7ffff;stroke-width:0.1;stroke-miterlimit:4;stroke-dasharray:none;stroke-opacity:1"
       id="g4559">
      <path
         style="fill:#999999;fill-opacity:1;stroke:#f7ffff;stroke-width:0.03767881;stroke-miterlimit:4;stroke-dasharray:none;stroke-dashoffset:0;stroke-opacity:1"
         d="m 148.95421,117.66287 0.005,-1.31006 0.43094,-0.434 0.43093,-0.43402 0.4369,0.43009 0.43691,0.43009 -0.005,1.31068 -0.005,1.31067 -0.86817,0.003 -0.86817,0.003 0.005,-1.31005 z"
         id="path4551"
         inkscape:connector-curvature="0"
         inkscape:export-xdpi="90.773643"
         inkscape:export-ydpi="90.773643" />
      <circle
         style="fill:#ffffff;fill-opacity:1;stroke:#f7ffff;stroke-width:0.03767936;stroke-miterlimit:4;stroke-dasharray:none;stroke-dashoffset:0;stroke-opacity:1"
         id="path4557"
         cx="150.25793"
         cy="116.81281"
         r="0.21860467"
         inkscape:export-xdpi="90.773643"
         inkscape:export-ydpi="90.773643"
         transform="matrix(0.99999277,-0.00380225,-0.00380225,0.99999277,0,0)" />
    </g>
  </g>
  <g
     inkscape:groupmode="layer"
     id="layer2"
     inkscape:label="Layer 2"
     transform="translate(0,-40)" />
</svg>
