/* XPM */
static char * chain_hor_xpm[] = {
"24 9 9 1",
" 	c None",
".	c #020204",
"+	c #5A5A5C",
"@	c #E8E8E9",
"#	c #D0D0D1",
"$	c #8F8F91",
"%	c #B5B5B6",
"&	c #6E6E6E",
"*	c #9A9A98",
"                        ",
"   .......    .......   ",
"  .+@####$.  .$%@@@@%.  ",
"  .%................@.  ",
"  .#.   .&%###%.   .#.  ",
"  .#................@.  ",
"  .&*##%*$.  .&%%%%#&.  ",
"   .......    .......   ",
"                        "};
/* XPM */
static char * chain_ver_xpm[] = {
"9 24 9 1",
" 	c None",
".	c #020204",
"+	c #6E6E6E",
"@	c #D0D0D1",
"#	c #B5B5B6",
"$	c #5A5A5C",
"%	c #9A9A98",
"&	c #E8E8E9",
"*	c #8F8F91",
"         ",
"         ",
"  .....  ",
" .+@@#$. ",
" .%...&. ",
" .@. .@. ",
" .@. .@. ",
" .#. .@. ",
" .%...@. ",
" .*.+.*. ",
"  ..#..  ",
"   .@.   ",
"   .@.   ",
"  ..@..  ",
" .+.#.*. ",
" .#...#. ",
" .#. .&. ",
" .#. .&. ",
" .#. .&. ",
" .@...&. ",
" .+&@&#. ",
"  .....  ",
"         ",
"         "};
/* XPM */
static char * chain_broken_hor_xpm[] = {
"24 9 9 1",
" 	c None",
".	c #020204",
"+	c #5A5A5C",
"@	c #E8E8E9",
"#	c #D0D0D1",
"$	c #8F8F91",
"%	c #B5B5B6",
"&	c #6E6E6E",
"*	c #9A9A98",
"                        ",
" .......        ....... ",
".+@####$.      .$%@@@@%.",
".%........    ........@.",
".#.   .&%#    ##%.   .#.",
".#........    ........@.",
".&*##%*$.      .&%%%%#&.",
" .......        ....... ",
"                        "};
/* XPM */
static char * chain_broken_ver_xpm[] = {
"9 24 9 1",
" 	c None",
".	c #020204",
"+	c #6E6E6E",
"@	c #D0D0D1",
"#	c #B5B5B6",
"$	c #5A5A5C",
"%	c #9A9A98",
"&	c #E8E8E9",
"*	c #8F8F91",
"  .....  ",
" .+@@#$. ",
" .%...&. ",
" .@. .@. ",
" .@. .@. ",
" .#. .@. ",
" .%...@. ",
" .*.+.*. ",
"  ..#..  ",
"   .@.   ",
"         ",
"         ",
"         ",
"         ",
"   .@.   ",
"  ..@..  ",
" .+.#.*. ",
" .#...#. ",
" .#. .&. ",
" .#. .&. ",
" .#. .&. ",
" .@...&. ",
" .+&@&#. ",
"  .....  "};




