/* XPM */
static char * wilbur_mini_xpm[] = {
"18 18 111 2",
"  	c None",
". 	c #8E38861771C6",
"X 	c #BEFBB6DAA699",
"o 	c #71C669A65965",
"O 	c #AEBA9E798E38",
"+ 	c #B6DAAEBAA699",
"@ 	c #71C671C65965",
"# 	c #69A661854924",
"$ 	c #B6DAAEBA9E79",
"% 	c #8E38820769A6",
"& 	c #AEBAAAAAA699",
"* 	c #79E775D66185",
"= 	c #618561854924",
"- 	c #69A665955144",
"; 	c #C71BC30BBEFB",
": 	c #96588A2871C6",
"> 	c #79E771C65965",
", 	c #A699A2899658",
"< 	c #A6999E799658",
"1 	c #71C66DB65965",
"2 	c #69A661855144",
"3 	c #618559654924",
"4 	c #79E779E769A6",
"5 	c #D75CD34CCF3C",
"6 	c #9E7996588617",
"7 	c #8E387DF769A6",
"8 	c #861779E76185",
"9 	c #965892488617",
"0 	c #86177DF771C6",
"q 	c #61855D754924",
"w 	c #596555554103",
"e 	c #9E7996589658",
"r 	c #F7DEF3CEF7DE",
"t 	c #E79DE79DE79D",
"y 	c #A6999A698617",
"u 	c #DF7DDB6CD75C",
"i 	c #FFFFFBEEF7DE",
"p 	c #C71BC30BB6DA",
"a 	c #79E771C66185",
"s 	c #596559654924",
"d 	c #596551444103",
"f 	c #51444D344103",
"g 	c #618561855144",
"h 	c #618565956185",
"j 	c #9E799A699E79",
"k 	c #E79DE38DDF7D",
"l 	c #B6DAB2CAB6DA",
"z 	c #79E77DF779E7",
"x 	c #E79DE79DDF7D",
"c 	c #F7DEF7DEF7DE",
"v 	c #AEBAAEBAAEBA",
"b 	c #DF7DDF7DDF7D",
"n 	c #514451444103",
"m 	c #4924451438E3",
"M 	c #4103410330C2",
"N 	c #4924492438E3",
"B 	c #8617820779E7",
"V 	c #71C675D671C6",
"C 	c #8E388E388E38",
"Z 	c #30C230C230C2",
"A 	c #8E388A2879E7",
"S 	c #69A66DB669A6",
"D 	c #514455555144",
"F 	c #CF3CCB2BC71B",
"G 	c #514451445144",
"H 	c #965896589658",
"J 	c #41033CF330C2",
"K 	c #38E338E328A2",
"L 	c #514451444924",
"P 	c #596559655965",
"I 	c #861786178617",
"U 	c #30C234D330C2",
"Y 	c #514455554924",
"T 	c #AEBAA2899E79",
"R 	c #AEBAAAAA9E79",
"E 	c #CF3CCB2BCF3C",
"W 	c #28A22CB228A2",
"Q 	c #A6999E79A699",
"! 	c #596555555144",
"~ 	c #492449244924",
"^ 	c #410341034103",
"/ 	c #596559655144",
"( 	c #86177DF769A6",
") 	c #BEFBBEFBBEFB",
"_ 	c #96588E388617",
"` 	c #51444D3438E3",
"' 	c #38E334D330C2",
"] 	c #410345144103",
"[ 	c #514455555965",
"{ 	c #69A669A66185",
"} 	c #4924410330C2",
"| 	c #A699A2899E79",
" .	c #30C230C228A2",
"..	c #38E33CF338E3",
"X.	c #71C671C669A6",
"o.	c #38E338E330C2",
"O.	c #61855D755144",
"+.	c #38E334D328A2",
"@.	c #208120811861",
"#.	c #208124921861",
"$.	c #20811C711040",
"%.	c #186118611040",
"&.	c #596555554924",
"*.	c #18611C711861",
"=.	c #618561856185",
"-.	c #4103410338E3",
";.	c #104014511040",
":.	c #38E338E338E3",
">.	c #208124922081",
",.	c #208120812081",
"<.	c #28A228A228A2",
"                                    ",
"                                  . ",
"        X                         o ",
"        O +                     @ # ",
"        $ % &                 * = - ",
"        ; : > ,           < 1 2 3 4 ",
"        5 6 7 8 . 9 6 0 1 2 q 3 w e ",
"        r t y u i p a 2 s d f f g   ",
"  h j k l z x c v b . q n m M N B   ",
"V C Z A S D k F G H A 3 N J K L     ",
"P I U Y , T R E W Q a w m K K !     ",
"U ~ ^ / 1 8 ( + ) _ q ` M K ' h     ",
"] ^ [ { q 1 > 1 - q N } J K U z     ",
"| D S { f 3 2 = 3 ` J N K  ...      ",
"  j X.n m ` d N o. .O.f +.@.P       ",
"    | J #.$.%.@.+.&.O.K *.Z         ",
"        =.W @. .m -.@.;.W h         ",
"          =.:.>.@.,.<.-.            "};
