/* XPM */
static char * wilbur_xpm[] = {
"66 50 191 2",
"  	c None",
". 	c #79E775D66185",
"X 	c #79E771C66185",
"o 	c #CF3CBEFB9E79",
"O 	c #79E771C65965",
"+ 	c #D75CCB2BB6DA",
"@ 	c #CF3CBEFBA699",
"# 	c #965892488617",
"$ 	c #71C66DB65965",
"% 	c #DF7DDB6CD75C",
"& 	c #BEFBB2CA9658",
"* 	c #BEFBB6DAA699",
"= 	c #BEFBAEBA9658",
"- 	c #B6DAAAAA8E38",
"; 	c #B6DAAEBA9658",
": 	c #71C669A65144",
"> 	c #71C669A65965",
", 	c #CF3CC71BB6DA",
"< 	c #B6DAA6998E38",
"1 	c #AEBA9E798617",
"2 	c #A6999E798E38",
"3 	c #69A669A65144",
"4 	c #69A669A65965",
"5 	c #69A665955144",
"6 	c #E79DDF7DDF7D",
"7 	c #AEBAA6998E38",
"8 	c #9E79924879E7",
"9 	c #86177DF769A6",
"0 	c #69A661855144",
"q 	c #9E79965879E7",
"w 	c #96588A2871C6",
"e 	c #C71BBEFBB6DA",
"r 	c #69A661854924",
"t 	c #618561855144",
"y 	c #CF3CC71BBEFB",
"u 	c #8E38820769A6",
"i 	c #79E779E76185",
"p 	c #BEFBBEFBBEFB",
"a 	c #61855D754924",
"s 	c #618559654924",
"d 	c #96588E3871C6",
"f 	c #861775D66185",
"g 	c #79E76DB65965",
"h 	c #9E7992488617",
"j 	c #A6999E799658",
"k 	c #71C671C66185",
"l 	c #DF7DDB6CDF7D",
"z 	c #A699965879E7",
"x 	c #9E798E3871C6",
"c 	c #8E38861771C6",
"v 	c #8617820771C6",
"b 	c #596555554103",
"n 	c #8E38861779E7",
"m 	c #CF3CCB2BC71B",
"M 	c #A6999A6979E7",
"N 	c #AEBAAEBAAEBA",
"B 	c #96588E388617",
"V 	c #596559654103",
"C 	c #AEBAAAAAAEBA",
"Z 	c #D75CD34CD75C",
"A 	c #B6DAAEBAA699",
"S 	c #596559654924",
"D 	c #596551444103",
"F 	c #C71BC30BBEFB",
"G 	c #861779E76185",
"H 	c #AEBAA699A699",
"J 	c #9E799A698E38",
"K 	c #514455554924",
"L 	c #8E388A288617",
"P 	c #C71BC71BC71B",
"I 	c #AEBAAAAAA699",
"U 	c #9658861771C6",
"Y 	c #8E387DF769A6",
"T 	c #A699A2899658",
"R 	c #9E799A699658",
"E 	c #9E7996588E38",
"W 	c #DF7DDF7DDF7D",
"Q 	c #514451444103",
"! 	c #965896589658",
"~ 	c #EFBEEBADEFBE",
"^ 	c #EFBEEFBEEFBE",
"/ 	c #F7DEF3CEF7DE",
"( 	c #FFFFFFFFFFFF",
") 	c #F7DEEFBEEFBE",
"_ 	c #CF3CCB2BBEFB",
"` 	c #9E79924871C6",
"' 	c #AEBAA6999658",
"] 	c #DF7DD75CD75C",
"[ 	c #F7DEF3CEEFBE",
"{ 	c #D75CD75CD75C",
"} 	c #AEBAA6999E79",
"| 	c #86177DF76185",
" .	c #69A669A66185",
"..	c #F7DEF7DEF7DE",
"X.	c #E79DE38DDF7D",
"o.	c #FFFFFBEEFFFF",
"O.	c #D75CCF3CC71B",
"+.	c #71C671C65965",
"@.	c #51444D344103",
"#.	c #51444D3438E3",
"$.	c #5144492438E3",
"%.	c #9E799E799E79",
"&.	c #C71BC30BC71B",
"*.	c #CF3CCF3CCF3C",
"=.	c #FFFFF7DEF7DE",
"-.	c #4924451438E3",
";.	c #4924492438E3",
":.	c #8E388A288E38",
">.	c #B6DAB6DAB6DA",
",.	c #618565956185",
"<.	c #49244D344924",
"1.	c #59655D755965",
"2.	c #861782078617",
"3.	c #B6DAB2CAB6DA",
"4.	c #28A22CB228A2",
"5.	c #B6DAB2CAAEBA",
"6.	c #BEFBBAEAB6DA",
"7.	c #E79DE79DE79D",
"8.	c #EFBEEBADE79D",
"9.	c #4103410330C2",
"0.	c #4924410330C2",
"q.	c #79E779E779E7",
"w.	c #A699A289A699",
"e.	c #514451445144",
"r.	c #410345144103",
"t.	c #38E338E338E3",
"y.	c #28A228A228A2",
"u.	c #208120812081",
"i.	c #30C230C230C2",
"p.	c #000000000000",
"a.	c #9E799A699E79",
"s.	c #69A669A669A6",
"d.	c #208124922081",
"f.	c #CF3CCB2BCF3C",
"g.	c #41033CF330C2",
"h.	c #410338E328A2",
"j.	c #38E33CF328A2",
"k.	c #71C671C671C6",
"l.	c #492449244924",
"z.	c #618561856185",
"x.	c #861786178617",
"c.	c #410341034103",
"v.	c #186118611861",
"b.	c #000004100000",
"n.	c #104010401040",
"m.	c #082008200820",
"M.	c #38E338E328A2",
"N.	c #38E33CF330C2",
"B.	c #69A66DB669A6",
"V.	c #79E77DF779E7",
"C.	c #965892489658",
"Z.	c #596559655965",
"A.	c #38E338E330C2",
"S.	c #492449244103",
"D.	c #08200C300820",
"F.	c #18611C711861",
"G.	c #38E33CF338E3",
"H.	c #514455555144",
"J.	c #D75CD34CCF3C",
"K.	c #104014511040",
"L.	c #38E334D328A2",
"P.	c #30C234D330C2",
"I.	c #AEBAAAAA9E79",
"U.	c #8E388E388E38",
"Y.	c #A699A699A699",
"T.	c #30C230C228A2",
"R.	c #618561855965",
"E.	c #38E334D330C2",
"W.	c #71C675D671C6",
"Q.	c #30C22CB228A2",
"!.	c #4924410338E3",
"~.	c #410338E330C2",
"^.	c #71C671C669A6",
"/.	c #208120811861",
"(.	c #28A228A22081",
").	c #514455554103",
"_.	c #186118611040",
"`.	c #30C230C22081",
"'.	c #20811C711861",
"].	c #41033CF338E3",
"[.	c #596559655144",
"{.	c #28A224922081",
"}.	c #4103451438E3",
"|.	c #186114511040",
" X	c #10400C300820",
".X	c #104010400820",
"XX	c #082008200000",
"oX	c #082004100000",
"OX	c #BEFBBAEABEFB",
"+X	c #A699A2899E79",
"@X	c #492445144103",
"                                                                                                                                    ",
"                                                                                                                                    ",
"                                                                                                                          .         ",
"                                                                                                                          X         ",
"                            o                                                                                           O O         ",
"                            + @                                                                                       # O $         ",
"                            % & *                                                                                     O $ $         ",
"                              = - ;                                                                                 $ $ : >         ",
"                              , < 1 2                                                                             $ > 3 4 5         ",
"                              6 7 1 8 8                                                                         9 : : 5 5 0         ",
"                                * 2 q w w e                                                                   9 : 3 0 r t t         ",
"                                y 2 q w u i p                                                               $ > 5 5 0 a s a         ",
"                                % 7 q d u f g h                                                         j $ 5 5 0 a a s a k         ",
"                                l * z x c 9 . $ v                                                     u $ $ 5 5 t a s b b n         ",
"                                  m M 8 w u f $ > 3 N                                             B $ $ : 5 5 t a s V b b C         ",
"                                  Z A z x c 9 . g : 5 v                                       #   $ $ > : r r a s S b D 5           ",
"                                    F M x w u G . O $ > $ 9 H y                         J $ > : : : 5 5 0 0 a a S b D K L           ",
"                                    P I 8 d U Y 9 G . . X . . . G G c T j R E E X 0 0 5 5 : 5 5 5 5 t t a a S s b b D a             ",
"                                  W y T q 8 d U Y 9 G G G . G G 9 G i . O O 4 5 0 r t r r a a a a a s b s b b D D Q Q !             ",
"                                ~ ^ / ( ) _ ` w c u 9 ' ] [ ( / { } | i . O > 3 0 t a a a a s b b b b b b Q D D D Q  .              ",
"                              ....( ( ( ( ( X.d U c ] ( ( ( ( ( ( o.O.| . +.$ 5 5 a s b b Q D Q @.Q @.#.$.@.Q @.#.b %.              ",
"                {           o.~ ( ..{ &.*./ ( y w % ( ( ( ( ( ( o.=./ m . g : 5 r a s b D Q @.#.$.-.-.;.;.;.#.#.b :.                ",
"          >.,.<.<.1.2.      ] [ ( p 3.4.4.5.( ^ 6.( ( ( o.7.*.P X./ / 8.T +.3 5 a s b D #.;.;.-.9.9.0.0.0.-.;.#.q.                  ",
"        w.e.r.r.t.y.u.e.5.m z ( ( e.w.i.p.4.( ( X.( ( ( { a.s.d.,.f.~ X.e : : 5 a s b Q $.-.9.9.g.h.g.j.g.9.;.k.                    ",
"      3.l.z.x.x.s.l.4.u.c.$ x [ ( v.d.b.p.n.( 8.[ o.o.( ! >.3.i.m.q.7.l *.$ 5 0 a V D #.;.-.9.g.M.N.M.h.g.-.z.B.V.                  ",
"      B.e.C.P p :.Z.A.d.d.S.X y ( ,.D.p.D.z.o.e ^ ......z.q.q.F.p.l.W { P 3 3 r s b D $.;.9.g.g.M.M.A.M.g.<.1.B.2.                  ",
"      G.H.w.{ Z ! 1.t.y.4.t.Q w % l B.G.s.] J.U J./ / ..Z.v.K.p.p.e.{ f.H 5 t a V Q Q $.0.g.g.M.M.L.L.N.g.<.1.k.                    ",
"      i.<.x.C w.q.<.P.i.P.G.l.X u e 7.o.7.e c c I.^ ^ ^ %.d.p.p.u.:.*.P B 0 a s b @.#.-.9.g.h.M.M.M.L.M.c.<.z.q.                    ",
"    C u.G.s.2.q.Z.G.i.P.G.r.<.S G G G 9 u u 9 Y Y P ~ 7.Z ! <.l.U.&.&.a.5 0 r s b Q -.-.9.9.N.M.L.M.M.A.G.e.s.                      ",
"    Y.d.i.e.z.Z.l.G.t.G.r.<.H.H.$ . . G G 9 9 9 9 9 6.W l l % l Z *.j $ r a a b D #.;.-.9.g.h.N.M.A.M.T.c.H.k.                      ",
"      y.d.t.r.r.G.t.G.l.<.H.1.R.5 $ g . i G | | G G i T A P { *.5.# 5 0 0 s D Q @.;.-.0.g.g.M.M.L.M.E.i.r.z.                        ",
"      i.u.i.P.t.G.c.r.e.Z.z.,.,.a 5 : $ O . G f . . X . X $ > $ 5 5 r t a S -.9.$.;.0.9.g.g.L.M.M.M.T.P.<.s.                        ",
"      k.y.y.P.G.c.l.e.Z.z.,.k. .b a t 3 $ O O . O g O $ : 4 : 5 0 0 t s s @.L.g.-.-.9.g.h.L.L.M.M.L.d.t.H.W.                        ",
"        G.i.t.c.l.e.Z.z.s.B.q. .D V s a 5 : $ +.+.$ : > 5 5 0 5 a a s V b Q.M.9.!.9.g.M.M.M.M.~.g.d.y.c.z.V.                        ",
"        x.l.c.l.e.Z.z.s.k.q.V.S #.Q b V s t 5 : 5 5 5 5 r t t s s b V D 4.T.9.Q #.g.N.h.M.A.M.M.4.F.i.<.s.                          ",
"          V.e.H.1.,.B.^.q.2.^.;.;.$.#.b D b a 0 a a a a s V s b b Q ;./.(.c.K 1.).h.M.L.M.M.M.T._.d.t.Z.q.                          ",
"          P :.,.z.s.k.V.2.V.Z.-.-.-.;.$.Q D b s s S b V b D D Q @.`.'.4.].D ,.$ [.~.M.A.M.M.M._.v.i.l.R.                            ",
"              w.2.^.q.2.s.).;.0.9.0.;.$.$.@.Q b Q Q #.@.Q Q -.{.'./.4.N.Q 5 . X -.N.M.M.L.M.F.K.u.t.Z.                              ",
"                Z J 5 a s D ;.-.9.}.-.-.;.-.;.#.;.#.9.T./.F.'./.(.P.g.Q R.B.W.,.M.M.M.L.T.n.n.F.i.l.,.                              ",
"                    >.k g.`.(.T.T.T.T.T.`./.|._.K. X.X_.'./.Q.L.g.S.D a  .> 5 g.M.~.M.(.n.n.F.4.c.1.                                ",
"                           .Q..X.Xm.XXXXXXoXXXD. XK.F./.(.P.N.;.Q 1.R.5 5 R.N.N.j.T.K.D.n.F.y.G.H.                                  ",
"                          OX  a.R.P._.D.D.m.D.K._./.(.P.M.}.#.H.a ,.,.a ;.~.Q.F.D.D.n._.u.4.].H.B.                                  ",
"                              +XC.V.B.1.G.T./.d.{.T.M.].-.@.[.t t Q ].u._.m.D.D.n.K.v.d.i.r.Z.k.                                    ",
"                                  :.W.,.H.r.t.4.u.v.K.K.n.D.m.D.D.D.D.D.D.n.K.v.F.y.i.G.l.                                          ",
"                                    x.k.,.e.@Xt.i.y.d.F.F.v.v.v.v.v.v.F.u.u.{.4.P.                                                  ",
"                                      x.q.s.1.<.r.G.t.i.i.i.4.4.4.i.i.i.P.G.c.                                                      ",
"                                          x.W.B.z.Z.H.e.<.<.l.l.<.l.<.e.H.                                                          ",
"                                                2.q.W.k.B.k.B.B.B.                                                                  ",
"                                                        ! C.!                                                                       ",
"                                                                                                                                    "};
