/* XPM */
static char * antialias_xpm[] = {
"20 20 12 1",
" 	c None",
".	c #B2B2B2",
"+	c #FFFFFF",
"@	c #8A8A8A",
"#	c #000000",
"$	c #3B3B3B",
"%	c #9E9E9E",
"&	c #636363",
"*	c #141414",
"=	c #767676",
"-	c #272727",
";	c #4F4F4F",
"..........++++++++++",
"..........++++++++++",
"..........++++++++++",
"........@##+++++++++",
"........$###++++++++",
".......%####++++++++",
".......&#####+++++++",
".......*#$###+++++++",
"......=##=+##+++++++",
"......-##.+###++++++",
".....%##$.++##++++++",
".....;#########+++++",
".....##########+++++",
"....&##;==+++##+++++",
"....-##%..+++###++++",
"...@##;...+++###++++",
"...$##@...++++###+++",
"..........++++++++++",
"..........++++++++++",
"..........++++++++++"};
