/* XPM */
static char * charmap_xpm[] = {
"20 20 4 1",
" 	c None",
".	c #7F7F7F",
"+	c #000000",
"@	c #BFBFBF",
"                    ",
"            .   .   ",
"            ..  .   ",
"            . . .   ",
"            .  ..   ",
"  ++  +     .   . + ",
" +  + +          ++ ",
" +  + +++   ++   ++ ",
" ++++ +  + +    +.+ ",
" +  + +  + +    +.+ ",
" +  + +++   ++  +.+ ",
"               +..+ ",
" .....         +..+ ",
" .             +..+ ",
" ...          +...+ ",
" .         +++@+..+ ",
" .....  +++@@@@@+.+ ",
"      ++@@@@@@@@@++ ",
"     ++++++++++++++ ",
"                    "};
