/* XPM */
static char * font_preview_default_xpm[] = {
"20 20 2 1",
" 	c None",
".	c #000000",
"                    ",
"                    ",
"                    ",
"          .  .      ",
"         .    .     ",
"         .    .     ",
"     .    ....      ",
"    ..              ",
"   ...    . ..      ",
"  ....   . .  .     ",
" .....   . .  .     ",
"  ....   ......     ",
"   ...              ",
"    ..    .....     ",
"     .   .  .       ",
"         .  .       ",
"          .....     ",
"                    ",
"                    ",
"                    "};
