/* XPM */
static char * font_preview_clear_xpm[] = {
"20 20 2 1",
" 	c None",
".	c #FF0000",
"                    ",
" ....          .... ",
" .....        ..... ",
" ......      ...... ",
" .......    ....... ",
"  .......  .......  ",
"   ..............   ",
"    ............    ",
"     ..........     ",
"      ........      ",
"      ........      ",
"     ..........     ",
"    ............    ",
"   ..............   ",
"  .......  .......  ",
" .......    ....... ",
" ......      ...... ",
" .....        ..... ",
" ....          .... ",
"                    "};
