/* XPM */
static char * font_preview_xpm[] = {
"20 20 9 1",
" 	c None",
".	c #FFFFFF",
"+	c #B2B2B2",
"@	c #000000",
"#	c #FFA8A8",
"$	c #FF1A1A",
"%	c #FF0000",
"&	c #CC7575",
"*	c #F71212",
"...................+",
".@@@@@@.......#$$#++",
".@@@@@@......#%%%%&+",
"...@@........$%%%%*+",
"...@@........$%%%%*+",
"...@@........#%%%%&+",
"...@@........+&**&++",
"...@@.......++++++++",
"...@@......+++++++++",
"...@@.....@+++++++@+",
"...@@....+@@@@@@@@++",
"........+@@++@@++@@+",
".......++@+++@@+++@+",
"......+++++++@@+++++",
".....++++++++@@+++++",
"....+++++++++@@+++++",
"...++++++++++@@+++++",
"..+++++++++++@@+++++",
".+++++++++++@@@@++++",
"++++++++++++++++++++"};
