/* XPM */
static char * gdyntext_logo_xpm[] = {
"66 160 65 1",
" 	c None",
".	c #000000",
"+	c #030303",
"@	c #070707",
"#	c #0B0B0B",
"$	c #0F0F0F",
"%	c #FFFF04",
"&	c #131313",
"*	c #171717",
"=	c #1B1B1B",
"-	c #1F1F1E",
";	c #232323",
">	c #282827",
",	c #2C2C2B",
"'	c #30302F",
")	c #343434",
"!	c #383838",
"~	c #3D3C3A",
"{	c #43413C",
"]	c #474542",
"^	c #4B4B4B",
"/	c #555454",
"(	c #AAAAA9",
"_	c #8D8D8C",
":	c #FEFEFE",
"<	c #5C5B5B",
"[	c #E1E1E1",
"}	c #626261",
"|	c #C5C5C5",
"1	c #656565",
"2	c #686868",
"3	c #6A6A6A",
"4	c #6D6D6D",
"5	c #707070",
"6	c #747474",
"7	c #797979",
"8	c #7F7E7A",
"9	c #818181",
"0	c #878786",
"a	c #919190",
"b	c #959594",
"c	c #9A9999",
"d	c #9D9D9D",
"e	c #A2A2A2",
"f	c #A6A6A6",
"g	c #ACACAC",
"h	c #AEAEAE",
"i	c #FCFCFC",
"j	c #837C68",
"k	c #3C382D",
"l	c #78715E",
"m	c #746D5B",
"n	c #7C7664",
"o	c #706A5B",
"p	c #6F6855",
"q	c #958D78",
"r	c #6A6352",
"s	c #635D4C",
"t	c #595345",
"u	c #C0C0BF",
"v	c #F2F2F2",
"w	c #E9E9E9",
"x	c #B4B4B3",
"y	c #CFCFCF",
"z	c #D5D5D5",
"..................................................................",
"..................................++++++++++++++++++++++++++++++++",
"..................................@@@@@@@@@@@@@@@@@@@@@@@@@@@@@@@@",
"..................................################################",
"..................................$$$$$$$$$$$%%%%$$$$$$$$$$$$$$$$$",
"..................................&&&&&&&&&&&%%%%&&&&&&&&&&&&&&&&&",
"..................................**********%%%%%%*****%**********",
"................................%.===========%%%%=====%%%%========",
"...............................%%%%---------%%%%%----%%%%%%-------",
"...............................%%%%%%;;;;;;;;%%%%;;;;%%%%%;;;;;;;;",
"..............................%%%%%%%%%>>>>>%%%%%>>>%%%%%%>>>>>>>>",
"...............................%%%%%%%%,,,,,,%%%,,,,%%%%%,,,,,,,,,",
"................................%%%%%%%%'''%'%'%'''%%%%%''''''''''",
"..................................%%%%%)))%%%%%%%%))%%%%))))))))))",
"..................................))%!!!!%%%%%%%%%%!%!%!!!!!!!!!!!",
"..................................~~~~~~%%%%%%%%%%%%~~~~~~~~~~~~~~",
"..................................{{{{{%%%%%%%%%%%%%%{{{{{{{{{{{{{",
"..................................]]]]]]%%%%]]]]%%%%%%]]]]]]]]]]]]",
"..................................]]]]]%%%%%]]]]%%%%%^^^^^^^^^^^^^",
"..................................^^^^^^%%%%%^^^^%%%%%^^%^%^^^^^^^",
"..................................%^^^^%%%%%%%%^^%%%%^/%%%%%%%////",
"........=(_=....................%%%%%///%%%%%%%//%%%%%/%%%%%%%////",
"......../::=...................%%%%%%////%%%%%%/%%%%%<%%%%%%%%<<<<",
"....!///_:[////////////!......%%%%%%%<<<<<%%%%<%%%%%%%<%%%%%%%<<<<",
"....::::::::::::::::::::.....%%%%%%%%}}}}}}}}}%%%%%%%}}}}}}%}}}}}}",
"....(::::::::::::::::::|....%%%%%%%111111111111%%%%%11111111111111",
"......../:[..!_/=..........%%%%%%.122222222222%%%%%222222333333333",
"......../::!./::::|(//.....%%%%%%.3333333334444%%%4444444444444444",
"........./!..=::::::::::(_=..%....4455555%555555555%%%%55555555556",
"..............::::=|:::([:(.......666666%%%%6666666%%%%66666666666",
"..............::::.|::::=::/......77777%%%%%7777777%%%%%7777777777",
"..............::::((::::.(:[=.....88888%%%%%%888888%%%%%%888888888",
"..............:::::(5:|(.|::|.....99999%%%%%99999999%%%%%999999999",
"..............|::::|!..!_::::5....9999%%%%%000000000%%%%%000000000",
"..............(:::(.5(![::::::=...0000%%%%%0000000000%%%%_________",
"..............(:::.(::[/[:::::[...____%%%%____________%___________",
"..............(:::(:::::5[::::|=..aaaa%%%%%aaaaaaaaaaaaaaaaaaaaaaa",
"..............!/////=./::5:::_....bbbb%%%%bbbbbbbbbbbbbbbbbbbbbbbb",
"......................./:::[!.....ccccc%%ccccccccccccccccccccccccc",
"...................../=./:(=......dddddddddddddddddddddddddddddddd",
"..............=(::...::_.=........eeeeeeeeeeeeeeeeeeeeeeeeeeeeeeee",
".............=[:::...:::(.........eeffffffffffffffffffffffffffffff",
".............|::::....=/|/........ff(((((((((((((((((((((((((((((g",
"............![5/!(/......(........gggggggggghhhhhhhhhhhhhhhhhhhhhh",
"............//..._/......(........hhhhhhhhhhhhhhhhhhhhhhhhhhhhhhhh",
"............//...//.....=[........hhhhhhhhhhhhhhhhhhhhhhhhhhhhhhhh",
"............=5...//...=5[_........hhhhhhhhhhhhhhhhhhhhhhhhhhhhhhhh",
".............((((|[[:::::=........hhhhhhhhhhhhhhhhhhhhhhhhhhhhhhhh",
".............=[:::::::::/.........hhhhhhhhhhhhhhhhhhhhhhhhhhhhhhhh",
"..............=_::::::|=..........hhhhhhhhhhhhhhhhhhhhhhhhhhhhhhhh",
"..=///..........=/((5!............hhhhhhhhhhhhhhhhhhhhhhhhhhhhhhhh",
"../::::::(((///=..................hhhhhhhhhhhhhhhhhhhhhhhhhhhhhhhh",
"..(:::::|5|:::::::|((5//!.........hhhhhhhhhhhhhhhhhhhhhhhhhhhhhhhh",
"..(:::_!../::::::::::::::::[((_/=.hhhhhhhhhhhhhhhhhhhhhhhhhhhhhhhh",
"..([/.....=:::::::::::::::::::::/.hhhhhhhhhhhhhhhhhhhhhhhhhhhhhhhh",
"..((.....5::::::::::::::::::::::..hhhhhhhhhhhhhhhhhhhhhhhhhhhhhhhh",
"..|(....(:::::::::::::::::::::::..hhhhhhhhhhhhhhhhhhhhhhhhhhhhhhhh",
"..:(..._::::::::::::::[(([:::::|..hhhhhhhhhhhhhhhhhhhhhhhhhhhhhhhh",
"..:(..=:::::::::::::::(..(:::::(..hhhhhhhhhhhhhhhhhhhhhhhhhhhhhhhh",
"..:(..5:::::::::::::::5..(:::::_..hhhhhhhhhhhhhhhhhhhhhhhhhhhhhhhh",
"..:(../((((((((((((((_...(:::::/..hhhhhhhhhhhhhhhhhhhhhhhhhhhhhhhh",
".=:(.....................(:::::!..hhhhhhhhhhhhhhhhhhhhhhhhhhhhhhhh",
"./:(.....................(:::::...hhhhhhhhhhhhhhhhhhhhhhhhhhhhhhhh",
"./:(.....................(:::::...hhhhhhhhhhhhhhhhhhhhhhhhhhhhhhhh",
"./:(.....................(::::(...hhhhhhhhhhhhhhhhhhhhhhhhhhhhhhhh",
"./:(.....................(::::(...hhhhhhhhhhhhhhhhhhhhhhhhhhhhhhhh",
"._:(../((((((((((((((_...(::::5...hhhhhhhhhhhhhhhhhhhhhhhhhhhhhhhh",
".(:f..5:::::::::::::::5..(::::/...hhhhhhhhhhhhhhhhhhhhhhhhhhhhhhhh",
".(:f..=:::::::::::::::(..(::::!...hhhhhhhhhhhhhhhhhhhhhhhhhhhhhhhh",
".(:f..._::::::::::::::[(([:::5....hhhhhhhhhhhhhhhhhhhhhhhhhhhhhhhh",
".(:f....(::::::::::::::::::_=.....hhhhhhhhhhhhhhhhhhhhhhhhhhhhhhhh",
".[:f.....5:::::::::::::::|!.......hhhhhhhhhhhhhhhhhhhhhhhhhhhhhhhh",
".:i[4.....=:::::::::::|_!.........hhhhhhhhhhhhhhhhhhhhhhhhhhhhhhhh",
".::::i_!../::::::::(/=............hhhhhhhhhhhhhhhhhhhhhhhhhhhhhhhh",
".:::::::[5|::::|_!................hhhhhhhhhhhhhhhhhhhhhhhhhhhhhhhh",
".:::::::::::(/=...................hhhhhhhhhhhhhhhhhhhhhhhhhhhhhhhh",
"/:::::::|5!..............55.......hhhhhhhhhhhhhhhhhhhhhhhhhhhhhhhh",
"/::i[f/.....=_(((_//=....[/.......hhhhhhhhhhhhhhhhhhhhhhhhhhhhhhhh",
"/|5).......=[::::::::::(|:/.......hhhhhhhhhhhhhhhhhhhhhhhhhhhhhhhh",
"...........|::::::::::::::........hhhhhhhhhhhhhhhhhhhhhhhhhhhhhhhh",
"..........=:::::::::::::::........hhhhhhhhhhhhhhhhhhhhhhhhhhhhhhhh",
"........../:::|///_((:::::........hhhhhhhhhhhhhhhhhhhhhhhhhhhhhhhh",
"........../::(.........=//........hhhhhhhhhhhhhhhhhhhhhhhhhhhfhghh",
"..........=::!....................hhhhhhhhhhhhhhhhhhhhhhhhhhg_dggh",
"...........5:=...................,fggghhhhhhhhhhhhhhhhhhhhhgejb(gg",
"............[5........../=.......kf(gggghhhhhhhhhhhhhhhhhhg(9l_((g",
"..........(((:5.........:/.......@fd(((ggghhhhhhhhhhhhhhhg(_lm9f((",
"..........[::::::|((///_:!........bdbff((gghhhhhhhhhhhhhg(enop_ef(",
"..........(::::::::::::::.........bcq0deff(ghhhhhhhhhhhg(cnprr_ef(",
"..........(:::::::::::::[.........dqqj8aeef(gghhhhhhhgg(0nprssbde(",
"..........5:|(([::::::::(.........f0qjnm_cdef(gggggg((e8lprssracef",
"........../:......//_(|:(.........fdqqjlo5acdeffffffc8nmprstt1_bdf",
"..........!5...........|5.........fe8qjnlmmn8800_98noopprsstt50adf",
".......................(/.........fd0qqjjjjjjjnlmrrrrssssttt/69adf",
".......................==.........cuivuqq|viwxnlprsstttttttt}59adf",
"..................................xvvwvg[ivvvvglpsttt]]{]]]^}59adf",
".........5_/=...............&'>&+k[vu3g[ivv[y[yjpstt{{kk{{{^}50bef",
".........(::::((/!.........&4e3);oyv^-;[vvzd]7yjrst]{kkkk'{/17_ce(",
".........(:::::::::|(/!....;_u7~,]qz<-<fwvf1>'xlstt{kkkk>']<49adf(",
".........(::::::::::::::::z'20/)!]rqqnjqywx>$}_rst]{kkkk;)^}7_cefg",
".........!5([:::::::::::::z'{/{~]/<mlnjjqx|(0_rstt]{kkk>;~/49aef(g",
"............../5([::::::::i],~{^/}1splnnlnnnmrst{]{kkkk-,]}7_cf(gh",
".................../5[:::::_!{^/}5}tspmmmpprsst~~{kkkk>-)^39befghh",
".....................=:[=.=}6^<157tttssrrsssttk~t]kkk'=,]<6_df(ghh",
"......................5:_...^0467}]{]tttttt]~>k/o]kkk-;!/39be(ghhh",
".......................::=...8(6s]{{{{{]{k,>>ktookk'=-']}7_df(hhhh",
".......................::_.../vy=--==*$&&=>k]trr{k>*-,{/49be(ghhhh",
".........|[(5/.........::[....vw].2{>***>'{tss]'-*=;'{/38adfghhhhh",
".........(:::::[(5/...(:::....vw^.84}^!,>;;>>;==-;,!]/28_ce(ghhhhh",
".........(::::::::::::::::....iv^.084}/]!',>>,,')~]^<48_ce(ghhhhhh",
".........5:::::::::::::::|.=//iv^.b_962</^]]]]]^^<}379acefghhhhhhh",
"........./:((|:::::::::::/=[.[ii=.dca08641}}}}113579_bdefghhhhhhhh",
"........./|....!/(|:::::_.5:[::[..fedba_098888890_abdef(ghhhhhhhhh",
"..........=.........!//=...[:::_..(ffeddcbbbbbbbcddef(gghhhhhhhhhh",
"...........!([:::|_!.......!::[=..gg((ffeeeeeeeefff(gghhhhhhhhhhhh",
".........!|:::::::::|=......_:/...hhggg((((((((((ggghhhhhhhhhhhhhh",
"......../::::::::::::[=.....=!....gggggggggggggghhhhhhhhhhhhhhhhhh",
"......./::::::::::::::[=..........ff(((((((((((((((((((((((((((((g",
"......!:::::((///(|::::(..........eeffffffffffffffffffffffffffffff",
"......|::[5........=_:::!.........eeeeeeeeeeeeeeeeeeeeeeeeeeeeeeee",
".....!::(............/::_.........dddddddddddddddddddddddddddddddd",
".....(:(............../:[.........cccccccccccccccccccccccccccccccc",
".....[[=...............|:.........bbbbbbbbbbbbbbbbbbbbbbbbbbbbbbbb",
"....=:_................5:/........aaaaaaaaaaaaaaaaaaaaaaaaaaaaaaaa",
"..../i!................!:/........_____fv::[__zz_:y____[z_z::::u__",
"..../:..................:/........0000evubez|0zz0:v000e:z_zz__ev__",
"..../:..................:/........9999z[000000zz0:[z00z|z0zz000:00",
"..../:..................:/........9999zz99(((_zz9:x:__[(z9zvzzv|99",
"..../:..................:/........8888zz88ff:fzz8:f|((x(z8zz888888",
"..../:ffffffffffffffffff:/........7777uv7770:fyy7:fb[:bfy7yy777777",
"..../:iiiiiiiiiiiiiiiiiii/........66669[[ahv:eyy6:e6[[6ey6yy666666",
"..../::::::::::::::::::::/........445558uyyduahh5ya5hh5ah5hh555556",
"..../::::::::::::::::::::/........33333333344444444444444444444444",
"....!(((((((((((((((((((()........12222222222222222222222333333333",
"..................................}1111111111111111111111111111111",
"..................................}}}}}}}}}}}}}}}}}}}}}}}}}}}}}}}}",
".......44...../f4......./::::|....<<<<<<<<<<<<<<<<<<<<<<<<||<<<<<<",
".....![if...../ii[/...../:..!(_...//////////////<<<<<<<<<<88<<<<<<",
"....):i[/...../:|:if*.../:...=:/:///:_|w::7//w:w//:w:z::e/||/7::x/",
"...=[if=....../:/!|:[=../:....:/5[^6:}|z^dz^dd^z_^:d}:7d:/||1:_1|/",
"..._i[=......./:/..(:[../:....:/.|0|h^||^0:^^|::0^:0^:^0:^||0:^^^^",
"...[i4......../:/...(:f./:...![!.5zw<]uu]0:]wu<u0]:0]:^0:^uu0:^^^^",
"..):i........./:/....[i)/:..5[5...:z]]uu]9:]:(b:9]:9]:]9:]uu]:g4:]",
"../:|........./:/..../:|!((((5....z({{bb{2u{2uubu{u2{u{3u{bb{/uu9{",
"../:f........./:/.....[i*........!:^~~~~~~~~~~~~~~~~~~~~~~~~~~~~~~",
"../:[........./:/....._i/.........))!!!!!!!!!!!!!!!!!!!!!!!!!!!!!!",
"...:i........./:/...../:f.........''))))))))))))))))))))))))))))))",
"...|i/......../:/...../:f.........,'''''''''''''''''''''''''''''''",
"...!:|......../:/...../:f.........,,,,,,,,::::::,,,,,,,,,,,,_<,,,,",
"....|i4...............fi4.........>>>>>>>>>>xx>>>>>>>>>>>>>>x5>>>>",
"....=:i/.............=ii!.........;;;;;;;;;;xx;;;0:w/;:d;w4x::4;;;",
"...../:i/............f:|..........----------xx--9[!3y!^[cy--x3----",
"....../:i_..........f:i!..........==========xx==x[xx:1=9:)==x2====",
".......![:[_).....5[:i/...........**********hh**xy111'*y[8**x1****",
"........._::ii|f[:ii[!............&&&&&&&&&&hh&&}:]]:}h|]:&&h}&&&&",
"..........=5|::::i|5..............$$$$$$$$$$77$$$]hh]$h}$b]$}h]$$$",
"..................................################################",
"..................................@@@@@@@@@@@@@@@@@@@@@@@@@@@@@@@@",
"..................................++++++++++++++++++++++++++++++++",
".................................................................."};
