/* XPM */
static char * layer_align_4_xpm[] = {
"18 18 6 1",
" 	c None",
".	c #000000",
"+	c #B2B2B2",
"@	c #7F7F7F",
"#	c #FF0000",
"$	c #660000",
"..................",
".++@@@@++++@@@@++.",
".++@@@@++++@@@@++.",
".@@++++@@@@++++@@.",
"##########@++++@@.",
"##$$$$$$##@++++@@.",
"##$$$$$$##@++++@@.",
"####$$####+@@@@++.",
"####$$####+@@@@++.",
"####$$####+@@@@++.",
"####$$####+@@@@++.",
"####$$####@++++@@.",
"####$$####@++++@@.",
"##########@++++@@.",
".@@++++@@@@++++@@.",
".++@@@@++++@@@@++.",
".++@@@@++++@@@@++.",
".................."};
