/* XPM */
static char * layer_align_7_xpm[] = {
"18 18 6 1",
" 	c None",
".	c #FF0000",
"+	c #000000",
"@	c #660000",
"#	c #B2B2B2",
"$	c #7F7F7F",
"..........++++++++",
"..@@@@@@..#$$$$##+",
"..@@@@@@..#$$$$##+",
"....@@....$####$$+",
"....@@....$####$$+",
"....@@....$####$$+",
"....@@....$####$$+",
"....@@....#$$$$##+",
"....@@....#$$$$##+",
"..........#$$$$##+",
"+##$$$$####$$$$##+",
"+$$####$$$$####$$+",
"+$$####$$$$####$$+",
"+$$####$$$$####$$+",
"+$$####$$$$####$$+",
"+##$$$$####$$$$##+",
"+##$$$$####$$$$##+",
"++++++++++++++++++"};
