/* XPM */
static char * new_layer_xpm[] = {
"20 20 4 1",
" 	c None",
".	c #000000",
"+	c #7F7F7F",
"@	c #FFFFFF",
"                    ",
"         ........   ",
"        ..+@@@@@.   ",
"       .@.+@@@@@.   ",
"      .@@.+@@@@@.   ",
"     .@@@.+@@@@@.   ",
"    .@@@@.+@@@@@.   ",
"   .......+@@@@@.   ",
"   .+++++++@@@@@.   ",
"   .@@@@@@@@@@@@.   ",
"   .@@@@......@@.   ",
"   .@@@@@+..+++@.   ",
"   .@@@@@@..+@@@.   ",
"   .@@@@@@..+@@@.   ",
"   .@@@@@@..+@@@.   ",
"   .@@@@@@..+@@@.   ",
"   .@@@@@@@++@@@.   ",
"   .@@@@@@@@@@@@.   ",
"   ..............   ",
"                    "};
