/* XPM */
static char * text_load_xpm[] = {
"20 20 6 1",
" 	c None",
".	c #000000",
"+	c #FFFF00",
"@	c #FFFFFF",
"#	c #828282",
"$	c #828200",
"                    ",
"                    ",
"                    ",
"           ...      ",
"         ..   . .   ",
"   ....        ..   ",
"  .+@+....... ...   ",
"  .@+@+@+@@+.       ",
" #.+@+@+@++@.       ",
" #.@+@+@+.......... ",
" #.+@+@+.$$$$$$$$$. ",
" #.@+@+.$$$$$$$$$.  ",
" #.+@+.$$$$$$$$$.   ",
" #.@+.$$$$$$$$$.    ",
" #.+.$$..$$$$$.     ",
" #..$$$$$$$$$.      ",
" #...........       ",
" ##########         ",
"                    ",
"                    "};
