/* XPM */
static char * curl4_xpm[] = {
"33 33 7 1",
" 	c None",
".	c #000000",
"+	c #FFFFFF",
"@	c #CCCCCC",
"#	c #999999",
"$	c #666666",
"%	c #333333",
".................................",
".+++++++++++++++++++++++++++++++.",
".+++++++++++++++++++++++++++++++.",
".+++++++++++++++++++++++++++++++.",
".++++++++++++++++++++++++++++++@.",
".+++++++++++++++++++++++++++++@@.",
".++++++++++++++++++++++++++++@@@.",
".+++++++++++++++++++++++++++@@@#.",
".+++++++++++++++++++++++++@@@@##.",
".++++++++++++++++++++++.+@@@@###.",
".+++++++++++++++++++++.+@@@####$.",
".++++++++++++++++++++.+@@@###$$$.",
".+++++++++++++++++++..@@@###$$$$.",
".++++++++++++++++++..%@@###$$$%%.",
".+++++++++++++++++..$%@##$$$$%%%.",
".++++++++++++++++.%$#@%#$$$%%%%.@",
".+++++++++++++++.%$#@++%$$%%%..@@",
".++++++++++++++.%$#@+++@%%%...@@@",
".+++++++++++++.%$@++++@#$%..@@$$$",
".++++++++++++.%#@+++@#$%%.$@@@$$$",
".+++++++++++.%#@+++@#$%.$$$@@@$$$",
".++++++++++.%#@++@#$%.$$@@@$$$@@@",
".+++++++++.%#+++@#%.@$$$@@@$$$@@@",
".++++++++.$@++@#$..@@$$$@@@$$$@@@",
".+++++++.$@++@$%.@$$$@@@$$$@@@$$$",
".++++++.$@+@#%.@@@$$$@@@$$$@@@$$$",
".+++++.#++#%.$$@@@$$$@@@$$$@@@$$$",
".++++.#+@$.%@@@$$$@@@$$$@@@$$$@@@",
".+++.@+#.%$$@@@$$$@@@$$$@@@$$$@@@",
".++.@@..@$$$@@@$$$@@@$$$@@@$$$@@@",
".+.@%%$$$@@@$$$@@@$$$@@@$$$@@@$$$",
"...%@@$$$@@@$$$@@@$$$@@@$$$@@@$$$",
".%$@@@$$$@@@$$$@@@$$$@@@$$$@@@$$$"};
