/* XPM */
static char * curl1_xpm[] = {
"33 33 7 1",
" 	c None",
".	c #000000",
"+	c #333333",
"@	c #FFFFFF",
"#	c #666666",
"$	c #CCCCCC",
"%	c #999999",
".................................",
"+.@@@@@@@@@@@@@@@@@@@@@@@@@@@@@@.",
"#..@@@@@@@@@@@@@@@@@@@@@@@@@@@@@.",
"$+$.@@@@@@@@@@@@@@@@@@@@@@@@@@@@.",
"$$+$.@@@@@@@@@@@@@@@@@@@@@@@@@@@.",
"$$+$$.@@@@@@@@@@@@@@@@@@@@@@@@@@.",
"###.@%.@@@@@@@@@@@@@@@@@@@@@@@@@.",
"###.%@%.@@@@@@@@@@@@@@@@@@@@@@@@.",
"###$.$@#.@@@@@@@@@@@@@@@@@@@@@@@.",
"$$$#+#@$#.@@@@@@@@@@@@@@@@@@@@@@.",
"$$$##.%@$#.@@@@@@@@@@@@@@@@@@@@@.",
"$$$##++$@$+.@@@@@@@@@@@@@@@@@@@@.",
"###$$$.%@@%+.@@@@@@@@@@@@@@@@@@@.",
"###$$$#+$@@%+.@@@@@@@@@@@@@@@@@@.",
"###$$$#.#$@$%+.@@@@@@@@@@@@@@@@@.",
"$$$###$$+%@@$%+.@@@@@@@@@@@@@@@@.",
"$$$###$$.#$@@$#+.@@@@@@@@@@@@@@@.",
"$$$###$$$.%$@@$#+.@@@@@@@@@@@@@@.",
"###$$$###.+%@@@%#+.@@@@@@@@@@@@@.",
"###$$$###$.#$@@$%#..@@@@@@@@@@@@.",
"###$$$###$$+%$@@$%#..@@@@@@@@@@@.",
"$$$###$$$##.#%@@@$++..@@@@@@@@@@.",
"$$$###$$$###+#$@@+$$$@.@@@@@@@@@.",
"$$$###$$$###.+%$+%%$$$@.@@@@@@@@.",
"###$$$###$$$#+#+##%%$$$@@@@@@@@@.",
"###$$$###$$$#.++###%%$$$@@@@@@@@.",
"###$$$###$$$##.++##%%%$$$@@@@@@@.",
"$$$###$$$###$$..++##%%%$$@@@@@@@.",
"$$$###$$$###$$$.++###%%$$$@@@@@@.",
"$$$###$$$###$$$..++###%%$$$@@@@@.",
"###$$$###$$$###$.+++##%%%$$$@@@@.",
"###$$$###$$$###$$.++###%%%$$$@@@.",
"###$$$###$$$###$$$..............."};
