/* XPM */
static char * curl2_xpm[] = {
"33 33 7 1",
" 	c None",
".	c #000000",
"+	c #CCCCCC",
"@	c #666666",
"#	c #FFFFFF",
"$	c #999999",
"%	c #333333",
"...............+++@@@+++@@@+++@@@",
".###+++$$$@@@%%.++@@@+++@@@+++@@@",
".####+++$$$@@%%%.+@@@+++@@@+++@@@",
".#####+++$$@@@%%..+++@@@+++@@@+++",
".######+++$$@@@%%.+++@@@+++@@@+++",
".#######++$$$@@%%..++@@@+++@@@+++",
".#######+++$$$@@%%.@@+++@@@+++@@@",
".########+++$$@@@%%.@+++@@@+++@@@",
".#########+++$$@@%@%@+++@@@+++@@@",
".########.#+++$$%+$%.@@@+++@@@+++",
".#########.#+++%##+@%@@@+++@@@+++",
".##########..%%+###$@.@@+++@@@+++",
".###########..@$+##+$%++@@@+++@@@",
".############..@$+##+@.+@@@+++@@@",
".#############.%@$###$%.@@@+++@@@",
".##############.%@+##+$.+++@@@+++",
".###############.%@+##+@.++@@@+++",
".################.%$+##$%++@@@+++",
".#################.%$+#+@.@+++@@@",
".##################.%$##+%@+++@@@",
".###################.%$##$.+++@@@",
".####################.%+#+%%@@+++",
".#####################.@+#$.@@+++",
".######################.@+#@%@+++",
".#######################.@#+.+@@@",
".########################.$#$.@@@",
".#########################.$#.@@@",
".##########################.++%++",
".###########################.+%++",
".############################.+%+",
".#############################..@",
".##############################.%",
"................................."};
