/* XPM */
static char * curl7_xpm[] = {
"33 33 7 1",
" 	c None",
".	c #666666",
"+	c #CCCCCC",
"@	c #333333",
"#	c #000000",
"$	c #FFFFFF",
"%	c #999999",
"...+++...+++...+++...+++...+++.@#",
"...+++...+++...+++...+++...++@###",
"...+++...+++...+++...+++...@@+#$#",
"+++...+++...+++...+++...+##++#$$#",
"+++...+++...+++...+++..@#%$+#$$$#",
"+++...+++...+++...+++@#.+$%#$$$$#",
"...+++...+++...+++..#@%$$%#$$$$$#",
"...+++...+++...+++#@%+$+.#$$$$$$#",
"...+++...+++...+#@.+$$+.#$$$$$$$#",
"+++...+++...++##.%+$$+.#$$$$$$$$#",
"+++...+++...+#@%+$$$%@#$$$$$$$$$#",
"+++...+++..#@.%+$$+%@#$$$$$$$$$$#",
"...+++...#@.%+$$$+%@#$$$$$$$$$$$#",
"...+++.#@@.%+$$$+%@#$$$$$$$$$$$$#",
"...++##@.%+$$$$+.@#$$$$$$$$$$$$$#",
"+++###@@@+$$$+%.@#$$$$$$$$$$$$$$#",
"++##@@@..@$$+%.@#$$$$$$$$$$$$$$$#",
"+#@@@@...%@+%.@#$$$$$$$$$$$$$$$$#",
"#@@@....%%+@.##$$$$$$$$$$$$$$$$$#",
"#@@...%%%++@##$$$$$$$$$$$$$$$$$$#",
"#....%%%+++##$$$$$$$$$$$$$$$$$$$#",
"#...%%%+++$#$$$$$$$$$$$$$$$$$$$$#",
"#.%%%%+++$#$$$$$$$$$$$$$$$$$$$$$#",
"#%%%++++$#$$$$$$$$$$$$$$$$$$$$$$#",
"#%%++++$$$$$$$$$$$$$$$$$$$$$$$$$#",
"#%+++$$$$$$$$$$$$$$$$$$$$$$$$$$$#",
"#+++$$$$$$$$$$$$$$$$$$$$$$$$$$$$#",
"#++$$$$$$$$$$$$$$$$$$$$$$$$$$$$$#",
"#+$$$$$$$$$$$$$$$$$$$$$$$$$$$$$$#",
"#$$$$$$$$$$$$$$$$$$$$$$$$$$$$$$$#",
"#$$$$$$$$$$$$$$$$$$$$$$$$$$$$$$$#",
"#$$$$$$$$$$$$$$$$$$$$$$$$$$$$$$$#",
"#################################"};
