/* XPM */
static char * curl0_xpm[] = {
"33 33 7 1",
" 	c None",
".	c #000000",
"+	c #FFFFFF",
"@	c #333333",
"#	c #666666",
"$	c #CCCCCC",
"%	c #999999",
".................................",
".++++++++++++++++++++++++++++++.@",
".+++++++++++++++++++++++++++++..#",
".++++++++++++++++++++++++++++.$@$",
".+++++++++++++++++++++++++++.$@$$",
".++++++++++++++++++++++++++.$$@$$",
".+++++++++++++++++++++++++.%+.###",
".++++++++++++++++++++++++.%+%.###",
".+++++++++++++++++++++++.#+$.$###",
".++++++++++++++++++++++.#$+#@#$$$",
".+++++++++++++++++++++.#$+%.##$$$",
".++++++++++++++++++++.@$+$@@##$$$",
".+++++++++++++++++++.@%++%.$$$###",
".++++++++++++++++++.@%++$@#$$$###",
".+++++++++++++++++.@%$+$#.#$$$###",
".++++++++++++++++.@%$++%@$$###$$$",
".+++++++++++++++.@#$++$#.$$###$$$",
".++++++++++++++.@#$++$%.$$$###$$$",
".+++++++++++++.@#%+++%@.###$$$###",
".++++++++++++..#%$++$#.$###$$$###",
".+++++++++++..#%$++$%@$$###$$$###",
".++++++++++..@@$+++%#.##$$$###$$$",
".+++++++++.+$$$@++$#@###$$$###$$$",
".++++++++.+$$$%%@$%@.###$$$###$$$",
".+++++++++$$$%%##@#@#$$$###$$$###",
".++++++++$$$%%###@@.#$$$###$$$###",
".+++++++$$$%%%##@@.##$$$###$$$###",
".+++++++$$%%%##@@..$$###$$$###$$$",
".++++++$$$%%###@@.$$$###$$$###$$$",
".+++++$$$%%###@@..$$$###$$$###$$$",
".++++$$$%%%##@@@.$###$$$###$$$###",
".+++$$$%%%###@@.$$###$$$###$$$###",
"...............$$$###$$$###$$$###"};
