/* XPM */
static char * curl6_xpm[] = {
"33 33 7 1",
" 	c None",
".	c #000000",
"+	c #333333",
"@	c #666666",
"#	c #CCCCCC",
"$	c #FFFFFF",
"%	c #999999",
".+@###@@@###@@@###@@@###@@@###@@@",
"...+##@@@###@@@###@@@###@@@###@@@",
".$.#++@@@###@@@###@@@###@@@###@@@",
".$$.##..#@@@###@@@###@@@###@@@###",
".$$$.#$%.+@@###@@@###@@@###@@@###",
".$$$$.%$#@.+###@@@###@@@###@@@###",
".$$$$$.%$$%+.@@###@@@###@@@###@@@",
".$$$$$$.@#$#%+.###@@@###@@@###@@@",
".$$$$$$$.@#$$#@+.#@@@###@@@###@@@",
".$$$$$$$$.@#$$#%@..##@@@###@@@###",
".$$$$$$$$$.+%$$$#%+.#@@@###@@@###",
".$$$$$$$$$$.+%#$$#%@+.@@###@@@###",
".$$$$$$$$$$$.+%#$$$#%@+.@@@###@@@",
".$$$$$$$$$$$$.+%#$$$#%@++.@###@@@",
".$$$$$$$$$$$$$.+@#$$$$#%@+..##@@@",
".$$$$$$$$$$$$$$.+@%#$$$#+++...###",
".$$$$$$$$$$$$$$$.+@%#$$+@@+++..##",
".$$$$$$$$$$$$$$$$.+@%#+%@@@++++.#",
".$$$$$$$$$$$$$$$$$..@+#%%@@@@+++.",
".$$$$$$$$$$$$$$$$$$..+##%%%@@@++.",
".$$$$$$$$$$$$$$$$$$$..###%%%@@@@.",
".$$$$$$$$$$$$$$$$$$$$.$###%%%@@@.",
".$$$$$$$$$$$$$$$$$$$$$.$###%%%%@.",
".$$$$$$$$$$$$$$$$$$$$$$.$####%%%.",
".$$$$$$$$$$$$$$$$$$$$$$$$$####%%.",
".$$$$$$$$$$$$$$$$$$$$$$$$$$$###%.",
".$$$$$$$$$$$$$$$$$$$$$$$$$$$$###.",
".$$$$$$$$$$$$$$$$$$$$$$$$$$$$$##.",
".$$$$$$$$$$$$$$$$$$$$$$$$$$$$$$#.",
".$$$$$$$$$$$$$$$$$$$$$$$$$$$$$$$.",
".$$$$$$$$$$$$$$$$$$$$$$$$$$$$$$$.",
".$$$$$$$$$$$$$$$$$$$$$$$$$$$$$$$.",
"................................."};
