/* XPM */
static char * curl3_xpm[] = {
"33 33 7 1",
" 	c None",
".	c #666666",
"+	c #CCCCCC",
"@	c #000000",
"#	c #333333",
"$	c #999999",
"%	c #FFFFFF",
"...+++...+++...+++@@@@@@@@@@@@@@@",
"...+++...+++...++@##...$$$+++%%%@",
"...+++...+++...+@###..$$$+++%%%%@",
"+++...+++...+++@@##...$$+++%%%%%@",
"+++...+++...+++@##...$$+++%%%%%%@",
"+++...+++...++@@##..$$$++%%%%%%%@",
"...+++...+++..@##..$$$+++%%%%%%%@",
"...+++...+++.@##...$$+++%%%%%%%%@",
"...+++...+++.#.#..$$+++%%%%%%%%%@",
"+++...+++...@#$+#$$+++%@%%%%%%%%@",
"+++...+++...#.+%%#+++%@%%%%%%%%%@",
"+++...+++..@.$%%%+##@@%%%%%%%%%%@",
"...+++...++#$+%%+$.@@%%%%%%%%%%%@",
"...+++...+@.+%%+$.@@%%%%%%%%%%%%@",
"...+++...@#$%%%$.#@%%%%%%%%%%%%%@",
"+++...+++@$+%%+.#@%%%%%%%%%%%%%%@",
"+++...++@.+%%+.#@%%%%%%%%%%%%%%%@",
"+++...++#$%%+$#@%%%%%%%%%%%%%%%%@",
"...+++.@.+%+$#@%%%%%%%%%%%%%%%%%@",
"...+++.#+%%$#@%%%%%%%%%%%%%%%%%%@",
"...+++@$%%$#@%%%%%%%%%%%%%%%%%%%@",
"+++..##+%+#@%%%%%%%%%%%%%%%%%%%%@",
"+++..@$%+.@%%%%%%%%%%%%%%%%%%%%%@",
"+++.#.%+.@%%%%%%%%%%%%%%%%%%%%%%@",
"...+@+%.@%%%%%%%%%%%%%%%%%%%%%%%@",
"...@$%$@%%%%%%%%%%%%%%%%%%%%%%%%@",
"...@%$@%%%%%%%%%%%%%%%%%%%%%%%%%@",
"++#++@%%%%%%%%%%%%%%%%%%%%%%%%%%@",
"++#+@%%%%%%%%%%%%%%%%%%%%%%%%%%%@",
"+#+@%%%%%%%%%%%%%%%%%%%%%%%%%%%%@",
".@@%%%%%%%%%%%%%%%%%%%%%%%%%%%%%@",
"#@%%%%%%%%%%%%%%%%%%%%%%%%%%%%%%@",
"@@@@@@@@@@@@@@@@@@@@@@@@@@@@@@@@@"};
