<?xml version="1.0" encoding="UTF-8" standalone="no"?>
<!-- Created with Inkscape (http://www.inkscape.org/) -->
<svg
   xmlns:dc="http://purl.org/dc/elements/1.1/"
   xmlns:cc="http://creativecommons.org/ns#"
   xmlns:rdf="http://www.w3.org/1999/02/22-rdf-syntax-ns#"
   xmlns:svg="http://www.w3.org/2000/svg"
   xmlns="http://www.w3.org/2000/svg"
   xmlns:xlink="http://www.w3.org/1999/xlink"
   xmlns:sodipodi="http://sodipodi.sourceforge.net/DTD/sodipodi-0.dtd"
   xmlns:inkscape="http://www.inkscape.org/namespaces/inkscape"
   width="22"
   height="22"
   id="svg2"
   version="1.1"
   inkscape:version="0.46"
   sodipodi:docname="Cage_22_Blue.svg"
   inkscape:export-filename="/a/home/cc/students/cs/barakitk/Documents/Cage_22_Blue.png"
   inkscape:export-xdpi="90"
   inkscape:export-ydpi="90"
   sodipodi:version="0.32"
   inkscape:output_extension="org.inkscape.output.svg.inkscape">
  <defs
     id="defs4">
    <linearGradient
       id="linearGradient6410">
      <stop
         style="stop-color:#a9c3e3;stop-opacity:1"
         offset="0"
         id="stop6412" />
      <stop
         id="stop6414"
         offset="0.33032584"
         style="stop-color:#86a9d4;stop-opacity:1" />
      <stop
         style="stop-color:#336eb3;stop-opacity:1"
         offset="0.81125879"
         id="stop6416" />
      <stop
         id="stop6418"
         offset="1"
         style="stop-color:#2861a4;stop-opacity:1" />
    </linearGradient>
    <linearGradient
       id="linearGradient4581">
      <stop
         id="stop4583"
         offset="0"
         style="stop-color:#3d92fc;stop-opacity:1;" />
      <stop
         style="stop-color:#3d92fc;stop-opacity:1;"
         offset="0.28845462"
         id="stop4585" />
      <stop
         id="stop4587"
         offset="1"
         style="stop-color:#005cf4;stop-opacity:1;" />
    </linearGradient>
    <linearGradient
       id="linearGradient3976">
      <stop
         id="stop3978"
         offset="0"
         style="stop-color:#878985;stop-opacity:1" />
      <stop
         id="stop3980"
         offset="1"
         style="stop-color:#545652;stop-opacity:1" />
    </linearGradient>
    <linearGradient
       id="linearGradient3970">
      <stop
         style="stop-color:#ededeb;stop-opacity:1"
         offset="0"
         id="stop3972" />
      <stop
         style="stop-color:#d3d6cf;stop-opacity:1"
         offset="1"
         id="stop3974" />
    </linearGradient>
    <linearGradient
       inkscape:collect="always"
       xlink:href="#linearGradient3976"
       id="linearGradient4497"
       gradientUnits="userSpaceOnUse"
       x1="3.095432"
       y1="1041.4088"
       x2="19.29899"
       y2="1041.4088"
       gradientTransform="translate(-0.1875,-0.25)" />
    <linearGradient
       inkscape:collect="always"
       xlink:href="#linearGradient3970"
       id="linearGradient4603"
       gradientUnits="userSpaceOnUse"
       x1="3.095432"
       y1="1041.4088"
       x2="19.29899"
       y2="1041.4088"
       gradientTransform="translate(-0.1875,-0.25)" />
    <linearGradient
       inkscape:collect="always"
       xlink:href="#linearGradient3970"
       id="linearGradient4605"
       gradientUnits="userSpaceOnUse"
       x1="3.095432"
       y1="1041.4088"
       x2="19.29899"
       y2="1041.4088"
       gradientTransform="translate(-0.1875,-0.25)" />
    <radialGradient
       inkscape:collect="always"
       xlink:href="#linearGradient4581"
       id="radialGradient4611"
       gradientUnits="userSpaceOnUse"
       cx="2.96875"
       cy="13"
       fx="2.2843127"
       fy="12.157616"
       r="1.5625" />
    <filter
       inkscape:collect="always"
       id="filter4657"
       x="-0.12807499"
       width="1.25615"
       y="-0.23630218"
       height="1.4726044">
      <feGaussianBlur
         inkscape:collect="always"
         stdDeviation="0.81332817"
         id="feGaussianBlur4659" />
    </filter>
    <radialGradient
       inkscape:collect="always"
       xlink:href="#linearGradient6410"
       id="radialGradient6380"
       gradientUnits="userSpaceOnUse"
       cx="2.96875"
       cy="13"
       fx="2.2843127"
       fy="12.157616"
       r="1.5625" />
  </defs>
  <sodipodi:namedview
     id="base"
     pagecolor="#ffffff"
     bordercolor="#666666"
     borderopacity="1.0"
     inkscape:pageopacity="0.0"
     inkscape:pageshadow="2"
     inkscape:zoom="1"
     inkscape:cx="8.0598696"
     inkscape:cy="10.779932"
     inkscape:document-units="px"
     inkscape:current-layer="layer1"
     showgrid="false"
     objecttolerance="20"
     inkscape:object-nodes="true"
     inkscape:object-paths="false"
     inkscape:snap-global="false"
     inkscape:snap-nodes="true"
     inkscape:snap-center="true"
     inkscape:window-width="1280"
     inkscape:window-height="968"
     inkscape:window-x="-4"
     inkscape:window-y="-4"
     inkscape:window-maximized="1" />
  <metadata
     id="metadata7">
    <rdf:RDF>
      <cc:Work
         rdf:about="">
        <dc:format>image/svg+xml</dc:format>
        <dc:type
           rdf:resource="http://purl.org/dc/dcmitype/StillImage" />
        <dc:title>Cage Transform Icon for GIMP - 22X22px</dc:title>
        <cc:license
           rdf:resource="" />
        <dc:date>July 2010</dc:date>
        <dc:creator>
          <cc:Agent>
            <dc:title>Barak Itkin &lt;lightningismyname@gmail.com&gt;</dc:title>
          </cc:Agent>
        </dc:creator>
        <dc:rights>
          <cc:Agent>
            <dc:title>Barak Itkin &lt;lightningismyname@gmail.com&gt;</dc:title>
          </cc:Agent>
        </dc:rights>
      </cc:Work>
    </rdf:RDF>
  </metadata>
  <g
     inkscape:label="Layer 1"
     inkscape:groupmode="layer"
     id="layer1"
     transform="translate(0,-1030.3622)">
    <path
       transform="matrix(1.19759,0.02888267,-0.77677238,1.2067183,797.08014,-200.18843)"
       style="opacity:0.5;fill:#2e3436;stroke:none;filter:url(#filter4657)"
       d="m 9.28125,1028.2188 -0.46875,7.125 4.78125,-3.1563 c 0.685937,-0.464 1.695958,-0.3671 2.28125,0.2187 l 3.9375,3.9376 -3.233045,-6.044 -7.298205,-2.081 z"
       id="path4627"
       sodipodi:nodetypes="ccccccc" />
    <path
       style="fill:none;stroke:url(#linearGradient4603);stroke-width:1;stroke-linecap:butt;stroke-linejoin:miter;stroke-miterlimit:4;stroke-opacity:1;stroke-dasharray:none"
       d="m 3.3812882,1046.7851 0.8533435,-12.8707 14.4035023,3.5419 -0.688535,10.9469 -6.744904,-6.7733 -7.8234068,5.1552 z"
       id="path3391"
       sodipodi:nodetypes="cccccc" />
    <path
       style="fill:none;stroke:url(#linearGradient4497);stroke-width:2.5;stroke-linecap:butt;stroke-linejoin:miter;stroke-miterlimit:4;stroke-opacity:1;stroke-dasharray:none"
       d="m 3.3812882,1046.7851 0.8533435,-12.8707 14.4035023,3.5419 -0.688535,10.9469 -6.744904,-6.7733 -7.8234068,5.1552 z"
       id="path4495"
       sodipodi:nodetypes="cccccc" />
    <path
       sodipodi:nodetypes="cccccc"
       id="path4383"
       d="m 3.3812882,1046.7851 0.8533435,-12.8707 14.4035023,3.5419 -0.688535,10.9469 -6.744904,-6.7733 -7.8234068,5.1552 z"
       style="fill:none;stroke:url(#linearGradient4605);stroke-width:1;stroke-linecap:butt;stroke-linejoin:miter;stroke-miterlimit:4;stroke-opacity:1;stroke-dasharray:none" />
    <path
       sodipodi:type="arc"
       style="fill:none;stroke:#154384;stroke-width:0.71478673000000004;stroke-miterlimit:4;stroke-opacity:1;stroke-dasharray:none;color:#000000;stroke-linecap:butt;stroke-linejoin:miter;stroke-dashoffset:0;marker:none;visibility:visible;display:inline;overflow:visible;enable-background:accumulate"
       id="path4535"
       sodipodi:cx="2.96875"
       sodipodi:cy="13"
       sodipodi:rx="1.5625"
       sodipodi:ry="1.5625"
       d="m 4.53125,13 c 0,0.862945 -0.6995551,1.5625 -1.5625,1.5625 -0.8629449,0 -1.5625,-0.699555 -1.5625,-1.5625 0,-0.862945 0.6995551,-1.5625 1.5625,-1.5625 0.8629449,0 1.5625,0.699555 1.5625,1.5625 z"
       transform="matrix(1.6788225,0,0,1.6788225,-1.6027161,1024.9604)" />
    <path
       sodipodi:type="arc"
       style="fill:none;stroke:#154384;stroke-width:0.71478670000000000;stroke-miterlimit:4;stroke-opacity:1;stroke-dasharray:none"
       id="path4537"
       sodipodi:cx="2.96875"
       sodipodi:cy="13"
       sodipodi:rx="1.5625"
       sodipodi:ry="1.5625"
       d="m 4.53125,13 c 0,0.862945 -0.6995551,1.5625 -1.5625,1.5625 -0.8629449,0 -1.5625,-0.699555 -1.5625,-1.5625 0,-0.862945 0.6995551,-1.5625 1.5625,-1.5625 0.8629449,0 1.5625,0.699555 1.5625,1.5625 z"
       transform="matrix(1.6788225,0,0,1.6788225,-0.7493726,1012.0897)" />
    <path
       sodipodi:type="arc"
       style="fill:none;stroke:#154384;stroke-width:0.71478673000000004;stroke-miterlimit:4;stroke-opacity:1;stroke-dasharray:none;color:#000000;stroke-linecap:butt;stroke-linejoin:miter;stroke-dashoffset:0;marker:none;visibility:visible;display:inline;overflow:visible;enable-background:accumulate"
       id="path4539"
       sodipodi:cx="2.96875"
       sodipodi:cy="13"
       sodipodi:rx="1.5625"
       sodipodi:ry="1.5625"
       d="m 4.53125,13 c 0,0.862945 -0.6995551,1.5625 -1.5625,1.5625 -0.8629449,0 -1.5625,-0.699555 -1.5625,-1.5625 0,-0.862945 0.6995551,-1.5625 1.5625,-1.5625 0.8629449,0 1.5625,0.699555 1.5625,1.5625 z"
       transform="matrix(1.6788225,0,0,1.6788225,13.654129,1015.6316)" />
    <path
       sodipodi:type="arc"
       style="fill:none;stroke:#154384;stroke-width:0.71478673000000004;stroke-miterlimit:4;stroke-opacity:1;stroke-dasharray:none;color:#000000;stroke-linecap:butt;stroke-linejoin:miter;stroke-dashoffset:0;marker:none;visibility:visible;display:inline;overflow:visible;enable-background:accumulate"
       id="path4541"
       sodipodi:cx="2.96875"
       sodipodi:cy="13"
       sodipodi:rx="1.5625"
       sodipodi:ry="1.5625"
       d="m 4.53125,13 c 0,0.862945 -0.6995551,1.5625 -1.5625,1.5625 -0.8629449,0 -1.5625,-0.699555 -1.5625,-1.5625 0,-0.862945 0.6995551,-1.5625 1.5625,-1.5625 0.8629449,0 1.5625,0.699555 1.5625,1.5625 z"
       transform="matrix(1.6788225,0,0,1.6788225,12.965595,1026.5785)" />
    <path
       sodipodi:type="arc"
       style="fill:none;stroke:#154384;stroke-width:0.71478673000000004;stroke-miterlimit:4;stroke-opacity:1;stroke-dasharray:none;color:#000000;stroke-linecap:butt;stroke-linejoin:miter;stroke-dashoffset:0;marker:none;visibility:visible;display:inline;overflow:visible;enable-background:accumulate"
       id="path4543"
       sodipodi:cx="2.96875"
       sodipodi:cy="13"
       sodipodi:rx="1.5625"
       sodipodi:ry="1.5625"
       d="m 4.53125,13 c 0,0.862945 -0.6995551,1.5625 -1.5625,1.5625 -0.8629449,0 -1.5625,-0.699555 -1.5625,-1.5625 0,-0.862945 0.6995551,-1.5625 1.5625,-1.5625 0.8629449,0 1.5625,0.699555 1.5625,1.5625 z"
       transform="matrix(1.6788225,0,0,1.6788225,6.2206907,1019.8052)" />
    <path
       sodipodi:type="arc"
       style="fill:url(#radialGradient4611);fill-opacity:1;stroke:none"
       id="path3684"
       sodipodi:cx="2.96875"
       sodipodi:cy="13"
       sodipodi:rx="1.5625"
       sodipodi:ry="1.5625"
       d="m 4.53125,13 c 0,0.862945 -0.6995551,1.5625 -1.5625,1.5625 -0.8629449,0 -1.5625,-0.699555 -1.5625,-1.5625 0,-0.862945 0.6995551,-1.5625 1.5625,-1.5625 0.8629449,0 1.5625,0.699555 1.5625,1.5625 z"
       transform="matrix(1.6788225,0,0,1.6788225,-1.6027161,1024.9604)" />
    <use
       x="0"
       y="0"
       xlink:href="#path3684"
       id="use3395"
       transform="translate(0.8533435,-12.870692)"
       width="22"
       height="22" />
    <use
       x="0"
       y="0"
       xlink:href="#use3395"
       id="use3397"
       transform="translate(14.403502,3.5418845)"
       width="22"
       height="22" />
    <use
       x="0"
       y="0"
       xlink:href="#use3397"
       id="use3399"
       transform="translate(-0.6885347,10.9469)"
       width="22"
       height="22" />
    <use
       x="0"
       y="0"
       xlink:href="#use3399"
       id="use3401"
       transform="translate(-6.744904,-6.7733)"
       width="22"
       height="22" />
    <path
       transform="matrix(1.6788225,0,0,1.6788225,-1.6027161,1024.9604)"
       d="m 4.53125,13 c 0,0.862945 -0.6995551,1.5625 -1.5625,1.5625 -0.8629449,0 -1.5625,-0.699555 -1.5625,-1.5625 0,-0.862945 0.6995551,-1.5625 1.5625,-1.5625 0.8629449,0 1.5625,0.699555 1.5625,1.5625 z"
       sodipodi:ry="1.5625"
       sodipodi:rx="1.5625"
       sodipodi:cy="13"
       sodipodi:cx="2.96875"
       id="path4385"
       style="fill:url(#radialGradient6380);fill-opacity:1;stroke:none;opacity:1;color:#000000;fill-rule:nonzero;stroke-width:1;stroke-linecap:butt;stroke-linejoin:miter;marker:none;marker-start:none;marker-mid:none;marker-end:none;stroke-miterlimit:4;stroke-dasharray:none;stroke-dashoffset:0;stroke-opacity:1;visibility:visible;display:inline;overflow:visible;enable-background:accumulate"
       sodipodi:type="arc" />
    <path
       transform="matrix(1.6788225,0,0,1.6788225,-0.7493726,1012.0897)"
       d="m 4.53125,13 c 0,0.862945 -0.6995551,1.5625 -1.5625,1.5625 -0.8629449,0 -1.5625,-0.699555 -1.5625,-1.5625 0,-0.862945 0.6995551,-1.5625 1.5625,-1.5625 0.8629449,0 1.5625,0.699555 1.5625,1.5625 z"
       sodipodi:ry="1.5625"
       sodipodi:rx="1.5625"
       sodipodi:cy="13"
       sodipodi:cx="2.96875"
       id="use4387"
       style="fill:url(#radialGradient6380);fill-opacity:1;stroke:none;opacity:1;color:#000000;fill-rule:nonzero;stroke-width:1;stroke-linecap:butt;stroke-linejoin:miter;marker:none;marker-start:none;marker-mid:none;marker-end:none;stroke-miterlimit:4;stroke-dasharray:none;stroke-dashoffset:0;stroke-opacity:1;visibility:visible;display:inline;overflow:visible;enable-background:accumulate"
       sodipodi:type="arc" />
    <path
       transform="matrix(1.6788225,0,0,1.6788225,13.654129,1015.6316)"
       d="m 4.53125,13 c 0,0.862945 -0.6995551,1.5625 -1.5625,1.5625 -0.8629449,0 -1.5625,-0.699555 -1.5625,-1.5625 0,-0.862945 0.6995551,-1.5625 1.5625,-1.5625 0.8629449,0 1.5625,0.699555 1.5625,1.5625 z"
       sodipodi:ry="1.5625"
       sodipodi:rx="1.5625"
       sodipodi:cy="13"
       sodipodi:cx="2.96875"
       id="use4389"
       style="fill:url(#radialGradient6380);fill-opacity:1;stroke:none;opacity:1;color:#000000;fill-rule:nonzero;stroke-width:1;stroke-linecap:butt;stroke-linejoin:miter;marker:none;marker-start:none;marker-mid:none;marker-end:none;stroke-miterlimit:4;stroke-dasharray:none;stroke-dashoffset:0;stroke-opacity:1;visibility:visible;display:inline;overflow:visible;enable-background:accumulate"
       sodipodi:type="arc" />
    <path
       transform="matrix(1.6788225,0,0,1.6788225,12.965595,1026.5785)"
       d="m 4.53125,13 c 0,0.862945 -0.6995551,1.5625 -1.5625,1.5625 -0.8629449,0 -1.5625,-0.699555 -1.5625,-1.5625 0,-0.862945 0.6995551,-1.5625 1.5625,-1.5625 0.8629449,0 1.5625,0.699555 1.5625,1.5625 z"
       sodipodi:ry="1.5625"
       sodipodi:rx="1.5625"
       sodipodi:cy="13"
       sodipodi:cx="2.96875"
       id="use4391"
       style="fill:url(#radialGradient6380);fill-opacity:1;stroke:none;opacity:1;color:#000000;fill-rule:nonzero;stroke-width:1;stroke-linecap:butt;stroke-linejoin:miter;marker:none;marker-start:none;marker-mid:none;marker-end:none;stroke-miterlimit:4;stroke-dasharray:none;stroke-dashoffset:0;stroke-opacity:1;visibility:visible;display:inline;overflow:visible;enable-background:accumulate"
       sodipodi:type="arc" />
    <path
       transform="matrix(1.6788225,0,0,1.6788225,6.2206907,1019.8052)"
       d="m 4.53125,13 c 0,0.862945 -0.6995551,1.5625 -1.5625,1.5625 -0.8629449,0 -1.5625,-0.699555 -1.5625,-1.5625 0,-0.862945 0.6995551,-1.5625 1.5625,-1.5625 0.8629449,0 1.5625,0.699555 1.5625,1.5625 z"
       sodipodi:ry="1.5625"
       sodipodi:rx="1.5625"
       sodipodi:cy="13"
       sodipodi:cx="2.96875"
       id="use4393"
       style="fill:url(#radialGradient6380);fill-opacity:1;stroke:none;opacity:1;color:#000000;fill-rule:nonzero;stroke-width:1;stroke-linecap:butt;stroke-linejoin:miter;marker:none;marker-start:none;marker-mid:none;marker-end:none;stroke-miterlimit:4;stroke-dasharray:none;stroke-dashoffset:0;stroke-opacity:1;visibility:visible;display:inline;overflow:visible;enable-background:accumulate"
       sodipodi:type="arc" />
  </g>
</svg>
