<?xml version="1.0" encoding="UTF-8" standalone="no"?>
<!-- Created with Inkscape (http://www.inkscape.org/) -->

<svg
   xmlns:osb="http://www.openswatchbook.org/uri/2009/osb"
   xmlns:dc="http://purl.org/dc/elements/1.1/"
   xmlns:cc="http://creativecommons.org/ns#"
   xmlns:rdf="http://www.w3.org/1999/02/22-rdf-syntax-ns#"
   xmlns:svg="http://www.w3.org/2000/svg"
   xmlns="http://www.w3.org/2000/svg"
   xmlns:sodipodi="http://sodipodi.sourceforge.net/DTD/sodipodi-0.dtd"
   xmlns:inkscape="http://www.inkscape.org/namespaces/inkscape"
   width="22"
   height="22"
   viewBox="0 0 22 22"
   id="svg30571"
   version="1.1"
   inkscape:version="0.91 r13725"
   sodipodi:docname="gimp-wilber.svg"
   inkscape:export-filename="/home/klaus/Bilder/icons/Symbolic/hicolor/22x22/apps/gimp-tool-n-point-deformation.png"
   inkscape:export-xdpi="90"
   inkscape:export-ydpi="90">
  <defs
     id="defs30573">
    <linearGradient
       id="linearGradient19282"
       osb:paint="solid"
       gradientTransform="matrix(1.2178615,0,0,1.043881,356.69172,1794.4958)">
      <stop
         style="stop-color:#666666;stop-opacity:1;"
         offset="0"
         id="stop19284" />
    </linearGradient>
  </defs>
  <sodipodi:namedview
     id="base"
     pagecolor="#ffffff"
     bordercolor="#666666"
     borderopacity="1.0"
     inkscape:pageopacity="0.0"
     inkscape:pageshadow="2"
     inkscape:zoom="16"
     inkscape:cx="3.4062536"
     inkscape:cy="24.021871"
     inkscape:document-units="px"
     inkscape:current-layer="layer1"
     showgrid="false"
     units="px"
     inkscape:snap-page="true"
     inkscape:snap-bbox="true"
     inkscape:bbox-paths="true"
     inkscape:bbox-nodes="true"
     inkscape:snap-bbox-edge-midpoints="true"
     inkscape:snap-bbox-midpoints="true"
     inkscape:object-paths="true"
     inkscape:snap-intersection-paths="true"
     inkscape:object-nodes="true"
     inkscape:snap-smooth-nodes="true"
     inkscape:snap-midpoints="true"
     inkscape:snap-object-midpoints="true"
     inkscape:snap-center="true"
     inkscape:snap-text-baseline="true"
     showborder="false"
     inkscape:window-width="1920"
     inkscape:window-height="1016"
     inkscape:window-x="0"
     inkscape:window-y="27"
     inkscape:window-maximized="1" />
  <metadata
     id="metadata30576">
    <rdf:RDF>
      <cc:Work
         rdf:about="">
        <dc:format>image/svg+xml</dc:format>
        <dc:type
           rdf:resource="http://purl.org/dc/dcmitype/StillImage" />
        <dc:title></dc:title>
        <dc:creator>
          <cc:Agent>
            <dc:title>Klaus Staedtler</dc:title>
          </cc:Agent>
        </dc:creator>
      </cc:Work>
    </rdf:RDF>
  </metadata>
  <g
     inkscape:label="Layer 1"
     inkscape:groupmode="layer"
     id="layer1"
     transform="translate(0,-1030.3622)">
    <g
       id="g5512"
       inkscape:label="applications-gimp"
       transform="matrix(1.3750014,0,0,1.3750014,-361.62566,762.23487)">
      <rect
         y="195.00299"
         x="263.00021"
         height="15.998485"
         width="15.998006"
         id="rect5139"
         style="fill:none;stroke:none" />
      <path
         sodipodi:nodetypes="csccccccccccccccssssssssss"
         inkscape:connector-curvature="0"
         id="path7016"
         d="m 278.7795,195.00152 c 0,0 -0.11302,4.06234 -5.84302,4.03087 -4.86485,-0.0267 -4.96814,-3.03096 -4.96814,-3.03096 0.52967,4.99998 -0.99987,6.99933 -0.99987,6.99933 0,0 -0.10876,0.71567 -2.40596,0.5937 1.21604,1.73419 5.82245,5.16101 9.53788,4.2496 -0.54351,-0.40203 -0.78896,-0.78972 -1.10142,-1.1327 -0.0827,0.0113 -0.008,0.007 -0.0937,0.008 -2.15004,0.0106 -3.96826,-1.78109 -3.96826,-1.78109 0,0 4.05095,1.92192 5.65555,-0.53119 l -0.84368,-0.90636 c 0.9112,0.0218 2.09732,0.9775 2.01952,2.27054 -0.5437,-0.61824 -0.48847,-0.55195 -0.48847,-0.55195 0,0 -0.21842,0.22117 -0.53118,0.53119 0.71709,0.36804 0.94408,0.58432 1.60026,1.02178 2.80388,-0.68342 2.91436,-6.74913 2.43049,-11.77076 z m -4.09324,4.49958 c 0.95981,0 1.74979,0.78716 1.74979,1.74983 0,0.96267 -0.78998,1.74983 -1.74979,1.74983 -0.95981,0 -1.74978,-0.78716 -1.74978,-1.74983 0,-0.96267 0.78997,-1.74983 1.74978,-1.74983 z m -4.15573,0.49995 c 0.82596,0 1.46856,0.67143 1.46856,1.49985 0,0.82844 -0.6426,1.49986 -1.46856,1.49986 -0.82597,0 -1.49982,-0.67142 -1.49982,-1.49986 0,-0.82842 0.67385,-1.49985 1.49982,-1.49985 z"
         style="display:inline;overflow:visible;visibility:visible;fill:#505050;fill-opacity:1;fill-rule:evenodd;stroke:none;stroke-width:0.67424625;marker:none;enable-background:new" />
      <path
         inkscape:connector-curvature="0"
         id="path5327-8"
         d="M 269.05437,205.0321 Z"
         style="fill:none;stroke:#000000;stroke-width:0.99851286px;stroke-linecap:butt;stroke-linejoin:miter;stroke-opacity:1" />
      <path
         inkscape:connector-curvature="0"
         id="path5329-6"
         d="M 269.08553,205.0946 Z"
         style="fill:none;stroke:#000000;stroke-width:0.99851286px;stroke-linecap:butt;stroke-linejoin:miter;stroke-opacity:1" />
      <path
         inkscape:connector-curvature="0"
         id="path5373"
         d="m 270.85598,200.84636 c -0.32702,0 -0.59215,0.25801 -0.59215,0.57631 0,0.31828 0.26513,0.57629 0.59215,0.57629 0.32703,0 0.59215,-0.25801 0.59215,-0.57629 0,-0.3183 -0.26512,-0.57631 -0.59215,-0.57631 z"
         style="fill:#505050;fill-opacity:1;stroke:none" />
      <ellipse
         ry="0.5"
         rx="0.73572785"
         cy="-15.5"
         cx="33.735729"
         transform="matrix(1.0269759,0,0,1.4861317,240.36743,224.27989)"
         id="path5375"
         style="fill:#505050;fill-opacity:1;stroke:none" />
      <ellipse
         ry="6.0987959"
         rx="4.3310289"
         cy="27.228739"
         cx="6.0987959"
         style="display:inline;overflow:visible;visibility:visible;fill:#505050;fill-opacity:1;fill-rule:evenodd;stroke:none;stroke-width:1.55635607;marker:none;enable-background:new"
         id="path7023"
         transform="matrix(0.40472113,-0.11972332,0.15769825,0.31663504,258.23773,195.12592)" />
      <path
         inkscape:connector-curvature="0"
         style="display:inline;overflow:visible;visibility:visible;fill:#505050;fill-opacity:1;fill-rule:nonzero;stroke:none;stroke-width:0.27392486;marker:none"
         d="m 276.51358,209.00019 0.4849,-0.60519 c -0.9509,-1.22325 -2.95949,-2.43657 -2.95949,-2.43657 -0.33044,-0.2825 -0.53936,0.0546 -0.33671,0.3568 0,0 1.50633,1.89884 2.8113,2.68496 z"
         id="path6937"
         inkscape:r_cx="true"
         inkscape:r_cy="true"
         sodipodi:nodetypes="ccssc" />
      <path
         inkscape:connector-curvature="0"
         style="display:inline;overflow:visible;visibility:visible;fill:#505050;fill-opacity:1;fill-rule:nonzero;stroke:none;stroke-width:0.2;marker:none"
         d="m 278.99823,211 c -0.0537,-1.66895 -0.77474,-3.11447 -2.13998,-2.99213 -1.10021,0.0986 -1.23652,1.77662 0.14023,1.99223 2.10063,0.32898 1.99975,0.9999 1.99975,0.9999 z"
         id="path7040"
         inkscape:r_cx="true"
         inkscape:r_cy="true"
         sodipodi:nodetypes="cssc" />
    </g>
  </g>
</svg>
