/* Created with The GIMP */
#define background_mask_width 32
#define background_mask_height 32
#define background_mask_x_hot 0
#define background_mask_y_hot 0
static unsigned char background_mask_bits[] = {
   0x00, 0x00, 0x00, 0x00, 0x00, 0x00, 0x00, 0x00, 0x00, 0x00, 0xfc, 0x03,
   0x00, 0x00, 0xfc, 0x03, 0x00, 0x00, 0xfc, 0x3f, 0x00, 0x00, 0xfc, 0x3f,
   0x00, 0x00, 0xfc, 0x3f, 0x00, 0x00, 0xfc, 0x3f, 0x00, 0x00, 0xfc, 0x3f,
   0x00, 0x00, 0xe0, 0x3f, 0x00, 0x00, 0xe0, 0x3f, 0x00, 0x00, 0xe0, 0x3f,
   0x00, 0x00, 0x00, 0x00, 0x00, 0x00, 0x00, 0x00, 0x00, 0x00, 0x00, 0x00,
   0x00, 0x00, 0x00, 0x00, 0x00, 0x00, 0x00, 0x00, 0x00, 0x00, 0x00, 0x00,
   0x00, 0x00, 0x00, 0x00, 0x00, 0x00, 0x00, 0x00, 0x00, 0x00, 0x00, 0x00,
   0x00, 0x00, 0x00, 0x00, 0x00, 0x00, 0x00, 0x00, 0x00, 0x00, 0x00, 0x00,
   0x00, 0x00, 0x00, 0x00, 0x00, 0x00, 0x00, 0x00, 0x00, 0x00, 0x00, 0x00,
   0x00, 0x00, 0x00, 0x00, 0x00, 0x00, 0x00, 0x00, 0x00, 0x00, 0x00, 0x00,
   0x00, 0x00, 0x00, 0x00, 0x00, 0x00, 0x00, 0x00 };
