/* Created with The GIMP */
#define bezier_select_small_mask_width 32
#define bezier_select_small_mask_height 32
#define bezier_select_small_mask_x_hot 0
#define bezier_select_small_mask_y_hot 0
static unsigned char bezier_select_small_mask_bits[] = {
   0x00, 0x00, 0x00, 0x00, 0x00, 0x00, 0x00, 0x00, 0x00, 0x00, 0x00, 0x00,
   0x00, 0x00, 0x00, 0x00, 0x00, 0x00, 0x00, 0x00, 0x00, 0x00, 0x00, 0x00,
   0x00, 0x00, 0x00, 0x00, 0x00, 0x00, 0x00, 0x00, 0x00, 0x00, 0x00, 0x00,
   0x00, 0x00, 0x00, 0x00, 0x00, 0x00, 0x00, 0x00, 0x00, 0x00, 0x00, 0x00,
   0x00, 0x00, 0x00, 0x00, 0x00, 0x00, 0x80, 0x03, 0x00, 0x00, 0xc0, 0x07,
   0x00, 0x00, 0xe0, 0x0f, 0x00, 0x00, 0x70, 0x1c, 0x00, 0x00, 0x38, 0x38,
   0x00, 0x00, 0x38, 0x38, 0x00, 0x00, 0x38, 0x70, 0x00, 0x00, 0x7c, 0x70,
   0x00, 0x00, 0xfe, 0x70, 0x00, 0x00, 0xfe, 0x20, 0x00, 0x08, 0xfe, 0x00,
   0x00, 0x1c, 0x7c, 0x00, 0x00, 0x1c, 0x38, 0x00, 0x00, 0x38, 0x38, 0x00,
   0x00, 0x38, 0x38, 0x00, 0x00, 0x70, 0x1c, 0x00, 0x00, 0xe0, 0x0f, 0x00,
   0x00, 0xc0, 0x07, 0x00, 0x00, 0x80, 0x03, 0x00 };
