/* Created with The GIMP */
#define bezier_select_small_mask_width 32
#define bezier_select_small_mask_height 32
static unsigned char bezier_select_small_mask_bits[] = {
   0x00, 0x00, 0x00, 0x00, 0x00, 0x00, 0x00, 0x00, 0x00, 0x00, 0x00, 0x00,
   0x00, 0x00, 0x00, 0x00, 0x00, 0x00, 0x00, 0x00, 0x00, 0x00, 0x00, 0x00,
   0x00, 0x00, 0x00, 0x00, 0x00, 0x00, 0x00, 0x00, 0x00, 0x00, 0x00, 0x00,
   0x00, 0x00, 0x00, 0x00, 0x00, 0x00, 0x00, 0x00, 0x00, 0x00, 0x00, 0x00,
   0x00, 0x00, 0x00, 0x00, 0x00, 0x00, 0x00, 0x00, 0x00, 0x00, 0xc0, 0x01,
   0x00, 0x00, 0xe0, 0x06, 0x00, 0x00, 0x70, 0x0f, 0x00, 0x00, 0x38, 0x0e,
   0x00, 0x00, 0x38, 0x1f, 0x00, 0x00, 0x1c, 0x1f, 0x00, 0x00, 0xbe, 0x3f,
   0x00, 0x00, 0xbe, 0x3f, 0x00, 0x00, 0xbe, 0x3f, 0x00, 0x00, 0xdc, 0x7f,
   0x00, 0x00, 0xce, 0x7f, 0x00, 0x00, 0xce, 0x7f, 0x00, 0x00, 0xc7, 0x7f,
   0x00, 0x80, 0x83, 0x3f, 0x00, 0x00, 0x81, 0x3f, 0x00, 0x00, 0x80, 0x3f,
   0x00, 0x00, 0x80, 0x3f, 0x00, 0x00, 0x00, 0x1f };
