/* Created with The GIMP */
#define bezier_select_small_width 32
#define bezier_select_small_height 32
static unsigned char bezier_select_small_bits[] = {
   0x00, 0x00, 0x00, 0x00, 0x00, 0x00, 0x00, 0x00, 0x00, 0x00, 0x00, 0x00,
   0x00, 0x00, 0x00, 0x00, 0x00, 0x00, 0x00, 0x00, 0x00, 0x00, 0x00, 0x00,
   0x00, 0x00, 0x00, 0x00, 0x00, 0x00, 0x00, 0x00, 0x00, 0x00, 0x00, 0x00,
   0x00, 0x00, 0x00, 0x00, 0x00, 0x00, 0x00, 0x00, 0x00, 0x00, 0x00, 0x00,
   0x00, 0x00, 0x00, 0x00, 0x00, 0x00, 0x00, 0x00, 0x00, 0x00, 0x00, 0x00,
   0x00, 0x00, 0xc0, 0x03, 0x00, 0x00, 0x20, 0x04, 0x00, 0x00, 0x10, 0x04,
   0x00, 0x00, 0x10, 0x0e, 0x00, 0x00, 0x08, 0x0e, 0x00, 0x00, 0x1c, 0x15,
   0x00, 0x00, 0x14, 0x15, 0x00, 0x00, 0x1c, 0x15, 0x00, 0x00, 0x88, 0x24,
   0x00, 0x00, 0x84, 0x2e, 0x00, 0x00, 0x84, 0x24, 0x00, 0x00, 0x82, 0x31,
   0x00, 0x00, 0x01, 0x1f, 0x00, 0x00, 0x00, 0x1d, 0x00, 0x00, 0x00, 0x1d,
   0x00, 0x00, 0x00, 0x1f, 0x00, 0x00, 0x00, 0x00 };
