/* Created with The GIMP */
#define blur_small_width 32
#define blur_small_height 32
#define blur_small_x_hot 10
#define blur_small_y_hot 10
static unsigned char blur_small_bits[] = {
   0x00, 0x00, 0x00, 0x00, 0x00, 0x00, 0x00, 0x00, 0x00, 0x00, 0x00, 0x00,
   0x00, 0x00, 0x00, 0x00, 0x00, 0x00, 0x00, 0x00, 0x00, 0x00, 0x00, 0x00,
   0x00, 0x00, 0x00, 0x00, 0x00, 0x00, 0x00, 0x00, 0x00, 0x00, 0x00, 0x00,
   0x00, 0x00, 0x00, 0x00, 0x00, 0x00, 0x00, 0x00, 0x00, 0x00, 0x00, 0x00,
   0x00, 0x00, 0x00, 0x00, 0x00, 0x00, 0x00, 0x00, 0x00, 0x00, 0x00, 0x00,
   0x00, 0x00, 0x00, 0x02, 0x00, 0x00, 0x00, 0x02, 0x00, 0x00, 0x00, 0x05,
   0x00, 0x00, 0x00, 0x0d, 0x00, 0x00, 0x80, 0x08, 0x00, 0x00, 0x80, 0x18,
   0x00, 0x00, 0x40, 0x10, 0x00, 0x00, 0x20, 0x28, 0x00, 0x00, 0x20, 0x60,
   0x00, 0x00, 0x10, 0x54, 0x00, 0x00, 0x10, 0x69, 0x00, 0x00, 0x50, 0x52,
   0x00, 0x00, 0x90, 0x68, 0x00, 0x00, 0x20, 0x35, 0x00, 0x00, 0x40, 0x1a,
   0x00, 0x00, 0x80, 0x0f, 0x00, 0x00, 0x00, 0x00 };
