/* Created with The GIMP */
#define clone_small_mask_width 32
#define clone_small_mask_height 32
#define clone_small_mask_x_hot 0
#define clone_small_mask_y_hot 0
static unsigned char clone_small_mask_bits[] = {
   0x00, 0x00, 0x00, 0x00, 0x00, 0x00, 0x00, 0x00, 0x00, 0x00, 0x00, 0x00,
   0x00, 0x00, 0x00, 0x00, 0x00, 0x00, 0x00, 0x00, 0x00, 0x00, 0x00, 0x00,
   0x00, 0x00, 0x00, 0x00, 0x00, 0x00, 0x00, 0x00, 0x00, 0x00, 0x00, 0x00,
   0x00, 0x00, 0x00, 0x00, 0x00, 0x00, 0x00, 0x00, 0x00, 0x00, 0x00, 0x00,
   0x00, 0x00, 0x00, 0x00, 0x00, 0x00, 0x00, 0x00, 0x00, 0x00, 0xc0, 0x01,
   0x00, 0x00, 0xe0, 0x03, 0x00, 0x00, 0xf0, 0x07, 0x00, 0x00, 0xf8, 0x0f,
   0x00, 0x00, 0xf8, 0x0f, 0x00, 0x00, 0xf8, 0x0f, 0x00, 0x00, 0xf0, 0x07,
   0x00, 0x00, 0xe0, 0x03, 0x00, 0x00, 0xe0, 0x03, 0x00, 0x00, 0xfe, 0x3f,
   0x00, 0x00, 0xff, 0x7f, 0x00, 0x80, 0xff, 0xff, 0x00, 0x80, 0xff, 0xff,
   0x00, 0x80, 0xff, 0xff, 0x00, 0x80, 0xff, 0xff, 0x00, 0x00, 0xff, 0x7f,
   0x00, 0x00, 0xfe, 0x3f, 0x00, 0x00, 0x00, 0x00 };
