/* Created with The GIMP */
#define clone_small_width 32
#define clone_small_height 32
#define clone_small_x_hot 0
#define clone_small_y_hot 0
static unsigned char clone_small_bits[] = {
   0x00, 0x00, 0x00, 0x00, 0x00, 0x00, 0x00, 0x00, 0x00, 0x00, 0x00, 0x00,
   0x00, 0x00, 0x00, 0x00, 0x00, 0x00, 0x00, 0x00, 0x00, 0x00, 0x00, 0x00,
   0x00, 0x00, 0x00, 0x00, 0x00, 0x00, 0x00, 0x00, 0x00, 0x00, 0x00, 0x00,
   0x00, 0x00, 0x00, 0x00, 0x00, 0x00, 0x00, 0x00, 0x00, 0x00, 0x00, 0x00,
   0x00, 0x00, 0x00, 0x00, 0x00, 0x00, 0x00, 0x00, 0x00, 0x00, 0x00, 0x00,
   0x00, 0x00, 0xc0, 0x01, 0x00, 0x00, 0x20, 0x02, 0x00, 0x00, 0x10, 0x04,
   0x00, 0x00, 0x10, 0x04, 0x00, 0x00, 0x10, 0x04, 0x00, 0x00, 0x20, 0x02,
   0x00, 0x00, 0xc0, 0x01, 0x00, 0x00, 0x40, 0x01, 0x00, 0x00, 0x40, 0x01,
   0x00, 0x00, 0xfe, 0x3f, 0x00, 0x00, 0x01, 0x40, 0x00, 0x00, 0xff, 0x7f,
   0x00, 0x00, 0xe1, 0x43, 0x00, 0x00, 0x81, 0x40, 0x00, 0x00, 0xfe, 0x3f,
   0x00, 0x00, 0x00, 0x00, 0x00, 0x00, 0x00, 0x00 };
