/* Created with The GIMP */
#define crop_small_mask_width 32
#define crop_small_mask_height 32
#define crop_small_mask_x_hot 0
#define crop_small_mask_y_hot 0
static unsigned char crop_small_mask_bits[] = {
   0x00, 0x00, 0x00, 0x00, 0x00, 0x00, 0x00, 0x00, 0x00, 0x00, 0x00, 0x00,
   0x00, 0x00, 0x00, 0x00, 0x00, 0x00, 0x00, 0x00, 0x00, 0x00, 0x00, 0x00,
   0x00, 0x00, 0x00, 0x00, 0x00, 0x00, 0x00, 0x00, 0x00, 0x00, 0x00, 0x00,
   0x00, 0x00, 0x00, 0x00, 0x00, 0x00, 0x00, 0x00, 0x00, 0x00, 0x00, 0x00,
   0x00, 0x00, 0x00, 0x00, 0x00, 0x00, 0x00, 0x00, 0x00, 0x00, 0x00, 0x00,
   0x00, 0x00, 0x00, 0x00, 0x00, 0x00, 0x00, 0x00, 0x00, 0x00, 0x00, 0x02,
   0x00, 0x00, 0x00, 0x07, 0x00, 0x00, 0xfc, 0x0f, 0x00, 0x00, 0xfc, 0x1f,
   0x00, 0x00, 0xfc, 0x0f, 0x00, 0x00, 0x1c, 0x07, 0x00, 0x00, 0x1c, 0x07,
   0x00, 0x00, 0x1c, 0x07, 0x00, 0x00, 0xfe, 0x07, 0x00, 0x00, 0xff, 0x07,
   0x00, 0x00, 0xfe, 0x07, 0x00, 0x00, 0x1c, 0x00, 0x00, 0x00, 0x08, 0x00,
   0x00, 0x00, 0x00, 0x00, 0x00, 0x00, 0x00, 0x00 };
