/* Created with The GIMP */
#define dodge_small_mask_width 32
#define dodge_small_mask_height 32
#define dodge_small_mask_x_hot 10
#define dodge_small_mask_y_hot 10
static unsigned char dodge_small_mask_bits[] = {
   0x00, 0x00, 0x00, 0x00, 0x00, 0x00, 0x00, 0x00, 0x00, 0x00, 0x00, 0x00,
   0x00, 0x00, 0x00, 0x00, 0x00, 0x00, 0x00, 0x00, 0x00, 0x00, 0x00, 0x00,
   0x00, 0x00, 0x00, 0x00, 0x00, 0x00, 0x00, 0x00, 0x00, 0x00, 0x00, 0x00,
   0x00, 0x00, 0x00, 0x00, 0x00, 0x00, 0x00, 0x00, 0x00, 0x00, 0x00, 0x00,
   0x00, 0x00, 0x00, 0x00, 0x00, 0x00, 0x00, 0x00, 0x00, 0x00, 0x00, 0x00,
   0x00, 0x00, 0x00, 0x00, 0x00, 0x00, 0x00, 0x00, 0x00, 0x00, 0xe0, 0x00,
   0x00, 0x00, 0xf8, 0x03, 0x00, 0x00, 0xfc, 0x07, 0x00, 0x00, 0xfc, 0x07,
   0x00, 0x00, 0xfe, 0x0f, 0x00, 0x00, 0xfe, 0x0f, 0x00, 0x00, 0xfe, 0x0f,
   0x00, 0x00, 0xfc, 0x07, 0x00, 0x00, 0xfc, 0x0f, 0x00, 0x00, 0xf8, 0x1f,
   0x00, 0x00, 0xe0, 0x3e, 0x00, 0x00, 0x00, 0x7c, 0x00, 0x00, 0x00, 0xf8,
   0x00, 0x00, 0x00, 0xf0, 0x00, 0x00, 0x00, 0x60 };
