/* Created with The GIMP */
#define dodge_small_width 32
#define dodge_small_height 32
#define dodge_small_x_hot 10
#define dodge_small_y_hot 10
static unsigned char dodge_small_bits[] = {
   0x00, 0x00, 0x00, 0x00, 0x00, 0x00, 0x00, 0x00, 0x00, 0x00, 0x00, 0x00,
   0x00, 0x00, 0x00, 0x00, 0x00, 0x00, 0x00, 0x00, 0x00, 0x00, 0x00, 0x00,
   0x00, 0x00, 0x00, 0x00, 0x00, 0x00, 0x00, 0x00, 0x00, 0x00, 0x00, 0x00,
   0x00, 0x00, 0x00, 0x00, 0x00, 0x00, 0x00, 0x00, 0x00, 0x00, 0x00, 0x00,
   0x00, 0x00, 0x00, 0x00, 0x00, 0x00, 0x00, 0x00, 0x00, 0x00, 0x00, 0x00,
   0x00, 0x00, 0x00, 0x00, 0x00, 0x00, 0x00, 0x00, 0x00, 0x00, 0x00, 0x00,
   0x00, 0x00, 0xe0, 0x00, 0x00, 0x00, 0xf8, 0x03, 0x00, 0x00, 0xf8, 0x03,
   0x00, 0x00, 0xfc, 0x07, 0x00, 0x00, 0xfc, 0x07, 0x00, 0x00, 0xfc, 0x07,
   0x00, 0x00, 0xf8, 0x03, 0x00, 0x00, 0xf8, 0x07, 0x00, 0x00, 0xe0, 0x0e,
   0x00, 0x00, 0x00, 0x1c, 0x00, 0x00, 0x00, 0x38, 0x00, 0x00, 0x00, 0x70,
   0x00, 0x00, 0x00, 0x60, 0x00, 0x00, 0x00, 0x00 };
