/* Created with The GIMP */
#define dropper_small_width 32
#define dropper_small_height 32
#define dropper_small_x_hot 0
#define dropper_small_y_hot 0
static unsigned char dropper_small_bits[] = {
   0x00, 0x00, 0x00, 0x00, 0x00, 0x00, 0x00, 0x00, 0x00, 0x00, 0x00, 0x00,
   0x00, 0x00, 0x00, 0x00, 0x00, 0x00, 0x00, 0x00, 0x00, 0x00, 0x00, 0x00,
   0x00, 0x00, 0x00, 0x00, 0x00, 0x00, 0x00, 0x00, 0x00, 0x00, 0x00, 0x00,
   0x00, 0x00, 0x00, 0x00, 0x00, 0x00, 0x00, 0x00, 0x00, 0x00, 0x00, 0x00,
   0x00, 0x00, 0x00, 0x1c, 0x00, 0x00, 0x00, 0x22, 0x00, 0x00, 0x00, 0x41,
   0x00, 0x00, 0xc0, 0xa1, 0x00, 0x00, 0x20, 0xbc, 0x00, 0x00, 0x40, 0xbb,
   0x00, 0x00, 0x80, 0x44, 0x00, 0x00, 0x40, 0x34, 0x00, 0x00, 0x20, 0x13,
   0x00, 0x00, 0x90, 0x15, 0x00, 0x00, 0xc8, 0x00, 0x00, 0x00, 0x64, 0x00,
   0x00, 0x00, 0x32, 0x00, 0x00, 0x00, 0x19, 0x00, 0x00, 0x80, 0x0c, 0x00,
   0x00, 0x40, 0x06, 0x00, 0x00, 0x40, 0x03, 0x00, 0x00, 0xe0, 0x01, 0x00,
   0x00, 0x20, 0x00, 0x00, 0x00, 0x00, 0x00, 0x00 };
