/* Created with The GIMP */
#define dropper_mask_width 32
#define dropper_mask_height 32
#define dropper_mask_x_hot 8
#define dropper_mask_y_hot 23
static unsigned char dropper_mask_bits[] = {
   0x00, 0x00, 0x00, 0x00, 0x00, 0x00, 0x00, 0x00, 0x00, 0x00, 0x00, 0x00,
   0x00, 0x00, 0x80, 0x03, 0x00, 0x00, 0xc0, 0x07, 0x00, 0x00, 0xe0, 0x0f,
   0x00, 0x00, 0xf8, 0x1f, 0x00, 0x00, 0xfc, 0x1f, 0x00, 0x00, 0xf8, 0x1f,
   0x00, 0x00, 0xf8, 0x0f, 0x00, 0x00, 0xfc, 0x07, 0x00, 0x00, 0xfe, 0x03,
   0x00, 0x00, 0xff, 0x03, 0x00, 0x80, 0x3f, 0x00, 0x00, 0xc0, 0x1f, 0x00,
   0x00, 0xe0, 0x0f, 0x00, 0x00, 0xf0, 0x07, 0x00, 0x00, 0xf8, 0x03, 0x00,
   0x00, 0xfc, 0x01, 0x00, 0x00, 0xfe, 0x00, 0x00, 0x00, 0x7f, 0x00, 0x00,
   0x00, 0x3f, 0x00, 0x00, 0x80, 0x1f, 0x00, 0x00, 0x00, 0x0f, 0x00, 0x00,
   0x00, 0x02, 0x00, 0x00, 0x00, 0x00, 0x00, 0x00, 0x00, 0x00, 0x00, 0x00,
   0x00, 0x00, 0x00, 0x00, 0x00, 0x00, 0x00, 0x00, 0x00, 0x00, 0x00, 0x00,
   0x00, 0x00, 0x00, 0x00, 0x00, 0x00, 0x00, 0x00 };
