/* Created with The GIMP */
#define eraser_small_width 32
#define eraser_small_height 32
#define eraser_small_x_hot 0
#define eraser_small_y_hot 0
static unsigned char eraser_small_bits[] = {
   0x00, 0x00, 0x00, 0x00, 0x00, 0x00, 0x00, 0x00, 0x00, 0x00, 0x00, 0x00,
   0x00, 0x00, 0x00, 0x00, 0x00, 0x00, 0x00, 0x00, 0x00, 0x00, 0x00, 0x00,
   0x00, 0x00, 0x00, 0x00, 0x00, 0x00, 0x00, 0x00, 0x00, 0x00, 0x00, 0x00,
   0x00, 0x00, 0x00, 0x00, 0x00, 0x00, 0x00, 0x00, 0x00, 0x00, 0x00, 0x00,
   0x00, 0x00, 0x00, 0x00, 0x00, 0x00, 0x00, 0x00, 0x00, 0x00, 0x00, 0x00,
   0x00, 0x00, 0x00, 0x00, 0x00, 0x00, 0x00, 0x00, 0x00, 0x00, 0x80, 0x01,
   0x00, 0x00, 0x40, 0x02, 0x00, 0x00, 0x20, 0x04, 0x00, 0x00, 0x10, 0x08,
   0x00, 0x00, 0x08, 0x0c, 0x00, 0x00, 0x04, 0x06, 0x00, 0x00, 0x02, 0x03,
   0x00, 0x00, 0x81, 0x01, 0x00, 0x00, 0xc3, 0x00, 0x00, 0x00, 0x66, 0x00,
   0x00, 0x00, 0x3c, 0x00, 0x00, 0x00, 0xfe, 0x16, 0x00, 0x00, 0x00, 0x00,
   0x00, 0x00, 0x00, 0x00, 0x00, 0x00, 0x00, 0x00 };
