/* Created with The GIMP */
#define flip_horizontal_small_mask_width 32
#define flip_horizontal_small_mask_height 32
#define flip_horizontal_small_mask_x_hot 0
#define flip_horizontal_small_mask_y_hot 0
static unsigned char flip_horizontal_small_mask_bits[] = {
   0x00, 0x00, 0x00, 0x00, 0x00, 0x00, 0x00, 0x00, 0x00, 0x00, 0x00, 0x00,
   0x00, 0x00, 0x00, 0x00, 0x00, 0x00, 0x00, 0x00, 0x00, 0x00, 0x00, 0x00,
   0x00, 0x00, 0x00, 0x00, 0x00, 0x00, 0x00, 0x00, 0x00, 0x00, 0x00, 0x00,
   0x00, 0x00, 0x00, 0x00, 0x00, 0x00, 0x00, 0x00, 0x00, 0x00, 0x00, 0x00,
   0x00, 0x00, 0x00, 0x00, 0x00, 0x00, 0x00, 0x00, 0x00, 0x00, 0x00, 0x00,
   0x00, 0x00, 0x00, 0x00, 0x00, 0x00, 0x00, 0x00, 0x00, 0x00, 0x00, 0x00,
   0x00, 0x00, 0x00, 0x00, 0x00, 0x00, 0x04, 0x04, 0x00, 0x00, 0x0e, 0x0e,
   0x00, 0x00, 0xff, 0x1f, 0x00, 0x80, 0xff, 0x3f, 0x00, 0xc0, 0xff, 0x7f,
   0x00, 0x80, 0xff, 0x3f, 0x00, 0x00, 0xff, 0x1f, 0x00, 0x00, 0x0e, 0x0e,
   0x00, 0x00, 0x04, 0x04, 0x00, 0x00, 0x00, 0x00, 0x00, 0x00, 0x00, 0x00,
   0x00, 0x00, 0x00, 0x00, 0x00, 0x00, 0x00, 0x00 };
