/* Created with The GIMP */
#define free_select_small_mask_width 32
#define free_select_small_mask_height 32
#define free_select_small_mask_x_hot 0
#define free_select_small_mask_y_hot 0
static unsigned char free_select_small_mask_bits[] = {
   0x00, 0x00, 0x00, 0x00, 0x00, 0x00, 0x00, 0x00, 0x00, 0x00, 0x00, 0x00,
   0x00, 0x00, 0x00, 0x00, 0x00, 0x00, 0x00, 0x00, 0x00, 0x00, 0x00, 0x00,
   0x00, 0x00, 0x00, 0x00, 0x00, 0x00, 0x00, 0x00, 0x00, 0x00, 0x00, 0x00,
   0x00, 0x00, 0x00, 0x00, 0x00, 0x00, 0x00, 0x00, 0x00, 0x00, 0x00, 0x00,
   0x00, 0x00, 0x00, 0x00, 0x00, 0x00, 0x00, 0x00, 0x00, 0x00, 0x00, 0x00,
   0x00, 0x00, 0x00, 0x00, 0x00, 0x00, 0x00, 0x00, 0x00, 0x00, 0xf0, 0x01,
   0x00, 0x00, 0xfc, 0x07, 0x00, 0x00, 0xfe, 0x0f, 0x00, 0x00, 0x0f, 0x1e,
   0x00, 0x80, 0x03, 0x38, 0x00, 0x80, 0x03, 0x38, 0x00, 0x80, 0x03, 0x38,
   0x00, 0x80, 0x07, 0x1e, 0x00, 0x80, 0xff, 0x0f, 0x00, 0xc0, 0xff, 0x07,
   0x00, 0xc0, 0xff, 0x01, 0x00, 0x80, 0x07, 0x00, 0x00, 0xe0, 0x03, 0x00,
   0x00, 0xf0, 0x01, 0x00, 0x00, 0x60, 0x00, 0x00 };
