/* Created with The GIMP */
#define fuzzy_select_small_width 32
#define fuzzy_select_small_height 32
#define fuzzy_select_small_x_hot 0
#define fuzzy_select_small_y_hot 0
static unsigned char fuzzy_select_small_bits[] = {
   0x00, 0x00, 0x00, 0x00, 0x00, 0x00, 0x00, 0x00, 0x00, 0x00, 0x00, 0x00,
   0x00, 0x00, 0x00, 0x00, 0x00, 0x00, 0x00, 0x00, 0x00, 0x00, 0x00, 0x00,
   0x00, 0x00, 0x00, 0x00, 0x00, 0x00, 0x00, 0x00, 0x00, 0x00, 0x00, 0x00,
   0x00, 0x00, 0x00, 0x00, 0x00, 0x00, 0x00, 0x00, 0x00, 0x00, 0x00, 0x00,
   0x00, 0x00, 0x00, 0x00, 0x00, 0x00, 0x00, 0x04, 0x00, 0x00, 0x00, 0x00,
   0x00, 0x00, 0x40, 0x44, 0x00, 0x00, 0x00, 0x04, 0x00, 0x00, 0x00, 0x11,
   0x00, 0x00, 0x00, 0x0a, 0x00, 0x00, 0xd0, 0x20, 0x00, 0x00, 0x00, 0x0b,
   0x00, 0x00, 0x80, 0x15, 0x00, 0x00, 0xc0, 0x03, 0x00, 0x00, 0xe0, 0x41,
   0x00, 0x00, 0xf0, 0x04, 0x00, 0x00, 0x78, 0x00, 0x00, 0x00, 0x3c, 0x00,
   0x00, 0x00, 0x1a, 0x00, 0x00, 0x00, 0x0d, 0x00, 0x00, 0x00, 0x07, 0x00,
   0x00, 0x00, 0x00, 0x00, 0x00, 0x00, 0x00, 0x00 };
