/* Created with The GIMP */
#define ink_small_mask_width 32
#define ink_small_mask_height 32
#define ink_small_mask_x_hot 10
#define ink_small_mask_y_hot 10
static unsigned char ink_small_mask_bits[] = {
   0x00, 0x00, 0x00, 0x00, 0x00, 0x00, 0x00, 0x00, 0x00, 0x00, 0x00, 0x00,
   0x00, 0x00, 0x00, 0x00, 0x00, 0x00, 0x00, 0x00, 0x00, 0x00, 0x00, 0x00,
   0x00, 0x00, 0x00, 0x00, 0x00, 0x00, 0x00, 0x00, 0x00, 0x00, 0x00, 0x00,
   0x00, 0x00, 0x00, 0x00, 0x00, 0x00, 0x00, 0x00, 0x00, 0x00, 0x00, 0x00,
   0x00, 0x00, 0x00, 0x18, 0x00, 0x00, 0x00, 0x3c, 0x00, 0x00, 0x00, 0x7e,
   0x00, 0x00, 0x00, 0xff, 0x00, 0x00, 0x80, 0xff, 0x00, 0x00, 0xc0, 0x7f,
   0x00, 0x00, 0xe0, 0x3f, 0x00, 0x00, 0xf8, 0x1f, 0x00, 0x00, 0xfe, 0x0f,
   0x00, 0x00, 0xff, 0x07, 0x00, 0x80, 0xff, 0x03, 0x00, 0x80, 0xff, 0x01,
   0x00, 0xc0, 0xff, 0x01, 0x00, 0xc0, 0xff, 0x00, 0x00, 0xc0, 0xff, 0x00,
   0x00, 0xe0, 0x7f, 0x00, 0x00, 0xe0, 0x3f, 0x00, 0x00, 0xf0, 0x0f, 0x00,
   0x00, 0xf0, 0x01, 0x00, 0x00, 0x60, 0x00, 0x00 };
