/* Created with The GIMP */
#define measure_small_mask_width 32
#define measure_small_mask_height 32
#define measure_small_mask_x_hot 0
#define measure_small_mask_y_hot 0
static unsigned char measure_small_mask_bits[] = {
   0x00, 0x00, 0x00, 0x00, 0x00, 0x00, 0x00, 0x00, 0x00, 0x00, 0x00, 0x00,
   0x00, 0x00, 0x00, 0x00, 0x00, 0x00, 0x00, 0x00, 0x00, 0x00, 0x00, 0x00,
   0x00, 0x00, 0x00, 0x00, 0x00, 0x00, 0x00, 0x00, 0x00, 0x00, 0x00, 0x00,
   0x00, 0x00, 0x00, 0x00, 0x00, 0x00, 0x00, 0x00, 0x00, 0x00, 0x00, 0x00,
   0x00, 0x00, 0x00, 0x00, 0x00, 0x00, 0x00, 0x0c, 0x00, 0x00, 0x00, 0x1e,
   0x00, 0x00, 0x00, 0x3f, 0x00, 0x00, 0x80, 0x7f, 0x00, 0x00, 0xc0, 0xff,
   0x00, 0x00, 0xe0, 0xff, 0x00, 0x00, 0xf0, 0x7f, 0x00, 0x00, 0xf8, 0x3f,
   0x00, 0x00, 0xfc, 0x1f, 0x00, 0x00, 0xfe, 0x0f, 0x00, 0x00, 0xff, 0x07,
   0x00, 0x80, 0xff, 0x03, 0x00, 0xc0, 0xff, 0x01, 0x00, 0xe0, 0xff, 0x00,
   0x00, 0xe0, 0x7f, 0x00, 0x00, 0xc0, 0x3f, 0x00, 0x00, 0x80, 0x1f, 0x00,
   0x00, 0x00, 0x0f, 0x00, 0x00, 0x00, 0x06, 0x00 };
