#define mouse_mask_width 14
#define mouse_mask_height 17
static unsigned char mouse_mask_bits[] = {
   0x03, 0x00, 0x07, 0x00, 0x0f, 0x00, 0x1f, 0x00, 0x3f, 0x00, 0x7f, 0x00,
   0xff, 0x00, 0xff, 0x01, 0xff, 0x03, 0xff, 0x01, 0x3f, 0x00, 0x07, 0x00,
   0x03, 0x00, 0x00, 0x00, 0x00, 0x00, 0x00, 0x00, 0x00, 0x00};
