#define mouse_add_width 14
#define mouse_add_height 17
#define mouse_add_x_hot 1
#define mouse_add_y_hot 1
static unsigned char mouse_add_bits[] = {
   0x00, 0x00, 0x02, 0x00, 0x06, 0x00, 0x0e, 0x00, 0x1e, 0x00, 0x3e, 0x00,
   0x7e, 0x00, 0xfe, 0x00, 0xfe, 0x01, 0x3e, 0x00, 0x06, 0x00, 0x02, 0x04,
   0x00, 0x04, 0x00, 0x1f, 0x00, 0x04, 0x00, 0x04, 0x00, 0x00};
