#define mouse_add_mask_width 14
#define mouse_add_mask_height 17
static unsigned char mouse_add_mask_bits[] = {
   0x03, 0x00, 0x07, 0x00, 0x0f, 0x00, 0x1f, 0x00, 0x3f, 0x00, 0x7f, 0x00,
   0xff, 0x00, 0xff, 0x01, 0xff, 0x03, 0xff, 0x01, 0x3f, 0x0e, 0x07, 0x0e,
   0x83, 0x3f, 0x80, 0x3f, 0x80, 0x3f, 0x00, 0x0e, 0x00, 0x0e};
