/* Created with The GIMP */
#define pattern_mask_width 32
#define pattern_mask_height 32
#define pattern_mask_x_hot 0
#define pattern_mask_y_hot 0
static unsigned char pattern_mask_bits[] = {
   0x00, 0x00, 0x00, 0x00, 0x00, 0x00, 0xf8, 0x3f, 0x00, 0x00, 0xf8, 0x3f,
   0x00, 0x00, 0xf8, 0x3f, 0x00, 0x00, 0xf8, 0x3f, 0x00, 0x00, 0xf8, 0x3f,
   0x00, 0x00, 0xf8, 0x3f, 0x00, 0x00, 0xf8, 0x3f, 0x00, 0x00, 0xf8, 0x3f,
   0x00, 0x00, 0xf8, 0x3f, 0x00, 0x00, 0xf8, 0x3f, 0x00, 0x00, 0x00, 0x00,
   0x00, 0x00, 0x00, 0x00, 0x00, 0x00, 0x00, 0x00, 0x00, 0x00, 0x00, 0x00,
   0x00, 0x00, 0x00, 0x00, 0x00, 0x00, 0x00, 0x00, 0x00, 0x00, 0x00, 0x00,
   0x00, 0x00, 0x00, 0x00, 0x00, 0x00, 0x00, 0x00, 0x00, 0x00, 0x00, 0x00,
   0x00, 0x00, 0x00, 0x00, 0x00, 0x00, 0x00, 0x00, 0x00, 0x00, 0x00, 0x00,
   0x00, 0x00, 0x00, 0x00, 0x00, 0x00, 0x00, 0x00, 0x00, 0x00, 0x00, 0x00,
   0x00, 0x00, 0x00, 0x00, 0x00, 0x00, 0x00, 0x00, 0x00, 0x00, 0x00, 0x00,
   0x00, 0x00, 0x00, 0x00, 0x00, 0x00, 0x00, 0x00 };
