/* Created with The GIMP */
#define perspective_small_mask_width 32
#define perspective_small_mask_height 32
#define perspective_small_mask_x_hot 0
#define perspective_small_mask_y_hot 0
static unsigned char perspective_small_mask_bits[] = {
   0x00, 0x00, 0x00, 0x00, 0x00, 0x00, 0x00, 0x00, 0x00, 0x00, 0x00, 0x00,
   0x00, 0x00, 0x00, 0x00, 0x00, 0x00, 0x00, 0x00, 0x00, 0x00, 0x00, 0x00,
   0x00, 0x00, 0x00, 0x00, 0x00, 0x00, 0x00, 0x00, 0x00, 0x00, 0x00, 0x00,
   0x00, 0x00, 0x00, 0x00, 0x00, 0x00, 0x00, 0x00, 0x00, 0x00, 0x00, 0x00,
   0x00, 0x00, 0x00, 0x00, 0x00, 0x00, 0x00, 0x00, 0x00, 0x00, 0x00, 0x00,
   0x00, 0x00, 0x00, 0x00, 0x00, 0x00, 0x00, 0x00, 0x00, 0x00, 0x00, 0x00,
   0x00, 0x00, 0x00, 0x00, 0x00, 0x00, 0x00, 0x00, 0x00, 0xe0, 0xff, 0x0f,
   0x00, 0xe0, 0xff, 0x0f, 0x00, 0xe0, 0xff, 0x0f, 0x00, 0x70, 0x00, 0x1c,
   0x00, 0x70, 0x00, 0x1c, 0x00, 0x38, 0x00, 0x38, 0x00, 0x38, 0x00, 0x38,
   0x00, 0x1c, 0x00, 0x70, 0x00, 0x1c, 0x00, 0x70, 0x00, 0xfe, 0xff, 0xff,
   0x00, 0xfe, 0xff, 0xff, 0x00, 0xfe, 0xff, 0xff };
