/* Created with The GIMP */
#define rect_select_small_mask_width 32
#define rect_select_small_mask_height 32
#define rect_select_small_mask_x_hot 0
#define rect_select_small_mask_y_hot 0
static unsigned char rect_select_small_mask_bits[] = {
   0x00, 0x00, 0x00, 0x00, 0x00, 0x00, 0x00, 0x00, 0x00, 0x00, 0x00, 0x00,
   0x00, 0x00, 0x00, 0x00, 0x00, 0x00, 0x00, 0x00, 0x00, 0x00, 0x00, 0x00,
   0x00, 0x00, 0x00, 0x00, 0x00, 0x00, 0x00, 0x00, 0x00, 0x00, 0x00, 0x00,
   0x00, 0x00, 0x00, 0x00, 0x00, 0x00, 0x00, 0x00, 0x00, 0x00, 0x00, 0x00,
   0x00, 0x00, 0x00, 0x00, 0x00, 0x00, 0x00, 0x00, 0x00, 0x00, 0x00, 0x00,
   0x00, 0x00, 0x00, 0x00, 0x00, 0x00, 0xff, 0x1f, 0x00, 0x00, 0xff, 0x1f,
   0x00, 0x00, 0xff, 0x1f, 0x00, 0x00, 0x07, 0x1c, 0x00, 0x00, 0x07, 0x1c,
   0x00, 0x00, 0x07, 0x1c, 0x00, 0x00, 0x07, 0x1c, 0x00, 0x00, 0x07, 0x1c,
   0x00, 0x00, 0x07, 0x1c, 0x00, 0x00, 0x07, 0x1c, 0x00, 0x00, 0xff, 0x1f,
   0x00, 0x00, 0xff, 0x1f, 0x00, 0x00, 0xff, 0x1f, 0x00, 0x00, 0x00, 0x00,
   0x00, 0x00, 0x00, 0x00, 0x00, 0x00, 0x00, 0x00 };
