/* Created with The GIMP */
#define resize_small_mask_width 32
#define resize_small_mask_height 32
#define resize_small_mask_x_hot 0
#define resize_small_mask_y_hot 0
static unsigned char resize_small_mask_bits[] = {
   0x00, 0x00, 0x00, 0x00, 0x00, 0x00, 0x00, 0x00, 0x00, 0x00, 0x00, 0x00,
   0x00, 0x00, 0x00, 0x00, 0x00, 0x00, 0x00, 0x00, 0x00, 0x00, 0x00, 0x00,
   0x00, 0x00, 0x00, 0x00, 0x00, 0x00, 0x00, 0x00, 0x00, 0x00, 0x00, 0x00,
   0x00, 0x00, 0x00, 0x00, 0x00, 0x00, 0x00, 0x00, 0x00, 0x00, 0x00, 0x00,
   0x00, 0x00, 0x00, 0x00, 0x00, 0x00, 0x00, 0x00, 0x00, 0x00, 0x00, 0x00,
   0x00, 0x00, 0x00, 0x00, 0x00, 0x00, 0x00, 0x00, 0x00, 0x00, 0x0f, 0x00,
   0x00, 0x00, 0x1f, 0x00, 0x00, 0x00, 0xff, 0x07, 0x00, 0x00, 0xff, 0x07,
   0x00, 0x00, 0xfe, 0x07, 0x00, 0x00, 0x1c, 0x07, 0x00, 0x00, 0x1c, 0x07,
   0x00, 0x00, 0x1c, 0x07, 0x00, 0x00, 0xfc, 0x0f, 0x00, 0x00, 0xfc, 0x1f,
   0x00, 0x00, 0xfc, 0x1f, 0x00, 0x00, 0x00, 0x1f, 0x00, 0x00, 0x00, 0x1e,
   0x00, 0x00, 0x00, 0x00, 0x00, 0x00, 0x00, 0x00 };
