/* Created with The GIMP */
#define scissors_small_width 32
#define scissors_small_height 32
#define scissors_small_x_hot 0
#define scissors_small_y_hot 0
static unsigned char scissors_small_bits[] = {
   0x00, 0x00, 0x00, 0x00, 0x00, 0x00, 0x00, 0x00, 0x00, 0x00, 0x00, 0x00,
   0x00, 0x00, 0x00, 0x00, 0x00, 0x00, 0x00, 0x00, 0x00, 0x00, 0x00, 0x00,
   0x00, 0x00, 0x00, 0x00, 0x00, 0x00, 0x00, 0x00, 0x00, 0x00, 0x00, 0x00,
   0x00, 0x00, 0x00, 0x00, 0x00, 0x00, 0x00, 0x00, 0x00, 0x00, 0x00, 0x00,
   0x00, 0x00, 0x00, 0x00, 0x00, 0x00, 0x00, 0x00, 0x00, 0x00, 0xc0, 0x00,
   0x00, 0x00, 0x20, 0x01, 0x00, 0x00, 0x10, 0x01, 0x00, 0x00, 0x10, 0x05,
   0x00, 0x00, 0x48, 0x04, 0x00, 0x00, 0x48, 0x04, 0x00, 0x00, 0x88, 0x02,
   0x00, 0x00, 0x88, 0x02, 0x00, 0x00, 0x04, 0x03, 0x00, 0x00, 0x04, 0x03,
   0x00, 0x00, 0x04, 0x05, 0x00, 0x00, 0x82, 0x08, 0x00, 0x03, 0x81, 0x30,
   0x80, 0xe7, 0xc0, 0x48, 0x80, 0x1f, 0x20, 0x49, 0x00, 0x03, 0x20, 0x31,
   0x00, 0x00, 0xc0, 0x00, 0x00, 0x00, 0x00, 0x00 };
