#define selection_subtract_width 14
#define selection_subtract_height 17
#define selection_subtract_x_hot 1
#define selection_subtract_y_hot 1
static unsigned char selection_subtract_bits[] = {
  0x00, 0x00, 0x00, 0x00, 0xd8, 0x00, 0x04, 0x01, 0x04, 0x01, 0x00, 0x00,
  0x04, 0x01, 0x04, 0x01, 0x00, 0x00, 0x04, 0x01, 0x04, 0x01, 0xd8, 0x00,
  0x00, 0x00, 0x00, 0x1f, 0x00, 0x00, 0x00, 0x00, 0x00, 0x00, };
