#define selection_intersect_width 14
#define selection_intersect_height 17
#define selection_intersect_x_hot 1
#define selection_intersect_y_hot 1
static char selection_intersect_bits[] = {
   0x00, 0x00, 0x00, 0x00, 0xb4, 0x01, 0x04, 0x00, 0x00, 0x01, 0x04, 0x01,
   0x04, 0x00, 0x00, 0x01, 0x04, 0x01, 0x04, 0x00, 0x00, 0x01, 0x6c, 0x01,
   0x00, 0x0c, 0x00, 0x12, 0x00, 0x12, 0x00, 0x12, 0x00, 0x00 };
