#define selection_intersect_width 14
#define selection_intersect_height 17
#define selection_intersect_x_hot 1
#define selection_intersect_y_hot 1
static unsigned char selection_intersect_bits[] = {
   0x00, 0x00, 0x00, 0x00, 0xd8, 0x00, 0x04, 0x01, 0x04, 0x01, 0x00, 0x00,
   0x04, 0x01, 0x04, 0x01, 0x00, 0x00, 0x04, 0x01, 0x04, 0x01, 0xd8, 0x00,
   0x00, 0x12, 0x00, 0x12, 0x00, 0x12, 0x00, 0x0c, 0x00, 0x00 };
