#define selection_add_width 14
#define selection_add_height 17
#define selection_add_x_hot 1
#define selection_add_y_hot 1
static unsigned char selection_add_bits[] = {
  0x00, 0x00, 0x00, 0x00, 0xb4, 0x01, 0x04, 0x00, 0x00, 0x01, 0x04, 0x01,
  0x04, 0x00, 0x00, 0x01, 0x04, 0x01, 0x04, 0x00, 0x00, 0x01, 0x6c, 0x05,
  0x00, 0x04, 0x00, 0x1f, 0x00, 0x04, 0x00, 0x04, 0x00, 0x00, };
