/* Created with The GIMP */
#define shear_small_width 32
#define shear_small_height 32
#define shear_small_x_hot 0
#define shear_small_y_hot 0
static unsigned char shear_small_bits[] = {
   0x00, 0x00, 0x00, 0x00, 0x00, 0x00, 0x00, 0x00, 0x00, 0x00, 0x00, 0x00,
   0x00, 0x00, 0x00, 0x00, 0x00, 0x00, 0x00, 0x00, 0x00, 0x00, 0x00, 0x00,
   0x00, 0x00, 0x00, 0x00, 0x00, 0x00, 0x00, 0x00, 0x00, 0x00, 0x00, 0x00,
   0x00, 0x00, 0x00, 0x00, 0x00, 0x00, 0x00, 0x00, 0x00, 0x00, 0x00, 0x00,
   0x00, 0x00, 0x00, 0x00, 0x00, 0x00, 0x00, 0x00, 0x00, 0x00, 0x00, 0x00,
   0x00, 0x00, 0x00, 0x00, 0x00, 0x00, 0x00, 0x00, 0x00, 0x00, 0x00, 0x00,
   0x00, 0x00, 0x00, 0x00, 0x00, 0x00, 0xfc, 0x3f, 0x00, 0x00, 0x04, 0x20,
   0x00, 0x00, 0x02, 0x10, 0x00, 0x00, 0x02, 0x10, 0x00, 0x00, 0x01, 0x08,
   0x00, 0x00, 0x01, 0x08, 0x00, 0x80, 0x00, 0x04, 0x00, 0x80, 0x00, 0x04,
   0x00, 0x40, 0x00, 0x02, 0x00, 0x40, 0x00, 0x02, 0x00, 0x20, 0x00, 0x01,
   0x00, 0xe0, 0xff, 0x01, 0x00, 0x00, 0x00, 0x00 };
