/* Created with The GIMP */
#define text_small_mask_width 32
#define text_small_mask_height 32
#define text_small_mask_x_hot 0
#define text_small_mask_y_hot 0
static unsigned char text_small_mask_bits[] = {
   0x00, 0x00, 0x00, 0x00, 0x00, 0x00, 0x00, 0x00, 0x00, 0x00, 0x00, 0x00,
   0x00, 0x00, 0x00, 0x00, 0x00, 0x00, 0x00, 0x00, 0x00, 0x00, 0x00, 0x00,
   0x00, 0x00, 0x00, 0x00, 0x00, 0x00, 0x00, 0x00, 0x00, 0x00, 0x00, 0x00,
   0x00, 0x00, 0x00, 0x00, 0x00, 0x00, 0x00, 0x00, 0x00, 0x00, 0x00, 0x00,
   0x00, 0x00, 0x00, 0x00, 0x00, 0x00, 0x00, 0x00, 0x00, 0x00, 0x00, 0x00,
   0x00, 0x00, 0xbc, 0x07, 0x00, 0x00, 0xfc, 0x07, 0x00, 0x00, 0xfc, 0x07,
   0x00, 0x00, 0xf0, 0x01, 0x00, 0x00, 0xe0, 0x00, 0x00, 0x00, 0xe0, 0x00,
   0x00, 0x00, 0xe0, 0x00, 0x00, 0x00, 0xe0, 0x00, 0x00, 0x00, 0xe0, 0x00,
   0x00, 0x00, 0xe0, 0x00, 0x00, 0x00, 0xe0, 0x00, 0x00, 0x00, 0xe0, 0x00,
   0x00, 0x00, 0xf0, 0x01, 0x00, 0x00, 0xfc, 0x07, 0x00, 0x00, 0xfc, 0x07,
   0x00, 0x00, 0xbc, 0x07, 0x00, 0x00, 0x00, 0x00 };
