<?xml version="1.0" encoding="UTF-8" standalone="no"?>
<!-- Created with Inkscape (http://www.inkscape.org/) -->

<svg
   width="25.612032mm"
   height="25.612mm"
   viewBox="0 0 25.612032 25.612"
   version="1.1"
   id="svg1"
   sodipodi:docname="gimp.svg"
   inkscape:version="1.3.2 (091e20ef0f, 2023-11-25)"
   xmlns:inkscape="http://www.inkscape.org/namespaces/inkscape"
   xmlns:sodipodi="http://sodipodi.sourceforge.net/DTD/sodipodi-0.dtd"
   xmlns="http://www.w3.org/2000/svg"
   xmlns:svg="http://www.w3.org/2000/svg">
  <sodipodi:namedview
     id="namedview1"
     pagecolor="#ffffff"
     bordercolor="#cccccc"
     borderopacity="1"
     inkscape:showpageshadow="0"
     inkscape:pageopacity="1"
     inkscape:pagecheckerboard="0"
     inkscape:deskcolor="#d1d1d1"
     inkscape:document-units="mm"
     inkscape:zoom="1.6461121"
     inkscape:cx="42.220697"
     inkscape:cy="-43.739427"
     inkscape:window-width="1920"
     inkscape:window-height="1131"
     inkscape:window-x="0"
     inkscape:window-y="32"
     inkscape:window-maximized="1"
     inkscape:current-layer="layer1" />
  <defs
     id="defs1">
    <clipPath
       clipPathUnits="userSpaceOnUse"
       id="clipPath385">
      <path
         style="display:none;opacity:1;fill:#000000;fill-opacity:1;stroke:none;stroke-width:0;stroke-linecap:round;stroke-linejoin:round;stroke-dasharray:none;paint-order:stroke markers fill"
         d="m 1396.2684,724.37728 -0.098,-0.18359 -0.1474,-0.74504 1.6069,-1.36398 0.4734,-0.0196 0.4745,0.2836 -0.4773,-0.47034 -1.096,-0.22609 -1.1061,0.71625 -0.075,1.1693 0.3006,0.79854 z"
         id="path386"
         sodipodi:nodetypes="cccccccccccc" />
      <path
         id="lpe_path-effect386"
         style="display:block;opacity:1;fill:#000000;fill-opacity:1;stroke:none;stroke-width:0;stroke-linecap:round;stroke-linejoin:round;stroke-dasharray:none;paint-order:stroke markers fill"
         class="powerclip"
         d="m 1390.8785,716.82155 h 13.5377 v 14.09705 h -13.5377 z m 5.3899,7.55573 -0.098,-0.18359 -0.1474,-0.74504 1.6069,-1.36398 0.4734,-0.0196 0.4745,0.2836 -0.4773,-0.47034 -1.096,-0.22609 -1.1061,0.71625 -0.075,1.1693 0.3006,0.79854 z" />
    </clipPath>
    <inkscape:path-effect
       effect="powerclip"
       id="path-effect386"
       is_visible="true"
       lpeversion="1"
       inverse="true"
       flatten="false"
       hide_clip="false"
       message="Use fill-rule evenodd on &lt;b&gt;fill and stroke&lt;/b&gt; dialog if no flatten result after convert clip to paths." />
    <clipPath
       clipPathUnits="userSpaceOnUse"
       id="clipPath382">
      <path
         id="path382"
         style="fill:none;fill-opacity:1;stroke:none;stroke-width:0.0863068;stroke-linecap:round;stroke-linejoin:round"
         d="m 1399.06,725.88231 c 0.1487,0.27038 0.4395,-1.02899 0.3334,-1.93164 -0.2357,-2.00494 -2.3519,-2.57702 -3.0943,-1.78747 -0.6299,0.65669 -0.49,1.66327 0.01,2.26491 0.4952,0.60163 1.2521,0.61547 1.736,0.72591 0.484,0.11044 0.8424,0.40566 1.0197,0.72829 z"
         sodipodi:nodetypes="ssczcs" />
    </clipPath>
  </defs>
  <g
     inkscape:label="Layer 1"
     inkscape:groupmode="layer"
     id="layer1"
     transform="translate(-181.76867,-170.39167)">
    <g
       id="g1"
       transform="translate(-5.0339185e-6,0.0329991)">
      <path
         id="path378"
         style="fill:#000000;fill-opacity:1;stroke:none;stroke-width:0;stroke-linecap:round;stroke-linejoin:round;stroke-dasharray:none"
         d="m 1399.06,725.8823 c 0.1487,0.27039 0.4395,-1.02898 0.3334,-1.93163 -0.2357,-2.00493 -2.3519,-2.57702 -3.0943,-1.78748 -0.6299,0.6567 -0.49,1.66328 0.01,2.26491 0.4952,0.60164 1.252,0.61548 1.7359,0.72591 0.484,0.11044 0.8424,0.40566 1.0197,0.72829 z"
         sodipodi:nodetypes="ssczcss"
         clip-path="url(#clipPath385)"
         inkscape:path-effect="#path-effect386"
         inkscape:original-d="m 1399.06,725.8823 c 0.1487,0.27039 0.4395,-1.02898 0.3334,-1.93163 -0.2357,-2.00493 -2.3519,-2.57702 -3.0943,-1.78748 -0.6299,0.6567 -0.49,1.66328 0.01,2.26491 0.4952,0.60164 1.252,0.61548 1.7359,0.72591 0.484,0.11044 0.8424,0.40566 1.0197,0.72829 z"
         transform="translate(-1192.0575,-531.63232)" />
      <path
         d="m 206.4479,172.04496 c 0.029,0 0.056,0 0.081,0 0.099,0.016 0.2173,0.1222 0.2583,0.2424 0.041,0.1202 1.6717,8.3689 -0.6551,13.117 -2.3268,4.7481 -7.4741,6.1856 -10.4388,6.165 -4.9826,0.073 -9.31,-1.7057 -11.3004,-5.7598 2.1608,-0.073 2.8794,-2.1661 2.9145,-3.9088 0.011,-0.5378 0.8536,-6.3886 1.047,-6.6461 0.053,-0.065 0.1307,-0.032 0.1689,0.027 0.81,1.266 1.5553,1.9199 2.6484,2.5176 1.7368,0.7503 2.868,1.0257 5.4304,0.57 2.5627,-0.4557 6.7828,-1.9767 9.5501,-6.1304 0.1061,-0.1363 0.2093,-0.186 0.2961,-0.1958 z"
         style="color:#000000;fill:#8c8073;fill-opacity:1;stroke-width:0.999988;stroke-linecap:round;-inkscape-stroke:none;paint-order:stroke fill markers"
         id="path429-0" />
      <ellipse
         style="fill:#ffffff;fill-opacity:1;stroke:none;stroke-width:0.388936;stroke-linecap:round;stroke-linejoin:round"
         id="ellipse430-9"
         cx="191.10779"
         cy="181.94153"
         rx="2.8563435"
         ry="3.2004485" />
      <ellipse
         style="fill:#000000;fill-opacity:1;stroke:none;stroke-width:0.401192;stroke-linecap:round;stroke-linejoin:round"
         id="ellipse431-4"
         cx="191.724"
         cy="182.06018"
         rx="1.7185632"
         ry="2.0892863" />
      <ellipse
         style="fill:#ffffff;fill-opacity:1;stroke:none;stroke-width:0.387617;stroke-linecap:round;stroke-linejoin:round"
         id="circle431-6"
         cx="191.7301"
         cy="180.90564"
         rx="0.7829693"
         ry="0.78298879" />
      <ellipse
         style="fill:#000000;fill-opacity:1;stroke:none;stroke-width:0.584723;stroke-linecap:round;stroke-linejoin:round"
         id="ellipse432-9"
         cx="143.63785"
         cy="216.02808"
         rx="2.4320455"
         ry="3.1360881"
         transform="matrix(0.97889982,-0.20434075,0.20194198,0.97939749,0,0)" />
      <ellipse
         style="fill:#ffffff;stroke:none;stroke-width:0.595814;stroke-linecap:round;paint-order:stroke fill markers"
         id="circle432-2"
         cx="183.93652"
         cy="180.63477"
         rx="1.323804"
         ry="1.323837" />
      <path
         d="m 200.3122,186.43436 c -0.1746,-0.1214 0.034,-0.3108 0.4112,-0.3241 0.2261,-0.01 0.5127,0.048 0.8132,0.2192 0.8086,0.462 0.8362,1.0306 0.5707,1.1541 -0.1857,0.086 -0.9024,-0.4493 -0.9024,-0.4493 0,0 -0.5222,-0.3422 -0.8927,-0.5999 z"
         style="fill:#000000;fill-opacity:1;stroke:none;stroke-width:0.0876773;stroke-linecap:round;stroke-linejoin:round;stroke-dasharray:none"
         id="path432-2"
         sodipodi:nodetypes="cccccc" />
      <path
         style="color:#000000;fill:#000000;stroke-width:0.999988;-inkscape-stroke:none"
         d="m 201.1061,186.57146 c -1.5937,2.2126 -4.031,3.5472 -8.0089,2.9837 -0.5193,-0.069 -0.9134,0.6153 1.4528,0.7119 2.9659,0.1206 5.5251,-0.7637 7.267,-3.1819 z"
         id="path433-4"
         sodipodi:nodetypes="ccscc" />
      <path
         d="m 200.7637,188.26616 c -0.6615,-0.2764 -1.5684,0.6625 -1.2246,0.9142 0.527,0.3379 2.3644,1.513 2.7517,1.7188 0.4496,0.2388 1.0919,-0.1876 1.0919,-0.1876 l 0.2005,-0.3768 c 0,0 -0.01,-0.7713 -0.4563,-1.0102 -0.2907,-0.1544 -1.5042,-0.6859 -2.3554,-1.0553 0,0 -0.01,0 -0.01,0 z"
         style="fill:#f2840d;stroke-width:0.40666;stroke-linecap:round;stroke-linejoin:round"
         id="path434-77" />
      <path
         id="path435-5"
         style="fill:#bbbbbb;fill-opacity:1;stroke:none;stroke-width:0.0847624;stroke-linecap:round;stroke-linejoin:round"
         d="m 202.8402,190.86926 c 0.084,0.2969 0.3796,0.1622 0.5591,0.2618 0.1794,0.1 0.2208,0.4219 0.5173,0.3365 0.2965,-0.085 0.6851,-0.7845 0.601,-1.0815 -0.084,-0.297 -0.3797,-0.162 -0.5591,-0.2617 -0.1793,-0.1 -0.2207,-0.4221 -0.5172,-0.3367 -0.2966,0.085 -0.6852,0.7846 -0.6011,1.0816 z"
         sodipodi:nodetypes="zzzzzzz" />
      <ellipse
         style="fill:#ffffff;fill-opacity:1;stroke:none;stroke-width:0.363585;stroke-linecap:round;stroke-linejoin:round"
         id="ellipse435-8"
         cx="197.40088"
         cy="181.94885"
         rx="3.7499065"
         ry="3.8277867" />
      <ellipse
         style="fill:#000000;fill-opacity:1;stroke:none;stroke-width:0.514703;stroke-linecap:round;stroke-linejoin:round"
         id="ellipse436-1"
         cx="198.30798"
         cy="182.08923"
         rx="2.3218393"
         ry="2.5452883" />
      <ellipse
         style="fill:#ffffff;fill-opacity:1;stroke:none;stroke-width:0.377451;stroke-linecap:round;stroke-linejoin:round"
         id="circle436-2"
         cx="198.30774"
         cy="180.70233"
         rx="0.99682391"
         ry="0.99685425" />
      <path
         style="fill:#8c8073;fill-opacity:1;stroke:none;stroke-width:0;stroke-linecap:round;stroke-linejoin:round;stroke-dasharray:none;stroke-opacity:1;paint-order:stroke markers fill"
         d="m 1397.693,722.21492 c 0.1266,-0.20758 0.8185,0.0728 0.9692,0.18088 -0.2987,-0.48421 -1.8637,-1.10586 -2.563,-0.33574 -0.6993,0.77012 -0.055,2.09042 0.2073,2.43123 -0.077,-0.21189 -0.2301,-0.81294 -0.069,-0.9281 0.1606,-0.11516 0.5326,0.53901 0.8382,0.35 0.3055,-0.18901 -0.2892,-0.71221 0.01,-0.95904 0.312,-0.247 0.7338,0.44411 0.9975,0.13324 0.2255,-0.27366 -0.5053,-0.68338 -0.3901,-0.87247 z"
         id="path379"
         sodipodi:nodetypes="sczczcccss"
         clip-path="url(#clipPath382)"
         transform="translate(-1192.0575,-531.63232)" />
    </g>
  </g>
</svg>
