<svg width="24" height="24" viewBox="0 0 24 24" fill="none" xmlns="http://www.w3.org/2000/svg">
<circle cx="8.5" cy="5.5" r="3" fill="url(#paint0_linear_110_137)" stroke="#8F5902"/>
<path d="M2.5 14V11.1614C2.5 11.0296 2.55202 10.9032 2.64476 10.8096L3.79511 9.64814C3.88901 9.55334 4.01692 9.5 4.15035 9.5H12.8496C12.9831 9.5 13.111 9.55334 13.2049 9.64814L14.3552 10.8096C14.448 10.9032 14.5 11.0296 14.5 11.1614V14C14.5 14.8284 13.8284 15.5 13 15.5H4C3.17157 15.5 2.5 14.8284 2.5 14Z" fill="#E6DEBF"/>
<path d="M2.5 14V11.1614C2.5 11.0296 2.55202 10.9032 2.64476 10.8096L3.79511 9.64814C3.88901 9.55334 4.01692 9.5 4.15035 9.5H12.8496C12.9831 9.5 13.111 9.55334 13.2049 9.64814L14.3552 10.8096C14.448 10.9032 14.5 11.0296 14.5 11.1614V14C14.5 14.8284 13.8284 15.5 13 15.5H4C3.17157 15.5 2.5 14.8284 2.5 14Z" fill="url(#paint1_linear_110_137)" fill-opacity="0.2"/>
<path d="M2.5 14V11.1614C2.5 11.0296 2.55202 10.9032 2.64476 10.8096L3.79511 9.64814C3.88901 9.55334 4.01692 9.5 4.15035 9.5H12.8496C12.9831 9.5 13.111 9.55334 13.2049 9.64814L14.3552 10.8096C14.448 10.9032 14.5 11.0296 14.5 11.1614V14C14.5 14.8284 13.8284 15.5 13 15.5H4C3.17157 15.5 2.5 14.8284 2.5 14Z" stroke="#8F5902"/>
<mask id="path-3-inside-1_110_137" fill="white">
<path d="M3 12H14V14C14 14.5523 13.5523 15 13 15H4C3.44771 15 3 14.5523 3 14V12Z"/>
</mask>
<path d="M3 12H14V14C14 14.5523 13.5523 15 13 15H4C3.44771 15 3 14.5523 3 14V12Z" fill="#CABC8F" fill-opacity="0.8"/>
<path d="M2 11H15L13 13H4L2 11ZM14 15H3H14ZM4 15C2.89543 15 2 14.1046 2 13V11L4 13V14C4 14.5523 4 15 4 15ZM15 11V13C15 14.1046 14.1046 15 13 15C13 15 13 14.5523 13 14V13L15 11Z" fill="#EEE8D5" mask="url(#path-3-inside-1_110_137)"/>
<path d="M7.87533 14.5002C8.24055 14.7924 8.7595 14.7924 9.12472 14.5002L11 13H6L7.87533 14.5002Z" fill="black" fill-opacity="0.58"/>
<path d="M7.5 8.5H9.5V10C9.5 10.2761 9.27614 10.5 9 10.5H8C7.72386 10.5 7.5 10.2761 7.5 10V8.5Z" fill="white" stroke="#8F5902"/>
<path d="M18.5 10.5C18.5 12.1569 17.1569 13.5 15.5 13.5C13.8431 13.5 12.5 12.1569 12.5 10.5C12.5 8.84315 13.8431 7.5 15.5 7.5C17.1569 7.5 18.5 8.84315 18.5 10.5Z" fill="url(#paint2_linear_110_137)" stroke="#8F5902"/>
<path d="M9.5 19V16.1614C9.5 16.0296 9.55202 15.9032 9.64476 15.8096L10.7951 14.6481C10.889 14.5533 11.0169 14.5 11.1504 14.5H19.8496C19.9831 14.5 20.111 14.5533 20.2049 14.6481L21.3552 15.8096C21.448 15.9032 21.5 16.0296 21.5 16.1614V19C21.5 19.8284 20.8284 20.5 20 20.5H11C10.1716 20.5 9.5 19.8284 9.5 19Z" fill="#E6DEBF"/>
<path d="M9.5 19V16.1614C9.5 16.0296 9.55202 15.9032 9.64476 15.8096L10.7951 14.6481C10.889 14.5533 11.0169 14.5 11.1504 14.5H19.8496C19.9831 14.5 20.111 14.5533 20.2049 14.6481L21.3552 15.8096C21.448 15.9032 21.5 16.0296 21.5 16.1614V19C21.5 19.8284 20.8284 20.5 20 20.5H11C10.1716 20.5 9.5 19.8284 9.5 19Z" fill="url(#paint3_linear_110_137)" fill-opacity="0.2"/>
<path d="M9.5 19V16.1614C9.5 16.0296 9.55202 15.9032 9.64476 15.8096L10.7951 14.6481C10.889 14.5533 11.0169 14.5 11.1504 14.5H19.8496C19.9831 14.5 20.111 14.5533 20.2049 14.6481L21.3552 15.8096C21.448 15.9032 21.5 16.0296 21.5 16.1614V19C21.5 19.8284 20.8284 20.5 20 20.5H11C10.1716 20.5 9.5 19.8284 9.5 19Z" stroke="#8F5902"/>
<mask id="path-9-inside-2_110_137" fill="white">
<path d="M10 17H21V19C21 19.5523 20.5523 20 20 20H11C10.4477 20 10 19.5523 10 19V17Z"/>
</mask>
<path d="M10 17H21V19C21 19.5523 20.5523 20 20 20H11C10.4477 20 10 19.5523 10 19V17Z" fill="#CABC8F" fill-opacity="0.8"/>
<path d="M9 16H22L20 18H11L9 16ZM21 20H10H21ZM11 20C9.89543 20 9 19.1046 9 18V16L11 18V19C11 19.5523 11 20 11 20ZM22 16V18C22 19.1046 21.1046 20 20 20C20 20 20 19.5523 20 19V18L22 16Z" fill="#EEE8D5" mask="url(#path-9-inside-2_110_137)"/>
<path d="M14.8753 19.5002C15.2405 19.7924 15.7595 19.7924 16.1247 19.5002L18 18H13L14.8753 19.5002Z" fill="black" fill-opacity="0.58"/>
<path d="M14.5 13.5H16.5V15C16.5 15.2761 16.2761 15.5 16 15.5H15C14.7239 15.5 14.5 15.2761 14.5 15V13.5Z" fill="white" stroke="#8F5902"/>
<defs>
<linearGradient id="paint0_linear_110_137" x1="8" y1="5" x2="10" y2="7" gradientUnits="userSpaceOnUse">
<stop stop-color="#F2EDDF"/>
<stop offset="1" stop-color="#CABCA0"/>
</linearGradient>
<linearGradient id="paint1_linear_110_137" x1="8.5" y1="9.875" x2="8.5" y2="15.125" gradientUnits="userSpaceOnUse">
<stop stop-color="#E6DEBF"/>
<stop offset="1" stop-color="#C8BB8D"/>
</linearGradient>
<linearGradient id="paint2_linear_110_137" x1="15" y1="10" x2="17" y2="12" gradientUnits="userSpaceOnUse">
<stop stop-color="#F2EDDF"/>
<stop offset="1" stop-color="#CABCA0"/>
</linearGradient>
<linearGradient id="paint3_linear_110_137" x1="15.5" y1="14.875" x2="15.5" y2="20.125" gradientUnits="userSpaceOnUse">
<stop stop-color="#E6DEBF"/>
<stop offset="1" stop-color="#C8BB8D"/>
</linearGradient>
</defs>
</svg>
