<svg width="24" height="24" viewBox="0 0 24 24" fill="none" xmlns="http://www.w3.org/2000/svg">
<g clip-path="url(#clip0_242_162)">
<g filter="url(#filter0_f_242_162)">
<ellipse cx="12" cy="22" rx="10" ry="1" fill="black" fill-opacity="0.65"/>
</g>
<rect x="2" y="1" width="20" height="21" rx="1" fill="#555753"/>
<rect x="3.5" y="2.5" width="17" height="18" fill="url(#paint0_linear_242_162)" stroke="#FDFDFD"/>
<path d="M5 6.00049V12.0005L7 12L19 12.0005V4.00049C16.5 4.00049 16.2972 11 14.5 11C12.7028 11 13 6.02767 11.6454 6.02767C10.5 6.00049 11.4004 8.5 10.5 8.5C9.59958 8.5 10.5 7 9.5 7C8.5 7 8.09749 9.5 7.5 9.5C5.5 9.5 6.74513 6.00015 5 6.00049Z" fill="#3465A4"/>
<rect x="4" y="14" width="15" height="1" fill="url(#paint1_linear_242_162)"/>
<rect x="7" y="16" width="9" height="3" fill="url(#paint2_linear_242_162)"/>
<path d="M19.5 17L19.5 18L18.8333 17.5L19.5 17ZM4.5 18L4.5 17L5.16667 17.5L4.5 18Z" stroke="#2E3436"/>
</g>
<defs>
<filter id="filter0_f_242_162" x="-2" y="17" width="28" height="10" filterUnits="userSpaceOnUse" color-interpolation-filters="sRGB">
<feFlood flood-opacity="0" result="BackgroundImageFix"/>
<feBlend mode="normal" in="SourceGraphic" in2="BackgroundImageFix" result="shape"/>
<feGaussianBlur stdDeviation="2" result="effect1_foregroundBlur_242_162"/>
</filter>
<linearGradient id="paint0_linear_242_162" x1="4" y1="3" x2="20" y2="20" gradientUnits="userSpaceOnUse">
<stop stop-color="#EBEBEB"/>
<stop offset="1" stop-color="#E0E2DF"/>
</linearGradient>
<linearGradient id="paint1_linear_242_162" x1="4" y1="14.5" x2="19" y2="14.5" gradientUnits="userSpaceOnUse">
<stop stop-color="#2E3436"/>
<stop offset="1" stop-color="#D9DAD8"/>
</linearGradient>
<linearGradient id="paint2_linear_242_162" x1="7" y1="17.5" x2="16" y2="17.5" gradientUnits="userSpaceOnUse">
<stop stop-color="#555753"/>
<stop offset="1" stop-color="#D0D1CE"/>
</linearGradient>
<clipPath id="clip0_242_162">
<rect width="24" height="24" fill="white"/>
</clipPath>
</defs>
</svg>
