<?xml version="1.0" encoding="UTF-8" standalone="no"?>
<svg
   width="24"
   height="24"
   viewBox="0 0 24 24"
   fill="none"
   version="1.1"
   id="svg5"
   xmlns="http://www.w3.org/2000/svg"
   xmlns:svg="http://www.w3.org/2000/svg">
  <rect
     x="2"
     y="2"
     width="20"
     height="20"
     fill="#000000"
     id="rect1" />
  <path
     fill-rule="evenodd"
     clip-rule="evenodd"
     d="m 5.50009,3 c 0,0 -0.59224,3.21407 -0.45876,4.57972 C 5.29888,10.2099 3.12262,6.94754 2.85611,7.96653 2.81292,8.13204 2.81524,8.98378 2.86147,9.85914 3.01415,12.7555 5.13888,11.5246 6.16422,13.6233 6.59944,14.5135 6.65926,15.6901 7.22364,16.4957 7.73482,17.2249 6.88558,17.2883 6.34393,17.2 4.97958,16.9779 3,15.5 3,15.5 V 19 c 0,0 4.51389,0.0944 5.17567,1.3307 2.32433,3.1693 7.16103,-3.41 8.82143,-2.7721 1.5513,0.595 -2.3592,3.4461 -0.2507,3.4414 3.1493,-0.0074 2.5858,-2.2022 3.7017,-4.1925 0.5634,-1.0045 0.8912,-4.8999 -0.8656,-4.4289 -1.2727,0.3415 1.1753,3.2492 0.1349,4.142 -0.6129,0.5257 -1.3844,0.9042 -2.0735,1.3229 -0.5371,-0.5147 -2.6102,-3.0071 -2.002,-3.7765 0.3847,-0.4867 1.2652,-1.1548 1.8636,-1.3635 2.3631,-0.8238 -2.3911,-4.23481 -0.0204,-4.54682 1.5916,-0.20942 1.9785,-0.14188 2.5056,0.43754 2.4244,2.66388 1.6657,-2.17575 0.8699,-3.3858 C 20.0624,3.99311 16.426,5.8125 15.1312,5.02943 14.2999,4.5265 17.0001,3.00002 17.0001,3.00002 L 13.5001,3 c 0,0.08551 -0.4566,0.55972 -0.7754,0.84595 -1.306,1.17242 -0.8581,3.47783 -2.7174,3.94479 C 9.62872,7.88596 9.10364,8.12769 8.84075,8.32798 7.12497,9.6361 8.39139,3.82417 9.00009,3 Z m 7.75951,3.05581 c -1.4077,0.68493 -1.6497,0.86058 -1.7148,1.24478 -0.0639,0.37768 1.4345,2.92961 1.7857,3.04101 0.3707,0.1177 1.9565,-0.79115 2.5463,-1.45912 C 16.615,8.04647 16.0297,7.48506 15.6389,6.56523 14.9024,4.83319 14.5947,5.4062 13.2596,6.05581 Z M 6.34785,8.98422 C 4.42843,9.22378 4.5564,9.1403 4.66698,10.0822 c 0.114,0.9697 1.21136,3.7479 2.61014,3.1648 0.23516,-0.0981 2.40406,-0.4858 2.40406,-0.6192 0,-0.7714 -1.06187,-2.97864 -1.50551,-3.62329 C 8.09147,8.88248 7.23901,8.87291 6.34785,8.98422 Z M 13.0001,11 c 0,0 -1.9895,1.0406 -2.7865,1.6446 -0.48004,0.3639 1.1607,2.8535 1.6564,3.166 0.5829,0.3679 2.5508,-1.1622 3.1113,-1.4635 0.8139,-0.437 -0.614,-2.2591 -0.966,-2.8075 C 13.5227,10.7719 13.0001,11 13.0001,11 Z M 8.85034,16.8075 C 7.81165,16.9162 7.4206,17.3644 7.64075,17.7757 8.17567,19.261 7.12168,20.2101 9.63712,20.1484 10.5919,20.1251 13.4719,19.8508 12.9447,18.4003 12.5189,17.2294 11.8554,15.9442 11.6326,15.8587 11.0784,15.6459 10.5,16.4957 8.85034,16.8075 Z"
     fill="url(#paint0_linear_78_58)"
     id="path1"
     style="fill:url(#paint0_linear_78_58);stroke:#000000;stroke-width:0.05;stroke-dasharray:none;stroke-opacity:1" />
  <rect
     x="2.5"
     y="2.5"
     width="19"
     height="19"
     fill="url(#paint1_linear_78_58)"
     stroke="#2e3436"
     id="rect2"
     style="fill:url(#paint1_linear_78_58)" />
  <defs
     id="defs5">
    <linearGradient
       id="paint0_linear_78_58"
       x1="6"
       y1="6"
       x2="20.450399"
       y2="21.511999"
       gradientUnits="userSpaceOnUse">
      <stop
         stop-color="#C3C5C1"
         id="stop2" />
      <stop
         offset="1"
         stop-color="#8C8D88"
         id="stop3" />
    </linearGradient>
    <linearGradient
       id="paint1_linear_78_58"
       x1="12"
       y1="3"
       x2="12"
       y2="5.5"
       gradientUnits="userSpaceOnUse">
      <stop
         stop-color="#D9D9D9"
         id="stop4" />
      <stop
         offset="1"
         stop-color="#737373"
         stop-opacity="0.1"
         id="stop5" />
    </linearGradient>
  </defs>
</svg>
