<svg width="24" height="24" viewBox="0 0 24 24" fill="none" xmlns="http://www.w3.org/2000/svg">
<g filter="url(#filter0_f_218_133)">
<ellipse cx="14" cy="19" rx="7" ry="2" fill="black" fill-opacity="0.25"/>
</g>
<g filter="url(#filter1_f_218_133)">
<ellipse cx="9.5" cy="13.5" rx="6.5" ry="2.5" fill="black" fill-opacity="0.2"/>
</g>
<g filter="url(#filter2_f_218_133)">
<ellipse cx="5.5" cy="21" rx="3.5" ry="1" fill="black" fill-opacity="0.35"/>
</g>
<mask id="path-4-outside-1_218_133" maskUnits="userSpaceOnUse" x="16" y="5" width="7" height="8" fill="black">
<rect fill="white" x="16" y="5" width="7" height="8"/>
<path d="M19 6L17 6L17 7L19 7L19 9L17 9L17 9.5L19.5 12L22 9.5L22 9L20 9L20 7L19 6Z"/>
</mask>
<path d="M19 6L17 6L17 7L19 7L19 9L17 9L17 9.5L19.5 12L22 9.5L22 9L20 9L20 7L19 6Z" fill="white"/>
<path d="M17 6L16 6L16 5L17 5L17 6ZM19 6L19 5C19.2652 5 19.5196 5.10536 19.7071 5.29289L19 6ZM20 7L20.7071 6.29289C20.8946 6.48043 21 6.73478 21 7L20 7ZM20 9L20 10C19.4477 10 19 9.55228 19 9L20 9ZM22 9L22 8C22.5523 8 23 8.44771 23 9L22 9ZM17 9L16 9C16 8.44772 16.4477 8 17 8L17 9ZM19 9L20 9C20 9.55228 19.5523 10 19 10L19 9ZM19 7L19 6C19.5523 6 20 6.44772 20 7L19 7ZM17 7L17 8L16 7L17 7ZM22 9.5L23 9.5C23 9.76522 22.8946 10.0196 22.7071 10.2071L22 9.5ZM19.5 12L20.2071 12.7071C19.8166 13.0976 19.1834 13.0976 18.7929 12.7071L19.5 12ZM17 9.5L16.2929 10.2071C16.1054 10.0196 16 9.76522 16 9.5L17 9.5ZM17 5L19 5L19 7L17 7L17 5ZM19.7071 5.29289L20.7071 6.29289L19.2929 7.70711L18.2929 6.70711L19.7071 5.29289ZM21 7L21 9L19 9L19 7L21 7ZM20 8L22 8L22 10L20 10L20 8ZM17 8L19 8L19 10L17 10L17 8ZM18 9L18 7L20 7L20 9L18 9ZM19 8L17 8L17 6L19 6L19 8ZM16 7L16 6L18 6L18 7L16 7ZM23 9L23 9.5L21 9.5L21 9L23 9ZM22.7071 10.2071L20.2071 12.7071L18.7929 11.2929L21.2929 8.79289L22.7071 10.2071ZM18.7929 12.7071L16.2929 10.2071L17.7071 8.79289L20.2071 11.2929L18.7929 12.7071ZM16 9.5L16 9L18 9L18 9.5L16 9.5Z" fill="#3465A4" mask="url(#path-4-outside-1_218_133)"/>
<mask id="path-6-outside-2_218_133" maskUnits="userSpaceOnUse" x="1" y="14" width="7" height="8" fill="black">
<rect fill="white" x="1" y="14" width="7" height="8"/>
<path d="M5 21L7 21L7 20L5 20L5 18L7 18L7 17.5L4.5 15L2 17.5L2 18L4 18L4 20L5 21Z"/>
</mask>
<path d="M5 21L7 21L7 20L5 20L5 18L7 18L7 17.5L4.5 15L2 17.5L2 18L4 18L4 20L5 21Z" fill="white"/>
<path d="M7 21L8 21L8 22L7 22L7 21ZM5 21L5 22C4.73478 22 4.48043 21.8946 4.29289 21.7071L5 21ZM4 20L3.29289 20.7071C3.10536 20.5196 3 20.2652 3 20L4 20ZM4 18L4 17C4.55228 17 5 17.4477 5 18L4 18ZM2 18L2 19C1.44772 19 1 18.5523 1 18L2 18ZM7 18L8 18C8 18.5523 7.55228 19 7 19L7 18ZM5 18L4 18C4 17.4477 4.44772 17 5 17L5 18ZM5 20L5 21C4.44772 21 4 20.5523 4 20L5 20ZM7 20L7 19L8 20L7 20ZM4.5 15L3.79289 14.2929C4.18342 13.9024 4.81658 13.9024 5.20711 14.2929L4.5 15ZM7 17.5L7.70711 16.7929C7.89464 16.9804 8 17.2348 8 17.5L7 17.5ZM2 17.5L1 17.5C1 17.2348 1.10536 16.9804 1.29289 16.7929L2 17.5ZM7 22L5 22L5 20L7 20L7 22ZM4.29289 21.7071L3.29289 20.7071L4.70711 19.2929L5.70711 20.2929L4.29289 21.7071ZM3 20L3 18L5 18L5 20L3 20ZM4 19L2 19L2 17L4 17L4 19ZM7 19L5 19L5 17L7 17L7 19ZM6 18L6 20L4 20L4 18L6 18ZM5 19L7 19L7 21L5 21L5 19ZM8 20L8 21L6 21L6 20L8 20ZM5.20711 14.2929L7.70711 16.7929L6.29289 18.2071L3.79289 15.7071L5.20711 14.2929ZM8 17.5L8 18L6 18L6 17.5L8 17.5ZM1 18L1 17.5L3 17.5L3 18L1 18ZM1.29289 16.7929L3.79289 14.2929L5.20711 15.7071L2.70711 18.2071L1.29289 16.7929Z" fill="#3465A4" mask="url(#path-6-outside-2_218_133)"/>
<rect x="4" y="4" width="11" height="8" rx="1" fill="#204A87"/>
<rect x="5" y="5" width="9" height="6" fill="#4F7DB5"/>
<rect x="5.5" y="5.5" width="8" height="5" stroke="white" stroke-opacity="0.2"/>
<path d="M10.9545 8.00105C11.345 7.61053 11.9782 7.61053 12.3687 8.00105L19.0834 14.7157C19.4739 15.1062 19.4739 15.7394 19.0834 16.1299L14.4854 20.7279C14.0949 21.1184 13.4617 21.1184 13.0712 20.7279L6.35653 14.0133C5.966 13.6227 5.966 12.9896 6.35653 12.599L10.9545 8.00105Z" fill="#204A87"/>
<rect x="11.655" y="8.7019" width="9.50495" height="6.50254" transform="rotate(45 11.655 8.7019)" fill="url(#paint0_linear_218_133)"/>
<rect x="11.655" y="9.40901" width="8.50495" height="5.50254" transform="rotate(45 11.655 9.40901)" stroke="white" stroke-opacity="0.35"/>
<defs>
<filter id="filter0_f_218_133" x="5" y="15" width="18" height="8" filterUnits="userSpaceOnUse" color-interpolation-filters="sRGB">
<feFlood flood-opacity="0" result="BackgroundImageFix"/>
<feBlend mode="normal" in="SourceGraphic" in2="BackgroundImageFix" result="shape"/>
<feGaussianBlur stdDeviation="1" result="effect1_foregroundBlur_218_133"/>
</filter>
<filter id="filter1_f_218_133" x="1" y="9" width="17" height="9" filterUnits="userSpaceOnUse" color-interpolation-filters="sRGB">
<feFlood flood-opacity="0" result="BackgroundImageFix"/>
<feBlend mode="normal" in="SourceGraphic" in2="BackgroundImageFix" result="shape"/>
<feGaussianBlur stdDeviation="1" result="effect1_foregroundBlur_218_133"/>
</filter>
<filter id="filter2_f_218_133" x="0" y="18" width="11" height="6" filterUnits="userSpaceOnUse" color-interpolation-filters="sRGB">
<feFlood flood-opacity="0" result="BackgroundImageFix"/>
<feBlend mode="normal" in="SourceGraphic" in2="BackgroundImageFix" result="shape"/>
<feGaussianBlur stdDeviation="1" result="effect1_foregroundBlur_218_133"/>
</filter>
<linearGradient id="paint0_linear_218_133" x1="13.0331" y1="8.7019" x2="16.7258" y2="16.6282" gradientUnits="userSpaceOnUse">
<stop stop-color="#5382B9"/>
<stop offset="1" stop-color="#3566A5"/>
</linearGradient>
</defs>
</svg>
