<?xml version="1.0" encoding="UTF-8" standalone="no"?>
<svg
   width="24"
   height="24"
   viewBox="0 0 24 24"
   fill="none"
   version="1.1"
   id="svg10"
   xml:space="preserve"
   xmlns="http://www.w3.org/2000/svg"
   xmlns:svg="http://www.w3.org/2000/svg"><g
     clip-path="url(#clip0_262_113)"
     id="g8"
     transform="translate(1,1)"><g
       filter="url(#filter0_f_262_113)"
       id="g1"><ellipse
         cx="11"
         cy="20"
         rx="9"
         ry="1"
         fill="#000000"
         fill-opacity="0.5"
         id="ellipse1" /></g><path
       d="M 10,2.56066 V 9 h 1 V 2.70711 C 11,2.25435 11.1799,1.82014 11.5,1.5 11.8201,1.17986 12.2544,1 12.7071,1 H 22 V 0 H 12.5607 C 11.8815,0 11.2302,0.269783 10.75,0.75 10.2698,1.23022 10,1.88153 10,2.56066 Z"
       fill="black"
       id="path1"
       style="fill:#c17d11;fill-opacity:1" /><path
       d="M 10.5,2.56066 V 5.294264 9 h 4.5e-4 V 2.70711 c 0,-0.075578 -0.01754,-0.7644495 0.431421,-1.3659629 C 11.274626,0.88192722 11.75485,0.5 12.20755,0.5 H 22 v 0 h -9.4393 c 0,0 -0.892221,0.13835855 -1.3107,0.55 -0.484149,0.4762383 -0.75,0.83153 -0.75,1.51066 z"
       fill="black"
       id="path2"
       style="fill:none;stroke:#e9b96e;stroke-width:1;stroke-linecap:round;stroke-linejoin:miter;stroke-miterlimit:4;stroke-dasharray:0.25, 2;stroke-dashoffset:1.6;stroke-opacity:1" /><g
       style="fill:none"
       id="g3"
       transform="translate(4.9999997,2.000012)"><path
         d="m 5.49993,11.1 c -4.744617,0 -7.1166,-10.800012 -4.27008,-10.800012 0.44272,0 3.82741,6.646152 4.27008,6.646152 0.44276,0 3.76394,-6.646152 4.27009,-6.646152 C 12.6168,0.299988 10.2446,11.1 5.49993,11.1 Z"
         fill="#cccbc8"
         id="path1-2" /><path
         d="m 5.49993,11.1 c -4.744617,0 -7.1166,-10.800012 -4.27008,-10.800012 0.44272,0 3.82741,6.646152 4.27008,6.646152 0.44276,0 3.76394,-6.646152 4.27009,-6.646152 C 12.6168,0.299988 10.2446,11.1 5.49993,11.1 Z"
         fill="url(#paint0_linear_412_53)"
         id="path2-0"
         style="fill:url(#paint0_linear_412_53-5)" /><path
         d="m 5.49993,11.1 c -4.744617,0 -7.1166,-10.800012 -4.27008,-10.800012 0.44272,0 3.82741,6.646152 4.27008,6.646152 0.44276,0 3.76394,-6.646152 4.27009,-6.646152 C 12.6168,0.299988 10.2446,11.1 5.49993,11.1 Z"
         fill="url(#paint1_linear_412_53)"
         id="path3"
         style="fill:url(#paint1_linear_412_53-0)" /></g><path
       d="M 10.4999,13.5 C 9.48348,13.5 8.52014,12.8382 7.66923,11.6737 6.82579,10.5196 6.15987,8.95648 5.73276,7.37002 5.30525,5.78205 5.12982,4.21856 5.23236,3.07594 5.28405,2.49991 5.40265,2.07617 5.55795,1.81199 5.64869,1.65764 5.73955,1.57392 5.83282,1.53311 5.84984,1.55752 5.86877,1.58554 5.88966,1.61746 6.02115,1.81847 6.19267,2.1163 6.39486,2.48862 6.7977,3.23041 7.29802,4.22263 7.80345,5.2251 l 0.00301,0.00597 c 0.50195,0.99558 1.00879,2.00085 1.41972,2.75755 0.20511,0.37768 0.39243,0.70486 0.54713,0.94134 0.07608,0.11631 0.15407,0.22593 0.22989,0.31161 0.0372,0.042 0.0867,0.09301 0.1466,0.13734 0.0459,0.034 0.1718,0.12109 0.3501,0.12109 0.1788,0 0.3049,-0.08751 0.3511,-0.12196 0.06,-0.04468 0.1094,-0.09603 0.1464,-0.13818 0.0754,-0.08598 0.1527,-0.19585 0.2279,-0.31218 0.1529,-0.23659 0.3378,-0.56386 0.5402,-0.94144 0.3787,-0.70643 0.8404,-1.63012 1.305,-2.55957 0.0339,-0.06769 0.0677,-0.1354 0.1015,-0.20306 0.5011,-1.00216 0.9989,-1.9933 1.404,-2.73358 0.2034,-0.37173 0.3767,-0.66766 0.5109,-0.86653 0.0252,-0.03731 0.0476,-0.06905 0.0672,-0.09575 0.0979,0.03862 0.1929,0.12281 0.2879,0.28426 0.1553,0.26417 0.2739,0.68791 0.3256,1.26394 0.1026,1.14261 -0.0729,2.7061 -0.5004,4.29406 C 14.8401,8.95647 14.1741,10.5195 13.3306,11.6737 12.4797,12.8382 11.5163,13.5 10.4999,13.5 Z"
       stroke="#888a85"
       id="path4" /><path
       d="m 17.25,17.5 c 0,1.6314 -1.1117,2.75 -2.25,2.75 -1.1383,0 -2.25,-1.1186 -2.25,-2.75 0,-1.6314 1.1117,-2.75 2.25,-2.75 1.1383,0 2.25,1.1186 2.25,2.75 z"
       stroke="#204a87"
       stroke-width="1.5"
       id="path5" /><path
       d="m 9,13 -1,1 h 5 l -1,-1 z"
       fill="#888a85"
       id="path6" /><path
       d="m 8.25,17.5 c 0,1.6314 -1.11166,2.75 -2.25,2.75 -1.13834,0 -2.25,-1.1186 -2.25,-2.75 0,-1.6314 1.11166,-2.75 2.25,-2.75 1.13834,0 2.25,1.1186 2.25,2.75 z"
       stroke="#204a87"
       stroke-width="1.5"
       id="path7" /><path
       d="M 9.6,14.55 8.50988,15.3676 7.42539,14.5 H 9.67081 C 9.64685,14.5159 9.62323,14.5326 9.6,14.55 Z m 1.7292,-0.05 h 2.2454 L 12.4901,15.3676 11.4,14.55 C 11.3768,14.5326 11.3532,14.5159 11.3292,14.5 Z"
       stroke="#204a87"
       id="path8" /></g><defs
     id="defs10"><filter
       id="filter0_f_262_113"
       x="-2"
       y="15"
       width="26"
       height="10"
       filterUnits="userSpaceOnUse"
       color-interpolation-filters="sRGB"><feFlood
         flood-opacity="0"
         result="BackgroundImageFix"
         id="feFlood8" /><feBlend
         mode="normal"
         in="SourceGraphic"
         in2="BackgroundImageFix"
         result="shape"
         id="feBlend8" /><feGaussianBlur
         stdDeviation="2"
         result="effect1_foregroundBlur_262_113"
         id="feGaussianBlur8" /></filter><clipPath
       id="clip0_262_113"><rect
         width="22"
         height="22"
         fill="#ffffff"
         id="rect10"
         x="0"
         y="0" /></clipPath><linearGradient
       id="paint0_linear_412_53-5"
       x1="3.60219"
       y1="6.1153698"
       x2="1.73778"
       y2="6.6477599"
       gradientUnits="userSpaceOnUse"
       gradientTransform="translate(-0.0275126,2.299994)"><stop
         stop-color="white"
         stop-opacity="0"
         id="stop3-4" /><stop
         offset="1"
         stop-color="white"
         id="stop4-4" /></linearGradient><linearGradient
       id="paint1_linear_412_53-0"
       x1="8.3467302"
       y1="7.3615298"
       x2="6.1386499"
       y2="-3.5675001"
       gradientUnits="userSpaceOnUse"
       gradientTransform="translate(-0.0275126,2.299994)"><stop
         stop-color="white"
         stop-opacity="0"
         id="stop5-3" /><stop
         offset="1"
         stop-color="white"
         id="stop6-6" /></linearGradient></defs></svg>
