<svg width="24" height="24" viewBox="0 0 24 24" fill="none" xmlns="http://www.w3.org/2000/svg">
<g filter="url(#filter0_f_85_238)">
<ellipse cx="11.5" cy="19.5" rx="7.5" ry="1.5" fill="black" fill-opacity="0.32"/>
</g>
<mask id="path-2-outside-1_85_238" maskUnits="userSpaceOnUse" x="2" y="2" width="19" height="19" fill="black">
<rect fill="white" x="2" y="2" width="19" height="19"/>
<path d="M11 6V11H6V9.2135C6 9.12872 5.90111 9.0824 5.83598 9.13668L3.09219 11.4232C3.04421 11.4632 3.04421 11.5368 3.09219 11.5768L5.83598 13.8633C5.90111 13.9176 6 13.8713 6 13.7865V12H11V17H9.2135C9.12872 17 9.0824 17.0989 9.13668 17.164L11.4232 19.9078C11.4632 19.9558 11.5368 19.9558 11.5768 19.9078L13.8633 17.164C13.9176 17.0989 13.8713 17 13.7865 17H12V12H17V13.7865C17 13.8713 17.0989 13.9176 17.164 13.8633L19.9078 11.5768C19.9558 11.5368 19.9558 11.4632 19.9078 11.4232L17.164 9.13668C17.0989 9.0824 17 9.12872 17 9.2135V11H12V6H13.7865C13.8713 6 13.9176 5.90111 13.8633 5.83598L11.5768 3.09219C11.5368 3.04421 11.4632 3.04421 11.4232 3.09219L9.13668 5.83598C9.0824 5.90111 9.12872 6 9.2135 6H11Z"/>
</mask>
<path d="M11 6V11H6V9.2135C6 9.12872 5.90111 9.0824 5.83598 9.13668L3.09219 11.4232C3.04421 11.4632 3.04421 11.5368 3.09219 11.5768L5.83598 13.8633C5.90111 13.9176 6 13.8713 6 13.7865V12H11V17H9.2135C9.12872 17 9.0824 17.0989 9.13668 17.164L11.4232 19.9078C11.4632 19.9558 11.5368 19.9558 11.5768 19.9078L13.8633 17.164C13.9176 17.0989 13.8713 17 13.7865 17H12V12H17V13.7865C17 13.8713 17.0989 13.9176 17.164 13.8633L19.9078 11.5768C19.9558 11.5368 19.9558 11.4632 19.9078 11.4232L17.164 9.13668C17.0989 9.0824 17 9.12872 17 9.2135V11H12V6H13.7865C13.8713 6 13.9176 5.90111 13.8633 5.83598L11.5768 3.09219C11.5368 3.04421 11.4632 3.04421 11.4232 3.09219L9.13668 5.83598C9.0824 5.90111 9.12872 6 9.2135 6H11Z" fill="url(#paint0_radial_85_238)"/>
<path d="M11 6V11H6V9.2135C6 9.12872 5.90111 9.0824 5.83598 9.13668L3.09219 11.4232C3.04421 11.4632 3.04421 11.5368 3.09219 11.5768L5.83598 13.8633C5.90111 13.9176 6 13.8713 6 13.7865V12H11V17H9.2135C9.12872 17 9.0824 17.0989 9.13668 17.164L11.4232 19.9078C11.4632 19.9558 11.5368 19.9558 11.5768 19.9078L13.8633 17.164C13.9176 17.0989 13.8713 17 13.7865 17H12V12H17V13.7865C17 13.8713 17.0989 13.9176 17.164 13.8633L19.9078 11.5768C19.9558 11.5368 19.9558 11.4632 19.9078 11.4232L17.164 9.13668C17.0989 9.0824 17 9.12872 17 9.2135V11H12V6H13.7865C13.8713 6 13.9176 5.90111 13.8633 5.83598L11.5768 3.09219C11.5368 3.04421 11.4632 3.04421 11.4232 3.09219L9.13668 5.83598C9.0824 5.90111 9.12872 6 9.2135 6H11Z" stroke="#204A87" stroke-width="2" mask="url(#path-2-outside-1_85_238)"/>
<defs>
<filter id="filter0_f_85_238" x="1" y="15" width="21" height="9" filterUnits="userSpaceOnUse" color-interpolation-filters="sRGB">
<feFlood flood-opacity="0" result="BackgroundImageFix"/>
<feBlend mode="normal" in="SourceGraphic" in2="BackgroundImageFix" result="shape"/>
<feGaussianBlur stdDeviation="1.5" result="effect1_foregroundBlur_85_238"/>
</filter>
<radialGradient id="paint0_radial_85_238" cx="0" cy="0" r="1" gradientUnits="userSpaceOnUse" gradientTransform="translate(11.5 11.5) rotate(90) scale(8 6.98168)">
<stop stop-color="#729FCF"/>
<stop offset="0.5" stop-color="#4C7CB5"/>
<stop offset="0.7" stop-color="#4C7CB5"/>
<stop offset="1" stop-color="#7FB1E6"/>
</radialGradient>
</defs>
</svg>
