<svg width="24" height="24" viewBox="0 0 24 24" fill="none" xmlns="http://www.w3.org/2000/svg">
<g clip-path="url(#clip0_309_47)">
<g filter="url(#filter0_f_309_47)">
<path d="M4 14.8977V19C4 19.5523 4.44771 20 5 20H17.105C17.494 20 17.8478 19.7744 18.0118 19.4216L21.5124 11.8933C22.0308 10.7783 21.4299 9.46398 20.2474 9.12671L10.0155 6.20817C9.58407 6.0851 9.12347 6.26445 8.88885 6.64687L4.14763 14.3748C4.0511 14.5321 4 14.7131 4 14.8977Z" fill="black" fill-opacity="0.3"/>
</g>
<path d="M19.7236 5.32918L19.2764 5.55279L19.7236 5.32918C19.4695 4.821 18.9501 4.5 18.382 4.5H8.55425C8.03706 4.5 7.55636 4.76643 7.28225 5.205L2.728 12.4918C2.579 12.7302 2.5 13.0057 2.5 13.2868V17C2.5 17.8284 3.17157 18.5 4 18.5H15.3672C15.9468 18.5 16.4746 18.166 16.7228 17.6421L20.8474 8.93449L20.3956 8.72044L20.8475 8.93448C20.9479 8.72243 21 8.49072 21 8.25608C21 8.01005 20.9427 7.7674 20.8327 7.54735L19.7236 5.32918Z" fill="url(#paint0_linear_309_47)" stroke="#EF2929"/>
<path d="M14.382 14.5H3.5V13.2868C3.5 13.1931 3.52633 13.1013 3.576 13.0218L8.13025 5.735C8.22162 5.58881 8.38185 5.5 8.55425 5.5H18.382C18.7537 5.5 18.9954 5.89116 18.8292 6.22361L14.8292 14.2236C14.7445 14.393 14.5714 14.5 14.382 14.5Z" fill="url(#paint1_linear_309_47)" stroke="#EDD6D1"/>
</g>
<defs>
<filter id="filter0_f_309_47" x="1" y="3.16972" width="23.6997" height="19.8303" filterUnits="userSpaceOnUse" color-interpolation-filters="sRGB">
<feFlood flood-opacity="0" result="BackgroundImageFix"/>
<feBlend mode="normal" in="SourceGraphic" in2="BackgroundImageFix" result="shape"/>
<feGaussianBlur stdDeviation="1.5" result="effect1_foregroundBlur_309_47"/>
</filter>
<linearGradient id="paint0_linear_309_47" x1="18" y1="5" x2="5" y2="18" gradientUnits="userSpaceOnUse">
<stop stop-color="#F49592"/>
<stop offset="1" stop-color="#FB7474"/>
</linearGradient>
<linearGradient id="paint1_linear_309_47" x1="11" y1="5" x2="11" y2="15" gradientUnits="userSpaceOnUse">
<stop stop-color="#E0ACA3"/>
<stop offset="1" stop-color="#E6A69E"/>
</linearGradient>
<clipPath id="clip0_309_47">
<rect width="24" height="24" fill="white"/>
</clipPath>
</defs>
</svg>
