<svg width="24" height="24" viewBox="0 0 24 24" fill="none" xmlns="http://www.w3.org/2000/svg">
<g filter="url(#filter0_f_433_85)">
<ellipse cx="15" cy="18" rx="7" ry="2" fill="black" fill-opacity="0.25"/>
</g>
<path d="M21.5 11.5C21.5 16.1944 17.6944 20 15 20V17.5C15 17.5 19 16 19 11.5C19 7 15 5.5 15 5.5V3C17.6944 3 21.5 6.80558 21.5 11.5Z" fill="url(#paint0_linear_433_85)"/>
<path d="M12.0854 2.5H12.4389L12.5568 2.16662C12.6943 1.77755 13.0654 1.5 13.5 1.5C14.0523 1.5 14.5 1.94772 14.5 2.5V5.49818V5.83141L14.8076 5.95966C15.2366 6.13857 15.6405 6.36595 16.0125 6.63507L16.3578 6.88484L16.6592 6.58351L18.8284 4.41422C19.219 4.0237 19.8521 4.0237 20.2427 4.41422C20.6332 4.80474 20.6332 5.43791 20.2427 5.82843L17.9178 8.1533L17.6587 8.41235L17.8277 8.73742C18.0518 9.16868 18.225 9.63048 18.3395 10.1149L18.4304 10.5H18.8261H21.5C22.0523 10.5 22.5 10.9477 22.5 11.5C22.5 12.0523 22.0523 12.5 21.5 12.5H18.8261H18.4304L18.3395 12.8851C18.2435 13.2911 18.1063 13.6812 17.9325 14.0508L17.7829 14.3687L18.0314 14.6172L20.2427 16.8284C20.6332 17.219 20.6332 17.8521 20.2427 18.2426C19.8521 18.6332 19.219 18.6332 18.8284 18.2426L16.855 16.2692L16.542 15.9562L16.1934 16.2289C15.7726 16.558 15.3071 16.8321 14.8076 17.0404L14.5 17.1686V17.5019V20.5C14.5 21.0523 14.0523 21.5 13.5 21.5C13.0654 21.5 12.6943 21.2224 12.5568 20.8334L12.4389 20.5H12.0854H10.5C5.52944 20.5 1.5 16.4706 1.5 11.5C1.5 6.52944 5.52944 2.5 10.5 2.5H12.0854Z" fill="url(#paint1_linear_433_85)" stroke="url(#paint2_linear_433_85)"/>
<path d="M10 18C7 18 4 15.0899 4 11.5C4 7.91015 7 5 10 5V18Z" fill="url(#paint3_linear_433_85)"/>
<path d="M12 18C12 17.4477 12.4477 17 13 17V17V21L12 20.5V18Z" fill="#A5A6A2"/>
<path d="M12 5C12 5.55228 12.4477 6 13 6V6V2L12 2.5V5Z" fill="#A5A6A2"/>
<defs>
<filter id="filter0_f_433_85" x="6" y="14" width="18" height="8" filterUnits="userSpaceOnUse" color-interpolation-filters="sRGB">
<feFlood flood-opacity="0" result="BackgroundImageFix"/>
<feBlend mode="normal" in="SourceGraphic" in2="BackgroundImageFix" result="shape"/>
<feGaussianBlur stdDeviation="1" result="effect1_foregroundBlur_433_85"/>
</filter>
<linearGradient id="paint0_linear_433_85" x1="14" y1="11.5" x2="21.5" y2="11.5" gradientUnits="userSpaceOnUse">
<stop stop-color="white" stop-opacity="0.4"/>
<stop offset="1" stop-color="white" stop-opacity="0"/>
</linearGradient>
<linearGradient id="paint1_linear_433_85" x1="1" y1="11.5" x2="23" y2="11.5" gradientUnits="userSpaceOnUse">
<stop offset="0.25" stop-color="#F8F8F7"/>
<stop offset="0.455" stop-color="#EBEDEA" stop-opacity="0.7"/>
<stop offset="0.695" stop-color="#E8E8E8"/>
</linearGradient>
<linearGradient id="paint2_linear_433_85" x1="1" y1="11.5" x2="23" y2="11.5" gradientUnits="userSpaceOnUse">
<stop offset="0.1" stop-color="#8B8B86"/>
<stop offset="0.5" stop-color="#A9AAA6" stop-opacity="0.9"/>
<stop offset="0.85" stop-opacity="0.55"/>
</linearGradient>
<linearGradient id="paint3_linear_433_85" x1="4" y1="11.5" x2="10" y2="11.5" gradientUnits="userSpaceOnUse">
<stop stop-opacity="0.75"/>
<stop offset="1" stop-opacity="0.55"/>
</linearGradient>
</defs>
</svg>
