<svg width="24" height="24" viewBox="0 0 24 24" fill="none" xmlns="http://www.w3.org/2000/svg">
<g clip-path="url(#clip0_54_115)">
<g filter="url(#filter0_f_54_115)">
<ellipse cx="14" cy="20.5" rx="8" ry="1.5" fill="black" fill-opacity="0.35"/>
</g>
<circle cx="10" cy="10" r="8" fill="url(#paint0_radial_54_115)"/>
<path d="M18.9478 17.1828L22.1329 20.3678C22.6202 20.8552 22.6202 21.6454 22.1329 22.1328C21.6455 22.6202 20.8553 22.6202 20.3679 22.1328L17.1828 18.9477C16.6955 18.4603 16.6955 17.6701 17.1828 17.1827C17.6702 16.6954 18.4604 16.6954 18.9478 17.1828Z" fill="url(#paint1_diamond_54_115)"/>
<path d="M18.9478 17.1828L22.1329 20.3678C22.6202 20.8552 22.6202 21.6454 22.1329 22.1328C21.6455 22.6202 20.8553 22.6202 20.3679 22.1328L17.1828 18.9477C16.6955 18.4603 16.6955 17.6701 17.1828 17.1827C17.6702 16.6954 18.4604 16.6954 18.9478 17.1828Z" fill="url(#paint2_linear_54_115)" fill-opacity="0.4"/>
<path d="M18.9478 17.1828L22.1329 20.3678C22.6202 20.8552 22.6202 21.6454 22.1329 22.1328C21.6455 22.6202 20.8553 22.6202 20.3679 22.1328L17.1828 18.9477C16.6955 18.4603 16.6955 17.6701 17.1828 17.1827C17.6702 16.6954 18.4604 16.6954 18.9478 17.1828Z" stroke="url(#paint3_linear_54_115)"/>
<circle cx="10" cy="10" r="7.5" stroke="white" stroke-opacity="0.5"/>
<circle cx="10" cy="10" r="8.5" stroke="#888A85"/>
<rect x="15.7976" y="16.8562" width="1.49693" height="0.995298" transform="rotate(-45 15.7976 16.8562)" fill="url(#paint4_linear_54_115)"/>
</g>
<defs>
<filter id="filter0_f_54_115" x="2" y="15" width="24" height="11" filterUnits="userSpaceOnUse" color-interpolation-filters="sRGB">
<feFlood flood-opacity="0" result="BackgroundImageFix"/>
<feBlend mode="normal" in="SourceGraphic" in2="BackgroundImageFix" result="shape"/>
<feGaussianBlur stdDeviation="2" result="effect1_foregroundBlur_54_115"/>
</filter>
<radialGradient id="paint0_radial_54_115" cx="0" cy="0" r="1" gradientUnits="userSpaceOnUse" gradientTransform="translate(10 4.85714) rotate(90) scale(7.14286 19.5901)">
<stop stop-color="#A5C2E0" stop-opacity="0.7"/>
<stop offset="1" stop-color="#577CAB" stop-opacity="0.7"/>
</radialGradient>
<radialGradient id="paint1_diamond_54_115" cx="0" cy="0" r="1" gradientUnits="userSpaceOnUse" gradientTransform="translate(19.6579 19.6578) rotate(45) scale(4.0002 1.748)">
<stop stop-color="#686967"/>
<stop offset="1" stop-color="#B5B8B1"/>
</radialGradient>
<linearGradient id="paint2_linear_54_115" x1="20.8543" y1="18.3621" x2="18.4472" y2="20.8027" gradientUnits="userSpaceOnUse">
<stop stop-color="white"/>
<stop offset="1" stop-color="white" stop-opacity="0"/>
</linearGradient>
<linearGradient id="paint3_linear_54_115" x1="16.8293" y1="16.8292" x2="22.4864" y2="22.4863" gradientUnits="userSpaceOnUse">
<stop stop-color="#5C5E5A"/>
<stop offset="0.3" stop-color="#5C5E5A"/>
</linearGradient>
<linearGradient id="paint4_linear_54_115" x1="16.5461" y1="16.8562" x2="16.5461" y2="17.8515" gradientUnits="userSpaceOnUse">
<stop stop-color="#888A85"/>
<stop offset="1" stop-color="#5C5E5A"/>
</linearGradient>
<clipPath id="clip0_54_115">
<rect width="24" height="24" fill="white"/>
</clipPath>
</defs>
</svg>
