<svg width="24" height="24" viewBox="0 0 24 24" fill="none" xmlns="http://www.w3.org/2000/svg">
<rect x="6.5" y="7.5" width="11" height="9" rx="1.5" fill="url(#paint0_linear_497_46)" stroke="#ABABAB"/>
<mask id="path-2-outside-1_497_46" maskUnits="userSpaceOnUse" x="9" y="1" width="5" height="6" fill="black">
<rect fill="white" x="9" y="1" width="5" height="6"/>
<path d="M12 4L12 6L11 6L11 4L10 4L11.5 2L13 4L12 4Z"/>
</mask>
<path d="M12 4L12 6L11 6L11 4L10 4L11.5 2L13 4L12 4Z" fill="black"/>
<path d="M12 6L13 6L12 7L12 6ZM12 4L11 4C11 3.44771 11.4477 3 12 3L12 4ZM13 4L13.8 3.4C14.0273 3.70302 14.0638 4.10843 13.8944 4.44721C13.725 4.786 13.3788 5 13 5L13 4ZM11.5 2L10.7 1.4C10.8889 1.14819 11.1852 0.999999 11.5 0.999999C11.8148 0.999999 12.1111 1.14819 12.3 1.4L11.5 2ZM10 4L10 5C9.62123 5 9.27496 4.786 9.10557 4.44721C8.93618 4.10843 8.97274 3.70302 9.2 3.4L10 4ZM11 4L11 3C11.5523 3 12 3.44772 12 4L11 4ZM11 6L11 7L10 6L11 6ZM11 6L11 4L13 4L13 6L11 6ZM12 3L13 3L13 5L12 5L12 3ZM12.2 4.6L10.7 2.6L12.3 1.4L13.8 3.4L12.2 4.6ZM12.3 2.6L10.8 4.6L9.2 3.4L10.7 1.4L12.3 2.6ZM10 3L11 3L11 5L10 5L10 3ZM12 4L12 6L10 6L10 4L12 4ZM11 5L12 5L12 7L11 7L11 5Z" fill="#B5B5B5" mask="url(#path-2-outside-1_497_46)"/>
<mask id="path-4-outside-2_497_46" maskUnits="userSpaceOnUse" x="0" y="9" width="6" height="5" fill="black">
<rect fill="white" y="9" width="6" height="5"/>
<path d="M3 11L5 11L5 12L3 12L3 13L0.999999 11.5L3 10L3 11Z"/>
</mask>
<path d="M3 11L5 11L5 12L3 12L3 13L0.999999 11.5L3 10L3 11Z" fill="black"/>
<path d="M5 11L5 10L6 11L5 11ZM3 11L3 12C2.44771 12 2 11.5523 2 11L3 11ZM3 10L2.4 9.2C2.70302 8.97274 3.10843 8.93618 3.44721 9.10557C3.786 9.27496 4 9.62123 4 10L3 10ZM0.999999 11.5L0.399999 12.3C0.148193 12.1111 -9.44669e-07 11.8148 -9.53674e-07 11.5C-9.6268e-07 11.1852 0.148193 10.8889 0.399999 10.7L0.999999 11.5ZM3 13L4 13C4 13.3788 3.786 13.725 3.44721 13.8944C3.10843 14.0638 2.70302 14.0273 2.4 13.8L3 13ZM3 12L2 12C2 11.4477 2.44772 11 3 11L3 12ZM5 12L6 12L5 13L5 12ZM5 12L3 12L3 10L5 10L5 12ZM2 11L2 10L4 10L4 11L2 11ZM3.6 10.8L1.6 12.3L0.399999 10.7L2.4 9.2L3.6 10.8ZM1.6 10.7L3.6 12.2L2.4 13.8L0.399999 12.3L1.6 10.7ZM2 13L2 12L4 12L4 13L2 13ZM3 11L5 11L5 13L3 13L3 11ZM4 12L4 11L6 11L6 12L4 12Z" fill="#B5B5B5" mask="url(#path-4-outside-2_497_46)"/>
<mask id="path-6-outside-3_497_46" maskUnits="userSpaceOnUse" x="18" y="9" width="6" height="5" fill="black">
<rect fill="white" x="18" y="9" width="6" height="5"/>
<path d="M21 11L19 11L19 12L21 12L21 13L23 11.5L21 10L21 11Z"/>
</mask>
<path d="M21 11L19 11L19 12L21 12L21 13L23 11.5L21 10L21 11Z" fill="black"/>
<path d="M19 11L19 10L18 11L19 11ZM21 11L21 12C21.5523 12 22 11.5523 22 11L21 11ZM21 10L21.6 9.2C21.297 8.97274 20.8916 8.93618 20.5528 9.10557C20.214 9.27496 20 9.62123 20 10L21 10ZM23 11.5L23.6 12.3C23.8518 12.1111 24 11.8148 24 11.5C24 11.1852 23.8518 10.8889 23.6 10.7L23 11.5ZM21 13L20 13C20 13.3788 20.214 13.725 20.5528 13.8944C20.8916 14.0638 21.297 14.0273 21.6 13.8L21 13ZM21 12L22 12C22 11.4477 21.5523 11 21 11L21 12ZM19 12L18 12L19 13L19 12ZM19 12L21 12L21 10L19 10L19 12ZM22 11L22 10L20 10L20 11L22 11ZM20.4 10.8L22.4 12.3L23.6 10.7L21.6 9.2L20.4 10.8ZM22.4 10.7L20.4 12.2L21.6 13.8L23.6 12.3L22.4 10.7ZM22 13L22 12L20 12L20 13L22 13ZM21 11L19 11L19 13L21 13L21 11ZM20 12L20 11L18 11L18 12L20 12Z" fill="#B5B5B5" mask="url(#path-6-outside-3_497_46)"/>
<mask id="path-8-outside-4_497_46" maskUnits="userSpaceOnUse" x="9" y="17" width="5" height="6" fill="black">
<rect fill="white" x="9" y="17" width="5" height="6"/>
<path d="M12 20L12 18L11 18L11 20L10 20L11.5 22L13 20L12 20Z"/>
</mask>
<path d="M12 20L12 18L11 18L11 20L10 20L11.5 22L13 20L12 20Z" fill="black"/>
<path d="M12 18L13 18L12 17L12 18ZM12 20L11 20C11 20.5523 11.4477 21 12 21L12 20ZM13 20L13.8 20.6C14.0273 20.297 14.0638 19.8916 13.8944 19.5528C13.725 19.214 13.3788 19 13 19L13 20ZM11.5 22L10.7 22.6C10.8889 22.8518 11.1852 23 11.5 23C11.8148 23 12.1111 22.8518 12.3 22.6L11.5 22ZM10 20L10 19C9.62123 19 9.27496 19.214 9.10557 19.5528C8.93618 19.8916 8.97274 20.297 9.2 20.6L10 20ZM11 20L11 21C11.5523 21 12 20.5523 12 20L11 20ZM11 18L11 17L10 18L11 18ZM11 18L11 20L13 20L13 18L11 18ZM12 21L13 21L13 19L12 19L12 21ZM12.2 19.4L10.7 21.4L12.3 22.6L13.8 20.6L12.2 19.4ZM12.3 21.4L10.8 19.4L9.2 20.6L10.7 22.6L12.3 21.4ZM10 21L11 21L11 19L10 19L10 21ZM12 20L12 18L10 18L10 20L12 20ZM11 19L12 19L12 17L11 17L11 19Z" fill="#B5B5B5" mask="url(#path-8-outside-4_497_46)"/>
<defs>
<linearGradient id="paint0_linear_497_46" x1="12" y1="7" x2="12" y2="17" gradientUnits="userSpaceOnUse">
<stop stop-color="#E3E3E3"/>
<stop offset="1" stop-color="#F2F2F3"/>
</linearGradient>
</defs>
</svg>
