<?xml version="1.0" encoding="UTF-8" standalone="no"?>
<svg
   width="24"
   height="24"
   viewBox="0 0 24 24"
   fill="none"
   version="1.1"
   id="svg5"
   xmlns="http://www.w3.org/2000/svg"
   xmlns:svg="http://www.w3.org/2000/svg">
  <g
     filter="url(#filter0_f_454_162)"
     id="g1">
    <path
       d="M 12.5,18 C 17.1944,18 21,15.9853 21,13.5 21,11.0147 17.1944,16 12.5,16 7.80558,16 4,11.0147 4,13.5 4,15.9853 7.80558,18 12.5,18 Z"
       fill="#000000"
       fill-opacity="0.2"
       id="path1" />
  </g>
  <path
     d="m 21.5,11.5 c 0,1.8784 -1.014,3.6171 -2.7289,4.9033 C 17.056,17.6896 14.6637,18.5 12,18.5 9.3363,18.5 6.94402,17.6896 5.22893,16.4033 3.514,15.1171 2.5,13.3784 2.5,11.5 2.5,9.6216 3.514,7.8829 5.22893,6.5967 6.94402,5.31039 9.3363,4.5 12,4.5 c 2.6637,0 5.056,0.81039 6.7711,2.0967 C 20.486,7.8829 21.5,9.6216 21.5,11.5 Z"
     stroke="#dcdcdc"
     id="path2" />
  <path
     d="m 12.009,18.4909 c 5.2467,0 9.5,-3.1299 9.5,-6.9909 0,-3.86093 -4.2533,-6.99084 -9.5,-6.99084 -5.24667,0 -9.49997,3.12991 -9.49997,6.99084 0,3.861 4.2533,6.9909 9.49997,6.9909 z"
     stroke="#1f1f1f"
     stroke-opacity="0.8"
     stroke-linecap="round"
     stroke-dasharray="1 2"
     id="path3"
     style="stroke-dasharray:1, 2.25;stroke-dashoffset:0.45" />
  <path
     d="m 20,11.5 c 0,1.4725 -0.8502,2.8375 -2.2933,3.8491 C 16.2631,16.361 14.2472,17 12,17 9.75281,17 7.73686,16.361 6.29332,15.3491 4.85024,14.3375 4,12.9725 4,11.5 4,10.0274 4.85024,8.66247 6.29332,7.6509 7.73686,6.63901 9.75281,6 12,6 14.2472,6 16.2631,6.63901 17.7067,7.6509 19.1498,8.66247 20,10.0274 20,11.5 Z"
     fill="url(#paint0_linear_454_162)"
     id="path4"
     style="fill:url(#paint0_linear_454_162)" />
  <defs
     id="defs5">
    <filter
       id="filter0_f_454_162"
       x="2"
       y="10.8057"
       width="21"
       height="9.1943398"
       filterUnits="userSpaceOnUse"
       color-interpolation-filters="sRGB">
      <feFlood
         flood-opacity="0"
         result="BackgroundImageFix"
         id="feFlood4" />
      <feBlend
         mode="normal"
         in="SourceGraphic"
         in2="BackgroundImageFix"
         result="shape"
         id="feBlend4" />
      <feGaussianBlur
         stdDeviation="1"
         result="effect1_foregroundBlur_454_162"
         id="feGaussianBlur4" />
    </filter>
    <linearGradient
       id="paint0_linear_454_162"
       x1="7.1999998"
       y1="7"
       x2="16.1991"
       y2="16.5653"
       gradientUnits="userSpaceOnUse">
      <stop
         stop-color="#DADCD8"
         id="stop4" />
      <stop
         offset="1"
         stop-color="#C3C6C0"
         id="stop5" />
    </linearGradient>
  </defs>
</svg>
