<svg width="24" height="24" viewBox="0 0 24 24" fill="none" xmlns="http://www.w3.org/2000/svg">
<rect x="1.5" y="1.5" width="21" height="21" fill="#F7F7F6" stroke="#888A85"/>
<rect x="3" y="3" width="18" height="18" fill="#D9D9D9"/>
<mask id="path-3-inside-1_103_299" fill="white">
<path d="M4 4H20V7H4V4Z"/>
</mask>
<path d="M4 4H20V7H4V4Z" fill="#555753"/>
<path d="M20 7V8H21V7H20ZM19 4V7H21V4H19ZM20 6H4V8H20V6Z" fill="white" mask="url(#path-3-inside-1_103_299)"/>
<mask id="path-5-inside-2_103_299" fill="white">
<path d="M4 10H20V13H4V10Z"/>
</mask>
<path d="M4 10H20V13H4V10Z" fill="#555753"/>
<path d="M20 13V14H21V13H20ZM19 10V13H21V10H19ZM20 12H4V14H20V12Z" fill="white" mask="url(#path-5-inside-2_103_299)"/>
<mask id="path-7-inside-3_103_299" fill="white">
<path d="M4 16H20V19H4V16Z"/>
</mask>
<path d="M4 16H20V19H4V16Z" fill="#555753"/>
<path d="M20 19V20H21V19H20ZM19 16V19H21V16H19ZM20 18H4V20H20V18Z" fill="white" mask="url(#path-7-inside-3_103_299)"/>
<rect x="4" y="4" width="16" height="1" fill="#858585" fill-opacity="0.61"/>
<rect x="4" y="10" width="16" height="1" fill="#858585" fill-opacity="0.61"/>
<rect x="4" y="16" width="16" height="1" fill="#858585" fill-opacity="0.61"/>
<rect x="4" y="17" width="1" height="2" fill="#858585" fill-opacity="0.61"/>
<rect x="4" y="11" width="1" height="2" fill="#858585" fill-opacity="0.61"/>
<rect x="4" y="5" width="1" height="2" fill="#858585" fill-opacity="0.61"/>
<rect x="8.5" y="3.5" width="5" height="4" rx="1.5" fill="#EF2929" stroke="#A40000"/>
<rect x="11.5" y="9.5" width="5" height="4" rx="1.5" fill="#8AE234" stroke="#4E9A06"/>
<rect x="14.5" y="15.5" width="5" height="4" rx="1.5" fill="#729FCF" stroke="#204A87"/>
<rect x="10" y="5" width="2" height="1" fill="#CC0000"/>
<rect x="13" y="11" width="2" height="1" fill="#73D216"/>
<rect x="16" y="17" width="2" height="1" fill="#3465A4"/>
</svg>
