<svg width="24" height="24" viewBox="0 0 24 24" fill="none" xmlns="http://www.w3.org/2000/svg">
<rect x="1" y="1" width="22" height="22" fill="#888A85"/>
<rect x="2.5" y="2.5" width="19" height="19" fill="url(#paint0_linear_246_220)" stroke="#FAFAFA"/>
<path d="M19 8.3932V15.0001H5V13.0001L11 5.97791C12.5 5.97791 11.9123 9.00878 12.5 9.00009C13.6558 8.983 13.5 5.00009 14.5 5.00009C15.5 5.00009 14.9996 9.01119 15.5 9.00009C16.5 8.97791 15.5972 6.02012 16.5 6.00009C17.5 5.97791 17 9.97791 17.5 10.0001C18.4993 10.0444 17.5 7.37096 18.5 7.3932C19.0004 7.40433 19 8.3932 19 8.3932Z" fill="#3465A4"/>
<g filter="url(#filter0_d_246_220)">
<path d="M8.75736 6H5V12H6L8.73012 14.3401C9.15357 14.7031 9.7921 14.6495 10.1491 14.221L12 12L13.5858 13.5858C13.851 13.851 14.2107 14 14.5858 14C15.3668 14 16 13.3668 16 12.5858C16 12.2107 15.851 11.851 15.5858 11.5858L10.8787 6.87868C10.3161 6.31607 9.55301 6 8.75736 6Z" fill="url(#paint1_linear_246_220)"/>
<path d="M6 11.5H5.5V6.5H8.75736C9.4204 6.5 10.0563 6.76339 10.5251 7.23223L15.2322 11.9393C15.4037 12.1108 15.5 12.3433 15.5 12.5858C15.5 13.0907 15.0907 13.5 14.5858 13.5C14.3433 13.5 14.1108 13.4037 13.9393 13.2322L12.3536 11.6464L11.9664 11.2593L11.6159 11.6799L9.76503 13.9009C9.58651 14.1152 9.26725 14.142 9.05552 13.9605L6.3254 11.6204L6.18496 11.5H6Z" stroke="#F57900"/>
</g>
<path d="M2.5 6.5H5.5V12.5H4C3.17157 12.5 2.5 11.8284 2.5 11V6.5Z" fill="#E8E8E8" stroke="#888A85"/>
<mask id="path-7-inside-1_246_220" fill="white">
<path d="M9.92176 9.13875C10.0668 8.98594 10.3082 8.97962 10.461 9.12463L11.9976 10.5828L11.4725 11.1362L9.93588 9.67801C9.78307 9.533 9.77674 9.29156 9.92176 9.13875Z"/>
</mask>
<path d="M11.9976 10.5828L12.723 11.2712L13.4114 10.5458L12.686 9.85745L11.9976 10.5828ZM11.4725 11.1362L10.7841 11.8616L11.5095 12.5499L12.1979 11.8246L11.4725 11.1362ZM9.77266 9.85L11.3093 11.3082L12.686 9.85745L11.1494 8.39926L9.77266 9.85ZM11.2723 9.89447L10.7471 10.4479L12.1979 11.8246L12.723 11.2712L11.2723 9.89447ZM12.1609 10.4108L10.6242 8.95264L9.24752 10.4034L10.7841 11.8616L12.1609 10.4108ZM10.6242 8.95264C10.872 9.18779 10.8823 9.5793 10.6471 9.82711L9.19638 8.4504C8.6712 9.00382 8.6941 9.87821 9.24752 10.4034L10.6242 8.95264ZM11.1494 8.39926C10.5959 7.87407 9.72156 7.89697 9.19638 8.4504L10.6471 9.82711C10.412 10.0749 10.0205 10.0852 9.77266 9.85L11.1494 8.39926Z" fill="#F57900" mask="url(#path-7-inside-1_246_220)"/>
<mask id="path-9-inside-2_246_220" fill="white">
<path d="M8.984 10.2447C9.12605 10.095 9.36256 10.0888 9.51225 10.2308L11.054 11.6939L10.5396 12.236L8.99783 10.7729C8.84814 10.6309 8.84195 10.3944 8.984 10.2447Z"/>
</mask>
<path d="M11.054 11.6939L11.7794 12.3823L12.4677 11.6569L11.7424 10.9685L11.054 11.6939ZM10.5396 12.236L9.85122 12.9614L10.5766 13.6497L11.2649 12.9243L10.5396 12.236ZM8.8239 10.9562L10.3656 12.4193L11.7424 10.9685L10.2006 9.50547L8.8239 10.9562ZM10.3286 11.0055L9.8142 11.5476L11.2649 12.9243L11.7794 12.3823L10.3286 11.0055ZM11.2279 11.5106L9.68619 10.0476L8.30948 11.4983L9.85122 12.9614L11.2279 11.5106ZM9.68619 10.0476C9.93711 10.2857 9.94749 10.6821 9.70937 10.933L8.25863 9.55632C7.7364 10.1066 7.75917 10.9761 8.30948 11.4983L9.68619 10.0476ZM10.2006 9.50547C9.6503 8.98325 8.78085 9.00602 8.25863 9.55632L9.70937 10.933C9.47126 11.184 9.07482 11.1943 8.8239 10.9562L10.2006 9.50547Z" fill="#F57900" mask="url(#path-9-inside-2_246_220)"/>
<mask id="path-11-inside-3_246_220" fill="white">
<path d="M8.11423 11.2496C8.2565 11.0997 8.49336 11.0935 8.64328 11.2357L10.193 12.7064L9.67781 13.2493L8.12808 11.7786C7.97817 11.6364 7.97196 11.3995 8.11423 11.2496Z"/>
</mask>
<path d="M10.193 12.7064L10.9184 13.3947L11.6067 12.6694L10.8814 11.981L10.193 12.7064ZM9.67781 13.2493L8.98946 13.9747L9.71483 14.663L10.4032 13.9376L9.67781 13.2493ZM7.95492 11.9611L9.50465 13.4318L10.8814 11.981L9.33163 10.5104L7.95492 11.9611ZM9.46763 12.018L8.95244 12.5609L10.4032 13.9376L10.9184 13.3947L9.46763 12.018ZM10.3662 12.5239L8.81644 11.0533L7.43973 12.504L8.98946 13.9747L10.3662 12.5239ZM8.81644 11.0533C9.06713 11.2912 9.07751 11.6873 8.8396 11.938L7.38886 10.5612C6.86642 11.1118 6.8892 11.9816 7.43973 12.504L8.81644 11.0533ZM9.33163 10.5104C8.7811 9.98794 7.91129 10.0107 7.38886 10.5612L8.8396 11.938C8.6017 12.1886 8.20562 12.199 7.95492 11.9611L9.33163 10.5104Z" fill="#F57900" mask="url(#path-11-inside-3_246_220)"/>
<path d="M5 17V19H19V17H18V18H13V17H12V18H6V17H5Z" fill="#888A85"/>
<defs>
<filter id="filter0_d_246_220" x="0" y="4" width="17" height="14.5809" filterUnits="userSpaceOnUse" color-interpolation-filters="sRGB">
<feFlood flood-opacity="0" result="BackgroundImageFix"/>
<feColorMatrix in="SourceAlpha" type="matrix" values="0 0 0 0 0 0 0 0 0 0 0 0 0 0 0 0 0 0 127 0" result="hardAlpha"/>
<feOffset dx="-2" dy="1"/>
<feGaussianBlur stdDeviation="1.5"/>
<feComposite in2="hardAlpha" operator="out"/>
<feColorMatrix type="matrix" values="0 0 0 0 0 0 0 0 0 0 0 0 0 0 0 0 0 0 0.2 0"/>
<feBlend mode="normal" in2="BackgroundImageFix" result="effect1_dropShadow_246_220"/>
<feBlend mode="normal" in="SourceGraphic" in2="effect1_dropShadow_246_220" result="shape"/>
</filter>
<linearGradient id="paint0_linear_246_220" x1="3" y1="3" x2="21" y2="21" gradientUnits="userSpaceOnUse">
<stop stop-color="#D8D8D8"/>
<stop offset="1" stop-color="white"/>
</linearGradient>
<linearGradient id="paint1_linear_246_220" x1="7.12858" y1="6.8668" x2="12" y2="13" gradientUnits="userSpaceOnUse">
<stop stop-color="#FFD291"/>
<stop offset="1" stop-color="#FCC779"/>
</linearGradient>
</defs>
</svg>
