<svg width="22" height="22" viewBox="0 0 22 22" fill="none" xmlns="http://www.w3.org/2000/svg">
<g clip-path="url(#clip0_132_265)">
<g filter="url(#filter0_f_132_265)">
<ellipse cx="12" cy="20" rx="10" ry="1" fill="black" fill-opacity="0.65"/>
</g>
<g clip-path="url(#clip1_132_265)">
<rect x="1" width="20" height="20" fill="white"/>
<circle cx="5" cy="16" r="10" fill="url(#paint0_radial_132_265)"/>
<ellipse cx="1.5" cy="10" rx="9.5" ry="11" fill="url(#paint1_radial_132_265)"/>
<ellipse cx="18" cy="2.5" rx="10" ry="10.5" fill="url(#paint2_radial_132_265)"/>
<ellipse cx="21.5" cy="10" rx="10.5" ry="11" fill="url(#paint3_radial_132_265)"/>
<circle cx="18" cy="16" r="10" fill="url(#paint4_radial_132_265)"/>
<ellipse cx="12" cy="18.5" rx="10" ry="10.5" fill="url(#paint5_radial_132_265)"/>
<ellipse cx="5" cy="2.5" rx="10" ry="10.5" fill="url(#paint6_radial_132_265)"/>
<ellipse cx="12" cy="1.5" rx="10" ry="10.5" fill="url(#paint7_radial_132_265)"/>
<rect x="2.5" y="1.5" width="17" height="17" stroke="white" stroke-opacity="0.6"/>
<rect x="1.5" y="0.5" width="19" height="19" stroke="black" stroke-opacity="0.6"/>
<g filter="url(#filter1_d_132_265)">
<path d="M11 9H6V12H11V15L15.9333 11.3C16.4667 10.9 16.4667 10.1 15.9333 9.7L11 6V9Z" fill="white"/>
<path d="M11 11.5H6.5V9.5H11H11.5V9V7L15.6333 10.1C15.9 10.3 15.9 10.7 15.6333 10.9L11.5 14V12V11.5H11Z" stroke="#3465A4"/>
</g>
</g>
</g>
<defs>
<filter id="filter0_f_132_265" x="-2" y="15" width="28" height="10" filterUnits="userSpaceOnUse" color-interpolation-filters="sRGB">
<feFlood flood-opacity="0" result="BackgroundImageFix"/>
<feBlend mode="normal" in="SourceGraphic" in2="BackgroundImageFix" result="shape"/>
<feGaussianBlur stdDeviation="2" result="effect1_foregroundBlur_132_265"/>
</filter>
<filter id="filter1_d_132_265" x="2" y="3" width="18.3333" height="17" filterUnits="userSpaceOnUse" color-interpolation-filters="sRGB">
<feFlood flood-opacity="0" result="BackgroundImageFix"/>
<feColorMatrix in="SourceAlpha" type="matrix" values="0 0 0 0 0 0 0 0 0 0 0 0 0 0 0 0 0 0 127 0" result="hardAlpha"/>
<feOffset dy="1"/>
<feGaussianBlur stdDeviation="2"/>
<feComposite in2="hardAlpha" operator="out"/>
<feColorMatrix type="matrix" values="0 0 0 0 0 0 0 0 0 0 0 0 0 0 0 0 0 0 0.25 0"/>
<feBlend mode="normal" in2="BackgroundImageFix" result="effect1_dropShadow_132_265"/>
<feBlend mode="normal" in="SourceGraphic" in2="effect1_dropShadow_132_265" result="shape"/>
</filter>
<radialGradient id="paint0_radial_132_265" cx="0" cy="0" r="1" gradientUnits="userSpaceOnUse" gradientTransform="translate(5 16) rotate(90) scale(10)">
<stop stop-color="#7CFF30"/>
<stop offset="1" stop-color="#7CFF30" stop-opacity="0"/>
</radialGradient>
<radialGradient id="paint1_radial_132_265" cx="0" cy="0" r="1" gradientUnits="userSpaceOnUse" gradientTransform="translate(1.5 10) rotate(90) scale(11 9.5)">
<stop stop-color="#FFF124"/>
<stop offset="1" stop-color="#FFF124" stop-opacity="0"/>
</radialGradient>
<radialGradient id="paint2_radial_132_265" cx="0" cy="0" r="1" gradientUnits="userSpaceOnUse" gradientTransform="translate(18 2.5) rotate(90) scale(10.5 10)">
<stop stop-color="#FF1BC3" stop-opacity="0.6"/>
<stop offset="1" stop-color="#FF1BC3" stop-opacity="0"/>
</radialGradient>
<radialGradient id="paint3_radial_132_265" cx="0" cy="0" r="1" gradientUnits="userSpaceOnUse" gradientTransform="translate(21.5 10) rotate(90) scale(11 10.5)">
<stop stop-color="#831FFF" stop-opacity="0.4"/>
<stop offset="1" stop-color="#831FFF" stop-opacity="0"/>
</radialGradient>
<radialGradient id="paint4_radial_132_265" cx="0" cy="0" r="1" gradientUnits="userSpaceOnUse" gradientTransform="translate(18 16) rotate(90) scale(10)">
<stop stop-color="#29A3FF"/>
<stop offset="1" stop-color="#29A3FF" stop-opacity="0"/>
</radialGradient>
<radialGradient id="paint5_radial_132_265" cx="0" cy="0" r="1" gradientUnits="userSpaceOnUse" gradientTransform="translate(12 18.5) rotate(90) scale(10.5 10)">
<stop stop-color="#1DFF51"/>
<stop offset="1" stop-color="#1DFF51" stop-opacity="0"/>
</radialGradient>
<radialGradient id="paint6_radial_132_265" cx="0" cy="0" r="1" gradientUnits="userSpaceOnUse" gradientTransform="translate(5 2.5) rotate(90) scale(10.5 10)">
<stop stop-color="#FFAC27"/>
<stop offset="1" stop-color="#FFAC27" stop-opacity="0"/>
</radialGradient>
<radialGradient id="paint7_radial_132_265" cx="0" cy="0" r="1" gradientUnits="userSpaceOnUse" gradientTransform="translate(12 1.5) rotate(90) scale(10.5 10)">
<stop stop-color="#FF3D26" stop-opacity="0.6"/>
<stop offset="1" stop-color="#FF3D26" stop-opacity="0"/>
</radialGradient>
<clipPath id="clip0_132_265">
<rect width="22" height="22" fill="white"/>
</clipPath>
<clipPath id="clip1_132_265">
<rect width="20" height="20" fill="white" transform="translate(1)"/>
</clipPath>
</defs>
</svg>
