<svg width="24" height="24" viewBox="0 0 24 24" fill="none" xmlns="http://www.w3.org/2000/svg">
<mask id="path-1-inside-1_302_50" fill="white">
<path d="M16.5088 15.3928L13.75 10.75L10.75 13.75L15.4142 18.4142C15.7893 18.7893 16.298 19 16.8284 19H18.0388C18.6463 19 19.2209 18.7238 19.6005 18.2494L20.7256 16.843C20.9064 16.617 21.1341 16.433 21.3929 16.3036L23 15.5V13H21.4333C19.9651 13 18.6463 13.8979 18.1082 15.2639C17.8359 15.955 16.8882 16.0314 16.5088 15.3928Z"/>
</mask>
<path d="M16.5088 15.3928L13.75 10.75L10.75 13.75L15.4142 18.4142C15.7893 18.7893 16.298 19 16.8284 19H18.0388C18.6463 19 19.2209 18.7238 19.6005 18.2494L20.7256 16.843C20.9064 16.617 21.1341 16.433 21.3929 16.3036L23 15.5V13H21.4333C19.9651 13 18.6463 13.8979 18.1082 15.2639C17.8359 15.955 16.8882 16.0314 16.5088 15.3928Z" stroke="url(#paint0_linear_302_50)" stroke-width="2" mask="url(#path-1-inside-1_302_50)"/>
<path d="M8.91518 9.03068C8.81428 8.93644 8.81438 8.7776 8.91201 8.67997L10.6798 6.9122C10.7774 6.81457 10.9362 6.81447 11.0305 6.91538C12.194 8.16121 12.6855 9.56834 12.1268 10.127C11.5681 10.6857 10.161 10.1942 8.91518 9.03068Z" fill="url(#paint1_linear_302_50)"/>
<mask id="path-3-inside-2_302_50" fill="white">
<path d="M10.6916 15.8145L8.94915 17.5569C8.36421 18.1419 6.97482 18.5849 6.38988 18C5.80494 17.4151 6.24596 16.0236 6.8309 15.4387C7.16741 15.1022 7.26332 14.6046 7.32017 14.1321C7.3718 13.7031 7.56226 13.2875 7.89156 12.9582L12.4872 8.36261L15.3156 11.191L10.72 15.7866C10.7106 15.796 10.7011 15.8053 10.6916 15.8145Z"/>
</mask>
<path d="M10.6916 15.8145L8.94915 17.5569C8.36421 18.1419 6.97482 18.5849 6.38988 18C5.80494 17.4151 6.24596 16.0236 6.8309 15.4387C7.16741 15.1022 7.26332 14.6046 7.32017 14.1321C7.3718 13.7031 7.56226 13.2875 7.89156 12.9582L12.4872 8.36261L15.3156 11.191L10.72 15.7866C10.7106 15.796 10.7011 15.8053 10.6916 15.8145Z" fill="url(#paint2_linear_302_50)" stroke="#555753" stroke-width="2" mask="url(#path-3-inside-2_302_50)"/>
<path d="M15.7429 15.9241L13.34 11.75L11.75 13.34L16.107 17.7064C16.2946 17.8944 16.5493 18 16.8149 18L18.0394 18C18.3432 18 18.6305 17.8619 18.8202 17.6247L19.9387 16.2266C20.2161 15.8798 20.567 15.599 20.9661 15.4044L22 14.9V14L21.5442 13.9902C20.4172 13.966 19.3936 14.6443 18.9767 15.6917C18.4198 17.0906 16.4941 17.229 15.7429 15.9241Z" fill="url(#paint3_linear_302_50)"/>
<mask id="path-5-inside-3_302_50" fill="white">
<path d="M11.7778 9.07031L18.141 2.7071C18.5316 2.31658 19.1647 2.31658 19.5553 2.7071L20.9695 4.12131C21.36 4.51184 21.36 5.145 20.9695 5.53553L14.6063 11.8987L11.7778 9.07031Z"/>
</mask>
<path d="M11.7778 9.07031L18.141 2.7071C18.5316 2.31658 19.1647 2.31658 19.5553 2.7071L20.9695 4.12131C21.36 4.51184 21.36 5.145 20.9695 5.53553L14.6063 11.8987L11.7778 9.07031Z" fill="url(#paint4_linear_302_50)" stroke="#2E3436" stroke-width="2" mask="url(#path-5-inside-3_302_50)"/>
<path d="M1 20.5L5.62703 18.3295C5.80187 18.2475 5.9799 18.4364 5.88769 18.6061L3.5 23.0002H1V20.5Z" fill="url(#paint5_linear_302_50)"/>
<mask id="path-7-outside-4_302_50" maskUnits="userSpaceOnUse" x="6.11475" y="15" width="4" height="4" fill="black">
<rect fill="white" x="6.11475" y="15" width="4" height="4"/>
<path d="M8.4122 16.5C8.412 17.0508 7.20117 17.3554 7.13227 17.27C7.04365 17.1602 7.28926 16.0195 7.9122 16C8.18834 16 8.4122 16.2239 8.4122 16.5Z"/>
</mask>
<path d="M8.4122 16.5C8.412 17.0508 7.20117 17.3554 7.13227 17.27C7.04365 17.1602 7.28926 16.0195 7.9122 16C8.18834 16 8.4122 16.2239 8.4122 16.5Z" fill="white"/>
<path d="M8.4122 16.5C8.412 17.0508 7.20117 17.3554 7.13227 17.27C7.04365 17.1602 7.28926 16.0195 7.9122 16C8.18834 16 8.4122 16.2239 8.4122 16.5Z" stroke="url(#paint6_linear_302_50)" stroke-opacity="0.6" stroke-width="2" mask="url(#path-7-outside-4_302_50)"/>
<defs>
<linearGradient id="paint0_linear_302_50" x1="14" y1="12.5" x2="22.104" y2="16.398" gradientUnits="userSpaceOnUse">
<stop stop-color="#555753"/>
<stop offset="0.501487" stop-opacity="0.45"/>
<stop offset="1" stop-color="#3E3E3E" stop-opacity="0.1"/>
</linearGradient>
<linearGradient id="paint1_linear_302_50" x1="9.79991" y1="7.79207" x2="11.029" y2="10.6084" gradientUnits="userSpaceOnUse">
<stop stop-color="#2E3436" stop-opacity="0.85"/>
<stop offset="1" stop-color="#2E3436" stop-opacity="0.36"/>
</linearGradient>
<linearGradient id="paint2_linear_302_50" x1="10.0125" y1="12.4818" x2="11.4875" y2="13.5182" gradientUnits="userSpaceOnUse">
<stop offset="0.15" stop-color="white"/>
<stop offset="1" stop-color="#D3D3D3"/>
</linearGradient>
<linearGradient id="paint3_linear_302_50" x1="12.5076" y1="12.4999" x2="21" y2="16.5" gradientUnits="userSpaceOnUse">
<stop stop-color="#D3D3D3"/>
<stop offset="0.501487" stop-color="#929292"/>
<stop offset="1" stop-color="#929292" stop-opacity="0"/>
</linearGradient>
<linearGradient id="paint4_linear_302_50" x1="16.2226" y1="6.27735" x2="17.5648" y2="7.6296" gradientUnits="userSpaceOnUse">
<stop offset="0.15" stop-color="#737571"/>
<stop offset="0.5" stop-color="#2E3436"/>
<stop offset="0.85" stop-color="#454947"/>
</linearGradient>
<linearGradient id="paint5_linear_302_50" x1="6" y1="18" x2="1" y2="23" gradientUnits="userSpaceOnUse">
<stop offset="0.2" stop-color="#385A90"/>
<stop offset="1" stop-color="#385A90" stop-opacity="0"/>
</linearGradient>
<linearGradient id="paint6_linear_302_50" x1="7.52757" y1="16.8337" x2="8.27224" y2="16.1663" gradientUnits="userSpaceOnUse">
<stop stop-color="#555753"/>
<stop offset="1" stop-color="#8C9385"/>
</linearGradient>
</defs>
</svg>
