<svg width="24" height="24" viewBox="0 0 24 24" fill="none" xmlns="http://www.w3.org/2000/svg">
<g clip-path="url(#clip0_54_120)">
<path d="M4.6453 7.64636L4.29117 8.00034L4.64565 8.35396L5.14687 8.85397L5.48399 9.19028L5.83634 8.86996C8.58603 6.37024 10.6287 5.0027 12.1812 4.6232C12.936 4.43868 13.5483 4.49473 14.0726 4.74615C14.5788 4.98894 15.0538 5.43835 15.5019 6.14633C15.5087 6.33778 15.5292 6.50787 15.5664 6.65548C15.6114 6.83401 15.6925 7.02616 15.8498 7.16933C16.0267 7.3304 16.2448 7.37959 16.445 7.35138C16.6234 7.32625 16.7718 7.24358 16.8775 7.16878C17.0906 7.01803 17.2724 6.79748 17.3918 6.61247C17.4529 6.51778 17.5101 6.41338 17.5493 6.31116C17.5685 6.26103 17.5895 6.19551 17.5998 6.12231C17.608 6.06386 17.6217 5.92049 17.5442 5.77045C16.6852 4.10782 15.6193 3.13914 14.4057 2.74311C13.2001 2.34964 11.9426 2.5525 10.7583 3.03695C8.4111 3.99713 6.13828 6.15399 4.6453 7.64636Z" fill="white" stroke="#888A85"/>
<path d="M6.5 2V1.5H6H3H2.5V2V5V5.5H3H3.5V9.5H3H2.5V10V13V13.5H3H3.5V18.5H3H2.5V19V22V22.5H3H6H6.5V22V19V18.5H6H5.5V13.5H6H6.5V13V10V9.5H6H5.5V5.5H6H6.5V5V2Z" fill="white" stroke="#888A85"/>
<g filter="url(#filter0_f_54_120)">
<path d="M20.689 15.8512L18.7181 17.7248C18.5322 17.9015 18.2856 18 18.0291 18H14.9709C14.7144 18 14.4678 17.9015 14.2819 17.7248L12.311 15.8512C12.1124 15.6624 12 15.4004 12 15.1264V14.5429C12 14.4047 12.0286 14.268 12.0841 14.1414L15.2143 7H16.5H17.7857L20.9159 14.1414C20.9714 14.268 21 14.4047 21 14.5429V15.1264C21 15.4004 20.8876 15.6624 20.689 15.8512Z" fill="black" fill-opacity="0.5"/>
</g>
<path d="M15.5 6.5H15.1667L15.0385 6.80769L12.6154 12.6231C12.5392 12.8059 12.5 13.002 12.5 13.2V13.5858C12.5 13.9836 12.658 14.3651 12.9393 14.6464L14.3536 16.0607C14.6349 16.342 15.0164 16.5 15.4142 16.5H17.5858C17.9836 16.5 18.3651 16.342 18.6464 16.0607L20.0607 14.6464C20.342 14.3651 20.5 13.9836 20.5 13.5858V13.2C20.5 13.002 20.4608 12.8059 20.3846 12.6231L19.9231 12.8154L20.3846 12.6231L17.9615 6.80769L17.8333 6.5H17.5H16.5H15.5Z" fill="url(#paint0_linear_54_120)"/>
<path d="M15.5 6.5H15.1667L15.0385 6.80769L12.6154 12.6231C12.5392 12.8059 12.5 13.002 12.5 13.2V13.5858C12.5 13.9836 12.658 14.3651 12.9393 14.6464L14.3536 16.0607C14.6349 16.342 15.0164 16.5 15.4142 16.5H17.5858C17.9836 16.5 18.3651 16.342 18.6464 16.0607L20.0607 14.6464C20.342 14.3651 20.5 13.9836 20.5 13.5858V13.2C20.5 13.002 20.4608 12.8059 20.3846 12.6231L19.9231 12.8154L20.3846 12.6231L17.9615 6.80769L17.8333 6.5H17.5H16.5H15.5Z" fill="url(#paint1_radial_54_120)"/>
<path d="M15.5 6.5H15.1667L15.0385 6.80769L12.6154 12.6231C12.5392 12.8059 12.5 13.002 12.5 13.2V13.5858C12.5 13.9836 12.658 14.3651 12.9393 14.6464L14.3536 16.0607C14.6349 16.342 15.0164 16.5 15.4142 16.5H17.5858C17.9836 16.5 18.3651 16.342 18.6464 16.0607L20.0607 14.6464C20.342 14.3651 20.5 13.9836 20.5 13.5858V13.2C20.5 13.002 20.4608 12.8059 20.3846 12.6231L19.9231 12.8154L20.3846 12.6231L17.9615 6.80769L17.8333 6.5H17.5H16.5H15.5Z" stroke="#C4A000"/>
<rect x="16" y="7" width="1" height="6" fill="url(#paint2_linear_54_120)"/>
<rect x="15" y="12" width="3" height="1" rx="0.5" fill="#403307" fill-opacity="0.5"/>
<g filter="url(#filter1_d_54_120)">
<mask id="path-7-inside-1_54_120" fill="white">
<path d="M14 17C14 16.4477 14.4477 16 15 16H18C18.5523 16 19 16.4477 19 17V22C19 22.5523 18.5523 23 18 23H15C14.4477 23 14 22.5523 14 22V17Z"/>
</mask>
<path d="M14 17C14 16.4477 14.4477 16 15 16H18C18.5523 16 19 16.4477 19 17V22C19 22.5523 18.5523 23 18 23H15C14.4477 23 14 22.5523 14 22V17Z" fill="url(#paint3_radial_54_120)"/>
<path d="M13 17C13 15.8954 13.8954 15 15 15H18C19.1046 15 20 15.8954 20 17H18H15H13ZM19 23H14H19ZM15 23C13.8954 23 13 22.1046 13 21V17C13 15.8954 13.8954 15 15 15V17V22C15 22.5523 15 23 15 23ZM18 15C19.1046 15 20 15.8954 20 17V21C20 22.1046 19.1046 23 18 23C18 23 18 22.5523 18 22V17V15Z" fill="#204A87" mask="url(#path-7-inside-1_54_120)"/>
</g>
<rect x="4" y="11" width="1" height="1" fill="#888A85"/>
</g>
<defs>
<filter id="filter0_f_54_120" x="9.5" y="4.5" width="14" height="16" filterUnits="userSpaceOnUse" color-interpolation-filters="sRGB">
<feFlood flood-opacity="0" result="BackgroundImageFix"/>
<feBlend mode="normal" in="SourceGraphic" in2="BackgroundImageFix" result="shape"/>
<feGaussianBlur stdDeviation="1.25" result="effect1_foregroundBlur_54_120"/>
</filter>
<filter id="filter1_d_54_120" x="13" y="14" width="9" height="11" filterUnits="userSpaceOnUse" color-interpolation-filters="sRGB">
<feFlood flood-opacity="0" result="BackgroundImageFix"/>
<feColorMatrix in="SourceAlpha" type="matrix" values="0 0 0 0 0 0 0 0 0 0 0 0 0 0 0 0 0 0 127 0" result="hardAlpha"/>
<feOffset dx="1"/>
<feGaussianBlur stdDeviation="1"/>
<feComposite in2="hardAlpha" operator="out"/>
<feColorMatrix type="matrix" values="0 0 0 0 0 0 0 0 0 0 0 0 0 0 0 0 0 0 0.25 0"/>
<feBlend mode="normal" in2="BackgroundImageFix" result="effect1_dropShadow_54_120"/>
<feBlend mode="normal" in="SourceGraphic" in2="effect1_dropShadow_54_120" result="shape"/>
</filter>
<linearGradient id="paint0_linear_54_120" x1="16.5" y1="7" x2="16.5" y2="16" gradientUnits="userSpaceOnUse">
<stop stop-color="#FEFEF9"/>
<stop offset="0.5" stop-color="#F9F4BE"/>
<stop offset="1" stop-color="#D8C25E"/>
</linearGradient>
<radialGradient id="paint1_radial_54_120" cx="0" cy="0" r="1" gradientUnits="userSpaceOnUse" gradientTransform="translate(16.5 12) rotate(90) scale(2.5 2.475)">
<stop stop-color="#EDD400"/>
<stop offset="1" stop-color="#E6DA9A" stop-opacity="0"/>
</radialGradient>
<linearGradient id="paint2_linear_54_120" x1="16.5" y1="7" x2="16.5" y2="13" gradientUnits="userSpaceOnUse">
<stop stop-color="#C4A000"/>
<stop offset="0.5" stop-color="#95885A"/>
<stop offset="1" stop-color="#6B6240"/>
</linearGradient>
<radialGradient id="paint3_radial_54_120" cx="0" cy="0" r="1" gradientUnits="userSpaceOnUse" gradientTransform="translate(17 21.5) rotate(90) scale(7.5 1.39206)">
<stop stop-color="#3465A4"/>
<stop offset="1" stop-color="#84B8F0"/>
</radialGradient>
<clipPath id="clip0_54_120">
<rect width="24" height="24" fill="white"/>
</clipPath>
</defs>
</svg>
