<?xml version="1.0" encoding="UTF-8" standalone="no"?>
<!-- Created with Inkscape (http://www.inkscape.org/) -->

<svg
   width="24"
   height="24"
   viewBox="0 0 24 24"
   fill="none"
   version="1.1"
   id="svg47"
   xmlns="http://www.w3.org/2000/svg"
   xmlns:svg="http://www.w3.org/2000/svg"
   xmlns:rdf="http://www.w3.org/1999/02/22-rdf-syntax-ns#"
   xmlns:cc="http://creativecommons.org/ns#"
   xmlns:dc="http://purl.org/dc/elements/1.1/">
  <g
     clip-path="url(#clip0_559_146)"
     id="g20">
    <path
       d="M20.0658 14.228H3.90084C3.52885 14.228 3.22729 14.4519 3.22729 14.728C3.22729 15.0042 3.52885 15.228 3.90084 15.228H20.0658C20.4378 15.228 20.7394 15.0042 20.7394 14.728C20.7394 14.4519 20.4378 14.228 20.0658 14.228Z"
       fill="url(#paint0_linear_559_146)"
       stroke="#555753"
       stroke-width="0.499999"
       stroke-linecap="round"
       id="path1" />
    <path
       d="M16.4773 10.4988L13.9773 8.49878L11.9773 7.99878L14.4773 11.4988L17.4773 19.4988L17.9773 21.6351L19.2273 18.4988L16.4773 10.4988Z"
       fill="url(#paint1_linear_559_146)"
       stroke="#41618E"
       stroke-width="0.5"
       stroke-linecap="round"
       id="path2" />
    <path
       d="M7.47729 10.4988L9.97729 8.49878L11.9773 7.99878L9.47729 11.4988L6.47729 19.4988L5.9773 21.6351L4.72729 18.4988L7.47729 10.4988Z"
       fill="url(#paint2_linear_559_146)"
       stroke="#41618E"
       stroke-width="0.5"
       stroke-linecap="round"
       id="path3" />
    <path
       opacity="0.2"
       d="M12 23.9988C18.6274 23.9988 24 23.2662 24 22.3624C24 21.4587 18.6274 20.7261 12 20.7261C5.37258 20.7261 0 21.4587 0 22.3624C0 23.2662 5.37258 23.9988 12 23.9988Z"
       fill="url(#paint3_radial_559_146)"
       id="path4" />
    <path
       d="M12.6016 0.5H11.3499C11.0043 0.5 10.7241 0.813217 10.7241 1.19959V3.04827C10.7241 3.43465 11.0043 3.74786 11.3499 3.74786H12.6016C12.9472 3.74786 13.2274 3.43465 13.2274 3.04827V1.19959C13.2274 0.813217 12.9472 0.5 12.6016 0.5Z"
       fill="url(#paint4_linear_559_146)"
       stroke="url(#paint5_linear_559_146)"
       stroke-width="0.9"
       stroke-linecap="round"
       id="path5" />
    <path
       d="M16.5 11L13.4773 8.74878V9.24878L14.9773 11.2488L17.7273 18.7488L18 20.5L18.7273 18.4988L16.5 11Z"
       stroke="url(#paint6_linear_559_146)"
       stroke-width="0.5"
       stroke-linecap="round"
       id="path6" />
    <path
       d="M17.5302 12.1965C17.1872 11.0991 16.4766 10.1535 15.518 9.51879L13.9773 8.49878L11.9773 7.99878L14.4773 11.4988L17.4773 19.4988L17.9773 21.6351L19.5 18.5L17.5302 12.1965Z"
       stroke="url(#paint7_linear_559_146)"
       stroke-width="0.8"
       stroke-linecap="round"
       id="path7" />
    <path
       d="M12.4834 1H11.4714C11.33 1 11.2153 1.11228 11.2153 1.25077V2.99821C11.2153 3.13671 11.33 3.24898 11.4714 3.24898H12.4834C12.6248 3.24898 12.7394 3.13671 12.7394 2.99821V1.25077C12.7394 1.11228 12.6248 1 12.4834 1Z"
       stroke="url(#paint8_linear_559_146)"
       stroke-width="0.5"
       stroke-linecap="round"
       id="path8" />
    <path
       d="M7.5 11L10.4773 8.74878V9.24878L8.97729 11.2488L6.22729 18.9988L6 20L5.22729 18.4988L7.5 11Z"
       stroke="url(#paint9_linear_559_146)"
       stroke-width="0.5"
       stroke-linecap="round"
       id="path9" />
    <path
       d="M6.4757 12.1777C6.81505 11.0918 7.5146 10.1541 8.45884 9.51943L9.97729 8.49878L11.9773 7.99878L9.47729 11.4988L6.47729 19.4988L5.9773 21.6351L4.5 18.5L6.4757 12.1777Z"
       stroke="url(#paint10_linear_559_146)"
       stroke-width="0.8"
       stroke-linecap="round"
       id="path10" />
    <path
       d="M11.8992 3.7488C10.4139 3.78647 9.22729 5.00452 9.22729 6.4988C9.22729 8.0168 10.4593 9.2488 11.9773 9.2488C13.4953 9.2488 14.7273 8.0168 14.7273 6.4988C14.7273 4.9808 13.4953 3.7488 11.9773 3.7488C11.9536 3.7488 11.9227 3.7482 11.8992 3.7488ZM11.8523 5.2488C11.8943 5.24455 11.9342 5.2488 11.9773 5.2488C12.6673 5.2488 13.2273 5.8088 13.2273 6.4988C13.2273 7.1888 12.6673 7.7488 11.9773 7.7488C11.2873 7.7488 10.7273 7.1888 10.7273 6.4988C10.7273 5.85193 11.2222 5.31285 11.8523 5.2488Z"
       fill="#BABDB6"
       stroke="#555753"
       stroke-width="0.7"
       stroke-linecap="round"
       id="path11" />
    <path
       d="M11.9761 8.7439C13.2166 8.7439 14.2223 7.73823 14.2223 6.49768C14.2223 5.25713 13.2166 4.25146 11.9761 4.25146C10.7356 4.25146 9.72998 5.25713 9.72998 6.49768C9.72998 7.73823 10.7356 8.7439 11.9761 8.7439Z"
       stroke="url(#paint11_linear_559_146)"
       stroke-width="0.499999"
       stroke-linecap="round"
       id="path12" />
    <path
       d="M12.1023 12.2073H11.8523C11.5071 12.2073 11.2273 12.4125 11.2273 12.6656V16.7906C11.2273 17.0437 11.5071 17.2489 11.8523 17.2489H12.1023C12.4475 17.2489 12.7273 17.0437 12.7273 16.7906V12.6656C12.7273 12.4125 12.4475 12.2073 12.1023 12.2073Z"
       fill="url(#paint12_linear_559_146)"
       stroke="#555753"
       stroke-width="0.5"
       stroke-linecap="round"
       id="path13" />
    <g
       opacity="0.486275"
       id="g18">
      <path
         d="M12.4773 16.7488C12.4773 16.6107 12.2534 16.4988 11.9773 16.4988C11.7012 16.4988 11.4773 16.6107 11.4773 16.7488C11.4773 16.8869 11.7012 16.9988 11.9773 16.9988C12.2534 16.9988 12.4773 16.8869 12.4773 16.7488Z"
         fill="white"
         id="path14" />
      <path
         d="M12.4773 15.7488C12.4773 15.6107 12.2534 15.4988 11.9773 15.4988C11.7012 15.4988 11.4773 15.6107 11.4773 15.7488C11.4773 15.8869 11.7012 15.9988 11.9773 15.9988C12.2534 15.9988 12.4773 15.8869 12.4773 15.7488Z"
         fill="white"
         id="path15" />
      <path
         d="M12.4773 14.7488C12.4773 14.6107 12.2534 14.4988 11.9773 14.4988C11.7012 14.4988 11.4773 14.6107 11.4773 14.7488C11.4773 14.8869 11.7012 14.9988 11.9773 14.9988C12.2534 14.9988 12.4773 14.8869 12.4773 14.7488Z"
         fill="white"
         id="path16" />
      <path
         d="M12.4773 12.7488C12.4773 12.6107 12.2534 12.4988 11.9773 12.4988C11.7012 12.4988 11.4773 12.6107 11.4773 12.7488C11.4773 12.8869 11.7012 12.9988 11.9773 12.9988C12.2534 12.9988 12.4773 12.8869 12.4773 12.7488Z"
         fill="white"
         id="path17" />
      <path
         d="M12.4773 13.7488C12.4773 13.6107 12.2534 13.4988 11.9773 13.4988C11.7012 13.4988 11.4773 13.6107 11.4773 13.7488C11.4773 13.8869 11.7012 13.9988 11.9773 13.9988C12.2534 13.9988 12.4773 13.8869 12.4773 13.7488Z"
         fill="white"
         id="path18" />
    </g>
    <path
       d="M17.5 20C18.3284 20 19 19.3284 19 18.5C19 17.6716 18.3284 17 17.5 17C16.6716 17 16 17.6716 16 18.5C16 19.3284 16.6716 20 17.5 20Z"
       fill="#BABDB6"
       stroke="#555753"
       stroke-width="0.8"
       stroke-linecap="round"
       id="path19" />
    <path
       d="M17.5 19.25C17.9142 19.25 18.25 18.9142 18.25 18.5C18.25 18.0858 17.9142 17.75 17.5 17.75C17.0858 17.75 16.75 18.0858 16.75 18.5C16.75 18.9142 17.0858 19.25 17.5 19.25Z"
       stroke="url(#paint13_linear_559_146)"
       stroke-width="0.7"
       stroke-linecap="round"
       id="path20" />
  </g>
  <defs
     id="defs47">
    <linearGradient
       id="paint0_linear_559_146"
       x1="14.0775"
       y1="17.7291"
       x2="11.6907"
       y2="11.8005"
       gradientUnits="userSpaceOnUse">
      <stop
         stop-color="#555753"
         id="stop20" />
      <stop
         offset="1"
         stop-color="#939590"
         id="stop21" />
    </linearGradient>
    <linearGradient
       id="paint1_linear_559_146"
       x1="15.625"
       y1="11.6751"
       x2="14.6072"
       y2="8.49656"
       gradientUnits="userSpaceOnUse">
      <stop
         stop-color="#729FCF"
         id="stop22" />
      <stop
         offset="1"
         stop-color="#D9E5F2"
         id="stop23" />
    </linearGradient>
    <linearGradient
       id="paint2_linear_559_146"
       x1="8.23217"
       y1="13.5858"
       x2="8.12502"
       y2="9.92513"
       gradientUnits="userSpaceOnUse">
      <stop
         stop-color="#729FCF"
         id="stop24" />
      <stop
         offset="1"
         stop-color="#D9E5F2"
         id="stop25" />
    </linearGradient>
    <radialGradient
       id="paint3_radial_559_146"
       cx="0"
       cy="0"
       r="1"
       gradientUnits="userSpaceOnUse"
       gradientTransform="translate(12.0227 22.3635) scale(12 1.63636)">
      <stop
         id="stop26" />
      <stop
         offset="1"
         stop-opacity="0"
         id="stop27" />
    </radialGradient>
    <linearGradient
       id="paint4_linear_559_146"
       x1="12.4969"
       y1="2.57143"
       x2="11.7144"
       y2="2"
       gradientUnits="userSpaceOnUse">
      <stop
         stop-color="#729FCF"
         id="stop28" />
      <stop
         offset="1"
         stop-color="#ADC7E3"
         id="stop29" />
    </linearGradient>
    <linearGradient
       id="paint5_linear_559_146"
       x1="11.3897"
       y1="1.60714"
       x2="12.7144"
       y2="2.75"
       gradientUnits="userSpaceOnUse">
      <stop
         stop-color="#41618E"
         id="stop30" />
      <stop
         offset="1"
         stop-color="#354D74"
         id="stop31" />
    </linearGradient>
    <linearGradient
       id="paint6_linear_559_146"
       x1="18.7735"
       y1="20.0757"
       x2="15.8801"
       y2="8.99877"
       gradientUnits="userSpaceOnUse">
      <stop
         stop-color="white"
         stop-opacity="0.796078"
         id="stop32" />
      <stop
         offset="1"
         stop-color="white"
         stop-opacity="0.113725"
         id="stop33" />
    </linearGradient>
    <linearGradient
       id="paint7_linear_559_146"
       x1="17.2857"
       y1="15.8894"
       x2="17"
       y2="10.1394"
       gradientUnits="userSpaceOnUse">
      <stop
         stop-color="#41618E"
         id="stop34" />
      <stop
         offset="1"
         stop-color="#354D74"
         id="stop35" />
    </linearGradient>
    <linearGradient
       id="paint8_linear_559_146"
       x1="13.0121"
       y1="3.92665"
       x2="10.8878"
       y2="1.12771"
       gradientUnits="userSpaceOnUse">
      <stop
         stop-color="white"
         stop-opacity="0.796078"
         id="stop36" />
      <stop
         offset="1"
         stop-color="white"
         stop-opacity="0.116732"
         id="stop37" />
    </linearGradient>
    <linearGradient
       id="paint9_linear_559_146"
       x1="5.95917"
       y1="23.0171"
       x2="8.61997"
       y2="8.92734"
       gradientUnits="userSpaceOnUse">
      <stop
         stop-color="white"
         stop-opacity="0.796078"
         id="stop38" />
      <stop
         offset="1"
         stop-color="white"
         stop-opacity="0.113725"
         id="stop39" />
    </linearGradient>
    <linearGradient
       id="paint10_linear_559_146"
       x1="7.57145"
       y1="17.9966"
       x2="8.00002"
       y2="10.5323"
       gradientUnits="userSpaceOnUse">
      <stop
         stop-color="#41618E"
         id="stop40" />
      <stop
         offset="1"
         stop-color="#354D74"
         id="stop41" />
    </linearGradient>
    <linearGradient
       id="paint11_linear_559_146"
       x1="13.6923"
       y1="8.99493"
       x2="10.5801"
       y2="3.82217"
       gradientUnits="userSpaceOnUse">
      <stop
         stop-color="white"
         stop-opacity="0.796078"
         id="stop42" />
      <stop
         offset="1"
         stop-color="white"
         stop-opacity="0.113725"
         id="stop43" />
    </linearGradient>
    <linearGradient
       id="paint12_linear_559_146"
       x1="12"
       y1="12.6934"
       x2="12"
       y2="16.4434"
       gradientUnits="userSpaceOnUse">
      <stop
         stop-color="#555753"
         id="stop44" />
      <stop
         offset="1"
         stop-color="#939590"
         id="stop45" />
    </linearGradient>
    <linearGradient
       id="paint13_linear_559_146"
       x1="17.8084"
       y1="19.501"
       x2="16.8442"
       y2="17.2867"
       gradientUnits="userSpaceOnUse">
      <stop
         stop-color="white"
         stop-opacity="0.796078"
         id="stop46" />
      <stop
         offset="1"
         stop-color="white"
         stop-opacity="0.215686"
         id="stop47" />
    </linearGradient>
    <clipPath
       id="clip0_559_146">
      <rect
         width="24"
         height="23.999"
         fill="white"
         id="rect47" />
    </clipPath>
  </defs>
  <metadata
     id="metadata3086">
    <rdf:RDF>
      <cc:Work
         rdf:about="">
        <dc:format>image/svg+xml</dc:format>
        <dc:type
           rdf:resource="http://purl.org/dc/dcmitype/StillImage" />
        <dc:creator>
          <cc:Agent>
            <dc:title>Ulisse Perusin</dc:title>
          </cc:Agent>
        </dc:creator>
        <dc:subject>
          <rdf:Bag />
        </dc:subject>
        <cc:license
           rdf:resource="http://creativecommons.org/licenses/by-sa/2.0/" />
      </cc:Work>
      <cc:License
         rdf:about="http://creativecommons.org/licenses/by-sa/2.0/">
        <cc:permits
           rdf:resource="http://web.resource.org/cc/Reproduction" />
        <cc:permits
           rdf:resource="http://web.resource.org/cc/Distribution" />
        <cc:requires
           rdf:resource="http://web.resource.org/cc/Notice" />
        <cc:requires
           rdf:resource="http://web.resource.org/cc/Attribution" />
        <cc:permits
           rdf:resource="http://web.resource.org/cc/DerivativeWorks" />
        <cc:requires
           rdf:resource="http://web.resource.org/cc/ShareAlike" />
      </cc:License>
    </rdf:RDF>
  </metadata>
</svg>