<svg width="24" height="24" viewBox="0 0 24 24" fill="none" xmlns="http://www.w3.org/2000/svg">
<g clip-path="url(#clip0_80_145)">
<g filter="url(#filter0_f_80_145)">
<path d="M16.735 18.0352L4.61914 20.3802C4.22245 20.4569 3.81148 20.3743 3.47528 20.1502C2.43736 19.4582 2.61356 17.883 3.77873 17.4375L15.3056 13.0302C16.7486 12.4785 18.3525 13.2926 18.759 14.783C19.1589 16.2494 18.2273 17.7463 16.735 18.0352Z" fill="black" fill-opacity="0.45"/>
</g>
<path fill-rule="evenodd" clip-rule="evenodd" d="M19.3323 6.70579C17.5906 8.27604 16.7665 8.83025 16.3082 10.031C15.8498 11.2317 16.2165 13.6333 16.2165 14.1875C16.2165 14.7417 15.7582 15.7578 15.1166 16.4043C14.4749 17.0508 13.9249 18.6211 12.2749 18.6211C10.6249 18.6211 8.60821 18.8059 7.78413 18.2517C7.05079 19.3601 6.31746 20.6531 5.49246 20.6531C4.66746 20.6531 3.61698 20.8247 3.56748 19.8681C3.47215 18.0134 5.21746 18.6211 5.49246 17.1432C5.62079 16.4518 4.02577 14.9265 3.75077 13.3562C3.47577 11.786 3.50243 10.8735 4.14409 10.2269C4.78576 9.58037 6.45134 7.30942 7.27634 7.12471C8.10134 6.94 9.3526 6.96044 10.2693 6.31391C11.1859 5.6673 12.3666 4.21191 12.3666 4.21191" fill="url(#paint0_linear_80_145)"/>
<path fill-rule="evenodd" clip-rule="evenodd" d="M19.3323 6.70579C17.5906 8.27604 16.7665 8.83025 16.3082 10.031C15.8498 11.2317 16.2165 13.6333 16.2165 14.1875C16.2165 14.7417 15.7582 15.7578 15.1166 16.4043C14.4749 17.0508 13.9249 18.6211 12.2749 18.6211C10.6249 18.6211 8.60821 18.8059 7.78413 18.2517C7.05079 19.3601 6.31746 20.6531 5.49246 20.6531C4.66746 20.6531 3.61698 20.8247 3.56748 19.8681C3.47215 18.0134 5.21746 18.6211 5.49246 17.1432C5.62079 16.4518 4.02577 14.9265 3.75077 13.3562C3.47577 11.786 3.50243 10.8735 4.14409 10.2269C4.78576 9.58037 6.45134 7.30942 7.27634 7.12471C8.10134 6.94 9.3526 6.96044 10.2693 6.31391C11.1859 5.6673 12.3666 4.21191 12.3666 4.21191" fill="url(#paint1_linear_80_145)"/>
<path d="M19.3323 6.70579C17.5906 8.27604 16.7665 8.83025 16.3082 10.031C15.8498 11.2317 16.2165 13.6333 16.2165 14.1875C16.2165 14.7417 15.7582 15.7578 15.1166 16.4043C14.4749 17.0508 13.9249 18.6211 12.2749 18.6211C10.6249 18.6211 8.60821 18.8059 7.78413 18.2517C7.05079 19.3601 6.31746 20.6531 5.49246 20.6531C4.66746 20.6531 3.61698 20.8247 3.56748 19.8681C3.47215 18.0134 5.21746 18.6211 5.49246 17.1432C5.62079 16.4518 4.02577 14.9265 3.75077 13.3562C3.47577 11.786 3.50243 10.8735 4.14409 10.2269C4.78576 9.58037 6.45134 7.30942 7.27634 7.12471C8.10134 6.94 9.3526 6.96044 10.2693 6.31391C11.1859 5.6673 12.3666 4.21191 12.3666 4.21191" stroke="url(#paint2_linear_80_145)" stroke-linecap="round" stroke-linejoin="round"/>
<path fill-rule="evenodd" clip-rule="evenodd" d="M18.741 6.48771C17.1534 7.7287 16.0836 8.74107 15.8572 9.62281C15.6308 10.5045 15.9223 14.3253 15.6629 15.1418C15.2094 15.9651 13.949 17.4656 13.4913 17.7869C12.9083 17.9829 9.08402 17.9829 9.21418 17.9175C9.34343 17.8523 11.3528 17.395 12.3895 16.6766C13.4272 15.9582 14.0101 15.7295 14.3337 13.8028C14.6582 11.8761 14.7874 10.929 14.561 10.0799C14.3337 9.23092 14.4309 9.1982 13.4271 8.12057C12.4225 7.04293 11.3848 6.71633 11.5791 6.38972C11.7744 6.0632 11.7414 6.38972 12.779 7.04294C13.8158 7.69606 14.4639 8.31646 15.5978 7.79396C16.7318 7.27146 18.8382 6.45508 18.741 6.48771Z" fill="#DABDAC"/>
<path fill-rule="evenodd" clip-rule="evenodd" d="M9.57074 16.5787C8.72833 16.6439 8.33875 16.9705 8.33875 16.9705C8.33875 16.9705 8.20946 17.8196 8.59813 17.8849C8.9868 17.9502 9.6349 17.8849 9.82923 17.5583C10.0245 17.2318 9.57074 16.6439 9.57074 16.5787Z" fill="#AC6036"/>
<path d="M8.07448 9.41851C8.48198 9.21319 8.70224 8.82479 8.56641 8.55102C8.43058 8.27726 7.99009 8.2218 7.5826 8.42713C7.17511 8.63245 6.95484 9.02084 7.09067 9.29461C7.2265 9.56837 7.66699 9.62384 8.07448 9.41851Z" fill="#F6EEEA"/>
<path d="M9.11159 10.4635C9.51909 10.2582 9.73935 9.86977 9.60352 9.59601C9.46769 9.32224 9.0272 9.26679 8.61971 9.47211C8.21222 9.67743 7.99195 10.0658 8.12778 10.3396C8.26361 10.6134 8.7041 10.6688 9.11159 10.4635Z" fill="#F6EEEA"/>
<path d="M10.1487 11.5085C10.5562 11.3032 10.7765 10.9148 10.6406 10.641C10.5048 10.3673 10.0643 10.3118 9.65682 10.5171C9.24933 10.7224 9.02905 11.1108 9.16489 11.3846C9.30072 11.6584 9.74121 11.7138 10.1487 11.5085Z" fill="#F6EEEA"/>
<path fill-rule="evenodd" clip-rule="evenodd" d="M9.52499 12.2478C9.38749 13.0329 5.8592 17.6975 4.57586 18.9444C4.14595 19.3624 4.49609 20.4098 5.12584 19.7757C6.45501 18.4364 9.02082 15.573 10.4417 12.8944C10.7313 12.348 10.0292 11.8784 9.52499 12.2478Z" fill="#F6EEEA"/>
<path fill-rule="evenodd" clip-rule="evenodd" d="M5.92188 16.6562L9.3876 12.1093C9.3876 12.1093 9.29596 10.9085 8.60846 11.6013C7.92188 12.294 6.50095 13.6795 6.36345 14.1875C6.22595 14.6956 5.96771 16.7024 5.92188 16.6562Z" fill="#B78469"/>
<path fill-rule="evenodd" clip-rule="evenodd" d="M8.42513 10.9547C7.46354 11.786 6.27192 12.802 5.85942 13.4486C5.44692 14.0951 4.99986 15.0117 4.99986 15.0117C4.99986 15.0117 4.42035 13.9019 5.40109 12.6173C5.85942 12.0169 7.28026 10.5852 7.69275 10.5852C8.10525 10.5852 8.47096 10.9547 8.42513 10.9547Z" fill="#B78469"/>
<path fill-rule="evenodd" clip-rule="evenodd" d="M7.71712 9.52299C6.75462 10.3543 5.56291 11.3704 5.15041 12.0169C4.73791 12.6635 4.31641 13.6016 4.31641 13.6016C4.31641 13.6016 3.83741 12.0169 4.69208 11.1857C5.15041 10.5852 6.57124 9.1535 6.98374 9.1535C7.39624 9.1535 7.76295 9.52299 7.71712 9.52299Z" fill="#B78469"/>
<path fill-rule="evenodd" clip-rule="evenodd" d="M7.56152 17.9503C7.56152 17.9503 11.1907 14.0968 11.5793 13.9662C11.9689 13.8356 13.0057 13.5743 13.0057 14.358C13.0057 15.1418 12.8113 16.0562 12.1632 16.1214C11.5151 16.1868 10.2831 15.8602 9.89448 15.9909C9.50581 16.1214 7.62661 17.8849 7.56152 17.9503Z" fill="#8F5902"/>
</g>
<defs>
<filter id="filter0_f_80_145" x="-1.20898" y="8.8569" width="24.0608" height="15.5513" filterUnits="userSpaceOnUse" color-interpolation-filters="sRGB">
<feFlood flood-opacity="0" result="BackgroundImageFix"/>
<feBlend mode="normal" in="SourceGraphic" in2="BackgroundImageFix" result="shape"/>
<feGaussianBlur stdDeviation="2" result="effect1_foregroundBlur_80_145"/>
</filter>
<linearGradient id="paint0_linear_80_145" x1="13.501" y1="8.15912" x2="15.5309" y2="4.90747" gradientUnits="userSpaceOnUse">
<stop stop-color="#EAD7CE"/>
<stop offset="1" stop-color="#EAD7CE" stop-opacity="0"/>
</linearGradient>
<linearGradient id="paint1_linear_80_145" x1="9.92913" y1="12.4385" x2="3.56372" y2="10.7974" gradientUnits="userSpaceOnUse">
<stop stop-color="white" stop-opacity="0"/>
<stop offset="1" stop-color="white" stop-opacity="0.7"/>
</linearGradient>
<linearGradient id="paint2_linear_80_145" x1="13.501" y1="8.15912" x2="15.5309" y2="4.90747" gradientUnits="userSpaceOnUse">
<stop stop-color="#8A4A01"/>
<stop offset="1" stop-color="#8F5902" stop-opacity="0"/>
</linearGradient>
<clipPath id="clip0_80_145">
<rect width="24" height="24" fill="white"/>
</clipPath>
</defs>
</svg>
