<svg width="24" height="24" viewBox="0 0 24 24" fill="none" xmlns="http://www.w3.org/2000/svg">
<path d="M11.5063 11.3099L15.7172 14.2192C19.6618 9.7154 21.9389 2.037 21.9389 2.037C22.1324 1.29805 21.4072 1.1261 20.9948 1.64831C20.9948 1.64831 14.9156 6.74114 11.5063 11.3099Z" fill="url(#paint0_linear_80_117)" stroke="#673907" stroke-width="0.499123" stroke-linecap="round"/>
<path opacity="0.333333" d="M12.207 11.5422L15.0777 13.86C19.4111 8.89966 21.0101 2.61969 21.0101 2.61969C21.0101 2.61969 15.9524 6.51032 12.207 11.5422Z" stroke="white" stroke-width="0.499122"/>
<path d="M8.4939 17.5941L10.8748 18.9998L15.677 14.3792C15.0289 13.0346 12.8689 11.282 11.1325 11.5662L8.4939 17.5941Z" fill="url(#paint1_linear_80_117)" stroke="#888A85" stroke-width="0.499123" stroke-linecap="round"/>
<path d="M1.6875 22.9897C9.88886 23.0483 11.2694 22.9679 11.7221 19.6444C12.0927 16.9234 7.28425 15.7485 5.65137 18.7923C4.33283 21.2501 1.6875 22.9897 1.6875 22.9897Z" fill="url(#paint2_radial_80_117)"/>
<path opacity="0.527778" d="M8.00326 20.0877C8.58107 20.0877 9.04948 19.631 9.04948 19.0676C9.04948 18.5042 8.58107 18.0475 8.00326 18.0475C7.42544 18.0475 6.95703 18.5042 6.95703 19.0676C6.95703 19.631 7.42544 20.0877 8.00326 20.0877Z" fill="white"/>
<path d="M12.1568 12.9673L10.1614 16.761" stroke="white" stroke-width="0.499123" stroke-linecap="round" stroke-linejoin="round"/>
<defs>
<linearGradient id="paint0_linear_80_117" x1="15.4875" y1="7.71848" x2="18.9088" y2="10.3803" gradientUnits="userSpaceOnUse">
<stop stop-color="#6E3D09"/>
<stop offset="0.242424" stop-color="#EA8113"/>
<stop offset="0.621212" stop-color="#5C3307"/>
<stop offset="1" stop-color="#E07C12"/>
</linearGradient>
<linearGradient id="paint1_linear_80_117" x1="10.9599" y1="12.9055" x2="14.8733" y2="15.5373" gradientUnits="userSpaceOnUse">
<stop stop-color="#BDBDBD"/>
<stop offset="0.333333" stop-color="#E2E2E2"/>
<stop offset="0.666667" stop-color="#A3A3A3"/>
<stop offset="1" stop-color="#DDDDDD"/>
</linearGradient>
<radialGradient id="paint2_radial_80_117" cx="0" cy="0" r="1" gradientUnits="userSpaceOnUse" gradientTransform="translate(8.1548 18.6641) scale(3.02432 2.87366)">
<stop stop-color="#696969"/>
<stop offset="1"/>
</radialGradient>
</defs>
</svg>
