<svg width="24" height="24" viewBox="0 0 24 24" fill="none" xmlns="http://www.w3.org/2000/svg">
<g filter="url(#filter0_f_543_138)">
<ellipse cx="14" cy="18.5" rx="5" ry="2.5" fill="black" fill-opacity="0.3"/>
</g>
<circle cx="7" cy="16" r="6" fill="url(#paint0_linear_543_138)"/>
<circle cx="7" cy="16" r="4.5" stroke="white" stroke-opacity="0.7"/>
<circle cx="7" cy="9" r="6" fill="url(#paint1_linear_543_138)"/>
<circle cx="7" cy="9" r="4.5" stroke="white" stroke-opacity="0.6"/>
<circle cx="13" cy="12" r="6" fill="url(#paint2_linear_543_138)"/>
<circle cx="13" cy="12" r="4.5" stroke="white" stroke-opacity="0.6"/>
<g filter="url(#filter1_f_543_138)">
<path d="M16.8469 13.7602L18.0388 14.6541C18.2822 14.8367 18.3075 15.1925 18.0924 15.4076L14.0061 19.4939C14.0026 19.4974 13.997 19.4978 13.9931 19.4948L12.0092 18.0069C12.0044 18.0033 12.0038 17.9962 12.0082 17.9918L16.1934 13.8066C16.3693 13.6307 16.6479 13.6109 16.8469 13.7602Z" fill="#555753" fill-opacity="0.35"/>
</g>
<path d="M13.3597 18.3474L13.3597 18.3474L17.3174 14.3897C17.825 13.8821 17.6482 13.0208 16.9817 12.7541L15.4918 12.1582C15.1204 12.0096 14.6962 12.0967 14.4133 12.3796L10.6546 16.1383C10.6546 16.1383 10.6546 16.1383 10.6546 16.1383C10.4351 16.3578 10.4609 16.7207 10.7092 16.9069C10.7092 16.9069 10.7092 16.9069 10.7092 16.9069L12.6931 18.3948C12.8961 18.5471 13.1802 18.5269 13.3597 18.3474Z" fill="url(#paint3_linear_543_138)" stroke="url(#paint4_linear_543_138)"/>
<path d="M22.9972 5.00052L22.9972 6.39513L16.3441 13.0482L15.3413 12.6373L22.9972 5.00052Z" fill="#B1B1B1"/>
<path d="M14.9404 12.1983L23.0011 4.14004L23 5.14304L15.4453 12.6758L15.2891 12.6172L14.9404 12.1983Z" fill="#555753"/>
<path d="M16.3569 13.0397L23.0004 6.38059L23 7.46829L17.0322 13.422L16.896 13.2662L16.3569 13.0397Z" fill="black"/>
<path d="M17.0867 13.3663L22.9994 7.45353L22.9994 8.51419L17.617 13.8966L17.0867 13.3663Z" fill="#555753"/>
<defs>
<filter id="filter0_f_543_138" x="6" y="13" width="16" height="11" filterUnits="userSpaceOnUse" color-interpolation-filters="sRGB">
<feFlood flood-opacity="0" result="BackgroundImageFix"/>
<feBlend mode="normal" in="SourceGraphic" in2="BackgroundImageFix" result="shape"/>
<feGaussianBlur stdDeviation="1.5" result="effect1_foregroundBlur_543_138"/>
</filter>
<filter id="filter1_f_543_138" x="10.0051" y="11.6602" width="10.2336" height="9.83667" filterUnits="userSpaceOnUse" color-interpolation-filters="sRGB">
<feFlood flood-opacity="0" result="BackgroundImageFix"/>
<feBlend mode="normal" in="SourceGraphic" in2="BackgroundImageFix" result="shape"/>
<feGaussianBlur stdDeviation="1" result="effect1_foregroundBlur_543_138"/>
</filter>
<linearGradient id="paint0_linear_543_138" x1="7" y1="10" x2="7" y2="22" gradientUnits="userSpaceOnUse">
<stop stop-color="#24FF00"/>
<stop offset="1" stop-color="#2EC60A"/>
</linearGradient>
<linearGradient id="paint1_linear_543_138" x1="7" y1="3" x2="7" y2="15" gradientUnits="userSpaceOnUse">
<stop stop-color="#F80000"/>
<stop offset="1" stop-color="#BD0E00"/>
</linearGradient>
<linearGradient id="paint2_linear_543_138" x1="13" y1="6" x2="13" y2="18" gradientUnits="userSpaceOnUse">
<stop stop-color="#4D84C7"/>
<stop offset="1" stop-color="#32619D"/>
</linearGradient>
<linearGradient id="paint3_linear_543_138" x1="11" y1="16.5251" x2="16.9079" y2="13.3389" gradientUnits="userSpaceOnUse">
<stop stop-color="white"/>
<stop offset="1" stop-color="#CECECE"/>
</linearGradient>
<linearGradient id="paint4_linear_543_138" x1="15.9378" y1="13.3464" x2="12.1157" y2="17" gradientUnits="userSpaceOnUse">
<stop stop-color="#555753"/>
<stop offset="1" stop-color="#858886"/>
</linearGradient>
</defs>
</svg>
