<svg height="16.000025" viewBox="0 0 16.000446 16.000025" xmlns="http://www.w3.org/2000/svg"><g transform="translate(-68.432981 -188.680266)"><path d="m68.432983 188.68027h16v16h-16z" fill="none" stroke-width=".2"/><g enable-background="new" transform="matrix(.73770495 0 0 .7757716 -155.30857 51.771056)"><path d="m324.33756 194.52932-8.97696-16.82114c-.25803-.46725-.72492-.72684-1.24489-.72684s-.98926.31151-1.2512.77876l-8.91011 16.82114c-.20974.41533-.21213.98642.0461 1.40176.25825.41534.67335.623 1.19333.623h17.88707c.51997 0 .98904-.25958 1.19877-.67492.26173-.41534.26391-.93451.0579-1.40176z" fill="#f57900" stroke="#f57900"/><path d="m322.61753 193.53672-7.72376-14.45791c-.32893-.62467-.27639-.82509-.7763-.82509-.42997 0-.4844.29189-.79511.88153l-7.63803 14.44622c-.44352.81347-.70421 1.11107-.49072 1.46911.21347.35804.53021.253 1.54298.27635h15.01208c.94288.0117 1.15527.0252 1.32875-.33278.21648-.35805-.0461-.72765-.45989-1.45743z" fill="#f57900" stroke="#fff" stroke-width=".966272"/><path d="m23.9 36.5c-1.3 0-2.3-1.000007-2.3-2.485721 0-1.6.9-2.485715 2.3-2.485715s2.2.885715 2.3 2.485715c0 1.485714-.9 2.485721-2.3 2.485721zm-.732371-8.495138-1.267629-11.390576h4l-1.267629 13.26802z" fill="#121312" transform="matrix(.58937196 0 0 .51857899 300.05254 174.31075)"/></g></g></svg>