<svg height="16" viewBox="0 0 16 16" width="16" xmlns="http://www.w3.org/2000/svg"><g transform="translate(0 -32)"><circle cx="8" cy="40" fill="#3465a4" r="7.821238" stroke="#204a87" stroke-width=".357524"/><ellipse cx="7.999489" cy="40.000927" fill="none" opacity=".960227" rx="7.126667" ry="7.125777" stroke="#fff" stroke-width=".987286"/><g fill="#fff" stroke-width=".188219"><path d="m6.504125 41.935698-.033375-.442689c-.03375-.868749.234-1.754125.9860625-2.656883.5349375-.646933.9691875-1.208843.9691875-1.787946 0-.578914-.3841875-.987593-1.203375-1.004787-.5679375 0-1.219875.18743-1.6711875.493891l-.5514375-1.838959c.6015-.357854 1.5875625-.698325 2.7909375-.698325 2.1894375 0 3.2090625 1.24323 3.2090625 2.639501 0 1.31106-.802312 2.1458-1.4375625 2.877756-.6016875.681131-.8690625 1.345446-.852375 2.11179v.306462h-2.2059375z" visibility="hidden"/><ellipse cx="7.67225" cy="44.488476" rx="1.5" ry="1.511525" visibility="hidden"/></g></g></svg>