<svg height="16.000141" viewBox="0 0 16 16.000141" width="16" xmlns="http://www.w3.org/2000/svg"><g transform="matrix(.39024481 0 0 .38153129 -1.381898 -1.194323)"><path d="m7.7526014 3.6464462 23.4470146-.015625 10.278937 12.3134538.000004 27.473617c0 .636573-.512476 1.149048-1.149049 1.149048h-32.5769026c-.6365729 0-1.1490486-.512475-1.1490486-1.149048v-38.6223972c0-.6365729.5124757-1.1490486 1.1490446-1.1490486z" style="display:block;fill:#eeeeec;stroke:#555753;stroke-width:1.000354;stroke-linecap:round;stroke-linejoin:round"/><path d="m41.41056 15.872435-10.235119-12.2369416.059214 12.3326516z" display="block" fill="none" stroke="#555753" stroke-linejoin="round"/><path d="m39.121563 14.816434-6.9251-8.3787965.04198 8.2560805z" fill="#eeeeec" fill-rule="evenodd"/></g><rect fill="none" height="16" rx=".343595" ry=".339855" width="16" y=".000007"/><path d="m3.0361434.14464155v2.89109995h-2.89156998v1.9287h2.89156998v2.8911h1.9277132v-2.8911h2.89157v-1.9287h-2.89157v-2.89109995z" stroke="#fff" stroke-width=".289147"/></svg>