<svg height="16" viewBox="0 0 16 16" width="16" xmlns="http://www.w3.org/2000/svg" xmlns:xlink="http://www.w3.org/1999/xlink"><linearGradient id="a" gradientUnits="userSpaceOnUse" x1="-51.43385546649" x2="-42.09487256784" y1="1024.89949660535" y2="1028.97212858719"><stop offset="0" stop-color="#bbb"/><stop offset="1" stop-color="#9f9f9f"/></linearGradient><radialGradient id="b" cx="15.571491" cy="2.958519" gradientTransform="matrix(.42032349 .25544651 -.23227229 .38219105 -54.688288 1013.9987)" gradientUnits="userSpaceOnUse" r="20.935818"><stop offset="0" stop-color="#e4e4e4"/><stop offset="1" stop-color="#d3d3d3"/></radialGradient><linearGradient id="c" gradientUnits="userSpaceOnUse" x1="-49.87387425314" x2="-39.50901888415" y1="1017.04097853526" y2="1031.15396858151"><stop offset="0" stop-color="#fff"/><stop offset="1" stop-color="#fff" stop-opacity="0"/></linearGradient><g transform="translate(0 -1036.3622)"><g transform="matrix(1.116248 0 0 1.1126945 59.353582 -92.213571)"><path d="m-50.23094 1018.1944c-.20424 0-.336996.095-.418692.2757 0 0-2.113885 5.5892-2.113885 5.5892s-.0817.2194-.0817.5821v3.1534c0 .3538.214954.5311.541236.5311h12.601613c.321834 0 .520812-.2347.520812-.6026v-3.1534s.03463-.2518-.03064-.4289l-2.195581-5.6198c-.0603-.1673-.20813-.3229-.367632-.3268h-8.455539z" fill="none" stroke="#535353" stroke-linecap="round" stroke-linejoin="round" stroke-width=".653568"/><g fill-rule="evenodd"><path d="m-52.849167 1024.4145.24986-.2262 12.29025.02 1.131459.1037v3.4111c0 .3678-.198364.6024-.520198.6024h-12.608308c-.326283 0-.543063-.1771-.543063-.5309v-3.3805z" fill="url(#a)"/><path d="m-52.75914 1024.0607c-.233418.4786-.000202.782.338455.782h12.74458c.365687-.01.602995-.3307.466835-.7003l-2.194122-5.6241c-.0603-.1673-.213966-.3229-.373468-.3268h-8.449704c-.20424 0-.338455.099-.42015.2801 0 0-2.112426 5.5891-2.112426 5.5891z" fill="url(#b)"/><path d="m-39.28025 1023.9674c.02076.4085-.135289.7568-.432046.7659h-12.456592c-.421301 0-.610346-.1062-.681035-.2837.02999.3086.269864.539.681035.539h12.456592c.351622-.011.572789-.4654.441865-.9787l-.0098-.042z" fill="#fff"/></g><path d="m-50.114336 1018.3425c-.196623 0-.324428.091-.403077.2654 0 0-2.096325 5.4216-2.096325 5.4216s-.07865.2113-.07865.5604v3.0358c0 .4427.145111.5317.521052.5317h12.315482c.432377 0 .501391-.1034.501391-.6005v-3.0359s.03333-.2423-.02949-.4129l-2.154551-5.4919c-.05805-.161-.179944-.27-.333498-.2737h-8.242331z" fill="none" stroke="url(#c)" stroke-linecap="round" stroke-linejoin="round" stroke-width=".326784"/></g><path d="m6.2931459 1036.5595v5.0129l-1.8800295.027 1.8417981 2.3265 1.8417981 2.1366 1.7495965-2.1741 1.7495949-2.3635-2.0374466.022v-4.9927z" fill="#8ae234" stroke="#4e9a06" stroke-width=".383414"/></g></svg>