<svg height="16" viewBox="0 0 16 16" width="16" xmlns="http://www.w3.org/2000/svg"><g transform="matrix(-1 0 0 1 16 -1036.3622)"><path d="m1.1015625 0v6.9609375s.4886246-.0209375 6.8984375.0390625l-2.484375-2.5214844c.9276401-.5897888 2.0747691-.8420295 3.2402344-.6367187 2.0911706.3684565 3.6453276 2.0898743 3.7539066 4.1601562.108583 2.0703569-1.260516 3.9052719-3.3046879 4.4355469-2.0441703.53035-4.1906047-.389906-5.1894531-2.228516l-1.9746094.998047c1.4838814 2.731345 4.7197177 4.123738 7.7636719 3.333985 3.0439545-.789828 5.1006515-3.55316 4.9394535-6.6269535-.161197-3.0735689-2.498994-5.6641782-5.6132816-6.2128906-.778573-.1373842-1.5537155-.1362953-2.2988282-.015625-1.0522429.1704127-2.0285187.6005796-2.8730468 1.2128906z" fill="#fcaf3e" stroke="#ce5c00" stroke-width=".5" transform="matrix(-1.00000003456 0 0 .9999999695 15.99956205409 1037.35139479564)"/><path d="m0 1036.3622h16v16h-16z" fill="none"/></g></svg>