<svg height="16" viewBox="0 0 16 16" width="16" xmlns="http://www.w3.org/2000/svg" xmlns:xlink="http://www.w3.org/1999/xlink"><linearGradient id="a" gradientUnits="userSpaceOnUse" x1="-51.43385546649" x2="-42.09487256784" y1="1024.89949660535" y2="1028.97212858719"><stop offset="0" stop-color="#bbb"/><stop offset="1" stop-color="#9f9f9f"/></linearGradient><radialGradient id="b" cx="15.571491" cy="2.958519" gradientTransform="matrix(.42032349 .25544651 -.23227229 .38219105 -54.688288 1013.9987)" gradientUnits="userSpaceOnUse" r="20.935818"><stop offset="0" stop-color="#e4e4e4"/><stop offset="1" stop-color="#d3d3d3"/></radialGradient><linearGradient id="c" gradientUnits="userSpaceOnUse" x1="-49.87387425314" x2="-39.50901888415" y1="1017.04097853526" y2="1031.15396858151"><stop offset="0" stop-color="#fff"/><stop offset="1" stop-color="#fff" stop-opacity="0"/></linearGradient><g transform="translate(0 -1036.3622)"><g transform="matrix(1.116248 0 0 1.1126945 59.353582 -92.213571)"><path d="m-50.23094 1018.1944c-.20424 0-.336996.095-.418692.2757 0 0-2.113885 5.5892-2.113885 5.5892s-.0817.2194-.0817.5821v3.1534c0 .3538.214954.5311.541236.5311h12.601613c.321834 0 .520812-.2347.520812-.6026v-3.1534s.03463-.2518-.03064-.4289l-2.195581-5.6198c-.0603-.1673-.20813-.3229-.367632-.3268h-8.455539z" fill="none" stroke="#535353" stroke-linecap="round" stroke-linejoin="round" stroke-width=".653568"/><g fill-rule="evenodd"><path d="m-52.849167 1024.4145.24986-.2262 12.29025.02 1.131459.1037v3.4111c0 .3678-.198364.6024-.520198.6024h-12.608308c-.326283 0-.543063-.1771-.543063-.5309v-3.3805z" fill="url(#a)"/><path d="m-52.75914 1024.0607c-.233418.4786-.000202.782.338455.782h12.74458c.365687-.01.602995-.3307.466835-.7003l-2.194122-5.6241c-.0603-.1673-.213966-.3229-.373468-.3268h-8.449704c-.20424 0-.338455.099-.42015.2801 0 0-2.112426 5.5891-2.112426 5.5891z" fill="url(#b)"/><path d="m-39.28025 1023.9674c.02076.4085-.135289.7568-.432046.7659h-12.456592c-.421301 0-.610346-.1062-.681035-.2837.02999.3086.269864.539.681035.539h12.456592c.351622-.011.572789-.4654.441865-.9787l-.0098-.042z" fill="#fff"/></g><path d="m-50.114336 1018.3425c-.196623 0-.324428.091-.403077.2654 0 0-2.096325 5.4216-2.096325 5.4216s-.07865.2113-.07865.5604v3.0358c0 .4427.145111.5317.521052.5317h12.315482c.432377 0 .501391-.1034.501391-.6005v-3.0359s.03333-.2423-.02949-.4129l-2.154551-5.4919c-.05805-.161-.179944-.27-.333498-.2737h-8.242331z" fill="none" stroke="url(#c)" stroke-linecap="round" stroke-linejoin="round" stroke-width=".326784"/></g><path d="m6.2931459 1036.5595v5.0129l-1.8800295.027 1.8417981 2.3265 1.8417981 2.1366 1.7495965-2.1741 1.7495949-2.3635-2.0374466.022v-4.9927z" fill="#8ae234" stroke="#4e9a06" stroke-width=".383414"/><g fill="none" transform="matrix(.53308013 0 0 .53002581 5.87076858974 493.71157265339)"><path d="m-20.433217 1049.479-.243616-.2772-.243616-.2772.361875-.072.361875-.072-.118259.3495z" stroke="#505050" stroke-width="2.912" transform="matrix(.31420062692 .47731795968 -.47731795968 .31420062692 509.67860622911 730.05164328931)"/><path d="m.242424 1036.1198h16v16h-16z"/></g><g transform="matrix(.01261313966 -.01254041596 .00856144814 .00838092182 1.43506746682 1046.02022794307)"><path d="m104.37145 580.93362c0-23.4 0-46.8 0-70.2h608.40001v140.4c-202.8 0-405.60001 0-608.40001 0 0-23.4 0-46.8 0-70.2zm65.7 29.47025c.27315-19.60316-27.82549-8.91068-22.28474-25.04984-14.0664-3.29552-19.92991 6.04689-11.53041 17.69277 12.48593 4.95716 18.35088 12.77065 33.81515 7.35707zm80.55-.57129c26.02793-18.06452-7.07746-37.99142-27.07461-33.79598-3.58631-15.36802 47.02675-.83284 24.4341-19.12267-24.31303-12.88927-57.02365 22.78464-23.08994 31.95473 16.32819-7.26571 33.16414 14.87051 7.94766 11.71794-14.02556-4.68763-38.05184 7.64744-10.73733 10.93451 9.45724-.4937 19.3138 1.12922 28.52012-1.68853zm37.35-19.89896c1.642-8.81494-4.83958-25.5425 9.9-21.6 15.09784 3.79935 11.06989-16.60792-2.5412-10.47409-11.48318-.11883-22.96636-.23765-34.44954-.35648-4.67811 18.72056 25.66319 4.7488 15.36016 28.94103-7.20234 23.47378 16.52032 34.89917 11.64499 7.51221.0285-1.34089.0571-2.68178.0856-4.02267zm21.1184 18.32428c2.77648-13.45321 35.96927-13.12486 32.4316 2.82572 20.58835 1.42571 12.01636-43.0308 6.48669-54.43258-33.18806-7.78386-38.67956 33.37057-52.83669 53.927 3.94572 1.25375 11.42694 2.12093 13.9184-2.32014zm11.92016-19.78572c1.59903-28.96264 35.18921-17.99597 14.41584.50349-4.801.008-9.66009.33714-14.41584-.50349zm84.41144 17.66144c-.1023-10.35047-18.40576-3.05968-26.38599-5.77456-15.2542-20.63685 29.26752-1.14906 23.23599-19.7017-6.65248-.93572-39.23679-3.55943-20.51315-12.03431 7.32808-2.6348 24.44142 4.72204 23.93306-5.91447-8.29357-10.45601-55.55076-12.55667-42.11809 17.49701-3.21922 28.16237 18.85046 44.2234 41.84818 25.92803zm50.01995 4.37271c33.97084-17.82606 5.81567-68.12589-29.22341-53.94444-16.61574-3.51071-7.03507 17.36695-9.54653 26.70283-3.68751 20.55521 1.3485 35.449 25.35642 28.13574 4.46469-.26034 8.99271-.0861 13.41352-.89413zm-26.46994-10.37271c-6.56944-20.02738 1.89163-46.14129 25.86469-27.92009 11.78788 20.72096-5.90589 34.08535-25.86469 27.92009zm73.2-10.2c1.48145-9.10514-4.68038-25.59635 10.26048-21.69503 22.73189-10.47447-20.26343-14.59788-31.55579-11.25532-18.38225 1.15517-3.42127 17.41809 8.87683 12.51323-5.51555 15.09999 9.00459 63.15289 12.22357 29.59798.065-3.05361.12994-6.10728.19491-9.16086zm58.05 16.2c2.00903-12.25136-22.23108.81039-22.53929-9.27602-2.03492-12.44787 6.19605-46.9894-11.49124-37.47191.92492 22.24941-11.79253 63.07125 24.17651 51.84199 4.5986-.92725 12.1642 2.76445 9.85402-5.09406zm51.18274 3.375c4.60258-20.82571-38.72883 3.52354-28.95963-19.70104 10.1375 2.91201 37.2531-3.08312 19.88753-10.67993-16.48355 6.87418-31.23692-13.73568-8.5206-10.55179 19.7413 6.98944 24.13302-17.15808 2.08118-11.81285-38.20319-11.87584-26.80032 31.88336-25.59766 54.09273 12.94396.0349 29.57031 3.06427 41.10918-1.34712zm20.17445-8.27157c2.95605-30.81581 19.0577 7.57343 29.17725 10.07149 19.15499-3.76801-20.56352-27.62411 3.12594-36.71573 5.85427-21.07192-46.55293-27.68156-43.81038-8.41203 2.92124 14.46395-7.98278 42.59001 7.97499 45.07643 6.11331 1.47493 2.30377-6.64428 3.5322-10.02016zm1.31781-23.11173c-9.11845-22.89646 38.03556-2.41138 8.18213.9249l-5.12713-.0185-3.05509-.90642zm-457.77133 21.15693c24.2241-22.25902-.0904-63.88178-30.28939-45.28568-17.63589 25.9235 40.6826-5.5604 26.79011 27.39314-7.77307 5.49178-8.60881 29.92315 3.49928 17.89254zm-11.53039-9.12363c25.09815-31.07709-26.87243-26.93401-26.55881-8.06297 24.99831-6.01563 2.78969 19.61724 26.55881 8.06297zm514.71956-24.7955c-7.61395-6.76622 5.09065 7.20986 0 0zm12.97196.57315c2.51887-4.08193-6.69095 4.86639 0 0zm-4.26143-4.27994c5.19484-13.85034-15.20404-.76877-.00003 0zm-8.38525-9.19486c5.28916-7.02083-7.92279 7.25103 0 0zm14.33188 2.07903c-4.24835-4.74465-7.21646-5.85596 0 0z" fill="#7489a5"/><path d="m107.52145 650.23362c-2.84624-45.59697-.6651-91.82932-1.35-137.7 89.2-2.85992 178.68987-.93275 268.00622-1.67682 112.41458-.0844 224.82921-.0468 337.24379-.12337-.15734 46.20006-.31468 92.40013-.47201 138.60019-197.54267.14866-395.08533.29731-592.628.44595l594.00001.9081c-201.59998-.10482-403.20158.65821-604.80001-.45405zm8.79213-.59035-2.77122.22288zm55.52578-37.62099c14.92774-22.30549 26.08789-68.30401-17.33556-63.28086-15.94443 2.28503-16.82545 9.92182-10.41095 20.6235-32.05915 21.29863-1.08823 52.94758 27.74651 42.65736zm36.78195-33.84364c8.44291 15.00125 37.22109 27.74283 6.85353 31.46494-5.90884 9.59218-1.58867-24.26562-6.85353-31.46494zm80.07014 34.07498c3.72126-21.13506-7.79175-45.53193 19.7217-46.06572 5.43491-16.72418-18.83324-7.78366-28.69712-10.00428-18.99197-6.12306-31.00737 11.50907-5.24458 16.4385 3.83828 12.47151-10.4289 49.60509 14.22 39.6315zm62.96617-55.16725c-441.952225-177.418-220.97611-88.709 0 0zm-12.38617 24.88c-82.58836-36.94425-165.17672-73.88849-247.765084-110.83274 82.588364 36.94425 165.176724 73.88849 247.765084 110.83274zm66.97639 30.82096c14.21693-22.90715-49.44803-8.99745-20.73217-22.20157 30.5786 7.4371 17.27412-23.56325-5.58339-13.09127-8.49287-17.21814 44.90655 1.92329 23.43969-21.90499-20.90657-.6143-49.26068-5.36925-41.40124 25.33274-10.82085 38.2222 17.89263 33.52164 44.27711 31.86509zm49.86719-.84063c31.67262-13.50481 13.01108-68.03414-21.40858-56.04974-33.47052-8.34765-15.32229 36.97455-18.72323 56.68658 13.35056.92069 26.8654 1.57425 40.13181-.63684zm-25.94357-27.86308c-7.29816-35.30201 49.61313-2.71978 17.7015 15.05571-12.53653 2.8407-22.50985.57975-17.7015-15.05571zm72.93068 27.39267c2.76957-20.32945-7.42864-45.0964 17.97454-44.76232 2.78674-21.37542-36.42444-9.76006-48.76337-8.68387-9.32286 18.71378 28.01422 5.59129 16.49116 28.56435-.53533 9.72923-4.05079 35.04898 14.29767 24.88184zm59.18873-4.8121c-8.1406-10.99871-30.96067-6.85725-23.21941-31.55258 8.61073-18.3611-17.76049-30.18254-14.9584-6.3571-1.70074 24.37318-5.7359 55.0727 28.42336 44.20142 3.9229-1.58789 14.36007 4.07093 9.75445-6.29174zm50.82639 1.26943c3.81996-17.57767-48.87527-3.89794-22.59579-17.45021 30.13971 6.64171 17.40356-23.20144-5.39462-12.99251-8.60877-17.90046 41.29223 3.67357 25.64521-20.16421-31.79697-11.62161-52.51484 6.57155-44.03821 39.77791-5.07159 24.20434 40.45071 18.39423 46.38341 10.82902zm19.03059 4.85371c-1.8881-13.52111 6.07754-33.60227 16.70361-12.33931 3.50122 23.59898 34.05653 8.4735 11.8659-8.42959-3.11858-13.37065 16.08282-33.62746-11.92794-36.14812-19.45134-4.78384-38.65926-.87721-30.51049 23.44839 3.28519 11.92125-9.31178 41.53021 13.86892 33.46863zm1.42361-39.50371c8.31979-14.48354 26.18921 11.12776 1.13685 4.16857l-1.32148-.95898zm55.2278-3.49094c26.66782-15.06013-27.21563-34.12855-14.19136-4.33383 2.98338 4.34852 9.19492 7.04288 14.19136 4.33383zm-5.7278-5.45594c1.3243-5.68402 3.12688 4.83684 0 0zm6.04443-2.57099c.7237-14.87203 4.30511 4.11911 0 0zm-11.21747-2.88213c.37874-6.78924.80131 7.26801 0 0zm-561.60197-46.94605c-5.63973-2.24504-1.02056 2.07656 0 0zm445.50001-.0789c-109.9063-.11414-219.81291-.18307-329.71905.0894 121.26257.21454 242.52552.21454 363.78809 0-11.35623-.0647-22.71268-.0654-34.06904-.0894z" fill="#2a4679"/><path d="m209.92921 650.54823c-347.46662-239.7259-173.733309-119.86295 0 0zm-102.87334-2.78961c-.0304-44.54998-.0334-89.10002-.008-133.65 201.69993-3.41264 421.28633-1.56423 602.84213-1.575 1.05653 45.57509.082 91.20238.12403 136.8-210.73913-.15708-422.11771.44852-602.95816-1.575zm114.63814-136.71058c-355.30982-146.72578-177.654909-73.36289 0 0z" fill="#1a3d80"/></g></g></svg>