<svg height="16" viewBox="0 0 16 16" width="16" xmlns="http://www.w3.org/2000/svg"><g transform="matrix(1.15910159672 0 0 1.01776887392 -.0044158205 -1054.07340292717)"><path d="m10.241139 1035.6707 3.502209 3.9373h-10.7087336l-3.03080472-3.9373z" fill="#eee"/><g transform="matrix(0 .92849574 -1.3747391 0 1432.3008 1064.2865)"><path d="m-22.386928 1034.4127 4.240423-2.5476v7.7897l-4.240423 2.2046z" fill="#eee"/><path d="m-22.385737 1034.4065-4.240423-2.5476v7.7897l4.240423 2.2046z" fill="#e69614" opacity=".5"/><path d="m-13.888204 1034.3747-4.240425-2.5475v7.7896l4.240425 2.2047z" fill="#e69614" opacity=".5"/><path d="m-29.761319 1034.3375 2.116415-1.2552.02023 6.2757-2.13665 1.2551z" fill="#555753"/></g><g fill="#555753"><path d="m10.356655 1044.5136 1.725475 1.9651h-8.6273718l-1.7254742-1.9651z"/><path d="m10.356655 1042.5485 1.725475-1.9651h-8.6273718l-1.6887769 1.9651z"/><path d="m10.356655 1050.4088 1.725475-1.9651-8.6273718-.037-1.7254742 2.0021z"/></g></g></svg>