<svg height="16" viewBox="0 0 16 16" width="16" xmlns="http://www.w3.org/2000/svg"><g transform="translate(0 -1036.3622)"><rect fill="#888a85" height="16" rx="1" transform="matrix(0 -1 -1 0 0 0)" width="8" x="-1048.3622" y="-16"/><g transform="scale(1 -1)"><path d="m3-1040.3622h10v4h-10z" fill="#888a85"/><path d="m3-1052.3622h10v7h-10z" fill="#888a85"/><path d="m4-1051.3622h8v6h-8z" fill="#fff"/><path d="m4-1040.3622h8v3h-8z" fill="#fff"/></g><rect height="14" rx=".75" ry=".875" transform="matrix(0 -1 -1 0 0 0)" width="6" x="-1047.3622" y="-15"/><path d="m13 1042.3622h1v1h-1z" fill="#f57900" opacity=".91"/><path d="m5 1048.3622h1v1h-1z" opacity=".91"/><path d="m6 1049.3622h1v1h-1z" opacity=".91"/><path d="m7 1048.3622h1v1h-1z" opacity=".91"/></g><path d="m11 6h1v1h-1z" fill="#73d216" opacity=".91"/></svg>