<svg height="16" viewBox="0 0 16 16" width="16" xmlns="http://www.w3.org/2000/svg" xmlns:xlink="http://www.w3.org/1999/xlink"><radialGradient id="a" cx="8.143557" cy="7.267897" gradientTransform="matrix(.968273 0 0 1.032767 3.353553 .646447)" gradientUnits="userSpaceOnUse" r="38.158695"><stop offset="0" stop-color="#fff"/><stop offset="1" stop-color="#f8f8f8"/></radialGradient><radialGradient id="b" cx="30.653816" cy="14.9373" gradientTransform="matrix(.148355 .01009137 -.01104438 .162365 25.06011 12.81706)" gradientUnits="userSpaceOnUse" r="86.70845"><stop offset="0" stop-color="#fafafa"/><stop offset="1" stop-color="#bbb"/></radialGradient><radialGradient id="c" cx="31.863327" cy="2.366731" gradientTransform="matrix(.331735 0 0 .353831 20.10526 9.5823)" gradientUnits="userSpaceOnUse" r="37.751713"><stop offset="0" stop-color="#a3a3a3"/><stop offset="1" stop-color="#8a8a8a"/></radialGradient><g transform="matrix(1.0000007 0 0 .99993443 -.000006 .001043)"><path d="m4.6200285 38.651015c.041808.420455.4973856.840909.9111553.840909h31.1361622c.41377 0 .785732-.420454.743924-.840909l-2.696617-27.119287c-.041808-.420454-.497386-.840908-.911155-.840908h-12.723416c-.590546 0-1.209083-.379552-1.402861-.9603351l-1.103002-3.3058764c-.169252-.5072777-.54715-.7357947-1.314473-.7357947h-14.9373272c-.4137696 0-.7857312.4204542-.7439232.8409082z" fill="#fff" stroke="#5a5a5a" stroke-linecap="round" stroke-linejoin="round" stroke-width=".994871" transform="matrix(.34360818606 0 0 .35338048239 -.37006628943 1.86853723338)"/><g transform="matrix(.33451213963 0 0 .33384592632 -.04245004465 -1.0462540749)"><g stroke-linejoin="round"><path d="m7.7526014 3.6464462 23.4470146-.015625 10.278937 12.3134538.000004 27.473617c0 .636573-.512476 1.149048-1.149049 1.149048h-32.5769026c-.6365729 0-1.1490486-.512475-1.1490486-1.149048v-38.6223972c0-.6365729.5124757-1.1490486 1.1490446-1.1490486z" display="block" fill="#eeeeec" stroke="#a3a3a3" stroke-linecap="round"/><path d="m7.8151023 4.5839462h24.8763917s7.750446 8.0214268 7.750446 8.1039998v30.693336c0 .08257-.06648.149049-.149048.149049h-32.4777897c-.082573 0-.1490485-.06648-.1490485-.149049v-38.6482872c0-.082573.066476-.1490486.1490485-.1490486z" display="block" fill="none" stroke="url(#a)" stroke-linecap="round"/><path d="m41.41056 15.872435-10.235119-12.2369416.059214 12.3326516z" display="block" fill="url(#b)" stroke="url(#c)"/></g><path d="m39.121563 14.816434-6.9251-8.3787965.04198 8.2560805z" fill="#d3d7cf" fill-rule="evenodd" stroke="#fafafa"/></g><path d="m1.8396377 15.676801c.034988.07452.1049626.149032.2099251.149032h11.2660222c.06998 0 .176276-.04451.239529-.09315.179399-.137969.221494-.215793.301968-.343031.828038-1.309255 1.963492-6.7928027 1.963492-6.7928027.03499-.074515-.03499-.1490287-.139951-.1490287h-11.8123328c-.1049626 0-.5601023 5.6759104-1.6448275 6.7963724l-.4188125.43261h.034987z" display="block" fill="#6194cb" stroke="#3465a4" stroke-linejoin="round" stroke-width=".346673"/><path d="m15.383006 8.8453169h-11.2152936s-.7264396 5.6449991-1.597229 6.4276261c2.7468177 0 10.6784166-.01714 10.6851206-.01714.592468 0 1.659927-4.45275 2.127402-6.410488z" style="opacity:.522727;fill:none;stroke:#fff;stroke-width:.346726;stroke-linecap:round;stroke-opacity:.6"/></g></svg>