<svg height="16" viewBox="0 0 16 16" width="16" xmlns="http://www.w3.org/2000/svg" xmlns:xlink="http://www.w3.org/1999/xlink"><linearGradient id="a" gradientTransform="matrix(.38145664 0 0 .32789635 -1.164185 1037.0763)" gradientUnits="userSpaceOnUse" x1="26.076092" x2="30.811172" y1="26.696676" y2="42.007351"><stop offset="0" stop-color="#fff"/><stop offset="1" stop-color="#fff" stop-opacity="0"/></linearGradient><path d="m.207753.207753h15.584494v15.584494h-15.584494z" fill="none" opacity="0" stroke="#000" stroke-linecap="round" stroke-width=".415506" transform="matrix(1.0000009 0 0 .9999115 -.000006 .0014)"/><g stroke-width=".372815" transform="matrix(.75005604 0 0 .7499038 .000131 -773.17034)"><rect fill="#c68827" fill-rule="evenodd" height="14.251704" rx=".555592" ry=".481916" stroke="#714c16" width="15.626003" x=".186998" y="1037.9244"/><rect fill="none" height="13.573779" rx=".191663" ry=".166247" stroke="#c68827" width="14.845407" x=".577301" y="1038.2476"/></g><g transform="matrix(.79332188 0 0 .79902198 4.707899 -830.0618)"><rect fill="#eeeeec" fill-rule="evenodd" height="12.150646" rx=".223304" ry=".191331" stroke="#888a85" stroke-width=".364867" width="12.200349" x="1.811155" y="1039.0302"/><path d="m2.466192 1039.5247h11.067639v11.161843h-11.067639z" fill="none" stroke="url(#a)" stroke-width=".353664"/><g fill="#babdb6" fill-rule="evenodd"><path d="m13.805469 1049.0604.01769 2.0554-3.06094-.3135z" opacity=".488636"/><path d="m10.432595 1050.9752c.716995.058 3.385084-1.1072 3.581677-2.5024-1.479809.1704-1.727259.05-3.371997.105 0 0 .115565 2.2238-.20968 2.3974z" stroke="#868a84" stroke-width=".372816"/></g></g></svg>