<svg height="16" viewBox="0 0 16 16" width="16" xmlns="http://www.w3.org/2000/svg"><g transform="matrix(0 .9999994 -.99760656 0 1049.8815 -.0003)"><g transform="translate(-2.946714 1005.4207)"><path d="m14.548103 31.153875c.07396.02391.145595.05048.217727.07589.227299.766601 1.281093 1.541826.880373 2.305255-1.334954 2.226312-2.660363 4.482163-3.985343 6.726032-.260214.05126-.522707.07918-.785709.08538-.553541.01403-1.1217881-.06786-1.647149-.256139 1.762403-2.983801 3.525548-5.974181 5.320101-8.936421z" fill="#fff" stroke="#888a85" stroke-linecap="round" stroke-linejoin="round" stroke-width=".348931"/><path d="m14.58806 32.069818c-.08065.107279-.156884.303898-.239377.403451-1.412071 2.356233-2.847973 4.708495-4.265262 7.054938-.02113.08832-.2840048.353219-.0042.329029.387856.06905.792682.122336 1.179325.0199 1.311626-2.169373 2.598094-4.355497 3.906726-6.525637.119498-.135131.142752-.32285.01722-.45779-.184939-.284939-.372287-.584359-.561788-.856606l-.02462.02467-.008.008z" fill="#e2e2e2"/><path d="m294.73242 13.672852 1.01416-1.712403 1.29785.339844-.64502 1.084473-1.2666 1.333984z" fill="#ff4c4c" stroke="#9a0c00" stroke-linecap="round" stroke-linejoin="round" stroke-width=".281441" transform="matrix(1.2693718 0 0 1.2109197 -365.88744 25.001449)"/><path d="m9.7440071 39.997082c-.4265135.169831-.423608.710136-.6716836 1.034235-.1194469.249762-.3293167.469739-.4187243.732226-.00338.179836.1563045.474624.3598346.316218.4832604-.399988.8947855-.885822 1.2017952-1.439991.08108-.170987.277662-.312001.302968-.49003-.187924-.199173-.5278687-.185989-.7741899-.152658z" fill="#ff4c4c"/><path d="m7.1458179 31.153875c-.072624.02391-.1429722.05048-.2138058.07589-.2232053.766601-1.2580219 1.541826-.8645183 2.305255 1.3109135 2.226312 2.6124532 4.482163 3.9135728 6.726032.2555274.05126.5132944.07918.7715604.08538.543572.01403 1.101586-.06786 1.617486-.256139-1.730665-2.983801-3.462059-5.974181-5.2242951-8.936421z" fill="#fff" stroke="#888a85" stroke-linecap="round" stroke-linejoin="round" stroke-width=".348931"/><path d="m7.0619238 32.069818c-.1336526.393132-.5058309.682495-.5983502 1.101312 1.2940161 2.2311 2.6068399 4.455538 3.8999624 6.684199.418146.09013.847357.03251 1.260809-.05452-.06587-.258363-.25758-.464402-.359392-.708172-1.3589459-2.292657-2.7299277-4.582793-4.0748112-6.881066-.00512-.0529-.075614-.16893-.128218-.141753z" fill="#e2e2e2"/><path d="m8.799851 41.154898c1.128794.602481 1.219804 2.307448.2016627 3.80835-1.01813 1.501785-2.7581173 2.231476-3.8874198 1.631645-1.129313-.602481-1.2198033-2.306565-.2016627-3.807467 1.0176111-1.5009 2.7581174-2.230591 3.8874198-1.632528zm-.6473097.956818c-.5012467-.266453-1.5727895.188604-2.2563037 1.198237-.6849192 1.009632-.6360645 2.063407-.1352889 2.329057.5007662.268059 1.5732519-.188604 2.2567659-1.198237.6853909-1.009632.6360643-2.062603.1348267-2.329057z" fill="#ef3535" stroke="#a40000" stroke-width=".348931"/><path d="m13.207322 41.154898c-1.128794.602481-1.219804 2.307448-.201663 3.80835 1.01813 1.501785 2.758118 2.231476 3.88742 1.631645 1.129313-.602481 1.219803-2.306565.201663-3.807467-1.017611-1.5009-2.758118-2.230591-3.88742-1.632528zm.64731.956818c.501246-.266453 1.572789.188604 2.256303 1.198237.684919 1.009632.636065 2.063407.135289 2.329057-.500766.268059-1.573252-.188604-2.256766-1.198237-.685391-1.009632-.636064-2.062603-.134826-2.329057z" fill="#ef3535" stroke="#a40000" stroke-width=".348931"/><path d="m299.26807 13.672852-1.01416-1.712403-1.29786.339844.64405 1.084473 1.26709 1.333984z" fill="#ef2929" stroke-linecap="round" stroke-linejoin="round" stroke-width=".275905" transform="matrix(1.264677 0 0 1.264677 -364.86263 24.708361)"/></g><rect fill="none" height="16.038387" opacity="0" ry=".344419" width="16.00001" x=".00029" y="1036.3619"/></g></svg>