<svg height="16" viewBox="0 0 16 16" width="16" xmlns="http://www.w3.org/2000/svg"><g transform="translate(0 -1036.3622)"><path d="m0 1036.3622h16v16h-16z" fill="none"/><path d="m126 540-6 6 6 6h9.0353c.53-.02.96-.49.96-1v-10c0-.53079-.34561-1-1.0089-1h-8.99zm1 3h1c.0104-.00012.0208-.00046.0313 0 .25495.0112.50987.12858.6875.3125l1.2812 1.2812 1.3125-1.2812c.27-.23.45-.3.69-.31h.98745l.0126 1c.004.28645-.0343.55065-.25.75l-1.2812 1.2812 1.25 1.25c.19.19.28.45.28.72l-.0113 1h-.98865c-.2653-.00001-.53059-.0931-.71875-.28125l-1.28-1.28-1.2812 1.2812c-.19.19-.45.28-.72.28h-1.06588l.0659-1c.0174-.26469.0931-.53058.28125-.71875l1.2812-1.25-1.2812-1.2812c-.21-.19-.3-.47-.28-.75l-.0671-1z" fill="#d3d7cf" stroke="#000" stroke-linejoin="round" stroke-width=".999853" transform="matrix(.94145151 0 0 .92307505 -112.50359 540.3633)"/></g></svg>