<svg height="16" viewBox="0 0 16 16" width="16" xmlns="http://www.w3.org/2000/svg" xmlns:xlink="http://www.w3.org/1999/xlink"><linearGradient id="a" gradientTransform="matrix(.95292569 0 0 .94435365 1.088896 2.057597)" gradientUnits="userSpaceOnUse" x1="26.076092" x2="30.811172" y1="26.696676" y2="42.007351"><stop offset="0" stop-color="#fff"/><stop offset="1" stop-color="#fff" stop-opacity="0"/></linearGradient><linearGradient id="b" gradientTransform="matrix(1.052632 0 0 1 -1.789474 0)" gradientUnits="userSpaceOnUse" x1="25.404572" x2="25.464211" xlink:href="#c" y1="3.818019" y2="9.323351"/><linearGradient id="c"><stop offset="0" stop-color="#97978a"/><stop offset=".5" stop-color="#c2c2b9"/><stop offset="1" stop-color="#7d7d6f"/></linearGradient><linearGradient id="d" gradientTransform="matrix(.538743 0 0 .511806 10.8008 -.58264)" gradientUnits="userSpaceOnUse" x1="25.404572" x2="25.404572" xlink:href="#c" y1="3.818019" y2="6.481061"/><path d="m.207753.207753h15.584494v15.584494h-15.584494z" fill="none" opacity="0" stroke="#000" stroke-linecap="round" stroke-width=".415506"/><g transform="matrix(.39963131 0 0 .34748431 -1.584022 .0001)"><rect fill="#c68827" fill-rule="evenodd" height="41.045437" rx="1.387937" ry="1.387936" stroke="#714c16" width="39.035683" x="4.464317" y="4.5"/><rect fill="#eeeeec" fill-rule="evenodd" height="34.994312" rx=".55784" ry=".551039" stroke="#888a85" stroke-width=".978678" width="30.477974" x="8.521661" y="7.684801"/><rect fill="#5c5c5c" fill-rule="evenodd" height="4" rx=".983875" width="12" x="18"/><path d="m10.158024 9.108694h27.648327v32.146523h-27.648327z" fill="none" stroke="url(#a)" stroke-width=".94863"/><rect fill="none" height="39.092987" rx=".478798" stroke="#c68827" width="37.085655" x="5.439343" y="5.430778"/><g fill-rule="evenodd"><rect fill="url(#b)" height="7" rx="1.387938" ry="1.387936" stroke="#5c5c5c" width="18.947376" x="14.526322" y="3.5"/><rect fill="url(#d)" height="3.58264" rx=".325436" width="9.697376" x="19.151323" y="1.208679"/><path d="m38.484935 36.572053.04419 5.919851-7.646606-.902998z" fill="#babdb6" opacity=".488636"/><path d="m30.059082 42.086864c1.791141.167652 8.456356-3.188725 8.947469-7.207148-3.696746.490779-4.314906.143624-8.423664.302634 0 0 .288695 6.404514-.523805 6.904514z" fill="#babdb6" stroke="#868a84"/></g></g></svg>