<svg height="24" viewBox="0 0 24 24" width="24" xmlns="http://www.w3.org/2000/svg"><g transform="translate(0 8)"><path d="m12.308604 9.194147h4.189778v2.683424h-4.189778v2.683408h-1.396587l-4.1897636-4.025112 4.1897636-4.0251279h1.396587z" fill="#fff" fill-rule="evenodd" stroke="#000" stroke-width="1.00291"/><rect fill="#fff" height="24" opacity="0" rx=".415072" ry="2.121914" width="24" y="-8"/><g fill="#bebebe" stroke="#000" stroke-width=".299349"><path d="m4.1496752-5.1236597v4.4804889s0 1.49349634 1.5 1.49349634h4.4999998l1.5-2.29566814 1.5 2.29566814h4.500001c1.5 0 3-2.98699264 0-2.98699264h-1.5l1.5 1.4934963h-4.500001l-1.5-2.2956681-1.5 2.2956681h-4.4999998v-4.4804889z"/><path d="m16.149673-4.945881h1.5v1.493496h-1.5z"/><path d="m13.36647-4.872957h1.5v1.493496h-1.5z"/></g></g></svg>