<svg height="24" viewBox="0 0 24 24" width="24" xmlns="http://www.w3.org/2000/svg"><g transform="translate(0 8)"><g stroke="#000"><path d="m14.149533-6.8096074c0 8.2230556.0012 4.1920366.05016 8.9431893v.7033969h.75364 3.667712c2.702475.1104534 2.580639-6.6322049-.05016-6.4310575-.01881.00142-.03135-.00161-.05016 0h-2.763345v-3.2155287h-1.607765zm1.507279 4.6725652h2.914073.05016.05016c.591352-.061417.698719 3.5456028 0 3.5169846h-.05016-2.964315c-.0096-.76458846.0064-3.2806915 0-3.5169846z" fill="#bebebe" stroke-width=".3"/><path d="m5.7425472-5.2018431v1.4067938h2.8135875c.2039449.020901.3170511.099038.4019411.2009706.078941.094858.1897162.3001697.2009705.6029116.0008039.022991 0 .025564 0 .050162v1.105338h-2.9643154-.0501623c-2.5893848-.1879795-2.7125395 4.7775526-.0501622 4.6725655h3.7179553.7033973v-.7033969l.05016-5.0745063c0-.5956124-.164185-1.1511592-.502427-1.5575218-.3382413-.4063624-.8507323-.6517876-1.356551-.7033969h-.0501603-2.9140728zm.3014558 4.77305052h.050162.050162 2.9643154l-.0501618 1.85897758h-2.9643154-.0501622c-.7524176.029744-.6454209-1.92377045 0-1.85897758z" fill="#bebebe" stroke-width=".3"/><path d="m10.689672 9.194147h-4.1897774v2.683424h4.1897774v2.683408h1.396587l4.189764-4.025112-4.189764-4.0251279h-1.396587z" fill="#fff" fill-rule="evenodd" stroke-width="1.00291"/></g><rect fill="#fff" height="24" opacity="0" rx=".415072" ry="2.121914" width="24" y="-8"/></g></svg>