<svg height="22" viewBox="0 0 22 22" width="22" xmlns="http://www.w3.org/2000/svg"><path d="m0 0h22v22h-22z" opacity="0" stroke-width="1.03709"/><g transform="translate(0 -1030.3622)"><g transform="scale(-1 1)"><path d="m-22 1049.3622h20v2h-20z"/><path d="m-21.99995 1043.361h12.999951v2.001291h-12.999951z"/><path d="m-21.99995 1037.361h12.999951v2.001291h-12.999951z"/><path d="m-22 1031.3622h20v2h-20z"/></g><path d="m.32465065 1036.6869v1.1689c0 .3.15483486.6175.37259229.84l3.20464106 2.6663-3.20464106 2.6668c-.21775743.2224-.37259229.5398-.37259229.8398v1.1689c.39744067 0 .79501505-.0001 1.19245555-.0001.3689854 0 .6586161-.1048.8942751-.3286 1.68929-1.2541 3.3785797-3.0925 5.067736-4.3468l-5.067736-4.3467c-.235659-.2231-.5252897-.3285-.8942751-.3285-.3974405 0-.79501488 0-1.19245555 0z" fill="#ff9753" stroke="#ff5000" stroke-width=".649301"/></g></svg>