<svg height="16" viewBox="0 0 16 16" width="16" xmlns="http://www.w3.org/2000/svg" xmlns:xlink="http://www.w3.org/1999/xlink"><linearGradient id="a" gradientTransform="matrix(.6532359 0 0 .6434219 .16117 .809455)" gradientUnits="userSpaceOnUse" x1="12" x2="12" y1="1.268379" y2="21.251747"><stop offset="0" stop-color="#eeeeec"/><stop offset="1" stop-color="#d4d4cf"/></linearGradient><g transform="matrix(.99911913 0 0 .99908841 .007054 .007531)"><rect fill="url(#a)" fill-rule="evenodd" height="15.030337" rx="1.405571" ry="1.540835" stroke="#888a85" stroke-width=".983784" width="15.030337" x=".484832" y=".484832"/><rect fill="none" height="13.115514" rx=".640129" ry=".629652" stroke="#fff" stroke-width=".902392" width="13.133431" x="1.433284" y="1.442243"/><g fill-rule="evenodd"><path d="m2 2h6v12h-6z"/><g transform="matrix(1.0011275 0 0 1.0009124 -.004533 -.010949)"><circle cx="7.995512" cy="8.00438" r="3.999018"/><path d="m7.9875335 4.0034203c-2.2074574 0-3.9910397 1.8014795-3.9910397 4.0089369 0 2.2074578 1.7835822 3.9910398 3.9910397 3.9910398.00599 0 .011916.000027.017897 0v-7.9999767c-.00598-.0000263-.01191 0-.017897 0z" fill="#eeeeec"/></g></g></g></svg>