<svg height="16" viewBox="0 0 16 16" width="16" xmlns="http://www.w3.org/2000/svg"><g transform="matrix(1.0001054 0 0 .99988465 -.000052 .001793)"><g fill="#729fcf" transform="matrix(-.99978925 0 0 1.0033482 15.998314 -.02763)"><path d="m.47415668.50000006 7.09186162 1.39407454.0401749 12.2118504-7.13203652 1.394075z" style="fill:#729fcf;stroke:#204a87;stroke-width:.948313;stroke-linecap:square;stroke-linejoin:round;stroke-miterlimit:0"/><path d="m1.0391243 1.1777366 5.9619308 1.3212086v11.0021098l-6.04228912 1.321209z" style="opacity:.5;fill:#729fcf;stroke:#fff;stroke-width:.499218;stroke-linecap:square;stroke-linejoin:round;stroke-miterlimit:0"/><path d="m4.1898254 7.2526761h2.1848076v1.7493916h-2.1848076v1.2495653h-.7282687l-2.1112514-2.2492177 2.1112514-1.9993046h.7282687z" fill="#fff" fill-rule="evenodd" stroke="#3465a4" stroke-width=".497"/></g><path d="m.474157 1.974157h7.051687v12.051686h-7.051687z" style="fill:#3465a4;stroke:#204a87;stroke-width:.948313;stroke-linecap:square;stroke-linejoin:round;stroke-miterlimit:0"/><path d="m4.1898254 7.2526761h2.1848076v1.7493916h-2.1848076v1.2495653h-.7282687l-2.1112514-2.2492177 2.1112514-1.9993046h.7282687z" fill="#fff" fill-rule="evenodd" stroke="#3465a4" stroke-width=".496734"/><path d="m.998945 2.498945h6.00211v11.00211h-6.00211z" style="opacity:.5;fill:none;stroke:#fff;stroke-width:.49789;stroke-linecap:square;stroke-linejoin:round;stroke-miterlimit:0"/></g></svg>