<svg height="16" viewBox="0 0 16 16" width="16" xmlns="http://www.w3.org/2000/svg" xmlns:xlink="http://www.w3.org/1999/xlink"><linearGradient id="a" gradientTransform="matrix(1.0073616 0 0 1.0227088 -2.371276 -22.704243)" gradientUnits="userSpaceOnUse" x1="3.298668" x2="19.242971" y1="1048.0987" y2="1048.0987"><stop offset="0"/><stop offset="1" stop-opacity="0"/></linearGradient><g transform="translate(0 -1036.3622)"><g transform="matrix(.99615992 0 0 1.0000236 -.94802111574 2.14183513188)"><path d="m.951675 1048.1956h16.061678v1.999953h-16.061678z" fill="url(#a)"/><path d="m-9.0839653 1041.3845-1.6835687-1.0424-1.683568-1.0423 1.744472-.9369 1.7444715-.9368-.060903 1.9792z" stroke="#ce5c00" stroke-linecap="square" stroke-linejoin="round" stroke-width=".685035" transform="matrix(.73866688 -.38084261 .44854712 .62036354 -455.72963 400.4501)"/></g><path d="m0 1036.3622h16v13h-16z" fill="#d3d7cf"/><path d="m1 1040.1122 1.4-1.3749v6.8749l1.4-2.7501 1.4 2.7501v-5.5h1.3999997v1.375l1.3999999 1.3749v1.3751l1.3999998 1.375 1.3999996-1.375v-2.75l1.399999 1.3749v-5.4999l1.400003 1.3751v2.7499l1.399999 1.3749v5.5001h-14z" fill="#729fcf"/><g stroke="#ce5c00" stroke-linecap="square" stroke-linejoin="round" stroke-width=".685035"><path d="m-9.0839653 1041.3845-1.6835687-1.0424-1.683568-1.0423 1.744472-.9369 1.7444715-.9368-.060903 1.9792z" fill="#babdb6" transform="matrix(.73598715 -.38073026 .44691988 .62018054 -449.02498 402.80802)"/><path d="m-9.0839653 1041.3845-1.6835687-1.0424-1.683568-1.0423 1.744472-.9369 1.7444715-.9368-.060903 1.9792z" fill="#fff" transform="matrix(.73598715 -.38073026 .44691988 .62018054 -443.02498 402.80802)"/></g></g></svg>