<svg height="12" viewBox="0 0 12 12" width="12" xmlns="http://www.w3.org/2000/svg"><g transform="matrix(-.75000002 0 0 .75000002 12.000001 -777.27167)"><g transform="matrix(1.3333333 0 0 1.3333333 -110.66693 448.36222)"><path d="m-156 224c-1.108 0-2 .892-2 2v8c0 1.108.892 2 2 2h8c1.108 0 2-.892 2-2v-8c0-1.108-.892-2-2-2zm.4375 1h7.125c.78971 0 1.4375.64779 1.4375 1.4375v7.125c0 .78971-.64779 1.4375-1.4375 1.4375h-7.125c-.78971 0-1.4375-.64779-1.4375-1.4375v-7.125c0-.78971.64779-1.4375 1.4375-1.4375z" transform="translate(241.0002 217)"/><path d="m92.214796 450.05558v-6.10989l-6.528533 3.05495z" fill="#eeeeec" stroke="#000200" stroke-width=".570808"/></g><path d="m3.5555552 1037.6956c-1.2311111 0-2.2222221.9912-2.2222221 2.2223v8.8888c0 1.231.991111 2.2222 2.2222221 2.2222h8.8888888c1.231111 0 2.222222-.9912 2.222222-2.2222v-8.8888c0-1.2311-.991111-2.2223-2.222222-2.2223zm.4861111 1.1111h7.9166677c.877455 0 1.59722.7198 1.59722 1.5971v7.9167c0 .8775-.719765 1.5972-1.59722 1.5972h-7.9166677c-.8774556 0-1.5972221-.7197-1.5972221-1.5972v-7.9167c0-.8773.7197665-1.5971 1.5972221-1.5971z" fill="#eeeeec" stroke-width="1.111108"/></g></svg>