<?xml version="1.0" encoding="UTF-8" standalone="no"?>
<svg
   xmlns:osb="http://www.openswatchbook.org/uri/2009/osb"
   xmlns:dc="http://purl.org/dc/elements/1.1/"
   xmlns:cc="http://creativecommons.org/ns#"
   xmlns:rdf="http://www.w3.org/1999/02/22-rdf-syntax-ns#"
   xmlns:svg="http://www.w3.org/2000/svg"
   xmlns="http://www.w3.org/2000/svg"
   xmlns:sodipodi="http://sodipodi.sourceforge.net/DTD/sodipodi-0.dtd"
   xmlns:inkscape="http://www.inkscape.org/namespaces/inkscape"
   version="1.1"
   width="16"
   height="16"
   id="svg2"
   viewBox="0 0 16 16"
   inkscape:version="0.91 r13725"
   sodipodi:docname="gimp-menu-left.svg">
  <sodipodi:namedview
     pagecolor="#ffffff"
     bordercolor="#666666"
     borderopacity="1"
     objecttolerance="10"
     gridtolerance="10"
     guidetolerance="10"
     inkscape:pageopacity="0"
     inkscape:pageshadow="2"
     inkscape:window-width="501"
     inkscape:window-height="405"
     id="namedview1697"
     showgrid="false"
     inkscape:zoom="14.75"
     inkscape:cx="-335.98761"
     inkscape:cy="712.43925"
     inkscape:window-x="0"
     inkscape:window-y="27"
     inkscape:window-maximized="0"
     inkscape:current-layer="svg2" />
  <metadata
     id="metadata90">
    <rdf:RDF>
      <cc:Work>
        <dc:format>image/svg+xml</dc:format>
        <dc:type
           rdf:resource="http://purl.org/dc/dcmitype/StillImage" />
        <dc:title>Gimp Color Icon Theme</dc:title>
        <dc:contributor>
          <cc:Agent>
            <dc:title>many unknown and unnamed, Andrew Chadwick, Alexandre Prokoudine, Aryeom Han, Benoit Touchette, Jakub Steiner, Jehan, Johannes Matschke, Kevin Payne, Klaus Staedtler, Marek Dvoroznak, Michael Natterer</dc:title>
          </cc:Agent>
        </dc:contributor>
        <dc:description>Enhanced, extended tango-art-libre for GIMP</dc:description>
      </cc:Work>
    </rdf:RDF>
  </metadata>
  <defs
     id="defs7386">
    <linearGradient
       gradientTransform="matrix(0,-735328.32,170712.69,0,2464326300,577972450)"
       osb:paint="solid"
       id="linearGradient19282">
      <stop
         stop-color="#b4b4b4"
         id="stop19284" />
    </linearGradient>
    <linearGradient
       osb:paint="gradient"
       x1="231.55"
       x2="320.70001"
       gradientUnits="userSpaceOnUse"
       id="linearGradient6057"
       gradientTransform="matrix(0.01502614,0,0,0.01468232,2.9686133,1037.3257)">
      <stop
         stop-color="#a11f7c"
         id="stop6053" />
      <stop
         stop-opacity="0.984"
         stop-color="#541f31"
         offset="1"
         id="stop6055" />
    </linearGradient>
    <linearGradient
       osb:paint="solid"
       id="linearGradient5487">
      <stop
         id="stop5485"
         offset="0"
         style="stop-color:#888a85;stop-opacity:1;" />
    </linearGradient>
  </defs>
  <g
     style="display:inline"
     transform="translate(33.036843,45.242695)"
     id="stock">
    <g
       id="gimp-menu-left"
       transform="translate(-33.036844,-1081.6049)">
      <g
         transform="matrix(1.3333333,0,0,1.3333333,-110.66693,448.36222)"
         id="gimp-menu-left-3"
         style="fill:#000000">
        <path
           id="rect5232-46"
           transform="translate(241.0002,217)"
           d="m -156,224 c -1.108,0 -2,0.892 -2,2 l 0,8 c 0,1.108 0.892,2 2,2 l 8,0 c 1.108,0 2,-0.892 2,-2 l 0,-8 c 0,-1.108 -0.892,-2 -2,-2 z m 0.4375,1 7.125,0 c 0.78971,0 1.4375,0.64779 1.4375,1.4375 l 0,7.125 c 0,0.78971 -0.64779,1.4375 -1.4375,1.4375 l -7.125,0 c -0.78971,0 -1.4375,-0.64779 -1.4375,-1.4375 l 0,-7.125 c 0,-0.78971 0.64779,-1.4375 1.4375,-1.4375 z"
           style="fill:#000000"
           inkscape:connector-curvature="0" />
        <path
           transform="translate(241.0002,217)"
           id="path5241-58"
           d="m -149,233 0,-6 -6.55806,3 z"
           style="fill:#eeeeec;stroke:#000200;stroke-width:0.56692916;stroke-miterlimit:4;stroke-dasharray:none;stroke-opacity:1"
           inkscape:connector-curvature="0" />
      </g>
      <path
         id="rect5232-5-9"
         d="m 3.3443308,1037.4439 c -1.2741211,0 -2.2998575,1.012 -2.2998575,2.2689 l 0,9.075 c 0,1.2568 1.0257364,2.2688 2.2998575,2.2688 l 9.1994302,0 c 1.274121,0 2.299858,-1.012 2.299858,-2.2688 l 0,-9.075 c 0,-1.2569 -1.025737,-2.2689 -2.299858,-2.2689 z m 0.5030939,1.1344 8.1932443,0 c 0.908109,0 1.65302,0.7349 1.65302,1.6306 l 0,8.0826 c 0,0.8958 -0.744911,1.6306 -1.65302,1.6306 l -8.1932443,0 c -0.9081103,0 -1.6530226,-0.7348 -1.6530226,-1.6306 l 0,-8.0826 c 0,-0.8957 0.7449123,-1.6306 1.6530226,-1.6306 z"
         style="fill:#eeeeec;stroke-width:1.14213085"
         inkscape:connector-curvature="0" />
    </g>
  </g>
</svg>
