<svg height="16" viewBox="0 0 16 16" width="16" xmlns="http://www.w3.org/2000/svg" xmlns:xlink="http://www.w3.org/1999/xlink"><linearGradient id="a" gradientTransform="matrix(.34134407 0 0 .39120574 -15.943892 -7.314523)" gradientUnits="userSpaceOnUse" x1="83.031731" x2="66.311295" y1="40.924026" y2="22.765684"><stop offset="0" stop-color="#d0d0d0"/><stop offset="1" stop-color="#ececec"/></linearGradient><g stroke-miterlimit="10"><path d="m3.780571.5312h11.838585v9.028228h-11.838585z" style="fill-rule:evenodd;stroke:#9b9c98;stroke-width:1.061015;stroke-linecap:round;stroke-linejoin:round;fill:url(#a)" transform="matrix(1 0 -.33692151 .94157171946 0 5.999582)"/><path d="m4.87737 1.642254h9.650049v5.820962h-9.650049z" fill="none" stroke="#fff" stroke-width="1.067591" transform="matrix(1 0 -.33097858 .94367733662 0 5.999582)"/><path d="m3.780571.5312h11.838585v9.028228h-11.838585z" style="fill-rule:evenodd;stroke:#9b9c98;stroke-width:1.061015;stroke-linecap:round;stroke-linejoin:round;fill:url(#a)" transform="matrix(1 0 -.33692151 .94157171946 0 2.999458)"/><path d="m4.87737 1.642254h9.650049v5.820962h-9.650049z" fill="none" stroke="#fff" stroke-width="1.067591" transform="matrix(1 0 -.33097858 .94367733662 0 2.999458)"/><path d="m3.780571.5312h11.838585v9.028228h-11.838585z" style="fill-rule:evenodd;stroke:#9b9c98;stroke-width:1.061015;stroke-linecap:round;stroke-linejoin:round;fill:url(#a)" transform="matrix(1 0 -.33692151 .94157171946 0 -.000662)"/><path d="m4.87737 1.642254h9.650049v5.820962h-9.650049z" fill="none" stroke="#fff" stroke-width="1.067591" transform="matrix(1 0 -.33097858 .94367733662 0 -.000662)"/></g><path d="m0 15.499979h16v.500021h-16z" opacity="0"/></svg>