<svg height="16" viewBox="0 0 16 16" width="16" xmlns="http://www.w3.org/2000/svg" xmlns:xlink="http://www.w3.org/1999/xlink"><linearGradient id="a" gradientTransform="matrix(.65277951 0 0 .64297233 .166646 .814478)" gradientUnits="userSpaceOnUse" x1="12" x2="12" y1="1.268379" y2="21.251747"><stop offset="0" stop-color="#eeeeec"/><stop offset="1" stop-color="#d4d4cf"/></linearGradient><rect fill="url(#a)" fill-rule="evenodd" height="15.019836" rx="1.400399" ry="1.535165" stroke="#888a85" stroke-width=".980164" width="15.019836" x=".490082" y=".490082"/><rect fill="none" height="12.943459" rx=".637774" ry=".627335" stroke="#fff" stroke-width=".899072" width="12.961145" x="1.512433" y="1.580147"/><g fill="#ff0"><path d="m3 11h2v2h-2z"/><path d="m3 8.5h2v2h-2z" opacity=".75"/><path d="m3 5.5h2v2h-2z" opacity=".5"/><path d="m3 3h2v2h-2z" opacity=".25"/></g><path d="m8.5 11h2v2h-2z" fill="#f0f"/><path d="m8.5 8.5h2v2h-2z" fill="#f0f" opacity=".75"/><path d="m8.5 5.5h2v2h-2z" fill="#f0f" opacity=".5"/><path d="m8.5 3h2v2h-2z" fill="#f0f" opacity=".25"/><path d="m5.5 11h2v2h-2z" fill="#0ff"/><path d="m5.5 8.5h2v2h-2z" fill="#0ff" opacity=".75"/><path d="m5.5 5.5h2v2h-2z" fill="#0ff" opacity=".5"/><path d="m5.5 3h2v2h-2z" fill="#0ff" opacity=".25"/><path d="m11 11h2v2h-2z"/><path d="m11 8.5h2v2h-2z" opacity=".75"/><path d="m11 5.5h2v2h-2z" opacity=".5"/><path d="m11 3h2v2h-2z" opacity=".25"/></svg>