<svg height="16" viewBox="0 0 16 16" width="16" xmlns="http://www.w3.org/2000/svg" xmlns:xlink="http://www.w3.org/1999/xlink"><linearGradient id="a" gradientUnits="userSpaceOnUse" x1="11.97272289622" x2="-5.71941273984" y1="1041.34044619877" y2="1058.90601292103"><stop offset="0"/><stop offset="1" stop-opacity="0"/></linearGradient><rect fill="#d3d7cf" height="15.608502" rx=".487434" ry=".489295" stroke="#888a85" stroke-width=".999999" transform="matrix(.96327079 0 0 .96336725 .293852 .293)" width="15.610076" x=".194943" y=".195749"/><g stroke-width="1.347843" transform="matrix(.74181427 0 0 .74203773 2.065486 -766.95613)"><path d="m8 1036.6124-3.5 2.7498h2.5v4h-3.9999399l-.0001201-2.5-2.7497286 3.5 2.7497286 3.368v-2.368h4.00006v4h-2.5l3.5 2.7498 3.5-2.7498h-2.5v-4h4v2.632l2.749789-3.632-2.749789-3.5v2.5h-4v-4h2.5z" style="fill:#3465a4;fill-rule:evenodd;stroke-width:.674519;stroke-linecap:round;stroke-linejoin:round;stroke-miterlimit:10;stroke:url(#a)"/><g fill="#d3d7cf"><path d="m1 1044.1122h14.000186v.5h-14.000186z" opacity=".33"/><path d="m1037.3621-8.25h14.000186v.5h-14.000186z" opacity=".33" transform="rotate(90)"/><path d="m-7.6210137 1032.1795-1.700032-1.45 2.1058261-.7473z" opacity=".5" transform="matrix(.86531148 -.32410991 .7095743 .39524547 -716.63553 627.75291)"/><path d="m-7.6210137 1032.1795-1.700032-1.45 2.1058261-.7473z" opacity=".5" transform="matrix(.86531148 .32410991 .7095743 -.39524547 -716.62169 1460.984)"/><path d="m-7.6210137 1032.1795-1.700032-1.45 2.1058261-.7473z" opacity=".5" transform="matrix(.32410991 -.86531148 -.39524547 -.7095743 424.64115 1769.0065)"/><path d="m-7.6210137 1032.1795-1.700032-1.45 2.1058261-.7473z" opacity=".5" transform="matrix(-.32410991 -.86531148 .39524547 -.7095743 -408.63197 1768.9313)"/></g></g></svg>