<svg height="16" viewBox="0 0 16 16" width="16" xmlns="http://www.w3.org/2000/svg" xmlns:xlink="http://www.w3.org/1999/xlink"><radialGradient id="a" cx="22.903999" cy="23.1" gradientTransform="matrix(.41152263 0 0 .41152263 -1.849509 -1.830605)" gradientUnits="userSpaceOnUse" r="19.827999"><stop offset="0" stop-color="#ccc"/><stop offset="1" stop-color="#c5c5c5"/></radialGradient><linearGradient id="b"><stop offset="0" stop-color="#f7ad42"/><stop offset="1" stop-color="#f7ad42" stop-opacity="0"/></linearGradient><linearGradient id="c"><stop offset="0" stop-color="#fff"/><stop offset="1" stop-color="#fff" stop-opacity="0"/></linearGradient><linearGradient id="d" gradientTransform="matrix(.41083239 0 0 .41022291 -1.846481 -1.820233)" gradientUnits="userSpaceOnUse" x1="43.087959" x2="4.911067" xlink:href="#c" y1="43.108994" y2="4.934589"/><linearGradient id="e" gradientTransform="matrix(.41083239 0 0 .41022291 -1.846481 -1.820233)" gradientUnits="userSpaceOnUse" x1="-7.956152" x2="56.167042" xlink:href="#c" y1="-11.170541" y2="57.152668"/><linearGradient id="f" gradientTransform="matrix(.9983227 0 0 .99684168 -.096151 -.094684)" gradientUnits="userSpaceOnUse" x1="14.813328" x2="9.924866" xlink:href="#b" y1="14.465931" y2="9.943409"/><radialGradient id="g" cx="12.807176" cy="12.716385" fx="12.807176" fy="12.716385" gradientTransform="matrix(.9983227 0 0 1.018599 -.096151 -.371358)" gradientUnits="userSpaceOnUse" r="3.310938" xlink:href="#a"/><radialGradient id="h" cx="22.903999" cy="23.1" gradientTransform="matrix(.41083239 0 0 .41022291 -1.846481 -1.820233)" gradientUnits="userSpaceOnUse" r="19.827999"><stop offset="0" stop-color="#c5c5c5"/><stop offset=".237" stop-color="#c8c8c8"/><stop offset=".408" stop-color="#d1d1d1"/><stop offset=".559" stop-color="#e1e1e1"/><stop offset=".696" stop-color="#f7f7f7"/><stop offset=".736" stop-color="#fff"/><stop offset=".819" stop-color="#fcfcfc"/><stop offset=".881" stop-color="#f2f2f2"/><stop offset=".936" stop-color="#e2e2e2"/><stop offset=".988" stop-color="#ccc"/><stop offset="1" stop-color="#c5c5c5"/></radialGradient><linearGradient id="i" gradientTransform="matrix(-.9983227 0 0 .99684168 16.091005 -.048814)" gradientUnits="userSpaceOnUse" x1="14.813328" x2="9.924866" xlink:href="#b" y1="14.465931" y2="9.943409"/><radialGradient id="j" cx="12.807176" cy="12.716385" fx="12.807176" fy="12.716385" gradientTransform="matrix(-.9983227 0 0 1.018599 16.091005 -.325488)" gradientUnits="userSpaceOnUse" r="3.310938" xlink:href="#a"/><linearGradient id="k" gradientTransform="matrix(-.9983227 0 0 -.99684168 16.091005 16.048816)" gradientUnits="userSpaceOnUse" x1="14.813328" x2="9.924866" xlink:href="#b" y1="14.465931" y2="9.943409"/><radialGradient id="l" cx="12.807176" cy="12.716385" fx="12.807176" fy="12.716385" gradientTransform="matrix(-.9983227 0 0 -1.018599 16.091005 16.325489)" gradientUnits="userSpaceOnUse" r="3.310938" xlink:href="#a"/><linearGradient id="m" gradientTransform="matrix(.9983227 0 0 -.99684168 -.170922 16.048816)" gradientUnits="userSpaceOnUse" x1="14.813328" x2="9.924866" xlink:href="#b" y1="14.465931" y2="9.943409"/><radialGradient id="n" cx="12.807176" cy="12.716385" fx="12.807176" fy="12.716385" gradientTransform="matrix(.9983227 0 0 -1.018599 -.170922 16.325489)" gradientUnits="userSpaceOnUse" r="3.310938" xlink:href="#a"/><g stroke-linecap="round" stroke-linejoin="round" stroke-width=".199516"><path d="m12.614774 6.6454264c-1.770134.0000701-3.2052381-1.465154-3.2055531-3.2728339.000315-1.80768 1.4354171-3.272904 3.2055531-3.27283387.885068-.00003407.967499 1.23051657 1.547581 1.82277387.580081.5922572 1.657812.54622 1.657969 1.45006-.000315 1.8076789-1.435417 3.272903-3.20555 3.2728339zm.01755-.6541769c1.45892.0006752 2.64198-1.1963233 2.642044-2.6731729-.000064-1.4768486-1.183125-2.67384718-2.642044-2.67317093-1.458158.00041377-2.640031 1.19709273-2.640095 2.67317093.000064 1.4760781 1.181937 2.6727591 2.640095 2.6731729z" fill="url(#m)" stroke="url(#n)"/><path d="m3.3053084 6.6454268c1.7701349.0000701 3.2052388-1.465154 3.2055538-3.2728339-.000315-1.80768-1.4354169-3.27290402-3.2055538-3.27283389-.8850674-.00003407-.9674984 1.23051659-1.5475805 1.82277389-.5800811.5922572-1.65781271.54622-1.65796971 1.45006.000315 1.8076789 1.43541731 3.272903 3.20555021 3.2728339zm-.0175498-.6541769c-1.4589196.0006752-2.64197942-1.1963233-2.64204342-2.6731729.000064-1.4768486 1.18312482-2.6738472 2.64204342-2.67317095 1.4581586.00041377 2.6400315 1.19709275 2.6400955 2.67317095-.000064 1.4760781-1.1819369 2.6727591-2.6400955 2.6731729z" fill="url(#k)" stroke="url(#l)"/><path d="m3.3053084 9.3545745c1.7701349-.0000706 3.2052388 1.4651535 3.2055538 3.2728335-.000315 1.80768-1.4354169 3.272904-3.2055538 3.272834-.8850674.000034-.9674984-1.230516-1.5475805-1.822774-.5800811-.592257-1.65781271-.54622-1.65796971-1.45006.000315-1.807679 1.43541731-3.2729027 3.20555021-3.2728335zm-.01755.6541765c-1.4589196-.000675-2.64197942 1.196324-2.64204342 2.673173.000064 1.476849 1.18312482 2.673847 2.64204342 2.673171 1.4581586-.000414 2.6400315-1.197093 2.6400955-2.673171-.000064-1.476078-1.1819369-2.672759-2.6400955-2.673173z" fill="url(#i)" stroke="url(#j)"/><path d="m12.689545 9.308705c-1.770135-.0000706-3.2052388 1.465154-3.2055537 3.272833.0003147 1.80768 1.4354177 3.272904 3.2055537 3.272834.885067.000034.967498-1.230516 1.54758-1.822774.580081-.592257 1.657813-.54622 1.65797-1.45006-.000315-1.807678-1.435417-3.2729022-3.20555-3.272833zm.01755.6541773c1.45892-.0006759 2.641981 1.1963227 2.642045 2.6731717-.000065 1.476849-1.183125 2.673848-2.642045 2.673171-1.458158-.000413-2.64003-1.197092-2.640095-2.673171.000064-1.476078 1.181937-2.6727579 2.640095-2.6731717z" fill="url(#f)" stroke="url(#g)"/></g><ellipse cx="8.013495" cy="8.025116" fill="none" rx="5.431204" ry="5.423146" stroke="url(#h)" stroke-width="4.515803"/><path d="m4.3570881 1.2810518 2.2135647 3.8474805c-.7378548.4094025-1.0656991.7109164-1.4321614 1.3787593l-3.9789117-1.869796c.4917664-1.2277971 2.0496427-2.8649967 3.1975084-3.3560336m10.3406509 3.1057976-3.8154 2.1885392c-.418639-.7039425-.769079-1.0025847-1.3799863-1.3779386l1.8672323-3.9717782c1.217709.4865243 2.841317 2.026501 3.328154 3.1611776m-3.031532 10.3622294-2.2279441-3.866759c.6700671-.375765 1.0147561-.732658 1.4239441-1.4206029l4.041359 1.8919489c-.497929 1.242974-2.158102 2.900276-3.236949 3.395413m-10.4236383-3.117692 3.8400502-2.2102818c.4100107.7367598.7119724 1.0001248 1.3935434 1.4300368l-1.872574 3.972599c-1.2296212-.491036-2.8692532-2.128236-3.3610196-3.192354" fill="#c00"/><ellipse cx="8.013495" cy="8.025116" fill="none" rx="3.409909" ry="3.40485" stroke="url(#d)" stroke-width=".410528"/><ellipse cx="8.013495" cy="8.025116" fill="none" rx="7.436066" ry="7.425035" stroke="url(#e)" stroke-width=".410528"/><g fill="none" stroke="#606060" stroke-width=".88" transform="matrix(.41083238 0 0 .41022291 -1.846481 -1.820233)"><circle cx="24" cy="24" r="7.5"/><circle cx="24" cy="24" r="19"/></g></svg>