<svg height="16" viewBox="0 0 16 16" width="16" xmlns="http://www.w3.org/2000/svg" xmlns:xlink="http://www.w3.org/1999/xlink"><linearGradient id="a" gradientTransform="matrix(.33017122 0 0 .32057065 -43.047724 847.26658)" gradientUnits="userSpaceOnUse" x1="130.60985" x2="178.60985" xlink:href="#b" y1="631.98407" y2="631.98407"/><linearGradient id="b"><stop offset="0" stop-color="#e7ce79"/><stop offset="1" stop-color="#c17d11"/></linearGradient><linearGradient id="c" gradientTransform="matrix(.32991654 0 0 .30582904 -43.011326 856.28135)" gradientUnits="userSpaceOnUse" x1="144.62708" x2="197.17973" xlink:href="#b" y1="624.2533" y2="573.35046"/><linearGradient id="d" gradientTransform="matrix(.33234952 0 0 .300892 -43.059488 859.00366)" gradientUnits="userSpaceOnUse" x1="167.54286" x2="154.65939" y1="590.24323" y2="611.33148"><stop offset="0" stop-color="#959791"/><stop offset=".37675089" stop-color="#f8f8f8"/><stop offset="1" stop-color="#8c8c8c"/></linearGradient><linearGradient id="e" gradientTransform="matrix(.25126116 0 0 .27027758 -161.56489 116.86383)" gradientUnits="userSpaceOnUse" x1="153.37535" x2="168.71077" y1="613.88568" y2="585.52985"><stop offset="0"/><stop offset="1" stop-color="#c9c9c9"/></linearGradient><filter id="f" color-interpolation-filters="sRGB" height="1.264665" width="1.459978" x="-.229989" y="-.132332"><feGaussianBlur stdDeviation=".55985302"/></filter><g transform="translate(0 -1036.3622)"><g stroke="#000" stroke-linecap="round" stroke-linejoin="round"><path d="m.099467 1047.9617h15.801065v3.801065h-15.801065z" fill="url(#a)" stroke-width=".198935"/><path d="m3 1044.3622h10l2.902894 3.4029h-15.80578805z" fill="url(#c)" stroke-width=".194232"/><path d="m8 1036.4412c-.993888 0-1.8486515.3656-2.5.921-.6513519.5553-.9999235 1.6255-1 2.4729.0006648 1.1078.1583316.7476 1.5 2.7541v3.6939h4v-3.7107c.858646-1.7562 1.498618-1.5576 1.5-2.7373-.000076-.8474-.3711-1.9245-1-2.4729-.628905-.5487-1.5061088-.921-2.5-.921z" fill="url(#d)" stroke-width=".158115"/><path d="m.583937 1051.9462h14.832125v.332125h-14.832125z" stroke-width=".167875"/></g><path d="m-122.37361 275.92688c-.7514.00001-2.18608.24856-2.67851.7474s-.47374 1.83181-.47379 2.59304c.00049.9951.73823.87578 1.75256 2.67808l-.14229 4.13506 2.56948-.0875.0292-4.2376c.64916-1.57758 1.63199-1.3991 1.63303-2.45883-.00005-.76123.0225-2.01275-.45297-2.50551-.47546-.49276-1.4853-.8641-2.23669-.86411z" fill="url(#e)" filter="url(#f)" transform="matrix(.98947274 0 0 .87696157 129.41126 795.5965)"/></g></svg>