<svg height="16" viewBox="0 0 16 16" width="16" xmlns="http://www.w3.org/2000/svg"><g transform="translate(0 -1036.3622)"><g transform="matrix(.99615992 0 0 1.0000236 .061318 -.024821)"><path d="m-15.804878-1052.1671h15.609756v15.609756h-15.609756z" fill="#fff" stroke="#fff" stroke-linecap="square" stroke-linejoin="round" stroke-width=".390244" transform="scale(-1)"/><path d="m-.061555 1036.3623h16.061678v12h-16.061678z" fill="#d3d7cf"/></g><path d="m0 1048.3622v2.6667 1.3333h16v-1.3333-2.6667h-1.142857v2.6667h-6.857143v-2.6667h-1.142857v2.6667h-5.714286v-2.6667z" stroke-width="1.234427"/><path d="m0 1048.3622.8333333-1.1687.5-1.0312h1.3333333l1.3333334-8.8001h1.3333333l1.3333333 4.4h1.3333333l1.3333332 2.1999 1.3333329 2.2002 1.333334-2.2002v-2.1999l1.333333 2.1999 1.333334 2.2002 1.333333.8938v1.3061z" fill="#729fcf" stroke-width="1.712693"/></g></svg>