<svg height="16" viewBox="0 0 16 16" width="16" xmlns="http://www.w3.org/2000/svg" xmlns:xlink="http://www.w3.org/1999/xlink"><linearGradient id="a"><stop offset="0" stop-color="#fff" stop-opacity=".796078"/><stop offset="1" stop-color="#fff" stop-opacity=".215686"/></linearGradient><linearGradient id="b"><stop offset="0" stop-color="#f2f2f2"/><stop offset="1" stop-color="#c3c3c3"/></linearGradient><linearGradient id="c" gradientTransform="matrix(.26297902 -.03787174 .03740884 .26623318 801.53515 209.40122)" gradientUnits="userSpaceOnUse" x1="29.61363" x2="40.762386" xlink:href="#a" y1="120.04816" y2="174.51074"/><linearGradient id="d" gradientTransform="matrix(.26297902 -.03787174 .03740884 .26623318 801.53515 209.40122)" gradientUnits="userSpaceOnUse" x1="31.734951" x2="23.623526" xlink:href="#a" y1="127.64955" y2="132.11465"/><linearGradient id="e" gradientTransform="matrix(.51475824 0 0 .31892069 832.69013 245.43681)" gradientUnits="userSpaceOnUse" x1="13.035696" x2="12.853771" xlink:href="#a" y1="32.567184" y2="46.689312"/><linearGradient id="f" gradientUnits="userSpaceOnUse" x1="840.11062551372" x2="839.09562710501" y1="258.2075837909" y2="248.3665353659"><stop offset="0" stop-color="#424242"/><stop offset="1" stop-color="#777"/></linearGradient><linearGradient id="g" gradientTransform="matrix(.71944 0 0 .718914 3102.7585 776.1067)" gradientUnits="userSpaceOnUse" x1="53.168766" x2="69.690994" xlink:href="#b" y1="24.244797" y2="24.244797"/><linearGradient id="h" gradientTransform="matrix(.888619 0 0 .718914 3092.1571 776.1067)" gradientUnits="userSpaceOnUse" x1="61.871845" x2="61.871845" y1="29.615223" y2="41.459263"><stop offset="0" stop-color="#aeaeae"/><stop offset="1" stop-color="#c4c4c4" stop-opacity="0"/></linearGradient><linearGradient id="i" gradientTransform="matrix(.737307 0 0 .770854 3101.9227 773.7567)" gradientUnits="userSpaceOnUse" x1="60.168766" x2="60.440994" xlink:href="#b" y1="40.119797" y2="43.869797"/><linearGradient id="j" gradientUnits="userSpaceOnUse" x1="841.69819106452" x2="841.65496077954" y1="260.40348027009" y2="258.47434174509"><stop offset="0" stop-color="#6194cb"/><stop offset="1" stop-color="#729fcf"/></linearGradient><g transform="translate(0 -32)"><path d="m.57499669 47.479335c.008516.162654.17969018.32531.34234522.32531h12.23983009c.162654 0 .316794-.162656.308278-.32531l-.365879-10.637802c-.0085-.162654-.179687-.325312-.342342-.325312h-5.1850839c-.1895174 0-.482323-.123305-.5476386-.432374l-.2388776-1.130357c-.0607435-.287436-.3446912-.405514-.507346-.405514h-5.77427186c-.16265824 0-.31679709.162655-.30828118.32531z" fill="#fff" stroke="url(#f)" stroke-linecap="round" stroke-linejoin="round" stroke-width=".390712"/><g stroke-width=".267265" transform="translate(27.582987 5.301968)"><path d="m-24.045213 26.845945c-2.423129.173005-2.772734 2.498783-2.429534 3.05525.439306.712303 1.066599.628059 1.344399-.09338.277807-.72134-.588171-.992344.07169-1.426413 1.148068-.755277 3.639227.671838 3.536519 2.174963-.290037 2.993799.718727 3.248939 1.563394 3.379772 2.061799.3192 2.786541 2.283203.474406 3.165599.43438.993549 3.245002 1.516279 3.229565-.468911-.01543-1.985289-.905933-7.768254-5.238108-9.337247-1.034685-.374727-1.87388-.49803-2.552358-.449633zm1.682233 1.218566c1.263299.346612 2.337186 1.270879 3.19874 2.356101.365776.479755.662643 1.18292.414818 1.804854-.190871.399528-.558103.780179-.98532.732184-.533407-.126918-.815633-.824761-.767853-1.400608.09864-.397419.161657-.798654.0078-1.201295-.308773-1.025077-1.092385-1.731455-1.868172-2.291236z" fill="#4e9a06" fill-opacity=".65625" stroke="#c4a000"/><path d="m-24.045213 26.845945c-2.423129.173005-2.772734 2.498783-2.429534 3.05525.439306.712303 1.066599.628059 1.344399-.09338.277807-.72134-.588171-.992344.07169-1.426413 1.148068-.755277 3.639227.671838 3.536519 2.174963-.290037 2.993799.719852 3.241709 1.563394 3.379772 2.047431.335065 2.786541 2.283203.474406 3.165599.43438.993549 3.245002 1.516279 3.229565-.468911-.01543-1.985289-.905933-7.768254-5.238108-9.337247-1.034685-.374727-1.87388-.49803-2.552358-.449633zm1.682233 1.218566c1.263299.346612 2.337186 1.270879 3.19874 2.356101.365776.479755.662643 1.18292.414818 1.804854-.190871.399528-.558103.780179-.98532.732184-.533407-.126918-.815633-.824761-.767853-1.400608.09864-.397419.161657-.798654.0078-1.201295-.308773-1.025077-1.092385-1.731455-1.868172-2.291236z" fill="#73d216" fill-opacity=".65625" stroke="#73d216"/><g fill="none" stroke-linejoin="round"><path d="m-23.933594 27.049977c-2.269037.161157-2.711971 2.445163-2.273195 2.873208.34865.340085 1.001171.328639.913955-.393805-.01753-.146397-.800859-.783995.270562-1.439466 1.079057-.66029 3.453029.594121 3.719276 2.194041-.2697 2.816778.447848 3.098124 1.665214 3.406983 2.207297.560082 2.657519 2.720083.492593 3.548961.557743.57424 2.65541.839621 2.639678-1.028491-.01573-1.868012-.980023-7.257674-5.037951-8.736801-.969179-.353239-1.755124-.469915-2.390458-.424731z" stroke="url(#c)"/><path d="m-23.176447 27.500814c1.183234.326932 3.107357 1.404624 3.914856 2.426287.342854.45164 1.15158 1.665285.919902 2.250269-.178474.375731-.689054 1.097271-1.598604 1.006301-.499587-.119789-.900228-1.26626-.85585-1.808068.09213-.373924.125022-.696639-.01932-1.075683-.289819-.964631-1.634143-2.271958-2.360981-2.799106z" stroke="url(#d)"/></g></g><g transform="matrix(.26860131 .00164634 -.00162622 .27192504 2.484115 30.304994)"><path d="m35.12694 7.3500759c-3.057856.087289-5.484389 1.0560825-5.484389 2.2243336v3.5701185c0 1.225706 2.670932 2.224333 5.94142 2.224333 3.270486 0 5.916029-.998627 5.916029-2.224333 0-.277699 0-3.2924195 0-3.5701185 0-1.2257062-2.645543-2.2243336-5.916029-2.2243336-.153305 0-.306646-.00429-.457031 0z" fill="#c00" stroke="#a40000" stroke-linecap="round"/><ellipse cx="52" cy="49.75" fill="#3465a4" rx="5.375" ry="1.5" transform="matrix(.886278 0 0 .468914 -10.44392 -9.718859)"/><path d="m27.926447 39.155467 1.047009-21.349435 2.486646-3.663512c1.971292-.635437 6.726427-.635437 8.506948 0l2.486647 3.031873 2.617523 22.486387z" fill="url(#g)" stroke="#5a5a5a" stroke-linecap="round"/><path d="m28.828495 38.896108s2.590673-9.531543 7.540188-9.531543c5.106601 0 8.168535 9.912805 8.168535 9.912805z" fill="url(#h)"/><path d="m29.180138 20.498708-.295913 6.474742c1.662489-1.078371 11.992511-1.264486 14.343625.387648l-.701548-6.597313c-1.39796-.953154-10.582838-1.478245-13.346164-.265077z" fill="#c00"/><path d="m29.048762 38.222096.877497-20.194312 1.839967-3.032835c1.818556-.592175 6.205258-.592175 7.847823 0l1.960481 2.532586 2.452224 21.248365z" fill="none" opacity=".594444" stroke="#fff" stroke-linecap="round"/><rect fill="url(#i)" height="3.927753" rx=".883884" stroke="#5a5a5a" stroke-linecap="round" stroke-width="1.000001" width="19.974413" x="26.512789" y="37.536133"/><path d="m29.395219 17.996451c1.874537-1.366188 9.097934-1.655174 12.71992-.606704l-2.337406-2.885623c-2.478201-.667208-5.924347-.375766-8.275461.06904z" fill="#fff"/><g fill="#e6e7e6" opacity=".577778"><path d="m31.009391 9.3809738v3.2400352s.611189-.347686.990609-.361321v-3.259688c-.481572.069463-.990609.3809738-.990609.3809738z" opacity=".411111"/><path d="m33.009391 8.7599648v3.2400352s.611189-.08252.990609-.09616v-3.3149267c-.511601.025805-.990609.1710515-.990609.1710515z"/><path d="m35.009391 8.561091v3.295278s.555946-.0052.990609.01433v-3.3370284c-.500552-.051535-.990609.02742-.990609.02742z" opacity=".444444"/></g></g><path d="m14.352172 47.80097c.446933-.01722.766997-.428337.7998-.906844.309361-4.512206.648332-8.295569.648332-8.295569.02819-.09669-.0656-.193389-.187597-.193389h-13.4292093s-.7229411 8.543648-.7229411 8.543648c-.044758.383705-.1820746.705124-.60553886.853202l13.49715426-.0011z" display="block" fill="url(#j)" stroke="#3465a4" stroke-linejoin="round" stroke-width=".390712"/><path d="m2.5670257 38.796357 12.8118623.02532-.614998 7.815005c-.03294.418652-.176085.55802-.731668.55802-.731218 0-11.2048149-.01266-12.26629-.01266.091269-.125344.1304022-.386266.130926-.392513z" fill="none" opacity=".465909" stroke="url(#e)" stroke-linecap="round" stroke-width=".390711"/><path d="m0 32h16v16h-16z" fill="#bebebe" opacity="0"/></g></svg>