<?xml version="1.0" encoding="UTF-8" standalone="no"?>
<svg
   xmlns:dc="http://purl.org/dc/elements/1.1/"
   xmlns:cc="http://creativecommons.org/ns#"
   xmlns:rdf="http://www.w3.org/1999/02/22-rdf-syntax-ns#"
   xmlns:svg="http://www.w3.org/2000/svg"
   xmlns="http://www.w3.org/2000/svg"
   xmlns:sodipodi="http://sodipodi.sourceforge.net/DTD/sodipodi-0.dtd"
   xmlns:inkscape="http://www.inkscape.org/namespaces/inkscape"
   height="16"
   viewBox="0 0 21.333333 21.333333"
   width="16"
   version="1.1"
   id="svg6"
   sodipodi:docname="gimp-repeat-filter.svg"
   style="fill:#000000"
   inkscape:version="0.92pre1 unknown">
  <metadata
     id="metadata12">
    <rdf:RDF>
      <cc:Work
         rdf:about="">
        <dc:format>image/svg+xml</dc:format>
        <dc:type
           rdf:resource="http://purl.org/dc/dcmitype/StillImage" />
        <dc:title />
      </cc:Work>
    </rdf:RDF>
  </metadata>
  <defs
     id="defs10" />
  <sodipodi:namedview
     pagecolor="#ffffff"
     bordercolor="#666666"
     borderopacity="1"
     objecttolerance="10"
     gridtolerance="10"
     guidetolerance="10"
     inkscape:pageopacity="0"
     inkscape:pageshadow="2"
     inkscape:window-width="1920"
     inkscape:window-height="1016"
     id="namedview8"
     showgrid="true"
     inkscape:zoom="4.9767552"
     inkscape:cx="20.363277"
     inkscape:cy="10.136752"
     inkscape:window-x="0"
     inkscape:window-y="27"
     inkscape:window-maximized="1"
     inkscape:current-layer="svg6"
     inkscape:snap-global="false">
    <inkscape:grid
       type="xygrid"
       id="grid4236" />
  </sodipodi:namedview>
  <rect
     style="opacity:1;fill:none;fill-opacity:1;stroke:none;stroke-width:1.37483549;stroke-linecap:square;stroke-linejoin:round;stroke-miterlimit:4;stroke-dasharray:none;stroke-opacity:1;paint-order:stroke fill markers"
     id="rect4259"
     width="21.333332"
     height="21.333332"
     x="0"
     y="9.382324e-07" />
  <g
     id="g4257">
    <path
       style="fill:#000000;fill-opacity:1;stroke:#ffffff;stroke-width:0.45647988;stroke-miterlimit:4;stroke-dasharray:none;stroke-opacity:1"
       sodipodi:nodetypes="cccccccccc"
       inkscape:connector-curvature="0"
       id="path4"
       d="M 18.666666,15.657204 H 9.6859091 v -3.071413 l -4.032267,4.095216 4.032267,4.095214 v -3.07141 H 20.438621 v -4.371478 h -1.771955 z" />
    <path
       sodipodi:nodetypes="ccccscccscccccccccsccc"
       id="path4-6"
       d="M 20.277246,12.027066 H 12.654692 L 12.949825,11.526 17.794066,3.2573333 c 1.669021,1.7841333 2.686721,4.1493333 2.686721,6.7651997 0,0.6916 -0.07123,1.353067 -0.203541,2.004533 z M 6.7825779,10.022533 2.813558,16.787866 c -1.6588468,-1.784 -2.68672134,-4.149333 -2.68672134,-6.765333 0,-0.6914665 0.0712388,-1.3530665 0.20353949,-2.0043998 H 7.9529302 Z M 0.59497749,7.0157332 C 1.5312591,4.0891999 3.8007244,1.744 6.7011622,0.66146666 L 10.425935,7.0157332 Z m 11.46945051,0 L 8.0954076,0.24053333 C 8.8077958,0.09026667 9.5405379,0 10.303811,0 c 2.442474,0 4.681407,0.85186665 6.431846,2.2550666 l -3.72477,6.3643999 z"
       inkscape:connector-curvature="0"
       style="stroke-width:1.00995004;fill:#3465a4" />
  </g>
</svg>
