<svg height="15.999617" viewBox="0 0 15.999756 15.999617" width="15.999756" xmlns="http://www.w3.org/2000/svg" xmlns:xlink="http://www.w3.org/1999/xlink"><linearGradient id="a"><stop offset="0" stop-color="#fff" stop-opacity=".796078"/><stop offset="1" stop-color="#fff" stop-opacity=".215686"/></linearGradient><linearGradient id="b"><stop offset="0" stop-color="#fff"/><stop offset="1" stop-color="#c9c9c3"/></linearGradient><linearGradient id="c"><stop offset="0" stop-color="#888a85"/><stop offset="1" stop-color="#70726d"/></linearGradient><linearGradient id="d"><stop offset="0" stop-color="#fff"/><stop offset="1" stop-color="#b9b9b0"/></linearGradient><radialGradient id="e" cx="23" cy="33.9375" gradientTransform="matrix(1 0 0 .434932 -1.636475 1.862319)" gradientUnits="userSpaceOnUse" r="18.25"><stop offset="0"/><stop offset="1" stop-opacity="0"/></radialGradient><filter id="f" height="1.787041" width="1.342309" x="-.171154" y="-.393521"><feGaussianBlur stdDeviation="2.6029741"/></filter><radialGradient id="g" cx="18.557627" cy="22.300018" gradientTransform="matrix(1.77275 0 0 1.29668 2.678468 -6.955582)" gradientUnits="userSpaceOnUse" r="19.2292"><stop offset="0" stop-color="#857c63"/><stop offset="1" stop-color="#221f19"/></radialGradient><linearGradient id="h" gradientUnits="userSpaceOnUse" x1="33.987618" x2="58.543412" xlink:href="#a" y1="18.771057" y2="46.646057"/><radialGradient id="i" cx="32.66363373034" cy="18.19432899233" gradientUnits="userSpaceOnUse" r="5.92237253179" xlink:href="#d"/><radialGradient id="j" cx="6.02422" cy="25.27103" gradientTransform="matrix(.797511 -.4604432 .5374129 .9308275 5.107298 2.247187)" gradientUnits="userSpaceOnUse" r="4.831029"><stop offset="0" stop-color="#5b676b"/><stop offset="1" stop-color="#141718"/></radialGradient><linearGradient id="k" gradientTransform="matrix(.80038899 -.599481 .599481 .80038899 3.744468 6.988217)" gradientUnits="userSpaceOnUse" x1="6.305153" x2="5.984629" xlink:href="#a" y1="23.362427" y2="31.57"/><radialGradient id="l" cx="41.06051580261" cy="18.1386714527" gradientUnits="userSpaceOnUse" r="6.95234898785" xlink:href="#d"/><radialGradient id="m" cx="47.928242" cy="33.067101" gradientTransform="matrix(1.7525219 0 0 1.554122 -36.067051 -18.506723)" gradientUnits="userSpaceOnUse" r="1.912615" xlink:href="#a"/><filter id="n"><feGaussianBlur stdDeviation=".13043519"/></filter><radialGradient id="o" cx="26.460779" cy="29.59421" gradientTransform="matrix(2.0574682 0 0 1.8483445 -28.101416 -25.56526)" gradientUnits="userSpaceOnUse" r="5.148278" xlink:href="#b"/><radialGradient id="p" cx="12.08578" cy="27.437498" gradientTransform="matrix(1 0 0 .8983587 1.439792 2.788784)" gradientUnits="userSpaceOnUse" r="5.148278" xlink:href="#b"/><linearGradient id="q" gradientUnits="userSpaceOnUse" x1="17.75" x2="2.625" xlink:href="#c" y1="44.25" y2="54"/><linearGradient id="r" gradientTransform="matrix(1.0680689 0 0 .9837398 -1.225241 .469512)" gradientUnits="userSpaceOnUse" x1="30" x2="44.5" xlink:href="#c" y1="35.875" y2="44.25"/><linearGradient id="s" gradientTransform="matrix(1.0680689 0 0 .9837398 -1.225241 .469512)" gradientUnits="userSpaceOnUse" x2="0" y1="35.875" y2="28.370834"><stop offset="0" stop-color="#555753"/><stop offset="1" stop-color="#cacbc9"/></linearGradient><filter id="t" height="1.094705" width="2.032289" x="-.516145" y="-.047353"><feGaussianBlur stdDeviation=".5376506"/></filter><g transform="matrix(1.0248239 0 0 1.042046 -1.233914 -18.76794)"><path d="m39.613525 16.622805c0 4.383759-8.170803 7.937498-18.25 7.937498s-18.2499995-3.553739-18.2499995-7.937498c0-4.383758 8.1708025-7.9374971 18.2499995-7.9374971s18.25 3.5537391 18.25 7.9374971z" fill="url(#e)" fill-rule="evenodd" filter="url(#f)" opacity=".518072" stroke-miterlimit="10" transform="matrix(.27753047 0 0 .28357678 4.088489 20.34019)"/><g transform="matrix(.28625832 0 0 .29249478 -1.404741 15.791598)"><g stroke-miterlimit="10"><path d="m29.393237 12.128261s2.874509 5.927634 9.599242 5.760407c14.092515-.353553 16.563709-7.70495 16.917262-8.7656102.353554-1.0606602.894534-.8999979 1.019607.080267 4.596194 41.7192992-31.896931 23.8191752-33.192966 16.7135192 7.247845-2.12132 5.480078-6.187185 5.480078-6.187185z" fill="url(#g)" fill-rule="evenodd" stroke="#2e3436" stroke-width="1.618223"/><path d="m55.987618 11.504127c-.561978.926895-1.406492 2.033166-2.6875 3.09375-2.631918 2.179042-7.050563 4.162347-14.28125 4.34375-4.224373.105049-6.952741-1.934149-8.625-3.75l-.125 4.46875c.136107.418802.415455 1.390498-.0625 2.71875-.514314 1.429296-2.154514 2.891363-4.96875 4 .25033.522033.495484 1.04362 1.25 1.78125 1.02795 1.004945 2.457033 2.088049 4.15625 3.0625 3.398433 1.948902 7.801583 3.493212 11.90625 3.5625 4.104667.06929 7.857126-1.23455 10.4375-5 2.378744-3.471218 3.682473-9.347943 3-18.28125z" fill="none" opacity=".185393" stroke="url(#h)" stroke-width="1.618223"/><path d="m36.729505 21.055494c.000563 2.245913-1.819952 4.066884-4.065866 4.066884-2.245912 0-4.066427-1.820971-4.065864-4.066884-.000563-2.245914 1.819952-4.066884 4.065866-4.066884 2.245912 0 4.066427 1.82097 4.065864 4.066884z" fill="url(#i)" fill-rule="evenodd" stroke="#888a85" stroke-width="1.618223"/><path d="m28.63007 22.587402c1.970672 2.731615 1.995664 6.080515.05582 7.479977-1.939843 1.399463-5.109941.31954-7.080612-2.412075-1.970672-2.731615-1.995664-6.080514-.05582-7.479977 1.939842-1.399462 5.10994-.319539 7.080611 2.412075z" fill="url(#j)" fill-rule="evenodd" stroke="#000" stroke-width="1.618224"/><path d="m32.718984 22.618613c.000105.358876-.290792.649859-.649668.649859s-.649773-.290983-.649667-.649859c-.000106-.358876.290791-.649859.649667-.649859s.649773.290983.649668.649859z" fill="#2e3436" fill-rule="evenodd" stroke="#000" stroke-width="1.618223"/><path d="m21.904089 21.068748c-.63891.478536-.975637 1.288183-.945298 2.386888.03034 1.098705.463937 2.443914 1.353894 3.632129.889958 1.188214 2.058922 1.982644 3.104746 2.320764s1.917494.242693 2.556403-.235842c.63891-.478535.976855-1.326848.951577-2.430633-.02528-1.103785-.447141-2.42149-1.335161-3.607117-.888019-1.185627-2.033888-1.961061-3.086011-2.295752-1.052123-.334692-1.96124-.248972-2.60015.229563z" fill="none" opacity=".280899" stroke="url(#k)" stroke-width="1.618224"/><path d="m24.852499 22.91164c.000232 1.17177-.791292 2.121825-1.767767 2.121825s-1.767999-.950055-1.767767-2.121825c-.000232-1.17177.791292-2.121825 1.767767-2.121825s1.767999.950055 1.767767 2.121825z" fill="#fff" fill-rule="evenodd"/><path d="m35.216711 19.723047c0 .869317-.70472 1.574037-1.574037 1.574037-.869316 0-1.574036-.70472-1.574036-1.574037 0-.869316.70472-1.574037 1.574036-1.574037.869317 0 1.574037.704721 1.574037 1.574037z" fill="#fff" fill-rule="evenodd"/><path d="m45.833494 21.497431c.000661 2.636506-2.136465 4.774167-4.772972 4.774167-2.636504 0-4.773631-2.137661-4.77297-4.774167-.000661-2.636507 2.136466-4.774167 4.772972-4.774167 2.636505 0 4.773631 2.13766 4.77297 4.774167z" fill="url(#l)" fill-rule="evenodd" stroke="#888a85" stroke-width="1.618223"/><path d="m40.550002 23.218529c.000139.471521-.382087.85384-.853628.85384-.471546 0-.853769-.382319-.85363-.85384-.000139-.471518.382084-.853835.85363-.853835.471541 0 .853767.382317.853628.853835z" fill="#2e3436" fill-rule="evenodd" stroke="#000" stroke-width="1.618223"/><path d="m44.446223 19.831373c0 1.154822-.936167 2.090991-2.09099 2.090991s-2.09099-.936169-2.09099-2.090991c0-1.154821.936167-2.09099 2.09099-2.09099s2.09099.936169 2.09099 2.09099z" fill="#fff" fill-rule="evenodd"/></g><circle cx="45.905659" cy="31.452829" r="1.981132" stroke-linecap="round" transform="matrix(.8262849 0 0 .8135222 9.839099 3.545001)"/><path d="m44.8125 32.625c2.375441.759725 3.963399-.782845 3.375-2.875 1.401962 2.735164-.678117 4.253128-3.375 2.875z" fill="url(#m)" filter="url(#n)" opacity=".710843" stroke-linecap="round" transform="matrix(1.0778009 0 0 1.2153934 -2.178739 -8.627449)"/></g><g transform="matrix(.24130037 0 0 .24655738 1.056049 17.119844)"><g stroke-linecap="round"><path d="m14.380017 32.135034c.3125 0 29.022361-.902812 29.022361-.902812l-3.447534-4.222188c-25.52364-.724962-25.16528 3.108049-25.574827 5.125z" fill="url(#o)"/><path d="m5.7522924 23.0625 10.2500036 9c.307212-2.437295-.740404-5.162852-8.1875036-9.25z" fill="url(#p)"/><path d="m3.25 22.5 1.25 26.25 9.75 8.75-1.5-27.5z" fill="url(#q)"/><path d="m17.999999 31.334348 1.602104 27.79065 25.932824.06327-.114984-27.433687-27.419944-.420235z" fill="url(#r)" stroke="url(#s)" stroke-width="1.919723"/><path d="m12.5 30.125 1.796533 27.5c.225006 3.68361 2.382006 3.86371 6.37767 2.339362l-1.756594-29.473405c-3.175339 1.792277-4.506816.371977-6.417609-.365957z" fill="#e35302"/></g><path d="m14 32.375 1.25 25.75 1.25 1.5-1.25-26.75z" fill="#fff" filter="url(#t)" opacity=".63253" stroke-width=".554688"/><path d="m3.2703689 22.545865 9.4575531 7.513009c.90865 3.326366 2.995171 2.109512 5.038136 1.060661l27.015619.07636-1.963727-1.881734-25.020297-.01317c-1.879469 1.424263-2.322129 2.778679-3.541551-.252376l-8.4472918-6.679527z" fill="#babdb6" stroke-linecap="round"/></g></g><path d="m0-.000383h16v16h-16z" fill="#eeeeec" opacity="0"/></svg>