<?xml version="1.0" encoding="UTF-8" standalone="no"?>
<svg
   xmlns:osb="http://www.openswatchbook.org/uri/2009/osb"
   xmlns:dc="http://purl.org/dc/elements/1.1/"
   xmlns:cc="http://creativecommons.org/ns#"
   xmlns:rdf="http://www.w3.org/1999/02/22-rdf-syntax-ns#"
   xmlns:svg="http://www.w3.org/2000/svg"
   xmlns="http://www.w3.org/2000/svg"
   xmlns:xlink="http://www.w3.org/1999/xlink"
   xmlns:sodipodi="http://sodipodi.sourceforge.net/DTD/sodipodi-0.dtd"
   xmlns:inkscape="http://www.inkscape.org/namespaces/inkscape"
   version="1.1"
   width="16.000048"
   height="15.999925"
   id="svg2"
   viewBox="0 0 16.000048 15.999924"
   inkscape:version="0.91 r13725"
   sodipodi:docname="gimp-controller.svg">
  <sodipodi:namedview
     pagecolor="#ffffff"
     bordercolor="#666666"
     borderopacity="1"
     objecttolerance="10"
     gridtolerance="10"
     guidetolerance="10"
     inkscape:pageopacity="0"
     inkscape:pageshadow="2"
     inkscape:window-width="501"
     inkscape:window-height="405"
     id="namedview1707"
     showgrid="false"
     inkscape:zoom="5.4031937"
     inkscape:cx="-555.59698"
     inkscape:cy="-297.14363"
     inkscape:window-x="0"
     inkscape:window-y="27"
     inkscape:window-maximized="0"
     inkscape:current-layer="svg2" />
  <metadata
     id="metadata90">
    <rdf:RDF>
      <cc:Work>
        <dc:format>image/svg+xml</dc:format>
        <dc:type
           rdf:resource="http://purl.org/dc/dcmitype/StillImage" />
        <dc:title>Gimp Color Icon Theme</dc:title>
        <dc:contributor>
          <cc:Agent>
            <dc:title>many unknown and unnamed, Andrew Chadwick, Alexandre Prokoudine, Aryeom Han, Benoit Touchette, Jakub Steiner, Jehan, Johannes Matschke, Kevin Payne, Klaus Staedtler, Marek Dvoroznak, Michael Natterer</dc:title>
          </cc:Agent>
        </dc:contributor>
        <dc:description>Enhanced, extended tango-art-libre for GIMP</dc:description>
      </cc:Work>
    </rdf:RDF>
  </metadata>
  <defs
     id="defs7386">
    <linearGradient
       id="linearGradient8340">
      <stop
         stop-opacity="0.796078"
         stop-color="#ffffff"
         id="stop8342" />
      <stop
         stop-opacity="0.215686"
         stop-color="#ffffff"
         offset="1"
         id="stop8344" />
    </linearGradient>
    <linearGradient
       gradientTransform="matrix(0,-735328.32,170712.69,0,2464326300,577972450)"
       osb:paint="solid"
       id="linearGradient19282">
      <stop
         stop-color="#b4b4b4"
         id="stop19284" />
    </linearGradient>
    <linearGradient
       osb:paint="gradient"
       x1="231.55"
       x2="320.70001"
       gradientUnits="userSpaceOnUse"
       id="linearGradient6057"
       gradientTransform="matrix(0.01502614,0,0,0.01468232,2.9686133,1037.3257)">
      <stop
         stop-color="#a11f7c"
         id="stop6053" />
      <stop
         stop-opacity="0.984"
         stop-color="#541f31"
         offset="1"
         id="stop6055" />
    </linearGradient>
    <linearGradient
       id="linearGradient4228">
      <stop
         stop-color="#bbbbbb"
         id="stop4230" />
      <stop
         stop-color="#9f9f9f"
         offset="1"
         id="stop4232" />
    </linearGradient>
    <linearGradient
       id="linearGradient4244">
      <stop
         stop-color="#e4e4e4"
         id="stop4246" />
      <stop
         stop-color="#d3d3d3"
         offset="1"
         id="stop4248" />
    </linearGradient>
    <linearGradient
       id="linearGradient5018">
      <stop
         stop-color="#aaaaaa"
         id="stop5020" />
      <stop
         stop-color="#cdcdcd"
         offset="1"
         id="stop5022" />
    </linearGradient>
    <linearGradient
       y2="40.943935"
       x2="36.183071"
       y1="28.481176"
       x1="7.6046209"
       gradientTransform="translate(1589.425,345.01551)"
       gradientUnits="userSpaceOnUse"
       id="linearGradient1516"
       xlink:href="#linearGradient4228" />
    <radialGradient
       r="20.935818"
       cy="2.958519"
       cx="15.571491"
       gradientTransform="matrix(1.286242,0.781698,-0.710782,1.169552,1587.0706,340.13861)"
       gradientUnits="userSpaceOnUse"
       id="radialGradient1512"
       xlink:href="#linearGradient4244" />
    <linearGradient
       y2="47.620636"
       x2="44.0961"
       y1="4.433136"
       x1="12.378357"
       gradientTransform="translate(1589.425,345.01551)"
       gradientUnits="userSpaceOnUse"
       id="linearGradient1507"
       xlink:href="#linearGradient8340" />
    <linearGradient
       y2="26.375"
       x2="20"
       y1="28.125"
       x1="28.46875"
       gradientTransform="translate(1589.425,336.33501)"
       gradientUnits="userSpaceOnUse"
       id="linearGradient1501"
       xlink:href="#linearGradient5018" />
    <linearGradient
       x2="23.0625"
       x1="26.3125"
       gradientTransform="translate(1589.425,336.33501)"
       gradientUnits="userSpaceOnUse"
       id="linearGradient1496"
       xlink:href="#linearGradient5018" />
    <linearGradient
       gradientTransform="translate(1589.425,336.96001)"
       y2="29.562496"
       x2="26.28611"
       y1="2.4374959"
       x1="21.057631"
       gradientUnits="userSpaceOnUse"
       id="linearGradient1489"
       xlink:href="#linearGradient8340" />
    <linearGradient
       osb:paint="solid"
       id="linearGradient5487">
      <stop
         id="stop5485"
         offset="0"
         style="stop-color:#888a85;stop-opacity:1;" />
    </linearGradient>
  </defs>
  <g
     style="display:inline"
     transform="translate(-202.78846,32.64599)"
     id="stock">
    <g
       transform="matrix(0.36479414,0,0,0.3663165,201.95465,-32.771911)"
       id="gimp-controller">
      <path
         style="fill:none;fill-rule:evenodd;stroke:#535353;stroke-width:2;stroke-linecap:round;stroke-linejoin:round"
         id="path4196"
         d="m 9.28569,22.018085 c -0.625,0 -1.031249,0.29018 -1.281248,0.843753 -10e-7,0 -4.4687505,11.103564 -4.4687505,11.103564 0,0 -0.25,0.671559 -0.25,1.78125 0,0 0,5.649968 0,5.649968 0,1.082613 0.6577855,1.625002 1.65625,1.625 l 38.5624985,0 c 0.984853,0 1.59375,-0.71818 1.59375,-1.84375 l 0,-5.649968 c 0,0 0.105963,-0.770423 -0.09375,-1.3125 L 40.28569,23.018089 c -0.184525,-0.511907 -0.636905,-0.988098 -1.125,-1.000004 z"
         inkscape:connector-curvature="0" />
      <path
         style="fill:url(#linearGradient1516);fill-rule:evenodd;stroke-width:1.02044296"
         id="path4170-7"
         d="m 3.2735915,35.052276 0.7646021,-0.692215 37.6096894,0.0625 3.462407,0.317298 0,6.438532 c 0,1.125569 -0.607018,1.843331 -1.591871,1.843331 l -38.5829876,0 c -0.9984647,0 -1.6618399,-0.542051 -1.6618399,-1.624664 z"
         inkscape:connector-curvature="0" />
      <path
         style="color:#000000;fill:none;fill-rule:evenodd;stroke:#666666;stroke-width:2"
         id="path5030"
         d="m 24.5625,19.75 c -2.624655,0 -4.709751,1.051914 -4.875,2.375 l -0.0625,0 c 0,0 -1.28125,5.1875 -1.28125,5.1875 -0.21875,1.09375 2.078745,3.03125 6.21875,3.03125 4.171393,0 6.5625,-1.96875 6.15625,-3.4375 0,0 -1.1875,-4.78125 -1.1875,-4.78125 l -0.0625,0 C 29.30511,20.801122 27.188264,19.750001 24.5625,19.75 Z"
         inkscape:connector-curvature="0" />
      <path
         style="fill:url(#radialGradient1512);fill-rule:evenodd"
         id="path3093"
         d="m 3.5490842,33.969868 c -0.7142857,1.464286 -6.156e-4,2.392857 1.0357143,2.392857 0,0 38.9999985,0 38.9999985,0 1.119047,-0.02381 1.845238,-1.011905 1.428571,-2.142858 L 40.299082,23.009162 C 40.114558,22.497255 39.64432,22.021063 39.156225,22.009158 l -29.857142,0 c -0.625,0 -1.035714,0.303573 -1.285713,0.857146 0,0 -4.4642858,11.103564 -4.4642858,11.103564 z"
         inkscape:connector-curvature="0" />
      <path
         style="fill:#ffffff;fill-rule:evenodd"
         id="path4201"
         d="m 44.796162,33.684152 c 0.06352,1.249974 -0.414003,2.31584 -1.322116,2.34375 0,0 -38.1187164,-10e-7 -38.1187163,0 -1.2892319,0 -1.867736,-0.324947 -2.0840507,-0.868056 0.091761,0.944332 0.8258174,1.649306 2.0840507,1.649306 -1e-7,-10e-7 38.1187163,0 38.1187163,0 1.076007,-0.03307 1.752805,-1.424024 1.352164,-2.994791 l -0.03005,-0.130209 z"
         inkscape:connector-curvature="0" />
      <path
         style="fill:none;fill-rule:evenodd;stroke:url(#linearGradient1507);stroke-linecap:round;stroke-linejoin:round"
         d="m 9.642515,22.47118 c -0.601692,0 -0.992791,0.279359 -1.233466,0.812287 -10e-7,0 -4.4150149,10.590729 -4.4150149,10.590729 0,0 -0.2406768,0.646515 -0.2406768,1.714823 0,0 0,5.290096 0,5.290096 0,1.35474 0.4440561,1.626899 1.5944841,1.626899 l 37.6869046,0 c 1.323126,0 1.534316,-0.316397 1.534316,-1.837492 l 0,-5.290096 c 0,0 0.10201,-0.741691 -0.09025,-1.263553 L 39.885616,23.308891 c -0.177643,-0.492816 -0.550652,-0.82625 -1.020545,-0.837711 z"
         id="path4252"
         inkscape:connector-curvature="0" />
      <ellipse
         style="color:#000000;fill:#ffffff;fill-opacity:0.48022605;fill-rule:evenodd"
         ry="3.712311"
         rx="7.2478452"
         cy="28.377787"
         cx="24.57196"
         transform="matrix(1.581301,0,0,1.581301,-14.2837,-16.5907)"
         id="path4341" />
      <ellipse
         style="color:#000000;fill:#c9c9c9;fill-rule:evenodd"
         ry="3.712311"
         rx="7.2478452"
         cy="28.377787"
         cx="24.57196"
         id="path4343"
         transform="matrix(0.853659,0,0,0.853659,3.595897,2.933178)" />
      <path
         style="color:#000000;fill:none;fill-rule:evenodd;stroke:#666666;stroke-width:2"
         id="path4659"
         d="m 24.5625,1.34375 c -3.659278,0 -6.625,2.9657226 -6.625,6.625 0,2.607559 1.559074,4.792747 3.75,5.875 l 0,8.46875 c 0,0 0,0.03564 0,0.0625 0,0.813967 1.285826,1.468751 2.875,1.46875 1.589174,0 2.875,-0.654783 2.875,-1.46875 l 0,-0.0625 0,-8.4375 c 2.210442,-1.075204 3.75,-3.284395 3.75,-5.90625 0,-3.6592776 -2.965722,-6.625 -6.625,-6.625 z"
         inkscape:connector-curvature="0" />
      <path
         style="color:#000000;fill:url(#linearGradient1501);fill-rule:evenodd"
         id="path5026"
         d="m 29.53125,22.125 c 0,0 1.1875,4.78125 1.1875,4.78125 0.40625,1.46875 -1.984857,3.4375 -6.15625,3.4375 -4.140005,0 -6.4375,-1.9375 -6.21875,-3.03125 0,0 1.28125,-5.1875 1.28125,-5.1875 z"
         inkscape:connector-curvature="0" />
      <ellipse
         style="color:#000000;fill:#e4e4e4;fill-rule:evenodd"
         ry="3.712311"
         rx="7.2478452"
         cy="28.377787"
         cx="24.57196"
         transform="matrix(0.682927,0,0,0.682927,7.79111,2.903166)"
         id="path4345" />
      <path
         style="color:#000000;fill:url(#linearGradient1496);fill-rule:evenodd"
         id="path4347"
         d="m 24.5625,6.28125 c -1.589174,0 -2.874999,0.6547825 -2.875,1.46875 0,0.026864 0.05973,0.035989 0.0625,0.0625 l -0.0625,0 0,13.875 0.0625,0 c -0.0028,0.02651 -0.0625,0.03564 -0.0625,0.0625 0,0.813967 1.285826,1.468751 2.875,1.46875 1.589174,0 2.875,-0.654783 2.875,-1.46875 0,-0.02686 -0.05973,-0.03599 -0.0625,-0.0625 l 0.0625,0 0,-13.875 -0.0625,0 c 0.0028,-0.026511 0.0625,-0.035636 0.0625,-0.0625 0,-0.8139671 -1.285826,-1.46875 -2.875,-1.46875 z"
         inkscape:connector-curvature="0" />
      <circle
         style="color:#000000;fill:#3565a4;fill-opacity:1;fill-rule:evenodd;stroke:#122439;stroke-width:1.41361904"
         r="6.6291261"
         cy="8.4020214"
         cx="24.395184"
         transform="matrix(0.967577,0,0,0.967577,0.96773,-0.16866)"
         id="path4641" />
      <path
         style="color:#000000;opacity:0.52571399;fill:none;fill-rule:evenodd;stroke:url(#linearGradient1489)"
         id="path2204"
         d="m 24.563623,2.0718822 c -3.284876,0 -5.943495,2.6876119 -5.943495,5.9724868 0,2.312769 1.660026,4.26294 3.58867,5.247671 l 0,7.121965 c -0.867236,0.395397 -2.15313,1.043191 -2.16803,1.681574 0,0 -1.246684,5.145245 -1.246684,5.145245 -0.202948,1.014743 1.928587,2.812287 5.769539,2.812287 3.870072,0 6.088458,-1.826537 5.711553,-3.189192 l -1.217691,-4.855318 c -0.01596,-0.683778 -1.225688,-1.111895 -2.201538,-1.507618 l 0,-7.208943 c 1.928645,-0.984731 3.680162,-2.934902 3.680163,-5.247671 0,-3.2848748 -2.687613,-5.9724868 -5.972487,-5.9724868 z"
         inkscape:connector-curvature="0" />
    </g>
  </g>
</svg>
