<svg height="16" viewBox="0 0 16 16" width="16" xmlns="http://www.w3.org/2000/svg" xmlns:xlink="http://www.w3.org/1999/xlink"><radialGradient id="a" cx="-6.007017" cy="32.837029" gradientTransform="matrix(.462962 0 0 .44272 14.86446 6.713194)" gradientUnits="userSpaceOnUse" r="9.90625"><stop offset="0" stop-color="#fce94f"/><stop offset="1" stop-color="#fce94f" stop-opacity="0"/></radialGradient><linearGradient id="b" gradientTransform="matrix(.462962 0 0 .466802 21.0145 5.928547)" gradientUnits="userSpaceOnUse" x1="-11.986486" x2="-11.986486" y1="13.122552" y2="29.726542"><stop offset="0" stop-color="#555753"/><stop offset="1" stop-color="#fcaf3e"/></linearGradient><linearGradient id="c" gradientTransform="matrix(.462962 0 0 .461866 4.347921 5.985305)" gradientUnits="userSpaceOnUse" x1="25.355263" x2="25.355263" y1="34.006802" y2="32.409008"><stop offset="0" stop-color="#2e3436"/><stop offset="1" stop-color="#2e3436" stop-opacity="0"/></linearGradient><g transform="matrix(.99840495 0 0 .99977163 .025492 -1036.121626)"><g transform="matrix(.69701739483 0 0 .81941879745 -.77973737617 1033.51524906773)"><rect fill="url(#b)" height="11.203236" rx=".202546" ry=".202066" stroke="#888a85" stroke-linecap="round" stroke-linejoin="round" stroke-width=".999999" width="16.216183" x="7.357145" y="11.296763"/><path d="m11.79411 16.401215c-2.392951.151471-4.296871 2.150075-4.296871 4.575364 0 .09366.00889.181964.014468.274234h9.143509c.0056-.09227.01447-.180574.01447-.274234 0-2.523879-2.056354-4.575364-4.586223-4.575364-.09882 0-.192077-.0062-.289351 0z" fill="url(#a)" fill-rule="evenodd"/><path d="m7.588659 21.226898h15.740722v.923733h-15.740722z" fill="url(#c)"/><g fill-rule="evenodd"><path d="m18.031043 21.675958s-.257213-1.424098-.257213-2.296525c.0071-.39799 3.604954-3.498458 3.614237-3.960285l-.836462.727219-.585726-1.589717 1.974613.204118.925925-.923733-1.048689.768044-.360661-.08165-.4425-1.610129.22506 1.569306-1.63441-.08165.511509 1.29875-1.416971-1.400809 1.498813 1.949752c.000037.43486-2.954107 3.089518-2.949079 2.631777l-1.225207-1.639426-.102301-2.216308.925925-.263924.811179-1.99555-1.069313 1.844378-.834796-.03774-1.868696-1.574507-2.565841-.979767 2.192051 1.201894-1.757172.155689h2.314813l1.388887 1.385599.163681 2.393383-2.478493-2.393383 1.042268 1.250322-1.505231 1.05901 1.653439-.923733 2.615524 3.286696-.1023 2.242895h1.183137z"/><path d="m11.925565 18.563623c-1.305803.08266-2.344749 1.17327-2.344749 2.49672 0 .05111.00485.0993.00789.149646h4.989498c.003-.05035.0079-.09854.0079-.149646 0-1.377249-1.122129-2.49672-2.502647-2.49672-.05393 0-.104814-.0034-.157896 0z" fill="#fef39e"/><path d="m11.963041 19.163267c-.995873.06304-1.788226.894796-1.788226 1.904128 0 .03898.0037.07573.006.114127h3.805249c.0023-.0384.006-.07515.006-.114127 0-1.050362-.855793-1.904128-1.908647-1.904128-.04113 0-.07994-.0026-.12042 0z" fill="#fffbd7" fill-opacity=".556818"/></g></g><path d="m9.0125159 1036.5345c-.44333.01-.7971768.3613-.7905492.792v.6434c-.6700284-.5785-1.4941016-.9726-2.386662-1.1171-.5326351-.086-1.7191709-.1786-2.2508401-.046-1.2293966.3069-1.9473256.8737-2.66447655 1.8991-.90261356 1.2906-.76621958 1.4584-.76412806 4.504h1.82180291c.078347-1.875-.2356082-2.3674.3308519-3.3279.4426332-.7506 1.2883295-1.3666 2.1518633-1.4869 1.0389425-.1447 2.2575699.2053 2.9792328 1.0135h-1.3599062c-1.0714211 0-1.0694066 1.8025.00201 1.8025h3.7479371l-.00201-3.8826c.00677-.4401-.3621681-.7986-.8151259-.792z" fill="#fcaf3e" stroke="#f57900" stroke-width=".344536"/></g></svg>