<svg height="16" viewBox="0 0 16 16" width="16" xmlns="http://www.w3.org/2000/svg"><g transform="translate(0 -1036.3622)"><path d="m0 1036.3622h16v16h-16z" fill="none"/><path d="m0 1036.3622h16v16h-16z" fill="none" opacity=".3"/><path d="m5 1047.3623h10v2h-10z"/><g fill="#f57900" stroke="#ce5c00" stroke-width=".30461"><path d="m3.8476949 1040.3622a1.3476949 1.3476949 0 0 1 -1.3466247 1.3477 1.3476949 1.3476949 0 0 1 -1.3487634-1.3456 1.3476949 1.3476949 0 0 1 1.3444825-1.3498 1.3476949 1.3476949 0 0 1 1.3508988 1.3434"/><path d="m3.8476949 1044.3622a1.3476949 1.3476949 0 0 1 -1.3466247 1.3477 1.3476949 1.3476949 0 0 1 -1.3487634-1.3456 1.3476949 1.3476949 0 0 1 1.3444825-1.3498 1.3476949 1.3476949 0 0 1 1.3508988 1.3434"/><path d="m3.8476949 1048.3622a1.3476949 1.3476949 0 0 1 -1.3466247 1.3477 1.3476949 1.3476949 0 0 1 -1.3487634-1.3456 1.3476949 1.3476949 0 0 1 1.3444825-1.3498 1.3476949 1.3476949 0 0 1 1.3508988 1.3434"/></g></g><path d="m5 7h10v2h-10z"/><path d="m5 3h10v2h-10z"/></svg>