<svg height="16" viewBox="0 0 16 16" width="16" xmlns="http://www.w3.org/2000/svg" xmlns:xlink="http://www.w3.org/1999/xlink"><linearGradient id="a" gradientTransform="matrix(1.0073616 0 0 1.0203018 -2.371276 -21.298157)" gradientUnits="userSpaceOnUse" x1="3.298668" x2="19.242971" y1="1048.0988" y2="1048.0988"><stop offset="0"/><stop offset="1" stop-opacity="0"/></linearGradient><g transform="translate(0 -1036.3622)"><g transform="matrix(.99615992 0 0 1.00238275567 -.94802111574 .78596237291)"><path d="m.951675 1047.0813h16.061678v1.995246h-16.061678z" fill="url(#a)"/><path d="m-9.0839653 1041.3845-1.6835687-1.0424-1.683568-1.0423 1.744472-.9369 1.7444715-.9368-.060903 1.9792z" stroke="#ce5c00" stroke-linecap="square" stroke-linejoin="round" stroke-width=".685035" transform="matrix(.73882429 -.37982523 .4486427 .61870631 -449.80424 401.06638)"/></g><path d="m0 1036.3622h16v13h-16z" fill="#d3d7cf"/><path d="m-9.0839653 1041.3845-1.6835687-1.0424-1.683568-1.0423 1.744472-.9369 1.7444715-.9368-.060903 1.9792z" fill="#fff" stroke="#ce5c00" stroke-linecap="square" stroke-linejoin="round" stroke-width=".685035" transform="matrix(.73598715 -.38073026 .44691988 .62018054 -443.02498 402.80798)"/><path d="m8 1036.3622h8v13h-8z" fill="#555753"/><path d="m0 1049.3622.83333-2.1846.50001-1.8637h1.33333l1.33332-3.9759h1.33334l1.33333 3.9759h1.33334v4.0483-.8181l2.66667-3.2298 1.33332-3.9759v-3.9759l1.33334 3.9759 1.33333 3.9759 1.33334 1.6149v2.433z" fill="#729fcf" stroke-width="2.302434"/></g></svg>