<svg height="16" viewBox="0 0 4.2333332 4.2333332" width="16" xmlns="http://www.w3.org/2000/svg" xmlns:xlink="http://www.w3.org/1999/xlink"><linearGradient id="a" gradientTransform="matrix(.95284004 0 0 1.03068 .099822 -9.034799)" gradientUnits="userSpaceOnUse" x1="-.056703" x2="4.290036" y1="294.48645" y2="294.48645"><stop offset="0" stop-color="#555753"/><stop offset="1" stop-color="#555753" stop-opacity="0"/></linearGradient><g transform="translate(0 -292.76667)"><g stroke-dashoffset="1.96" stroke-linecap="round" transform="matrix(-.00272966 -.23238865 -.62977863 .12656744 186.56726 258.06933)"><path d="m-6.1295432 290.33834h-1.314837l2.6451432 5.02709h1.314837z" fill="#c17d11" stroke="#8f5902" stroke-linejoin="round" stroke-width=".263486"/><path d="m-6.2532924 290.60293h-.788902l2.3667073 4.49791h.788902z" fill="none" stroke="#e9b96e" stroke-width=".264583"/></g><path d="m2.4985904 292.96292a.31392258.1962437 0 0 1 -.3027066.19612.31392258.1962437 0 0 1 -.3243371-.1821.31392258.1962437 0 0 1 .2795306-.20914.31392258.1962437 0 0 1 .3443114.16716" fill="#8f5902"/><g stroke-dashoffset="1.96" stroke-linecap="round" transform="matrix(.22434049 -.09066942 .1999598 .81248142 -54.22969 56.4782)"><path d="m-6.1648722 290.37798-1.279508-.0396 2.6451432 5.02709 1.3046254.1296z" fill="#c17d11" stroke="#8f5902" stroke-linejoin="round" stroke-width=".263486"/><path d="m-6.2171811 290.62149-.8250133-.0186 2.3667073 4.49791.8864827.1268z" fill="none" stroke="#e9b96e" stroke-width=".264583"/></g><g stroke-dashoffset="1.96" stroke-linecap="round" transform="matrix(-.22374732 -.09212119 -.20522863 .81116864 60.113242 56.823871)"><path d="m-6.1905125 290.46237-1.2538677-.12405 2.608976 5.06652 1.359144.12435z" fill="#c17d11" stroke="#8f5902" stroke-linejoin="round" stroke-width=".263486"/><path d="m-6.2532924 290.60293h-.788902l2.3064286 4.56363.7169802.0209z" fill="none" stroke="#e9b96e" stroke-width=".264583"/></g><path d="m.099822 293.39566h4.033689v2.181606h-4.033689z" fill="#eeeeec" stroke="url(#a)" stroke-width=".199644"/></g></svg>