<svg height="16" viewBox="0 0 16 16" width="16" xmlns="http://www.w3.org/2000/svg" xmlns:xlink="http://www.w3.org/1999/xlink"><linearGradient id="a" gradientTransform="matrix(.34780026 0 0 .32271632 -.251675 1034.5254)" gradientUnits="userSpaceOnUse" x1="35.5" x2="35.5" y1="31.190165" y2="24.248672"><stop offset="0" stop-color="#d3d7cf"/><stop offset="1" stop-color="#eeeeec"/></linearGradient><linearGradient id="b" gradientTransform="matrix(.34780026 0 0 .35018063 -.312609 1032.2887)" gradientUnits="userSpaceOnUse" x1="5.126524" x2="5.126524" y1="25.372583" y2="69.140259"><stop offset="0" stop-color="#fff"/><stop offset="1" stop-color="#fff" stop-opacity="0"/></linearGradient><g transform="matrix(1.0000216 0 0 .99804167 -.0957 -1033.303351)"><path d="m2.1829267 1039.8558-.7825506.9626c-.74797712.92-1.13035082 1.7749-1.13035082 3.0658v3.7112h15.65101172v-3.7112c0-1.2909-.382375-2.1458-1.130351-3.0658l-.782551-.9626z" fill="url(#a)" stroke="#555753" stroke-linecap="square" stroke-linejoin="round" stroke-width=".349"/><path d="m2.3000308 1040.1896-.6650505.8017c-.70791145.8533-1.07808905 1.5709-1.07808905 2.7511v3.473h14.95540975v-3.473c0-1.1802-.372881-1.8957-1.078089-2.7511l-.660911-.8017z" fill="none" stroke="url(#b)" stroke-linecap="square" stroke-width=".348988"/><path d="m2.7635108 1044.5866h10.9949762c.33517 0 .589017.2225.589017.4551v1.646h-12.1730098v-1.646c0-.2593.2690785-.4551.5890166-.4551z" fill="#888a85" stroke="#555753" stroke-linecap="square" stroke-width=".348988"/><path d="m4.109893 1046.472h.780214v4.780214h-.780214z" fill="#eeeeec" stroke="#888a85" stroke-width=".219786"/><path d="m2.078647 1043.0409h11.842706v1.042706h-11.842706z" fill="#c00" stroke="#a40000" stroke-linejoin="round" stroke-width=".157294"/><path d="m2.9257236 1040.4674h10.6485524c.324609 0 .570459.083.570459.171v.6185h-11.7894696v-.6185c0-.098.2606005-.171.5704582-.171z" fill="#6a6f64" stroke="#555753" stroke-linecap="square" stroke-width=".210531"/><g fill="#eeeeec"><g stroke="#555753" stroke-linejoin="round" transform="matrix(.38989023 0 0 .37192075 -2.371719 1034.1667)"><path d="m15.439891 3.6464462 15.759725-.015625 10.278937 12.3134538.000004 1.974478c.000001.636573-.512476.938154-1.149049.938154h-24.889613c-.636573 0-1.152165-.301581-1.152165-.938154v-13.1232582c0-.6365729.515592-1.1490486 1.152161-1.1490486z" display="block" stroke-linecap="round" stroke-width="1.000354"/><path d="m41.41056 15.872435-10.235119-12.2369416.059214 12.3326516z" display="block"/></g><path d="m6.109893 1045.472h.780214v4.780214h-.780214z" stroke="#888a85" stroke-width=".219786"/><path d="m8.109893 1046.472h.780214v4.780214h-.780214z" stroke="#888a85" stroke-width=".219786"/><path d="m10.109893 1045.472h.780214v4.780214h-.780214z" stroke="#888a85" stroke-width=".219786"/><path d="m12.109893 1046.472h.780214v4.780214h-.780214z" stroke="#888a85" stroke-width=".219786"/></g></g></svg>