<svg height="16" viewBox="0 0 16 16" width="16" xmlns="http://www.w3.org/2000/svg"><g transform="matrix(-.98092788 0 0 .9804097 13.184207 7.893606)"><path d="m-1.3609274-6.5623282h9.2285158v9.2306524h-9.2285158z" fill="#d3d7cf" stroke="#fff" stroke-width=".978082"/><path d="m-2.3615317-7.542476h11.2297308v11.2116251h-11.2297308z" fill="none" stroke="#000" stroke-width="1.018179"/></g><path d="m1 4h11v11h-11z" fill="#babdb6" opacity=".5"/><g stroke-linecap="round" stroke-linejoin="round" stroke-width=".308849" transform="matrix(.83384351274 0 0 1.04976738917 1.38342146529 -1.89805708458)"><path d="m7.6775054 14.989937h-3.2822408c-.9299683 0-1.8506764-.339668-2.1881602-1.307782-.3204812-.91934-.0547041-2.670055 2.0240482-4.0868194h3.883985c2.0787524 1.3077814 2.3385304 3.0962914 1.8599362 4.1413094-.487572 1.064621-1.3128961 1.253292-2.2975684 1.253292z" fill="#73d216" fill-rule="evenodd" stroke="#4e9a06"/><path d="m7.6267926 14.686845-3.2472247-.0068c-.8168692 0-1.6256044-.298359-1.9220449-1.148735-.2815056-.807534.029311-2.345334 1.8552548-3.5897965l3.5663564-.0749361c1.8259428 1.1487346 2.1793568 2.7197326 1.7521297 3.7125856-.4272278.992852-1.050657 1.100871-2.0044713 1.107682z" fill="none" opacity=".21519" stroke="#fff"/></g><ellipse cx="-6.091089" cy="8.015099" rx="2.680497" ry="2.670055" style="fill:#fcaf3e;fill-rule:evenodd;stroke:#c17d11;stroke-width:.308849;stroke-linecap:round;stroke-linejoin:round" transform="matrix(-.88157460215 0 0 .88353747279 1.1194827062 .41416005605)"/><ellipse cx="-6.091083" cy="8.015102" rx="2.35105" ry="2.341892" style="opacity:.196203;fill:none;stroke:#fff;stroke-width:.30885;stroke-linecap:round;stroke-linejoin:round" transform="matrix(-.88157460215 0 0 .88353747279 1.1194827062 .41416005605)"/><path d="m12.499758 3.5002431h-11.99951524v11.9995149h11.99951524z" fill="none" stroke="#000" stroke-width="1.000486"/><g fill="#fff"><g><path d="m0 15h1v1h-1z"/><path d="m2 15h1v1h-1z"/><path d="m4 15h1v1h-1z"/><path d="m6 15h1v1h-1z"/><path d="m8 15h1v1h-1z"/><path d="m10 15h1v1h-1z"/><path d="m12 15h1v1h-1z"/></g><g><path d="m0 3h1v1h-1z"/><path d="m2 3h1v1h-1z"/><path d="m4 3h1v1h-1z"/><path d="m6 3h1v1h-1z"/><path d="m8 3h1v1h-1z"/><path d="m10 3h1v1h-1z"/><path d="m12 3h1v1h-1z"/></g><g transform="rotate(-90)"><path d="m-14 0h1v1h-1z"/><path d="m-12 0h1v1h-1z"/><path d="m-10 0h1v1h-1z"/><path d="m-8 0h1v1h-1z"/><path d="m-6 0h1v1h-1z"/></g><g transform="matrix(0 -1 1 0 12 0)"><path d="m-14 0h1v1h-1z"/><path d="m-12 0h1v1h-1z"/><path d="m-10 0h1v1h-1z"/><path d="m-8 0h1v1h-1z"/><path d="m-6 0h1v1h-1z"/></g></g></svg>