<?xml version="1.0" encoding="UTF-8" standalone="no"?>
<svg
   xmlns:dc="http://purl.org/dc/elements/1.1/"
   xmlns:cc="http://creativecommons.org/ns#"
   xmlns:rdf="http://www.w3.org/1999/02/22-rdf-syntax-ns#"
   xmlns:svg="http://www.w3.org/2000/svg"
   xmlns="http://www.w3.org/2000/svg"
   xmlns:sodipodi="http://sodipodi.sourceforge.net/DTD/sodipodi-0.dtd"
   xmlns:inkscape="http://www.inkscape.org/namespaces/inkscape"
   width="4.2329998mm"
   height="4.2329998mm"
   viewBox="0 0 4.2329998 4.2329998"
   version="1.1"
   id="svg34263"
   inkscape:version="1.0.2 (e86c870879, 2021-01-15)"
   sodipodi:docname="gimp-tool-move-color.svg">
  <defs
     id="defs34257" />
  <sodipodi:namedview
     id="base"
     pagecolor="#ffffff"
     bordercolor="#666666"
     borderopacity="1.0"
     inkscape:pageopacity="0.0"
     inkscape:pageshadow="2"
     inkscape:zoom="0.38800905"
     inkscape:cx="-321.36504"
     inkscape:cy="-76.315501"
     inkscape:document-units="mm"
     inkscape:current-layer="layer1"
     inkscape:document-rotation="0"
     showgrid="false"
     fit-margin-top="0"
     fit-margin-left="0"
     fit-margin-right="0"
     fit-margin-bottom="0"
     inkscape:window-width="1920"
     inkscape:window-height="1136"
     inkscape:window-x="0"
     inkscape:window-y="27"
     inkscape:window-maximized="1" />
  <metadata
     id="metadata34260">
    <rdf:RDF>
      <cc:Work
         rdf:about="">
        <dc:format>image/svg+xml</dc:format>
        <dc:type
           rdf:resource="http://purl.org/dc/dcmitype/StillImage" />
        <dc:title></dc:title>
      </cc:Work>
    </rdf:RDF>
  </metadata>
  <g
     inkscape:label="Layer 1"
     inkscape:groupmode="layer"
     id="layer1"
     transform="translate(-190.86117,-168.35848)">
    <g
       id="g99560"
       inkscape:export-filename="/home/aryeom/Desktop/GIMP-icon design/lock icons/gimp-tool-move-color.svg.png"
       inkscape:export-xdpi="96"
       inkscape:export-ydpi="96"
       transform="translate(135.41243,121.32332)">
      <rect
         style="fill:none;fill-opacity:1;stroke:none;stroke-width:0.4;stroke-linecap:square;stroke-linejoin:miter;stroke-miterlimit:4;stroke-dasharray:none;stroke-opacity:1;paint-order:stroke markers fill"
         id="rect99519"
         width="4.2329998"
         height="4.2329998"
         x="55.448738"
         y="47.035156" />
      <g
         id="g99414"
         transform="matrix(0.9365248,0,0,0.9365248,3.8492625,2.7483761)">
        <path
           id="path97291"
           style="color:#000000;display:inline;fill:#3465a4;fill-opacity:1;fill-rule:evenodd;stroke:none;stroke-width:0.136683;stroke-linecap:round;stroke-linejoin:round;stroke-miterlimit:10;stroke-dasharray:none"
           d="m 57.356705,47.431729 -0.955498,0.750859 h 0.682646 v 1.09244 h -1.09244 v -0.682646 l -0.751375,0.956014 0.751375,0.91984 v -0.646989 h 1.09244 v 0.355018 c 0.03959,-0.01725 0.08141,-0.03194 0.127125,-0.04134 v -0.319878 c 0,-0.31273 0.165351,-0.599578 0.419095,-0.753441 v -0.879017 h 0.682646 z m 1.365808,1.160653 v 0.6134 c 0.148995,0.160454 0.238744,0.378563 0.238744,0.609264 v 0.319878 c 0.01966,0.0041 0.03732,0.01098 0.05581,0.01654 l 0.456303,-0.603065 z m -2.321306,2.321822 0.3483,0.273886 v -0.273886 z" />
        <g
           id="g99249"
           transform="translate(-0.10569489,1.5575883)">
          <g
             id="g99241"
             transform="matrix(0.74750808,0,0,0.74750808,-7.218628,0.2337136)">
            <path
               style="color:#000000;font-style:normal;font-variant:normal;font-weight:normal;font-stretch:normal;font-size:medium;line-height:normal;font-family:sans-serif;font-variant-ligatures:normal;font-variant-position:normal;font-variant-caps:normal;font-variant-numeric:normal;font-variant-alternates:normal;font-variant-east-asian:normal;font-feature-settings:normal;font-variation-settings:normal;text-indent:0;text-align:start;text-decoration:none;text-decoration-line:none;text-decoration-style:solid;text-decoration-color:#000000;letter-spacing:normal;word-spacing:normal;text-transform:none;writing-mode:lr-tb;direction:ltr;text-orientation:mixed;dominant-baseline:auto;baseline-shift:baseline;text-anchor:start;white-space:normal;shape-padding:0;shape-margin:0;inline-size:0;clip-rule:nonzero;display:inline;overflow:visible;visibility:visible;isolation:auto;mix-blend-mode:normal;color-interpolation:sRGB;color-interpolation-filters:linearRGB;solid-color:#000000;solid-opacity:1;vector-effect:none;fill:#494949;fill-opacity:1;fill-rule:nonzero;stroke:#cccccc;stroke-width:0.131206;stroke-linecap:round;stroke-linejoin:round;stroke-miterlimit:4;stroke-dasharray:none;stroke-dashoffset:0;stroke-opacity:1;paint-order:fill markers stroke;color-rendering:auto;image-rendering:auto;shape-rendering:auto;text-rendering:auto;enable-background:accumulate;stop-color:#000000"
               d="m 87.441415,63.345707 c -0.479645,0 -0.842077,0.419789 -0.842077,0.900936 v 0.646581 c 0,0.48114 0.362432,0.900927 0.842077,0.900927 h 0.123256 c 0.479635,0 0.843366,-0.419787 0.843366,-0.900927 v -0.646581 c 0,-0.481147 -0.363731,-0.900936 -0.843366,-0.900936 z m 0,0.454266 h 0.123256 c 0.196891,0 0.377563,0.180364 0.377563,0.44667 v 0.646581 c 0,0.266306 -0.180672,0.44793 -0.377563,0.44793 h -0.123256 c -0.1969,0 -0.377579,-0.181624 -0.377579,-0.44793 v -0.646581 c 0,-0.266306 0.180679,-0.44667 0.377579,-0.44667 z"
               id="path99231" />
            <g
               id="g99237"
               style="opacity:1">
              <path
                 style="color:#000000;font-style:normal;font-variant:normal;font-weight:normal;font-stretch:normal;font-size:medium;line-height:normal;font-family:sans-serif;font-variant-ligatures:normal;font-variant-position:normal;font-variant-caps:normal;font-variant-numeric:normal;font-variant-alternates:normal;font-variant-east-asian:normal;font-feature-settings:normal;font-variation-settings:normal;text-indent:0;text-align:start;text-decoration:none;text-decoration-line:none;text-decoration-style:solid;text-decoration-color:#000000;letter-spacing:normal;word-spacing:normal;text-transform:none;writing-mode:lr-tb;direction:ltr;text-orientation:mixed;dominant-baseline:auto;baseline-shift:baseline;text-anchor:start;white-space:normal;shape-padding:0;shape-margin:0;inline-size:0;clip-rule:nonzero;display:inline;overflow:visible;visibility:visible;isolation:auto;mix-blend-mode:normal;color-interpolation:sRGB;color-interpolation-filters:linearRGB;solid-color:#000000;solid-opacity:1;vector-effect:none;fill:#494949;fill-opacity:1;fill-rule:nonzero;stroke:none;stroke-width:0.131206;stroke-linecap:round;stroke-linejoin:round;stroke-miterlimit:4;stroke-dasharray:none;stroke-dashoffset:0;stroke-opacity:1;paint-order:fill markers stroke;color-rendering:auto;image-rendering:auto;shape-rendering:auto;text-rendering:auto;enable-background:accumulate;stop-color:#000000;stop-opacity:1"
                 d="m 87.441415,63.345707 c -0.479645,0 -0.842077,0.419789 -0.842077,0.900936 v 0.646581 c 0,0.48114 0.362432,0.900927 0.842077,0.900927 h 0.123256 c 0.479635,0 0.843366,-0.419787 0.843366,-0.900927 v -0.646581 c 0,-0.481147 -0.363731,-0.900936 -0.843366,-0.900936 z m 0,0.454266 h 0.123256 c 0.196891,0 0.377563,0.180364 0.377563,0.44667 v 0.646581 c 0,0.266306 -0.180672,0.44793 -0.377563,0.44793 h -0.123256 c -0.1969,0 -0.377579,-0.181624 -0.377579,-0.44793 v -0.646581 c 0,-0.266306 0.180679,-0.44667 0.377579,-0.44667 z"
                 id="path99233" />
              <path
                 style="color:#000000;font-style:normal;font-variant:normal;font-weight:normal;font-stretch:normal;font-size:medium;line-height:normal;font-family:sans-serif;font-variant-ligatures:normal;font-variant-position:normal;font-variant-caps:normal;font-variant-numeric:normal;font-variant-alternates:normal;font-variant-east-asian:normal;font-feature-settings:normal;font-variation-settings:normal;text-indent:0;text-align:start;text-decoration:none;text-decoration-line:none;text-decoration-style:solid;text-decoration-color:#000000;letter-spacing:normal;word-spacing:normal;text-transform:none;writing-mode:lr-tb;direction:ltr;text-orientation:mixed;dominant-baseline:auto;baseline-shift:baseline;text-anchor:start;white-space:normal;shape-padding:0;shape-margin:0;inline-size:0;clip-rule:nonzero;display:inline;overflow:visible;visibility:visible;isolation:auto;mix-blend-mode:normal;color-interpolation:sRGB;color-interpolation-filters:linearRGB;solid-color:#000000;solid-opacity:1;vector-effect:none;fill:#cccccc;fill-opacity:1;fill-rule:nonzero;stroke:none;stroke-linecap:round;stroke-linejoin:round;stroke-miterlimit:4;stroke-dasharray:none;stroke-dashoffset:0;stroke-opacity:1;paint-order:fill markers stroke;color-rendering:auto;image-rendering:auto;shape-rendering:auto;text-rendering:auto;enable-background:accumulate;stop-color:#000000;stop-opacity:1"
                 d="m 87.441406,63.279297 c -0.517922,0 -0.908203,0.452705 -0.908203,0.966797 v 0.646484 c 0,0.514085 0.390281,0.966797 0.908203,0.966797 h 0.123047 c 0.517913,0 0.910156,-0.452594 0.910156,-0.966797 v -0.646484 c 0,-0.51421 -0.392243,-0.966797 -0.910156,-0.966797 z m 0,0.132812 h 0.123047 c 0.441357,0 0.777344,0.3859 0.777344,0.833985 v 0.646484 c 0,0.448077 -0.335987,0.835938 -0.777344,0.835938 h -0.123047 c -0.441367,0 -0.777344,-0.387743 -0.777344,-0.835938 v -0.646484 c 0,-0.448203 0.335977,-0.833985 0.777344,-0.833985 z m 0,0.322266 c -0.236962,0 -0.443359,0.21574 -0.443359,0.511719 v 0.646484 c 0,0.295979 0.206117,0.513672 0.443359,0.513672 h 0.123047 c 0.237235,0 0.443359,-0.217694 0.443359,-0.513672 v -0.646484 c 0,-0.295978 -0.206404,-0.511719 -0.443359,-0.511719 z m 0,0.130859 h 0.123047 c 0.156827,0 0.3125,0.144225 0.3125,0.38086 v 0.646484 c 0,0.236634 -0.155953,0.382813 -0.3125,0.382813 h -0.123047 c -0.156558,0 -0.3125,-0.14618 -0.3125,-0.382813 v -0.646484 c 0,-0.236633 0.155663,-0.38086 0.3125,-0.38086 z"
                 id="path99235" />
            </g>
            <path
               style="fill:none;stroke:#cccccc;stroke-width:0.204994;stroke-linecap:round;stroke-linejoin:miter;stroke-miterlimit:4;stroke-dasharray:none;stroke-opacity:1"
               d="m 86.828127,63.869671 c 0.0033,-0.01617 0.199628,-0.250641 0.199628,-0.250641"
               id="path99239" />
          </g>
          <path
             style="fill:#dbb458;fill-opacity:1;stroke:none;stroke-width:0.193169;stroke-linecap:round;stroke-linejoin:round;stroke-miterlimit:4;stroke-dasharray:none;stroke-opacity:1;paint-order:stroke markers fill"
             d="m 57.402774,48.722973 c -0.220628,0 -0.398357,0.177726 -0.398357,0.398355 v 0.986124 h 2.373338 v -0.986124 c 0,-0.220629 -0.177286,-0.398355 -0.397914,-0.398355 z"
             id="path99243" />
          <path
             style="fill:#c48319;fill-opacity:1;stroke:none;stroke-width:0.193169;stroke-linecap:round;stroke-linejoin:round;stroke-miterlimit:4;stroke-dasharray:none;stroke-opacity:1;paint-order:stroke markers fill"
             d="m 58.919621,48.723005 v 1.384447 h 0.458134 v -0.986188 c 0,-0.220627 -0.177247,-0.398259 -0.397875,-0.398259 z"
             id="path99245" />
          <path
             style="fill:#e6ca74;fill-opacity:1;stroke:none;stroke-width:0.193169;stroke-linecap:round;stroke-linejoin:round;stroke-miterlimit:4;stroke-dasharray:none;stroke-opacity:1;paint-order:stroke markers fill"
             d="m 57.402773,48.722973 c -0.220629,0 -0.398647,0.177632 -0.398647,0.398259 v 0.986188 h 0.45852 v -1.384447 z"
             id="path99247" />
        </g>
      </g>
    </g>
  </g>
</svg>
