<svg height="16" viewBox="0 0 16 16" width="16" xmlns="http://www.w3.org/2000/svg" xmlns:xlink="http://www.w3.org/1999/xlink"><linearGradient id="a"><stop offset="0" stop-color="#424242"/><stop offset="1" stop-color="#777"/></linearGradient><linearGradient id="b" gradientUnits="userSpaceOnUse" x1="689.84120551372" x2="688.82620710501" xlink:href="#a" y1="258.4724137909" y2="248.6313653659"/><linearGradient id="c" gradientUnits="userSpaceOnUse" x1="9541.36699" x2="9606.36726" xlink:href="#a" y1="3275.10048" y2="3275.10048"/><linearGradient id="d" gradientUnits="userSpaceOnUse" x1="691.42877106452" x2="691.38554077954" y1="260.66831027009" y2="258.73917174509"><stop offset="0" stop-color="#6194cb"/><stop offset="1" stop-color="#729fcf"/></linearGradient><linearGradient id="e" gradientTransform="matrix(.51475824 0 0 .31892069 682.42071 245.70164)" gradientUnits="userSpaceOnUse" x1="13.035696" x2="12.853771" y1="32.567184" y2="46.689312"><stop offset="0" stop-color="#fff" stop-opacity=".796078"/><stop offset="1" stop-color="#fff" stop-opacity=".215686"/></linearGradient><g transform="translate(0 -32)"><path d="m.57499674 47.479335c.008516.162654.17969018.32531.34234522.32531h12.23983104c.162654 0 .316793-.162656.308277-.32531l-.365879-10.637802c-.0085-.162654-.179687-.325312-.342342-.325312h-5.1850839c-.1895174 0-.482323-.123305-.5476386-.432374l-.2388776-1.130357c-.0607435-.287436-.3446912-.405514-.507346-.405514h-5.77427181c-.16265824 0-.31679709.162655-.30828118.32531z" fill="#fff" stroke="url(#b)" stroke-linecap="round" stroke-linejoin="round" stroke-width=".390712"/><g fill-rule="evenodd" transform="matrix(.07407377389 0 0 .07407377389 -16.90304898664 9.0050049721)"><path d="m-180.9753 535.70752h73.94383v73.94382h-73.94383z" fill="#5a5a5a" transform="matrix(.87274 -.48819 .87274 .48819 0 0)"/><path d="m374.60734 425.69331v-36.35996l65.00027-36.35961v36.35996z" fill="#5a5a5a"/><path d="m372.92276 424.43365v-36.35996l-65.00027-36.3596v36.35996z" fill="url(#c)"/><path d="m40.71429-106.42757c0 8.08703-6.55583 14.64286-14.64286 14.64286s-14.64286-6.55583-14.64286-14.64286 6.55583-14.64285 14.64286-14.64285 14.64286 6.55583 14.64286 14.64285z" fill="#fff" transform="matrix(1.2439 0 0 -.69582 305.94032 273.71926)"/><path d="m40.71429-106.42757c0 8.08703-6.55583 14.64286-14.64286 14.64286s-14.64286-6.55583-14.64286-14.64286 6.55583-14.64285 14.64286-14.64285 14.64286 6.55583 14.64286 14.64285z" fill="#5a5a5a" transform="matrix(1.2439 0 0 -.69582 305.94032 266.40121)"/><path d="m40.71429-106.42757a14.64286 14.64286 0 1 1 -29.28572 0 14.64286 14.64286 0 1 1 29.28572 0z" fill="#fff" transform="matrix(1.2439 0 0 -.69582 339.9046 291.47069)"/><path d="m40.71429-106.42757a14.64286 14.64286 0 1 1 -29.28572 0 14.64286 14.64286 0 1 1 29.28572 0z" fill="#5a5a5a" transform="matrix(1.2439 0 0 -.69582 339.9046 284.15264)"/><path d="m40.71429-106.42757c0 8.08703-6.55583 14.64286-14.64286 14.64286s-14.64286-6.55583-14.64286-14.64286 6.55583-14.64285 14.64286-14.64285 14.64286 6.55583 14.64286 14.64285z" fill="#fff" transform="matrix(1.2439 0 0 -.69582 374.90461 273.71925)"/><path d="m40.71429-106.42757c0 8.08703-6.55583 14.64286-14.64286 14.64286s-14.64286-6.55583-14.64286-14.64286 6.55583-14.64285 14.64286-14.64285 14.64286 6.55583 14.64286 14.64285z" fill="#5a5a5a" transform="matrix(1.2439 0 0 -.69582 374.90461 266.40121)"/><path d="m40.71429-106.42757a14.64286 14.64286 0 1 1 -29.28572 0 14.64286 14.64286 0 1 1 29.28572 0z" fill="#fff" transform="matrix(1.2439 0 0 -.69582 339.9046 255.11072)"/><path d="m40.71429-106.42757a14.64286 14.64286 0 1 1 -29.28572 0 14.64286 14.64286 0 1 1 29.28572 0z" fill="#5a5a5a" transform="matrix(1.2439 0 0 -.69582 339.9046 247.79268)"/></g><path d="m14.352172 47.80097c.446933-.01722.766997-.428337.7998-.906844.309361-4.512206.648332-8.295569.648332-8.295569.02819-.09669-.0656-.193389-.187597-.193389h-13.4292093s-.7229411 8.543648-.7229411 8.543648c-.044758.383705-.1820745.705124-.60553881.853202l13.49715421-.0011z" display="block" fill="url(#d)" stroke="#3465a4" stroke-linejoin="round" stroke-width=".390712"/><path d="m2.5670258 38.796357 12.8118622.02532-.614998 7.815005c-.03294.418652-.176085.55802-.731668.55802-.731218 0-11.2048148-.01266-12.26629-.01266.091269-.125344.1304022-.386266.130926-.392513l.6701677-7.993171z" fill="none" opacity=".465909" stroke="url(#e)" stroke-linecap="round" stroke-width=".390711"/><path d="m0 32h16v16h-16z" fill="#bebebe" opacity="0"/></g></svg>