<svg height="16" viewBox="0 0 16 16" width="16" xmlns="http://www.w3.org/2000/svg"><rect fill="#ecedea" height="15.609299" rx=".48741" ry=".48932" stroke="#888a85" stroke-width=".390691" width="15.609309" x=".194943" y=".194952"/><g transform="matrix(.52996173322 0 0 .53489143111 -6.62376594545 -6.71347833251)"><ellipse cx="10.375" cy="7.5625" rx=".3125" ry=".375" transform="matrix(1.6 0 0 1.333333 5.9625 4.416667)"/><ellipse cx="10.375" cy="7.5625" rx=".3125" ry=".375" transform="matrix(1.6 0 0 1.333333 5.9625 6.416667)"/><ellipse cx="10.375" cy="7.5625" rx=".3125" ry=".375" transform="matrix(1.6 0 0 1.333333 5.9625 8.41667)"/><ellipse cx="10.375" cy="7.5625" rx=".3125" ry=".375" transform="matrix(1.6 0 0 1.333333 5.9625 10.41667)"/><ellipse cx="10.375" cy="7.5625" rx=".3125" ry=".375" transform="matrix(1.6 0 0 1.333333 5.9625 14.41667)"/><ellipse cx="10.375" cy="7.5625" rx=".3125" ry=".375" transform="matrix(1.6 0 0 1.333333 5.9625 16.41667)"/><ellipse cx="10.375" cy="7.5625" rx=".3125" ry=".375" transform="matrix(1.6 0 0 1.333333 5.9625 18.41667)"/><ellipse cx="10.375" cy="7.5625" rx=".3125" ry=".375" transform="matrix(1.6 0 0 1.333333 5.9625 20.41667)"/><ellipse cx="10.375" cy="7.5625" rx=".3125" ry=".375" transform="matrix(1.6 0 0 1.333333 5.9625 24.41667)"/><ellipse cx="10.375" cy="7.5625" rx=".3125" ry=".375" transform="matrix(1.6 0 0 1.333333 5.9625 26.41667)"/><ellipse cx="10.375" cy="7.5625" rx=".3125" ry=".375" transform="matrix(1.6 0 0 1.333333 5.9625 28.41667)"/><ellipse cx="10.375" cy="7.5625" rx=".3125" ry=".375" transform="matrix(1.6 0 0 1.333333 15.9625 4.416667)"/><ellipse cx="10.375" cy="7.5625" rx=".3125" ry=".375" transform="matrix(1.6 0 0 1.333333 15.9625 6.416667)"/><ellipse cx="10.375" cy="7.5625" rx=".3125" ry=".375" transform="matrix(1.6 0 0 1.333333 15.9625 8.41667)"/><ellipse cx="10.375" cy="7.5625" rx=".3125" ry=".375" transform="matrix(1.6 0 0 1.333333 15.9625 10.41667)"/><ellipse cx="10.375" cy="7.5625" rx=".3125" ry=".375" transform="matrix(1.6 0 0 1.333333 15.9625 14.41667)"/><ellipse cx="10.375" cy="7.5625" rx=".3125" ry=".375" transform="matrix(1.6 0 0 1.333333 15.9625 16.41667)"/><ellipse cx="10.375" cy="7.5625" rx=".3125" ry=".375" transform="matrix(1.6 0 0 1.333333 15.9625 18.41667)"/><ellipse cx="10.375" cy="7.5625" rx=".3125" ry=".375" transform="matrix(1.6 0 0 1.333333 15.9625 20.41667)"/><ellipse cx="10.375" cy="7.5625" rx=".3125" ry=".375" transform="matrix(1.6 0 0 1.333333 15.9625 24.41667)"/><ellipse cx="10.375" cy="7.5625" rx=".3125" ry=".375" transform="matrix(1.6 0 0 1.333333 15.9625 26.41667)"/><ellipse cx="10.375" cy="7.5625" rx=".3125" ry=".375" transform="matrix(1.6 0 0 1.333333 15.9625 28.41667)"/><ellipse cx="10.375" cy="7.5625" rx=".3125" ry=".375" transform="matrix(0 1.6 -1.333333 0 50.70833 6.025)"/><ellipse cx="10.375" cy="7.5625" rx=".3125" ry=".375" transform="matrix(0 1.6 -1.333333 0 48.70833 6.025)"/><ellipse cx="10.375" cy="7.5625" rx=".3125" ry=".375" transform="matrix(0 1.6 -1.333333 0 46.70833 6.025)"/><ellipse cx="10.375" cy="7.5625" rx=".3125" ry=".375" transform="matrix(0 1.6 -1.333333 0 44.70833 6.025)"/><ellipse cx="10.375" cy="7.5625" rx=".3125" ry=".375" transform="matrix(0 1.6 -1.333333 0 42.70833 6.025)"/><ellipse cx="10.375" cy="7.5625" rx=".3125" ry=".375" transform="matrix(0 1.6 -1.333333 0 40.70833 6.025)"/><ellipse cx="10.375" cy="7.5625" rx=".3125" ry=".375" transform="matrix(0 1.6 -1.333333 0 38.70833 6.025)"/><ellipse cx="10.375" cy="7.5625" rx=".3125" ry=".375" transform="matrix(0 1.6 -1.333333 0 36.70833 6.025)"/><ellipse cx="10.375" cy="7.5625" rx=".3125" ry=".375" transform="matrix(0 1.6 -1.333333 0 34.70833 6.025)"/><ellipse cx="10.375" cy="7.5625" rx=".3125" ry=".375" transform="matrix(0 1.6 -1.333333 0 32.70833 6.025)"/><ellipse cx="10.375" cy="7.5625" rx=".3125" ry=".375" transform="matrix(0 1.6 -1.333333 0 30.70833 6.025)"/><ellipse cx="10.375" cy="7.5625" rx=".3125" ry=".375" transform="matrix(0 1.6 -1.333333 0 28.70833 6.025)"/><ellipse cx="10.375" cy="7.5625" rx=".3125" ry=".375" transform="matrix(0 1.6 -1.333333 0 26.70833 6.025)"/><ellipse cx="10.375" cy="7.5625" rx=".3125" ry=".375" transform="matrix(0 1.6 -1.333333 0 24.70833 6.025)"/><ellipse cx="10.375" cy="7.5625" rx=".3125" ry=".375" transform="matrix(0 1.6 -1.333333 0 50.70833 16.025)"/><ellipse cx="10.375" cy="7.5625" rx=".3125" ry=".375" transform="matrix(0 1.6 -1.333333 0 48.70833 16.025)"/><ellipse cx="10.375" cy="7.5625" rx=".3125" ry=".375" transform="matrix(0 1.6 -1.333333 0 46.70833 16.025)"/><ellipse cx="10.375" cy="7.5625" rx=".3125" ry=".375" transform="matrix(0 1.6 -1.333333 0 44.70833 16.025)"/><ellipse cx="10.375" cy="7.5625" rx=".3125" ry=".375" transform="matrix(0 1.6 -1.333333 0 42.70833 16.025)"/><ellipse cx="10.375" cy="7.5625" rx=".3125" ry=".375" transform="matrix(0 1.6 -1.333333 0 40.70833 16.025)"/><ellipse cx="10.375" cy="7.5625" rx=".3125" ry=".375" transform="matrix(0 1.6 -1.333333 0 38.70833 16.025)"/><ellipse cx="10.375" cy="7.5625" rx=".3125" ry=".375" transform="matrix(0 1.6 -1.333333 0 36.70833 16.025)"/><ellipse cx="10.375" cy="7.5625" rx=".3125" ry=".375" transform="matrix(0 1.6 -1.333333 0 34.70833 16.025)"/><ellipse cx="10.375" cy="7.5625" rx=".3125" ry=".375" transform="matrix(0 1.6 -1.333333 0 32.70833 16.025)"/><ellipse cx="10.375" cy="7.5625" rx=".3125" ry=".375" transform="matrix(0 1.6 -1.333333 0 30.70833 16.025)"/><ellipse cx="10.375" cy="7.5625" rx=".3125" ry=".375" transform="matrix(0 1.6 -1.333333 0 28.70833 16.025)"/><ellipse cx="10.375" cy="7.5625" rx=".3125" ry=".375" transform="matrix(0 1.6 -1.333333 0 26.70833 16.025)"/><ellipse cx="10.375" cy="7.5625" rx=".3125" ry=".375" transform="matrix(0 1.6 -1.333333 0 24.70833 16.025)"/><ellipse cx="10.375" cy="7.5625" rx=".3125" ry=".375" transform="matrix(1.6 0 0 1.333333 5.9625 30.41667)"/><ellipse cx="10.375" cy="7.5625" rx=".3125" ry=".375" transform="matrix(1.6 0 0 1.333333 15.9625 30.41667)"/></g><rect fill="none" height="14.875317" opacity=".860825" rx=".211689" ry=".212519" stroke="#fff" stroke-opacity="0" stroke-width=".390691" width="14.817283" x=".584872" y=".537476"/></svg>