<?xml version="1.0" encoding="UTF-8" standalone="no"?>
<svg
   xmlns:osb="http://www.openswatchbook.org/uri/2009/osb"
   xmlns:dc="http://purl.org/dc/elements/1.1/"
   xmlns:cc="http://creativecommons.org/ns#"
   xmlns:rdf="http://www.w3.org/1999/02/22-rdf-syntax-ns#"
   xmlns:svg="http://www.w3.org/2000/svg"
   xmlns="http://www.w3.org/2000/svg"
   xmlns:xlink="http://www.w3.org/1999/xlink"
   xmlns:sodipodi="http://sodipodi.sourceforge.net/DTD/sodipodi-0.dtd"
   xmlns:inkscape="http://www.inkscape.org/namespaces/inkscape"
   version="1.1"
   width="16.000002"
   height="16"
   id="svg2"
   viewBox="0 0 16.000002 16"
   inkscape:version="0.91 r13725"
   sodipodi:docname="gimp-wilber-outline.svg">
  <sodipodi:namedview
     pagecolor="#ffffff"
     bordercolor="#666666"
     borderopacity="1"
     objecttolerance="10"
     gridtolerance="10"
     guidetolerance="10"
     inkscape:pageopacity="0"
     inkscape:pageshadow="2"
     inkscape:window-width="501"
     inkscape:window-height="405"
     id="namedview1718"
     showgrid="false"
     inkscape:zoom="14.75"
     inkscape:cx="-360.4731"
     inkscape:cy="926.60565"
     inkscape:window-x="0"
     inkscape:window-y="27"
     inkscape:window-maximized="0"
     inkscape:current-layer="svg2" />
  <metadata
     id="metadata90">
    <rdf:RDF>
      <cc:Work>
        <dc:format>image/svg+xml</dc:format>
        <dc:type
           rdf:resource="http://purl.org/dc/dcmitype/StillImage" />
        <dc:title>Gimp Color Icon Theme</dc:title>
        <dc:contributor>
          <cc:Agent>
            <dc:title>many unknown and unnamed, Andrew Chadwick, Alexandre Prokoudine, Aryeom Han, Benoit Touchette, Jakub Steiner, Jehan, Johannes Matschke, Kevin Payne, Klaus Staedtler, Marek Dvoroznak, Michael Natterer</dc:title>
          </cc:Agent>
        </dc:contributor>
        <dc:description>Enhanced, extended tango-art-libre for GIMP</dc:description>
      </cc:Work>
    </rdf:RDF>
  </metadata>
  <defs
     id="defs7386">
    <linearGradient
       id="linearGradient8340">
      <stop
         stop-opacity="0.796078"
         stop-color="#ffffff"
         id="stop8342" />
      <stop
         stop-opacity="0.215686"
         stop-color="#ffffff"
         offset="1"
         id="stop8344" />
    </linearGradient>
    <linearGradient
       id="linearGradient3204-1">
      <stop
         id="stop3206" />
      <stop
         stop-opacity="0"
         id="stop3208"
         offset="1" />
    </linearGradient>
    <linearGradient
       id="linearGradient6500">
      <stop
         stop-color="#857c63"
         id="stop6502" />
      <stop
         stop-color="#221f19"
         id="stop6504"
         offset="1" />
    </linearGradient>
    <linearGradient
       id="linearGradient6468">
      <stop
         stop-color="#ffffff"
         id="stop6470" />
      <stop
         stop-color="#b9b9b0"
         id="stop6472"
         offset="1" />
    </linearGradient>
    <linearGradient
       id="linearGradient8542">
      <stop
         stop-color="#5b676b"
         id="stop8544" />
      <stop
         stop-color="#141718"
         id="stop8546"
         offset="1" />
    </linearGradient>
    <linearGradient
       gradientTransform="matrix(0,-735328.32,170712.69,0,2464326300,577972450)"
       osb:paint="solid"
       id="linearGradient19282">
      <stop
         stop-color="#b4b4b4"
         id="stop19284" />
    </linearGradient>
    <linearGradient
       id="linearGradient6939">
      <stop
         stop-color="#bdbdbd"
         id="stop6941" />
      <stop
         stop-color="#e2e2e2"
         offset="0.333333"
         id="stop6947" />
      <stop
         stop-color="#a3a3a3"
         id="stop6949"
         offset="0.666667" />
      <stop
         stop-color="#dddddd"
         id="stop6943"
         offset="1" />
    </linearGradient>
    <linearGradient
       id="linearGradient6963">
      <stop
         stop-color="#696969"
         id="stop6965" />
      <stop
         id="stop6967"
         offset="1" />
    </linearGradient>
    <linearGradient
       osb:paint="gradient"
       x1="231.55"
       x2="320.70001"
       gradientUnits="userSpaceOnUse"
       id="linearGradient6057"
       gradientTransform="matrix(0.01502614,0,0,0.01468232,2.9686133,1037.3257)">
      <stop
         stop-color="#a11f7c"
         id="stop6053" />
      <stop
         stop-opacity="0.984"
         stop-color="#541f31"
         offset="1"
         id="stop6055" />
    </linearGradient>
    <linearGradient
       id="linearGradient6951">
      <stop
         stop-color="#6e3d09"
         id="stop6953" />
      <stop
         stop-color="#ea8113"
         offset="0.242424"
         id="stop6959" />
      <stop
         stop-color="#5c3307"
         id="stop6961"
         offset="0.621212" />
      <stop
         stop-color="#e07c12"
         id="stop6955"
         offset="1" />
    </linearGradient>
    <radialGradient
       r="19.2292"
       cy="22.300018"
       cx="18.557627"
       gradientTransform="matrix(1.77275,0,0,1.29668,-16.3404,-6.615959)"
       gradientUnits="userSpaceOnUse"
       id="radialGradient8677-6"
       xlink:href="#linearGradient6500" />
    <radialGradient
       r="4.8310289"
       cy="25.27103"
       cx="6.02422"
       gradientTransform="matrix(0.916159,0.09318684,-0.108765,1.069309,3.253668,-3.029272)"
       gradientUnits="userSpaceOnUse"
       id="radialGradient8681-2"
       xlink:href="#linearGradient8542" />
    <radialGradient
       r="3.5153141"
       cy="19.597878"
       cx="69.473244"
       gradientTransform="matrix(1.318488,0,0,1.318488,-22.1264,-6.241691)"
       gradientUnits="userSpaceOnUse"
       id="radialGradient8683-6"
       xlink:href="#linearGradient6468" />
    <radialGradient
       r="7.5791559"
       cy="35.35651"
       cx="15.415101"
       gradientTransform="matrix(1.572694,0,0,1.532639,-55.36682,-21.35823)"
       gradientUnits="userSpaceOnUse"
       id="radialGradient8947-5"
       xlink:href="#linearGradient6963" />
    <linearGradient
       y2="30.29306"
       x2="21.2132"
       y1="28.083361"
       x1="32.35014"
       gradientTransform="translate(-3.836549,0.345971)"
       gradientUnits="userSpaceOnUse"
       id="linearGradient8978"
       xlink:href="#linearGradient3204-1" />
    <linearGradient
       y2="46.98568"
       x2="39.524544"
       y1="19.11068"
       x1="14.96875"
       gradientUnits="userSpaceOnUse"
       id="linearGradient8980"
       xlink:href="#linearGradient8340" />
    <linearGradient
       y2="11.182488"
       x2="27.753893"
       y1="19.239889"
       x1="37.017639"
       gradientTransform="translate(-49.30496,1.877723)"
       gradientUnits="userSpaceOnUse"
       id="linearGradient8982"
       xlink:href="#linearGradient6951" />
    <linearGradient
       y2="33.438831"
       x2="23.109329"
       y1="30.001329"
       x1="19.394735"
       gradientTransform="translate(-46.40695,-1.802856)"
       gradientUnits="userSpaceOnUse"
       id="linearGradient8984"
       xlink:href="#linearGradient6939" />
    <linearGradient
       y2="42.28215"
       x2="7.7521091"
       y1="37.752247"
       x1="13.236155"
       gradientTransform="matrix(0.755165,0.395143,-0.395143,0.755165,-25.91245,6.532586)"
       gradientUnits="userSpaceOnUse"
       id="linearGradient8986"
       xlink:href="#linearGradient8340" />
    <linearGradient
       y2="30.985245"
       x2="24.328892"
       y1="30.543303"
       x1="26.162951"
       gradientUnits="userSpaceOnUse"
       id="linearGradient8988"
       xlink:href="#linearGradient3204-1" />
    <linearGradient
       y2="456.64612"
       x2="241.94255"
       y1="455.61646"
       x1="238.07204"
       gradientTransform="matrix(0.84112034,0,0,0.846412,98.401959,176.92549)"
       gradientUnits="userSpaceOnUse"
       id="linearGradient8990"
       xlink:href="#linearGradient8340" />
    <linearGradient
       osb:paint="solid"
       id="linearGradient5487">
      <stop
         id="stop5485"
         offset="0"
         style="stop-color:#888a85;stop-opacity:1;" />
    </linearGradient>
  </defs>
  <g
     style="display:inline"
     transform="translate(8.5513503,-168.92371)"
     id="stock">
    <g
       id="gimp-wilber-outline"
       transform="translate(-8.5513504,-867.43848)">
      <rect
         style="color:#000000;clip-rule:nonzero;display:inline;overflow:visible;visibility:visible;opacity:0;isolation:auto;mix-blend-mode:normal;color-interpolation:sRGB;color-interpolation-filters:linearRGB;solid-color:#000000;solid-opacity:1;fill:none;fill-opacity:1;fill-rule:nonzero;stroke:#000000;stroke-width:0.41550624;stroke-linecap:round;stroke-linejoin:miter;stroke-miterlimit:4;stroke-dasharray:none;stroke-dashoffset:0;stroke-opacity:1;color-rendering:auto;image-rendering:auto;shape-rendering:auto;text-rendering:auto;enable-background:accumulate"
         id="rect4002-29"
         width="15.584494"
         height="15.584494"
         x="0.20775318"
         y="1036.5699" />
      <g
         id="gimp-wilber-outline-48-0"
         transform="matrix(0.33333332,0,0,0.33333332,-189.32694,951.40202)">
        <g
           id="gimp-wilber-outline-0"
           transform="matrix(1.0168554,0,0,1.0168554,568.37098,254.31365)">
          <path
             d="m 38.186133,7.5788897 -0.730048,0.870295 c -0.784724,0.935712 -1.513445,2.6838343 -3.339013,4.4763523 -1.817887,1.784976 -4.670276,3.580108 -9.54443,4.386058 -0.779276,-0.434974 -1.6325,-0.737581 -2.528276,-0.739654 l -0.0019,0 c -1.148136,0.0015 -2.241735,0.416312 -3.152658,1.1066 -5.631342,-0.45573 -8.072805,-5.425417 -8.072805,-5.425417 l -0.885665,-1.82128 -0.2266996,9.730784 0.040345,0.09798 c 0,0 0.1734855,0.85898 -0.1805913,1.915417 C 8.5893674,21.012103 7.4343688,20.122009 6.2176732,19.707309 4.8248196,19.232566 3.3645735,19.306057 2.2427486,20.114599 1.1206227,20.92373 0.58917607,22.287108 0.6001384,23.75908 c 0.0109621,1.471973 0.5459782,3.081826 1.5868959,4.524383 l 0.00192,0 c 1.6419687,2.270972 4.1343785,3.536298 6.3091603,3.095023 2.8550434,2.066264 6.8072054,3.977119 10.9699464,4.824087 4.135668,0.84146 8.467851,0.606616 12.007385,-1.613792 0.997133,0.476215 2.078667,0.924531 3.183398,1.296797 0.0041,0.01646 7.24e-4,0.02721 0.0058,0.04419 l 0.151773,0.509113 0.61862,-0.234384 0.07493,0.073 3.429309,1.239163 c 0.242463,1.136006 0.695061,1.889845 1.98458,2.445664 2.44012,1.051759 4.203546,1.792462 4.203546,1.792462 l 0.391921,0.126798 -0.124877,-0.610936 C 44.800215,39.253537 44.787403,38.54216 44.091885,37.167004 43.744124,36.479427 43.511118,35.910451 42.9142,35.520553 c -0.596918,-0.389898 -1.221272,-0.540639 -1.949999,-0.464927 -0.428885,0.04456 -0.62224,0.06456 -0.981724,0.316995 L 37.67898,33.883705 c 0.03516,0.04741 0.07399,0.09074 0.101823,0.144089 l -0.170985,-0.188276 0.06916,0.04419 C 37.507174,33.652109 37.258379,33.494983 36.97579,33.43223 l 0.04034,0.0269 -0.151774,-0.04995 c -0.0208,-0.0027 -0.04047,-0.0099 -0.06148,-0.01153 l -0.0019,-0.0077 0.0634,0.01921 c 0.03785,0.0049 0.07445,0.01484 0.11143,0.02305 l -0.08069,-0.04995 -0.0999,-0.0096 -0.222857,-0.718522 -0.501428,0.313152 C 35.513217,32.600898 34.95004,32.273308 34.386037,31.970211 37.886139,27.794934 39.728573,20.570927 38.320616,8.7085437 Z"
             id="path4376-7"
             mix-blend-mode="normal"
             isolation="auto"
             stroke-miterlimit="10"
             style="color:#000000;white-space:normal;isolation:auto;mix-blend-mode:normal;color-interpolation:sRGB;color-interpolation-filters:linearRGB;solid-color:#000000;solid-opacity:1;fill:#ffffff;fill-rule:evenodd;stroke:#ffffff;stroke-width:1.96729004;stroke-miterlimit:10;color-rendering:auto;image-rendering:auto;shape-rendering:auto"
             inkscape:connector-curvature="0" />
          <path
             d="m 10.374369,12.467884 c 0,0 2.874509,5.927634 9.599242,5.760407 C 34.066126,17.874738 36.309226,10.582719 37.832786,8.7660099 42.895143,51.417634 6.0135488,33.362123 4.7175144,26.256467 11.965359,24.135147 10.197592,20.069282 10.197592,20.069282 Z"
             id="path8887-4-0"
             stroke-miterlimit="10"
             style="color:#000000;fill:url(#radialGradient8677-6);fill-rule:evenodd;stroke:#2e3436;stroke-width:0.98364502;stroke-miterlimit:10"
             inkscape:connector-curvature="0" />
          <path
             d="m 15.73779,30.066049 c 6.7389,1.347837 10.170691,0.09809 12.179175,-1.452776 -0.53033,-0.68501 -1.43631,-1.436311 -1.43631,-1.436311 0,0 2.353317,0.653942 3.18198,1.723573 0.82629,1.066568 0.306808,1.723707 0.09056,3.08837 -0.481411,-1.198599 -1.379981,-1.648092 -1.501634,-2.124332 -1.806268,2.496927 -6.306442,2.3932 -12.513771,0.201476 z"
             id="path8889-5-0"
             stroke-miterlimit="10"
             style="color:#000000;fill:url(#linearGradient8978);fill-rule:evenodd;stroke-miterlimit:10"
             inkscape:connector-curvature="0" />
          <path
             transform="translate(-18.935216,0.61081312)"
             id="path8891-0-2"
             d="m 55.982422,11.464844 c -0.559728,0.934477 -1.401421,2.056988 -2.69336,3.130859 -2.627217,2.183768 -7.038435,4.183821 -14.269531,4.365235 -4.227328,0.105122 -6.951762,-1.956149 -8.625,-3.775391 l -0.103515,4.484375 c 0.134837,0.418235 0.393122,1.394849 -0.08789,2.722656 -0.516707,1.426339 -2.162779,2.866699 -4.970703,3.97461 0.249023,0.522741 0.481717,1.072908 1.240234,1.814453 1.028124,1.005117 2.478226,2.08191 4.177735,3.05664 3.399016,1.949462 7.804707,3.488614 11.910156,3.558594 4.105448,0.06998 7.837138,-1.225365 10.417969,-4.990234 2.383441,-3.476921 3.695078,-9.381018 3.003906,-18.341797 z"
             stroke-miterlimit="10"
             xlink:href="##path4323"
             style="color:#000000;opacity:0.18539303;fill:none;fill-rule:evenodd;stroke:url(#linearGradient8980);stroke-width:0.98364502;stroke-miterlimit:10"
             inkscape:connector-curvature="0" />
          <ellipse
             id="path8893-9-8"
             transform="matrix(0.81098368,-0.58506878,0.58506878,0.81098368,-14.777903,6.9471287)"
             cx="6.0987959"
             cy="27.228741"
             rx="4.3310289"
             ry="6.0987959"
             stroke-miterlimit="10"
             style="color:#000000;fill:url(#radialGradient8681-2);fill-rule:evenodd;stroke:#000000;stroke-width:0.98364502;stroke-miterlimit:10" />
          <ellipse
             id="path8897-0-4"
             cx="4.0658641"
             cy="23.251261"
             rx="1.767767"
             ry="2.12132"
             stroke-miterlimit="10"
             style="color:#000000;fill:#ffffff;fill-rule:evenodd;stroke-miterlimit:10" />
          <circle
             id="path8899-0-5"
             transform="translate(-55.86145,0)"
             cx="69.473244"
             cy="21.837049"
             r="3.1819811"
             stroke-miterlimit="10"
             style="color:#000000;fill:#eeeeec;fill-rule:evenodd;stroke:#888a85;stroke-width:0.98364502;stroke-miterlimit:10" />
          <circle
             transform="matrix(1.5,0,0,1.5,-82.16821,-10.91852)"
             id="path8901-1-1"
             cx="69.473244"
             cy="21.837049"
             r="3.1819811"
             stroke-miterlimit="10"
             style="color:#000000;fill:url(#radialGradient8683-6);fill-rule:evenodd;stroke:#888a85;stroke-width:0.65576297;stroke-miterlimit:10" />
          <circle
             id="path8903-1-5"
             transform="translate(1.414216,0.707108)"
             cx="21.743534"
             cy="21.837049"
             r="2.2980969"
             stroke-miterlimit="10"
             style="color:#000000;fill:#2e3436;fill-rule:evenodd;stroke:#000000;stroke-miterlimit:10" />
          <circle
             id="path8905-9-1"
             transform="matrix(0.9,0,0,0.9,3.022883,2.625648)"
             cx="21.38998"
             cy="20.953165"
             r="1.767767"
             stroke-miterlimit="10"
             style="color:#000000;fill:#ffffff;fill-rule:evenodd;stroke-miterlimit:10" />
          <circle
             id="path8907-0-9"
             transform="matrix(0.615385,0,0,0.615385,1.258896,8.840808)"
             cx="21.743534"
             cy="21.837049"
             r="2.2980969"
             stroke-miterlimit="10"
             style="color:#000000;fill:#2e3436;fill-rule:evenodd;stroke:#000000;stroke-width:1.625;stroke-miterlimit:10" />
          <circle
             transform="matrix(0.553846,0,0,0.553846,2.248846,10.02145)"
             id="path8909-4-4"
             cx="21.38998"
             cy="20.953165"
             r="1.767767"
             stroke-miterlimit="10"
             style="color:#000000;fill:#ffffff;fill-rule:evenodd;stroke-miterlimit:10" />
          <g
             id="g8911-5-1"
             transform="matrix(-0.114852,-0.389864,0.389864,-0.114852,23.792903,29.320553)">
            <path
               id="path8913-7-6"
               d="m -23.364209,23.568336 3.710098,3.469175 c 8.346983,-6.380847 14.1949402,-15.935767 14.1949402,-15.935767 1.9763149,-2.2424126 -0.4660353,-5.9719056 -2.514022,-4.6193418 0,0 -9.7221102,8.1726828 -15.3910162,17.0859338 z"
               style="color:#000000;fill:url(#linearGradient8982);stroke:#673907;stroke-width:2.42021108;stroke-linecap:round"
               inkscape:connector-curvature="0" />
            <path
               id="path8915-9-4"
               d="m -30.449715,32.813894 2.24632,1.93382 8.492766,-7.367031 0.275061,-0.705828 1.094405,-0.01782 c -0.4375,-1.5625 -2.941514,-4.383455 -4.816514,-4.383455 l 0.08202,1.090075 -0.669991,0.380027 -6.704066,9.070207 z"
               style="color:#000000;fill:url(#linearGradient8984);stroke:#888a85;stroke-width:2.42021108;stroke-linecap:round"
               inkscape:connector-curvature="0" />
            <path
               id="path8917-1-2"
               d="m -23.801371,28.376767 -4.364933,5.266471"
               style="color:#000000;fill:none;stroke:#ffffff;stroke-width:2.46045303;stroke-linecap:round;stroke-linejoin:round"
               inkscape:connector-curvature="0" />
            <path
               id="path8919-0-6"
               d="m -45.341208,42.769835 c 10.443958,0 18.370039,1.24373 19.870605,-6.354738 1.209249,-6.123314 -7.210534,-9.057368 -11.38287,-3.590861 -4.019277,5.265971 -8.487735,9.945599 -8.487735,9.945599 z"
               style="color:#000000;fill:url(#radialGradient8947-5);stroke-width:0.2;stroke-linecap:round"
               inkscape:connector-curvature="0" />
            <circle
               transform="matrix(2.069903,0,0,2.069903,-44.75012,-41.50978)"
               id="path8921-3-6"
               cx="7.624999"
               cy="37.75"
               r="1.25"
               style="color:#000000;opacity:0.52777866;fill:#ffffff;stroke-linecap:round" />
            <circle
               id="path8923-3-2"
               transform="matrix(1.396669,0,0,1.396669,-32.05526,-25.87664)"
               cx="7.624999"
               cy="37.75"
               r="1.25"
               style="color:#000000;fill:#ffffff;stroke-linecap:round" />
            <path
               id="path8925-0-3"
               d="m -38.543723,40.909242 c 0,0 3.72152,0.0943 6.116538,-1.411995 0.847351,-0.532923 1.515774,0.649985 0.493819,1.087367 -2.207394,0.944732 -6.610357,0.324628 -6.610357,0.324628 z"
               style="color:#000000;opacity:0.427778;fill:url(#linearGradient8986);stroke-linecap:round"
               inkscape:connector-curvature="0" />
          </g>
          <path
             d="m 23.003067,31.736544 c 1.497372,0.143092 2.849629,-0.272213 3.411893,-0.474047 0.09822,-0.555386 0.536552,-1.621257 2.046088,-1.691468 l -0.53033,-0.928077 c 0,0 -1.966641,1.347921 -4.065864,1.745669 z"
             id="path8927-9-6"
             stroke-miterlimit="10"
             style="color:#000000;fill:url(#linearGradient8988);fill-rule:evenodd;stroke-miterlimit:10"
             inkscape:connector-curvature="0" />
        </g>
        <ellipse
           id="path8893-8-0-1"
           transform="matrix(0.80724286,-0.59021942,0.5751774,0.8180287,0,0)"
           cx="308.62628"
           cy="565.03027"
           rx="3.7034891"
           ry="5.2479262"
           stroke-miterlimit="10"
           style="color:#000000;opacity:0.25;fill:none;fill-rule:evenodd;stroke:url(#linearGradient8990);stroke-width:0.84376198;stroke-miterlimit:10" />
      </g>
    </g>
  </g>
</svg>
