<?xml version="1.0" encoding="UTF-8" standalone="no"?>
<svg
   xmlns:osb="http://www.openswatchbook.org/uri/2009/osb"
   xmlns:dc="http://purl.org/dc/elements/1.1/"
   xmlns:cc="http://creativecommons.org/ns#"
   xmlns:rdf="http://www.w3.org/1999/02/22-rdf-syntax-ns#"
   xmlns:svg="http://www.w3.org/2000/svg"
   xmlns="http://www.w3.org/2000/svg"
   xmlns:xlink="http://www.w3.org/1999/xlink"
   xmlns:sodipodi="http://sodipodi.sourceforge.net/DTD/sodipodi-0.dtd"
   xmlns:inkscape="http://www.inkscape.org/namespaces/inkscape"
   version="1.1"
   width="15.999821"
   height="16"
   id="svg2"
   viewBox="0 0 15.999821 16"
   inkscape:version="0.91 r13725"
   sodipodi:docname="gimp-display-filter.svg">
  <sodipodi:namedview
     pagecolor="#ffffff"
     bordercolor="#666666"
     borderopacity="1"
     objecttolerance="10"
     gridtolerance="10"
     guidetolerance="10"
     inkscape:pageopacity="0"
     inkscape:pageshadow="2"
     inkscape:window-width="640"
     inkscape:window-height="480"
     id="namedview1700"
     showgrid="false"
     inkscape:zoom="14.75"
     inkscape:cx="-313.45008"
     inkscape:cy="-50.467506"
     inkscape:window-x="0"
     inkscape:window-y="27"
     inkscape:window-maximized="0"
     inkscape:current-layer="svg2" />
  <metadata
     id="metadata90">
    <rdf:RDF>
      <cc:Work>
        <dc:format>image/svg+xml</dc:format>
        <dc:type
           rdf:resource="http://purl.org/dc/dcmitype/StillImage" />
        <dc:title>Gimp Color Icon Theme</dc:title>
        <dc:contributor>
          <cc:Agent>
            <dc:title>many unknown and unnamed, Andrew Chadwick, Alexandre Prokoudine, Aryeom Han, Benoit Touchette, Jakub Steiner, Jehan, Johannes Matschke, Kevin Payne, Klaus Staedtler, Marek Dvoroznak, Michael Natterer</dc:title>
          </cc:Agent>
        </dc:contributor>
        <dc:description>Enhanced, extended tango-art-libre for GIMP</dc:description>
      </cc:Work>
    </rdf:RDF>
  </metadata>
  <defs
     id="defs7386">
    <linearGradient
       gradientTransform="matrix(0,-735328.32,170712.69,0,2464326300,577972450)"
       osb:paint="solid"
       id="linearGradient19282">
      <stop
         stop-color="#b4b4b4"
         id="stop19284" />
    </linearGradient>
    <linearGradient
       osb:paint="gradient"
       x1="231.55"
       x2="320.70001"
       gradientUnits="userSpaceOnUse"
       id="linearGradient6057"
       gradientTransform="matrix(0.01502614,0,0,0.01468232,2.9686133,1037.3257)">
      <stop
         stop-color="#a11f7c"
         id="stop6053" />
      <stop
         stop-opacity="0.984"
         stop-color="#541f31"
         offset="1"
         id="stop6055" />
    </linearGradient>
    <linearGradient
       id="linearGradient3095">
      <stop
         style="stop-color:#ffffff;stop-opacity:1;"
         offset="0"
         id="stop3097" />
      <stop
         id="stop3099"
         offset="1"
         style="stop-color:#fffaa6;stop-opacity:0;" />
    </linearGradient>
    <linearGradient
       gradientTransform="matrix(0.9014429,0,0,0.96677306,603.91667,239.43217)"
       gradientUnits="userSpaceOnUse"
       y2="160.46092"
       x2="309.05939"
       y1="160.46092"
       x1="304.763"
       id="linearGradient8668"
       xlink:href="#linearGradient3095" />
    <linearGradient
       gradientTransform="matrix(0.9014429,0,0,0.96677306,612.44634,239.36805)"
       gradientUnits="userSpaceOnUse"
       y2="160.46092"
       x2="309.05939"
       y1="160.46092"
       x1="304.763"
       id="linearGradient8668-4"
       xlink:href="#linearGradient3095" />
    <linearGradient
       osb:paint="solid"
       id="linearGradient5487">
      <stop
         id="stop5485"
         offset="0"
         style="stop-color:#888a85;stop-opacity:1;" />
    </linearGradient>
  </defs>
  <g
     style="display:inline"
     transform="translate(-223.06247,-76.724734)"
     id="stock">
    <g
       transform="matrix(0.99801909,0,0,1,-55.006654,-74.763275)"
       id="gimp-display-filter">
      <g
         transform="matrix(0.99527663,0,0,0.9980191,8.2233619,-0.05225796)"
         id="g9465">
        <rect
           y="151.84105"
           x="271.68094"
           height="16.031757"
           width="16.031757"
           id="rect8700"
           style="color:#000000;clip-rule:nonzero;display:inline;overflow:visible;visibility:visible;opacity:0;isolation:auto;mix-blend-mode:normal;color-interpolation:sRGB;color-interpolation-filters:linearRGB;solid-color:#000000;solid-opacity:1;fill:#ffffff;fill-opacity:1;fill-rule:nonzero;stroke:none;stroke-width:0.5;stroke-linecap:round;stroke-linejoin:round;stroke-miterlimit:4;stroke-dasharray:none;stroke-dashoffset:0;stroke-opacity:1;color-rendering:auto;image-rendering:auto;shape-rendering:auto;text-rendering:auto;enable-background:accumulate" />
        <g
           style="opacity:1"
           transform="translate(-0.82698186,1.9881214)"
           id="g8694">
          <g
             transform="matrix(0.96596111,0,0,1.0006489,136.71349,-448.56934)"
             id="g8718"
             style="fill:#729fcf;stroke:#000000;stroke-width:0.5;stroke-miterlimit:4;stroke-dasharray:none;stroke-opacity:1">
            <path
               style="fill:#729fcf;stroke:#000000;stroke-width:0.49157602;stroke-miterlimit:4;stroke-dasharray:none;stroke-opacity:1"
               d="m 653.01562,307.90039 c -0.83881,0 -1.46249,0.30706 -1.87109,0.61328 -0.4086,0.30622 -0.63281,0.64844 -0.63281,0.64844 -0.0105,0.0109 -0.0216,0.0233 -0.0312,0.0352 l -3.53149,7.16211 c -0.24555,0.38136 -0.16048,0.66094 -0.21073,1.04687 0,1.93425 1.51366,3.50195 3.38086,3.50195 1.70518,0 3.11769,-1.30185 3.34961,-3.00195 0.0104,3.4e-4 0.0208,0 0.0312,0 l 1.93164,0 c 0.0105,0 0.0189,3.4e-4 0.0293,0 0.23192,1.7001 1.64638,3.00195 3.35156,3.00195 1.8672,0 3.38086,-1.5677 3.38086,-3.50195 -0.0142,-0.36215 -0.18725,-0.82657 -0.20835,-1.13757 l -3.53777,-7.07141 c -0.01,-0.0119 -0.0208,-0.0242 -0.0312,-0.0352 0,0 -0.22264,-0.34222 -0.62696,-0.64844 -0.40433,-0.30622 -1.02153,-0.61328 -1.85156,-0.61328 -0.27235,-0.0435 -0.54883,0.23087 -0.54883,0.54492 0,0.31406 0.27648,0.59031 0.54883,0.54688 0,0 1.13535,-0.46765 1.70312,0.7832 l 2.20313,4.3125 c -0.32696,-0.10909 -0.66926,-0.18359 -1.03125,-0.18359 -1.3761,0 -2.55241,0.84023 -3.08008,2.0625 -0.0985,-0.0349 -0.0546,0.16182 -0.16473,0.16424 l -2.06769,0.0454 c -0.11016,0.002 -0.20425,-0.24449 -0.30273,-0.20959 -0.52767,-1.22227 -1.70203,-2.0625 -3.07813,-2.0625 -0.37063,0 -0.72099,0.0772 -1.05469,0.1914 l 2.23047,-4.32031 c 0.57378,-1.25085 1.7207,-0.7832 1.7207,-0.7832 0.27525,0.0434 0.55665,-0.23282 0.55665,-0.54688 0,-0.31405 -0.2814,-0.58838 -0.55665,-0.54492 z m -2.83593,7.41016 c 1.13609,0 2.05273,0.93617 2.05273,2.0957 0,1.15953 -0.91664,2.0957 -2.05273,2.0957 -1.1361,0 -2.05274,-0.93617 -2.05274,-2.0957 0,-1.15953 0.91664,-2.0957 2.05274,-2.0957 z m 8.69336,0 c 1.13609,0 2.05273,0.93617 2.05273,2.0957 0,1.15953 -0.91664,2.0957 -2.05273,2.0957 -1.1361,0 -2.05274,-0.93617 -2.05274,-2.0957 0,-1.15953 0.91664,-2.0957 2.05274,-2.0957 z"
               transform="matrix(1.0352384,0,0,0.99935152,-528.52754,292.29967)"
               id="path8303"
               inkscape:connector-curvature="0" />
          </g>
          <ellipse
             style="color:#000000;clip-rule:nonzero;display:inline;overflow:visible;visibility:visible;opacity:1;isolation:auto;mix-blend-mode:normal;color-interpolation:sRGB;color-interpolation-filters:linearRGB;solid-color:#000000;solid-opacity:1;fill:url(#linearGradient8668);fill-opacity:1;fill-rule:nonzero;stroke:none;stroke-width:0.39209896;stroke-linecap:round;stroke-linejoin:round;stroke-miterlimit:4;stroke-dasharray:none;stroke-dashoffset:0;stroke-opacity:1;color-rendering:auto;image-rendering:auto;shape-rendering:auto;text-rendering:auto;enable-background:accumulate"
             id="path8651"
             cx="276.44806"
             cy="161.29465"
             rx="1.7597574"
             ry="1.866016" />
          <ellipse
             style="color:#000000;clip-rule:nonzero;display:inline;overflow:visible;visibility:visible;opacity:1;isolation:auto;mix-blend-mode:normal;color-interpolation:sRGB;color-interpolation-filters:linearRGB;solid-color:#000000;solid-opacity:1;fill:url(#linearGradient8668-4);fill-opacity:1;fill-rule:nonzero;stroke:none;stroke-width:0.39209896;stroke-linecap:round;stroke-linejoin:round;stroke-miterlimit:4;stroke-dasharray:none;stroke-dashoffset:0;stroke-opacity:1;color-rendering:auto;image-rendering:auto;shape-rendering:auto;text-rendering:auto;enable-background:accumulate"
             id="path8651-1"
             cx="284.97775"
             cy="161.23051"
             rx="1.7597574"
             ry="1.866016" />
        </g>
      </g>
    </g>
  </g>
</svg>
