<svg height="16.000027" viewBox="0 0 16.000002 16.000027" width="16.000002" xmlns="http://www.w3.org/2000/svg"><g><g fill="#bebebe"><path d="m.000002.000026h4v4h-4z"/><path d="m4.000002 4.000026h4v4h-4z"/><path d="m8.000002.000026h4v4h-4z"/><path d="m12.000002 4.000026h4v4h-4z"/><path d="m8.000002 8.000026h4v4h-4z"/><path d="m.000002 8.000026h4v4h-4z"/><path d="m4.000002 12.000026h4v4h-4z"/><path d="m12.000002 12.000026h4v4h-4z"/><path d="m.000002 4.000026h4v4h-4z" opacity=".3"/><path d="m4.000002.000026h4v4h-4z" opacity=".3"/><path d="m12.000002.000026h4v4h-4z" opacity=".3"/><path d="m8.000002 4.000026h4v4h-4z" opacity=".3"/><path d="m12.000002 8.000026h4v4h-4z" opacity=".3"/><path d="m4.000002 8.000026h4v4h-4z" opacity=".3"/><path d="m8.000002 12.000026h4v4h-4z" opacity=".3"/><path d="m.000002 12.000026h4v4h-4z" opacity=".3"/></g><path d="m.257091.257126h15.485823v15.485823h-15.485823z" fill="none" stroke="#000" stroke-linecap="round" stroke-linejoin="round" stroke-width=".514178"/></g></svg>