<svg height="16" viewBox="0 0 16 16" width="16" xmlns="http://www.w3.org/2000/svg"><g transform="translate(0 -1036.3622)"><path d="m-79 283v14l3.46875-3.46875c-.904822-.90482-1.46875-2.15054-1.46875-3.53125 0-2.76142 2.238576-5 5-5 1.380712 0 2.626428.56393 3.53125 1.46875l3.46875-3.46875z" transform="matrix(1.1428571 0 0 1.1428571 90.28570967142 712.9336407)"/><path d="m15.999998 1052.3622v-16l-3.964286 3.9643c1.034083 1.0341 1.678572 2.4577 1.678572 4.0357 0 3.1559-2.558373 5.7143-5.7142857 5.7143-1.5779565 0-3.0016325-.6445-4.0357145-1.6786l-3.96428503 3.9643z" fill="#fff" stroke-width="1.142857"/><g transform="matrix(1.05 0 0 1.05 -.399999 -52.218154)"><path d="m174.0002 507c0 2.76142-2.23858 5-5 5-1.38071 0-2.62643-.56393-3.53125-1.46875l7.0625-7.0625c.90482.90482 1.46875 2.15054 1.46875 3.53125z" transform="matrix(1.1428571 0 0 1.1428571 -185.14308 464.93365)"/><path d="m2.285713 1044.3622c0-3.1559 2.558377-5.7143 5.7142856-5.7143 1.5779541 0 3.0016344.6445 4.0357144 1.6786l-8.071429 8.0714c-1.03408-1.0341-1.678571-2.4578-1.678571-4.0357z" fill="#fff" stroke-width="1.142857"/></g></g></svg>