<svg height="16.00001" viewBox="0 0 16 16.000009" width="16" xmlns="http://www.w3.org/2000/svg" xmlns:xlink="http://www.w3.org/1999/xlink"><linearGradient id="a" gradientUnits="userSpaceOnUse" x1="731.06030551372" x2="730.04530710501" y1="236.6333637909" y2="226.7923153659"><stop offset="0" stop-color="#424242"/><stop offset="1" stop-color="#777"/></linearGradient><linearGradient id="b" gradientUnits="userSpaceOnUse" x1="732.64787106452" x2="732.60464077954" y1="238.82926027009" y2="236.90012174509"><stop offset="0" stop-color="#6194cb"/><stop offset="1" stop-color="#729fcf"/></linearGradient><linearGradient id="c" gradientTransform="matrix(.51475824 0 0 .31892069 723.63981 223.86259)" gradientUnits="userSpaceOnUse" x1="13.035696" x2="12.853771" y1="32.567184" y2="46.689312"><stop offset="0" stop-color="#fff" stop-opacity=".796078"/><stop offset="1" stop-color="#fff" stop-opacity=".215686"/></linearGradient><g transform="translate(0 -31.999991)"><path d="m.57499669 47.479335c.008516.162654.17969018.32531.34234522.32531h12.23983009c.162654 0 .316794-.162656.308278-.32531l-.365879-10.637802c-.0085-.162654-.179687-.325312-.342342-.325312h-5.1850839c-.1895174 0-.482323-.123305-.5476386-.432374l-.2388776-1.130357c-.0607435-.287436-.3446912-.405514-.507346-.405514h-5.77427186c-.16265824 0-.31679709.162655-.30828118.32531z" fill="#fff" stroke="url(#a)" stroke-linecap="round" stroke-linejoin="round" stroke-width=".390712"/><g transform="translate(.585848 -7.047064)"><path d="m13.01923 42.799754 1.020097-1.010697.00002 5.04006h-5.0877403l1.0201821-1.010696s-2.0403537-1.758726-.3444251-3.438833c1.6580753-1.583563 3.3917503.420055 3.3917503.420055z" fill="#396db1" stroke="#122439" stroke-width=".371894"/><g fill="#f57900" stroke="#542900" stroke-width=".475533" transform="translate(1.432577 1.841884)"><path d="m4.911377 38.791359c.3264168.273788.81603.234252 1.0933315-.08762.2774363-.322328.2372131-.80577-.089163-1.079458-.3265099-.273838-.8160859-.234302-1.0933456.08757-.2774101.322228-.2372831.80572.089177 1.079508z"/><path d="m7.4049627 39.269118c.4194911.343203 1.0407126.284552 1.3874244-.130783.3470018-.415335.2876356-1.030666-.1317125-1.373819-.4195384-.343304-1.04076-.284603-1.3875225.130833-.346915.415184-.2875916 1.030515.1318106 1.373769z"/><path d="m5.1136848 41.560375c.4194419.343254 1.0406891.284603 1.3874456-.130732.3469929-.415385.287584-1.030666-.1317593-1.373869-.4194781-.343304-1.0407605-.284603-1.3874828.130782-.3469059.415285-.2876534 1.030566.1317965 1.373819z"/></g></g><path d="m14.352172 47.80097c.446933-.01722.766997-.428337.7998-.906844.309361-4.512206.648332-8.295569.648332-8.295569.02819-.09669-.0656-.193389-.187597-.193389h-13.4292093s-.7229411 8.543648-.7229411 8.543648c-.044758.383705-.1820746.705124-.60553886.853202l13.49715426-.0011z" display="block" fill="url(#b)" stroke="#3465a4" stroke-linejoin="round" stroke-width=".390712"/><path d="m2.5670257 38.796357 12.8118623.02532-.614998 7.815005c-.03294.418652-.176085.55802-.731668.55802-.731218 0-11.2048149-.01266-12.26629-.01266.091269-.125344.1304022-.386266.130926-.392513z" fill="none" opacity=".465909" stroke="url(#c)" stroke-linecap="round" stroke-width=".390711"/></g></svg>