<svg height="16" viewBox="0 0 16 16.000001" width="16" xmlns="http://www.w3.org/2000/svg" xmlns:xlink="http://www.w3.org/1999/xlink"><linearGradient id="a" gradientTransform="matrix(.83174 0 0 .83684 27.65 44.986)" gradientUnits="userSpaceOnUse" x1="90.589996" x2="250.17999" y1="292.35999" y2="292.35999"><stop offset="0" stop-color="#d7d7d7"/><stop offset=".5" stop-color="#e7e7e7"/><stop offset="1" stop-color="#d7d7d7"/></linearGradient><g transform="matrix(1.0005594 0 0 .99826523 -8.003947 -7.970822)"><g fill-rule="evenodd"><g transform="matrix(.03584415 0 0 .03807221 5.457061 1.368668)"><rect fill="#555753" height="182.86" ry="21.429001" stroke="#8d8d8d" width="194.28999" x="71.429001" y="200.92999"/><rect fill="url(#a)" height="153.02" ry="17.931999" stroke="#f8f8f8" stroke-width=".83429" width="161.59" x="87.059998" y="213.14"/></g><g transform="matrix(.03575866 0 0 .08172529 13.471472 -7.393769)"><rect fill="#555753" height="182.86" rx="15.16763" ry="13.962881" stroke="#8d8d8d" width="194.28999" x="71.429001" y="200.92999"/><rect fill="url(#a)" height="166.22777" rx="22.751432" ry="13.784149" stroke="#f8f8f8" stroke-width=".83429" width="162.81818" x="87.059998" y="209.82173"/></g><g transform="matrix(.03584415 0 0 .03807221 5.457061 9.368668)"><rect fill="#555753" height="182.86" ry="21.429001" stroke="#8d8d8d" width="194.28999" x="71.429001" y="200.92999"/><rect fill="url(#a)" height="153.02" ry="17.931999" stroke="#f8f8f8" stroke-width=".83429" width="161.59" x="87.059998" y="213.14"/></g></g><text fill="#555753" font-family="sans-serif" font-size="2.295964" letter-spacing="0" word-spacing="0" x="9.219647" y="21.967489"><tspan x="9.219647" y="21.967489">alt</tspan></text><text fill="#555753" font-family="sans-serif" font-size="2.295964" letter-spacing="0" word-spacing="0" x="9.151852" y="13.899693"><tspan x="9.151852" y="13.899693">@</tspan></text></g><rect fill="#555753" height="16.000004" opacity="0" ry="6.018758" width="16.000002" x="-.000001" y="-.000001"/></svg>