<svg height="16" viewBox="0 0 16 16" width="16" xmlns="http://www.w3.org/2000/svg"><g transform="matrix(.99920937 0 0 1.0008091 .006219 -1037.207223)"><rect height="15.625256" rx="1.597776" ry="1.709449" style="fill:#c3c6c0;fill-rule:evenodd;stroke:#676964;stroke-width:.361955;stroke-linecap:round;stroke-linejoin:round" width="15.650415" x=".174826" y="1036.5496"/><rect height="11.616668" rx=".577462" ry=".621886" style="fill:#3465a4;fill-rule:evenodd;stroke:#173562;stroke-width:.383332;stroke-linecap:round;stroke-linejoin:round" width="13.616668" x="1.191666" y="1037.5538"/><rect fill="none" height="14.855167" rx="1.445327" ry="1.546344" width="14.998279" x=".501305" y="1036.9222"/><path d="m7.7114605 1038.5613a.78352951.79615894 0 0 0 -.1729099.018.78352951.79615894 0 0 0 -.3917257 1.3683l2.5676381 2.609h-6.517028v1.5922h6.5231492l-2.5737593 2.6154a.79635148.80918757 0 1 0 1.126211 1.1443l3.9172561-3.9804.538624-.5721-.538624-.5722-3.9172561-3.9804a.78352951.79615894 0 0 0 -.5615754-.2427z" fill="#fcaf3e" stroke="#ce5c00" stroke-width=".39487"/></g></svg>