<?xml version="1.0" encoding="UTF-8" standalone="no"?>
<svg
   xmlns:dc="http://purl.org/dc/elements/1.1/"
   xmlns:cc="http://creativecommons.org/ns#"
   xmlns:rdf="http://www.w3.org/1999/02/22-rdf-syntax-ns#"
   xmlns:svg="http://www.w3.org/2000/svg"
   xmlns="http://www.w3.org/2000/svg"
   xmlns:sodipodi="http://sodipodi.sourceforge.net/DTD/sodipodi-0.dtd"
   xmlns:inkscape="http://www.inkscape.org/namespaces/inkscape"
   width="16"
   height="16"
   viewBox="0 0 16 16"
   id="svg30571"
   version="1.1"
   inkscape:version="0.91+devel r"
   sodipodi:docname="gimp-convert-rgba.svg"
   inkscape:export-filename="/home/klaus/Bilder/icons/gimp-icons/Nostrification/Symbolic/texttool/gimp-line-spacing.png"
   inkscape:export-xdpi="90"
   inkscape:export-ydpi="90">
  <defs
     id="defs30573" />
  <sodipodi:namedview
     id="base"
     pagecolor="#ffffff"
     bordercolor="#666666"
     borderopacity="1"
     inkscape:pageopacity="0"
     inkscape:pageshadow="2"
     inkscape:zoom="32"
     inkscape:cx="10.671272"
     inkscape:cy="7.488086"
     inkscape:document-units="px"
     inkscape:current-layer="layer1"
     showgrid="false"
     units="px"
     inkscape:snap-page="true"
     inkscape:snap-bbox="true"
     inkscape:bbox-paths="true"
     inkscape:bbox-nodes="true"
     inkscape:snap-bbox-edge-midpoints="true"
     inkscape:snap-bbox-midpoints="true"
     inkscape:object-paths="true"
     inkscape:snap-intersection-paths="true"
     inkscape:object-nodes="true"
     inkscape:snap-smooth-nodes="true"
     inkscape:snap-midpoints="true"
     inkscape:snap-object-midpoints="true"
     inkscape:snap-center="true"
     inkscape:snap-text-baseline="true"
     showborder="false"
     inkscape:window-width="1920"
     inkscape:window-height="1016"
     inkscape:window-x="0"
     inkscape:window-y="27"
     inkscape:window-maximized="1"
     inkscape:snap-global="false"
     showguides="false">
    <inkscape:grid
       type="xygrid"
       id="grid4307"
       visible="true"
       enabled="true"
       snapvisiblegridlinesonly="true" />
  </sodipodi:namedview>
  <metadata
     id="metadata30576">
    <rdf:RDF>
      <cc:Work
         rdf:about="">
        <dc:format>
          image/svg+xml
        </dc:format>
        <dc:type
           rdf:resource="http://purl.org/dc/dcmitype/StillImage" />
        <dc:creator>
          <cc:Agent>
            <dc:title>Klaus Staedtler       </dc:title>
          </cc:Agent>
        </dc:creator>
        <dc:title></dc:title>
      </cc:Work>
    </rdf:RDF>
  </metadata>
  <g
     inkscape:label="Layer 1"
     inkscape:groupmode="layer"
     id="layer1"
     transform="translate(0,-1036.3622)">
    <g
       id="g4330">
      <g
         id="g4059"
         transform="matrix(0.72156668,0,0,0.72037923,2.2372969,1038.5998)">
        <g
           id="g4010"
           transform="matrix(0.91173112,0,0,0.91186358,0.70494849,0.70500859)">
          <g
             transform="matrix(0.04266667,0,0,0.04266667,-6.1512082,-16.858723)"
             id="g3943">
            <path
               inkscape:connector-curvature="0"
               id="path3967"
               d="m 313.54393,769.27295 c -12.05595,-1.53904 -32.34721,-6.02135 -42.19628,-9.32109 -28.51033,-9.55183 -48.2992,-22.07733 -71.69128,-45.37746 -31.53659,-31.41265 -46.92997,-62.48769 -53.71869,-108.44345 -6.60536,-44.71448 7.27722,-97.75832 35.26785,-134.7547 21.20692,-28.03006 47.40043,-48.8754 76.89236,-61.19254 52.91581,-22.09999 111.35206,-19.52735 162.57655,7.15738 31.10055,16.20143 62.11069,47.91406 77.89554,79.66016 8.4132,16.92043 12.04,27.50306 16.42504,47.92671 2.96639,13.8162 3.39657,18.598 3.39145,37.69829 -0.006,24.56723 -2.12699,37.67551 -9.83729,60.81415 -9.38982,28.17888 -22.02054,48.17414 -44.9484,71.15633 -31.42122,31.49566 -62.16797,46.82927 -107.55685,53.63931 -11.37401,1.70654 -33.10196,2.23665 -42.5,1.03691 z m 38.125,-73.43425 c 43.87957,-7.95839 79.87507,-41.18389 91.50402,-84.46245 3.75839,-13.98731 4.07714,-42.36841 0.61772,-55 -5.49265,-20.05556 -14.9323,-37.25454 -28.27354,-51.51414 -11.19803,-11.96886 -21.29643,-19.36646 -35.56408,-26.0525 -65.53213,-30.7094 -142.73689,6.42599 -160.40689,77.1555 -2.99013,11.96894 -3.00642,41.76839 -0.0288,52.70879 10.69922,39.31121 36.58939,68.45336 72.61096,81.73138 18.94324,6.98272 40.26854,8.92877 59.54062,5.43342 z"
               style="fill:#fcfc32" />
            <path
               inkscape:connector-curvature="0"
               id="path3965"
               d="M 313.54393,769.27295 C 280.62834,765.071 252.16419,754.90314 227.58253,738.56611 210.77116,727.39325 185.79385,702.10788 174.44316,684.77135 148.69437,645.4438 138.56658,593.23781 147.8008,547.4372 c 7.99699,-39.66415 25.91478,-72.19536 55.3304,-100.45687 27.06086,-25.99914 53.99987,-39.80236 94.16273,-48.24784 17.95439,-3.77547 49.27462,-4.09517 65.625,-0.66987 13.20467,2.76629 37.45817,10.81353 49.85903,16.54308 24.20459,11.18321 53.32686,36.09003 70.76597,60.52259 13.05316,18.28776 29.48975,55.38321 26.05957,58.81339 -1.59033,1.59033 -61.39757,17.67485 -63.90082,17.18544 -1.05739,-0.20673 -2.87995,-3.18837 -4.05015,-6.62587 -12.68116,-37.25138 -46.4776,-66.87132 -84.98996,-74.48706 -10.51612,-2.07954 -16.34237,-2.48695 -29.36864,-2.05365 -14.67267,0.48807 -17.60893,0.99613 -30.25,5.23417 -42.32467,14.18974 -71.19673,47.11472 -78.63333,89.6715 -2.38525,13.64989 -1.77023,34.86335 1.34834,46.50735 18.17752,67.87057 87.05249,104.71804 151.4506,81.02468 16.5998,-6.10741 30.29578,-15.06521 45.90713,-30.02541 8.75633,-8.39112 20.84777,-28.62797 24.60731,-41.18408 0.99335,-3.3176 2.3378,-5.32816 3.58031,-5.35421 1.0943,-0.0229 16.2508,3.75275 33.68113,8.39044 l 31.69147,8.43213 -0.59399,4.42208 c -0.97903,7.28862 -10.58012,30.34246 -17.27906,41.48995 -8.93012,14.86034 -18.52927,26.98408 -32.95213,41.61858 -27.0893,27.48682 -60.3662,43.53045 -103.80778,50.04832 -11.37401,1.70654 -33.10196,2.23665 -42.5,1.03691 z"
               style="fill:#cee82b" />
            <path
               inkscape:connector-curvature="0"
               id="path3963"
               d="M 313.54393,769.35309 C 262.59981,761.76095 232.489,747.27797 199.65637,714.5744 c -12.07241,-12.02497 -18.71151,-19.87265 -25.21321,-29.80305 -20.45915,-31.24839 -31.56994,-71.85006 -29.83372,-109.0201 2.30607,-49.37005 21.86312,-93.23422 56.62157,-126.99555 27.03398,-26.25845 54.64297,-40.89701 93.17208,-49.40075 13.28724,-2.93262 18.29526,-3.40644 36.64084,-3.46665 24.3592,-0.08 33.65102,1.4402 57.43795,9.39693 31.85571,10.65574 51.03946,22.39793 73.18705,44.79711 16.78684,16.97753 26.90266,30.62604 35.71147,48.18276 7.53358,15.01506 14.00269,33.89699 12.2231,35.67658 -1.59033,1.59033 -61.39757,17.67485 -63.90082,17.18544 -1.05739,-0.20673 -2.87995,-3.18837 -4.05015,-6.62587 -12.68116,-37.25138 -46.4776,-66.87132 -84.98996,-74.48706 -15.48744,-3.06261 -40.61539,-2.76262 -52.93634,0.63198 -41.94308,11.55593 -73.82484,43.86902 -84.18007,85.31894 -2.99013,11.96894 -3.00642,41.76839 -0.0288,52.70879 10.69999,39.31407 36.61372,68.48023 72.61096,81.72434 19.69473,7.24608 39.16537,8.91701 60.88284,5.22482 20.12336,-3.42116 38.14713,-11.97262 54.81309,-26.00631 l 5.53031,-4.65684 24.6704,24.64727 c 13.56871,13.55598 24.41101,25.32317 24.094,26.14931 -0.8266,2.15407 -12.34941,11.89961 -23.76726,20.1014 -18.8728,13.55691 -49.44251,26.41466 -74.18276,31.20159 -10.20657,1.97485 -42.84242,3.45344 -50.625,2.29361 z"
               style="fill:#f9b902" />
            <path
               inkscape:connector-curvature="0"
               id="path3961"
               d="M 313.54393,769.35309 C 262.59981,761.76095 232.489,747.27797 199.65637,714.5744 c -12.07241,-12.02497 -18.71151,-19.87265 -25.21321,-29.80305 -20.45915,-31.24839 -31.56994,-71.85006 -29.83372,-109.0201 2.30607,-49.37005 21.86312,-93.23422 56.62157,-126.99555 27.03398,-26.25845 54.64297,-40.89701 93.17208,-49.40075 13.28724,-2.93262 18.29526,-3.40644 36.64084,-3.46665 29.28716,-0.0961 35.29203,1.19657 71.72854,15.44144 13.69946,5.35581 27.70407,13.1244 39.18187,21.73483 7.45409,5.59191 17.62554,14.6928 19.11543,17.10349 0.97165,1.57216 -45.09982,48.70819 -47.60812,48.70819 -0.74631,0 -2.72061,-1.45904 -4.38733,-3.24232 -8.42647,-9.01578 -34.99154,-23.41112 -45.59255,-24.70614 -2.71582,-0.33177 -8.82029,-1.28298 -13.5655,-2.11381 -10.8598,-1.90142 -36.2122,-0.88941 -46.19004,1.8438 -41.86246,11.4673 -73.82494,43.85779 -84.18007,85.30733 -2.99013,11.96894 -3.00642,41.76839 -0.0288,52.70879 10.69999,39.31407 36.61372,68.48023 72.61096,81.72434 19.69473,7.24608 39.16537,8.91701 60.88284,5.22482 20.12336,-3.42116 38.14713,-11.97262 54.81309,-26.00631 l 5.53031,-4.65684 24.6704,24.64727 c 13.56871,13.55598 24.41101,25.32317 24.094,26.14931 -0.8266,2.15407 -12.34941,11.89961 -23.76726,20.1014 -18.8728,13.55691 -49.44251,26.41466 -74.18276,31.20159 -10.20657,1.97485 -42.84242,3.45344 -50.625,2.29361 z"
               style="fill:#f99702" />
            <path
               inkscape:connector-curvature="0"
               id="path3959"
               d="M 313.54393,769.35309 C 262.59981,761.76095 232.489,747.27797 199.65637,714.5744 168.11978,683.16175 152.7264,652.08671 145.93768,606.13095 c -5.13113,-34.7348 2.30475,-76.19571 19.76041,-110.17998 17.65404,-34.37047 51.53179,-66.72643 86.59584,-82.70593 26.78385,-12.20603 67.30137,-19.78627 91.5625,-17.13003 12.53906,1.37284 33.52529,5.55736 34.93342,6.9655 0.89723,0.89723 -15.53437,63.19195 -17.21231,65.2545 -0.7656,0.94109 -3.76397,0.8637 -10.18433,-0.26288 -19.81643,-3.47718 -38.49189,-1.72119 -57.22428,5.3806 -17.47679,6.62577 -30.21525,14.54883 -41.98431,26.11339 -16.25332,15.97089 -27.31287,35.0817 -32.63846,56.39899 -2.99013,11.96894 -3.00642,41.76839 -0.0288,52.70879 10.69999,39.31407 36.61372,68.48023 72.61096,81.72434 19.69473,7.24608 39.16537,8.91701 60.88284,5.22482 20.12336,-3.42116 38.14713,-11.97262 54.81309,-26.00631 l 5.53031,-4.65684 24.6704,24.64727 c 13.56871,13.55598 24.41101,25.32317 24.094,26.14931 -0.8266,2.15407 -12.34941,11.89961 -23.76726,20.1014 -18.8728,13.55691 -49.44251,26.41466 -74.18276,31.20159 -10.20657,1.97485 -42.84242,3.45344 -50.625,2.29361 z"
               style="fill:#0991cc" />
            <path
               inkscape:connector-curvature="0"
               id="path3957"
               d="m 371.13243,729.80613 c -4.76384,-18.04268 -8.84583,-33.36738 -9.07109,-34.05488 -0.22526,-0.6875 3.95366,-2.78912 9.28651,-4.67027 11.52341,-4.06488 22.32709,-10.26421 33.74758,-19.36492 l 8.35638,-6.65898 24.62177,24.59867 c 13.54198,13.52927 24.36239,25.2746 24.04538,26.10074 -1.94089,5.05786 -29.57114,25.13508 -45.83706,33.30698 -10.57276,5.31169 -32.1753,13.57838 -35.42235,13.55515 -0.58609,-0.004 -4.9633,-14.76981 -9.72712,-32.8125 z m -102.89236,27.88683 c -24.54145,-8.65527 -42.88777,-20.06547 -65.94614,-41.01416 -29.33105,-26.64745 -46.19709,-57.33103 -54.61491,-99.3583 -3.73875,-18.66631 -3.98406,-48.1779 -0.55334,-66.56925 7.43548,-39.86002 26.38019,-75.59324 53.87627,-101.62056 29.11928,-27.56383 53.86072,-40.66892 91.74747,-48.59697 22.6029,-4.7298 36.94208,-5.96956 51.10701,-4.41871 12.53906,1.37284 33.52529,5.55736 34.93342,6.9655 0.89723,0.89723 -15.53437,63.19195 -17.21231,65.2545 -0.7656,0.94109 -3.76397,0.8637 -10.18433,-0.26288 -19.81643,-3.47718 -38.49189,-1.72119 -57.22428,5.3806 -17.47679,6.62577 -30.21525,14.54883 -41.98431,26.11339 -16.25332,15.97089 -27.31287,35.0817 -32.63846,56.39899 -2.99013,11.96894 -3.00642,41.76839 -0.0288,52.70879 5.0566,18.57904 17.07645,41.38496 26.40925,50.10774 1.78328,1.66672 3.24233,3.75185 3.24233,4.63362 0,1.76231 13.62581,13.07545 22.5,18.68113 3.09375,1.95427 10.6875,5.61595 16.875,8.13703 11.12006,4.53088 11.24833,4.63253 11.10613,8.80083 -0.0791,2.31935 -3.67938,17.29513 -8.00058,33.2795 -9.03737,33.4297 -6.96213,31.17984 -23.40941,25.37921 z"
               style="fill:#fb5309" />
            <path
               inkscape:connector-curvature="0"
               id="path3955"
               d="m 371.13243,729.80613 c -4.76384,-18.04268 -8.84583,-33.36738 -9.07109,-34.05488 -0.22526,-0.6875 3.95366,-2.78912 9.28651,-4.67027 11.52341,-4.06488 22.32709,-10.26421 33.74758,-19.36492 l 8.35638,-6.65898 24.62177,24.59867 c 13.54198,13.52927 24.36239,25.2746 24.04538,26.10074 -1.94089,5.05786 -29.57114,25.13508 -45.83706,33.30698 -10.57276,5.31169 -32.1753,13.57838 -35.42235,13.55515 -0.58609,-0.004 -4.9633,-14.76981 -9.72712,-32.8125 z m -102.89236,27.88683 c -24.54145,-8.65527 -42.88777,-20.06547 -65.94614,-41.01416 -29.33105,-26.64745 -46.19709,-57.33103 -54.61491,-99.3583 -3.73875,-18.66631 -3.98406,-48.1779 -0.55334,-66.56925 5.18426,-27.79173 17.52517,-57.1922 32.46533,-77.34407 8.2893,-11.18093 19.27142,-23.28093 21.13009,-23.28093 0.65425,0 4.93203,-3.4313 9.50618,-7.6251 10.01251,-9.17995 24.62233,-19.01115 38.68802,-26.03382 13.37546,-6.67805 32.65404,-13.19067 34.26832,-11.57639 1.27395,1.27394 17.20327,59.42952 17.22348,62.88032 0.007,1.35093 -2.5759,2.94443 -7.80067,4.81089 -19.32691,6.90418 -32.87507,16.39647 -45.85733,32.12915 -16.55676,20.06448 -24.54809,36.4639 -28.3385,58.15491 -2.38525,13.64989 -1.77023,34.86335 1.34834,46.50735 4.76633,17.79638 16.94175,40.7852 26.16767,49.40808 1.78327,1.66672 3.24232,3.75185 3.24232,4.63362 0,1.76231 13.62581,13.07545 22.5,18.68113 3.09375,1.95427 10.6875,5.61595 16.875,8.13703 11.12006,4.53088 11.24834,4.63253 11.10614,8.80083 -0.0791,2.31935 -3.67939,17.29513 -8.00059,33.2795 -9.03736,33.4297 -6.96212,31.17984 -23.40941,25.37921 z"
               style="fill:#0349fc" />
            <path
               inkscape:connector-curvature="0"
               id="path3953"
               d="m 371.13243,729.80613 c -4.76384,-18.04268 -8.84583,-33.36738 -9.07109,-34.05488 -0.22526,-0.6875 3.95366,-2.78912 9.28651,-4.67027 11.52341,-4.06488 22.32709,-10.26421 33.74758,-19.36492 l 8.35638,-6.65898 24.62177,24.59867 c 13.54198,13.52927 24.36239,25.2746 24.04538,26.10074 -1.94089,5.05786 -29.57114,25.13508 -45.83706,33.30698 -10.57276,5.31169 -32.1753,13.57838 -35.42235,13.55515 -0.58609,-0.004 -4.9633,-14.76981 -9.72712,-32.8125 z M 190.61485,705.76174 c -29.90717,-31.97085 -48.17364,-83.59159 -46.00541,-130.01049 2.10931,-45.15766 19.86447,-88.55102 48.71654,-119.0625 3.41308,-3.60937 6.74088,-6.5625 7.39512,-6.5625 0.65425,0 4.93203,-3.4313 9.50618,-7.6251 10.01251,-9.17995 24.62233,-19.01115 38.68802,-26.03382 13.37546,-6.67805 32.65404,-13.19067 34.26832,-11.57639 1.27395,1.27394 17.20327,59.42952 17.22348,62.88032 0.007,1.35093 -2.5759,2.94443 -7.80067,4.81089 -19.32691,6.90418 -32.87507,16.39647 -45.85733,32.12915 -16.55676,20.06448 -24.54809,36.4639 -28.3385,58.15491 -2.38525,13.64989 -1.77023,34.86335 1.34834,46.50735 4.77783,17.83932 14.39447,36.3103 25.03814,48.09158 3.06869,3.39667 4.33429,5.81025 3.8488,7.33988 -0.88004,2.77275 -47.20186,49.07123 -49.09597,49.07123 -0.73939,0 -4.76017,-3.65152 -8.93506,-8.11451 z"
               style="fill:#65af33" />
            <path
               inkscape:connector-curvature="0"
               id="path3951"
               d="m 190.61485,705.76174 c -29.90717,-31.97085 -48.17364,-83.59159 -46.00541,-130.01049 2.10931,-45.15766 19.86447,-88.55102 48.71654,-119.0625 3.41308,-3.60937 6.74088,-6.5625 7.39512,-6.5625 0.65425,0 4.93203,-3.4313 9.50618,-7.6251 10.01251,-9.17995 24.62233,-19.01115 38.68802,-26.03382 13.37546,-6.67805 32.65404,-13.19067 34.26832,-11.57639 1.27395,1.27394 17.20327,59.42952 17.22348,62.88032 0.007,1.35093 -2.5759,2.94443 -7.80067,4.81089 -19.32691,6.90418 -32.87507,16.39647 -45.85733,32.12915 -16.55676,20.06448 -24.54809,36.4639 -28.3385,58.15491 -2.38525,13.64989 -1.77023,34.86335 1.34834,46.50735 4.77783,17.83932 14.39447,36.3103 25.03814,48.09158 3.06869,3.39667 4.33429,5.81025 3.8488,7.33988 -0.88004,2.77275 -47.20186,49.07123 -49.09597,49.07123 -0.73939,0 -4.76017,-3.65152 -8.93506,-8.11451 z"
               style="fill:#8808ae" />
            <path
               inkscape:connector-curvature="0"
               id="path3949"
               d="m 190.89892,703.72357 c -15.92058,-18.61507 -27.55318,-38.96474 -34.80996,-60.89536 -2.20028,-6.64942 -3.01509,-10.8569 -2.25057,-11.62142 1.27117,-1.27116 59.56052,-17.31335 62.94747,-17.32418 1.33851,-0.004 3.31224,3.37646 6.01689,10.30614 4.77836,12.24276 12.9367,25.74301 20.92813,34.63141 l 5.78237,6.43139 -22.98466,23.1549 c -12.64156,12.73521 -23.89366,23.65523 -25.00467,24.2667 -1.59098,0.87565 -3.84762,-1.02515 -10.625,-8.94958 z m -4.85499,-160.09422 c -17.875,-4.79992 -33.03303,-9.23787 -33.68451,-9.86212 -2.52982,-2.42408 10.10055,-34.12027 19.62813,-49.25721 8.59276,-13.65174 25.91793,-34.38377 28.73355,-34.38377 0.65425,0 4.93203,-3.4313 9.50618,-7.6251 10.01251,-9.17995 24.62233,-19.01115 38.68802,-26.03382 13.37546,-6.67805 32.65404,-13.19067 34.26832,-11.57639 1.27395,1.27394 17.20327,59.42952 17.22348,62.88032 0.007,1.35093 -2.5759,2.94443 -7.80067,4.81089 -19.29961,6.89443 -32.88273,16.40245 -45.78126,32.04631 -11.51606,13.96717 -16.77233,22.45502 -22.12186,35.72253 -2.22614,5.52112 -4.5227,10.48101 -5.10346,11.02195 -0.58076,0.54095 -15.68092,-2.94368 -33.55592,-7.74359 z"
               style="fill:#fc2713" />
            <path
               inkscape:connector-curvature="0"
               id="path3947"
               d="m 190.89892,703.72357 c -15.92058,-18.61507 -27.55318,-38.96474 -34.80996,-60.89536 -2.20028,-6.64942 -3.01509,-10.8569 -2.25057,-11.62142 1.27117,-1.27116 59.56052,-17.31335 62.94747,-17.32418 1.33851,-0.004 3.31224,3.37646 6.01689,10.30614 4.77836,12.24276 12.9367,25.74301 20.92813,34.63141 l 5.78237,6.43139 -22.98466,23.1549 c -12.64156,12.73521 -23.89366,23.65523 -25.00467,24.2667 -1.59098,0.87565 -3.84762,-1.02515 -10.625,-8.94958 z m -4.85499,-160.09422 c -17.875,-4.79992 -33.03303,-9.23787 -33.68451,-9.86212 -2.52982,-2.42408 10.10055,-34.12027 19.62813,-49.25721 5.76373,-9.15712 14.35986,-20.33439 21.44401,-27.88292 l 6.21663,-6.62415 25.30051,25.27793 25.30052,25.27794 -6.47765,7.81388 c -8.48107,10.23058 -14.09675,19.64832 -19.06826,31.97829 -2.22614,5.52112 -4.5227,10.48101 -5.10346,11.02195 -0.58076,0.54095 -15.68092,-2.94368 -33.55592,-7.74359 z"
               style="fill:#a6194b" />
            <path
               inkscape:connector-curvature="0"
               id="path3945"
               d="m 190.89892,703.72357 c -15.92058,-18.61507 -27.55318,-38.96474 -34.80996,-60.89536 -2.20028,-6.64942 -3.01509,-10.8569 -2.25057,-11.62142 1.27117,-1.27116 59.56052,-17.31335 62.94747,-17.32418 1.33851,-0.004 3.31224,3.37646 6.01689,10.30614 4.77836,12.24276 12.9367,25.74301 20.92813,34.63141 l 5.78237,6.43139 -22.98466,23.1549 c -12.64156,12.73521 -23.89366,23.65523 -25.00467,24.2667 -1.59098,0.87565 -3.84762,-1.02515 -10.625,-8.94958 z"
               style="fill:#3b01a3" />
          </g>
          <path
             sodipodi:open="true"
             d="M 13.105756,8.1478122 A 5.1521287,5.3389125 0 0 1 8.0096335,13.540363 5.1521287,5.3389125 0 0 1 2.8021043,8.2633403 5.1521287,5.3389125 0 0 1 7.8907878,2.8632511 5.1521287,5.3389125 0 0 1 13.105586,8.1325599"
             sodipodi:end="6.2702229"
             sodipodi:start="6.2730799"
             sodipodi:ry="5.3389125"
             sodipodi:rx="5.1521287"
             sodipodi:cy="8.2017632"
             sodipodi:cx="7.9538903"
             sodipodi:type="arc"
             id="path4008"
             style="color:#000000;clip-rule:nonzero;display:inline;overflow:visible;visibility:visible;opacity:1;isolation:auto;mix-blend-mode:normal;color-interpolation:sRGB;color-interpolation-filters:linearRGB;solid-color:#000000;solid-opacity:1;fill:#ffffff;fill-opacity:1;fill-rule:nonzero;stroke:none;stroke-width:0.5;stroke-linecap:round;stroke-linejoin:round;stroke-miterlimit:4;stroke-dasharray:none;stroke-dashoffset:0;stroke-opacity:1;color-rendering:auto;image-rendering:auto;shape-rendering:auto;text-rendering:auto;enable-background:accumulate" />
        </g>
      </g>
      <g
         transform="matrix(0.99999073,0,0,1.0026529,-3.9583547e-5,-2.7921064)"
         id="g4246">
        <g
           id="g3940"
           transform="matrix(0.99960142,0,0,0.99699157,0.04404047,3.1178624)">
          <g
             transform="matrix(0.99825878,0,0,1.0103202,37.649785,-6.2747135)"
             id="g3988">
            <path
               inkscape:connector-curvature="0"
               style="opacity:1;fill:#ffffff;fill-opacity:1;stroke:#555357;stroke-width:0.99579221;stroke-miterlimit:4;stroke-dasharray:none;stroke-opacity:1"
               d="m -29.696996,1032.5269 c -4.132275,-0.018 -7.525279,3.271 -7.560267,7.4018 h 2.031963 c 0.09809,-3.043 2.53709,-5.4115 5.582717,-5.4009 3.045856,0.015 5.339022,2.357 5.410808,5.4009 h 2.008795 c 3.22e-4,-4.1315 -3.341087,-7.3828 -7.474016,-7.3996 z"
               id="path3938-8"
               sodipodi:nodetypes="cccccccc" />
            <path
               sodipodi:nodetypes="cccccccc"
               inkscape:connector-curvature="0"
               id="path3938"
               d="m -22.236748,1039.869 -1.993903,0.06 c -0.0054,3.0945 -2.308148,5.3681 -5.403772,5.381 -3.095736,0.014 -5.55885,-2.287 -5.590648,-5.3813 h -2.032191 c 0.03644,4.1297 3.406327,7.4622 7.537663,7.4445 4.130471,-0.019 7.48136,-3.3152 7.482851,-7.4442 z"
               style="opacity:1;fill:#000000;fill-opacity:1;stroke:#555357;stroke-width:0.99579221;stroke-miterlimit:4;stroke-dasharray:none;stroke-opacity:1" />
          </g>
        </g>
      </g>
    </g>
  </g>
</svg>
