<svg height="16" viewBox="0 0 16 16" width="16" xmlns="http://www.w3.org/2000/svg"><g transform="matrix(.31111111 0 0 .32 .133333 -318.208)"><path d="m34.773767 1025.5492-6.380265-9.6919-1.925391-6.1553 14.531889-15.302 10 10-5 10z" fill="#6595b9"/><path d="m6 1034.4 10 10 20.488568-20.5355.0349-2.7136-15.523468-6.7509-10 10z" fill="#da786c"/><path d="m9 1028.4-1 2 10 10 30-30 1-2-11-11-27 27z" fill="#e3dbc8"/><path d="m29.856992 1020.2596 3.838556 3.5989 15.304452-15.4585 2-4-10-10c-6.666667 6.6667-19.026357 18.8644-18.603039 18.4411 7.460031 7.4185 0 0 7.460031 7.4185z" fill="#6595b9"/><path d="m9 1028.4 10 10 17.523466-17.2491.0058-2.2059-10.361997-9.965-15.167269 15.42z" fill="#da786c"/><path d="m6 1034.4 5-10 10 10-5 10z" fill-opacity=".078431"/><path d="m16 1044.4 30-30 5-10-30 30z" fill-opacity=".23529"/></g><g stroke="#555753"><path d="m.00358225 15.504933 2.99283695-.0099" fill="#555753" fill-rule="evenodd" stroke-width=".990129"/><path d="m7.0011857 15.509651 7.9976283-.01932" fill="none" stroke-width=".980695"/></g></svg>