<svg height="16" viewBox="0 0 16 16" width="16" xmlns="http://www.w3.org/2000/svg"><g transform="translate(0 -1036.3622)"><rect fill="#d3d7cf" height="15.608502" rx=".487434" ry=".489295" stroke="#888a85" stroke-width=".999999" transform="matrix(.96327079 0 0 .96336725 .293852 1036.6552)" width="15.610076" x=".194943" y=".195749"/><path d="m24.100607 13.13241c5.721981-1.65241 10.097058-5.0315146 12.583258-10.5815444" fill="none" stroke="#000" stroke-linecap="round" stroke-width="1.501257" transform="matrix(.99296003 0 0 .90940295 -22.175367 1035.7342)"/><g fill-rule="evenodd" stroke-width="3.003082"><path d="m1 1049.3622h2v2h-2z" fill="#2e3436"/><path d="m3 1049.3622h2v2h-2z" fill="#555753"/><path d="m5 1049.3622h2v2h-2z" fill="#888a85"/><path d="m7 1049.3622h2v2h-2z" fill="#babdb6"/><path d="m9 1049.3622h2v2h-2z" fill="#d3d7cf"/><path d="m11 1049.3622h2v2h-2z" fill="#eeeeec"/><path d="m13 1049.3622h2v2h-2z" fill="#fff"/></g></g></svg>