<svg height="16" viewBox="0 0 16 16" width="16" xmlns="http://www.w3.org/2000/svg" xmlns:xlink="http://www.w3.org/1999/xlink"><linearGradient id="a" gradientTransform="matrix(.8849759 0 0 .83768715 .409316 .87551)" gradientUnits="userSpaceOnUse" x1="8.428783" x2="11.973971" y1="4.250652" y2="4.326782"><stop offset="0" stop-color="#c00"/><stop offset="1" stop-color="#c00" stop-opacity="0"/></linearGradient><linearGradient id="b" gradientTransform="matrix(.88497598 0 0 .8376872 -.054308 2.615518)" gradientUnits="userSpaceOnUse" x1="3.378849" x2="6.847906" y1="12.447282" y2="12.396528"><stop offset="0" stop-color="#73d216"/><stop offset="1" stop-color="#73d216" stop-opacity="0"/></linearGradient><linearGradient id="c" gradientTransform="matrix(.8849759 0 0 .83768715 1.883465 2.594261)" gradientUnits="userSpaceOnUse" x1="12.615916" x2="15.958091" y1="12.498034" y2="12.421905"><stop offset="0" stop-color="#3465a4"/><stop offset="1" stop-color="#3465a4" stop-opacity="0"/></linearGradient><path d="m3.5 1h9v7h-9z" fill="#babdb6" opacity=".5"/><g stroke-width=".430504"><circle cx="8" cy="4.5" fill="url(#a)" r="2.784748" stroke="#a40000"/><ellipse cx="2.999932" cy="12.999931" fill="url(#b)" rx="2.784748" ry="2.784748" stroke="#4e9a06"/><circle cx="13" cy="12.999931" fill="url(#c)" r="2.784748" stroke="#204a87"/></g><path d="m3.02403.52403h9.951941v7.951941h-9.951941z" fill="none" stroke="#fff" stroke-linecap="square" stroke-width="1.048059"/><g stroke="#000" stroke-linecap="square" stroke-width=".598301"><g><path d="m2.79915.29915h.401699v.401699h-.401699z"/><path d="m2.79915 2.29915h.401699v.401699h-.401699z"/><path d="m2.79915 4.299151h.401699v.401699h-.401699z"/><path d="m2.79915 8.299151h.401699v.401699h-.401699z"/><path d="m2.79915 6.299151h.401699v.401699h-.401699z"/></g><g><path d="m12.79915.29915h.401699v.401699h-.401699z"/><path d="m12.79915 2.29915h.401699v.401699h-.401699z"/><path d="m12.79915 4.299151h.401699v.401699h-.401699z"/><path d="m12.79915 8.299151h.401699v.401699h-.401699z"/><path d="m12.79915 6.299151h.401699v.401699h-.401699z"/></g><g transform="rotate(90)"><path d="m8.299151-11.20085h.401699v.401699h-.401699z"/><path d="m8.299151-9.20085h.401699v.401699h-.401699z"/><path d="m8.299151-7.20085h.401699v.401699h-.401699z"/><path d="m8.299151-5.20085h.401699v.401699h-.401699z"/><path d="m.29915-11.20085h.401699v.401699h-.401699z"/><path d="m.29915-9.20085h.401699v.401699h-.401699z"/><path d="m.29915-5.20085h.401699v.401699h-.401699z"/><path d="m.29915-7.20085h.401699v.401699h-.401699z"/></g></g></svg>