<svg height="16" viewBox="0 0 16.000002 16" width="16.000002" xmlns="http://www.w3.org/2000/svg" xmlns:xlink="http://www.w3.org/1999/xlink"><linearGradient id="a"><stop offset="0" stop-color="#fff" stop-opacity=".796078"/><stop offset="1" stop-color="#fff" stop-opacity=".215686"/></linearGradient><linearGradient id="b"><stop offset="0"/><stop offset="1" stop-opacity="0"/></linearGradient><radialGradient id="c" cx="18.557627" cy="22.300018" gradientTransform="matrix(1.77275 0 0 1.29668 -16.3404 -6.615959)" gradientUnits="userSpaceOnUse" r="19.2292"><stop offset="0" stop-color="#857c63"/><stop offset="1" stop-color="#221f19"/></radialGradient><radialGradient id="d" cx="6.02422" cy="25.27103" gradientTransform="matrix(.916159 .09318684 -.108765 1.069309 3.253668 -3.029272)" gradientUnits="userSpaceOnUse" r="4.831029"><stop offset="0" stop-color="#5b676b"/><stop offset="1" stop-color="#141718"/></radialGradient><radialGradient id="e" cx="69.47323853507" cy="19.59787596846" gradientUnits="userSpaceOnUse" r="4.63489932523"><stop offset="0" stop-color="#fff"/><stop offset="1" stop-color="#b9b9b0"/></radialGradient><radialGradient id="f" cx="15.415101" cy="35.35651" gradientTransform="matrix(1.572694 0 0 1.532639 -55.36682 -21.35823)" gradientUnits="userSpaceOnUse" r="7.579156"><stop offset="0" stop-color="#696969"/><stop offset="1"/></radialGradient><linearGradient id="g" gradientUnits="userSpaceOnUse" x1="28.513591" x2="17.376651" xlink:href="#b" y1="28.429332" y2="30.639031"/><linearGradient id="h" gradientUnits="userSpaceOnUse" x1="14.96875" x2="39.524544" xlink:href="#a" y1="19.11068" y2="46.98568"/><linearGradient id="i" gradientUnits="userSpaceOnUse" x1="-12.287321" x2="-21.551067" y1="21.117612" y2="13.060211"><stop offset="0" stop-color="#6e3d09"/><stop offset=".242424" stop-color="#ea8113"/><stop offset=".621212" stop-color="#5c3307"/><stop offset="1" stop-color="#e07c12"/></linearGradient><linearGradient id="j" gradientUnits="userSpaceOnUse" x1="-27.012215" x2="-23.297621" y1="28.198473" y2="31.635975"><stop offset="0" stop-color="#bdbdbd"/><stop offset=".333333" stop-color="#e2e2e2"/><stop offset=".666667" stop-color="#a3a3a3"/><stop offset="1" stop-color="#ddd"/></linearGradient><linearGradient id="k" gradientTransform="matrix(.755165 .395143 -.395143 .755165 -25.91245 6.532586)" gradientUnits="userSpaceOnUse" x1="13.236155" x2="7.752109" xlink:href="#a" y1="37.752247" y2="42.28215"/><linearGradient id="l" gradientUnits="userSpaceOnUse" x1="26.162951" x2="24.328892" xlink:href="#b" y1="30.543303" y2="30.985245"/><linearGradient id="m" gradientTransform="matrix(.84112034 0 0 .846412 130.20189 115.33361)" gradientUnits="userSpaceOnUse" x1="238.07204" x2="241.94255" xlink:href="#a" y1="455.61646" y2="456.64612"/><g><path d="m.207753.20771h15.584494v15.584494h-15.584494z" fill="none" opacity="0" stroke="#000" stroke-linecap="round" stroke-width=".415506"/><g transform="matrix(.34826312658 .00101625771 -.00101625771 .34826312658 -.18487665043 -.9619435961)"><g stroke-miterlimit="10"><path d="m10.374369 12.467884s2.874509 5.927634 9.599242 5.760407c14.092515-.353553 16.335615-7.645572 17.859175-9.4622811 5.062357 42.6516241-31.8192372 24.5961131-33.1152716 17.4904571 7.2478446-2.12132 5.4800776-6.187185 5.4800776-6.187185z" fill="url(#c)" fill-rule="evenodd" stroke="#2e3436" stroke-width=".983645"/><path d="m15.73779 30.066049c6.7389 1.347837 10.170691.09809 12.179175-1.452776-.53033-.68501-1.43631-1.436311-1.43631-1.436311s2.353317.653942 3.18198 1.723573c.82629 1.066568.306808 1.723707.09056 3.08837-.481411-1.198599-1.379981-1.648092-1.501634-2.124332-1.806268 2.496927-6.306442 2.3932-12.513771.201476z" fill="url(#g)" fill-rule="evenodd"/><path d="m55.982422 11.464844c-.559728.934477-1.401421 2.056988-2.69336 3.130859-2.627217 2.183768-7.038435 4.183821-14.269531 4.365235-4.227328.105122-6.951762-1.956149-8.625-3.775391l-.103515 4.484375c.134837.418235.393122 1.394849-.08789 2.722656-.516707 1.426339-2.162779 2.866699-4.970703 3.97461.249023.522741.481717 1.072908 1.240234 1.814453 1.028124 1.005117 2.478226 2.08191 4.177735 3.05664 3.399016 1.949462 7.804707 3.488614 11.910156 3.558594 4.105448.06998 7.837138-1.225365 10.417969-4.990234 2.383441-3.476921 3.695078-9.381018 3.003906-18.341797z" fill="none" opacity=".185393" stroke="url(#h)" stroke-width=".983645" transform="translate(-19.137792 -.372276)"/><ellipse cx="6.098796" cy="27.228741" fill="url(#d)" fill-rule="evenodd" rx="4.331029" ry="6.098796" stroke="#000" stroke-width=".983645" transform="matrix(.81098368 -.58506878 .58506878 .81098368 -14.777903 6.947129)"/><ellipse cx="4.065864" cy="23.251261" fill="#fff" fill-rule="evenodd" rx="1.767767" ry="2.12132"/><circle cx="13.611794" cy="21.837049" fill="#eeeeec" fill-rule="evenodd" r="3.181981" stroke="#888a85" stroke-width=".983645"/><circle cx="69.473244" cy="21.837049" fill="url(#e)" fill-rule="evenodd" r="3.181981" stroke="#888a85" stroke-width=".655763" transform="matrix(1.5 0 0 1.5 -82.16821 -10.91852)"/><circle cx="23.15775" cy="22.544157" fill="#2e3436" fill-rule="evenodd" r="2.298097" stroke="#000"/><circle cx="22.273865" cy="21.4834965" fill="#fff" fill-rule="evenodd" r="1.5909903" stroke-width=".9"/><circle cx="14.63954067059" cy="22.27900039887" fill="#2e3436" fill-rule="evenodd" r="1.41421442234" stroke="#000" stroke-width="1.000000625"/><circle cx="14.09560086308" cy="21.62627662259" fill="#fff" fill-rule="evenodd" r=".97907068188" stroke-width=".553846"/></g><g stroke-linecap="round" transform="matrix(-.114852 -.389864 .389864 -.114852 24.71507 29.68942)"><path d="m-23.364209 23.568336 3.710098 3.469175c8.346983-6.380847 17.0940772-20.0993736 17.0940772-20.0993736 1.97631487-2.2424123-.1169199-3.7504826-2.1649066-2.3979188 0 0-12.9703626 10.1148664-18.6392686 19.0281174z" fill="url(#i)" stroke="#673907" stroke-width="2.420211"/><path d="m-30.449715 32.813894 2.24632 1.93382 8.492766-7.367031.275061-.705828 1.094405-.01782c-.4375-1.5625-2.941514-4.383455-4.816514-4.383455l.08202 1.090075-.669991.380027-6.704066 9.070207z" fill="url(#j)" stroke="#888a85" stroke-width="2.420211"/><path d="m-23.801371 28.376767-4.364933 5.266471" fill="none" stroke="#fff" stroke-linejoin="round" stroke-width="2.460453"/><path d="m-45.341208 42.769835c10.443958 0 18.370039 1.24373 19.870605-6.354738 1.209249-6.123314-7.210534-9.057368-11.38287-3.590861-4.019277 5.265971-8.487735 9.945599-8.487735 9.945599z" fill="url(#f)" stroke-width=".2"/><circle cx="-28.9671116949" cy="36.62905825" fill="#fff" opacity=".527779" r="2.58737875" stroke-width="2.069903"/><circle cx="-21.40566027167" cy="26.84761475" fill="#fff" r="1.74583625" stroke-width="1.396669"/><path d="m-38.543723 40.909242s3.72152.0943 6.116538-1.411995c.847351-.532923 1.515774.649985.493819 1.087367-2.207394.944732-6.610357.324628-6.610357.324628z" fill="url(#k)" opacity=".427778"/></g><path d="m23.003067 31.736544c1.497372.143092 2.849629-.272213 3.411893-.474047.09822-.555386.536552-1.621257 2.046088-1.691468l-.53033-.928077s-1.966641 1.347921-4.065864 1.745669z" fill="url(#l)" fill-rule="evenodd" stroke-miterlimit="10"/></g><ellipse cx="340.42618" cy="503.43832" fill="none" opacity=".25" rx="3.703489" ry="5.247926" stroke="url(#m)" stroke-miterlimit="10" stroke-width=".843762" transform="matrix(.26908097486 -.19673982241 .19172581534 .27267625515 -186.2952 -62.5639)"/></g></svg>