<svg height="16" viewBox="0 0 16 16" width="16" xmlns="http://www.w3.org/2000/svg" xmlns:xlink="http://www.w3.org/1999/xlink"><linearGradient id="a"><stop offset="0" stop-color="#fff"/><stop offset="1" stop-color="#fff" stop-opacity="0"/></linearGradient><linearGradient id="b"><stop offset="0" stop-color="#eeeeec"/><stop offset="1" stop-color="#a3a398"/></linearGradient><linearGradient id="c"><stop offset="0" stop-opacity=".278351"/><stop offset="1" stop-color="#a8a8a8" stop-opacity="0"/></linearGradient><linearGradient id="d" gradientUnits="userSpaceOnUse" x1="24" x2="23.433737" xlink:href="#b" y1="17.245949" y2="8.047659"/><linearGradient id="e" gradientTransform="matrix(.593728 0 0 .590305 7.25337 .782569)" gradientUnits="userSpaceOnUse" x1="17.160095" x2="37.969398" xlink:href="#a" y1="14.004482" y2="56.575912"/><radialGradient id="f" cx="24.225998" cy="30.479609" gradientTransform="matrix(1.840918 0 0 .821277 -20.45053 -6.182276)" gradientUnits="userSpaceOnUse" r="13.354399" xlink:href="#c"/><linearGradient id="g" gradientUnits="userSpaceOnUse" x1="23.433737" x2="23.433737" xlink:href="#b" y1="15.75864" y2="8.047659"/><linearGradient id="h" gradientTransform="matrix(.42509301 0 0 .15247051 -2.350236 8.075187)" gradientUnits="userSpaceOnUse" x1="24" x2="23.433737" xlink:href="#b" y1="17.245949" y2="8.047659"/><radialGradient id="i" cx="24.225998" cy="30.479609" gradientTransform="matrix(.79516445 0 0 .13418232 -11.435958 2.658068)" gradientUnits="userSpaceOnUse" r="13.354399" xlink:href="#c"/><linearGradient id="j" gradientTransform="matrix(.43193909 0 0 .16338254 -2.602574 3.668144)" gradientUnits="userSpaceOnUse" x1="23.433737" x2="23.433737" xlink:href="#b" y1="15.75864" y2="8.047659"/><linearGradient id="k" gradientTransform="matrix(.4121589 0 0 .17681666 -2.125868 3.355998)" gradientUnits="userSpaceOnUse" x1="17.160095" x2="37.969398" xlink:href="#a" y1="14.004482" y2="56.575912"/><path d="m0 0h16v16h-16z" opacity="0"/><g stroke-miterlimit="10"><g transform="matrix(.63463732 0 0 .30206068 -5.672061 7.454835)"><path d="m21.464547 5.500002c-4.895979 0-8.876945 1.7334382-8.876946 3.8658299v14.3035631c0 2.132392 3.980966 3.865829 8.876946 3.865829 4.895981 0 9.035466-1.733438 9.035464-3.865829 0-.126218 0-14.177345 0-14.3035631 0-2.1323917-4.139483-3.8658299-9.035464-3.8658299z" display="block" fill="#3465a4" stroke="#767973"/><ellipse cx="24" cy="14.071428" display="block" fill="#d3d7cf" opacity=".236264" rx="12.857142" ry="5.5" stroke="url(#d)" stroke-width="1.791129" transform="matrix(.61236 0 0 .509025 6.93016 16.53765)"/><path d="m21.470844 6.4999985c-4.350694 0-7.888282 1.5424173-7.888283 3.4398227v13.0612248c0 1.897408 3.537589 3.439823 7.888283 3.439823 4.350692 0 8.029144-1.542415 8.029142-3.439823 0-.112308 0-12.948914 0-13.0612248 0-1.8974064-3.67845-3.4398227-8.029142-3.4398227z" display="block" fill="none" opacity=".544304" stroke="url(#e)"/><ellipse cx="24" cy="14.071428" display="block" fill="url(#f)" opacity=".773196" rx="12.857142" ry="5.5" stroke="url(#g)" stroke-width="1.716514" transform="matrix(.622222 0 0 .545455 6.56666 1.824673)"/></g><ellipse cx="7.851996" cy="10.220665" display="block" fill="#d3d7cf" opacity=".236264" rx="5.465481" ry=".838588" stroke="url(#h)" stroke-width=".455997"/><path d="m7.7437329 5.0685649c-3.0201999 0-5.4759512.4620071-5.4759519 1.0303452v3.9122859c0 .568339 2.455752 1.030345 5.4759519 1.030345 3.0201991 0 5.5737361-.462006 5.5737351-1.030345 0-.03364 0-3.878645 0-3.9122859 0-.5683385-2.553536-1.0303452-5.5737351-1.0303452z" display="block" fill="none" opacity=".544304" stroke="url(#k)" stroke-width=".455997"/><ellipse cx="7.763964" cy="5.96717" display="block" fill="url(#i)" opacity=".773196" rx="5.553502" ry=".898604" stroke="url(#j)" stroke-width=".455997"/><g fill="#73d216" transform="matrix(.63463732 0 0 .30206068 -5.672061 2.997878)"><path d="m21.464547 5.500002c-4.895979 0-8.876945 1.7334382-8.876946 3.8658299v14.3035631c0 2.132392 3.980966 3.865829 8.876946 3.865829 4.895981 0 9.035466-1.733438 9.035464-3.865829 0-.126218 0-14.177345 0-14.3035631 0-2.1323917-4.139483-3.8658299-9.035464-3.8658299z" display="block" stroke="#767973"/><ellipse cx="24" cy="14.071428" display="block" opacity=".236264" rx="12.857142" ry="5.5" stroke="url(#d)" stroke-width="1.791129" transform="matrix(.61236 0 0 .509025 6.93016 16.53765)"/><path d="m21.470844 6.4999985c-4.350694 0-7.888282 1.5424173-7.888283 3.4398227v13.0612248c0 1.897408 3.537589 3.439823 7.888283 3.439823 4.350692 0 8.029144-1.542415 8.029142-3.439823 0-.112308 0-12.948914 0-13.0612248 0-1.8974064-3.67845-3.4398227-8.029142-3.4398227z" display="block" opacity=".544304" stroke="url(#e)"/><ellipse cx="24" cy="14.071428" display="block" opacity=".773196" rx="12.857142" ry="5.5" stroke="url(#g)" stroke-width="1.716514" transform="matrix(.622222 0 0 .545455 6.56666 1.824673)"/></g><g transform="matrix(.6345003 0 0 .3019819 -5.67037 -1.440182)"><path d="m21.464547 5.500002c-4.895979 0-8.876945 1.7334382-8.876946 3.8658299v14.3035631c0 2.132392 3.980966 3.865829 8.876946 3.865829 4.895981 0 9.035466-1.733438 9.035464-3.865829 0-.126218 0-14.177345 0-14.3035631 0-2.1323917-4.139483-3.8658299-9.035464-3.8658299z" display="block" fill="#c00" stroke="#767973"/><ellipse cx="24" cy="14.071428" display="block" fill="#d3d7cf" opacity=".236264" rx="12.857142" ry="5.5" stroke="url(#d)" stroke-width="1.791129" transform="matrix(.61236 0 0 .509025 6.93016 16.53765)"/><path d="m21.470844 6.4999985c-4.350694 0-7.888282 1.5424173-7.888283 3.4398227v13.0612248c0 1.897408 3.537589 3.439823 7.888283 3.439823 4.350692 0 8.029144-1.542415 8.029142-3.439823 0-.112308 0-12.948914 0-13.0612248 0-1.8974064-3.67845-3.4398227-8.029142-3.4398227z" display="block" fill="none" opacity=".544304" stroke="url(#e)"/><ellipse cx="24" cy="14.071428" display="block" fill="url(#f)" opacity=".773196" rx="12.857142" ry="5.5" stroke="url(#g)" stroke-width="1.716514" transform="matrix(.622222 0 0 .545455 6.56666 1.824673)"/></g></g></svg>