<svg height="24" viewBox="0 0 24 24" width="24" xmlns="http://www.w3.org/2000/svg"><g transform="translate(45 3)"><rect height="24" opacity="0" rx=".415072" ry="2.121914" width="24" x="-45" y="-3"/><path d="m-30.306712 20.511241h1.147773l-3.216037-8.352605h-1.284143l-3.181943 8.352605h1.102315l.94322-2.545557h3.545595zm-4.238805-3.363772.500018-1.329597c.340923-.931855.681848-1.840983 1.000041-2.80693h.04546c.340923.954583.670482 1.863711 1.011404 2.80693l.50002 1.329597z"/><path d="m-43.479193-1.458011v14.693233h-1.520807l2.613754 5.306763 2.617991-5.306763h-1.541989v-14.693233z"/><path d="m-43.479193.710938h14.693232v1.520807l5.306763-2.613754-5.306763-2.617991v1.541989h-14.693232z" opacity=".6"/><path d="m25.099562-.94018547 2.96-.84000003q3.16 8.92 8.04 13.5600005 5.2-5.0800005 8.56-15.2800005h-25.96v-2.8h15.88v-5.9199995h3.2v5.9199995h15.88v2.8h-5.64q-3.72 11.52-9.6 17.2800005 5.28 4 15.16 7l-.88 2.72q-10.72-3.2-16.56-7.72-5.72 4.48-16.48 7.72l-.88-2.72q9.84-3 15.04-7-5.32-5.1600005-8.72-14.72000047z" transform="matrix(.25408546 0 0 .25408546 -42.192701 5.697039)"/></g></svg>