<svg height="16" viewBox="0 0 16 16" width="16" xmlns="http://www.w3.org/2000/svg" xmlns:xlink="http://www.w3.org/1999/xlink"><linearGradient id="a" gradientTransform="matrix(.3410129 0 0 .39513284 572.96639 416.15408)" gradientUnits="userSpaceOnUse" x1="83.031731" x2="66.311295" y1="40.924026" y2="22.765684"><stop offset="0" stop-color="#d0d0d0"/><stop offset="1" stop-color="#ececec"/></linearGradient><linearGradient id="b" gradientUnits="userSpaceOnUse" x1="3" x2="22.0625" y1="14.59375" y2="14.59375"><stop offset="0" stop-color="#f0f1ee"/><stop offset="1" stop-color="#d3d7cf"/></linearGradient><radialGradient id="c" cx="24.3754842636" cy="30.8208638304" gradientUnits="userSpaceOnUse" r="5.4908799696"><stop offset="0" stop-color="#777"/><stop offset="1"/></radialGradient><linearGradient id="d" gradientUnits="userSpaceOnUse" x1="7.419417" x2="19.764402" y1="9.113672" y2="33.508858"><stop offset="0" stop-color="#fff"/><stop offset="1" stop-color="#fff" stop-opacity="0"/></linearGradient><path d="m7.030004 10.423256h11.827098v9.118933h-11.827098z" style="fill-rule:evenodd;stroke:#9b9c98;stroke-width:1.003793;stroke-linecap:round;stroke-linejoin:round;stroke-miterlimit:10;fill:url(#a)" transform="matrix(1.0047718 0 -.33483948896 .98787664855 .011576 -3.801083)"/><path d="m8.176715 11.496682h9.632398v5.792974h-9.632398z" fill="#d3d7cf" fill-rule="evenodd" stroke="#fff" stroke-miterlimit="10" stroke-width="1.06549" transform="matrix(1.0047718 0 -.33355909821 .98834755758 .011576 -3.801083)"/><g transform="matrix(.49801231 0 0 .49335781 -1.240717 -2.21592)"><path id="e" d="m3.5000001 5.5v9.75c0 3.467351 5.433283 7.103424 8.9999999 8.4375 3.473888-1.240724 9.0625-4.420893 9.0625-8.3125v-9.875z" fill="url(#b)" fill-rule="evenodd" stroke="#888a85" stroke-width="2.016715"/><g fill-rule="evenodd"><path d="m12.3125 6v16.983915c.07932.03108.172488.06496.25.09375 3.23348-1.146924 8.4375-4.090103 8.4375-7.6875v-9.390165z" fill="#85907a" opacity=".262887"/><path d="m14.416141 10.591869v2.512454l1.234743-1.642759 2.944388-.676429z" opacity=".283505"/><path d="m10.528413 10.591869v2.457835l-1.2053435-1.607046-2.8742821-.661724z" opacity=".283505"/></g><g transform="matrix(1.532984 0 0 1 -24.74082 -12.14934)"><path d="m27.845738 27.643149c-.840915 1.456507-1.824163 2.506196-3.57449 2.506196-1.700531 0-2.945405-1.209798-3.722333-2.555477.710712.851913 1.751523 1.830522 3.648412 1.830522 2.266495 0 2.662793-.810358 3.648411-1.781241z" fill="#fff" opacity=".36"/><path d="m27.845738 27.446026c-.840915 1.456507-1.824163 2.506196-3.57449 2.506196-1.700531 0-2.945405-1.209798-3.722333-2.555477.710712.851913 1.751523 1.830522 3.648412 1.830522 2.266495 0 2.662793-.810357 3.648411-1.781241z" fill="url(#c)"/></g><path d="m4.5605469 6.5605469v8.6894531c0 1.179663 1.0921648 2.790509 2.7832031 4.205078 1.5823226 1.323627 3.567306 2.420654 5.173828 3.06836 1.591013-.606071 3.573638-1.585998 5.16211-2.832032 1.705009-1.337448 2.822265-2.878329 2.822265-4.316406v-8.8144531z" fill="none" stroke="url(#d)" stroke-width="2.306122" transform="matrix(.874493 0 0 .874517 1.572766 1.82538)" xlink:href="#e"/></g></svg>