<svg height="16" viewBox="0 0 4.2333332 4.2333335" width="16" xmlns="http://www.w3.org/2000/svg"><g transform="translate(0 -292.500282)"><path d="m2.1171834 293.03123c-.7036231 0-1.3718978.31263-1.82417803.85163l.60719808.50953c.30179595-.35967.74746885-.56793 1.21697995-.56793.1161413 0 .2308877.0125.342098.0372-.2890398.45136-.6480014.88459-.9027816 1.3478-.112182.30823.047317.65159.3555339.76378.3082197.11223.6515993-.0494.7637777-.3576.016812-.0462.028085-.0937.033073-.14263v-.002-.008l.00206-.0103.1400432-1.44539c.1814891.0953.3460284.22401.4811075.38499l.6092684-.50953c-.3097918-.30804-.6683875-.57637-1.0097449-.709-.2768298-.0596-.5608524-.13853-.8144352-.14255zm-.0062 2.11667c.032755-.00066.065347.005.096118.016.1372458.05.2080275.20172.1581299.33899-.04998.13725-.2017216.20803-.3389974.15813-.1372458-.05-.2080276-.20172-.15813-.33899.037284-.1026.1337466-.17176.2428794-.17415z" fill="none" stroke="#000" stroke-linecap="round" stroke-width=".396875"/><g fill-rule="evenodd"><path d="m2.1171834 293.03123c-.7036231 0-1.37189781.31263-1.82417802.85163l.60719809.50953c.30179593-.35967.74746893-.56793 1.21697993-.56793.1161414 0 .2308878.0125.342098.0372l.3260784-.47491.1441773-.21032c-.2577537-.0938-.5319466-.1452-.8123537-.1452z" fill="#6d1"/><path d="m2.9310971 293.17744-.080098.82992c.1814891.0953.3460284.22401.4811075.38499l.6092548-.50949c-.2716374-.32372-.6219359-.56368-1.0102741-.70539z" fill="#d32"/><path d="m2.9316039 293.17386-.1462442.21291-1.1601359 1.6893v.002c-.00132.002-.00283.004-.00413.006l-.042892.0625.00982.004c-.0099.0198-.023863.0381-.031523.0589-.112182.30823.047317.65159.3555339.76378.3082198.11223.6515992-.0494.7637776-.3576.016812-.0462.028085-.0937.033073-.14263v-.002-.008l.00206-.0103zm-.8206217 1.97404a.26458332.26458332 0 0 1 .096118.016.26458332.26458332 0 0 1 .1581299.339.26458332.26458332 0 0 1 -.3389974.15813.26458332.26458332 0 0 1 -.1581299-.339.26458332.26458332 0 0 1 .2428792-.17415z" fill="#fff"/></g></g><path d="m0 .00001h4.233333v4.233333h-4.233333z" fill="none"/></svg>