<svg height="16" viewBox="0 0 16 16" width="16" xmlns="http://www.w3.org/2000/svg"><g transform="matrix(.65916962 0 0 .66006714 -592.92307267 -104.45563226219)"><path d="m900.04 181.75-.04-3c0-12.5 7-20 19.5-20h3.5v17.5h-6v5.5" fill="#729fcf" fill-rule="evenodd"/><g fill="none"><path d="m899.5 158.25h24v24h-24z"/><path d="m900.04 181.75-.04-3c0-12.5 7-20 19.5-20h3.5m-6 23v-6h6" stroke="#204a87" stroke-linecap="square"/><path d="m900.8738 181.9835-.04-3c0-12.5 6.6587-19.3744 19.1587-19.3744l3.2156.0569m-7.1375 22.09-.0568-7.0237 7.2512.1137" opacity=".5" stroke="#eeeeec" stroke-linecap="square"/></g></g><path d="m5.7423215 15.990576c.0511349-3.98742-.3039252-6.5627117 2.0852117-8.9713041 2.3491138-2.3682434 8.0028208-1.2841383 8.0028208-1.2841383" fill="none" stroke="#fff" stroke-width="1.469806"/></svg>