<svg height="24" viewBox="0 0 24 24" width="24" xmlns="http://www.w3.org/2000/svg" xmlns:xlink="http://www.w3.org/1999/xlink"><linearGradient id="a" gradientTransform="matrix(.63959205 0 0 .68754594 -.92655 1002.6283)" gradientUnits="userSpaceOnUse" x1="34.197105" x2="17.160702" y1="33.725819" y2="17.396523"><stop offset="0" stop-color="#d3d7cf"/><stop offset="1" stop-color="#eeeeec"/></linearGradient><linearGradient id="b" gradientTransform="matrix(.58330849 0 0 .85131626 21.4146 998.77904)" gradientUnits="userSpaceOnUse" x1="-11.986486" x2="-11.986486" y1="13.122552" y2="29.726542"><stop offset="0" stop-color="#555753"/><stop offset="1" stop-color="#fcaf3e"/></linearGradient><radialGradient id="c" cx="-6.007017" cy="32.837029" gradientTransform="matrix(.55643895 0 0 .53210988 13.058 1008.5237)" gradientUnits="userSpaceOnUse" r="9.90625"><stop offset="0" stop-color="#fce94f"/><stop offset="1" stop-color="#fce94f" stop-opacity="0"/></radialGradient><linearGradient id="d" gradientTransform="matrix(.56560451 0 0 .60095472 .8483 1007.3671)" gradientUnits="userSpaceOnUse" x1="25.355263" x2="25.355263" y1="34.006802" y2="32.409008"><stop offset="0" stop-color="#2e3436"/><stop offset="1" stop-color="#2e3436" stop-opacity="0"/></linearGradient><linearGradient id="e" gradientTransform="matrix(.43679764 0 0 .49451311 991.44687 1149.8527)" gradientUnits="userSpaceOnUse" x1="17.247635" x2="39.904388" y1="6.376041" y2="38.876041"><stop offset="0" stop-color="#eeeeec"/><stop offset="1" stop-color="#e6e6e3"/></linearGradient><g transform="translate(0 -1028.3622)"><path d="m9.2066374 1047.7779s.5565685 2.331-1.7637903 2.3529c-1.111552.011-.8838676 1.9061-.8838676 1.9061l14.1084215-.015s.191385-1.8401-.924912-1.8616c-2.281144-.043-1.742845-2.4122-1.742845-2.4122l-8.7930066.029z" fill="#eeeeec" fill-rule="evenodd" stroke="#888a85" stroke-width=".649999"/><path d="m5.0606886 1031.9034h17.0441944c.905262 0 1.564995.706 1.564995 1.7932l.005 12.9582c0 .8367-.236184 1.0954-.909527 1.0954l-18.3109556-.01c-.5271536-.014-.9023426-.2446-.9094226-.9985l.0068-13.1386c0-.8771.6881431-1.7003 1.5090458-1.7003z" fill="url(#e)" fill-rule="evenodd" stroke="#888a85" stroke-width=".649999"/><path d="m5.0426936 1032.346c-.5593383 0-1.0875769.6301-1.0875769 1.2536v13.0045c.0025.2954.061855.3881.1211347.4442.05928.056.1813795.1051.3904139.1109l17.8378217.015c.281799 0 .369519-.052.405224-.095.0357-.042.09674-.1934.09674-.5628v-12.8258c0-.8861-.448059-1.3453-1.143352-1.3453h-16.6204004z" fill="none" stroke="#fff" stroke-width=".467736"/><path d="m5.06173 1033.3762h17.09639v12.147457h-17.09639z" fill="#888a85" stroke="#888a85" stroke-linecap="round" stroke-linejoin="round" stroke-width=".649999"/><path d="m-.000116 1028.3622h23.999935v23.999979h-23.999935z" fill="none"/><g transform="matrix(.49999865 0 0 .49999955 .038726 526.22034)"><rect fill="url(#a)" height="27.500753" rx="2.278703" ry="2.632252" stroke="#8a8a8a" stroke-linecap="round" stroke-linejoin="round" stroke-width="1.5" width="27.50075" x=".672432" y="1005.0347"/><rect fill="url(#b)" height="20.431566" rx=".255198" ry=".368513" stroke="#888a85" stroke-linecap="round" stroke-linejoin="round" stroke-width="1.202826" width="20.431564" x="4.207024" y="1008.5693"/><path d="m9.36771 1020.1678c-2.87611.1821-5.16445 2.5842-5.16445 5.4992 0 .113.0108.2186.0174.3296h10.98967c.007-.1106.0174-.2171.0174-.3296 0-3.0335-2.47155-5.4992-5.51223-5.4992-.11875 0-.23086-.012-.34777 0z" fill="url(#c)" fill-rule="evenodd"/><path d="m4.807534 1027.1985h19.23057v1.201911h-19.23057z" fill="url(#d)"/><rect fill="none" height="25.232883" rx="1.799217" ry="2.111715" stroke="#fff" stroke-linecap="round" stroke-linejoin="round" stroke-width="1.201911" width="25.232882" x="1.806389" y="1006.1687"/><g fill-rule="evenodd"><path d="m17.07976 1026.5975s-.30914-1.772-.30914-2.8576c.008-.4952 4.33283-4.353 4.34399-4.9278l-1.00535.905-.70399-1.978 2.3733.2539 1.11289-1.1495-1.26044.9558-.43348-.1022-.53184-2.0034.2705 1.9526-1.96441-.1022.61478 1.6159-1.70307-1.7429 1.80144 2.4259c.00005.5411-3.55058 3.8443-3.54453 3.2747l-1.47259-2.0398-.12296-2.7578 1.11289-.3284.97496-2.483-1.28523 2.2949-1.00334-.047-2.24601-1.9593-3.08391-1.219 2.63465 1.4955-2.11196.1938h2.78219l1.66932 1.724.19673 2.978-2.97892-2.978 1.25271 1.5558-1.80916 1.3177 1.98729-1.1494 3.14363 4.0897-.12295 2.7908z"/><path d="m9.38769 1022.3908c-1.88136.1131-3.37825 1.5987-3.37825 3.4018 0 .07.007.1349.0108.204h7.18871c.005-.068.0108-.1349.0108-.204 0-1.8764-1.61673-3.4018-3.60573-3.4018-.0778 0-.15102 0-.2275 0z" fill="#fef39e"/><path d="m9.46354 1023.5927c-1.25425.075-2.25219 1.0658-2.25219 2.2679 0 .047.005.09.007.136h4.79253c.002-.046.007-.089.007-.136 0-1.251-1.07782-2.2679-2.40384-2.2679-.0518 0-.10072 0-.15167 0z" fill="#fffbd7" fill-opacity=".556818"/></g></g><g fill="#fff" stroke-linejoin="round"><path d="m15.357551 1036.4683-6.0009098.1766.056286 5.8864 2.3517558-2.3889 2.505682 2.4197-2.351756 2.3891 5.886373-.059.05823-6.005-2.409029 2.4483-2.505666-2.4198 2.409019-2.4483z" opacity=".6" stroke="#fff" stroke-width="2.005"/><path d="m15.357549 1036.4684-6.0009103.1766.05629 5.8864 2.3517553-2.3889 2.505683 2.4197-2.351756 2.3891 5.886373-.059.05823-6.005-2.409029 2.4482-2.505668-2.4198 2.40902-2.4483z" stroke="#000" stroke-width=".816"/></g></g></svg>