<svg height="16" viewBox="0 0 16.000002 16" width="16.000002" xmlns="http://www.w3.org/2000/svg" xmlns:xlink="http://www.w3.org/1999/xlink"><linearGradient id="a"><stop offset="0" stop-color="#fff" stop-opacity=".796078"/><stop offset="1" stop-color="#fff" stop-opacity=".215686"/></linearGradient><linearGradient id="b"><stop offset="0"/><stop offset="1" stop-opacity="0"/></linearGradient><radialGradient id="c" cx="18.557627" cy="22.300018" gradientTransform="matrix(1.77275 0 0 1.29668 -16.3404 -6.615959)" gradientUnits="userSpaceOnUse" r="19.2292"><stop offset="0" stop-color="#857c63"/><stop offset="1" stop-color="#221f19"/></radialGradient><radialGradient id="d" cx="6.02422" cy="25.27103" gradientTransform="matrix(.916159 .09318684 -.108765 1.069309 3.253668 -3.029272)" gradientUnits="userSpaceOnUse" r="4.831029"><stop offset="0" stop-color="#5b676b"/><stop offset="1" stop-color="#141718"/></radialGradient><radialGradient id="e" cx="69.47323853507" cy="19.59787596846" gradientUnits="userSpaceOnUse" r="4.63489932523"><stop offset="0" stop-color="#fff"/><stop offset="1" stop-color="#b9b9b0"/></radialGradient><radialGradient id="f" cx="15.415101" cy="35.35651" gradientTransform="matrix(1.572694 0 0 1.532639 -55.36682 -21.35823)" gradientUnits="userSpaceOnUse" r="7.579156"><stop offset="0" stop-color="#696969"/><stop offset="1"/></radialGradient><linearGradient id="g" gradientUnits="userSpaceOnUse" x1="28.513591" x2="17.376651" xlink:href="#b" y1="28.429332" y2="30.639031"/><linearGradient id="h" gradientUnits="userSpaceOnUse" x1="14.96875" x2="39.524544" xlink:href="#a" y1="19.11068" y2="46.98568"/><linearGradient id="i" gradientUnits="userSpaceOnUse" x1="-12.287321" x2="-21.551067" y1="21.117612" y2="13.060211"><stop offset="0" stop-color="#6e3d09"/><stop offset=".242424" stop-color="#ea8113"/><stop offset=".621212" stop-color="#5c3307"/><stop offset="1" stop-color="#e07c12"/></linearGradient><linearGradient id="j" gradientUnits="userSpaceOnUse" x1="-27.012215" x2="-23.297621" y1="28.198473" y2="31.635975"><stop offset="0" stop-color="#bdbdbd"/><stop offset=".333333" stop-color="#e2e2e2"/><stop offset=".666667" stop-color="#a3a3a3"/><stop offset="1" stop-color="#ddd"/></linearGradient><linearGradient id="k" gradientTransform="matrix(.755165 .395143 -.395143 .755165 -25.91245 6.532586)" gradientUnits="userSpaceOnUse" x1="13.236155" x2="7.752109" xlink:href="#a" y1="37.752247" y2="42.28215"/><linearGradient id="l" gradientUnits="userSpaceOnUse" x1="26.162951" x2="24.328892" xlink:href="#b" y1="30.543303" y2="30.985245"/><linearGradient id="m" gradientTransform="matrix(.84112034 0 0 .846412 98.401959 176.92549)" gradientUnits="userSpaceOnUse" x1="238.07204" x2="241.94255" xlink:href="#a" y1="455.61646" y2="456.64612"/><g><path d="m.207753.20771h15.584494v15.584494h-15.584494z" fill="none" opacity="0" stroke="#000" stroke-linecap="round" stroke-width=".415506"/><g transform="matrix(.33895178644 0 0 .33895178644 .13004575505 -.18895672418)"><g stroke-miterlimit="10"><path d="m38.186133 7.5788897-.730048.870295c-.784724.935712-1.513445 2.6838343-3.339013 4.4763523-1.817887 1.784976-4.670276 3.580108-9.54443 4.386058-.779276-.434974-1.6325-.737581-2.528276-.739654h-.0019c-1.148136.0015-2.241735.416312-3.152658 1.1066-5.631342-.45573-8.072805-5.425417-8.072805-5.425417l-.885665-1.82128-.2266996 9.730784.040345.09798s.1734855.85898-.1805913 1.915417c-.9750247-1.163922-2.1300233-2.054016-3.3467189-2.468716-1.3928536-.474743-2.8530997-.401252-3.9749246.40729-1.1221259.809131-1.65357253 2.172509-1.6426102 3.644481.0109621 1.471973.5459782 3.081826 1.5868959 4.524383h.00192c1.6419687 2.270972 4.1343785 3.536298 6.3091603 3.095023 2.8550434 2.066264 6.8072054 3.977119 10.9699464 4.824087 4.135668.84146 8.467851.606616 12.007385-1.613792.997133.476215 2.078667.924531 3.183398 1.296797.0041.01646.000724.02721.0058.04419l.151773.509113.61862-.234384.07493.073 3.429309 1.239163c.242463 1.136006.695061 1.889845 1.98458 2.445664 2.44012 1.051759 4.203546 1.792462 4.203546 1.792462l.391921.126798-.124877-.610936c-.594231-2.017111-.607043-2.728488-1.302561-4.103644-.347761-.687577-.580767-1.256553-1.177685-1.646451s-1.221272-.540639-1.949999-.464927c-.428885.04456-.62224.06456-.981724.316995l-2.303497-1.488916c.03516.04741.07399.09074.101823.144089l-.170985-.188276.06916.04419c-.171804-.231599-.420599-.388725-.703188-.451478l.04034.0269-.151774-.04995c-.0208-.0027-.04047-.0099-.06148-.01153l-.0019-.0077.0634.01921c.03785.0049.07445.01484.11143.02305l-.08069-.04995-.0999-.0096-.222857-.718522-.501428.313152c-.557714-.366392-1.120891-.693982-1.684894-.997079 3.500102-4.175277 5.342536-11.399284 3.934579-23.2616673z" fill="#fff" fill-rule="evenodd" stroke="#fff" stroke-width="1.96729"/><path d="m10.374369 12.467884s2.874509 5.927634 9.599242 5.760407c14.092515-.353553 16.335615-7.645572 17.859175-9.4622811 5.062357 42.6516241-31.8192372 24.5961131-33.1152716 17.4904571 7.2478446-2.12132 5.4800776-6.187185 5.4800776-6.187185z" fill="url(#c)" fill-rule="evenodd" stroke="#2e3436" stroke-width=".983645"/><path d="m15.73779 30.066049c6.7389 1.347837 10.170691.09809 12.179175-1.452776-.53033-.68501-1.43631-1.436311-1.43631-1.436311s2.353317.653942 3.18198 1.723573c.82629 1.066568.306808 1.723707.09056 3.08837-.481411-1.198599-1.379981-1.648092-1.501634-2.124332-1.806268 2.496927-6.306442 2.3932-12.513771.201476z" fill="url(#g)" fill-rule="evenodd"/><path d="m55.982422 11.464844c-.559728.934477-1.401421 2.056988-2.69336 3.130859-2.627217 2.183768-7.038435 4.183821-14.269531 4.365235-4.227328.105122-6.951762-1.956149-8.625-3.775391l-.103515 4.484375c.134837.418235.393122 1.394849-.08789 2.722656-.516707 1.426339-2.162779 2.866699-4.970703 3.97461.249023.522741.481717 1.072908 1.240234 1.814453 1.028124 1.005117 2.478226 2.08191 4.177735 3.05664 3.399016 1.949462 7.804707 3.488614 11.910156 3.558594 4.105448.06998 7.837138-1.225365 10.417969-4.990234 2.383441-3.476921 3.695078-9.381018 3.003906-18.341797z" fill="none" opacity=".185393" stroke="url(#h)" stroke-width=".983645" transform="translate(-18.935216 .610813)"/><ellipse cx="6.098796" cy="27.228741" fill="url(#d)" fill-rule="evenodd" rx="4.331029" ry="6.098796" stroke="#000" stroke-width=".983645" transform="matrix(.81098368 -.58506878 .58506878 .81098368 -14.777903 6.947129)"/><ellipse cx="4.065864" cy="23.251261" fill="#fff" fill-rule="evenodd" rx="1.767767" ry="2.12132"/><circle cx="13.611794" cy="21.837049" fill="#eeeeec" fill-rule="evenodd" r="3.181981" stroke="#888a85" stroke-width=".983645"/><circle cx="69.473244" cy="21.837049" fill="url(#e)" fill-rule="evenodd" r="3.181981" stroke="#888a85" stroke-width=".655763" transform="matrix(1.5 0 0 1.5 -82.16821 -10.91852)"/><circle cx="23.15775" cy="22.544157" fill="#2e3436" fill-rule="evenodd" r="2.298097" stroke="#000"/><circle cx="22.273865" cy="21.4834965" fill="#fff" fill-rule="evenodd" r="1.5909903" stroke-width=".9"/><circle cx="14.63954067059" cy="22.27900039887" fill="#2e3436" fill-rule="evenodd" r="1.41421442234" stroke="#000" stroke-width="1.000000625"/><circle cx="14.09560086308" cy="21.62627662259" fill="#fff" fill-rule="evenodd" r=".97907068188" stroke-width=".553846"/></g><g stroke-linecap="round" transform="matrix(-.114852 -.389864 .389864 -.114852 23.792903 29.320553)"><path d="m-23.364209 23.568336 3.710098 3.469175c8.346983-6.380847 14.1949402-15.935767 14.1949402-15.935767 1.9763149-2.2424126-.4660353-5.9719056-2.514022-4.6193418 0 0-9.7221102 8.1726828-15.3910162 17.0859338z" fill="url(#i)" stroke="#673907" stroke-width="2.420211"/><path d="m-30.449715 32.813894 2.24632 1.93382 8.492766-7.367031.275061-.705828 1.094405-.01782c-.4375-1.5625-2.941514-4.383455-4.816514-4.383455l.08202 1.090075-.669991.380027-6.704066 9.070207z" fill="url(#j)" stroke="#888a85" stroke-width="2.420211"/><path d="m-23.801371 28.376767-4.364933 5.266471" fill="none" stroke="#fff" stroke-linejoin="round" stroke-width="2.460453"/><path d="m-45.341208 42.769835c10.443958 0 18.370039 1.24373 19.870605-6.354738 1.209249-6.123314-7.210534-9.057368-11.38287-3.590861-4.019277 5.265971-8.487735 9.945599-8.487735 9.945599z" fill="url(#f)" stroke-width=".2"/><circle cx="-28.9671116949" cy="36.62905825" fill="#fff" opacity=".527779" r="2.58737875" stroke-width="2.069903"/><circle cx="-21.40566027167" cy="26.84761475" fill="#fff" r="1.74583625" stroke-width="1.396669"/><path d="m-38.543723 40.909242s3.72152.0943 6.116538-1.411995c.847351-.532923 1.515774.649985.493819 1.087367-2.207394.944732-6.610357.324628-6.610357.324628z" fill="url(#k)" opacity=".427778"/></g><path d="m23.003067 31.736544c1.497372.143092 2.849629-.272213 3.411893-.474047.09822-.555386.536552-1.621257 2.046088-1.691468l-.53033-.928077s-1.966641 1.347921-4.065864 1.745669z" fill="url(#l)" fill-rule="evenodd" stroke-miterlimit="10"/></g><ellipse cx="308.62628" cy="565.03027" fill="none" opacity=".25" rx="3.703489" ry="5.247926" stroke="url(#m)" stroke-miterlimit="10" stroke-width=".843762" transform="matrix(.26908094257 -.1967397988 .19172579233 .27267622243 -189.32694 -84.96017)"/></g></svg>