<svg height="16.000004" viewBox="0 0 16 16.000004" width="16" xmlns="http://www.w3.org/2000/svg" xmlns:xlink="http://www.w3.org/1999/xlink"><linearGradient id="a" gradientUnits="userSpaceOnUse" x1="774.88992551372" x2="773.87492710501" y1="238.0698637909" y2="228.2288153659"><stop offset="0" stop-color="#424242"/><stop offset="1" stop-color="#777"/></linearGradient><linearGradient id="b" gradientTransform="matrix(.51475824 0 0 .31892069 767.46943 225.29909)" gradientUnits="userSpaceOnUse" x1="13.035696" x2="12.853771" y1="32.567184" y2="46.689312"><stop offset="0" stop-color="#fff" stop-opacity=".796078"/><stop offset="1" stop-color="#fff" stop-opacity=".215686"/></linearGradient><g transform="translate(0 -33.4365)"><path d="m.57499669 48.915838c.008516.162654.17969013.32531.34234513.32531h12.23983018c.162654 0 .316794-.162656.308278-.32531l-.365879-10.637802c-.0085-.162654-.179687-.325312-.342342-.325312h-5.185084c-.1895174 0-.4823229-.123305-.5476386-.432374l-.2388775-1.130357c-.0607436-.287436-.3446913-.405514-.5073461-.405514h-5.77427176c-.16265824 0-.31679709.162655-.30828118.32531z" fill="#fff" stroke="url(#a)" stroke-linecap="round" stroke-linejoin="round" stroke-width=".390712"/><g stroke-width=".154784" transform="matrix(.6460621 0 0 .6460621 5.024348 28.257419)"><path d="m5.3596894 11.40703c-.9090352.000003-1.5388348.0917-1.8893999.275077-.3505702.183386-.525855.496216-.5258528.938493-.0000022.352386.1304415.632857.3913318.841409.2649625.204959.6236824.307439 1.0761628.307437.6236813.000002 1.1230374-.194169 1.4980691-.582512.3790973-.391938.5686478-.911524.5686541-1.558764v-.22114zm2.2440443-.409917v3.44654h-1.1250792v-.916919c-.2568172.366768-.5768122.638247-.959987.814439-.3831833.172596-.8519661.258895-1.4063493.258895-.7011386 0-1.2596013-.172595-1.6753902-.51779-.4117147-.348787-.6175716-.814439-.6175704-1.396954-.0000012-.679597.2568108-1.191992.7704345-1.537189.517697-.345189 1.2881316-.517786 2.3113049-.517791h1.5775575v-.09709c-.0000063-.456652-.1712136-.8090371-.5136237-1.0571495-.3383445-.2516982-.8152788-.3775493-1.4308075-.3775545-.391335.0000052-.7724765.0413561-1.1434244.124054-.3709511.0827072-.7276333.2067605-1.0700477.3721609v-.9169207c.4117124-.1402274.8111971-.2445056 1.1984548-.3128303.3872533-.0719087.7643173-.1078665 1.1311942-.1078735.9905539.0000063 1.7304153.2265393 2.2195851.6795994.4891592.4530708.7337411 1.1398612.7337484 2.0603722" stroke="#fff"/><path d="m11.674456 17.986596c.356997.000001.628627-.136145.814893-.40844.189361-.272294.284043-.667767.284048-1.186424-.000005-.518652-.09469-.914127-.284048-1.186424-.186266-.27229-.457896-.408437-.814893-.408442-.357005.000005-.631739.137773-.824206.413303-.189369.2723-.284051.666151-.284048 1.181563-.000003.515415.09467.910889.284048 1.186424.192467.272295.467201.408441.824206.40844m-1.108254-3.525235c.229719-.31767.484275-.551065.763669-.700185.279389-.152348.60069-.228527.963904-.228532.642595.000005 1.170336.267436 1.583221.802295.412873.531626.619311 1.217223.619319 2.056793-.000008.839575-.206446 1.526793-.619319 2.061655-.412885.531621-.940626.797431-1.583221.797431-.363214 0-.684515-.07456-.963904-.223669-.279394-.152356-.53395-.387371-.763669-.705048v.787709h-1.6670401v-7.565885h1.6670401z" stroke="#787878"/></g><path d="m14.352172 49.237473c.446933-.01722.766997-.428337.7998-.906844.309361-4.512206.648332-8.295569.648332-8.295569.02819-.09669-.0656-.193389-.187597-.193389h-13.4292094s-.7229411 8.543648-.7229411 8.543648c-.044758.383705-.1820745.705124-.60553878.853202l13.49715428-.0011z" display="block" fill="#729fcf" stroke="#3465a4" stroke-linejoin="round" stroke-width=".390712"/><path d="m2.5670256 40.23286 12.8118624.02532-.614998 7.815005c-.03294.418652-.176085.55802-.731668.55802-.731218 0-11.204815-.01266-12.2662901-.01266.09127-.125344.1304022-.386266.130926-.392513z" fill="none" opacity=".465909" stroke="url(#b)" stroke-linecap="round" stroke-width=".390711"/><path d="m0 33.436501h16v16h-16z" fill="#bebebe" opacity="0"/></g></svg>