<svg height="16.000122" viewBox="0 0 16 16.000122" width="16" xmlns="http://www.w3.org/2000/svg" xmlns:xlink="http://www.w3.org/1999/xlink"><linearGradient id="a"><stop offset="0" stop-color="#fff" stop-opacity=".796078"/><stop offset="1" stop-color="#fff" stop-opacity=".215686"/></linearGradient><linearGradient id="b"><stop offset="0" stop-color="#424242"/><stop offset="1" stop-color="#777"/></linearGradient><linearGradient id="c" gradientUnits="userSpaceOnUse" x1="711.73227551372" x2="710.71727710501" xlink:href="#b" y1="257.4360037909" y2="247.5949553659"/><radialGradient id="d" cx="28.6576" cy="33.986694" gradientTransform="matrix(1.9578819 0 0 1.9776232 -140.66735 2099.5254)" gradientUnits="userSpaceOnUse" r="18.572308"><stop offset="0" stop-color="#e7ce79"/><stop offset="1" stop-color="#c17d11"/></radialGradient><linearGradient id="e" gradientUnits="userSpaceOnUse" x1="-91.515998" x2="-79.465426" xlink:href="#b" y1="2162.4693" y2="2162.4693"/><linearGradient id="f" gradientTransform="matrix(.32399235 0 0 .35716019 -94.058324 2153.9078)" gradientUnits="userSpaceOnUse" x1="15.299923" x2="51.568203" xlink:href="#a" y1="9.144098" y2="83.076073"/><linearGradient id="g" gradientTransform="matrix(.81744022 0 0 .84959857 -73.230444 1277.3853)" gradientUnits="userSpaceOnUse" x1="-13.618783" x2="-9.83351" y1="1044.7833" y2="1044.7833"><stop offset="0" stop-color="#8ae234"/><stop offset="1" stop-color="#73d216"/></linearGradient><linearGradient id="h" gradientTransform="matrix(.81744022 0 0 .84959857 -76.808464 1279.1906)" gradientUnits="userSpaceOnUse" x1="-13.618783" x2="-9.83351" y1="1044.7833" y2="1044.7833"><stop offset="0" stop-color="#ef2929"/><stop offset="1" stop-color="#c00"/></linearGradient><linearGradient id="i" gradientTransform="matrix(.81744022 0 0 .84959857 -72.840114 1273.6934)" gradientUnits="userSpaceOnUse" x1="-13.618783" x2="-9.83351" y1="1044.7833" y2="1044.7833"><stop offset="0" stop-color="#729fcf"/><stop offset="1" stop-color="#3465a4"/></linearGradient><linearGradient id="j" gradientUnits="userSpaceOnUse" x1="713.31984106452" x2="713.27661077954" y1="259.63190027009" y2="257.70276174509"><stop offset="0" stop-color="#6194cb"/><stop offset="1" stop-color="#729fcf"/></linearGradient><linearGradient id="k" gradientTransform="matrix(.51475824 0 0 .31892069 704.31177 244.66523)" gradientUnits="userSpaceOnUse" x1="13.035696" x2="12.853771" xlink:href="#a" y1="32.567184" y2="46.689312"/><g transform="translate(-.55515 -30.963595)"><path d="m1.1301486 46.443051c.00852.162654.1796902.32531.3423452.32531h12.2398302c.162654 0 .316794-.162656.308278-.32531l-.365879-10.637802c-.0085-.162654-.179687-.325312-.342342-.325312h-5.185084c-.1895174 0-.482323-.123305-.5476386-.432374l-.2388776-1.130357c-.0607435-.287436-.3446912-.405514-.507346-.405514h-5.7742718c-.16265828 0-.31679713.162655-.30828122.32531z" fill="#fff" stroke="url(#c)" stroke-linecap="round" stroke-linejoin="round" stroke-width=".390712"/><g transform="matrix(.13582640158 -.64213989866 .64213989866 .13582640158 -661.11217135827 -99.93078117179)"><path d="m9.4536954 1036.7703c-1.900788.028-4.447296.7445-4.404271 3.0471.0459 2.4561 2.752324 1.487 2.855183 2.5782.166241 1.7637-3.296211 7.1293 1.964204 8.1811 3.5118376.7024 7.2390576-1.7087 6.8645866-6.5738-.336769-4.3755-3.620646-7.1213-6.9050856-7.2326-.119994 0-.247897 0-.374617 0zm-.820105 1.4287c.894219 0 1.6199616.56 1.6199616 1.2501 0 .6899-.7257426 1.2499-1.6199616 1.2499s-1.619962-.56-1.619962-1.2499c0-.6901.725743-1.2501 1.619962-1.2501z" fill="url(#d)" fill-rule="evenodd" stroke="url(#e)" stroke-width=".340172"/><path d="m9.4744424 1037.1363c-.915046.013-1.983862.2027-2.78431.6362-.800447.4334-1.314734 1.0383-1.295969 2.0424.0101.5408.155408.8317.354367 1.038.198958.2065.484586.3301.80998.4242.325395.094.677648.1497.992227.2679.15729.058.311383.1357.44549.2679.134106.1322.232392.3381.253119.558.05537.5875-.155169 1.2513-.374617 2.0202-.219447.7689-.468522 1.6121-.556861 2.4108-.08834.7988-.01335 1.5286.344241 2.1095.357595.5808 1.027285 1.0649 2.288196 1.317 1.6713306.3342 3.3853516-.074 4.6270156-1.1273s2.031962-2.7287 1.852831-5.056c-.322615-4.1915-3.465043-6.8028-6.5912186-6.9088-.109183 0-.237167 0-.364491 0z" fill="none" opacity=".670498" stroke="url(#f)" stroke-width=".340172"/><g stroke-linecap="round" stroke-width=".416682"><ellipse cx="13.578941" cy="1046.2959" fill="url(#g)" rx="1.342757" ry="1.326493" stroke="#4e9a06"/><ellipse cx="10.000922" cy="1048.1011" fill="url(#h)" rx="1.342757" ry="1.326493" stroke="#a40000"/><ellipse cx="13.969272" cy="1042.604" fill="url(#i)" rx="1.342757" ry="1.326493" stroke="#204a87"/></g></g><path d="m14.907324 46.764686c.446933-.01722.766997-.428337.7998-.906844.309361-4.512206.648331-8.295569.648331-8.295569.02819-.09669-.0656-.193389-.187596-.193389h-13.4292094s-.7229411 8.543648-.7229411 8.543648c-.044758.383705-.1820745.705124-.6055388.853202l13.4971543-.0011z" display="block" fill="url(#j)" stroke="#3465a4" stroke-linejoin="round" stroke-width=".390712"/><path d="m3.1221776 37.760073 12.8118624.025322-.614998 7.815005c-.03294.418652-.176085.55802-.731668.55802-.731218 0-11.204815-.01266-12.2662901-.01266.09127-.125344.1304022-.386266.130926-.392513l.6701677-7.993171z" fill="none" opacity=".465909" stroke="url(#k)" stroke-linecap="round" stroke-width=".390711"/></g></svg>