<svg height="16" viewBox="0 0 16 16" width="16" xmlns="http://www.w3.org/2000/svg" xmlns:xlink="http://www.w3.org/1999/xlink"><linearGradient id="a" gradientTransform="matrix(.97062867 0 0 1.0005381 1.218231 -.005174)" gradientUnits="userSpaceOnUse" x1="36.551838" x2="33.716503" y1="16.344336" y2="13.448302"><stop offset="0" stop-color="#2e3436"/><stop offset="1" stop-color="#a8b2b5"/></linearGradient><circle cx="4.00000024" cy="4.00001624" fill="#204a87" r="3.999999965" stroke-width=".18604651"/><g stroke="#fff" stroke-linejoin="round" transform="matrix(.18604651 0 0 .18604651 -.465116 -.4651)"><circle cx="24" cy="23.999912" fill="#3465a4" r="17.627834" stroke-opacity=".94" stroke-width="2.369333"/><path d="m21.703511 19.162781h4.592978v16.53987h-4.592978zm0-6.865607h4.592978v4.369022h-4.592978z" fill="#fff" stroke="none"/></g><g enable-background="new" transform="matrix(.65613675 0 0 .64210781 -11.471763 -3.9201)"><g fill="#888a85"><path d="m38.681414 8.0373428.440097-.543783c.235873-.2914437.643258-.3212227.913419-.066769l.504075.4747656c.270161.2544535.297766.6939299.06189.9853738l-.440097.543783c-.235873.2914438-.643258.3212227-.91342.066769l-.50407-.4747656c-.270162-.2544535-.297767-.69393-.06189-.9853738z"/><path d="m38.681414 8.0373428.440097-.543783c.235873-.2914437.643258-.3212227.913419-.066769l.504075.4747656c.270161.2544535.297766.6939299.06189.9853738l-.440097.543783c-.235873.2914438-.643258.3212227-.91342.066769l-.50407-.4747656c-.270162-.2544535-.297767-.69393-.06189-.9853738z" stroke="#babdb6" stroke-linecap="round" stroke-linejoin="round" stroke-width="1.403511"/><path d="m33.67277 19.115425 7.326227-9.3312095c.572363-.7290009.800954-1.538027.508162-1.8222937l-1.346192-1.3069873c-.292793-.2842666-.982834.0767469-1.555197.8057479l-7.326226 9.3312096z"/></g><path d="m33.67277 19.115425 5.978291-7.911993c.572362-.729.504902-1.276478.212109-1.5607447l-1.34619-1.3069874c-.292793-.2842664-.686783-.184801-1.259146.5442003l-5.97829 7.9119918z" fill="none" stroke="#fff" stroke-linecap="round" stroke-linejoin="round" stroke-width="1.383118"/><path d="m24.205697 26.338823 1.914582 1.858828.657218-.299909 6.507752-7.75157.387521-1.030747-2.393226-2.323533-.866166.566039-6.029108 8.216278z" fill="#888a85"/><path d="m24.205697 26.338823 1.914582 1.858828.657218-.299909 6.507752-7.75157.387521-1.030747-2.393226-2.323533-.866166.566039-6.029108 8.216278z" fill="#888a85" stroke="#fff" stroke-linecap="round" stroke-linejoin="round" stroke-width="1.383118"/><path d="m22.054788 29.952381c-.11883.146826-.104809.370026.03129.498216.136104.12819.343006.113066.461835-.03376l.430541-.531976-.49313-.464456-.43054.531975z" fill="#eeeeec" fill-rule="evenodd"/><path d="m22.627475 30.49765 3.40529-1.808141 1.066138-.514883 6.586163-7.714192.491918-1.300961 6.044719-7.996603c.560612-.714035.808266-1.6172315.517-2.00733l.38331-.4882124c.237108-.3019961.161079-.8150385-.168148-1.134678l-.600941-.5834413c-.329227-.3196393-.796628-.3342012-1.033735-.0322039 0 0-.234541.2987284-.38331.4882121-.386889-.2683074-1.158271.1264124-1.718882.8404483l-6.04472 7.9966012-1.09286.717521-5.985222 8.297633-.314961 1.244183z" fill="none" stroke="url(#a)" stroke-miterlimit="1" stroke-width="1.189481"/></g></svg>