<svg height="16" viewBox="0 0 16 16" width="16" xmlns="http://www.w3.org/2000/svg"><g><path d="m0 0h16v16h-16z" fill="none"/><g fill="#eeeeec"><path d="m0 3h1v1h-1z"/><path d="m12 3h1v1h-1z"/><path d="m14 3h1v1h-1z"/><path d="m0 5h1v1h-1z"/><path d="m10 3h1v1h-1z"/><path d="m2 3h1v1h-1z"/><path d="m4 3h1v1h-1z"/><path d="m6 3h1v1h-1z"/><path d="m8 3h1v1h-1z"/><path d="m0 7h1v1h-1z"/><path d="m0 9h1v1h-1z"/><path d="m2 13h1v1h-1z"/><path d="m4 13h1v1h-1z"/><path d="m6 13h1v1h-1z"/><path d="m8 13h1v1h-1z"/><path d="m10 13h1v1h-1z"/><path d="m12 13h1v1h-1z"/><path d="m14 13h1v1h-1z"/><path d="m14 11h1v1h-1z"/><path d="m14 9h1v1h-1z"/><path d="m14 7h1v1h-1z"/><path d="m14 5h1v1h-1z"/></g><path d="m2 5h11v7h-11z" fill="#d3d7cf"/><path d="m0 11h1v1h-1z" fill="#eeeeec"/><path d="m0 13h1v1h-1z" fill="#eeeeec"/></g><g fill="#2e3436"><path d="m3 3h1v1h-1z"/><path d="m1 3h1v1h-1z"/><path d="m5 3h1v1h-1z"/><path d="m7 3h1v1h-1z"/><path d="m9 3h1v1h-1z"/><path d="m11 3h1v1h-1z"/><path d="m13 3h1v1h-1z"/><path d="m0 12h1v1h-1z"/><path d="m0 10h1v1h-1z"/><path d="m0 8h1v1h-1z"/><path d="m0 6h1v1h-1z"/><path d="m0 4h1v1h-1z"/><path d="m1 13h1v1h-1z"/><path d="m3 13h1v1h-1z"/><path d="m5 13h1v1h-1z"/><path d="m7 13h1v1h-1z"/><path d="m9 13h1v1h-1z"/><path d="m11 13h1v1h-1z"/><path d="m13 13h1v1h-1z"/><path d="m14 12h1v1h-1z"/><path d="m14 10h1v1h-1z"/><path d="m14 8h1v1h-1z"/><path d="m14 6h1v1h-1z"/><path d="m14 4h1v1h-1z"/></g></svg>