<svg height="16" viewBox="0 0 16 16" width="16" xmlns="http://www.w3.org/2000/svg"><g><path d="m.047201.047177h15.905598v15.905598h-15.905598z" opacity="0" stroke="#fff" stroke-linecap="round" stroke-width=".094402"/><g transform="matrix(1.0009658 0 0 1.0009658 -2.367722 -1039.63569)"><path d="m13.512505 1053.3608c-3.185533 1.0493-6.8258103.3057-9.342546-1.9413-.5456806-.4986-1.0858591-1.0291-1.488156-1.6635l.8400536-.847c.4649998.2717 1.0650827 1.2592 1.612741 1.6195 2.0930347 1.8216 5.3920354 2.4929 8.0037264 1.6002 1.473754-.4774 3.13982-1.7545 4.092992-3.0243l.847175.764c.106443.4437-.591256.872-.878777 1.2458-1.053773 1.0191-2.320476 1.8007-3.687209 2.2466z" fill="#8f5902" stroke="#555753" stroke-width=".497587"/><g transform="matrix(1.0975851 0 0 1.0975851 .765926 -100.15296)"><path d="m546.13456 641.57278c32.90423-1.65692 65.81713-6.0759 98.74713-5.00418 33.81992 12.16959 17.80527 55.902 31.67463 81.83714 6.85538 10.42704 24.06984 23.57012-.0227 20.95656-20.99463 1.41288-42.40919 5.27268-63.23432 5.28901-24.06791-5.60432-35.01981-29.86591-34.60761-52.79944 4.41465-28.82039-35.2915-21.52829-26.32877 4.82486m0 0c-.8545 32.77588-50.0158 38.92446-33.60315 74.21997 3.78635 41.28478 9.84488 82.55606 12.68333 123.8112-9.60886 4.22038-25.1484 11.99079-35.25404 8.64702h-.00004c-15.7679-53.47957-28.24281-107.95455-44.99479-161.11102-36.24867-22.2979-76.12765-39.51059-113.94663-59.4966-24.35472-7.58225-47.09917-33.88114-72.97927-27.18502-51.52847 15.99902-102.52748 33.71106-154.15805 49.35514-15.744727-18.14205-16.794205-41.63351 11.12899-45.96895 34.13784-17.19117 68.38714-34.16006 102.58046-51.24055 28.10727-44.45355 47.95606-96.17866 47.79381-149.30813-19.35451-13.31324-43.32186 65.88469-69.07218 36.02309-36.24961-12.69011 20.92844-69.92519 25.21831-94.23465 13.38839-17.87279 11.22339-63.23791 28.60242-64.50902 9.11614 33.60058 50.26314 34.1921 68.4794 61.2358 31.11958 32.46346 46.93885 78.40907 39.63815 123.07909-9.74107 35.07813 55.72196 58.52025 55.72196 58.52025s85.83781 43.47875 125.93296 63.05843" fill="#fcaf3e" stroke="#555753" stroke-width="12.417515" transform="matrix(.02057544 -.01030171 .01086997 .02171042 -6.308771 1033.6431)"/><path d="m709.49084 1263.1178h1.961664v2.437345h-1.961664z" fill="#ef2929" stroke="#505050" stroke-linecap="round" stroke-linejoin="round" stroke-width=".284794" transform="matrix(.99992172 -.01251237 -.55485061 .83195 0 0)"/><g fill="#2e3436"><path d="m7.0595945 1040.0936c.3486257.8444.6375587.6227.6151222 1.0209-.078001 1.3855-1.0349723.2168-1.7054994-1.1224-.6705554-1.3393-2.730283-.9161-1.68976-1.437 1.0405227-.521 2.1096099.1993 2.7801372 1.5385z"/><path d="m12.518048 1041.7908c.620957-.4619.905313-1.1525 1.511891-1.0637.553128.081.665859 1.0069 1.006875 1.3189.341058.312-.04248-.099.570817.3788.707623.5508.538905.037-1.207549.9794-.813244.4387-2.542254-1.1224-1.882034-1.6134z"/></g></g></g></g></svg>