<svg height="16" viewBox="0 0 16 16" width="16" xmlns="http://www.w3.org/2000/svg" xmlns:xlink="http://www.w3.org/1999/xlink"><linearGradient id="a" gradientTransform="matrix(.952387 0 0 1.018339 1.142599 -1.941627)" gradientUnits="userSpaceOnUse" x1="25.861118" x2="18.300278" y1="26.133587" y2="19.567596"><stop offset="0" stop-color="#c3c6c0"/><stop offset="1" stop-color="#e8eae6"/></linearGradient><linearGradient id="b" gradientTransform="matrix(.952387 0 0 1.018339 1.142599 -1.941627)" gradientUnits="userSpaceOnUse" x1=".001214" x2="47.998764" y1="24.012266" y2="24.012266"><stop offset="0" stop-color="#a9aaa7"/><stop offset="1" stop-color="#676964"/></linearGradient><radialGradient id="c" cx="23.994133" cy="32.266911" gradientTransform="matrix(1.768625 0 0 1.387102 -18.44248 -15.29268)" gradientUnits="userSpaceOnUse" r="19.088932"><stop offset="0" stop-color="#5187d6"/><stop offset="1" stop-color="#1e4580"/></radialGradient><linearGradient id="d" gradientTransform="matrix(.952387 0 0 1.015657 1.142599 -.876325)" gradientUnits="userSpaceOnUse" x1="20.338758" x2="46.092255" xlink:href="#e" y1="19.636894" y2="39.708324"/><linearGradient id="e"><stop offset="0" stop-color="#fff"/><stop offset="1" stop-color="#fff" stop-opacity="0"/></linearGradient><linearGradient id="f" gradientUnits="userSpaceOnUse" x1="35.694206" x2="15.044075" xlink:href="#e" y1="37.333858" y2="5.958857"/><linearGradient id="g" gradientTransform="matrix(.45949087 .45589994 -.45949087 .45589994 121.58064 -71.627847)" gradientUnits="userSpaceOnUse" x1="-37.5" x2="-37.5" xlink:href="#e" y1="199.3438" y2="204.34621"/><g stroke-linecap="round" stroke-linejoin="round" transform="matrix(.26224071 0 0 .28101849 -.293696 3.674)"><rect fill="url(#a)" fill-rule="evenodd" height="41.701817" rx="4.565991" ry="4.565993" stroke="url(#b)" width="44.759838" x="1.619949" y="1.66008"/><rect fill="url(#c)" fill-rule="evenodd" height="28.954594" rx="1.694671" stroke="#173562" width="37.177864" x="5.405202" y="5.481555"/><g fill="none"><rect height="39.646549" rx="4.130333" ry="4.130334" stroke="url(#d)" width="42.894741" x="2.553669" y="2.654434"/><rect height="30.646179" opacity=".573864" rx="2.569672" stroke="url(#f)" width="39.349869" x="4.319206" y="4.635767"/></g></g><g transform="translate(1.82285 -1.2071)"><path d="m9.8343554 4.1370085-5.7138711 5.6977598v1.3240377h1.32997l5.7138647-5.7022084z" fill="#d3d7cf" fill-rule="evenodd" stroke="#888a85" stroke-width=".666669"/><path d="m9.9011892 4.516309.4607148.4765917-5.2437213 5.1942183-.0229581-.9293285z" fill="#fff"/><path d="m13.353849 2.0284512c-.656193-.653186-1.721297-.6532504-2.37749-.0000645-.300755.2994172-.465289.6878085-.490359 1.0798104l-1.1887323.5620197 2.3923513 2.3814757.579501-1.1685265c.393823-.024952.783987-.1887799 1.084735-.4881326.656187-.653186.65618-1.7133962-.000006-2.3665822z" fill="#183968" stroke="#2e3436" stroke-linecap="round" stroke-linejoin="round" stroke-width=".666669"/><path d="m12.910907 2.4559782c-.45293-.4493837-1.034368-.4025111-1.457094.016892-.19375.1922614-.237119.7317153-.24478.9918678l-.624261.330365.962049.9545373.347341-.6050883c.262195-.00761.777196-.022179.970939-.214376.422726-.4194678.498729-1.0248141.04581-1.4741978z" fill="none" opacity=".589958" stroke="url(#g)" stroke-linecap="round" stroke-width=".666669"/><path d="m7.615798 6.769288-3.1703916 3.1319529v.9409331h.8863521l4.0819436-4.072886z" fill="#3465a4" fill-rule="evenodd"/><path d="m7.6173121 6.769288h.947474l-4.1197956 4.072886v-.9431252z" fill="#729fcf"/></g></svg>