<svg height="16" viewBox="0 0 16 16" width="16" xmlns="http://www.w3.org/2000/svg"><g transform="translate(0 -1036.3622)"><path d="m.75701562 1038.7371c.48304058.4107 1.20758408.3513 1.61794238-.1313.4105581-.4834.3510346-1.2082-.1319457-1.6185-.4831785-.4107-1.2076666-.3513-1.61796329.1314-.41051924.4831-.35113809 1.2081.13196661 1.6184z" fill="#f57900" stroke="#542900" stroke-width=".70833"/><path d="m13.436609 1043.6307 2.064939-2.065.00004 10.2981h-10.2988963l2.0651111-2.0651s-4.1302012-3.5935-.697205-7.0265c3.356372-3.2355 6.7075162.7001 6.7075162.7001z" fill="#3465a4" stroke="#122439" stroke-width=".99682"/><path d="m12.089279 1043.7236c.703466.5134 1.244832 1.2257 1.244832 1.2257l1.309792-1.1919-.0017 7.2484-7.2831851-.01 1.2103166-1.2285c-1.3230551-1.236-2.5456551-2.6595-2.4020915-4.1428.072315-.7451.4060178-1.5604 1.1703227-2.3073 1.1441152-1.1184 2.7524403-1.2466 4.5402813.1895z" fill="none" opacity=".423581" stroke="#fff" stroke-linecap="square" stroke-width=".711758"/><g fill="#f57900" stroke="#542900" stroke-width=".781475"><path d="m.97341534 1043.6047c.68592786.5667 1.70187506.4699 2.26893806-.2159.5674497-.686.4702963-1.7021-.2154705-2.2689-.6859871-.5668-1.701992-.4699-2.268999.2162-.56730733.6857-.47040968 1.7017.21553144 2.2686z"/><path d="m4.9734154 1039.6047c.6859278.5667 1.701875.4699 2.268938-.2159.5674497-.686.4702963-1.7021-.2154705-2.2689-.6859871-.5668-1.701992-.4699-2.268999.2162-.5673073.6857-.4704096 1.7017.2155315 2.2686z"/></g></g></svg>