<svg height="15.999892" viewBox="0 0 16 15.999892" width="16" xmlns="http://www.w3.org/2000/svg" xmlns:xlink="http://www.w3.org/1999/xlink"><linearGradient id="a"><stop offset="0" stop-color="#fff" stop-opacity=".796078"/><stop offset="1" stop-color="#fff" stop-opacity=".215686"/></linearGradient><radialGradient id="b" cx="18.557627" cy="22.300018" gradientTransform="matrix(1.77275 0 0 1.29668 -16.3404 -6.615959)" gradientUnits="userSpaceOnUse" r="19.2292"><stop offset="0" stop-color="#857c63"/><stop offset="1" stop-color="#221f19"/></radialGradient><radialGradient id="c" cx="6.02422" cy="25.27103" gradientTransform="matrix(.916159 .09318684 -.108765 1.069309 3.253668 -3.029272)" gradientUnits="userSpaceOnUse" r="4.831029"><stop offset="0" stop-color="#5b676b"/><stop offset="1" stop-color="#141718"/></radialGradient><radialGradient id="d" cx="69.47323853507" cy="19.59787596846" gradientUnits="userSpaceOnUse" r="4.63489932523"><stop offset="0" stop-color="#fff"/><stop offset="1" stop-color="#b9b9b0"/></radialGradient><radialGradient id="e" cx="15.415101" cy="35.35651" gradientTransform="matrix(-.09389073 -1.406075 1.370264 -.09149987 18.28382 59.78933)" gradientUnits="userSpaceOnUse" r="7.579156"><stop offset="0" stop-color="#696969"/><stop offset="1"/></radialGradient><linearGradient id="f" gradientTransform="matrix(.51475824 0 0 .31892069 -1.535375 31.848689)" gradientUnits="userSpaceOnUse" x1="13.035696" x2="12.853771" xlink:href="#a" y1="32.567184" y2="46.689312"/><linearGradient id="g" gradientUnits="userSpaceOnUse" x1="5.88513051372" x2="4.87013210501" y1="44.6194557909" y2="34.7784073659"><stop offset="0" stop-color="#424242"/><stop offset="1" stop-color="#777"/></linearGradient><linearGradient id="h" gradientUnits="userSpaceOnUse" x1="28.51359" x2="17.37665" y1="28.429332" y2="30.639031"><stop offset="0"/><stop offset="1" stop-opacity="0"/></linearGradient><linearGradient id="i" gradientUnits="userSpaceOnUse" x1="14.96875" x2="39.524544" xlink:href="#a" y1="19.11068" y2="46.98568"/><linearGradient id="j" gradientUnits="userSpaceOnUse" x1="6.305153" x2="5.984629" xlink:href="#a" y1="23.362427" y2="31.57"/><linearGradient id="k" gradientTransform="matrix(-.117687 -.528197 .528197 -.117687 46.2238 49.69112)" gradientUnits="userSpaceOnUse" x1="37.017639" x2="27.753893" y1="19.239889" y2="11.182488"><stop offset="0" stop-color="#6e3d09"/><stop offset=".242424" stop-color="#ea8113"/><stop offset=".621212" stop-color="#5c3307"/><stop offset="1" stop-color="#e07c12"/></linearGradient><linearGradient id="l" gradientTransform="matrix(-.117687 -.528197 .528197 -.117687 40.56367 46.8748)" gradientUnits="userSpaceOnUse" x1="19.394735" x2="23.109329" y1="30.001329" y2="33.438831"><stop offset="0" stop-color="#bdbdbd"/><stop offset=".333333" stop-color="#e2e2e2"/><stop offset=".666667" stop-color="#a3a3a3"/><stop offset="1" stop-color="#ddd"/></linearGradient><linearGradient id="m" gradientTransform="matrix(.11984 -.445379 .445379 .11984 42.0839 34.30798)" gradientUnits="userSpaceOnUse" x1="13.236155" x2="7.752109" xlink:href="#a" y1="37.752247" y2="42.28215"/><linearGradient id="n" gradientUnits="userSpaceOnUse" x1="7.47269606452" x2="7.42946577954" y1="46.81535227009" y2="44.88621374509"><stop offset="0" stop-color="#6194cb"/><stop offset="1" stop-color="#729fcf"/></linearGradient><g transform="translate(0 -32.000108)"><path d="m.57499669 47.479335c.008516.162654.17969018.32531.34234522.32531h12.23983009c.162654 0 .316794-.162656.308278-.32531l-.365879-10.637802c-.0085-.162654-.179687-.325312-.342342-.325312h-5.1850839c-.1895174 0-.482323-.123305-.5476386-.432374l-.2388776-1.130357c-.0607435-.287436-.3446912-.405514-.507346-.405514h-5.77427186c-.16265824 0-.31679709.162655-.30828118.32531z" fill="#fff" stroke="url(#g)" stroke-linecap="round" stroke-linejoin="round" stroke-width=".390712"/><g transform="matrix(.20926196 0 0 .2163023 5.357843 30.249844)"><g stroke-miterlimit="10"><path d="m10.374369 12.467884s2.874509 5.927634 9.599242 5.760407c14.092515-.353553 16.563709-7.70495 16.917262-8.7656106.353554-1.0606602.894534-.8999979 1.019607.080267 4.596194 41.7192996-31.896931 23.8191756-33.192966 16.7135196 7.247845-2.12132 5.480078-6.187185 5.480078-6.187185z" fill="url(#b)" fill-rule="evenodd" stroke="#2e3436" stroke-width="1.287112"/><path d="m15.73779 30.066049c6.7389 1.347837 10.170691.09809 12.179175-1.452776-.53033-.68501-1.43631-1.436311-1.43631-1.436311s1.311376.247882 2.165514 1.149049c.584618.616806.638264 1.613221.510406 2.977884-.127858-.57988-.341418-.940985-.507265-1.350934-1.806268 2.187568-6.70419 2.304812-12.91152.113088z" fill="url(#h)" fill-rule="evenodd"/><path d="m36.962891 11.804688c-.559728.934477-1.401421 2.056988-2.69336 3.130859-2.627218 2.183767-7.038435 4.183821-14.269531 4.365234-4.225837.105086-6.950072-1.954556-8.623047-3.773437l-.105469 4.480468c.134812.418317.393059 1.396473-.08789 2.72461-.516639 1.426693-2.1627183 2.86654-4.9707034 3.974609.2490233.522742.4817175 1.072909 1.2402344 1.814453 1.0281233 1.005118 2.4782262 2.08191 4.177734 3.056641 3.399017 1.949462 7.804708 3.488613 11.910157 3.558594 4.105448.06998 7.837138-1.225366 10.417968-4.990235 2.383441-3.47692 3.695079-9.381018 3.003907-18.341796z" fill="none" opacity=".185393" stroke="url(#i)" stroke-width="1.287112"/><ellipse cx="6.098796" cy="27.228741" fill="url(#c)" fill-rule="evenodd" rx="4.331029" ry="6.098796" stroke="#000" stroke-width="1.287112" transform="matrix(.81098368 -.58506878 .58506878 .81098368 -14.777903 6.947129)"/><path d="m5.6289062 19.876953c-.7393622-.039616-1.5276913.351699-2.1914062 1.201172-.9338949 1.790657-.9173276 4.670873.058594 6.404297a1.0444595 1.0444595 0 0 1 .1035156.261719c.4106138 1.666083 1.4339316 2.861611 2.3964844 3.189453.9392123.319891 1.9349814-.02541 2.7675781-1.095703.9308181-1.791631.912906-4.667248-.0625-6.398438a1.0444595 1.0444595 0 0 1 -.1035159-.261719c-.2462848-.998749-.7095548-1.860092-1.2539062-2.427734s-1.1433429-.842253-1.7148438-.873047z" fill="none" opacity=".280899" stroke="url(#j)" stroke-width="1.287113" transform="matrix(.80038899 -.599481 .599481 .80038899 -13.636389 8.923838)"/><ellipse cx="4.065864" cy="23.251261" fill="#fff" fill-rule="evenodd" rx="1.767767" ry="2.12132"/><circle cx="13.611794" cy="21.837049" fill="#eeeeec" fill-rule="evenodd" r="3.181981" stroke="#888a85" stroke-width="1.287112"/><circle cx="69.473244" cy="21.837049" fill="url(#d)" fill-rule="evenodd" r="3.181981" stroke="#888a85" stroke-width=".858075" transform="matrix(1.5 0 0 1.5 -82.1682 -10.91852)"/><circle cx="23.157754" cy="22.544157" fill="#2e3436" fill-rule="evenodd" r="2.298097" stroke="#000" stroke-width="1.287112"/><circle cx="22.273862" cy="21.4834965" fill="#fff" fill-rule="evenodd" r="1.5909903" stroke-width=".9"/><circle cx="14.63954467059" cy="22.27900039887" fill="#2e3436" fill-rule="evenodd" r="1.41421442234" stroke="#000" stroke-width="1.28711341983"/><circle cx="14.09560486308" cy="21.62627662259" fill="#fff" fill-rule="evenodd" r=".97907068188" stroke-width=".553846"/></g><path d="m35.763473 35.714292 1.529018-2.59487c-2.75182-1.783078-6.107312-2.722843-8.624927-3.723707 0 0-1.392594.9569-1.392594.9569 2.411363 1.559 5.377611 3.673661 8.488503 5.361677z" fill="url(#k)" stroke="#673907" stroke-linecap="round" stroke-width="1.287113"/><path d="m42.122514 38.650724.757075-1.414085-4.890732-3.61885-.405187-.06222-.138207-.575965c-.77382.414973-1.96915 2.069575-1.748487 3.059944l.566122-.171609.279578.309163z" fill="url(#l)" stroke="#888a85" stroke-linecap="round" stroke-width="1.287113"/><path d="m47.53951 46.273923c-.394339-5.905517.0097-10.434265-4.343543-10.995857-3.508074-.452565-4.849219 4.419169-1.600654 6.572005 3.129392 2.073861 5.944197 4.423852 5.944197 4.423852z" fill="url(#e)" stroke-linecap="round" stroke-width=".2"/><circle cx="7.624999" cy="37.75" fill="#fff" opacity=".527779" r="1.25" stroke-linecap="round" transform="matrix(-.23154 -1.039181 1.039181 -.23154 5.254334 54.09927)"/><path d="m46.540795 41.779063s-.479161-2.790295-1.93816-3.254552c-.516189-.164253-.135515-.853626.402139-.583826 1.161317.58276 1.536021 3.838378 1.536021 3.838378z" fill="url(#m)" opacity=".427778" stroke-linecap="round"/><path d="m35.587145 33.172855s-2.253903-1.104854-5.391689-2.253903" style="opacity:.175258;fill:none;stroke:#fff;stroke-width:1.287113;stroke-linecap:round;stroke-linejoin:round"/></g><path d="m14.352172 47.80097c.446933-.01722.766997-.428337.7998-.906844.309361-4.512206.648332-8.295569.648332-8.295569.02819-.09669-.0656-.193389-.187597-.193389h-13.4292093s-.7229411 8.543648-.7229411 8.543648c-.044758.383705-.1820746.705124-.60553886.853202l13.49715426-.0011z" display="block" fill="url(#n)" stroke="#3465a4" stroke-linejoin="round" stroke-width=".390712"/><path d="m2.5670257 38.796357 12.8118623.02532-.614998 7.815005c-.03294.418652-.176085.55802-.731668.55802-.731218 0-11.2048149-.01266-12.26629-.01266.091269-.125344.1304022-.386266.130926-.392513z" fill="none" opacity=".465909" stroke="url(#f)" stroke-linecap="round" stroke-width=".390711"/></g></svg>