<svg height="16" viewBox="0 0 16 16" width="16" xmlns="http://www.w3.org/2000/svg" xmlns:xlink="http://www.w3.org/1999/xlink"><linearGradient id="a" gradientTransform="matrix(.02370816 0 0 .04973789 99.493835 465.57715)" gradientUnits="userSpaceOnUse" x1="211.89958" x2="268.0625" y1="239.67349" y2="266.85861"><stop offset="0" stop-color="#fff2bc"/><stop offset="1" stop-color="#83560b"/></linearGradient><linearGradient id="b" gradientUnits="userSpaceOnUse" x1="6.169424" x2="61.055695" y1="98.750153" y2="67.084892"><stop offset="0" stop-color="#3465a4"/><stop offset="1" stop-color="#babdb6" stop-opacity="0"/></linearGradient><linearGradient id="c" gradientUnits="userSpaceOnUse" x1="107.5212" x2="104.29424" y1="471.04779" y2="469.65894"><stop offset="0"/><stop offset="1" stop-color="#fff"/></linearGradient><path d="m16.377019 66.119448c-.787551 0-1.430217.661615-1.430217 1.470019v3.801627c0 .808403.643701 1.468954 1.430217 1.468954h1.698253v5.445027h-7.37255c-1.9662897 0-3.7680327 1.642337-4.0019177 3.648455l-1.668241 14.222594c-.23492 2.006118 1.181843 3.648455 3.148133 3.648455h42.2907527c1.96629 0 3.382019-1.642337 3.148134-3.648455l-1.667207-14.222594c-.235955-2.006118-2.036662-3.648455-4.002952-3.648455h-7.371517v-5.445027l1.288345-.680476c.696548-.367902.741245-1.354212.886432-2.149431l.690556-3.782339z" fill="#204a87" stroke="url(#b)" stroke-width="2.066318" transform="matrix(.23649552738 0 0 .25175870735 -.94042865935 -9.39194803853)"/><g fill-rule="evenodd" transform="matrix(1.14951215048 .39107480049 -.43111199479 1.04260881708 90.55163762822 -528.15170938468)"><g transform="matrix(.98649834 0 0 .98649834 1.389883 6.510801)"><path d="m106.2113 468.75538c-.61039 1.70786-1.38156 5.21193-1.56315 6.21749-.0806.6826.94919 1.2882 1.86834 1.05012.3107-.051.35717-.2653 1.99789-3.30545.10288-.18995 1.80193-3.33909 1.97179-4.78011.10693-.92878-1.13911-1.63641-1.92169-1.75053-.64908-.096-1.11402.00009-1.49841.35518-.23078.34812-.56037 1.30464-.85477 2.2133z" fill="url(#c)" stroke="#000" stroke-width=".405489"/><path d="m103.15313 482.09825c-.0322-.0215 1.53853-2.05478 3.21257-2.61279-.12587-4.01687.0497-3.48245.0926-3.63269-.25754-.71898-.70825-.9336-1.08383-.9336-.63314.0215-.47217.27901-.53656.36486-.26827 1.00872-.9336 2.47887-1.01945 2.73642-.27185.53655-.62955 3.02616-.7619 4.08853l.0966-.0107z" fill="url(#a)" stroke="#727069" stroke-width=".2"/></g><ellipse cx="301.03848" cy="410.25073" fill="#2e3436" rx=".242894" ry=".503181" transform="matrix(.93380871 .35777269 -.43057439 .90255509 0 0)"/><path d="m104.31784 478.30243-.039-.0161c-.0448-.0184-1.03268 3.19624-1.17947 3.79521.14175-.62905 1.03338-3.49225 1.21841-3.77915z" opacity=".75" stroke="#000" stroke-width=".099913"/></g></svg>