<svg height="16" viewBox="0 0 4.2333333 4.2333335" width="16" xmlns="http://www.w3.org/2000/svg"><g transform="translate(0 -292.76666)"><path d="m0 8.0000124v15.9999996h16v-15.9999996zm.99999999 1 14.00000001-.0000004v14z" fill="#1a1a1a" transform="matrix(.26458334 0 0 .26458334 0 290.64999)"/><path d="m3.9687501 296.73541-3.70416676-3.70417h3.70416676z" fill="#fff" fill-rule="evenodd"/><path d="m2.6458334 293.56041v.52917h-.5291667v.26458h.5291667v.52917h.2645833v-.52917h.5291667v-.26458h-.5291667v-.52917z" fill="#1a1a1a" stroke-width=".264583"/><path d="m295.67706-2.116667h.264593v1.322917h-.264593z" fill="#fff" stroke-width=".264583" transform="rotate(90)"/><path d="m0 0v16h16v-16zm1 1h14v14h-14z" fill="#505050" fill-rule="evenodd" transform="matrix(.26458334 0 0 .26458334 0 292.76666)"/></g></svg>