<svg height="16" viewBox="0 0 16 16" width="16" xmlns="http://www.w3.org/2000/svg" xmlns:xlink="http://www.w3.org/1999/xlink"><linearGradient id="a"><stop offset="0" stop-color="#a3bedd"/><stop offset="1" stop-color="#487cbc"/></linearGradient><radialGradient id="b" cx="2.96875" cy="14.025855" gradientTransform="matrix(1.7172691 -.00421756 .00228327 1.086778 -.668786 1020.4245)" gradientUnits="userSpaceOnUse" r="1.823314" xlink:href="#a"/><linearGradient id="c" gradientTransform="matrix(.75423217 0 0 .78072514 -.918956 230.74871)" gradientUnits="userSpaceOnUse" x1="3.095432" x2="19.29899" y1="1041.4088" y2="1041.4088"><stop offset="0" stop-color="#ededeb"/><stop offset="1" stop-color="#d3d6cf"/></linearGradient><radialGradient id="d" cx="2.96875" cy="14.025855" gradientTransform="matrix(1.7172691 -.00421756 .00228327 1.086778 -.668786 1018.9849)" gradientUnits="userSpaceOnUse" r="1.823314" xlink:href="#a"/><g transform="translate(0 -1036.3622)"><path d="m2.7480469 1039.0469-.078125 9.1152 5.2363281-4.2578 5.386719 6.1269.228515-9.2363z" fill="none" stroke="#000" stroke-linejoin="round" stroke-width="2" xlink:href="#e"/><path id="e" d="m2.4745151 1049.8483-.0001476-9.3119 11.0075615-1.7421-.189222 10.0607-5.3865158-4.9509z" fill="none" stroke="url(#c)" stroke-width="1.064853"/><g transform="matrix(.73931059 0 0 .69466558 10.201078 320.75165)"><ellipse cx="4.461381" cy="1033.7502" fill="url(#b)" rx="2.68324" ry="2.901102" stroke="#154384" stroke-width="1.395023"/><ellipse cx="4.558058" cy="1032.583147" fill="#adc5e1" rx="1.756718" ry="1.204291"/></g><g transform="matrix(.73931059 0 0 .69466558 -.798847 322.75165)"><ellipse cx="4.461381" cy="1033.7502" fill="url(#b)" rx="2.68324" ry="2.901102" stroke="#154384" stroke-width="1.395023"/><ellipse cx="4.558058" cy="1032.583147" fill="#adc5e1" rx="1.756718" ry="1.204291"/></g><g transform="matrix(.73931059 0 0 .69466558 4.699621 326.25167)"><ellipse cx="4.461381" cy="1033.7502" fill="url(#b)" rx="2.68324" ry="2.901102" stroke="#154384" stroke-width="1.395023"/><ellipse cx="4.558058" cy="1032.583147" fill="#adc5e1" rx="1.756718" ry="1.204291"/></g><g transform="matrix(.73931059 0 0 .69466558 -.798847 331.75165)"><ellipse cx="4.461381" cy="1033.7502" fill="url(#b)" rx="2.68324" ry="2.901102" stroke="#154384" stroke-width="1.395023"/><ellipse cx="4.558058" cy="1032.583147" fill="#adc5e1" rx="1.756718" ry="1.204291"/></g><g transform="matrix(.73931059 0 0 .69466558 10.19809 331.75172)"><ellipse cx="4.461381" cy="1032.3107" fill="url(#d)" rx="2.68324" ry="2.901102" stroke="#154384" stroke-width="1.395023"/><ellipse cx="4.558058" cy="1032.583147" fill="#adc5e1" rx="1.756718" ry="1.204291"/></g></g></svg>