<?xml version="1.0" encoding="UTF-8" standalone="no"?>
<svg
   xmlns:dc="http://purl.org/dc/elements/1.1/"
   xmlns:cc="http://creativecommons.org/ns#"
   xmlns:rdf="http://www.w3.org/1999/02/22-rdf-syntax-ns#"
   xmlns:svg="http://www.w3.org/2000/svg"
   xmlns="http://www.w3.org/2000/svg"
   xmlns:xlink="http://www.w3.org/1999/xlink"
   xmlns:sodipodi="http://sodipodi.sourceforge.net/DTD/sodipodi-0.dtd"
   xmlns:inkscape="http://www.inkscape.org/namespaces/inkscape"
   width="16"
   height="16"
   viewBox="0 0 16 16"
   id="svg30571"
   version="1.1"
   inkscape:version="0.92pre1 unknown"
   sodipodi:docname="gimp-shred.svg">
  <defs
     id="defs30573">
    <linearGradient
       inkscape:collect="always"
       id="linearGradient3948">
      <stop
         style="stop-color:#ffffff;stop-opacity:1;"
         offset="0"
         id="stop3950" />
      <stop
         style="stop-color:#ffffff;stop-opacity:0;"
         offset="1"
         id="stop3952" />
    </linearGradient>
    <linearGradient
       inkscape:collect="always"
       xlink:href="#linearGradient3948"
       id="linearGradient3954"
       x1="3.9391224"
       y1="1049.183"
       x2="4.8388853"
       y2="1049.183"
       gradientUnits="userSpaceOnUse" />
  </defs>
  <sodipodi:namedview
     id="base"
     pagecolor="#ffffff"
     bordercolor="#666666"
     borderopacity="1"
     inkscape:pageopacity="0"
     inkscape:pageshadow="2"
     inkscape:zoom="18.578851"
     inkscape:cx="10.362494"
     inkscape:cy="3.5343014"
     inkscape:document-units="px"
     inkscape:current-layer="layer1"
     showgrid="true"
     units="px"
     inkscape:snap-page="true"
     inkscape:snap-bbox="true"
     inkscape:bbox-paths="true"
     inkscape:bbox-nodes="true"
     inkscape:snap-bbox-edge-midpoints="true"
     inkscape:snap-bbox-midpoints="true"
     inkscape:object-paths="true"
     inkscape:snap-intersection-paths="true"
     inkscape:object-nodes="true"
     inkscape:snap-smooth-nodes="true"
     inkscape:snap-midpoints="true"
     inkscape:snap-object-midpoints="true"
     inkscape:snap-center="true"
     inkscape:snap-text-baseline="true"
     showborder="false"
     inkscape:window-width="1920"
     inkscape:window-height="1016"
     inkscape:window-x="0"
     inkscape:window-y="27"
     inkscape:window-maximized="1"
     inkscape:snap-global="false">
    <inkscape:grid
       type="xygrid"
       id="grid4251" />
  </sodipodi:namedview>
  <metadata
     id="metadata30576">
    <rdf:RDF>
      <cc:Work
         rdf:about="">
        <dc:format>
          image/svg+xml
        </dc:format>
        <dc:type
           rdf:resource="http://purl.org/dc/dcmitype/StillImage" />
        <dc:creator>
          <cc:Agent>
            <dc:title>Klaus Staedtler       </dc:title>
          </cc:Agent>
        </dc:creator>
        <dc:title />
      </cc:Work>
    </rdf:RDF>
  </metadata>
  <g
     inkscape:label="Layer 1"
     inkscape:groupmode="layer"
     id="layer1"
     transform="translate(0,-1036.3622)">
    <g
       id="g3947"
       transform="matrix(1,0,0,1.0003719,0,-0.3913843)">
      <rect
         y="1047.2109"
         x="6.7710395"
         height="4.4294567"
         width="0.69944388"
         id="rect4008-4"
         style="color:#000000;clip-rule:nonzero;display:inline;overflow:visible;visibility:visible;opacity:1;isolation:auto;mix-blend-mode:normal;color-interpolation:sRGB;color-interpolation-filters:linearRGB;solid-color:#000000;solid-opacity:1;fill:#ffffff;fill-opacity:1;fill-rule:nonzero;stroke:#646464;stroke-width:0.2003189;stroke-linecap:butt;stroke-linejoin:miter;stroke-miterlimit:4;stroke-dasharray:none;stroke-dashoffset:0;stroke-opacity:1;color-rendering:auto;image-rendering:auto;shape-rendering:auto;text-rendering:auto;enable-background:accumulate" />
      <g
         transform="matrix(0.99960492,0,0,1.0035879,-247.90358,552.7915)"
         id="g4010">
        <path
           sodipodi:nodetypes="ccccccccccccccccccccccccccccccccccccccccccccc"
           inkscape:connector-curvature="0"
           id="path3943"
           d="m 256.95925,493.02273 c 0.39608,-0.51651 -0.47399,-1.56201 0.37353,-1.74887 0.42803,0.38426 0.53904,1.31938 0.15358,1.84053 -0.15089,0.20292 -0.43007,0.11512 -0.52711,-0.0917 z m 1.55641,0 c 0.39608,-0.51651 -0.47399,-1.56201 0.37352,-1.74887 0.47583,0.32334 0.6329,1.13305 0.51383,1.70966 -0.0818,0.66643 -0.80333,0.80443 -0.88735,0.0392 z m 1.7381,-0.46838 c -0.59696,-0.42428 0.22988,-1.88318 0.57732,-0.91101 0.0691,0.78506 0.89179,1.36285 1.65428,1.1603 0.63996,0.15352 1.0555,-0.51283 1.06723,-1.07599 0.0537,-1.76804 0.0462,-3.64873 -0.82028,-5.24602 -0.25301,-0.51855 -0.78973,-0.80921 -1.22875,-1.15362 -0.72812,-0.36743 -0.0114,0.78524 0.0776,1.10823 0.33346,0.50416 0.14131,1.15348 -0.55155,0.98634 -3.85206,-10e-4 -7.50062,0.68306 -10.8249,-0.31115 -0.1329,-0.68865 0.66983,-1.01089 1.07978,-1.41393 0.37469,-0.16714 0.37837,-0.78378 0.84181,-0.65289 3.28838,0.004 6.57675,0.009 9.86512,0.0133 1.02783,0.46037 1.38508,1.63645 1.69413,2.62639 0.41771,1.60002 0.44065,3.32078 0.003,4.91717 -0.3713,0.75528 -1.36027,0.74761 -2.08037,0.68911 -0.51188,-0.11689 -0.8923,-0.51241 -1.35416,-0.73619 z m -11.90021,0.4249 c -0.48322,-0.83993 -0.33355,-1.85115 -0.31819,-2.77585 0.12827,-1.54174 0.27739,-3.23677 1.31835,-4.46675 0.40121,-0.46726 1.0587,-0.82168 1.67764,-0.59039 -1.55243,1.1619 -2.32806,3.14738 -2.36124,5.04713 0.006,0.9025 0.20147,2.03634 1.11918,2.4446 0.62422,0.34613 1.30813,-0.1217 0.9896,-0.8361 -0.21936,-0.81421 0.88056,-0.52375 0.82378,0.11663 0.29688,0.77496 -0.36484,1.48432 -1.14173,1.39556 -0.70293,0.0431 -1.47606,-0.007 -2.10739,-0.33483 z m 5.50362,-0.69174 c -0.318,-0.55833 0.62153,-1.51296 0.81157,-0.57909 0.12124,0.45199 0.23689,1.56143 -0.44696,1.5148 -0.30113,-0.18241 -0.31461,-0.61958 -0.36461,-0.93571 z m 1.55641,0 c -0.318,-0.55833 0.62153,-1.51296 0.81157,-0.57909 0.12125,0.45199 0.23689,1.56143 -0.44696,1.5148 -0.30113,-0.18241 -0.31461,-0.61958 -0.36461,-0.93571 z"
           style="fill:#646464;fill-opacity:1" />
        <rect
           style="color:#000000;clip-rule:nonzero;display:inline;overflow:visible;visibility:visible;opacity:1;isolation:auto;mix-blend-mode:normal;color-interpolation:sRGB;color-interpolation-filters:linearRGB;solid-color:#000000;solid-opacity:1;fill:#ffffff;fill-opacity:0.8375;fill-rule:nonzero;stroke:#9a9897;stroke-width:0.20131932;stroke-linecap:round;stroke-linejoin:round;stroke-miterlimit:4;stroke-dasharray:none;stroke-dashoffset:0;stroke-opacity:0.55416667;color-rendering:auto;image-rendering:auto;shape-rendering:auto;text-rendering:auto;enable-background:accumulate"
           id="rect3946"
           width="11.803424"
           height="1.7907897"
           x="250.10301"
           y="488.9209" />
        <path
           sodipodi:nodetypes="cc"
           style="fill:#ff0000;fill-opacity:0.8375;fill-rule:evenodd;stroke:#c80200;stroke-width:0.89506298px;stroke-linecap:butt;stroke-linejoin:miter;stroke-opacity:1"
           d="m 250.00321,488.3727 12.00303,-0.10099"
           id="path3954"
           inkscape:connector-curvature="0" />
        <g
           style="display:inline"
           id="ink_document_metadata"
           transform="matrix(0.85003821,0,0,0.41019007,240.93951,435.49635)">
          <path
             style="display:inline;fill:#eeeeec;fill-opacity:1;fill-rule:evenodd;stroke:#000000;stroke-width:0.9902969;stroke-linecap:square;stroke-linejoin:round;stroke-miterlimit:4;stroke-dashoffset:0;stroke-opacity:1;marker:none;marker-start:none;marker-mid:none;marker-end:none"
             d="m 12.510044,125.48847 -0.176327,-11.99332 h 6.859066 l 3.919466,4.00334 0.02565,7.71794"
             id="path5826"
             sodipodi:nodetypes="ccccc"
             inkscape:connector-curvature="0" />
          <path
             style="fill:#ffffff;fill-opacity:1;fill-rule:evenodd;stroke:#000000;stroke-width:1px;stroke-linecap:round;stroke-linejoin:round;stroke-opacity:1"
             d="m 19.5,113.5 3.537772,3.94625 L 19.5,117.5 Z"
             id="path5829"
             sodipodi:nodetypes="cccc"
             inkscape:connector-curvature="0" />
        </g>
      </g>
      <rect
         y="1047.5087"
         x="8.2090435"
         height="4.4294567"
         width="0.69944388"
         id="rect4008-9"
         style="color:#000000;clip-rule:nonzero;display:inline;overflow:visible;visibility:visible;opacity:1;isolation:auto;mix-blend-mode:normal;color-interpolation:sRGB;color-interpolation-filters:linearRGB;solid-color:#000000;solid-opacity:1;fill:#ffffff;fill-opacity:1;fill-rule:nonzero;stroke:#646464;stroke-width:0.2003189;stroke-linecap:butt;stroke-linejoin:miter;stroke-miterlimit:4;stroke-dasharray:none;stroke-dashoffset:0;stroke-opacity:1;color-rendering:auto;image-rendering:auto;shape-rendering:auto;text-rendering:auto;enable-background:accumulate" />
      <rect
         y="1047.8326"
         x="9.715538"
         height="4.4294567"
         width="0.69944388"
         id="rect4008-5"
         style="color:#000000;clip-rule:nonzero;display:inline;overflow:visible;visibility:visible;opacity:1;isolation:auto;mix-blend-mode:normal;color-interpolation:sRGB;color-interpolation-filters:linearRGB;solid-color:#000000;solid-opacity:1;fill:#ffffff;fill-opacity:1;fill-rule:nonzero;stroke:#646464;stroke-width:0.2003189;stroke-linecap:butt;stroke-linejoin:miter;stroke-miterlimit:4;stroke-dasharray:none;stroke-dashoffset:0;stroke-opacity:1;color-rendering:auto;image-rendering:auto;shape-rendering:auto;text-rendering:auto;enable-background:accumulate" />
      <rect
         y="1046.9683"
         x="4.0392818"
         height="4.4294567"
         width="0.69944388"
         id="rect4008"
         style="color:#000000;clip-rule:nonzero;display:inline;overflow:visible;visibility:visible;opacity:1;isolation:auto;mix-blend-mode:normal;color-interpolation:sRGB;color-interpolation-filters:linearRGB;solid-color:#000000;solid-opacity:1;fill:url(#linearGradient3954);fill-opacity:1;fill-rule:nonzero;stroke:#646464;stroke-width:0.2003189;stroke-linecap:butt;stroke-linejoin:miter;stroke-miterlimit:4;stroke-dasharray:none;stroke-dashoffset:0;stroke-opacity:1;color-rendering:auto;image-rendering:auto;shape-rendering:auto;text-rendering:auto;enable-background:accumulate" />
      <rect
         inkscape:transform-center-y="-9.7230819"
         inkscape:transform-center-x="14.257895"
         y="1047.5627"
         x="11.544853"
         height="4.4294567"
         width="0.69944388"
         id="rect4008-0"
         style="color:#000000;clip-rule:nonzero;display:inline;overflow:visible;visibility:visible;opacity:1;isolation:auto;mix-blend-mode:normal;color-interpolation:sRGB;color-interpolation-filters:linearRGB;solid-color:#000000;solid-opacity:1;fill:#ffffff;fill-opacity:1;fill-rule:nonzero;stroke:#646464;stroke-width:0.2003189;stroke-linecap:butt;stroke-linejoin:miter;stroke-miterlimit:4;stroke-dasharray:none;stroke-dashoffset:0;stroke-opacity:1;color-rendering:auto;image-rendering:auto;shape-rendering:auto;text-rendering:auto;enable-background:accumulate" />
    </g>
  </g>
</svg>
