<svg height="16" viewBox="0 0 16 15.999999" width="16" xmlns="http://www.w3.org/2000/svg" xmlns:xlink="http://www.w3.org/1999/xlink"><radialGradient id="a" cx="320" cy="57.5" gradientTransform="matrix(.50035643 0 0 .40561314 -152.61688 -13.82275)" gradientUnits="userSpaceOnUse" r="13" xlink:href="#b"/><linearGradient id="b"><stop offset="0" stop-color="#fff"/><stop offset="1" stop-color="#d3d7cf"/></linearGradient><linearGradient id="c" gradientTransform="matrix(.42857145 0 0 .4166667 -129.14285 -27.95833)" gradientUnits="userSpaceOnUse" x1="314.9375" x2="314.9375" xlink:href="#d" y1="76.337502" y2="98.224396"/><linearGradient id="d"><stop offset="0" stop-color="#babdb6"/><stop offset="1" stop-color="#555753"/></linearGradient><linearGradient id="e" gradientTransform="matrix(.42857145 0 0 .4166667 -129.14285 -22.95833)" gradientUnits="userSpaceOnUse" x1="314.9375" x2="314.9375" xlink:href="#d" y1="75.4375" y2="92.073906"/><radialGradient id="f" cx="320" cy="57.5" gradientTransform="matrix(.50035643 0 0 .40561314 -152.61688 -18.82275)" gradientUnits="userSpaceOnUse" r="13" xlink:href="#b"/><radialGradient id="g" cx="320" cy="57.5" gradientTransform="matrix(.74479232 0 0 .40561314 -230.83351 -20.82275)" gradientUnits="userSpaceOnUse" r="13"><stop offset="0" stop-color="#fff"/><stop offset="1" stop-color="#eeeeec"/></radialGradient><linearGradient id="h" gradientTransform="matrix(.51851926 0 0 .41551247 -158.42615 -22.51939)" gradientUnits="userSpaceOnUse" x1="307.62076" x2="330.49265" y1="58.927143" y2="88.158249"><stop offset="0" stop-color="#d3d7cf"/><stop offset=".29354656" stop-color="#eeeeec"/><stop offset=".58624208" stop-color="#babdb6"/><stop offset=".79022098" stop-color="#eeeeec"/><stop offset="1" stop-color="#babdb6"/></linearGradient><linearGradient id="i" gradientTransform="matrix(.51851926 0 0 .41551247 -158.42615 -22.51939)" gradientUnits="userSpaceOnUse" x1="333.5" x2="318.25" y1="94.4375" y2="53"><stop offset="0" stop-color="#888a85"/><stop offset="1" stop-color="#babdb6"/></linearGradient><path d="m.770651.770651h14.458697v14.458698h-14.458697z" fill="#babdb6" opacity="0" stroke="#babdb6" stroke-width="1.541302"/><path d="m3.50002.50000003-2 1.99999997-.00002 13h13.00002v-13l-2-1.99999997z" fill="url(#h)" stroke="url(#i)" stroke-linejoin="round"/><path d="m2.49997 14.5h11.00001l.00004-12h-11z" fill="none" opacity=".228117" stroke="#fff"/><path d="m2.50002 2.5h10.95835" fill="#d3d7cf" stroke="url(#g)" stroke-linecap="round" stroke-linejoin="round"/><path d="m4.50002 4.5h7" fill="#d3d7cf" stroke="url(#f)" stroke-linecap="round" stroke-linejoin="round"/><g enable-background="new" transform="translate(-349.99998 -172)"><path d="m356.5 178h3" fill="none" stroke="#888a85" stroke-linecap="round" stroke-linejoin="round" stroke-width="2"/><path d="m356.5 177.5h3" fill="none" stroke="#fff" stroke-linecap="round" stroke-linejoin="round"/><circle cx="316" cy="66.765625" fill="#fff" r="1.234376" transform="matrix(.81012567 0 0 .81012611 100.50029 123.41142)"/></g><path d="m3.50002 8.5h9v5h-9z" fill="none" stroke="url(#e)"/><path d="m3.50002 3.5h9v5h-9z" fill="none" stroke="url(#c)"/><path d="m4.50002 9.5h7" fill="#d3d7cf" stroke="url(#a)" stroke-linecap="round" stroke-linejoin="round"/><g enable-background="new" transform="translate(-349.99998 -167)"><path d="m356.5 178h3" fill="none" stroke="#888a85" stroke-linecap="round" stroke-linejoin="round" stroke-width="2"/><path d="m356.5 177.5h3" fill="none" stroke="#fff" stroke-linecap="round" stroke-linejoin="round"/><circle cx="316" cy="66.765625" fill="#fff" r="1.234376" transform="matrix(.81012567 0 0 .81012611 100.50029 123.41142)"/></g></svg>