<svg height="24" viewBox="0 0 24 24" width="24" xmlns="http://www.w3.org/2000/svg" xmlns:xlink="http://www.w3.org/1999/xlink"><linearGradient id="a" gradientUnits="userSpaceOnUse" x1="34.470947" x2="36.824364" y1="24.522668" y2="26.876085"><stop offset="0" stop-color="#fcaf3e"/><stop offset="1" stop-color="#ce5c00"/></linearGradient><linearGradient id="b" gradientUnits="userSpaceOnUse" x1="29.840059" x2="29.202465" y1="33.665848" y2="34.303443"><stop offset="0" stop-color="#ce5c00"/><stop offset="1" stop-color="#ce5c00"/></linearGradient><linearGradient id="c" gradientUnits="userSpaceOnUse" x1="26.379272" x2="25.485056" y1="34.389839" y2="32.714375"><stop offset="0" stop-color="#e9b96e"/><stop offset="1" stop-color="#fff"/></linearGradient><g enable-background="new" transform="matrix(.61097507 0 0 .62122742 -14.08205873479 1.67644649027)"><path d="m25.89225 30.18459 19-19c2.175049.359961 3.084719 1.732225 3.5 3.5l-19 19-4.616117.704505z" fill="url(#a)" fill-rule="evenodd" stroke="url(#b)" stroke-linejoin="round"/><path d="m26.792248 30.68459 18.49775-18.397748c1.089745.178435 1.517261.987944 2 2l-18.397748 18.49775-3.300003.900001z" fill="none" opacity=".282353" stroke="#fff" stroke-width="1.000001"/><path d="m24.549577 34.633026 1.666322-4.180309s1.199535.24536 1.932177.975089.998391 1.943828.998391 1.943828z" fill="url(#c)" fill-rule="evenodd"/><path d="m23 21.5-5.5 1.5 2-5" fill="none" stroke="#e9b96e" stroke-linecap="round" stroke-linejoin="round" transform="translate(6.39225 12.18459)"/><path d="m23.95475 33.68459-.90625 2.25 2.34375-.65625c.002-.03184 0-.06141 0-.09375 0-.802125-.645308-1.459801-1.4375-1.5z" fill-rule="evenodd"/><path d="m42.821682 13.147263c1.834152-.500531 3.885052 1.651475 3.449911 3.449919l2.195397-2.195402c1.066511-2.466563-1.132252-4.4097129-3.494714-3.494723z" fill="#ef2929" stroke="#ef2929"/><path d="m40.561976 15.25084c1.936448-.528484 4.101732 1.743706 3.642321 3.642586l2.317841-2.31801c.754457-1.595776-2.044633-4.337495-3.689625-3.689891z" fill="#babdb6" stroke="#888a85"/></g></svg>