<svg height="16" viewBox="0 0 16 16.000001" width="16" xmlns="http://www.w3.org/2000/svg" xmlns:xlink="http://www.w3.org/1999/xlink"><linearGradient id="a"><stop offset="0" stop-color="#fff"/><stop offset="1" stop-color="#fff" stop-opacity="0"/></linearGradient><linearGradient id="b" gradientTransform="matrix(.30881075 0 0 .37929014 -519.28237 881.67327)" gradientUnits="userSpaceOnUse" x1="35" x2="0" xlink:href="#a" y1="47" y2="-6"/><linearGradient id="c" gradientTransform="matrix(1.1999998 0 0 1.2 -8.299991 -5.5)" gradientUnits="userSpaceOnUse" x1="33.5" x2="44.5" xlink:href="#a" y1="27.5" y2="27.5"/><radialGradient id="d" cx="23" cy="12.811336" fx="22.305519" fy="9.10744" gradientTransform="matrix(1 0 0 .75 8 12.75)" gradientUnits="userSpaceOnUse" r="4"><stop offset="0" stop-color="#fff"/><stop offset="1" stop-color="#555753"/></radialGradient><linearGradient id="e" gradientUnits="userSpaceOnUse" x1="29.849625" x2="35.907148" xlink:href="#a" y1="20.702785" y2="26.132356"/><g transform="translate(519.39727 -881.51022)"><path d="m-518.89636 882.01115h14.05089v12.99932h-14.05089z" style="fill:#eeeeec;stroke:#888a85;stroke-width:1.001789;stroke-linecap:round;stroke-linejoin:round;stroke-dashoffset:1.96"/><path d="m-517.89272 883.0111h12.04362v10.99942h-12.04362z" style="stroke:#fff;stroke-width:1.001789;stroke-linecap:round;stroke-linejoin:round;stroke-dashoffset:1.96;fill:url(#b)"/><path d="m-516.3103 884.10958c-.60529 2.28535-.41858 4.70694-.20359 7.04404.0288.64448.0789 1.30396.3065 1.90278.005.63041-.93145.56458-.93335-.0412-.12964-.72499.12123-1.44428.0984-2.17237.0706-2.15966.15764-4.3702.84127-6.41191.11846-.37405.28457-1.225.77224-.82612.28275.38991.24732.94977.20714 1.4241-.14857 1.42338-.70753 2.81595-.47651 4.27048.11418 1.01527.12483 2.04266.18729 3.06047.073.65219-.73231.45298-.64477-.0843.12778-.4218.23385-.84614.3108-1.2853.42911-2.0188.9628-4.00696 1.37356-6.031-.1085-.42939.37153-1.03415.63007-.48347.28043.52987.021 1.14846-.13379 1.6742-.30096.94116-.65052 1.92981-.50451 2.9514.0642 1.16189.0252 2.32795.0982 3.4894-.0404.64673-1.01072.24094-.69496-.28117.13558-.6399.35633-1.25416.45109-1.90556.45444-2.03647 1.06035-4.04501 1.97042-5.87973.49337.35727.50515 1.16992.24234 1.70354-.39064 1.21185-1.13942 2.31608-1.15058 3.6544.0324.50933.13872 1.06508-.0964 1.53532-.60595.0386-.34148-.89571-.0432-1.16155.28434-.76394.44635-1.58629.79022-2.32375.17694-.33795.40311-1.01439.84106-.69704.43521.30776.17635.84343.0384 1.24843-.12145.42425-.14651.89728-.34843 1.28367-.47466.38817-.58736-.7983-.026-.66175.36213-.10138.86577.0109 1.01236.44906.18248.49542-.65345.7493-.73001.27142.17435-.41886.33823.25462.0784.37107-.2446.18253-.63183.19431-.86141-.0502-.24314-.23096-.27369-.6618-.0828-.94492.21011-.46333.12287-1.0263.33925-1.48314.23855-.39756.77511.0621.38801.38679-.66863 1.03063-.53309 2.46006-1.2434 3.46567-.28343.59566-1.02684-.018-.80999-.55799.12941-.46127.15539-.96266.25306-1.43783.21447-1.29719.52202-2.58287 1.02952-3.77357.032-.44035.62212-.94899.72074-.27433.0851.48999-.3864.71632-.50983 1.13486-.42902.77849-.88378 1.59161-.97303 2.52677-.24913.80676-.46228 1.6445-.44058 2.50792-.03.49096-.0808.9918-.2608 1.44474-.36494.32604-.84541-.22788-.75653-.67369.11572-.77213.0805-1.55853.12472-2.33828.0626-1.8514.32974-3.68695.69066-5.49108-.17285-.63882.77837-.6385.73356-.0288.14665.59105-.15163 1.15802-.29732 1.70867-.28932.83607-.66847 1.65168-.76183 2.55634-.493 1.24572-.38395 2.65391-.69408 3.95079-.20556.53436-.91906.13831-.84839-.36914-.02-1.33658-.0567-2.67487.0297-4.00988.0807-1.49248.23516-2.9781.39983-4.4611-.0697-.56728.61032-.30534.65758.083.0178.36017-.13348.71411-.29404 1.02173-.48343.83668-.86069 1.82233-.76452 2.84552-.0637.77635-.26386 1.55547-.1267 2.33707.0718.93173.21567 1.8749.0751 2.80775-.35634.44828-.80243-.22426-.82185-.64408-.31106-1.4471-.25422-2.94811-.18248-4.42235.034-1.16631.0374-2.3388.13341-3.49895.0727-.50875.53788-.69261.8908-.40581z" fill="#729fcf"/><g transform="matrix(.45819823 .02679036 -.03684147 .60401608 -523.55817 875.19653)"><rect fill="#c17d11" height="1.868961" rx="1.939125" ry=".93448" stroke="#8f5902" stroke-dashoffset="1.96" stroke-linecap="round" stroke-width="1.930128" transform="matrix(.8997453 .4364154 -.37560381 .92678033 0 0)" width="13.601209" x="40.303612" y="7.079619"/><g stroke-width="1.927989"><path d="m32.5 24.5 11.999997 6" fill="none" stroke="url(#c)" stroke-dashoffset="1.96" stroke-linecap="round"/><path d="m34.152603 25.518479c-1.009996 1.33264-2.634266 1.282064-4.284701.0075-1.629359-1.25824-2.367902-4.025979-2.367902-4.025979 1.713247 1.170566 3.49089.122618 5.01895.538741 2.014046.548469 2.357239 2.525002 1.633653 3.479738z" fill="url(#d)" fill-rule="evenodd" stroke="#2e3436"/><path d="m29.867902 25.526003c-1.629359-1.258264-2.367902-4.026003-2.367902-4.026003 1.713247 1.170566 2.97194.08388 4.5.500001-1.51895.96126-2 2-2.132098 3.526002z" fill="#3465a4" fill-rule="evenodd" stroke="#729fcf"/><path d="m29.086934 22.970488s2.241276-.331457 3.409265.126269c1.167989.457725.757615 2.020304.757615 2.020304" fill="none" stroke="url(#e)" stroke-dashoffset="1.96" stroke-linecap="round"/></g></g><path d="m-519.39728 895.51038h16v1.999851h-16z" fill="none"/></g></svg>