<svg height="16.000002" viewBox="0 0 16 16.000002" width="16" xmlns="http://www.w3.org/2000/svg" xmlns:xlink="http://www.w3.org/1999/xlink"><linearGradient id="a" gradientUnits="userSpaceOnUse" x1="5.88513051372" x2="4.87013210501" y1="44.6194557909" y2="34.7784073659"><stop offset="0" stop-color="#424242"/><stop offset="1" stop-color="#777"/></linearGradient><linearGradient id="b" gradientTransform="matrix(.57565919 0 0 .80181109 -11.284606 -20.998874)" gradientUnits="userSpaceOnUse" x1="21.115429" x2="31.886444" y1="37.647194" y2="43.398872"><stop offset="0" stop-color="#555753"/><stop offset="1" stop-color="#d3d7cf"/></linearGradient><linearGradient id="c" gradientUnits="userSpaceOnUse" x1="7.47269606452" x2="7.42946577954" y1="46.81535227009" y2="44.88621374509"><stop offset="0" stop-color="#6194cb"/><stop offset="1" stop-color="#729fcf"/></linearGradient><linearGradient id="d" gradientTransform="matrix(.51475824 0 0 .31892069 -1.535375 31.848689)" gradientUnits="userSpaceOnUse" x1="13.035696" x2="12.853771" y1="32.567184" y2="46.689312"><stop offset="0" stop-color="#fff" stop-opacity=".796078"/><stop offset="1" stop-color="#fff" stop-opacity=".215686"/></linearGradient><g transform="translate(1354.7045 -57.701769)"><path d="m.57499669 47.479335c.008516.162654.17969018.32531.34234522.32531h12.23983009c.162654 0 .316794-.162656.308278-.32531l-.365879-10.637802c-.0085-.162654-.179687-.325312-.342342-.325312h-5.1850839c-.1895174 0-.482323-.123305-.5476386-.432374l-.2388776-1.130357c-.0607435-.287436-.3446912-.405514-.507346-.405514h-5.77427186c-.16265824 0-.31679709.162655-.30828118.32531z" fill="#fff" stroke="url(#a)" stroke-linecap="round" stroke-linejoin="round" stroke-width=".390712"/><path d="m.516424 9.069076h14.967161v6.414497h-14.967161z" fill="url(#b)" stroke="#2e3436" stroke-dashoffset="1.5" stroke-linecap="square" stroke-width="1.032833" transform="matrix(0 .75000025 -.75000025 0 20.548413 31.999994)"/><path d="m14.352172 47.80097c.446933-.01722.766997-.428337.7998-.906844.309361-4.512206.648332-8.295569.648332-8.295569.02819-.09669-.0656-.193389-.187597-.193389h-13.4292093s-.7229411 8.543648-.7229411 8.543648c-.044758.383705-.1820746.705124-.60553886.853202l13.49715426-.0011z" display="block" fill="url(#c)" stroke="#3465a4" stroke-linejoin="round" stroke-width=".390712"/><path d="m2.5670257 38.796357 12.8118623.02532-.614998 7.815005c-.03294.418652-.176085.55802-.731668.55802-.731218 0-11.2048149-.01266-12.26629-.01266.091269-.125344.1304022-.386266.130926-.392513z" fill="none" opacity=".465909" stroke="url(#d)" stroke-linecap="round" stroke-width=".390711"/></g><g transform="translate(0 -31.999999)"><path d="m.57499669 47.479335c.008516.162654.17969018.32531.34234522.32531h12.23983009c.162654 0 .316794-.162656.308278-.32531l-.365879-10.637802c-.0085-.162654-.179687-.325312-.342342-.325312h-5.1850839c-.1895174 0-.482323-.123305-.5476386-.432374l-.2388776-1.130357c-.0607435-.287436-.3446912-.405514-.507346-.405514h-5.77427186c-.16265824 0-.31679709.162655-.30828118.32531z" fill="#fff" stroke="url(#a)" stroke-linecap="round" stroke-linejoin="round" stroke-width=".390712"/><path d="m.516424 9.069076h14.967161v6.414497h-14.967161z" fill="url(#b)" stroke="#2e3436" stroke-dashoffset="1.5" stroke-linecap="square" stroke-width="1.032833" transform="matrix(0 .75000025 -.75000025 0 20.548413 31.999994)"/><path d="m14.352172 47.80097c.446933-.01722.766997-.428337.7998-.906844.309361-4.512206.648332-8.295569.648332-8.295569.02819-.09669-.0656-.193389-.187597-.193389h-13.4292093s-.7229411 8.543648-.7229411 8.543648c-.044758.383705-.1820746.705124-.60553886.853202l13.49715426-.0011z" display="block" fill="url(#c)" stroke="#3465a4" stroke-linejoin="round" stroke-width=".390712"/><path d="m2.5670257 38.796357 12.8118623.02532-.614998 7.815005c-.03294.418652-.176085.55802-.731668.55802-.731218 0-11.2048149-.01266-12.26629-.01266.091269-.125344.1304022-.386266.130926-.392513z" fill="none" opacity=".465909" stroke="url(#d)" stroke-linecap="round" stroke-width=".390711"/></g></svg>