<svg height="16" width="16" xmlns="http://www.w3.org/2000/svg" xmlns:xlink="http://www.w3.org/1999/xlink"><linearGradient id="a" gradientTransform="matrix(.51166 0 0 .475019 3.220846 5.837432)" gradientUnits="userSpaceOnUse" x1="34.197105" x2="17.160702" y1="33.725819" y2="17.396523"><stop offset="0" stop-color="#d3d7cf"/><stop offset="1" stop-color="#eeeeec"/></linearGradient><linearGradient id="b" gradientTransform="matrix(.462962 0 0 .466802 21.0145 5.928547)" gradientUnits="userSpaceOnUse" x1="-11.986486" x2="-11.986486" y1="13.122552" y2="29.726542"><stop offset="0" stop-color="#555753"/><stop offset="1" stop-color="#fcaf3e"/></linearGradient><radialGradient id="c" cx="-6.007017" cy="32.837029" gradientTransform="matrix(.462962 0 0 .44272 14.86446 6.713194)" gradientUnits="userSpaceOnUse" r="9.90625"><stop offset="0" stop-color="#fce94f"/><stop offset="1" stop-color="#fce94f" stop-opacity="0"/></radialGradient><linearGradient id="d" gradientTransform="matrix(.462962 0 0 .461866 4.347921 5.985305)" gradientUnits="userSpaceOnUse" x1="25.355263" x2="25.355263" y1="34.006802" y2="32.409008"><stop offset="0" stop-color="#2e3436"/><stop offset="1" stop-color="#2e3436" stop-opacity="0"/></linearGradient><linearGradient id="e" gradientTransform="matrix(.34401996 0 0 .35668095 17.523358 1.581702)" gradientUnits="userSpaceOnUse" x1="22.175976" x2="22.065331" y1="36.987999" y2="32.050499"><stop offset="0" stop-color="#6194cb"/><stop offset="1" stop-color="#729fcf"/></linearGradient><linearGradient id="f" gradientTransform="matrix(.4890371 0 0 .24548263 -.385268 2.043389)" gradientUnits="userSpaceOnUse" x1="19.116116" x2="19.426924" y1="28.946041" y2="51.912693"><stop offset="0" stop-color="#fff" stop-opacity=".6"/><stop offset="1" stop-color="#fff" stop-opacity="0"/></linearGradient><path d="m4.6200285 38.651015c.041808.420455.4973856.840909.9111553.840909h31.1361622c.41377 0 .785732-.420454.743924-.840909l-2.696617-27.119287c-.041808-.420454-.497386-.840908-.911155-.840908h-12.723416c-.590546 0-1.209083-.379552-1.402861-.9603351l-1.103002-3.3058764c-.169252-.5072777-.54715-.7357947-1.314473-.7357947h-14.9373272c-.4137696 0-.7857312.4204542-.7439232.8409082l3.0415329 32.121293z" fill="#fff" stroke="#5a5a5a" stroke-linecap="round" stroke-linejoin="round" stroke-width=".994871" transform="matrix(.34948692662 0 0 .34995279971 -.64483562925 2.00448292448)"/><path d="m-.268442-.000475h16v16h-16z" opacity="0"/><g transform="matrix(.52173881 0 0 .52173881 1.16493636168 -2.81375516578)"><rect fill="url(#a)" height="19.00001" rx="1.822914" ry="1.818598" stroke="#8a8a8a" stroke-linecap="round" stroke-linejoin="round" stroke-width=".999999" width="22.000015" x="4.500001" y="7.499998"/><rect fill="url(#b)" height="11.203236" rx=".202546" ry=".202066" stroke="#888a85" stroke-linecap="round" stroke-linejoin="round" stroke-width=".999999" width="16.216183" x="7.357145" y="11.296763"/><path d="m11.79411 16.401215c-2.392951.151471-4.296871 2.150075-4.296871 4.575364 0 .09366.00889.181964.014468.274234h9.143509c.0056-.09227.01447-.180574.01447-.274234 0-2.523879-2.056354-4.575364-4.586223-4.575364-.09882 0-.192077-.0062-.289351 0z" fill="url(#c)" fill-rule="evenodd"/><path d="m7.588659 21.226898h15.740722v.923733h-15.740722z" fill="url(#d)"/><rect fill="none" height="16.99999" rx="1.42609" ry="1.422712" stroke="#fff" stroke-linecap="round" stroke-linejoin="round" stroke-width=".999999" width="20.000008" x="5.500004" y="8.499998"/><g fill-rule="evenodd"><path d="m18.031043 21.675958s-.257213-1.424098-.257213-2.296525c.0071-.39799 3.604954-3.498458 3.614237-3.960285l-.836462.727219-.585726-1.589717 1.974613.204118.925925-.923733-1.048689.768044-.360661-.08165-.4425-1.610129.22506 1.569306-1.63441-.08165.511509 1.29875-1.416971-1.400809 1.498813 1.949752c.000037.43486-2.954107 3.089518-2.949079 2.631777l-1.225207-1.639426-.102301-2.216308.925925-.263924.811179-1.99555-1.069313 1.844378-.834796-.03774-1.868696-1.574507-2.565841-.979767 2.192051 1.201894-1.757172.155689h2.314813l1.388887 1.385599.163681 2.393383-2.478493-2.393383 1.042268 1.250322-1.505231 1.05901 1.653439-.923733 2.615524 3.286696-.1023 2.242895h1.183137z"/><path d="m11.925565 18.563623c-1.305803.08266-2.344749 1.17327-2.344749 2.49672 0 .05111.00485.0993.00789.149646h4.989498c.003-.05035.0079-.09854.0079-.149646 0-1.377249-1.122129-2.49672-2.502647-2.49672-.05393 0-.104814-.0034-.157896 0z" fill="#fef39e"/><path d="m11.963041 19.163267c-.995873.06304-1.788226.894796-1.788226 1.904128 0 .03898.0037.07573.006.114127h3.805249c.0023-.0384.006-.07515.006-.114127 0-1.050362-.855793-1.904128-1.908647-1.904128-.04113 0-.07994-.0026-.12042 0z" fill="#fffbd7" fill-opacity=".556818"/></g></g><g stroke-width=".347926"><path d="m1.6026734 15.675961c.035586.0738.1067584.147586.2135167.147586h11.4587719c.07118 0 .179291-.04408.243626-.09225.182469-.136631.225285-.2137.307135-.339704.842204-1.296556 1.997085-6.7269145 1.997085-6.7269145.03559-.073792-.03559-.1475832-.142345-.1475832h-12.0144292c-.1067584 0-.569685 5.6208557-1.6729686 6.7304497l-.4259778.428414h.035586z" display="block" fill="url(#e)" stroke="#3465a4" stroke-linejoin="round"/><path d="m15.377754 8.9135901h-11.4071752s-.7388682 5.5902439-1.6245558 6.3652799c2.7938126 0 10.861113-.01697 10.867931-.01697.602605 0 1.688326-4.40956 2.1638-6.3483078z" fill="none" opacity=".522727" stroke="url(#f)" stroke-linecap="round"/></g></svg>