<svg height="16" viewBox="0 0 16 16" width="16" xmlns="http://www.w3.org/2000/svg" xmlns:xlink="http://www.w3.org/1999/xlink"><linearGradient id="a" gradientTransform="matrix(.580111 0 0 .529015 -11.37627 -7.683753)" gradientUnits="userSpaceOnUse" x1="30.935923" x2="30.935923" y1="44.293907" y2="-11.761294"><stop offset="0" stop-color="#8ae234"/><stop offset="1" stop-color="#4e9a06"/></linearGradient><linearGradient id="b" gradientUnits="userSpaceOnUse" x1=".441942" x2="18.119612" y1="-1.721864" y2="22.408155"><stop offset="0" stop-color="#eeeeec"/><stop offset="1" stop-color="#eeeeec" stop-opacity="0"/></linearGradient><g fill="url(#a)" stroke-dashoffset="1.5" stroke-linecap="square" stroke-width=".999999" transform="matrix(1.0007265 0 0 1.0009139 -.011671 -.015821)"><path d="m9.087845.51597742c-.5801115 0-2.0303895.30048037-2.0303895 1.32253698 0 .5377277.4553635.6094127.4425445 1.6614856h-4v4c-1 0-1.4015319-1-2-1-1 0-1 1.5-.98398901 2.009229.03114013.990411-.1367758 2.986501.98398901 2.990771.5 0 1-1 2-1v5l3.974135-.0099c0-1.322515-.974135-.931554-.974135-1.9901 0-.793522 1.1298329-1 2-1 1.414485 0 2-.05855 2 1 0 .650543-1 .941971-1 2h6v-5.051998c-1 .051998-1.33744 1.051998-2 1.051998-.5 0-1-.5-1-2s.5-2 1-2c1 0 1 1 2 1v-5h-5c-.0207-1.2975569 1.722462-1.0562274 1.714419-1.851125 0-1.1328975-1.589654-1.13289758-3.126574-1.13289758z" stroke="#4e9a06"/><path d="m9.09375 1.4570312c-.135398 0-.5818267.067991-.8457031.1894532-.1319382.060731-.2177962.1291192-.2441407.1601562-.026344.031037-.015625.0008884-.015625.037109 0 .010174-.025957-.074396.1210938.2109375.1470511.2853339.3244293.798567.3164062 1.4570313a.92679958.92679958 0 0 1 -.9257812.9140628h-3.0742188v3.0742188a.92679958.92679958 0 0 1 -.9257812.9257812c-.8089023 0-1.4049168-.4303844-1.7441406-.7128906-.2659718-.2215017-.2577269-.2135137-.2011719-.2246094-.012556.028621-.012876.018636-.025391.064453-.069061.25283-.079669.6825148-.072266.9179687.017981.5718817-.00855 1.2782849.066406 1.7558589.016009.101999.029663.109289.050781.177735.058096-.04773.085634-.06929.1601562-.128906.3595671-.2876528.956724-.701172 1.7656263-.701172a.92679958.92679958 0 0 1 .9257812.9257812v4.074219h1.453125c-.1876334-.284468-.3046874-.675514-.3046874-1.074219 0-.418291.1785797-.837976.4316406-1.115234.2530608-.277259.5478536-.436579.8339844-.546875.5722615-.220594 1.1517746-.263672 1.6601562-.263672.6944569 0 1.2125135-.07307 1.847656.158203.317572.115636.670828.382742.855469.726562.184641.343821.222656.690948.222656 1.041016 0 .400055-.165761.74369-.320312.966797-.03393.04898-.05708.06539-.08984.107422h3.558594v-2.541016c-.257827.204572-.57779.392578-1.074219.392578-.558902 0-1.164039-.356081-1.482422-.886719-.318387-.530637-.443363-1.186095-.443363-2.039062 0-.8529674.124976-1.5084248.443359-2.0390625s.92352-.8867187 1.482422-.8867187c.428887 0 .784773.1453212 1.074219.3203124v-2.46875h-4.074219a.92679958.92679958 0 0 1 -.9257812-.9101562c-.0084867-.5318463.2072651-1.0502609.5097652-1.3730469.29296-.312605.608052-.4618373.855469-.5761719-.417796-.0864248-1.1076571-.109375-1.845703-.109375z" stroke="url(#b)" stroke-linejoin="round"/></g></svg>