<?xml version="1.0" encoding="UTF-8" standalone="no"?>
<svg
   xmlns:osb="http://www.openswatchbook.org/uri/2009/osb"
   xmlns:dc="http://purl.org/dc/elements/1.1/"
   xmlns:cc="http://creativecommons.org/ns#"
   xmlns:rdf="http://www.w3.org/1999/02/22-rdf-syntax-ns#"
   xmlns:svg="http://www.w3.org/2000/svg"
   xmlns="http://www.w3.org/2000/svg"
   xmlns:xlink="http://www.w3.org/1999/xlink"
   xmlns:sodipodi="http://sodipodi.sourceforge.net/DTD/sodipodi-0.dtd"
   xmlns:inkscape="http://www.inkscape.org/namespaces/inkscape"
   version="1.1"
   width="16.000446"
   height="16.000025"
   id="svg2"
   viewBox="0 0 16.000446 16.000025"
   inkscape:version="0.91 r13725"
   sodipodi:docname="gimp-warning.svg">
  <sodipodi:namedview
     pagecolor="#ffffff"
     bordercolor="#666666"
     borderopacity="1"
     objecttolerance="10"
     gridtolerance="10"
     guidetolerance="10"
     inkscape:pageopacity="0"
     inkscape:pageshadow="2"
     inkscape:window-width="640"
     inkscape:window-height="480"
     id="namedview1700"
     showgrid="false"
     inkscape:zoom="14.749977"
     inkscape:cx="-367.08897"
     inkscape:cy="99.999994"
     inkscape:window-x="0"
     inkscape:window-y="27"
     inkscape:window-maximized="0"
     inkscape:current-layer="svg2" />
  <metadata
     id="metadata90">
    <rdf:RDF>
      <cc:Work>
        <dc:format>image/svg+xml</dc:format>
        <dc:type
           rdf:resource="http://purl.org/dc/dcmitype/StillImage" />
        <dc:title>Gimp Color Icon Theme</dc:title>
        <dc:contributor>
          <cc:Agent>
            <dc:title>many unknown and unnamed, Andrew Chadwick, Alexandre Prokoudine, Aryeom Han, Benoit Touchette, Jakub Steiner, Jehan, Johannes Matschke, Kevin Payne, Klaus Staedtler, Marek Dvoroznak, Michael Natterer</dc:title>
          </cc:Agent>
        </dc:contributor>
        <dc:description>Enhanced, extended tango-art-libre for GIMP</dc:description>
      </cc:Work>
    </rdf:RDF>
  </metadata>
  <defs
     id="defs7386">
    <linearGradient
       gradientTransform="matrix(0,-735328.32,170712.69,0,2464326300,577972450)"
       osb:paint="solid"
       id="linearGradient19282">
      <stop
         stop-color="#b4b4b4"
         id="stop19284" />
    </linearGradient>
    <linearGradient
       osb:paint="gradient"
       x1="231.55"
       x2="320.70001"
       gradientUnits="userSpaceOnUse"
       id="linearGradient6057"
       gradientTransform="matrix(0.01502614,0,0,0.01468232,2.9686133,1037.3257)">
      <stop
         stop-color="#a11f7c"
         id="stop6053" />
      <stop
         stop-opacity="0.984"
         stop-color="#541f31"
         offset="1"
         id="stop6055" />
    </linearGradient>
    <linearGradient
       gradientTransform="translate(601.21892,446.11061)"
       gradientUnits="userSpaceOnUse"
       y2="181.60797"
       x2="324.875"
       y1="197.10638"
       x1="324.875"
       id="linearGradient8773"
       xlink:href="#linearGradient8751" />
    <linearGradient
       id="linearGradient8751">
      <stop
         id="stop8753"
         offset="0"
         style="stop-color:#b45000;stop-opacity:1;" />
      <stop
         id="stop8755"
         offset="1"
         style="stop-color:#f57900;stop-opacity:1" />
    </linearGradient>
    <linearGradient
       y2="45.930267"
       x2="30.840555"
       y1="23.197418"
       x1="30.7416"
       gradientTransform="matrix(0.7131359,0,-0.00310426,0.7398444,900.28477,610.62151)"
       gradientUnits="userSpaceOnUse"
       id="linearGradient10153"
       xlink:href="#linearGradient11223" />
    <linearGradient
       id="linearGradient11223"
       gradientUnits="userSpaceOnUse"
       x1="4.1914001"
       y1="11.1133"
       x2="47.319698"
       y2="56.052299">
      <stop
         offset="0"
         style="stop-color:#ffffff;stop-opacity:1;"
         id="stop11225" />
      <stop
         offset="1"
         style="stop-color:#ffffff;stop-opacity:0"
         id="stop11227" />
    </linearGradient>
    <linearGradient
       osb:paint="solid"
       id="linearGradient5487">
      <stop
         id="stop5485"
         offset="0"
         style="stop-color:#888a85;stop-opacity:1;" />
    </linearGradient>
  </defs>
  <g
     style="display:inline"
     transform="translate(-66.497722,-189.99994)"
     id="stock">
    <g
       transform="translate(-1.9352593,1.3196741)"
       id="gimp-warning">
      <rect
         id="rect6639-9"
         width="16"
         height="16"
         x="68.432983"
         y="188.68027"
         style="fill:none;stroke-width:0.2" />
      <g
         transform="matrix(0.73770495,0,0,0.7757716,-155.30857,51.771056)"
         style="display:inline;enable-background:new"
         id="gimp-warning-2">
        <path
           style="fill:#f57900;fill-opacity:1;fill-rule:nonzero;stroke:url(#linearGradient8773);stroke-width:1.00000024;stroke-miterlimit:4;stroke-dasharray:none;stroke-opacity:1"
           d="m 324.33756,194.52932 -8.97696,-16.82114 c -0.25803,-0.46725 -0.72492,-0.72684 -1.24489,-0.72684 -0.51997,0 -0.98926,0.31151 -1.2512,0.77876 l -8.91011,16.82114 c -0.20974,0.41533 -0.21213,0.98642 0.0461,1.40176 0.25825,0.41534 0.67335,0.623 1.19333,0.623 l 17.88707,0 c 0.51997,0 0.98904,-0.25958 1.19877,-0.67492 0.26173,-0.41534 0.26391,-0.93451 0.0579,-1.40176 z"
           id="path10109"
           inkscape:connector-curvature="0" />
        <path
           id="path10111"
           d="m 307.58389,193.60007 c -0.13568,0.22314 -0.002,0.40166 0.22282,0.40166 l 12.66409,0 c 0.22454,0 0.36003,-0.17852 0.22626,-0.40166 l -6.37109,-11.87143 c -0.13376,-0.22315 -0.3134,-0.22315 -0.40417,0 z"
           style="fill:#fcaf3e;fill-opacity:1;fill-rule:nonzero;stroke:none;stroke-miterlimit:4"
           inkscape:connector-curvature="0" />
        <path
           style="opacity:0.7;fill:none;fill-opacity:1;fill-rule:nonzero;stroke:url(#linearGradient10153);stroke-width:1.00000024;stroke-miterlimit:4;stroke-dasharray:none;stroke-opacity:1"
           d="m 322.91893,193.8044 -8.00671,-14.93763 c -0.34099,-0.6454 -0.28652,-0.85247 -0.80474,-0.85247 -0.44572,0 -0.50215,0.30157 -0.82424,0.91078 l -7.91784,14.92556 c -0.45977,0.84046 -0.73,1.14793 -0.5087,1.51785 0.2213,0.36992 0.54964,0.26139 1.59951,0.28552 l 15.56203,0 c 0.97742,0.0121 1.19759,0.0261 1.37743,-0.34382 0.2244,-0.36993 -0.0478,-0.7518 -0.47674,-1.50579 z"
           id="path1325"
           inkscape:connector-curvature="0" />
        <g
           style="fill:#121312;fill-opacity:1;fill-rule:nonzero;stroke:#000000;stroke-width:1.76948965;stroke-miterlimit:4"
           transform="matrix(0.5034939,0,0,0.4796868,302.07132,175.63768)"
           id="g10114">
          <path
             style="fill:#121312;fill-opacity:1;stroke:none"
             d="m 23.9,36.5 c -1.3,0 -2.3,-1 -2.3,-2.3 0,-1.4 0.9,-2.3 2.3,-2.3 1.4,0 2.2,0.9 2.3,2.3 0,1.3 -0.9,2.3 -2.3,2.3 z M 23.167629,29.066754 21.9,19.1 l 4,0 -1.267629,11.609518 z"
             id="path10116"
             inkscape:connector-curvature="0" />
        </g>
      </g>
    </g>
  </g>
</svg>
