<svg height="16" viewBox="0 0 7.3333333 7.3333333" width="16" xmlns="http://www.w3.org/2000/svg"><g transform="matrix(.30720108 0 0 .30556947 1.222506 1.222132)"><path d="m-.087922.050754h15.986416v16h-15.986416z" fill="#fff" opacity="0"/><path d="m.4980396.49803923h14.9163634v15.00392077h-14.9163634z" fill="none" stroke="#000" stroke-width="1.495223"/></g><path d="m2.5737344 1044.9091-1.8292142-2.0538 2.6932777-.5573z" fill="#ff4b00" transform="matrix(-.622364 -.28816572 .2819918 -.63598998 -286.27994 670.79337)"/><path d="m2.5737344 1044.9091-1.8292142-2.0538 2.6932777-.5573z" fill="#ff4b00" transform="matrix(-.622364 .28816572 .2819918 .63598998 -286.27994 -663.46004)"/><path d="m2.5737344 1044.9091-1.8292142-2.0538 2.6932777-.5573z" fill="#ff4b00" transform="matrix(.622364 -.28816572 -.2819918 -.63598998 293.61327 670.79337)"/><path d="m2.5737344 1044.9091-1.8292142-2.0538 2.6932777-.5573z" fill="#ff4b00" transform="matrix(.622364 .28816572 -.2819918 .63598998 293.61327 -663.46004)"/><g fill="#fff"><path d="m1.604167-1.604167h1.375v.458333h-1.375z" transform="rotate(90)"/><path d="m4.354167-1.604167h1.375v.458333h-1.375z" transform="rotate(90)"/><path d="m1.604167-1.604167h1.375v.458333h-1.375z" transform="matrix(0 1 -1 0 4.583333 0)"/><path d="m4.354167-1.604167h1.375v.458333h-1.375z" transform="matrix(0 1 -1 0 4.583333 0)"/><path d="m1.604167-1.604167h1.375v.458333h-1.375z" transform="matrix(-1 0 0 -1 7.333333 4.583333)"/><path d="m4.354167-1.604167h1.375v.458333h-1.375z" transform="matrix(-1 0 0 -1 7.333333 4.583333)"/><path d="m1.604167-1.604167h1.375v.458333h-1.375z" transform="matrix(-1 0 0 -1 7.333333 0)"/><path d="m4.354167-1.604167h1.375v.458333h-1.375z" transform="matrix(-1 0 0 -1 7.333333 0)"/></g></svg>