<svg height="16" viewBox="0 0 16 16" width="16" xmlns="http://www.w3.org/2000/svg"><path d="m.43657192 12.164886 1.38468978-1.081897" fill="none" stroke="#fff" stroke-width=".723603"/><g fill-rule="evenodd"><path d="m8.596961 1.0902242h-.0091c-.267013.013319-.43687.1271288-.71407.2822274-.277199.1550985-.612115.366536-.985911.6165317-.747591.4999914-1.649805 1.1518182-2.503796 1.7883949-.853993.6366433-1.659843 1.2573039-2.212446 1.6909005-.276301.2167651-.488461.3859153-.615219.4903355-.06338.051944-.08955.070324-.139172.1210022-.0062.00666-.01291.013319-.02601.029967-.0065.00799-.02709.039957-.02732.040623-.000225.0003996-.0455.140248-.04552.1405144-.00002.0001998.230031.3472236.230219.3472902.000188 0 .1856.00666.185996.00666.000396-.0001332.04002-.013319.05072-.017981.01071-.00666.01884-.00866.02471-.011987.04696-.02464.05137-.031299.07544-.047948l-.378495-.5436773c.0037 0 .0066-.00666.013-.00666.0095-.00666.04982-.017315.04943-.016649-.000396.0001332.182282.00666.182094.00666-.000188-.0000666.2302.3462248.230219.346025.000019-.0002664-.04444.1395154-.04423.1391824.000224-.0003995-.02031.029302-.02601.036627-.0114.014651-.01533.019312-.01821.021976-.02305.023308.02818-.025306.08715-.07412.117927-.097095.329555-.2649794.603513-.4799464.547914-.4298677 1.349401-1.0477979 2.198138-1.6804455.848737-.6327142 1.744613-1.2803456 2.475182-1.7689493.365284-.2442685.690971-.4489134.941688-.5891614.250716-.1403146.476327-.2017147.422719-.1990509h1.99003.0091c.194382-.00999.692572.1964537 1.06395.5515355.371379.3550152.617325.8173807.5788 1.2017641l.662043.066594c.06867-.6851907-.313261-1.3027879-.780404-1.7494371s-1.018231-.7638388-1.560809-.7348702h.01821z" fill="#fff" stroke="#000" stroke-width=".332972"/><rect fill="#d3d7cf" height="4.330658" ry=".673381" stroke="#2e3436" stroke-linecap="square" stroke-linejoin="round" stroke-width=".669343" width="1.330657" x="11.834671" y="3.234664"/><path d="m10.9 6.632433h3.2v3.2h-3.2z" fill="#edd400" stroke="#c4a000" stroke-linecap="square" stroke-linejoin="round" stroke-width=".8"/><path d="m11.666667 7.426659h1.666667v1.666667h-1.666667z" fill="#edd400"/><path d="m9.374921 15.525071v-5.151746c0-.348396 1.085963-1.3486041 1.464099-1.3486041h3.321959c.378135 0 1.4641 1.0002081 1.4641 1.3486041v5.151746" fill="#3465a4" stroke="#204a87" stroke-linecap="square" stroke-linejoin="round" stroke-width=".749842"/></g><path d="m10.357865 15.542127v-4.977243c0-.266451.552671-.8070261.847572-.8070261h2.589126c.294902 0 .847571.5405751.847571.8070261v4.977243" fill="none" stroke="#729fcf" stroke-linecap="square" stroke-linejoin="round" stroke-width=".71573"/><path d="m.156516.156516v3.2674479h1.199344v3.2451078c-.598271.2074851-1.198963.733794-1.199075 1.3309334-.0001.5973738.600804 1.1243879 1.199075 1.331883v3.2433049h-1.199344v3.268291h2.998349l-.000001-3.268291h-1.199343v-3.2433049c.598271-.2074951 1.199512-.734392 1.199612-1.331883.000112-.5977368-.600668-1.1251325-1.199612-1.3328629v-3.2431783h1.199343v-3.2674479z" fill="#fff" stroke="#000" stroke-width=".313033"/></svg>