<svg height="16" viewBox="0 0 16 16" width="16" xmlns="http://www.w3.org/2000/svg"><g stroke-linecap="round"><path d="m6.226338 1.2263h.547338v.547377h-.547338z" fill="#729fcf" stroke="#729fcf" stroke-width=".452676"/><path d="m.25 8.2506h2.499419v2.499419h-2.499419z" fill="#fff" stroke="#000" stroke-width=".5"/><circle cx="3.999654" cy="4.0003" fill="#fff" r="1.750043" stroke="#000" stroke-width=".499914"/><path d="m1.226338 6.2263h.547338v.547377h-.547338z" fill="#729fcf" stroke="#729fcf" stroke-width=".452676"/></g><g transform="translate(-8.651642 -1044.636325)"><path d="m11.070305 1058.5511s3.278731-2.3644 6.036794-5.1225c2.758064-2.758 5.840852-6.8122 5.840852-6.8122" fill="none" stroke="#000" stroke-linecap="square" stroke-width="1.5"/><g transform="translate(8.651642 8.274118)"><path d="m1.6730026 1050.835s3.8840737-2.8277 6.8670413-5.8107c2.9829681-2.9829 6.3171381-7.4353 6.3171381-7.4353" fill="none" stroke="#729fcf" stroke-linecap="square" stroke-width=".994323"/><g fill="#fff" stroke="#000" stroke-width=".2"><path d="m6.5 1042.8622h4v4h-4z"/><circle cx="1.6" cy="1050.7622" r="1.5"/><circle cx="14.4" cy="1037.9622" r="1.5"/></g></g></g><path d="m8.250048.25h2.499903v2.499903h-2.499903z" fill="#fff" stroke="#000" stroke-linecap="round" stroke-width=".500097"/></svg>