<svg height="22" viewBox="0 0 22 22" width="22" xmlns="http://www.w3.org/2000/svg"><g transform="translate(0 -1030.3622)"><path d="m0 1030.3622h22v22h-22z" opacity="0"/><path d="m2.987857 1033.3626 4.0085084-.0001c1.0559577 0 2.0033638.9899 2.0033638 2.0001v5.9992l-5.0101803.0002c-2.6167065 0-2.6877909-3.9998 0-3.9998h5.0101803" fill="none" stroke="#000" stroke-width="2.000541"/><path d="m13.000132 1031.3622v9.9999h5.259053c2.289698 0 2.351886-4.9998 0-4.9998h-5.259053" fill="none" stroke="#000" stroke-width="2.000264"/><path d="m20.198619 1047.3622v2h-17.9315256v-2z"/><g fill="#ff9753" stroke="#ff5000"><path d="m16.251425 1044.6138v.9371c0 .2406.115808.4952.278748.6736l2.397233 2.1377-2.397233 2.1381c-.16294.1783-.278748.4328-.278748.6734v.9371c.297331 0 .594662-.0001.891993-.0001.276028 0 .492667-.084.668996-.2634 1.263661-1.0055 2.527312-2.4795 3.790973-3.4851l-3.790973-3.485c-.176329-.1789-.392968-.2634-.668996-.2634-.297331 0-.594662 0-.891993 0z" stroke-width=".50285"/><path d="m5.7485906 1044.6141v.9371c0 .2407-.1159339.4951-.2790538.6733l-2.3998633 2.1376 2.3998633 2.1379c.1631193.1784.2790538.4328.2790538.6734v.9372c-.2976575 0-.5953151-.0001-.8929725-.0001-.2763301 0-.4932063-.084-.669729-.2635-1.2650471-1.0054-2.5300857-2.4794-3.79513275-3.4849l3.79513275-3.4847c.1765227-.1787.3933989-.2635.669729-.2635.2976574.0002.595315.0002.8929725.0002z" stroke-width=".503111"/></g></g></svg>