<svg height="15.999956" viewBox="0 0 16.000009 15.999956" width="16.00001" xmlns="http://www.w3.org/2000/svg" xmlns:xlink="http://www.w3.org/1999/xlink"><linearGradient id="a" gradientUnits="userSpaceOnUse" x1="732.86020551372" x2="731.84520710501" y1="256.1173337909" y2="246.2762853659"><stop offset="0" stop-color="#424242"/><stop offset="1" stop-color="#777"/></linearGradient><linearGradient id="b" gradientUnits="userSpaceOnUse" x1="734.44777106452" x2="734.40454077954" y1="258.31323027009" y2="256.38409174509"><stop offset="0" stop-color="#6194cb"/><stop offset="1" stop-color="#729fcf"/></linearGradient><linearGradient id="c" gradientTransform="matrix(.51475824 0 0 .31892069 725.4397 243.34656)" gradientUnits="userSpaceOnUse" x1="13.035696" x2="12.853771" y1="32.567184" y2="46.689312"><stop offset="0" stop-color="#fff" stop-opacity=".796078"/><stop offset="1" stop-color="#fff" stop-opacity=".215686"/></linearGradient><g transform="matrix(1.0000007 0 0 1.0043555 -.34762 -30.775163)"><path d="m.92261721 46.051608c.008516.162654.17969019.32531.34234519.32531h12.2398306c.162654 0 .316794-.162656.308278-.32531l-.36588-10.637802c-.0085-.162654-.179687-.325312-.342341-.325312h-5.1850844c-.1895174 0-.482323-.123305-.5476386-.432374l-.2388776-1.130357c-.0607435-.287436-.3446912-.405514-.507346-.405514h-5.77427184c-.16265824 0-.31679709.162655-.30828118.32531z" fill="#fff" stroke="url(#a)" stroke-linecap="round" stroke-linejoin="round" stroke-width=".390712"/><g stroke-linecap="round" transform="matrix(.81818182 0 0 .81818182 -1093.8306 -78.994661)"><path d="m1344.5 134.5h10v10h-10z" fill="#fff" stroke="#555753" stroke-dashoffset="16.199999"/><path d="m1345.256 135.2564v1.9833c.168.048.352.0875.535.0875 1.026-.0001 1.854-.8129 1.854-1.8083.001-.0864-.019-.1793-.031-.2625zm6.13 0c-.012.0831-.031.1761-.031.2625 0 .9954.829 1.8083 1.854 1.8083.183-.0001.367-.0395.535-.0875v-1.9833zm-1.886 2.5666c-1.026 0-1.855.8128-1.855 1.8082.001.9954.829 1.8083 1.855 1.8083s1.855-.8129 1.855-1.8083-.829-1.8082-1.855-1.8082zm3.709 4.1415c-1.025 0-1.854.7837-1.854 1.7791h2.389v-1.7208c-.168-.048-.352-.0583-.535-.0583z" fill="#c00" stroke="#c00" stroke-width=".512835"/><path d="m1345.72 141.8757c1.088 0 1.967.8657 1.967 1.9652h-2.534v-1.9008c.178-.053.373-.0644.567-.0644z" fill="#c00" stroke="#c00" stroke-width=".555037"/><path d="m1345.5 135.5h8v8h-8z" fill="none" opacity=".339695" stroke="#fff" stroke-dashoffset="16.199999"/></g><path d="m14.699793 46.373243c.446932-.01722.766996-.428337.7998-.906844.30936-4.512206.648331-8.295569.648331-8.295569.02819-.0967-.06561-.193389-.187596-.193389h-13.4292098s-.7229411 8.543648-.7229411 8.543648c-.044758.383705-.1820745.705124-.6055388.853202l13.4971547-.0011z" display="block" fill="url(#b)" stroke="#3465a4" stroke-linejoin="round" stroke-width=".390712"/><path d="m2.9146462 37.36863 12.8118628.02532-.614998 7.815005c-.03294.418652-.176085.55802-.731669.55802-.731217 0-11.2048144-.01266-12.2662895-.01266.09127-.125344.1304022-.386266.130926-.392513z" fill="none" opacity=".465909" stroke="url(#c)" stroke-linecap="round" stroke-width=".390711"/></g></svg>