<svg height="16" viewBox="0 0 16 16" width="16" xmlns="http://www.w3.org/2000/svg" xmlns:xlink="http://www.w3.org/1999/xlink"><linearGradient id="a" gradientTransform="matrix(.22686323 0 0 .24095398 -29.57529 893.58319)" gradientUnits="userSpaceOnUse" x1="130.60985" x2="178.60985" xlink:href="#b" y1="631.98407" y2="631.98407"/><linearGradient id="b"><stop offset="0" stop-color="#e7ce79"/><stop offset="1" stop-color="#c17d11"/></linearGradient><linearGradient id="c" gradientTransform="matrix(.22669141 0 0 .22986105 -29.550773 900.37391)" gradientUnits="userSpaceOnUse" x1="144.62708" x2="197.17973" xlink:href="#b" y1="624.2533" y2="573.35046"/><linearGradient id="d" gradientTransform="matrix(.23744748 0 0 .21059267 -31.360209 912.23049)" gradientUnits="userSpaceOnUse" x1="167.54286" x2="154.65939" y1="590.24323" y2="611.33148"><stop offset="0" stop-color="#959791"/><stop offset=".37675089" stop-color="#f8f8f8"/><stop offset="1" stop-color="#8c8c8c"/></linearGradient><linearGradient id="e" gradientTransform="matrix(.25126116 0 0 .27027758 -161.56489 116.86383)" gradientUnits="userSpaceOnUse" x1="153.37535" x2="170.88599" y1="613.88568" y2="585.52985"><stop offset="0"/><stop offset="1" stop-color="#c9c9c9"/></linearGradient><filter id="f" color-interpolation-filters="sRGB" height="1.264665" width="1.459978" x="-.229989" y="-.132332"><feGaussianBlur stdDeviation=".55985302"/></filter><g transform="translate(0 -1036.3622)"><g stroke-linejoin="round"><g stroke-linecap="square" stroke-miterlimit="0" stroke-width=".839902" transform="matrix(1.0636285 0 0 1.2239686 3.493459 1038.9468)"><path d="m5.7189725-.01339635c1.2846443-.0287939 3.7901154-.04380822 3.7901154-.04380822l1.8295871 10.59784457h-8.5623846s2.2985252-7.9357853 2.9426821-10.55403635z" fill="#3465a4" fill-rule="evenodd" stroke="#204a87"/><path d="m6.3951349.83811369 2.4341147-.01896383 1.5168114 8.91936204-6.4315572.0189638z" fill="none" stroke="#fff" stroke-opacity=".2"/></g><path d="m.071482 1044.4337h10.857036v2.857036h-10.857036z" fill="url(#a)" stroke="#000" stroke-linecap="round" stroke-width=".142964"/><path d="m2.0291412 1041.4792 6.9977012-.047 1.9033736 2.8604h-10.86043219z" fill="url(#c)" stroke="#000" stroke-linecap="round" stroke-width=".139582"/><path d="m5.648857 1036.418c-.7100844 0-1.6522736.1709-2.1176304.5597-.465359.3886-.4752677 1.2226-.4753223 1.8157.0004749.7753.3943386.5233 1.352895 1.9276l-.1069012 2.5852h2.3730834v-2.5969c.6134599-1.2292 1.2665236-1.0901 1.2675114-1.9159-.0000547-.5931.048824-1.4319-.4004932-1.8157-.449322-.384-1.183056-.5597-1.8931427-.5597z" fill="url(#d)" stroke="#000" stroke-linecap="round" stroke-width=".111809"/><path d="m.571038 1047.4332h9.857924v.357924h-9.857924z" stroke="#000" stroke-linecap="round" stroke-width=".142076"/></g><path d="m-122.37361 275.92688c-.7514.00001-2.18608.24856-2.67851.7474s-.47374 1.83181-.47379 2.59304c.00049.9951.73823.87578 1.75256 2.67808l-.14229 4.13506 2.56948-.0875.0292-4.2376c.64916-1.57758 1.63199-1.3991 1.63303-2.45883-.00005-.76123.0225-2.01275-.45297-2.50551-.47546-.49276-1.4853-.8641-2.23669-.86411z" fill="url(#e)" filter="url(#f)" transform="matrix(.68673814 0 0 .61894989 89.638545 866.43502)"/></g></svg>