<svg height="16" viewBox="0 0 4.2333333 4.2333335" width="16" xmlns="http://www.w3.org/2000/svg"><g fill-rule="evenodd" stroke-width="1.500005" transform="matrix(.66666436 0 0 .66666436 .000002 -193.765977)"><circle cx="3.175008" cy="293.82498" r="2.381258" stroke="#000" stroke-linecap="round" stroke-width=".793753"/><circle cx="3.175008" cy="293.82498" fill="#fff" r="2.381258"/><path d="m6 2-2.6660156 1.3339844-1.9960938 4.5644531 1.9960938 4.7675785 2.6660156 1.333984v-1.507812c0-.339841.2888714-.492188.484375-.492188h1.515625 1c.5539734 0 1-.446027 1-1s-.4460266-1-1-1h-2.3339844v-1h2.3339844c.5539986 0 1-.4460347 1-1 0-.5540031-.4460014-1-1-1h-2.3339844v-1h2.3378906c.5539965 0 .9999998-.4460037.9999998-1s-.4460033-1-.9999998-1h-2.0039062c-.6094117 0-1-.4921844-1-1z" transform="matrix(.39687638 0 0 .39687638 -.000003 290.64997)"/><g fill="#fff"><rect height=".396886" rx=".198438" width="1.58751" x="2.381251" y="293.03122"/><rect height=".397247" rx=".198624" width="1.193509" x="2.381251" y="294.2215"/></g></g></svg>