<svg height="15.999925" viewBox="0 0 16.000048 15.999924" width="16.000048" xmlns="http://www.w3.org/2000/svg" xmlns:xlink="http://www.w3.org/1999/xlink"><linearGradient id="a"><stop offset="0" stop-color="#fff" stop-opacity=".796078"/><stop offset="1" stop-color="#fff" stop-opacity=".215686"/></linearGradient><linearGradient id="b"><stop offset="0" stop-color="#aaa"/><stop offset="1" stop-color="#cdcdcd"/></linearGradient><linearGradient id="c" gradientUnits="userSpaceOnUse" x1="1597.029621" x2="1625.608071" y1="373.496686" y2="385.959445"><stop offset="0" stop-color="#bbb"/><stop offset="1" stop-color="#9f9f9f"/></linearGradient><radialGradient id="d" cx="15.571491" cy="2.958519" gradientTransform="matrix(1.286242 .781698 -.710782 1.169552 1587.0706 340.13861)" gradientUnits="userSpaceOnUse" r="20.935818"><stop offset="0" stop-color="#e4e4e4"/><stop offset="1" stop-color="#d3d3d3"/></radialGradient><linearGradient id="e" gradientUnits="userSpaceOnUse" x1="1601.803357" x2="1633.5211" xlink:href="#a" y1="349.448646" y2="392.636146"/><linearGradient id="f" gradientUnits="userSpaceOnUse" x1="1617.89375" x2="1609.425" xlink:href="#b" y1="364.46001" y2="362.71001"/><linearGradient id="g" gradientTransform="translate(1589.425 336.33501)" gradientUnits="userSpaceOnUse" x1="26.3125" x2="23.0625" xlink:href="#b"/><linearGradient id="h" gradientUnits="userSpaceOnUse" x1="1610.482631" x2="1615.71111" xlink:href="#a" y1="339.397506" y2="366.522506"/><g transform="matrix(.36479414 0 0 .3663165 -.83381 -.125921)"><path d="m9.28569 22.018085c-.625 0-1.031249.29018-1.281248.843753-.000001 0-4.4687505 11.103564-4.4687505 11.103564s-.25.671559-.25 1.78125v5.649968c0 1.082613.6577855 1.625002 1.65625 1.625h38.5624985c.984853 0 1.59375-.71818 1.59375-1.84375v-5.649968s.105963-.770423-.09375-1.3125l-4.71875-11.197313c-.184525-.511907-.636905-.988098-1.125-1.000004z" fill="none" stroke="#535353" stroke-linecap="round" stroke-linejoin="round" stroke-width="2"/><path d="m3.2735915 35.052276.7646021-.692215 37.6096894.0625 3.462407.317298v6.438532c0 1.125569-.607018 1.843331-1.591871 1.843331h-38.5829876c-.9984647 0-1.6618399-.542051-1.6618399-1.624664z" fill="url(#c)" fill-rule="evenodd" stroke-width="1.020443"/><path d="m24.5625 19.75c-2.624655 0-4.709751 1.051914-4.875 2.375h-.0625s-1.28125 5.1875-1.28125 5.1875c-.21875 1.09375 2.078745 3.03125 6.21875 3.03125 4.171393 0 6.5625-1.96875 6.15625-3.4375 0 0-1.1875-4.78125-1.1875-4.78125h-.0625c-.16364-1.323878-2.280486-2.374999-4.90625-2.375z" fill="none" stroke="#666" stroke-width="2"/><path d="m3.5490842 33.969868c-.7142857 1.464286-.0006156 2.392857 1.0357143 2.392857h38.9999985c1.119047-.02381 1.845238-1.011905 1.428571-2.142858l-4.714286-11.210705c-.184524-.511907-.654762-.988099-1.142857-1.000004h-29.857142c-.625 0-1.035714.303573-1.285713.857146 0 0-4.4642858 11.103564-4.4642858 11.103564z" fill="url(#d)" fill-rule="evenodd"/><path d="m44.796162 33.684152c.06352 1.249974-.414003 2.31584-1.322116 2.34375 0 0-38.1187164-.000001-38.1187163 0-1.2892319 0-1.867736-.324947-2.0840507-.868056.091761.944332.8258174 1.649306 2.0840507 1.649306-.0000001-.000001 38.1187163 0 38.1187163 0 1.076007-.03307 1.752805-1.424024 1.352164-2.994791l-.03005-.130209z" fill="#fff" fill-rule="evenodd"/><path d="m9.642515 22.47118c-.601692 0-.992791.279359-1.233466.812287-.000001 0-4.4150149 10.590729-4.4150149 10.590729s-.2406768.646515-.2406768 1.714823v5.290096c0 1.35474.4440561 1.626899 1.5944841 1.626899h37.6869046c1.323126 0 1.534316-.316397 1.534316-1.837492v-5.290096s.10201-.741691-.09025-1.263553l-4.593196-10.805982c-.177643-.492816-.550652-.82625-1.020545-.837711z" fill="none" stroke="url(#e)" stroke-linecap="round" stroke-linejoin="round"/><ellipse cx="24.57196491996" cy="28.28312296089" fill="#fff" fill-opacity=".480226" fill-rule="evenodd" rx="11.46102454635" ry="5.87028109661" stroke-width="1.581301"/><ellipse cx="24.57197180164" cy="27.15813127263" fill="#c9c9c9" fill-rule="evenodd" rx="6.18718811485" ry="3.16904769595" stroke-width=".853659"/><path d="m24.5625 1.34375c-3.659278 0-6.625 2.9657226-6.625 6.625 0 2.607559 1.559074 4.792747 3.75 5.875v8.46875.0625c0 .813967 1.285826 1.468751 2.875 1.46875 1.589174 0 2.875-.654783 2.875-1.46875v-.0625-8.4375c2.210442-1.075204 3.75-3.284395 3.75-5.90625 0-3.6592776-2.965722-6.625-6.625-6.625z" fill="none" stroke="#666" stroke-width="2"/><g fill-rule="evenodd"><path d="m29.53125 22.125s1.1875 4.78125 1.1875 4.78125c.40625 1.46875-1.984857 3.4375-6.15625 3.4375-4.140005 0-6.4375-1.9375-6.21875-3.03125 0 0 1.28125-5.1875 1.28125-5.1875z" fill="url(#f)"/><ellipse cx="24.57196492692" cy="22.28312294255" fill="#e4e4e4" rx="4.94974904231" ry="2.5352374143" stroke-width=".682927"/><path d="m24.5625 6.28125c-1.589174 0-2.874999.6547825-2.875 1.46875 0 .026864.05973.035989.0625.0625h-.0625v13.875h.0625c-.0028.02651-.0625.03564-.0625.0625 0 .813967 1.285826 1.468751 2.875 1.46875 1.589174 0 2.875-.654783 2.875-1.46875 0-.02686-.05973-.03599-.0625-.0625h.0625v-13.875h-.0625c.0028-.026511.0625-.035636.0625-.0625 0-.8139671-1.285826-1.46875-2.875-1.46875z" fill="url(#g)"/><circle cx="24.57194894917" cy="7.96094227312" fill="#3565a4" r="6.4141898477" stroke="#122439" stroke-width="1.36778523116"/></g><path d="m24.563623 2.0718822c-3.284876 0-5.943495 2.6876119-5.943495 5.9724868 0 2.312769 1.660026 4.26294 3.58867 5.247671v7.121965c-.867236.395397-2.15313 1.043191-2.16803 1.681574 0 0-1.246684 5.145245-1.246684 5.145245-.202948 1.014743 1.928587 2.812287 5.769539 2.812287 3.870072 0 6.088458-1.826537 5.711553-3.189192l-1.217691-4.855318c-.01596-.683778-1.225688-1.111895-2.201538-1.507618v-7.208943c1.928645-.984731 3.680162-2.934902 3.680163-5.247671 0-3.2848748-2.687613-5.9724868-5.972487-5.9724868z" fill="none" opacity=".525714" stroke="url(#h)"/></g></svg>