<svg height="16" viewBox="0 0 16 16" width="16" xmlns="http://www.w3.org/2000/svg"><g transform="matrix(.9995257 0 0 -1 0 1052.3622)"><path d="m0 1036.3622h16v16h-16z" fill="#fff" opacity="0"/><g fill="#eeeeec" stroke="#555753" stroke-width=".997928" transform="matrix(-.72803366 0 0 -.71948144 -65.617085 1177.3883)"><path d="m-111.4592 185.55431h17.925461v7.013995h-17.925461z" style="fill:#204a87;fill-rule:evenodd;stroke:#888a85;stroke-width:1.31484;stroke-linejoin:round;stroke-miterlimit:0"/><path d="m-110.20978 186.88789h16.723007v4.346873h-16.723007z" fill="none" stroke="#fff" stroke-linecap="round" stroke-miterlimit="2" stroke-width=".942288"/></g><g fill="#eeeeec" stroke="#555753" stroke-width=".997928" transform="matrix(-.51972681 0 0 -.48027059 -46.270168 1139.1629)"><path d="m-111.4592 185.55431h17.925461v7.013995h-17.925461z" style="fill:#204a87;fill-rule:evenodd;stroke:#888a85;stroke-width:1.31484;stroke-linejoin:round;stroke-miterlimit:0"/><path d="m-110.20978 186.88789h16.723007v4.346873h-16.723007z" fill="none" stroke="#fff" stroke-linecap="round" stroke-miterlimit="2" stroke-width=".942288"/></g><path d="m187.5 470.49991h2.000122v21h-2.000122z" fill="none" transform="matrix(-1.4999085 0 0 -.69841267 284.23284 1380.4733)"/><path d="m1 1037.8622h1v13.5h-1z" fill="#fcaf3e"/></g></svg>