<svg height="16" viewBox="0 0 16 16" width="16" xmlns="http://www.w3.org/2000/svg" xmlns:xlink="http://www.w3.org/1999/xlink"><linearGradient id="a" gradientTransform="matrix(-.0577234 0 0 .05914445 -21.962301 1036.7444)" gradientUnits="userSpaceOnUse" x1="-579.9129" x2="-601" y1="198.91855" y2="174.91855"><stop offset="0" stop-color="#302c26"/><stop offset="1" stop-color="#9f8e79"/></linearGradient><radialGradient id="b" cx="-474.00003" cy="233.41937" gradientTransform="matrix(.04201379 -.04055778 -.10281971 -.11182057 54.91223 1053.2616)" gradientUnits="userSpaceOnUse" r="64"><stop offset="0" stop-color="#ece9e4"/><stop offset="1" stop-color="#ece9e4" stop-opacity="0"/></radialGradient><radialGradient id="c" cx="-188.33328" cy="95.86953" gradientTransform="matrix(1.818824 0 0 1.818847 -11.926935 -222.95706)" gradientUnits="userSpaceOnUse" r="108.2779"><stop offset="0" stop-color="#709bd2"/><stop offset="1" stop-color="#3465a4"/></radialGradient><linearGradient id="d" gradientTransform="matrix(19.3538 0 0 19.3543 -6293.4385 -4355.62)" gradientUnits="userSpaceOnUse" x1="305.45834" x2="314.41666"><stop offset="0" stop-color="#fff" stop-opacity=".796078"/><stop offset="1" stop-color="#fff" stop-opacity=".215686"/></linearGradient><g transform="translate(0 -1036.3622)"><path d="m11.302319 1045.1729 3.971427 4.7028c.902196.9747-.575924 2.3392-1.539081 1.592l-4.7287222-4.0732c1.0512572-.3222 1.8541232-1.008 2.2963762-2.2216z" fill="url(#a)" stroke-width="3.924497"/><path d="m11.055257 1045.6163 4.127848 4.2644c.204082.1673.115441.515.115441.515l-.226221-.3375-3.983728-3.8387-.552844-.012.519504-.5914z" fill="url(#b)" opacity=".270492" stroke-width="1.999779"/><path d="m11.726762 1045.8255 3.767256 4.1391s.006 1.1619.006 1.8977c-.718775 0-1.814633-.011-1.814633-.011l-4.4430405-3.8667" fill="none" stroke="#191613" stroke-linecap="round" stroke-linejoin="round" stroke-width=".99989"/><path d="m11.652171 1047.3761 2.811169 2.9502" style="opacity:.375587;fill:none;stroke:#eeeeec;stroke-width:.99989;stroke-linecap:round;stroke-linejoin:round;stroke-dashoffset:1.6"/><g transform="matrix(-.05767719 0 0 .05767652 -10.013069 1041.2513)"><path d="m-294.97129-76.100257c62.2081 0 112.69583 50.488972 112.69583 112.698599s-50.48773 112.698598-112.69583 112.698598c-62.20809 0-112.69582-50.488971-112.69582-112.698598s50.48773-112.698599 112.69582-112.698599zm0 34.676492c-43.06714 0-78.02018 34.9539039-78.02018 78.022107 0 43.068203 34.95304 78.022108 78.02018 78.022108 43.06715 0 78.02019-34.953905 78.02019-78.022108 0-43.0682031-34.95304-78.022107-78.02019-78.022107z" fill="#3465a4" stroke="#204a87" stroke-width="17.337999"/><g fill="none"><ellipse cx="-294.97049" cy="36.598949" rx="95.37719" ry="95.378403" stroke="url(#c)" stroke-width="17.300125"/><ellipse cx="-294.97012" cy="36.596455" rx="78.019997" ry="78.022018" stroke="url(#d)" stroke-width="17.338036"/></g></g></g></svg>