<svg height="15.999741" viewBox="0 0 15.999999 15.99974" width="15.999999" xmlns="http://www.w3.org/2000/svg" xmlns:xlink="http://www.w3.org/1999/xlink"><linearGradient id="a"><stop offset="0" stop-color="#fff" stop-opacity=".796078"/><stop offset="1" stop-color="#fff" stop-opacity=".215686"/></linearGradient><linearGradient id="b"><stop offset="0" stop-color="#d3d7cf"/><stop offset="1" stop-color="#fff"/></linearGradient><linearGradient id="c" gradientUnits="userSpaceOnUse" x1="775.26063551372" x2="774.24563710501" y1="259.3044137909" y2="249.4633653659"><stop offset="0" stop-color="#424242"/><stop offset="1" stop-color="#777"/></linearGradient><linearGradient id="d" gradientUnits="userSpaceOnUse" x1="1240.6315" x2="1240.6315" xlink:href="#b" y1="357.4752" y2="356.218967"/><linearGradient id="e" gradientUnits="userSpaceOnUse" x1="776.84820106452" x2="776.80497077954" y1="261.50031027009" y2="259.57117174509"><stop offset="0" stop-color="#6194cb"/><stop offset="1" stop-color="#729fcf"/></linearGradient><linearGradient id="f" gradientTransform="matrix(.51475824 0 0 .31892069 767.84013 246.53364)" gradientUnits="userSpaceOnUse" x1="13.035696" x2="12.853771" xlink:href="#a" y1="32.567184" y2="46.689312"/><linearGradient id="g" gradientUnits="userSpaceOnUse" x1="1247.0065" x2="1247.0065" xlink:href="#b" y1="343.349729" y2="362.540351"/><linearGradient id="h" gradientUnits="userSpaceOnUse" x1="1256.354164" x2="1256.354164" y1="346.257554" y2="340.423253"><stop offset="0" stop-color="#888a85"/><stop offset="1" stop-color="#888a85"/></linearGradient><linearGradient id="i" gradientUnits="userSpaceOnUse" x1="1254.694" x2="1254.7565" xlink:href="#a" y1="346.7252" y2="370.1002"/><linearGradient id="j" gradientUnits="userSpaceOnUse" x1="1239.53775" x2="1238.5065" y1="353.224418" y2="356.9127"><stop offset="0" stop-color="#babdb6"/><stop offset="1" stop-color="#888a85"/></linearGradient><g transform="translate(-.07561 -32.832)"><path d="m.65060939 48.311075c.008516.162654.17969018.32531.34234522.32531h12.23983039c.162654 0 .316794-.162656.308278-.32531l-.365879-10.637802c-.0085-.162654-.179687-.325312-.342342-.325312h-5.1850842c-.1895174 0-.482323-.123305-.5476386-.432374l-.2388776-1.130357c-.0607435-.287436-.3446912-.405514-.507346-.405514h-5.77427186c-.16265824 0-.31679709.162655-.30828118.32531z" fill="#fff" stroke="url(#c)" stroke-linecap="round" stroke-linejoin="round" stroke-width=".390712"/><g stroke-linecap="round" transform="matrix(.62363749 0 0 .62363749 4.9145468721 32.8320001279)"><path d="m4 .5c-.827303 0-1.500001 1.12-1.5 2.5v9.5h-.03125-1.9375c-.02001.162695-.03125.3275-.03125.5 0 1.38.672698 2.5 1.5 2.5h10c.827303 0 1.5-1.12 1.5-2.5v-9.5h1.96875c.02001-.162695.03125-.3275.03125-.5 0-1.38-.672697-2.5-1.5-2.5-5.694672.124755-4.305328 0-10 0z" fill="url(#g)" fill-rule="evenodd" stroke="url(#h)" stroke-linejoin="round"/><path d="m4.28125 1.5c-.391244 0-.78125.368273-.78125 1.5v9.5h-.03125-1.9375c-.02001.162695-.03125.3275-.03125.5 0 1.38.672698 1.5 1.5 1.5h8c.827303 0 1.5-.12 1.5-1.5.000645-6.639263 0-3.423675 0-10 0-.486756.01547-.971272.455806-1.5z" fill="none" stroke="url(#i)"/><path d="m.53125 12.5c-.02001.162695-.03125.3275-.03125.5 0 1.38.672698 2.5 1.5 2.5h10c-.827304 0-1.5-1.12-1.5-2.5 0-.1725.01124-.337305.03125-.5z" fill="url(#d)" fill-rule="evenodd" stroke="url(#j)" stroke-linejoin="round" stroke-width="1.069913"/></g><path d="m14.427785 48.63271c.446932-.01722.766996-.428337.7998-.906844.30936-4.512206.648331-8.295569.648331-8.295569.02819-.0967-.0656-.193389-.187596-.193389h-13.4292096s-.7229411 8.543648-.7229411 8.543648c-.044758.383705-.1820746.705124-.60553886.853202l13.49715456-.0011z" display="block" fill="url(#e)" stroke="#3465a4" stroke-linejoin="round" stroke-width=".390712"/><path d="m2.6426384 39.628097 12.8118626.02532-.614998 7.815005c-.03294.418652-.176085.55802-.731668.55802-.731218 0-11.2048152-.01266-12.2662903-.01266.091269-.125344.1304022-.386266.130926-.392513z" fill="none" opacity=".465909" stroke="url(#f)" stroke-linecap="round" stroke-width=".390711"/></g></svg>