<svg height="12" viewBox="0 0 12 12" width="12" xmlns="http://www.w3.org/2000/svg"><g transform="translate(0 -1040.3622)"><path d="m0 0v12h12v-12zm3 3h6v6h-6z" transform="translate(0 1040.3622)"/><path d="m0 1040.3622v12h11.999999v-12zm.999995 1h.9999998v1h-.9999998zm1.9999999 0h1v1h-1zm1.9999999 0h1v1h-1zm2 0h1v1h-1zm2 0h1v1h-1zm-6 2h6v6h-6zm-1.9999998 0h.9999998v1h-.9999998zm8.9999998 1h.9999992v1h-.9999992zm-8.9999998 1h.9999998v1h-.9999998zm8.9999998 1h.9999992v1h-.9999992zm-8.9999998 1h.9999998v1h-.9999998zm8.9999998 1h.9999992v1h-.9999992zm-8 2h1v1h-1zm2 0h1v1h-1zm2 0h1v1h-1zm2 0h1v1h-1zm2 0h.9999992v1h-.9999992z" fill="#babdb6" stroke-width="1.00349"/></g></svg>