<svg height="16" viewBox="0 0 16 16" width="16" xmlns="http://www.w3.org/2000/svg" xmlns:xlink="http://www.w3.org/1999/xlink"><linearGradient id="a" gradientTransform="matrix(1.131257 0 0 1.140013 -156.2898 -36.82365)" gradientUnits="userSpaceOnUse" x1="1210.978" x2="1212.9139" y1="256.69321" y2="253.56821"><stop offset="0" stop-color="#ead7ce"/><stop offset="1" stop-color="#ead7ce" stop-opacity="0"/></linearGradient><linearGradient id="b" gradientTransform="matrix(1.131257 0 0 1.140013 -156.2898 -36.82365)" gradientUnits="userSpaceOnUse" x1="1210.978" x2="1212.9139" y1="256.69321" y2="253.56821"><stop offset="0" stop-color="#8a4a01"/><stop offset="1" stop-color="#8f5902" stop-opacity="0"/></linearGradient><g transform="matrix(.66666667 0 0 .66666667 -800 -165.33333)"><g fill-rule="evenodd"><path d="m1219.999 254.2245c-1.9 1.713-2.799 2.3176-3.299 3.6275s-.1 3.9298-.1 4.5344c0 .6045-.5 1.713-1.2 2.4183s-1.3 2.4183-3.1 2.4183-4 .2016-4.899-.403c-.8 1.2092-1.6 2.6198-2.5 2.6198s-2.046.1871-2.1-.8564c-.104-2.0233 1.8-1.3604 2.1-2.9726.14-.7543-1.6-2.4183-1.9-4.1313s-.271-2.7084.429-3.4138c.7-.7053 2.517-3.1827 3.417-3.3842s2.265-.1792 3.265-.8845c1-.7054 2.288-2.2931 2.288-2.2931" fill="url(#a)" stroke="url(#b)" stroke-linecap="round" stroke-linejoin="round"/><path d="m1219.354 253.9866c-1.732 1.3538-2.899 2.4582-3.146 3.4201s.071 5.13-.212 6.0207c-.283.8906-1.732 2.6719-2.369 2.8856-.636.2138-4.808.2138-4.666.1425.141-.0712 2.333-.57 3.464-1.3537 1.132-.7838 1.768-1.0332 2.121-3.1351.354-2.1019.495-3.135.248-4.0613-.248-.9262-.142-.9619-1.237-2.1375-1.096-1.1756-2.228-1.5319-2.016-1.8882.213-.3562.177 0 1.309.7126 1.131.7125 1.838 1.3893 3.075.8193s3.535-1.4606 3.429-1.425z" fill="#dabdac"/><path d="m1209.35 264.9949c-.919.0712-1.344.4275-1.344.4275s-.141.9263.283.9975 1.131 0 1.343-.3563c.213-.3562-.282-.9975-.282-1.0687z" fill="#ac6036"/><ellipse cx="1187.74" cy="254.66161" fill="#f6eeea" rx=".729204" ry=".640816" transform="matrix(1.103811 -.5561777 .4186871 .8438557 -210.2145 702.3399)"/><ellipse cx="1187.74" cy="254.66161" fill="#f6eeea" rx=".729204" ry=".640816" transform="matrix(1.103811 -.5561777 .4186871 .8438557 -209.0833 703.4799)"/><ellipse cx="1187.74" cy="254.66161" fill="#f6eeea" rx=".729204" ry=".640816" transform="matrix(1.103811 -.5561777 .4186871 .8438557 -207.952 704.6199)"/><path d="m1209.3 260.2703c-.15.8565-3.999 5.9451-5.399 7.3054-.469.456-.087 1.5986.6.9069 1.45-1.4611 4.249-4.5848 5.799-7.5069.316-.5961-.45-1.1084-1-.7054z" fill="#f6eeea"/><path d="m1205.251 265.2078 3.899-5.0886s-.1-1.3099-.85-.5542c-.749.7557-2.299 2.2672-2.449 2.8214s-.55 2.8718-.6 2.8214z" fill="#b78469"/><path d="m1208.1 258.8597c-1.049.9068-2.349 2.0152-2.799 2.7206-.45.7053-1.1 2.3679-1.1 2.3679s.1-2.6198.6-3.2748 2.05-2.2168 2.5-2.2168.849.4031.799.4031z" fill="#b78469"/><path d="m1207.328 257.2978c-1.05.9069-2.35 2.0153-2.8 2.7206-.45.7054-1.1 2.368-1.1 2.368s.1-2.6199.6-3.2748c.5-.655 2.05-2.2169 2.5-2.2169s.85.4031.8.4031z" fill="#b78469"/><path d="m1207.158 266.4912s3.959-4.2038 4.383-4.3463c.425-.1425 1.556-.4275 1.556.4275s-.212 1.8525-.919 1.9237c-.707.0713-2.051-.285-2.475-.1424-.424.1424-2.474 2.0662-2.545 2.1375z" fill="#8f5902"/><path d="m1207.511 255.1623 3.465 3.2775s1.838-.1425 2.262-.57c.425-.4275-1.838-3.3488-2.262-3.4913s-2.616.9263-3.465.7838z" fill="#e5cec1"/></g><path d="m1200 248h24v24h-24z" fill="none"/></g></svg>