<svg height="16" viewBox="0 0 16 16" width="16" xmlns="http://www.w3.org/2000/svg"><g transform="translate(0 -1036.3622)"><path d="m0 1036.3622h16v16h-16z" fill="none"/><path d="m0 1036.3622h16v16h-16z" fill="none" opacity=".3"/><path d="m0 1036.3622v16h16v-16zm1.1428571 1.1429h13.7142859v13.7142h-13.7142859z" opacity="0"/><path d="m1 1044.3622v7h7v-7zm.921875.7832h.7949219l1.5175781 2.2481 1.5039062-2.2481h.7949219l-1.9335937 2.8633v2.6035h-.7441406v-2.6035z" fill="#ff0"/><path d="m1 1037.3622h7v7h-7z" fill="#0ff" opacity=".75"/><path d="m8 1037.3622h7v7h-7z" fill="#f0f" opacity=".508"/><path d="m8 1044.3622h7v7h-7z"/><g font-family="sans-serif" letter-spacing="0" word-spacing="0"><text font-size="7.5" x="1.5" y="1043.4247"><tspan x="1.5" y="1043.4247">C</tspan></text><text font-size="7.5" x="8.1875" y="1043.7997"><tspan x="8.1875" y="1043.7997">M</tspan></text><text fill="#fff" font-size="7.5" x="8.1875" y="1050.4872"><tspan x="8.1875" y="1050.4872">K</tspan></text><text font-size="7.8569" transform="scale(1.0019472 .99805657)" x="1.81222" y="1052.7969"><tspan x="1.81222" y="1052.7969">Y</tspan></text></g></g></svg>