<svg height="16" viewBox="0 0 4.2333332 4.2333332" width="16" xmlns="http://www.w3.org/2000/svg" xmlns:xlink="http://www.w3.org/1999/xlink"><linearGradient id="a" gradientTransform="matrix(.95284004 0 0 1.03068 .099822 -9.034799)" gradientUnits="userSpaceOnUse" x1="-.056703" x2="4.290036" y1="294.48645" y2="294.48645"><stop offset="0" stop-color="#555753"/><stop offset="1" stop-color="#555753" stop-opacity="0"/></linearGradient><g transform="translate(0 -292.76667)"><g stroke-dashoffset="1.96" stroke-linecap="round" transform="matrix(-.00272966 -.23238865 -.62977863 .12656744 186.56726 258.06933)"><path d="m-6.1295432 290.33834h-1.314837l2.6451432 5.02709h1.314837z" fill="#c17d11" stroke="#8f5902" stroke-linejoin="round" stroke-width=".263486"/><path d="m-6.2532924 290.60293h-.788902l2.3667073 4.49791h.788902z" fill="none" stroke="#e9b96e" stroke-width=".264583"/></g><path d="m2.4985904 292.96292a.31392258.1962437 0 0 1 -.3027066.19612.31392258.1962437 0 0 1 -.3243371-.1821.31392258.1962437 0 0 1 .2795306-.20914.31392258.1962437 0 0 1 .3443114.16716" fill="#8f5902"/><g stroke-dashoffset="1.96" stroke-linecap="round" transform="matrix(.22434049 -.09066942 .1999598 .81248142 -54.22969 56.4782)"><path d="m-6.1648722 290.37798-1.279508-.0396 2.6451432 5.02709 1.3046254.1296z" fill="#c17d11" stroke="#8f5902" stroke-linejoin="round" stroke-width=".263486"/><path d="m-6.2171811 290.62149-.8250133-.0186 2.3667073 4.49791.8864827.1268z" fill="none" stroke="#e9b96e" stroke-width=".264583"/></g><g stroke-dashoffset="1.96" stroke-linecap="round" transform="matrix(-.22374732 -.09212119 -.20522863 .81116864 60.113242 56.823871)"><path d="m-6.1905125 290.46237-1.2538677-.12405 2.608976 5.06652 1.359144.12435z" fill="#c17d11" stroke="#8f5902" stroke-linejoin="round" stroke-width=".263486"/><path d="m-6.2532924 290.60293h-.788902l2.3064286 4.56363.7169802.0209z" fill="none" stroke="#e9b96e" stroke-width=".264583"/></g><path d="m.099822 293.39566h4.033689v2.181606h-4.033689z" fill="#eeeeec" stroke="url(#a)" stroke-width=".199644"/></g><g transform="matrix(.16536458 0 0 .16536458 1.5875 -171.3776)"><path d="m0 1036.3622h16v16h-16z" fill="none" opacity=".75"/><path d="m-20.433217 1049.479-.243616-.2772-.243616-.2772.361875-.072.361875-.072-.118259.3495z" fill="#d3d7cf" stroke="#555753" stroke-width="2.91148" transform="matrix(.26799057516 .40478534304 -.40711794817 .26645510812 433.74711133122 780.00220453166)"/><path d="m218.20736 576.6367-.84712-73.39348 564.56871 1.54144v140.4l-564.84685 1.11701z" fill="#3465a4" stroke="#555753" stroke-width="21.631079" transform="matrix(.01989485 -.01993646 .01350408 .01332378 -8.745451 1045.6083)"/><path d="m3.9397518 1049.0928 10.8741082-10.8217.369866.4029-10.7944691 10.8393z" fill="#204a87"/><path d="m2.034939 1048.2477 2.026924 2.035-1.3426608 1.173-1.77689279-1.8034z" fill="#e9b96e" opacity=".75" stroke="#f57900" stroke-linecap="round" stroke-width=".3"/><path d="m2.6485165 1047.8124 10.8236475-10.7697.298384.313-10.7438097 10.8119z" fill="#729fcf"/><path d="m271.97339 1014.1378.42576.2564-.45058 2.0261-.002-.019z" fill="#eeeeec" opacity=".75" transform="matrix(.96605692 .2583293 -.2583293 .96605692 0 0)"/><path d="m1.9948962 1051.2267.2887783.351-1.89579813.5863-.0240079-.028z" opacity=".75"/></g></svg>