<svg height="24" viewBox="0 0 24 24" width="24" xmlns="http://www.w3.org/2000/svg"><g transform="translate(34 7)"><rect fill="#bebebe" height="24" opacity="0" rx=".415072" ry="2.121914" width="24" x="-34" y="-7"/><path d="m-26.176302 15.028227v1.147773l8.352604-3.216037v-1.284143l-8.352604-3.181943v1.102315l2.545556.94322v3.545595zm3.363771-4.238805 1.329597.500018c.931855.340923 1.840983.681848 2.80693 1.000041v.04546c-.954583.340923-1.863711.670482-2.80693 1.011404l-1.329597.50002z"/><path d="m-32.479193-5.458011v14.693233h-1.520807l2.613754 5.306763 2.617991-5.306763h-1.541989v-14.693233z"/><path d="m-32.479193-3.289062h14.693232v1.520807l5.306763-2.613754-5.306763-2.617991v1.541989h-14.693232z" opacity=".6"/><path d="m25.099562-.94018547 2.96-.84000003q3.16 8.92 8.04 13.5600005 5.2-5.0800005 8.56-15.2800005h-25.96v-2.8h15.88v-5.9199995h3.2v5.9199995h15.88v2.8h-5.64q-3.72 11.52-9.6 17.2800005 5.28 4 15.16 7l-.88 2.72q-10.72-3.2-16.56-7.72-5.72 4.48-16.48 7.72l-.88-2.72q9.84-3 15.04-7-5.32-5.1600005-8.72-14.72000047z" transform="matrix(.25408546 0 0 .25408546 -31.192701 1.697039)"/></g></svg>