<svg height="16" viewBox="0 0 16 16" width="16" xmlns="http://www.w3.org/2000/svg" xmlns:xlink="http://www.w3.org/1999/xlink"><linearGradient id="a"><stop offset="0" stop-color="#fff"/><stop offset="1" stop-color="#fff" stop-opacity="0"/></linearGradient><linearGradient id="b" gradientTransform="matrix(.29117051 0 0 .48747212 1.011912 -18.291493)" gradientUnits="userSpaceOnUse" x1="23.467106" x2="23.467106" y1="20.201925" y2="17.015749"><stop offset="0" stop-color="#888a85"/><stop offset="1" stop-color="#eeeeec"/></linearGradient><linearGradient id="c" gradientTransform="matrix(0 .2912881 -.59044115 0 20.598249 1.009073)" gradientUnits="userSpaceOnUse" x1="32.309578" x2="44.187737" xlink:href="#d" y1="15.875" y2="15.875"/><linearGradient id="d"><stop offset="0" stop-color="#555753"/><stop offset="1" stop-color="#d3d7cf" stop-opacity="0"/></linearGradient><linearGradient id="e" gradientTransform="matrix(0 .2912881 -.59044115 0 20.598249 1.009073)" gradientUnits="userSpaceOnUse" x1="37.124252" x2="47.5625" xlink:href="#f" y1="13.375" y2="13.375"/><linearGradient id="f"><stop offset="0" stop-color="#555753"/><stop offset="1" stop-color="#888a85" stop-opacity="0"/></linearGradient><linearGradient id="g" gradientTransform="matrix(0 .2912881 -.48149028 0 17.81458 1.113478)" gradientUnits="userSpaceOnUse" x1="37.551125" x2="46.821011" xlink:href="#a" y1="26.433243" y2="26.433243"/><linearGradient id="h" gradientTransform="matrix(0 .29262716 -.47390175 0 17.981145 .941452)" gradientUnits="userSpaceOnUse" x1="36.122208" x2="47.312737" y1="15.875" y2="15.875"><stop offset="0" stop-color="#babdb6"/><stop offset="1" stop-color="#d3d7cf" stop-opacity="0"/></linearGradient><linearGradient id="i" gradientTransform="matrix(0 .29262716 -.47390175 0 17.981145 .941452)" gradientUnits="userSpaceOnUse" x1="41.125" x2="47.5625" xlink:href="#f" y1="13.375" y2="13.375"/><radialGradient id="j" cx="31.349806" cy="14.914701" fx="31.349794" fy="14.914677" gradientTransform="matrix(1.027139 .0000007 -.00000023 .341179 -.857269 11.25477)" gradientUnits="userSpaceOnUse" r="12" xlink:href="#k"/><linearGradient id="k"><stop offset="0" stop-color="#fff"/><stop offset="1" stop-color="#eeeeec" stop-opacity="0"/></linearGradient><linearGradient id="l" gradientTransform="matrix(0 .2912881 -.57668372 0 20.230966 1.009073)" gradientUnits="userSpaceOnUse" x1="35.176235" x2="47.651093" xlink:href="#a" y1="17.240854" y2="17.240854"/><linearGradient id="m" gradientTransform="matrix(0 .28612867 -.44230821 0 17.274705 1.264465)" gradientUnits="userSpaceOnUse" x1="35.253414" x2="48.08326" xlink:href="#a" y1="14.589205" y2="14.589205"/><linearGradient id="n" gradientTransform="matrix(0 .2912881 -.3101421 0 13.302122 1.009073)" gradientUnits="userSpaceOnUse" x1="37.551125" x2="46.258511" xlink:href="#a" y1="26.433243" y2="26.433243"/><linearGradient id="o" gradientTransform="matrix(0 -.2912881 -.48149028 0 18.13671 14.990902)" gradientUnits="userSpaceOnUse" x1="34.122208" x2="44.853527" xlink:href="#d" y1="15.8125" y2="16.0625"/><linearGradient id="p" gradientTransform="matrix(0 -.2912881 -.48149028 0 18.13671 14.990902)" gradientUnits="userSpaceOnUse" x1="37.5" x2="47.5625" xlink:href="#f" y1="13.4375" y2="13.375"/><linearGradient id="q" gradientTransform="matrix(0 -.2912881 -.48149028 0 17.842845 14.967868)" gradientUnits="userSpaceOnUse" x1="37.551125" x2="44.822086" xlink:href="#a" y1="26.433243" y2="26.433243"/><linearGradient id="r" gradientTransform="matrix(0 -.2912881 -.48149028 0 18.13671 14.990902)" gradientUnits="userSpaceOnUse" x1="29.861185" x2="46.562737" y1="15.875" y2="15.875"><stop offset="0" stop-color="#8f9388"/><stop offset=".5" stop-color="#c6cac2"/><stop offset="1" stop-color="#d3d7cf" stop-opacity="0"/></linearGradient><linearGradient id="s" gradientTransform="matrix(0 -.2912881 -.48149028 0 18.13671 14.990902)" gradientUnits="userSpaceOnUse" x1="41.125" x2="47.5625" xlink:href="#f" y1="13.375" y2="13.375"/><radialGradient id="t" cx="35.973373" cy="14.052355" fx="35.973362" fy="14.05233" gradientTransform="matrix(.751224 .00000235 -.00000072 .229414 8.256114 12.93155)" gradientUnits="userSpaceOnUse" r="12" xlink:href="#k"/><linearGradient id="u" gradientTransform="matrix(0 -.2912881 -.48149028 0 18.56508 14.958765)" gradientUnits="userSpaceOnUse" x1="35.176235" x2="47.651093" xlink:href="#a" y1="17.240854" y2="17.240854"/><linearGradient id="v" gradientTransform="matrix(0 -.2912881 -.48149028 0 17.842844 14.958765)" gradientUnits="userSpaceOnUse" x1="35.253414" x2="48.08326" xlink:href="#a" y1="14.589205" y2="14.589205"/><linearGradient id="w" gradientTransform="matrix(0 -.2840608 -.57434729 0 20.365277 14.63315)" gradientUnits="userSpaceOnUse" x1="37.551125" x2="44.571289" xlink:href="#a" y1="26.433243" y2="26.433243"/><linearGradient id="x" gradientTransform="matrix(0 .30734667 -.51460872 0 18.983475 .664353)" gradientUnits="userSpaceOnUse" x1="20" x2="20" y1="24" y2="19.121248"><stop offset="0" stop-color="#888a85"/><stop offset=".5" stop-color="#eeeeec"/><stop offset="1" stop-color="#cecec8"/></linearGradient><radialGradient id="y" cx="7.012699" cy="22.25555" gradientTransform="matrix(.21225 0 0 .254807 12.01156 16.32913)" gradientUnits="userSpaceOnUse" r="13" xlink:href="#k"/><path d="m0 .063744h16v15.873845h-16z" opacity="0"/><path d="m5.525045-10.248203h4.949909v2.437362h-4.949909z" fill="url(#b)" stroke="#555753" stroke-dashoffset="1.4" stroke-linecap="round" stroke-width=".565119" transform="rotate(90)"/><path d="m7.2583434 8.7282078c-2.1748826 0-2.8972263.9204351-2.8972263 2.3180292v4.672886h2.8972263z" fill="url(#c)" stroke="url(#e)" stroke-dashoffset="1.4" stroke-linecap="round" stroke-width=".561754"/><path d="m6.4995585 15.532239v-4.250987c-.1560512-.117381-.2407448-.255556-.2407448-.40052" style="opacity:.7;fill:none;stroke-width:.561754;stroke-linecap:round;stroke-dashoffset:1.4;stroke:url(#g)"/><path d="m9.2291395 4.2678589c-.3434821-.122154-.7584713-.2002608-1.2037258-.2002608-1.2003545 0-2.1667054.5144923-2.1667062 1.1560498v5.5526781c0 .641559.9663517 1.156051 2.1667062 1.15605.4452545 0 .8602437-.07811 1.2037258-.200261v-.819246c0-.353005-.4134754-.642334-.9629809-.710016v-.455137-1.3016938-2.1937632c0-.3530053.4134754-.642333.9629809-.7100146z" fill="#d3d7cf" stroke="#888a85" stroke-dashoffset="1.4" stroke-linecap="round" stroke-width=".561754"/><path d="m9.4883793 6.1073955v3.7852169" fill="none" opacity=".5" stroke="#fff" stroke-width=".565119"/><path d="m11.583472 10.433545c0-.6176528-1.462955-1.6966912-3.3173134-1.7374739v2.6244989h1.0823087v4.398553h2.2350047z" fill="url(#h)" stroke="url(#i)" stroke-dashoffset="1.4" stroke-linecap="round" stroke-width=".561754"/><path d="m32.4375 13.96875c-.826833 0-2.229892.692771-3.369141 1.886719-1.034784 1.084467-1.834614 2.55735-2.027343 4.175781h7.958984v-1.53125a.46879688.46879688 0 0 1 .46875-.46875h14.5625v-4.0625z" fill="url(#j)" opacity=".8" transform="matrix(0 .2912881 -.45039104 0 17.513754 1.009073)"/><g stroke-dashoffset="1.4" stroke-linecap="round"><path d="m7.5439239 9.9388741c.183702-.027435.3747492-.045513.576684-.045513 1.1082139 0 2.0183931.4597389 2.0183931 1.0195079v4.514965" fill="none" opacity=".6" stroke="url(#l)" stroke-width=".561754"/><path d="m10.861236 15.427833v-4.88207c0-.162475-.265676-.5531239-.760218-.8583861-.4945415-.3052617-1.1628035-.5375356-1.8936321-.5543742h-.6634627" fill="none" stroke="url(#m)" stroke-width=".561754"/><path d="m5.9614628 9.3161542c-.1397792.1173079-.3995384.2809395-.5169926.4722472-.2458295.4004026-.3611141.8197386-.3611141.9606166v4.678816" fill="none" opacity=".4" stroke="url(#n)" stroke-width=".561754"/><path d="m7.2135084 7.2717671c-1.4444707 0-2.8158426-.724932-2.8158426-2.020811v-4.97010281h2.8158426z" fill="url(#o)" stroke="url(#p)" stroke-width=".561754"/><path d="m6.5278232.54910776v4.25098564c-.1560512.1173813-.2407449.2555567-.2407449.4005207" fill="none" opacity=".7" stroke="url(#q)" stroke-width=".561754"/><path d="m11.636591 5.5422444c0 .6148259-1.48638 1.6889265-3.3704324 1.7295227v-2.6124897h1.1423207v-4.37842411h2.2281117z" fill="url(#r)" stroke="url(#s)" stroke-width=".561754"/></g><path d="m32.4375 13.96875c-.826833 0-2.229892.692771-3.369141 1.886719-1.034784 1.084467-1.834614 2.55735-2.027343 4.175781h7.958984v-1.53125a.46879688.46879688 0 0 1 .46875-.46875h14.5625v-4.0625z" fill="url(#t)" opacity=".7" transform="matrix(0 -.2912881 -.48149028 0 17.978264 15.04069)"/><path d="m7.972294 6.0289644c.1533782.027435.3128897.045514.4814905.045514.925281 0 1.6852155-.4597396 1.6852155-1.0195082v-4.51496548" style="opacity:.6;fill:none;stroke-width:.561754;stroke-linecap:round;stroke-dashoffset:1.4;stroke:url(#u)"/><path d="m10.861236.54000472v4.97010288c0 .1654045-.289211.5630985-.827562.8738641-.5383503.3107659-1.265811.5472283-2.06138.5643709h-.7222354" fill="none" stroke="url(#v)" stroke-dashoffset="1.4" stroke-linecap="round" stroke-width=".561754"/><path d="m6.5809429 6.6173102c-.2588549-.1143976-.5004224-.2661607-.7179337-.452722-.4552474-.3904679-.7179345-.8923368-.7179345-1.0297206v-4.56272652" style="opacity:.5;fill:none;stroke-width:.561754;stroke-linecap:round;stroke-dashoffset:1.4;stroke:url(#w)"/><path d="m9.4632155 4.1027941c-.3671082-.128888-.8106415-.2113007-1.286522-.2113007-1.2829187-.0000004-2.3611305.5428556-2.3611305 1.219782v5.8587956c0 .676926 1.0782118 1.219782 2.3611305 1.219782.4758805 0 .9194138-.08241 1.286522-.211301v-.864412c0-.372466-.1695642-.677744-.7568663-.749158v-4.6486179c.5873021-.0714134.7568663-.3766917.7568663-.7491574z" style="stroke:#555753;stroke-width:.565118;stroke-linecap:round;stroke-linejoin:round;stroke-dashoffset:1.4;fill:url(#x)"/><path d="m8.9883939 4.381124c-.2074606-.0663543-.4344809-.1314074-.6770956-.1585541-.0933555-.010447-.1873161-.0093284-.2858846-.0093284-.5433225-.0000004-1.0235787.1198007-1.3692377.3077811-.0865585.0469445-.1572306.0941169-.2256986.1492271-.0684679.0551102-.1325475.1153601-.1805588.1772075-.0956651.1236199-.1504662.2593768-.1504662.4010487v5.6892891c0 .142076.054442.277354.1504662.401049.048014.06184.1120902.122097.1805588.177207.068468.05511.1391401.102284.2256986.149227.3456597.187981.8259152.307781 1.3692377.307781.088314 0 .1709798-.0033.2557919-.0093.00942-.000961.020728.0011.030096 0 .2426147-.02715.469635-.0922.6770956-.158553v-.317137c-.2465119.112573-.5763048.186533-.9629802.186533-.8638196 0-1.4444708-.353048-1.4444708-.736809v-5.6892871c.0000007-.3837615.580652-.7368101 1.4444708-.7368101.3866754 0 .7164683.073961.9629802.1865341z" fill="#fff" opacity=".5"/><path d="m8.8680219 5.3783948h-.631956c-.3792826 0-.6921427.1892712-.6921427.4187265v4.4057317c0 .229455.3128601.418728.6921427.418728h.631956c-.1343344-.140322-.3712464-.23912-.6470031-.273083-.03237-.0038-.04917-.01681-.075232-.02732-.076243-.0187-.1203728-.06349-.1203728-.118336v-4.4057207c-.00152-.050941.053756-.091507.1203725-.1183356.026065-.010499.042865-.023573.075232-.027308.2757567-.033963.5126687-.1327614.6470034-.2730829z" fill="#fff" opacity=".8"/><path d="m11.513672 19c-.303884.593716-.513672 1.268701-.513672 2-.000001 2.256835 1.570013 4 3.46875 4h19.0625c1.898737 0 3.468751-1.743165 3.46875-4 0-.731299-.209788-1.406284-.513672-2h-2.486328c-.975674 0-1.760703.683266-1.947266 1.599609a.50004997.50004997 0 0 1 -.490234.400391h-15.125a.50004997.50004997 0 0 1 -.490234-.400391c-.186563-.916343-.971592-1.599609-1.947266-1.599609z" fill="url(#y)" transform="matrix(0 .2911705 -.47612394 0 18.075877 1.011912)"/></svg>