<svg height="16" viewBox="0 0 16 16" width="16" xmlns="http://www.w3.org/2000/svg" xmlns:xlink="http://www.w3.org/1999/xlink"><linearGradient id="a" gradientUnits="userSpaceOnUse" x1="-14" x2="-1" y1="2.25" y2="2.25"><stop offset="0" stop-color="#edd400"/><stop offset="1" stop-color="#c00"/></linearGradient><path d="m14.09482 2.12222c.520673 0 .90518.4037031.90518.859491v1.627065c0 .4558076-.384507.8590756-.90518.8590756h-5.496026c-.4203304 0-.5216641.058048-.6541238.1608828-.1324597.1028047-.1980123.274366-.1980123.5366979l-.00114.8345677h-.4921763l.00114-.8350523c.0000872-.3272919.1153034-.6855185.3752962-.8872811.2601259-.2018812.481149-.2776666.9690032-.2776666h5.496026c.210026 0 .413004-.124274.413004-.3911746v-1.627065c0-.2668907-.202978-.4455726-.413004-.4455726h-4.094807v-.4139382h4.094807z" fill="#fff" stroke="#000" stroke-width=".5"/><g transform="scale(-1 1)"><rect fill="#204a87" height="8.681456" ry=".308624" stroke="#204a87" stroke-width=".318544" width="2.181456" x="-8.590713" y="7.159272"/><rect fill="url(#a)" height="3.997549" rx=".789406" ry="1.462601" stroke="#000" stroke-width=".502451" width="12.497549" x="-13.748775" y=".251225"/><path d="m-16 0h16v16h-16z" fill="#505050" opacity="0"/></g><path d="m8.6274803 8.1557354h-2.2310314c-.3636403 2.2196756-.2738056 4.3539486-.00507 6.5736536.7784373.181915 1.4815944.118496 2.2209596.01206.2612867-2.219612.3477822-4.365604.015159-6.585197z" fill="#729fcf" stroke="#3465a4" stroke-width=".311477"/></svg>