<svg height="15.999934" viewBox="0 0 16.000064 15.999934" width="16.000065" xmlns="http://www.w3.org/2000/svg" xmlns:xlink="http://www.w3.org/1999/xlink"><linearGradient id="a" gradientUnits="userSpaceOnUse" x1="1077.30188662592" x2="1077.77477277254" y1="759.8996594299" y2="719.02184532302"><stop offset="0" stop-color="#f2f2f1"/><stop offset=".223155" stop-color="#c5c7c2"/><stop offset="1" stop-color="#eeeeec"/></linearGradient><linearGradient id="b" gradientTransform="translate(1012.4865 656.39)" gradientUnits="userSpaceOnUse" x2="0" y1="58.698524" y2="97.156609"><stop offset="0" stop-color="#6d706a"/><stop offset="1" stop-color="#2d2e2c"/></linearGradient><g transform="matrix(.36386757686 0 0 .36373653091 -14.16840751083 -20.51910813237)"><path d="m39.438364 78.98461c0 12.555369 8.881409 20.915102 22.284682 20.915102 13.491637 0 23.117859-13.224031 20.148481-26.890577h-20.118394c-6.756335 0-7.641725 10.279759-.441281 9.958906 3.27827-.14608 2.8719-2.887584 5.41065-3.129082.916673-.0872 2.515926.369009 2.664657 2.165074.351708 4.247206-3.385483 6.909725-7.764405 6.884378-14.67659-.08547-15.183659-20.915765-.581688-20.915765h18.894843c-.0071-.01304-.01297-.02709-.02006-.04012h.05015c-2.977491-5.153114-9.081792-11.173291-20.29341-11.01758-11.086642.153975-20.234225 9.690981-20.234225 22.069664z" fill="url(#a)" stroke="url(#b)" stroke-linejoin="round"/><path d="m59.685547 57.876953c-10.541804.146409-19.285156 9.203216-19.285156 21.107422 0 6.050582 2.117199 10.993674 5.8125 14.464844 3.6953 3.471169 9.00838 5.488281 15.509765 5.488281 12.612149 0 21.627612-12.125507 19.289063-24.964844h-19.257813c-2.889716 0-4.357075 2.108631-4.49414 4.199219-.06853 1.045294.227344 2.036509.851562 2.732422.624219.695912 1.585696 1.171634 3.158203 1.101562 1.369713-.06103 1.70129-.497205 2.292969-1.191406s1.452162-1.779853 3.068359-1.933594c.668157-.06356 1.464555.05145 2.216797.513672.752242.46222 1.400813 1.355102 1.498047 2.529297.200369 2.419645-.805139 4.49866-2.451172 5.865234-1.646032 1.366575-3.891082 2.076313-6.277343 2.0625-7.793847-.04539-12.078644-5.759604-12.226563-11.427734-.07396-2.834065.84393-5.686875 2.804687-7.84375 1.960758-2.156874 4.966227-3.570312 8.845704-3.570312h17.076172c-3.093335-4.561919-8.585745-9.269556-18.431641-9.132813z" fill="none" opacity=".495614" stroke="#fff"/></g></svg>