<svg height="16" viewBox="0 0 16 16" width="16" xmlns="http://www.w3.org/2000/svg"><g transform="translate(0 -1036.3622)"><g transform="matrix(.99615992 0 0 1.0000236 .061318 -.024821)"><path d="m-15.804878-1052.1671h15.609756v15.609756h-15.609756z" fill="#fff" stroke="#fff" stroke-linecap="square" stroke-linejoin="round" stroke-width=".390244" transform="scale(-1)"/><path d="m-.061555 1036.3623h16.061678v12h-16.061678z" fill="#d3d7cf"/></g><path d="m0 1048.3622v2.6667 1.3333h16v-1.3333-2.6667h-1.142857v2.6667h-6.857143v-2.6667h-1.142857v2.6667h-5.714286v-2.6667z" stroke-width="1.234427"/><path d="m0 1048.2936c.5980054-1.6674 3.7225717-7.4357 1.5751296-3.3615.3052501-.8114 1.0447585-3.5768 1.8238342-5.0422.3028626-.5698.648635-1.154 1.0777202-1.4009.4970777-.2853 1.0500908 0 1.5751296 0 .4421372 0 .8859722-.064 1.3264249 0 .4752182.069.9521873.1906 1.4093263.4202.605036.3051 1.199354.7125 1.7409332 1.2607.151783.1538.282661.3609.414508.5603.232959.3523.409586.8117.663212 1.1205.937384 1.2148.770679-.2085 1.098452-.5251.205384-.6773.449207-1.5696.891185-1.7161.06062-.022.113277.084.165803.1386.352604.3682.738686.71.994819 1.2606.390128.8388.561608 1.9211.746114 2.9413.258945 1.4319.497409 4.4122.497409 4.4122l-.0829-.069z" fill="#729fcf" stroke-width="1.724119"/></g></svg>