<svg height="16" viewBox="0 0 16 16" width="16" xmlns="http://www.w3.org/2000/svg" xmlns:xlink="http://www.w3.org/1999/xlink"><linearGradient id="a"><stop offset="0" stop-color="#fff" stop-opacity=".796078"/><stop offset="1" stop-color="#fff" stop-opacity=".215686"/></linearGradient><linearGradient id="b" gradientUnits="userSpaceOnUse" x1="5.88513051372" x2="4.87013210501" y1="12.6194547909" y2="2.7784063659"><stop offset="0" stop-color="#424242"/><stop offset="1" stop-color="#777"/></linearGradient><linearGradient id="c" gradientUnits="userSpaceOnUse" x1="7.47269606452" x2="7.42946577954" y1="14.81535127009" y2="12.88621274509"><stop offset="0" stop-color="#6194cb"/><stop offset="1" stop-color="#729fcf"/></linearGradient><linearGradient id="d" gradientTransform="matrix(.51475824 0 0 .31892069 -1.535375 -.151312)" gradientUnits="userSpaceOnUse" x1="13.035696" x2="12.853771" xlink:href="#a" y1="32.567184" y2="46.689312"/><path d="m.57499674 15.479334c.008516.162654.17969018.32531.34234522.32531h12.23983004c.162654 0 .316794-.162656.308278-.32531l-.365879-10.637802c-.0085-.162654-.179687-.325312-.342342-.325312h-5.1850839c-.1895174 0-.482323-.123305-.5476386-.432374l-.2388776-1.130357c-.0607435-.287436-.3446912-.405514-.507346-.405514h-5.77427181c-.16265824 0-.31679709.162655-.30828118.32531z" fill="#fff" stroke="url(#b)" stroke-linecap="round" stroke-linejoin="round" stroke-width=".390712"/><g transform="matrix(2.3622048 0 0 2.3622048 5 -691.57485)"><path d="m2.4985904 292.96292a.31392258.1962437 0 0 1 -.3027066.19612.31392258.1962437 0 0 1 -.3243371-.1821.31392258.1962437 0 0 1 .2795306-.20914.31392258.1962437 0 0 1 .3443114.16716" fill="#8f5902"/><g stroke-dashoffset="1.96" stroke-linecap="round"><g transform="matrix(.22434049 -.09066942 .1999598 .81248142 -54.22969 56.4782)"><path d="m-6.1648722 290.37798-1.279508-.0396 2.6451432 5.02709 1.3046254.1296z" fill="#c17d11" stroke="#8f5902" stroke-linejoin="round" stroke-width=".263486"/><path d="m-6.2171811 290.62149-.8250133-.0186 2.3667073 4.49791.8864827.1268z" fill="none" stroke="#e9b96e" stroke-width=".264583"/></g><g transform="matrix(-.22374732 -.09212119 -.20522863 .81116864 60.113242 56.823871)"><path d="m-6.1905125 290.46237-1.2538677-.12405 2.608976 5.06652 1.359144.12435z" fill="#c17d11" stroke="#8f5902" stroke-linejoin="round" stroke-width=".263486"/><path d="m-6.2532924 290.60293h-.788902l2.3064286 4.56363.7169802.0209z" fill="none" stroke="#e9b96e" stroke-width=".264583"/></g><g transform="matrix(-.00272966 -.23238865 -.62977863 .12656744 186.56726 256.77288)"><path d="m-6.1295432 290.33834h-1.314837l2.6451432 5.02709h1.314837z" fill="#c17d11" stroke="#8f5902" stroke-linejoin="round" stroke-width=".263486"/><path d="m-6.2532924 290.60293h-.788902l2.3667073 4.49791h.788902z" fill="none" stroke="#e9b96e" stroke-width=".264583"/></g></g></g><path d="m14.352172 15.800969c.446933-.01722.766997-.428337.7998-.906844.309361-4.512206.648332-8.295569.648332-8.295569.02819-.09669-.0656-.193389-.187597-.193389h-13.4292093s-.7229411 8.543648-.7229411 8.543648c-.044758.383705-.1820746.705124-.60553881.853202l13.49715421-.0011z" display="block" fill="url(#c)" stroke="#3465a4" stroke-linejoin="round" stroke-width=".390712"/><path d="m2.5670257 6.796356 12.8118623.02532-.614998 7.815005c-.03294.418652-.176085.55802-.731668.55802-.731218 0-11.2048149-.01266-12.26629-.01266.091269-.125344.1304022-.386266.130926-.392513z" fill="none" opacity=".465909" stroke="url(#d)" stroke-linecap="round" stroke-width=".390711"/><path d="m0-.000001h16v16h-16z" fill="#bebebe" opacity="0"/></svg>