<svg height="16" width="16" xmlns="http://www.w3.org/2000/svg" xmlns:xlink="http://www.w3.org/1999/xlink"><linearGradient id="a" gradientUnits="userSpaceOnUse" x1="74.44361097245" x2="74.44361097245" y1="26.4872572566" y2="38.92240046735"><stop offset="0" stop-color="#555753"/><stop offset="1" stop-color="#fcaf3e"/></linearGradient><radialGradient id="b" cx="-6.007017" cy="32.837029" gradientTransform="matrix(.748925 -.00000001 .00000001 .717879 73.47172 17.83974)" gradientUnits="userSpaceOnUse" r="9.90625"><stop offset="0" stop-color="#fce94f"/><stop offset="1" stop-color="#fce94f" stop-opacity="0"/></radialGradient><linearGradient id="c" gradientTransform="matrix(.700807 0 0 1.008068 57.61412 6.978468)" gradientUnits="userSpaceOnUse" x1="25.355263" x2="25.355263" y1="34.006802" y2="32.409008"><stop offset="0" stop-color="#2e3436"/><stop offset="1" stop-color="#2e3436" stop-opacity="0"/></linearGradient><rect fill="#eeeeec" fill-rule="evenodd" height="15.000003" rx=".614949" ry=".637838" stroke="#888a85" width="15.000011" x=".499996" y=".5"/><rect fill="#204a87" fill-rule="evenodd" height="1" rx=".111136" ry=".111135" width="12" x="2" y="2"/><g transform="matrix(.42237932 0 0 .49627599 -23.44372 -8.002177)"><rect fill="url(#a)" height="17.974199" rx=".496428" ry=".415061" stroke="#babdb6" stroke-linecap="round" stroke-linejoin="round" stroke-width="2.176545" width="26.232616" x="61.327301" y="25.272087"/><path d="m68.504842 33.54904c-3.871028.245613-6.950961 3.486386-6.950961 7.419038 0 .151871.01439.295058.0234.444674h14.791269c.009-.149616.0234-.292803.0234-.444674 0-4.092517-3.326522-7.419038-7.419038-7.419038-.159864 0-.310719-.01-.468078 0z" fill="url(#b)" fill-rule="evenodd"/><path d="m62.519768 40.24474h23.82744v2.016137h-23.82744z" fill="url(#c)"/><g fill-rule="evenodd"><path d="m78.594206 40.244741s-.416091-2.035335-.416091-3.282216c.01154-.568811 5.83166-5.000029 5.846675-5.660076l-1.353125 1.039349-.947514-2.272039 3.194289.291727 1.49785-1.320208-1.696439 1.097696-.583434-.116692-.715827-2.301211.364079 2.242866-2.643952-.116691.827453 1.856187-2.292205-2.002051 2.424598 2.786605c.000063.621506-4.778797 4.415568-4.770668 3.761359l-1.981989-2.34309-.165491-3.167568 1.49785-.377202 1.312233-2.852058-1.729807 2.636002-1.350438-.05393-3.022952-2.2503-4.150706-1.400292 3.546036 1.717757-2.842541.222513h3.744625l2.246775 1.980311.264785 3.420646-4.00941-3.420646 1.686056 1.786972-2.434981 1.513547 2.674732-1.320207 4.231084 4.697376-.165491 3.205567h1.913941z"/><path d="m69.424748 36.257117c-2.478079.124549-4.44973 1.767918-4.44973 3.762133 0 .07701.0092.149622.01498.225491h9.468787c.0058-.07587.01498-.148478.01498-.225491 0-2.07528-2.129508-3.762133-4.749375-3.762133-.102339 0-.198911-.0051-.299646 0z" fill="#fef39e"/><path d="m69.495867 36.933941c-1.889909.101664-3.393592 1.443049-3.393592 3.07081 0 .06286.007.122126.01142.184054h7.221385c.0044-.06193.01143-.121195.01143-.184054 0-1.693931-1.624072-3.07081-3.622118-3.07081-.07805 0-.1517-.0041-.228527 0z" fill="#fffbd7" fill-opacity=".556818"/></g></g></svg>