<svg height="16" viewBox="0 0 16 16" width="16" xmlns="http://www.w3.org/2000/svg" xmlns:xlink="http://www.w3.org/1999/xlink"><linearGradient id="a"><stop offset="0" stop-color="#fff" stop-opacity=".796078"/><stop offset="1" stop-color="#fff" stop-opacity=".215686"/></linearGradient><linearGradient id="b" gradientTransform="matrix(-.10194117 .09920594 -.11035753 -.11340022 723.52563 198.27782)" gradientUnits="userSpaceOnUse" x1="9.3437" x2="10.924745" xlink:href="#a" y1="38.811657" y2="46.82093"/><linearGradient id="c" gradientUnits="userSpaceOnUse" x1="5.88513051372" x2="4.87013210501" y1="44.6194557909" y2="34.7784073659"><stop offset="0" stop-color="#424242"/><stop offset="1" stop-color="#777"/></linearGradient><linearGradient id="d" gradientTransform="matrix(.8048011 -.08405894 -.2587753 .8411918 306.72336 53.510516)" gradientUnits="userSpaceOnUse" x1="33.175713" x2="31.180811" y1="18.657627" y2="17.17729"><stop offset="0" stop-color="#c17d11"/><stop offset="1" stop-color="#e9b96e"/></linearGradient><linearGradient id="e" gradientTransform="matrix(.8048011 -.08405894 -.2587753 .8411918 306.72336 53.510516)" gradientUnits="userSpaceOnUse" x1="19.635454" x2="23.529133" y1="29.591417" y2="33.485096"><stop offset="0" stop-color="#eeeeec"/><stop offset="1" stop-color="#888a85"/></linearGradient><linearGradient id="f" gradientUnits="userSpaceOnUse" x1="314.1875" x2="337.4375" xlink:href="#a" y1="77.625" y2="55.1875"/><linearGradient id="g" gradientTransform="matrix(1 0 0 1.2675301 295 35.14642)" gradientUnits="userSpaceOnUse" x1="10.593056" x2="10.165062" y1="38.581955" y2="43.382187"><stop offset="0" stop-color="#555753"/><stop offset="1" stop-color="#1f2324"/></linearGradient><linearGradient id="h" gradientTransform="matrix(.6424152 0 0 .7146281 299.4458 56.787435)" gradientUnits="userSpaceOnUse" x1="9.3437" x2="10.924745" xlink:href="#a" y1="38.811657" y2="46.82093"/><linearGradient id="i" gradientTransform="matrix(.8048011 -.08405894 -.2587753 .8411918 306.62672 55.876157)" gradientUnits="userSpaceOnUse" x1="38.289421" x2="36.610626" y1="5.253948" y2="7.331462"><stop offset="0" stop-color="#eac586"/><stop offset="1" stop-color="#eac586" stop-opacity="0"/></linearGradient><linearGradient id="j" gradientUnits="userSpaceOnUse" x1="7.47269606452" x2="7.42946577954" y1="46.81535227009" y2="44.88621374509"><stop offset="0" stop-color="#6194cb"/><stop offset="1" stop-color="#729fcf"/></linearGradient><linearGradient id="k" gradientTransform="matrix(.51475824 0 0 .31892069 -1.535375 31.848689)" gradientUnits="userSpaceOnUse" x1="13.035696" x2="12.853771" xlink:href="#a" y1="32.567184" y2="46.689312"/><linearGradient id="l" gradientTransform="matrix(-.10194117 .09920594 -.11035753 -.11340022 20.265287 38.263907)" gradientUnits="userSpaceOnUse" x1="9.3437" x2="10.924745" xlink:href="#a" y1="38.811657" y2="46.82093"/><path d="m0 0h16v16h-16z" fill="#bebebe" opacity="0"/><path d="m15.030085 1.060315c-.319022.31838-.16766.918563-.01491 1.243903.460615.981045-.643093 1.375683-1.000564.728743-.633788-.984137.531044-1.50374 1.015472-1.972646z" style="opacity:.291188;fill:none;stroke-width:.221423;stroke-linejoin:round;stroke-miterlimit:5;stroke:url(#b)"/><g transform="translate(0 -32.000001)"><path d="m.57499669 47.479335c.008516.162654.17969018.32531.34234522.32531h12.23983009c.162654 0 .316794-.162656.308278-.32531l-.365879-10.637802c-.0085-.162654-.179687-.325312-.342342-.325312h-5.1850839c-.1895174 0-.482323-.123305-.5476386-.432374l-.2388776-1.130357c-.0607435-.287436-.3446912-.405514-.507346-.405514h-5.77427186c-.16265824 0-.31679709.162655-.30828118.32531z" fill="#fff" stroke="url(#c)" stroke-linecap="round" stroke-linejoin="round" stroke-width=".390712"/><g enable-background="new" transform="matrix(.01072741 .22744132 -.21511717 .00948104 17.203537 -36.339601)"><g fill-rule="evenodd"><path d="m320.3776 76.216886c3.74479-3.557225 10.29133-10.392843 18.1224-21.216886.31508-.348949-.20939-.648913-.5-.5-11.8317 8.286013-17.78213 14.476254-21.15733 18.01528" fill="url(#d)" stroke="#8f5902" stroke-linejoin="round"/><path d="m317.43642 71.92153c1.48148.593851 2.79794 1.536069 3.53493 3.701606-1.50039 1.439227-7.46345 6.424706-11.18179 8.495374l-1.09205-1.514265c2.11292-3.07026 5.97347-7.921974 8.73891-10.682715z" opacity=".15" stroke="#000" stroke-linejoin="round"/><path d="m316.84267 72.51528c1.48148.593851 2.79794 1.536069 3.53493 3.701606-1.50039 1.439227-7.46345 6.424706-11.18179 8.495374l-1.09205-1.514265c2.11292-3.07026 5.97347-7.921974 8.73891-10.682715z" fill="url(#e)" stroke="#888a85"/><path d="m308.9375 83.4375c5.61007-8.503571 23.67787-24.203721 27.5625-26.8125-8.26477 8.802256-18.60785 18.641733-27.5625 26.8125z" fill="url(#f)" opacity=".68"/><path d="m298.5 89.533975c4.69347.0018 4.22115-4.892079 6.5-6.392279 2.64077-1.738454 4.95498.415683 5.41701 2.188487.58299 2.236937-.41701 4.695506-3.41701 5.678933-3.36365 1.102635-8.11053.475429-8.5-1.475141z" fill="url(#g)" stroke="#000"/></g><path d="m300 90.11888c2.03536-.02563 3.43589-2.444925 3.96623-3.979048 1.59922-4.626059 6.41448-2.426936 5.53377.792882-1.04847 5.181517-6.45517 3.194333-9.5 3.186166z" fill="none" opacity=".291188" stroke="url(#h)" stroke-linejoin="round" stroke-miterlimit="5"/><path d="m337.51065 55.5-3.01065 3.008813" fill="none" stroke="url(#i)" stroke-linecap="round"/></g><g enable-background="new" transform="matrix(-.15868425 .15442652 -.15442652 -.15868425 76.174492 .613236)"><g fill-rule="evenodd"><path d="m320.3776 76.216886c3.74479-3.557225 10.29133-10.392843 18.1224-21.216886.31508-.348949-.20939-.648913-.5-.5-11.8317 8.286013-17.78213 14.476254-21.15733 18.01528" fill="url(#d)" stroke="#8f5902" stroke-linejoin="round"/><path d="m317.43642 71.92153c1.48148.593851 2.79794 1.536069 3.53493 3.701606-1.50039 1.439227-7.46345 6.424706-11.18179 8.495374l-1.09205-1.514265c2.11292-3.07026 5.97347-7.921974 8.73891-10.682715z" opacity=".15" stroke="#000" stroke-linejoin="round"/><path d="m316.84267 72.51528c1.48148.593851 2.79794 1.536069 3.53493 3.701606-1.50039 1.439227-7.46345 6.424706-11.18179 8.495374l-1.09205-1.514265c2.11292-3.07026 5.97347-7.921974 8.73891-10.682715z" fill="url(#e)" stroke="#888a85"/><path d="m308.9375 83.4375c5.61007-8.503571 23.67787-24.203721 27.5625-26.8125-8.26477 8.802256-18.60785 18.641733-27.5625 26.8125z" fill="url(#f)" opacity=".68"/><path d="m298.5 89.533975c4.69347.0018 4.22115-4.892079 6.5-6.392279 2.64077-1.738454 4.95498.415683 5.41701 2.188487.58299 2.236937-.41701 4.695506-3.41701 5.678933-3.36365 1.102635-8.11053.475429-8.5-1.475141z" fill="url(#g)" stroke="#000"/></g><path d="m300 90.11888c2.03536-.02563 3.43589-2.444925 3.96623-3.979048 1.59922-4.626059 6.41448-2.426936 5.53377.792882-1.04847 5.181517-6.45517 3.194333-9.5 3.186166z" fill="none" opacity=".291188" stroke="url(#h)" stroke-linejoin="round" stroke-miterlimit="5"/><path d="m337.51065 55.5-3.01065 3.008813" fill="none" stroke="url(#i)" stroke-linecap="round"/></g><g enable-background="new" transform="matrix(-.20015646 .08393678 -.08393678 -.20015646 80.029986 25.258626)"><g fill-rule="evenodd"><path d="m320.3776 76.216886c3.74479-3.557225 10.29133-10.392843 18.1224-21.216886.31508-.348949-.20939-.648913-.5-.5-11.8317 8.286013-17.78213 14.476254-21.15733 18.01528" fill="url(#d)" stroke="#8f5902" stroke-linejoin="round"/><path d="m317.43642 71.92153c1.48148.593851 2.79794 1.536069 3.53493 3.701606-1.50039 1.439227-7.46345 6.424706-11.18179 8.495374l-1.09205-1.514265c2.11292-3.07026 5.97347-7.921974 8.73891-10.682715z" opacity=".15" stroke="#000" stroke-linejoin="round"/><path d="m316.84267 72.51528c1.48148.593851 2.79794 1.536069 3.53493 3.701606-1.50039 1.439227-7.46345 6.424706-11.18179 8.495374l-1.09205-1.514265c2.11292-3.07026 5.97347-7.921974 8.73891-10.682715z" fill="url(#e)" stroke="#888a85"/><path d="m308.9375 83.4375c5.61007-8.503571 23.67787-24.203721 27.5625-26.8125-8.26477 8.802256-18.60785 18.641733-27.5625 26.8125z" fill="url(#f)" opacity=".68"/><path d="m298.5 89.533975c4.69347.0018 4.22115-4.892079 6.5-6.392279 2.64077-1.738454 4.95498.415683 5.41701 2.188487.58299 2.236937-.41701 4.695506-3.41701 5.678933-3.36365 1.102635-8.11053.475429-8.5-1.475141z" fill="url(#g)" stroke="#000"/></g><path d="m300 90.11888c2.03536-.02563 3.43589-2.444925 3.96623-3.979048 1.59922-4.626059 6.41448-2.426936 5.53377.792882-1.04847 5.181517-6.45517 3.194333-9.5 3.186166z" fill="none" opacity=".291188" stroke="url(#h)" stroke-linejoin="round" stroke-miterlimit="5"/><path d="m337.51065 55.5-3.01065 3.008813" fill="none" stroke="url(#i)" stroke-linecap="round"/></g><path d="m14.352172 47.80097c.446933-.01722.766997-.428337.7998-.906844.309361-4.512206.648332-8.295569.648332-8.295569.02819-.09669-.0656-.193389-.187597-.193389h-13.4292093s-.7229411 8.543648-.7229411 8.543648c-.044758.383705-.1820746.705124-.60553886.853202l13.49715426-.0011z" display="block" fill="url(#j)" stroke="#3465a4" stroke-linejoin="round" stroke-width=".390712"/><path d="m2.5670257 38.796357 12.8118623.02532-.614998 7.815005c-.03294.418652-.176085.55802-.731668.55802-.731218 0-11.2048149-.01266-12.26629-.01266.091269-.125344.1304022-.386266.130926-.392513z" fill="none" opacity=".465909" stroke="url(#k)" stroke-linecap="round" stroke-width=".390711"/><path d="m0 32h16v16h-16z" fill="#bebebe" opacity="0"/><path d="m15.030085 33.060315c-.319022.31838-.16766.918563-.01491 1.243903.460615.981045-.643093 1.375683-1.000564.728743-.633788-.984137.531044-1.50374 1.015472-1.972646z" style="opacity:.291188;fill:none;stroke-width:.221423;stroke-linejoin:round;stroke-miterlimit:5;stroke:url(#l)"/></g></svg>