<?xml version="1.0" encoding="UTF-8" standalone="no"?>
<svg
   xmlns:osb="http://www.openswatchbook.org/uri/2009/osb"
   xmlns:dc="http://purl.org/dc/elements/1.1/"
   xmlns:cc="http://creativecommons.org/ns#"
   xmlns:rdf="http://www.w3.org/1999/02/22-rdf-syntax-ns#"
   xmlns:svg="http://www.w3.org/2000/svg"
   xmlns="http://www.w3.org/2000/svg"
   xmlns:xlink="http://www.w3.org/1999/xlink"
   xmlns:sodipodi="http://sodipodi.sourceforge.net/DTD/sodipodi-0.dtd"
   xmlns:inkscape="http://www.inkscape.org/namespaces/inkscape"
   version="1.1"
   width="15.999905"
   height="15.999983"
   id="svg2"
   viewBox="0 0 15.999905 15.999983"
   inkscape:version="0.91 r13725"
   sodipodi:docname="gimp-plugin.svg">
  <sodipodi:namedview
     pagecolor="#ffffff"
     bordercolor="#666666"
     borderopacity="1"
     objecttolerance="10"
     gridtolerance="10"
     guidetolerance="10"
     inkscape:pageopacity="0"
     inkscape:pageshadow="2"
     inkscape:window-width="640"
     inkscape:window-height="480"
     id="namedview1696"
     showgrid="false"
     inkscape:zoom="14.763497"
     inkscape:cx="-407.25331"
     inkscape:cy="-129.42337"
     inkscape:window-x="0"
     inkscape:window-y="27"
     inkscape:window-maximized="0"
     inkscape:current-layer="svg2" />
  <metadata
     id="metadata90">
    <rdf:RDF>
      <cc:Work>
        <dc:format>image/svg+xml</dc:format>
        <dc:type
           rdf:resource="http://purl.org/dc/dcmitype/StillImage" />
        <dc:title>Gimp Color Icon Theme</dc:title>
        <dc:contributor>
          <cc:Agent>
            <dc:title>many unknown and unnamed, Andrew Chadwick, Alexandre Prokoudine, Aryeom Han, Benoit Touchette, Jakub Steiner, Jehan, Johannes Matschke, Kevin Payne, Klaus Staedtler, Marek Dvoroznak, Michael Natterer</dc:title>
          </cc:Agent>
        </dc:contributor>
        <dc:description>Enhanced, extended tango-art-libre for GIMP</dc:description>
      </cc:Work>
    </rdf:RDF>
  </metadata>
  <defs
     id="defs7386">
    <linearGradient
       gradientTransform="matrix(0,-735328.32,170712.69,0,2464326300,577972450)"
       osb:paint="solid"
       id="linearGradient19282">
      <stop
         stop-color="#b4b4b4"
         id="stop19284" />
    </linearGradient>
    <linearGradient
       osb:paint="gradient"
       x1="231.55"
       x2="320.70001"
       gradientUnits="userSpaceOnUse"
       id="linearGradient6057"
       gradientTransform="matrix(0.01502614,0,0,0.01468232,2.9686133,1037.3257)">
      <stop
         stop-color="#a11f7c"
         id="stop6053" />
      <stop
         stop-opacity="0.984"
         stop-color="#541f31"
         offset="1"
         id="stop6055" />
    </linearGradient>
    <linearGradient
       id="linearGradient10259">
      <stop
         stop-color="#8ae234"
         id="stop10261" />
      <stop
         stop-color="#4e9a06"
         offset="1"
         id="stop10263" />
    </linearGradient>
    <linearGradient
       id="linearGradient2655">
      <stop
         id="stop2657"
         offset="0"
         style="stop-color:#eeeeec;stop-opacity:1;" />
      <stop
         id="stop2659"
         offset="1"
         style="stop-color:#eeeeec;stop-opacity:0;" />
    </linearGradient>
    <linearGradient
       y2="-11.761294"
       x2="30.935923"
       y1="44.293907"
       x1="30.935923"
       gradientTransform="matrix(0.580111,0,0,0.529015,403.58142,297.36581)"
       gradientUnits="userSpaceOnUse"
       id="linearGradient1925"
       xlink:href="#linearGradient10259" />
    <linearGradient
       y2="-11.761294"
       x2="30.935923"
       y1="44.293907"
       x1="30.935923"
       gradientTransform="matrix(0.580111,0,0,0.529015,403.58142,297.36581)"
       gradientUnits="userSpaceOnUse"
       id="linearGradient1935"
       xlink:href="#linearGradient10259" />
    <linearGradient
       gradientTransform="translate(414.95769,305.04956)"
       gradientUnits="userSpaceOnUse"
       y2="22.408155"
       x2="18.119612"
       y1="-1.7218637"
       x1="0.44194192"
       id="linearGradient2830"
       xlink:href="#linearGradient2655" />
    <linearGradient
       osb:paint="solid"
       id="linearGradient5487">
      <stop
         id="stop5485"
         offset="0"
         style="stop-color:#888a85;stop-opacity:1;" />
    </linearGradient>
  </defs>
  <g
     style="display:inline"
     transform="translate(-38.234711,-149.24835)"
     id="stock">
    <g
       transform="matrix(1.0007265,0,0,1.0009139,38.222993,149.23246)"
       id="gimp-plugin"
       style="display:inline">
      <g
         id="g891"
         transform="matrix(0.186703,0,0,0.186703,-21.1073,57.62299)" />
      <path
         style="color:#000000;display:inline;overflow:visible;visibility:visible;fill:url(#linearGradient1925);fill-opacity:1;fill-rule:nonzero;stroke:#4e9a06;stroke-width:0.99999917;stroke-linecap:square;stroke-linejoin:miter;stroke-miterlimit:4;stroke-dasharray:none;stroke-dashoffset:1.5;stroke-opacity:1;marker:none;marker-start:none;marker-mid:none;marker-end:none"
         d="m 9.087845,0.51597742 c -0.5801115,0 -2.0303895,0.30048037 -2.0303895,1.32253698 C 7.0574555,2.3762421 7.512819,2.4479271 7.5,3.5 l -4,0 0,4 c -1,0 -1.4015319,-1 -2,-1 -1,0 -1,1.5 -0.98398901,2.009229 C 0.54715112,9.49964 0.37923519,11.49573 1.5,11.5 c 0.5,0 1,-1 2,-1 l 0,5 3.974135,-0.0099 C 7.474135,14.167585 6.5,14.558546 6.5,13.5 c 0,-0.793522 1.1298329,-1 2,-1 1.414485,0 2,-0.05855 2,1 0,0.650543 -1,0.941971 -1,2 l 6,0 0,-5.051998 C 14.5,10.5 14.16256,11.5 13.5,11.5 c -0.5,0 -1,-0.5 -1,-2 0,-1.5 0.5,-2 1,-2 1,0 1,1 2,1 l 0,-5 -5,0 c -0.0207,-1.2975569 1.722462,-1.0562274 1.714419,-1.851125 0,-1.1328975 -1.589654,-1.13289758 -3.126574,-1.13289758 z"
         id="path2848"
         inkscape:connector-curvature="0" />
      <path
         style="color:#000000;display:inline;overflow:visible;visibility:visible;fill:url(#linearGradient1935);fill-opacity:1;fill-rule:nonzero;stroke:url(#linearGradient2830);stroke-width:0.99999917;stroke-linecap:square;stroke-linejoin:round;stroke-miterlimit:4;stroke-dasharray:none;stroke-dashoffset:1.5;stroke-opacity:1;marker:none;marker-start:none;marker-mid:none;marker-end:none"
         id="path1933-4"
         d="m 9.09375,1.4570312 c -0.135398,0 -0.5818267,0.067991 -0.8457031,0.1894532 -0.1319382,0.060731 -0.2177962,0.1291192 -0.2441407,0.1601562 -0.026344,0.031037 -0.015625,8.884e-4 -0.015625,0.037109 0,0.010174 -0.025957,-0.074396 0.1210938,0.2109375 0.1470511,0.2853339 0.3244293,0.798567 0.3164062,1.4570313 A 0.92679958,0.92679958 0 0 1 7.5,4.4257812 l -3.0742188,0 0,3.0742188 A 0.92679958,0.92679958 0 0 1 3.5,8.4257812 c -0.8089023,0 -1.4049168,-0.4303844 -1.7441406,-0.7128906 C 1.4898876,7.4913889 1.4981325,7.4993769 1.5546875,7.4882812 c -0.012556,0.028621 -0.012876,0.018636 -0.025391,0.064453 -0.069061,0.25283 -0.079669,0.6825148 -0.072266,0.9179687 0.017981,0.5718817 -0.00855,1.2782849 0.066406,1.7558591 0.016009,0.101999 0.029663,0.109289 0.050781,0.177735 0.058096,-0.04773 0.085634,-0.06929 0.1601562,-0.128906 C 2.0939408,9.987738 2.6910977,9.5742188 3.5,9.5742188 A 0.92679958,0.92679958 0 0 1 4.4257812,10.5 l 0,4.074219 1.453125,0 C 5.6912728,14.289751 5.5742188,13.898705 5.5742188,13.5 c 0,-0.418291 0.1785797,-0.837976 0.4316406,-1.115234 C 6.2589202,12.107507 6.553713,11.948187 6.8398438,11.837891 7.4121053,11.617297 7.9916184,11.574219 8.5,11.574219 c 0.6944569,0 1.2125135,-0.07307 1.847656,0.158203 0.317572,0.115636 0.670828,0.382742 0.855469,0.726562 0.184641,0.343821 0.222656,0.690948 0.222656,1.041016 0,0.400055 -0.165761,0.74369 -0.320312,0.966797 -0.03393,0.04898 -0.05708,0.06539 -0.08984,0.107422 l 3.558594,0 0,-2.541016 c -0.257827,0.204572 -0.57779,0.392578 -1.074219,0.392578 -0.558902,0 -1.164039,-0.356081 -1.482422,-0.886719 C 11.699195,11.008425 11.574219,10.352967 11.574219,9.5 c 0,-0.8529674 0.124976,-1.5084248 0.443359,-2.0390625 0.318383,-0.5306377 0.92352,-0.8867187 1.482422,-0.8867187 0.428887,0 0.784773,0.1453212 1.074219,0.3203124 l 0,-2.46875 -4.074219,0 A 0.92679958,0.92679958 0 0 1 9.5742188,3.515625 C 9.5657321,2.9837787 9.7814839,2.4653641 10.083984,2.1425781 10.376944,1.8299731 10.692036,1.6807408 10.939453,1.5664062 10.521657,1.4799814 9.8317959,1.4570312 9.09375,1.4570312 Z"
         inkscape:connector-curvature="0" />
    </g>
  </g>
</svg>
