<?xml version="1.0" encoding="UTF-8" standalone="no"?>
<svg
   xmlns:osb="http://www.openswatchbook.org/uri/2009/osb"
   xmlns:dc="http://purl.org/dc/elements/1.1/"
   xmlns:cc="http://creativecommons.org/ns#"
   xmlns:rdf="http://www.w3.org/1999/02/22-rdf-syntax-ns#"
   xmlns:svg="http://www.w3.org/2000/svg"
   xmlns="http://www.w3.org/2000/svg"
   xmlns:sodipodi="http://sodipodi.sourceforge.net/DTD/sodipodi-0.dtd"
   xmlns:inkscape="http://www.inkscape.org/namespaces/inkscape"
   version="1.1"
   width="16.000055"
   height="15.999972"
   id="svg2"
   viewBox="0 0 16.000055 15.999973"
   inkscape:version="0.91 r13725"
   sodipodi:docname="gimp-dynamics.svg">
  <sodipodi:namedview
     pagecolor="#ffffff"
     bordercolor="#666666"
     borderopacity="1"
     objecttolerance="10"
     gridtolerance="10"
     guidetolerance="10"
     inkscape:pageopacity="0"
     inkscape:pageshadow="2"
     inkscape:window-width="640"
     inkscape:window-height="480"
     id="namedview1698"
     showgrid="false"
     inkscape:zoom="11.902418"
     inkscape:cx="-417.34455"
     inkscape:cy="837.35565"
     inkscape:window-x="0"
     inkscape:window-y="27"
     inkscape:window-maximized="0"
     inkscape:current-layer="svg2" />
  <metadata
     id="metadata90">
    <rdf:RDF>
      <cc:Work>
        <dc:format>image/svg+xml</dc:format>
        <dc:type
           rdf:resource="http://purl.org/dc/dcmitype/StillImage" />
        <dc:title>Gimp Color Icon Theme</dc:title>
        <dc:contributor>
          <cc:Agent>
            <dc:title>many unknown and unnamed, Andrew Chadwick, Alexandre Prokoudine, Aryeom Han, Benoit Touchette, Jakub Steiner, Jehan, Johannes Matschke, Kevin Payne, Klaus Staedtler, Marek Dvoroznak, Michael Natterer</dc:title>
          </cc:Agent>
        </dc:contributor>
        <dc:description>Enhanced, extended tango-art-libre for GIMP</dc:description>
      </cc:Work>
    </rdf:RDF>
  </metadata>
  <defs
     id="defs7386">
    <linearGradient
       gradientTransform="matrix(0,-735328.32,170712.69,0,2464326300,577972450)"
       osb:paint="solid"
       id="linearGradient19282">
      <stop
         stop-color="#b4b4b4"
         id="stop19284" />
    </linearGradient>
    <linearGradient
       osb:paint="gradient"
       x1="231.55"
       x2="320.70001"
       gradientUnits="userSpaceOnUse"
       id="linearGradient6057"
       gradientTransform="matrix(0.01502614,0,0,0.01468232,2.9686133,1037.3257)">
      <stop
         stop-color="#a11f7c"
         id="stop6053" />
      <stop
         stop-opacity="0.984"
         stop-color="#541f31"
         offset="1"
         id="stop6055" />
    </linearGradient>
    <linearGradient
       osb:paint="solid"
       id="linearGradient5487">
      <stop
         id="stop5485"
         offset="0"
         style="stop-color:#888a85;stop-opacity:1;" />
    </linearGradient>
  </defs>
  <g
     style="display:inline"
     transform="translate(-51.259636,-82.672984)"
     id="stock">
    <g
       transform="matrix(0.80481765,0,0,0.80694224,50.455337,-749.64678)"
       id="gimp-dynamics">
      <path
         style="fill:#f57900;stroke:#542900;stroke-width:0.94537699"
         d="m 2.0119733,1034.6024 c 0.648928,0.5443 1.622296,0.4657 2.173581,-0.1742 0.551553,-0.6408 0.471588,-1.6019 -0.177259,-2.146 -0.649113,-0.5444 -1.622407,-0.4658 -2.173609,0.1741 -0.551501,0.6406 -0.471727,1.6018 0.177287,2.1461 z"
         id="path3997"
         inkscape:connector-curvature="0" />
      <path
         style="fill:#f57900;stroke:#542900;stroke-width:0.94537699"
         d="m 6.9693083,1035.5522 c 0.833963,0.6823 2.068973,0.5657 2.758248,-0.26 0.6898517,-0.8257 0.5718297,-2.049 -0.261849,-2.7312 -0.834057,-0.6825 -2.069067,-0.5658 -2.758443,0.2601 -0.689679,0.8254 -0.571742,2.0487 0.262044,2.7311 z"
         id="path3989"
         inkscape:connector-curvature="0" />
      <path
         style="fill:#3465a4;fill-opacity:1;stroke:#122439"
         id="path4045"
         d="m 17.636674,1039.9422 2.742975,-2.7177 5.3e-5,13.5524 -13.6806057,0 2.743204,-2.7177 c 0,0 -5.48638,-4.7291 -0.926137,-9.2468 4.4584587,-4.2581 9.1202007,1.1295 9.1202007,1.1295 z"
         inkscape:connector-curvature="0" />
      <path
         style="opacity:0.42358099;fill:none;stroke:#ffffff;stroke-linecap:square"
         d="m 15.781042,1039.5854 c 0.991265,0.7191 1.902779,1.7169 1.902779,1.7169 l 1.696975,-1.6697 -0.0025,10.1537 -10.262821,-0.01 1.705471,-1.7211 c -1.864333,-1.7315 -3.301764,-3.7064 -3.099467,-5.7843 0.101903,-1.0438 0.435448,-1.7614 1.512439,-2.8079 1.612187,-1.5666 4.027167,-1.8939 6.546439,0.1192 z"
         id="path4109"
         inkscape:connector-curvature="0" />
      <path
         style="fill:#f57900;stroke:#542900;stroke-width:0.94537699"
         id="path3771"
         d="m 2.4141683,1040.1073 c 0.833865,0.6824 2.068926,0.5658 2.75829,-0.2599 0.689834,-0.8258 0.571727,-2.049 -0.261942,-2.7313 -0.833937,-0.6825 -2.069068,-0.5658 -2.758364,0.26 -0.689661,0.8256 -0.571865,2.0488 0.262016,2.7312 z"
         inkscape:connector-curvature="0" />
    </g>
  </g>
</svg>
