<svg height="16" viewBox="0 0 16 16" width="16" xmlns="http://www.w3.org/2000/svg" xmlns:xlink="http://www.w3.org/1999/xlink"><radialGradient id="a" cx="24.225998" cy="30.479609" gradientTransform="matrix(.72679317 0 0 .31115485 -9.583796 -4.541059)" gradientUnits="userSpaceOnUse" r="13.354399"><stop offset="0" stop-opacity=".278351"/><stop offset="1" stop-color="#a8a8a8" stop-opacity="0"/></radialGradient><linearGradient id="b" gradientTransform="matrix(.39479932 0 0 .37886712 -1.50994 -2.198797)" gradientUnits="userSpaceOnUse" x1="23.433737" x2="23.433737" y1="15.75864" y2="8.047659"><stop offset="0" stop-color="#eeeeec"/><stop offset="1" stop-color="#a3a398"/></linearGradient><g stroke-miterlimit="10" transform="matrix(.63449913 0 0 .69458915 -5.669572 -3.472963)"><path d="m21.464547 5.500002c-4.895979 0-8.876945 1.7334382-8.876946 3.8658299v14.3035631c0 2.132392 3.980966 3.865829 8.876946 3.865829 4.895981 0 9.035466-1.733438 9.035464-3.865829 0-.126218 0-14.177345 0-14.3035631 0-2.1323917-4.139483-3.8658299-9.035464-3.8658299z" display="block" fill="#babdb6" stroke="#767973"/><ellipse cx="24" cy="14.071428" display="block" fill="#d3d7cf" opacity=".236264" rx="12.857142" ry="5.5" stroke-width="1.791129" transform="matrix(.61236 0 0 .509025 6.93016 16.53765)"/><path d="m21.470844 6.4999985c-4.350694 0-7.888282 1.5424173-7.888283 3.4398227v13.0612248c0 1.897408 3.537589 3.439823 7.888283 3.439823 4.350692 0 8.029144-1.542415 8.029142-3.439823 0-.112308 0-12.948914 0-13.0612248 0-1.8974064-3.67845-3.4398227-8.029142-3.4398227z" display="block" fill="none" opacity=".544304"/></g><g stroke-width=".029294" transform="matrix(4.275971 0 0 2.237021 -677.77458 -539.19759)"><path d="m160.15009 244.20423h.35665c.0872 0 .15794.0707.15794.15797v.35668c0 .0872-.0707.15791-.15794.15791h-.35665c-.0873 0-.15797-.0707-.15797-.15791v-.35668c0-.0872.0707-.15797.15797-.15797z" fill="#73d216"/><path d="m160.15009 242.46959h.35665c.0872 0 .15794.0707.15794.15797v.35668c0 .0872-.0707.15791-.15794.15791h-.35665c-.0873 0-.15797-.0707-.15797-.15791v-.35668c0-.0872.0707-.15797.15797-.15797z" fill="#f57900"/><path d="m160.15019 245.0715h.35665c.0872 0 .15794.0707.15794.15791v.35665c0 .0872-.0707.15797-.15794.15797h-.35665c-.0873 0-.15797-.0707-.15797-.15797v-.35665c0-.0872.0707-.15791.15797-.15791z" fill="#3465a4"/><path d="m160.15009 241.6023h.35665c.0872 0 .15794.0707.15794.15791v.35668c0 .0872-.0707.15794-.15794.15794h-.35665c-.0873 0-.15797-.0707-.15797-.15794v-.35668c0-.0872.0707-.15791.15797-.15791z" fill="#edd400"/><path d="m160.15009 243.33694h.35665c.0872 0 .15794.0707.15794.15794v.35664c0 .0872-.0707.15795-.15794.15795h-.35665c-.0873 0-.15797-.0707-.15797-.15795v-.35664c0-.0873.0707-.15794.15797-.15794z" fill="#c17d11"/><path d="m160.17634 245.9171h.35665c.0872 0 .15794.0707.15794.15791v.35665c0 .0873-.0707.15797-.15794.15797h-.35665c-.0873 0-.15797-.0707-.15797-.15797v-.35665c0-.0872.0707-.15791.15797-.15791z" fill="#75507b"/><path d="m160.19011 246.76467h.35665c.0872 0 .15794.0708.15794.15797v.35668c0 .0872-.0707.15797-.15794.15797h-.35665c-.0873 0-.15797-.0708-.15797-.15797v-.35668c0-.0872.0707-.15797.15797-.15797z" fill="#c00"/></g><path d="m.340683.340682h15.318635v15.318635h-15.318635z" fill="none" opacity="0" stroke="#bebebe" stroke-linecap="round" stroke-width=".681365"/><ellipse cx="7.965244" cy="3.132404" rx="5.075991" ry="2.083769" style="display:block;opacity:.773196;stroke-width:.663864;stroke-miterlimit:10;fill:url(#a);stroke:url(#b)"/></svg>