<svg height="12" viewBox="0 0 12 12" width="12" xmlns="http://www.w3.org/2000/svg" xmlns:xlink="http://www.w3.org/1999/xlink"><radialGradient id="a" cx="-192.8755409744" cy="88.7603693119" gradientUnits="userSpaceOnUse" r="221.344931517"><stop offset="0" stop-color="#709bd2"/><stop offset="1" stop-color="#3465a4"/></radialGradient><linearGradient id="b" gradientTransform="matrix(19.3538 0 0 19.3543 -6293.4268 -4355.62)" gradientUnits="userSpaceOnUse" x1="305.45834" x2="314.41666"><stop offset="0" stop-color="#fff" stop-opacity=".796078"/><stop offset="1" stop-color="#fff" stop-opacity=".215686"/></linearGradient><linearGradient id="c" gradientUnits="userSpaceOnUse" x1="85.129272" x2="92.710503" y1="210.45889" y2="210.40614"><stop offset="0" stop-color="#ece9e4"/><stop offset="1" stop-color="#ece9e4" stop-opacity="0"/></linearGradient><g transform="translate(0 -1040.3622)"><path d="m.499952 1040.8622h11.000095v11.000095h-11.000095z" fill="#555753" opacity=".61" stroke="#000" stroke-linecap="round" stroke-width=".999905"/><g transform="matrix(-.03295871603 0 0 .03295765249 -3.72185204978 1045.1560115475)"><path d="m-294.97129-76.100257c62.2081 0 112.69583 50.488972 112.69583 112.698599s-50.48773 112.698598-112.69583 112.698598c-62.20809 0-112.69582-50.488971-112.69582-112.698598s50.48773-112.698599 112.69582-112.698599zm0 34.676492c-43.06714 0-78.02018 34.9539039-78.02018 78.022107 0 43.068203 34.95304 78.022108 78.02018 78.022108 43.06715 0 78.02019-34.953905 78.02019-78.022108 0-43.0682031-34.95304-78.022107-78.02019-78.022107z" fill="#3465a4" stroke="#204a87" stroke-width="17.337999"/><g fill="none"><circle cx="-126" cy="184.5" r="107.19725" stroke="url(#a)" stroke-width="19.444" transform="matrix(.890153 0 0 .893231 -182.812 -128.53)"/><ellipse cx="-294.95837" cy="36.596455" rx="78.019997" ry="78.022018" stroke="url(#b)" stroke-width="17.338036"/></g></g><ellipse cx="89.632065" cy="210.40614" fill="none" rx="2.517056" ry="2.538314" stroke="url(#c)" stroke-linecap="round" stroke-linejoin="round" stroke-width="1.122767" transform="matrix(.73093404 0 0 .72614276 -59.514991 893.57648)"/></g></svg>