<svg height="16" viewBox="0 0 16 16" width="16" xmlns="http://www.w3.org/2000/svg" xmlns:xlink="http://www.w3.org/1999/xlink"><linearGradient id="a" gradientTransform="matrix(.3410129 0 0 .39513284 572.96639 416.15408)" gradientUnits="userSpaceOnUse" x1="83.031731" x2="66.311295" y1="40.924026" y2="22.765684"><stop offset="0" stop-color="#d0d0d0"/><stop offset="1" stop-color="#ececec"/></linearGradient><linearGradient id="b" gradientTransform="matrix(.51166 0 0 .475019 3.220846 5.837432)" gradientUnits="userSpaceOnUse" x1="34.197105" x2="17.160702" y1="33.725819" y2="17.396523"><stop offset="0" stop-color="#d3d7cf"/><stop offset="1" stop-color="#eeeeec"/></linearGradient><linearGradient id="c" gradientTransform="matrix(.462962 0 0 .466802 21.0145 5.928547)" gradientUnits="userSpaceOnUse" x1="-11.986486" x2="-11.986486" y1="13.122552" y2="29.726542"><stop offset="0" stop-color="#555753"/><stop offset="1" stop-color="#fcaf3e"/></linearGradient><radialGradient id="d" cx="-6.007017" cy="32.837029" gradientTransform="matrix(.462962 0 0 .44272 14.86446 6.713194)" gradientUnits="userSpaceOnUse" r="9.90625"><stop offset="0" stop-color="#fce94f"/><stop offset="1" stop-color="#fce94f" stop-opacity="0"/></radialGradient><linearGradient id="e" gradientTransform="matrix(.462962 0 0 .461866 4.347921 5.985305)" gradientUnits="userSpaceOnUse" x1="25.355263" x2="25.355263" y1="34.006802" y2="32.409008"><stop offset="0" stop-color="#2e3436"/><stop offset="1" stop-color="#2e3436" stop-opacity="0"/></linearGradient><linearGradient id="f" gradientTransform="matrix(.31330834 0 0 .31859479 11.429497 -328.71148)" gradientUnits="userSpaceOnUse" x1="8.133539" x2="18.520508" y1="1044.246" y2="1044.1835"><stop offset="0" stop-color="#ff3200"/><stop offset="1" stop-color="#ff3200" stop-opacity="0"/></linearGradient><path d="m7.030004 10.423256h11.827098v9.118933h-11.827098z" style="fill-rule:evenodd;stroke:#9b9c98;stroke-width:1.003793;stroke-linecap:round;stroke-linejoin:round;stroke-miterlimit:10;fill:url(#a)" transform="matrix(1.0047718 0 -.33483948896 .98787664855 .011576 -3.801083)"/><path d="m8.176715 11.496682h9.632398v5.792974h-9.632398z" fill="#d3d7cf" fill-rule="evenodd" stroke="#fff" stroke-miterlimit="10" stroke-width="1.06549" transform="matrix(1.0047718 0 -.33355909821 .98834755758 .011576 -3.801083)"/><g transform="matrix(.47825773 0 0 .49998853 -1.91299841293 -3.4996596409)"><rect fill="url(#b)" height="19.00001" rx="1.822914" ry="1.818598" stroke="#8a8a8a" stroke-linecap="round" stroke-linejoin="round" stroke-width=".999999" width="22.000015" x="4.500001" y="7.499998"/><rect fill="url(#c)" height="11.203236" rx=".202546" ry=".202066" stroke="#888a85" stroke-linecap="round" stroke-linejoin="round" stroke-width=".999999" width="16.216183" x="7.357145" y="11.296763"/><path d="m11.79411 16.401215c-2.392951.151471-4.296871 2.150075-4.296871 4.575364 0 .09366.00889.181964.014468.274234h9.143509c.0056-.09227.01447-.180574.01447-.274234 0-2.523879-2.056354-4.575364-4.586223-4.575364-.09882 0-.192077-.0062-.289351 0z" fill="url(#d)" fill-rule="evenodd"/><path d="m7.588659 21.226898h15.740722v.923733h-15.740722z" fill="url(#e)"/><rect fill="none" height="16.99999" rx="1.42609" ry="1.422712" stroke="#fff" stroke-linecap="round" stroke-linejoin="round" stroke-width=".999999" width="20.000008" x="5.500004" y="8.499998"/><g fill-rule="evenodd"><path d="m18.031043 21.675958s-.257213-1.424098-.257213-2.296525c.0071-.39799 3.604954-3.498458 3.614237-3.960285l-.836462.727219-.585726-1.589717 1.974613.204118.925925-.923733-1.048689.768044-.360661-.08165-.4425-1.610129.22506 1.569306-1.63441-.08165.511509 1.29875-1.416971-1.400809 1.498813 1.949752c.000037.43486-2.954107 3.089518-2.949079 2.631777l-1.225207-1.639426-.102301-2.216308.925925-.263924.811179-1.99555-1.069313 1.844378-.834796-.03774-1.868696-1.574507-2.565841-.979767 2.192051 1.201894-1.757172.155689h2.314813l1.388887 1.385599.163681 2.393383-2.478493-2.393383 1.042268 1.250322-1.505231 1.05901 1.653439-.923733 2.615524 3.286696-.1023 2.242895h1.183137z"/><path d="m11.925565 18.563623c-1.305803.08266-2.344749 1.17327-2.344749 2.49672 0 .05111.00485.0993.00789.149646h4.989498c.003-.05035.0079-.09854.0079-.149646 0-1.377249-1.122129-2.49672-2.502647-2.49672-.05393 0-.104814-.0034-.157896 0z" fill="#fef39e"/><path d="m11.963041 19.163267c-.995873.06304-1.788226.894796-1.788226 1.904128 0 .03898.0037.07573.006.114127h3.805249c.0023-.0384.006-.07515.006-.114127 0-1.050362-.855793-1.904128-1.908647-1.904128-.04113 0-.07994-.0026-.12042 0z" fill="#fffbd7" fill-opacity=".556818"/></g></g><path d="m14.114953 2.0791557a.31333967.31862665 0 0 1 .06915.00733.31333967.31862665 0 0 1 .156653.5476006l-1.026815 1.0441296h2.606211v.6371896h-2.608659l1.029266 1.0466475a.31846728.32384078 0 1 1 -.45038.45798l-1.566541-1.5929739-.2154-.2290059.2154-.2289741 1.566541-1.5929739a.31333967.31862665 0 0 1 .224578-.097076z" fill="#ff4b00" stroke="url(#f)" stroke-width=".15797"/></svg>