<svg height="16" viewBox="0 0 16 16" width="16" xmlns="http://www.w3.org/2000/svg"><path d="m.50007714 16v-15.49992286h15.49992286" fill="none" stroke="#000" stroke-width="1.000154"/><path d="m4.5059029 16v-11.4997638h11.4997641" fill="none" stroke="#000" stroke-width="1.000472"/><g fill="#fff"><path d="m1-1h3v1h-3z" transform="rotate(90)"/><path d="m6.5-1h3v1h-3z" transform="rotate(90)"/><path d="m12-1h3v1h-3z" transform="rotate(90)"/><path d="m1 0h3v1h-3z"/><path d="m6.5 0h3v1h-3z"/><path d="m12 0h3v1h-3z"/><path d="m5-5h3v1h-3z" transform="rotate(90)"/><path d="m11-5h3v1h-3z" transform="rotate(90)"/><path d="m5 4h3v1h-3z"/><path d="m11 4h3v1h-3z"/></g></svg>