<svg height="16" viewBox="0 0 16 16" width="16" xmlns="http://www.w3.org/2000/svg" xmlns:xlink="http://www.w3.org/1999/xlink"><radialGradient id="a" cx="2.96875" cy="14.025855" gradientTransform="matrix(.99999742 -.00227153 .00132959 .58532608 -.018641 5.8229)" gradientUnits="userSpaceOnUse" r="1.823314"><stop offset="0" stop-color="#a3bedd"/><stop offset="1" stop-color="#487cbc"/></radialGradient><filter id="b" color-interpolation-filters="sRGB" height="1.142182" width="1.145865" x="-.072932" y="-.071091"><feGaussianBlur stdDeviation=".35664777"/></filter><filter id="c" color-interpolation-filters="sRGB" height="1.618468" width="1.304408" x="-.152204" y="-.309234"><feGaussianBlur stdDeviation=".2895974"/></filter><g transform="translate(0 -1036.3622)"><path d="m0 1036.3623h16v15.999915h-16z" fill="none" opacity=".3"/><path d="m4.0230549 1046.3622-4.0230549-4h8z" fill="#f57900"/><path d="m-3.5552301-1044.317a5.28018 5.5532227 0 0 1 -3.2777303 5.1384 5.28018 5.5532227 0 0 1 -5.7638156-1.2411 5.28018 5.5532227 0 0 1 -1.093997-6.0796 5.28018 5.5532227 0 0 1 4.9340443-3.3703" fill="none" stroke="#f57900" stroke-width="1.937676" transform="scale(-1)"/><circle cx="2.96875" cy="13" fill="url(#a)" r="1.5625" stroke="#154384" stroke-width=".775171" transform="matrix(1.28195738111 0 0 1.28187002005 -.30588501579 1033.19813647953)"/><ellipse cx="4.651437" cy="2.300447" fill="#adc5e1" rx="1.756718" ry="1.204291" transform="matrix(.66870518 0 0 .66865961 .386377979 1047.46592837175)"/><path d="m9.5479394 1050.2853c2.1890946.034 3.9416466-1.9312 4.7938576-3.9748.85221-2.0435.416258-4.411-1.111328-6-1.527587-1.5889-4.2336142-2.6073-6.2559963-1.7579s-3.938701 3.3098-3.938701 5.5285c0 0 .8321601 2.4839.9274611-.053.065307-1.7383 1.4573886-4.0062 3.23374-4.6264 1.7856564-.6235 4.1806362.2045 5.4389942 1.6165 1.160215 1.3019 1.506234 3.5156.905322 5.1527-.596495 1.625-2.49311 3.3417-3.9943359 3.3187z" fill="#ff0" filter="url(#b)" transform="matrix(1.0040009 0 0 1.0179355 -.18853 -18.632241)"/><path d="m3.9914218 1045.6672-2.296388-2.2476h4.5664565z" fill="#edd400" filter="url(#c)" transform="matrix(1.0147082 0 0 .95240848 -.036775 49.776585)"/></g></svg>