<svg height="16" viewBox="0 0 16 16" width="16" xmlns="http://www.w3.org/2000/svg" xmlns:xlink="http://www.w3.org/1999/xlink"><linearGradient id="a"><stop offset="0" stop-color="#eeeeec"/><stop offset="1" stop-color="#a3a398"/></linearGradient><linearGradient id="b" gradientUnits="userSpaceOnUse" x1="24" x2="23.433737" xlink:href="#a" y1="17.245949" y2="8.047659"/><linearGradient id="c" gradientTransform="matrix(.593728 0 0 .590305 7.25337 .782569)" gradientUnits="userSpaceOnUse" x1="17.160095" x2="37.969398" y1="14.004482" y2="56.575912"><stop offset="0" stop-color="#fff"/><stop offset="1" stop-color="#fff" stop-opacity="0"/></linearGradient><radialGradient id="d" cx="24.225998" cy="30.479609" gradientTransform="matrix(1.840918 0 0 .821277 -20.45053 -6.182276)" gradientUnits="userSpaceOnUse" r="13.354399"><stop offset="0" stop-opacity=".278351"/><stop offset="1" stop-color="#a8a8a8" stop-opacity="0"/></radialGradient><linearGradient id="e" gradientUnits="userSpaceOnUse" x1="23.433737" x2="23.433737" xlink:href="#a" y1="15.75864" y2="8.047659"/><path d="m0 0h16v16h-16z" fill="#73d216" opacity="0"/><g stroke-miterlimit="10"><g transform="matrix(.6344921824 0 0 .40965631896 -5.66948811815 4.5148653236)"><path d="m21.464547 5.500002c-4.895979 0-8.876945 1.7334382-8.876946 3.8658299v14.3035631c0 2.132392 3.980966 3.865829 8.876946 3.865829 4.895981 0 9.035466-1.733438 9.035464-3.865829 0-.126218 0-14.177345 0-14.3035631 0-2.1323917-4.139483-3.8658299-9.035464-3.8658299z" display="block" fill="#323232" stroke="#767973"/><ellipse cx="24" cy="14.071428" display="block" fill="#d3d7cf" opacity=".236264" rx="12.857142" ry="5.5" stroke="url(#b)" stroke-width="1.791129" transform="matrix(.61236 0 0 .509025 6.93016 16.53765)"/><path d="m21.470844 6.4999985c-4.350694 0-7.888282 1.5424173-7.888283 3.4398227v13.0612248c0 1.897408 3.537589 3.439823 7.888283 3.439823 4.350692 0 8.029144-1.542415 8.029142-3.439823 0-.112308 0-12.948914 0-13.0612248 0-1.8974064-3.67845-3.4398227-8.029142-3.4398227z" display="block" fill="none" opacity=".544304" stroke="url(#c)"/><ellipse cx="24" cy="14.071428" display="block" fill="url(#d)" opacity=".773196" rx="12.857142" ry="5.5" stroke="url(#e)" stroke-width="1.716514" transform="matrix(.622222 0 0 .545455 6.56666 1.824673)"/></g><g transform="matrix(.63451331275 0 0 .43061064042 -5.6697441224 -2.15324990612)"><path d="m21.464547 5.500002c-4.895979 0-8.876945 1.7334382-8.876946 3.8658299v14.3035631c0 2.132392 3.980966 3.865829 8.876946 3.865829 4.895981 0 9.035466-1.733438 9.035464-3.865829 0-.126218 0-14.177345 0-14.3035631 0-2.1323917-4.139483-3.8658299-9.035464-3.8658299z" display="block" fill="#d2d2d2" stroke="#767973"/><ellipse cx="24" cy="14.071428" display="block" fill="#d3d7cf" opacity=".236264" rx="12.857142" ry="5.5" stroke="url(#b)" stroke-width="1.791129" transform="matrix(.61236 0 0 .509025 6.93016 16.53765)"/><path d="m21.470844 6.4999985c-4.350694 0-7.888282 1.5424173-7.888283 3.4398227v13.0612248c0 1.897408 3.537589 3.439823 7.888283 3.439823 4.350692 0 8.029144-1.542415 8.029142-3.439823 0-.112308 0-12.948914 0-13.0612248 0-1.8974064-3.67845-3.4398227-8.029142-3.4398227z" display="block" fill="none" opacity=".544304" stroke="url(#c)"/><ellipse cx="24" cy="14.071428" display="block" fill="url(#d)" opacity=".773196" rx="12.857142" ry="5.5" stroke="url(#e)" stroke-width="1.716514" transform="matrix(.622222 0 0 .545455 6.56666 1.824673)"/></g></g></svg>