<svg height="16" viewBox="0 0 16 16" width="16" xmlns="http://www.w3.org/2000/svg"><path d="m.020249 0h15.978716v16h-15.978716z" opacity="0"/><path d="m.21097146.26983607v1.05191703 8.4153362 1.0252097.02671h1.05780574v-.02671c3.1535198-.03167 6.4071291.02787 9.5202518.02671v-10.51916241h-.059872-9.4603375-1.05780572zm1.05780574 1.05191703h8.4624457v8.4153362h-8.4624457z" fill="#3465a4" stroke="#204a87" stroke-width=".421943"/><g fill="#729fcf"><path d="m10.769399 10.864101 4.596995 4.6468.359141-1.10821-4.897205-4.6736016z" stroke="#204a87" stroke-width=".425294"/><path d="m.22024913 1.8083144 4.99999997 4.8365891v-1.4690494l-5.00760227-4.84362636z" stroke="#3565a4" stroke-linejoin="round" stroke-width=".425294"/><path d="m10.862727 1.5 4.837273 4.9c.03027-.3444335.06229-.6331487.05-1.2l-4.904-4.9z" stroke="#204a87" stroke-linecap="round" stroke-linejoin="round" stroke-width=".425717"/><path d="m.22024913 11.420654 4.99999997 4.321158.033389-1.28203-5.03338897-4.332952z" stroke="#3565a4" stroke-linejoin="round" stroke-width=".425294"/></g><path d="m5.2102093 5.2102264v9.5111336 1.029961.02684h1.0453316l-1.0601336.01163c7.3089887-.02652 7.6748337-.01163 10.5904317-.01163-.01327-3.50982.01244-7.01964.00001-10.5294703-3.436225-.0398389-7.2236377.0143743-10.575598-.0384647zm1.0453316 1.0567926h8.3626521l-.06115 8.377439-8.3014897.07693z" fill="#3465a4" stroke="#204a87" stroke-width=".420419"/></svg>