<svg height="16" viewBox="0 0 16 16" width="16" xmlns="http://www.w3.org/2000/svg" xmlns:xlink="http://www.w3.org/1999/xlink"><linearGradient id="a" gradientTransform="matrix(.9768664 0 0 .98574762 .831469 .658482)" gradientUnits="userSpaceOnUse" x1="6.107174" x2="33.857143" y1="10.45129" y2="37.87986"><stop offset="0" stop-color="#c68827"/><stop offset="1" stop-color="#89601f"/></linearGradient><linearGradient id="b" gradientTransform="matrix(1.0139793 0 0 .99975969 -.129055 .005884)" gradientUnits="userSpaceOnUse" x1="26.076092" x2="30.811172" y1="26.696676" y2="42.007351"><stop offset="0" stop-color="#fff"/><stop offset="1" stop-color="#fff" stop-opacity="0"/></linearGradient><linearGradient id="c" gradientTransform="matrix(1.052632 0 0 1 -1.789474 0)" gradientUnits="userSpaceOnUse" x1="25.404572" x2="25.464211" xlink:href="#d" y1="3.818019" y2="9.323351"/><linearGradient id="d"><stop offset="0" stop-color="#97978a"/><stop offset=".5" stop-color="#c2c2b9"/><stop offset="1" stop-color="#7d7d6f"/></linearGradient><linearGradient id="e" gradientTransform="matrix(.538743 0 0 .511806 10.8008 -.58264)" gradientUnits="userSpaceOnUse" x1="25.404572" x2="25.404572" xlink:href="#d" y1="3.818019" y2="6.481061"/><g transform="matrix(.30679594482 0 0 .21717236738 .55720070698 3.00020390753)"><g fill-rule="evenodd"><rect fill="url(#a)" height="40.460438" rx="1.355829" ry="1.368155" stroke="#714c16" stroke-width=".981297" width="38.132648" x="5.192512" y="5.094347"/><rect fill="#eeeeec" height="35.828964" rx=".578136" ry=".564182" stroke="#888a85" stroke-width="1.008134" width="31.586821" x="8.466361" y="6.673341"/><rect fill="#5c5c5c" height="4" rx=".983875" width="12" x="18"/></g><path d="m9.52113 7.470676h29.419744v34.032585h-29.419744z" fill="none" stroke="url(#b)" stroke-width="1.006845"/><rect fill="none" height="39.092987" rx=".478798" stroke="#c68827" width="37.085655" x="5.439343" y="5.430778"/><rect fill-rule="evenodd" height="7" opacity=".107955" rx="1.387938" ry="1.387936" stroke="#000" width="18.947376" x="14.791488" y="4.472272"/><rect fill="url(#c)" fill-rule="evenodd" height="7" rx="1.387938" ry="1.387936" stroke="#5c5c5c" width="18.947376" x="14.526322" y="3.5"/><rect fill="url(#e)" fill-rule="evenodd" height="3.58264" rx=".325436" width="9.697376" x="19.151323" y="1.208679"/><path d="m39.558785 42.17935-8.996289-.16104c5.204097-1.914843 9.066019-9.725123 8.996289.16104z" fill="none" opacity=".488636"/><path d="m30.7208 42.086864c1.791141.167652 8.576153-3.668487 9.067266-7.68691-2.886699.0861-4.789521.09899-8.898279.258003z" fill="#babdb6" fill-rule="evenodd" stroke="#868a84"/></g><path d="m.50002187.5000215h14.99995613v14.9999565h-14.99995613z" fill="none" stroke="#000" stroke-width="1.000044"/><g fill="#fff"><path d="m1 0h.999151v1h-.999151z"/><path d="m3.159402 0h.999151v1h-.999151z"/><path d="m5.318804 0h.999151v1h-.999151z"/><path d="m7.478206 0h.999151v1h-.999151z"/><path d="m9.637608 0h.999151v1h-.999151z"/><path d="m11.79701 0h.999151v1h-.999151z"/><path d="m13.956413 0h.999151v1h-.999151z"/><path d="m1.015835 15h.999151v1h-.999151z"/><path d="m3.175237 15h.999151v1h-.999151z"/><path d="m5.334639 15h.999151v1h-.999151z"/><path d="m7.494041 15h.999151v1h-.999151z"/><path d="m9.653443 15h.999151v1h-.999151z"/><path d="m11.812845 15h.999151v1h-.999151z"/><path d="m13.972248 15h.999151v1h-.999151z"/><g transform="matrix(0 -1 1 0 -2.349706 16.00575)"><path d="m1.00575 2.349706h.999151v1h-.999151z"/><path d="m3.165152 2.349706h.999151v1h-.999151z"/><path d="m5.324554 2.349706h.999151v1h-.999151z"/><path d="m7.483956 2.349706h.999151v1h-.999151z"/><path d="m9.643358 2.349706h.999151v1h-.999151z"/><path d="m11.80276 2.349706h.999151v1h-.999151z"/><path d="m13.962163 2.349706h.999151v1h-.999151z"/></g><g transform="matrix(0 1 -1 0 18.349706 .038686)"><path d="m1.00575 2.349706h.999151v1h-.999151z"/><path d="m3.165152 2.349706h.999151v1h-.999151z"/><path d="m5.324554 2.349706h.999151v1h-.999151z"/><path d="m7.483956 2.349706h.999151v1h-.999151z"/><path d="m9.643358 2.349706h.999151v1h-.999151z"/><path d="m11.80276 2.349706h.999151v1h-.999151z"/><path d="m13.962163 2.349706h.999151v1h-.999151z"/></g></g></svg>