<svg height="16" viewBox="0 0 16 16" width="16" xmlns="http://www.w3.org/2000/svg" xmlns:xlink="http://www.w3.org/1999/xlink"><linearGradient id="a"><stop offset="0" stop-color="#fff" stop-opacity=".796078"/><stop offset="1" stop-color="#fff" stop-opacity=".215686"/></linearGradient><radialGradient id="b" cx="18.557627" cy="22.300018" gradientTransform="matrix(.61738346 .00180157 -.00131776 .45158584 -5.868912 1033.0796)" gradientUnits="userSpaceOnUse" r="19.2292"><stop offset="0" stop-color="#857c63"/><stop offset="1" stop-color="#221f19"/></radialGradient><radialGradient id="c" cx="6.02422" cy="25.27103" gradientTransform="matrix(.31906576 .03245368 -.037879 .37240249 -607.93398 839.24516)" gradientUnits="userSpaceOnUse" r="4.831029"><stop offset="0" stop-color="#5b676b"/><stop offset="1" stop-color="#141718"/></radialGradient><radialGradient id="d" cx="69.473244" cy="19.597878" gradientTransform="matrix(.78341761 0 0 .77248826 -43.857771 1026.4587)" gradientUnits="userSpaceOnUse" r="3.515314"><stop offset="0" stop-color="#fff"/><stop offset="1" stop-color="#b9b9b0"/></radialGradient><linearGradient id="e" gradientTransform="matrix(.28037346 0 0 .28213736 -669.22303 714.69705)" gradientUnits="userSpaceOnUse" x1="238.07204" x2="241.94255" xlink:href="#a" y1="455.61646" y2="456.64612"/><radialGradient id="f" cx="9.729034" cy="1048.0935" gradientTransform="matrix(1.3721366 -.38472605 .92782403 3.3091108 -976.23495 -2416.4771)" gradientUnits="userSpaceOnUse" r="1.667244"><stop offset="0" stop-color="#ef2929"/><stop offset="1" stop-color="#ef2929" stop-opacity="0"/></radialGradient><filter id="g" color-interpolation-filters="sRGB" height="2.0272" width="2.0272" x="-.5136" y="-.5136"><feGaussianBlur stdDeviation=".19191868"/></filter><linearGradient id="h" gradientUnits="userSpaceOnUse" x1="14.96875" x2="39.524544" xlink:href="#a" y1="19.11068" y2="46.98568"/><g transform="translate(0 -1036.36219)"><path d="m.207753 1036.5699h15.584494v15.584494h-15.584494z" fill="none" opacity="0" stroke="#000" stroke-linecap="round" stroke-width=".415506"/><g stroke-miterlimit="10"><path d="m3.415463 1039.7529s.9950614 2.0673 3.337208 2.0159c4.908263-.1088 5.696862-2.646 6.229308-3.2772 1.719687 14.8592-11.1064629 8.5336-11.5506027 6.0577 2.5263128-.7315 1.9147967-2.1492 1.9147967-2.1492z" fill="url(#b)" fill-rule="evenodd" stroke="#2e3436" stroke-width=".342569"/><path d="m10.20941 1045.4866c.21098.2994.30366.9652-.06486 1.0893-.3562086.12-1.3563651.2226-1.3563651.2226-4.513565-.438-2.9869597-1.5622-.2868607-1.7221.6934239 0 1.489142.3427 1.7080858.4102z" fill-rule="evenodd" stroke-width=".344553"/><path d="m55.982422 11.464844c-.559728.934477-1.401421 2.056988-2.69336 3.130859-2.627217 2.183768-7.038435 4.183821-14.269531 4.365235-4.227328.105122-6.951762-1.956149-8.625-3.775391l-.103515 4.484375c.134837.418235.393122 1.394849-.08789 2.722656-.516707 1.426339-2.162779 2.866699-4.970703 3.97461.249023.522741.481717 1.072908 1.240234 1.814453 1.028124 1.005117 2.478226 2.08191 4.177735 3.05664 3.399016 1.949462 7.804707 3.488614 11.910156 3.558594 4.105448.06998 7.837138-1.225365 10.417969-4.990234 2.383441-3.476921 3.695078-9.381018 3.003906-18.341797z" fill="none" opacity=".185393" stroke="url(#h)" stroke-width=".983645" transform="matrix(.34826313 .00101626 -.00101626 .34826313 -6.849486 1035.2512)"/><ellipse cx="-606.94312" cy="849.78296" fill="url(#c)" fill-rule="evenodd" rx="1.508344" ry="2.123995" stroke="#000" stroke-width=".342569" transform="matrix(.8126875 -.58269977 .58269977 .8126875 0 0)"/><ellipse cx="4.25249" cy="1043.494" fill="#fff" fill-rule="evenodd" rx=".615651" ry=".738781" stroke-width=".348265" transform="matrix(.99999574 .00291807 -.00291807 .99999574 0 0)"/><circle cx="7.100138" cy="1042.2906" fill="#eeeeec" fill-rule="evenodd" r="1.108172" stroke="#888a85" stroke-width=".342569" transform="matrix(.99999574 .00291807 -.00291807 .99999574 0 0)"/><ellipse cx="10.568798" cy="1042.9098" fill="url(#d)" fill-rule="evenodd" rx="1.890666" ry="1.864289" stroke="#888a85" stroke-width=".386913" transform="matrix(.99999586 .00287735 -.00295936 .99999562 0 0)"/><ellipse cx="10.617598" cy="1042.2598" fill="#2e3436" fill-rule="evenodd" rx=".91032" ry=".897621" stroke="#000" stroke-width=".393346" transform="matrix(.99999586 .00287735 -.00295936 .99999562 0 0)"/><ellipse cx="10.597224" cy="1041.7557" fill="#fff" fill-rule="evenodd" rx=".630222" ry=".62143" stroke-width=".354012" transform="matrix(.99999586 .00287735 -.00295936 .99999562 0 0)"/><circle cx="7.458066" cy="1042.4446" fill="#2e3436" fill-rule="evenodd" r=".492521" stroke="#000" stroke-width=".348265" transform="matrix(.99999574 .00291807 -.00291807 .99999574 0 0)"/><circle cx="7.639216" cy="1042.6647" fill="#fff" fill-rule="evenodd" r=".340976" stroke-width=".192885" transform="matrix(.99999574 .00291807 -.00291807 .99999574 0 0)"/><ellipse cx="-599.14825" cy="844.06531" fill="none" opacity=".25" rx="1.234497" ry="1.749309" stroke="url(#e)" stroke-width=".281254" transform="matrix(.80724286 -.59021942 .5751774 .8180287 0 0)"/></g><path d="m8.0870262 1046.2113 1.566596-.5844s1.4214158 1.3056 1.4125708 2.3812c-.0027.3345-.0288.8303-.240682 1.1658-.201191.3186-.535044.5939-.9013492.6821-.4172117.1004-.8885512-.023-1.2677179-.2244-.2188099-.116-.4434362-.2966-.5178127-.5328-.1346825-.4277.2177345-.8795.2157819-1.3279-.0023-.5274-.2673869-1.5596-.2673869-1.5596z" fill="#fff" stroke="#a40000" stroke-width=".32411"/><path d="m8.0870262 1046.2113 1.566596-.5844s1.4214158 1.3056 1.4125708 2.3812c-.0027.3345-.0288.8303-.240682 1.1658-.201191.3186-.535044.5939-.9013492.6821-.4172117.1004-.8885512-.023-1.2677179-.2244-.2188099-.116-.4434362-.2966-.5178127-.5328-.1346825-.4277.2177345-.8795.2157819-1.3279-.0023-.5274-.2673869-1.5596-.2673869-1.5596z" fill="url(#f)" stroke="#a40000" stroke-width=".32411"/><path d="m9.29355 1046.5393.099936-.067s.5232436.7024.664079 1.3824c.159282.769-.02341.6113-.068379.2424-.065377-.5361-.4091674-1.0716-.4091674-1.0716z" fill="#a40000" stroke="#a40000" stroke-width=".113006"/><circle cx="9.569283" cy="1048.6467" fill="#c00" filter="url(#g)" r=".448408" transform="matrix(1.3948446 0 0 1.8737411 -3.765192 -917.15571)"/></g></svg>