<svg height="16" viewBox="0 0 16 16" width="16" xmlns="http://www.w3.org/2000/svg" xmlns:xlink="http://www.w3.org/1999/xlink"><linearGradient id="a" gradientUnits="userSpaceOnUse" x1="69.1875" x2="76.0625" y1="234.1875" y2="252.02119"><stop offset="0" stop-color="#fff"/><stop offset="1" stop-color="#fff" stop-opacity=".236052"/></linearGradient><g stroke-linecap="round" transform="matrix(.88888939 0 0 .88888939 -61.333341 -208.88902)"><path d="m70.021817 235.5071v3.84054c.324171.0931.674284.15612 1.029442.15612 1.988883 0 3.603048-1.56669 3.603048-3.49708 0-.16751-.0082-.33834-.03222-.49958zm11.870705 0c-.02347.16124-.03212.33207-.03212.49958 0 1.93039 1.614165 3.49708 3.603048 3.49708.355158 0 .705271-.0631 1.029442-.15612v-3.84054zm-3.635166 4.99582c-1.988883 0-3.603049 1.56669-3.603049 3.49708s1.614166 3.49708 3.603049 3.49708c1.988882 0 3.603048-1.56669 3.603048-3.49708s-1.614166-3.49708-3.603048-3.49708zm-7.206097 7.99332c-.549002 0-1.078341.13002-1.544164.34347v3.65319h5.114991c.02357-.16124.03222-.33208.03222-.49958 0-1.93039-1.614165-3.49708-3.603047-3.49708zm14.412193 0c-1.988883 0-3.603048 1.56669-3.603048 3.49708h4.63249v-3.34096c-.324171-.0931-.674284-.15612-1.029442-.15612z" fill="#c00" stroke="#c00" stroke-width="1.014191"/><g fill="none"><path d="m69.562227 235.56227h16.875475v16.87548h-16.875475z" stroke="#555753" stroke-width="1.124515"/><path d="m70.5 236.4998h15.00001v15.0001h-15.00001z" stroke="url(#a)" stroke-width=".999999"/></g></g></svg>