<svg height="16.032377" viewBox="0 0 16 16.032377" width="16" xmlns="http://www.w3.org/2000/svg" xmlns:xlink="http://www.w3.org/1999/xlink"><linearGradient id="a"><stop offset="0" stop-color="#424242"/><stop offset="1" stop-color="#777"/></linearGradient><linearGradient id="b" gradientUnits="userSpaceOnUse" x1="-222.449247" x2="-208.829251" xlink:href="#a" y1="862.166035" y2="862.166035"/><linearGradient id="c" gradientUnits="userSpaceOnUse" x1="753.84906551372" x2="752.83406710501" xlink:href="#a" y1="258.4400337909" y2="248.5989853659"/><linearGradient id="d" gradientUnits="userSpaceOnUse" x1="755.43663106452" x2="755.39340077954" y1="260.63593027009" y2="258.70679174509"><stop offset="0" stop-color="#6194cb"/><stop offset="1" stop-color="#729fcf"/></linearGradient><linearGradient id="e" gradientTransform="matrix(.51475824 0 0 .31892069 746.42857 245.66926)" gradientUnits="userSpaceOnUse" x1="13.035696" x2="12.853771" y1="32.567184" y2="46.689312"><stop offset="0" stop-color="#fff" stop-opacity=".796078"/><stop offset="1" stop-color="#fff" stop-opacity=".215686"/></linearGradient><g transform="translate(0 -31.967623)"><g stroke-linejoin="round"><path d="m.57499669 47.479335c.008516.162654.17969018.32531.34234522.32531h12.23983009c.162654 0 .316794-.162656.308278-.32531l-.365879-10.637802c-.0085-.162654-.179687-.325312-.342342-.325312h-5.1850839c-.1895174 0-.482323-.123305-.5476386-.432374l-.2388776-1.130357c-.0607435-.287436-.3446912-.405514-.507346-.405514h-5.77427186c-.16265824 0-.31679709.162655-.30828118.32531z" fill="#fff" stroke="url(#c)" stroke-linecap="round" stroke-width=".390712"/><path d="m9.09375 1.4570312c-.135398 0-.5818267.067991-.8457031.1894532-.1319382.060731-.2177962.1291192-.2441407.1601562-.026344.031037-.015625.0008884-.015625.037109 0 .010174-.025957-.074396.1210938.2109375.1470511.2853339.3244293.798567.3164062 1.4570313a.92679958.92679958 0 0 1 -.9257812.9140628h-3.0742188v3.0742188a.92679958.92679958 0 0 1 -.9257812.9257812c-.8089023 0-1.4049168-.4303844-1.7441406-.7128906-.2659718-.2215017-.2577269-.2135137-.2011719-.2246094-.012556.028621-.012876.018636-.025391.064453-.069061.25283-.079669.6825148-.072266.9179687.017981.5718817-.00855 1.2782849.066406 1.7558591.016009.101999.029663.109289.050781.177735.058096-.04773.085634-.06929.1601562-.128906.3595671-.287653.956724-.7011722 1.7656263-.7011722a.92679958.92679958 0 0 1 .9257812.9257812v4.074219h1.453125c-.1876334-.284468-.3046874-.675514-.3046874-1.074219 0-.418291.1785797-.837976.4316406-1.115234.2530608-.277259.5478536-.436579.8339844-.546875.5722615-.220594 1.1517746-.263672 1.6601562-.263672.6944569 0 1.2125135-.07307 1.847656.158203.317572.115636.670828.382742.855469.726562.184641.343821.222656.690948.222656 1.041016 0 .400055-.165761.74369-.320312.966797-.03393.04898-.05708.06539-.08984.107422h3.558594v-2.541016c-.257827.204572-.57779.392578-1.074219.392578-.558902 0-1.164039-.356081-1.482422-.886719-.318387-.530637-.443363-1.186095-.443363-2.039062 0-.8529674.124976-1.5084248.443359-2.0390625s.92352-.8867187 1.482422-.8867187c.428887 0 .784773.1453212 1.074219.3203124v-2.46875h-4.074219a.92679958.92679958 0 0 1 -.9257812-.9101562c-.0084867-.5318463.2072651-1.0502609.5097652-1.3730469.29296-.312605.608052-.4618373.855469-.5761719-.417796-.0864248-1.1076571-.109375-1.845703-.109375z" fill="#73d216" stroke="url(#b)" stroke-dashoffset="1.5" stroke-linecap="square" stroke-width=".5" transform="matrix(.01969 -.88083746 .88083746 .01969 2.162923 44.938261)"/><path d="m14.352172 47.80097c.446933-.01722.766997-.428337.7998-.906844.309361-4.512206.648332-8.295569.648332-8.295569.02819-.09669-.0656-.193389-.187597-.193389h-13.4292093s-.7229411 8.543648-.7229411 8.543648c-.044758.383705-.1820746.705124-.60553886.853202l13.49715426-.0011z" display="block" fill="url(#d)" stroke="#3465a4" stroke-width=".390712"/></g><path d="m2.5670257 38.796357 12.8118623.02532-.614998 7.815005c-.03294.418652-.176085.55802-.731668.55802-.731218 0-11.2048149-.01266-12.26629-.01266.091269-.125344.1304022-.386266.130926-.392513z" fill="none" opacity=".465909" stroke="url(#e)" stroke-linecap="round" stroke-width=".390711"/><path d="m0 32h16v16h-16z" fill="#bebebe" opacity="0"/></g></svg>