<svg height="24" viewBox="0 0 24 24" width="24" xmlns="http://www.w3.org/2000/svg" xmlns:xlink="http://www.w3.org/1999/xlink"><linearGradient id="a"><stop offset="0" stop-color="#888a85"/><stop offset=".5" stop-color="#eeeeec"/><stop offset="1" stop-color="#cecec8"/></linearGradient><linearGradient id="b" gradientTransform="matrix(.70828848 0 0 .55938517 11.473979 -.10075)" gradientUnits="userSpaceOnUse" x1="-16.120106" x2="-.81032" xlink:href="#a" y1=".468941" y2="12.572748"/><linearGradient id="c" gradientTransform="matrix(1.6044074 0 0 1.5859698 -1.473434 -1.052968)" gradientUnits="userSpaceOnUse" x1="7.461398" x2="9.334128" xlink:href="#a" y1="8.230274" y2="8.230274"/><g transform="translate(0 8)"><path d="m0-7.997606h24v23.895996h-24z" opacity="0"/><g stroke="#555753"><path d="m8.3476562.23632812s-1.577383.0639087-2.0585937.48242188c-.8964841.7796801-.7636719 3.1015625-.7636719 3.1015625s-.1159983 2.0753155.7636719 2.831555c.4952643.4257715 2.109375.4824219 2.109375.4824219 0-.0000001 1.7641675-.02518 2.3125005-.4824219.835865-.6970091.738281-2.6303831.738281-2.6303831s.222677-2.4821204-.738281-3.3027344c-.552556-.47185682-2.3632818-.48242188-2.3632818-.48242188zm-1.1383664 1.80664068h2.5716451v3.3042112h-2.5716451z" fill="url(#b)" stroke-width=".475804" transform="matrix(1.55542455513 0 0 1.45429592292 -1.21350635725 -7.99765924464)"/><path d="m8.3476562.42625754s-1.577383.0639087-2.0585937.48242188c-.8964841.77968008-.7636719 2.91163308-.7636719 2.91163308s-.1159983 2.2652449.7636719 3.0214844c.4952643.4257715 2.109375.4824219 2.109375.4824219 0-.0000001 1.7641675-.02518 2.3125005-.4824219.835865-.6970091.738281-2.8203125.738281-2.8203125s.222677-2.292191-.738281-3.11280498c-.552556-.47185682-2.3632818-.48242188-2.3632818-.48242188zm-1.1383664 1.80664066h2.5716451v3.3042112h-2.5716451z" fill="url(#b)" stroke-width=".475804" transform="matrix(1.55542455513 0 0 1.45429592292 -1.21350635725 5.00235175536)"/><path d="m10.500001 7.2550364-.0078 2.9843746 3.005915.0073.01318-3.0196456zm-.0078 6.5211776.01563 3 2.999999.0078v-2.992188z" fill="url(#c)" stroke-linejoin="round" transform="translate(0 -8)"/></g></g></svg>