<svg height="16" viewBox="0 0 16 16" width="16" xmlns="http://www.w3.org/2000/svg"><g transform="translate(0 -1036.3622)"><path d="m.207753 1036.569953h15.584494v15.584494h-15.584494z" fill="none" opacity="0" stroke="#000" stroke-linecap="round" stroke-width=".415506"/><path d="m2.6283162 1036.7111h8.0297108l3.993058 4.0012v10.0499c0 .6931-.570613 1.251-1.279401 1.251h-10.7433678c-.7087883 0-1.2794013-.5579-1.2794013-1.251v-12.8001c0-.6931.570613-1.251 1.2794013-1.251z" fill="#fff" fill-rule="evenodd" stroke="#888a85" stroke-width=".69783"/><g fill="#555753" fill-rule="evenodd" transform="matrix(.74678851 0 0 .71959243 -.850987 1036.9418)"><circle cx="12.238166" cy="10.027681" r="3.319664" transform="matrix(.9948357 0 0 1.0050216 -.174965 -1.883016)"/><path d="m17.208335 16.45c0 3.036001-2.399608 2.200002-5.356268 2.200002-2.9566614 0-5.3562696.835999-5.3562696-2.200002 0-3.036 2.3996082-5.5 5.3562696-5.5 2.95666 0 5.356268 2.464 5.356268 5.5z"/></g><path d="m3.3435361 1037.4066h6.9116179l3.695817 3.9976-.02615 8.6499c0 .7-.577351 1.2636-1.294507 1.2636h-9.2867779c-.717157 0-1.2945071-.5636-1.2945071-1.2636v-11.3838c0-.7001.5773501-1.2637 1.2945071-1.2637z" fill="none" stroke="#fff" stroke-width=".69783"/><path d="m14.5 1040.9922h-4.102492l-.02746-4.1274" fill="#fff" fill-rule="evenodd" stroke="#888a85" stroke-width=".740118"/></g></svg>