<svg height="16" viewBox="0 0 16 16" width="16" xmlns="http://www.w3.org/2000/svg" xmlns:xlink="http://www.w3.org/1999/xlink"><linearGradient id="a" gradientTransform="matrix(.6526585 0 0 .64283442 .161388 .822947)" gradientUnits="userSpaceOnUse" x1="12" x2="12" y1="1.268379" y2="21.251747"><stop offset="0" stop-color="#eeeeec"/><stop offset="1" stop-color="#d4d4cf"/></linearGradient><rect fill="url(#a)" fill-rule="evenodd" height="15.016615" rx="1.404394" ry="1.5395" stroke="#888a85" stroke-width=".982946" width="15.017054" x=".484763" y=".498621"/><path d="m2 12.000058h2v1.999942h-2z" fill="#2e3436" fill-rule="evenodd"/><path d="m4 12.000058h2v1.999942h-2z" fill="#555753" fill-rule="evenodd"/><path d="m6 12.000058h2v1.999942h-2z" fill="#888a85" fill-rule="evenodd"/><path d="m8 12.000058h2v1.999942h-2z" fill="#babdb6" fill-rule="evenodd"/><path d="m10 12.000058h2v1.999942h-2z" fill="#d3d7cf" fill-rule="evenodd"/><path d="m12 12.000058h2v1.999942h-2z" fill="#eeeeec" fill-rule="evenodd"/><path d="m3.9908775 9.5138552c3.8895779-1.0967631 6.8635835-3.3395938 8.5536035-7.0233444" fill="none" stroke="#000" stroke-linecap="round" stroke-width=".968476"/><rect fill="none" height="13.096711" rx=".640327" ry=".630707" stroke="#fff" stroke-width=".903288" width="13.096711" x="1.451644" y="1.451644"/><g fill-rule="evenodd"><ellipse cx="2.498313" cy="2.504578" fill="#555753" rx=".5" ry=".499985"/><ellipse cx="2.498313" cy="4.50452" fill="#555753" rx=".5" ry=".499985"/><ellipse cx="2.498313" cy="6.504461" fill="#555753" rx=".5" ry=".499985"/><ellipse cx="2.498313" cy="8.504403" fill="#555753" rx=".5" ry=".499985"/><ellipse cx="2.498313" cy="10.504344" fill="#555753" rx=".5" ry=".499985"/><ellipse cx="4.496221" cy="10.504763" fill="#555753" rx=".499581" ry=".499567"/><ellipse cx="6.494546" cy="10.504763" fill="#555753" rx=".499581" ry=".499567"/><ellipse cx="8.492871" cy="10.504763" fill="#555753" rx=".499581" ry=".499567"/><ellipse cx="10.491198" cy="10.504763" fill="#555753" rx=".499581" ry=".499567"/><ellipse cx="12.489524" cy="10.504763" fill="#555753" rx=".499581" ry=".499567"/></g></svg>