<?xml version="1.0" encoding="UTF-8" standalone="no"?>
<svg
   xmlns:osb="http://www.openswatchbook.org/uri/2009/osb"
   xmlns:dc="http://purl.org/dc/elements/1.1/"
   xmlns:cc="http://creativecommons.org/ns#"
   xmlns:rdf="http://www.w3.org/1999/02/22-rdf-syntax-ns#"
   xmlns:svg="http://www.w3.org/2000/svg"
   xmlns="http://www.w3.org/2000/svg"
   xmlns:xlink="http://www.w3.org/1999/xlink"
   xmlns:sodipodi="http://sodipodi.sourceforge.net/DTD/sodipodi-0.dtd"
   xmlns:inkscape="http://www.inkscape.org/namespaces/inkscape"
   version="1.1"
   width="16.00001"
   height="16"
   id="svg2"
   viewBox="0 0 16.00001 16"
   inkscape:version="0.91 r13725"
   sodipodi:docname="gimp-prefs-image-windows.svg">
  <sodipodi:namedview
     pagecolor="#ffffff"
     bordercolor="#666666"
     borderopacity="1"
     objecttolerance="10"
     gridtolerance="10"
     guidetolerance="10"
     inkscape:pageopacity="0"
     inkscape:pageshadow="2"
     inkscape:window-width="501"
     inkscape:window-height="405"
     id="namedview1702"
     showgrid="false"
     inkscape:zoom="14.75"
     inkscape:cx="-674.12605"
     inkscape:cy="-317.76461"
     inkscape:window-x="0"
     inkscape:window-y="27"
     inkscape:window-maximized="0"
     inkscape:current-layer="svg2" />
  <metadata
     id="metadata90">
    <rdf:RDF>
      <cc:Work>
        <dc:format>image/svg+xml</dc:format>
        <dc:type
           rdf:resource="http://purl.org/dc/dcmitype/StillImage" />
        <dc:title>Gimp Color Icon Theme</dc:title>
        <dc:contributor>
          <cc:Agent>
            <dc:title>many unknown and unnamed, Andrew Chadwick, Alexandre Prokoudine, Aryeom Han, Benoit Touchette, Jakub Steiner, Jehan, Johannes Matschke, Kevin Payne, Klaus Staedtler, Marek Dvoroznak, Michael Natterer</dc:title>
          </cc:Agent>
        </dc:contributor>
        <dc:description>Enhanced, extended tango-art-libre for GIMP</dc:description>
      </cc:Work>
    </rdf:RDF>
  </metadata>
  <defs
     id="defs7386">
    <linearGradient
       gradientTransform="matrix(0,-735328.32,170712.69,0,2464326300,577972450)"
       osb:paint="solid"
       id="linearGradient19282">
      <stop
         stop-color="#b4b4b4"
         id="stop19284" />
    </linearGradient>
    <linearGradient
       id="linearGradient4928">
      <stop
         stop-color="#fce94f"
         id="stop4930" />
      <stop
         stop-opacity="0"
         stop-color="#fce94f"
         offset="1"
         id="stop4932" />
    </linearGradient>
    <linearGradient
       osb:paint="gradient"
       x1="231.55"
       x2="320.70001"
       gradientUnits="userSpaceOnUse"
       id="linearGradient6057"
       gradientTransform="matrix(0.01502614,0,0,0.01468232,2.9686133,1037.3257)">
      <stop
         stop-color="#a11f7c"
         id="stop6053" />
      <stop
         stop-opacity="0.984"
         stop-color="#541f31"
         offset="1"
         id="stop6055" />
    </linearGradient>
    <linearGradient
       id="linearGradient2065">
      <stop
         stop-color="#555753"
         id="stop2067" />
      <stop
         stop-color="#fcaf3e"
         id="stop2069"
         offset="1" />
    </linearGradient>
    <linearGradient
       id="linearGradient4616">
      <stop
         stop-color="#2e3436"
         id="stop4618" />
      <stop
         stop-opacity="0"
         stop-color="#2e3436"
         id="stop4620"
         offset="1" />
    </linearGradient>
    <linearGradient
       y2="21.767578"
       x2="0"
       y1="11.07259"
       gradientTransform="matrix(0.932449,0,0,0.944346,677.49758,109.94849)"
       gradientUnits="userSpaceOnUse"
       id="linearGradient2090"
       xlink:href="#linearGradient3832" />
    <linearGradient
       id="linearGradient3832">
      <stop
         stop-color="#ffffff"
         id="stop3834" />
      <stop
         stop-color="#e0e0e0"
         id="stop3836"
         offset="1" />
    </linearGradient>
    <linearGradient
       y2="29.726542"
       x2="0"
       y1="13.12255"
       gradientTransform="matrix(0.748925,0,0,0.748925,1703.257,250.05838)"
       gradientUnits="userSpaceOnUse"
       id="linearGradient7384"
       xlink:href="#linearGradient2065" />
    <radialGradient
       r="9.90625"
       cy="32.837029"
       cx="-6.00702"
       gradientTransform="matrix(0.748925,-1.113789e-8,1.067619e-8,0.717879,1693.3081,251.23867)"
       gradientUnits="userSpaceOnUse"
       id="radialGradient7386"
       xlink:href="#linearGradient4928" />
    <linearGradient
       y2="32.409008"
       x2="0"
       y1="34.006802"
       gradientTransform="matrix(0.700807,0,0,1.008068,1677.4505,240.37739)"
       gradientUnits="userSpaceOnUse"
       id="linearGradient7388"
       xlink:href="#linearGradient4616" />
    <linearGradient
       osb:paint="solid"
       id="linearGradient5487">
      <stop
         id="stop5485"
         offset="0"
         style="stop-color:#888a85;stop-opacity:1;" />
    </linearGradient>
  </defs>
  <g
     style="display:inline"
     transform="translate(-305.10161,39.084358)"
     id="preferences">
    <g
       id="gimp-prefs-image-windows"
       transform="translate(305.10161,-39.084358)">
      <rect
         style="color:#000000;fill:url(#linearGradient2090);fill-rule:evenodd;stroke:#888a85"
         id="rect7400"
         width="15.00001"
         height="15"
         x="0.49999601"
         y="0.5"
         rx="0.61494899"
         ry="0.63783801" />
      <rect
         style="color:#000000;fill:#204a87;fill-rule:evenodd"
         id="rect7402"
         width="12"
         height="1"
         x="2"
         y="2"
         rx="0.111136"
         ry="0.111135" />
      <g
         id="g7376"
         transform="matrix(0.421108,0,0,0.501269,-23.3615,-8.173441)">
        <rect
           style="fill:url(#linearGradient7384);stroke:#babdb6;stroke-width:2.1765449;stroke-linecap:round;stroke-linejoin:round"
           ry="0.415061"
           rx="0.49642801"
           y="25.272091"
           x="61.327301"
           height="17.974199"
           width="26.23262"
           id="rect2063-82" />
        <path
           style="color:#000000;fill:url(#radialGradient7386);fill-rule:evenodd;stroke-linecap:round;stroke-linejoin:round"
           id="path4898-6"
           d="m 68.504842,33.54904 c -3.871028,0.245613 -6.950961,3.486386 -6.950961,7.419038 0,0.151871 0.01439,0.295058 0.0234,0.444674 l 14.791269,0 c 0.009,-0.149616 0.0234,-0.292803 0.0234,-0.444674 0,-4.092517 -3.326522,-7.419038 -7.419038,-7.419038 -0.159864,0 -0.310719,-0.01 -0.468078,0 z"
           inkscape:connector-curvature="0" />
        <rect
           style="fill:url(#linearGradient7388);stroke-linecap:round;stroke-linejoin:round"
           rx="0"
           y="40.24474"
           x="62.519772"
           height="2.01614"
           width="23.82744"
           id="rect1324-9" />
        <path
           style="fill-rule:evenodd"
           id="path2079-0"
           d="m 78.594206,40.244741 c 0,0 -0.416091,-2.035335 -0.416091,-3.282216 0.01154,-0.568811 5.83166,-5.000029 5.846675,-5.660076 l -1.353125,1.039349 -0.947514,-2.272039 3.194289,0.291727 1.49785,-1.320208 -1.696439,1.097696 -0.583434,-0.116692 -0.715827,-2.301211 0.364079,2.242866 -2.643952,-0.116691 0.827453,1.856187 -2.292205,-2.002051 2.424598,2.786605 c 6.3e-5,0.621506 -4.778797,4.415568 -4.770668,3.761359 l -1.981989,-2.34309 -0.165491,-3.167568 1.49785,-0.377202 1.312233,-2.852058 -1.729807,2.636002 -1.350438,-0.05393 -3.022952,-2.2503 -4.150706,-1.400292 3.546036,1.717757 -2.842541,0.222513 3.744625,0 2.246775,1.980311 0.264785,3.420646 -4.00941,-3.420646 1.686056,1.786972 -2.434981,1.513547 2.674732,-1.320207 4.231084,4.697376 -0.165491,3.205567 1.913941,0 z"
           inkscape:connector-curvature="0" />
        <path
           style="color:#000000;fill:#fef39e;fill-rule:evenodd;stroke-linecap:round;stroke-linejoin:round"
           d="m 69.424748,36.257117 c -2.478079,0.124549 -4.44973,1.767918 -4.44973,3.762133 0,0.07701 0.0092,0.149622 0.01498,0.225491 l 9.468787,0 c 0.0058,-0.07587 0.01498,-0.148478 0.01498,-0.225491 0,-2.07528 -2.129508,-3.762133 -4.749375,-3.762133 -0.102339,0 -0.198911,-0.0051 -0.299646,0 z"
           id="path4924-0"
           inkscape:connector-curvature="0" />
        <path
           style="color:#000000;fill:#fffbd7;fill-opacity:0.55681799;fill-rule:evenodd;stroke-linecap:round;stroke-linejoin:round"
           id="path4926-0"
           d="m 69.495867,36.933941 c -1.889909,0.101664 -3.393592,1.443049 -3.393592,3.07081 0,0.06286 0.007,0.122126 0.01142,0.184054 l 7.221385,0 c 0.0044,-0.06193 0.01143,-0.121195 0.01143,-0.184054 0,-1.693931 -1.624072,-3.07081 -3.622118,-3.07081 -0.07805,0 -0.1517,-0.0041 -0.228527,0 z"
           inkscape:connector-curvature="0" />
      </g>
    </g>
  </g>
</svg>
