<svg height="16" viewBox="0 0 16 16" width="16" xmlns="http://www.w3.org/2000/svg" xmlns:xlink="http://www.w3.org/1999/xlink"><linearGradient id="a" gradientTransform="matrix(.573976 -.05028503 .05028503 .573976 -3.839762 -8.358275)" gradientUnits="userSpaceOnUse" x1="23.231941" x2="25.264133" y1="25.632706" y2="19.81468"><stop offset="0" stop-color="#ee8719"/><stop offset="1" stop-color="#e07c12" stop-opacity="0"/></linearGradient><linearGradient id="b" gradientUnits="userSpaceOnUse" x1="10.783756" x2="11.657625" y1="5.186064" y2="1.744468"><stop offset="0" stop-color="#673907"/><stop offset="1" stop-color="#673907" stop-opacity="0"/></linearGradient><linearGradient id="c" gradientTransform="matrix(.885182 -.14859 .14859 .885182 -12.7392 -17.52942)" gradientUnits="userSpaceOnUse" x1="19.394735" x2="23.109331" y1="30.001331" y2="33.438831"><stop offset="0" stop-color="#bdbdbd"/><stop offset=".33333334" stop-color="#e2e2e2"/><stop offset=".66666669" stop-color="#a3a3a3"/><stop offset="1" stop-color="#ddd"/></linearGradient><radialGradient id="d" cx="15.415101" cy="35.356506" gradientTransform="matrix(.3814 0 0 .371686 .326008 -1.351008)" gradientUnits="userSpaceOnUse" r="7.579156"><stop offset="0" stop-color="#696969"/><stop offset="1"/></radialGradient><path d="m.48979583 4.489796h11.02040717v11.020408h-11.02040717z" fill="none" stroke="#000" stroke-width=".979592"/><g transform="translate(-3.999999)"><path d="m5.4997037 5.4997044h9.0005913v9.0005916h-9.0005913z" fill="#ef2929" stroke="#fff" stroke-width=".999409"/><g fill="#fff"><path d="m4 4h1v1h-1z"/><path d="m6 4h1v1h-1z"/><path d="m8 4h1v1h-1z"/><path d="m9.999999 4h1v1h-1z"/><path d="m11.999999 4h2v1h-2z"/><path d="m15 4h1v1h-1z"/><path d="m15 15h1v1h-1z"/><path d="m-14 4h1v1h-1z" transform="matrix(0 -1 1 0 11 0)"/><path d="m-12 4h1v1h-1z" transform="matrix(0 -1 1 0 11 0)"/><path d="m-9.4 4h1v1h-1z" transform="matrix(0 -1 1 0 11 0)"/><path d="m-7.2 4h1v1h-1z" transform="matrix(0 -1 1 0 11 0)"/></g></g><path d="m-10 11.000001h1v1h-1z" fill="#fff" transform="rotate(-90)"/><g transform="matrix(.89326827 0 0 .91637633 1.978765 -.699616)"><path d="m9.4087566 4.5811021 4.0248324 2.85206c5.461806-10.9745063-3.4668382-4.2348609-4.0248324-2.85206z" fill="url(#a)" stroke="url(#b)" stroke-linecap="round"/><path d="m6.5295297 10.7416 2.2757478 1.378003 4.5899765-4.5296459c-.619438-1.31809-2.684031-3.036167-4.3437478-2.757561z" fill="url(#c)" stroke="#888a85" stroke-linecap="round"/><path d="m.02377179 16.030936c7.83899751.057399 9.15854071-.021442 9.59120221-3.279412.354234-2.667409-4.2417403-3.8192049-5.8024713-.835398-1.260278 2.409403-3.78873091 4.11481-3.78873091 4.11481z" fill="url(#d)"/><circle cx="6.0604772" cy="12.18605" fill="#fff" opacity=".527778" r="1"/><path d="m10.030541 6.2059381-1.9072272 3.718963" fill="none" stroke="#fff" stroke-linecap="round" stroke-linejoin="round" stroke-width="1.000001"/></g><path d="m0 3.999999h12v12h-12z" fill="#fff" opacity="0"/><g fill="#3465a4"><path d="m0 5h1v10h-1z" opacity=".91"/><path d="m15-11h1v11h-1z" opacity=".91" transform="rotate(90)"/></g></svg>