<svg height="16" viewBox="0 0 16 16" width="16" xmlns="http://www.w3.org/2000/svg"><g fill="#fff" fill-rule="evenodd" stroke="#555753" stroke-linecap="round" transform="matrix(.99986799 0 0 .94119501 11.000132 -2.8239)"><g stroke-linejoin="round"><path d="m1.5 3.5h2v2h-2z"/><path d="m1.5 5.5h2v2h-2z"/><path d="m1.5 7.5h2v2h-2z"/><path d="m1.5 9.5h2v2h-2z"/><path d="m1.5 11.5h2v2h-2z"/><path d="m1.5 13.5h2v2h-2z"/><path d="m1.5 15.5h2v2h-2z"/></g><path d="m1.5 17.5h2v2h-2z"/></g><g fill="#fff" fill-rule="evenodd" stroke="#555753" stroke-linecap="round" transform="matrix(.99986799 0 0 .94119501 .000132 -2.8239)"><g stroke-linejoin="round"><path d="m1.5 3.5h2v2h-2z"/><path d="m1.5 5.5h2v2h-2z"/><path d="m1.5 7.5h2v2h-2z"/><path d="m1.5 9.5h2v2h-2z"/><path d="m1.5 11.5h2v2h-2z"/><path d="m1.5 13.5h2v2h-2z"/><path d="m1.5 15.5h2v2h-2z"/></g><path d="m1.5 17.5h2v2h-2z" stroke-width=".999909"/></g><path d="m0 0h16v16h-16z" fill="#fff" opacity="0"/><g stroke="#000" stroke-linecap="square"><path d="m4.181553.966553h7.636894v4.426894h-7.636894z" fill="#729fcf" opacity=".75" stroke-width=".363106"/><path d="m4.185162 6.706204h7.629676v4.608994h-7.629676z" fill="#729fcf" opacity=".75" stroke-width=".370324"/><path d="m4.182865 12.682866h7.63427v3.13427h-7.63427z" fill="#729fcf" opacity=".75" stroke-width=".36573"/><path d="m4.180989 11.730577h7.638022v.638023h-7.638022z" opacity=".75" stroke-width=".361977"/><path d="m4.186117 5.792738h7.627765v.675601h-7.627765z" opacity=".75" stroke-width=".372235"/></g></svg>