<svg height="16" viewBox="0 0 16 16" width="16" xmlns="http://www.w3.org/2000/svg" xmlns:xlink="http://www.w3.org/1999/xlink"><linearGradient id="a"><stop offset="0" stop-color="#fff" stop-opacity=".796078"/><stop offset="1" stop-color="#fff" stop-opacity=".215686"/></linearGradient><linearGradient id="b" gradientTransform="matrix(.96592585 -.25881896 .25881896 .96592585 1714.0318 -60.212175)" gradientUnits="userSpaceOnUse" x1="22.96538" x2="12.641191" y1="35.310566" y2="11.423575"><stop offset="0" stop-color="#888a85"/><stop offset="1" stop-color="#d3d7cf"/></linearGradient><linearGradient id="c" gradientTransform="matrix(.96592585 -.25881896 .25881896 .96592585 1714.0318 -60.212175)" gradientUnits="userSpaceOnUse" x1="17.413136" x2="17.027729" xlink:href="#a" y1="7.870833" y2="52.50489"/><radialGradient id="d" cx="31" cy="12" gradientTransform="matrix(.977466 -.261911 .261911 .977466 1704.3059 -52.578155)" gradientUnits="userSpaceOnUse" r="11.125"><stop offset="0"/><stop offset="1" stop-opacity="0"/></radialGradient><linearGradient id="e" gradientTransform="matrix(.909106 -.243594 .243594 .909106 1715.427 -59.550735)" gradientUnits="userSpaceOnUse" x1="21.788134" x2="10.211396" y1="21.876961" y2="3.423279"><stop offset="0" stop-color="#d3d7cf"/><stop offset="1" stop-color="#888a85"/></linearGradient><linearGradient id="f" gradientTransform="matrix(.96592585 -.25881896 .25881896 .96592585 1930.2001 -62.36494)" gradientUnits="userSpaceOnUse" x1="16.487501" x2="32.566654" xlink:href="#a" y1="13.970829" y2="30.758347"/><linearGradient id="g" gradientTransform="matrix(.96592585 -.25881896 .25881896 .96592585 4140.8453 -141.33012)" gradientUnits="userSpaceOnUse" x1="28.357094" x2="17.732124" xlink:href="#a" y1="22.794661" y2="5.187518"/><linearGradient id="h" gradientTransform="matrix(.51475824 0 0 .31892069 833.214 223.8626)" gradientUnits="userSpaceOnUse" x1="13.035696" x2="12.853771" xlink:href="#a" y1="32.567184" y2="46.689312"/><linearGradient id="i" gradientUnits="userSpaceOnUse" x1="840.63449551372" x2="839.61949710501" y1="236.6333737909" y2="226.7923253659"><stop offset="0" stop-color="#424242"/><stop offset="1" stop-color="#777"/></linearGradient><linearGradient id="j" gradientUnits="userSpaceOnUse" x1="842.22206106452" x2="842.17883077954" y1="238.82927027009" y2="236.90013174509"><stop offset="0" stop-color="#6194cb"/><stop offset="1" stop-color="#729fcf"/></linearGradient><g transform="translate(0 -32)"><path d="m.57499669 47.479335c.008516.162654.17969018.32531.34234522.32531h12.23983009c.162654 0 .316794-.162656.308278-.32531l-.365879-10.637802c-.0085-.162654-.179687-.325312-.342342-.325312h-5.1850839c-.1895174 0-.482323-.123305-.5476386-.432374l-.2388776-1.130357c-.0607435-.287436-.3446912-.405514-.507346-.405514h-5.77427186c-.16265824 0-.31679709.162655-.30828118.32531z" fill="#fff" stroke="url(#i)" stroke-linecap="round" stroke-linejoin="round" stroke-width=".390712"/><g transform="matrix(.48445006 .12980796 -.12980796 .48445006 -4.358867 28.291256)"><path d="m31 .5c-.561936.00000002-1.1158.047001-1.65625.125l-.21875 3.09375c-.95964.2157447-1.849514.5835315-2.65625 1.09375l-2.34375-2.03125c-1.125001.7187509-1.625 1.21875-2.34375 2.34375l2.03125 2.34375c-.510219.8067359-.878005 1.6966095-1.09375 2.65625l-3.09375.21875c-.078.54045-.125 1.094312-.125 1.65625-.000001.561939.047 1.115801.125 1.65625l3.09375.21875c.215745.959641.583531 1.849514 1.09375 2.65625l-2.03125 2.34375c.71875 1.124999 1.21875 1.625 2.34375 2.34375l2.34375-2.03125c.806736.510219 1.696609.878005 2.65625 1.09375l.21875 3.09375c.54045.078 1.094313.125 1.65625.125.561936 0 1.115801-.047 1.65625-.125l.21875-3.09375c.959641-.215745 1.849514-.583531 2.65625-1.09375l2.34375 2.03125c1.125002-.718751 1.625-1.21875 2.34375-2.34375l-2.03125-2.34375c.510219-.806736.878005-1.696609 1.09375-2.65625l3.09375-.21875c.078-.540449.124999-1.094311.125-1.65625 0-.561937-.047-1.115801-.125-1.65625l-3.09375-.21875c-.215745-.9596405-.583531-1.8495141-1.09375-2.65625l2.03125-2.34375c-.649489-1.1076848-1.21875-1.625-2.34375-2.34375l-2.34375 2.03125c-.806736-.5102185-1.696609-.8780053-2.65625-1.09375l-.21875-3.09375c-.54045-.07799898-1.094312-.125-1.65625-.125zm0 9c1.380001.0000003 2.499999 1.119998 2.5 2.5.000001 1.380003-1.119997 2.5-2.5 2.5-1.380002 0-2.5-1.119997-2.5-2.5 0-1.380002 1.119998-2.5 2.5-2.5z" fill="url(#b)" stroke="#2e3436" stroke-linecap="square" stroke-width="1.005436"/><path d="m31.000007 1.437503c-.260073 0-.522134.041957-.78125.0625l-.21875 3.062501c-1.31703.174704-2.521711.702045-3.531252 1.468751l-2.3125-1.968751c-.391043.337636-.756116.702709-1.093751 1.093751l1.968751 2.312501c-.766706 1.009539-1.294048 2.214221-1.468751 3.53125l-3.0625.218751c-.02054.259116-.0625.521176-.0625.78125 0 .260073.04196.522133.0625.78125l3.062501.21875c.174704 1.317029.702045 2.521711 1.468751 3.531251l-1.968751 2.312501c.337635.391042.702708.756115 1.093751 1.09375l2.312501-1.968751c1.009539.766706 2.214221 1.294048 3.53125 1.468751l.218751 3.062501c.259116.02054.521177.0625.78125.0625.260072 0 .522134-.04196.78125-.0625l.21875-3.062501c1.317029-.174704 2.521711-.702045 3.531251-1.468751l2.312501 1.968751c.391043-.337635.756115-.702708 1.09375-1.093751l-1.968751-2.3125c.766706-1.00954 1.294048-2.214222 1.468751-3.531251l3.062501-.21875c.02054-.259116.0625-.521177.0625-.781251.000001-.260072-.04196-.522133-.0625-.781249l-3.062501-.21875c-.174704-1.31703-.702046-2.521711-1.468752-3.531252l1.968751-2.312501c-.337634-.391041-.702707-.756115-1.09375-1.09375l-2.312501 1.968751c-1.009539-.766706-2.214221-1.294048-3.53125-1.468751l-.218751-3.062501c-.259116-.020543-.521177-.062499-.78125-.0625z" fill="none" stroke="url(#c)" stroke-linecap="square" stroke-width="1.133334"/><path d="m31 .875c-.32102.00000002-.583975.0443823-.8125.0625l-.5.03125-.03125.5-.1875 2.65625c-1.060092.2090559-2.041676.6405265-2.90625 1.21875l-2.40625-2.03125-1.84375 1.84375 2.03125 2.40625c-.578224.864573-1.009695 1.846158-1.21875 2.90625l-2.65625.1875-.5.03125-.03125.5c-.018119.228528-.0625.491482-.0625.8125 0 .321017.04438.583973.0625.8125l.03125.5.5.03125 2.65625.1875c.209056 1.060092.640526 2.041676 1.21875 2.90625l-1.71875 2.03125-.3125.375.3125.375c.35567.411929.744319.80058 1.15625 1.15625l.375.3125.375-.3125 2.03125-1.71875c.864573.578224 1.846158 1.009695 2.90625 1.21875l.1875 2.65625.03125.5.5.03125c.228528.01812.491482.0625.8125.0625.321018.000001.583973-.04438.8125-.0625l.5-.03125.03125-.5.1875-2.65625c1.060091-.209056 2.041676-.640526 2.90625-1.21875l2.03125 1.71875.375.3125.375-.3125c.411933-.355671.80058-.74432 1.15625-1.15625l.3125-.375-.3125-.375-1.71875-2.03125c.578224-.864573 1.009695-1.846158 1.21875-2.90625l2.65625-.1875.5-.03125.03125-.5c.018117-.228525.0625-.491482.0625-.8125-.000001-.321015-.04438-.583972-.0625-.8125l-.03125-.5-.5-.03125-2.65625-.1875c-.209055-1.0600925-.640526-2.0416762-1.21875-2.90625l1.71875-2.03125.3125-.375-.3125-.375c-.355668-.4119287-.744319-.8005796-1.15625-1.15625l-.375-.3125-.375.3125-2.03125 1.71875c-.864573-.5782237-1.846158-1.0096946-2.90625-1.21875l-.1875-2.65625-.03125-.5-.5-.03125c-.228527-.01811779-.491484-.06249877-.8125-.0625zm0 7.625c1.932001-.0000024 3.499998 1.567999 3.5 3.5.000002 1.932002-1.567999 3.499998-3.5 3.5-1.932002.000002-3.499998-1.567999-3.5-3.5-.000001-1.932002 1.567999-3.4999978 3.5-3.5z" fill="url(#d)" opacity=".8"/><path d="m31 4c-4.415997 0-8 3.584-8 8 0 4.416001 3.584001 8.000001 8 8 4.415999 0 8-3.583999 8-8-.000001-4.416-3.584-8-8-8zm0 5c1.655999-.0000018 2.999998 1.344006 3 3s-1.344001 2.999998-3 3c-1.656.000002-2.999998-1.344006-3-3-.000001-1.655994 1.344001-2.9999981 3-3z" fill="url(#e)"/><g fill="none" stroke-linecap="square"><circle cx="23.5" cy="19" r="8.5" stroke="url(#f)" stroke-width="1.133333" transform="matrix(.882353 -.00000103 .00000103 .882353 10.26469 -4.764686)"/><circle cx="23.5" cy="19" r="8.5" stroke="url(#g)" stroke-width="2.428571" transform="matrix(.411765 -.00000048 .00000048 .411765 21.32353 4.17647)"/></g></g><path d="m14.352172 47.80097c.446933-.01722.766997-.428337.7998-.906844.309361-4.512206.648332-8.295569.648332-8.295569.02819-.09669-.0656-.193389-.187597-.193389h-13.4292093s-.7229411 8.543648-.7229411 8.543648c-.044758.383705-.1820746.705124-.60553886.853202l13.49715426-.0011z" display="block" fill="url(#j)" stroke="#3465a4" stroke-linejoin="round" stroke-width=".390712"/><path d="m2.5670257 38.796357 12.8118623.02532-.614998 7.815005c-.03294.418652-.176085.55802-.731668.55802-.731218 0-11.2048149-.01266-12.26629-.01266.091269-.125344.1304022-.386266.130926-.392513z" fill="none" opacity=".465909" stroke="url(#h)" stroke-linecap="round" stroke-width=".390711"/><path d="m0 32h16v16h-16z" fill="#bebebe" opacity="0"/></g></svg>