<?xml version="1.0" encoding="UTF-8" standalone="no"?>
<!-- Generator: Adobe Illustrator 12.0.0, SVG Export Plug-In . SVG Version: 6.00 Build 51448)  -->

<svg
   xmlns:dc="http://purl.org/dc/elements/1.1/"
   xmlns:cc="http://creativecommons.org/ns#"
   xmlns:rdf="http://www.w3.org/1999/02/22-rdf-syntax-ns#"
   xmlns:svg="http://www.w3.org/2000/svg"
   xmlns="http://www.w3.org/2000/svg"
   xmlns:sodipodi="http://sodipodi.sourceforge.net/DTD/sodipodi-0.dtd"
   xmlns:inkscape="http://www.inkscape.org/namespaces/inkscape"
   version="1.0"
   id=""
   width="16"
   height="16"
   viewBox="0 0 17.375 17.375"
   overflow="visible"
   enable-background="new 0 0 139 139"
   xml:space="preserve"
   sodipodi:version="0.32"
   inkscape:version="0.91+devel r"
   sodipodi:docname="gimp-question.svg"
   inkscape:output_extension="org.inkscape.output.svgz.inkscape"
   style="overflow:visible"><metadata
     id="metadata3164"><rdf:RDF><cc:Work
         rdf:about=""><dc:format>image/svg+xml</dc:format><dc:type
           rdf:resource="http://purl.org/dc/dcmitype/StillImage" /><dc:title /></cc:Work></rdf:RDF></metadata><defs
     id="defs3162" /><sodipodi:namedview
     inkscape:window-height="697"
     inkscape:window-width="1024"
     inkscape:pageshadow="2"
     inkscape:pageopacity="0.0"
     guidetolerance="10.0"
     gridtolerance="10.0"
     objecttolerance="10.0"
     borderopacity="1.0"
     bordercolor="#666666"
     pagecolor="#ffffff"
     id="base"
     inkscape:zoom="23.482014"
     inkscape:cx="8.1654546"
     inkscape:cy="3.1171812"
     inkscape:window-x="337"
     inkscape:window-y="68"
     inkscape:current-layer=""
     height="128px"
     width="128px"
     showgrid="true"
     inkscape:window-maximized="0"
     showguides="true"><inkscape:grid
       type="xygrid"
       id="grid4234" /></sodipodi:namedview><g
     id="g4111"><g
       transform="matrix(0.97402603,0,0,0.93752505,0.54296875,0.54253351)"
       id="g4033"><path
         inkscape:connector-curvature="0"
         d="M 0,8.6877322 C 0,13.477933 3.751027,17.375 8.3617185,17.375 12.97241,17.375 16.723437,13.477933 16.723437,8.6877322 16.723437,3.8975316 12.97241,4.6433179e-4 8.3617185,4.6433179e-4 3.751027,4.6433179e-4 0,3.8975316 0,8.6877322 Z"
         id="path3126"
         style="fill:#3465a4;stroke-width:0.18686815" /><g
         transform="matrix(0.20904296,0,0,0.21885044,-6.5530788,-6.5976579)"
         id="g5119"
         style="fill:#00316e;filter:url(#filter5125)"><path
           inkscape:connector-curvature="0"
           style="fill:#ffffff"
           d="m 63.37,80.089 -0.178,-2.343 c -0.18,-4.598 1.248,-9.284 5.259,-14.062 2.853,-3.424 5.169,-6.398 5.169,-9.463 0,-3.064 -2.049,-5.227 -6.418,-5.318 -3.029,0 -6.506,0.992 -8.913,2.614 l -2.941,-9.733 c 3.208,-1.894 8.467,-3.696 14.885,-3.696 11.677,0 17.115,6.58 17.115,13.97 0,6.939 -4.279,11.357 -7.667,15.231 -3.209,3.605 -4.635,7.121 -4.546,11.177 v 1.622 H 63.37 Z"
           id="path5121" /><circle
           style="fill:#ffffff"
           cx="69.599998"
           cy="93.599998"
           r="8"
           id="circle5123" /></g></g><path
       sodipodi:nodetypes="ssssssssss"
       id="path3126-1"
       d="m 8.6875,0.22564835 c -4.6659056,0 -8.46185064,3.79594625 -8.46185064,8.46185095 0,4.6659067 3.79594504,8.4618517 8.46185064,8.4618517 4.665905,0 8.461851,-3.795945 8.461851,-8.4618517 0,-4.6659047 -3.795946,-8.46185095 -8.461851,-8.46185095 z M 8.676422,1.148869 c 4.178828,-10e-8 7.485713,3.3366494 7.485713,7.6091457 0,4.2724983 -3.168148,7.4263683 -7.3469765,7.4263683 -4.1788266,0 -7.6266536,-3.107624 -7.6266536,-7.3801228 0,-4.2724963 3.30909,-7.6553912 7.4879171,-7.6553912 z"
       style="overflow:visible;fill:#eeeeec;stroke:#204a87;stroke-width:0.45129871;stroke-miterlimit:4;stroke-dasharray:none;stroke-opacity:1"
       inkscape:connector-curvature="0" /></g></svg>