<?xml version="1.0" encoding="UTF-8" standalone="no"?>
<svg
   xmlns:osb="http://www.openswatchbook.org/uri/2009/osb"
   xmlns:dc="http://purl.org/dc/elements/1.1/"
   xmlns:cc="http://creativecommons.org/ns#"
   xmlns:rdf="http://www.w3.org/1999/02/22-rdf-syntax-ns#"
   xmlns:svg="http://www.w3.org/2000/svg"
   xmlns="http://www.w3.org/2000/svg"
   xmlns:sodipodi="http://sodipodi.sourceforge.net/DTD/sodipodi-0.dtd"
   xmlns:inkscape="http://www.inkscape.org/namespaces/inkscape"
   version="1.1"
   width="16"
   height="16.1"
   id="svg2"
   viewBox="0 0 16 16.1"
   inkscape:version="0.91 r13725"
   sodipodi:docname="gimp-text-dir-ltr.svg">
  <sodipodi:namedview
     pagecolor="#ffffff"
     bordercolor="#666666"
     borderopacity="1"
     objecttolerance="10"
     gridtolerance="10"
     guidetolerance="10"
     inkscape:pageopacity="0"
     inkscape:pageshadow="2"
     inkscape:window-width="640"
     inkscape:window-height="480"
     id="namedview1698"
     showgrid="false"
     inkscape:zoom="14.658385"
     inkscape:cx="-378.3882"
     inkscape:cy="-155.24095"
     inkscape:window-x="0"
     inkscape:window-y="27"
     inkscape:window-maximized="0"
     inkscape:current-layer="svg2" />
  <metadata
     id="metadata90">
    <rdf:RDF>
      <cc:Work>
        <dc:format>image/svg+xml</dc:format>
        <dc:type
           rdf:resource="http://purl.org/dc/dcmitype/StillImage" />
        <dc:title>Gimp Color Icon Theme</dc:title>
        <dc:contributor>
          <cc:Agent>
            <dc:title>many unknown and unnamed, Andrew Chadwick, Alexandre Prokoudine, Aryeom Han, Benoit Touchette, Jakub Steiner, Jehan, Johannes Matschke, Kevin Payne, Klaus Staedtler, Marek Dvoroznak, Michael Natterer</dc:title>
          </cc:Agent>
        </dc:contributor>
        <dc:description>Enhanced, extended tango-art-libre for GIMP</dc:description>
      </cc:Work>
    </rdf:RDF>
  </metadata>
  <defs
     id="defs7386">
    <linearGradient
       gradientTransform="matrix(0,-735328.32,170712.69,0,2464326300,577972450)"
       osb:paint="solid"
       id="linearGradient19282">
      <stop
         stop-color="#b4b4b4"
         id="stop19284" />
    </linearGradient>
    <linearGradient
       osb:paint="gradient"
       x1="231.55"
       x2="320.70001"
       gradientUnits="userSpaceOnUse"
       id="linearGradient6057"
       gradientTransform="matrix(0.01502614,0,0,0.01468232,2.9686133,1037.3257)">
      <stop
         stop-color="#a11f7c"
         id="stop6053" />
      <stop
         stop-opacity="0.984"
         stop-color="#541f31"
         offset="1"
         id="stop6055" />
    </linearGradient>
    <linearGradient
       osb:paint="solid"
       id="linearGradient5487">
      <stop
         id="stop5485"
         offset="0"
         style="stop-color:#888a85;stop-opacity:1;" />
    </linearGradient>
  </defs>
  <g
     style="display:inline"
     transform="translate(-9.3637456,-123.3225)"
     id="stock">
    <g
       id="gimp-text-dir-ltr"
       transform="translate(9.3637456,123.3557)"
       style="display:inline">
      <g
         transform="matrix(1.0718429,0,0,1.0718429,-98.873113,-127.94329)"
         style="display:inline"
         id="g8359">
        <path
           transform="translate(251.96605,-303.47635)"
           id="path7106"
           d="m -150.9375,422.90625 c 0,5.11459 7.5e-4,2.60737 0.0312,5.5625 l 0,0.4375 0.46875,0 2.28125,0 c 1.68089,0.0687 1.60511,-4.12511 -0.0312,-4 -0.0117,8.8e-4 -0.0195,-10e-4 -0.0312,0 l -1.71875,0 0,-2 -1,0 z m 0.9375,2.90625 1.8125,0 0.0312,0 0.0312,0 c 0.36781,-0.0382 0.43459,2.2053 0,2.1875 l -0.0312,0 -1.84375,0 c -0.006,-0.47556 0.004,-2.04053 0,-2.1875 z"
           style="display:inline;fill:#bebebe;fill-opacity:1;stroke:#000000;stroke-width:0.18659452;stroke-miterlimit:4;stroke-dasharray:none;stroke-opacity:1"
           inkscape:connector-curvature="0" />
        <path
           transform="translate(251.96605,-303.47635)"
           id="path7104"
           d="m -155.9375,423.90625 0,0.875 1.75,0 c 0.12685,0.013 0.1972,0.0616 0.25,0.125 0.0491,0.059 0.118,0.1867 0.125,0.375 5e-4,0.0143 0,0.0159 0,0.0312 l 0,0.6875 -1.84375,0 -0.0312,0 c -1.61055,-0.11692 -1.68715,2.97155 -0.0312,2.90625 l 2.3125,0 0.4375,0 0,-0.4375 0.0312,-3.15625 c 0,-0.37046 -0.10212,-0.716 -0.3125,-0.96875 -0.21038,-0.25275 -0.52914,-0.4054 -0.84375,-0.4375 l -0.0312,0 -1.8125,0 z m 0.1875,2.96875 0.0312,0 0.0312,0 1.84375,0 -0.0312,1.15625 -1.84375,0 -0.0312,0 c -0.46799,0.0185 -0.40144,-1.19655 0,-1.15625 z"
           style="display:inline;fill:#bebebe;fill-opacity:1;stroke:#000000;stroke-width:0.18659452;stroke-miterlimit:4;stroke-dasharray:none;stroke-opacity:1"
           inkscape:connector-curvature="0" />
        <path
           id="path8347-7"
           d="m 98.309648,130.5779 -2.51971,0 0,1.67981 2.51971,0 0,1.6798 0.8399,0 2.519702,-2.5197 -2.519702,-2.51971 -0.8399,0 z"
           style="display:inline;fill:#ffffff;fill-opacity:1;fill-rule:evenodd;stroke:#3465a4;stroke-width:0.83990186px;stroke-linecap:butt;stroke-linejoin:miter;stroke-opacity:1"
           inkscape:connector-curvature="0" />
      </g>
      <rect
         style="color:#000000;clip-rule:nonzero;display:inline;overflow:visible;visibility:visible;opacity:0;isolation:auto;mix-blend-mode:normal;color-interpolation:sRGB;color-interpolation-filters:linearRGB;solid-color:#000000;solid-opacity:1;fill:#ffffff;fill-opacity:1;fill-rule:nonzero;stroke:none;stroke-width:0.5;stroke-linecap:round;stroke-linejoin:round;stroke-miterlimit:4;stroke-dasharray:none;stroke-dashoffset:0;stroke-opacity:1;color-rendering:auto;image-rendering:auto;shape-rendering:auto;text-rendering:auto;enable-background:accumulate"
         id="rect4013-5"
         width="16"
         height="16"
         x="0"
         y="0"
         rx="0.27671474"
         ry="1.4146093" />
    </g>
  </g>
</svg>
