<svg height="16" viewBox="0 0 16 16" width="16" xmlns="http://www.w3.org/2000/svg"><g transform="translate(0 -1036.3622)"><path d="m0 1036.3622h16v16h-16z" fill="none"/><path d="m13.5 1a1.5 1.5000001 0 0 0 -1.5 1.5 1.5 1.5000001 0 0 0 .849609 1.3496094l-1.457031 6.6191406-2.8847655-5.6582031-1.8632813 3.8945312-2.1875-5.3535156-2.2246093 8.6738285a1.5 1.5000001 0 0 0 -1.2324219 1.474609 1.5 1.5000001 0 0 0 1.5 1.5 1.5 1.5000001 0 0 0 1.5-1.5 1.5 1.5000001 0 0 0 -.7773438-1.3125l1.453125-5.6601562 1.8984376 4.6464842 1.9628906-4.1054686 3.2343746 6.3417966 2.078125-9.4531248a1.5 1.5000001 0 0 0 1.150391-1.4570312 1.5 1.5000001 0 0 0 -1.5-1.5z" stroke="#d3d7cf" stroke-width=".3" transform="translate(0 1036.3622)"/></g></svg>