<svg height="16" viewBox="0 0 4.2333333 4.2333335" width="16" xmlns="http://www.w3.org/2000/svg"><g transform="translate(-.000228 -.00103)"><g fill-rule="evenodd"><path d="m1.1908899 1.0583333c-.07329 0-.1322917.059002-.1322917.1322917v1.5420247c-.21400321.059511-.36212721.2543331-.36225181.4764566-.0001305.2732665.221277.4949055.49454351.4950603.2734683.0001307.4951909-.221592.4950602-.4950603-.0004209-.2220775-.148745-.4166735-.3627686-.4759399v-1.5425414c0-.07329-.059002-.1322917-.1322916-.1322917z" fill="#c00"/><rect fill="#edd400" height=".529167" rx=".132292" transform="matrix(-.70710678 .70710678 -.70710678 -.70710678 0 0)" width=".264583" x="-1.225969" y="-4.283874"/><rect fill="#edd400" height=".529167" rx=".132292" transform="rotate(90)" width=".264583" x="1.186568" y="-4.187808"/><rect fill="#edd400" height=".529167" rx=".132292" transform="matrix(.70710678 .70710678 -.70710678 .70710678 0 0)" width=".264583" x="2.820062" y="-2.416071"/><rect fill="#edd400" height=".529167" rx=".132292" width=".264583" x="2.646061"/><rect fill="#edd400" height=".529167" rx=".132292" width=".264583" x="2.646061" y="2.116667"/></g><path d="m2.3855749.96329745c.1007408-.11192018.2442476-.17582735.3948293-.17582735.2933837.00000003.5312182.2378346.5312182.5312183 0 .2933837-.2378345.5312183-.5312182.5312183-.1505807 0-.2981859-.063906-.3989266-.1758252" fill="none" stroke="#edd400" stroke-linecap="round" stroke-linejoin="round" stroke-width=".264583"/><path d="m1.1856973 0c-.37488693 0-.65629067.35163286-.65629067.75757647v1.59938553c-.23966503.1943685-.39635823.4877366-.39635823.8190714 0 .5829721.4758783 1.0583333 1.0588501 1.0583333.5967032 0 1.0583333-.4780922 1.0583333-1.0583333 0-.3341984-.1557236-.6295171-.3979085-.8237222v-1.59473473c0-.40594364-.2819206-.75757647-.6568075-.75757647zm0 .26561685h.00982c.2052578 0 .3922242.20489139.3922242.49195962v.98908693h.0005159l-.0005174.7989176c.2223138.1407058.3968749.3466191.3968749.6304524 0 .4399807-.3527359.7927166-.7927164.7927166-.43998035 0-.79530031-.3527359-.79530029-.7927166-.00000002-.2840283.17405842-.4897985.39739175-.6304524l-.001034-.7921997h.001034v-.99580483c0-.28706825.18644968-.4919596.39170734-.49195962z" fill="#3465a4" fill-rule="evenodd"/></g></svg>