<svg height="16" viewBox="0 0 16 16" width="16" xmlns="http://www.w3.org/2000/svg"><g transform="translate(0 -1036.3622)"><path d="m0 1036.3622h16v16h-16z" fill="none"/><path d="m0 1036.3622h16v16h-16z" fill="none" opacity=".3"/><g fill="#fcaf3e" stroke="#ce5c00" stroke-width=".276368"><path d="m3.2980203 1041.0011a.54847387.55714191 0 0 0 -.1210378.013.54847387.55714191 0 0 0 -.2742096.9575l1.7973574 1.8256h-4.56194639v1.1142h4.56623109l-1.8016421 1.8301a.55745795.56626796 0 1 0 .7883524.8007l2.7420952-2.7854.377038-.4003-.377038-.4005-2.7420952-2.7854a.54847387.55714191 0 0 0 -.393105-.1696z"/><path d="m12.702044 1041.0011a.54847387.55714191 0 0 1 .121038.013.54847387.55714191 0 0 1 .27421.9575l-1.797358 1.8256h4.561947v1.1142h-4.566231l1.801642 1.8301a.55745795.56626796 0 1 1 -.788353.8007l-2.7420949-2.7854-.377038-.4003.377038-.4005 2.7420949-2.7854a.54847387.55714191 0 0 1 .393105-.1696z"/><path d="m4.6385263 1039.6602a.55714191.54847387 0 0 1 .013-.1211.55714191.54847387 0 0 1 .9574998-.2742l1.8256 1.7974v-4.562h1.1142v4.5663l1.8300999-1.8017a.56626796.55745795 0 1 1 .8007.7884l-2.7853999 2.7421-.4003.377-.4005-.377-2.7853998-2.7421a.55714191.54847387 0 0 1 -.1696-.3931z"/><path d="m4.6385263 1049.0641a.55714191.54847387 0 0 0 .013.1211.55714191.54847387 0 0 0 .9574998.2742l1.8256-1.7974v4.562h1.1142v-4.5663l1.8300999 1.8017a.56626796.55745795 0 1 0 .8007-.7884l-2.7853999-2.7421-.4003-.377-.4005.377-2.7853998 2.7421a.55714191.54847387 0 0 0 -.1696.3931z"/></g></g></svg>