<svg height="16" viewBox="0 0 16 16" width="16" xmlns="http://www.w3.org/2000/svg"><g transform="translate(0 -1036.3622)"><path d="m0 1036.3622h16v16h-16z" fill="none"/><path d="m13.5 1a1.5 1.5000001 0 0 0 -1.5 1.5 1.5 1.5000001 0 0 0 1.052734 1.4316406c-.0092.137537-.169354 2.4622998-.855468 4.0585938-.353267.8218-.800262 1.3344437-1.28711 1.4023437-.486847.068-1.3226171-.2676375-2.5253904-1.7109375-.6499252-.7799-1.2401173-1.3081062-1.8085937-1.6289062-.5684764-.3209-1.1393303-.4293938-1.6503907-.3085938-1.0221206.2414-1.5975945 1.2221313-1.9882812 2.2695313-.528811 1.4176323-.7295296 3.0736571-.8125 4.0351561a1.5 1.5000001 0 0 0 -1.125 1.451172 1.5 1.5000001 0 0 0 1.5 1.5 1.5 1.5000001 0 0 0 1.5-1.5 1.5 1.5000001 0 0 0 -.8671875-1.357422c.0645526-.825097.2191882-2.3771784.7421875-3.7792968.3436883-.9213999.8150894-1.5344312 1.28125-1.6445312.2330803-.055.5172069-.028022.9296875.2050781.4124806.2328.9292221.6764844 1.5292969 1.3964844 1.2972267 1.5567 2.4067696 2.2055005 3.4316406 2.0624995 1.024871-.143 1.656001-1.0366933 2.068359-1.9960932.824717-1.9187.947266-4.4824219.947266-4.4824219l-.03125-.00195a1.5 1.5000001 0 0 0 .96875-1.4023469 1.5 1.5000001 0 0 0 -1.5-1.5z" stroke="#d3d7cb" stroke-width=".3" transform="translate(0 1036.3622)"/></g></svg>