<svg height="16" viewBox="0 0 16 16" width="16" xmlns="http://www.w3.org/2000/svg" xmlns:xlink="http://www.w3.org/1999/xlink"><radialGradient id="a" cx="24.225998" cy="30.479609" gradientTransform="matrix(1.840918 0 0 .821277 -20.45053 -6.182276)" gradientUnits="userSpaceOnUse" r="13.354399"><stop offset="0" stop-opacity=".278351"/><stop offset="1" stop-color="#a8a8a8" stop-opacity="0"/></radialGradient><linearGradient id="b" gradientUnits="userSpaceOnUse" x1="23.433737" x2="23.433737" y1="15.75864" y2="8.047659"><stop offset="0" stop-color="#eeeeec"/><stop offset="1" stop-color="#a3a398"/></linearGradient><path d="m.48979583 4.489796h11.02040717v11.020408h-11.02040717z" fill="none" stroke="#000" stroke-width=".979592"/><g transform="translate(-3.999999)"><path d="m5.4702325 5.4702321h9.0595355v9.0595359h-9.0595355z" fill="#ef2929" stroke="#fff"/><g fill="#fff"><path d="m4 4h1v1h-1z"/><path d="m6.2 4h1v1h-1z"/><path d="m8.4 4h1v1h-1z"/><path d="m10.6 4h1v1h-1z"/><path d="m12.8 4h1v1h-1z"/><path d="m15 4h1v1h-1z"/><path d="m4 15h1v1h-1z"/><path d="m6.2 15h1v1h-1z"/><path d="m8.4 15h1v1h-1z"/><path d="m10.6 15h1v1h-1z"/><path d="m12.8 15h1v1h-1z"/><path d="m15 15h1v1h-1z"/><path d="m-13.8 4h1v1h-1z" transform="rotate(-90)"/><path d="m-11.6 4h1v1h-1z" transform="rotate(-90)"/><path d="m-9.4 4h1v1h-1z" transform="rotate(-90)"/><path d="m-7.2 4h1v1h-1z" transform="rotate(-90)"/><path d="m-13.8 4h1v1h-1z" transform="matrix(0 -1 1 0 11 0)"/><path d="m-11.6 4h1v1h-1z" transform="matrix(0 -1 1 0 11 0)"/><path d="m-9.4 4h1v1h-1z" transform="matrix(0 -1 1 0 11 0)"/><path d="m-7.2 4h1v1h-1z" transform="matrix(0 -1 1 0 11 0)"/></g></g><path d="m.207753.207753h15.584494v15.584494h-15.584494z" fill="#fff" opacity="0" transform="matrix(.7661523 0 0 .77108083 -.099253 3.822901)"/><g stroke-miterlimit="10" transform="matrix(.76232012 0 0 .75097316 4.978062 .028948)"><g transform="matrix(.69351791772 0 0 .40855803444 -7.04075939628 4.48676688668)"><path d="m21.464547 5.500002c-4.895979 0-8.876945 1.7334382-8.876946 3.8658299v14.3035631c0 2.132392 3.980966 3.865829 8.876946 3.865829 4.895981 0 9.035466-1.733438 9.035464-3.865829 0-.126218 0-14.177345 0-14.3035631 0-2.1323917-4.139483-3.8658299-9.035464-3.8658299z" display="block" fill="#323232" stroke="#767973"/><ellipse cx="24" cy="14.071428" display="block" fill="#d3d7cf" opacity=".236264" rx="12.857142" ry="5.5" stroke-width="1.791129" transform="matrix(.61236 0 0 .509025 6.93016 16.53765)"/><path d="m21.470844 6.4999985c-4.350694 0-7.874683 1.542562-7.888283 3.4398227l-.096 13.3920618c-.0136 1.897264 3.633588 3.522533 7.984282 3.522533 4.350692 0 8.138576-1.459847 8.125141-3.357114l-.096-13.5574808c-.013432-1.8972652-3.678448-3.4398227-8.02914-3.4398227z" display="block" fill="none" opacity=".544304"/><ellipse cx="24" cy="14.071428" display="block" fill="url(#a)" opacity=".773196" rx="12.857142" ry="5.5" stroke-width="1.716514" transform="matrix(.622222 0 0 .545455 6.56666 1.824673)"/></g><g transform="matrix(.69272320431 0 0 .42946691889 -7.0326912761 -2.18585958373)"><path d="m21.464547 5.500002c-4.895979 0-8.876945 1.7334382-8.876946 3.8658299v14.3035631c0 2.132392 3.980966 3.865829 8.876946 3.865829 4.895981 0 9.035466-1.733438 9.035464-3.865829 0-.126218 0-14.177345 0-14.3035631 0-2.1323917-4.139483-3.8658299-9.035464-3.8658299z" display="block" fill="#d2d2d2" stroke="#767973"/><ellipse cx="24" cy="14.071428" display="block" fill="#d3d7cf" opacity=".236264" rx="12.857142" ry="5.5" stroke-width="1.791129" transform="matrix(.61236 0 0 .509025 6.93016 16.53765)"/><g fill="none"><path d="m21.470844 6.4999985c-4.350694 0-7.888282 1.5424173-7.888283 3.4398227v13.0612248c0 1.897408 3.537589 3.439823 7.888283 3.439823 4.350692 0 8.029144-1.542415 8.029142-3.439823 0-.112308 0-12.948914 0-13.0612248 0-1.8974064-3.67845-3.4398227-8.029142-3.4398227z" display="block" opacity=".544304"/><ellipse cx="24" cy="14.071428" display="block" opacity=".773196" rx="12.857142" ry="5.5" stroke="url(#b)" stroke-width="1.716514" transform="matrix(.622222 0 0 .545455 6.56666 1.824673)"/></g></g></g></svg>