<svg height="16" viewBox="0 0 16 15.999999" width="16" xmlns="http://www.w3.org/2000/svg" xmlns:xlink="http://www.w3.org/1999/xlink"><linearGradient id="a" gradientTransform="matrix(.33964448 0 0 .38029587 768.34509 90.89677)" gradientUnits="userSpaceOnUse" x1="17.247635" x2="39.904388" y1="6.376041" y2="38.876041"><stop offset="0" stop-color="#eeeeec"/><stop offset="1" stop-color="#e6e6e3"/></linearGradient><radialGradient id="b" cx="24.0061" cy="32.997028" gradientTransform="matrix(.4284513 0 0 .29601926 766.39202 91.71608)" gradientUnits="userSpaceOnUse" r="19.00016"><stop offset="0" stop-color="#729fcf"/><stop offset="1" stop-color="#326194"/></radialGradient><g transform="matrix(.99896709 0 0 1.0010832 .008081 -.008469)"><g fill-rule="evenodd" stroke-width=".363575"><path d="m4.6500074 12.3805s.422974 1.876608-1.3404216 1.894225c-.8447396.0083-.67171 1.534551-.67171 1.534551l10.7219242-.011931s.145445-1.48139-.702902-1.498758c-1.733594-.03504-1.324502-1.941949-1.324502-1.941949l-6.6823886.02386z" fill="#eeeeec" stroke="#888a85"/><path d="m1.3524719.19014832h13.2532031c.703911 0 1.216905.54293111 1.216905 1.37900638l.0038 9.9652113c0 .643486-.183648.842443-.707226.842443l-14.23820983-.007201c-.40990296-.01095-.70164369-.188118-.70714726-.767933l.005275-10.1039188c0-.67457863.53508268-1.30760788 1.17339969-1.30760788z" fill="url(#a)" stroke="#888a85"/><path d="m1.567045 1.720226h12.860943v8.745546h-12.860943z" fill="url(#b)" stroke="#204a87"/><path d="m1.6195 1.727115h4.178005v8.739568h-4.178005z" fill="#c00" stroke="#a40000" stroke-dashoffset=".8"/></g><path d="m1.3260111.51922359c-.43573938 0-.84725068.48978341-.84725068.97450821v10.1097792c.002131.229702.048186.301741.0943653.345386.0461793.04364.14129879.08171.30414128.08616l13.896134.01188c.219528 0 .287867-.04049.315682-.07353.02781-.03305.07536-.150366.07536-.437489v-9.9708828c0-.68888708-.349048-1.04581361-.8907-1.04581361h-12.9477289z" fill="none" stroke="#fff" stroke-width=".364"/><path d="m5.79058 1.720218h4.178005v8.739568h-4.178005z" fill="#73d216" fill-rule="evenodd" stroke="#4e9a06" stroke-dashoffset=".8" stroke-width=".363575"/><path d="m9.96166 1.720218h4.178005v8.739568h-4.178005z" fill="#3465a4" fill-rule="evenodd" stroke="#204a87" stroke-dashoffset=".8" stroke-width=".363575"/></g></svg>