<svg height="16" viewBox="0 0 16 16" width="16" xmlns="http://www.w3.org/2000/svg" xmlns:xlink="http://www.w3.org/1999/xlink"><linearGradient id="a" gradientUnits="userSpaceOnUse" x1="10.563464" x2="3.282309" y1="1044.2316" y2="1044.199"><stop offset="0" stop-color="#555753"/><stop offset="1" stop-color="#fff"/></linearGradient><g transform="translate(0 -1036.3622)"><path d="m8 1037.3622c3.865988 0 7 3.134 7 7s-3.134012 7-7 7c0-14 0 0 0-14zm0 0c-3.865988 0-7 3.134-7 7s3.134012 7 7 7c0-14 0 0 0-14z" fill="url(#a)" transform="matrix(1.1428571 0 0 1.1428571 -1.142857 -149.19455)"/><g transform="matrix(.85714286 0 0 .85714286 1.142857 149.1946)"><path d="m8 1037.3622c-3.865988 0-7 3.134-7 7s3.134012 7 7 7c0-14 0 0 0-14z" fill="#2e3436"/><path d="m8 1037.3622c3.865988 0 7 3.134 7 7s-3.134012 7-7 7c0-14 0 0 0-14z" fill="#eeeeec"/></g><path d="m13.788984 1043.8622h2.211016v1h-2.211016z" fill="#eeeeec"/><path d="m-1038.5204 8h2.158262v1h-2.158262z" fill="#eeeeec" transform="rotate(-90)"/><path d="m-1052.3622 8h2.131885v1h-2.131885z" fill="#fff" transform="rotate(-90)"/><g fill="#eeeeec"><path d="m-745.91895 738.4762h2.055526v1.028391h-2.055526z" transform="matrix(.70190638 -.71226922 .72508741 .68865685 0 0)"/><path d="m683.86304 781.42145h2.055526v1.028391h-2.055526z" transform="matrix(.75377679 .65713054 -.64312345 .76576251 0 0)"/></g></g></svg>