<?xml version="1.0" encoding="UTF-8" standalone="no"?>
<svg
   xmlns:osb="http://www.openswatchbook.org/uri/2009/osb"
   xmlns:dc="http://purl.org/dc/elements/1.1/"
   xmlns:cc="http://creativecommons.org/ns#"
   xmlns:rdf="http://www.w3.org/1999/02/22-rdf-syntax-ns#"
   xmlns:svg="http://www.w3.org/2000/svg"
   xmlns="http://www.w3.org/2000/svg"
   xmlns:sodipodi="http://sodipodi.sourceforge.net/DTD/sodipodi-0.dtd"
   xmlns:inkscape="http://www.inkscape.org/namespaces/inkscape"
   version="1.1"
   width="16"
   height="16"
   id="svg2"
   viewBox="0 0 16 16"
   inkscape:version="0.91 r13725"
   sodipodi:docname="gimp-curve-smooth.svg">
  <sodipodi:namedview
     pagecolor="#ffffff"
     bordercolor="#666666"
     borderopacity="1"
     objecttolerance="10"
     gridtolerance="10"
     guidetolerance="10"
     inkscape:pageopacity="0"
     inkscape:pageshadow="2"
     inkscape:window-width="640"
     inkscape:window-height="480"
     id="namedview1694"
     showgrid="false"
     inkscape:zoom="17.619659"
     inkscape:cx="-279.51882"
     inkscape:cy="322.9727"
     inkscape:window-x="0"
     inkscape:window-y="27"
     inkscape:window-maximized="0"
     inkscape:current-layer="svg2" />
  <metadata
     id="metadata90">
    <rdf:RDF>
      <cc:Work>
        <dc:format>image/svg+xml</dc:format>
        <dc:type
           rdf:resource="http://purl.org/dc/dcmitype/StillImage" />
        <dc:title>Gimp Color Icon Theme</dc:title>
        <dc:contributor>
          <cc:Agent>
            <dc:title>many unknown and unnamed, Andrew Chadwick, Alexandre Prokoudine, Aryeom Han, Benoit Touchette, Jakub Steiner, Jehan, Johannes Matschke, Kevin Payne, Klaus Staedtler, Marek Dvoroznak, Michael Natterer</dc:title>
          </cc:Agent>
        </dc:contributor>
        <dc:description>Enhanced, extended tango-art-libre for GIMP</dc:description>
      </cc:Work>
    </rdf:RDF>
  </metadata>
  <defs
     id="defs7386">
    <linearGradient
       gradientTransform="matrix(0,-735328.32,170712.69,0,2464326300,577972450)"
       osb:paint="solid"
       id="linearGradient19282">
      <stop
         stop-color="#b4b4b4"
         id="stop19284" />
    </linearGradient>
    <linearGradient
       osb:paint="gradient"
       x1="231.55"
       x2="320.70001"
       gradientUnits="userSpaceOnUse"
       id="linearGradient6057"
       gradientTransform="matrix(0.01502614,0,0,0.01468232,2.9686133,1037.3257)">
      <stop
         stop-color="#a11f7c"
         id="stop6053" />
      <stop
         stop-opacity="0.984"
         stop-color="#541f31"
         offset="1"
         id="stop6055" />
    </linearGradient>
    <linearGradient
       osb:paint="solid"
       id="linearGradient5487">
      <stop
         id="stop5485"
         offset="0"
         style="stop-color:#888a85;stop-opacity:1;" />
    </linearGradient>
  </defs>
  <g
     style="display:inline"
     transform="translate(48.528812,-82.672953)"
     id="stock">
    <g
       id="gimp-curve-smooth"
       transform="matrix(1.1945531,0,0,1.1945531,-99.034221,-538.83264)">
      <path
         id="path7187"
         d="m 53.99679,520.49029 a 1.4706576,1.4786738 0 0 0 -1.471691,1.47971 1.4706576,1.4786738 0 0 0 0.983082,1.39326 l 0,0.57773 c 0,0 -0.02923,2.23606 -0.586331,3.58039 -0.139274,0.33609 -0.308606,0.6061 -0.480793,0.77229 -0.172175,0.16618 -0.324957,0.23777 -0.543333,0.23777 -0.436743,0 -1.29609,-0.43268 -2.507543,-1.89435 -1.2946,-1.56198 -2.351687,-2.22782 -3.344042,-2.09478 -0.496184,0.0665 -0.907532,0.35296 -1.207844,0.71529 -0.300322,0.36235 -0.513055,0.80533 -0.682098,1.28124 -0.518041,1.45841 -0.624472,3.26862 -0.646919,4.04612 a 1.4706576,1.4786738 0 0 0 -1.022171,1.40504 1.4706576,1.4786738 0 0 0 1.469737,1.47971 1.4706576,1.4786738 0 0 0 1.471691,-1.47971 1.4706576,1.4786738 0 0 0 -0.906859,-1.36377 c 0.01177,-0.49437 0.07294,-2.33158 0.57656,-3.7494 0.143666,-0.40445 0.321812,-0.7475 0.510108,-0.97468 0.188297,-0.22719 0.363276,-0.33377 0.570696,-0.36158 0.414838,-0.0556 1.234011,0.28469 2.441092,1.74107 1.290227,1.55671 2.30715,2.25592 3.277592,2.25592 0.485226,0 0.918772,-0.21138 1.235204,-0.51681 0.316433,-0.30543 0.53798,-0.6957 0.711416,-1.11421 0.693736,-1.67405 0.664509,-3.96555 0.664509,-3.96555 l 0,-0.58756 A 1.4706576,1.4786738 0 0 0 55.466527,521.97 1.4706576,1.4786738 0 0 0 53.99679,520.49029 Z"
         style="fill:#000000;fill-opacity:1;stroke:#ffffff;stroke-width:0.41470948;stroke-miterlimit:4;stroke-dasharray:none;stroke-opacity:1"
         inkscape:connector-curvature="0" />
    </g>
  </g>
</svg>
