<svg height="16" viewBox="0 0 16 16" width="16" xmlns="http://www.w3.org/2000/svg" xmlns:xlink="http://www.w3.org/1999/xlink"><radialGradient id="a" cx="24.500004" cy="29.500004" gradientTransform="matrix(.79378124 0 0 .77381528 -27.443955 -12.510759)" gradientUnits="userSpaceOnUse" r="15.095438"><stop offset="0" stop-color="#f2f4f1"/><stop offset="1" stop-color="#d3d7cf"/></radialGradient><linearGradient id="b" gradientTransform="matrix(.366165 0 0 .35695485 -16.819212 -.068958)" gradientUnits="userSpaceOnUse" x1="24.095442" x2="24.095442" y1="12.595438" y2="34.09544"><stop offset="0" stop-color="#eeeeec"/><stop offset="1" stop-color="#fff"/></linearGradient><path d="m0 0h16v16h-16z" fill="none" opacity=".75"/><rect display="block" fill="#d3d7cf" height="13.636169" rx="1.670858" stroke="#888a85" stroke-width=".363831" width="13.636168" x="1.181915" y="1.181915"/><rect display="block" fill="url(#a)" height="10.419825" rx="1.309698" ry="1.276755" stroke="url(#b)" stroke-width=".363831" transform="scale(-1 1)" width="10.688677" x="-13.340646" y="2.251248"/><path d="m11.107466 10.367229h-.773202v-.4934375c-.30822.3988935-.7147494.5983395-1.2195874.5983395-.403873 0-.7240477-.106197-.9605247-.318597-.2338209-.214988-.3507313-.5012067-.3507309-.8586576-.0000004-.2434794.0478265-.454582.1434811-.6333087.0983106-.1787235.2444479-.3237757.4384135-.4351573.1966209-.1113769.4516978-.1864936.7652314-.2253489l1.183717-.1554133c-.000003-.3056431-.066434-.5348776-.199279-.6877034-.130198-.1528198-.3254911-.229231-.5858801-.2292347-.215223.0000037-.4450579.0401518-.6895055.1204453-.2417928.0803002-.4583423.1968601-.6496493.3496797v-.76541c.4968678-.2434768.9645085-.3652171 1.4029243-.365221.4835816.0000039.8529106.1308099 1.1079916.3924183.25773.2616156.386597.632017.3866 1.1112046zm-.773202-1.503624v-.4545839c-.6642653.082888-1.0389094.1308078-1.1239336.1437571-.08237.012954-.1846666.04533-.3068893.097133-.1195687.051806-.2045945.1204469-.2550772.2059226-.047828.085478-.071741.2098091-.07174.3729917-.0000011.1839065.066426.3341391.199279.4506993.135508.1139694.3122015.1709552.5300818.1709542.271017.000001.5101516-.094543.7174033-.2836299.207248-.1890851.310873-.4234996.310876-.7032446m.334789-4.3671111-1.0721212 1.2743882h-.5300821l.8648709-1.2743882z"/><rect display="block" fill="none" height="12.936156" opacity=".488889" rx="1.30355" ry="1.270762" stroke="#fff" stroke-width=".363831" width="12.936156" x="1.531921" y="1.531921"/></svg>