<svg height="16" viewBox="0 0 16 16" width="16" xmlns="http://www.w3.org/2000/svg"><g stroke-width=".038901"><path d="m7.2137584 15.261679c-.4689554-.059874-1.2582499-.234252-1.6413615-.362624-1.1090019-.3716-1.8787543-.858887-2.7886653-1.765346-1.2267182-1.222064-1.82549371-2.430995-2.08956304-4.2188381-.25693694-1.7395533.28307112-3.8031486 1.37185764-5.2424402.8249121-1.0904697 1.8437938-1.9014281 2.9909782-2.3806089 2.0583325-.85976875 4.3314003-.75968385 6.3239436.2784477 1.209757.6302936 2.415997 1.8640284 3.03 3.0990654.327259.6582653.468335 1.0699675.638905 1.8645206.115388.5374996.132121.7235288.131922 1.4665984-.000234.9557532-.08274 1.4657122-.382654 2.3658881-.365247 1.096259-.85656 1.874147-1.748414 2.768236-1.22223 1.225294-2.418225 1.821826-4.183773 2.086761-.4424291.06639-1.2876083.08701-1.6531756.04034zm1.4829958-2.856855c1.7068388-.30961 3.1070008-1.602201 3.5593458-3.2858921.146195-.5441565.158594-1.6482829.024029-2.1396969-.213655-.7802331-.580841-1.449335-1.099792-2.0040845-.435583-.4656315-.828393-.7534246-1.3833801-1.0135355-2.5490851-1.1947056-5.5522152.249994-6.2395473 3.0016251-.1163108.4656346-.1169445 1.6249399-.0011203 2.0505607.416181 1.5293472 1.4232633 2.6630812 2.8244393 3.1796432.7368589.271653 1.5663758.347361 2.3160256.21138z" fill="#fce94f"/><path d="m7.2137584 15.261679c-1.2803589-.163471-2.3875645-.559037-3.3437481-1.194606-.6539328-.434665-1.6255065-1.418356-2.0670285-2.092809-1.00158282-1.529982-1.39553613-3.5609824-1.03634113-5.3427901.31106893-1.5430774 1.00803963-2.808658 2.15225573-3.9081319 1.0526201-1.0114596 2.1005004-1.5484543 3.6627654-1.87701368.6983944-.1468793 1.9166965-.15931677 2.5526977-.02606034.5136385.10761859 1.4570575.42068502 1.9394285.64358502.941517.4350669 2.074322 1.4040314 2.752673 2.3545454.507745.7114594 1.1471 2.1546052 1.013672 2.2880515-.06186.061869-2.388258.6876149-2.485631.6685751-.04113-.0080425-.112025-.124039-.157543-.2577701-.493275-1.449212-1.807898-2.6015337-3.305961-2.8978133-.4090587-.0809015-.6356896-.0967512-1.1423887-.0798943-.5707412.0189877-.6849565.038753-1.176672.203628-1.6463556.5520316-2.7694283 1.8329312-3.058699 3.4885423-.092782.5310296-.0688588 1.3563092.0524481 1.8093024.7070737 2.640408 3.3861895 4.073907 5.8911633 3.15215.6457033-.2376 1.1784533-.58609 1.7857073-1.168096.340606-.326444.810941-1.1137303.957181-1.6022079.03864-.1290665.09094-.2072845.139268-.208298.04257-.0008909.632127.1459954 1.310137.3264182l1.232743.32804-.02311.1720347c-.03808.283553-.411548 1.18043-.672125 1.614108-.347366.57812-.720756 1.049777-1.28178 1.619111-1.053726 1.069336-2.34814 1.693491-4.037941 1.947059-.4424291.06639-1.2876083.08701-1.6531756.04034z" fill="#8ae234"/><path d="m7.2137584 15.264796c-1.9816371-.295361-3.152895-.858801-4.4300268-2.131087-.4695956-.467814-.727845-.773117-.9807498-1.159445-.7958251-1.215674-1.22801537-2.7952246-1.16047945-4.2412722.08970209-1.9206717.85043715-3.6271449 2.20247995-4.9405815 1.0515745-1.0215477 2.1255159-1.5910401 3.6242309-1.92186605.5168504-.11408942.7116536-.13252272 1.4252646-.1348651.9475302-.003112 1.3089657.0560289 2.2342352.36557425 1.239132.4145464 1.985346.8713596 2.846849 1.7427679.652978.6604867 1.046466 1.1914626 1.389113 1.8744819.293043.5841396.54468 1.3187142.475458 1.3879467-.06186.061869-2.388258.6876149-2.485631.6685751-.04113-.0080425-.112025-.124039-.157543-.2577701-.493275-1.449212-1.807898-2.6015337-3.305961-2.8978133-.6024343-.1191465-1.5798676-.1074758-2.059131.0245863-1.6315124.4495671-2.8716571 1.706662-3.2744574 3.3192122-.1163108.4656346-.1169445 1.6249399-.0011203 2.0505607.4162109 1.5294582 1.4242097 2.6641262 2.8244393 3.1793692.7660906.281899 1.5234644.346904 2.368236.203264.7827634-.133095 1.4838564-.465777 2.1321334-1.011738l.215119-.181168.959636.958867c.527799.527376.949545.985162.937214 1.017302-.03215.0838-.48037.462937-.924505.782016-.734119.527413-1.923227 1.027625-2.8855793 1.213854-.3970177.07683-1.6664952.134351-1.9692239.08923z" fill="#edd400"/><path d="m7.2137584 15.264796c-1.9816371-.295361-3.152895-.858801-4.4300268-2.131087-.4695956-.467814-.727845-.773117-.9807498-1.159445-.7958251-1.215674-1.22801537-2.7952246-1.16047945-4.2412722.08970209-1.9206717.85043715-3.6271449 2.20247995-4.9405815 1.0515745-1.0215477 2.1255159-1.5910401 3.6242309-1.92186605.5168504-.11408942.7116536-.13252272 1.4252646-.1348651 1.1392192-.00373863 1.3727982.04655086 2.7901142.60072725.532885.2083602 1.07764.5105862 1.524107.8455627.289951.2175454.685602.5716026.743556.665387.0378.061163-1.754304 1.894923-1.851872 1.894923-.02903 0-.105827-.056762-.17066-.1261379-.327775-.3507461-1.3611093-.9107763-1.77347-.9611572-.1056407-.0129071-.3430939-.0499126-.5276743-.0822348-.4224272-.0739721-1.4085912-.0346013-1.7967117.0717304-1.6283764.446119-2.8716609 1.706225-3.2744574 3.3187605-.1163108.4656346-.1169445 1.6249399-.0011203 2.0505607.4162109 1.5294582 1.4242097 2.6641262 2.8244393 3.1793692.7660906.281899 1.5234644.346904 2.368236.203264.7827634-.133095 1.4838564-.465777 2.1321334-1.011738l.215119-.181168.959636.958867c.527799.527376.949545.985162.937214 1.017302-.03215.0838-.48037.462937-.924505.782016-.734119.527413-1.923227 1.027625-2.8855793 1.213854-.3970177.07683-1.6664952.134351-1.9692239.08923z" fill="#fcaf3e"/><path d="m7.2137584 15.264796c-1.9816371-.295361-3.152895-.858801-4.4300268-2.131087-1.2267182-1.222064-1.82549371-2.430995-2.08956304-4.2188381-.19959198-1.3513081.08965074-2.9642859.76864534-4.2863957.6867113-1.3371343 2.0044965-2.595897 3.3684267-3.2175567 1.0418449-.47485829 2.6179055-.76975676 3.561621-.66641952.4877475.05340839 1.3040751.2162012 1.3588489.27098292.0349007.0349054-.6042598 2.458393-.6695288 2.5386336-.0297805.0366118-.1464118.0336011-.3961526-.0102269-.7708244-.1352748-1.4972671-.0669605-2.2259243.2093246-.6798166.2577661-1.1753204.5660015-1.6331162 1.0159043-.6322257.6213248-1.0624229 1.3648037-1.269579 2.1941226-.1163108.4656346-.1169445 1.6249399-.0011203 2.0505607.4162109 1.5294582 1.4242097 2.6641262 2.8244393 3.1793692.7660906.281899 1.5234644.346904 2.368236.203264.7827634-.133095 1.4838564-.465777 2.1321334-1.011738l.215119-.181168.959636.958867c.527799.527376.949545.985162.937214 1.017302-.03215.0838-.48037.462937-.924505.782016-.734119.527413-1.923227 1.027625-2.8855793 1.213854-.3970177.07683-1.6664952.134351-1.9692239.08923z" fill="#729fcf"/><path d="m9.4538502 13.726278c-.185305-.701925-.3440873-1.29811-.3528495-1.324857-.00876-.02675.1537905-.108506.361229-.18169.4482405-.158138.8684843-.399314 1.3127223-.753365l.325048-.259058.957744.956977c.526759.526337.947654.983272.935323 1.015412-.0755.196769-1.150266.977844-1.782981 1.295761-.411262.206643-1.2515632.528247-1.3778678.527343-.022798-.000155-.1930637-.574598-.378368-1.276523zm-4.0023327 1.084898c-.9546195-.336721-1.6682592-.780619-2.5651894-1.595598-1.1409266-1.036681-1.796986-2.230382-2.12442446-3.8653935-.14543083-.7261863-.15497296-1.8742928-.02152396-2.5897822.28922712-1.5506975 1.02614322-2.9408476 2.09569262-3.9534036 1.132689-1.0723316 2.0950878-1.5821666 3.568816-1.89059608.8792133-.18400615 1.4369823-.23223726 1.9879733-.17190364.4877475.05340839 1.3040751.2162012 1.3588489.27098292.0349007.0349054-.6042598 2.458393-.6695288 2.5386336-.0297805.0366118-.1464118.0336011-.3961526-.0102269-.7708244-.1352748-1.4972671-.0669605-2.2259243.2093246-.6798166.2577661-1.1753204.5660015-1.6331162 1.0159043-.6322257.6213248-1.0624229 1.3648037-1.269579 2.1941226-.1163108.4656346-.1169445 1.6249399-.0011203 2.0505607.1966929.7227911.6642441 1.6100232 1.0272737 1.9493702.069366.06484.1261209.145961.1261209.180265 0 .06856.5300202.508681.8752106.726762.1203415.07603.4157251.218481.656408.31656.4325509.176268.4375404.180222.432009.342384-.00308.09023-.1431214.672842-.3112085 1.294692-.3515379 1.300535-.2708147 1.213007-.9105855.987342z" fill="#f57900"/><path d="m9.4538502 13.726278c-.185305-.701925-.3440873-1.29811-.3528495-1.324857-.00876-.02675.1537905-.108506.361229-.18169.4482405-.158138.8684843-.399314 1.3127223-.753365l.325048-.259058.957744.956977c.526759.526337.947654.983272.935323 1.015412-.0755.196769-1.150266.977844-1.782981 1.295761-.411262.206643-1.2515632.528247-1.3778678.527343-.022798-.000155-.1930637-.574598-.378368-1.276523zm-4.0023327 1.084898c-.9546195-.336721-1.6682592-.780619-2.5651894-1.595598-1.1409266-1.036681-1.796986-2.230382-2.12442446-3.8653935-.14543083-.7261863-.15497296-1.8742928-.02152396-2.5897822.20165864-1.0811978.68169842-2.2249813 1.26284452-3.0089612.3224393-.4349782.7496245-.9057115.8219235-.9057115.025449 0 .1918474-.1334899.3697738-.2966437.3894691-.3571329.9577655-.7396018 1.5048963-1.0128088.520282-.2598001 1.270185-.5131643 1.3329776-.450363.0495545.0495608.6691771 2.3120211.6699633 2.4462695.0002723.052556-.100198.1145489-.3034324.1871609-.751783.2685973-1.2787827.6378814-1.7837699 1.2499389-.644029.7805801-.9548778 1.4185763-1.1023181 2.2624342-.092782.5310296-.0688588 1.3563092.0524481 1.8093024.1854019.6923429.6590044 1.58669 1.0178766 1.922151.069366.06484.1261205.145961.1261205.180265 0 .06856.5300202.508681.8752107.726762.1203414.07603.415725.218481.6564079.31656.4325509.176268.4375408.180222.4320094.342384-.00308.09023-.1431218.672842-.3112089 1.294692-.3515375 1.300535-.2708143 1.213007-.9105851.987342z" fill="#3465a4"/><path d="m9.4538502 13.726278c-.185305-.701925-.3440873-1.29811-.3528495-1.324857-.00876-.02675.1537905-.108506.361229-.18169.4482405-.158138.8684843-.399314 1.3127223-.753365l.325048-.259058.957744.956977c.526759.526337.947654.983272.935323 1.015412-.0755.196769-1.150266.977844-1.782981 1.295761-.411262.206643-1.2515632.528247-1.3778678.527343-.022798-.000155-.1930637-.574598-.378368-1.276523zm-7.0218179-.935413c-1.1633366-1.24378-1.8738703-3.2520118-1.78952995-5.0578732.08204847-1.7567946.77269315-3.4449517 1.89498815-4.6319575.1327628-.1404174.2622084-.2553047.2876572-.2553047.025449 0 .1918474-.1334899.3697738-.2966437.3894691-.3571329.9577655-.7396018 1.5048963-1.0128088.520282-.2598001 1.270185-.5131643 1.3329776-.450363.0495545.0495608.6691771 2.3120211.6699633 2.4462695.0002723.052556-.100198.1145489-.3034324.1871609-.751783.2685973-1.2787827.6378814-1.7837699 1.2499389-.644029.7805801-.9548778 1.4185763-1.1023181 2.2624342-.092782.5310296-.0688588 1.3563092.0524481 1.8093024.1858492.6940135.5599197 1.412601.9739398 1.870935.1193667.132142.1685963.226039.1497116.285547-.034232.10787-1.8360697 1.909047-1.9097473 1.909047-.028761 0-.1851623-.142057-.3475582-.315684z" fill="#73d216"/><path d="m2.4320323 12.790865c-1.1633366-1.24378-1.8738703-3.2520118-1.78952995-5.0578732.08204847-1.7567946.77269315-3.4449517 1.89498815-4.6319575.1327628-.1404174.2622084-.2553047.2876572-.2553047.025449 0 .1918474-.1334899.3697738-.2966437.3894691-.3571329.9577655-.7396018 1.5048963-1.0128088.520282-.2598001 1.270185-.5131643 1.3329776-.450363.0495545.0495608.6691771 2.3120211.6699633 2.4462695.0002723.052556-.100198.1145489-.3034324.1871609-.751783.2685973-1.2787827.6378814-1.7837699 1.2499389-.644029.7805801-.9548778 1.4185763-1.1023181 2.2624342-.092782.5310296-.0688588 1.3563092.0524481 1.8093024.1858492.6940135.5599197 1.412601.9739398 1.870935.1193667.132142.1685963.226039.1497116.285547-.034232.10787-1.8360697 1.909047-1.9097473 1.909047-.028761 0-.1851623-.142057-.3475582-.315684z" fill="#ad7fa8"/><path d="m2.4430821 12.711573c-.6192827-.724193-1.0717705-1.515868-1.3540465-2.369047-.0855871-.258687-.11728174-.4223726-.0875432-.4521151.049446-.049453 2.3168-.6735513 2.4485464-.6739727.052066-.0001556.1288403.1313564.2340465.4009458.1858698.476287.503215 1.001495.8140676 1.347286l.2249241.250204-.8940631.900808c-.4917345.495446-.9294215.920274-.9726379.944062-.0618863.034066-.1496657-.039882-.4132939-.348171zm-.1888506-6.2282381c-.6953062-.1867341-1.28492706-.3593862-1.31026849-.3836718-.09840557-.0943054.39289369-1.3274006.76349989-1.9162818.3342433-.5311015 1.0081621-1.3376517 1.1176848-1.3376517.025449 0 .1918474-.1334899.3697738-.2966437.3894691-.3571329.9577655-.7396018 1.5048963-1.0128088.520282-.2598001 1.270185-.5131643 1.3329776-.450363.0495545.0495608.6691771 2.3120211.6699633 2.4462695.0002723.052556-.100198.1145489-.3034324.1871609-.7507211.268218-1.2790807.638114-1.7808109 1.2467162-.4479546.5433729-.6524143.8735806-.8605017 1.3897343-.0865929.2147913-.1759251.4077488-.1985156.4287933-.0225906.0210449-.6099604-.1145197-1.3052666-.3012534z" fill="#ef2929"/><path d="m2.4430821 12.711573c-.6192827-.724193-1.0717705-1.515868-1.3540465-2.369047-.0855871-.258687-.11728174-.4223726-.0875432-.4521151.049446-.049453 2.3168-.6735513 2.4485464-.6739727.052066-.0001556.1288403.1313564.2340465.4009458.1858698.476287.503215 1.001495.8140676 1.347286l.2249241.250204-.8940631.900808c-.4917345.495446-.9294215.920274-.9726379.944062-.0618863.034066-.1496657-.039882-.4132939-.348171zm-.1888506-6.2282381c-.6953062-.1867341-1.28492706-.3593862-1.31026849-.3836718-.09840557-.0943054.39289369-1.3274006.76349989-1.9162818.224199-.3562447.5585734-.7910805.8341345-1.0847454l.241816-.2577031.9841456.9834019.9841459.9834024-.2519692.3039879c-.3298988.3980062-.5483389.76439-.741722 1.24407-.0865929.2147913-.1759251.4077488-.1985156.4287933-.0225906.0210449-.6099604-.1145197-1.3052666-.3012534z" fill="#c00"/><path d="m2.4430821 12.711573c-.6192827-.724193-1.0717705-1.515868-1.3540465-2.369047-.0855871-.258687-.11728174-.4223726-.0875432-.4521151.049446-.049453 2.3168-.6735513 2.4485464-.6739727.052066-.0001556.1288403.1313564.2340465.4009458.1858698.476287.503215 1.001495.8140676 1.347286l.2249241.250204-.8940631.900808c-.4917345.495446-.9294215.920274-.9726379.944062-.0618863.034066-.1496657-.039882-.4132939-.348171z" fill="#75507b"/></g><path d="m12.573592 8.135228a4.6970806 4.8680339 0 0 1 -4.6460212 4.916942 4.6970806 4.8680339 0 0 1 -4.747588-4.8116032 4.6970806 4.8680339 0 0 1 4.639239-4.923815 4.6970806 4.8680339 0 0 1 4.7542152 4.8045691" fill="#fff"/><path d="m7.9024136.00107134a7.9995306 7.9994643 0 0 0 -7.90188016 8.09125506 7.9995306 7.9994643 0 0 0 8.08546306 7.9076736 7.9995306 7.9994643 0 0 0 7.9135985-8.0795371v-.0234359a7.9995306 7.9994643 0 0 0 -8.0971814-7.89595566zm.011718.96868513a7.0310278 7.0309695 0 0 1 7.1167694 6.93898843v.021483a7.0310278 7.0309695 0 0 1 -6.9546695 7.1010871 7.0310278 7.0309695 0 0 1 -7.10700491-6.9487536 7.0310278 7.0309695 0 0 1 6.94490501-7.11280493z" fill="#b4b4b4"/><path d="m4 6.25s1.2576558-1.0669371 2-1c.8299661.074838 1.1666667 1.5 2 1.5s1.1700339-1.425162 2-1.5c.742344-.066937 2 1 2 1" fill="none" stroke="#3465a4" stroke-width=".5"/><path d="m4 10.25s1.2576558-1.0669371 2-1c.8299661.074838 1.1666667 1.5 2 1.5s1.1700339-1.425162 2-1.5c.742344-.066937 2 1 2 1" fill="none" stroke="#3465a4" stroke-width=".5"/><path d="m4 8.25s1.2576558-1.0669371 2-1c.8299661.074838 1.1666667 1.5 2 1.5s1.1700339-1.425162 2-1.5c.742344-.066937 2 1 2 1" fill="none" stroke="#3465a4" stroke-width=".5"/></svg>