<svg height="16" viewBox="0 0 16 16" width="16" xmlns="http://www.w3.org/2000/svg" xmlns:xlink="http://www.w3.org/1999/xlink"><linearGradient id="a" gradientTransform="matrix(.9014429 0 0 .96677306 -.214873 6.165353)" gradientUnits="userSpaceOnUse" x1="304.763" x2="309.05939" xlink:href="#b" y1="160.46092" y2="160.46092"/><linearGradient id="b"><stop offset="0" stop-color="#fff"/><stop offset="1" stop-color="#fffaa6" stop-opacity="0"/></linearGradient><linearGradient id="c" gradientTransform="matrix(.9014429 0 0 .96677306 8.314804 6.101226)" gradientUnits="userSpaceOnUse" x1="304.763" x2="309.05939" xlink:href="#b" y1="160.46092" y2="160.46092"/><g transform="translate(0 -1036.3622)"><path d="m-.000003 1036.3622h15.924426v16h-15.924426z" fill="#fff" opacity="0"/><g transform="matrix(1.003358 0 0 1.0366308 -273.5846 880.24138)"><path d="m653.01562 307.90039c-.83722-.0499-1.46249.30706-1.87109.61328s-.63281.64844-.63281.64844c-.0105.0109-.0216.0233-.0312.0352l-3.42137 6.91697c-.24555.38136-.2706.90608-.32085 1.29201 0 1.93425 1.51366 3.50195 3.38086 3.50195 1.70518 0 3.05451-1.91276 3.27811-2.55601.12052-.27677-.1054.49729.0745-.27542.05-.21449.91333-.1066 1.90463-.1066 0 0 .0959.00029.13941.0533.15483 1.52957 1.59132 2.88471 3.2965 2.88471 1.8672 0 3.38086-1.5677 3.38086-3.50195-.0142-.36215-.13219-1.03973-.2524-1.36139l-3.49372-6.84759c-.01-.0119-.0208-.0242-.0312-.0352 0 0-.22264-.34222-.62696-.64844-.40433-.30622-1.02153-.61328-1.85156-.61328-.27235-.0435-.54883.23087-.54883.54492 0 .31406.27648.59031.54883.54688 0 0 1.13535-.46765 1.70312.7832l2.20313 4.3125c-.32696-.10909-.66926-.18359-1.03125-.18359-1.3761 0-2.57443.64838-3.1021 1.87065-.0875.21024-.0766.38617-.18676.38806l-2.02364.0348c-.11016.002-.14919-.26581-.19261-.36947-.52767-1.22227-1.81215-1.92394-3.18825-1.92394-.37063 0-.72099.0772-1.05469.1914l2.23047-4.32031c.57378-1.25085 1.7207-.7832 1.7207-.7832.27525.0434.55665-.23282.55665-.54688 0-.31405-.22624-.46202-.40238-.5358zm-2.83593 7.41016c1.13609 0 2.05273.93617 2.05273 2.0957s-.91664 2.0957-2.05273 2.0957c-1.1361 0-2.05274-.93617-2.05274-2.0957s.91664-2.0957 2.05274-2.0957zm8.69336 0c1.13609 0 2.05273.93617 2.05273 2.0957s-.91664 2.0957-2.05273 2.0957c-1.1361 0-2.05274-.93617-2.05274-2.0957s.91664-2.0957 2.05274-2.0957z" fill="#729fcf" stroke="#000" stroke-width=".491576" transform="matrix(1.00000003398 0 0 .9999999992 -373.82355920397 -156.07999674414)"/><ellipse cx="276.44806" cy="161.29465" fill="url(#a)" rx="1.759757" ry="1.866016"/><ellipse cx="284.97775" cy="161.23051" fill="url(#c)" rx="1.759757" ry="1.866016"/></g></g></svg>