<svg height="16" viewBox="0 0 16 16" width="16" xmlns="http://www.w3.org/2000/svg" xmlns:xlink="http://www.w3.org/1999/xlink"><radialGradient id="a" cx="2.96875" cy="14.025855" gradientTransform="matrix(.99999742 -.00227153 .00132959 .58532608 -.018641 5.8229)" gradientUnits="userSpaceOnUse" r="1.823314"><stop offset="0" stop-color="#a3bedd"/><stop offset="1" stop-color="#487cbc"/></radialGradient><path d="m2.416667 2.416666h9.166666v9.166667h-9.166666z" style="fill:#3465a4;fill-rule:evenodd;stroke:#204a87;stroke-width:.833333;stroke-linecap:square;stroke-linejoin:round;stroke-miterlimit:0"/><path d="m3.281008 3.060705h7.435152v7.68308h-7.435152z" style="fill:none;stroke:#fff;stroke-width:.839902;stroke-linecap:square;stroke-linejoin:round;stroke-miterlimit:0;stroke-opacity:.2"/><path d="m0 0h16v16h-16z" opacity="0"/><path d="m1.795305.892183h8.921194v11.672466h-8.921194z" style="opacity:.55;fill:#4877b1;fill-rule:evenodd;stroke:#204a87;stroke-width:.852832;stroke-linecap:square;stroke-linejoin:round;stroke-miterlimit:0" transform="matrix(1.0443439 0 .362811692 .95832500249 -.224461 2.051259)"/><path d="m2.900905 1.301681h7.268956v10.201797h-7.268956z" style="opacity:.55;fill:none;stroke:#fff;stroke-width:.865479;stroke-linecap:square;stroke-linejoin:round;stroke-miterlimit:0;stroke-opacity:.547368" transform="matrix(1.0443439 0 .33823327763 .96689569903 -.224461 2.051259)"/><circle cx="2.96875" cy="13" fill="url(#a)" r="1.5625" stroke="#154384" stroke-width=".775171" transform="matrix(1.28194852423 0 0 1.28187540703 -1.30587580162 -14.16414838558)"/><ellipse cx="4.651437" cy="2.300447" fill="#adc5e1" rx="1.756718" ry="1.204291" transform="matrix(.66870056 0 0 .66866242 -.61361758959 .10370346613)"/><circle cx="2.96875" cy="13" fill="url(#a)" r="1.5625" stroke="#154384" stroke-width=".775171" transform="matrix(1.28194852423 0 0 1.28187540703 7.69412419838 -14.16414838558)"/><ellipse cx="4.651437" cy="2.300447" fill="#adc5e1" rx="1.756718" ry="1.204291" transform="matrix(.66870056 0 0 .66866242 8.38638241041 .10370346613)"/><circle cx="2.96875" cy="13" fill="url(#a)" r="1.5625" stroke="#154384" stroke-width=".775171" transform="matrix(1.28194852423 0 0 1.28187540703 6.69412419838 -3.16414838558)"/><ellipse cx="4.651437" cy="2.300447" fill="#adc5e1" rx="1.756718" ry="1.204291" transform="matrix(.66870056 0 0 .66866242 7.38638241041 11.10370346613)"/></svg>