<svg height="16" viewBox="0 0 16 16" width="16" xmlns="http://www.w3.org/2000/svg" xmlns:xlink="http://www.w3.org/1999/xlink"><linearGradient id="a" gradientTransform="matrix(1.052632 0 0 1 -1.789474 0)" gradientUnits="userSpaceOnUse" x1="25.404572" x2="25.464211" xlink:href="#b" y1="3.818019" y2="9.323351"/><linearGradient id="b"><stop offset="0" stop-color="#97978a"/><stop offset=".5" stop-color="#c2c2b9"/><stop offset="1" stop-color="#7d7d6f"/></linearGradient><linearGradient id="c" gradientTransform="matrix(.538743 0 0 .511806 10.8008 -.58264)" gradientUnits="userSpaceOnUse" x1="25.404572" x2="25.404572" xlink:href="#b" y1="3.818019" y2="6.481061"/><path d="m.207753.207753h15.584494v15.584494h-15.584494z" fill="none" opacity="0" stroke="#000" stroke-linecap="round" stroke-width=".415506"/><g transform="matrix(.39963131 0 0 .34748431 -1.584022 .0001)"><rect fill="#c68827" fill-rule="evenodd" height="41.045437" rx="1.387937" ry="1.387936" stroke="#714c16" width="39.035683" x="4.464317" y="4.5"/><rect fill="#5c5c5c" fill-rule="evenodd" height="4" rx=".983875" width="12" x="18"/><rect fill="none" height="39.092987" rx=".478798" stroke="#c68827" width="37.085655" x="5.439343" y="5.430778"/><g fill-rule="evenodd"><rect fill="url(#a)" height="7" rx="1.387938" ry="1.387936" stroke="#5c5c5c" width="18.947376" x="14.526322" y="3.5"/><rect fill="url(#c)" height="3.58264" rx=".325436" width="9.697376" x="19.151323" y="1.208679"/></g></g><g style="fill:#fff;fill-rule:evenodd;stroke:#204a87;stroke-width:.999078;stroke-linejoin:round;stroke-miterlimit:0"><path d="m.009387 1037.3622h8.990613v7.987069h-8.990613z" transform="matrix(1.0009999 0 0 1.0016415 1.490802 -1034.565345)"/><path d="m.009387 1037.3622h8.990613v7.987069h-8.990613z" transform="matrix(1.0009999 0 0 1.0016415 5.490802 -1032.565345)"/></g></svg>