<svg height="16" viewBox="0 0 16 16" width="16" xmlns="http://www.w3.org/2000/svg"><path d="m.50002188.50002151h14.99995612v14.99995649h-14.99995612z" fill="none" stroke="#000"/><g fill="#fff"><path d="m1 0h3v1h-3z"/><path d="m6.5 0h3v1h-3z"/><path d="m12 0h3v1h-3z"/><g transform="matrix(0 1 -1 0 16 0)"><path d="m1 0h3v1h-3z"/><path d="m6.5 0h3v1h-3z"/><path d="m12 0h3v1h-3z"/></g><g transform="matrix(0 1 -1 0 1 0)"><path d="m1 0h3v1h-3z"/><path d="m6.5 0h3v1h-3z"/><path d="m12 0h3v1h-3z"/></g><path d="m1 15h3v1h-3z"/><path d="m6.5 15h3v1h-3z"/><path d="m12 15h3v1h-3z"/></g></svg>