<svg xmlns:dc="http://purl.org/dc/elements/1.1/" xmlns:cc="http://creativecommons.org/ns#" xmlns:rdf="http://www.w3.org/1999/02/22-rdf-syntax-ns#" xmlns:svg="http://www.w3.org/2000/svg" xmlns="http://www.w3.org/2000/svg" xmlns:xlink="http://www.w3.org/1999/xlink" width="16" height="16" id="svg2" version="1.1" viewBox="0 0 16 16"><defs id="defs4"><linearGradient id="linearGradient6395"><stop offset="0" id="stop6397" stop-color="#ffffff" stop-opacity="1"/><stop offset="1" id="stop6399" stop-color="#ffffff" stop-opacity="0"/></linearGradient><linearGradient xlink:href="#linearGradient6951" id="linearGradient6957" x1="28.059" y1="18.868" x2="33.437" y2="23.743" gradientUnits="userSpaceOnUse" gradientTransform="translate(-3.90695,-1.802856)"/><linearGradient id="linearGradient6951"><stop offset="0" id="stop6953" stop-color="#6e3d09" stop-opacity="1"/><stop id="stop6959" offset=".242" stop-color="#ea8113" stop-opacity="1"/><stop offset=".621" id="stop6961" stop-color="#5c3307" stop-opacity="1"/><stop offset="1" id="stop6955" stop-color="#e07c12" stop-opacity="1"/></linearGradient><linearGradient xlink:href="#linearGradient6939" id="linearGradient6945" x1="19.395" y1="30.001" x2="23.109" y2="33.439" gradientUnits="userSpaceOnUse" gradientTransform="translate(-3.90695,-1.802856)"/><linearGradient id="linearGradient6939"><stop offset="0" id="stop6941" stop-color="#bdbdbd" stop-opacity="1"/><stop id="stop6947" offset=".333" stop-color="#e2e2e2" stop-opacity="1"/><stop offset=".667" id="stop6949" stop-color="#a3a3a3" stop-opacity="1"/><stop offset="1" id="stop6943" stop-color="#dddddd" stop-opacity="1"/></linearGradient><radialGradient xlink:href="#linearGradient6963" id="radialGradient6969" cx="15.415" cy="35.357" fx="15.415" fy="35.357" r="7.579" gradientTransform="matrix(0.994655,0,0,0.969322,-4.583017,0.165919)" gradientUnits="userSpaceOnUse"/><linearGradient id="linearGradient6963"><stop offset="0" id="stop6965" stop-color="#696969" stop-opacity="1"/><stop offset="1" id="stop6967" stop-color="#000000" stop-opacity="1"/></linearGradient><linearGradient xlink:href="#linearGradient6395" id="linearGradient2452" x1="13.236" y1="37.752" x2="7.752" y2="42.282" gradientUnits="userSpaceOnUse" gradientTransform="matrix(0.852298,0,0,0.852298,-1.675107,3.753977)"/><linearGradient xlink:href="#linearGradient2966" id="linearGradient6343" gradientUnits="userSpaceOnUse" gradientTransform="matrix(0.00525957,0.999987,0.999987,-0.00525957,42.9955,-2.496241)" x1="48.906" y1="17.376" x2="50.988" y2="22.251"/><linearGradient id="linearGradient2966"><stop offset="0" id="stop2968" stop-color="#ffd1d1" stop-opacity="1"/><stop id="stop3006" offset=".5" stop-color="#ff1d1d" stop-opacity="1"/><stop offset="1" id="stop2970" stop-color="#6f0000" stop-opacity="1"/></linearGradient><linearGradient xlink:href="#linearGradient2974" id="linearGradient6345" gradientUnits="userSpaceOnUse" gradientTransform="matrix(0.00525957,0.999987,0.999987,-0.00525957,42.99552,-2.496241)" x1="46" y1="19.813" x2="47.688" y2="22.625"/><linearGradient id="linearGradient2974"><stop offset="0" id="stop2976" stop-color="#c1c1c1" stop-opacity="1"/><stop offset="1" id="stop2978" stop-color="#acacac" stop-opacity="1"/></linearGradient><radialGradient xlink:href="#linearGradient2984" id="radialGradient6347" gradientUnits="userSpaceOnUse" gradientTransform="matrix(0.0153767,2.923527,2.029691,-0.01067544,20.39098,-69.72665)" cx="29.053" cy="27.641" fx="29.053" fy="27.641" r="3.241"/><linearGradient id="linearGradient2984"><stop offset="0" id="stop2986" stop-color="#e7e2b8" stop-opacity="1"/><stop offset="1" id="stop2988" stop-color="#e7e2b8" stop-opacity="0"/></linearGradient><linearGradient xlink:href="#linearGradient2994" id="linearGradient6349" gradientUnits="userSpaceOnUse" gradientTransform="matrix(0.00525957,0.999987,0.999987,-0.00525957,48.6929,-14.14491)" x1="25.719" y1="31.047" x2="25.515" y2="30.703"/><linearGradient id="linearGradient2994"><stop offset="0" id="stop2996" stop-color="#000000" stop-opacity="1"/><stop offset="1" id="stop2998" stop-color="#c9c9c9" stop-opacity="1"/></linearGradient><linearGradient id="0" y2="8.987" gradientUnits="userSpaceOnUse" x2="9.604" y1="3.449" x1="6.155"><stop stop-color="gray" id="stop19"/><stop offset="1" stop-color="#4d4d4d" id="stop21"/></linearGradient><linearGradient id="1" y2="7.842" gradientUnits="userSpaceOnUse" x2="6" y1="3.147" x1="2.979"><stop stop-color="#fff" id="stop24"/><stop offset="1" stop-color="gray" id="stop26"/></linearGradient><linearGradient id="2" y2="-.101" gradientUnits="userSpaceOnUse" x2="8.313" y1="4.02" x1="1.721"><stop stop-color="#acacac" id="stop14"/><stop offset="1" stop-color="#6b6b6b" stop-opacity=".882" id="stop16"/></linearGradient><linearGradient xlink:href="#linearGradient6951" id="linearGradient4028" x1="8.51" y1="12.352" x2="14.391" y2="12.352" gradientUnits="userSpaceOnUse"/><linearGradient xlink:href="#linearGradient4034" id="linearGradient4032" gradientUnits="userSpaceOnUse" x1="-.371" y1="17.926" x2="14.168" y2="10.166"/><linearGradient id="linearGradient4034"><stop id="stop4036" offset="0" stop-color="#6e3d09" stop-opacity="1"/><stop offset=".21" id="stop4038" stop-color="#ea8113" stop-opacity="1"/><stop id="stop4040" offset=".406" stop-color="#5c3307" stop-opacity="1"/><stop id="stop4042" offset="1" stop-color="#e07c12" stop-opacity="1"/></linearGradient></defs><metadata id="metadata7"><rdf:RDF><cc:Work><dc:format>image/svg+xml</dc:format><dc:type rdf:resource="http://purl.org/dc/dcmitype/StillImage"/><dc:title/></cc:Work></rdf:RDF></metadata><g id="layer1" transform="translate(0,-1036.3622)"><g id="g131"><g transform="matrix(0.90537609,0.52844661,-0.54196961,0.84219096,4.6805024,1032.1244)" id="g4052"><path d="M 1.737,3.942 C 2.644,6.823 8.323,10.878 9.911,9.76 11.521,8.627 9.838,2.482 8.061,0.01" id="path28" fill="url(#0)"/><path d="M 1.737,3.943 C 2.131,5.194 3.692,6.655 5.344,8.12 5.686,7.322 6.587,5.694 9.901,4.278 9.29,2.606 8.703,0.904 8.061,0.01" id="path30" fill="url(#1)"/><path d="M 1.737,3.943 C 1.748,3.977 1.76,4.011 1.773,4.046 L 8.119,0.093 C 8.1,0.065 8.081,0.036 8.062,0.01 L 1.738,3.943" id="path32" fill="url(#2)"/><g id="g34" fill="url(#linearGradient4028)" fill-opacity="1" fill-rule="evenodd"><path transform="matrix(0.84502,-0.53474,0.53474,0.84502,0,0)" d="m 1.838,13.01 2.464963,-4e-6 -0.1761203,7.100326 -2.4647501,5e-6 z" id="path36" fill="url(#linearGradient4032)" fill-opacity="1" stroke="#673907" stroke-width="0.49999857" stroke-miterlimit="4" stroke-dasharray="none" stroke-opacity="1"/></g></g><g transform="matrix(-0.07495031,0.35626737,-0.45514628,-0.04223721,19.203472,1037.4559)" id="g4000"><path style="marker:none" d="m 19.651682,22.586735 4.065864,3.800698 c 7.187499,-7.062499 17.78306,-23.9772875 17.78306,-23.9772875 0.42949,-1.2244462 -1.087245,-1.99589286 -1.846352,-1.170495 0,0 -13.690073,14.0970855 -20.002572,21.3470845 z" id="path6937" color="#000000" display="inline" overflow="visible" visibility="visible" opacity="1" fill="url(#linearGradient6957)" fill-opacity="1" fill-rule="nonzero" stroke="#673907" stroke-width="1" stroke-linecap="round" stroke-linejoin="miter" stroke-miterlimit="4" stroke-dasharray="none" stroke-dashoffset="0" stroke-opacity="1" marker-start="none" marker-mid="none" marker-end="none"/><path style="marker:none" d="m 12.050285,32.813894 2.24632,1.93382 8.492766,-7.367031 0.275061,-0.705828 1.094405,-0.01782 c -0.4375,-1.5625 -2.941514,-4.383455 -4.816514,-4.383455 l 0.08202,1.090075 -0.669991,0.380027 -6.704066,9.070207 z" id="path6935" color="#000000" display="inline" overflow="visible" visibility="visible" opacity="1" fill="url(#linearGradient6945)" fill-opacity="1" fill-rule="nonzero" stroke="#888a85" stroke-width="1" stroke-linecap="round" stroke-linejoin="miter" stroke-miterlimit="4" stroke-dasharray="none" stroke-dashoffset="0" stroke-opacity="1" marker-start="none" marker-mid="none" marker-end="none"/><path style="marker:none" d="m 1.757709,40.723915 c 6.6053126,0 11.618187,0.786601 12.567225,-4.019073 C 15.089727,32.832133 9.7646096,30.976482 7.1258026,34.433791 4.583799,37.76427 1.757709,40.723915 1.757709,40.723915 Z" id="path6933" color="#000000" display="inline" overflow="visible" visibility="visible" opacity="1" fill="url(#radialGradient6969)" fill-opacity="1" fill-rule="nonzero" stroke="none" stroke-width="0.2" stroke-linecap="round" stroke-linejoin="miter" stroke-miterlimit="4" stroke-dasharray="none" stroke-dashoffset="0" stroke-opacity="1" marker-start="none" marker-mid="none" marker-end="none"/><circle r="1.25" cy="37.75" cx="7.625" style="marker:none" id="path6971" transform="matrix(0.852298,0,0,0.852298,3.733554,2.575604)" color="#000000" display="inline" overflow="visible" visibility="visible" opacity="0.52777782" fill="#ffffff" fill-opacity="1" fill-rule="nonzero" stroke="none" stroke-width="1" stroke-linecap="round" stroke-linejoin="miter" stroke-miterlimit="4" stroke-dasharray="none" stroke-dashoffset="0" stroke-opacity="1" marker-start="none" marker-mid="none" marker-end="none"/><path style="marker:none" d="m 3.0708872,40.068976 c 0,0 3.3411114,-1.641821 4.7648284,-4.086829 0.503707,-0.865037 1.644373,-0.126836 0.941666,0.734499 -1.517828,1.860458 -5.7064944,3.35233 -5.7064944,3.35233 z" id="path1571" color="#000000" display="inline" overflow="visible" visibility="visible" opacity="0.42777776" fill="url(#linearGradient2452)" fill-opacity="1" fill-rule="nonzero" stroke="none" stroke-width="1" stroke-linecap="round" stroke-linejoin="miter" stroke-miterlimit="4" stroke-dasharray="none" stroke-dashoffset="0" stroke-opacity="1" marker-start="none" marker-mid="none" marker-end="none"/></g><g transform="matrix(0.46443646,0.12799733,-0.14107921,0.42813502,-20.965689,1022.6887)" id="g6334"><path style="marker:none" d="M 81.189325,8.8512115 75.593983,14.505723 60.324794,46.150492 c -1.23289,3.256532 3.40224,5.169682 5.012098,2.286172 L 80.231414,16.856367 Z" id="path2960" color="#000000" display="inline" overflow="visible" visibility="visible" fill="#cb9022" fill-opacity="1" fill-rule="evenodd" stroke="#5c410c" stroke-width="1.00000083" stroke-linecap="butt" stroke-linejoin="miter" stroke-miterlimit="4" stroke-dasharray="none" stroke-dashoffset="0" stroke-opacity="1" marker-start="none" marker-mid="none" marker-end="none"/><path id="path2964" d="m 63.226659,41.398 c 0,0 0.101309,1.436989 1.354252,1.992907 1.290792,0.572712 2.656215,-0.01397 2.656215,-0.01397 l -2.442255,5.044169 c 0,0 -0.873719,1.456649 -2.840262,0.671199 -1.93968,-0.774722 -1.17037,-2.681384 -1.17037,-2.681384 l 2.44242,-5.01292 z" style="marker:none" color="#000000" display="inline" overflow="visible" visibility="visible" fill="url(#linearGradient6343)" fill-opacity="1" fill-rule="evenodd" stroke="none" stroke-width="1" stroke-linecap="butt" stroke-linejoin="miter" stroke-miterlimit="4" stroke-dasharray="none" stroke-dashoffset="0" stroke-opacity="1" marker-start="none" marker-mid="none" marker-end="none"/><path style="marker:none" d="m 63.226659,41.398 c 0,0 0.101309,1.436989 1.354252,1.992907 1.290792,0.572712 2.656215,-0.01397 2.656215,-0.01397 l -0.989468,2.005234 c 0,0 -1.3145,0.833957 -2.686314,0.232882 -1.409519,-0.617596 -1.324153,-2.211818 -1.324153,-2.211818 z" id="path2962" color="#000000" display="inline" overflow="visible" visibility="visible" fill="url(#linearGradient6345)" fill-opacity="1" fill-rule="evenodd" stroke="none" stroke-width="1" stroke-linecap="butt" stroke-linejoin="miter" stroke-miterlimit="4" stroke-dasharray="none" stroke-dashoffset="0" stroke-opacity="1" marker-start="none" marker-mid="none" marker-end="none"/><path style="marker:none" d="m 80.47809,10.282021 -4.476274,4.52361 c 0.820379,1.495707 2.168221,2.269879 3.728563,1.855416 z" id="path2982" color="#000000" display="inline" overflow="visible" visibility="visible" fill="url(#radialGradient6347)" fill-opacity="1" fill-rule="evenodd" stroke="none" stroke-width="1" stroke-linecap="butt" stroke-linejoin="miter" stroke-miterlimit="4" stroke-dasharray="none" stroke-dashoffset="0" stroke-opacity="1" marker-start="none" marker-mid="none" marker-end="none"/><path style="marker:none" d="m 79.078925,11.63315 1.585183,-1.6333612 -0.300169,2.3453632 c -0.71759,0.222527 -1.063472,-0.181909 -1.285014,-0.712002 z" id="path2992" color="#000000" display="inline" overflow="visible" visibility="visible" fill="url(#linearGradient6349)" fill-opacity="1" fill-rule="evenodd" stroke="none" stroke-width="1" stroke-linecap="butt" stroke-linejoin="miter" stroke-miterlimit="4" stroke-dasharray="none" stroke-dashoffset="0" stroke-opacity="1" marker-start="none" marker-mid="none" marker-end="none"/><path style="marker:none" d="M 75.970567,14.805795 77.228768,16.3617 64.439998,43.316362 C 63.581628,42.876439 63.348884,42.080316 63.26774,41.419121 Z" id="path3002" color="#000000" display="inline" overflow="visible" visibility="visible" fill="#ffffff" fill-opacity="0.36363639" fill-rule="evenodd" stroke="none" stroke-width="1" stroke-linecap="butt" stroke-linejoin="miter" stroke-miterlimit="4" stroke-dasharray="none" stroke-dashoffset="0" stroke-opacity="1" marker-start="none" marker-mid="none" marker-end="none"/><path style="marker:none" d="m 79.792879,16.660719 -0.749004,0.191442 -12.549399,26.768391 c 0,0 0.61304,-0.113386 0.748205,-0.219818 z" id="path3004" color="#000000" display="inline" overflow="visible" visibility="visible" fill="#000000" fill-opacity="0.36363639" fill-rule="evenodd" stroke="none" stroke-width="1" stroke-linecap="butt" stroke-linejoin="miter" stroke-miterlimit="4" stroke-dasharray="none" stroke-dashoffset="0" stroke-opacity="1" marker-start="none" marker-mid="none" marker-end="none"/></g></g></g></svg>