<svg height="24" viewBox="0 0 24 24" width="24" xmlns="http://www.w3.org/2000/svg"><g transform="matrix(0 1 -1 0 1052.362204 -.000004)"><path d="m.000004 1028.3622h24v24h-24z" fill="none"/><g fill="#fff" stroke="#000"><path d="m11.938052 1034.0118-5.4941049 4.8294 4.1077169-.037c.01888.9819.03918 2.0439.03364 3.0268h-4.2479843l5.6007313 4.8687 5.593919-4.8687h-4.018932c.0058-.9835-.06684-2.0072-.07405-2.9895h4.199765z" stroke-linecap="square" stroke-width="1.00011"/><path d="m-1031.8622-21.500059h2.00012v19.00012h-2.00012z" stroke-width=".99988" transform="matrix(0 -1 -1 0 0 0)"/><path d="m-1050.8623-21.500059h2.00012v19.00012h-2.00012z" stroke-width=".99988" transform="matrix(0 -1 -1 0 0 0)"/></g></g></svg>