<svg height="16" viewBox="0 0 16 16" width="16" xmlns="http://www.w3.org/2000/svg"><g transform="translate(0 -1036.3622)"><path d="m4.0961768 1048.4588v2.8077h6.8076462v-2.8077z" fill="#73d216" stroke="#000" stroke-linecap="round" stroke-width=".192354"/><path d="m5 1049.3622h5v1h-5z" fill="#4e9a06"/></g><path d="m.248511 7.7485h4.002977v1.502977h-4.002977z" fill="#555753" stroke="#fff" stroke-width=".497023"/><path d="m13.243149 7.7431h2.513703v1.513703h-2.513703z" fill="#555753" stroke="#fff" stroke-linecap="round" stroke-width=".486297"/><path d="m0 0h16v16h-16z" fill="#fff" opacity="0"/><path d="m.243148 1.7431h2.513703v1.513703h-2.513703z" fill="#555753" stroke="#fff" stroke-linecap="round" stroke-width=".486297"/><g transform="translate(1.007171 -1041.398056)"><path d="m4.0961768 1048.4588v2.8077h6.8076462v-2.8077z" fill="#729fcf" stroke="#000" stroke-linecap="round" stroke-width=".192354"/><path d="m5 1049.3622h5v1h-5z" fill="#3465a4"/></g><path d="m11.748511 12.7485h4.002977v1.502977h-4.002977z" fill="#555753" stroke="#fff" stroke-width=".497023"/><path d="m.243148 12.7431h2.513703v1.513703h-2.513703z" fill="#555753" stroke="#fff" stroke-linecap="round" stroke-width=".486297"/><g transform="translate(0 -1047.362677)"><path d="m4.0961768 1048.4588v2.8077h6.8076462v-2.8077z" fill="#c00" stroke="#000" stroke-linecap="round" stroke-width=".192354"/><path d="m5 1049.3622h5v1h-5z" fill="#a40000"/></g><path d="m11.748511 1.7485h4.002977v1.502977h-4.002977z" fill="#555753" stroke="#fff" stroke-width=".497023"/></svg>