<svg height="16" viewBox="0 0 15.999999 16" width="15.999999" xmlns="http://www.w3.org/2000/svg" xmlns:xlink="http://www.w3.org/1999/xlink"><linearGradient id="a" gradientUnits="userSpaceOnUse" x1="583.998563" x2="583.998563" y1="153.093846" y2="161.579127"><stop offset="0" stop-color="#b1b1b1"/><stop offset=".2" stop-color="#dfdfdf"/><stop offset="1" stop-color="#565656"/></linearGradient><g><path d="m.39504783 4.8454206c-.566838 1.459106-.357118 3.1860669-.357118 4.9542394v6.20034h15.91792417s0 0 0-6.20034c0-1.6800602.218345-3.5155986-.316154-4.9867796-2.264555-6.233074-12.6642062-6.609821-15.24465217.03254z" fill="#c1c1c1"/><path d="m.72337794 5.0973259c-.53716321 1.3668054-.33842253 2.9845215-.3384224 4.6408423.00000037 5.8081168.00000037 5.8081168.00000037 5.8081168h15.08459309s0 0 0-5.8081168c0-1.5737823.206914-3.2932075-.299603-4.671324-2.146001-5.83877949-12.0012131-6.1916942-14.44656806.0304817z" fill="#555753"/><g fill-rule="evenodd"><ellipse cx="8.027269" cy="8.380479" fill="#eeeeec" rx="4.305636" ry="6.731346"/><ellipse cx="8.003271" cy="6.040758" fill="url(#a)" rx="2.171828" ry="4.747717" stroke="#595959" stroke-width=".5"/></g></g></svg>