<svg height="16" viewBox="0 0 16 16" width="16" xmlns="http://www.w3.org/2000/svg" xmlns:xlink="http://www.w3.org/1999/xlink"><linearGradient id="a" gradientTransform="matrix(.52865572 0 0 .82235256 1245.4619 280.96906)" gradientUnits="userSpaceOnUse" x1="33.5" x2="32.615303" y1="38.100506" y2="30.145555"><stop offset="0" stop-color="#babdb6"/><stop offset="1" stop-color="#eeeeec"/></linearGradient><linearGradient id="b" gradientTransform="matrix(.52865572 0 0 .82235256 1245.4619 280.96906)" gradientUnits="userSpaceOnUse" x1="29.375" x2="32" y1="17.625" y2="36.6875"><stop offset="0" stop-color="#888a85"/><stop offset="1" stop-color="#555753"/></linearGradient><linearGradient id="c" gradientUnits="userSpaceOnUse" x1="752.97513551372" x2="751.96013710501" y1="236.6333737909" y2="226.7923253659"><stop offset="0" stop-color="#424242"/><stop offset="1" stop-color="#777"/></linearGradient><linearGradient id="d" gradientUnits="userSpaceOnUse" x1="754.56270106452" x2="754.51947077954" y1="238.82927027009" y2="236.90013174509"><stop offset="0" stop-color="#6194cb"/><stop offset="1" stop-color="#729fcf"/></linearGradient><linearGradient id="e" gradientTransform="matrix(.51475824 0 0 .31892069 745.55464 223.8626)" gradientUnits="userSpaceOnUse" x1="13.035696" x2="12.853771" y1="32.567184" y2="46.689312"><stop offset="0" stop-color="#fff" stop-opacity=".796078"/><stop offset="1" stop-color="#fff" stop-opacity=".215686"/></linearGradient><g transform="translate(0 -32)"><path d="m.57499669 47.479335c.008516.162654.17969018.32531.34234522.32531h12.23983009c.162654 0 .316794-.162656.308278-.32531l-.365879-10.637802c-.0085-.162654-.179687-.325312-.342342-.325312h-5.1850839c-.1895174 0-.482323-.123305-.5476386-.432374l-.2388776-1.130357c-.0607435-.287436-.3446912-.405514-.507346-.405514h-5.77427186c-.16265824 0-.31679709.162655-.30828118.32531z" fill="#fff" stroke="url(#c)" stroke-linecap="round" stroke-linejoin="round" stroke-width=".390712"/><g transform="matrix(.75000025 0 0 .75000025 -191.16685 1.092487)"><path d="m266.78786 41.808831c-1.46714 0-2.72895 1.42916-3.22149 3.4436-.23837-.0891-.48756-.15419-.74342-.15419-1.75091 0-3.17193 2.21048-3.17193 4.93411s1.42102 4.93412 3.17193 4.93412c.40854 0 .79767-.14065 1.15643-.35978.57816 1.21141 1.50044 2.00449 2.54416 2.00448.81236 0 1.55325-.47705 2.11462-1.25922.30989.27719.67441.43687 1.05731.43687.57508 0 1.08899-.37077 1.47032-.95084.20803.082.41996.12849.6443.12849 1.45908 0 2.64327-1.84207 2.64327-4.11176 0-1.34066-.41838-2.53865-1.05731-3.28941 0-2.2697-1.18419-4.11177-2.64327-4.11177-.44522 0-.85432.18544-1.22252.48827-.62731-1.2942-1.62091-2.13297-2.7424-2.13297z" style="fill-rule:evenodd;stroke-width:1.197655;stroke-linecap:round;stroke-linejoin:round;fill:url(#a);stroke:url(#b)"/><path d="m33 21.583984c-2.322807 0-4.306477 1.454315-5.080078 3.488282a1.0838078 1.0838078 0 0 1 -1.267578.667968c-.400612-.09628-.78649-.15625-1.152344-.15625-2.725648 0-4.916016 2.190367-4.916016 4.916016s2.190369 4.916016 4.916016 4.916016c.612912 0 1.213691-.134635 1.791016-.361328a1.0838078 1.0838078 0 0 1 1.267578.361328c.899781 1.211976 2.320039 2 3.941406 2 1.263934 0 2.40534-.47283 3.277344-1.253907a1.0838078 1.0838078 0 0 1 1.263672-.132812c.423728.243657.928392.386718 1.458984.386719.788379 0 1.485054-.321167 2.023438-.847657a1.0838078 1.0838078 0 0 1 1.023437-.27539c.318379.08062.625137.123047.953125.123047 2.173636 0 3.916016-1.742362 3.916016-3.916016 0-1.279551-.620635-2.418873-1.56836-3.134766a1.0838078 1.0838078 0 0 1 -.43164-.865234c0-2.173656-1.742372-3.916016-3.916016-3.916016-.648728 0-1.241801.170095-1.806641.46875a1.0838078 1.0838078 0 0 1 -1.371093-.30664c-.990966-1.314286-2.548223-2.16211-4.322266-2.16211z" fill="none" stroke="#fff" stroke-linecap="round" stroke-linejoin="round" stroke-width="1.840081" transform="matrix(.49612542 0 0 .80988198 250.43197 25.318451)"/><g transform="matrix(.9980455 0 0 .9980455 259.06782 39.229541)"><path d="m5.999993 7.999994 3.000007.000006v1h-2v1.000001h1v.999999h-1v1.043868l2-.043868v1l-3.000007-.000013zm3.974455 0 1.025552.000006 1.000001 2.521449v-2.521449l1.027867.000007v4.999993h-1.027867l-1.000001-2.521449v2.521449l-1.025552-.000013z"/><path d="m4.743101 8.24532v.6358942c-.218841-.1183525-.4253112-.2065817-.6194094-.2646875-.194103-.0580975-.3815436-.0871484-.5623218-.0871534-.3139884.000005-.556614.068866-.727878.206585-.1693632.1377275-.2540448.3335525-.2540436.5874759-.0000012.2130441.056136.3744383.168411.4841841.1141758.1075992.3292086.1947517.6450996.2614587l.3482394.0807c.4300644.09253.7469052.256082.9505236.490639.2055156.232406.3082746.544436.3082782.936085-.0000036.466969-.1389186.82096-.4167462 1.061976-.2759304.241015-.681258.361522-1.2159846.361523-.2017146-.000001-.4167474-.025823-.6451002-.077469-.2264514-.051647-.461466-.12804-.7050426-.229181v-.671401c.2340618.148484.4633674.260384.6879162.335701.224547.07532.4452882.112977.6622266.112976.329208.000001.5832516-.07316.7621314-.219497.1788744-.14633.2683128-.355067.2683158-.626211-.000003-.23671-.064703-.421775-.1941012-.555196-.1275-.133417-.3377754-.233481-.630828-.300194l-.3510942-.077469c-.4300674-.096834-.7411992-.248544-.933396-.455132-.1921986-.206582-.2882976-.4938637-.288297-.8618462-.0000006-.4260775.1322544-.7617775.396765-1.0071016.2664114-.2453142.6327294-.3679742 1.0989528-.3679792.1998084.000005.4034238.020448.6108468.061329.2074188.040892.419598.1022225.6365364.1839908"/><path d="m3.5 7.4722718v6.0277282" fill="none" stroke="#000" stroke-linecap="square"/></g></g><path d="m14.352172 47.80097c.446933-.01722.766997-.428337.7998-.906844.309361-4.512206.648332-8.295569.648332-8.295569.02819-.09669-.0656-.193389-.187597-.193389h-13.4292093s-.7229411 8.543648-.7229411 8.543648c-.044758.383705-.1820746.705124-.60553886.853202l13.49715426-.0011z" display="block" fill="url(#d)" stroke="#3465a4" stroke-linejoin="round" stroke-width=".390712"/><path d="m2.5670257 38.796357 12.8118623.02532-.614998 7.815005c-.03294.418652-.176085.55802-.731668.55802-.731218 0-11.2048149-.01266-12.26629-.01266.091269-.125344.1304022-.386266.130926-.392513z" fill="none" opacity=".465909" stroke="url(#e)" stroke-linecap="round" stroke-width=".390711"/></g></svg>