<svg height="16" viewBox="0 0 16 16" width="16" xmlns="http://www.w3.org/2000/svg"><path d="m.207753.207753h15.584494v15.584494h-15.584494z" fill="#fff" opacity="0" transform="matrix(.7661523 0 0 .77108083 3.900746 3.822901)"/><path d="m1.4995069 1.4995073h9.0009851v9.0009857h-9.0009851z" fill="#d3d7cf" stroke="#fff" stroke-width=".999014"/><path d="m.48979583.48979596h11.02040817v11.02040804h-11.02040817z" fill="none" stroke="#000" stroke-width=".979592"/><path d="m5.4702325 5.4702321h9.0595355v9.0595359h-9.0595355z" fill="#d3d7cf" opacity=".5" stroke="#fff"/><path d="m4.4897958 4.4897964h11.0204072v11.0204076h-11.0204072z" fill="none" stroke="#000" stroke-width=".979592"/><g fill="#fff"><path d="m4 4h1v1h-1z"/><path d="m6.2 4h1v1h-1z"/><path d="m8.4 4h1v1h-1z"/><path d="m10.6 4h1v1h-1z"/><path d="m12.8 4h1v1h-1z"/><path d="m15 4h1v1h-1z"/><path d="m4 15h1v1h-1z"/><path d="m6.2 15h1v1h-1z"/><path d="m8.4 15h1v1h-1z"/><path d="m10.6 15h1v1h-1z"/><path d="m12.8 15h1v1h-1z"/><path d="m15 15h1v1h-1z"/><path d="m-13.8 4h1v1h-1z" transform="rotate(-90)"/><path d="m-11.6 4h1v1h-1z" transform="rotate(-90)"/><path d="m-9.4 4h1v1h-1z" transform="rotate(-90)"/><path d="m-7.2 4h1v1h-1z" transform="rotate(-90)"/><path d="m-13.8 4h1v1h-1z" transform="matrix(0 -1 1 0 11 0)"/><path d="m-11.6 4h1v1h-1z" transform="matrix(0 -1 1 0 11 0)"/><path d="m-9.4 4h1v1h-1z" transform="matrix(0 -1 1 0 11 0)"/><path d="m-7.2 4h1v1h-1z" transform="matrix(0 -1 1 0 11 0)"/></g><path d="m5 5h6v6h-6z" fill="#ef2929"/></svg>