<svg height="24" viewBox="0 0 24 24" width="24" xmlns="http://www.w3.org/2000/svg"><g transform="translate(0 -1028.3622)"><rect fill="none" height="24" rx=".749795" ry="0" transform="matrix(0 -1 -1 0 0 0)" width="23.99345" x="-1052.3622" y="-24"/><g fill="#fff" stroke="#000"><path d="m12 1043.073-5.8066205 5.8595h4.4106755c.0029.9787-.0087 1.9553-.06801 2.9299h2.900788c.01886-.9739.0015-1.9521.0029-2.9299h4.357082z" stroke-width=".999699"/><path d="m-1041.8621-21.499916h2.999833v18.999832h-2.999833z" stroke-width="1.000167" transform="matrix(0 -1 -1 0 0 0)"/><path d="m12.005671 1037.6518-5.8066204-5.8595h4.4106754c.0029-.9787-.0087-1.9553-.06801-2.9299h2.900788c.01886.9739.0015 1.9521.0029 2.9299h4.357082z" stroke-width=".999699"/></g></g></svg>