<svg height="16" viewBox="0 0 16 16" width="16" xmlns="http://www.w3.org/2000/svg" xmlns:xlink="http://www.w3.org/1999/xlink"><g stroke-linecap="round" transform="matrix(.76035198 0 0 .84022277 -10.008975 -16.786639)"><path d="m23.5 21.5v1" fill="none" stroke="#ce5c00" stroke-linejoin="round" stroke-width="3"/><path d="m23.5 21.5v1" fill="#fcaf3e" stroke="#fcaf3e"/><path d="m23.5 26.5v1" fill="none" stroke="#ce5c00" stroke-linejoin="round" stroke-width="3"/><path d="m23.5 26.5v1" fill="#fcaf3e" stroke="#fcaf3e"/><path d="m23.5 31.5v1" fill="none" stroke="#ce5c00" stroke-linejoin="round" stroke-width="3"/><path d="m23.5 31.5v1" fill="#fcaf3e" stroke="#fcaf3e"/><path d="m23.5 36.5v1" fill="none" stroke="#ce5c00" stroke-linejoin="round" stroke-width="3"/><path d="m23.5 36.5v1" fill="#fcaf3e" stroke="#fcaf3e"/></g><g id="a" transform="matrix(.74802446 0 0 .84209548 -103.21153 -15.157758)"><path d="m143.5 19.5c-.5 0-4 .5-4 3.5 0 3.5 5 4.5 5 9 0 2-2 3.5-5 3.5" fill="none" stroke="#5c3566" stroke-linecap="round" stroke-width="3"/><path d="m143.5 19.5c-.5 0-4 .5-4 3.5 0 3.5 5 4.5 5 9 0 2-2 3.5-5 3.5" fill="none" stroke="#ad7fa8" stroke-linecap="round"/></g><use height="80" opacity=".667" transform="matrix(-1 0 0 1 16.000041 .000099)" width="224" xlink:href="#a"/></svg>