<svg height="16" viewBox="0 0 16 16" width="16" xmlns="http://www.w3.org/2000/svg" xmlns:xlink="http://www.w3.org/1999/xlink"><linearGradient id="a" gradientTransform="matrix(.6551903 0 0 .6453469 .160241 .810466)" gradientUnits="userSpaceOnUse" x1="12" x2="12" y1="1.268379" y2="21.251747"><stop offset="0" stop-color="#eeeeec"/><stop offset="1" stop-color="#d4d4cf"/></linearGradient><linearGradient id="b" gradientTransform="matrix(.77524403 0 0 .76639761 -1.577477 1.625779)" gradientUnits="userSpaceOnUse" x1="6.02886" x2="18.913376" y1="8.34651" y2="8.34651"><stop offset="0" stop-color="#729fcf"/><stop offset=".20362347" stop-color="#73d216"/><stop offset=".5222187" stop-color="#c17d11"/><stop offset=".88899916" stop-color="#75507b"/><stop offset="1" stop-color="#a40000"/></linearGradient><g transform="matrix(.99632012 0 0 .99632452 .007027 .006962)"><rect fill="url(#a)" fill-rule="evenodd" height="15.075306" rx="1.40557" ry="1.540835" stroke="#888a85" stroke-width=".983784" width="15.075306" x=".484872" y=".484872"/><rect fill="none" height="12.991261" rx=".640129" ry=".629652" stroke="#fff" stroke-width=".902392" width="13.009012" x="1.518019" y="1.526893"/><path d="m8.0221604 4.0077687c-3.3269848 0-6.0221611 2.6796851-6.0221604 5.9687049 0 .7254374.1305047 1.4180294.3705946 2.0608074h3.4125577c-.5089437-.539921-.8183964-1.265201-.8183964-2.0608074.0000008-1.6683432 1.3698035-3.0225152 3.0574045-3.0225152 1.6876029.0000002 3.0574056 1.354172 3.0574056 3.0225152-.000001.7979834-.322192 1.5203794-.83384 2.0608074h3.41256c.24009-.642778.386036-1.33537.386036-2.0608074-.000002-3.28902-2.695176-5.9687049-6.0221616-5.9687049z" fill="url(#b)" fill-rule="evenodd"/></g></svg>