<?xml version="1.0" encoding="UTF-8" standalone="no"?>
<!-- Created with Inkscape (http://www.inkscape.org/) -->

<svg
   xmlns:dc="http://purl.org/dc/elements/1.1/"
   xmlns:cc="http://creativecommons.org/ns#"
   xmlns:rdf="http://www.w3.org/1999/02/22-rdf-syntax-ns#"
   xmlns:svg="http://www.w3.org/2000/svg"
   xmlns="http://www.w3.org/2000/svg"
   xmlns:xlink="http://www.w3.org/1999/xlink"
   xmlns:sodipodi="http://sodipodi.sourceforge.net/DTD/sodipodi-0.dtd"
   xmlns:inkscape="http://www.inkscape.org/namespaces/inkscape"
   inkscape:export-ydpi="90.000000"
   inkscape:export-xdpi="90.000000"
   inkscape:export-filename="/home/jimmac/src/cvs/gnome/gimp/themes/Default/images/stock-layers-16.png"
   width="16"
   height="16"
   id="svg11300"
   sodipodi:version="0.32"
   inkscape:version="0.91+devel r"
   sodipodi:docname="gimp-info.svg"
   version="1.0"
   viewBox="0 0 16 16">
  <sodipodi:namedview
     inkscape:cy="8.6335628"
     inkscape:cx="-68.070096"
     inkscape:zoom="4.9258054"
     inkscape:window-height="1016"
     inkscape:window-width="1920"
     inkscape:pageshadow="2"
     inkscape:pageopacity="0.0"
     borderopacity="0.17254902"
     bordercolor="#666"
     pagecolor="#ffffff"
     id="base"
     inkscape:showpageshadow="false"
     showborder="true"
     inkscape:window-x="0"
     inkscape:window-y="27"
     inkscape:current-layer="layer1"
     width="16px"
     height="16px"
     showgrid="false"
     inkscape:window-maximized="1"
     inkscape:document-units="px" />
  <defs
     id="defs3">
    <linearGradient
       xlink:href="#aigrd1"
       id="4100"
       gradientUnits="userSpaceOnUse"
       gradientTransform="matrix(1.639127,0,0,1.639127,-15.97035,-29.79355)"
       x1="23.124001"
       y1="43.165001"
       x2="26.4785"
       y2="43.165001"
       href="#aigrd1" />
    <linearGradient
       y2="43.165001"
       x2="26.4785"
       y1="43.165001"
       x1="23.124001"
       gradientUnits="userSpaceOnUse"
       id="aigrd1">
      <stop
         style="stop-color:#686868"
         offset=".005618"
         id="stop66" />
      <stop
         style="stop-color:#777"
         offset=".03012137"
         id="stop68" />
      <stop
         style="stop-color:#929292"
         offset=".08366583"
         id="stop70" />
      <stop
         style="stop-color:#A7A7A7"
         offset=".1422"
         id="stop72" />
      <stop
         style="stop-color:#B6B6B6"
         offset=".2074"
         id="stop74" />
      <stop
         style="stop-color:#BEBEBE"
         offset=".2846"
         id="stop76" />
      <stop
         style="stop-color:#C1C1C1"
         offset=".4045"
         id="stop78" />
      <stop
         style="stop-color:#BCBCBC"
         offset=".4962"
         id="stop80" />
      <stop
         style="stop-color:#ADADAD"
         offset=".6057"
         id="stop82" />
      <stop
         style="stop-color:#959595"
         offset=".7245"
         id="stop84" />
      <stop
         style="stop-color:#747474"
         offset=".8497"
         id="stop86" />
      <stop
         style="stop-color:#494949"
         offset=".9789"
         id="stop88" />
      <stop
         style="stop-color:#414141"
         offset="1"
         id="stop90" />
    </linearGradient>
    <linearGradient
       xlink:href="#3300"
       id="4102"
       gradientUnits="userSpaceOnUse"
       gradientTransform="scale(1.002656,0.997352)"
       x1="24.613028"
       y1="31.146202"
       x2="24.613028"
       y2="26.739624"
       href="#3300" />
    <linearGradient
       id="3300">
      <stop
         style="stop-color:#4c4c28"
         id="stop2" />
      <stop
         style="stop-color:#4c4c28;stop-opacity:0"
         offset="1"
         id="stop4" />
    </linearGradient>
    <linearGradient
       xlink:href="#19894"
       id="4104"
       gradientUnits="userSpaceOnUse"
       gradientTransform="matrix(0.566621,0.02988977,-0.118557,0.656541,36.18544,20.08311)"
       x1="-22.87417"
       y1="38.675991"
       x2="-4.3908315"
       y2="38.675991"
       href="#19894" />
    <linearGradient
       id="19894"
       gradientUnits="userSpaceOnUse"
       x1="18.9951"
       y1="37.226601"
       x2="30.169901"
       y2="37.226601">
      <stop
         offset=".005618"
         style="stop-color:#A3A349"
         id="stop93" />
      <stop
         offset=".02078677"
         style="stop-color:#ACAC54"
         id="stop95" />
      <stop
         offset=".06600059"
         style="stop-color:#C1C172"
         id="stop97" />
      <stop
         offset=".1148"
         style="stop-color:#D4D68E"
         id="stop99" />
      <stop
         offset=".1677"
         style="stop-color:#E2E4A6"
         id="stop101" />
      <stop
         offset=".2265"
         style="stop-color:#EDF0B8"
         id="stop103" />
      <stop
         offset=".2963"
         style="stop-color:#F3F6C3"
         id="stop105" />
      <stop
         offset=".4045"
         style="stop-color:#F5F8C7"
         id="stop107" />
      <stop
         offset=".5239"
         style="stop-color:#EEF0BE"
         id="stop109" />
      <stop
         offset=".6666"
         style="stop-color:#DBDDA9"
         id="stop111" />
      <stop
         offset=".8211"
         style="stop-color:#BEBD88"
         id="stop113" />
      <stop
         offset=".9832"
         style="stop-color:#989564"
         id="stop115" />
      <stop
         offset="1"
         style="stop-color:#949160"
         id="stop117" />
    </linearGradient>
    <linearGradient
       xlink:href="#2399"
       id="4106"
       gradientUnits="userSpaceOnUse"
       gradientTransform="matrix(0.566621,0.02988977,-0.118557,0.656541,36.18544,20.08311)"
       x1="-10.480865"
       y1="39.033951"
       x2="-23.851389"
       y2="39.142845"
       href="#2399" />
    <linearGradient
       id="2399">
      <stop
         style="stop-color:#929470"
         id="stop26" />
      <stop
         offset=".2647059"
         style="stop-color:#fcffc1"
         id="stop28" />
      <stop
         style="stop-color:#f3f5ba"
         offset=".63235295"
         id="stop30" />
      <stop
         style="stop-color:#929470"
         offset="1"
         id="stop32" />
    </linearGradient>
    <linearGradient
       xlink:href="#19894"
       id="4108"
       gradientUnits="userSpaceOnUse"
       gradientTransform="scale(1.02645,0.974232)"
       x1="-22.87417"
       y1="38.675991"
       x2="-4.3908315"
       y2="38.675991"
       href="#19894" />
    <linearGradient
       xlink:href="#2399"
       id="4110"
       gradientUnits="userSpaceOnUse"
       gradientTransform="scale(1.02645,0.974232)"
       x1="-10.480865"
       y1="39.033951"
       x2="-23.851389"
       y2="39.142845"
       href="#2399" />
    <linearGradient
       xlink:href="#19894"
       id="4116"
       gradientUnits="userSpaceOnUse"
       gradientTransform="matrix(0.618682,-0.132027,0.06262726,0.741184,31.12021,8.30041)"
       x1="-22.87417"
       y1="38.675991"
       x2="-4.3908315"
       y2="38.675991"
       href="#19894" />
    <linearGradient
       xlink:href="#2399"
       id="4118"
       gradientUnits="userSpaceOnUse"
       gradientTransform="matrix(0.618682,-0.132027,0.06262726,0.741184,31.12021,8.30041)"
       x1="-10.480865"
       y1="39.033951"
       x2="-23.851389"
       y2="39.142845"
       href="#2399" />
    <linearGradient
       xlink:href="#3311"
       id="4120"
       gradientUnits="userSpaceOnUse"
       gradientTransform="matrix(1.60344,0,0,0.549396,0.614167,0.024498)"
       x1="17.879995"
       y1="55.362793"
       x2="11.906206"
       y2="54.863026"
       href="#3311" />
    <linearGradient
       id="3311">
      <stop
         style="stop-color:#d6d7a5"
         id="stop7" />
      <stop
         offset="1"
         style="stop-color:#8e8f6d"
         id="stop9" />
    </linearGradient>
    <linearGradient
       xlink:href="#3265"
       id="4122"
       gradientUnits="userSpaceOnUse"
       gradientTransform="matrix(-0.905728,-0.04386156,0.18951,-0.963437,0.614167,0.024498)"
       x1="-29.007195"
       y1="-29.799353"
       x2="-37.641232"
       y2="-29.598314"
       href="#3265" />
    <linearGradient
       id="3265">
      <stop
         style="stop-color:#929470"
         id="stop12" />
      <stop
         style="stop-color:#60614a"
         offset=".2647059"
         id="stop14" />
      <stop
         offset=".63235295"
         style="stop-color:#f3f5ba"
         id="stop16" />
      <stop
         offset="1"
         style="stop-color:#929470"
         id="stop18" />
    </linearGradient>
    <radialGradient
       xlink:href="#aigrd7"
       id="radialGradient4124"
       gradientUnits="userSpaceOnUse"
       gradientTransform="matrix(0.55129,0,0,0.766034,-10.48701,3.514312)"
       cx="68.137589"
       cy="29.869318"
       fx="68.137589"
       fy="29.869318"
       r="33.93409"
       href="#aigrd7" />
    <radialGradient
       gradientUnits="userSpaceOnUse"
       fy="11.4873"
       fx="17.8335"
       r="22.709299"
       cy="11.4873"
       cx="17.8335"
       id="aigrd7">
      <stop
         style="stop-color:#fff;stop-opacity:0.17525773"
         id="stop59" />
      <stop
         style="stop-color:#709ac8"
         offset=".88200003"
         id="stop61" />
      <stop
         style="stop-color:#6f96dd"
         offset="1"
         id="stop63" />
    </radialGradient>
    <linearGradient
       xlink:href="#3175"
       id="4126"
       gradientUnits="userSpaceOnUse"
       gradientTransform="matrix(0.894129,0,0,0.98523,1.515981,0.024498)"
       x1="37.940434"
       y1="16.651863"
       x2="-5.2517161"
       y2="3.8557322"
       href="#3175" />
    <linearGradient
       id="3175">
      <stop
         style="stop-color:#f1f3ff"
         id="stop21" />
      <stop
         offset="1"
         style="stop-color:#f1f3ff;stop-opacity:0"
         id="stop23" />
    </linearGradient>
    <linearGradient
       xlink:href="#20393"
       id="4128"
       gradientUnits="userSpaceOnUse"
       gradientTransform="matrix(-0.6293,0,0,1.589068,50.68808,3.804378)"
       x1="30.620375"
       y1="10.313651"
       x2="32.16608"
       y2="18.162935"
       href="#20393" />
    <linearGradient
       id="20393">
      <stop
         style="stop-color:#fff"
         id="stop45" />
      <stop
         style="stop-color:#fff;stop-opacity:0.44117647"
         offset=".41176471"
         id="stop47" />
      <stop
         offset="1"
         style="stop-opacity:0.48039216"
         id="stop49" />
    </linearGradient>
    <linearGradient
       xlink:href="#20393"
       id="4130"
       gradientUnits="userSpaceOnUse"
       gradientTransform="matrix(0.6293,0,0,1.589068,1.411612,3.929378)"
       x1="30.620375"
       y1="10.313651"
       x2="32.16608"
       y2="18.162935"
       href="#20393" />
    <linearGradient
       xlink:href="#20428"
       id="4132"
       gradientUnits="userSpaceOnUse"
       gradientTransform="matrix(1.985083,0,0,0.503757,1.786612,4.554378)"
       x1="14.637301"
       y1="31.504122"
       x2="9.3648205"
       y2="32.25098"
       href="#20428" />
    <linearGradient
       id="20428">
      <stop
         style="stop-color:#a3a3a3"
         id="stop40" />
      <stop
         offset="1"
         style="stop-color:#b5b5b5;stop-opacity:0"
         id="stop42" />
    </linearGradient>
    <linearGradient
       inkscape:collect="always"
       xlink:href="#19894"
       id="linearGradient4257"
       gradientUnits="userSpaceOnUse"
       gradientTransform="scale(1.02645,0.974232)"
       x1="-22.87417"
       y1="38.675991"
       x2="-4.3908315"
       y2="38.675991" />
    <linearGradient
       inkscape:collect="always"
       xlink:href="#2399"
       id="linearGradient4259"
       gradientUnits="userSpaceOnUse"
       gradientTransform="scale(1.02645,0.974232)"
       x1="-10.480865"
       y1="39.033951"
       x2="-23.851389"
       y2="39.142845" />
  </defs>
  <sodipodi:namedview
     stroke="#ef2929"
     fill="#eeeeec"
     pagecolor="#ffffff"
     bordercolor="#666666"
     borderopacity="0.25490196"
     inkscape:pageopacity="0.0"
     inkscape:pageshadow="2"
     inkscape:zoom="1"
     inkscape:cx="-14.198652"
     inkscape:cy="-5.1663457"
     inkscape:current-layer="layer1"
     showgrid="false"
     inkscape:grid-bbox="true"
     inkscape:document-units="px"
     inkscape:showpageshadow="false"
     inkscape:window-width="872"
     inkscape:window-height="659"
     inkscape:window-x="403"
     inkscape:window-y="296"
     width="32px"
     height="32px"
     id="namedview73" />
  <metadata
     id="metadata4">
    <rdf:RDF>
      <cc:Work
         rdf:about="">
        <dc:format>image/svg+xml</dc:format>
        <dc:type
           rdf:resource="http://purl.org/dc/dcmitype/StillImage" />
        <dc:creator>
          <cc:Agent>
            <dc:title>Jakub Steiner</dc:title>
          </cc:Agent>
        </dc:creator>
        <dc:source>http://jimmac.musichall.cz</dc:source>
        <cc:license
           rdf:resource="http://creativecommons.org/licenses/by-sa/2.0/" />
        <dc:title />
      </cc:Work>
      <cc:License
         rdf:about="http://creativecommons.org/licenses/by-sa/2.0/">
        <cc:permits
           rdf:resource="http://web.resource.org/cc/Reproduction" />
        <cc:permits
           rdf:resource="http://web.resource.org/cc/Distribution" />
        <cc:requires
           rdf:resource="http://web.resource.org/cc/Notice" />
        <cc:requires
           rdf:resource="http://web.resource.org/cc/Attribution" />
        <cc:permits
           rdf:resource="http://web.resource.org/cc/DerivativeWorks" />
        <cc:requires
           rdf:resource="http://web.resource.org/cc/ShareAlike" />
      </cc:License>
    </rdf:RDF>
  </metadata>
  <g
     id="layer1"
     inkscape:label="Layer 1"
     inkscape:groupmode="layer">
    <g
       id="g4283">
      <rect
         y="0"
         x="0"
         height="16"
         width="16"
         id="rect4261"
         style="opacity:0;fill:#000000;fill-opacity:1;stroke:none;stroke-width:0.19906433;stroke-miterlimit:4;stroke-dasharray:none;stroke-opacity:1" />
      <g
         id="g265"
         transform="matrix(0.37301275,0,0,0.37301275,-1.0231153,-0.38343161)">
        <path
           inkscape:connector-curvature="0"
           id="path223"
           style="fill:url(#4100);stroke:#565656"
           d="m 21.9,38.9 v 1.5 c 0,1.4 1.3,2.7 2.8,2.7 1.5,0 2.8,-1.3 2.8,-2.7 v -1.5 z"
           transform="matrix(1.075823,0,0,0.937493,-2.551335,3.047213)" />
        <g
           id="g245"
           transform="matrix(0.989073,0,0,0.993556,-0.408739,0.00792048)">
          <path
             inkscape:connector-curvature="0"
             id="path225"
             style="fill:#aeae57;stroke:url(#4102);stroke-width:2.01752925"
             d="m 24.5,27.7 c -3.3,0 -7,0.9 -5,2.8 -0.5,0.2 -1.2,0.6 -1.1,1.7 0,0.5 0.6,0.9 1.4,1.1 -0.9,0.7 -1.5,1.3 -1.4,2 0,0.5 0.6,0.9 1.4,1.1 -0.9,0.7 -1.5,1.4 -1.4,2 0,0.9 2.1,2 6.4,1.8 3.2,0 6,-0.6 6.2,-1.8 0.1,-0.5 -0.3,-0.9 -0.9,-1.3 0.4,-0.5 0.8,-1 0.7,-1.4 0,-0.5 -0.6,-0.9 -1.4,-1.2 0.9,-0.6 1.5,-1.3 1.4,-1.9 0,-0.6 -0.6,-0.9 -1.4,-1.1 0.9,-0.7 1.5,-1.4 1.4,-2 0,-0.7 -3.2,-1.8 -6.3,-1.8 z" />
          <path
             inkscape:connector-curvature="0"
             id="path227"
             style="fill:url(#4104);stroke:url(#4106);stroke-width:0.08906282"
             d="m 30.9,38.3 c -0.2,1.2 -3.3,1.9 -8.3,1.7 -3.1,-0.2 -3.3,-1.1 -3.1,-2.3 0.2,-1.2 3,-2 6.1,-1.9 3.2,0.2 5.5,1.3 5.3,2.5 z" />
          <path
             inkscape:connector-curvature="0"
             id="path229"
             ry="3.2703688"
             rx="10.341436"
             cy="27.228739"
             cx="-13.87697"
             transform="matrix(0.60274,-0.128625,0.06428372,0.760788,31.12021,14.49141)"
             d="m -3.5,27.2 a 10.35,3.3160194 0 1 1 -20.7,0 10.35,3.3160194 0 1 1 20.7,0 z"
             style="fill:url(#linearGradient4257);stroke:url(#linearGradient4259);stroke-width:0.13035245" />
          <path
             inkscape:connector-curvature="0"
             id="path231"
             type="arc"
             cx="-13.87697"
             cy="27.228739"
             rx="10.341436"
             ry="3.2703688"
             style="fill:url(#4108);stroke:url(#4110);stroke-width:0.13035245"
             d="m -3.5,27.2 a 10.35,3.3160194 0 1 1 -20.7,0 10.35,3.3160194 0 1 1 20.7,0 z"
             transform="matrix(0.60274,-0.128625,0.06428372,0.760788,31.12021,11.39591)" />
          <path
             inkscape:connector-curvature="0"
             id="path233"
             style="fill:url(#4116);stroke:url(#4118);stroke-width:0.08906286"
             d="m 30.7,29.6 c 0,1.4 -2.5,3 -6,3.7 -3.4,0.7 -6.3,0.2 -6.4,-1.2 -0.1,-1.3 2.2,-2.9 5.7,-3.1 3.4,-0.2 6.7,-0.1 6.7,0.6 z" />
          <path
             inkscape:connector-curvature="0"
             id="path237"
             style="fill-opacity:0.23391807;stroke-width:1px"
             d="m 19.3,33.4 c 3.4,0.5 7,-0.1 9.9,-1.9 0.8,-0.6 0.9,-1.2 1.3,-1.6 -1.4,1.1 -5,4.1 -11.2,3.5 z" />
          <path
             inkscape:connector-curvature="0"
             id="path241"
             style="fill-opacity:0.23391807;stroke-width:1px"
             d="m 19.5,39.5 c 3.4,0.5 6.9,0 9.8,-1.9 0.9,-0.5 1,-1.1 1.3,-1.6 -1.4,1.1 -5,4.2 -11.1,3.5 z" />
          <path
             inkscape:connector-curvature="0"
             id="path243"
             d="m 19.5,36.4 c 3.4,0.5 7,0 9.9,-1.9 0.8,-0.5 0.9,-1.1 1.3,-1.6 -1.5,1.1 -5.1,4.2 -11.2,3.5 z"
             style="fill-opacity:0.23391807;stroke-width:1px" />
        </g>
        <g
           id="g263"
           transform="translate(-0.988797)">
          <path
             inkscape:connector-curvature="0"
             id="path247"
             style="fill:url(#4120);stroke:url(#4122);stroke-width:0.09083303"
             d="m 18.9,29.6 c 0,-0.8 1.5,-1.7 5.5,-1.7 3.7,0.1 6.1,0.9 6.1,2.2 0,1.2 -3.2,2.1 -6.6,1.9 -3.5,-0.2 -5,-1.1 -5,-2.4 z"
             transform="matrix(0.954439,0,0,0.989869,1.433222,0.639881)" />
          <path
             inkscape:connector-curvature="0"
             id="path249"
             style="fill:url(#radialGradient4124);stroke:#616471;stroke-width:1.01595449"
             d="m 24.7,0.9 c -7.8,0 -14.2,5.9 -14.2,13.3 0,7.5 5.7,8.4 5.7,11.2 0,3.2 3.4,6.9 8.9,6.8 5.9,-0.2 8.4,-3.4 8.4,-6.8 0,-3 5.4,-3.1 5.4,-11.2 C 38.9,6.8 32.5,0.9 24.7,0.9 Z"
             transform="matrix(0.954439,0,0,0.989869,1.433222,0.639881)" />
          <path
             inkscape:connector-curvature="0"
             id="path251"
             d="m 24.7,1.9 c -7.3,0 -13.2,5.6 -13.2,12.5 0,7 5.3,7.8 5.3,10.4 0,3 3.2,6.4 8.3,6.3 5.5,-0.1 7.8,-3.1 7.8,-6.3 0,-2.8 5,-2.9 5,-10.4 C 37.9,7.5 32,1.9 24.7,1.9 Z"
             style="fill:none;stroke:url(#4126);stroke-width:0.94685698"
             transform="matrix(0.954439,0,0,0.989869,1.433222,0.639881)" />
          <g
             id="g259"
             transform="matrix(0.9375,0,0,0.926938,0.569221,0.25176)">
            <path
               inkscape:connector-curvature="0"
               id="path253"
               d="m 31.9,19.2 c 0.4,0.1 0.6,0.4 0.5,0.8 l -3.9,11.5 c -0.1,0.3 -0.4,0.5 -0.7,0.4 -0.3,-0.1 -0.5,-0.4 -0.4,-0.7 l 3.8,-11.6 c 0.1,-0.3 0.4,-0.5 0.7,-0.4 z"
               style="fill:url(#4128)" />
            <path
               inkscape:connector-curvature="0"
               id="path255"
               style="fill:url(#4130)"
               d="m 20.2,19.3 c -0.4,0.2 -0.6,0.5 -0.5,0.8 l 3.9,11.5 c 0.1,0.4 0.4,0.6 0.7,0.5 0.3,-0.1 0.5,-0.5 0.4,-0.8 L 20.9,19.8 c -0.1,-0.3 -0.4,-0.6 -0.7,-0.5 z" />
            <path
               inkscape:connector-curvature="0"
               id="path257"
               d="m 20.3,19.3 c -0.3,0 -0.5,0.2 -0.5,0.5 -0.1,0.2 0.1,0.4 0.3,0.6 0,0 1.8,1 4.2,1.6 2.4,0.5 5.5,0.6 7.8,-1.7 0.2,-0.1 0.3,-0.4 0.2,-0.6 0,-0.2 -0.2,-0.4 -0.4,-0.4 -0.2,-0.1 -0.4,0 -0.6,0.2 -1.9,1.9 -4.5,1.9 -6.7,1.4 -2.2,-0.5 -3.9,-1.5 -3.9,-1.5 -0.2,-0.1 -0.3,-0.1 -0.4,-0.1 z"
               style="fill:#ffffff;stroke:url(#4132);stroke-width:0.21454535" />
          </g>
        </g>
      </g>
    </g>
  </g>
</svg>
