<svg height="16" viewBox="0 0 16 16" width="16" xmlns="http://www.w3.org/2000/svg" xmlns:xlink="http://www.w3.org/1999/xlink"><linearGradient id="a" gradientUnits="userSpaceOnUse" x1="943.73547" x2="979.5885" xlink:href="#b"/><linearGradient id="b"><stop offset="0" stop-color="#6d706a"/><stop offset="1" stop-color="#2d2e2c"/></linearGradient><linearGradient id="c" gradientUnits="userSpaceOnUse" x1="943.65546" x2="978.96454" xlink:href="#b"/><linearGradient id="d" gradientTransform="matrix(1.0054411 0 0 .92007863 42.231324 -961.30931)" gradientUnits="userSpaceOnUse" x1="-35.329288" x2="-27.807579" y1="1055.748" y2="1062.0155"><stop offset="0" stop-color="#ee8719"/><stop offset="1" stop-color="#e07c12" stop-opacity="0"/></linearGradient><linearGradient id="e" gradientTransform="matrix(.01502614 0 0 .01468232 2.968613 1037.3257)" gradientUnits="userSpaceOnUse" x1="231.55" x2="320.70001"><stop offset="0" stop-color="#a11f7c"/><stop offset="1" stop-color="#541f31" stop-opacity=".984"/></linearGradient><linearGradient id="f" gradientTransform="matrix(.01679593 0 0 .01828578 2.612301 -1.324485)" gradientUnits="userSpaceOnUse" x1="231.55" x2="320.70001" xlink:href="#e"/><linearGradient id="g" gradientTransform="matrix(.01679593 0 0 .01828578 4.862342 -1.324485)" gradientUnits="userSpaceOnUse" x1="231.55" x2="320.70001" xlink:href="#e"/><g fill="none" stroke-linecap="square" transform="matrix(.34962583236 0 0 .25231775168 -328.42619842352 348.11589255792)"><path d="m946.85-1376.5 35.21657 13.3141" stroke="url(#a)" stroke-width="4.7462"/><path d="m975.69-1376.4-28.76 13.91" stroke="url(#c)" stroke-width="4.9033"/></g><path d="m9.4599522 14.778822c-1.3254317-1.275054-1.7190931-1.278467-2.7326871-.024385-.7044039.871919-1.9562392 1.280864-2.5830632.665384-.6305341-.619123-.2855808-1.371092.7128444-2.520708 1.2436067-1.431901 1.0932571-1.893856-.7147048-2.196134-1.6939891-.283161-2.3555168-.9988188-1.5797267-1.708819.3454615-.3161301 1.0870033-.4415677 2.612187-.4415677 1.1713389 0 2.1297342-.074131 2.1297342-.1665022 0-.091688-.2766461-.4884849-.6147599-.8818673-.7570607-.8807943-1.3673952-2.0798646-.6630346-2.6458944 1.038135-.8342672 3.7594637-.7997377 4.5895715-.0409672.874106.799933-.324746 2.0915696-1.0064187 2.6093166-.9880787.7504796-.5357801 1.1251342 1.3580667 1.1251342 2.189832 0 2.791568.1810359 2.791568.8395345 0 .6674725-.512549 1.0118885-2.07481 1.3940545-1.547473.378654-1.664016.87026-.537912 2.266947.641919.796227 1.302814 1.94898.639896 2.531577-.610864.536848-1.772582-.278889-2.3266261-.806273z" fill="url(#d)" stroke="#000" stroke-width=".480906"/><path d="m7.2437825 4.9243711c-.2895406.0135883-.5491806.1888775-.6488007.4232758-.144365.3075035-.0404104.7049617.2752359.9019921.1965097.1250125.4749816.145395.6881405.0380474.2968017-.1403674.444727-.4552084.4045322-.7416501-.0305839-.2512479-.2102314-.497604-.4867676-.5879662-.0731908-.0217414-.1574468-.039406-.2323403-.0339708zm-.1138963.4005833c.125991.023099.1385135.2034171.021975.2447256-.086866.021742-.1457245-.069301-.1325925-.136019.00467-.052995.050271-.1046303.1106175-.1087066zm.3800072.084248c.126304.021742.1383678.2031453.021975.2444538-.086867.02174-.1454877-.067942-.1320916-.1358831.00364-.054354.05076-.1059879.1101164-.108706zm-.4855037.297584c.099676 0 .1375753.1209361.097273.1898286-.02357.065223-.1319219.080172-.1708404.019023-.053914-.065223-.028785-.1891493.073555-.2049118h.0000114zm.356393.066582c.1000064 0 .1375025.1209362.097274.1896928-.023569.066583-.1319219.078813-.1708405.017666-.0538-.066583-.029251-.1898287.073566-.2047759h.0000011z" fill="url(#f)" stroke="#000" stroke-opacity=".62963" stroke-width=".062097"/><rect fill="#fff" height="15.963569" opacity="0" rx=".194308" ry=".830422" width="16" y=".036431"/><path d="m9.4938237 4.9243715c-.2895406.0135883-.5491806.1888775-.6488007.4232758-.144365.3075035-.0404104.7049617.2752359.9019921.1965097.1250125.4749816.145395.6881405.0380472.2968016-.1403672.4447266-.4552082.4045326-.7416499-.030584-.2512479-.210232-.497604-.486768-.5879662-.0731908-.0217414-.1574468-.039406-.2323403-.0339708zm-.1138963.4005833c.125991.023099.1385135.2034171.021975.2447256-.086866.021742-.1457245-.069301-.1325925-.136019.00467-.052995.050271-.1046303.1106175-.1087066zm.3800072.084248c.126304.021742.1383678.2031453.021975.2444538-.086867.02174-.1454877-.067942-.1320916-.1358831.00364-.054354.05076-.1059879.1101164-.108706zm-.4855037.297584c.099676 0 .1375753.1209361.097273.1898286-.02357.065223-.1319219.080172-.1708404.019023-.053914-.065223-.028785-.1891493.073555-.2049118h.0000114zm.356393.066582c.1000064 0 .1375025.1209362.097274.1896928-.023569.066583-.1319219.078813-.1708405.017666-.0538-.066583-.029251-.1898287.073566-.2047759h.0000011z" fill="url(#g)" stroke="#000" stroke-opacity=".62963" stroke-width=".062097"/></svg>