<svg height="16" viewBox="0 0 16 16" width="16" xmlns="http://www.w3.org/2000/svg"><path d="m.207753.207753h15.584494v15.584494h-15.584494z" fill="#fff" opacity="0" transform="matrix(1.0257899 0 0 1.0266615 -.199527 -.213292)"/><path d="m1.4999163 1.499916h13.0001677v13.000168h-13.0001677z" fill="#ef2929" stroke="#fff" stroke-width=".999833"/><path d="m.50002187.5000215h14.99995613v14.9999565h-14.99995613z" fill="none" stroke="#000" stroke-width="1.000044"/><g fill="#fff"><path d="m1 0h.999151v1h-.999151z"/><path d="m3.159402 0h.999151v1h-.999151z"/><path d="m5.318804 0h.999151v1h-.999151z"/><path d="m7.478206 0h.999151v1h-.999151z"/><path d="m9.637608 0h.999151v1h-.999151z"/><path d="m11.79701 0h.999151v1h-.999151z"/><path d="m13.956413 0h.999151v1h-.999151z"/><path d="m1.015835 15h.999151v1h-.999151z"/><path d="m3.175237 15h.999151v1h-.999151z"/><path d="m5.334639 15h.999151v1h-.999151z"/><path d="m7.494041 15h.999151v1h-.999151z"/><path d="m9.653443 15h.999151v1h-.999151z"/><path d="m11.812845 15h.999151v1h-.999151z"/><path d="m13.972248 15h.999151v1h-.999151z"/><g transform="matrix(0 -1 1 0 -2.349706 16.00575)"><path d="m1.00575 2.349706h.999151v1h-.999151z"/><path d="m3.165152 2.349706h.999151v1h-.999151z"/><path d="m5.324554 2.349706h.999151v1h-.999151z"/><path d="m7.483956 2.349706h.999151v1h-.999151z"/><path d="m9.643358 2.349706h.999151v1h-.999151z"/><path d="m11.80276 2.349706h.999151v1h-.999151z"/><path d="m13.962163 2.349706h.999151v1h-.999151z"/></g><g transform="matrix(0 1 -1 0 18.349706 .038686)"><path d="m1.00575 2.349706h.999151v1h-.999151z"/><path d="m3.165152 2.349706h.999151v1h-.999151z"/><path d="m5.324554 2.349706h.999151v1h-.999151z"/><path d="m7.483956 2.349706h.999151v1h-.999151z"/><path d="m9.643358 2.349706h.999151v1h-.999151z"/><path d="m11.80276 2.349706h.999151v1h-.999151z"/><path d="m13.962163 2.349706h.999151v1h-.999151z"/></g></g></svg>