<svg height="16" viewBox="0 0 16 16" width="16" xmlns="http://www.w3.org/2000/svg"><g stroke-width=".2" transform="translate(-103.038513 59.708207)"><path d="m103.03851-59.708206h16v16h-16z" fill="none"/><path d="m7.9316406.07226562a2.8996713 2.8817272 0 0 0 -2.9003906 2.88281248 2.8996713 2.8817272 0 0 0 2.0761719 2.7597657l-.052734.65625h-5.6757817v.796875h2.796875c1.5383594-.0000001 2.8116303.017184 2.828125.039062.016492.021881-.010696 1.4009524-.060547 3.0644532-.098056 3.271374-.1035889 3.311686-.5019532 3.501954-.746457.356541-2.9624842-.430629-3.1386718-1.115235-.067802-.263432.017119-.529494.2265625-.710937l.1796877-.154297-.484375-.166016c-.7272703-.248112-1.3607071-.598901-2.2246094-1.234375l-.77929688-.5742186-.11132812.2753906c-.14112218.346412-.14161651.978348-.001953 1.410156.20581347.636195.9297484 1.715581 1.078125 1.607422.042943-.0313.2125941-.05664.3769531-.05664.2824125 0 .3168379.01877.6328125.332031.9742267.965845 2.1641725 1.546165 4.2539063 2.074219.7820615.197592 1.2935256.367847 1.3691406.457031.025086.02959.07408.05469.109375.05469.035298 0 .084289-.0251.109375-.05469.07561-.08918.5890816-.259429 1.3710937-.457031 2.0568988-.519727 3.2296388-1.085627 4.2148438-2.03125.1692-.162403.340739-.312553.380859-.333985.111215-.05942.579764-.04867.667969.01563.148401.108141.872356-.971227 1.078125-1.607422.139663-.431808.139164-1.063762-.002-1.410156l-.113234-.2753956-.779297.5742186c-.863853.635474-1.497339.986292-2.22461 1.234375l-.484375.166016.179688.154297c.209444.181425.294364.447491.226562.710937-.176192.68457-2.390212 1.471776-3.1367184 1.115235-.3983841-.190257-.4039222-.230573-.5019531-3.501954-.0498522-1.6635004-.0770426-3.042574-.0605469-3.0644528.0164671-.0218773 1.2878124-.0390624 2.8261724-.0390624h2.796874v-.796875h-5.6757808l-.044922-.65625a2.8996713 2.8817272 0 0 0 2.0761718-2.7597657 2.8996713 2.8817272 0 0 0 -2.9003904-2.88281248zm0 1.27148438a1.5926131 1.5567253 0 0 1 1.5917969 1.5566406 1.5926131 1.5567253 0 0 1 -1.5917969 1.5566406 1.5926131 1.5567253 0 0 1 -1.59375-1.5566406 1.5926131 1.5567253 0 0 1 1.59375-1.5566406z" fill="#3465a4" stroke="#fff" transform="matrix(.9963909761 0 0 .99374837951 103.13823112906 -59.68038470661)"/></g></svg>