<svg height="16" viewBox="0 0 16 16" width="16" xmlns="http://www.w3.org/2000/svg" xmlns:xlink="http://www.w3.org/1999/xlink"><linearGradient id="a" gradientTransform="matrix(.38179253 0 0 .33704046 .545014 5.588287)" gradientUnits="userSpaceOnUse" x1="2" x2="8.917616"><stop offset="0" stop-color="#709bd2"/><stop offset="1" stop-color="#3465a4"/></linearGradient><linearGradient id="b" gradientTransform="matrix(.27983911 -.16616902 .16156486 .28781334 -24.674235 24.794066)" gradientUnits="userSpaceOnUse" x1="83.84375" x2="119"><stop offset="0" stop-color="#818181"/><stop offset=".5" stop-color="#fff"/><stop offset="1" stop-color="#bebebe"/></linearGradient><g transform="translate(0 -6)"><g fill-rule="evenodd"><path d="m7.8100226 11.651902s-5.585238-.112141-5.585238-.112141c-.7112541 0-1.72490914.775732-1.72490914 1.87537v4.098203c0 1.539298 1.98218864 1.535677 1.98218864.02925l.038949-4.021573s5.2890101-1.869104 5.2890101-1.869104z" fill="url(#a)" stroke="#204a87" stroke-width=".998933"/><path d="m2.7056393 13.416999 4.4228458 7.48281c.3397174.549789.8858862.761126 1.4123868.480465l6.4188041-3.811504c.488246-.341888.714671-.984012.402872-1.546379l-4.427896-7.3436712z" fill="url(#b)" stroke="#555753" stroke-width=".99836"/><ellipse cx=".797547" cy="16.619211" fill="#d5d5d5" rx="1.467218" ry="1.46665" stroke="#555753" stroke-linecap="round" stroke-width="1.067851" transform="matrix(.86559212 -.50074972 .49924834 .86645894 0 0)"/></g><path d="m3.9781345 13.76635 3.5698039 6.081693c.4550389.804207.4823421.789946 1.0566548.38685l5.3338278-3.221671c.637533-.379238.771146-.235407.374576-.943108l-3.694261-6.1546376z" fill="none" stroke="#fff" stroke-width=".934908"/><path d="m8.9872277 12.558589v-4.2912274c0-2.3788676 5.0005823-2.3055712 5.0005823.099046v4.7557264" fill="none" stroke="#555753" stroke-linecap="round" stroke-width=".998933"/></g></svg>