<svg height="16" viewBox="0 0 256.00003 256.00043" width="16" xmlns="http://www.w3.org/2000/svg"><path d="m70.601032 85.981076-67.0694115 67.405484 67.0694115 66.62016c.06162-11.10191 0-16.75274.06558-49.89969l92.220378-.35977c14.00824-.0566 25.08553 11.05424 25.08553 25.12983 0 14.07566-11.06144 25.12979-25.15103 25.12979h-8.3837v33.50639h8.38368c32.21158 0 58.68574-26.45207 58.68574-58.63618 0-32.18422-26.45862-58.76592-58.75125-58.63624l-92.154929.39259z" fill="#edd400" stroke="#000" stroke-width="4.974314"/><path d="m.045599-256.0004h255.95135v255.99573h-255.95135z" fill="none" transform="scale(1 -1)"/><path d="m124.5259 4.8784926-57.507086 55.1366754 57.507086 54.494282c.0528-9.08119 0-13.70348.0562-40.817193l79.07217-.294286c12.01102-.04637 21.509 9.042195 21.509 20.555825 0 11.513674-9.48438 20.555784-21.56515 20.555784h-7.18837v27.40773h7.1884c27.61905 0 50.31868-21.6374 50.31868-47.963514 0-26.326209-22.68633-48.069644-50.37485-47.963563l-79.01607.321132z" fill="#edd400" opacity=".5" stroke="#000" stroke-width="4.165856"/></svg>