<svg height="16" viewBox="0 0 16 16" width="16" xmlns="http://www.w3.org/2000/svg" xmlns:xlink="http://www.w3.org/1999/xlink"><linearGradient id="a"><stop offset="0" stop-color="#fff" stop-opacity=".796078"/><stop offset="1" stop-color="#fff" stop-opacity=".215686"/></linearGradient><linearGradient id="b"><stop offset="0"/><stop offset="1" stop-opacity="0"/></linearGradient><radialGradient id="c" cx="18.557627" cy="22.300018" gradientTransform="matrix(1.77275 0 0 1.29668 -16.3404 -6.615959)" gradientUnits="userSpaceOnUse" r="19.2292"><stop offset="0" stop-color="#857c63"/><stop offset="1" stop-color="#221f19"/></radialGradient><radialGradient id="d" cx="6.02422" cy="25.27103" gradientTransform="matrix(.916159 .09318684 -.108765 1.069309 3.253668 -3.029272)" gradientUnits="userSpaceOnUse" r="4.831029"><stop offset="0" stop-color="#5b676b"/><stop offset="1" stop-color="#141718"/></radialGradient><radialGradient id="e" cx="69.47323853507" cy="19.59787596846" gradientUnits="userSpaceOnUse" r="4.63489932523"><stop offset="0" stop-color="#fff"/><stop offset="1" stop-color="#b9b9b0"/></radialGradient><radialGradient id="f" cx="15.415101" cy="35.35651" gradientTransform="matrix(-.09389073 -1.406075 1.370264 -.09149987 18.28382 59.78933)" gradientUnits="userSpaceOnUse" r="7.579156"><stop offset="0" stop-color="#696969"/><stop offset="1"/></radialGradient><radialGradient id="g" cx="29.288071" cy="15.720984" fx="29.158466" fy="15.755712" gradientUnits="userSpaceOnUse" r="8.90208"><stop offset="0" stop-color="#fffcde"/><stop offset=".64485979" stop-color="#f6e76a"/><stop offset="1" stop-color="#ffb738"/></radialGradient><linearGradient id="h"><stop offset="0" stop-color="#777"/><stop offset="1"/></linearGradient><radialGradient id="i" cx="24.836429" cy="36.11889" gradientUnits="userSpaceOnUse" r="19.6965" xlink:href="#h"/><linearGradient id="j" gradientUnits="userSpaceOnUse" x1="40.44688225" x2="46.30247725" y1="35.31346875" y2="22.13838"><stop offset="0" stop-color="#730000"/><stop offset="1" stop-color="#ff0202"/></linearGradient><radialGradient id="k" cx="30.56110838246" cy="15.69905971453" gradientUnits="userSpaceOnUse" r="6.86542652928"><stop offset="0" stop-color="#ffa107"/><stop offset="1" stop-color="#c00"/></radialGradient><linearGradient id="l" gradientUnits="userSpaceOnUse" x1="28.764467" x2="38.070023" y1="12.221258" y2="38.297359"><stop offset="0" stop-color="#f2d565"/><stop offset="1" stop-color="#f2d565" stop-opacity="0"/></linearGradient><linearGradient id="m" gradientTransform="matrix(1.048897 0 0 1 -5.222439 0)" gradientUnits="userSpaceOnUse" x1="9.789264" x2="38.390732" y1="29.629091" y2="29.629091"><stop offset="0" stop-color="#ccc"/><stop offset=".34579438" stop-color="#fff"/><stop offset=".72486681" stop-color="#fff"/><stop offset="1" stop-color="#cecece"/></linearGradient><linearGradient id="n" gradientTransform="matrix(1 0 0 1.404523 6.545492 -7.966331)" gradientUnits="userSpaceOnUse" x1="14" x2="14" xlink:href="#b" y1="21.0625" y2="34.305527"/><linearGradient id="o" gradientTransform="matrix(1 0 0 1.171895 -1.454508 -3.141166)" gradientUnits="userSpaceOnUse" x1="14" x2="13.5" xlink:href="#b" y1="21.0625" y2="33.42667"/><linearGradient id="p" gradientTransform="matrix(1 0 0 1.159815 14.54551 -2.815047)" gradientUnits="userSpaceOnUse" x1="14" x2="14.5" xlink:href="#b" y1="21.0625" y2="33.431156"/><linearGradient id="q" gradientUnits="userSpaceOnUse" x1="30.525612" x2="32.311508" xlink:href="#r" y1="7.360971" y2="9.423471"/><linearGradient id="r"><stop offset="0" stop-color="#c00"/><stop offset=".27586207" stop-color="#c84a00"/><stop offset="1" stop-color="#be0000"/></linearGradient><linearGradient id="s" gradientUnits="userSpaceOnUse" x1="10.400612" x2="8.811508" xlink:href="#r" y1="7.610971" y2="9.673471"/><linearGradient id="t" gradientUnits="userSpaceOnUse" x1="32.098553" x2="31.775375" xlink:href="#u" y1="6.145459" y2="8.044363"/><linearGradient id="u"><stop offset="0" stop-color="#ffd93c"/><stop offset="1" stop-color="#fff" stop-opacity="0"/></linearGradient><linearGradient id="v" gradientUnits="userSpaceOnUse" x1="7.223551" x2="8.087875" xlink:href="#u" y1="6.020459" y2="8.044363"/><radialGradient id="w" cx="24.836429" cy="36.11889" gradientUnits="userSpaceOnUse" r="19.6965" xlink:href="#h"/><linearGradient id="x" gradientUnits="userSpaceOnUse" x1="28.51359" x2="17.37665" xlink:href="#b" y1="28.429332" y2="30.639031"/><linearGradient id="y" gradientUnits="userSpaceOnUse" x1="14.96875" x2="39.524544" xlink:href="#a" y1="19.11068" y2="46.98568"/><linearGradient id="z" gradientUnits="userSpaceOnUse" x1="6.305153" x2="5.984629" xlink:href="#a" y1="23.362427" y2="31.57"/><linearGradient id="A" gradientTransform="matrix(-.117687 -.528197 .528197 -.117687 46.2238 49.69112)" gradientUnits="userSpaceOnUse" x1="37.017639" x2="27.753893" y1="19.239889" y2="11.182488"><stop offset="0" stop-color="#6e3d09"/><stop offset=".242424" stop-color="#ea8113"/><stop offset=".621212" stop-color="#5c3307"/><stop offset="1" stop-color="#e07c12"/></linearGradient><linearGradient id="B" gradientTransform="matrix(-.117687 -.528197 .528197 -.117687 40.56367 46.8748)" gradientUnits="userSpaceOnUse" x1="19.394735" x2="23.109329" y1="30.001329" y2="33.438831"><stop offset="0" stop-color="#bdbdbd"/><stop offset=".333333" stop-color="#e2e2e2"/><stop offset=".666667" stop-color="#a3a3a3"/><stop offset="1" stop-color="#ddd"/></linearGradient><linearGradient id="C" gradientTransform="matrix(.11984 -.445379 .445379 .11984 42.0839 34.30798)" gradientUnits="userSpaceOnUse" x1="13.236155" x2="7.752109" xlink:href="#a" y1="37.752247" y2="42.28215"/><g transform="translate(-.00009 -.000077)"><g transform="matrix(.20926196 0 0 .2163023 5.921005 -1.737323)"><g stroke-miterlimit="10"><path d="m10.374369 12.467884s2.874509 5.927634 9.599242 5.760407c14.092515-.353553 16.563709-7.70495 16.917262-8.7656106.353554-1.0606602.894534-.8999979 1.019607.080267 4.596194 41.7192996-31.896931 23.8191756-33.192966 16.7135196 7.247845-2.12132 5.480078-6.187185 5.480078-6.187185z" fill="url(#c)" fill-rule="evenodd" stroke="#2e3436" stroke-width="1.287112"/><path d="m15.73779 30.066049c6.7389 1.347837 10.170691.09809 12.179175-1.452776-.53033-.68501-1.43631-1.436311-1.43631-1.436311s1.311376.247882 2.165514 1.149049c.584618.616806.638264 1.613221.510406 2.977884-.127858-.57988-.341418-.940985-.507265-1.350934-1.806268 2.187568-6.70419 2.304812-12.91152.113088z" fill="url(#x)" fill-rule="evenodd"/><path d="m36.962891 11.804688c-.559728.934477-1.401421 2.056988-2.69336 3.130859-2.627218 2.183767-7.038435 4.183821-14.269531 4.365234-4.225837.105086-6.950072-1.954556-8.623047-3.773437l-.105469 4.480468c.134812.418317.393059 1.396473-.08789 2.72461-.516639 1.426693-2.1627183 2.86654-4.9707034 3.974609.2490233.522742.4817175 1.072909 1.2402344 1.814453 1.0281233 1.005118 2.4782262 2.08191 4.177734 3.056641 3.399017 1.949462 7.804708 3.488613 11.910157 3.558594 4.105448.06998 7.837138-1.225366 10.417968-4.990235 2.383441-3.47692 3.695079-9.381018 3.003907-18.341796z" fill="none" opacity=".185393" stroke="url(#y)" stroke-width="1.287112"/><ellipse cx="6.098796" cy="27.228741" fill="url(#d)" fill-rule="evenodd" rx="4.331029" ry="6.098796" stroke="#000" stroke-width="1.287112" transform="matrix(.81098368 -.58506878 .58506878 .81098368 -14.777903 6.947129)"/><path d="m5.6289062 19.876953c-.7393622-.039616-1.5276913.351699-2.1914062 1.201172-.9338949 1.790657-.9173276 4.670873.058594 6.404297a1.0444595 1.0444595 0 0 1 .1035156.261719c.4106138 1.666083 1.4339316 2.861611 2.3964844 3.189453.9392123.319891 1.9349814-.02541 2.7675781-1.095703.9308181-1.791631.912906-4.667248-.0625-6.398438a1.0444595 1.0444595 0 0 1 -.1035159-.261719c-.2462848-.998749-.7095548-1.860092-1.2539062-2.427734s-1.1433429-.842253-1.7148438-.873047z" fill="none" opacity=".280899" stroke="url(#z)" stroke-width="1.287113" transform="matrix(.80038899 -.599481 .599481 .80038899 -15.00556 7.504618)"/><ellipse cx="4.065864" cy="23.251261" fill="#fff" fill-rule="evenodd" rx="1.767767" ry="2.12132"/><circle cx="13.611794" cy="21.837049" fill="#eeeeec" fill-rule="evenodd" r="3.181981" stroke="#888a85" stroke-width="1.287112"/><circle cx="69.473244" cy="21.837049" fill="url(#e)" fill-rule="evenodd" r="3.181981" stroke="#888a85" stroke-width=".858075" transform="matrix(1.5 0 0 1.5 -82.1682 -10.91852)"/><circle cx="23.157754" cy="22.544157" fill="#2e3436" fill-rule="evenodd" r="2.298097" stroke="#000" stroke-width="1.287112"/><circle cx="22.273862" cy="21.4834965" fill="#fff" fill-rule="evenodd" r="1.5909903" stroke-width=".9"/><circle cx="14.63954467059" cy="22.27900039887" fill="#2e3436" fill-rule="evenodd" r="1.41421442234" stroke="#000" stroke-width="1.28711341983"/><circle cx="14.09560486308" cy="21.62627662259" fill="#fff" fill-rule="evenodd" r=".97907068188" stroke-width=".553846"/></g><path d="m35.763473 35.714292 1.529018-2.59487c-2.75182-1.783078-6.107312-2.722843-8.624927-3.723707 0 0-1.392594.9569-1.392594.9569 2.411363 1.559 5.377611 3.673661 8.488503 5.361677z" fill="url(#A)" stroke="#673907" stroke-linecap="round" stroke-width="1.287113"/><path d="m42.122514 38.650724.757075-1.414085-4.890732-3.61885-.405187-.06222-.138207-.575965c-.77382.414973-1.96915 2.069575-1.748487 3.059944l.566122-.171609.279578.309163z" fill="url(#B)" stroke="#888a85" stroke-linecap="round" stroke-width="1.287113"/><path d="m47.53951 46.273923c-.394339-5.905517.0097-10.434265-4.343543-10.995857-3.508074-.452565-4.849219 4.419169-1.600654 6.572005 3.129392 2.073861 5.944197 4.423852 5.944197 4.423852z" fill="url(#f)" stroke-linecap="round" stroke-width=".2"/><circle cx="7.624999" cy="37.75" fill="#fff" opacity=".527779" r="1.25" stroke-linecap="round" transform="matrix(-.23154 -1.039181 1.039181 -.23154 5.254334 54.09927)"/><path d="m46.540795 41.779063s-.479161-2.790295-1.93816-3.254552c-.516189-.164253-.135515-.853626.402139-.583826 1.161317.58276 1.536021 3.838378 1.536021 3.838378z" fill="url(#C)" opacity=".427778" stroke-linecap="round"/><path d="m35.587145 33.172855s-2.253903-1.104854-5.391689-2.253903" style="opacity:.175258;fill:none;stroke:#fff;stroke-width:1.287113;stroke-linecap:round;stroke-linejoin:round"/></g><g transform="matrix(.18879821 0 0 .18917713 -1.079967 8.0928)"><circle cx="31.112698" cy="19.008621" r="8.662058" style="fill-rule:evenodd;stroke:#9c8c0a;stroke-width:.480044;stroke-linecap:round;stroke-linejoin:round;fill:url(#g)" transform="matrix(2.083142 0 0 2.083142 -40.54715 -16.49224)"/><circle cx="24.26507947184" cy="23.10546570062" r="17.14898651136" style="opacity:.677215;fill:none;stroke:#fff;stroke-linecap:round;stroke-linejoin:round;stroke-width:.99999976689"/><path d="m37.284637 24.719966c-3.016467 5.224673-6.543503 8.990039-12.822145 8.990039-6.100017 0-10.565537-4.339697-13.352476-9.166816 2.549413 3.05592 6.282932 6.566312 13.087311 6.566312 8.130204 0 9.551776-2.906855 13.08731-6.389535z" fill="#fff" opacity=".36"/><path d="m37.284637 24.012862c-3.016467 5.224673-6.543503 8.990039-12.822145 8.990039-6.100017 0-10.565537-4.339697-13.352476-9.166816 2.549413 3.05592 6.282932 6.566312 13.087311 6.566312 8.130204 0 9.551776-2.906855 13.08731-6.389535z" fill="url(#i)"/><g transform="translate(.353553 2.392706)"><path d="m21.398158 15.321428c0 2.5-1.125 4.5-2.5 4.5s-2.625-2-2.625-4.5 1.125-4.5 2.5-4.5 2.5 2 2.5 4.5z" fill="#fff" opacity=".36"/><path d="m30.688512 15.321428c0 2.5-1.125 4.5-2.5 4.5s-2.5-2-2.5-4.5 1.125-4.5 2.5-4.5 2.5 2 2.5 4.5z" fill="#fff" opacity=".36"/><path d="m21.398158 14.696428c0 2.5-1.125 4.5-2.5 4.5s-2.5-2-2.5-4.5 1.125-4.5 2.5-4.5 2.5 2 2.5 4.5z"/><path d="m30.688512 14.696428c0 2.5-1.125 4.5-2.5 4.5s-2.5-2-2.5-4.5 1.125-4.5 2.5-4.5 2.5 2 2.5 4.5z"/></g></g><g opacity=".5" transform="matrix(.1538546 0 0 .15416338 8.725998 9.579217)"><path d="m27.435547 37.514338s16.791746.672804 19.159721-6.10459c1.588549-4.546595-5.001655-7.368293-5.562817-10.442481-.561161-3.07419 3.318172-2.293443 3.318172-2.293443l.634356 1.268713 2.293443-2.732612-4.098918-.536763.780746 1.317509s-3.781741-.609958-3.903731 2.683816c-.121992 3.293773 6.652724 7.490284 4.310485 10.735261s-13.679442 2.244645-13.679442 2.244645z" fill="url(#j)" fill-rule="evenodd" opacity="1"/><circle cx="31.112698" cy="19.008621" r="8.662058" style="opacity:1;fill-rule:evenodd;stroke:#a40000;stroke-width:.480044;stroke-linecap:round;stroke-linejoin:round;fill:url(#k)" transform="matrix(2.083142 0 0 2.083142 -44.50164 -16.49224)"/><circle cx="31.112698" cy="19.008621" r="8.662058" style="opacity:.431818;fill:none;stroke-width:.505106;stroke-linecap:round;stroke-linejoin:round;stroke:url(#l)" transform="matrix(1.979782 0 0 1.979782 -41.28577 -14.52746)"/><path d="m-.875 1.875a2.9375 2.875 0 0 1 -2.1772191 2.7770368 2.9375 2.875 0 0 1 -3.3042306-1.3395369" fill="none" stroke="#000" transform="matrix(-.96592587 -.25881888 .25881888 -.96592587 20.57993 17.201308)"/><path d="m-.875 1.875a2.9375 2.875 0 0 1 -2.1772191 2.7770368 2.9375 2.875 0 0 1 -3.3042306-1.3395369" fill="none" stroke="#000" transform="matrix(-.96592587 -.25881888 .25881888 -.96592587 11.82993 17.201308)"/><path d="m5.2330302 21.044769c-1.5389814 7.567378 4.6920364 17.167526 14.8511488 17.167526 10.247498 0 16.505528-8.430424 14.72004-17.105026z" fill="url(#m)" opacity="1"/><path d="m20.545492 21.528657v16.854279" fill="none" opacity=".181818" stroke="url(#n)" stroke-linecap="square"/><path d="m12.545492 21.468635v14.062746" fill="none" opacity=".181818" stroke="url(#o)" stroke-linecap="square"/><path d="m28.545492 21.541107v13.917802" fill="none" opacity=".181818" stroke="url(#p)" stroke-linecap="square"/><path d="m5.4864345 20.615864c-1.7806546 8.821926 5.1590115 18.087809 14.8090585 18.087809 10.003545 0 16.652216-9.578383 14.371562-18.150309z" fill="none" opacity="1" stroke="#a40000"/><g stroke-linecap="round" stroke-linejoin="round"><path d="m34.535409 4.733087c-.125668.023511-.246278.06874-.356419.1336572l-5.970021 3.274601c-.30832.1767703-.620545.4973498-.547654.8451938.437186 2.086317 2.08394 3.513463 4.304051 3.763381.334167.03762.611947-.277499.765671-.576583l2.962734-5.85864c.186119-.3693272.149453-.8118211-.094915-1.1454781s-.655174-.5021335-1.063447-.4361319z" fill="url(#q)" fill-rule="evenodd" stroke="#a40000" stroke-width=".999999"/><path d="m6.9267157 4.858087c.125668.023511.246278.06874.356419.1336572l5.9700183 3.274601c.30832.1767703.620545.4973498.547654.8451938-.437186 2.086317-2.08394 3.513463-4.3040474 3.763381-.334167.03762-.6119476-.277499-.7656719-.576583l-2.962734-5.85864c-.186119-.3693272-.149453-.8118211.094915-1.1454781s.655174-.5021335 1.063447-.4361319z" fill="url(#s)" fill-rule="evenodd" opacity="1" stroke="#a40000" stroke-width=".999999"/><path d="m34.550143 5.7962029-5.607281 3.036966c-.191029.1221924-.242098.125658-.179693.3632693.280108 1.0665168 1.661495 2.2519038 2.732107 2.5130488.225831.05509.423009-.08134.52927-.288078l2.755097-5.5081922c.128655-.2552974-.153365-.1618881-.2295-.1170139z" fill="none" opacity=".647727" stroke="url(#t)" stroke-width=".999999"/><path d="m6.9035211 5.9729796 5.6072809 3.036966c.191029.1221924.242098.125658.179693.3632693-.280108 1.0665171-1.661495 2.2519041-2.7321069 2.5130491-.225831.05509-.423009-.08134-.52927-.288078l-2.755097-5.5081925c-.128655-.2552974.153365-.1618881.2295-.1170139z" fill="none" opacity=".647727" stroke="url(#v)" stroke-width=".999999"/></g></g><g opacity=".5" transform="matrix(.1593574 0 0 .16215183 -.742478 -.739675)"><circle cx="31.112698" cy="19.008621" r="8.662058" style="opacity:1;fill-rule:evenodd;stroke:#9c8c0a;stroke-width:.480044;stroke-linecap:round;stroke-linejoin:round;fill:url(#g)" transform="matrix(2.083142 0 0 2.083142 -40.54715 -16.49224)"/><circle cx="24.26507947184" cy="23.10546570062" r="17.14898651136" style="opacity:.677215;fill:none;stroke:#fff;stroke-linecap:round;stroke-linejoin:round;stroke-width:.99999976689"/><g transform="matrix(.96937178 .24559794 -.24559794 .96937178 6.456941 -5.229998)"><path d="m37.284637 24.719966c-3.016467 5.224673-6.543503 8.990039-12.822145 8.990039-6.100017 0-10.565537-4.339697-13.352476-9.166816 2.549413 3.05592 6.282932 6.566312 13.087311 6.566312 8.130204 0 9.551776-2.906855 13.08731-6.389535z" fill="#fff" opacity=".36"/><path d="m37.284637 24.012862c-3.016467 5.224673-6.543503 8.990039-12.822145 8.990039-6.100017 0-10.565537-4.339697-13.352476-9.166816 2.549413 3.05592 6.282932 6.566312 13.087311 6.566312 8.130204 0 9.551776-2.906855 13.08731-6.389535z" fill="url(#w)"/></g><path d="m31.042065 17.714134c0 2.5-1.125 4.5-2.5 4.5s-2.5-2-2.5-4.5 1.125-4.5 2.5-4.5 2.5 2 2.5 4.5z" fill="#fff" opacity=".36"/><path d="m31.042065 17.089134c0 2.5-1.125 4.5-2.5 4.5s-2.5-2-2.5-4.5 1.125-4.5 2.5-4.5 2.5 2 2.5 4.5z"/><path d="m15.924926 17.535184c1.361504-3.344457 4.84345-3.432276 6.068764-.114834-2.161069-1.71313-4.148092-1.219733-6.068764.114834z" opacity="1"/></g></g></svg>