<svg height="16" viewBox="0 0 7.3333333 7.3333333" width="16" xmlns="http://www.w3.org/2000/svg"><path d="m2.5737344 1044.9091-1.8292142-2.0538 2.6932777-.5573z" fill="#ff4b00" stroke-linecap="round" stroke-width=".470101" transform="matrix(-.62236398 -.28816572 .2819918 -.63598997 -291.3216 665.7517)"/><g transform="scale(.45833333)"><path d="m.50002188.50002151h14.99995612v14.99995649h-14.99995612z" fill="none" stroke="#000"/><g fill="#fff"><path d="m1 0h3v1h-3z"/><path d="m6.5 0h3v1h-3z"/><path d="m12 0h3v1h-3z"/><g transform="matrix(0 1 -1 0 16 0)"><path d="m1 0h3v1h-3z"/><path d="m6.5 0h3v1h-3z"/><path d="m12 0h3v1h-3z"/></g><g transform="matrix(0 1 -1 0 1 0)"><path d="m1 0h3v1h-3z"/><path d="m6.5 0h3v1h-3z"/><path d="m12 0h3v1h-3z"/></g><path d="m1 15h3v1h-3z"/><path d="m6.5 15h3v1h-3z"/><path d="m12 15h3v1h-3z"/></g></g><g fill="#ff4b00" stroke-linecap="round" stroke-width=".470101"><path d="m2.5737344 1044.9091-1.8292142-2.0538 2.6932777-.5573z" transform="matrix(.622364 -.28816572 -.2819918 -.63598998 298.65494 665.75171)"/><path d="m2.5737344 1044.9091-1.8292142-2.0538 2.6932777-.5573z" transform="matrix(-.622364 .28816572 .2819918 .63598998 -291.3216 -658.41837)"/><path d="m2.5737344 1044.9091-1.8292142-2.0538 2.6932777-.5573z" transform="matrix(.622364 .28816572 -.2819918 .63598998 298.65494 -658.41837)"/></g></svg>