<?xml version="1.0" encoding="UTF-8" standalone="no"?>
<svg
   xmlns:osb="http://www.openswatchbook.org/uri/2009/osb"
   xmlns:dc="http://purl.org/dc/elements/1.1/"
   xmlns:cc="http://creativecommons.org/ns#"
   xmlns:rdf="http://www.w3.org/1999/02/22-rdf-syntax-ns#"
   xmlns:svg="http://www.w3.org/2000/svg"
   xmlns="http://www.w3.org/2000/svg"
   xmlns:sodipodi="http://sodipodi.sourceforge.net/DTD/sodipodi-0.dtd"
   xmlns:inkscape="http://www.inkscape.org/namespaces/inkscape"
   version="1.1"
   width="16"
   height="16"
   id="svg2"
   viewBox="0 0 16 16"
   inkscape:version="0.91 r13725"
   sodipodi:docname="gimp-close.svg">
  <sodipodi:namedview
     pagecolor="#ffffff"
     bordercolor="#666666"
     borderopacity="1"
     objecttolerance="10"
     gridtolerance="10"
     guidetolerance="10"
     inkscape:pageopacity="0"
     inkscape:pageshadow="2"
     inkscape:window-width="640"
     inkscape:window-height="480"
     id="namedview1697"
     showgrid="false"
     inkscape:zoom="14.75"
     inkscape:cx="-316.23727"
     inkscape:cy="712.43925"
     inkscape:window-x="0"
     inkscape:window-y="27"
     inkscape:window-maximized="0"
     inkscape:current-layer="svg2" />
  <metadata
     id="metadata90">
    <rdf:RDF>
      <cc:Work>
        <dc:format>image/svg+xml</dc:format>
        <dc:type
           rdf:resource="http://purl.org/dc/dcmitype/StillImage" />
        <dc:title>Gimp Color Icon Theme</dc:title>
        <dc:contributor>
          <cc:Agent>
            <dc:title>many unknown and unnamed, Andrew Chadwick, Alexandre Prokoudine, Aryeom Han, Benoit Touchette, Jakub Steiner, Jehan, Johannes Matschke, Kevin Payne, Klaus Staedtler, Marek Dvoroznak, Michael Natterer</dc:title>
          </cc:Agent>
        </dc:contributor>
        <dc:description>Enhanced, extended tango-art-libre for GIMP</dc:description>
      </cc:Work>
    </rdf:RDF>
  </metadata>
  <defs
     id="defs7386">
    <linearGradient
       gradientTransform="matrix(0,-735328.32,170712.69,0,2464326300,577972450)"
       osb:paint="solid"
       id="linearGradient19282">
      <stop
         stop-color="#b4b4b4"
         id="stop19284" />
    </linearGradient>
    <linearGradient
       osb:paint="gradient"
       x1="231.55"
       x2="320.70001"
       gradientUnits="userSpaceOnUse"
       id="linearGradient6057"
       gradientTransform="matrix(0.01502614,0,0,0.01468232,2.9686133,1037.3257)">
      <stop
         stop-color="#a11f7c"
         id="stop6053" />
      <stop
         stop-opacity="0.984"
         stop-color="#541f31"
         offset="1"
         id="stop6055" />
    </linearGradient>
    <linearGradient
       osb:paint="solid"
       id="linearGradient5487">
      <stop
         id="stop5485"
         offset="0"
         style="stop-color:#888a85;stop-opacity:1;" />
    </linearGradient>
  </defs>
  <g
     style="display:inline"
     transform="translate(52.78718,45.2427)"
     id="stock">
    <g
       id="gimp-close"
       transform="translate(-52.787181,-1081.6049)">
      <g
         transform="matrix(1.1428571,0,0,1.1428571,-48.000227,602.0765)"
         id="gimp-close-6"
         style="fill:#000000">
        <path
           style="fill:#eeeeec;fill-opacity:0.94117647;stroke:#000000;stroke-width:0.89999998;stroke-miterlimit:4;stroke-dasharray:none;stroke-opacity:1"
           d="m 385.4707,111.98438 0,1.52343 3.04883,3.04688 -3.04883,3.04883 0,1.52343 1.52344,0 3.04883,-3.04883 3.04687,3.04883 1.52344,0 0,-1.52343 -3.04687,-3.04883 3.04687,-3.04688 0,-1.52343 -1.52344,0 -3.04687,3.04687 -3.04883,-3.04687 z"
           transform="matrix(0.87500003,0,0,0.87500003,-292.28642,285.01318)"
           id="path4934-1"
           inkscape:connector-curvature="0" />
      </g>
      <path
         style="fill:#eeeeec;stroke-width:1.14213085"
         d="m 3.3443308,1037.4439 c -1.2741211,0 -2.2998575,1.012 -2.2998575,2.2689 l 0,9.075 c 0,1.2568 1.0257364,2.2688 2.2998575,2.2688 l 9.1994302,0 c 1.274121,0 2.299858,-1.012 2.299858,-2.2688 l 0,-9.075 c 0,-1.2569 -1.025737,-2.2689 -2.299858,-2.2689 z m 0.5030939,1.1344 8.1932443,0 c 0.908109,0 1.65302,0.7349 1.65302,1.6306 l 0,8.0826 c 0,0.8958 -0.744911,1.6306 -1.65302,1.6306 l -8.1932443,0 c -0.9081103,0 -1.6530226,-0.7348 -1.6530226,-1.6306 l 0,-8.0826 c 0,-0.8957 0.7449123,-1.6306 1.6530226,-1.6306 z"
         id="rect5232-5-6"
         inkscape:connector-curvature="0" />
      <path
         style="fill:#000000;stroke-width:1.33333325"
         d="m 2.6666672,1036.3622 c -1.4773333,0 -2.66666663333995,1.1893 -2.66666663333995,2.6667 l 0,10.6666 c 0,1.4774 1.18933333333995,2.6667 2.66666663333995,2.6667 l 10.6666668,0 c 1.477333,0 2.666667,-1.1893 2.666667,-2.6667 l 0,-10.6666 c 0,-1.4774 -1.189334,-2.6667 -2.666667,-2.6667 z m 0.5833333,1.3333 9.5000005,0 c 1.052946,0 1.916666,0.8638 1.916666,1.9167 l 0,9.5 c 0,1.0529 -0.86372,1.9167 -1.916666,1.9167 l -9.5000005,0 c -1.0529466,0 -1.9166666,-0.8638 -1.9166666,-1.9167 l 0,-9.5 c 0,-1.0529 0.86372,-1.9167 1.9166666,-1.9167 z"
         id="rect5232"
         inkscape:connector-curvature="0" />
    </g>
  </g>
</svg>
