<?xml version="1.0" encoding="UTF-8" standalone="no"?>
<svg
   xmlns:osb="http://www.openswatchbook.org/uri/2009/osb"
   xmlns:dc="http://purl.org/dc/elements/1.1/"
   xmlns:cc="http://creativecommons.org/ns#"
   xmlns:rdf="http://www.w3.org/1999/02/22-rdf-syntax-ns#"
   xmlns:svg="http://www.w3.org/2000/svg"
   xmlns="http://www.w3.org/2000/svg"
   xmlns:sodipodi="http://sodipodi.sourceforge.net/DTD/sodipodi-0.dtd"
   xmlns:inkscape="http://www.inkscape.org/namespaces/inkscape"
   version="1.1"
   width="16"
   height="16.000038"
   id="svg2"
   viewBox="0 0 16 16.000038"
   inkscape:version="0.91 r13725"
   sodipodi:docname="gimp-floating-selection.svg">
  <sodipodi:namedview
     pagecolor="#ffffff"
     bordercolor="#666666"
     borderopacity="1"
     objecttolerance="10"
     gridtolerance="10"
     guidetolerance="10"
     inkscape:pageopacity="0"
     inkscape:pageshadow="2"
     inkscape:window-width="501"
     inkscape:window-height="405"
     id="namedview1701"
     showgrid="false"
     inkscape:zoom="14.749965"
     inkscape:cx="-384.51698"
     inkscape:cy="907.01866"
     inkscape:window-x="0"
     inkscape:window-y="27"
     inkscape:window-maximized="0"
     inkscape:current-layer="svg2" />
  <metadata
     id="metadata90">
    <rdf:RDF>
      <cc:Work>
        <dc:format>image/svg+xml</dc:format>
        <dc:type
           rdf:resource="http://purl.org/dc/dcmitype/StillImage" />
        <dc:title>Gimp Color Icon Theme</dc:title>
        <dc:contributor>
          <cc:Agent>
            <dc:title>many unknown and unnamed, Andrew Chadwick, Alexandre Prokoudine, Aryeom Han, Benoit Touchette, Jakub Steiner, Jehan, Johannes Matschke, Kevin Payne, Klaus Staedtler, Marek Dvoroznak, Michael Natterer</dc:title>
          </cc:Agent>
        </dc:contributor>
        <dc:description>Enhanced, extended tango-art-libre for GIMP</dc:description>
      </cc:Work>
    </rdf:RDF>
  </metadata>
  <defs
     id="defs7386">
    <linearGradient
       gradientTransform="matrix(0,-735328.32,170712.69,0,2464326300,577972450)"
       osb:paint="solid"
       id="linearGradient19282">
      <stop
         stop-color="#b4b4b4"
         id="stop19284" />
    </linearGradient>
    <linearGradient
       osb:paint="gradient"
       x1="231.55"
       x2="320.70001"
       gradientUnits="userSpaceOnUse"
       id="linearGradient6057"
       gradientTransform="matrix(0.01502614,0,0,0.01468232,2.9686133,1037.3257)">
      <stop
         stop-color="#a11f7c"
         id="stop6053" />
      <stop
         stop-opacity="0.984"
         stop-color="#541f31"
         offset="1"
         id="stop6055" />
    </linearGradient>
    <linearGradient
       osb:paint="solid"
       id="linearGradient5487">
      <stop
         id="stop5485"
         offset="0"
         style="stop-color:#888a85;stop-opacity:1;" />
    </linearGradient>
  </defs>
  <g
     style="display:inline"
     transform="translate(-15.514634,-149.24829)"
     id="stock">
    <g
       transform="translate(15.492537,-887.20227)"
       id="gimp-floating-selection">
      <path
         style="opacity:1;fill:#2e3436;fill-opacity:1;stroke:none;stroke-width:0.1;stroke-miterlimit:4;stroke-dasharray:none;stroke-opacity:1"
         d="m 4.1294673,1046.7198 11.3599107,0 -3.535534,5.4801 -11.42620188,-0.088 z"
         id="rect3969"
         inkscape:connector-curvature="0" />
      <rect
         style="fill:none;stroke:none"
         id="rect28186-4"
         width="16"
         height="16"
         x="0.02209709"
         y="1036.4506"
         rx="0" />
      <rect
         style="opacity:0.3;fill:none;stroke:none"
         id="rect6884"
         width="16"
         height="16"
         x="0.02209709"
         y="1036.4506" />
      <g
         transform="translate(-40.978101,597.45059)"
         style="display:inline"
         id="gimp-layers-1">
        <rect
           y="439"
           x="41.000198"
           height="16"
           width="16"
           id="rect11958"
           style="fill:none;stroke:none" />
      </g>
      <path
         style="opacity:1;fill:#ffffff;fill-opacity:1;stroke:none;stroke-width:0.1;stroke-miterlimit:4;stroke-dasharray:none;stroke-opacity:1"
         d="m 4.1366833,1038.5219 11.3599107,0 -3.535534,5.4801 -11.42620224,-0.088 z"
         id="rect3969-1"
         inkscape:connector-curvature="0" />
      <path
         id="path8"
         d="m 15.971316,1038.3451 -11.9218749,0.057 -4.02734401,5.9238 11.96093791,0 z m -11.7285159,0.3164 0.978516,0.024 -0.552735,0.8886 -1,0 0.574219,-0.9121 z m 1.90625,0 0.976563,0.024 -0.550782,0.8886 -1,0 0.574219,-0.9121 z m 1.904297,0 0.978516,0.024 -0.552735,0.8886 -1,0 0.574219,-0.9121 z m 1.904297,0 0.9785149,0.024 -0.552734,0.8886 -0.9999999,0 0.574219,-0.9121 z m 1.9042969,0 0.978515,0.024 -0.552734,0.8886 -1,0 0.574219,-0.9121 z m 1.90625,0 0.976562,0.024 -0.550781,0.8886 -1,0 0.574219,-0.9121 z m -10.3945319,1.3789 0.978516,0.022 -0.552734,0.8907 -1,0 0.574218,-0.9122 z m 9.5644539,0.068 0.978515,0.023 -0.552734,0.8887 -1,0 0.574219,-0.9121 z m -10.4042969,1.3242 0.978515,0.022 -0.552734,0.8887 -1,0 0.574219,-0.9102 z m 9.5664059,0.068 0.976563,0.022 -0.552735,0.8906 -1,0 0.576172,-0.9121 z m -10.4492189,1.4785 0.976563,0.022 -0.552735,0.8887 -1,0 0.576172,-0.9102 z m 1.904297,0 0.978516,0.022 -0.552735,0.8887 -1,0 0.574219,-0.9102 z m 1.904297,0 0.978516,0.022 -0.552735,0.8887 -1,0 0.574219,-0.9102 z m 1.904297,0 0.978515,0.022 -0.552734,0.8887 -1,0 0.574219,-0.9102 z m 1.90625,0 0.9765619,0.022 -0.5527339,0.8887 -1,0 0.576172,-0.9102 z m 1.9042969,0 0.976562,0.022 -0.550781,0.8887 -1,0 0.574219,-0.9102 z"
         style="fill:#555753"
         inkscape:connector-curvature="0" />
      <path
         style="opacity:1;fill:#eeeeec;fill-opacity:1"
         d="m 15.971316,1046.4698 -11.9218749,0.057 -4.02734401,5.9238 11.96093791,0 3.988281,-5.9805 z m -11.7285159,0.3164 0.978516,0.024 -0.552735,0.8886 -1,0 0.574219,-0.9121 z m 1.90625,0 0.976563,0.024 -0.550782,0.8886 -1,0 0.574219,-0.9121 z m 1.904297,0 0.978516,0.024 -0.552735,0.8886 -1,0 0.574219,-0.9121 z m 1.904297,0 0.9785149,0.024 -0.552734,0.8886 -0.9999999,0 0.574219,-0.9121 z m 1.9042969,0 0.978515,0.024 -0.552734,0.8886 -1,0 0.574219,-0.9121 z m 1.90625,0 0.976562,0.024 -0.550781,0.8886 -1,0 0.574219,-0.9121 z m -10.3945319,1.3789 0.978516,0.022 -0.552734,0.8907 -1,0 0.574218,-0.9122 z m 9.5644539,0.068 0.978515,0.023 -0.552734,0.8887 -1,0 0.574219,-0.9121 z m -10.4042969,1.3242 0.978515,0.022 -0.552734,0.8887 -1,0 0.574219,-0.9102 z m 9.5664059,0.068 0.976563,0.022 -0.552735,0.8906 -1,0 0.576172,-0.9121 z m -10.4492189,1.4785 0.976563,0.022 -0.552735,0.8887 -1,0 0.576172,-0.9102 z m 1.904297,0 0.978516,0.022 -0.552735,0.8887 -1,0 0.574219,-0.9102 z m 1.904297,0 0.978516,0.022 -0.552735,0.8887 -1,0 0.574219,-0.9102 z m 1.904297,0 0.978515,0.022 -0.552734,0.8887 -1,0 0.574219,-0.9102 z m 1.90625,0 0.9765619,0.022 -0.5527339,0.8887 -1,0 0.576172,-0.9102 z m 1.9042969,0 0.976562,0.022 -0.550781,0.8887 -1,0 0.574219,-0.9102 z"
         id="path8-8-8"
         inkscape:connector-curvature="0" />
    </g>
  </g>
</svg>
