<svg height="16" viewBox="0 0 16 16" width="16" xmlns="http://www.w3.org/2000/svg" xmlns:xlink="http://www.w3.org/1999/xlink"><linearGradient id="a"><stop offset="0" stop-color="#fff"/><stop offset="1" stop-color="#fff" stop-opacity="0"/></linearGradient><linearGradient id="b"><stop offset="0" stop-color="#eeeeec"/><stop offset="1" stop-color="#a3a398"/></linearGradient><linearGradient id="c" gradientTransform="matrix(.622944 0 0 .618533 6.55283 -.0088)" gradientUnits="userSpaceOnUse" x1="9.303053" x2="38.826412" y1="26.71875" y2="26.71875"><stop offset="0" stop-color="#d6d7d5"/><stop offset=".25" stop-color="#d1d2d0"/><stop offset=".5" stop-color="#a5a6a3"/><stop offset="1" stop-color="#dddedc"/></linearGradient><linearGradient id="d" gradientUnits="userSpaceOnUse" x1="24" x2="23.433737" xlink:href="#b" y1="17.245949" y2="8.047659"/><linearGradient id="e" gradientTransform="matrix(.593728 0 0 .590305 7.25337 .782569)" gradientUnits="userSpaceOnUse" x1="17.160095" x2="37.969398" xlink:href="#a" y1="14.004482" y2="56.575912"/><linearGradient id="f" gradientTransform="matrix(.622768 0 0 .616853 6.55454 1.31626)" gradientUnits="userSpaceOnUse" x1="34.244171" x2="34.244171" xlink:href="#a" y1="17.695425" y2="29.91827"/><radialGradient id="g" cx="24.225998" cy="30.479609" gradientTransform="matrix(1.840918 0 0 .821277 -20.45053 -6.182276)" gradientUnits="userSpaceOnUse" r="13.354399"><stop offset="0" stop-opacity=".278351"/><stop offset="1" stop-color="#a8a8a8" stop-opacity="0"/></radialGradient><linearGradient id="h" gradientUnits="userSpaceOnUse" x1="23.433737" x2="23.433737" xlink:href="#b" y1="15.75864" y2="8.047659"/><linearGradient id="i" gradientTransform="matrix(.622768 0 0 .616853 6.55454 1.845)" gradientUnits="userSpaceOnUse" x1="16.07143" x2="16.035715" xlink:href="#a" y1="19.5" y2="31.75"/><g transform="matrix(.63450179 0 0 .69458935 -5.669604 -3.473398)"><g stroke-miterlimit="10"><path d="m21.464547 5.500002c-4.895979 0-8.876945 1.7334382-8.876946 3.8658299v14.3035631c0 2.132392 3.980966 3.865829 8.876946 3.865829 4.895981 0 9.035466-1.733438 9.035464-3.865829 0-.126218 0-14.177345 0-14.3035631 0-2.1323917-4.139483-3.8658299-9.035464-3.8658299z" display="block" fill="url(#c)" stroke="#767973"/><ellipse cx="24" cy="14.071428" display="block" fill="#d3d7cf" opacity=".236264" rx="12.857142" ry="5.5" stroke="url(#d)" stroke-width="1.791129" transform="matrix(.61236 0 0 .509025 6.93016 16.53765)"/><path d="m21.470844 6.4999985c-4.350694 0-7.888282 1.5424173-7.888283 3.4398227v13.0612248c0 1.897408 3.537589 3.439823 7.888283 3.439823 4.350692 0 8.029144-1.542415 8.029142-3.439823 0-.112308 0-12.948914 0-13.0612248 0-1.8974064-3.67845-3.4398227-8.029142-3.4398227z" display="block" fill="none" opacity=".544304" stroke="url(#e)"/></g><path d="m28.887273 8.524194c-.690721-.607667-1.274767-.792679-1.887273-1.090451l.188727 11.527631 1.698546 1.993968z" display="block" fill="url(#f)"/><ellipse cx="24" cy="14.071428" rx="12.857142" ry="5.5" style="display:block;opacity:.773196;stroke-width:1.716514;stroke-miterlimit:10;fill:url(#g);stroke:url(#h)" transform="matrix(.622222 0 0 .545455 6.56666 1.824673)"/><path d="m15.139846 12.375547.222416 10.354311 2.846942.793096-.08897-10.310249s1.207451-.05452 3.298174-.186706c-4.04636-.03083-6.689424-.973498-8.146872-2.368826.882401 1.290564 1.868306 1.718374 1.868306 1.718374z" display="block" fill="url(#i)"/></g><path d="m.340347.356109h15.319307v15.287782h-15.319307z" fill="none" opacity="0" stroke="#bebebe" stroke-linecap="round" stroke-width=".680694"/></svg>