<svg height="16" viewBox="0 0 16 15.999999" width="16" xmlns="http://www.w3.org/2000/svg"><path d="m0 0h16v16h-16z" fill="none"/><g transform="matrix(.99995479 0 0 1.000002 .000013 -.000016)"><path d="m53.654979 17.835941c-5.046255 0-9.105893 4.059639-9.105893 9.105892v44.515095c0 5.046256 4.059638 9.105893 9.105893 9.105893h61.598841c5.04626 0 9.10589-4.059637 9.10589-9.105893v-44.515095c0-5.046253-4.05963-9.105892-9.10589-9.105892z" fill="#eeeeec" stroke="#396db1" stroke-width="5.676993" transform="matrix(.18716977878 0 0 .17542214183 -7.80720873066 -.63066074378)"/><g stroke-linecap="round" stroke-linejoin="round"><g stroke-width=".308849" transform="matrix(.83384351274 0 0 1.04976738917 .38342146529 -2.89805708458)"><path d="m7.6775054 14.989937h-3.2822408c-.9299683 0-1.8506764-.339668-2.1881602-1.307782-.3204812-.91934-.0547041-2.670055 2.0240482-4.0868194h3.883985c2.0787524 1.3077814 2.3385304 3.0962914 1.8599362 4.1413094-.487572 1.064621-1.3128961 1.253292-2.2975684 1.253292z" fill="#73d216" fill-rule="evenodd" stroke="#4e9a06"/><path d="m7.6267926 14.686845-3.2472247-.0068c-.8168692 0-1.6256044-.298359-1.9220449-1.148735-.2815056-.807534.029311-2.345334 1.8552548-3.5897965l3.5663564-.0749361c1.8259428 1.1487346 2.1793568 2.7197326 1.7521297 3.7125856-.4272278.992852-1.050657 1.100871-2.0044713 1.107682z" fill="none" opacity=".21519" stroke="#fff"/></g><ellipse cx="-6.091089" cy="8.015099" fill="#fcaf3e" fill-rule="evenodd" rx="2.680497" ry="2.670055" stroke="#c17d11" stroke-width=".308849" transform="matrix(-.88157460215 0 0 .88353747279 .1194827062 -.58583994395)"/><ellipse cx="-6.091083" cy="8.015102" fill="none" opacity=".196203" rx="2.35105" ry="2.341892" stroke="#fff" stroke-width=".30885" transform="matrix(-.88157460215 0 0 .88353747279 .1194827062 -.58583994395)"/></g><path d="m10 4h4v1h-4z"/><path d="m10 6h4v1h-4z"/><path d="m10 8h4v1h-4z"/></g></svg>