<svg height="16.000002" viewBox="0 0 16 16.000002" width="16" xmlns="http://www.w3.org/2000/svg" xmlns:xlink="http://www.w3.org/1999/xlink"><linearGradient id="a"><stop offset="0" stop-color="#fff" stop-opacity=".796078"/><stop offset="1" stop-color="#fff" stop-opacity=".215686"/></linearGradient><linearGradient id="b" gradientTransform="matrix(.39071119 0 0 .39074349 -1.191706 .362446)" gradientUnits="userSpaceOnUse" x1="18.112709" x2="15.514889" y1="31.36775" y2="6.18025"><stop offset="0" stop-color="#424242"/><stop offset="1" stop-color="#777"/></linearGradient><linearGradient id="c" gradientTransform="matrix(.39071119 0 0 .39074349 -1.191706 .362446)" gradientUnits="userSpaceOnUse" x1="22.175976" x2="22.065331" y1="36.987999" y2="32.050499"><stop offset="0" stop-color="#6194cb"/><stop offset="1" stop-color="#729fcf"/></linearGradient><linearGradient id="d" gradientTransform="matrix(.5147577 0 0 .31894671 -1.535365 -.15262)" gradientUnits="userSpaceOnUse" x1="13.035696" x2="12.853771" xlink:href="#a" y1="32.567184" y2="46.689312"/><linearGradient id="e" gradientTransform="matrix(1.1999998 0 0 1.2 -8.299991 -5.5)" gradientUnits="userSpaceOnUse" x1="33.5" x2="44.5" xlink:href="#a" y1="27.5" y2="27.5"/><radialGradient id="f" cx="23" cy="12.811336" fx="22.305519" fy="9.10744" gradientTransform="matrix(1 0 0 .75 8 12.75)" gradientUnits="userSpaceOnUse" r="4"><stop offset="0" stop-color="#fff"/><stop offset="1" stop-color="#555753"/></radialGradient><linearGradient id="g" gradientUnits="userSpaceOnUse" x1="29.849625" x2="35.907148" xlink:href="#a" y1="20.702785" y2="26.132356"/><path d="m.57500419 15.479302c.008516.162667.17968999.325336.34234485.325336h12.23981696c.162654 0 .316793-.162669.308278-.325336l-.365879-10.6386702c-.0085-.1626673-.179687-.3253385-.342342-.3253385h-5.185078c-.1895171 0-.4823225-.1233151-.547638-.4324094l-.2388773-1.1304491c-.0607434-.2874595-.3446909-.4055471-.5073455-.4055471h-5.77426558c-.16265806 0-.31679674.1626683-.30828084.3253365z" fill="#fff" stroke="url(#b)" stroke-linecap="round" stroke-linejoin="round" stroke-width=".390727"/><g transform="matrix(.32013591 0 0 .42174425 -7.943682 -6.928739)"><rect fill="#c17d11" height="2.179645" ry="1.089823" stroke="#8f5902" stroke-dashoffset="1.96" stroke-linecap="round" stroke-width="1.930128" transform="matrix(.8997453 .4364154 -.3756038 .9267803 0 0)" width="13.099022" x="40.698799" y="6.872793"/><g stroke-width="1.927989"><path d="m32.5 24.5 11.999997 6" fill="none" stroke="url(#e)" stroke-dashoffset="1.96" stroke-linecap="round"/><path d="m34.152603 25.518479c-1.009996 1.33264-2.634266 1.282064-4.284701.0075-1.629359-1.25824-2.367902-4.025979-2.367902-4.025979 1.713247 1.170566 3.49089.122618 5.01895.538741 2.014046.548469 2.357239 2.525002 1.633653 3.479738z" fill="url(#f)" fill-rule="evenodd" stroke="#2e3436"/><path d="m29.867902 25.526003c-1.629359-1.258264-2.367902-4.026003-2.367902-4.026003 1.713247 1.170566 2.97194.08388 4.5.500001-1.51895.96126-2 2-2.132098 3.526002z" fill="#3465a4" fill-rule="evenodd" stroke="#729fcf"/><path d="m29.086934 22.970488s2.241276-.331457 3.409265.126269c1.167989.457725.757615 2.020304.757615 2.020304" fill="none" stroke="url(#g)" stroke-dashoffset="1.96" stroke-linecap="round"/></g></g><g transform="matrix(.00323911 .32011952 .42172266 -.00426719 -3.75738 -8.208933)"><rect fill="#c17d11" height="2.179645" ry="1.089823" stroke="#8f5902" stroke-dashoffset="1.96" stroke-linecap="round" stroke-width="1.930128" transform="matrix(.8997453 .4364154 -.3756038 .9267803 0 0)" width="13.099022" x="40.698799" y="6.872793"/><g stroke-width="1.927989"><path d="m32.5 24.5 11.999997 6" fill="none" stroke="url(#e)" stroke-dashoffset="1.96" stroke-linecap="round"/><path d="m34.152603 25.518479c-1.009996 1.33264-2.634266 1.282064-4.284701.0075-1.629359-1.25824-2.367902-4.025979-2.367902-4.025979 1.713247 1.170566 3.49089.122618 5.01895.538741 2.014046.548469 2.357239 2.525002 1.633653 3.479738z" fill="url(#f)" fill-rule="evenodd" stroke="#2e3436"/><path d="m29.867902 25.526003c-1.629359-1.258264-2.367902-4.026003-2.367902-4.026003 1.713247 1.170566 2.97194.08388 4.5.500001-1.51895.96126-2 2-2.132098 3.526002z" fill="#3465a4" fill-rule="evenodd" stroke="#729fcf"/><path d="m29.086934 22.970488s2.241276-.331457 3.409265.126269c1.167989.457725.757615 2.020304.757615 2.020304" fill="none" stroke="url(#g)" stroke-dashoffset="1.96" stroke-linecap="round"/></g></g><g transform="matrix(-.00323911 .32011952 -.42172266 -.00426719 23.369747 -7.112666)"><rect fill="#c17d11" height="2.179645" ry="1.089823" stroke="#8f5902" stroke-dashoffset="1.96" stroke-linecap="round" stroke-width="1.930128" transform="matrix(.8997453 .4364154 -.3756038 .9267803 0 0)" width="13.099022" x="40.698799" y="6.872793"/><g stroke-width="1.927989"><path d="m32.5 24.5 11.999997 6" fill="none" stroke="url(#e)" stroke-dashoffset="1.96" stroke-linecap="round"/><path d="m34.152603 25.518479c-1.009996 1.33264-2.634266 1.282064-4.284701.0075-1.629359-1.25824-2.367902-4.025979-2.367902-4.025979 1.713247 1.170566 3.49089.122618 5.01895.538741 2.014046.548469 2.357239 2.525002 1.633653 3.479738z" fill="url(#f)" fill-rule="evenodd" stroke="#2e3436"/><path d="m29.867902 25.526003c-1.629359-1.258264-2.367902-4.026003-2.367902-4.026003 1.713247 1.170566 2.97194.08388 4.5.500001-1.51895.96126-2 2-2.132098 3.526002z" fill="#3465a4" fill-rule="evenodd" stroke="#729fcf"/><path d="m29.086934 22.970488s2.241276-.331457 3.409265.126269c1.167989.457725.757615 2.020304.757615 2.020304" fill="none" stroke="url(#g)" stroke-dashoffset="1.96" stroke-linecap="round"/></g></g><g stroke-width=".390727"><path d="m14.352164 15.800963c.446933-.01722.766997-.428372.799799-.906919.309361-4.512573.648332-8.2962449.648332-8.2962449.02819-.096698-.0656-.1934048-.187596-.1934048h-13.4291956s-.7229403 8.5443447-.7229403 8.5443447c-.044758.383737-.1820744.705182-.60553816.853272l13.49713906-.0011z" display="block" fill="url(#c)" stroke="#3465a4" stroke-linejoin="round"/><path d="m2.567031 6.7956152 12.811849.025322-.614998 7.8156418c-.03294.418687-.176084.558067-.731667.558067-.731217 0-11.2048029-.01266-12.2662768-.01266.091269-.125354.130402-.386299.1309259-.392546z" fill="none" opacity=".465909" stroke="url(#d)" stroke-linecap="round"/></g></svg>