<svg height="16" viewBox="0 0 16 16" width="16" xmlns="http://www.w3.org/2000/svg" xmlns:xlink="http://www.w3.org/1999/xlink"><filter id="a" color-interpolation-filters="sRGB" height="1.170586" width="1.165455" x="-.082727" y="-.085293"><feGaussianBlur stdDeviation=".4521411"/></filter><g transform="matrix(-1 0 0 1 16 -1036.3622)"><path d="m.470765 1036.833h15.05847v15.05847h-15.05847z" fill="#eeeeec" stroke="#bebebe" stroke-linecap="square" stroke-linejoin="round" stroke-width=".94153"/><path d="m7.4174604 1044.8324c.2214148.3091-.3073662.4509-.5136752.368-.5590849-.2247-.529563-.9835-.2223367-1.3954.5495558-.7366 1.6466643-.6522 2.2770378-.077.9250984.8447.7803199 2.3194-.069002 3.1587-1.1320125 1.1187-2.9955662.9107-4.0404001-.2147-1.3148169-1.4161-1.0423312-3.6734.3603406-4.9221 1.6988236-1.5122 4.3522643-1.1746 5.8037623.5061 1.710541 1.9806 1.30748 5.0316-.651679 6.6854-2.2619261 1.9093-5.7114943 1.4406-7.5671251-.7973-2.10848556-2.5429-1.5738978-6.3916.943018-8.4489 2.8235992-2.3078 7.0718781-1.7073 9.3304871 1.0887 2.507485 3.1042 1.84095 7.7524-1.234356 10.2122" fill="none" filter="url(#a)" stroke="#204a87" transform="matrix(.91574797 0 0 .93962469 .628494 62.797129)"/></g></svg>