<svg height="16" viewBox="0 0 16 16" width="16" xmlns="http://www.w3.org/2000/svg"><ellipse cx="8.012669" cy="8.145954" fill="none" rx="7.510863" ry="5.388409" stroke="#000" stroke-width=".953693"/><path d="m.207753.207753h15.584494v15.584494h-15.584494z" fill="#ef2929" opacity="0" transform="matrix(1.0250358 0 0 1.0266615 -.187618 -.213292)"/><path d="m7.37242 2.19732h.997569v1h-.997569z" fill="#fff" transform="matrix(.99995103 .00989679 -.00986547 .99995134 0 0)"/><path d="m15.001584 7.577278h.997569v1h-.997569z" fill="#fff"/><path d="m0 7.5519h1.022905v1h-1.022905z" fill="#fff"/><path d="m7.504614 13.03h.997569v1h-.997569z" fill="#fff"/><ellipse cx="8" cy="8.05" fill="#d3d7cf" rx="6.401933" ry="4.151933" stroke="#fff" stroke-width=".196134"/><g fill="#fff"><path d="m-1.769047 4.518262h.998249v.99932h-.998249z" transform="matrix(.75458118 -.65620671 .65502191 .75560988 0 0)"/><path d="m1.544301 4.501601h.997879v.99969h-.997879z" transform="matrix(.89640984 -.44322612 .44209803 .89696674 0 0)"/><path d="m-5.384244 3.376116h.998784v.998784h-.998784z" transform="matrix(.48099244 -.87672474 .87608053 .48216481 0 0)"/><path d="m4.557236 3.687281h.997642v.999927h-.997642z" transform="matrix(.97667489 -.21472345 .21407515 .97681719 0 0)"/><path d="m8.890987-7.779013h.998248v.999321h-.998248z" transform="matrix(.75521122 .65548152 .65429606 -.7562385 0 0)"/><path d="m8.739436-10.112645h.997878v.999691h-.997878z" transform="matrix(.89683553 .44236414 .44123717 -.89739053 0 0)"/><path d="m8.876068-4.465899h.998783v.998785h-.998783z" transform="matrix(.48183354 .87626277 .87561664 -.48300672 0 0)"/><path d="m8.04071-12.257361h.997641v.999928h-.997641z" transform="matrix(.97688096 .21378397 .21313823 -.97702205 0 0)"/><path d="m-13.85721-5.620343h.998206v.999362h-.998206z" transform="matrix(-.77227955 -.63528285 -.63408155 .77326618 0 0)"/><path d="m-12.705702-2.260325h.997845v.999724h-.997845z" transform="matrix(-.90822715 -.41847753 -.41738426 .90873009 0 0)"/><path d="m-13.216628-10.317158h.998747v.998821h-.998747z" transform="matrix(-.50481083 -.86323 -.8625314 .50600354 0 0)"/><path d="m-10.889055.522796h.997625v.999944h-.997625z" transform="matrix(-.98219824 -.18784733 -.18727377 .98230776 0 0)"/><path d="m-3.27055-18.248526h.998235v.999334h-.998235z" transform="matrix(-.76035772 .64950454 -.64831386 -.76137319 0 0)"/><path d="m-5.682477-17.139517h.997868v.999701h-.997868z" transform="matrix(-.90029929 .4352714 -.43415395 -.90083869 0 0)"/><path d="m1.046053-18.517136h.998772v.998796h-.998772z" transform="matrix(-.48872264 .87243922 -.8717774 -.48990219 0 0)"/><path d="m-7.641173-15.613025h.997636v.999933h-.997636z" transform="matrix(-.97853872 .20606304 -.20543852 -.97867002 0 0)"/></g></svg>