<?xml version="1.0" encoding="UTF-8" standalone="no"?>
<!-- Created with Inkscape (http://www.inkscape.org/) -->

<svg
   xmlns:dc="http://purl.org/dc/elements/1.1/"
   xmlns:cc="http://creativecommons.org/ns#"
   xmlns:rdf="http://www.w3.org/1999/02/22-rdf-syntax-ns#"
   xmlns:svg="http://www.w3.org/2000/svg"
   xmlns="http://www.w3.org/2000/svg"
   xmlns:sodipodi="http://sodipodi.sourceforge.net/DTD/sodipodi-0.dtd"
   xmlns:inkscape="http://www.inkscape.org/namespaces/inkscape"
   inkscape:export-ydpi="90.000000"
   inkscape:export-xdpi="90.000000"
   inkscape:export-filename="../24/gimp-text-dir-ttb-rtl-upright.png"
   width="24"
   height="24"
   id="svg11300"
   sodipodi:version="0.32"
   inkscape:version="0.92.3 (2405546, 2018-03-11)"
   sodipodi:docname="gimp-text-dir-ttb-rtl-upright.svg"
   version="1.0"
   viewBox="0 0 24 24">
  <sodipodi:namedview
     inkscape:cy="19.180643"
     inkscape:cx="-9.3218635"
     inkscape:zoom="4.8449868"
     inkscape:window-height="713"
     inkscape:window-width="1024"
     inkscape:pageshadow="2"
     inkscape:pageopacity="0.0"
     borderopacity="0.17254902"
     bordercolor="#666"
     pagecolor="#ffffff"
     id="base"
     inkscape:showpageshadow="false"
     showborder="true"
     inkscape:window-x="0"
     inkscape:window-y="0"
     inkscape:current-layer="layer1"
     width="16px"
     height="16px"
     showgrid="true"
     inkscape:window-maximized="1"
     inkscape:document-units="px"
     showguides="true"
     inkscape:guide-bbox="true">
    <inkscape:grid
       type="xygrid"
       id="grid4444" />
  </sodipodi:namedview>
  <defs
     id="defs3" />
  <sodipodi:namedview
     stroke="#ef2929"
     fill="#eeeeec"
     pagecolor="#ffffff"
     bordercolor="#666666"
     borderopacity="0.25490196"
     inkscape:pageopacity="0.0"
     inkscape:pageshadow="2"
     inkscape:zoom="1"
     inkscape:cx="-14.198652"
     inkscape:cy="-5.1663457"
     inkscape:current-layer="layer1"
     showgrid="false"
     inkscape:grid-bbox="true"
     inkscape:document-units="px"
     inkscape:showpageshadow="false"
     inkscape:window-width="872"
     inkscape:window-height="659"
     inkscape:window-x="403"
     inkscape:window-y="296"
     width="32px"
     height="32px"
     id="namedview73" />
  <metadata
     id="metadata4">
    <rdf:RDF>
      <cc:Work
         rdf:about="">
        <dc:format>image/svg+xml</dc:format>
        <dc:type
           rdf:resource="http://purl.org/dc/dcmitype/StillImage" />
        <dc:creator>
          <cc:Agent>
            <dc:title>Jakub Steiner</dc:title>
          </cc:Agent>
        </dc:creator>
        <dc:source>http://jimmac.musichall.cz</dc:source>
        <cc:license
           rdf:resource="http://creativecommons.org/licenses/by-sa/2.0/" />
        <dc:title />
      </cc:Work>
      <cc:License
         rdf:about="http://creativecommons.org/licenses/by-sa/2.0/">
        <cc:permits
           rdf:resource="http://web.resource.org/cc/Reproduction" />
        <cc:permits
           rdf:resource="http://web.resource.org/cc/Distribution" />
        <cc:requires
           rdf:resource="http://web.resource.org/cc/Notice" />
        <cc:requires
           rdf:resource="http://web.resource.org/cc/Attribution" />
        <cc:permits
           rdf:resource="http://web.resource.org/cc/DerivativeWorks" />
        <cc:requires
           rdf:resource="http://web.resource.org/cc/ShareAlike" />
      </cc:License>
    </rdf:RDF>
  </metadata>
  <g
     id="layer1"
     inkscape:label="Layer 1"
     inkscape:groupmode="layer"
     transform="translate(0,8)">
    <g
       style="display:inline"
       id="gimp-text-dir-ttb-rtl-upright"
       inkscape:label="#gimp-text-dir-rtl-upright-24"
       inkscape:export-xdpi="90"
       inkscape:export-ydpi="90"
       inkscape:export-filename="../24/gimp-text-dir-ttb-rtl-upright.png">
      <rect
         ry="2.1219141"
         rx="0.41507211"
         y="-8"
         x="0"
         height="24"
         width="24"
         id="rect4013-8-5-6-7"
         style="color:#000000;clip-rule:nonzero;display:inline;overflow:visible;visibility:visible;opacity:0;isolation:auto;mix-blend-mode:normal;color-interpolation:sRGB;color-interpolation-filters:linearRGB;solid-color:#000000;solid-opacity:1;fill:#ffffff;fill-opacity:1;fill-rule:nonzero;stroke:none;stroke-width:0.75;stroke-linecap:round;stroke-linejoin:round;stroke-miterlimit:4;stroke-dasharray:none;stroke-dashoffset:0;stroke-opacity:1;color-rendering:auto;image-rendering:auto;shape-rendering:auto;text-rendering:auto;enable-background:accumulate" />
      <path
         sodipodi:nodetypes="cccccccc"
         inkscape:connector-curvature="0"
         id="path1105-4"
         d="M 3.1406495,-5.867637 V 8.825596 h -1.520807 l 2.613754,5.306763 2.617991,-5.306763 H 5.3095985 V -5.867637 Z"
         style="color:#000000;font-style:normal;font-variant:normal;font-weight:normal;font-stretch:normal;font-size:medium;line-height:normal;font-family:sans-serif;font-variant-ligatures:normal;font-variant-position:normal;font-variant-caps:normal;font-variant-numeric:normal;font-variant-alternates:normal;font-feature-settings:normal;text-indent:0;text-align:start;text-decoration:none;text-decoration-line:none;text-decoration-style:solid;text-decoration-color:#000000;letter-spacing:normal;word-spacing:normal;text-transform:none;writing-mode:lr-tb;direction:ltr;text-orientation:mixed;dominant-baseline:auto;baseline-shift:baseline;text-anchor:start;white-space:normal;shape-padding:0;clip-rule:nonzero;display:inline;overflow:visible;visibility:visible;opacity:1;isolation:auto;mix-blend-mode:normal;color-interpolation:sRGB;color-interpolation-filters:linearRGB;solid-color:#000000;solid-opacity:1;vector-effect:none;fill:#000000;fill-opacity:1;fill-rule:nonzero;stroke:none;stroke-width:1.87403953px;stroke-linecap:butt;stroke-linejoin:miter;stroke-miterlimit:4;stroke-dasharray:none;stroke-dashoffset:0;stroke-opacity:1;color-rendering:auto;image-rendering:auto;shape-rendering:auto;text-rendering:auto;enable-background:accumulate" />
      <g
         aria-label="あいうえ "
         style="font-style:normal;font-weight:normal;font-size:6.5772357px;line-height:1.25;font-family:sans-serif;letter-spacing:0px;word-spacing:0px;writing-mode:tb-rl;fill:#000000;fill-opacity:1;stroke:none;stroke-width:0.16443089"
         id="text92">
        <path
           inkscape:connector-curvature="0"
           d="m 21.172638,-5.0444666 c 0.03946,-0.092081 0.09208,-0.2630894 0.131545,-0.3485935 l -0.513024,-0.1249675 c -0.01316,0.1052358 -0.03946,0.2630894 -0.06577,0.361748 l -0.01973,0.059195 c -0.07235,-0.00658 -0.151276,-0.00658 -0.230203,-0.00658 -0.315707,0 -0.710341,0.059195 -1.065512,0.1644309 0.01973,-0.2696667 0.03946,-0.5327561 0.06577,-0.7826911 0.776114,-0.039463 1.624578,-0.1183902 2.288878,-0.2302032 l -0.0066,-0.4801383 c -0.651146,0.1446992 -1.420683,0.2367805 -2.229683,0.2696667 0.02631,-0.1841626 0.05919,-0.3485935 0.0855,-0.4867154 0.01316,-0.078927 0.03946,-0.1973171 0.07235,-0.2762439 l -0.545911,-0.013154 c 0,0.07235 -0.0066,0.1973171 -0.01315,0.2959756 l -0.05262,0.4932927 c -0.138122,0.00658 -0.282821,0.00658 -0.420943,0.00658 -0.276244,0 -0.828732,-0.046041 -1.058935,-0.078927 l 0.01973,0.4867154 c 0.263089,0.013154 0.749805,0.032886 1.032626,0.032886 0.11839,0 0.249935,0 0.381479,-0.00658 -0.03289,0.2959756 -0.0592,0.6182601 -0.07235,0.9405447 -0.874773,0.3946341 -1.591691,1.2430975 -1.591691,2.0586748 0,0.5393333 0.335439,0.7958455 0.762959,0.7958455 0.342016,0 0.723496,-0.138122 1.07209,-0.3420163 0.03289,0.1249675 0.06577,0.2433577 0.09866,0.3485935 l 0.473561,-0.1381219 c -0.05262,-0.1578537 -0.105236,-0.3354391 -0.151276,-0.5130244 0.532756,-0.4538293 1.04578,-1.1575935 1.400951,-2.0586748 0.591951,0.1644309 0.914236,0.5985284 0.914236,1.0852439 0,0.8155772 -0.703765,1.4075284 -1.854781,1.5324959 l 0.276244,0.4340976 c 1.479878,-0.2367805 2.078406,-1.0392033 2.078406,-1.9468618 0,-0.7037642 -0.480138,-1.2891382 -1.269406,-1.506187 z m -2.23626,0.8681951 c 0,0.473561 0.05919,0.9865853 0.151277,1.4404146 -0.315708,0.2170488 -0.624838,0.3288618 -0.868196,0.3288618 -0.243357,0 -0.368325,-0.1249675 -0.368325,-0.3814797 0,-0.5130244 0.466984,-1.1378618 1.085244,-1.4930325 z m 1.631155,-0.5130244 c -0.269667,0.7037642 -0.64457,1.2102114 -1.065513,1.6114228 -0.07235,-0.3683252 -0.111813,-0.7563822 -0.111813,-1.1575935 v -0.249935 c 0.295976,-0.111813 0.670878,-0.2038943 1.078667,-0.2038943 z"
           style="line-height:0;letter-spacing:-1.13999999px;stroke-width:0.16443089"
           id="path149" />
        <path
           inkscape:connector-curvature="0"
           d="m 18.101069,-0.88979127 -0.61826,-0.0131545 c 0.02631,0.15127642 0.03289,0.41436585 0.03289,0.56564227 0,0.37490243 0.0066,1.14443901 0.07235,1.6969268 0.177585,1.644309 0.756382,2.2494146 1.348333,2.2494146 0.447252,0 0.828732,-0.3683252 1.216789,-1.453569 l -0.41437,-0.4538293 c -0.157854,0.6379919 -0.453829,1.2891382 -0.789268,1.2891382 -0.447252,0 -0.749805,-0.697187 -0.855041,-1.7626992 -0.04604,-0.5196016 -0.05262,-1.10497557 -0.04604,-1.49960972 0,-0.17100812 0.02631,-0.46040649 0.05262,-0.61826015 z m 3.314927,0.17100813 -0.506447,0.17758536 c 0.605105,0.74322763 0.993162,1.99947968 1.098398,3.15049588 l 0.526179,-0.2038943 c -0.09208,-1.0786666 -0.545911,-2.38095931 -1.11813,-3.12418694 z"
           style="line-height:0;letter-spacing:-1.13999999px;stroke-width:0.16443089"
           id="path151" />
        <path
           inkscape:connector-curvature="0"
           d="m 21.244988,6.8626315 c 0,1.1378618 -1.07209,1.7495447 -2.61774,1.9402846 l 0.289398,0.4932926 c 1.650887,-0.2499349 2.88083,-1.032626 2.88083,-2.4138455 0,-0.9076585 -0.670878,-1.4141056 -1.578537,-1.4141056 -0.723496,0 -1.453569,0.2038943 -1.907398,0.30913 -0.177586,0.039464 -0.401212,0.078927 -0.578797,0.092081 l 0.157854,0.5919512 c 0.164431,-0.052618 0.348593,-0.1315447 0.539333,-0.1841626 0.38148,-0.111813 1.006317,-0.3222845 1.729813,-0.3222845 0.664301,0 1.085244,0.3749024 1.085244,0.9076588 z M 18.581207,4.001534 18.502281,4.4882494 c 0.716918,0.1249675 2.006056,0.2565122 2.709821,0.3025529 l 0.07893,-0.4998699 c -0.624841,-0.00658 -2.00606,-0.138122 -2.709825,-0.2893984 z"
           style="line-height:0;letter-spacing:-1.13999999px;stroke-width:0.16443089"
           id="path153" />
        <path
           inkscape:connector-curvature="0"
           d="m 18.666711,9.3993055 -0.0855,0.4735609 c 0.776114,0.1446996 1.887667,0.2893986 2.525659,0.3420166 L 21.17264,9.7347445 C 20.567533,9.6952811 19.350744,9.5440046 18.666711,9.3993055 Z m 2.637472,1.8218945 -0.30913,-0.348594 c -0.05919,0.02631 -0.19074,0.05262 -0.295976,0.06577 -0.486715,0.06577 -1.966593,0.164431 -2.334918,0.171008 -0.197317,0.0066 -0.388057,0 -0.532757,-0.01315 l 0.04604,0.565643 c 0.138122,-0.01973 0.302553,-0.03946 0.506447,-0.0592 0.388057,-0.03289 1.460147,-0.124967 1.960017,-0.157853 -0.624838,0.631414 -2.367805,2.361227 -2.624318,2.624317 -0.11839,0.11839 -0.230203,0.210471 -0.315707,0.276244 l 0.493293,0.342016 c 0.368325,-0.460407 1.052358,-1.183902 1.295715,-1.407528 0.144699,-0.138122 0.295976,-0.230204 0.460407,-0.230204 0.177585,0 0.315707,0.111813 0.388057,0.328862 0.0592,0.184163 0.151276,0.559065 0.217048,0.749805 0.138122,0.420943 0.460407,0.539333 0.973431,0.539333 0.335439,0 0.927391,-0.04604 1.19048,-0.09866 l 0.03289,-0.539334 c -0.295975,0.07893 -0.789268,0.131545 -1.203634,0.131545 -0.322284,0 -0.473561,-0.09866 -0.545911,-0.342016 -0.07235,-0.203894 -0.151276,-0.526179 -0.217048,-0.716919 -0.0855,-0.249935 -0.230204,-0.42752 -0.486716,-0.453829 -0.05262,-0.01315 -0.171008,-0.02631 -0.230203,-0.01315 0.230203,-0.249935 0.940545,-0.907658 1.183902,-1.131284 0.07235,-0.06577 0.230204,-0.197317 0.348594,-0.282821 z"
           style="line-height:0;letter-spacing:-1.13999999px;stroke-width:0.16443089"
           id="path155" />
      </g>
      <g
         aria-label="ＡＢＣＤ "
         style="font-style:normal;font-weight:normal;font-size:6.5772357px;line-height:1.25;font-family:sans-serif;letter-spacing:0px;word-spacing:0px;writing-mode:tb-rl;fill:#000000;fill-opacity:1;stroke:none;stroke-width:0.16443089"
         id="text92-9">
        <path
           inkscape:connector-curvature="0"
           d="m 13.241123,-1.9856701 h 0.664301 l -1.861358,-4.8342682 h -0.743228 l -1.8416256,4.8342682 h 0.6379916 l 0.545911,-1.4733008 h 2.052097 z m -2.453309,-1.9468618 0.289398,-0.7695365 c 0.197317,-0.5393334 0.394635,-1.0655122 0.578797,-1.6245773 h 0.02631 c 0.197317,0.5524878 0.388057,1.0786667 0.585374,1.6245773 l 0.289398,0.7695365 z"
           style="line-height:0;letter-spacing:-1.13999999px;stroke-width:0.16443089"
           id="path158" />
        <path
           inkscape:connector-curvature="0"
           d="m 10.005123,3.4515662 h 1.775854 c 1.341756,0 2.006056,-0.4275203 2.006056,-1.4141057 0,-0.6379918 -0.407788,-1.0392032 -1.078666,-1.1510162 V 0.8535581 c 0.526179,-0.15785366 0.776114,-0.57221951 0.776114,-1.04578048 0,-0.85504062 -0.677456,-1.19047962 -1.841626,-1.19047962 h -1.637732 z m 0.605106,-2.77559345 v -1.57853656 h 0.986585 c 0.868195,0 1.275984,0.21047154 1.275984,0.78926828 0,0.54591056 -0.407789,0.78926828 -1.328602,0.78926828 z m 0,2.28887805 V 1.1495337 h 1.078666 c 1.045781,0 1.493033,0.2696667 1.493033,0.8681951 0,0.7103415 -0.473561,0.947122 -1.473301,0.947122 z"
           style="line-height:0;letter-spacing:-1.13999999px;stroke-width:0.16443089"
           id="path160" />
        <path
           inkscape:connector-curvature="0"
           d="M 13.833074,8.2771191 13.491058,7.882485 c -0.361748,0.3420162 -0.789268,0.5459106 -1.322024,0.5459106 -1.07209,0 -1.775854,-0.7629594 -1.775854,-1.9665935 0,-1.1904797 0.703764,-1.953439 1.789008,-1.953439 0.466984,0 0.874772,0.1907398 1.164171,0.4604065 L 13.694952,4.5741354 C 13.36609,4.2584281 12.846489,3.975607 12.175611,3.975607 c -1.42726,0 -2.4072685,0.9668536 -2.4072685,2.5059268 0,1.5456504 0.9931625,2.4861951 2.3743825,2.4861951 0.723495,0 1.243097,-0.2433577 1.690349,-0.6906098 z"
           style="line-height:0;letter-spacing:-1.13999999px;stroke-width:0.16443089"
           id="path162" />
        <path
           inkscape:connector-curvature="0"
           d="m 9.89331,14.326037 h 1.368065 c 1.670618,0 2.558545,-0.907659 2.558545,-2.440155 0,-1.525918 -0.887927,-2.3941133 -2.591431,-2.3941133 H 9.89331 Z M 10.485261,13.81959 V 9.9982158 h 0.703764 c 1.322025,0 2.006057,0.6511462 2.006057,1.8876662 0,1.243098 -0.684032,1.933708 -2.006057,1.933708 z"
           style="line-height:0;letter-spacing:-1.13999999px;stroke-width:0.16443089"
           id="path164" />
      </g>
    </g>
  </g>
</svg>
