<svg height="16" viewBox="0 0 16 16" width="16" xmlns="http://www.w3.org/2000/svg" xmlns:xlink="http://www.w3.org/1999/xlink"><linearGradient id="a" gradientTransform="matrix(.3410129 0 0 .39513284 572.96639 416.15408)" gradientUnits="userSpaceOnUse" x1="83.031731" x2="66.311295" y1="40.924026" y2="22.765684"><stop offset="0" stop-color="#d0d0d0"/><stop offset="1" stop-color="#ececec"/></linearGradient><linearGradient id="b" gradientUnits="userSpaceOnUse" x1="6" x2="12" y1="3" y2="5"><stop offset="0"/><stop offset="1" stop-opacity="0"/></linearGradient><g fill-rule="evenodd"><path d="m7.030004 10.423256h11.827098v9.118933h-11.827098z" style="stroke:#9b9c98;stroke-width:1.003793;stroke-linecap:round;stroke-linejoin:round;stroke-miterlimit:10;fill:url(#a)" transform="matrix(1.0047718 0 -.33483948896 .98787664855 .011576 -3.801083)"/><path d="m8.176715 11.496682h9.632398v5.792974h-9.632398z" fill="#d3d7cf" stroke="#fff" stroke-miterlimit="10" stroke-width="1.06549" transform="matrix(1.0047718 0 -.33355909821 .98834755758 .011576 -3.801083)"/><path d="m10 0v2.7064896h-.2627705c-.1557248-.6243774-.328473-1.0717711-.5182426-1.3421828-.1897893-.2753105-.4501254-.4940911-.7810151-.6563422-.1849194-.088486-.3481992-.1327338-.8104732-.1327432h-.7372177v7.7138641c-.0000069.5113081.026753.8308755.08029.9587015.058383.127828.1678753.240905.3284641.339234.1654409.09341.3892829.140118.671525.140117h.3284632v.272862h-5.7355669v-.272862h.3284641c.2870983.000001.5182387-.05163.6934233-.154867.1265154-.06883.2262715-.186823.2992655-.353982.053526-.117993.08029-.4277281.08029-.9292035v-7.7138641h-.7701152c-.6666611.0000094-.8128093.1425854-1.1145063.4277286-.4233544.3982387-.6909918.9660846-.8029113 1.7035396h-.2773664v-2.7064896h9" fill="url(#b)"/></g></svg>