<svg height="16" viewBox="0 0 16 16" width="16" xmlns="http://www.w3.org/2000/svg" xmlns:xlink="http://www.w3.org/1999/xlink"><linearGradient id="a"><stop offset="0" stop-color="#888a85"/><stop offset="1" stop-color="#4a4b48"/></linearGradient><radialGradient id="b" cx="3.914371" cy="18.349249" gradientTransform="matrix(1.0814894 -.30866998 .21584119 .86673292 -6.463737 -13.373555)" gradientUnits="userSpaceOnUse" r="19.769346"><stop offset="0" stop-color="#fff"/><stop offset="1" stop-color="#d3d7cf"/></radialGradient><linearGradient id="c" gradientTransform="matrix(.72621405 0 0 .77354276 -220.03122 -137.14944)" gradientUnits="userSpaceOnUse" x2="0" y1="200.12854" y2="182.86234"><stop offset="0" stop-color="#2e3436"/><stop offset="1" stop-color="#babdb6"/></linearGradient><radialGradient id="d" cx="308.95609" cy="184.99548" gradientTransform="matrix(1.4782196 0 0 1.1809184 -452.61391 -213.21339)" gradientUnits="userSpaceOnUse" r="8"><stop offset="0" stop-color="#fff"/><stop offset="1" stop-color="#eeeeec"/></radialGradient><linearGradient id="e" gradientTransform="matrix(.72729105 0 0 .77468995 -220.36919 -137.38861)" gradientUnits="userSpaceOnUse" x2="0" y1="205.79558" y2="183.75737"><stop offset="0" stop-color="#888a85"/><stop offset="1" stop-color="#d3d7cf"/></linearGradient><linearGradient id="f" gradientTransform="matrix(.4305409 -.5319753 .4931292 .4644567 18.912037 27.929845)" gradientUnits="userSpaceOnUse" x2="0" y1="4.264856" y2="8"><stop offset="0" stop-color="#eeeeec"/><stop offset="1" stop-color="#888a85"/></linearGradient><linearGradient id="g" gradientTransform="matrix(.4305409 -.5319753 .4931292 .4644567 17.523312 29.3483)" gradientUnits="userSpaceOnUse" x2="0" xlink:href="#a" y1="4" y2="8"/><linearGradient id="h" gradientTransform="matrix(.4305409 -.5319753 .4931292 .4644567 18.912037 27.929845)" gradientUnits="userSpaceOnUse" x2="0" y1="3.5" y2="8.5"><stop offset="0" stop-color="#eeeeec"/><stop offset=".797101" stop-color="#abaca9"/><stop offset="1" stop-color="#d3d7cf"/></linearGradient><linearGradient id="i" gradientTransform="matrix(.4305409 -.5319753 .4931292 .4644567 18.912037 27.929845)" gradientUnits="userSpaceOnUse" x2="0" xlink:href="#a" y1="3" y2="9"/><radialGradient id="j" cx="31.33209" cy="19.15423" gradientTransform="matrix(9.0783702 -4.3797969 .7439951 1.45288 -269.26407 125.68742)" gradientUnits="userSpaceOnUse" r="4.744077"><stop offset="0" stop-color="#fff"/><stop offset="1" stop-color="#babdb6"/></radialGradient><linearGradient id="k" gradientUnits="userSpaceOnUse" x1="36.551838" x2="33.716503" y1="16.344336" y2="13.448302"><stop offset="0" stop-color="#2e3436"/><stop offset="1" stop-color="#a8b2b5"/></linearGradient><radialGradient id="l" cx="108.33212" cy="180.69263" gradientTransform="matrix(-.99948214 -.03217851 -.03137545 .97453876 289.54885 64.917204)" gradientUnits="userSpaceOnUse" r="31.872307"><stop offset="0" stop-color="#627272"/><stop offset="1" stop-color="#1d2222"/></radialGradient><radialGradient id="m" cx="117.07812" cy="127.93034" gradientTransform="matrix(2.3200237 0 0 1.367598 -159.2449 -59.833684)" gradientUnits="userSpaceOnUse" r="60.605659"><stop offset="0" stop-color="#f2f2f2"/><stop offset="1" stop-color="#c1c1c1"/></radialGradient><radialGradient id="n" cx="144.72844" cy="128.39641" gradientTransform="matrix(2.2984305 -.01450056 0 1.7677438 -194.49763 -107.77725)" gradientUnits="userSpaceOnUse" r="12.858741"><stop offset="0" stop-color="#212324"/><stop offset="1" stop-color="#090909"/></radialGradient><linearGradient id="o" gradientTransform="matrix(.09136755 0 0 1.0558735 127.00612 13.286334)" gradientUnits="userSpaceOnUse" x2="0" y1="107.60029" y2="85.600197"><stop offset="0" stop-color="#999ea0"/><stop offset=".329546" stop-color="#6b7373"/><stop offset="1" stop-color="#d8dadb"/></linearGradient><radialGradient id="p" cx="140.20729" cy="113.21911" gradientTransform="matrix(.62594091 -.18750002 .00372387 1.8146403 52.043471 -68.128645)" gradientUnits="userSpaceOnUse" r="10.37434"><stop offset="0" stop-color="#91968b"/><stop offset="1" stop-color="#63685e"/></radialGradient><radialGradient id="q" cx="-155.73729" cy="245.7663" gradientTransform="matrix(1.538654 .23515348 -.06093814 .5957692 374.86505 136.96847)" gradientUnits="userSpaceOnUse" r="21.262709"><stop offset="0" stop-color="#f2f2f2"/><stop offset="1" stop-color="#f2f2f2" stop-opacity="0"/></radialGradient><filter id="r" color-interpolation-filters="sRGB" height="1.813766" width="1.488592" x="-.244296" y="-.406883"><feGaussianBlur stdDeviation="4.3286586"/></filter><filter id="s" color-interpolation-filters="sRGB" height="1.215288" width="1.14727" x="-.073635" y="-.107644"><feGaussianBlur stdDeviation=".98673461"/></filter><linearGradient id="t" gradientTransform="matrix(4.6990176 0 0 4.6990176 -1365.4516 -175.10816)" gradientUnits="userSpaceOnUse" x2="0" y1="52.686745" y2="95.09375"><stop offset="0" stop-color="#8c8c8c"/><stop offset="1" stop-color="#282828"/></linearGradient><g><g stroke-linecap="round" stroke-linejoin="round"><rect fill="url(#b)" height="13.150227" rx="1.089321" ry="1.160314" stroke="url(#c)" stroke-width=".749505" width="15.250495" x=".374752" y="2.475021"/><rect fill="url(#d)" height="8.521589" rx=".77924" ry=".751905" stroke="url(#e)" stroke-width=".750616" width="10.909366" x="2.545517" y="3.992306"/><rect fill="none" height="11.620349" rx=".363646" ry=".387345" stroke="#fff" stroke-width=".750616" width="13.81853" x="1.090935" y="3.217616"/></g><g enable-background="new" transform="matrix(.52371146 0 0 .54615071 -5.992018 -1.91135)"><path d="m38.681414 8.0373428.440097-.543783c.235873-.2914437.643258-.3212227.913419-.066769l.504075.4747656c.270161.2544535.297766.6939299.06189.9853738l-.440097.543783c-.235873.2914438-.643258.3212227-.91342.066769l-.50407-.4747656c-.270162-.2544535-.297767-.69393-.06189-.9853738z" fill="#888a85"/><path d="m22.270059 29.686394 1.628281-3.62255 1.972516 1.857827-3.107668 2.229178z" fill="url(#f)"/><path d="m38.681414 8.0373428.440097-.543783c.235873-.2914437.643258-.3212227.913419-.066769l.504075.4747656c.270161.2544535.297766.6939299.06189.9853738l-.440097.543783c-.235873.2914438-.643258.3212227-.91342.066769l-.50407-.4747656c-.270162-.2544535-.297767-.69393-.06189-.9853738z" fill="url(#g)" stroke="#babdb6" stroke-linecap="round" stroke-linejoin="round" stroke-width="1.403511"/><path d="m33.436616 19.110318 7.54792-9.3261926c.589682-.7286088.825191-1.5371999.523538-1.8213137l-1.386927-1.3062845c-.301653-.2841136-1.012575.0767054-1.602257.8053147l-7.54792 9.3261921z" fill="url(#h)"/><path d="m33.436616 19.110318 6.159195-7.907738c.589682-.728609.520181-1.2757929.218528-1.5599067l-1.386926-1.3062845c-.301653-.2841136-.707566-.1847017-1.297248.5439076l-6.159195 7.9077376z" fill="none" stroke="#fff" stroke-linecap="round" stroke-linejoin="round" stroke-width="1.403511"/><path d="m22.516623 29.918622 1.381717-3.854778 1.972516 1.857827z" fill="none" stroke="#fff" stroke-linecap="round" stroke-linejoin="round" stroke-width="1.403511"/><path d="m23.683069 26.329831 1.972517 1.857827.677105-.299747 6.704678-7.747401.399247-1.030192-2.465646-2.322284-.892376.565735-6.211549 8.211859z" fill="url(#i)"/><path d="m23.683069 26.329831 1.972517 1.857827.677105-.299747 6.704678-7.747401.399247-1.030192-2.465646-2.322284-.892376.565735-6.211549 8.211859z" fill="none" stroke="url(#j)" stroke-linecap="round" stroke-linejoin="round" stroke-width="1.403511"/><path d="m22.054788 29.952381c-.11883.146826-.104809.370026.03129.498216.136104.12819.343006.113066.461835-.03376l.430541-.531976-.49313-.464456-.43054.531975z" fill="#eeeeec" fill-rule="evenodd"/><path d="m22.057089 30.486421 3.508335-1.807168 1.098399-.514606 6.785461-7.710043.506803-1.300263 6.227634-7.992302c.577576-.713651.832724-1.6163623.532644-2.0062511l.394909-.4879497c.244282-.3018338.165954-.8146003-.173236-1.1340678l-.619126-.5831276c-.339189-.3194675-.820733-.3340215-1.065015-.032187 0 0-.241639.2985678-.39491.4879495-.398596-.2681631-1.19332.1263445-1.770895.8399964l-6.227635 7.9923013-1.125929.717136-6.166336 8.29317-.324491 1.243515z" fill="none" stroke="url(#k)" stroke-miterlimit="1" stroke-width="1.207019"/></g><g enable-background="new" transform="matrix(.04527319 0 0 .04527319 -2.227737 -2.728594)"><g stroke-width="2"><path d="m139.48848 67.781254c-10.04429.28488-27.7533 2.87996-38.1875 10.28125-8.228588 5.83678-16.921298 15.91297-20.156248 25.468746 0 0-5.303353 74.929-4.96875 111.71875 2.083032 77.97286 126.843748 74.09043 126.843748 0-4.60116-40.66914 4.35064-75.34473-4.9375-111.71875-3.23495-9.555776-11.92766-19.631966-20.15625-25.468746-10.4342-7.40129-28.14321-9.99637-38.1875-10.28125-.0803-.002-.17071.002-.25 0z" fill="url(#l)"/><path d="m81.144732 103.28125c-4.339923 11.21004-2.565415 24.58143-.90625 38.0625 5.782767 46.98623 23.874998 122 23.874998 122 21.82274 12.61297 49.05928 14.45932 70.53125 0 0 0 14.50978-75.44977 23.125-122 2.34829-12.68841 4.18602-27.00969.0937-38.3125-17.33827-47.887546-96.96185-50.782025-116.718698.25z" fill="url(#m)"/><rect fill="url(#n)" height="97.179413" rx="19.793221" ry="21.01709" width="40.289299" x="120.41915" y="86.644943"/></g><rect fill="url(#o)" height="27.28862" opacity=".711934" rx=".429337" ry="6.915415" stroke="url(#p)" stroke-width="13.830827" width=".858674" x="139.85089" y="101.28051"/><path d="m99 234 3 15s15.98964 11.21269 25 10.5c5.67097-.44856 13.96531-3.3365 14.5-9 .53216-5.6367-7.4129-9.01466-12.5-11.5-9.10895-4.45025-30-5-30-5z" fill="url(#q)" filter="url(#r)" opacity=".621399" transform="matrix(1.2223615 0 0 1 -26.440819 8)"/><path d="m143.80098 274c2-.5 23.13965-.6921 30-8.5 3.00266-3.41738 2-13.5 2-13.5-8.35676 10.41321-19.66541 16.89057-32 22z" fill="#fff" filter="url(#s)" opacity=".341564"/><path d="m139.40877 274.2354c40.12994 0 66.69458-26.17136 70.22016-55.80084l-5.9574-109.54585c0-23.461828-22.74074-41.703775-66.0249-41.703775-43.28415 0-58.585772 28.154252-59.279614 42.369415l-5.49936 112.66872c6.540788 32.7644 38.417724 52.01233 66.541114 52.01233z" fill="none" stroke="url(#t)" stroke-linecap="round" stroke-width="13.830827"/><path d="m137.64648 79.962891c-18.87189 0-29.89662 5.801281-36.83203 12.359375-6.935404 6.558094-9.541561 14.905614-9.685544 17.855464l-5.408203 110.80469c5.775888 25.12957 31.765427 40.47656 53.687497 40.47656 34.21803 0 54.31257-21.07405 57.38086-43.83203l-5.875-108.04492a12.777963 12.777963 0 0 1 -.0195-.69336c0-7.60282-2.93628-13.510889-11.1543-19.060545-8.21801-5.549656-22.2465-9.865234-42.09375-9.865234z" fill="none" opacity=".4" stroke="#fff" stroke-linecap="round" stroke-width="13.830827"/></g></g></svg>