<svg height="16" viewBox="0 0 16 16" width="16" xmlns="http://www.w3.org/2000/svg"><path d="m4.9404725 4.0005025a.93993148.93572007 0 0 0 -.6592446 1.6032235l2.3866639 2.3911972-2.3866639 2.3886608a.94045969.93624592 0 0 0 1.3333595 1.32069l2.3792289-2.3837131 2.3792297 2.3837131a.94085554.93663999 0 1 0 1.333359-1.32069l-2.3866643-2.3886608 2.3866643-2.3911972a.93993148.93572007 0 0 0 -.688985-1.6032235.93993148.93572007 0 0 0 -.644374.2849442l-2.3792297 2.3813014-2.3792289-2.3813014a.93993148.93572007 0 0 0 -.6741149-.2849442z" fill="#c00"/><path d="m.50002188.50002151h14.99995612v14.99995649h-14.99995612z" fill="none" stroke="#000"/><g fill="#fff"><path d="m1 0h3v1h-3z"/><path d="m6.5 0h3v1h-3z"/><path d="m12 0h3v1h-3z"/><g transform="matrix(0 1 -1 0 16 0)"><path d="m1 0h3v1h-3z"/><path d="m6.5 0h3v1h-3z"/><path d="m12 0h3v1h-3z"/></g><g transform="matrix(0 1 -1 0 1 0)"><path d="m1 0h3v1h-3z"/><path d="m6.5 0h3v1h-3z"/><path d="m12 0h3v1h-3z"/></g><path d="m1 15h3v1h-3z"/><path d="m6.5 15h3v1h-3z"/><path d="m12 15h3v1h-3z"/></g></svg>