<?xml version="1.0" encoding="UTF-8" standalone="no"?>
<!-- Created with Inkscape (http://www.inkscape.org/) -->

<svg
   xmlns:dc="http://purl.org/dc/elements/1.1/"
   xmlns:cc="http://creativecommons.org/ns#"
   xmlns:rdf="http://www.w3.org/1999/02/22-rdf-syntax-ns#"
   xmlns:svg="http://www.w3.org/2000/svg"
   xmlns="http://www.w3.org/2000/svg"
   xmlns:sodipodi="http://sodipodi.sourceforge.net/DTD/sodipodi-0.dtd"
   xmlns:inkscape="http://www.inkscape.org/namespaces/inkscape"
   width="12"
   height="12"
   viewBox="0 0 12 12"
   id="svg30571"
   version="1.1"
   inkscape:version="0.91+devel r"
   sodipodi:docname="gimp-menu-right.svg"
   inkscape:export-filename="/home/klaus/Bilder/icons/Symbolic/hicolor/24x24/apps/gimp-channel.png"
   inkscape:export-xdpi="98.181816"
   inkscape:export-ydpi="98.181816">
  <defs
     id="defs30573" />
  <sodipodi:namedview
     id="base"
     pagecolor="#ffffff"
     bordercolor="#666666"
     borderopacity="1.0"
     inkscape:pageopacity="0.0"
     inkscape:pageshadow="2"
     inkscape:zoom="26.807756"
     inkscape:cx="-1.6469789"
     inkscape:cy="11.279169"
     inkscape:document-units="px"
     inkscape:current-layer="layer1"
     showgrid="true"
     units="px"
     inkscape:snap-page="true"
     inkscape:snap-bbox="true"
     inkscape:bbox-paths="true"
     inkscape:bbox-nodes="true"
     inkscape:snap-bbox-edge-midpoints="true"
     inkscape:snap-bbox-midpoints="true"
     inkscape:object-paths="true"
     inkscape:snap-intersection-paths="true"
     inkscape:object-nodes="true"
     inkscape:snap-smooth-nodes="true"
     inkscape:snap-midpoints="true"
     inkscape:snap-object-midpoints="true"
     inkscape:snap-center="true"
     inkscape:snap-text-baseline="true"
     showborder="false"
     inkscape:window-width="1920"
     inkscape:window-height="1016"
     inkscape:window-x="0"
     inkscape:window-y="27"
     inkscape:window-maximized="1"
     inkscape:snap-global="false">
    <inkscape:grid
       type="xygrid"
       id="grid4221" />
  </sodipodi:namedview>
  <metadata
     id="metadata30576">
    <rdf:RDF>
      <cc:Work
         rdf:about="">
        <dc:format>image/svg+xml</dc:format>
        <dc:type
           rdf:resource="http://purl.org/dc/dcmitype/StillImage" />
        <dc:title></dc:title>
        <dc:creator>
          <cc:Agent>
            <dc:title>Klaus Staedtler</dc:title>
          </cc:Agent>
        </dc:creator>
      </cc:Work>
    </rdf:RDF>
  </metadata>
  <g
     inkscape:label="Layer 1"
     inkscape:groupmode="layer"
     id="layer1"
     transform="translate(0,-1040.3622)">
    <g
       id="g4058"
       transform="matrix(-0.75000002,0,0,0.75000002,12.000001,263.09053)">
      <g
         style="fill:#000000"
         inkscape:export-ydpi="72"
         inkscape:export-xdpi="72"
         inkscape:label="gimp-menu-left"
         id="gimp-menu-left"
         transform="matrix(1.3333333,0,0,1.3333333,-110.66693,448.36222)">
        <path
           style="fill:#000000"
           d="m -156,224 c -1.108,0 -2,0.892 -2,2 v 8 c 0,1.108 0.892,2 2,2 h 8 c 1.108,0 2,-0.892 2,-2 v -8 c 0,-1.108 -0.892,-2 -2,-2 z m 0.4375,1 h 7.125 c 0.78971,0 1.4375,0.64779 1.4375,1.4375 v 7.125 c 0,0.78971 -0.64779,1.4375 -1.4375,1.4375 h -7.125 c -0.78971,0 -1.4375,-0.64779 -1.4375,-1.4375 v -7.125 c 0,-0.78971 0.64779,-1.4375 1.4375,-1.4375 z"
           transform="translate(241.0002,217)"
           id="rect5232"
           inkscape:connector-curvature="0" />
        <path
           style="fill:#eeeeec;stroke:#000200;stroke-width:0.57080811;stroke-miterlimit:4;stroke-dasharray:none;stroke-opacity:1"
           d="m 92.214796,450.05558 v -6.10989 l -6.528533,3.05495 z"
           id="path5241"
           inkscape:connector-curvature="0"
           sodipodi:nodetypes="cccc" />
      </g>
      <path
         style="fill:#eeeeec;stroke-width:1.1111083"
         d="m 3.5555552,1037.6956 c -1.2311111,0 -2.2222221,0.9912 -2.2222221,2.2223 v 8.8888 c 0,1.231 0.991111,2.2222 2.2222221,2.2222 h 8.8888888 c 1.231111,0 2.222222,-0.9912 2.222222,-2.2222 v -8.8888 c 0,-1.2311 -0.991111,-2.2223 -2.222222,-2.2223 z m 0.4861111,1.1111 h 7.9166677 c 0.877455,0 1.59722,0.7198 1.59722,1.5971 v 7.9167 c 0,0.8775 -0.719765,1.5972 -1.59722,1.5972 H 4.0416663 c -0.8774556,0 -1.5972221,-0.7197 -1.5972221,-1.5972 v -7.9167 c 0,-0.8773 0.7197665,-1.5971 1.5972221,-1.5971 z"
         id="rect5232-5"
         inkscape:connector-curvature="0" />
    </g>
  </g>
</svg>
