<?xml version="1.0" encoding="UTF-8" standalone="no"?>
<!-- Created with Inkscape (http://www.inkscape.org/) -->

<svg
   xmlns:dc="http://purl.org/dc/elements/1.1/"
   xmlns:cc="http://creativecommons.org/ns#"
   xmlns:rdf="http://www.w3.org/1999/02/22-rdf-syntax-ns#"
   xmlns:svg="http://www.w3.org/2000/svg"
   xmlns="http://www.w3.org/2000/svg"
   xmlns:sodipodi="http://sodipodi.sourceforge.net/DTD/sodipodi-0.dtd"
   xmlns:inkscape="http://www.inkscape.org/namespaces/inkscape"
   width="16"
   height="16"
   viewBox="0 0 16 16"
   id="svg30571"
   version="1.1"
   inkscape:version="0.92pre1 unknown"
   sodipodi:docname="gimp-reshow-filter.svg">
  <defs
     id="defs30573" />
  <sodipodi:namedview
     id="base"
     pagecolor="#ffffff"
     bordercolor="#666666"
     borderopacity="1.0"
     inkscape:pageopacity="0"
     inkscape:pageshadow="2"
     inkscape:zoom="45.254834"
     inkscape:cx="3.784608"
     inkscape:cy="11.513235"
     inkscape:document-units="px"
     inkscape:current-layer="layer1"
     showgrid="true"
     units="px"
     inkscape:snap-page="true"
     inkscape:snap-bbox="true"
     inkscape:bbox-paths="true"
     inkscape:bbox-nodes="true"
     inkscape:snap-bbox-edge-midpoints="true"
     inkscape:snap-bbox-midpoints="true"
     inkscape:object-paths="true"
     inkscape:snap-intersection-paths="true"
     inkscape:object-nodes="true"
     inkscape:snap-smooth-nodes="true"
     inkscape:snap-midpoints="true"
     inkscape:snap-object-midpoints="true"
     inkscape:snap-center="true"
     inkscape:snap-text-baseline="true"
     showborder="false"
     inkscape:window-width="1920"
     inkscape:window-height="1016"
     inkscape:window-x="0"
     inkscape:window-y="27"
     inkscape:window-maximized="1"
     inkscape:snap-global="false">
    <inkscape:grid
       type="xygrid"
       id="grid4244" />
  </sodipodi:namedview>
  <metadata
     id="metadata30576">
    <rdf:RDF>
      <cc:Work
         rdf:about="">
        <dc:format>image/svg+xml</dc:format>
        <dc:type
           rdf:resource="http://purl.org/dc/dcmitype/StillImage" />
        <dc:title></dc:title>
        <dc:creator>
          <cc:Agent>
            <dc:title>Klaus Staedtler</dc:title>
          </cc:Agent>
        </dc:creator>
      </cc:Work>
    </rdf:RDF>
  </metadata>
  <g
     inkscape:label="Layer 1"
     inkscape:groupmode="layer"
     id="layer1"
     transform="translate(0,-1036.3622)">
    <g
       id="g4295">
      <g
         transform="matrix(1.0001373,0,0,1.0000744,-0.00109289,-0.07833706)"
         id="g4280">
        <path
           style="display:inline;fill:#000000;fill-opacity:1;stroke:none;stroke-width:0.29304367;stroke-miterlimit:4;stroke-dasharray:none;stroke-opacity:1"
           d="m 4.093513,1046.9866 v 5.3756 h 11.615198 v -5.3756 z"
           id="rect28071-3"
           inkscape:connector-curvature="0"
           sodipodi:nodetypes="ccccc" />
        <g
           style="fill:#000000;fill-opacity:1;stroke:#ffffff;stroke-width:9.4152174;stroke-miterlimit:4;stroke-dasharray:none;stroke-opacity:1"
           id="g5582"
           transform="matrix(0.03125189,0,0,-0.03214307,8.8222376,1042.2117)">
          <path
             d="m 0,0 h -265.17 c 24.73,79.94 88.49,142.72 169.02,166.1 z"
             style="fill:#000000;fill-opacity:1;fill-rule:nonzero;stroke:#ffffff;stroke-width:11.89910221;stroke-miterlimit:4;stroke-dasharray:none;stroke-opacity:1"
             id="path5584"
             inkscape:connector-curvature="0" />
        </g>
        <g
           style="fill:#000000;fill-opacity:1;stroke:#ffffff;stroke-width:9.4152174;stroke-miterlimit:4;stroke-dasharray:none;stroke-opacity:1"
           id="g5586"
           transform="matrix(0.03125189,0,0,-0.03214307,6.3670887,1042.6939)">
          <path
             d="m 0,0 -130.72,-229.34 c -41.58,44.65 -67.03,104.52 -67.03,170.34 0,20.33 2.44,40.08 7.02,59 z"
             style="fill:#000000;fill-opacity:1;fill-rule:nonzero;stroke:#ffffff;stroke-width:11.89910221;stroke-miterlimit:4;stroke-dasharray:none;stroke-opacity:1"
             id="path5588"
             inkscape:connector-curvature="0" />
        </g>
        <g
           style="fill:#000000;fill-opacity:1;stroke:#ffffff;stroke-width:9.4152174;stroke-miterlimit:4;stroke-dasharray:none;stroke-opacity:1"
           id="g5590"
           transform="matrix(0.03125189,0,0,-0.03214307,13.467206,1038.8506)">
          <path
             d="M 0,0 -96.53,-164.62 -229.69,65.4 c 17.62,3.94 35.94,6.03 54.75,6.03 C -106.83,71.43 -45.09,44.18 0,0"
             style="fill:#000000;fill-opacity:1;fill-rule:nonzero;stroke:#ffffff;stroke-width:11.89910221;stroke-miterlimit:4;stroke-dasharray:none;stroke-opacity:1"
             id="path5592"
             inkscape:connector-curvature="0" />
        </g>
        <g
           style="fill:#000000;fill-opacity:1;stroke:#ffffff;stroke-width:9.4152174;stroke-miterlimit:4;stroke-dasharray:none;stroke-opacity:1"
           id="g5594"
           transform="matrix(0.03125189,0,0,-0.03214307,15.434825,1047.0653)" />
        <g
           style="fill:#000000;fill-opacity:1;stroke:#ffffff;stroke-width:9.4152174;stroke-miterlimit:4;stroke-dasharray:none;stroke-opacity:1"
           id="g5598"
           transform="matrix(0.03125189,0,0,-0.03214307,9.6338493,1052.4496)" />
        <g
           style="fill:#000000;fill-opacity:1;stroke:#ffffff;stroke-width:9.4152174;stroke-miterlimit:4;stroke-dasharray:none;stroke-opacity:1"
           id="g5602"
           transform="matrix(0.03125189,0,0,-0.03214307,15.812973,1044.5904)">
          <path
             d="M 0,0 C 0,-21.4 -2.69,-42.17 -7.75,-62 H -198.73 L -64.27,167.33 C -24.32,123.02 0,64.35 0,0"
             style="fill:#000000;fill-opacity:1;fill-rule:nonzero;stroke:#ffffff;stroke-width:11.89910221;stroke-miterlimit:4;stroke-dasharray:none;stroke-opacity:1"
             id="path5604"
             inkscape:connector-curvature="0" />
        </g>
        <path
           inkscape:connector-curvature="0"
           id="rect28071"
           d="m 4.2704803,1047.1073 v 5.0759 H 15.636006 v -5.0759 z m 2.4354699,0.7252 h 0.8118232 v 3.6255 H 6.7059502 v -2.9004 l -0.8118234,0.7251 v -0.7251 z m 2.8413815,0 c 0.6746253,0 1.2177343,0.4851 1.2177343,1.0877 v 1.45 c 0,0.6026 -0.543109,1.0878 -1.2177343,1.0878 -0.6746252,0 -1.2177349,-0.4852 -1.2177349,-1.0878 v -1.45 c 0,-0.6026 0.5431097,-1.0877 1.2177349,-1.0877 z m 3.6532043,0 1.623646,1.4502 h -3.247293 z m -3.6532043,0.7251 c -0.2248751,0 -0.4059116,0.1616 -0.4059116,0.3626 v 1.45 c 0,0.2009 0.1810365,0.3628 0.4059116,0.3628 0.224875,0 0.4059114,-0.1619 0.4059114,-0.3628 v -1.45 c 0,-0.201 -0.1810364,-0.3626 -0.4059114,-0.3626 z m 2.0295573,1.4503 h 3.247293 l -1.623646,1.4501 z"
           style="display:inline;fill:#ffffff;fill-opacity:1;stroke:#000000;stroke-width:0.35598704;stroke-miterlimit:4;stroke-dasharray:none;stroke-opacity:1" />
      </g>
    </g>
  </g>
</svg>
