<svg height="16" viewBox="0 0 16 15.999999" width="16" xmlns="http://www.w3.org/2000/svg" xmlns:xlink="http://www.w3.org/1999/xlink"><linearGradient id="a"><stop offset="0" stop-color="#d3d7cf"/><stop offset="1" stop-color="#555753"/></linearGradient><linearGradient id="b" gradientTransform="translate(-331.98506 813.2596)" gradientUnits="userSpaceOnUse" x2="0" xlink:href="#a" y1="230.5257" y2="234.17552"/><linearGradient id="c" gradientUnits="userSpaceOnUse" x1="318.23053" x2="313.30359" xlink:href="#a" y1="221.36496" y2="225.07529"/><linearGradient id="d" gradientUnits="userSpaceOnUse" x1="315.76736" x2="305.20496" xlink:href="#a" y1="219" y2="224.26392"/><g transform="matrix(.98726773 0 0 .9685683 28.819668 -999.31102)"><path d="m-25.985069 1047.7596h12.5v-5h-12.5c-1.38071 0-2.5 1.1192-2.5 2.5 0 1.3807 1.11929 2.5 2.5 2.5z" fill="#eeeeec" stroke="url(#b)" stroke-linecap="round" stroke-linejoin="round"/><path d="m-16.985069 1043.2596h2v4h-2z" fill="#729fcf"/><path d="m-19.985069 1043.2596h2v4h-2z" fill="#3465a4"/><path d="m-22.985069 1043.2596h2v4h-2z" fill="#204a87"/><path id="e" d="m305.89648 230.49414c-.77533.0165-1.52756.93771-1.38671 1.69922a.99446835.99446835 0 0 1 .006.0469c.0902.66322.80075 1.27805 1.46485 1.26563a.99446835.99446835 0 0 1 .0195 0h11.50586v-3.01172c-3.87231.0004-7.74026-.006-11.60938 0z" fill="none" opacity=".3" stroke="#fff" stroke-linecap="round" stroke-linejoin="round" transform="translate(-331.98506 813.2596)"/><g enable-background="new" transform="matrix(.73598908 -.67699341 .67699341 .73598908 -400.883665 1088.423298)"><path d="m306 224.5h12.5v-5h-12.5c-1.38071 0-2.5 1.11929-2.5 2.5s1.11929 2.5 2.5 2.5z" fill="#eeeeec" stroke="url(#c)" stroke-linecap="round" stroke-linejoin="round"/><path d="m309 220h2v4h-2z" fill="#ce5c00"/><path d="m312 220h2v4h-2z" fill="#f57900"/><path d="m315 220h2v4h-2z" fill="#fcaf3e"/><use height="300" transform="translate(331.98506 -823.2596)" width="400" xlink:href="#e"/></g><g enable-background="new" transform="matrix(0 -1 1 0 -248.19134 1350.7403)"><path d="m306 224.5h12.5v-5h-12.5c-1.38071 0-2.5 1.11929-2.5 2.5s1.11929 2.5 2.5 2.5z" fill="#eeeeec" stroke="url(#d)" stroke-linecap="round" stroke-linejoin="round"/><path d="m309 220h2v4h-2z" fill="#c4a000"/><path d="m312 220h2v4h-2z" fill="#edd400"/><path d="m315 220h2v4h-2z" fill="#fce94f"/><use height="300" transform="translate(331.98506 -823.2596)" width="400" xlink:href="#e"/></g><g enable-background="new"><circle cx="-25.98506" cy="1045.2596" fill="#888a85" r="1"/><circle cx="-26.17935476" cy="1045.12590528" fill="#fff" r=".50281554" stroke-width=".50281554"/></g></g></svg>