<svg height="16" viewBox="0 0 16 16" width="16" xmlns="http://www.w3.org/2000/svg"><g stroke="#fff" transform="matrix(1.0000035 0 0 .9997748 -.000028 -1036.127832)"><path d="m8 1036.6042c-.5372121 0-.969697.4324-.969697.9696v1.9394c0 .034-.010736.088-.00744.1214-1.8488821.3545-3.3958161 1.8619-3.7766534 3.7767-.032678 0-.061121-.019-.094697-.019h-1.9393945c-.53721211 0-.96969696.4325-.96969696.9697s.43248485.9697.96969696.9697h1.8206976c.033576 0 .2070922.01.2397702.01.2753296 1.9148 1.7958866 3.3562 3.710711 3.737-.0033.033.028079.2626.023294-.1953l.023709 2.2693c.00561.5372.4324849.9697.969697.9697s.969697-.4325.969697-.9697c-.015563-1.263.019005-2.5253.030303-3.7879-.3596359.031-.6618345.01-1.0065938.01-1.6066432-.006-2.9934031-1.4059-2.9934031-3.0126 0-1.6066 1.3933541-3 3.0000004-3s2.9999996 1.3934 2.9999996 3c0 .3449.01008.6932-.1 1 1.341901-.029 2.518669-.028 3.88788-.028.537212 0 .969697-.4348.969697-.972s-.432485-.9674-.969697-.9674h-1.939391c-.03358 0-.101585-.01-.134265-.01-.35446-1.7565-1.86183-3.4222-3.7766534-3.8031.0033-.033.032127-.069.032127-.069v-1.9394c0-.5372-.4324849-.9696-.969697-.9696z" stroke-width=".484849"/><path d="m10.275269 1046.6374v1.0899h1.112366v3.2697c-.616251 0-1.112366.2431-1.112366.545s.496115.5449 1.112366.5449h2.22473c.61625 0 1.112366-.243 1.112366-.5449s-.496116-.545-1.112366-.545v-4.3596z" stroke-width=".550539"/></g></svg>