<svg height="16" viewBox="0 0 16 16" width="16" xmlns="http://www.w3.org/2000/svg" xmlns:xlink="http://www.w3.org/1999/xlink"><linearGradient id="a" gradientTransform="translate(13969.744 5033.3136)" gradientUnits="userSpaceOnUse" x1="65.257019" x2="264.02869" y1="617.86304" y2="617.86304"/><linearGradient id="b" gradientTransform="matrix(.04091636 0 0 .04091636 571.76388 1221.6107)" gradientUnits="userSpaceOnUse" x1="234.28571" x2="360" y1="616.36218" y2="616.36218"/><g transform="translate(0 -1036.3622)"><g transform="matrix(.04091636 0 0 .04091636 .172802 1015.665817)"><path d="m322.0353 505.95697h192.35984c.3292 0 .78022.32567.59422.59423-66.35806 95.80927 67.67524 131.04989 0 185.11165-2.24128 1.79043.0213-.052.0213-.052l-157.96905 68.20525c-3.02892 0-45.96246 30.8141-43.81678-28.01111l8.21624-225.25379c.0121-.3309.26503-.59423.59423-.59423z" fill="#dcdcdc" transform="matrix(.88230041 .47068671 -.32499327 .94571633 0 0)"/><path d="m87.355 510.36221h202.14715c.19667 0 .355.15833.355.355v211.29c0 .19667-.15833.355-.355.355h-202.14715c-.19667 0-.227971-.24605-.355-.355-53.380966-45.78312-59.452394-145.14974 0-211.29.111874-.12446.515473-10.71214.355-.355z" fill="#fff"/><path d="m99.870243 533.7742h163.870677c.15943 0 .28778.12835.28778.28778v171.28232c0 .15943-.12835.28778-.28778.28778h-163.870677c-.15943 0-.1848-.19946-.28778-.28778-43.2733-37.1141-48.1951-117.66569 0-171.28232.0907-.10089.417867-8.6838.28778-.28778z" fill="url(#a)"/><path d="m108.43802 552.14223h150.32667c.14626 0 .264.10022.264.22473v133.75468c0 .1245-.1177.22473-.264.22473h-150.32667c-.14626 0-.16953-.15576-.264-.22473-39.696742-28.98247-44.211754-91.88536 0-133.75468.0832-.0788.38334-6.7812.264-.22473z" fill="#fff"/></g><path d="m0 1036.362217h16v16h-16z" fill="none"/><path d="m4.6471828 1044.4812h6.6155352c.03273 0 .05909.026.05909.059v.2705c0 .033-.02635.059-.05909.059l-6.4576989.063c1.5508436.036.098749-.059.098749-.059s-.825702-.1199-.7576143-.3967c.03989-.1622 1.2890436.099.5010287 0z" fill="#464646"/><ellipse cx="12.330806" cy="1040.8851" fill="url(#b)" rx="2.571886" ry="4.337134"/><ellipse cx="12.437504" cy="1040.8086" fill="#464646" rx=".642971" ry="1.227491"/></g></svg>