<svg height="16" viewBox="0 0 16 16" width="16" xmlns="http://www.w3.org/2000/svg" xmlns:xlink="http://www.w3.org/1999/xlink"><radialGradient id="a" cx="18.557627" cy="22.300018" gradientTransform="matrix(.48589225 0 0 .36880698 -3.417663 -.947293)" gradientUnits="userSpaceOnUse" r="19.2292"><stop offset="0" stop-color="#857c63"/><stop offset="1" stop-color="#221f19"/></radialGradient><linearGradient id="b" gradientTransform="matrix(.27408955 0 0 .28442405 .009511 1.032847)" gradientUnits="userSpaceOnUse" x1="32.35014" x2="21.2132" y1="28.083361" y2="30.29306"><stop offset="0"/><stop offset="1" stop-opacity="0"/></linearGradient><linearGradient id="c" gradientTransform="matrix(.27408955 0 0 .28442405 1.06107 .934445)" gradientUnits="userSpaceOnUse" x1="14.96875" x2="39.524544" xlink:href="#d" y1="19.11068" y2="46.98568"/><linearGradient id="d"><stop offset="0" stop-color="#fff" stop-opacity=".796078"/><stop offset="1" stop-color="#fff" stop-opacity=".215686"/></linearGradient><radialGradient id="e" cx="6.02422" cy="25.27103" gradientTransform="matrix(.25439024 .02617891 -.03020082 .30040022 -3.214917 -.312395)" gradientUnits="userSpaceOnUse" r="4.831029"><stop offset="0" stop-color="#5b676b"/><stop offset="1" stop-color="#141718"/></radialGradient><linearGradient id="f" gradientTransform="matrix(.21937826 -.17050681 .16431148 .22764988 -3.051798 3.068939)" gradientUnits="userSpaceOnUse" x1="6.305153" x2="5.984629" xlink:href="#d" y1="23.362427" y2="31.57"/><radialGradient id="g" cx="69.473244" cy="19.597878" gradientTransform="matrix(.54207568 0 0 .56251455 -30.557298 -4.833975)" gradientUnits="userSpaceOnUse" r="3.515314"><stop offset="0" stop-color="#fff"/><stop offset="1" stop-color="#b9b9b0"/></radialGradient><linearGradient id="h" gradientTransform="matrix(-.03225678 -.15023193 .14477328 -.03347301 13.73053 15.067795)" gradientUnits="userSpaceOnUse" x1="37.017639" x2="27.753893" y1="19.239889" y2="11.182488"><stop offset="0" stop-color="#6e3d09"/><stop offset=".242424" stop-color="#ea8113"/><stop offset=".621212" stop-color="#5c3307"/><stop offset="1" stop-color="#e07c12"/></linearGradient><linearGradient id="i" gradientTransform="matrix(-.03225678 -.15023193 .14477328 -.03347301 12.179148 14.266765)" gradientUnits="userSpaceOnUse" x1="19.394735" x2="23.109329" y1="30.001329" y2="33.438831"><stop offset="0" stop-color="#bdbdbd"/><stop offset=".333333" stop-color="#e2e2e2"/><stop offset=".666667" stop-color="#a3a3a3"/><stop offset="1" stop-color="#ddd"/></linearGradient><radialGradient id="j" cx="15.415101" cy="35.35651" gradientTransform="matrix(-.02573447 -.39992155 .37557504 -.02602476 6.072474 17.939968)" gradientUnits="userSpaceOnUse" r="7.579156"><stop offset="0" stop-color="#696969"/><stop offset="1"/></radialGradient><linearGradient id="k" gradientTransform="matrix(.03284689 -.1266765 .12207373 .03408538 12.595827 10.69246)" gradientUnits="userSpaceOnUse" x1="13.236155" x2="7.752109" xlink:href="#d" y1="37.752247" y2="42.28215"/><radialGradient id="l" cx="39.75" cy="7.75" gradientTransform="matrix(.42857142 0 0 .42857145 -4.035713 -.321429)" gradientUnits="userSpaceOnUse" r="7"><stop offset="0" stop-color="#fff"/><stop offset=".5" stop-color="#e6ff8f" stop-opacity=".932039"/><stop offset="1" stop-color="#ff3a20" stop-opacity=".019417"/></radialGradient><rect fill="#eeeeec" fill-rule="evenodd" height="15.000003" rx=".614949" ry=".637838" stroke="#888a85" width="15.000011" x=".499996" y=".5"/><rect fill="#709bd2" height="9.634831" rx=".145323" ry=".175635" stroke="#204a87" stroke-linecap="round" stroke-linejoin="round" stroke-width=".36517" width="11.63483" x="2.182585" y="3.182585"/><g stroke-miterlimit="10"><path d="m3.9045758 4.480611s.7878729 1.6859617 2.631052 1.6383983c3.8626112-.100559 4.5399392-2.1914731 4.6368442-2.4931505.09691-.3016773.245183-.255981.279464.02283 1.259769 11.8659722-8.7426154 6.7747462-9.097845 4.7537268 1.9865586-.6033544 1.5020321-1.7597842 1.5020321-1.7597842z" fill="url(#a)" fill-rule="evenodd" stroke="#2e3436" stroke-width=".359373"/><path d="m5.3746335 9.4859524c1.847062.3833572 2.7876801.0278991 3.3381846-.4132045-.1453579-.1948333-.3936776-.4085214-.3936776-.4085214s.3594345.070504.5935448.3268172c.1602377.1754345.1749415.4588388.1398969.8469818-.0350445-.1649318-.0935791-.2676387-.139036-.3842381-.4950792.6221966-1.8375484.6555436-3.5389127.032165z" fill="url(#b)" fill-rule="evenodd" stroke-width=".279209"/><path d="m11.192212 4.2919821c-.153416.2657877-.384115.5850569-.738222.8904916-.720093.6211159-1.9291615 1.1899793-3.9111293 1.2415775-1.1582578.029889-1.9049421-.5559227-2.3634871-1.0732562l-.028908 1.2743529c.036951.1189794.1077333.3971905-.02409.7749446-.1416053.4057858-.5927784.8153129-1.3624178 1.1304744.068255.1486803.1320337.3051611.3399353.516074.2817978.2858798.6792559.5921453 1.1450732.8693822.931635.5544739 2.1391889.9922459 3.2644496 1.0121499 1.1252604.0199 2.1480776-.348524 2.8554561-1.419343.653277-.9889197 1.012783-2.6681871.82334-5.2168479z" fill="none" opacity=".185393" stroke="url(#c)" stroke-width=".359373"/><ellipse cx="-2.424909" cy="8.187967" fill="url(#e)" fill-rule="evenodd" rx="1.202599" ry="1.71333" stroke="#000" stroke-width=".359484" transform="matrix(.80052518 -.59929912 .57082421 .8210723 0 0)"/><path d="m1.4490737 6.6341577c-.1687093.1170477-.2773541.340546-.2833805.6470964.0893492.5668783.5662363 1.2197342 1.0651538 1.4479467a.2970694.28627544 89.999986 0 1 .065713.04193c.3638358.3092714.7847684.4069505 1.0497998.3174619.2586045-.0873189.4203177-.3357121.4271099-.7213276-.0901843-.5665754-.5666107-1.2181551-1.065048-1.4459469a.2970694.28627544 89.999986 0 1 -.0657126-.0419302c-.2181354-.1853718-.4612953-.3024658-.6739843-.3388738s-.3892164.003209-.5196511.0936435z" fill="none" opacity=".280899" stroke="url(#f)" stroke-width=".359374"/><ellipse cx="2.175481" cy="7.547663" fill="#fff" fill-rule="evenodd" rx=".484526" ry=".603354" stroke-width=".279209"/><ellipse cx="4.79192" cy="7.145427" fill="#eeeeec" fill-rule="evenodd" rx=".872148" ry=".905032" stroke="#888a85" stroke-width=".359373"/><ellipse cx="7.10246" cy="7.145429" fill="url(#g)" fill-rule="evenodd" rx="1.308222" ry="1.357548" stroke="#888a85" stroke-width=".359373"/><ellipse cx="7.408368" cy="7.346546" fill="#2e3436" fill-rule="evenodd" rx=".629884" ry=".653634" stroke="#000" stroke-width=".359373"/><ellipse cx="7.166103" cy="7.044868" fill="#fff" fill-rule="evenodd" rx=".436074" ry=".452516" stroke-width=".251288"/><ellipse cx="5.073616" cy="7.271128" fill="#2e3436" fill-rule="evenodd" rx=".387621" ry=".402237" stroke="#000" stroke-width=".359374"/><ellipse cx="4.924528" cy="7.085478" fill="#fff" fill-rule="evenodd" rx=".268353" ry=".278471" stroke-width=".154639"/></g><path d="m10.863464 11.092449.419088-.738044c-.754245-.5071502-1.6739506-.774442-2.3640026-1.0591118 0 0-.3816954.2721654-.3816954.2721654.6609294.4434174 1.473947 1.0448774 2.32661 1.5249904z" fill="url(#h)" stroke="#673907" stroke-linecap="round" stroke-width=".359374"/><path d="m12.606411 11.92764.207506-.402199-1.340499-1.029288-.111057-.0177-.03788-.163819c-.212096.118029-.539724.588637-.479242.870322l.155168-.04881.07663.08793z" fill="url(#i)" stroke="#888a85" stroke-linecap="round" stroke-width=".359374"/><path d="m14.091153 14.095862c-.108085-1.679672.0027-2.967756-1.19052-3.127487-.961527-.12872-1.32912 1.256918-.438723 1.869237.857734.589856 1.629243 1.25825 1.629243 1.25825z" fill="url(#j)" stroke-linecap="round" stroke-width=".055842"/><ellipse cx="-14.16247" cy="10.054927" fill="#fff" opacity=".527779" rx=".377881" ry=".365429" stroke-linecap="round" stroke-width=".297282" transform="matrix(-.20992971 -.97771648 .97429679 -.22526821 0 0)"/><path d="m13.817415 12.817415s-.131333-.793627-.531229-.925673c-.141482-.04672-.03714-.242791.110222-.166054.318305.165751.421007 1.091727.421007 1.091727z" fill="url(#k)" opacity=".427778" stroke-linecap="round" stroke-width=".279209"/><path d="m10.815134 10.369603s-.617771-.314247-1.4778054-.6410645" style="opacity:.175258;fill:none;stroke:#fff;stroke-width:.359374;stroke-linecap:round;stroke-linejoin:round"/><circle cx="13" cy="3" fill="url(#l)" r="3" stroke-linecap="round" stroke-linejoin="round" stroke-miterlimit="10" stroke-width=".214286"/></svg>