<svg height="16" viewBox="0 0 16 16" width="16" xmlns="http://www.w3.org/2000/svg" xmlns:xlink="http://www.w3.org/1999/xlink"><linearGradient id="a"><stop offset="0" stop-color="#d3d7cf"/><stop offset="1" stop-color="#fff"/></linearGradient><linearGradient id="b" gradientTransform="matrix(1.2431372 -.00620646 .00687886 1.1216216 10.069405 3.339608)" gradientUnits="userSpaceOnUse" x1="-2.292774" x2="4.289299" y1="1.012595" y2="1.012595"><stop offset="0" stop-color="#ef2929"/><stop offset="1" stop-color="#ef2929" stop-opacity="0"/></linearGradient><linearGradient id="c" gradientTransform="matrix(1.1324688 0 0 1.1303123 -2.010834 -.161364)" gradientUnits="userSpaceOnUse" x1="8.590249" x2="15.262132" y1="11.755022" y2="11.755022"><stop offset="0"/><stop offset="1" stop-opacity="0"/></linearGradient><linearGradient id="d" gradientTransform="matrix(1.1321798 0 0 1.1628752 -2.038065 -.002884)" gradientUnits="userSpaceOnUse" x1="7.469972" x2="4.62447" xlink:href="#a" y1="8.394972" y2="10.76474"/><linearGradient id="e" gradientTransform="matrix(1.0412136 0 0 1.0343691 -.673098 -.40996)" gradientUnits="userSpaceOnUse" x1="13.865578" x2="10.768333" xlink:href="#a" y1="1.301375" y2="4.151609"/><path d="m9.1807466 10.270783s-1.4373728 2.891252-.6414788 3.679973c.7475391.740805 1.9006222-.914336 2.9258272-1.103617 1.200014-.221556 2.948183-1.005053 3.661077-.01643.651853.903964-1.077182 3.163561-1.077182 3.163561.06205.06322.04645-.4214-.136441-.242593-.1829.178807-.3801.271852-.442154.208619 0 0 1.741442-1.980743 1.158874-2.810229-.56553-.805229-1.985405-.05981-2.95306.125158-1.260127.240867-2.6384796 2.074725-3.6338433 1.266691-.9474641-.769154.478091-3.625618.478091-3.625618-.062053-.06323.035236-.258089.2181354-.436895.1829005-.178808.3801008-.271851.4421545-.208619z" fill="url(#c)"/><g stroke-linecap="round"><path d="m14.477176.21386099c-.523719.01818938-.727999.17321838-1.335801.71238306-3.7875307 3.39564705-7.2885064 6.69390055-10.7664924 10.26927995l-.021595.05909-1.0711524 2.809027 3.1853825-.884674c.7739825-.778913 1.5832643-1.573062 2.4079327-2.373268.249376.158841.5494284.244374.8573539.244396.8079749.00016 1.4628399-.57613 1.4620373-1.2866137-.0008118-.3088538-.128071-.6071265-.3584908-.8402345 2.1120172-2.0139334 4.2405472-3.9511195 6.2954032-5.9057863.411048-.4770297.653661-.8710531.654381-1.3910076-.000399-.8024812-.541909-1.41204391-1.308959-1.41259191zm-13.1950414 13.84978301c-.064153-.08574-.1688581-.136964-.2807458-.13735-.19113649-.000686-.34626811.144405-.3455331.323171.00046295.177975.15524189.321831.3455331.321148.1894485-.000432.3429117-.143962.3433734-.321148.0001466-.0665-.021731-.131418-.062628-.185821z" fill="url(#d)" stroke="#183436" stroke-linejoin="round" stroke-width=".427729"/><path d="m14.542833.66044908c-.350821.03757648-.543583.19478168-.700989.36026202l-6.6788376 6.2794514 1.2759066 1.134133 6.532985-6.0106575c.246421-.2018723.51319-.5593969.460659-.8889874-.065442-.4105948-.476311-.91848214-.889724-.87420152z" fill="#f00" stroke="url(#b)" stroke-linejoin="round" stroke-width=".811489"/><path d="m7.1716255 6.9409373 6.6696705-6.13542455" fill="none" stroke="url(#e)" stroke-width=".259446"/></g><path d="m6.9083897 8.6691482-1.9044895-3.2998543 3.863556-.1041553z" fill="#3465a4"/><path d="m6.9959791 8.6678241-1.8845764-3.3394995 1.9436848-.0248595c.00504.015929-.00612.1747271-.059108 3.364359z" fill="#729fcf"/><path d="m5.444148 2.3549841c-.355851 0-.6428099.3090121-.6428099.6924643v1.8560907c0 .069349.012522.1346072.029975.1977034.4853831 1.3667017 1.4820174 2.5177971 2.197802 3.7725691l1.6430543-3.1206784c.1484044-.126565.2455069-.6289125.2455069-.8495941v-1.8560907c0-.3834522-.2869587-.6924643-.6428001-.6924643z" fill="none" stroke="#183436" stroke-linecap="round" stroke-linejoin="round" stroke-width=".404092"/><ellipse cx="1.011847" cy="14.254398" fill="#3465a4" rx=".163388" ry=".163077"/><circle cx=".5" cy="-15.5" fill="#729fcf" r=".428622" stroke="#fff" stroke-linecap="round" stroke-width=".142757" transform="scale(1 -1)"/></svg>