<?xml version="1.0" encoding="UTF-8" standalone="no"?>
<!-- Created with Inkscape (http://www.inkscape.org/) -->

<svg
   xmlns:dc="http://purl.org/dc/elements/1.1/"
   xmlns:cc="http://creativecommons.org/ns#"
   xmlns:rdf="http://www.w3.org/1999/02/22-rdf-syntax-ns#"
   xmlns:svg="http://www.w3.org/2000/svg"
   xmlns="http://www.w3.org/2000/svg"
   xmlns:sodipodi="http://sodipodi.sourceforge.net/DTD/sodipodi-0.dtd"
   xmlns:inkscape="http://www.inkscape.org/namespaces/inkscape"
   width="16"
   height="16"
   viewBox="0 0 16 16"
   id="svg30571"
   version="1.1"
   inkscape:version="0.91+devel r"
   sodipodi:docname="gimp-sample-point.svg">
  <defs
     id="defs30573" />
  <sodipodi:namedview
     id="base"
     pagecolor="#ffffff"
     bordercolor="#666666"
     borderopacity="1.0"
     inkscape:pageopacity="0"
     inkscape:pageshadow="2"
     inkscape:zoom="26.807756"
     inkscape:cx="2.5753897"
     inkscape:cy="11.279169"
     inkscape:document-units="px"
     inkscape:current-layer="layer1"
     showgrid="true"
     units="px"
     inkscape:snap-page="true"
     inkscape:snap-bbox="true"
     inkscape:bbox-paths="true"
     inkscape:bbox-nodes="true"
     inkscape:snap-bbox-edge-midpoints="true"
     inkscape:snap-bbox-midpoints="true"
     inkscape:object-paths="true"
     inkscape:snap-intersection-paths="true"
     inkscape:object-nodes="true"
     inkscape:snap-smooth-nodes="true"
     inkscape:snap-midpoints="true"
     inkscape:snap-object-midpoints="true"
     inkscape:snap-center="true"
     inkscape:snap-text-baseline="true"
     showborder="false"
     inkscape:window-width="1920"
     inkscape:window-height="1016"
     inkscape:window-x="0"
     inkscape:window-y="27"
     inkscape:window-maximized="1"
     showguides="false">
    <inkscape:grid
       type="xygrid"
       id="grid4232" />
  </sodipodi:namedview>
  <metadata
     id="metadata30576">
    <rdf:RDF>
      <cc:Work
         rdf:about="">
        <dc:format>image/svg+xml</dc:format>
        <dc:type
           rdf:resource="http://purl.org/dc/dcmitype/StillImage" />
        <dc:title></dc:title>
        <dc:creator>
          <cc:Agent>
            <dc:title>Klaus Staedtler</dc:title>
          </cc:Agent>
        </dc:creator>
      </cc:Work>
    </rdf:RDF>
  </metadata>
  <g
     inkscape:label="Layer 1"
     inkscape:groupmode="layer"
     id="layer1"
     transform="translate(0,-1036.3622)">
    <g
       id="g4239">
      <path
         sodipodi:nodetypes="cssccsssssccssssscccsssscccsssssccsscc"
         id="rect28130"
         d="m 8,1036.6042 c -0.5372121,0 -0.969697,0.4324 -0.969697,0.9696 v 1.9394 c 0,0.034 0.015641,0.062 0.01894,0.095 -1.9148244,0.3809 -3.422193,1.8883 -3.8030303,3.8031 -0.032678,0 -0.061121,-0.019 -0.094697,-0.019 H 1.2121212 c -0.53721211,0 -0.96969696,0.4325 -0.96969696,0.9697 0,0.5372 0.43248485,0.9697 0.96969696,0.9697 h 1.9393939 c 0.033576,0 0.062019,-0.016 0.094697,-0.019 0.3808373,1.9148 1.8882059,3.4222 3.8030303,3.803 -0.0033,0.033 -0.018939,0.061 -0.018939,0.095 v 1.9394 c 0,0.5372 0.4324849,0.9697 0.969697,0.9697 0.5372121,0 0.969697,-0.4325 0.969697,-0.9697 v -1.9394 c 0,-0.032 -0.014136,-0.058 -0.017046,-0.089 0.00561,0 0.011438,-7e-4 0.017046,0 L 9,1047.3622 c -0.306882,0.1102 -0.6552403,0 -0.9999996,0 -1.6066463,0 -3.0000004,-1.3933 -3.0000004,-3 0,-1.6066 1.3933541,-3 3.0000004,-3 1.6066463,0 2.9999996,1.3934 2.9999996,3 0,0.3449 0.01008,0.6932 -0.1,1 l 1.857576,-0.028 c 0.0011,-0.01 7.7e-4,-0.011 0.0019,-0.017 0.03072,0 0.05751,0.017 0.08901,0.017 h 1.939394 c 0.537212,0 0.969697,-0.4348 0.969697,-0.972 0,-0.5372 -0.432485,-0.9674 -0.969697,-0.9674 h -1.939391 c -0.03358,0 -0.06202,0.016 -0.0947,0.019 -0.380837,-1.9148 -1.888206,-3.4222 -3.80303,-3.8031 0.0033,-0.033 0.018939,-0.061 0.018939,-0.095 v -1.9394 c 0,-0.5372 -0.4324849,-0.9696 -0.969697,-0.9696 z"
         style="fill:#000000;fill-opacity:1;stroke:#ffffff;stroke-width:0.4848485;stroke-miterlimit:4;stroke-dasharray:none;stroke-opacity:1"
         inkscape:connector-curvature="0" />
      <path
         id="path28149"
         d="m 10.275269,1046.6374 v 1.0899 h 1.112366 v 3.2697 c -0.616251,0 -1.112366,0.2431 -1.112366,0.545 0,0.3019 0.496115,0.5449 1.112366,0.5449 h 2.22473 c 0.61625,0 1.112366,-0.243 1.112366,-0.5449 0,-0.3019 -0.496116,-0.545 -1.112366,-0.545 v -4.3596 z"
         style="fill:#000000;fill-opacity:1;stroke:#ffffff;stroke-width:0.55053854;stroke-miterlimit:4;stroke-dasharray:none;stroke-opacity:1"
         inkscape:connector-curvature="0" />
    </g>
  </g>
</svg>
