<?xml version="1.0" encoding="UTF-8" standalone="no"?>
<svg
   xmlns:osb="http://www.openswatchbook.org/uri/2009/osb"
   xmlns:dc="http://purl.org/dc/elements/1.1/"
   xmlns:cc="http://creativecommons.org/ns#"
   xmlns:rdf="http://www.w3.org/1999/02/22-rdf-syntax-ns#"
   xmlns:svg="http://www.w3.org/2000/svg"
   xmlns="http://www.w3.org/2000/svg"
   xmlns:xlink="http://www.w3.org/1999/xlink"
   xmlns:sodipodi="http://sodipodi.sourceforge.net/DTD/sodipodi-0.dtd"
   xmlns:inkscape="http://www.inkscape.org/namespaces/inkscape"
   version="1.1"
   width="16"
   height="16"
   id="svg2"
   viewBox="0 0 16 16"
   inkscape:version="0.91 r13725"
   sodipodi:docname="gimp-tool-smudge.svg">
  <sodipodi:namedview
     pagecolor="#ffffff"
     bordercolor="#666666"
     borderopacity="1"
     objecttolerance="10"
     gridtolerance="10"
     guidetolerance="10"
     inkscape:pageopacity="0"
     inkscape:pageshadow="2"
     inkscape:window-width="640"
     inkscape:window-height="480"
     id="namedview1704"
     showgrid="false"
     inkscape:zoom="9.8333333"
     inkscape:cx="1142.751"
     inkscape:cy="77.887674"
     inkscape:window-x="0"
     inkscape:window-y="27"
     inkscape:window-maximized="0"
     inkscape:current-layer="svg2" />
  <metadata
     id="metadata90">
    <rdf:RDF>
      <cc:Work>
        <dc:format>image/svg+xml</dc:format>
        <dc:type
           rdf:resource="http://purl.org/dc/dcmitype/StillImage" />
        <dc:title>Gimp Color Icon Theme</dc:title>
        <dc:contributor>
          <cc:Agent>
            <dc:title>many unknown and unnamed, Andrew Chadwick, Alexandre Prokoudine, Aryeom Han, Benoit Touchette, Jakub Steiner, Jehan, Johannes Matschke, Kevin Payne, Klaus Staedtler, Marek Dvoroznak, Michael Natterer</dc:title>
          </cc:Agent>
        </dc:contributor>
        <dc:description>Enhanced, extended tango-art-libre for GIMP</dc:description>
      </cc:Work>
    </rdf:RDF>
  </metadata>
  <defs
     id="defs7386">
    <linearGradient
       gradientTransform="matrix(0,-735328.32,170712.69,0,2464326300,577972450)"
       osb:paint="solid"
       id="linearGradient19282">
      <stop
         stop-color="#b4b4b4"
         id="stop19284" />
    </linearGradient>
    <linearGradient
       osb:paint="gradient"
       x1="231.55"
       x2="320.70001"
       gradientUnits="userSpaceOnUse"
       id="linearGradient6057"
       gradientTransform="matrix(0.01502614,0,0,0.01468232,2.9686133,1037.3257)">
      <stop
         stop-color="#a11f7c"
         id="stop6053" />
      <stop
         stop-opacity="0.984"
         stop-color="#541f31"
         offset="1"
         id="stop6055" />
    </linearGradient>
    <linearGradient
       id="linearGradient12352">
      <stop
         stop-color="#8a4a01"
         id="stop12354" />
      <stop
         stop-opacity="0"
         stop-color="#8f5902"
         id="stop12356"
         offset="1" />
    </linearGradient>
    <linearGradient
       y2="253.56821"
       x2="1212.9139"
       y1="256.69321"
       x1="1210.978"
       gradientTransform="matrix(1.131257,0,0,1.140013,-52.416316,354.14824)"
       gradientUnits="userSpaceOnUse"
       id="linearGradient12530"
       xlink:href="#linearGradient12362" />
    <linearGradient
       id="linearGradient12362">
      <stop
         id="stop12364"
         offset="0"
         style="stop-color:#ead7ce;stop-opacity:1;" />
      <stop
         id="stop12366"
         offset="1"
         style="stop-color:#ead7ce;stop-opacity:0;" />
    </linearGradient>
    <linearGradient
       y2="253.56821"
       x2="1212.9139"
       y1="256.69321"
       x1="1210.978"
       gradientTransform="matrix(1.131257,0,0,1.140013,-52.416316,354.14824)"
       gradientUnits="userSpaceOnUse"
       id="linearGradient12532"
       xlink:href="#linearGradient12352" />
    <linearGradient
       osb:paint="solid"
       id="linearGradient5487">
      <stop
         id="stop5485"
         offset="0"
         style="stop-color:#888a85;stop-opacity:1;" />
    </linearGradient>
  </defs>
  <g
     style="display:inline"
     transform="translate(66.775216,-321.56792)"
     id="tools">
    <g
       transform="matrix(0.66666667,0,0,0.66666667,-866.77522,156.23459)"
       id="gimp-tool-smudge"
       style="display:inline">
      <path
         style="display:inline;overflow:visible;visibility:visible;opacity:1;fill:url(#linearGradient12530);fill-opacity:1;fill-rule:evenodd;stroke:url(#linearGradient12532);stroke-width:1;stroke-linecap:round;stroke-linejoin:round;stroke-miterlimit:4;stroke-dasharray:none;stroke-dashoffset:0;stroke-opacity:1;marker:none;marker-start:none;marker-mid:none;marker-end:none;enable-background:accumulate"
         d="m 1219.999,254.2245 c -1.9,1.713 -2.799,2.3176 -3.299,3.6275 -0.5,1.3099 -0.1,3.9298 -0.1,4.5344 0,0.6045 -0.5,1.713 -1.2,2.4183 -0.7,0.7053 -1.3,2.4183 -3.1,2.4183 -1.8,0 -4,0.2016 -4.899,-0.403 -0.8,1.2092 -1.6,2.6198 -2.5,2.6198 -0.9,0 -2.046,0.1871 -2.1,-0.8564 -0.104,-2.0233 1.8,-1.3604 2.1,-2.9726 0.14,-0.7543 -1.6,-2.4183 -1.9,-4.1313 -0.3,-1.713 -0.271,-2.7084 0.429,-3.4138 0.7,-0.7053 2.517,-3.1827 3.417,-3.3842 0.9,-0.2015 2.265,-0.1792 3.265,-0.8845 1,-0.7054 2.288,-2.2931 2.288,-2.2931"
         id="path12305"
         inkscape:connector-curvature="0" />
      <path
         style="display:inline;overflow:visible;visibility:visible;opacity:1;fill:#ac6036;fill-opacity:1;fill-rule:evenodd;stroke:none;stroke-width:1;stroke-linecap:round;stroke-linejoin:round;stroke-miterlimit:4;stroke-dasharray:none;stroke-dashoffset:0;stroke-opacity:1;marker:none;marker-start:none;marker-mid:none;marker-end:none;enable-background:accumulate"
         d="m 1209.35,264.9949 c -0.919,0.0712 -1.344,0.4275 -1.344,0.4275 0,0 -0.141,0.9263 0.283,0.9975 0.424,0.0712 1.131,0 1.343,-0.3563 0.213,-0.3562 -0.282,-0.9975 -0.282,-1.0687 z"
         id="path12329"
         inkscape:connector-curvature="0" />
      <ellipse
         ry="0.6408155"
         rx="0.72920388"
         cy="254.66161"
         cx="1187.74"
         style="display:inline;overflow:visible;visibility:visible;opacity:1;fill:#f6eeea;fill-opacity:1;fill-rule:evenodd;stroke:none;stroke-width:1;stroke-linecap:round;stroke-linejoin:round;stroke-miterlimit:4;stroke-dasharray:none;stroke-dashoffset:0;stroke-opacity:1;marker:none;marker-start:none;marker-mid:none;marker-end:none;enable-background:accumulate"
         id="path12333"
         transform="matrix(1.103811,-0.5561777,0.4186871,0.8438557,-210.2145,702.3399)" />
      <ellipse
         ry="0.6408155"
         rx="0.72920388"
         cy="254.66161"
         cx="1187.74"
         transform="matrix(1.103811,-0.5561777,0.4186871,0.8438557,-209.0833,703.4799)"
         id="path12335"
         style="display:inline;overflow:visible;visibility:visible;opacity:1;fill:#f6eeea;fill-opacity:1;fill-rule:evenodd;stroke:none;stroke-width:1;stroke-linecap:round;stroke-linejoin:round;stroke-miterlimit:4;stroke-dasharray:none;stroke-dashoffset:0;stroke-opacity:1;marker:none;marker-start:none;marker-mid:none;marker-end:none;enable-background:accumulate" />
      <ellipse
         ry="0.6408155"
         rx="0.72920388"
         cy="254.66161"
         cx="1187.74"
         style="display:inline;overflow:visible;visibility:visible;opacity:1;fill:#f6eeea;fill-opacity:1;fill-rule:evenodd;stroke:none;stroke-width:1;stroke-linecap:round;stroke-linejoin:round;stroke-miterlimit:4;stroke-dasharray:none;stroke-dashoffset:0;stroke-opacity:1;marker:none;marker-start:none;marker-mid:none;marker-end:none;enable-background:accumulate"
         id="path12338"
         transform="matrix(1.103811,-0.5561777,0.4186871,0.8438557,-207.952,704.6199)" />
      <path
         style="display:inline;overflow:visible;visibility:visible;opacity:1;fill:#f6eeea;fill-opacity:1;fill-rule:evenodd;stroke:none;stroke-width:1;stroke-linecap:round;stroke-linejoin:round;stroke-miterlimit:4;stroke-dasharray:none;stroke-dashoffset:0;stroke-opacity:1;marker:none;marker-start:none;marker-mid:none;marker-end:none;enable-background:accumulate"
         d="m 1209.3,260.2703 c -0.15,0.8565 -3.999,5.9451 -5.399,7.3054 -0.469,0.456 -0.087,1.5986 0.6,0.9069 1.45,-1.4611 4.249,-4.5848 5.799,-7.5069 0.316,-0.5961 -0.45,-1.1084 -1,-0.7054 z"
         id="path12340"
         inkscape:connector-curvature="0" />
      <path
         style="display:inline;overflow:visible;visibility:visible;opacity:1;fill:#b78469;fill-opacity:1;fill-rule:evenodd;stroke:none;stroke-width:1;stroke-linecap:round;stroke-linejoin:round;stroke-miterlimit:4;stroke-dasharray:none;stroke-dashoffset:0;stroke-opacity:1;marker:none;marker-start:none;marker-mid:none;marker-end:none;enable-background:accumulate"
         d="m 1205.251,265.2078 3.899,-5.0886 c 0,0 -0.1,-1.3099 -0.85,-0.5542 -0.749,0.7557 -2.299,2.2672 -2.449,2.8214 -0.15,0.5542 -0.55,2.8718 -0.6,2.8214 z"
         id="path12342"
         inkscape:connector-curvature="0" />
      <path
         style="display:inline;overflow:visible;visibility:visible;opacity:1;fill:#b78469;fill-opacity:1;fill-rule:evenodd;stroke:none;stroke-width:1;stroke-linecap:round;stroke-linejoin:round;stroke-miterlimit:4;stroke-dasharray:none;stroke-dashoffset:0;stroke-opacity:1;marker:none;marker-start:none;marker-mid:none;marker-end:none;enable-background:accumulate"
         d="m 1208.1,258.8597 c -1.049,0.9068 -2.349,2.0152 -2.799,2.7206 -0.45,0.7053 -1.1,2.3679 -1.1,2.3679 0,0 0.1,-2.6198 0.6,-3.2748 0.5,-0.655 2.05,-2.2168 2.5,-2.2168 0.45,0 0.849,0.4031 0.799,0.4031 z"
         id="path12344"
         inkscape:connector-curvature="0" />
      <path
         id="path12346"
         d="m 1207.328,257.2978 c -1.05,0.9069 -2.35,2.0153 -2.8,2.7206 -0.45,0.7054 -1.1,2.368 -1.1,2.368 0,0 0.1,-2.6199 0.6,-3.2748 0.5,-0.655 2.05,-2.2169 2.5,-2.2169 0.45,0 0.85,0.4031 0.8,0.4031 z"
         style="display:inline;overflow:visible;visibility:visible;opacity:1;fill:#b78469;fill-opacity:1;fill-rule:evenodd;stroke:none;stroke-width:1;stroke-linecap:round;stroke-linejoin:round;stroke-miterlimit:4;stroke-dasharray:none;stroke-dashoffset:0;stroke-opacity:1;marker:none;marker-start:none;marker-mid:none;marker-end:none;enable-background:accumulate"
         inkscape:connector-curvature="0" />
      <path
         style="display:inline;overflow:visible;visibility:visible;opacity:1;fill:#8f5902;fill-opacity:1;fill-rule:evenodd;stroke:none;stroke-width:1;stroke-linecap:round;stroke-linejoin:round;stroke-miterlimit:4;stroke-dasharray:none;stroke-dashoffset:0;stroke-opacity:1;marker:none;marker-start:none;marker-mid:none;marker-end:none;enable-background:accumulate"
         d="m 1207.158,266.4912 c 0,0 3.959,-4.2038 4.383,-4.3463 0.425,-0.1425 1.556,-0.4275 1.556,0.4275 0,0.855 -0.212,1.8525 -0.919,1.9237 -0.707,0.0713 -2.051,-0.285 -2.475,-0.1424 -0.424,0.1424 -2.474,2.0662 -2.545,2.1375 z"
         id="path12348"
         inkscape:connector-curvature="0" />
      <rect
         y="248"
         x="1200"
         height="24"
         width="24"
         id="rect12491"
         style="display:inline;opacity:1;fill:none;fill-opacity:0.37226281;fill-rule:evenodd;stroke:none;stroke-width:1;stroke-linecap:round;stroke-linejoin:round;stroke-miterlimit:0;stroke-dasharray:none;stroke-dashoffset:0;stroke-opacity:1;marker:none;marker-start:none;marker-mid:none;marker-end:none" />
    </g>
  </g>
</svg>
