<svg height="16" viewBox="0 0 16 16" width="16" xmlns="http://www.w3.org/2000/svg" xmlns:xlink="http://www.w3.org/1999/xlink"><linearGradient id="a" gradientTransform="matrix(.87935 -.07437292 .07703828 .848926 -18.417151 -18.747073)" gradientUnits="userSpaceOnUse" x1="28.058632" x2="33.436985" y1="18.867767" y2="23.742767"><stop offset="0" stop-color="#6e3d09"/><stop offset=".24242425" stop-color="#ea8113"/><stop offset=".62121212" stop-color="#5c3307"/><stop offset="1" stop-color="#e07c12"/></linearGradient><linearGradient id="b" gradientTransform="matrix(1.356127 -.219769 .227645 1.309208 -32.05138 -32.311441)" gradientUnits="userSpaceOnUse" x1="19.394735" x2="23.109331" y1="30.001331" y2="33.438831"><stop offset="0" stop-color="#bdbdbd"/><stop offset=".33333334" stop-color="#e2e2e2"/><stop offset=".66666669" stop-color="#a3a3a3"/><stop offset="1" stop-color="#ddd"/></linearGradient><radialGradient id="c" cx="15.415101" cy="35.356506" gradientTransform="matrix(.584317 0 0 .549734 -12.035061 -8.383133)" gradientUnits="userSpaceOnUse" r="7.579156"><stop offset="0" stop-color="#696969"/><stop offset="1"/></radialGradient><g transform="matrix(.4966552 0 0 .50160171 6.707241 7.30215)"><path d="m1.880007.390614 6.166172 4.218273c5.776248-6.5301 9.110705-17.663007 9.110705-17.663007.283343-1.07141-.778668-1.32072-1.382605-.563567 0 0-8.9019 7.384103-13.894272 14.008301z" fill="url(#a)" stroke="#673907" stroke-linecap="round"/><path d="m2.906028.727447 4.203637 3.360672c6.3456-7.19205 8.687017-16.297389 8.687017-16.297389s-7.406194 5.641032-12.890654 12.936717z" fill="none" opacity=".333333" stroke="#fff"/><path d="m-2.531061 9.502156 3.486519 2.038104 7.031991-6.699469c-.948999-1.94949-4.112022-4.490573-6.654761-4.078507z" fill="url(#b)" stroke="#888a85" stroke-linecap="round" stroke-width="1.000001"/><path d="m-12.498089 17.325227c12.009594.0849 14.031177-.03171 14.694027-4.850339.542698-3.94517-6.498481-5.648707-8.88957-1.235576-1.930787 3.563572-5.804457 6.085915-5.804457 6.085915z" fill="url(#c)"/><ellipse cx="-3.249664" cy="11.638556" fill="#fff" opacity=".527778" rx="1.532032" ry="1.479027"/><path d="m2.832601 2.79379-2.921933 5.500447" fill="none" stroke="#fff" stroke-linecap="round" stroke-linejoin="round" stroke-width="1.000001"/></g><rect fill="#fff" height="16" opacity="0" rx="1.703143" ry="1.236986" width="16"/></svg>