<svg height="16.000277" viewBox="0 0 15.999999 16.000276" width="15.999999" xmlns="http://www.w3.org/2000/svg" xmlns:xlink="http://www.w3.org/1999/xlink"><linearGradient id="a"><stop offset="0" stop-color="#424242"/><stop offset="1" stop-color="#777"/></linearGradient><linearGradient id="b" gradientUnits="userSpaceOnUse" x1="796.60277551372" x2="795.58777710501" xlink:href="#a" y1="258.3084037909" y2="248.4673553659"/><linearGradient id="c" gradientUnits="userSpaceOnUse" x1="1022.11945" x2="1017.19251" xlink:href="#a" y1="1348.82436" y2="1352.53469"/><linearGradient id="d" gradientUnits="userSpaceOnUse" x1="-37.50228" x2="-48.06468" xlink:href="#a" y1="1500.3371" y2="1505.60102"/><linearGradient id="e" gradientUnits="userSpaceOnUse" x1="798.19034106452" x2="798.14711077954" y1="260.50430027009" y2="258.57516174509"><stop offset="0" stop-color="#6194cb"/><stop offset="1" stop-color="#729fcf"/></linearGradient><linearGradient id="f" gradientTransform="matrix(.51475824 0 0 .31892069 789.18227 245.53763)" gradientUnits="userSpaceOnUse" x1="13.035696" x2="12.853771" y1="32.567184" y2="46.689312"><stop offset="0" stop-color="#fff" stop-opacity=".796078"/><stop offset="1" stop-color="#fff" stop-opacity=".215686"/></linearGradient><linearGradient id="g" gradientUnits="userSpaceOnUse" x1="1252.352031" x2="1268.352031" xlink:href="#a" y1="1398.52924" y2="1398.52924"/><g transform="translate(-.08186 -31.836001)"><path d="m.65685819 47.315612c.008516.162654.17969018.32531.34234522.32531h12.23983059c.162654 0 .316794-.162656.308278-.32531l-.36588-10.637802c-.0085-.162654-.179687-.325312-.342341-.325312h-5.1850844c-.1895174 0-.482323-.123305-.5476386-.432374l-.2388776-1.130357c-.0607435-.287436-.3446912-.405514-.507346-.405514h-5.77427186c-.16265824 0-.31679709.162655-.30828118.32531z" fill="#fff" stroke="url(#b)" stroke-linecap="round" stroke-linejoin="round" stroke-width=".390712"/><g transform="matrix(.61703962 0 0 .60535253 22.886957 -592.7306)"><path d="m-25.985069 1047.7596h12.5v-5h-12.5c-1.38071 0-2.5 1.1192-2.5 2.5 0 1.3807 1.11929 2.5 2.5 2.5z" fill="#bebebe" stroke="url(#g)" stroke-linecap="round" stroke-linejoin="round"/><path id="h" d="m305.89648 230.49414c-.77533.0165-1.52756.93771-1.38671 1.69922a.99446835.99446835 0 0 1 .006.0469c.0902.66322.80075 1.27805 1.46485 1.26563a.99446835.99446835 0 0 1 .0195 0h11.50586v-3.01172c-3.87231.0004-7.74026-.006-11.60938 0z" fill="none" opacity=".3" stroke="#fff" stroke-linecap="round" stroke-linejoin="round" transform="translate(-331.98506 813.2596)"/><g enable-background="new" transform="matrix(.73598908 -.67699341 .67699341 .73598908 -400.88366 1088.4233)"><path d="m306 224.5h12.5v-5h-12.5c-1.38071 0-2.5 1.11929-2.5 2.5s1.11929 2.5 2.5 2.5z" fill="#f57900" stroke="url(#c)" stroke-linecap="round" stroke-linejoin="round"/><use height="300" transform="translate(331.98506 -823.2596)" width="400" xlink:href="#h"/></g><g enable-background="new" fill="#edd400" transform="matrix(0 -1 1 0 -248.19134 1350.7403)"><path d="m306 224.5h12.5v-5h-12.5c-1.38071 0-2.5 1.11929-2.5 2.5s1.11929 2.5 2.5 2.5z" stroke="url(#d)" stroke-linecap="round" stroke-linejoin="round"/><use height="300" transform="translate(331.98506 -823.2596)" width="400" xlink:href="#h"/></g><g enable-background="new"><circle cx="-25.98506" cy="1045.2596" fill="#888a85" r="1"/><circle cx="-26.17935476" cy="1045.12590528" fill="#fff" r=".50281554"/></g></g><path d="m14.434034 47.637247c.446932-.01722.766996-.428337.7998-.906844.30936-4.512206.648331-8.295569.648331-8.295569.02819-.0967-.0656-.193389-.187596-.193389h-13.4292098s-.7229411 8.543648-.7229411 8.543648c-.044758.383705-.1820746.705124-.60553886.853202l13.49715476-.001055z" display="block" fill="url(#e)" stroke="#3465a4" stroke-linejoin="round" stroke-width=".390712"/><path d="m2.6488872 38.632634 12.8118628.02532-.614998 7.815005c-.03294.418652-.176085.55802-.731669.55802-.731217 0-11.2048144-.01266-12.2662895-.01266.091269-.125344.1304022-.386266.130926-.392513l.6701677-7.993171z" fill="none" opacity=".465909" stroke="url(#f)" stroke-linecap="round" stroke-width=".390711"/></g></svg>