<?xml version="1.0" encoding="UTF-8" standalone="no"?>
<svg
   xmlns:osb="http://www.openswatchbook.org/uri/2009/osb"
   xmlns:dc="http://purl.org/dc/elements/1.1/"
   xmlns:cc="http://creativecommons.org/ns#"
   xmlns:rdf="http://www.w3.org/1999/02/22-rdf-syntax-ns#"
   xmlns:svg="http://www.w3.org/2000/svg"
   xmlns="http://www.w3.org/2000/svg"
   xmlns:xlink="http://www.w3.org/1999/xlink"
   xmlns:sodipodi="http://sodipodi.sourceforge.net/DTD/sodipodi-0.dtd"
   xmlns:inkscape="http://www.inkscape.org/namespaces/inkscape"
   version="1.1"
   width="16"
   height="15.999958"
   id="svg2"
   viewBox="0 0 16 15.999958"
   inkscape:version="0.91 r13725"
   sodipodi:docname="gimp-tool-n-point-deformation.svg">
  <sodipodi:namedview
     pagecolor="#ffffff"
     bordercolor="#666666"
     borderopacity="1"
     objecttolerance="10"
     gridtolerance="10"
     guidetolerance="10"
     inkscape:pageopacity="0"
     inkscape:pageshadow="2"
     inkscape:window-width="501"
     inkscape:window-height="405"
     id="namedview1704"
     showgrid="false"
     inkscape:zoom="14.716454"
     inkscape:cx="-238.52695"
     inkscape:cy="-310.72299"
     inkscape:window-x="0"
     inkscape:window-y="27"
     inkscape:window-maximized="0"
     inkscape:current-layer="svg2" />
  <metadata
     id="metadata90">
    <rdf:RDF>
      <cc:Work>
        <dc:format>image/svg+xml</dc:format>
        <dc:type
           rdf:resource="http://purl.org/dc/dcmitype/StillImage" />
        <dc:title>Gimp Color Icon Theme</dc:title>
        <dc:contributor>
          <cc:Agent>
            <dc:title>many unknown and unnamed, Andrew Chadwick, Alexandre Prokoudine, Aryeom Han, Benoit Touchette, Jakub Steiner, Jehan, Johannes Matschke, Kevin Payne, Klaus Staedtler, Marek Dvoroznak, Michael Natterer</dc:title>
          </cc:Agent>
        </dc:contributor>
        <dc:description>Enhanced, extended tango-art-libre for GIMP</dc:description>
      </cc:Work>
    </rdf:RDF>
  </metadata>
  <defs
     id="defs7386">
    <linearGradient
       gradientTransform="matrix(0,-735328.32,170712.69,0,2464326300,577972450)"
       osb:paint="solid"
       id="linearGradient19282">
      <stop
         stop-color="#b4b4b4"
         id="stop19284" />
    </linearGradient>
    <linearGradient
       osb:paint="gradient"
       x1="231.55"
       x2="320.70001"
       gradientUnits="userSpaceOnUse"
       id="linearGradient6057"
       gradientTransform="matrix(0.01502614,0,0,0.01468232,2.9686133,1037.3257)">
      <stop
         stop-color="#a11f7c"
         id="stop6053" />
      <stop
         stop-opacity="0.984"
         stop-color="#541f31"
         offset="1"
         id="stop6055" />
    </linearGradient>
    <linearGradient
       id="linearGradient3173">
      <stop
         stop-color="#6d706a"
         id="stop3175" />
      <stop
         stop-color="#2d2e2c"
         id="stop3177"
         offset="1" />
    </linearGradient>
    <linearGradient
       gradientTransform="translate(713.46154,491.1457)"
       gradientUnits="userSpaceOnUse"
       x2="979.5885"
       x1="943.73547"
       id="linearGradient8421"
       xlink:href="#linearGradient3173" />
    <linearGradient
       gradientTransform="translate(713.46154,491.1457)"
       gradientUnits="userSpaceOnUse"
       x2="978.96454"
       x1="943.65546"
       id="linearGradient8413"
       xlink:href="#linearGradient3173" />
    <linearGradient
       x2="320.70001"
       x1="231.55"
       gradientTransform="matrix(0.0149486,0,0,0.0136025,252.10561,124.76543)"
       gradientUnits="userSpaceOnUse"
       id="linearGradient11762-4"
       xlink:href="#linearGradient6057" />
    <linearGradient
       x2="320.70001"
       x1="231.55"
       gradientTransform="matrix(0.0149486,0,0,0.0136025,249.81728,124.96547)"
       gradientUnits="userSpaceOnUse"
       id="linearGradient11762-4-1"
       xlink:href="#linearGradient6057" />
    <linearGradient
       osb:paint="solid"
       id="linearGradient5487">
      <stop
         id="stop5485"
         offset="0"
         style="stop-color:#888a85;stop-opacity:1;" />
    </linearGradient>
  </defs>
  <g
     style="display:inline"
     transform="translate(-110.5027,-184.97554)"
     id="tools">
    <g
       id="gimp-tool-n-point-deformation"
       transform="matrix(1,0,0,0.99772305,110.5027,185.01193)">
      <g
         id="gimp-tool-n-point-deformation-8"
         transform="matrix(0.99483991,0,0,0.92645423,-0.16791327,-960.14255)">
        <path
           id="path4257-4"
           d="m 12.727109,1037.4967 -0.355692,9.1507"
           style="fill:none;fill-rule:evenodd;stroke:#000000;stroke-width:0.270365"
           inkscape:connector-curvature="0" />
        <path
           id="path4253-1"
           d="m 2.6254589,1041.4704 2.7032582,9.8782"
           style="fill:none;fill-rule:evenodd;stroke:#000000;stroke-width:0.270365;stroke-linecap:round"
           inkscape:connector-curvature="0" />
        <g
           transform="matrix(0.34732867,0,0,0.27325738,-310.3608,1427.3192)"
           id="g10404-8-6">
          <g
             transform="translate(-44.95,-51.196)"
             id="g10376-9-6-5">
            <path
               d="m 946.85,-1376.5 29.624,12.653"
               id="path10361-5-0-3"
               style="fill:none;stroke:url(#linearGradient8421);stroke-width:4.74620008;stroke-linecap:square"
               inkscape:connector-curvature="0" />
            <path
               d="m 975.69,-1376.4 -28.76,13.91"
               id="path10374-3-8-4"
               style="fill:none;stroke:url(#linearGradient8413);stroke-width:4.90329981;stroke-linecap:square"
               inkscape:connector-curvature="0" />
          </g>
        </g>
      </g>
      <path
         style="fill:#f57900;fill-opacity:1;stroke:#000000;stroke-width:0.49148944"
         id="path10353-1"
         d="M 9.7102282,14.676201 C 8.3743075,13.354866 7.9775309,13.351329 6.9559157,14.65093 6.2459374,15.554496 5.159425,15.780412 4.5015556,15.161492 3.9052704,14.60039 4.0645705,13.919607 5.0708967,12.728264 6.3243449,11.244391 6.1728055,10.76567 4.3505361,10.452419 2.6431414,10.15898 1.9763786,9.417347 2.758308,8.6815765 3.1065034,8.3539721 3.8539135,8.2239816 5.3911669,8.2239816 c 1.1806083,0 2.146588,-0.076822 2.146588,-0.1725457 0,-0.095016 -0.2788354,-0.506215 -0.6196248,-0.9138757 C 6.1550782,6.2247964 5.5399138,4.9822045 6.2498485,4.39563 7.2961989,3.531082 10.039063,3.5668647 10.875739,4.3531758 11.756763,5.1821433 10.548424,6.5206613 9.8613568,7.0572006 8.8654589,7.8349198 9.3213369,8.223173 11.23017,8.223173 c 2.207162,0 2.81366,0.1876068 2.81366,0.8700064 0,0.691699 -0.516605,1.0486166 -2.091229,1.4446536 -1.55972,0.392397 -1.677185,0.901847 -0.542169,2.349229 0.646999,0.825127 1.089121,2.623463 0.64496,2.623463 -0.07126,0 -0.355512,0.08188 -0.631664,0.18134 -0.337461,0.121702 -0.899319,-0.211563 -1.7133742,-1.016877 z"
         inkscape:connector-curvature="0" />
      <path
         id="path6003-7"
         d="M 9.700741,5.0750982 C 9.4430461,5.0852063 9.2119631,5.2157022 9.1232999,5.3900674 8.9948132,5.6188143 9.0873341,5.914477 9.3682634,6.0610448 9.5431597,6.1540396 9.7910032,6.1691007 9.9807176,6.0893476 10.244873,5.9849306 10.37653,5.7507253 10.340755,5.537646 10.313534,5.3507468 10.153647,5.1674865 9.9075267,5.1002674 9.8423899,5.0840944 9.7673972,5.0709539 9.700741,5.0749971 Z M 9.5993718,5.3731868 C 9.7115053,5.3903706 9.7226506,5.5245055 9.61893,5.5552342 9.541618,5.5714072 9.4892333,5.5036827 9.5009209,5.4540518 c 0.00415,-0.039422 0.044741,-0.077833 0.098451,-0.080865 z m 0.3382114,0.06267 C 10.049996,5.4520298 10.060733,5.5870744 9.9571422,5.617702 9.8798352,5.633875 9.8276561,5.567161 9.8395787,5.5166207 c 0.00323,-0.040432 0.045173,-0.078843 0.098008,-0.080865 z M 9.5054785,5.6573263 c 0.088713,0 0.1224438,0.089962 0.086574,0.1412105 -0.020977,0.048519 -0.1174123,0.058627 -0.1520502,0.014151 -0.047984,-0.048519 -0.025619,-0.1406041 0.065465,-0.1523295 l 1.01e-5,0 z m 0.3171945,0.04953 c 0.089012,0 0.1223791,0.089962 0.086576,0.1411094 -0.020974,0.04953 -0.1174122,0.058627 -0.1520502,0.013141 -0.047883,-0.04953 -0.026034,-0.1412105 0.065475,-0.1522284 l 10e-7,0 z"
         style="color:#000000;fill:url(#linearGradient11762-4);stroke:#000000;stroke-width:0.05052648;stroke-opacity:0.62963011"
         inkscape:connector-curvature="0" />
      <path
         id="path6003-7-7"
         d="M 7.4124138,5.2752391 C 7.154719,5.2853472 6.9236359,5.415742 6.8349728,5.5901072 6.7064861,5.8188541 6.799007,6.1145168 7.0799363,6.2610846 7.2548325,6.3540794 7.5026761,6.3692416 7.6923903,6.2893874 7.9565476,6.1849704 8.0882031,5.9507652 8.0524292,5.7376859 8.0252091,5.5507866 7.8653205,5.3675263 7.6191997,5.3003072 7.5540589,5.2841342 7.47907,5.2709937 7.4124138,5.2750369 Z M 7.3110447,5.5732266 C 7.4231782,5.5904105 7.4343235,5.7245453 7.3306029,5.755274 7.2532909,5.771447 7.2009062,5.7037226 7.2125938,5.6540917 7.2167482,5.61467 7.2573354,5.5762591 7.3110449,5.5732266 Z M 7.649256,5.635897 C 7.7616682,5.65207 7.7724051,5.7870135 7.6688142,5.8177422 7.5915022,5.8339152 7.5393283,5.7672016 7.551251,5.716661 7.554491,5.676228 7.596428,5.637818 7.649256,5.635796 Z M 7.2171514,5.857265 c 0.088713,0 0.1224438,0.089962 0.086574,0.1412105 -0.020977,0.048519 -0.1174123,0.059638 -0.1520502,0.014151 -0.047984,-0.048519 -0.025619,-0.1407051 0.065465,-0.1524306 l 1.02e-5,0 z m 0.3171944,0.04953 c 0.089007,0 0.122379,0.089962 0.086575,0.1411094 -0.020977,0.04953 -0.1174122,0.058627 -0.1520502,0.013141 -0.047883,-0.04953 -0.026034,-0.1412105 0.065475,-0.1523295 l 1e-6,0 z"
         style="color:#000000;fill:url(#linearGradient11762-4-1);stroke:#000000;stroke-width:0.05052648;stroke-opacity:0.62963011"
         inkscape:connector-curvature="0" />
      <rect
         style="color:#000000;clip-rule:nonzero;display:inline;overflow:visible;visibility:visible;opacity:0;isolation:auto;mix-blend-mode:normal;color-interpolation:sRGB;color-interpolation-filters:linearRGB;solid-color:#000000;solid-opacity:1;fill:#ffffff;fill-opacity:1;fill-rule:nonzero;stroke:none;stroke-width:0.5;stroke-linecap:round;stroke-linejoin:round;stroke-miterlimit:4;stroke-dasharray:none;stroke-dashoffset:0;stroke-opacity:1;color-rendering:auto;image-rendering:auto;shape-rendering:auto;text-rendering:auto;enable-background:accumulate"
         id="rect4061"
         width="16"
         height="16"
         x="0"
         y="0"
         rx="0.19430754"
         ry="0.83231664" />
    </g>
  </g>
</svg>
