<svg height="16" viewBox="0 0 16 16" width="16" xmlns="http://www.w3.org/2000/svg"><path d="m0 0h16v16h-16z" opacity="0"/><path d="m.50390625 2.1953125c-.16263963 0-.31710869.1670602-.30859375.3339844l.37890625 12.9375001c.008515.166924.17916045.332031.34179687.332031h12.24023438c.162635 0 .315156-.165107.306641-.332031l-.142579-4.267578-1.121093 2.800781h-8.199219l2.7011719-6.7519531.0996093-.2480469h6.3789068l-.082032-2.4511719c-.008516-.1669237-.17916-.3339843-.341797-.3339843h-5.1855465c-.1894957 0-.4815668-.1261773-.546875-.4433594l-.2382813-1.1601563c-.0607365-.2949806-.3451763-.4160156-.5078124-.4160156zm6.77539065 5.65625-2.1191407 5.2968755h6.5605468l1.537109-3.8398442-.04883-1.4570313z" fill="#babdb6" stroke="#424242" stroke-linecap="round" stroke-linejoin="round" stroke-width=".395168" transform="matrix(.99962408276 0 0 1.00006179296 .00264366687 -.99786375674)"/><path d="m2.2949219 5.9511719-.7167969 8.9511721c-.044383.40207-.1796925.739366-.59960938.894531h13.38281238c.443189-.01804.76044-.449762.792969-.951172.306768-4.728173.644531-8.6914061.644531-8.6914061.02795-.1013229-.06653-.203125-.1875-.203125zm4.5058593 1.0488281h8.1992188l-2.800781 7h-8.199219l2.7011719-6.7519531zm.4785157.8515625-2.1191407 5.2968755h6.5605468l2.119141-5.2968755z" display="block" fill="#fcaf3e" stroke="#ce5c00" stroke-linejoin="round" stroke-width=".4" transform="matrix(.99962408276 0 0 1.00006179296 .00264366687 -.99786375674)"/><path d="m9.6202444 16.463921 32.7910986.06481-1.574046 20.001979c-.08432 1.071511-.450678 1.428215-1.872656 1.428215-1.871502 0-28.677968-.03241-31.394742-.03241.2335983-.320811.3337557-.988623.3350963-1.004612z" fill="none" opacity=".465909" stroke-linecap="round" stroke-width="1.004529" transform="matrix(.38741903009 0 0 .3993190413 -1.05164772213 -.9754943578)"/></svg>