<svg height="16" viewBox="0 0 16 16" width="16" xmlns="http://www.w3.org/2000/svg"><g transform="matrix(1 0 0 .98606351936 0 .14813450772)"><path d="m.40603445 15.839702c-.0034-1.139833.86921695-2.024985 1.17358195-3.089875.326736-1.117312.935225-2.105522 1.667885-3.0003782.613812-.928382 1.543158-1.816039 1.16573-3.033328-.0081-1.603841-.314761-3.254295.128841-4.822437.346762-1.30941905 1.759805-1.99810535 3.039804-1.88080835 1.729382-.129703 3.6160296 1.04409735 3.7589676 2.87772435.25335 1.658097.0089 3.482958.99911 4.943959.898068 1.887392 2.629146 3.3115382 3.129076 5.3985622.216558 1.043596-.885381 1.569311-1.261158 2.618904-4.5909276.04711-1.893401.146207-13.80183755-.01232z" fill="#eeeeec" stroke="#d3d7cf" stroke-width=".3"/><path d="m0 0h16v16h-16z" opacity="0"/><g transform="matrix(.022407111 0 0 .022407111 -2.30924894458 -.06402607231)"><path d="m552 300.4c0 25.1-29.9 30.4-44.4 39.4-13.5 12.5-91.2 47.8-111.8 47.8-33.1-7-73.4-56.4-78.6-89.2 0-19.1 24.3-34.4 37.9-46.9 13.5-12.5 29.1-24.3 55.7-19.3 20.6 0 52.8 9.8 66.3 22.3 27 9 74.9 14.8 74.9 45.9z" fill="#f8bf11"/><path d="m121.17956 709.7625c-.1499-50.86924 38.79198-90.37239 52.37542-137.89707 14.58178-49.86417 41.73785-93.96666 74.43552-133.90293 27.39361-41.43249 68.86913-81.04743 52.025-135.37344-.36243-71.57736-14.04735-145.23496 5.75-215.21906 15.47555-58.437678 78.53779-89.1728389 135.6625-83.938 77.18003-5.7884971 161.37864 46.596692 167.75781 128.42905 11.30664 73.99869.39736 155.43984 44.58894 220.64244 40.07963 84.23181 117.33538 147.78957 139.64656 240.93071 9.66472 46.57434-39.51336 70.03631-56.28381 116.8783-204.88708 2.10256-84.5 6.525-615.95794-.55zm531.45794 7.075c19.31905-29.40971 85.72745 6.14497 84.5-6.525-54.31179-15.78815-7.54585-67.65335-19.40593-106.92075-6.35865-52.00873-33.87997-100.96037-69.60833-138.5437-31.93972-15.72093 33.51481 55.52205 37.11323 78.62461 19.71957 45.59941 35.48052 106.70936 2.79458 149.81132-26.61209 21.20763-51.13779-3.36027-42.90713-30.95623 1.63225-51.3197-4.36834-103.98567-33.90361-147.62721-29.70417-44.2774-28.16903-102.75003-65.18828-143.22339-32.79161-36.02554 25.36933-105.78953-47.81289-108.5752-60.53965.0115-41.5545-105.89715 12.01836-66.00195 23.37644 15.217-18.57793 71.12165 25.8625 55 18.90108-42.4573-7.46832-115.16503-64.0625-100.8375-56.73891 10.64381-3.83612 109.77033-70.1375 80.0375-16.19235-16.01004-14.11163-103.216-66.3625-66.05-27.23626 14.57448-13.48267 121.91614 14.4625 80.65-47.32688-18.91577 5.1817-93.09863 25.11758-35.98125 20.27953 46.32654-99.58246 69.00228-31.57539 107.88125 34.3689 41.63683 95.60597 8.82024 137.72383-4.22559 15.26984-12.27738 59.05307-26.56927 25.34921-.66816-45.1509 13.47683-87.16231 45.39708-136.51523 36.09375-38.35164-.73026 34.0635 42.75596 50.01699 22.77383 29.91203-1.24838 75.86456-49.97234 93.6002-28.60821-38.11581 19.69657-72.83992 48.46194-109.60625 69.78282-44.21205 24.07945-70.43937-99.75938-84.59688-31.42754-32.05282 40.72214-25.35439 92.98533-43.51406 136.0791-37.16506 57.27992-53.59888 125.80234-49.9375 193.7375-180.410118-117.70654 270.5474 9.38421 426.575 5.7zm-279.6375-462.9375c-1.1845-21.40198 39.33031-8.27237 0 0zm59.3-4.3c-27.74433-16.26794 33.93784.73266 0 0zm-208.2 280.3c23.68289-13.5021 2.1361-45.41881-3.975-8.925-13.48506 10.09828-12.49155 28.70555 3.975 8.925zm384.6-168.8c28.3202-23.01681-56.31043-65.02966-28.6-22.5 5.29732 9.26756 16.76111 24.20301 28.6 22.5zm-240.6-133.9c-1.34435-39.72954-27.07508-27.27585-3.1 2.8l1.6625-.5375zm140.9-2.8c7.431-31.43328-45.24786-37.20372-8.25469-9.49375 2.05639 2.86743.88156 15.62036 8.25469 9.49375zm6.7-134.7c30.3167-1.299633 29.46996-19.340652 1.7-30.29-10.18521-3.12921-28.50359 55.91499-1.7 30.29z"/></g></g></svg>