<svg height="16" viewBox="0 0 16 16" width="16" xmlns="http://www.w3.org/2000/svg" xmlns:xlink="http://www.w3.org/1999/xlink"><linearGradient id="a" gradientUnits="userSpaceOnUse" x1="-109.97533" x2="-87.57193" y1="193.08186" y2="193.08186"><stop offset="0" stop-color="#fff"/><stop offset="1" stop-color="#fff" stop-opacity="0"/></linearGradient><linearGradient id="b" gradientUnits="userSpaceOnUse" x1="-108.08588" x2="-84.290665" y1="201.87247" y2="178.38474"><stop offset="0" stop-color="#5382b9"/><stop offset="1" stop-color="#3565a5"/></linearGradient><g stroke-width=".918537" transform="matrix(.71412852 0 0 .70403975 78.537119 -127.63407)"><path d="m-109.5169 193.9456c8.2165 1.6913 5.1224-7.85 10.71653-11.5841 1.72915-1.1542 6.23552-.8058 7.60383 2.2962 1.01863 2.3092.57299 3.7792-.88086 3.3379-1.52946-.4643-1.24291-2.3104-3.81779-1.813-1.3025.2516-2.0822 2.3434-1.10913 4.6913 1.09776 2.6488 3.352 4.4227 8.9464 3.0717v9.5976h-21.45898z" fill="url(#b)" stroke="#000"/><path d="m-96.8577 182.6385c-2.71067.552-4.0177 3.4163-4.8478 5.9037-.7258 2.2595-1.4135 5.0237-3.7438 6.0105-1.0107.3882-2.9612.5448-4.0361.3826l-.0291 8.5583 21.4833.06v-8.5582c-2.78224.4279-5.92299.3649-8.21536-1.4697-2.01583-1.6882-2.67843-5.0914-1.22227-7.3482 1.45069-1.684 4.46573-.982 5.41291.8999.78385.398.53026-.7543.39943-1.2072-.63017-2.1587-3.02208-3.4761-5.20121-3.2317z" fill="none" stroke="url(#a)"/></g></svg>