<svg height="16" viewBox="0 0 16 16" width="16" xmlns="http://www.w3.org/2000/svg" xmlns:xlink="http://www.w3.org/1999/xlink"><linearGradient id="a" gradientUnits="userSpaceOnUse" x1="7.595089" x2="13.03125" y1="1044.3309" y2="1044.2997"><stop offset="0" stop-color="#888a85"/><stop offset="1" stop-color="#888a85" stop-opacity="0"/></linearGradient><g transform="matrix(1.0000724 0 0 .99990512 -.000621 -1036.263055)"><g stroke="#555357" stroke-width=".995792" transform="matrix(.99777204944 0 0 1.01006831083 37.67617960095 -6.05825299993)"><path d="m-29.696996 1032.5269c-4.132275-.018-7.525279 3.3498-7.560267 7.4806l2.031963-.1153c.09809-3.043 2.53709-5.375 5.582717-5.3644 3.045856.015 5.340276 2.3577 5.412062 5.4016l2.007541.041c.000322-4.1315-3.341087-7.4245-7.474016-7.4413z" fill="#fff"/><path d="m-22.236748 1039.869-1.993773.053c-.0054 3.0945-2.308278 5.3753-5.403902 5.3882-3.095736.014-5.55885-2.2395-5.590648-5.3338l-2.032191-.052c.03644 4.1297 3.406327 7.4667 7.537663 7.449 4.130471-.019 7.48136-3.2656 7.482851-7.3946z"/></g><circle cx="8" cy="1044.3622" fill="url(#a)" r="5"/></g></svg>