<svg height="16" viewBox="0 0 16 16" width="16" xmlns="http://www.w3.org/2000/svg"><g transform="matrix(1.000785 0 0 1.0024585 .001021 -1038.952822)"><g stroke="#555357" stroke-width=".995792" transform="matrix(.99786089402 0 0 1.0072807224 37.67881854869 -3.13797496216)"><path d="m-29.696996 1032.5269c-4.132275-.018-7.526535 3.271-7.561523 7.4018h2.004287c.09809-3.043 2.566022-5.4115 5.611649-5.4009 3.045856.015 5.339022 2.357 5.410808 5.4009h1.993137c.000322-4.1315-3.325429-7.3828-7.458358-7.3996z" fill="#fff"/><path d="m-22.236748 1039.869-2.074335.06c-.0054 3.0945-2.227716 5.3681-5.32334 5.381-3.095736.014-5.55885-2.287-5.590648-5.3813h-2.032191c.03644 4.1297 3.406327 7.4621 7.537663 7.4444 4.101648.1238 7.470146-3.2596 7.482851-7.4441z"/></g><path d="m13.317648 1044.5077a5.2789292 5.3422523 0 0 1 -5.2549048 5.3422 5.2789292 5.3422523 0 0 1 -5.3027346-5.2936 5.2789292 5.3422523 0 0 1 5.2066404-5.3904 5.2789292 5.3422523 0 0 1 5.350125 5.2445" fill="#fff"/><path d="m10.11419 1040.8622a1.5 1.5 0 0 1 -1.4931765 1.5 1.5 1.5 0 0 1 -1.5067613-1.4864 1.5 1.5 0 0 1 1.4794683-1.5135 1.5 1.5 0 0 1 1.5202215 1.4726" fill="#edd400"/><path d="m7.1766901 1041.8622a1.5 1.5 0 0 1 -1.4931766 1.5 1.5 1.5 0 0 1 -1.5067613-1.4864 1.5 1.5 0 0 1 1.4794683-1.5135 1.5 1.5 0 0 1 1.5202213 1.4726" fill="#73d216"/><path d="m5.8954401 1044.8622a1.5 1.5 0 0 1 -1.4931766 1.5 1.5 1.5 0 0 1 -1.5067613-1.4864 1.5 1.5 0 0 1 1.4794683-1.5135 1.5 1.5 0 0 1 1.5202213 1.4726" fill="#fcaf3e"/><path d="m7.4891901 1047.6122a1.5 1.5 0 0 1 -1.4931766 1.5 1.5 1.5 0 0 1 -1.5067613-1.4864 1.5 1.5 0 0 1 1.4794683-1.5135 1.5 1.5 0 0 1 1.5202213 1.4726" fill="#729fcf"/><path d="m10.64544 1047.8622a1.5 1.5 0 0 1 -1.4931765 1.5 1.5 1.5 0 0 1 -1.5067613-1.4864 1.5 1.5 0 0 1 1.4794683-1.5135 1.5 1.5 0 0 1 1.5202215 1.4726" fill="#ad7fa8"/><path d="m12.89544 1045.8622a1.5 1.5 0 0 1 -1.493176 1.5 1.5 1.5 0 0 1 -1.5067618-1.4864 1.5 1.5 0 0 1 1.4794678-1.5135 1.5 1.5 0 0 1 1.520222 1.4726" fill="#e9b96e"/><path d="m12.61419 1042.8622a1.5 1.5 0 0 1 -1.493176 1.5 1.5 1.5 0 0 1 -1.5067618-1.4864 1.5 1.5 0 0 1 1.4794678-1.5135 1.5 1.5 0 0 1 1.520222 1.4726" fill="#ef2929"/><path d="m9.5 1044.3622a1.5 1.5 0 0 1 -1.4931766 1.5 1.5 1.5 0 0 1 -1.5067613-1.4864 1.5 1.5 0 0 1 1.4794683-1.5135 1.5 1.5 0 0 1 1.5202213 1.4726"/></g></svg>