<svg height="16" viewBox="0 0 16 16" width="16" xmlns="http://www.w3.org/2000/svg"><g transform="scale(.99896797 1)"><g stroke-linecap="square" stroke-linejoin="round" stroke-miterlimit="0"><path d="m1.391304 1.391304h8.217391v5.217392h-8.217391z" fill="none" stroke="#204a87" stroke-width=".782609"/><path d="m2.20393 2.179137h6.633411v3.664447h-6.633411z" fill="#729fcf" fill-rule="evenodd" stroke="#fff" stroke-opacity=".2" stroke-width=".761175"/><path d="m9.457569-2.563218h7.95492v5.833625h-7.95492z" fill="#204a87" fill-rule="evenodd" stroke="#204a87" stroke-width=".75" transform="matrix(.70710678 .70710678 -.70710678 .70710678 0 0)"/><path d="m10.229342-1.839943h6.456107v4.37862h-6.456107z" fill="none" stroke="#fff" stroke-opacity=".2" stroke-width=".750387" transform="matrix(.70710678 .70710678 -.70710678 .70710678 0 0)"/></g><path d="m1.6518643 12.399793s-.060825 1.704557 1.6487571 2.225207l1.3070787.0248.00287-1.579629c-1.29465-.006308-1.2360681-.069258-1.2603629-.695171l1.2520716-.02479v-.75l-1.9772788-2.2252105-2.25 2.2500005v.75z" fill="#fff" fill-rule="evenodd" stroke="#3465a4" stroke-width=".75"/><path d="m0 0h16v16h-16z" fill="#a3a4a2" opacity="0"/><path d="m14.364687 3.6408974s.06082-1.704557-1.648757-2.225207l-1.307079-.0248-.0029 1.579629c1.29465.0063 1.236068.06926 1.260363.695171l-1.252072.02479v.75l1.977279 2.22521 2.25-2.25v-.75z" fill="#fff" fill-rule="evenodd" stroke="#3465a4" stroke-width=".75"/></g></svg>