<svg height="16" viewBox="0 0 4.2333332 4.2333335" width="16" xmlns="http://www.w3.org/2000/svg"><g transform="translate(0 -292.76665)"><path d="m.26458333 296.7354.79374997-.79375v-2.91042h2.6458332v1.5875h-2.1166665v1.32292l.79375.79375z" fill="none" stroke="#c1c1ff" stroke-linejoin="round" stroke-width=".529167"/><g fill-rule="evenodd"><path d="m.26454594 296.7354h2.11666676l-1.0583334-1.05833z" fill="#202020"/><path d="m1.058296 293.03122h.529167v3.175h-.529167z" fill="#202020"/><path d="m1.587463 293.03122h2.116667v1.587514h-2.116667z" fill="#fff"/><g fill="#2020ff"><path d="m1.587462 293.03122h.529167v.529167h-.529167z"/><path d="m2.645796 293.03122h.529167v.529167h-.529167z"/><path d="m2.116629 293.56039h.529167v.529167h-.529167z"/><path d="m3.174962 293.56039h.529167v.529167h-.529167z"/><path d="m1.587462 294.08957h.529167v.529167h-.529167z"/><path d="m2.645796 294.08957h.529167v.529167h-.529167z"/></g></g></g></svg>