<svg height="12" viewBox="0 0 12 12" width="12" xmlns="http://www.w3.org/2000/svg"><g transform="translate(0 -1040.3622)"><path d="m2 1040.3622c-1.108 0-2 .892-2 2v8c0 1.108.892 2 2 2h8c1.108 0 2-.892 2-2v-8c0-1.108-.892-2-2-2zm.4375 1h7.125c.78971 0 1.4375.6478 1.4375 1.4375v7.125c0 .7897-.64779 1.4375-1.4375 1.4375h-7.125c-.78971 0-1.4375-.6478-1.4375-1.4375v-7.125c0-.7897.64779-1.4375 1.4375-1.4375z"/><g fill="#eeeeec"><path d="m2.6666666 1041.3623c-.9233333 0-1.66666661.7434-1.66666661 1.6667v6.6666c0 .9232.74333331 1.6666 1.66666661 1.6666h6.6666668c.9233336 0 1.6666666-.7434 1.6666666-1.6666v-6.6666c0-.9233-.743333-1.6667-1.6666666-1.6667zm.3645833.8333h5.937501c.6580912 0 1.1979151.5398 1.1979151 1.1978v5.9375c0 .6582-.5398239 1.1979-1.1979151 1.1979h-5.937501c-.6580917 0-1.1979166-.5397-1.1979166-1.1979v-5.9375c0-.658.5398249-1.1978 1.1979166-1.1978z" stroke-width=".833331"/><path d="m385.4707 111.98438v1.52343l3.04883 3.04688-3.04883 3.04883v1.52343h1.52344l3.04883-3.04883 3.04687 3.04883h1.52344v-1.52343l-3.04687-3.04883 3.04687-3.04688v-1.52343h-1.52344l-3.04687 3.04687-3.04883-3.04687z" fill-opacity=".941176" stroke="#000" stroke-width=".9" transform="matrix(.79660425356 0 0 .79659144356 -304.70912751141 953.5150430927)"/></g></g></svg>