<svg height="16" viewBox="0 0 16 16" width="16" xmlns="http://www.w3.org/2000/svg"><path d="m.48979583 4.489796h11.02040717v11.020408h-11.02040717z" fill="none" stroke="#000" stroke-width=".979592"/><g transform="translate(-3.999999)"><path d="m5.4702325 5.4702321h9.0595355v9.0595359h-9.0595355z" fill="#ef2929" stroke="#fff"/><g fill="#fff"><path d="m4 4h1v1h-1z"/><path d="m6.2 4h1v1h-1z"/><path d="m8.4 4h1v1h-1z"/><path d="m10.6 4h1v1h-1z"/><path d="m12.8 4h1v1h-1z"/><path d="m15 4h1v1h-1z"/><path d="m4 15h1v1h-1z"/><path d="m6.2 15h1v1h-1z"/><path d="m8.4 15h1v1h-1z"/><path d="m10.6 15h1v1h-1z"/><path d="m12.8 15h1v1h-1z"/><path d="m15 15h1v1h-1z"/><path d="m-13.8 4h1v1h-1z" transform="rotate(-90)"/><path d="m-11.6 4h1v1h-1z" transform="rotate(-90)"/><path d="m-9.4 4h1v1h-1z" transform="rotate(-90)"/><path d="m-7.2 4h1v1h-1z" transform="rotate(-90)"/><path d="m-13.8 4h1v1h-1z" transform="matrix(0 -1 1 0 11 0)"/><path d="m-11.6 4h1v1h-1z" transform="matrix(0 -1 1 0 11 0)"/><path d="m-9.4 4h1v1h-1z" transform="matrix(0 -1 1 0 11 0)"/><path d="m-7.2 4h1v1h-1z" transform="matrix(0 -1 1 0 11 0)"/></g></g><path d="m.207753.207753h15.584494v15.584494h-15.584494z" fill="#fff" opacity="0" transform="matrix(.7661523 0 0 .77108083 -.099253 3.822901)"/><g transform="translate(-8.651642 -1044.6363)"><path d="m11.070305 1058.5511s3.278731-2.3644 6.036794-5.1225c2.758064-2.758 5.840852-6.8122 5.840852-6.8122" fill="none" stroke="#000" stroke-linecap="square" stroke-width="1.5"/><g transform="translate(8.651642 8.274118)"><path d="m1.6730026 1050.835s3.8840737-2.8277 6.8670413-5.8107c2.9829681-2.9829 6.3171381-7.4353 6.3171381-7.4353" fill="none" stroke="#729fcf" stroke-linecap="square" stroke-width=".994323"/><g fill="#fff" stroke="#000" stroke-width=".2"><path d="m6.5 1042.8622h4v4h-4z"/><circle cx="1.6" cy="1050.7622" r="1.5"/><circle cx="14.4" cy="1037.9622" r="1.5"/></g></g></g></svg>