<svg height="16" viewBox="0 0 4.2333332 4.2333335" width="16" xmlns="http://www.w3.org/2000/svg"><g fill-rule="evenodd"><g transform="translate(0 -292.76665)"><path d="m.264583 293.03122h3.704167v3.704167h-3.704167z" fill="#4040ff"/><path d="m.26458333 293.03123 3.70416667 3.70417v-3.70417z" fill="#ff4040"/></g><g fill="#3030bf"><path d="m.26458333.26458333.52916666.52916666-.52916666.52916661z"/><path d="m1.3229166 1.3229166.5291667.5291667-1.58749997 1.5875v-1.0583333z"/><path d="m2.38125 2.38125.5291666.5291666-1.0583333 1.0583334h-1.05833331z"/><path d="m3.4395833 3.4395833.5291667.5291667h-1.0583334z"/></g><g fill="#bf3030"><path d="m.79374999.79374999.52916661.52916661 1.0583334-1.05833327h-1.0583334z"/><path d="m1.8520833 1.8520833.5291667.5291667 1.5875-1.58750001v-.52916666h-.5291667z"/><path d="m2.9104166 2.9104166.5291667.5291667.5291667-.5291667v-1.0583333z"/></g></g><rect fill="none" height="3.973152" rx=".371563" ry=".407308" stroke="#888a85" stroke-width=".26006" width="3.973274" x=".13003" y=".13017"/><rect fill="none" height="3.466983" rx=".169218" ry=".166443" stroke="#fff" stroke-width=".238544" width="3.471826" x=".380753" y=".38325"/><path d="m0 .00001h4.233333v4.233333h-4.233333z" fill="none"/></svg>