<svg height="16" viewBox="0 0 16 16" width="16" xmlns="http://www.w3.org/2000/svg" xmlns:xlink="http://www.w3.org/1999/xlink"><linearGradient id="a" gradientUnits="userSpaceOnUse" x1="292.97168" x2="296.93979" y1="4.759277" y2="10.711433"><stop offset="0" stop-color="#eeeeec"/><stop offset="1" stop-color="#fff"/></linearGradient><linearGradient id="b"><stop offset="0" stop-color="#e2e2e2"/><stop offset="1" stop-color="#d8d8d8"/></linearGradient><linearGradient id="c" gradientTransform="matrix(-1.2317617 0 0 1.1711927 372.55697 -3.322858)" gradientUnits="userSpaceOnUse" x1="292.97168" x2="296.93979" xlink:href="#a" y1="4.759277" y2="10.711433"/><linearGradient id="d" gradientTransform="matrix(.32711789 0 0 .31608888 .011782 .009668)" gradientUnits="userSpaceOnUse" x1="20.288025" x2="24.32597" xlink:href="#b" y1="6.460365" y2="23.942537"/><linearGradient id="e" gradientTransform="matrix(1.3259485 0 0 1.3075336 -384.44437 -2.647134)" gradientUnits="userSpaceOnUse" x1="292.97168" x2="296.93979" xlink:href="#a" y1="4.759277" y2="10.711433"/><linearGradient id="f" gradientTransform="matrix(.32711789 0 0 .31608888 .094163 1.115888)" gradientUnits="userSpaceOnUse" x1="20.288025" x2="24.32597" xlink:href="#b" y1="6.460365" y2="23.942537"/><path d="m0 0h16v16h-16z" fill="#3465a4" opacity="0"/><path d="m295.13281 14.71875-.40039-1.045898 1.01416-1.712403 1.29785.339844-.64502 1.084473z" fill="#204a87" stroke="#000200" stroke-linecap="round" stroke-linejoin="round" stroke-width=".131287" transform="matrix(1.5752023 0 0 1.324641 -458.73418 -7.653651)"/><path d="m5.7945878 9.865862c1.5075327.256494 2.0297315 1.809919 1.1644644 3.47029-.8650395 1.661181-2.7877025 2.800402-4.2952067 2.546494-1.508159-.256356-2.02951923-1.809106-1.1642523-3.469475.8646271-1.660224 2.7879148-2.7995811 4.2949946-2.547309zm-.5494927 1.058011c-.6691681-.112895-1.8518298.593931-2.4322248 1.710471-.5820901 1.116914-.2682597 2.078997.4001427 2.191278.6689753.114505 1.8523887-.59406 2.4327826-1.710597.5826598-1.117038.2684548-2.078254-.4007005-2.191152z" fill="#3465a4" stroke="#000" stroke-width=".162893"/><path d="m9.1530668 8.7694754-2.0552734.352415.9866461 1.3757936.6981242.761921c-.1910624.79632.040027 1.803869.7267543 2.739423 1.148011 1.564921 3.109178 2.324468 4.382546 1.699423 1.273379-.627811 1.374859-2.402672.226835-3.966672-1.147428-1.563995-3.109179-2.3246589-4.382547-1.701453-.01.005-.016555.01323-.026432.01832zm1.8405912 2.1868816c.80836.146114 1.43926.52977 2.017293 1.318829.772293 1.052079.716614 2.151216.151955 2.428034-.564646.279328-1.775129-.197556-2.545839-1.249633-.35479-.482989-.503118-.898417-.563786-1.390064-.03846-.311713-.09446-.70064.133557-.93307.185498-.189081.535782-.223088.80682-.174096z" fill="#3465a4" stroke="#000" stroke-width=".16501"/><g transform="matrix(.92203377 0 0 .93498041 .676065 -.211719)"><path d="m11.395136.5078667c.06324.0194041-.05214-.0297022.0096-.009079.794951.9635596 1.272205 1.321729.929506 1.9411905-1.141668 1.8064743-2.275171 3.6369175-3.4083086 5.4576381-.2225373.0415922-.4470249.0642457-.671947.0692789-.4733939.0113846-.9593651-.0550673-1.4086595-.2078367 1.5072265-2.4211157 3.0150874-4.8475709 4.5498091-7.2511918z" fill="url(#c)" stroke="#555753" stroke-linecap="round" stroke-linejoin="round" stroke-width=".290669" transform="matrix(1.1330815 0 0 1.0688983 -.885716 .979072)"/><path d="m11.22827 1.3530456c-.0756.097183-.147077.2752951-.224413.3654778-1.323799 2.1344626-2.6699395 4.2653283-3.9986296 6.3909221-.019807.0800074-.2662507.3199739-.0039385.2980601.3636102.0625476.7431291.110822 1.1056019.0180297 1.2296325-1.9651907 2.4356792-3.9455545 3.6625052-5.911439.112029-.1224129.133829-.2924637.016145-.4147025-.173378-.2581207-.349015-.5293588-.526669-.7759815l-.02308.022351z" fill="url(#d)" transform="matrix(1.1330815 0 0 1.0688983 -.885716 .979072)"/><path d="m4.3336434 1.6295326c-.068084.021663-.000595.00796-.067.030986-.6095714.7448-1.3128196 1.4344723-.943915 2.1260466 1.2289646 2.0167695 2.4491415 4.0602983 3.6689245 6.0929726.239554.046434.4812071.071725.7233277.077344.5095921.01271 1.032723-.061478 1.5163726-.2320313-1.6224766-2.7029629-3.2456359-5.4118866-4.8977098-8.0953179z" fill="url(#e)" stroke="#555753" stroke-linecap="round" stroke-linejoin="round" stroke-width=".321556"/><path d="m4.2549938 2.459266c-.1252976.3561308-.47421.6182587-.5609457.9976556 1.2131236 2.0211077 2.4438792 4.0361793 3.6561646 6.0550776.392007.0816454.7943865.0294468 1.1819931-.0493889-.061751-.2340458-.2414787-.4206925-.3369259-.6415182-1.2739943-2.0768702-2.5592722-4.151457-3.8200833-6.233415-.0047959-.0479221-.0708871-.1530296-.1202028-.1284111z" fill="url(#f)"/></g><g fill="#ce5c00"><circle cx="8" cy="2.5" r=".5"/><circle cx="8" cy=".5" r=".5"/><circle cx="8" cy="4.5" r=".5"/><circle cx="10" cy=".5" r=".5"/><circle cx="12" cy=".5" r=".5"/><circle cx="14" cy=".5" r=".5"/></g><circle cx="8" cy="3.5" fill="#f57900" r=".5"/><circle cx="8" cy="1.5" fill="#f57900" r=".5"/><circle cx="9" cy=".5" fill="#f57900" r=".5"/><circle cx="11" cy=".5" fill="#f57900" r=".5"/><circle cx="13" cy=".5" fill="#f57900" r=".5"/></svg>