<svg enable-background="new 0 0 128 129.396" height="16" viewBox="0 0 16 16" width="16" xmlns="http://www.w3.org/2000/svg"><g transform="translate(-1.305607 2.264427)"><path d="m8.5121608.68080448h1.9879612c.280213 0 4.805485 5.73497232 4.805485 6.05476852l-.02448 6.174769c0 .319798-.126383.648944-.406596.648944l-10.8914593.0046c-.2802131 0-.5057994-.257454-.5057994-.577252l.018847-6.5337308c0-.3197962 4.7358313-5.77212272 5.0160435-5.77212272z" fill="#eeeeec" stroke="#757575" stroke-width=".343326"/><path d="m17.305765 13.735573h-15.8829106v-16h15.8829106z" fill="none" stroke-width=".351713"/><path d="m9.4156899 1.671127 6.6324871 6.061082.173347.138375.141457-.0605-.130661-.268876-.09729-.07887-6.7193461-5.497131-6.7945425 5.557505-.083262.05087-.07594.2495.1518805.04562.1347568-.108876z" fill="none" stroke-width=".351713"/><path d="m9.3744871-1.6076-7.6678761 6.389896-.2189197 2.529621.7008246.728721s7.1512267-6.056639 7.2271677-6.11689l6.8797034 6.192891.665253-.820387-.566212-2.510363-6.9787444-6.430364z" fill="#ef2929" stroke="#a40000" stroke-width=".351713"/><g fill="none"><path d="m1.8442977 4.867178-.1021678 2.338094 7.6460415-6.444642-.0246445-2.080386z" opacity=".409091"/><path d="m9.4283103.679761.034853-2.061949 6.7733237 6.231261.522766 2.294831z" opacity=".136364"/><path d="m10.345882 7.37589h3.167827c.270034 0 .487428.218995.487428.491021l-.0028 3.205027c0 .272026-.208966.446896-.479001.446896h-3.173464c-.270036 0-.4874281-.218996-.4874281-.491021v-3.160902c0-.272026.2173921-.491021.4874281-.491021z" opacity=".318182" stroke="#fff" stroke-width=".351713"/></g><rect fill="#3465a4" height="3.635764" rx=".138607" ry=".139148" stroke="#757575" stroke-linecap="square" stroke-width=".364236" width="3.635764" x="9.487725" y="7.917691"/><path d="m8.1156909 7.9254888v5.6201672h-3.5517568l-.0684107-5.6201672z" style="clip-rule:evenodd;fill:#d3d7cf;fill-rule:evenodd;stroke:#757575;stroke-width:.379833;stroke-linecap:round"/></g></svg>