<svg height="16" viewBox="0 0 16 16" width="16" xmlns="http://www.w3.org/2000/svg"><g transform="matrix(-1 0 0 1 16.000021 -1036.3622)"><path d="m-16 1036.3622h16v16h-16z" fill="none" transform="scale(-1 1)"/><path d="m-16 1036.3622h16v16h-16z" fill="none" opacity=".3" transform="scale(-1 1)"/><g fill="#f57900" stroke="#ce5c00"><path d="m10.346279 1038.5999a.94022976.95557994 0 0 1 .207491.022.94022976.95557994 0 0 1 .470068 1.6423l-3.0811477 3.1313h7.8203857v1.911h-7.8277308l3.0884928 3.139a.95562919.9712309 0 1 1 -1.3514455 1.3735l-4.7006785-4.7774-.6463433-.6867.6463433-.6869 4.7006785-4.7773a.94022976.95557994 0 0 1 .6738865-.2912z" stroke-width=".473889"/><path d="m1.7462862 1038.6284v11.4801h-1.49257238v-11.491z" stroke-width=".507428"/></g></g></svg>