<svg height="16" viewBox="0 0 16 16" width="16" xmlns="http://www.w3.org/2000/svg"><g transform="translate(0 -1036.3622)"><path d="m-16 1036.3622h16v16h-16z" fill="none" transform="scale(-1 1)"/><path d="m-16 1036.3622h16v16h-16z" fill="none" opacity=".3" transform="scale(-1 1)"/><path d="m8.3462789 1038.5999a.94022976.95557994 0 0 1 .2074907.022.94022976.95557994 0 0 1 .4700685 1.6423l-3.0811478 3.1313h7.8203857v1.911h-7.8277308l3.0884929 3.139a.95562919.9712309 0 1 1 -1.3514456 1.3735l-4.7006785-4.7774-.6463433-.6867.6463433-.6869 4.7006785-4.7773a.94022976.95557994 0 0 1 .6738864-.2912z" fill="#f57900" stroke="#ce5c00" stroke-width=".473889"/></g></svg>