<svg height="16" viewBox="0 0 16 16" width="16" xmlns="http://www.w3.org/2000/svg"><g transform="translate(0 -1036.3622)"><path d="m0 1036.3622h16v16h-16z" fill="none" opacity=".75"/><path d="m-20.433217 1049.479-.243616-.2772-.243616-.2772.361875-.072.361875-.072-.118259.3495z" fill="#d3d7cf" stroke="#555753" stroke-width="2.91148" transform="matrix(.26799057516 .40478534304 -.40711794817 .26645510812 433.74711133122 780.00220453166)"/><path d="m218.20736 576.6367-.84712-73.39348 564.56871 1.54144v140.4l-564.84685 1.11701z" fill="#3465a4" stroke="#555753" stroke-width="21.631079" transform="matrix(.01989485 -.01993646 .01350408 .01332378 -8.745451 1045.6083)"/><path d="m3.9397518 1049.0928 10.8741082-10.8217.369866.4029-10.7944691 10.8393z" fill="#204a87"/><path d="m2.034939 1048.2477 2.026924 2.035-1.3426608 1.173-1.77689279-1.8034z" fill="#e9b96e" opacity=".75" stroke="#f57900" stroke-linecap="round" stroke-width=".3"/><path d="m2.6485165 1047.8124 10.8236475-10.7697.298384.313-10.7438097 10.8119z" fill="#729fcf"/><path d="m271.97339 1014.1378.42576.2564-.45058 2.0261-.002-.019z" fill="#eeeeec" opacity=".75" transform="matrix(.96605692 .2583293 -.2583293 .96605692 0 0)"/><path d="m1.9948962 1051.2267.2887783.351-1.89579813.5863-.0240079-.028z" opacity=".75"/></g></svg>