<svg height="16" viewBox="0 0 16 16" width="16" xmlns="http://www.w3.org/2000/svg" xmlns:xlink="http://www.w3.org/1999/xlink"><radialGradient id="a" cx="28.6576" cy="33.986694" gradientTransform="matrix(1.9578819 0 0 1.9776232 -44.272539 980.78953)" gradientUnits="userSpaceOnUse" r="18.572308"><stop offset="0" stop-color="#e7ce79"/><stop offset="1" stop-color="#c17d11"/></radialGradient><linearGradient id="b" gradientTransform="matrix(.32399235 0 0 .35716019 2.336485 1035.1719)" gradientUnits="userSpaceOnUse" x1="15.299923" x2="51.568203" xlink:href="#c" y1="9.144098" y2="83.076073"/><linearGradient id="c"><stop offset="0" stop-color="#fff"/><stop offset="1" stop-color="#fff" stop-opacity=".520913"/></linearGradient><linearGradient id="d" gradientUnits="userSpaceOnUse" x1="-62.15231484866" x2="-63.70262569524" xlink:href="#c" y1="1007.5672747684" y2="1004.564157925"/><g transform="translate(0 -1036.3622)"><g fill="none"><path d="m0 1036.3622h16v16h-16z"/><path d="m0 1036.3622h16v16h-16z" opacity=".3"/><path d="m-62.775975 1005.2122c.508984 0 .979337.1347 1.336468.3847.357132.25.607486.634.607486 1.0732 0 .4393-.250354.8233-.607486 1.0733-.357131.25-.827484.3847-1.336468.3847s-.979337-.1347-1.336468-.3847c-.357132-.25-.607486-.634-.607486-1.0733 0-.4392.250354-.8232.607486-1.0732.357131-.25.827484-.3847 1.336468-.3847z" opacity=".735632" stroke="url(#d)" stroke-width=".323992" transform="matrix(1 0 0 1.1023723 69.984109 -69.486814)"/><path d="m0 1036.3622h16v16h-16z" opacity=".5"/></g><g transform="matrix(1.2447189 0 0 1.1215307 -5.072542 -126.21668)"><path d="m9.4536954 1036.7703c-1.900788.028-4.447296.7445-4.404271 3.0471.0459 2.4561 2.752324 1.487 2.855183 2.5782.166241 1.7637-3.296211 7.1293 1.964204 8.1811 3.5118376.7024 7.2390576-1.7087 6.8645866-6.5738-.336769-4.3755-3.620646-7.1213-6.9050856-7.2326-.119994 0-.247897 0-.374617 0zm-.820105 1.4287c.894219 0 1.6199616.56 1.6199616 1.2501 0 .6899-.7257426 1.2499-1.6199616 1.2499s-1.619962-.56-1.619962-1.2499c0-.6901.725743-1.2501 1.619962-1.2501z" fill="url(#a)" fill-rule="evenodd" stroke="#c17d11" stroke-width=".340172"/><path d="m9.4744424 1037.1363c-.915046.013-1.983862.2027-2.78431.6362-.800447.4334-1.314734 1.0383-1.295969 2.0424.0101.5408.155408.8317.354367 1.038.198958.2065.484586.3301.80998.4242.325395.094.677648.1497.992227.2679.15729.058.311383.1357.44549.2679.134106.1322.232392.3381.253119.558.05537.5875-.155169 1.2513-.374617 2.0202-.219447.7689-.468522 1.6121-.556861 2.4108-.08834.7988-.01335 1.5286.344241 2.1095.357595.5808 1.027285 1.0649 2.288196 1.317 1.6713306.3342 3.3853516-.074 4.6270156-1.1273s2.031962-2.7287 1.852831-5.056c-.322615-4.1915-3.465043-6.8028-6.5912186-6.9088-.109183 0-.237167 0-.364491 0z" fill="none" opacity=".670498" stroke="url(#b)" stroke-width=".340172"/><g stroke-linecap="round" stroke-width=".457038"><ellipse cx="13.715981" cy="1046.4082" fill="#73d216" rx="1.37827" ry="1.554758" stroke="#4e9a06"/><ellipse cx="9.699011" cy="1047.2998" fill="#ef2929" rx="1.37827" ry="1.554758" stroke="#a40000"/><ellipse cx="13.715981" cy="1041.95" fill="#729fcf" rx="1.37827" ry="1.554758" stroke="#204a87"/></g></g></g></svg>