<svg height="16" viewBox="0 0 16 16" width="16" xmlns="http://www.w3.org/2000/svg"><g transform="translate(-.242424 -1036.119751)"><path d="m8.5903015 1037.2623c-.3363691-.012-.6603216.1792-.8906122.5249-2.238316 3.3696-3.2300173 5.3421-6.2851843 9.9974l-4.0546012-7.5547c-.1960806-.416-.5879517-.6753-1.0137045-.6709-.8583431.01-1.3947062 1.0262-.9756904 1.8508l4.53994786 9.2772c.05828043.1177.13346802.2243.22265301.3156.23209937.5177.64716663.814 1.08068133.7715.3059606-.03.5915887-.2269.7964821-.5485 3.8220534-5.8469 4.9326629-7.4279 7.4127142-11.1616.6963406-1.049.1863691-2.7649-.8326859-2.8017z" fill="#73d216" stroke="#4e9a06" stroke-linecap="round" stroke-width=".483805" transform="matrix(.93321318 0 0 .93335003 5.92239 69.217202)"/><path d="m.242424 1036.1198h16v16h-16z" fill="none"/></g></svg>