<svg height="16" viewBox="0 0 16 16" width="16" xmlns="http://www.w3.org/2000/svg"><g transform="translate(0 -6)"><rect fill="#d3d7cf" fill-rule="evenodd" height="15.012346" rx="1.429748" ry="1.429747" stroke="#888a85" stroke-linecap="square" stroke-linejoin="round" width="15.012346" x=".493827" y="6.493827"/><rect fill="none" height="13.001115" rx=".705652" stroke="#fff" stroke-linecap="square" stroke-linejoin="round" stroke-width=".998885" width="13.001115" x="1.499443" y="7.499443"/><path d="m5.7542284 10.982993c-.7071909.000003-1.1971484.07228-1.4698731.216838-.2727288.14456-.4090929.391157-.4090914.739795-.0000015.277779.101478.498868.3044397.663265.2061296.161566.4851985.242348.8372092.242347.4851976.000001.8736755-.15306 1.1654343-.459183.2949218-.308956.4423839-.718535.4423889-1.228742v-.17432zm1.7457716-.323129v2.716837h-.875264v-.722789c-.199793.289116-.4487355.503118-.7468293.642007-.2981005.136054-.6627936.204081-1.0940802.204081-.5454562 0-.9799165-.136053-1.3033828-.408163-.3202966-.274942-.4804445-.642006-.4804437-1.10119-.0000008-.535713.199788-.939623.5993655-1.211736.4027464-.272105 1.0021119-.40816 1.7980975-.408163h1.227273v-.07654c-.000005-.3599643-.133197-.6377416-.3995776-.8333242-.2632177-.1984082-.6342524-.297614-1.1131076-.2976182-.3044421.0000042-.6009542.0326-.8895359.097789-.2885843.065196-.5660679.1629852-.8324518.293367v-.72279c.3202949-.1105382.6310771-.1927385.932347-.2465975.3012668-.0566846.5946067-.0850289.8800213-.0850341.770609.000005 1.3461899.1785764 1.7267433.5357144.3805452.3571464.5708196.8985294.5708253 1.6241496"/><path d="m11.479202 14.933754c.318909.000001.561559-.114825.727953-.344479.169158-.229652.253739-.563195.253743-1.000631-.000004-.437431-.08459-.770975-.253743-1.000631-.166394-.229649-.409044-.344475-.727953-.34448-.318917.000005-.56434.116199-.736273.34858-.169166.229658-.253746.561833-.253743.996531-.000003.434702.08457.768245.253743 1.000631.171933.229654.417356.34448.736273.344479m-.990016-2.973186c.20521-.267923.432608-.464769.682194-.590536.249581-.128491.536603-.19274.861066-.192744.574038.000004 1.045475.225555 1.41431.676656.368824.448373.553238 1.026606.553244 1.7347-.000006.708099-.18442 1.287698-.553244 1.738802-.368835.44837-.840272.672554-1.41431.672554-.324463 0-.611485-.062879-.861066-.188643-.249586-.128496-.476984-.326709-.682194-.594637v.664354h-1.489186v-6.381074h1.489186z"/><path d="m7.5120171 17.947815c-.237491.505502-.5660661.890574-.985727 1.155219-.4196698.264644-.9157859.396966-1.4883493.396966-.7547495 0-1.3110501-.227475-1.6689024-.682426-.357856-.457923-.4554524-1.064524-.2927903-1.819803.1659123-.75825.5270204-1.363364 1.0833231-1.815346.5595518-.454945 1.2167014-.682421 1.9714524-.682425.3285708.000004.6473864.03569.9564475.107046.3123036.06839.6164799.173957.9125289.316682l-.263511 1.213204h-.5221428c.0227674-.416292-.0601888-.719592-.2488709-.909904-.1854382-.190301-.4912408-.285454-.9174086-.285458-.484734.000004-.8897599.172469-1.2150788.517395-.3220719.34196-.5579299.854895-.7075758 1.538806-.1496498.683913-.139891 1.198335.029279 1.543263.1724178.344932.5026193.517397.990606.517396.3871294.000001.7157046-.09218.9857261-.276539.2732661-.184358.4928584-.462383.6587775-.834076h.722216"/></g></svg>