<svg height="16" viewBox="0 0 16 16" width="16" xmlns="http://www.w3.org/2000/svg"><path d="m8.1181827 1036.5488c-3.3280239-.056-6.4420412 2.043-7.53900353 5.372-1.35011096 4.0977.88144193 8.5113 4.97676643 9.8621 4.0953243 1.3508 8.5069284-.8828 9.8570304-4.9803l.07287-.1949c1.213443-4.053-1.033475-8.3421-5.04964-9.667-.7678713-.2532-1.5500326-.3787-2.3180263-.3919zm-.122105 2.3454c3.0184813 0 5.4651873 2.4483 5.4651873 5.4685 0 1.0114-.279766 1.9541-.758234 2.7667l-7.4720424-7.479c.8117387-.4779 1.755138-.7562 2.7650891-.7562zm-4.7030148 2.6939 7.4700731 7.483c-.8122568.4788-1.7561467.7583-2.7670583.7583-3.0185016 0-5.4651868-2.4467-5.4651868-5.4667 0-1.014.2814768-1.9605.762172-2.7746z" fill="#c00" stroke="#a40000" stroke-linecap="round" stroke-width=".371054" transform="translate(0 -1036.3622)"/></svg>