<svg height="16" viewBox="0 0 16 16" width="16" xmlns="http://www.w3.org/2000/svg"><g transform="translate(0 -1036.119751)"><path d="m-35.949238 1023.0008a.92543442.92581529 45.157402 0 0 1.289599-.022l2.343277-2.3571 2.340626 2.3555a.92612756.92650872 45.157402 1 0 1.313877-1.3066l-2.348803-2.3617 2.350468-2.3641a.92509038.9254711 45.157402 0 0 -.677466-1.5873.92509038.9254711 45.157402 0 0 -.635872.2831l-2.342247 2.3559-2.342678-2.3556a.92521673.92559751 45.157402 0 0 -.662881-.2822.92521673.92559751 45.157402 0 0 -.648941 1.5868l2.348799 2.3638-2.349442 2.3632a.92543442.92581529 45.157402 0 0 .02169 1.3286z" stroke="#fff" stroke-linecap="round" stroke-width=".150328" transform="matrix(-.93806241 .94304854 -.94323067 -.93788129 939.12249 2030.5759)"/><path d="m0 1036.1198h16v16h-16z" fill="none"/></g></svg>