<svg height="16" viewBox="0 0 16 16" width="16" xmlns="http://www.w3.org/2000/svg"><g transform="matrix(.38078590859 0 0 .39127166071 -1.13997342684 -1.20023251602)"><path d="m4.5577604 3.5675797h38.8903026c.589294 0 1.063708.4744141 1.063708 1.0637086v37.7652107c0 .589294-.474414 1.063708-1.063708 1.063708h-36.8903026s-3.0637085-3.063708-3.0637085-3.063708v-35.7652107c0-.5892945.474414-1.0637086 1.0637085-1.0637086z" fill="#3465a4" stroke="#25375f" stroke-linecap="round" stroke-linejoin="round"/><path d="m8.246032 8.179055h31.513771v17.890383h-31.513771z" fill="#fff"/><rect fill="#d31c00" height="5.111538" rx=".132576" ry=".161279" width="31.513771" x="8.246032" y="4.089825"/><rect height="2" opacity=".738636" rx=".126208" width="2" x="6" y="6"/><path d="m4.6189226 4.5276647h38.7684814c.06992 0 .126208.056289.126208.1262077v37.6482386c0 .06992-.05629.126208-.126208.126208h-36.4591222s-2.4355669-2.391373-2.4355669-2.391373v-35.3830736c0-.069919.056289-.1262077.1262077-.1262077z" fill="none" opacity=".596591" stroke-linecap="round"/><g stroke="#525252"><path d="m14.255326 29.113111h19.495182c.876522 0 1.58217.724355 1.58217 1.624113v12.734696h-22.659522v-12.734696c0-.899758.705648-1.624113 1.58217-1.624113z" fill="#d3d7cf" stroke-width=".975806"/><rect fill="#4967a2" height="9.327216" rx=".650645" ry=".696076" stroke-width=".89586" width="4.356435" x="16.572403" y="31.628906"/></g></g></svg>