<svg height="16" viewBox="0 0 16 16" width="16" xmlns="http://www.w3.org/2000/svg" xmlns:xlink="http://www.w3.org/1999/xlink"><linearGradient id="a" gradientUnits="userSpaceOnUse" x1="5.92201540078" x2="13.29377168192" y1="34.55925518246" y2="44.28996857433"><stop offset="0" stop-color="#ebebeb"/><stop offset=".5" stop-color="#fff"/><stop offset="1" stop-color="#ebebeb"/></linearGradient><linearGradient id="b" gradientUnits="userSpaceOnUse" x1="4.7762501729" x2="14.5060386647" y1="43.49405241386" y2="35.82817408757"><stop offset="0" stop-color="#fbfbfb"/><stop offset=".5" stop-color="#b6b6b6"/><stop offset="1" stop-color="#e4e4e4"/></linearGradient><linearGradient id="c" gradientUnits="userSpaceOnUse" x1="8.44093746875" x2="11.92122875" xlink:href="#d" y1="36.27662109375" y2="42.187592"/><linearGradient id="d"><stop offset="0" stop-color="#fff" stop-opacity=".326733"/><stop offset="1" stop-color="#fff" stop-opacity=".60396"/></linearGradient><linearGradient id="e" gradientUnits="userSpaceOnUse" x1="4.81647281185" x2="18.35656570796" xlink:href="#d" y1="32.01026743085" y2="50.07276863949"/><linearGradient id="f" gradientUnits="userSpaceOnUse" x1="11.28280658156" x2="7.40780616323" xlink:href="#d" y1="41.90024474185" y2="37.25874903761"/><radialGradient id="g" cx="37.751469" cy="27.569166" gradientTransform="matrix(.30005511 .33871123 -.27652083 .24495381 7.711987 23.476975)" gradientUnits="userSpaceOnUse" r="21.333334"><stop offset="0" stop-color="#fff307"/><stop offset=".5" stop-color="#166eff"/><stop offset="1" stop-color="#fff" stop-opacity="0"/></radialGradient><radialGradient id="h" cx="26.137741" cy="38.807304" gradientTransform="matrix(.27205969 -.4392901 .23698684 .14677451 -6.596334 45.358893)" gradientUnits="userSpaceOnUse" r="21.333334"><stop offset="0" stop-color="#b307ff" stop-opacity=".821782"/><stop offset="1" stop-color="#f0ff8b" stop-opacity=".643564"/><stop offset="1" stop-color="#fff" stop-opacity="0"/></radialGradient><radialGradient id="i" cx="53.556889" cy="48.23827" gradientTransform="matrix(.05602054 -.05621075 .15305574 .15253743 .1406 36.037613)" gradientUnits="userSpaceOnUse" r="21.333334"><stop offset="0" stop-color="#fff"/><stop offset="1" stop-color="#b8c04c" stop-opacity="0"/></radialGradient><radialGradient id="j" cx="16.885271" cy="33.377594" gradientTransform="matrix(.00183292 -.04343757 .1925268 .00812403 1.441987 40.035061)" gradientUnits="userSpaceOnUse" r="21.333334" xlink:href="#k"/><linearGradient id="k" gradientUnits="userSpaceOnUse" x1="12.2744" x2="35.391201" y1="32.4165" y2="14.2033"><stop offset="0" stop-color="#ffffc8"/><stop offset="1" stop-color="#9a91ef" stop-opacity="0"/></linearGradient><radialGradient id="l" cx="35.511295" cy="21.618015" gradientTransform="matrix(.03744696 -.00676786 .03704851 .20499273 7.162374 33.249522)" gradientUnits="userSpaceOnUse" r="21.333334" xlink:href="#k"/><radialGradient id="m" cx="133.84108" cy="23.914305" gradientTransform="matrix(-.01784815 .00490678 -.0454104 -.16517873 13.623788 44.678688)" gradientUnits="userSpaceOnUse" r="21.333334" xlink:href="#k"/><g transform="matrix(1.0606464 0 0 1.06066498674 -2.30059295461 -33.9734874428)"><path d="m9.7115205 32.207073c-4.0827002 0-7.365696 3.282996-7.365696 7.365696s3.2829958 7.365696 7.365696 7.365696c4.0827005 0 7.3656965-3.282996 7.3656965-7.365696s-3.282996-7.365696-7.3656965-7.365696zm0 9.133463c-.9680627 0-1.7677669-.799704-1.7677669-1.767767s.7997042-1.767767 1.7677669-1.767767c.9680625 0 1.7677675.799704 1.7677675 1.767767s-.799705 1.767767-1.7677675 1.767767z" fill="url(#a)"/><path d="m9.7115205 32.207073c-4.0827002 0-7.365696 3.282996-7.365696 7.365696s3.2829958 7.365696 7.365696 7.365696c4.0827005 0 7.3656965-3.282996 7.3656965-7.365696s-3.282996-7.365696-7.3656965-7.365696zm0 9.133463c-.9680627 0-1.7677669-.799704-1.7677669-1.767767s.7997042-1.767767 1.7677669-1.767767c.9680625 0 1.7677675.799704 1.7677675 1.767767s-.799705 1.767767-1.7677675 1.767767z" fill="url(#b)" stroke="#808080" stroke-width=".353553"/><path d="m9.7115205 36.000407c-1.9949554 0-3.5723622 1.623801-3.5723622 3.572362 0 1.994956 1.6238015 3.572362 3.5723622 3.572362 1.9949555 0 3.5723625-1.623801 3.5723625-3.572362 0-1.994956-1.623802-3.572362-3.5723625-3.572362zm0 5.520923c-1.067069 0-1.9485607-.881491-1.9485607-1.948561 0-1.067069.8814917-1.948561 1.9485607-1.948561 1.0670695 0 1.9485605.881492 1.9485605 1.948561 0 1.06707-.881491 1.948561-1.9485605 1.948561z" opacity=".11"/><path d="m11.682618 32.738311-1.271588 4.94786c.397643.105895.715643.351952.931659.692449l4.381311-2.669075c-.896345-1.460075-2.334941-2.534295-4.041382-2.971234z" fill="url(#c)"/><path d="m7.2227938 46.207572 1.6741655-4.826534c-.3875878-.138236-.6842761-.40961-.8715597-.766718l-4.5859626 2.29974c.7732416 1.52884 2.1186263 2.717724 3.7833568 3.293512z" fill="url(#c)"/><path d="m9.7115191 32.573248c-3.8797337 0-6.9995196 3.119786-6.9995196 6.99952s3.1197859 6.99952 6.9995196 6.99952c3.8797339 0 6.9995199-3.119786 6.9995199-6.99952s-3.119786-6.99952-6.9995199-6.99952z" fill="none" opacity=".546448" stroke="url(#e)" stroke-width=".353553"/><circle cx="9.728554" cy="39.579498" fill="none" opacity=".672131" r="2.15625" stroke="url(#f)" stroke-width=".328995"/><path d="m9.7115205 32.207073c-4.0827002 0-7.365696 3.282996-7.365696 7.365696s3.2829958 7.365696 7.365696 7.365696c4.0827005 0 7.3656965-3.282996 7.3656965-7.365696s-3.282996-7.365696-7.3656965-7.365696zm0 9.133463c-.9680627 0-1.7677669-.799704-1.7677669-1.767767s.7997042-1.767767 1.7677669-1.767767c.9680625 0 1.7677675.799704 1.7677675 1.767767s-.799705 1.767767-1.7677675 1.767767z" fill="url(#g)" opacity=".114286"/><path d="m9.7115205 32.207073c-4.0827002 0-7.365696 3.282996-7.365696 7.365696s3.2829958 7.365696 7.365696 7.365696c4.0827005 0 7.3656965-3.282996 7.3656965-7.365696s-3.282996-7.365696-7.3656965-7.365696zm0 9.133463c-.9680627 0-1.7677669-.799704-1.7677669-1.767767s.7997042-1.767767 1.7677669-1.767767c.9680625 0 1.7677675.799704 1.7677675 1.767767s-.799705 1.767767-1.7677675 1.767767z" fill="url(#h)" opacity=".097143"/><path d="m9.7115205 32.207073c-4.0827002 0-7.365696 3.282996-7.365696 7.365696s3.2829958 7.365696 7.365696 7.365696c4.0827005 0 7.3656965-3.282996 7.3656965-7.365696s-3.282996-7.365696-7.3656965-7.365696zm0 9.133463c-.9680627 0-1.7677669-.799704-1.7677669-1.767767s.7997042-1.767767 1.7677669-1.767767c.9680625 0 1.7677675.799704 1.7677675 1.767767s-.799705 1.767767-1.7677675 1.767767z" fill="url(#i)" opacity=".714286"/><path d="m9.7115205 32.207073c-4.0827002 0-7.365696 3.282996-7.365696 7.365696s3.2829958 7.365696 7.365696 7.365696c4.0827005 0 7.3656965-3.282996 7.3656965-7.365696s-3.282996-7.365696-7.3656965-7.365696zm0 9.133463c-.9680627 0-1.7677669-.799704-1.7677669-1.767767s.7997042-1.767767 1.7677669-1.767767c.9680625 0 1.7677675.799704 1.7677675 1.767767s-.799705 1.767767-1.7677675 1.767767z" fill="url(#j)" opacity=".622857"/><path d="m9.7115205 32.207073c-4.0827002 0-7.365696 3.282996-7.365696 7.365696s3.2829958 7.365696 7.365696 7.365696c4.0827005 0 7.3656965-3.282996 7.3656965-7.365696s-3.282996-7.365696-7.3656965-7.365696zm0 9.133463c-.9680627 0-1.7677669-.799704-1.7677669-1.767767s.7997042-1.767767 1.7677669-1.767767c.9680625 0 1.7677675.799704 1.7677675 1.767767s-.799705 1.767767-1.7677675 1.767767z" fill="url(#l)" opacity=".371429"/><path d="m9.7115205 32.207073c-4.0827002 0-7.365696 3.282996-7.365696 7.365696s3.2829958 7.365696 7.365696 7.365696c4.0827005 0 7.3656965-3.282996 7.3656965-7.365696s-3.282996-7.365696-7.3656965-7.365696zm0 9.133463c-.9680627 0-1.7677669-.799704-1.7677669-1.767767s.7997042-1.767767 1.7677669-1.767767c.9680625 0 1.7677675.799704 1.7677675 1.767767s-.799705 1.767767-1.7677675 1.767767z" fill="url(#m)" opacity=".234286"/></g></svg>