<svg height="16" viewBox="0 0 16 16" width="16" xmlns="http://www.w3.org/2000/svg"><path d="m-1052.3622 0h16v16h-16z" fill="none" transform="matrix(0 -1 -1 0 16 -1036.3622)"/><path d="m6.4179688 2.2421875c-3.3848881 0-6.1289063 2.9144125-6.1289063 6.5078125 0 .1713-.055132.8985062-.0429687 1.0664062h1.953125c-.017633-.1669999 0-.8436249 0-1.015625 0-2.4876999 1.8753732-4.5566406 4.21875-4.5566406s4.3828122 2.0181594 4.3828122 4.5058594c0 .172.01764 1.299897 0 1.466797h-2.6015622l3.6015622 3.455078 3.574219-3.455078h-2.589844c.01225-.1678.0293-1.295497.0293-1.466797 0-3.5934-3.0115959-6.5078125-6.3964842-6.5078125z" fill="#fcaf3e" stroke="#ce5c00" stroke-width=".485765" transform="matrix(-1 0 0 1 16 0)"/></svg>