<svg height="16" viewBox="0 0 16 16" width="16" xmlns="http://www.w3.org/2000/svg"><g transform="translate(0 -1036.3622)"><path d="m1.018515 1038.3621h13.982533v12.000206h-13.982533z" fill="#eeeeec"/><g fill="#f57900"><g fill-rule="evenodd" transform="matrix(.99875242 0 0 1.0000172 .019762 -.018006)"><path d="m7.2180376 1036.5803v15.5639h1.5639248v-15.5639z" stroke="#ce5c00" stroke-width=".436075"/><path d="m0 1038.3622c-.04452091 4.1443 0 6 0 6s.02081429 2.9749 0 6c-.00698107 1.0146.98146206 1 .98146206 1h6.00499634v-1h-5.9864584v-12h5.9864586v-1h-5.9864586s-.98944048.017-1 1z"/></g><path d="m12.145883 1058.6536-3.3602611-.3045-3.3602608-.3044 1.9437961-2.7579 1.9437961-2.7578 1.4164647 3.0623z" stroke="#ce5c00" stroke-linecap="square" stroke-width=".523661" transform="matrix(.82068334 .32761093 -.37730842 .71258639 405.23217 288.64764)"/></g></g></svg>