<svg height="16" viewBox="0 0 16 16" width="16" xmlns="http://www.w3.org/2000/svg"><g transform="matrix(.40296593 0 0 .39312274 -1.942193 -1.884675)"><path d="m17.906713 21.215676 18.992589 19.431724c.768486.87827 3.20351 1.557061 4.830485 0 1.571126-1.503613 1.207621-3.622864-.329351-5.159837l-18.224103-19.541507c2.25-6.25-2.303889-11.499568-8.178889-10.374568l-1.262514 1.1527294 3.952215 3.7326476.219568 3.293516-2.950842 2.693603-3.526399-.388144-3.6228634-3.403296s-1.2701213 1.254904-1.2701213 1.254904c-.5907635 5.641317 5.3077257 10.683228 11.3702257 7.308228z" fill="#eeeeec" stroke="#555753" stroke-width="1.251623"/><path d="m22.498794 30.12538c.833541-.714463 13.283834-13.448509 13.283834-13.448509l3.073945-.219568 4.830485-6.6968124-4.024327-3.5851919-6.257674 5.3794063v3.073946l-12.734915 13.228942c-.60381.60381 1.060166 2.926489 1.828652 2.267787z" fill="#babdb6" stroke="#555753" stroke-width="1.251623"/><path d="m8.4653111 43.611561c1.3165875 1.465229 4.9736849 2.128165 6.5954439-.709914.707107-1.237436 2.093943-4.702802 8.281128-10.271268 1.039146-.934171 2.139909-3.071138 1.206747-4.223867l-2.415243-2.415243c-.988053-1.097837-3.734414-.585749-4.861175.950876-3.358757 4.596194-8.8460727 8.25488-10.0835097 8.696822-2.3679195.845685-2.1014106 4.336149-.5348231 5.996487z" fill="#3465a4" stroke="#204a87" stroke-width="1.247749"/></g></svg>