<svg height="16" viewBox="0 0 16 16" width="16" xmlns="http://www.w3.org/2000/svg"><path d="m0 .000001h15.999999v15.999999h-15.999999z" fill="none"/><g fill="#729fcf"><path d="m5.1345845 7.5836562c-.6079397.0323676-1.2107947.191158-1.7467786.4828258.0987212.473733.1974423.947466.2961635 1.421199-.2565553.1263101-.4141335.4827754-.6495207.553681-.4409581-.0899954-.8819161-.1799911-1.3228742-.2699868-.2985218.5330448-.4548647 1.1387168-.4789554 1.7476298.4600978.156395.9201955.312791 1.3802933.469186-.018869.283368.2066817.597704.1489338.835748-.3031341.341696-.6062683.683391-.9094024 1.025087.3124423.520444.7699471.939871 1.2680487 1.278897.3567185-.322035.7134369-.644071 1.0701554-.966106.2432474.165019.6418752.12026.8260189.296789.1426851.436179.2853703.872357.4280554 1.308536.6079393-.03235 1.2107938-.191167 1.7467783-.482824-.098721-.473733-.1974422-.947466-.2961633-1.421199.2565556-.126311.4141328-.482772.6495212-.553683.441033.09.8820659.179993 1.3230989.269989.2981636-.533196.4548857-1.138674.4787301-1.747629-.4600977-.156396-.9201955-.312791-1.3802932-.469187.0188692-.283368-.2066817-.597703-.1489338-.835747.3031341-.341696.6062682-.6833915.9094023-1.0250872-.3123638-.5205511-.7699135-.9398688-1.2680485-1.2788973-.3567185.3220354-.7134369.6440708-1.0701554.9661062-.243248-.1650174-.6418754-.1202607-.826019-.2967915-.1426851-.4361787-.2853702-.8723573-.4280553-1.308536zm.056348 3.1824678c.6525774-.09681 1.2008847.638728.9438698 1.23924-.2069526.623263-1.1266304.789476-1.5304391.266605-.4393564-.474693-.1782212-1.339024.4545597-1.480765l.065408-.01499z" stroke="#2e3436" stroke-linecap="round" stroke-width=".452706"/><g transform="matrix(.43542343 .11766946 -.11667128 .43914868 -1.49074 -3.478632)"><path d="m31 .875c-.389512.2032307-1.466417-.25400306-1.335832.4661695-.06341.9280542-.130397 1.8558679-.195168 2.7838305-1.091537.0535579-2.160574.998798-3.049573 1.0984303l-2.294427-2.4422303-2.344 2.3438 2.563 2.4375c-.730748.8087771-.851905 2.2229386-1.40513 2.919605-.989984.06822-1.979546.142724-2.96987.205895-.09051.875474-.09639 1.748572 0 2.624 1.05238.06735 2.103964.146539 3.156.219.05339 1.091479.999469 2.160651 1.098454 3.049425-.636798.754821-1.278729 1.505329-1.911454 2.263575.544755.680328 1.163649 1.299266 1.844 1.844.805777-.67284 1.603665-1.355066 2.406-2.032.809025.73061 2.223324.8518 2.920105 1.40513.06822.989984.142724 1.979546.205895 2.96987.875474.09051 1.748572.09639 2.624 0 .06735-1.05238.146539-2.103964.219-3.156 1.091479-.05339 2.160651-.999469 3.049425-1.098454.754821.636798 1.505329 1.278729 2.263575 1.911454.680328-.544755 1.299266-1.163649 1.844-1.844-.67284-.805777-1.355066-1.603665-2.032-2.406.73061-.809025.8518-2.223324 1.40513-2.920105.989984-.06822 1.979546-.142724 2.96987-.205895.09051-.875474.09639-1.748572 0-2.624-1.05238-.06735-2.103964-.146539-3.156-.219-.053239-1.0913792-.999395-2.1603591-1.098465-3.0489336.636806-.7549154 1.27869-1.5055634 1.911465-2.2638664-.54485-.680134-1.163107-1.2996889-1.844-1.8437-.806174.6721298-1.603629 1.3546421-2.406 2.0313-.808886-.7308385-2.223399-.8514973-2.920104-1.40493-.068219-.9900677-.142726-1.979713-.205896-2.97012-.438704-.01484771-.873391-.08305508-1.312-.09375zm0 7.625c2.135741-.072709 3.929994 2.127091 3.428852 4.205086-.360265 2.097788-2.857186 3.414211-4.790789 2.519726-1.921096-.74332-2.755888-3.311236-1.631124-5.039247.616673-1.0321897 1.789177-1.6973483 2.993061-1.685565z"/><path d="m31 .5c-.562 0-1.116.047-1.656.125l-.219 3.0938c-.96.2157-1.85.5835-2.656 1.0937l-2.344-2.0313c-1.125.7188-1.625 1.2188-2.344 2.3438l2.031 2.3438c-.51.8067-.878 1.6966-1.093 2.6562l-3.094.219c-.078.54-.125 1.094-.125 1.656s.047 1.116.125 1.656l3.094.219c.215.96.583 1.85 1.093 2.656l-2.031 2.344c.719 1.125 1.219 1.625 2.344 2.344l2.344-2.031c.806.51 1.696.878 2.656 1.093l.219 3.094c.54.078 1.094.125 1.656.125s1.116-.047 1.656-.125l.219-3.094c.96-.215 1.85-.583 2.656-1.093l2.344 2.031c1.125-.719 1.625-1.219 2.344-2.344l-2.031-2.344c.51-.806.878-1.696 1.093-2.656l3.094-.219c.078-.54.125-1.094.125-1.656s-.047-1.116-.125-1.656l-3.094-.219c-.215-.9596-.583-1.8495-1.093-2.6562l2.031-2.3438c-.65-1.1077-1.219-1.625-2.344-2.3438l-2.344 2.0313c-.806-.5102-1.696-.878-2.656-1.0937l-.219-3.0938c-.54-.078-1.094-.125-1.656-.125zm0 9c1.38 0 2.5 1.12 2.5 2.5s-1.12 2.5-2.5 2.5-2.5-1.12-2.5-2.5 1.12-2.5 2.5-2.5z" stroke="#2e3436" stroke-linecap="square" stroke-width="1.0054"/></g></g></svg>