<?xml version="1.0" encoding="UTF-8" standalone="no"?>
<!-- Created with Inkscape (http://www.inkscape.org/) -->

<svg
   xmlns:dc="http://purl.org/dc/elements/1.1/"
   xmlns:cc="http://creativecommons.org/ns#"
   xmlns:rdf="http://www.w3.org/1999/02/22-rdf-syntax-ns#"
   xmlns:svg="http://www.w3.org/2000/svg"
   xmlns="http://www.w3.org/2000/svg"
   xmlns:sodipodi="http://sodipodi.sourceforge.net/DTD/sodipodi-0.dtd"
   xmlns:inkscape="http://www.inkscape.org/namespaces/inkscape"
   id="svg7384"
   height="16"
   width="16"
   version="1.1"
   viewBox="0 0 16 16"
   inkscape:version="0.92pre1 unknown"
   sodipodi:docname="gimp-system-run.svg">
  <defs
     id="defs10" />
  <sodipodi:namedview
     pagecolor="#ffffff"
     bordercolor="#666666"
     borderopacity="1"
     objecttolerance="10"
     gridtolerance="10"
     guidetolerance="10"
     inkscape:pageopacity="0"
     inkscape:pageshadow="2"
     inkscape:window-width="1346"
     inkscape:window-height="939"
     id="namedview8"
     showgrid="true"
     inkscape:zoom="21.59375"
     inkscape:cx="-0.48188671"
     inkscape:cy="9.4008685"
     inkscape:window-x="38"
     inkscape:window-y="65"
     inkscape:window-maximized="0"
     inkscape:current-layer="svg7384"
     showguides="false">
    <inkscape:grid
       type="xygrid"
       id="grid4233" />
  </sodipodi:namedview>
  <metadata
     id="metadata90">
    <rdf:RDF>
      <cc:Work
         rdf:about="">
        <dc:format>image/svg+xml</dc:format>
        <dc:type
           rdf:resource="http://purl.org/dc/dcmitype/StillImage" />
        <dc:title />
      </cc:Work>
    </rdf:RDF>
  </metadata>
  <rect
     y="1e-06"
     x="6.6613381e-16"
     height="15.999999"
     width="15.999999"
     id="rect4257"
     style="opacity:1;fill:none;fill-opacity:1;stroke:none;stroke-width:1.35169733;stroke-linecap:square;stroke-linejoin:miter;stroke-miterlimit:4;stroke-dasharray:none;stroke-opacity:1;paint-order:stroke fill markers" />
  <path
     style="fill:#729fcf;fill-opacity:1;stroke:#2e3436;stroke-width:0.45270577;stroke-linecap:round"
     d="M 5.1345845,7.5836562 C 4.5266448,7.6160238 3.9237898,7.7748142 3.3878059,8.066482 3.4865271,8.540215 3.5852482,9.013948 3.6839694,9.487681 3.4274141,9.6139911 3.2698359,9.9704564 3.0344487,10.041362 2.5934906,9.9513666 2.1525326,9.8613709 1.7115745,9.7713752 1.4130527,10.30442 1.2567098,10.910092 1.2326191,11.519005 c 0.4600978,0.156395 0.9201955,0.312791 1.3802933,0.469186 -0.018869,0.283368 0.2066817,0.597704 0.1489338,0.835748 -0.3031341,0.341696 -0.6062683,0.683391 -0.9094024,1.025087 0.3124423,0.520444 0.7699471,0.939871 1.2680487,1.278897 0.3567185,-0.322035 0.7134369,-0.644071 1.0701554,-0.966106 0.2432474,0.165019 0.6418752,0.12026 0.8260189,0.296789 0.1426851,0.436179 0.2853703,0.872357 0.4280554,1.308536 0.6079393,-0.03235 1.2107938,-0.191167 1.7467783,-0.482824 -0.098721,-0.473733 -0.1974422,-0.947466 -0.2961633,-1.421199 0.2565556,-0.126311 0.4141328,-0.482772 0.6495212,-0.553683 0.441033,0.09 0.8820659,0.179993 1.3230989,0.269989 C 9.1661209,13.046229 9.322843,12.440751 9.3466874,11.831796 8.8865897,11.6754 8.4264919,11.519005 7.9663942,11.362609 7.9852634,11.079241 7.7597125,10.764906 7.8174604,10.526862 8.1205945,10.185166 8.4237286,9.8434705 8.7268627,9.5017748 8.4144989,8.9812237 7.9569492,8.561906 7.4588142,8.2228775 7.1020957,8.5449129 6.7453773,8.8669483 6.3886588,9.1889837 6.1454108,9.0239663 5.7467834,9.068723 5.5626398,8.8921922 5.4199547,8.4560135 5.2772696,8.0198349 5.1345845,7.5836562 Z m 0.056348,3.1824678 c 0.6525774,-0.09681 1.2008847,0.638728 0.9438698,1.23924 C 5.9278497,12.628627 5.0081719,12.79484 4.6043632,12.271969 4.1650068,11.797276 4.426142,10.932945 5.0589229,10.791204 l 0.065408,-0.01499 z"
     id="path2978"
     inkscape:connector-curvature="0" />
  <g
     transform="matrix(0.43542343,0.11766946,-0.11667128,0.43914868,-1.49074,-3.4786318)"
     id="g2904"
     style="fill:#729fcf;fill-opacity:1">
    <path
       style="opacity:1;fill:#729fcf;fill-opacity:1"
       d="M 31,0.875 C 30.610488,1.0782307 29.533583,0.62099694 29.664168,1.3411695 29.600758,2.2692237 29.533771,3.1970374 29.469,4.125 28.377463,4.1785579 27.308426,5.123798 26.419427,5.2234303 L 24.125,2.7812 21.781,5.125 24.344,7.5625 c -0.730748,0.8087771 -0.851905,2.2229386 -1.40513,2.919605 -0.989984,0.06822 -1.979546,0.142724 -2.96987,0.205895 -0.09051,0.875474 -0.09639,1.748572 0,2.624 1.05238,0.06735 2.103964,0.146539 3.156,0.219 0.05339,1.091479 0.999469,2.160651 1.098454,3.049425 -0.636798,0.754821 -1.278729,1.505329 -1.911454,2.263575 0.544755,0.680328 1.163649,1.299266 1.844,1.844 0.805777,-0.67284 1.603665,-1.355066 2.406,-2.032 0.809025,0.73061 2.223324,0.8518 2.920105,1.40513 0.06822,0.989984 0.142724,1.979546 0.205895,2.96987 0.875474,0.09051 1.748572,0.09639 2.624,0 0.06735,-1.05238 0.146539,-2.103964 0.219,-3.156 1.091479,-0.05339 2.160651,-0.999469 3.049425,-1.098454 0.754821,0.636798 1.505329,1.278729 2.263575,1.911454 0.680328,-0.544755 1.299266,-1.163649 1.844,-1.844 -0.67284,-0.805777 -1.355066,-1.603665 -2.032,-2.406 0.73061,-0.809025 0.8518,-2.223324 1.40513,-2.920105 0.989984,-0.06822 1.979546,-0.142724 2.96987,-0.205895 0.09051,-0.875474 0.09639,-1.748572 0,-2.624 C 40.97862,10.62065 39.927036,10.541461 38.875,10.469 38.821761,9.3776208 37.875605,8.3086409 37.776535,7.4200664 38.413341,6.665151 39.055225,5.914503 39.688,5.1562 39.14315,4.476066 38.524893,3.8565111 37.844,3.3125 37.037826,3.9846298 36.240371,4.6671421 35.438,5.3438 34.629114,4.6129615 33.214601,4.4923027 32.517896,3.93887 32.449677,2.9488023 32.37517,1.959157 32.312,0.96875 31.873296,0.95390229 31.438609,0.88569492 31,0.875 Z M 31,8.5 c 2.135741,-0.072709 3.929994,2.127091 3.428852,4.205086 -0.360265,2.097788 -2.857186,3.414211 -4.790789,2.519726 -1.921096,-0.74332 -2.755888,-3.311236 -1.631124,-5.039247 C 28.623612,9.1533753 29.796116,8.4882167 31,8.5 Z"
       id="path2875"
       inkscape:connector-curvature="0" />
    <path
       style="fill:#729fcf;fill-opacity:1;stroke:#2e3436;stroke-width:1.00539994;stroke-linecap:square"
       inkscape:connector-curvature="0"
       d="m 31,0.5 c -0.562,0 -1.116,0.047 -1.656,0.125 l -0.219,3.0938 c -0.96,0.2157 -1.85,0.5835 -2.656,1.0937 L 24.125,2.7812 C 23,3.5 22.5,4 21.781,5.125 l 2.031,2.3438 c -0.51,0.8067 -0.878,1.6966 -1.093,2.6562 l -3.094,0.219 C 19.547,10.884 19.5,11.438 19.5,12 c 0,0.562 0.047,1.116 0.125,1.656 l 3.094,0.219 c 0.215,0.96 0.583,1.85 1.093,2.656 l -2.031,2.344 C 22.5,20 23,20.5 24.125,21.219 l 2.344,-2.031 c 0.806,0.51 1.696,0.878 2.656,1.093 l 0.219,3.094 c 0.54,0.078 1.094,0.125 1.656,0.125 0.562,0 1.116,-0.047 1.656,-0.125 l 0.219,-3.094 c 0.96,-0.215 1.85,-0.583 2.656,-1.093 l 2.344,2.031 C 39,20.5 39.5,20 40.219,18.875 l -2.031,-2.344 c 0.51,-0.806 0.878,-1.696 1.093,-2.656 l 3.094,-0.219 C 42.453,13.116 42.5,12.562 42.5,12 c 0,-0.562 -0.047,-1.116 -0.125,-1.656 L 39.281,10.125 C 39.066,9.1654 38.698,8.2755 38.188,7.4688 L 40.219,5.125 C 39.569,4.0173 39,3.5 37.875,2.7812 L 35.531,4.8125 C 34.725,4.3023 33.835,3.9345 32.875,3.7188 L 32.656,0.625 C 32.116,0.547 31.562,0.5 31,0.5 Z m 0,9 c 1.38,0 2.5,1.12 2.5,2.5 0,1.38 -1.12,2.5 -2.5,2.5 -1.38,0 -2.5,-1.12 -2.5,-2.5 0,-1.38 1.12,-2.5 2.5,-2.5 z"
       id="path2779" />
  </g>
</svg>
