<svg height="16" viewBox="0 0 16 16" width="16" xmlns="http://www.w3.org/2000/svg"><g transform="translate(0 -1036.3622)"><path d="m13.669922.76171875a1.1490108 1.1490108 0 0 0 -1.13086 1.16601565v.9472656c-.95846-.851734-2.137276-1.4319396-3.414062-1.6445312-.7619202-.1268382-1.5554266-.1271062-2.3515625.0175781-3.1845382.5768989-5.5754015 3.299712-5.7402344 6.53125-.16483438 3.2316141 1.9381632 6.1363751 5.0507813 6.9667971 3.1126188.830345 6.4220996-.632203 7.9394536-3.503906l-2.019532-1.050782c-1.021381 1.933056-3.2163582 2.901424-5.3066404 2.34375-2.0902829-.557521-3.4899378-2.487287-3.3789062-4.6640622.1110293-2.1766983 1.7015017-3.9857158 3.8398437-4.3730469 1.6314769-.2955195 3.2293969.3023028 4.2617189 1.4921875h-1.9453126a1.149414 1.149414 0 1 0 0 2.2988281h5.3613286v-5.3613281a1.1490108 1.1490108 0 0 0 -1.166016-1.16601565z" fill="#73d216" stroke="#4e9a06" stroke-width=".5" transform="matrix(1.00616742832 0 0 .97855424149 .22105742631 1036.46161611945)"/><path d="m0 1036.3622h16v16h-16z" fill="none"/></g></svg>