<svg height="16" viewBox="0 0 16 16" width="16" xmlns="http://www.w3.org/2000/svg"><g transform="translate(0 -1036.3622)"><path d="m2.5859375 1c-1.4445624.039061-2.13161581 1.8449876-1.0722656 2.8476562l4.2148437 4.0859376.0996094.0976562-.03125.03125-4.296875 4.183594c-1.51372932 1.5566.7480915 3.781109 2.2617188 2.224609l4.3964843-4.169922 4.0878909 4.199219c1.556547 1.513652 3.781158-.748066 2.224609-2.261719l-4.044922-4.2656248.03125-.03125 4.072266-4.1875c.310975-.3107999.48132-.7326687.470703-1.1679687-.0388-1.4446-1.845003-2.13166563-2.847656-1.0722656l-4.0546878 4.1835937-.1582031-.1542968-4.1855469-4.0722657c-.3107221-.3111475-.7326993-.48113949-1.1679687-.4707031z" transform="matrix(1.00000000494 -.00000000189 .00000000738 .99999999794 -.00000125537 1036.3621530006)"/><path d="m0 1036.3622h16v16h-16z" fill="none"/></g></svg>