<?xml version="1.0" encoding="UTF-8" standalone="no"?>
<svg
   width="16"
   height="16"
   viewBox="0 0 16 16"
   id="svg30571"
   version="1.1"
   inkscape:version="1.1.2 (1:1.1+202202050942+0a00cf5339)"
   sodipodi:docname="window-close.svg"
   xmlns:inkscape="http://www.inkscape.org/namespaces/inkscape"
   xmlns:sodipodi="http://sodipodi.sourceforge.net/DTD/sodipodi-0.dtd"
   xmlns="http://www.w3.org/2000/svg"
   xmlns:svg="http://www.w3.org/2000/svg"
   xmlns:rdf="http://www.w3.org/1999/02/22-rdf-syntax-ns#"
   xmlns:cc="http://creativecommons.org/ns#"
   xmlns:dc="http://purl.org/dc/elements/1.1/">
  <defs
     id="defs30573" />
  <sodipodi:namedview
     id="base"
     pagecolor="#76ffff"
     bordercolor="#666666"
     borderopacity="1"
     inkscape:pageopacity="0"
     inkscape:pageshadow="2"
     inkscape:zoom="22.627417"
     inkscape:cx="6.4302523"
     inkscape:cy="9.6785241"
     inkscape:document-units="px"
     inkscape:current-layer="layer1"
     showgrid="true"
     units="px"
     inkscape:snap-page="true"
     inkscape:snap-bbox="true"
     inkscape:bbox-paths="true"
     inkscape:bbox-nodes="true"
     inkscape:snap-bbox-edge-midpoints="true"
     inkscape:snap-bbox-midpoints="true"
     inkscape:object-paths="true"
     inkscape:snap-intersection-paths="true"
     inkscape:object-nodes="true"
     inkscape:snap-smooth-nodes="true"
     inkscape:snap-midpoints="true"
     inkscape:snap-object-midpoints="true"
     inkscape:snap-center="true"
     inkscape:snap-text-baseline="true"
     showborder="false"
     inkscape:window-width="1274"
     inkscape:window-height="1387"
     inkscape:window-x="0"
     inkscape:window-y="22"
     inkscape:window-maximized="1"
     inkscape:snap-global="false"
     showguides="false"
     inkscape:pagecheckerboard="0"
     inkscape:lockguides="true">
    <inkscape:grid
       type="xygrid"
       id="grid4237" />
  </sodipodi:namedview>
  <metadata
     id="metadata30576">
    <rdf:RDF>
      <cc:Work
         rdf:about="">
        <dc:format>
          image/svg+xml
        </dc:format>
        <dc:type
           rdf:resource="http://purl.org/dc/dcmitype/StillImage" />
        <dc:creator>
          <cc:Agent>
            <dc:title>Klaus Staedtler       </dc:title>
          </cc:Agent>
        </dc:creator>
      </cc:Work>
    </rdf:RDF>
  </metadata>
  <g
     inkscape:label="Layer 1"
     inkscape:groupmode="layer"
     id="layer1"
     transform="translate(0,-1036.3622)">
    <path
       style="color:#000000;font-style:normal;font-variant:normal;font-weight:normal;font-stretch:normal;font-size:medium;line-height:normal;font-family:sans-serif;text-indent:0;text-align:start;text-decoration:none;text-decoration-line:none;text-decoration-style:solid;text-decoration-color:#000000;letter-spacing:normal;word-spacing:normal;text-transform:none;writing-mode:lr-tb;direction:ltr;baseline-shift:baseline;text-anchor:start;white-space:normal;clip-rule:nonzero;display:inline;overflow:visible;visibility:visible;isolation:auto;mix-blend-mode:normal;color-interpolation:sRGB;color-interpolation-filters:linearRGB;solid-color:#000000;solid-opacity:1;fill:#e6e6e6;fill-opacity:1;fill-rule:nonzero;stroke:none;stroke-width:0.260798;stroke-linecap:round;stroke-linejoin:miter;stroke-miterlimit:4;stroke-dasharray:none;stroke-dashoffset:0;stroke-opacity:1;color-rendering:auto;image-rendering:auto;shape-rendering:auto;text-rendering:auto;enable-background:accumulate"
       d="m 2.5859362,1037.3622 c -1.4445624,0.039 -2.13161577,1.845 -1.0722656,2.8477 l 4.2148437,4.0859 0.099609,0.098 -0.03125,0.031 -4.296875,4.1836 c -1.51372928,1.5566 0.7480915,3.7811 2.2617188,2.2246 l 4.3964843,-4.1699 4.0878912,4.1992 c 1.556547,1.5137 3.781158,-0.7481 2.224609,-2.2617 l -4.044922,-4.2656 0.03125,-0.031 4.072266,-4.1875 c 0.310975,-0.3108 0.48132,-0.7327 0.470703,-1.168 -0.0388,-1.4446 -1.845003,-2.1316 -2.847656,-1.0722 l -4.0546881,4.1836 -0.1582031,-0.1543 -4.1855469,-4.0723 c -0.3107221,-0.3111 -0.7326993,-0.4811 -1.1679687,-0.4707 z"
       id="path6388-7-7-4-7" />
    <g
       id="g7078"
       transform="matrix(1.70995,-0.0450243,0.04544797,1.7064456,17.314404,-697.44834)" />
    <rect
       style="color:#000000;clip-rule:nonzero;display:inline;overflow:visible;visibility:visible;isolation:auto;mix-blend-mode:normal;color-interpolation:sRGB;color-interpolation-filters:linearRGB;solid-color:#000000;solid-opacity:1;fill:none;fill-opacity:1;fill-rule:nonzero;stroke:none;stroke-width:0.484848;stroke-linecap:round;stroke-linejoin:round;stroke-miterlimit:4;stroke-dasharray:none;stroke-dashoffset:0;stroke-opacity:1;color-rendering:auto;image-rendering:auto;shape-rendering:auto;text-rendering:auto;enable-background:accumulate"
       id="rect3999"
       width="16"
       height="16"
       x="0"
       y="1036.3622" />
    <path
       id="path939"
       style="baseline-shift:baseline;display:inline;overflow:visible;stroke-width:0.260798;stroke-linecap:round;enable-background:accumulate"
       d="m 2.5957031,1037.8633 c -1.0292074,0.032 -1.5003708,1.2611 -0.7382812,1.9824 a 0.50005,0.50005 0 0 1 0.00391,0 l 4.2148438,4.0859 a 0.50005,0.50005 0 0 1 0.00586,0.01 l 0.099609,0.1 a 0.50005,0.50005 0 0 1 -0.011719,0.7188 l -0.027344,0.025 -4.2832031,4.1718 c -0.2935856,0.3019 -0.3724667,0.5821 -0.3574219,0.8477 0.015045,0.2655 0.1424229,0.5287 0.34375,0.7265 0.2013272,0.1979 0.4662196,0.3211 0.7285157,0.3301 0.262296,0.01 0.5345702,-0.075 0.828125,-0.3769 a 0.50005,0.50005 0 0 1 0.015625,-0.016 l 4.3964843,-4.168 a 0.50005,0.50005 0 0 1 0.7011719,0.014 l 4.078125,4.1875 c 0.301885,0.2935 0.581789,0.3743 0.847656,0.3593 0.265868,-0.015 0.530495,-0.1445 0.728516,-0.3457 0.198021,-0.2011 0.318987,-0.4646 0.328125,-0.7265 0.0091,-0.262 -0.07312,-0.5346 -0.375,-0.8282 a 0.50005,0.50005 0 0 1 -0.01563,-0.016 l -4.044922,-4.2656 a 0.50005,0.50005 0 0 1 0.0098,-0.6973 l 0.0293,-0.029 4.06836,-4.1836 a 0.50005,0.50005 0 0 1 0.0059,-0.01 c 0.215075,-0.215 0.330936,-0.5044 0.324219,-0.8008 v -0 c -0.02932,-1.0311 -1.262451,-1.503 -1.984375,-0.7402 a 0.50005,0.50005 0 0 1 -0.0039,0 l -4.0546878,4.1836 a 0.50005,0.50005 0 0 1 -0.7089843,0.01 l -0.1582031,-0.1543 -4.1855469,-4.0723 a 0.50005,0.50005 0 0 1 -0.00391,-0 c -0.2151317,-0.2154 -0.5052557,-0.3313 -0.8027344,-0.3242 a 0.50005,0.50005 0 0 1 -0.00195,0 z" />
  </g>
</svg>
