<svg height="16" viewBox="0 0 16 16" width="16" xmlns="http://www.w3.org/2000/svg"><g stroke="#555753" stroke-linecap="round"><rect fill="#eeeeec" height="14.99999925463" rx="3.20737584063" ry="3.20278947052" stroke-width=".9999999247" width="14.99999925463" x=".49999978557" y=".50000097688"/><path d="m3.9999996 3.5000027c-.26834 0-.5.23166-.5.5v2.4999999h2v-.9999999h1v-2zm5.5 0v2h1.0000004v.9999999h2v-2.4999999c0-.26834-.23166-.5-.5-.5zm-6 5.9999999v2.5000004c0 .26834.23166.5.5.5h2.5v-2h-1v-1.0000004zm7.0000004 0v1.0000004h-1.0000004v2h2.5000004c.26834 0 .5-.23166.5-.5v-2.5000004z"/></g></svg>