/* XPM */
char * amb2_xpm[] = {
"32 32 23 1",
" 	c None",
".	c #CF3CCF3CCF3C",
"X	c #CF3CCB2BCF3C",
"o	c #C71BC30BC71B",
"O	c #D75CD75CD75C",
"+	c #DF7DDB6CDF7D",
"@	c #C71BC71BC71B",
"#	c #AEBAAEBAAEBA",
"$	c #DF7DDF7DDF7D",
"%	c #E79DE38DE79D",
"&	c #D75CD34CD75C",
"*	c #E79DE79DE79D",
"=	c #AEBAAAAAAEBA",
"-	c #EFBEEBADEFBE",
";	c #BEFBBEFBBEFB",
":	c #A699A289A699",
">	c #F7DEF3CEF7DE",
",	c #F7DEF7DEF7DE",
"<	c #B6DAB2CAB6DA",
"1	c #FFFFFFFFFFFF",
"2	c #FFFFFBEEFFFF",
"3	c #B6DAB6DAB6DA",
"4	c #BEFBBAEABEFB",
"                                ",
"                                ",
"                                ",
"                                ",
"                                ",
"                                ",
"                                ",
"                                ",
"               ..X              ",
"            oO+++O.@#           ",
"           X$%%$$+O&X#          ",
"          X%%*%%$$+&.@=         ",
"         o$%**-*%$+O.@;:        ",
"         O%**>,,%$+O.Xo<        ",
"         +%%-,12*+O&.Xo3        ",
"        .+$%*,2,%+O&.@;3<       ",
"        .+$$%%*%+O&.X@;3<       ",
"        XO+$$$++OO&.@o43<       ",
"         .O+++OO&&.Xo;3<        ",
"         @&&OO&&..X@;43#        ",
"         #X.....X@o;43<:        ",
"          #@@XX@@o;43<:         ",
"           =;oo;;433<:          ",
"            :<3333<#:           ",
"               <<<              ",
"                                ",
"                                ",
"                                ",
"                                ",
"                                ",
"                                ",
"                                "};
