/* XPM */
char * diffref2_xpm[] = {
"32 32 40 1",
" 	c None",
".	c #D75CD34CD75C",
"X	c #CF3CCF3CCF3C",
"o	c #BEFBBAEABEFB",
"O	c #F7DEF3CEF7DE",
"+	c #F7DEF7DEF7DE",
"@	c #FFFFFBEEFFFF",
"#	c #EFBEEBADEFBE",
"$	c #D75CD75CD75C",
"%	c #B6DAB2CAB6DA",
"&	c #79E779E779E7",
"*	c #E79DE79DE79D",
"=	c #FFFFFFFFFFFF",
"-	c #EFBEEFBEEFBE",
";	c #E79DE38DE79D",
":	c #C71BC71BC71B",
">	c #A699A289A699",
",	c #618565956185",
"<	c #AEBAAEBAAEBA",
"1	c #861786178617",
"2	c #492449244924",
"3	c #8E388E388E38",
"4	c #596559655965",
"5	c #CF3CCB2BCF3C",
"6	c #618561856185",
"7	c #DF7DDB6CDF7D",
"8	c #C71BC30BC71B",
"9	c #AEBAAAAAAEBA",
"0	c #8E388A288E38",
"q	c #49244D344924",
"w	c #9E799E799E79",
"e	c #79E77DF779E7",
"r	c #965892489658",
"t	c #71C671C671C6",
"y	c #514451445144",
"u	c #9E799A699E79",
"i	c #861782078617",
"p	c #69A66DB669A6",
"a	c #514455555144",
"s	c #410345144103",
"                                ",
"                                ",
"                                ",
"                                ",
"                                ",
"                                ",
"                                ",
"                                ",
"               .Xo              ",
"            .O+@@#$%&           ",
"           *=====@-$%&          ",
"          *=======+;:>,         ",
"         .========+*X<12        ",
"         O========+*X%34        ",
"         +========O;5<36        ",
"        .@=======@#78906q       ",
"        X@======@O;Xowe4q       ",
"        o#@====@O*$89rtyq       ",
"         $-+++O#;$:%ui6q        ",
"         %$;**;7X8%w0py2        ",
"         &%:XX58o9u0taqs        ",
"          &><%<9wripaqs         ",
"           ,1330et6yqs          ",
"            24664yq2s           ",
"               qqq              ",
"                                ",
"                                ",
"                                ",
"                                ",
"                                ",
"                                ",
"                                "};
