/* XPM */
char * diffint2_xpm[] = {
"32 32 45 1",
" 	c None",
".	c #A699A699A699",
"X	c #A699A289A699",
"o	c #965896589658",
"O	c #BEFBBEFBBEFB",
"+	c #CF3CCB2BCF3C",
"@	c #C71BC71BC71B",
"#	c #C71BC30BC71B",
"$	c #B6DAB6DAB6DA",
"%	c #8E388E388E38",
"&	c #69A669A669A6",
"*	c #D75CD75CD75C",
"=	c #DF7DDB6CDF7D",
"-	c #CF3CCF3CCF3C",
";	c #965892489658",
":	c #DF7DDF7DDF7D",
">	c #E79DE38DE79D",
",	c #D75CD34CD75C",
"<	c #AEBAAEBAAEBA",
"1	c #9E799E799E79",
"2	c #861786178617",
"3	c #596559655965",
"4	c #E79DE79DE79D",
"5	c #B6DAB2CAB6DA",
"6	c #71C671C671C6",
"7	c #492449244924",
"8	c #F7DEF3CEF7DE",
"9	c #F7DEF7DEF7DE",
"0	c #71C675D671C6",
"q	c #514455555144",
"w	c #FFFFFFFFFFFF",
"e	c #FFFFFBEEFFFF",
"r	c #BEFBBAEABEFB",
"t	c #EFBEEBADEFBE",
"y	c #AEBAAAAAAEBA",
"u	c #9E799A699E79",
"i	c #8E388A288E38",
"p	c #49244D344924",
"a	c #861782078617",
"s	c #69A66DB669A6",
"d	c #79E779E779E7",
"f	c #618565956185",
"g	c #514451445144",
"h	c #618561856185",
"j	c #410345144103",
"                                ",
"                                ",
"                                ",
"                                ",
"                                ",
"                                ",
"                                ",
"                                ",
"               .Xo              ",
"            .O+@#$.%&           ",
"           $*==*-#$.;&          ",
"          $=:>:=,+O<123         ",
"         .*:444:*+O5X%67        ",
"         O=>4898*+O5X%0q        ",
"         +=:49we=@r<1%03        ",
"        .@*=:8et-#$yui03p       ",
"        X#-,**=-#r<Xoasqp       ",
"        o$#+++@#r5.uidfgp       ",
"         .$OOOr$<.1%as3p        ",
"         %.<55<yXu%a0hg7        ",
"         &;1XX1uoia0fgpj        ",
"          &2%%%iadshgpj         ",
"           36000sf3gpj          ",
"            7q33qgp7j           ",
"               ppp              ",
"                                ",
"                                ",
"                                ",
"                                ",
"                                ",
"                                ",
"                                "};
