/* XPM */
char * diffint1_xpm[] = {
"32 32 9 1",
" 	c None",
".	c #514455555144",
"X	c #514451445144",
"o	c #49244D344924",
"O	c #596559655965",
"+	c #492449244924",
"@	c #410345144103",
"#	c #59655D755965",
"$	c #618561856185",
"                                ",
"                                ",
"                                ",
"                                ",
"                                ",
"                                ",
"                                ",
"                                ",
"               ..X              ",
"            o.OO...X+           ",
"           XOOOOOO..X+          ",
"          XOOOOOOO...X+         ",
"         oOOOOOOOOO..Xo@        ",
"         .OOO###OO...XX+        ",
"         OOOO#$#OO...XXo        ",
"        .OOOO###OO...XXoo       ",
"        ..OOOOOOO...XXooo       ",
"        X.OOOOOO....XXooo       ",
"         ...O......XXooo        ",
"         X........XXXoo+        ",
"         +X.....XXXXooo@        ",
"          +XXXXXXXoooo@         ",
"           +oXXXooooo@          ",
"            @+ooooo+@           ",
"               ooo              ",
"                                ",
"                                ",
"                                ",
"                                ",
"                                ",
"                                ",
"                                "};
