/* XPM */
char * specref1_xpm[] = {
"32 32 40 1",
" 	c None",
".	c #A699A699A699",
"X	c #A699A289A699",
"o	c #965896589658",
"O	c #BEFBBEFBBEFB",
"+	c #CF3CCB2BCF3C",
"@	c #C71BC71BC71B",
"#	c #C71BC30BC71B",
"$	c #B6DAB6DAB6DA",
"%	c #8E388E388E38",
"&	c #69A669A669A6",
"*	c #D75CD75CD75C",
"=	c #DF7DDB6CDF7D",
"-	c #CF3CCF3CCF3C",
";	c #965892489658",
":	c #DF7DDF7DDF7D",
">	c #E79DE38DE79D",
",	c #D75CD34CD75C",
"<	c #AEBAAEBAAEBA",
"1	c #9E799E799E79",
"2	c #861786178617",
"3	c #596559655965",
"4	c #E79DE79DE79D",
"5	c #B6DAB2CAB6DA",
"6	c #71C671C671C6",
"7	c #492449244924",
"8	c #71C675D671C6",
"9	c #514455555144",
"0	c #BEFBBAEABEFB",
"q	c #AEBAAAAAAEBA",
"w	c #9E799A699E79",
"e	c #8E388A288E38",
"r	c #49244D344924",
"t	c #861782078617",
"y	c #69A66DB669A6",
"u	c #79E779E779E7",
"i	c #618565956185",
"p	c #514451445144",
"a	c #618561856185",
"s	c #410345144103",
"                                ",
"                                ",
"                                ",
"                                ",
"                                ",
"                                ",
"                                ",
"                                ",
"               .Xo              ",
"            .O+@#$.%&           ",
"           $*==*-#$.;&          ",
"          $=:>:=,+O<123         ",
"         .*:>4>=*+O5X%67        ",
"         O=>4>>=,+O5X%89        ",
"         +=:>>:*-@0<1%83        ",
"        .@*===*,+#$qwe83r       ",
"        X#-,*,-+#0<Xoty9r       ",
"        o$#+++@#05.weuipr       ",
"         .$OOO0$<.1%ty3r        ",
"         %.<55<qXw%t8ap7        ",
"         &;1XX1woet8iprs        ",
"          &2%%%etuyaprs         ",
"           36888yi3prs          ",
"            79339pr7s           ",
"               rrr              ",
"                                ",
"                                ",
"                                ",
"                                ",
"                                ",
"                                ",
"                                "};
