/* XPM */
char * specref2_xpm[] = {
"32 32 44 1",
" 	c None",
".	c #A699A699A699",
"X	c #A699A289A699",
"o	c #965896589658",
"O	c #BEFBBEFBBEFB",
"+	c #CF3CCB2BCF3C",
"@	c #C71BC71BC71B",
"#	c #C71BC30BC71B",
"$	c #B6DAB6DAB6DA",
"%	c #8E388E388E38",
"&	c #69A669A669A6",
"*	c #D75CD75CD75C",
"=	c #DF7DDB6CDF7D",
"-	c #CF3CCF3CCF3C",
";	c #965892489658",
":	c #DF7DDF7DDF7D",
">	c #E79DE38DE79D",
",	c #D75CD34CD75C",
"<	c #AEBAAEBAAEBA",
"1	c #9E799E799E79",
"2	c #861786178617",
"3	c #596559655965",
"4	c #E79DE79DE79D",
"5	c #EFBEEFBEEFBE",
"6	c #B6DAB2CAB6DA",
"7	c #71C671C671C6",
"8	c #492449244924",
"9	c #FFFFFBEEFFFF",
"0	c #FFFFFFFFFFFF",
"q	c #71C675D671C6",
"w	c #514455555144",
"e	c #EFBEEBADEFBE",
"r	c #BEFBBAEABEFB",
"t	c #AEBAAAAAAEBA",
"y	c #9E799A699E79",
"u	c #8E388A288E38",
"i	c #49244D344924",
"p	c #861782078617",
"a	c #69A66DB669A6",
"s	c #79E779E779E7",
"d	c #618565956185",
"f	c #514451445144",
"g	c #618561856185",
"h	c #410345144103",
"                                ",
"                                ",
"                                ",
"                                ",
"                                ",
"                                ",
"                                ",
"                                ",
"               .Xo              ",
"            .O+@#$.%&           ",
"           $*==*-#$.;&          ",
"          $=:>:=,+O<123         ",
"         .*:4454*+O6X%78        ",
"         O=>4900>+O6X%qw        ",
"         +=:5000e+r<1%q3        ",
"        .@*=4009=#$tyuq3i       ",
"        X#-,*>e=@r<Xopawi       ",
"        o$#++++#r6.yusdfi       ",
"         .$OOOr$<.1%pa3i        ",
"         %.<66<tXy%pqgf8        ",
"         &;1XX1youpqdfih        ",
"          &2%%%upsagfih         ",
"           37qqqad3fih          ",
"            8w33wfi8h           ",
"               iii              ",
"                                ",
"                                ",
"                                ",
"                                ",
"                                ",
"                                ",
"                                "};
