<?xml version="1.0" encoding="UTF-8" standalone="no"?>
<!-- Created with Inkscape (http://www.inkscape.org/) -->
<svg
   xmlns:dc="http://purl.org/dc/elements/1.1/"
   xmlns:cc="http://web.resource.org/cc/"
   xmlns:rdf="http://www.w3.org/1999/02/22-rdf-syntax-ns#"
   xmlns:svg="http://www.w3.org/2000/svg"
   xmlns="http://www.w3.org/2000/svg"
   xmlns:xlink="http://www.w3.org/1999/xlink"
   xmlns:sodipodi="http://sodipodi.sourceforge.net/DTD/sodipodi-0.dtd"
   xmlns:inkscape="http://www.inkscape.org/namespaces/inkscape"
   version="1.0"
   x="0.0000000"
   y="0.0000000"
   width="48.000000px"
   height="48.000000px"
   id="svg1"
   sodipodi:version="0.32"
   inkscape:version="0.43+devel"
   sodipodi:docname="folders-variables.svg"
   sodipodi:docbase="/home/lapo/Desktop/Grafica/WIP/gimp/preferences">
  <metadata
     id="metadata162">
    <rdf:RDF>
      <cc:Work
         rdf:about="">
        <dc:format>image/svg+xml</dc:format>
        <dc:type
           rdf:resource="http://purl.org/dc/dcmitype/StillImage" />
        <dc:title>Folder</dc:title>
        <dc:creator>
          <cc:Agent>
            <dc:title>Jakub Steiner</dc:title>
          </cc:Agent>
        </dc:creator>
        <dc:date>2005-02-01</dc:date>
        <cc:license
           rdf:resource="http://creativecommons.org/licenses/GPL/2.0/" />
        <dc:identifier>http://jimmac.musichall.cz/</dc:identifier>
        <dc:subject>
          <rdf:Bag>
            <rdf:li>folder</rdf:li>
            <rdf:li>directory</rdf:li>
            <rdf:li>storage</rdf:li>
          </rdf:Bag>
        </dc:subject>
      </cc:Work>
      <cc:License
         rdf:about="http://creativecommons.org/licenses/GPL/2.0/">
        <cc:permits
           rdf:resource="http://web.resource.org/cc/Reproduction" />
        <cc:permits
           rdf:resource="http://web.resource.org/cc/Distribution" />
        <cc:requires
           rdf:resource="http://web.resource.org/cc/Notice" />
        <cc:permits
           rdf:resource="http://web.resource.org/cc/DerivativeWorks" />
        <cc:requires
           rdf:resource="http://web.resource.org/cc/ShareAlike" />
        <cc:requires
           rdf:resource="http://web.resource.org/cc/SourceCode" />
      </cc:License>
    </rdf:RDF>
  </metadata>
  <sodipodi:namedview
     id="base"
     pagecolor="#ffffff"
     bordercolor="#666"
     borderopacity="1"
     inkscape:pageopacity="0.0"
     inkscape:pageshadow="2"
     inkscape:window-width="1043"
     inkscape:window-height="655"
     inkscape:cy="19.559134"
     inkscape:cx="44.791633"
     inkscape:zoom="1"
     inkscape:document-units="px"
     showgrid="false"
     inkscape:window-x="515"
     inkscape:window-y="341"
     inkscape:current-layer="layer2"
     inkscape:showpageshadow="false"
     gridspacingx="0.5px"
     gridspacingy="0.5px"
     gridempspacing="2"
     inkscape:grid-points="false"
     inkscape:grid-bbox="true"
     showborder="false" />
  <defs
     id="defs3">
    <linearGradient
       inkscape:collect="always"
       id="linearGradient2888">
      <stop
         style="stop-color:#888a85;stop-opacity:1"
         offset="0"
         id="stop2890" />
      <stop
         style="stop-color:#555753;stop-opacity:1"
         offset="1"
         id="stop2892" />
    </linearGradient>
    <linearGradient
       inkscape:collect="always"
       id="linearGradient2880">
      <stop
         style="stop-color:black;stop-opacity:1;"
         offset="0"
         id="stop2882" />
      <stop
         style="stop-color:black;stop-opacity:0;"
         offset="1"
         id="stop2884" />
    </linearGradient>
    <linearGradient
       inkscape:collect="always"
       id="linearGradient2842">
      <stop
         style="stop-color:#babdb6;stop-opacity:1"
         offset="0"
         id="stop2844" />
      <stop
         style="stop-color:#eeeeec;stop-opacity:1"
         offset="1"
         id="stop2846" />
    </linearGradient>
    <linearGradient
       id="linearGradient4734">
      <stop
         style="stop-color:#cccdbc;stop-opacity:1;"
         offset="0"
         id="stop4736" />
      <stop
         style="stop-color:#b9baa4;stop-opacity:1;"
         offset="1"
         id="stop4738" />
    </linearGradient>
    <linearGradient
       inkscape:collect="always"
       id="linearGradient2339">
      <stop
         style="stop-color:#ffffff;stop-opacity:1;"
         offset="0"
         id="stop2341" />
      <stop
         style="stop-color:#ffffff;stop-opacity:0;"
         offset="1"
         id="stop2343" />
    </linearGradient>
    <linearGradient
       inkscape:collect="always"
       xlink:href="#linearGradient2339"
       id="linearGradient2345"
       x1="25.850664"
       y1="37.625"
       x2="24.996323"
       y2="25.25"
       gradientUnits="userSpaceOnUse" />
    <linearGradient
       id="linearGradient465">
      <stop
         style="stop-color:#1d1d18;stop-opacity:1.0000000;"
         offset="0.0000000"
         id="stop466" />
      <stop
         style="stop-color:#434337;stop-opacity:1.0000000;"
         offset="1.0000000"
         id="stop467" />
    </linearGradient>
    <linearGradient
       id="linearGradient356">
      <stop
         style="stop-color:#fffff3;stop-opacity:1.0000000;"
         offset="0.0000000"
         id="stop357" />
      <stop
         style="stop-color:#fffff3;stop-opacity:0.0000000;"
         offset="1.0000000"
         id="stop358" />
    </linearGradient>
    <linearGradient
       inkscape:collect="always"
       id="linearGradient330">
      <stop
         style="stop-color:#efefe3;stop-opacity:1;"
         offset="0"
         id="stop331" />
      <stop
         style="stop-color:#efefe3;stop-opacity:0;"
         offset="1"
         id="stop332" />
    </linearGradient>
    <linearGradient
       id="linearGradient311">
      <stop
         style="stop-color:#cfcfc4;stop-opacity:1.0000000;"
         offset="0.0000000"
         id="stop312" />
      <stop
         style="stop-color:#cfcfc4;stop-opacity:1.0000000;"
         offset="0.32673267"
         id="stop335" />
      <stop
         style="stop-color:#cfcfc4;stop-opacity:0;"
         offset="1"
         id="stop313" />
    </linearGradient>
    <linearGradient
       id="linearGradient235">
      <stop
         style="stop-color:#59594a;stop-opacity:1.0000000;"
         offset="0.0000000"
         id="stop236" />
      <stop
         style="stop-color:#a2a491;stop-opacity:1.0000000;"
         offset="1.0000000"
         id="stop237" />
    </linearGradient>
    <linearGradient
       id="linearGradient984">
      <stop
         style="stop-color:#59594a;stop-opacity:1.0000000;"
         offset="0.0000000"
         id="stop985" />
      <stop
         style="stop-color:#c5c7b0;stop-opacity:1.0000000;"
         offset="1.0000000"
         id="stop986" />
    </linearGradient>
    <linearGradient
       id="linearGradient874">
      <stop
         style="stop-color:#91917f;stop-opacity:1.0000000;"
         offset="0.0000000"
         id="stop875" />
      <stop
         style="stop-color:#c5c7b0;stop-opacity:1.0000000;"
         offset="1.0000000"
         id="stop876" />
    </linearGradient>
    <linearGradient
       id="linearGradient869">
      <stop
         style="stop-color:#686b57;stop-opacity:1.0000000;"
         offset="0.0000000"
         id="stop870" />
      <stop
         style="stop-color:#97997f;stop-opacity:1.0000000;"
         offset="1.0000000"
         id="stop871" />
    </linearGradient>
    <linearGradient
       x1="30.622636"
       y1="-97.787549"
       x2="26.242413"
       y2="-140.48617"
       id="linearGradient872"
       xlink:href="#linearGradient869"
       gradientTransform="scale(1.114987,0.896872)"
       gradientUnits="userSpaceOnUse" />
    <linearGradient
       x1="18.144176"
       y1="236.17801"
       x2="18.144176"
       y2="106.40125"
       id="linearGradient873"
       xlink:href="#linearGradient874"
       gradientTransform="scale(1.240100,0.806386)"
       gradientUnits="userSpaceOnUse" />
    <linearGradient
       x1="196.78638"
       y1="-112.13977"
       x2="196.78638"
       y2="-149.87292"
       id="linearGradient877"
       xlink:href="#linearGradient984"
       gradientTransform="scale(1.118040,0.894423)"
       gradientUnits="userSpaceOnUse" />
    <linearGradient
       inkscape:collect="always"
       xlink:href="#linearGradient874"
       id="linearGradient242"
       gradientUnits="userSpaceOnUse"
       gradientTransform="scale(1.240100,0.806386)"
       x1="18.144176"
       y1="236.17801"
       x2="18.144176"
       y2="106.40125" />
    <linearGradient
       inkscape:collect="always"
       xlink:href="#linearGradient869"
       id="linearGradient244"
       gradientUnits="userSpaceOnUse"
       gradientTransform="scale(1.114987,0.896872)"
       x1="30.622636"
       y1="-97.787549"
       x2="26.242413"
       y2="-140.48617" />
    <linearGradient
       inkscape:collect="always"
       xlink:href="#linearGradient869"
       id="linearGradient245"
       gradientUnits="userSpaceOnUse"
       gradientTransform="matrix(1.114987,0.000000,0.000000,0.896872,283.1033,-22.72401)"
       x1="30.622636"
       y1="-97.787549"
       x2="26.242413"
       y2="-140.48617" />
    <linearGradient
       inkscape:collect="always"
       xlink:href="#linearGradient235"
       id="linearGradient253"
       gradientTransform="scale(1.068312,0.936056)"
       x1="24.983023"
       y1="22.828066"
       x2="24.983023"
       y2="8.3744106"
       gradientUnits="userSpaceOnUse" />
    <linearGradient
       inkscape:collect="always"
       xlink:href="#linearGradient311"
       id="linearGradient314"
       gradientTransform="scale(0.750458,1.332520)"
       x1="18.854733"
       y1="5.7387457"
       x2="18.483316"
       y2="29.715235"
       gradientUnits="userSpaceOnUse" />
    <linearGradient
       inkscape:collect="always"
       xlink:href="#linearGradient311"
       id="linearGradient320"
       gradientUnits="userSpaceOnUse"
       gradientTransform="scale(0.750458,1.332520)"
       x1="32.827568"
       y1="7.9206076"
       x2="60.071049"
       y2="7.8678756" />
    <linearGradient
       inkscape:collect="always"
       xlink:href="#linearGradient330"
       id="linearGradient333"
       gradientTransform="scale(0.806859,1.239374)"
       x1="17.748898"
       y1="6.6517911"
       x2="17.748898"
       y2="15.270107"
       gradientUnits="userSpaceOnUse" />
    <linearGradient
       inkscape:collect="always"
       xlink:href="#linearGradient874"
       id="linearGradient342"
       gradientUnits="userSpaceOnUse"
       gradientTransform="matrix(1.240100,0.000000,0.000000,0.806386,0.899932,27.85007)"
       x1="-18.497044"
       y1="48.765125"
       x2="-26.692234"
       y2="18.180256" />
    <linearGradient
       inkscape:collect="always"
       xlink:href="#linearGradient874"
       id="linearGradient344"
       gradientUnits="userSpaceOnUse"
       gradientTransform="matrix(1.240100,0.000000,0.000000,0.806386,48.00003,-0.499997)"
       x1="-18.497044"
       y1="48.765125"
       x2="-26.692234"
       y2="18.180256" />
    <linearGradient
       inkscape:collect="always"
       xlink:href="#linearGradient874"
       id="linearGradient346"
       gradientUnits="userSpaceOnUse"
       gradientTransform="matrix(1.240100,0.000000,0.000000,0.806386,-12.14990,44.64993)"
       x1="-18.497044"
       y1="48.765125"
       x2="-26.692234"
       y2="18.180256" />
    <linearGradient
       inkscape:collect="always"
       xlink:href="#linearGradient874"
       id="linearGradient347"
       gradientUnits="userSpaceOnUse"
       gradientTransform="matrix(1.240100,0.000000,0.000000,0.806386,48.03907,-0.350071)"
       x1="-18.497044"
       y1="48.765125"
       x2="-26.692234"
       y2="18.180256" />
    <linearGradient
       inkscape:collect="always"
       xlink:href="#linearGradient356"
       id="linearGradient355"
       gradientUnits="userSpaceOnUse"
       gradientTransform="scale(0.806859,1.239374)"
       x1="23.643002"
       y1="12.818464"
       x2="28.443289"
       y2="25.232374" />
    <linearGradient
       inkscape:collect="always"
       xlink:href="#linearGradient4734"
       id="linearGradient4740"
       x1="24.588383"
       y1="1.8991361"
       x2="24.588383"
       y2="40.858932"
       gradientUnits="userSpaceOnUse" />
    <linearGradient
       inkscape:collect="always"
       xlink:href="#linearGradient2842"
       id="linearGradient2848"
       x1="33.5"
       y1="38.100506"
       x2="32.615303"
       y2="30.145555"
       gradientUnits="userSpaceOnUse" />
    <radialGradient
       inkscape:collect="always"
       xlink:href="#linearGradient2880"
       id="radialGradient2886"
       cx="34.09375"
       cy="35.53125"
       fx="34.09375"
       fy="35.53125"
       r="13.96875"
       gradientTransform="matrix(1,0,0,0.154362,0,30.04656)"
       gradientUnits="userSpaceOnUse" />
    <linearGradient
       inkscape:collect="always"
       xlink:href="#linearGradient2888"
       id="linearGradient2894"
       x1="29.375"
       y1="17.625"
       x2="32"
       y2="36.6875"
       gradientUnits="userSpaceOnUse" />
  </defs>
  <g
     inkscape:groupmode="layer"
     id="layer1"
     inkscape:label="pixmap"
     style="display:inline" />
  <g
     inkscape:groupmode="layer"
     id="layer2"
     inkscape:label="vectors"
     style="display:inline">
    <g
       transform="matrix(0.216083,0.000000,0.000000,0.263095,-0.893233,-10.24236)"
       id="g1197">
      <path
         d="M 32.706693,164.36026 C 22.319193,164.36026 13.956693,172.72276 13.956693,183.11026 C 13.956693,193.49776 22.319193,201.86026 32.706693,201.86026 L 205.20669,201.86026 C 215.59419,201.86026 223.95669,193.49776 223.95669,183.11026 C 223.95669,172.72276 215.59419,164.36026 205.20669,164.36026 L 32.706693,164.36026 z "
         style="opacity:0.047872309;fill-rule:evenodd;stroke-width:3.0000000pt"
         id="path1196" />
      <path
         d="M 32.706693,165.61026 C 23.011693,165.61026 15.206693,173.41526 15.206693,183.11026 C 15.206693,192.80526 23.011693,200.61026 32.706693,200.61026 L 205.20669,200.61026 C 214.90169,200.61026 222.70669,192.80526 222.70669,183.11026 C 222.70669,173.41526 214.90169,165.61026 205.20669,165.61026 L 32.706693,165.61026 z "
         style="opacity:0.047872309;fill-rule:evenodd;stroke-width:3.0000000pt"
         id="path1195" />
      <path
         d="M 32.706694,166.86026 C 23.704194,166.86026 16.456694,174.10776 16.456694,183.11026 C 16.456694,192.11276 23.704194,199.36026 32.706694,199.36026 L 205.20669,199.36026 C 214.20919,199.36026 221.45669,192.11276 221.45669,183.11026 C 221.45669,174.10776 214.20919,166.86026 205.20669,166.86026 L 32.706694,166.86026 z "
         style="opacity:0.047872309;fill-rule:evenodd;stroke-width:3.0000000pt"
         id="path1194" />
      <path
         d="M 32.706694,168.11026 C 24.396694,168.11026 17.706694,174.80026 17.706694,183.11026 C 17.706694,191.42026 24.396694,198.11026 32.706694,198.11026 L 205.20669,198.11026 C 213.51669,198.11026 220.20669,191.42026 220.20669,183.11026 C 220.20669,174.80026 213.51669,168.11026 205.20669,168.11026 L 32.706694,168.11026 z "
         style="opacity:0.047872309;fill-rule:evenodd;stroke-width:3.0000000pt"
         id="path1193" />
      <path
         d="M 32.707764,169.36026 C 25.090264,169.36026 18.957764,175.49276 18.957764,183.11026 C 18.957764,190.72776 25.090264,196.86026 32.707764,196.86026 L 205.20618,196.86026 C 212.82368,196.86026 218.95618,190.72776 218.95618,183.11026 C 218.95618,175.49276 212.82368,169.36026 205.20618,169.36026 L 32.707764,169.36026 z "
         style="opacity:0.047872309;fill-rule:evenodd;stroke-width:3.0000000pt"
         id="path1192" />
      <path
         d="M 32.706694,170.61026 C 25.781694,170.61026 20.206694,176.18526 20.206694,183.11026 C 20.206694,190.03526 25.781694,195.61026 32.706694,195.61026 L 205.20669,195.61026 C 212.13169,195.61026 217.70669,190.03526 217.70669,183.11026 C 217.70669,176.18526 212.13169,170.61026 205.20669,170.61026 L 32.706694,170.61026 z "
         style="opacity:0.047872309;fill-rule:evenodd;stroke-width:3.0000000pt"
         id="path1191" />
      <path
         d="M 32.706694,171.86026 C 26.474194,171.86026 21.456694,176.87776 21.456694,183.11026 C 21.456694,189.34276 26.474194,194.36026 32.706694,194.36026 L 205.20669,194.36026 C 211.43919,194.36026 216.45669,189.34276 216.45669,183.11026 C 216.45669,176.87776 211.43919,171.86026 205.20669,171.86026 L 32.706694,171.86026 z "
         style="opacity:0.047872309;fill-rule:evenodd;stroke-width:3.0000000pt"
         id="path1190" />
      <path
         d="M 32.706694,173.11026 C 27.166694,173.11026 22.706694,177.57026 22.706694,183.11026 C 22.706694,188.65026 27.166694,193.11026 32.706694,193.11026 L 205.20669,193.11026 C 210.74669,193.11026 215.20669,188.65026 215.20669,183.11026 C 215.20669,177.57026 210.74669,173.11026 205.20669,173.11026 L 32.706694,173.11026 z "
         style="opacity:0.047872309;fill-rule:evenodd;stroke-width:3.0000000pt"
         id="path1189" />
    </g>
    <path
       d="M 5.4186638,5.4561100 C 4.9536872,5.4561100 4.6035534,5.6913368 4.6035534,6.1828330 L 4.6035534,39.203794 C 4.6035534,39.930940 5.0906584,40.415354 5.7526104,40.415354 L 43.489564,40.415354 C 44.155366,40.415354 44.419872,39.962588 44.419872,39.328794 L 44.419872,10.425912 C 44.419872,9.8829469 44.019585,9.5893540 43.520814,9.5893540 L 24.411490,9.5893540 C 24.074477,9.5893540 23.714810,9.3909280 23.517009,9.1180670 L 20.914778,5.9180580 C 20.696913,5.6175190 20.272703,5.4561250 19.901500,5.4561250 L 5.4186638,5.4561100 z "
       style="fill:url(#linearGradient253);fill-opacity:1.0;fill-rule:evenodd;stroke:#555753;stroke-width:1.0000000;stroke-miterlimit:4.0000000;stroke-opacity:1"
       id="path895"
       sodipodi:nodetypes="ccccccccccccc" />
    <g
       id="g891"
       transform="matrix(0.186703,0.000000,0.000000,0.186703,-21.10730,57.62299)" />
    <path
       style="fill:url(#linearGradient320);fill-opacity:1.0;fill-rule:evenodd;stroke:none;stroke-width:0.25000000pt;stroke-linecap:butt;stroke-linejoin:miter;stroke-opacity:1.0000000;opacity:1.0000000;color:#000000;marker:none;marker-start:none;marker-mid:none;marker-end:none;stroke-miterlimit:4.0000000;stroke-dasharray:none;stroke-dashoffset:0;visibility:visible;display:inline;overflow:visible"
       d="M 5.0625000,7.9062500 L 5.0625000,36.156250 L 6.0312500,31.781250 L 6.2500000,9.1562500 C 6.2500000,8.4058274 6.7614657,8.0312500 7.4869586,8.0312500 L 19.093750,8.0312500 C 20.655346,8.0312500 22.108598,11.218750 24.411417,11.218750 C 30.383036,11.218750 43.749813,11.306338 43.750000,11.218750 L 43.750000,10.187500 L 24.218750,10.062500 C 22.362615,10.050621 21.088324,6.9062500 19.656250,6.9062500 L 6.2838336,6.9062500 C 5.4685048,6.9062500 5.0625000,7.2604161 5.0625000,7.9062500 z "
       id="path315"
       sodipodi:nodetypes="ccccczscczzcc" />
    <path
       style="color:#000000;fill:url(#linearGradient4740);fill-opacity:1.0;fill-rule:evenodd;stroke:#555753;stroke-width:0.99999988;stroke-linecap:butt;stroke-linejoin:round;marker:none;marker-start:none;marker-mid:none;marker-end:none;stroke-miterlimit:4;stroke-dashoffset:0;stroke-opacity:1;visibility:visible;display:inline;overflow:visible"
       d="M 7.6864537,16.296282 L 15.619799,16.296282 C 16.361533,16.296282 16.987769,15.915471 17.306966,15.414278 C 17.443709,15.199569 18.574948,13.28855 18.66464,13.158052 C 18.963427,12.723328 19.437557,12.399136 20.006622,12.399136 L 43.048855,12.399136 C 43.851692,12.399136 44.498018,13.042925 44.498018,13.84261 L 44.498018,38.915459 C 44.498018,39.715143 43.851692,40.358932 43.048855,40.358932 L 6.1279084,40.358932 C 5.3250725,40.358932 4.6787461,39.715143 4.6787461,38.915459 L 4.6787461,19.481904 C 4.6787461,17.507539 5.8190623,16.296282 7.6864537,16.296282 z "
       id="rect337"
       sodipodi:nodetypes="czzszcccccccc"
       inkscape:r_cx="true"
       inkscape:r_cy="true" />
    <path
       style="fill:url(#linearGradient355);fill-opacity:1.0;fill-rule:evenodd;stroke:none;stroke-width:0.25000000pt;stroke-linecap:butt;stroke-linejoin:miter;stroke-miterlimit:4.0000000;stroke-opacity:1.0000000;opacity:1.0000000;color:#000000;marker:none;marker-start:none;marker-mid:none;marker-end:none;stroke-dasharray:none;stroke-dashoffset:0;visibility:visible;display:inline;overflow:visible"
       d="M 20.500000,13.750000 C 19.853581,13.750000 19.490960,14.031698 19.125000,14.500000 C 18.759040,14.968302 18.343502,15.671815 18.062500,16.218750 C 17.781498,16.765685 17.493409,17.272919 17.218750,17.625000 C 16.944091,17.977081 16.729167,18.125000 16.500000,18.125000 C 15.250000,18.125000 7.3428301,18.125000 6.8428301,18.125000 C 6.3844968,18.125000 6.0073599,18.355519 5.6865801,18.656250 C 5.3658003,18.956981 5.0928301,19.362500 5.0928301,19.875000 C 5.0928302,20.499998 5.0928301,39.250000 5.0928301,39.250000 L 6.0928301,39.250000 C 6.0928301,39.250000 6.0928302,20.500002 6.0928301,19.875000 C 6.0928301,19.762500 6.1948599,19.543019 6.3740801,19.375000 C 6.5533003,19.206981 6.8011635,19.125000 6.8428301,19.125000 C 7.3428301,19.125000 15.250000,19.125000 16.500000,19.125000 C 17.145833,19.125000 17.634731,18.718232 18.000000,18.250000 C 18.365269,17.781768 18.656559,17.203065 18.937500,16.656250 C 19.218441,16.109435 19.568667,15.477011 19.843750,15.125000 C 20.118833,14.772989 20.269189,14.750000 20.500000,14.750000 C 21.716667,14.750000 43.750000,14.875000 43.750000,14.875000 L 43.750000,13.875000 C 43.750000,13.875000 21.783333,13.750000 20.500000,13.750000 z "
       id="path349"
       sodipodi:nodetypes="ccccccccccccccccccccc" />
    <rect
       style="color:#000000;fill:#fffffd;fill-opacity:1.0000000;fill-rule:evenodd;stroke:none;stroke-width:0.25000000pt;stroke-linecap:butt;stroke-linejoin:miter;stroke-miterlimit:4.0000000;stroke-dashoffset:0.0000000;stroke-opacity:1.0000000;marker:none;marker-start:none;marker-mid:none;marker-end:none;visibility:visible;display:inline;overflow:visible"
       id="rect459"
       width="1.2500000"
       height="1.2500000"
       x="5.5290294"
       y="7.3598347"
       rx="1.4434735"
       ry="1.2500000" />
    <rect
       style="opacity:0.28571429;color:#000000;fill:none;fill-opacity:1;fill-rule:evenodd;stroke:url(#linearGradient2345);stroke-width:1.00000024;stroke-linecap:square;stroke-linejoin:round;marker:none;marker-start:none;marker-mid:none;marker-end:none;stroke-miterlimit:4;stroke-dasharray:none;stroke-dashoffset:0;stroke-opacity:1;visibility:visible;display:inline;overflow:visible"
       id="rect2337"
       width="37.95816"
       height="23.625"
       x="5.5381637"
       y="15.75"
       inkscape:r_cx="true"
       inkscape:r_cy="true"
       rx="0.43750021"
       ry="0.4375" />
    <path
       sodipodi:type="arc"
       style="opacity:0.36470588;color:black;fill:url(#radialGradient2886);fill-opacity:1.0;fill-rule:evenodd;stroke:none;stroke-width:1;stroke-linecap:square;stroke-linejoin:round;marker:none;marker-start:none;marker-mid:none;marker-end:none;stroke-miterlimit:4;stroke-dasharray:none;stroke-dashoffset:0;stroke-opacity:1;visibility:visible;display:inline;overflow:visible"
       id="path2878"
       sodipodi:cx="34.09375"
       sodipodi:cy="35.53125"
       sodipodi:rx="13.96875"
       sodipodi:ry="2.15625"
       d="M 48.0625 35.53125 A 13.96875 2.15625 0 1 1  20.125,35.53125 A 13.96875 2.15625 0 1 1  48.0625 35.53125 z"
       transform="matrix(1.038031,0,0,1.536228,-1.82788,-17.89661)" />
    <path
       style="opacity:1;color:black;fill:url(#linearGradient2848);fill-opacity:1.0;fill-rule:evenodd;stroke:url(#linearGradient2894);stroke-width:1.16867471;stroke-linecap:round;stroke-linejoin:round;marker:none;marker-start:none;marker-mid:none;marker-end:none;stroke-miterlimit:4;stroke-dasharray:none;stroke-dashoffset:0;stroke-opacity:1;visibility:visible;display:inline;overflow:visible"
       d="M 33,20.5 C 30.224771,20.5 27.837933,22.237901 26.90625,24.6875 C 26.455353,24.579139 25.983988,24.5 25.5,24.5 C 22.188002,24.5 19.5,27.188001 19.5,30.5 C 19.5,33.811999 22.188003,36.5 25.5,36.5 C 26.2728,36.5 27.008867,36.328973 27.6875,36.0625 C 28.78114,37.535598 30.52572,38.500001 32.5,38.5 C 34.036672,38.5 35.438133,37.919892 36.5,36.96875 C 37.086187,37.305826 37.775722,37.499999 38.5,37.5 C 39.587817,37.5 40.559928,37.049136 41.28125,36.34375 C 41.674762,36.443402 42.075652,36.5 42.5,36.5 C 45.259987,36.5 47.5,34.260006 47.5,31.5 C 47.5,29.86973 46.708591,28.412946 45.5,27.5 C 45.5,24.739994 43.259993,22.5 40.5,22.5 C 39.657829,22.5 38.883974,22.725494 38.1875,23.09375 C 37.000876,21.519968 35.121404,20.5 33,20.5 z "
       id="path1934" />
    <path
       sodipodi:type="inkscape:offset"
       inkscape:radius="-1.0836995"
       inkscape:original="M 33 20.5 C 30.224771 20.5 27.837933 22.237901 26.90625 24.6875 C 26.455353 24.579139 25.983988 24.5 25.5 24.5 C 22.188002 24.5 19.5 27.188001 19.5 30.5 C 19.5 33.811999 22.188003 36.5 25.5 36.5 C 26.2728 36.5 27.008867 36.328973 27.6875 36.0625 C 28.78114 37.535598 30.52572 38.500001 32.5 38.5 C 34.036672 38.5 35.438133 37.919892 36.5 36.96875 C 37.086187 37.305826 37.775722 37.499999 38.5 37.5 C 39.587817 37.5 40.559928 37.049136 41.28125 36.34375 C 41.674762 36.443402 42.075652 36.5 42.5 36.5 C 45.259987 36.5 47.5 34.260006 47.5 31.5 C 47.5 29.86973 46.708591 28.412946 45.5 27.5 C 45.5 24.739994 43.259993 22.5 40.5 22.5 C 39.657829 22.5 38.883974 22.725494 38.1875 23.09375 C 37.000876 21.519968 35.121404 20.5 33 20.5 z "
       style="opacity:1;color:black;fill:none;fill-opacity:1;fill-rule:evenodd;stroke:white;stroke-width:1.16867471;stroke-linecap:round;stroke-linejoin:round;marker:none;marker-start:none;marker-mid:none;marker-end:none;stroke-miterlimit:4;stroke-dasharray:none;stroke-dashoffset:0;stroke-opacity:1;visibility:visible;display:inline;overflow:visible"
       id="path2854"
       d="M 33,21.59375 C 30.677193,21.59375 28.679851,23.028534 27.90625,25.0625 C 27.720404,25.572242 27.186264,25.866019 26.65625,25.75 C 26.255638,25.653724 25.865854,25.59375 25.5,25.59375 C 22.774352,25.59375 20.59375,27.774351 20.59375,30.5 C 20.59375,33.225649 22.774353,35.40625 25.5,35.40625 C 26.112912,35.40625 26.703925,35.289193 27.28125,35.0625 C 27.736772,34.871809 28.263604,35.013154 28.5625,35.40625 C 29.462281,36.618226 30.878633,37.406251 32.5,37.40625 C 33.763934,37.40625 34.909246,36.937326 35.78125,36.15625 C 36.128821,35.852732 36.630459,35.802568 37.03125,36.03125 C 37.454978,36.274907 37.969408,36.406249 38.5,36.40625 C 39.288379,36.40625 39.992866,36.088989 40.53125,35.5625 C 40.801648,35.293968 41.19321,35.187179 41.5625,35.28125 C 41.880879,35.361875 42.172012,35.40625 42.5,35.40625 C 44.673636,35.40625 46.40625,33.673654 46.40625,31.5 C 46.40625,30.220449 45.791475,29.090893 44.84375,28.375 C 44.56709,28.169484 44.404667,27.844637 44.40625,27.5 C 44.40625,25.326344 42.673644,23.59375 40.5,23.59375 C 39.851272,23.59375 39.252339,23.763845 38.6875,24.0625 C 38.214792,24.311479 37.631159,24.178835 37.3125,23.75 C 36.321535,22.435714 34.774043,21.59375 33,21.59375 z " />
    <path
       style="font-size:7.7389884px;font-style:normal;font-weight:bold;fill:black;fill-opacity:1;stroke:none;stroke-width:1px;stroke-linecap:butt;stroke-linejoin:miter;stroke-opacity:1;font-family:Bitstream Vera Sans"
       d="M 29.999993,26.999994 L 33,27 L 33,28 L 31,28 L 31,29.000001 L 32,29.000001 L 32,30 L 31,30 L 31,32.043868 L 33,32 L 33,33 L 29.999993,32.999987 L 29.999993,26.999994 M 33.974448,26.999994 L 35,27 L 37.000001,31.115199 L 37.000001,27 L 38.027868,27.000007 L 38.027868,33 L 37.000001,33 L 35,28.884801 L 35,33 L 33.974448,32.999987 L 33.974448,26.999994 M 40,27 L 41.499999,31.5 L 43,27 L 43.999971,26.999994 L 42.035061,32.999987 L 41,33 L 38.999999,27"
       id="text2858"
       sodipodi:nodetypes="ccccccccccccccccccccccccccccccc" />
    <path
       style="font-size:10px;font-style:normal;font-weight:normal;fill:black;fill-opacity:1;stroke:none;stroke-width:1px;stroke-linecap:butt;stroke-linejoin:miter;stroke-opacity:1;font-family:Bitstream Vera Sans"
       d="M 28.571835,27.294384 L 28.571835,28.057457 C 28.2071,27.915434 27.862983,27.809559 27.539486,27.739832 C 27.215981,27.670115 26.90358,27.635254 26.602283,27.635248 C 26.078969,27.635254 25.674593,27.717887 25.389153,27.88315 C 25.106881,28.048423 24.965745,28.283413 24.965747,28.588121 C 24.965745,28.843774 25.059307,29.037447 25.246432,29.169142 C 25.436725,29.298261 25.795113,29.402844 26.321598,29.482892 L 26.901997,29.579729 C 27.618771,29.690771 28.146839,29.887027 28.486203,30.168496 C 28.828729,30.447387 28.999994,30.821822 29,31.291801 C 28.999994,31.852164 28.768469,32.276953 28.305423,32.566172 C 27.845539,32.85539 27.169993,32.999999 26.278782,33 C 25.942591,32.999999 25.584203,32.969012 25.203615,32.907037 C 24.826196,32.845061 24.434505,32.753389 24.028544,32.63202 L 24.028544,31.826339 C 24.418647,32.00452 24.800823,32.1388 25.175071,32.22918 C 25.549316,32.319562 25.917218,32.364752 26.278782,32.364751 C 26.827462,32.364752 27.250868,32.276953 27.549001,32.101355 C 27.847125,31.925759 27.996189,31.675275 27.996194,31.349902 C 27.996189,31.06585 27.888355,30.843772 27.672692,30.683667 C 27.460192,30.523566 27.109733,30.403489 26.621312,30.323434 L 26.036155,30.230471 C 25.319376,30.11427 24.800823,29.932218 24.480495,29.684312 C 24.160164,29.436414 23.999999,29.091676 24,28.650097 C 23.999999,28.138804 24.220424,27.735964 24.661275,27.441575 C 25.105294,27.147198 25.715824,27.000006 26.492863,27 C 26.825877,27.000006 27.165236,27.024538 27.510941,27.073595 C 27.856639,27.122666 28.210271,27.196262 28.571835,27.294384"
       id="text2868" />
    <path
       style="fill:none;fill-opacity:0.75;fill-rule:evenodd;stroke:black;stroke-width:1px;stroke-linecap:square;stroke-linejoin:miter;stroke-opacity:1"
       d="M 26.5,26.5 L 26.5,33.5"
       id="path2876" />
  </g>
</svg>
