<?xml version="1.0" encoding="UTF-8" standalone="no"?>
<!-- Created with Inkscape (http://www.inkscape.org/) -->
<svg
   xmlns:dc="http://purl.org/dc/elements/1.1/"
   xmlns:cc="http://web.resource.org/cc/"
   xmlns:rdf="http://www.w3.org/1999/02/22-rdf-syntax-ns#"
   xmlns:svg="http://www.w3.org/2000/svg"
   xmlns="http://www.w3.org/2000/svg"
   xmlns:xlink="http://www.w3.org/1999/xlink"
   xmlns:sodipodi="http://sodipodi.sourceforge.net/DTD/sodipodi-0.dtd"
   xmlns:inkscape="http://www.inkscape.org/namespaces/inkscape"
   version="1.0"
   x="0.0000000"
   y="0.0000000"
   width="48.000000px"
   height="48.000000px"
   id="svg1"
   sodipodi:version="0.32"
   inkscape:version="0.43+devel"
   sodipodi:docname="folders-plugins.svg"
   sodipodi:docbase="/home/lapo/Desktop/Grafica/Icone/gimp/preferences">
  <metadata
     id="metadata162">
    <rdf:RDF>
      <cc:Work
         rdf:about="">
        <dc:format>image/svg+xml</dc:format>
        <dc:type
           rdf:resource="http://purl.org/dc/dcmitype/StillImage" />
        <dc:title>Folder</dc:title>
        <dc:creator>
          <cc:Agent>
            <dc:title>Jakub Steiner</dc:title>
          </cc:Agent>
        </dc:creator>
        <dc:date>2005-02-01</dc:date>
        <cc:license
           rdf:resource="http://creativecommons.org/licenses/GPL/2.0/" />
        <dc:identifier>http://jimmac.musichall.cz/</dc:identifier>
        <dc:subject>
          <rdf:Bag>
            <rdf:li>folder</rdf:li>
            <rdf:li>directory</rdf:li>
            <rdf:li>storage</rdf:li>
          </rdf:Bag>
        </dc:subject>
      </cc:Work>
      <cc:License
         rdf:about="http://creativecommons.org/licenses/GPL/2.0/">
        <cc:permits
           rdf:resource="http://web.resource.org/cc/Reproduction" />
        <cc:permits
           rdf:resource="http://web.resource.org/cc/Distribution" />
        <cc:requires
           rdf:resource="http://web.resource.org/cc/Notice" />
        <cc:permits
           rdf:resource="http://web.resource.org/cc/DerivativeWorks" />
        <cc:requires
           rdf:resource="http://web.resource.org/cc/ShareAlike" />
        <cc:requires
           rdf:resource="http://web.resource.org/cc/SourceCode" />
      </cc:License>
    </rdf:RDF>
  </metadata>
  <sodipodi:namedview
     id="base"
     pagecolor="#ffffff"
     bordercolor="#666"
     borderopacity="1"
     inkscape:pageopacity="0.0"
     inkscape:pageshadow="2"
     inkscape:window-width="1036"
     inkscape:window-height="655"
     inkscape:cy="40.225751"
     inkscape:cx="50.163271"
     inkscape:zoom="1"
     inkscape:document-units="px"
     showgrid="false"
     inkscape:window-x="515"
     inkscape:window-y="341"
     inkscape:current-layer="layer2"
     inkscape:showpageshadow="false"
     showborder="true" />
  <defs
     id="defs3">
    <linearGradient
       inkscape:collect="always"
       id="linearGradient3048">
      <stop
         style="stop-color:black;stop-opacity:1;"
         offset="0"
         id="stop3050" />
      <stop
         style="stop-color:black;stop-opacity:0;"
         offset="1"
         id="stop3052" />
    </linearGradient>
    <linearGradient
       id="linearGradient4734">
      <stop
         style="stop-color:#cccdbc;stop-opacity:1;"
         offset="0"
         id="stop4736" />
      <stop
         style="stop-color:#b9baa4;stop-opacity:1;"
         offset="1"
         id="stop4738" />
    </linearGradient>
    <linearGradient
       inkscape:collect="always"
       id="linearGradient2339">
      <stop
         style="stop-color:#ffffff;stop-opacity:1;"
         offset="0"
         id="stop2341" />
      <stop
         style="stop-color:#ffffff;stop-opacity:0;"
         offset="1"
         id="stop2343" />
    </linearGradient>
    <linearGradient
       inkscape:collect="always"
       xlink:href="#linearGradient2339"
       id="linearGradient2345"
       x1="25.850664"
       y1="37.625"
       x2="24.996323"
       y2="25.25"
       gradientUnits="userSpaceOnUse" />
    <linearGradient
       id="linearGradient356">
      <stop
         style="stop-color:#fffff3;stop-opacity:1.0000000;"
         offset="0.0000000"
         id="stop357" />
      <stop
         style="stop-color:#fffff3;stop-opacity:0.0000000;"
         offset="1.0000000"
         id="stop358" />
    </linearGradient>
    <linearGradient
       id="linearGradient311">
      <stop
         style="stop-color:#cfcfc4;stop-opacity:1.0000000;"
         offset="0.0000000"
         id="stop312" />
      <stop
         style="stop-color:#cfcfc4;stop-opacity:1.0000000;"
         offset="0.32673267"
         id="stop335" />
      <stop
         style="stop-color:#cfcfc4;stop-opacity:0;"
         offset="1"
         id="stop313" />
    </linearGradient>
    <linearGradient
       id="linearGradient235">
      <stop
         style="stop-color:#59594a;stop-opacity:1.0000000;"
         offset="0.0000000"
         id="stop236" />
      <stop
         style="stop-color:#a2a491;stop-opacity:1.0000000;"
         offset="1.0000000"
         id="stop237" />
    </linearGradient>
    <linearGradient
       inkscape:collect="always"
       xlink:href="#linearGradient235"
       id="linearGradient253"
       gradientTransform="scale(1.068312,0.936056)"
       x1="24.983023"
       y1="22.828066"
       x2="24.983023"
       y2="8.3744106"
       gradientUnits="userSpaceOnUse" />
    <linearGradient
       inkscape:collect="always"
       xlink:href="#linearGradient311"
       id="linearGradient320"
       gradientUnits="userSpaceOnUse"
       gradientTransform="scale(0.750458,1.332520)"
       x1="32.827568"
       y1="7.9206076"
       x2="60.071049"
       y2="7.8678756" />
    <linearGradient
       inkscape:collect="always"
       xlink:href="#linearGradient356"
       id="linearGradient355"
       gradientUnits="userSpaceOnUse"
       gradientTransform="scale(0.806859,1.239374)"
       x1="23.643002"
       y1="12.818464"
       x2="28.443289"
       y2="25.232374" />
    <linearGradient
       inkscape:collect="always"
       xlink:href="#linearGradient4734"
       id="linearGradient4740"
       x1="24.588383"
       y1="1.8991361"
       x2="24.588383"
       y2="40.858932"
       gradientUnits="userSpaceOnUse" />
    <linearGradient
       id="linearGradient2895"
       inkscape:collect="always">
      <stop
         id="stop2897"
         offset="0"
         style="stop-color:#d3d7cf;stop-opacity:1;" />
      <stop
         id="stop2899"
         offset="1"
         style="stop-color:#888a85;stop-opacity:1" />
    </linearGradient>
    <linearGradient
       id="linearGradient2903"
       inkscape:collect="always">
      <stop
         id="stop2905"
         offset="0"
         style="stop-color:#888a85;stop-opacity:1" />
      <stop
         id="stop2907"
         offset="1"
         style="stop-color:#d3d7cf;stop-opacity:1" />
    </linearGradient>
    <linearGradient
       gradientTransform="matrix(0.965926,-0.258819,0.258819,0.965926,-6.23608,3.82379)"
       gradientUnits="userSpaceOnUse"
       y2="52.50489"
       x2="17.027729"
       y1="7.8708334"
       x1="17.413136"
       id="linearGradient2917"
       xlink:href="#linearGradient2911"
       inkscape:collect="always" />
    <linearGradient
       gradientTransform="matrix(0.965926,-0.258819,0.258819,0.965926,-6.23608,3.82379)"
       gradientUnits="userSpaceOnUse"
       y2="11.423575"
       x2="12.641191"
       y1="35.310566"
       x1="22.96538"
       id="linearGradient2909"
       xlink:href="#linearGradient2903"
       inkscape:collect="always" />
    <linearGradient
       gradientTransform="matrix(0.965926,-0.258819,0.258819,0.965926,-6.23608,3.82379)"
       gradientUnits="userSpaceOnUse"
       y2="1.2632871"
       x2="17.348759"
       y1="22.816088"
       x1="23.290737"
       id="linearGradient2901"
       xlink:href="#linearGradient2895"
       inkscape:collect="always" />
    <linearGradient
       id="linearGradient2911"
       inkscape:collect="always">
      <stop
         id="stop2913"
         offset="0"
         style="stop-color:white;stop-opacity:1;" />
      <stop
         id="stop2915"
         offset="1"
         style="stop-color:white;stop-opacity:0;" />
    </linearGradient>
    <radialGradient
       inkscape:collect="always"
       xlink:href="#linearGradient3048"
       id="radialGradient3054"
       cx="26.0625"
       cy="43.9375"
       fx="26.0625"
       fy="43.9375"
       r="5.4375"
       gradientTransform="matrix(1,0,0,0.586207,0,18.18103)"
       gradientUnits="userSpaceOnUse" />
    <radialGradient
       inkscape:collect="always"
       xlink:href="#linearGradient3048"
       id="radialGradient3058"
       gradientUnits="userSpaceOnUse"
       gradientTransform="matrix(1,0,0,0.586207,0,18.18103)"
       cx="26.0625"
       cy="43.9375"
       fx="26.0625"
       fy="43.9375"
       r="5.4375" />
    <linearGradient
       inkscape:collect="always"
       xlink:href="#linearGradient2911"
       id="linearGradient3065"
       gradientUnits="userSpaceOnUse"
       gradientTransform="matrix(0.965926,-0.258819,0.258819,0.965926,11.21531,19.49967)"
       x1="17.413136"
       y1="7.8708334"
       x2="17.027729"
       y2="52.50489" />
    <linearGradient
       inkscape:collect="always"
       xlink:href="#linearGradient2895"
       id="linearGradient3068"
       gradientUnits="userSpaceOnUse"
       gradientTransform="matrix(0.965926,-0.258819,0.258819,0.965926,11.21531,19.49967)"
       x1="23.290737"
       y1="22.816088"
       x2="17.348759"
       y2="1.2632871" />
    <linearGradient
       inkscape:collect="always"
       xlink:href="#linearGradient2903"
       id="linearGradient3071"
       gradientUnits="userSpaceOnUse"
       gradientTransform="matrix(0.965926,-0.258819,0.258819,0.965926,11.21531,19.49967)"
       x1="22.96538"
       y1="35.310566"
       x2="12.641191"
       y2="11.423575" />
    <linearGradient
       inkscape:collect="always"
       xlink:href="#linearGradient2895"
       id="linearGradient3076"
       gradientUnits="userSpaceOnUse"
       gradientTransform="matrix(0.965926,-0.258819,0.258819,0.965926,11.21531,19.49967)"
       x1="23.290737"
       y1="22.816088"
       x2="17.348759"
       y2="1.2632871" />
  </defs>
  <g
     inkscape:groupmode="layer"
     id="layer1"
     inkscape:label="pixmap"
     style="display:inline" />
  <g
     inkscape:groupmode="layer"
     id="layer2"
     inkscape:label="vectors"
     style="display:inline">
    <path
       sodipodi:type="arc"
       style="opacity:0.7;color:black;fill:url(#radialGradient3054);fill-opacity:1;fill-rule:evenodd;stroke:none;stroke-width:1;stroke-linecap:round;stroke-linejoin:round;marker:none;marker-start:none;marker-mid:none;marker-end:none;stroke-miterlimit:4;stroke-dasharray:none;stroke-dashoffset:0;stroke-opacity:1;visibility:visible;display:inline;overflow:visible"
       id="path2158"
       sodipodi:cx="26.0625"
       sodipodi:cy="43.9375"
       sodipodi:rx="5.4375"
       sodipodi:ry="3.1875"
       d="M 31.5 43.9375 A 5.4375 3.1875 0 1 1  20.625,43.9375 A 5.4375 3.1875 0 1 1  31.5 43.9375 z"
       transform="matrix(1.195403,0,0,1.254902,-6.6552,-11.13725)" />
    <path
       sodipodi:type="arc"
       style="opacity:0.5;color:black;fill:url(#radialGradient3058);fill-opacity:1;fill-rule:evenodd;stroke:none;stroke-width:1;stroke-linecap:round;stroke-linejoin:round;marker:none;marker-start:none;marker-mid:none;marker-end:none;stroke-miterlimit:4;stroke-dasharray:none;stroke-dashoffset:0;stroke-opacity:1;visibility:visible;display:inline;overflow:visible"
       id="path3056"
       sodipodi:cx="26.0625"
       sodipodi:cy="43.9375"
       sodipodi:rx="5.4375"
       sodipodi:ry="3.1875"
       d="M 31.5 43.9375 A 5.4375 3.1875 0 1 1  20.625,43.9375 A 5.4375 3.1875 0 1 1  31.5 43.9375 z"
       transform="matrix(2.298849,0,0,2.039219,-24.41376,-50.09819)" />
    <g
       transform="matrix(0.216083,0.000000,0.000000,0.263095,-0.893233,-10.24236)"
       id="g1197">
      <path
         d="M 32.706693,164.36026 C 22.319193,164.36026 13.956693,172.72276 13.956693,183.11026 C 13.956693,193.49776 22.319193,201.86026 32.706693,201.86026 L 205.20669,201.86026 C 215.59419,201.86026 223.95669,193.49776 223.95669,183.11026 C 223.95669,172.72276 215.59419,164.36026 205.20669,164.36026 L 32.706693,164.36026 z "
         style="opacity:0.047872309;fill-rule:evenodd;stroke-width:3.0000000pt"
         id="path1196" />
      <path
         d="M 32.706693,165.61026 C 23.011693,165.61026 15.206693,173.41526 15.206693,183.11026 C 15.206693,192.80526 23.011693,200.61026 32.706693,200.61026 L 205.20669,200.61026 C 214.90169,200.61026 222.70669,192.80526 222.70669,183.11026 C 222.70669,173.41526 214.90169,165.61026 205.20669,165.61026 L 32.706693,165.61026 z "
         style="opacity:0.047872309;fill-rule:evenodd;stroke-width:3.0000000pt"
         id="path1195" />
      <path
         d="M 32.706694,166.86026 C 23.704194,166.86026 16.456694,174.10776 16.456694,183.11026 C 16.456694,192.11276 23.704194,199.36026 32.706694,199.36026 L 205.20669,199.36026 C 214.20919,199.36026 221.45669,192.11276 221.45669,183.11026 C 221.45669,174.10776 214.20919,166.86026 205.20669,166.86026 L 32.706694,166.86026 z "
         style="opacity:0.047872309;fill-rule:evenodd;stroke-width:3.0000000pt"
         id="path1194" />
      <path
         d="M 32.706694,168.11026 C 24.396694,168.11026 17.706694,174.80026 17.706694,183.11026 C 17.706694,191.42026 24.396694,198.11026 32.706694,198.11026 L 205.20669,198.11026 C 213.51669,198.11026 220.20669,191.42026 220.20669,183.11026 C 220.20669,174.80026 213.51669,168.11026 205.20669,168.11026 L 32.706694,168.11026 z "
         style="opacity:0.047872309;fill-rule:evenodd;stroke-width:3.0000000pt"
         id="path1193" />
      <path
         d="M 32.707764,169.36026 C 25.090264,169.36026 18.957764,175.49276 18.957764,183.11026 C 18.957764,190.72776 25.090264,196.86026 32.707764,196.86026 L 205.20618,196.86026 C 212.82368,196.86026 218.95618,190.72776 218.95618,183.11026 C 218.95618,175.49276 212.82368,169.36026 205.20618,169.36026 L 32.707764,169.36026 z "
         style="opacity:0.047872309;fill-rule:evenodd;stroke-width:3.0000000pt"
         id="path1192" />
      <path
         d="M 32.706694,170.61026 C 25.781694,170.61026 20.206694,176.18526 20.206694,183.11026 C 20.206694,190.03526 25.781694,195.61026 32.706694,195.61026 L 205.20669,195.61026 C 212.13169,195.61026 217.70669,190.03526 217.70669,183.11026 C 217.70669,176.18526 212.13169,170.61026 205.20669,170.61026 L 32.706694,170.61026 z "
         style="opacity:0.047872309;fill-rule:evenodd;stroke-width:3.0000000pt"
         id="path1191" />
      <path
         d="M 32.706694,171.86026 C 26.474194,171.86026 21.456694,176.87776 21.456694,183.11026 C 21.456694,189.34276 26.474194,194.36026 32.706694,194.36026 L 205.20669,194.36026 C 211.43919,194.36026 216.45669,189.34276 216.45669,183.11026 C 216.45669,176.87776 211.43919,171.86026 205.20669,171.86026 L 32.706694,171.86026 z "
         style="opacity:0.047872309;fill-rule:evenodd;stroke-width:3.0000000pt"
         id="path1190" />
      <path
         d="M 32.706694,173.11026 C 27.166694,173.11026 22.706694,177.57026 22.706694,183.11026 C 22.706694,188.65026 27.166694,193.11026 32.706694,193.11026 L 205.20669,193.11026 C 210.74669,193.11026 215.20669,188.65026 215.20669,183.11026 C 215.20669,177.57026 210.74669,173.11026 205.20669,173.11026 L 32.706694,173.11026 z "
         style="opacity:0.047872309;fill-rule:evenodd;stroke-width:3.0000000pt"
         id="path1189" />
    </g>
    <path
       d="M 5.4186638,5.4561100 C 4.9536872,5.4561100 4.6035534,5.6913368 4.6035534,6.1828330 L 4.6035534,39.203794 C 4.6035534,39.930940 5.0906584,40.415354 5.7526104,40.415354 L 43.489564,40.415354 C 44.155366,40.415354 44.419872,39.962588 44.419872,39.328794 L 44.419872,10.425912 C 44.419872,9.8829469 44.019585,9.5893540 43.520814,9.5893540 L 24.411490,9.5893540 C 24.074477,9.5893540 23.714810,9.3909280 23.517009,9.1180670 L 20.914778,5.9180580 C 20.696913,5.6175190 20.272703,5.4561250 19.901500,5.4561250 L 5.4186638,5.4561100 z "
       style="fill:url(#linearGradient253);fill-opacity:1.0;fill-rule:evenodd;stroke:#555753;stroke-width:1.0000000;stroke-miterlimit:4.0000000;stroke-opacity:1"
       id="path895"
       sodipodi:nodetypes="ccccccccccccc" />
    <g
       id="g891"
       transform="matrix(0.186703,0.000000,0.000000,0.186703,-21.10730,57.62299)" />
    <path
       style="fill:url(#linearGradient320);fill-opacity:1.0;fill-rule:evenodd;stroke:none;stroke-width:0.25000000pt;stroke-linecap:butt;stroke-linejoin:miter;stroke-opacity:1.0000000;opacity:1.0000000;color:#000000;marker:none;marker-start:none;marker-mid:none;marker-end:none;stroke-miterlimit:4.0000000;stroke-dasharray:none;stroke-dashoffset:0;visibility:visible;display:inline;overflow:visible"
       d="M 5.0625000,7.9062500 L 5.0625000,36.156250 L 6.0312500,31.781250 L 6.2500000,9.1562500 C 6.2500000,8.4058274 6.7614657,8.0312500 7.4869586,8.0312500 L 19.093750,8.0312500 C 20.655346,8.0312500 22.108598,11.218750 24.411417,11.218750 C 30.383036,11.218750 43.749813,11.306338 43.750000,11.218750 L 43.750000,10.187500 L 24.218750,10.062500 C 22.362615,10.050621 21.088324,6.9062500 19.656250,6.9062500 L 6.2838336,6.9062500 C 5.4685048,6.9062500 5.0625000,7.2604161 5.0625000,7.9062500 z "
       id="path315"
       sodipodi:nodetypes="ccccczscczzcc" />
    <path
       style="color:#000000;fill:url(#linearGradient4740);fill-opacity:1.0;fill-rule:evenodd;stroke:#555753;stroke-width:0.99999988;stroke-linecap:butt;stroke-linejoin:round;marker:none;marker-start:none;marker-mid:none;marker-end:none;stroke-miterlimit:4;stroke-dashoffset:0;stroke-opacity:1;visibility:visible;display:inline;overflow:visible"
       d="M 7.6864537,16.296282 L 15.619799,16.296282 C 16.361533,16.296282 16.987769,15.915471 17.306966,15.414278 C 17.443709,15.199569 18.574948,13.28855 18.66464,13.158052 C 18.963427,12.723328 19.437557,12.399136 20.006622,12.399136 L 43.048855,12.399136 C 43.851692,12.399136 44.498018,13.042925 44.498018,13.84261 L 44.498018,38.915459 C 44.498018,39.715143 43.851692,40.358932 43.048855,40.358932 L 6.1279084,40.358932 C 5.3250725,40.358932 4.6787461,39.715143 4.6787461,38.915459 L 4.6787461,19.481904 C 4.6787461,17.507539 5.8190623,16.296282 7.6864537,16.296282 z "
       id="rect337"
       sodipodi:nodetypes="czzszcccccccc"
       inkscape:r_cx="true"
       inkscape:r_cy="true" />
    <path
       style="fill:url(#linearGradient355);fill-opacity:1.0;fill-rule:evenodd;stroke:none;stroke-width:0.25000000pt;stroke-linecap:butt;stroke-linejoin:miter;stroke-miterlimit:4.0000000;stroke-opacity:1.0000000;opacity:1.0000000;color:#000000;marker:none;marker-start:none;marker-mid:none;marker-end:none;stroke-dasharray:none;stroke-dashoffset:0;visibility:visible;display:inline;overflow:visible"
       d="M 20.500000,13.750000 C 19.853581,13.750000 19.490960,14.031698 19.125000,14.500000 C 18.759040,14.968302 18.343502,15.671815 18.062500,16.218750 C 17.781498,16.765685 17.493409,17.272919 17.218750,17.625000 C 16.944091,17.977081 16.729167,18.125000 16.500000,18.125000 C 15.250000,18.125000 7.3428301,18.125000 6.8428301,18.125000 C 6.3844968,18.125000 6.0073599,18.355519 5.6865801,18.656250 C 5.3658003,18.956981 5.0928301,19.362500 5.0928301,19.875000 C 5.0928302,20.499998 5.0928301,39.250000 5.0928301,39.250000 L 6.0928301,39.250000 C 6.0928301,39.250000 6.0928302,20.500002 6.0928301,19.875000 C 6.0928301,19.762500 6.1948599,19.543019 6.3740801,19.375000 C 6.5533003,19.206981 6.8011635,19.125000 6.8428301,19.125000 C 7.3428301,19.125000 15.250000,19.125000 16.500000,19.125000 C 17.145833,19.125000 17.634731,18.718232 18.000000,18.250000 C 18.365269,17.781768 18.656559,17.203065 18.937500,16.656250 C 19.218441,16.109435 19.568667,15.477011 19.843750,15.125000 C 20.118833,14.772989 20.269189,14.750000 20.500000,14.750000 C 21.716667,14.750000 43.750000,14.875000 43.750000,14.875000 L 43.750000,13.875000 C 43.750000,13.875000 21.783333,13.750000 20.500000,13.750000 z "
       id="path349"
       sodipodi:nodetypes="ccccccccccccccccccccc" />
    <rect
       style="color:#000000;fill:#fffffd;fill-opacity:1.0000000;fill-rule:evenodd;stroke:none;stroke-width:0.25000000pt;stroke-linecap:butt;stroke-linejoin:miter;stroke-miterlimit:4.0000000;stroke-dashoffset:0.0000000;stroke-opacity:1.0000000;marker:none;marker-start:none;marker-mid:none;marker-end:none;visibility:visible;display:inline;overflow:visible"
       id="rect459"
       width="1.2500000"
       height="1.2500000"
       x="5.5290294"
       y="7.3598347"
       rx="1.4434735"
       ry="1.2500000" />
    <rect
       style="opacity:0.28571429;color:#000000;fill:none;fill-opacity:1;fill-rule:evenodd;stroke:url(#linearGradient2345);stroke-width:1.00000024;stroke-linecap:square;stroke-linejoin:round;marker:none;marker-start:none;marker-mid:none;marker-end:none;stroke-miterlimit:4;stroke-dasharray:none;stroke-dashoffset:0;stroke-opacity:1;visibility:visible;display:inline;overflow:visible"
       id="rect2337"
       width="37.95816"
       height="23.625"
       x="5.5381637"
       y="15.75"
       inkscape:r_cx="true"
       inkscape:r_cy="true"
       rx="0.43750021"
       ry="0.4375" />
    <path
       style="fill:#d3d7cf;fill-opacity:1;stroke:#555753;stroke-width:0.99999994;stroke-linecap:square;stroke-linejoin:miter;stroke-miterlimit:4;stroke-opacity:1"
       d="M 26.426264,37.579685 L 24.923662,38.817122 C 24.2825,38.630252 23.620281,38.630252 22.979118,38.817122 L 21.476516,37.579686 L 19.355196,39.701006 L 20.592633,41.203608 C 20.405763,41.84477 20.405763,42.50699 20.592633,43.148152 L 19.355196,44.650754 L 21.476517,46.772074 L 22.979119,45.534638 C 23.620281,45.721507 24.2825,45.721507 24.923663,45.534637 L 26.426265,46.772074 L 28.547585,44.650753 L 27.310148,43.148151 C 27.497018,42.506989 27.497018,41.84477 27.310148,41.203608 L 28.547585,39.701005 L 26.426264,37.579685 z M 24.658497,41.468773 C 25.048819,41.859096 25.048819,42.492663 24.658497,42.882986 C 24.268174,43.273309 23.634607,43.27331 23.244284,42.882987 C 22.853961,42.492664 22.853961,41.859097 23.244284,41.468773 C 23.634607,41.078451 24.268174,41.07845 24.658497,41.468773 z "
       id="path2956" />
    <path
       style="fill:url(#linearGradient3071);fill-opacity:1;stroke:#2e3436;stroke-width:1.00543571;stroke-linecap:square;stroke-linejoin:miter;stroke-miterlimit:4;stroke-dasharray:none;stroke-opacity:1"
       d="M 32.474974,21.567735 C 31.932185,21.713175 31.409358,21.901925 30.907512,22.117145 L 32.102538,28.267416 L 26.424664,25.550634 C 25.524024,26.536065 25.17047,27.148437 24.767382,28.42113 L 29.95912,31.979924 L 24.035316,34.020135 C 24.099853,34.562357 24.197804,35.109512 24.343244,35.652302 C 24.488684,36.195093 24.677434,36.717919 24.892654,37.219765 L 31.042925,36.024739 L 28.326143,41.702613 C 29.311574,42.603253 29.923946,42.956807 31.196639,43.359895 L 34.755433,38.168157 L 36.795644,44.091961 C 37.337866,44.027424 37.885022,43.929473 38.427812,43.784033 C 38.970601,43.638593 39.493428,43.449843 39.995274,43.234623 L 38.800248,37.084352 L 44.478122,39.801134 C 45.378763,38.815703 45.732316,38.20333 46.135404,36.930638 L 40.943666,33.371844 L 46.86747,31.331633 C 46.802933,30.789411 46.704982,30.242256 46.559542,29.699465 C 46.414102,29.156675 46.225352,28.633849 46.010132,28.132003 L 39.859861,29.327029 L 42.576643,23.649155 C 41.662596,22.747314 40.978839,22.394961 39.706147,21.991873 L 36.147353,27.183611 L 34.107142,21.259807 C 33.56492,21.324344 33.017764,21.422295 32.474974,21.567735 z M 34.302884,28.389587 C 36.668921,27.75561 39.103712,29.161338 39.73769,31.527375 C 40.371667,33.89341 38.965939,36.328203 36.599902,36.962181 C 34.233867,37.596159 31.799074,36.19043 31.165096,33.824393 C 30.531119,31.458356 31.936847,29.023565 34.302884,28.389587 z "
       id="path2779"
       sodipodi:nodetypes="cccccccsccccccsccccccsccccccccsssc" />
    <path
       style="fill:url(#linearGradient3068);fill-opacity:1;stroke:#2e3436;stroke-width:1.00000012;stroke-linecap:square;stroke-linejoin:miter;stroke-miterlimit:4;stroke-dasharray:none;stroke-opacity:1"
       d="M 33.251431,24.465513 C 28.719307,25.679892 26.026643,30.343721 27.241022,34.875845 C 28.455401,39.40797 33.11923,42.100634 37.651355,40.886255 C 42.183479,39.671876 44.876143,35.008047 43.661764,30.475922 C 42.447385,25.943798 37.783556,23.251134 33.251431,24.465513 z M 34.804346,30.261069 C 36.137325,29.903899 37.509037,30.695857 37.866208,32.028836 C 38.22338,33.361816 37.43142,34.733528 36.09844,35.090699 C 34.76546,35.447869 33.393749,34.655911 33.036578,33.322931 C 32.679407,31.989952 33.471366,30.61824 34.804346,30.261069 z "
       id="path2828" />
    <path
       style="fill:none;fill-opacity:1;stroke:url(#linearGradient3065);stroke-width:1.13333344;stroke-linecap:square;stroke-linejoin:miter;stroke-miterlimit:4;stroke-dasharray:none;stroke-opacity:1"
       d="M 32.717617,22.473291 C 32.466406,22.540602 32.224134,22.648955 31.979164,22.735863 L 32.560501,25.750628 C 31.333565,26.260251 30.306418,27.081418 29.529715,28.083287 L 26.786461,26.780139 C 26.496129,27.207479 26.237984,27.6546 26.013063,28.119704 L 28.513249,29.843858 C 28.033956,31.017436 27.836377,32.317555 28.008499,33.634924 L 25.106968,34.638854 C 25.154188,34.894458 25.181488,35.158448 25.2488,35.40966 C 25.316111,35.660871 25.424464,35.903143 25.511372,36.148113 L 28.526137,35.566776 C 29.03576,36.793712 29.856927,37.820859 30.858796,38.597562 L 29.555648,41.340816 C 29.982987,41.631147 30.430108,41.889293 30.895213,42.114214 L 32.619367,39.614028 C 33.792945,40.093321 35.093064,40.2909 36.410433,40.118778 L 37.414363,43.020309 C 37.669967,42.973089 37.933958,42.945789 38.185169,42.878477 C 38.436379,42.811166 38.678652,42.702813 38.923622,42.615905 L 38.342285,39.60114 C 39.569221,39.091517 40.596368,38.27035 41.373071,37.268481 L 44.116325,38.571629 C 44.406657,38.144289 44.664802,37.697168 44.889723,37.232064 L 42.389537,35.50791 C 42.86883,34.334332 43.066408,33.034212 42.894287,31.716844 L 45.795818,30.712914 C 45.748598,30.45731 45.721298,30.19332 45.653986,29.942108 C 45.586675,29.690897 45.478322,29.448625 45.391414,29.203655 L 42.376649,29.784992 C 41.867026,28.558056 41.045859,27.530909 40.04399,26.754206 L 41.347138,24.010952 C 40.919799,23.720621 40.472678,23.462475 40.007573,23.237554 L 38.283419,25.73774 C 37.109841,25.258447 35.809722,25.060868 34.492353,25.23299 L 33.488423,22.331459 C 33.232819,22.378679 32.968829,22.405979 32.717617,22.473291 z "
       id="path2819" />
    <path
       sodipodi:type="arc"
       style="fill:none;fill-opacity:1;stroke:white;stroke-width:2.42857122;stroke-linecap:square;stroke-linejoin:miter;stroke-miterlimit:4;stroke-dasharray:none;stroke-opacity:1"
       id="path2835"
       sodipodi:cx="23.5"
       sodipodi:cy="19"
       sodipodi:rx="8.5"
       sodipodi:ry="8.5"
       d="M 32 19 A 8.5 8.5 0 1 1  15,19 A 8.5 8.5 0 1 1  32 19 z"
       transform="matrix(0.397734,-0.106573,0.106573,0.397734,24.07976,27.62339)" />
    <path
       style="fill:#eeeeec;fill-opacity:1;stroke:#555753;stroke-width:0.99999994;stroke-linecap:square;stroke-linejoin:miter;stroke-miterlimit:4;stroke-opacity:1"
       d="M 28.426265,16.579686 L 26.923663,17.817123 C 26.282501,17.630253 25.620282,17.630253 24.979119,17.817123 L 23.476517,16.579686 L 21.355196,18.701007 L 22.592633,20.203609 C 22.405764,20.844771 22.405764,21.506991 22.592634,22.148153 L 21.355197,23.650755 L 23.476518,25.772075 L 24.97912,24.534639 C 25.620282,24.721508 26.282501,24.721508 26.923664,24.534638 L 28.426266,25.772075 L 30.547586,23.650754 L 29.31015,22.148152 C 29.497019,21.50699 29.497019,20.84477 29.310149,20.203608 L 30.547586,18.701006 L 28.426265,16.579686 z M 26.658498,20.468773 C 27.048821,20.859096 27.048821,21.492664 26.658498,21.882987 C 26.268175,22.27331 25.634608,22.27331 25.244285,21.882987 C 24.853962,21.492665 24.853962,20.859097 25.244285,20.468774 C 25.634608,20.078451 26.268175,20.078451 26.658498,20.468773 z "
       id="rect2942" />
    <path
       sodipodi:type="arc"
       style="fill:none;fill-opacity:1;stroke:white;stroke-width:0.95936984;stroke-linecap:square;stroke-linejoin:miter;stroke-miterlimit:4;stroke-dasharray:none;stroke-opacity:1"
       id="path2958"
       sodipodi:cx="26.640625"
       sodipodi:cy="9.46875"
       sodipodi:rx="2.390625"
       sodipodi:ry="2.40625"
       d="M 29.03125 9.46875 A 2.390625 2.40625 0 1 1  24.25,9.46875 A 2.390625 2.40625 0 1 1  29.03125 9.46875 z"
       transform="matrix(1.045752,0,0,1.038961,-3.90809,32.33822)" />
    <path
       sodipodi:type="arc"
       style="fill:none;fill-opacity:1;stroke:white;stroke-width:0.95936984;stroke-linecap:square;stroke-linejoin:miter;stroke-miterlimit:4;stroke-dasharray:none;stroke-opacity:1"
       id="path2960"
       sodipodi:cx="26.640625"
       sodipodi:cy="9.46875"
       sodipodi:rx="2.390625"
       sodipodi:ry="2.40625"
       d="M 29.03125 9.46875 A 2.390625 2.40625 0 1 1  24.25,9.46875 A 2.390625 2.40625 0 1 1  29.03125 9.46875 z"
       transform="matrix(1.045752,0,0,1.038961,-1.9081,11.33822)" />
  </g>
</svg>
