#define cursor_side_left_mask_width 32
#define cursor_side_left_mask_height 32
#define cursor_side_left_mask_x_hot 10
#define cursor_side_left_mask_y_hot 10
static unsigned char cursor_side_left_mask_bits[] = {
   0x00, 0x04, 0x00, 0x00, 0x00, 0x0e, 0x00, 0x00, 0x00, 0x0e, 0x00, 0x00,
   0x00, 0x0e, 0x00, 0x00, 0x00, 0x0e, 0x00, 0x00, 0x00, 0x0e, 0x00, 0x00,
   0x00, 0x0e, 0x03, 0x00, 0x00, 0x8e, 0x03, 0x00, 0x00, 0xc4, 0x03, 0x00,
   0x00, 0xe0, 0x03, 0x00, 0x00, 0xf0, 0x03, 0x00, 0x00, 0xe0, 0x03, 0x00,
   0x00, 0xc4, 0x03, 0x00, 0x00, 0x8e, 0x03, 0x00, 0x00, 0x0e, 0x03, 0x00,
   0x00, 0x0e, 0x00, 0x00, 0x00, 0x0e, 0x00, 0x00, 0x00, 0x0e, 0x00, 0x00,
   0x00, 0x0e, 0x00, 0x00, 0x00, 0x0e, 0x00, 0x00, 0x00, 0x04, 0x00, 0x00,
   0x00, 0x00, 0x00, 0x00, 0x00, 0x00, 0x00, 0x00, 0x00, 0x00, 0x00, 0x00,
   0x00, 0x00, 0x00, 0x00, 0x00, 0x00, 0x00, 0x00, 0x00, 0x00, 0x00, 0x00,
   0x00, 0x00, 0x00, 0x00, 0x00, 0x00, 0x00, 0x00, 0x00, 0x00, 0x00, 0x00,
   0x00, 0x00, 0x00, 0x00, 0x00, 0x00, 0x00, 0x00 };
