#define cursor_move_mask_width 32
#define cursor_move_mask_height 32
#define cursor_move_mask_x_hot 10
#define cursor_move_mask_y_hot 10
static unsigned char cursor_move_mask_bits[] = {
   0x00, 0x00, 0x00, 0x00, 0x00, 0x00, 0x00, 0x00, 0x00, 0x00, 0x00, 0x00,
   0x00, 0x04, 0x00, 0x00, 0x00, 0x0e, 0x00, 0x00, 0x00, 0x1f, 0x00, 0x00,
   0x80, 0x3f, 0x00, 0x00, 0x40, 0x5f, 0x00, 0x00, 0xe0, 0xee, 0x00, 0x00,
   0xf0, 0xff, 0x01, 0x00, 0xf8, 0xff, 0x03, 0x00, 0xf0, 0xff, 0x01, 0x00,
   0xe0, 0xee, 0x00, 0x00, 0x40, 0x5f, 0x00, 0x00, 0x80, 0x3f, 0x00, 0x00,
   0x00, 0x1f, 0x00, 0x00, 0x00, 0x0e, 0x00, 0x00, 0x00, 0x04, 0x00, 0x00,
   0x00, 0x00, 0x00, 0x00, 0x00, 0x00, 0x00, 0x00, 0x00, 0x00, 0x00, 0x00,
   0x00, 0x00, 0x00, 0x00, 0x00, 0x00, 0x00, 0x00, 0x00, 0x00, 0x00, 0x00,
   0x00, 0x00, 0x00, 0x00, 0x00, 0x00, 0x00, 0x00, 0x00, 0x00, 0x00, 0x00,
   0x00, 0x00, 0x00, 0x00, 0x00, 0x00, 0x00, 0x00, 0x00, 0x00, 0x00, 0x00,
   0x00, 0x00, 0x00, 0x00, 0x00, 0x00, 0x00, 0x00 };
