#define cursor_move_mask_width 32
#define cursor_move_mask_height 32
#define cursor_move_mask_x_hot 8
#define cursor_move_mask_y_hot 8
static unsigned char cursor_move_mask_bits[] = {
   0x00, 0x00, 0x00, 0x00, 0x00, 0x01, 0x00, 0x00, 0x80, 0x03, 0x00, 0x00,
   0xc0, 0x07, 0x00, 0x00, 0xe0, 0x0f, 0x00, 0x00, 0xd0, 0x17, 0x00, 0x00,
   0xb8, 0x3b, 0x00, 0x00, 0xfc, 0x7f, 0x00, 0x00, 0xfe, 0xff, 0x00, 0x00,
   0xfc, 0x7f, 0x00, 0x00, 0xb8, 0x3b, 0x00, 0x00, 0xd0, 0x17, 0x00, 0x00,
   0xe0, 0x0f, 0x00, 0x00, 0xc0, 0x07, 0x00, 0x00, 0x80, 0x03, 0x00, 0x00,
   0x00, 0x01, 0x00, 0x00, 0x00, 0x00, 0x00, 0x00, 0x00, 0x00, 0x00, 0x00,
   0x00, 0x00, 0x00, 0x00, 0x00, 0x00, 0x00, 0x00, 0x00, 0x00, 0x00, 0x00,
   0x00, 0x00, 0x00, 0x00, 0x00, 0x00, 0x00, 0x00, 0x00, 0x00, 0x00, 0x00,
   0x00, 0x00, 0x00, 0x00, 0x00, 0x00, 0x00, 0x00, 0x00, 0x00, 0x00, 0x00,
   0x00, 0x00, 0x00, 0x00, 0x00, 0x00, 0x00, 0x00, 0x00, 0x00, 0x00, 0x00,
   0x00, 0x00, 0x00, 0x00, 0x00, 0x00, 0x00, 0x00 };
