#define modifier_select_mask_width 32
#define modifier_select_mask_height 32
static unsigned char modifier_select_mask_bits[] = {
   0x00, 0x00, 0x00, 0x00, 0x00, 0x00, 0xc0, 0x18, 0x00, 0x00, 0xe0, 0x3d,
   0x00, 0x00, 0xc0, 0x18, 0x00, 0x00, 0x10, 0x40, 0x00, 0x00, 0x38, 0xe0,
   0x00, 0x00, 0x38, 0xe0, 0x00, 0x00, 0x38, 0xe0, 0x00, 0x00, 0x10, 0x40,
   0x00, 0x00, 0xc0, 0x18, 0x00, 0x00, 0xe0, 0x3d, 0x00, 0x00, 0xc0, 0x18,
   0x00, 0x00, 0x00, 0x00, 0x00, 0x00, 0x00, 0x00, 0x00, 0x00, 0x00, 0x00,
   0x00, 0x00, 0x00, 0x00, 0x00, 0x00, 0x00, 0x00, 0x00, 0x00, 0x00, 0x00,
   0x00, 0x00, 0x00, 0x00, 0x00, 0x00, 0x00, 0x00, 0x00, 0x00, 0x00, 0x00,
   0x00, 0x00, 0x00, 0x00, 0x00, 0x00, 0x00, 0x00, 0x00, 0x00, 0x00, 0x00,
   0x00, 0x00, 0x00, 0x00, 0x00, 0x00, 0x00, 0x00, 0x00, 0x00, 0x00, 0x00,
   0x00, 0x00, 0x00, 0x00, 0x00, 0x00, 0x00, 0x00, 0x00, 0x00, 0x00, 0x00,
   0x00, 0x00, 0x00, 0x00, 0x00, 0x00, 0x00, 0x00 };
