/* Created with The GIMP */
#define modifier_pattern_mask_width 32
#define modifier_pattern_mask_height 32
static unsigned char modifier_pattern_mask_bits[] = {
   0x00, 0x00, 0x00, 0x00, 0x00, 0x00, 0xf8, 0x3f, 0x00, 0x00, 0xf8, 0x3f,
   0x00, 0x00, 0xf8, 0x3f, 0x00, 0x00, 0xf8, 0x3f, 0x00, 0x00, 0xf8, 0x3f,
   0x00, 0x00, 0xf8, 0x3f, 0x00, 0x00, 0xf8, 0x3f, 0x00, 0x00, 0xf8, 0x3f,
   0x00, 0x00, 0xf8, 0x3f, 0x00, 0x00, 0xf8, 0x3f, 0x00, 0x00, 0x00, 0x00,
   0x00, 0x00, 0x00, 0x00, 0x00, 0x00, 0x00, 0x00, 0x00, 0x00, 0x00, 0x00,
   0x00, 0x00, 0x00, 0x00, 0x00, 0x00, 0x00, 0x00, 0x00, 0x00, 0x00, 0x00,
   0x00, 0x00, 0x00, 0x00, 0x00, 0x00, 0x00, 0x00, 0x00, 0x00, 0x00, 0x00,
   0x00, 0x00, 0x00, 0x00, 0x00, 0x00, 0x00, 0x00, 0x00, 0x00, 0x00, 0x00,
   0x00, 0x00, 0x00, 0x00, 0x00, 0x00, 0x00, 0x00, 0x00, 0x00, 0x00, 0x00,
   0x00, 0x00, 0x00, 0x00, 0x00, 0x00, 0x00, 0x00, 0x00, 0x00, 0x00, 0x00,
   0x00, 0x00, 0x00, 0x00, 0x00, 0x00, 0x00, 0x00 };
