/* Created with GIMP */
#define modifier_anchor_mask_width 32
#define modifier_anchor_mask_height 32
static unsigned char modifier_anchor_mask_bits[] = {
   0x00, 0x00, 0x00, 0x07, 0x00, 0x00, 0x80, 0x0f, 0x00, 0x00, 0x80, 0x0f,
   0x00, 0x00, 0x80, 0x0f, 0x00, 0x00, 0x00, 0x07, 0x00, 0x00, 0x00, 0x07,
   0x00, 0x00, 0x20, 0x27, 0x00, 0x00, 0x70, 0x77, 0x00, 0x00, 0xf8, 0xff,
   0x00, 0x00, 0x70, 0x77, 0x00, 0x00, 0xf0, 0x7f, 0x00, 0x00, 0xe0, 0x3f,
   0x00, 0x00, 0xc0, 0x1f, 0x00, 0x00, 0x00, 0x07, 0x00, 0x00, 0x00, 0x00,
   0x00, 0x00, 0x00, 0x00, 0x00, 0x00, 0x00, 0x00, 0x00, 0x00, 0x00, 0x00,
   0x00, 0x00, 0x00, 0x00, 0x00, 0x00, 0x00, 0x00, 0x00, 0x00, 0x00, 0x00,
   0x00, 0x00, 0x00, 0x00, 0x00, 0x00, 0x00, 0x00, 0x00, 0x00, 0x00, 0x00,
   0x00, 0x00, 0x00, 0x00, 0x00, 0x00, 0x00, 0x00, 0x00, 0x00, 0x00, 0x00,
   0x00, 0x00, 0x00, 0x00, 0x00, 0x00, 0x00, 0x00, 0x00, 0x00, 0x00, 0x00,
   0x00, 0x00, 0x00, 0x00, 0x00, 0x00, 0x00, 0x00 };
