#define tool_smudge_width 32
#define tool_smudge_height 32
static unsigned char tool_smudge_bits[] = {
   0x00, 0x00, 0x00, 0x00, 0x00, 0x00, 0x00, 0x00, 0x00, 0x00, 0x00, 0x00,
   0x00, 0x00, 0x00, 0x00, 0x00, 0x00, 0x00, 0x00, 0x00, 0x00, 0x00, 0x00,
   0x00, 0x00, 0x00, 0x00, 0x00, 0x00, 0x00, 0x00, 0x00, 0x00, 0x00, 0x00,
   0x00, 0x00, 0x00, 0x00, 0x00, 0x00, 0x00, 0x00, 0x00, 0x00, 0x00, 0x00,
   0x00, 0x00, 0x00, 0x00, 0x00, 0x00, 0x00, 0x00, 0x00, 0x00, 0x80, 0x07,
   0x00, 0x00, 0x40, 0x18, 0x00, 0x00, 0x20, 0x20, 0x00, 0x00, 0x10, 0x20,
   0x00, 0x00, 0x28, 0x40, 0x00, 0x00, 0x54, 0x40, 0x00, 0x00, 0xac, 0x40,
   0x00, 0x00, 0x54, 0x46, 0x00, 0x00, 0x2c, 0x47, 0x00, 0x00, 0x28, 0x65,
   0x00, 0x00, 0x98, 0x33, 0x00, 0x00, 0x90, 0x18, 0x00, 0x00, 0xc8, 0x0f,
   0x00, 0x00, 0x48, 0x00, 0x00, 0x00, 0x24, 0x00, 0x00, 0x00, 0x12, 0x00,
   0x00, 0x00, 0x0c, 0x00, 0x00, 0x00, 0x00, 0x00 };
