/* Created with The GIMP */
#define tool_move_mask_width 32
#define tool_move_mask_height 32
static unsigned char tool_move_mask_bits[] = {
   0x00, 0x00, 0x00, 0x00, 0x00, 0x00, 0x00, 0x00, 0x00, 0x00, 0x00, 0x00,
   0x00, 0x00, 0x00, 0x00, 0x00, 0x00, 0x00, 0x00, 0x00, 0x00, 0x00, 0x00,
   0x00, 0x00, 0x00, 0x00, 0x00, 0x00, 0x00, 0x00, 0x00, 0x00, 0x00, 0x00,
   0x00, 0x00, 0x00, 0x00, 0x00, 0x00, 0x00, 0x00, 0x00, 0x00, 0x00, 0x00,
   0x00, 0x00, 0x00, 0x00, 0x00, 0x00, 0x00, 0x00, 0x00, 0x00, 0x00, 0x00,
   0x00, 0x00, 0x40, 0x00, 0x00, 0x00, 0xe0, 0x00, 0x00, 0x00, 0xf0, 0x01,
   0x00, 0x00, 0xf8, 0x03, 0x00, 0x00, 0xf4, 0x05, 0x00, 0x00, 0xee, 0x0e,
   0x00, 0x00, 0xff, 0x1f, 0x00, 0x80, 0xff, 0x3f, 0x00, 0x00, 0xff, 0x1f,
   0x00, 0x00, 0xee, 0x0e, 0x00, 0x00, 0xf4, 0x05, 0x00, 0x00, 0xf8, 0x03,
   0x00, 0x00, 0xf0, 0x01, 0x00, 0x00, 0xe0, 0x00, 0x00, 0x00, 0x40, 0x00,
   0x00, 0x00, 0x00, 0x00, 0x00, 0x00, 0x00, 0x00 };
