#define tool_polygon_select_width 32
#define tool_polygon_select_height 32
static unsigned char tool_polygon_select_bits[] = {
   0x00, 0x00, 0x00, 0x00, 0x00, 0x00, 0x00, 0x00, 0x00, 0x00, 0x00, 0x00,
   0x00, 0x00, 0x00, 0x00, 0x00, 0x00, 0x00, 0x00, 0x00, 0x00, 0x00, 0x00,
   0x00, 0x00, 0x00, 0x00, 0x00, 0x00, 0x00, 0x00, 0x00, 0x00, 0x00, 0x00,
   0x00, 0x00, 0x00, 0x00, 0x00, 0x00, 0x00, 0x00, 0x00, 0x00, 0x00, 0x00,
   0x00, 0x00, 0x00, 0x00, 0x00, 0x00, 0x00, 0x00, 0x00, 0x00, 0x00, 0x00,
   0x00, 0x00, 0x00, 0x00, 0x00, 0x00, 0x00, 0x00, 0x00, 0x00, 0x00, 0x03,
   0x00, 0x00, 0x00, 0x1d, 0x00, 0x00, 0x00, 0x61, 0x00, 0x00, 0x00, 0x41,
   0x00, 0x00, 0x80, 0x40, 0x00, 0x00, 0x80, 0x20, 0x00, 0x00, 0xff, 0x20,
   0x00, 0x00, 0x02, 0x20, 0x00, 0x00, 0x02, 0x20, 0x00, 0x00, 0x04, 0x20,
   0x00, 0x00, 0x04, 0x10, 0x00, 0x00, 0x38, 0x10, 0x00, 0x00, 0xc0, 0x13,
   0x00, 0x00, 0x00, 0x1c, 0x00, 0x00, 0x00, 0x00 };
