#define tool_shear_width 32
#define tool_shear_height 32
static unsigned char tool_shear_bits[] = {
   0x00, 0x00, 0x00, 0x00, 0x00, 0x00, 0x00, 0x00, 0x00, 0x00, 0x00, 0x00,
   0x00, 0x00, 0x00, 0x00, 0x00, 0x00, 0x00, 0x00, 0x00, 0x00, 0x00, 0x00,
   0x00, 0x00, 0x00, 0x00, 0x00, 0x00, 0x00, 0x00, 0x00, 0x00, 0x00, 0x00,
   0x00, 0x00, 0x00, 0x00, 0x00, 0x00, 0x00, 0x00, 0x00, 0x00, 0x00, 0x00,
   0x00, 0x00, 0x00, 0x00, 0x00, 0x00, 0x00, 0x00, 0x00, 0x00, 0x00, 0x00,
   0x00, 0x00, 0x00, 0x00, 0x00, 0x00, 0x00, 0x00, 0x00, 0x00, 0x00, 0x00,
   0x00, 0x00, 0x00, 0x00, 0x00, 0x00, 0xf8, 0x7f, 0x00, 0x00, 0x08, 0x40,
   0x00, 0x00, 0x04, 0x20, 0x00, 0x00, 0x04, 0x20, 0x00, 0x00, 0x02, 0x10,
   0x00, 0x00, 0x02, 0x10, 0x00, 0x00, 0x01, 0x08, 0x00, 0x00, 0x01, 0x08,
   0x00, 0x80, 0x00, 0x04, 0x00, 0x80, 0x00, 0x04, 0x00, 0x40, 0x00, 0x02,
   0x00, 0xc0, 0xff, 0x03, 0x00, 0x00, 0x00, 0x00 };
