#define tool_zoom_mask_width 32
#define tool_zoom_mask_height 32
static unsigned char tool_zoom_mask_bits[] = {
   0x00, 0x00, 0x00, 0x00, 0x00, 0x00, 0x00, 0x00, 0x00, 0x00, 0x00, 0x00,
   0x00, 0x00, 0x00, 0x00, 0x00, 0x00, 0x00, 0x00, 0x00, 0x00, 0x00, 0x00,
   0x00, 0x00, 0x00, 0x00, 0x00, 0x00, 0x00, 0x00, 0x00, 0x00, 0x00, 0x00,
   0x00, 0x00, 0x00, 0x00, 0x00, 0x00, 0x00, 0x00, 0x00, 0x00, 0x00, 0x00,
   0x00, 0x00, 0x00, 0x00, 0x00, 0x00, 0x00, 0x00, 0x00, 0x00, 0x00, 0x00,
   0x00, 0x00, 0x78, 0x00, 0x00, 0x00, 0xfc, 0x00, 0x00, 0x00, 0xfe, 0x01,
   0x00, 0x00, 0x87, 0x03, 0x00, 0x80, 0x03, 0x07, 0x00, 0x80, 0x03, 0x07,
   0x00, 0x80, 0x03, 0x07, 0x00, 0x80, 0x03, 0x07, 0x00, 0x00, 0x87, 0x03,
   0x00, 0x00, 0xfe, 0x07, 0x00, 0x00, 0xfc, 0x0f, 0x00, 0x00, 0x78, 0x1f,
   0x00, 0x00, 0x00, 0x3e, 0x00, 0x00, 0x00, 0x7c, 0x00, 0x00, 0x00, 0xf8,
   0x00, 0x00, 0x00, 0x70, 0x00, 0x00, 0x00, 0x20 };
