#define tool_bucket_fill_mask_width 32
#define tool_bucket_fill_mask_height 32
static unsigned char tool_bucket_fill_mask_bits[] = {
   0x00, 0x00, 0x00, 0x00, 0x00, 0x00, 0x00, 0x00, 0x00, 0x00, 0x00, 0x00,
   0x00, 0x00, 0x00, 0x00, 0x00, 0x00, 0x00, 0x00, 0x00, 0x00, 0x00, 0x00,
   0x00, 0x00, 0x00, 0x00, 0x00, 0x00, 0x00, 0x00, 0x00, 0x00, 0x00, 0x00,
   0x00, 0x00, 0x00, 0x00, 0x00, 0x00, 0x00, 0x00, 0x00, 0x00, 0x00, 0x00,
   0x00, 0x00, 0x00, 0x00, 0x00, 0x00, 0x00, 0x01, 0x00, 0x00, 0x80, 0x03,
   0x00, 0x00, 0xc0, 0x07, 0x00, 0x00, 0xc0, 0x07, 0x00, 0x00, 0xc0, 0x07,
   0x00, 0x00, 0xc0, 0x0f, 0x00, 0x00, 0xe0, 0x1f, 0x00, 0x00, 0xf0, 0x3f,
   0x00, 0x00, 0xf8, 0x7f, 0x00, 0x00, 0xfc, 0x7f, 0x00, 0x00, 0xfc, 0x7f,
   0x00, 0x00, 0xf8, 0x7f, 0x00, 0x00, 0xf0, 0x7f, 0x00, 0x00, 0xe0, 0x27,
   0x00, 0x00, 0xc0, 0x73, 0x00, 0x00, 0x80, 0x71, 0x00, 0x00, 0x00, 0x20,
   0x00, 0x00, 0x00, 0x70, 0x00, 0x00, 0x00, 0x20 };
