#define tool_measure_width 32
#define tool_measure_height 32
static unsigned char tool_measure_bits[] = {
   0x00, 0x00, 0x00, 0x00, 0x00, 0x00, 0x00, 0x00, 0x00, 0x00, 0x00, 0x00,
   0x00, 0x00, 0x00, 0x00, 0x00, 0x00, 0x00, 0x00, 0x00, 0x00, 0x00, 0x00,
   0x00, 0x00, 0x00, 0x00, 0x00, 0x00, 0x00, 0x00, 0x00, 0x00, 0x00, 0x00,
   0x00, 0x00, 0x00, 0x00, 0x00, 0x00, 0x00, 0x00, 0x00, 0x00, 0x00, 0x00,
   0x00, 0x00, 0x00, 0x00, 0x00, 0x00, 0x00, 0x00, 0x00, 0x00, 0x00, 0x0c,
   0x00, 0x00, 0x00, 0x12, 0x00, 0x00, 0x00, 0x21, 0x00, 0x00, 0x80, 0x42,
   0x00, 0x00, 0x40, 0x60, 0x00, 0x00, 0xa0, 0x30, 0x00, 0x00, 0x10, 0x19,
   0x00, 0x00, 0x28, 0x0c, 0x00, 0x00, 0x04, 0x06, 0x00, 0x00, 0x0a, 0x03,
   0x00, 0x00, 0x91, 0x01, 0x00, 0x80, 0xc2, 0x00, 0x00, 0x40, 0x60, 0x00,
   0x00, 0xc0, 0x30, 0x00, 0x00, 0x80, 0x19, 0x00, 0x00, 0x00, 0x0f, 0x00,
   0x00, 0x00, 0x06, 0x00, 0x00, 0x00, 0x00, 0x00 };
