/* Created with The GIMP */
#define tool_perspective_width 32
#define tool_perspective_height 32
static unsigned char tool_perspective_bits[] = {
   0x00, 0x00, 0x00, 0x00, 0x00, 0x00, 0x00, 0x00, 0x00, 0x00, 0x00, 0x00,
   0x00, 0x00, 0x00, 0x00, 0x00, 0x00, 0x00, 0x00, 0x00, 0x00, 0x00, 0x00,
   0x00, 0x00, 0x00, 0x00, 0x00, 0x00, 0x00, 0x00, 0x00, 0x00, 0x00, 0x00,
   0x00, 0x00, 0x00, 0x00, 0x00, 0x00, 0x00, 0x00, 0x00, 0x00, 0x00, 0x00,
   0x00, 0x00, 0x00, 0x00, 0x00, 0x00, 0x00, 0x00, 0x00, 0x00, 0x00, 0x00,
   0x00, 0x00, 0x00, 0x00, 0x00, 0x00, 0x00, 0x00, 0x00, 0x00, 0x00, 0x00,
   0x00, 0x00, 0x00, 0x00, 0x00, 0x00, 0x00, 0x00, 0x00, 0x00, 0x00, 0x00,
   0x00, 0xc0, 0xff, 0x07, 0x00, 0x40, 0x00, 0x04, 0x00, 0x20, 0x00, 0x08,
   0x00, 0x20, 0x00, 0x08, 0x00, 0x10, 0x00, 0x10, 0x00, 0x10, 0x00, 0x10,
   0x00, 0x08, 0x00, 0x20, 0x00, 0x08, 0x00, 0x20, 0x00, 0x04, 0x00, 0x40,
   0x00, 0xfc, 0xff, 0x7f, 0x00, 0x00, 0x00, 0x00 };
