#define tool_bucket_fill_width 32
#define tool_bucket_fill_height 32
static unsigned char tool_bucket_fill_bits[] = {
   0x00, 0x00, 0x00, 0x00, 0x00, 0x00, 0x00, 0x00, 0x00, 0x00, 0x00, 0x00,
   0x00, 0x00, 0x00, 0x00, 0x00, 0x00, 0x00, 0x00, 0x00, 0x00, 0x00, 0x00,
   0x00, 0x00, 0x00, 0x00, 0x00, 0x00, 0x00, 0x00, 0x00, 0x00, 0x00, 0x00,
   0x00, 0x00, 0x00, 0x00, 0x00, 0x00, 0x00, 0x00, 0x00, 0x00, 0x00, 0x00,
   0x00, 0x00, 0x00, 0x00, 0x00, 0x00, 0x00, 0x00, 0x00, 0x00, 0x00, 0x01,
   0x00, 0x00, 0x80, 0x02, 0x00, 0x00, 0x80, 0x02, 0x00, 0x00, 0x80, 0x03,
   0x00, 0x00, 0x80, 0x06, 0x00, 0x00, 0x40, 0x0e, 0x00, 0x00, 0x20, 0x1a,
   0x00, 0x00, 0x10, 0x37, 0x00, 0x00, 0x08, 0x3a, 0x00, 0x00, 0x08, 0x3c,
   0x00, 0x00, 0xf0, 0x2f, 0x00, 0x00, 0xe0, 0x27, 0x00, 0x00, 0xc0, 0x03,
   0x00, 0x00, 0x80, 0x21, 0x00, 0x00, 0x00, 0x20, 0x00, 0x00, 0x00, 0x00,
   0x00, 0x00, 0x00, 0x20, 0x00, 0x00, 0x00, 0x00 };
