#define tool_free_select_width 32
#define tool_free_select_height 32
static unsigned char tool_free_select_bits[] = {
   0x00, 0x00, 0x00, 0x00, 0x00, 0x00, 0x00, 0x00, 0x00, 0x00, 0x00, 0x00,
   0x00, 0x00, 0x00, 0x00, 0x00, 0x00, 0x00, 0x00, 0x00, 0x00, 0x00, 0x00,
   0x00, 0x00, 0x00, 0x00, 0x00, 0x00, 0x00, 0x00, 0x00, 0x00, 0x00, 0x00,
   0x00, 0x00, 0x00, 0x00, 0x00, 0x00, 0x00, 0x00, 0x00, 0x00, 0x00, 0x00,
   0x00, 0x00, 0x00, 0x00, 0x00, 0x00, 0x00, 0x00, 0x00, 0x00, 0x00, 0x00,
   0x00, 0x00, 0x00, 0x00, 0x00, 0x00, 0x00, 0x00, 0x00, 0x00, 0x00, 0x00,
   0x00, 0x00, 0xc0, 0x07, 0x00, 0x00, 0x30, 0x18, 0x00, 0x00, 0x08, 0x20,
   0x00, 0x00, 0x04, 0x40, 0x00, 0x00, 0x04, 0x40, 0x00, 0x00, 0x04, 0x40,
   0x00, 0x00, 0x04, 0x20, 0x00, 0x00, 0x1c, 0x18, 0x00, 0x00, 0xea, 0x07,
   0x00, 0x00, 0x1a, 0x00, 0x00, 0x00, 0x0c, 0x00, 0x00, 0x00, 0x06, 0x00,
   0x00, 0x80, 0x01, 0x00, 0x00, 0x00, 0x00, 0x00 };
