#define tool_move_mask_width 32
#define tool_move_mask_height 32
static unsigned char tool_move_mask_bits[] = {
   0x00, 0x00, 0x00, 0x00, 0x00, 0x00, 0x00, 0x00, 0x00, 0x00, 0x00, 0x00,
   0x00, 0x00, 0x00, 0x00, 0x00, 0x00, 0x00, 0x00, 0x00, 0x00, 0x00, 0x00,
   0x00, 0x00, 0x00, 0x00, 0x00, 0x00, 0x00, 0x00, 0x00, 0x00, 0x00, 0x00,
   0x00, 0x00, 0x00, 0x00, 0x00, 0x00, 0x00, 0x00, 0x00, 0x00, 0x00, 0x00,
   0x00, 0x00, 0x00, 0x00, 0x00, 0x00, 0x00, 0x00, 0x00, 0x00, 0x00, 0x00,
   0x00, 0x00, 0x00, 0x00, 0x00, 0x00, 0x80, 0x00, 0x00, 0x00, 0xc0, 0x01,
   0x00, 0x00, 0xe0, 0x03, 0x00, 0x00, 0xf0, 0x07, 0x00, 0x00, 0xe8, 0x0b,
   0x00, 0x00, 0xdc, 0x1d, 0x00, 0x00, 0xfe, 0x3f, 0x00, 0x00, 0xff, 0x7f,
   0x00, 0x00, 0xfe, 0x3f, 0x00, 0x00, 0xdc, 0x1d, 0x00, 0x00, 0xe8, 0x0b,
   0x00, 0x00, 0xf0, 0x07, 0x00, 0x00, 0xe0, 0x03, 0x00, 0x00, 0xc0, 0x01,
   0x00, 0x00, 0x80, 0x00, 0x00, 0x00, 0x00, 0x00 };
