#define tool_text_mask_width 32
#define tool_text_mask_height 32
static unsigned char tool_text_mask_bits[] = {
   0x00, 0x00, 0x00, 0x00, 0x00, 0x00, 0x00, 0x00, 0x00, 0x00, 0x00, 0x00,
   0x00, 0x00, 0x00, 0x00, 0x00, 0x00, 0x00, 0x00, 0x00, 0x00, 0x00, 0x00,
   0x00, 0x00, 0x00, 0x00, 0x00, 0x00, 0x00, 0x00, 0x00, 0x00, 0x00, 0x00,
   0x00, 0x00, 0x00, 0x00, 0x00, 0x00, 0x00, 0x00, 0x00, 0x00, 0x00, 0x00,
   0x00, 0x00, 0x00, 0x00, 0x00, 0x00, 0x00, 0x00, 0x00, 0x00, 0x00, 0x00,
   0x00, 0x00, 0x00, 0x00, 0x00, 0x00, 0xf0, 0x1e, 0x00, 0x00, 0xf0, 0x1f,
   0x00, 0x00, 0xf0, 0x1f, 0x00, 0x00, 0xc0, 0x07, 0x00, 0x00, 0x80, 0x03,
   0x00, 0x00, 0x80, 0x03, 0x00, 0x00, 0x80, 0x03, 0x00, 0x00, 0x80, 0x03,
   0x00, 0x00, 0x80, 0x03, 0x00, 0x00, 0x80, 0x03, 0x00, 0x00, 0x80, 0x03,
   0x00, 0x00, 0x80, 0x03, 0x00, 0x00, 0xc0, 0x07, 0x00, 0x00, 0xf0, 0x1f,
   0x00, 0x00, 0xf0, 0x1f, 0x00, 0x00, 0xf0, 0x1e };
