/* Created with The GIMP */
#define tool_rect_select_mask_width 32
#define tool_rect_select_mask_height 32
static unsigned char tool_rect_select_mask_bits[] = {
   0x00, 0x00, 0x00, 0x00, 0x00, 0x00, 0x00, 0x00, 0x00, 0x00, 0x00, 0x00,
   0x00, 0x00, 0x00, 0x00, 0x00, 0x00, 0x00, 0x00, 0x00, 0x00, 0x00, 0x00,
   0x00, 0x00, 0x00, 0x00, 0x00, 0x00, 0x00, 0x00, 0x00, 0x00, 0x00, 0x00,
   0x00, 0x00, 0x00, 0x00, 0x00, 0x00, 0x00, 0x00, 0x00, 0x00, 0x00, 0x00,
   0x00, 0x00, 0x00, 0x00, 0x00, 0x00, 0x00, 0x00, 0x00, 0x00, 0x00, 0x00,
   0x00, 0x00, 0x00, 0x00, 0x00, 0x00, 0xff, 0x1f, 0x00, 0x00, 0xff, 0x1f,
   0x00, 0x00, 0xff, 0x1f, 0x00, 0x00, 0x07, 0x1c, 0x00, 0x00, 0x07, 0x1c,
   0x00, 0x00, 0x07, 0x1c, 0x00, 0x00, 0x07, 0x1c, 0x00, 0x00, 0x07, 0x1c,
   0x00, 0x00, 0x07, 0x1c, 0x00, 0x00, 0x07, 0x1c, 0x00, 0x00, 0xff, 0x1f,
   0x00, 0x00, 0xff, 0x1f, 0x00, 0x00, 0xff, 0x1f, 0x00, 0x00, 0x00, 0x00,
   0x00, 0x00, 0x00, 0x00, 0x00, 0x00, 0x00, 0x00 };
