#define tool_eraser_width 32
#define tool_eraser_height 32
static unsigned char tool_eraser_bits[] = {
   0x00, 0x00, 0x00, 0x00, 0x00, 0x00, 0x00, 0x00, 0x00, 0x00, 0x00, 0x00,
   0x00, 0x00, 0x00, 0x00, 0x00, 0x00, 0x00, 0x00, 0x00, 0x00, 0x00, 0x00,
   0x00, 0x00, 0x00, 0x00, 0x00, 0x00, 0x00, 0x00, 0x00, 0x00, 0x00, 0x00,
   0x00, 0x00, 0x00, 0x00, 0x00, 0x00, 0x00, 0x00, 0x00, 0x00, 0x00, 0x00,
   0x00, 0x00, 0x00, 0x00, 0x00, 0x00, 0x00, 0x00, 0x00, 0x00, 0x00, 0x00,
   0x00, 0x00, 0x00, 0x00, 0x00, 0x00, 0x00, 0x00, 0x00, 0x00, 0x00, 0x00,
   0x00, 0x00, 0x00, 0x03, 0x00, 0x00, 0x80, 0x04, 0x00, 0x00, 0x40, 0x08,
   0x00, 0x00, 0x20, 0x10, 0x00, 0x00, 0x10, 0x18, 0x00, 0x00, 0x08, 0x0c,
   0x00, 0x00, 0x04, 0x06, 0x00, 0x00, 0x02, 0x03, 0x00, 0x00, 0x86, 0x01,
   0x00, 0x00, 0xcc, 0x00, 0x00, 0x00, 0x78, 0x00, 0x00, 0x00, 0xfc, 0x2d,
   0x00, 0x00, 0x00, 0x00, 0x00, 0x00, 0x00, 0x00 };
