#define tool_paths_segment_width 32
#define tool_paths_segment_height 32
static unsigned char tool_paths_segment_bits[] = {
   0x00, 0x00, 0x00, 0x00, 0x00, 0x00, 0x00, 0x00, 0x00, 0x00, 0x00, 0x00,
   0x00, 0x00, 0x00, 0x00, 0x00, 0x00, 0x00, 0x00, 0x00, 0x00, 0x00, 0x00,
   0x00, 0x00, 0x00, 0x00, 0x00, 0x00, 0x00, 0x00, 0x00, 0x00, 0x00, 0x00,
   0x00, 0x00, 0x00, 0x00, 0x00, 0x00, 0x00, 0x00, 0x00, 0x00, 0x00, 0x00,
   0x00, 0x00, 0x00, 0x00, 0x00, 0x00, 0x00, 0x00, 0x00, 0x00, 0x00, 0x00,
   0x00, 0x00, 0x00, 0x02, 0x00, 0x00, 0x00, 0x05, 0x00, 0x00, 0x80, 0x08,
   0x00, 0x00, 0x00, 0x05, 0x08, 0x00, 0x00, 0x07, 0x14, 0x00, 0x00, 0x05,
   0x14, 0x00, 0x00, 0x05, 0x28, 0x00, 0x80, 0x02, 0x28, 0x00, 0x80, 0x02,
   0x50, 0x00, 0x40, 0x01, 0xa0, 0x00, 0xa0, 0x00, 0x40, 0x43, 0x58, 0x00,
   0x9c, 0xbc, 0x27, 0x1c, 0x54, 0x13, 0x59, 0x15, 0x1c, 0xbc, 0x07, 0x1c,
   0x00, 0x40, 0x00, 0x00, 0x00, 0x00, 0x00, 0x00 };
