#define tool_rotate_width 32
#define tool_rotate_height 32
static unsigned char tool_rotate_bits[] = {
   0x00, 0x00, 0x00, 0x00, 0x00, 0x00, 0x00, 0x00, 0x00, 0x00, 0x00, 0x00,
   0x00, 0x00, 0x00, 0x00, 0x00, 0x00, 0x00, 0x00, 0x00, 0x00, 0x00, 0x00,
   0x00, 0x00, 0x00, 0x00, 0x00, 0x00, 0x00, 0x00, 0x00, 0x00, 0x00, 0x00,
   0x00, 0x00, 0x00, 0x00, 0x00, 0x00, 0x00, 0x00, 0x00, 0x00, 0x00, 0x00,
   0x00, 0x00, 0x00, 0x00, 0x00, 0x00, 0x00, 0x00, 0x00, 0x00, 0x00, 0x00,
   0x00, 0x00, 0x00, 0x07, 0x00, 0x00, 0xc4, 0x1d, 0x00, 0x00, 0x6c, 0x30,
   0x00, 0x00, 0x34, 0x60, 0x00, 0x00, 0x24, 0x40, 0x00, 0x00, 0x44, 0x00,
   0x00, 0x00, 0xfc, 0x00, 0x00, 0x00, 0x00, 0x00, 0x00, 0x00, 0x00, 0x00,
   0x00, 0x00, 0x00, 0x7e, 0x00, 0x00, 0x00, 0x44, 0x00, 0x00, 0x04, 0x48,
   0x00, 0x00, 0x0c, 0x58, 0x00, 0x00, 0x18, 0x6c, 0x00, 0x00, 0x70, 0x47,
   0x00, 0x00, 0xc0, 0x01, 0x00, 0x00, 0x00, 0x00 };
