<?xml version="1.0" encoding="UTF-8" standalone="no"?>
<!-- Created with Inkscape (http://www.inkscape.org/) -->
<svg
   xmlns:dc="http://purl.org/dc/elements/1.1/"
   xmlns:cc="http://web.resource.org/cc/"
   xmlns:rdf="http://www.w3.org/1999/02/22-rdf-syntax-ns#"
   xmlns:svg="http://www.w3.org/2000/svg"
   xmlns="http://www.w3.org/2000/svg"
   xmlns:xlink="http://www.w3.org/1999/xlink"
   xmlns:sodipodi="http://sodipodi.sourceforge.net/DTD/sodipodi-0.dtd"
   xmlns:inkscape="http://www.inkscape.org/namespaces/inkscape"
   version="1.0"
   x="0.0000000"
   y="0.0000000"
   width="48.000000px"
   height="48.000000px"
   id="svg1"
   sodipodi:version="0.32"
   inkscape:version="0.43+devel"
   sodipodi:docname="folders-palette.svg"
   sodipodi:docbase="/home/lapo/Desktop/gimp/preferences">
  <metadata
     id="metadata162">
    <rdf:RDF>
      <cc:Work
         rdf:about="">
        <dc:format>image/svg+xml</dc:format>
        <dc:type
           rdf:resource="http://purl.org/dc/dcmitype/StillImage" />
        <dc:title>Folder</dc:title>
        <dc:creator>
          <cc:Agent>
            <dc:title>Jakub Steiner</dc:title>
          </cc:Agent>
        </dc:creator>
        <dc:date>2005-02-01</dc:date>
        <cc:license
           rdf:resource="http://creativecommons.org/licenses/GPL/2.0/" />
        <dc:identifier>http://jimmac.musichall.cz/</dc:identifier>
        <dc:subject>
          <rdf:Bag>
            <rdf:li>folder</rdf:li>
            <rdf:li>directory</rdf:li>
            <rdf:li>storage</rdf:li>
          </rdf:Bag>
        </dc:subject>
      </cc:Work>
      <cc:License
         rdf:about="http://creativecommons.org/licenses/GPL/2.0/">
        <cc:permits
           rdf:resource="http://web.resource.org/cc/Reproduction" />
        <cc:permits
           rdf:resource="http://web.resource.org/cc/Distribution" />
        <cc:requires
           rdf:resource="http://web.resource.org/cc/Notice" />
        <cc:permits
           rdf:resource="http://web.resource.org/cc/DerivativeWorks" />
        <cc:requires
           rdf:resource="http://web.resource.org/cc/ShareAlike" />
        <cc:requires
           rdf:resource="http://web.resource.org/cc/SourceCode" />
      </cc:License>
    </rdf:RDF>
  </metadata>
  <sodipodi:namedview
     id="base"
     pagecolor="#ffffff"
     bordercolor="#666"
     borderopacity="1"
     inkscape:pageopacity="0.0"
     inkscape:pageshadow="2"
     inkscape:window-width="1034"
     inkscape:window-height="655"
     inkscape:cy="14.443539"
     inkscape:cx="27.359021"
     inkscape:zoom="1"
     inkscape:document-units="px"
     showgrid="false"
     inkscape:window-x="183"
     inkscape:window-y="283"
     inkscape:current-layer="layer2"
     inkscape:showpageshadow="false"
     borderlayer="true"
     showborder="false" />
  <defs
     id="defs3">
    <linearGradient
       inkscape:collect="always"
       id="linearGradient4689">
      <stop
         style="stop-color:black;stop-opacity:1;"
         offset="0"
         id="stop4691" />
      <stop
         style="stop-color:black;stop-opacity:0;"
         offset="1"
         id="stop4693" />
    </linearGradient>
    <linearGradient
       inkscape:collect="always"
       id="linearGradient4651">
      <stop
         style="stop-color:white;stop-opacity:1;"
         offset="0"
         id="stop4653" />
      <stop
         style="stop-color:white;stop-opacity:0;"
         offset="1"
         id="stop4655" />
    </linearGradient>
    <linearGradient
       inkscape:collect="always"
       id="linearGradient4643">
      <stop
         style="stop-color:white;stop-opacity:1;"
         offset="0"
         id="stop4645" />
      <stop
         style="stop-color:white;stop-opacity:0;"
         offset="1"
         id="stop4647" />
    </linearGradient>
    <linearGradient
       inkscape:collect="always"
       id="linearGradient4635">
      <stop
         style="stop-color:white;stop-opacity:1;"
         offset="0"
         id="stop4637" />
      <stop
         style="stop-color:white;stop-opacity:0;"
         offset="1"
         id="stop4639" />
    </linearGradient>
    <linearGradient
       inkscape:collect="always"
       id="linearGradient4627">
      <stop
         style="stop-color:#73d216;stop-opacity:1"
         offset="0"
         id="stop4629" />
      <stop
         style="stop-color:#8ae234;stop-opacity:1"
         offset="1"
         id="stop4631" />
    </linearGradient>
    <linearGradient
       inkscape:collect="always"
       id="linearGradient4619">
      <stop
         style="stop-color:#3465a4;stop-opacity:1"
         offset="0"
         id="stop4621" />
      <stop
         style="stop-color:#729fcf;stop-opacity:1"
         offset="1"
         id="stop4623" />
    </linearGradient>
    <linearGradient
       inkscape:collect="always"
       id="linearGradient4611">
      <stop
         style="stop-color:#c00;stop-opacity:1"
         offset="0"
         id="stop4613" />
      <stop
         style="stop-color:#ef2929;stop-opacity:1"
         offset="1"
         id="stop4615" />
    </linearGradient>
    <linearGradient
       id="linearGradient4734">
      <stop
         style="stop-color:#cccdbc;stop-opacity:1;"
         offset="0"
         id="stop4736" />
      <stop
         style="stop-color:#b9baa4;stop-opacity:1;"
         offset="1"
         id="stop4738" />
    </linearGradient>
    <linearGradient
       inkscape:collect="always"
       id="linearGradient2339">
      <stop
         style="stop-color:#ffffff;stop-opacity:1;"
         offset="0"
         id="stop2341" />
      <stop
         style="stop-color:#ffffff;stop-opacity:0;"
         offset="1"
         id="stop2343" />
    </linearGradient>
    <linearGradient
       inkscape:collect="always"
       xlink:href="#linearGradient2339"
       id="linearGradient2345"
       x1="25.850664"
       y1="37.625"
       x2="24.996323"
       y2="25.25"
       gradientUnits="userSpaceOnUse" />
    <linearGradient
       id="linearGradient356">
      <stop
         style="stop-color:#fffff3;stop-opacity:1.0000000;"
         offset="0.0000000"
         id="stop357" />
      <stop
         style="stop-color:#fffff3;stop-opacity:0.0000000;"
         offset="1.0000000"
         id="stop358" />
    </linearGradient>
    <linearGradient
       id="linearGradient311">
      <stop
         style="stop-color:#cfcfc4;stop-opacity:1.0000000;"
         offset="0.0000000"
         id="stop312" />
      <stop
         style="stop-color:#cfcfc4;stop-opacity:1.0000000;"
         offset="0.32673267"
         id="stop335" />
      <stop
         style="stop-color:#cfcfc4;stop-opacity:0;"
         offset="1"
         id="stop313" />
    </linearGradient>
    <linearGradient
       id="linearGradient235">
      <stop
         style="stop-color:#59594a;stop-opacity:1.0000000;"
         offset="0.0000000"
         id="stop236" />
      <stop
         style="stop-color:#a2a491;stop-opacity:1.0000000;"
         offset="1.0000000"
         id="stop237" />
    </linearGradient>
    <linearGradient
       inkscape:collect="always"
       xlink:href="#linearGradient235"
       id="linearGradient253"
       gradientTransform="scale(1.068312,0.936056)"
       x1="24.983023"
       y1="22.828066"
       x2="24.983023"
       y2="8.3744106"
       gradientUnits="userSpaceOnUse" />
    <linearGradient
       inkscape:collect="always"
       xlink:href="#linearGradient311"
       id="linearGradient320"
       gradientUnits="userSpaceOnUse"
       gradientTransform="scale(0.750458,1.332520)"
       x1="32.827568"
       y1="7.9206076"
       x2="60.071049"
       y2="7.8678756" />
    <linearGradient
       inkscape:collect="always"
       xlink:href="#linearGradient356"
       id="linearGradient355"
       gradientUnits="userSpaceOnUse"
       gradientTransform="scale(0.806859,1.239374)"
       x1="23.643002"
       y1="12.818464"
       x2="28.443289"
       y2="25.232374" />
    <linearGradient
       inkscape:collect="always"
       xlink:href="#linearGradient4734"
       id="linearGradient4740"
       x1="24.588383"
       y1="1.8991361"
       x2="24.588383"
       y2="40.858932"
       gradientUnits="userSpaceOnUse" />
    <linearGradient
       inkscape:collect="always"
       xlink:href="#linearGradient4627"
       id="linearGradient4633"
       x1="38.603333"
       y1="29.43643"
       x2="38.603333"
       y2="36.60437"
       gradientUnits="userSpaceOnUse" />
    <linearGradient
       inkscape:collect="always"
       xlink:href="#linearGradient4651"
       id="linearGradient4657"
       x1="35.273872"
       y1="28.191809"
       x2="45.613091"
       y2="46.099857"
       gradientUnits="userSpaceOnUse" />
    <linearGradient
       inkscape:collect="always"
       xlink:href="#linearGradient4611"
       id="linearGradient4671"
       gradientUnits="userSpaceOnUse"
       x1="41.644096"
       y1="26.399893"
       x2="41.644096"
       y2="36.296448" />
    <linearGradient
       inkscape:collect="always"
       xlink:href="#linearGradient4635"
       id="linearGradient4673"
       gradientUnits="userSpaceOnUse"
       x1="35.690956"
       y1="27.566189"
       x2="39.723694"
       y2="42.616573" />
    <linearGradient
       inkscape:collect="always"
       xlink:href="#linearGradient4619"
       id="linearGradient4675"
       gradientUnits="userSpaceOnUse"
       x1="43.954025"
       y1="25.17292"
       x2="43.954025"
       y2="37.187893" />
    <linearGradient
       inkscape:collect="always"
       xlink:href="#linearGradient4643"
       id="linearGradient4677"
       gradientUnits="userSpaceOnUse"
       x1="34.648251"
       y1="32.362637"
       x2="41.068493"
       y2="43.482822" />
    <radialGradient
       inkscape:collect="always"
       xlink:href="#linearGradient4689"
       id="radialGradient4695"
       cx="33.23402"
       cy="42.16637"
       fx="29.220533"
       fy="47.543911"
       r="10.871767"
       gradientTransform="matrix(1,0,0,0.219512,0,32.91034)"
       gradientUnits="userSpaceOnUse" />
  </defs>
  <g
     inkscape:groupmode="layer"
     id="layer1"
     inkscape:label="pixmap"
     style="display:inline" />
  <g
     inkscape:groupmode="layer"
     id="layer2"
     inkscape:label="vectors"
     style="display:inline">
    <g
       transform="matrix(0.216083,0.000000,0.000000,0.263095,-0.893233,-10.24236)"
       id="g1197">
      <path
         d="M 32.706693,164.36026 C 22.319193,164.36026 13.956693,172.72276 13.956693,183.11026 C 13.956693,193.49776 22.319193,201.86026 32.706693,201.86026 L 205.20669,201.86026 C 215.59419,201.86026 223.95669,193.49776 223.95669,183.11026 C 223.95669,172.72276 215.59419,164.36026 205.20669,164.36026 L 32.706693,164.36026 z "
         style="opacity:0.047872309;fill-rule:evenodd;stroke-width:3.0000000pt"
         id="path1196" />
      <path
         d="M 32.706693,165.61026 C 23.011693,165.61026 15.206693,173.41526 15.206693,183.11026 C 15.206693,192.80526 23.011693,200.61026 32.706693,200.61026 L 205.20669,200.61026 C 214.90169,200.61026 222.70669,192.80526 222.70669,183.11026 C 222.70669,173.41526 214.90169,165.61026 205.20669,165.61026 L 32.706693,165.61026 z "
         style="opacity:0.047872309;fill-rule:evenodd;stroke-width:3.0000000pt"
         id="path1195" />
      <path
         d="M 32.706694,166.86026 C 23.704194,166.86026 16.456694,174.10776 16.456694,183.11026 C 16.456694,192.11276 23.704194,199.36026 32.706694,199.36026 L 205.20669,199.36026 C 214.20919,199.36026 221.45669,192.11276 221.45669,183.11026 C 221.45669,174.10776 214.20919,166.86026 205.20669,166.86026 L 32.706694,166.86026 z "
         style="opacity:0.047872309;fill-rule:evenodd;stroke-width:3.0000000pt"
         id="path1194" />
      <path
         d="M 32.706694,168.11026 C 24.396694,168.11026 17.706694,174.80026 17.706694,183.11026 C 17.706694,191.42026 24.396694,198.11026 32.706694,198.11026 L 205.20669,198.11026 C 213.51669,198.11026 220.20669,191.42026 220.20669,183.11026 C 220.20669,174.80026 213.51669,168.11026 205.20669,168.11026 L 32.706694,168.11026 z "
         style="opacity:0.047872309;fill-rule:evenodd;stroke-width:3.0000000pt"
         id="path1193" />
      <path
         d="M 32.707764,169.36026 C 25.090264,169.36026 18.957764,175.49276 18.957764,183.11026 C 18.957764,190.72776 25.090264,196.86026 32.707764,196.86026 L 205.20618,196.86026 C 212.82368,196.86026 218.95618,190.72776 218.95618,183.11026 C 218.95618,175.49276 212.82368,169.36026 205.20618,169.36026 L 32.707764,169.36026 z "
         style="opacity:0.047872309;fill-rule:evenodd;stroke-width:3.0000000pt"
         id="path1192" />
      <path
         d="M 32.706694,170.61026 C 25.781694,170.61026 20.206694,176.18526 20.206694,183.11026 C 20.206694,190.03526 25.781694,195.61026 32.706694,195.61026 L 205.20669,195.61026 C 212.13169,195.61026 217.70669,190.03526 217.70669,183.11026 C 217.70669,176.18526 212.13169,170.61026 205.20669,170.61026 L 32.706694,170.61026 z "
         style="opacity:0.047872309;fill-rule:evenodd;stroke-width:3.0000000pt"
         id="path1191" />
      <path
         d="M 32.706694,171.86026 C 26.474194,171.86026 21.456694,176.87776 21.456694,183.11026 C 21.456694,189.34276 26.474194,194.36026 32.706694,194.36026 L 205.20669,194.36026 C 211.43919,194.36026 216.45669,189.34276 216.45669,183.11026 C 216.45669,176.87776 211.43919,171.86026 205.20669,171.86026 L 32.706694,171.86026 z "
         style="opacity:0.047872309;fill-rule:evenodd;stroke-width:3.0000000pt"
         id="path1190" />
      <path
         d="M 32.706694,173.11026 C 27.166694,173.11026 22.706694,177.57026 22.706694,183.11026 C 22.706694,188.65026 27.166694,193.11026 32.706694,193.11026 L 205.20669,193.11026 C 210.74669,193.11026 215.20669,188.65026 215.20669,183.11026 C 215.20669,177.57026 210.74669,173.11026 205.20669,173.11026 L 32.706694,173.11026 z "
         style="opacity:0.047872309;fill-rule:evenodd;stroke-width:3.0000000pt"
         id="path1189" />
    </g>
    <path
       d="M 5.4186638,5.4561100 C 4.9536872,5.4561100 4.6035534,5.6913368 4.6035534,6.1828330 L 4.6035534,39.203794 C 4.6035534,39.930940 5.0906584,40.415354 5.7526104,40.415354 L 43.489564,40.415354 C 44.155366,40.415354 44.419872,39.962588 44.419872,39.328794 L 44.419872,10.425912 C 44.419872,9.8829469 44.019585,9.5893540 43.520814,9.5893540 L 24.411490,9.5893540 C 24.074477,9.5893540 23.714810,9.3909280 23.517009,9.1180670 L 20.914778,5.9180580 C 20.696913,5.6175190 20.272703,5.4561250 19.901500,5.4561250 L 5.4186638,5.4561100 z "
       style="fill:url(#linearGradient253);fill-opacity:1.0;fill-rule:evenodd;stroke:#555753;stroke-width:1.0000000;stroke-miterlimit:4.0000000;stroke-opacity:1"
       id="path895"
       sodipodi:nodetypes="ccccccccccccc" />
    <g
       id="g891"
       transform="matrix(0.186703,0.000000,0.000000,0.186703,-21.10730,57.62299)" />
    <path
       style="fill:url(#linearGradient320);fill-opacity:1.0;fill-rule:evenodd;stroke:none;stroke-width:0.25000000pt;stroke-linecap:butt;stroke-linejoin:miter;stroke-opacity:1.0000000;opacity:1.0000000;color:#000000;marker:none;marker-start:none;marker-mid:none;marker-end:none;stroke-miterlimit:4.0000000;stroke-dasharray:none;stroke-dashoffset:0;visibility:visible;display:inline;overflow:visible"
       d="M 5.0625000,7.9062500 L 5.0625000,36.156250 L 6.0312500,31.781250 L 6.2500000,9.1562500 C 6.2500000,8.4058274 6.7614657,8.0312500 7.4869586,8.0312500 L 19.093750,8.0312500 C 20.655346,8.0312500 22.108598,11.218750 24.411417,11.218750 C 30.383036,11.218750 43.749813,11.306338 43.750000,11.218750 L 43.750000,10.187500 L 24.218750,10.062500 C 22.362615,10.050621 21.088324,6.9062500 19.656250,6.9062500 L 6.2838336,6.9062500 C 5.4685048,6.9062500 5.0625000,7.2604161 5.0625000,7.9062500 z "
       id="path315"
       sodipodi:nodetypes="ccccczscczzcc" />
    <path
       style="color:#000000;fill:url(#linearGradient4740);fill-opacity:1.0;fill-rule:evenodd;stroke:#555753;stroke-width:0.99999988;stroke-linecap:butt;stroke-linejoin:round;marker:none;marker-start:none;marker-mid:none;marker-end:none;stroke-miterlimit:4;stroke-dashoffset:0;stroke-opacity:1;visibility:visible;display:inline;overflow:visible"
       d="M 7.6864537,16.296282 L 15.619799,16.296282 C 16.361533,16.296282 16.987769,15.915471 17.306966,15.414278 C 17.443709,15.199569 18.574948,13.28855 18.66464,13.158052 C 18.963427,12.723328 19.437557,12.399136 20.006622,12.399136 L 43.048855,12.399136 C 43.851692,12.399136 44.498018,13.042925 44.498018,13.84261 L 44.498018,38.915459 C 44.498018,39.715143 43.851692,40.358932 43.048855,40.358932 L 6.1279084,40.358932 C 5.3250725,40.358932 4.6787461,39.715143 4.6787461,38.915459 L 4.6787461,19.481904 C 4.6787461,17.507539 5.8190623,16.296282 7.6864537,16.296282 z "
       id="rect337"
       sodipodi:nodetypes="czzszcccccccc"
       inkscape:r_cx="true"
       inkscape:r_cy="true" />
    <path
       style="fill:url(#linearGradient355);fill-opacity:1.0;fill-rule:evenodd;stroke:none;stroke-width:0.25000000pt;stroke-linecap:butt;stroke-linejoin:miter;stroke-miterlimit:4.0000000;stroke-opacity:1.0000000;opacity:1.0000000;color:#000000;marker:none;marker-start:none;marker-mid:none;marker-end:none;stroke-dasharray:none;stroke-dashoffset:0;visibility:visible;display:inline;overflow:visible"
       d="M 20.500000,13.750000 C 19.853581,13.750000 19.490960,14.031698 19.125000,14.500000 C 18.759040,14.968302 18.343502,15.671815 18.062500,16.218750 C 17.781498,16.765685 17.493409,17.272919 17.218750,17.625000 C 16.944091,17.977081 16.729167,18.125000 16.500000,18.125000 C 15.250000,18.125000 7.3428301,18.125000 6.8428301,18.125000 C 6.3844968,18.125000 6.0073599,18.355519 5.6865801,18.656250 C 5.3658003,18.956981 5.0928301,19.362500 5.0928301,19.875000 C 5.0928302,20.499998 5.0928301,39.250000 5.0928301,39.250000 L 6.0928301,39.250000 C 6.0928301,39.250000 6.0928302,20.500002 6.0928301,19.875000 C 6.0928301,19.762500 6.1948599,19.543019 6.3740801,19.375000 C 6.5533003,19.206981 6.8011635,19.125000 6.8428301,19.125000 C 7.3428301,19.125000 15.250000,19.125000 16.500000,19.125000 C 17.145833,19.125000 17.634731,18.718232 18.000000,18.250000 C 18.365269,17.781768 18.656559,17.203065 18.937500,16.656250 C 19.218441,16.109435 19.568667,15.477011 19.843750,15.125000 C 20.118833,14.772989 20.269189,14.750000 20.500000,14.750000 C 21.716667,14.750000 43.750000,14.875000 43.750000,14.875000 L 43.750000,13.875000 C 43.750000,13.875000 21.783333,13.750000 20.500000,13.750000 z "
       id="path349"
       sodipodi:nodetypes="ccccccccccccccccccccc" />
    <rect
       style="color:#000000;fill:#fffffd;fill-opacity:1.0000000;fill-rule:evenodd;stroke:none;stroke-width:0.25000000pt;stroke-linecap:butt;stroke-linejoin:miter;stroke-miterlimit:4.0000000;stroke-dashoffset:0.0000000;stroke-opacity:1.0000000;marker:none;marker-start:none;marker-mid:none;marker-end:none;visibility:visible;display:inline;overflow:visible"
       id="rect459"
       width="1.2500000"
       height="1.2500000"
       x="5.5290294"
       y="7.3598347"
       rx="1.4434735"
       ry="1.2500000" />
    <rect
       style="opacity:0.28571429;color:#000000;fill:none;fill-opacity:1;fill-rule:evenodd;stroke:url(#linearGradient2345);stroke-width:1.00000024;stroke-linecap:square;stroke-linejoin:round;marker:none;marker-start:none;marker-mid:none;marker-end:none;stroke-miterlimit:4;stroke-dasharray:none;stroke-dashoffset:0;stroke-opacity:1;visibility:visible;display:inline;overflow:visible"
       id="rect2337"
       width="37.95816"
       height="23.625"
       x="5.5381637"
       y="15.75"
       inkscape:r_cx="true"
       inkscape:r_cy="true"
       rx="0.43750021"
       ry="0.4375" />
    <path
       sodipodi:type="arc"
       style="opacity:0.3;color:black;fill:url(#radialGradient4695);fill-opacity:1;fill-rule:nonzero;stroke:none;stroke-width:1;stroke-linecap:square;stroke-linejoin:miter;marker:none;marker-start:none;marker-mid:none;marker-end:none;stroke-miterlimit:4;stroke-dasharray:none;stroke-dashoffset:1.5;stroke-opacity:1;visibility:visible;display:inline;overflow:visible"
       id="path4679"
       sodipodi:cx="33.23402"
       sodipodi:cy="42.16637"
       sodipodi:rx="10.871767"
       sodipodi:ry="2.3864853"
       d="M 44.105787 42.16637 A 10.871767 2.3864853 0 1 1  22.362253,42.16637 A 10.871767 2.3864853 0 1 1  44.105787 42.16637 z"
       transform="matrix(1.142814,0,0,0.786221,-2.680874,11.72165)" />
    <g
       id="g4667"
       transform="translate(0,-1)">
      <path
         transform="matrix(1.048953,0,0,1.048953,-12.84437,6.71979)"
         d="M 47.994873 31.250408 A 6.6733203 6.6733203 0 1 1  34.648232,31.250408 A 6.6733203 6.6733203 0 1 1  47.994873 31.250408 z"
         sodipodi:ry="6.6733203"
         sodipodi:rx="6.6733203"
         sodipodi:cy="31.250408"
         sodipodi:cx="41.321552"
         id="path4595"
         style="opacity:1;color:black;fill:url(#linearGradient4633);fill-opacity:1;fill-rule:nonzero;stroke:#4e9a06;stroke-width:0.95333147;stroke-linecap:square;stroke-linejoin:miter;marker:none;marker-start:none;marker-mid:none;marker-end:none;stroke-miterlimit:4;stroke-dasharray:none;stroke-dashoffset:1.5;stroke-opacity:1;visibility:visible;display:inline;overflow:visible"
         sodipodi:type="arc" />
      <path
         transform="matrix(0.899103,0,0,0.899103,-6.652345,11.40266)"
         d="M 47.994873 31.250408 A 6.6733203 6.6733203 0 1 1  34.648232,31.250408 A 6.6733203 6.6733203 0 1 1  47.994873 31.250408 z"
         sodipodi:ry="6.6733203"
         sodipodi:rx="6.6733203"
         sodipodi:cy="31.250408"
         sodipodi:cx="41.321552"
         id="path4609"
         style="opacity:0.8;color:black;fill:none;fill-opacity:1;fill-rule:nonzero;stroke:url(#linearGradient4657);stroke-width:1.11221921;stroke-linecap:square;stroke-linejoin:miter;marker:none;marker-start:none;marker-mid:none;marker-end:none;stroke-miterlimit:4;stroke-dasharray:none;stroke-dashoffset:1.5;stroke-opacity:1;visibility:visible;display:inline;overflow:visible"
         sodipodi:type="arc" />
    </g>
    <g
       id="g4663"
       transform="translate(0,-2)">
      <path
         transform="matrix(1.048953,0,0,1.048953,-2.844366,3.71979)"
         d="M 47.994873 31.250408 A 6.6733203 6.6733203 0 1 1  34.648232,31.250408 A 6.6733203 6.6733203 0 1 1  47.994873 31.250408 z"
         sodipodi:ry="6.6733203"
         sodipodi:rx="6.6733203"
         sodipodi:cy="31.250408"
         sodipodi:cx="41.321552"
         id="path1927"
         style="opacity:1;color:black;fill:url(#linearGradient4675);fill-opacity:1;fill-rule:nonzero;stroke:#204a87;stroke-width:0.95333147;stroke-linecap:square;stroke-linejoin:miter;marker:none;marker-start:none;marker-mid:none;marker-end:none;stroke-miterlimit:4;stroke-dasharray:none;stroke-dashoffset:1.5;stroke-opacity:1;visibility:visible;display:inline;overflow:visible"
         sodipodi:type="arc" />
      <path
         transform="matrix(0.899103,0,0,0.899103,3.347655,8.402657)"
         d="M 47.994873 31.250408 A 6.6733203 6.6733203 0 1 1  34.648232,31.250408 A 6.6733203 6.6733203 0 1 1  47.994873 31.250408 z"
         sodipodi:ry="6.6733203"
         sodipodi:rx="6.6733203"
         sodipodi:cy="31.250408"
         sodipodi:cx="41.321552"
         id="path4607"
         style="opacity:0.6;color:black;fill:none;fill-opacity:1;fill-rule:nonzero;stroke:url(#linearGradient4677);stroke-width:1.11221921;stroke-linecap:square;stroke-linejoin:miter;marker:none;marker-start:none;marker-mid:none;marker-end:none;stroke-miterlimit:4;stroke-dasharray:none;stroke-dashoffset:1.5;stroke-opacity:1;visibility:visible;display:inline;overflow:visible"
         sodipodi:type="arc" />
    </g>
    <g
       id="g4659"
       transform="translate(-1,-2)">
      <path
         transform="matrix(1.048953,0,0,1.048953,-10.84437,-3.28021)"
         d="M 47.994873 31.250408 A 6.6733203 6.6733203 0 1 1  34.648232,31.250408 A 6.6733203 6.6733203 0 1 1  47.994873 31.250408 z"
         sodipodi:ry="6.6733203"
         sodipodi:rx="6.6733203"
         sodipodi:cy="31.250408"
         sodipodi:cx="41.321552"
         id="path4593"
         style="opacity:1;color:black;fill:url(#linearGradient4671);fill-opacity:1;fill-rule:nonzero;stroke:#a40000;stroke-width:0.95333147;stroke-linecap:square;stroke-linejoin:miter;marker:none;marker-start:none;marker-mid:none;marker-end:none;stroke-miterlimit:4;stroke-dasharray:none;stroke-dashoffset:1.5;stroke-opacity:1;visibility:visible;display:inline;overflow:visible"
         sodipodi:type="arc" />
      <path
         transform="matrix(0.899103,0,0,0.899103,-4.652345,1.402657)"
         d="M 47.994873 31.250408 A 6.6733203 6.6733203 0 1 1  34.648232,31.250408 A 6.6733203 6.6733203 0 1 1  47.994873 31.250408 z"
         sodipodi:ry="6.6733203"
         sodipodi:rx="6.6733203"
         sodipodi:cy="31.250408"
         sodipodi:cx="41.321552"
         id="path4605"
         style="opacity:0.7;color:black;fill:none;fill-opacity:1;fill-rule:nonzero;stroke:url(#linearGradient4673);stroke-width:1.11221921;stroke-linecap:square;stroke-linejoin:miter;marker:none;marker-start:none;marker-mid:none;marker-end:none;stroke-miterlimit:4;stroke-dasharray:none;stroke-dashoffset:1.5;stroke-opacity:1;visibility:visible;display:inline;overflow:visible"
         sodipodi:type="arc" />
    </g>
  </g>
</svg>
