<svg height="24" viewBox="0 0 24 24" width="24" xmlns="http://www.w3.org/2000/svg"><g transform="translate(0 -24)"><circle cx="12" cy="36.000001" fill="#3465a4" r="11.731857" stroke="#204a87" stroke-width=".536286"/><ellipse cx="11.9992335" cy="36.0013915" fill="none" opacity=".960227" rx="10.6900005" ry="10.6886655" stroke="#fff" stroke-width="1.480929"/><g fill="#fff"><path d="m10.256187 39-.05006-.669415c-.05063-1.313682.351-2.652507 1.479094-4.017616.802406-.978262 1.453781-1.827958 1.453781-2.70365 0-.875408-.576281-1.493393-1.805062-1.519394-.851907 0-1.829813.283424-2.5067817.74684l-.8271583-2.78079c.90225-.541131 2.381344-1.055975 4.186406-1.055975 3.284157 0 4.813594 1.879956 4.813594 3.991333 0 1.982525-1.203468 3.244781-2.156344 4.35161-.902531 1.029976-1.303593 2.034522-1.278562 3.193354v.463418h-3.308907z" stroke-width=".28347" visibility="hidden"/><circle cx="12" cy="42" r="2" stroke-width=".25" visibility="hidden"/></g></g></svg>