<svg enable-background="new 0 0 139 139" height="24" viewBox="0 0 26.0625 26.0625" width="24" xmlns="http://www.w3.org/2000/svg"><g transform="matrix(1.0845755 0 0 1.0859678 .016204 8.68702)"><path d="m.000008-7.999335h23.999331v23.999331h-23.999331z" fill="none" stroke-width=".299992"/><path d="m23.285155 13.001741-9.933244-19.5734978c-.285517-.5437038-.802143-.8457691-1.377504-.8457691-.57536 0-1.094642.3624808-1.384486.9061845l-9.85927261 19.5734974c-.23208287.483288-.23472746 1.147823.0510109 1.631123.28576041.4833.74507961.724938 1.32045121.724938h19.7925165c.575361 0 1.094399-.302054 1.326471-.785354.289611-.4833.292024-1.087419.06407-1.631122z" fill="#f57900" stroke="#f57900" stroke-width="1.134717"/><path d="m21.814395 12.231872-8.940108-17.6502606c-.38073-.7625991-.319916-1.0072725-.898552-1.0072725-.497683 0-.560685.3563402-.920326 1.0761746l-8.8408773 17.6359905c-.5133663.993087-.81511 1.356397-.5679993 1.793494.2470875.437096.6137082.308863 1.7859707.337368h17.3762039c1.091366.01428 1.337204.03076 1.538004-.406259.250572-.437109-.05336-.888317-.532316-1.779235z" fill="#f57900" opacity=".99" stroke="#fff" stroke-width="1.148627"/><path d="m23.891356 40.069328c-1.728839 0-3.058716-1.702516-3.058716-3.569131 0-2.010201 1.196889-3.569131 3.058716-3.569131s2.925728 1.55893 3.058716 3.569131c0 1.866615-1.196889 3.569131-3.058716 3.569131zm-.973963-10.673081-1.68579-14.310837h5.319506l-1.68579 16.669612z" fill="#121312" transform="matrix(.65469027 0 0 .56034483 -3.64131 -9.452562)"/></g></svg>