<svg height="24" viewBox="0 0 24 24" width="24" xmlns="http://www.w3.org/2000/svg" xmlns:xlink="http://www.w3.org/1999/xlink"><linearGradient id="a" gradientUnits="userSpaceOnUse" x1="18.9951" x2="30.169901" y1="37.226601" y2="37.226601"><stop offset=".005618" stop-color="#a3a349"/><stop offset=".02078677" stop-color="#acac54"/><stop offset=".06600059" stop-color="#c1c172"/><stop offset=".1148" stop-color="#d4d68e"/><stop offset=".1677" stop-color="#e2e4a6"/><stop offset=".2265" stop-color="#edf0b8"/><stop offset=".2963" stop-color="#f3f6c3"/><stop offset=".4045" stop-color="#f5f8c7"/><stop offset=".5239" stop-color="#eef0be"/><stop offset=".6666" stop-color="#dbdda9"/><stop offset=".8211" stop-color="#bebd88"/><stop offset=".9832" stop-color="#989564"/><stop offset="1" stop-color="#949160"/></linearGradient><linearGradient id="b"><stop offset="0" stop-color="#929470"/><stop offset=".2647059" stop-color="#fcffc1"/><stop offset=".63235295" stop-color="#f3f5ba"/><stop offset="1" stop-color="#929470"/></linearGradient><linearGradient id="c"><stop offset="0" stop-color="#fff"/><stop offset=".41176471" stop-color="#fff" stop-opacity=".441176"/><stop offset="1" stop-opacity=".480392"/></linearGradient><linearGradient id="d" gradientTransform="scale(1.02645 .974232)" gradientUnits="userSpaceOnUse" x1="-22.87417" x2="-4.390832" xlink:href="#a" y1="38.675991" y2="38.675991"/><linearGradient id="e" gradientTransform="scale(1.02645 .974232)" gradientUnits="userSpaceOnUse" x1="-10.480865" x2="-23.851389" xlink:href="#b" y1="39.033951" y2="39.142845"/><radialGradient id="f" cx="24.700001" cy="16.550991" gradientTransform="matrix(1 0 0 1.0986567 0 -1.632866)" gradientUnits="userSpaceOnUse" r="14.707494"><stop offset="0" stop-color="#d3d7cf"/><stop offset="1" stop-color="#d3d7cf" stop-opacity="0"/></radialGradient><linearGradient id="g" gradientUnits="userSpaceOnUse" x1="21.93282438713" x2="27.4312742695" y1="40.95936859413" y2="40.95936859413"><stop offset=".005618" stop-color="#686868"/><stop offset=".03012137" stop-color="#777"/><stop offset=".08366583" stop-color="#929292"/><stop offset=".1422" stop-color="#a7a7a7"/><stop offset=".2074" stop-color="#b6b6b6"/><stop offset=".2846" stop-color="#bebebe"/><stop offset=".4045" stop-color="#c1c1c1"/><stop offset=".4962" stop-color="#bcbcbc"/><stop offset=".6057" stop-color="#adadad"/><stop offset=".7245" stop-color="#959595"/><stop offset=".8497" stop-color="#747474"/><stop offset=".9789" stop-color="#494949"/><stop offset="1" stop-color="#414141"/></linearGradient><linearGradient id="h" gradientTransform="scale(1.002656 .997352)" gradientUnits="userSpaceOnUse" x1="24.613028" x2="24.613028" y1="31.146202" y2="26.739624"><stop offset="0" stop-color="#4c4c28"/><stop offset="1" stop-color="#4c4c28" stop-opacity="0"/></linearGradient><linearGradient id="i" gradientTransform="matrix(.566621 .02988977 -.118557 .656541 36.18544 20.08311)" gradientUnits="userSpaceOnUse" x1="-22.87417" x2="-4.390832" xlink:href="#a" y1="38.675991" y2="38.675991"/><linearGradient id="j" gradientTransform="matrix(.566621 .02988977 -.118557 .656541 36.18544 20.08311)" gradientUnits="userSpaceOnUse" x1="-10.480865" x2="-23.851389" xlink:href="#b" y1="39.033951" y2="39.142845"/><linearGradient id="k" gradientTransform="matrix(.618682 -.132027 .06262726 .741184 31.12021 8.30041)" gradientUnits="userSpaceOnUse" x1="-22.87417" x2="-4.390832" xlink:href="#a" y1="38.675991" y2="38.675991"/><linearGradient id="l" gradientTransform="matrix(.618682 -.132027 .06262726 .741184 31.12021 8.30041)" gradientUnits="userSpaceOnUse" x1="-10.480865" x2="-23.851389" xlink:href="#b" y1="39.033951" y2="39.142845"/><linearGradient id="m" gradientTransform="matrix(1.60344 0 0 .549396 .614167 .024498)" gradientUnits="userSpaceOnUse" x1="17.879995" x2="11.906206" y1="55.362793" y2="54.863026"><stop offset="0" stop-color="#d6d7a5"/><stop offset="1" stop-color="#8e8f6d"/></linearGradient><linearGradient id="n" gradientTransform="matrix(-.905728 -.04386156 .18951 -.963437 .614167 .024498)" gradientUnits="userSpaceOnUse" x1="-29.007195" x2="-37.641232" y1="-29.799353" y2="-29.598314"><stop offset="0" stop-color="#929470"/><stop offset=".2647059" stop-color="#60614a"/><stop offset=".63235295" stop-color="#f3f5ba"/><stop offset="1" stop-color="#929470"/></linearGradient><linearGradient id="o" gradientTransform="matrix(.894129 0 0 .98523 1.515981 .024498)" gradientUnits="userSpaceOnUse" x1="37.940434" x2="-5.251716" y1="16.651863" y2="3.855732"><stop offset="0" stop-color="#f1f3ff"/><stop offset="1" stop-color="#f1f3ff" stop-opacity="0"/></linearGradient><linearGradient id="p" gradientTransform="matrix(-.6293 0 0 1.589068 50.68808 3.804378)" gradientUnits="userSpaceOnUse" x1="30.620375" x2="32.16608" xlink:href="#c" y1="10.313651" y2="18.162935"/><linearGradient id="q" gradientTransform="matrix(.6293 0 0 1.589068 1.411612 3.929378)" gradientUnits="userSpaceOnUse" x1="30.620375" x2="32.16608" xlink:href="#c" y1="10.313651" y2="18.162935"/><linearGradient id="r" gradientTransform="matrix(1.985083 0 0 .503757 1.786612 4.554378)" gradientUnits="userSpaceOnUse" x1="14.637301" x2="9.364821" y1="31.504122" y2="32.25098"><stop offset="0" stop-color="#a3a3a3"/><stop offset="1" stop-color="#b5b5b5" stop-opacity="0"/></linearGradient><g transform="translate(0 8)"><path d="m0-8h24v24h-24z" opacity="0"/><path d="m21.9 38.9v1.5c0 1.4 1.3 2.7 2.8 2.7s2.8-1.3 2.8-2.7v-1.5z" fill="url(#g)" stroke="#565656" transform="matrix(.61311187196 0 0 .52455247706 -3.14248163293 -6.87041360025)"/><g transform="matrix(.5636730192 0 0 .55592122917 -1.9214154869 -8.57097954759)"><path d="m24.5 27.7c-3.3 0-7 .9-5 2.8-.5.2-1.2.6-1.1 1.7 0 .5.6.9 1.4 1.1-.9.7-1.5 1.3-1.4 2 0 .5.6.9 1.4 1.1-.9.7-1.5 1.4-1.4 2 0 .9 2.1 2 6.4 1.8 3.2 0 6-.6 6.2-1.8.1-.5-.3-.9-.9-1.3.4-.5.8-1 .7-1.4 0-.5-.6-.9-1.4-1.2.9-.6 1.5-1.3 1.4-1.9 0-.6-.6-.9-1.4-1.1.9-.7 1.5-1.4 1.4-2 0-.7-3.2-1.8-6.3-1.8z" fill="#aeae57" stroke="url(#h)" stroke-width="2.017529"/><path d="m30.9 38.3c-.2 1.2-3.3 1.9-8.3 1.7-3.1-.2-3.3-1.1-3.1-2.3s3-2 6.1-1.9c3.2.2 5.5 1.3 5.3 2.5z" fill="url(#i)" stroke="url(#j)" stroke-width=".089063"/><path cx="-13.87697" cy="27.228739" d="m-3.5 27.2a10.35 3.3160194 0 1 1 -20.7 0 10.35 3.3160194 0 1 1 20.7 0z" fill="url(#d)" rx="10.341436" ry="3.270369" stroke="url(#e)" stroke-width=".130352" transform="matrix(.60274 -.128625 .06428372 .760788 31.12021 14.49141)"/><path cx="-13.87697" cy="27.228739" d="m-3.5 27.2a10.35 3.3160194 0 1 1 -20.7 0 10.35 3.3160194 0 1 1 20.7 0z" fill="url(#d)" rx="10.341436" ry="3.270369" stroke="url(#e)" stroke-width=".130352" transform="matrix(.60274 -.128625 .06428372 .760788 31.12021 11.39591)" type="arc"/><path d="m30.7 29.6c0 1.4-2.5 3-6 3.7-3.4.7-6.3.2-6.4-1.2-.1-1.3 2.2-2.9 5.7-3.1 3.4-.2 6.7-.1 6.7.6z" fill="url(#k)" stroke="url(#l)" stroke-width=".089063"/><g fill-opacity=".233918"><path d="m19.3 33.4c3.4.5 7-.1 9.9-1.9.8-.6.9-1.2 1.3-1.6-1.4 1.1-5 4.1-11.2 3.5z"/><path d="m19.5 39.5c3.4.5 6.9 0 9.8-1.9.9-.5 1-1.1 1.3-1.6-1.4 1.1-5 4.2-11.1 3.5z"/><path d="m19.5 36.4c3.4.5 7 0 9.9-1.9.8-.5.9-1.1 1.3-1.6-1.5 1.1-5.1 4.2-11.2 3.5z"/></g></g><path d="m18.9 29.6c0-.8 1.5-1.7 5.5-1.7 3.7.1 6.1.9 6.1 2.2 0 1.2-3.2 2.1-6.6 1.9-3.5-.2-5-1.1-5-2.4z" fill="url(#m)" stroke="url(#n)" stroke-width=".090833" transform="matrix(.54393509152 0 0 .55385825379 -1.43519705028 -8.21738041889)"/><path d="m24.7.9c-7.8 0-14.2 5.9-14.2 13.3 0 7.5 5.7 8.4 5.7 11.2 0 3.2 3.4 6.9 8.9 6.8 5.9-.2 8.4-3.4 8.4-6.8 0-3 5.4-3.1 5.4-11.2 0-7.4-6.4-13.3-14.2-13.3z" fill="url(#f)" stroke="#616471" stroke-width="1.014989" transform="matrix(.54393509152 0 0 .55385825379 -1.43519705028 -8.21738041889)"/><path d="m24.7 1.9c-7.3 0-13.2 5.6-13.2 12.5 0 7 5.3 7.8 5.3 10.4 0 3 3.2 6.4 8.3 6.3 5.5-.1 7.8-3.1 7.8-6.3 0-2.8 5-2.9 5-10.4 0-6.9-5.9-12.5-13.2-12.5z" fill="none" stroke="url(#o)" stroke-width=".946857" transform="matrix(.54393509152 0 0 .55385825379 -1.43519705028 -8.21738041889)"/><g transform="matrix(.53428155 0 0 .51864667148 -1.92759149666 -8.4345445278)"><path d="m31.9 19.2c.4.1.6.4.5.8l-3.9 11.5c-.1.3-.4.5-.7.4s-.5-.4-.4-.7l3.8-11.6c.1-.3.4-.5.7-.4z" fill="url(#p)"/><path d="m20.2 19.3c-.4.2-.6.5-.5.8l3.9 11.5c.1.4.4.6.7.5s.5-.5.4-.8l-3.8-11.5c-.1-.3-.4-.6-.7-.5z" fill="url(#q)"/><path d="m20.3 19.3c-.3 0-.5.2-.5.5-.1.2.1.4.3.6 0 0 1.8 1 4.2 1.6 2.4.5 5.5.6 7.8-1.7.2-.1.3-.4.2-.6 0-.2-.2-.4-.4-.4-.2-.1-.4 0-.6.2-1.9 1.9-4.5 1.9-6.7 1.4s-3.9-1.5-3.9-1.5c-.2-.1-.3-.1-.4-.1z" fill="#fff" stroke="url(#r)" stroke-width=".214545"/></g></g></svg>