<svg height="24" viewBox="0 0 24 24" width="24" xmlns="http://www.w3.org/2000/svg"><g transform="translate(0 -1028.3622)"><rect fill="#888a85" height="24" rx="1.5" transform="matrix(0 -1 -1 0 0 0)" width="12" x="-1046.3622" y="-24"/><g transform="scale(1 -1)"><path d="m4-1034.3622h16v6h-16z" fill="#888a85"/><path d="m4-1052.3622h16v10h-16z" fill="#888a85"/><path d="m5-1051.3622h14v7h-14z" fill="#fff"/><path d="m5-1034.3622h14v5h-14z" fill="#fff"/></g><rect height="22" rx="1.25" ry="1.375" transform="matrix(0 -1 -1 0 0 0)" width="10" x="-1045.3622" y="-23"/><path d="m20 1037.3622h1v1h-1z" fill="#f57900" opacity=".91"/><path d="m7 1046.3622h1v1h-1z" opacity=".91"/><path d="m8 1047.3622h1v1h-1z" opacity=".91"/><path d="m7 1048.3622h1v1h-1z" opacity=".91"/><path d="m8 1049.3622h1v1h-1z" opacity=".91"/><path d="m9 1046.3622h1v1h-1z" opacity=".91"/><path d="m9 1048.3622h1v1h-1z" opacity=".91"/><path d="m10 1049.3622h1v1h-1z" opacity=".91"/><path d="m10 1047.3622h1v1h-1z" opacity=".91"/><path d="m17 1037.3622h1v1h-1z" fill="#73d216" opacity=".91"/><path d="m16 1038.3622h1v1h-1z" fill="#73d216" opacity=".91"/><path d="m19 1038.3622h1v1h-1z" fill="#f57900" opacity=".91"/><path d="m17 1038.3622h1v1h-1z" fill="#8ae234" opacity=".91"/><path d="m20 1038.3622h1v1h-1z" fill="#fcaf3e" opacity=".91"/></g></svg>