<svg height="24" viewBox="0 0 24 24" width="24" xmlns="http://www.w3.org/2000/svg"><g transform="translate(0 8)"><path d="m.207753.207753h15.584494v15.584494h-15.584494z" fill="#fff" opacity="0" transform="matrix(1.5386848 0 0 1.5399922 -.29929 -8.319937)"/><path d="m1.4773717-5.5226278h20.0452563v20.0452558h-20.0452563z" fill="#ef2929" stroke="#fff" stroke-width=".954743"/><path d="m.49996147-6.500039h22.00007653v22.000078h-22.00007653z" fill="none" stroke="#000" stroke-width=".999923"/><g fill="#d3d7cf"><path d="m1-7h1v1h-1z"/><path d="m3-7h1v1h-1z"/><path d="m5-7h1v1h-1z"/><path d="m7-7h1v1h-1z"/><path d="m9-7h1v1h-1z"/><path d="m11-7h1v1h-1z"/><path d="m13-7h1v1h-1z"/><path d="m15-7h1v1h-1z"/><path d="m17-7h1v1h-1z"/><path d="m19-7h1v1h-1z"/><path d="m21-7h1v1h-1z"/><path d="m1 15h1v1h-1z"/><path d="m3 15h1v1h-1z"/><path d="m5 15h1v1h-1z"/><path d="m7 15h1v1h-1z"/><path d="m9 15h1v1h-1z"/><path d="m11 15h1v1h-1z"/><path d="m13 15h1v1h-1z"/><path d="m15 15h1v1h-1z"/><path d="m17 15h1v1h-1z"/><path d="m19 15h1v1h-1z"/><path d="m21 15h1v1h-1z"/><g transform="matrix(0 1 -1 0 -6 -7)"><path d="m1-7h1v1h-1z"/><path d="m3-7h1v1h-1z"/><path d="m5-7h1v1h-1z"/><path d="m7-7h1v1h-1z"/><path d="m9-7h1v1h-1z"/><path d="m11-7h1v1h-1z"/><path d="m13-7h1v1h-1z"/><path d="m15-7h1v1h-1z"/><path d="m17-7h1v1h-1z"/><path d="m19-7h1v1h-1z"/><path d="m21-7h1v1h-1z"/></g><g transform="matrix(0 1 -1 0 16 -7)"><path d="m1-7h1v1h-1z"/><path d="m3-7h1v1h-1z"/><path d="m5-7h1v1h-1z"/><path d="m7-7h1v1h-1z"/><path d="m9-7h1v1h-1z"/><path d="m11-7h1v1h-1z"/><path d="m13-7h1v1h-1z"/><path d="m15-7h1v1h-1z"/><path d="m17-7h1v1h-1z"/><path d="m19-7h1v1h-1z"/><path d="m21-7h1v1h-1z"/></g></g></g></svg>