<?xml version="1.0" encoding="UTF-8" standalone="no"?>
<svg
   xmlns:dc="http://purl.org/dc/elements/1.1/"
   xmlns:cc="http://creativecommons.org/ns#"
   xmlns:rdf="http://www.w3.org/1999/02/22-rdf-syntax-ns#"
   xmlns:svg="http://www.w3.org/2000/svg"
   xmlns="http://www.w3.org/2000/svg"
   xmlns:sodipodi="http://sodipodi.sourceforge.net/DTD/sodipodi-0.dtd"
   xmlns:inkscape="http://www.inkscape.org/namespaces/inkscape"
   version="1.1"
   id="svg2"
   viewBox="0 0 384.00005 384.00064"
   inkscape:version="0.91+devel r"
   sodipodi:docname="gimp-undo-history-24.svg"
   height="24"
   width="24">
  <sodipodi:namedview
     pagecolor="#ffffff"
     bordercolor="#666666"
     borderopacity="1"
     objecttolerance="10"
     gridtolerance="10"
     guidetolerance="10"
     inkscape:pageopacity="0"
     inkscape:pageshadow="2"
     inkscape:window-width="1920"
     inkscape:window-height="1016"
     id="namedview1711"
     showgrid="true"
     inkscape:zoom="29.49995"
     inkscape:cx="7.8582123"
     inkscape:cy="12.745784"
     inkscape:window-x="0"
     inkscape:window-y="27"
     inkscape:window-maximized="1"
     inkscape:current-layer="svg2"
     showguides="true"
     units="px">
    <inkscape:grid
       type="xygrid"
       id="grid4251" />
  </sodipodi:namedview>
  <metadata
     id="metadata90">
    <rdf:RDF>
      <cc:Work>
        <dc:format>image/svg+xml</dc:format>
        <dc:type
           rdf:resource="http://purl.org/dc/dcmitype/StillImage" />
        <dc:title />
        <dc:contributor>
          <cc:Agent>
            <dc:title>many unknown and unnamed, Andrew Chadwick, Alexandre Prokoudine, Aryeom Han, Benoit Touchette, Jakub Steiner, Jehan, Johannes Matschke, Kevin Payne, Klaus Staedtler, Marek Dvoroznak, Michael Natterer</dc:title>
          </cc:Agent>
        </dc:contributor>
        <dc:description>Enhanced, extended tango-art-libre for GIMP</dc:description>
      </cc:Work>
    </rdf:RDF>
  </metadata>
  <defs
     id="defs7386" />
  <path
     style="opacity:0.5;fill:#edd400;fill-opacity:1;stroke:#000000;stroke-width:5.39151859;stroke-miterlimit:4;stroke-dasharray:none;stroke-opacity:1"
     d="M 186.43649,6.50195 99.827553,92.926434 186.43649,178.34401 c 0.0796,-14.23439 0,-21.47968 0.0847,-63.9793 l 119.08721,-0.46138 c 18.08932,-0.073 32.39375,14.17327 32.39375,32.22039 0,18.04726 -14.28399,32.22038 -32.47834,32.22038 H 294.6977 v 42.96051 h 10.82613 c 41.59586,0 75.7828,-33.91575 75.7828,-75.18089 0,-41.26526 -34.16688,-75.347203 -75.86738,-75.180905 L 186.4365,71.446151 Z"
     id="path11633-6"
     inkscape:connector-curvature="0"
     sodipodi:nodetypes="cccccssccssccc" />
  <path
     style="fill:#edd400;fill-opacity:1;stroke:#000000;stroke-width:5.88007164;stroke-miterlimit:4;stroke-dasharray:none;stroke-opacity:1"
     d="m 100.42279,151.15138 -96.247436,92.50245 96.247436,91.42474 c 0.0885,-15.23544 0,-22.99025 0.0941,-68.47874 l 132.34012,-0.49374 c 20.10242,-0.0776 35.99883,15.17006 35.99883,34.48637 0,19.31646 -15.87365,34.48634 -36.09282,34.48634 h -12.03096 v 45.9818 h 12.03093 c 46.22498,0 84.2165,-36.30095 84.2165,-80.46814 0,-44.16731 -37.96923,-80.64615 -84.31048,-80.46815 l -132.24623,0.53875 z"
     id="path11633"
     inkscape:connector-curvature="0"
     sodipodi:nodetypes="cccccssccssccc" />
  <rect
     transform="scale(1,-1)"
     y="-384.00061"
     x="0.021091983"
     height="383.97238"
     width="383.978"
     id="rect35735-0-1"
     style="color:#bebebe;display:inline;overflow:visible;visibility:visible;fill:none;stroke:none;stroke-width:47.99689865;marker:none" />
</svg>
