<svg height="24" viewBox="0 0 24 24" width="24" xmlns="http://www.w3.org/2000/svg"><g transform="translate(0 -1028.3622)"><path d="m-24 1049.3622h14v2h-14z" transform="scale(-1 1)"/><path d="m5 1049.8622h-2v-19.5744h2z"/><path d="m7.738271 1045.1239h-.9345458c-.2399441 0-.49385.1259-.6717639.3029l-2.1318729 2.6046-2.1322719-2.6046c-.1778139-.177-.4316202-.3029-.6715644-.3029h-.93454569c0 .3231.00009972.6461.00009972.9693 0 .2998.083771.5352.26268201.7267 1.00275926 1.3731 2.47274136 2.746 3.47560026 4.119l3.4755005-4.119c.1784123-.1915.2626821-.4269.2626821-.7267 0-.3232 0-.6462 0-.9693z" fill="#ff9753" stroke="#ff5000" stroke-width=".523435"/><path d="m7.7377026 1034.6455h-.9344718c-.240025 0-.4937115-.1264-.6714119-.304l-2.1316049-2.6139-2.1319042 2.6139c-.1778996.1776-.4315861.304-.6715114.304h-.93457157c0-.3243.00009972-.6484.00009972-.9727 0-.3009.0837644-.5372.262761-.7294 1.00258035-1.3779 2.47244645-2.7557 3.47512645-4.1335l3.474927 4.1335c.1781988.1922.2627611.4285.2627611.7294-.0001995.3243-.0001995.6484-.0001995.9727z" fill="#ff9753" stroke="#ff5000" stroke-width=".524325"/><g transform="scale(-1 1)"><path d="m-24 1042.3622h14v2h-14z"/><path d="m-24 1035.3622h14v2h-14z"/><path d="m-24 1028.3622h14v2h-14z"/></g><path d="m.259416 1051.6216h23.481167v.481167h-23.481167z" fill="#555753" opacity="0" stroke="#555753" stroke-width=".518833"/></g></svg>