<?xml version="1.0" encoding="UTF-8" standalone="no"?>
<!-- Created with Inkscape (http://www.inkscape.org/) -->

<svg
   xmlns:dc="http://purl.org/dc/elements/1.1/"
   xmlns:cc="http://creativecommons.org/ns#"
   xmlns:rdf="http://www.w3.org/1999/02/22-rdf-syntax-ns#"
   xmlns:svg="http://www.w3.org/2000/svg"
   xmlns="http://www.w3.org/2000/svg"
   xmlns:xlink="http://www.w3.org/1999/xlink"
   xmlns:sodipodi="http://sodipodi.sourceforge.net/DTD/sodipodi-0.dtd"
   xmlns:inkscape="http://www.inkscape.org/namespaces/inkscape"
   width="24"
   height="24"
   id="svg11300"
   sodipodi:version="0.32"
   inkscape:version="0.91+devel r"
   sodipodi:docname="gimp-channel-indexed-24.svg"
   version="1.0"
   viewBox="0 0 24 24">
  <sodipodi:namedview
     inkscape:cy="15.751278"
     inkscape:cx="14.730166"
     inkscape:zoom="22.981112"
     inkscape:window-height="1016"
     inkscape:window-width="1346"
     inkscape:pageshadow="2"
     inkscape:pageopacity="0.0"
     borderopacity="0.17254902"
     bordercolor="#666"
     pagecolor="#ffffff"
     id="base"
     inkscape:showpageshadow="false"
     showborder="true"
     inkscape:window-x="50"
     inkscape:window-y="27"
     inkscape:current-layer="svg11300"
     width="16px"
     height="16px"
     showgrid="true"
     inkscape:window-maximized="0"
     inkscape:document-units="px"
     showguides="false">
    <inkscape:grid
       type="xygrid"
       id="grid4252" />
  </sodipodi:namedview>
  <defs
     id="defs3">
    <linearGradient
       id="linearGradient3233">
      <stop
         style="stop-color:#eeeeec;stop-opacity:1;"
         offset="0"
         id="stop3235" />
      <stop
         style="stop-color:#a3a398;stop-opacity:1;"
         offset="1"
         id="stop3237" />
    </linearGradient>
    <linearGradient
       id="linearGradient8089">
      <stop
         style="stop-color:black;stop-opacity:0.2783505;"
         offset="0"
         id="stop8091" />
      <stop
         style="stop-color:#a8a8a8;stop-opacity:0;"
         offset="1"
         id="stop8093" />
    </linearGradient>
    <radialGradient
       inkscape:collect="always"
       xlink:href="#linearGradient8089"
       id="radialGradient8095-9"
       cx="24.225998"
       cy="30.479609"
       fx="24.225998"
       fy="30.479609"
       r="13.354399"
       gradientTransform="matrix(1.0901943,0,0,0.46664441,-14.375801,-6.8080346)"
       gradientUnits="userSpaceOnUse" />
    <linearGradient
       gradientTransform="matrix(0.59220141,0,0,0.5681937,-2.264968,-3.295305)"
       inkscape:collect="always"
       xlink:href="#linearGradient3233"
       id="linearGradient3588-9"
       gradientUnits="userSpaceOnUse"
       x1="23.433737"
       y1="15.75864"
       x2="23.433737"
       y2="8.0476589" />
  </defs>
  <sodipodi:namedview
     stroke="#ef2929"
     fill="#eeeeec"
     pagecolor="#ffffff"
     bordercolor="#666666"
     borderopacity="0.25490196"
     inkscape:pageopacity="0.0"
     inkscape:pageshadow="2"
     inkscape:zoom="1"
     inkscape:cx="-14.198652"
     inkscape:cy="-5.1663457"
     inkscape:current-layer="layer1"
     showgrid="false"
     inkscape:grid-bbox="true"
     inkscape:document-units="px"
     inkscape:showpageshadow="false"
     inkscape:window-width="872"
     inkscape:window-height="659"
     inkscape:window-x="403"
     inkscape:window-y="296"
     id="namedview71" />
  <metadata
     id="metadata4">
    <rdf:RDF>
      <cc:Work
         rdf:about="">
        <dc:format>image/svg+xml</dc:format>
        <dc:type
           rdf:resource="http://purl.org/dc/dcmitype/StillImage" />
        <dc:creator>
          <cc:Agent>
            <dc:title />
          </cc:Agent>
        </dc:creator>
        <dc:source>http://jimmac.musichall.cz</dc:source>
        <cc:license
           rdf:resource="http://creativecommons.org/licenses/by-sa/2.0/" />
        <dc:title />
      </cc:Work>
      <cc:License
         rdf:about="http://creativecommons.org/licenses/by-sa/2.0/">
        <cc:permits
           rdf:resource="http://web.resource.org/cc/Reproduction" />
        <cc:permits
           rdf:resource="http://web.resource.org/cc/Distribution" />
        <cc:requires
           rdf:resource="http://web.resource.org/cc/Notice" />
        <cc:requires
           rdf:resource="http://web.resource.org/cc/Attribution" />
        <cc:permits
           rdf:resource="http://web.resource.org/cc/DerivativeWorks" />
        <cc:requires
           rdf:resource="http://web.resource.org/cc/ShareAlike" />
      </cc:License>
    </rdf:RDF>
  </metadata>
  <g
     id="layer1"
     inkscape:label="Layer 1"
     inkscape:groupmode="layer"
     transform="translate(0,8)" />
  <g
     id="g4278">
    <g
       transform="matrix(0.95153782,0,0,1.0416928,-8.4998014,-5.2062787)"
       id="g4006">
      <path
         inkscape:connector-curvature="0"
         sodipodi:nodetypes="csszssz"
         id="path3068"
         d="m 21.464547,5.500002 c -4.895979,0 -8.876945,1.7334382 -8.876946,3.8658299 0,0.1530151 0,14.1442051 0,14.3035631 0,2.132392 3.980966,3.865829 8.876946,3.865829 4.895981,0 9.035466,-1.733438 9.035464,-3.865829 0,-0.126218 0,-14.177345 0,-14.3035631 0,-2.1323917 -4.139483,-3.8658299 -9.035464,-3.8658299 z"
         style="color:#000000;display:block;overflow:visible;visibility:visible;opacity:1;fill:#babdb6;fill-opacity:1;fill-rule:nonzero;stroke:#767973;stroke-width:1.00422084;stroke-linecap:butt;stroke-linejoin:miter;stroke-miterlimit:10;stroke-dasharray:none;stroke-dashoffset:0;stroke-opacity:1;marker:none;marker-start:none;marker-mid:none;marker-end:none" />
      <ellipse
         ry="5.5"
         rx="12.857142"
         cy="14.071428"
         cx="24"
         style="color:#000000;display:block;overflow:visible;visibility:visible;opacity:0.23626374;fill:#d3d7cf;fill-opacity:1;fill-rule:nonzero;stroke:url(#linearGradient3594);stroke-width:1.79112864;stroke-linecap:butt;stroke-linejoin:miter;stroke-miterlimit:10;stroke-dasharray:none;stroke-dashoffset:0;stroke-opacity:1;marker:none;marker-start:none;marker-mid:none;marker-end:none"
         id="path3241"
         transform="matrix(0.61236,0,0,0.509025,6.93016,16.53765)" />
      <path
         inkscape:connector-curvature="0"
         style="color:#000000;display:block;overflow:visible;visibility:visible;opacity:0.5443038;fill:none;fill-opacity:1;fill-rule:nonzero;stroke:url(#linearGradient3592);stroke-width:1;stroke-linecap:butt;stroke-linejoin:miter;stroke-miterlimit:10;stroke-dasharray:none;stroke-dashoffset:0;stroke-opacity:1;marker:none;marker-start:none;marker-mid:none;marker-end:none"
         d="m 21.470844,6.4999985 c -4.350694,0 -7.888282,1.5424173 -7.888283,3.4398227 0,0.1361548 0,12.9194288 0,13.0612248 0,1.897408 3.537589,3.439823 7.888283,3.439823 4.350692,0 8.029144,-1.542415 8.029142,-3.439823 0,-0.112308 0,-12.948914 0,-13.0612248 0,-1.8974064 -3.67845,-3.4398227 -8.029142,-3.4398227 z"
         id="path4174"
         sodipodi:nodetypes="csszssz" />
    </g>
    <path
       style="fill:#73d216;fill-opacity:1;stroke-width:0.15787189"
       d="m 10.409267,11.472564 h 3.181737 c 0.777926,0 1.40901,0.230171 1.40901,0.514288 v 1.16121 c 0,0.283888 -0.630727,0.514092 -1.40901,0.514092 h -3.181737 c -0.7788184,0 -1.4092777,-0.230172 -1.4092777,-0.514092 v -1.16121 c 0,-0.283889 0.6307269,-0.514288 1.4092777,-0.514288 z"
       id="rect145_1_"
       inkscape:connector-curvature="0" />
    <path
       style="fill:#f57900;stroke-width:0.15787189"
       d="m 10.409267,5.8252615 h 3.181737 c 0.777926,0 1.40901,0.2301713 1.40901,0.5142879 v 1.1612093 c 0,0.2838887 -0.630727,0.5140926 -1.40901,0.5140926 h -3.181737 c -0.7788184,0 -1.4092777,-0.2301713 -1.4092777,-0.5140926 V 6.3395494 c 0,-0.2838887 0.6307269,-0.5142879 1.4092777,-0.5142879 z"
       id="rect146_1_"
       inkscape:connector-curvature="0" />
    <path
       style="fill:#3465a4;stroke-width:0.15787189"
       d="m 10.409265,14.296053 h 3.181737 c 0.777926,0 1.40901,0.230171 1.40901,0.514093 v 1.161111 c 0,0.283889 -0.630727,0.514287 -1.40901,0.514287 h -3.181737 c -0.778818,0 -1.4092773,-0.23017 -1.4092773,-0.514287 v -1.161111 c 0,-0.28389 0.6307269,-0.514093 1.4092773,-0.514093 z"
       id="rect147_3_"
       inkscape:connector-curvature="0" />
    <path
       style="fill:#edd400;stroke-width:0.15787189"
       d="m 10.409267,3.0017078 h 3.181737 c 0.777926,0 1.40901,0.2301712 1.40901,0.5140926 v 1.1612091 c 0,0.2838889 -0.630727,0.5141903 -1.40901,0.5141903 h -3.181737 c -0.7788184,0 -1.4092777,-0.2301712 -1.4092777,-0.5141903 V 3.5158004 c 0,-0.2838889 0.6307269,-0.5140926 1.4092777,-0.5140926 z"
       id="rect302_1_"
       inkscape:connector-curvature="0" />
    <path
       style="fill:#c17d11;stroke-width:0.15787189"
       d="m 10.409267,8.6490106 h 3.181737 c 0.777926,0 1.40901,0.2301714 1.40901,0.5141903 v 1.1610781 c 0,0.283889 -0.630727,0.514224 -1.40901,0.514224 h -3.181737 c -0.7788184,0 -1.4092777,-0.230172 -1.4092777,-0.514224 V 9.1632009 c 0,-0.2842143 0.6307269,-0.5141903 1.4092777,-0.5141903 z"
       id="rect306_1_"
       inkscape:connector-curvature="0" />
    <path
       style="fill:#75507b;stroke-width:0.15787189"
       d="m 10.409266,17.048992 h 3.181737 c 0.777926,0 1.409009,0.230172 1.409009,0.514093 v 1.161112 c 0,0.284214 -0.630726,0.514287 -1.409009,0.514287 h -3.181737 c -0.7788191,0 -1.4092783,-0.230171 -1.4092783,-0.514287 v -1.161112 c 0,-0.283889 0.6307269,-0.514093 1.4092783,-0.514093 z"
       id="rect147_2_"
       inkscape:connector-curvature="0" />
    <path
       style="fill:#cc0000;stroke-width:0.15786478"
       d="m 10.409266,19.808543 h 3.181737 c 0.777925,0 1.409009,0.230475 1.409009,0.514242 v 1.161104 c 0,0.283864 -0.630727,0.514242 -1.409009,0.514242 h -3.181737 c -0.778819,0 -1.4092783,-0.230476 -1.4092783,-0.514242 v -1.161104 c 0,-0.283865 0.630727,-0.514242 1.4092783,-0.514242 z"
       id="rect182_1_"
       inkscape:connector-curvature="0" />
    <rect
       y="0.51319802"
       x="0.51097691"
       height="22.973627"
       width="22.978046"
       id="rect4060"
       style="color:#000000;clip-rule:nonzero;display:inline;overflow:visible;visibility:visible;opacity:0;isolation:auto;mix-blend-mode:normal;color-interpolation:sRGB;color-interpolation-filters:linearRGB;solid-color:#000000;solid-opacity:1;fill:none;fill-opacity:1;fill-rule:nonzero;stroke:#bebebe;stroke-width:1.02195382;stroke-linecap:round;stroke-linejoin:miter;stroke-miterlimit:4;stroke-dasharray:none;stroke-dashoffset:0;stroke-opacity:1;color-rendering:auto;image-rendering:auto;shape-rendering:auto;text-rendering:auto;enable-background:accumulate" />
    <ellipse
       ry="3.1250653"
       rx="7.614018"
       cy="4.6999922"
       cx="11.947866"
       id="path3364-0"
       style="color:#000000;display:block;overflow:visible;visibility:visible;opacity:0.77319587;fill:url(#radialGradient8095-9);fill-opacity:1;fill-rule:nonzero;stroke:url(#linearGradient3588-9);stroke-width:0.99570435;stroke-linecap:butt;stroke-linejoin:miter;stroke-miterlimit:10;stroke-dasharray:none;stroke-dashoffset:0;stroke-opacity:1;marker:none;marker-start:none;marker-mid:none;marker-end:none" />
  </g>
</svg>
