<svg height="24" viewBox="0 0 24 24.000001" width="24" xmlns="http://www.w3.org/2000/svg" xmlns:xlink="http://www.w3.org/1999/xlink"><linearGradient id="a" gradientTransform="matrix(.83174 0 0 .83684 27.65 44.986)" gradientUnits="userSpaceOnUse" x1="90.589996" x2="250.17999" y1="292.35999" y2="292.35999"><stop offset="0" stop-color="#d7d7d7"/><stop offset=".5" stop-color="#e7e7e7"/><stop offset="1" stop-color="#d7d7d7"/></linearGradient><g fill-rule="evenodd"><g transform="matrix(.03584415 0 0 .03807221 -2.541842 -6.630205)"><rect fill="#555753" height="182.86" ry="21.429001" stroke="#8d8d8d" width="194.28999" x="71.429001" y="200.92999"/><rect fill="url(#a)" height="153.02" ry="17.931999" stroke="#f8f8f8" stroke-width=".83429" width="161.59" x="87.059998" y="213.14"/></g><g transform="matrix(.03584415 0 0 .03807221 13.45761 -6.630769)"><rect fill="#555753" height="182.86" ry="21.429001" stroke="#8d8d8d" width="194.28999" x="71.429001" y="200.92999"/><rect fill="url(#a)" height="153.02" ry="17.931999" stroke="#f8f8f8" stroke-width=".83429" width="161.59" x="87.059998" y="213.14"/></g><g transform="matrix(.03584415 0 0 .03807221 5.45761 -6.630769)"><rect fill="#555753" height="182.86" ry="21.429001" stroke="#8d8d8d" width="194.28999" x="71.429001" y="200.92999"/><rect fill="url(#a)" height="153.02" ry="17.931999" stroke="#f8f8f8" stroke-width=".83429" width="161.59" x="87.059998" y="213.14"/></g><g transform="matrix(.03584415 0 0 .03807221 -2.542391 1.369232)"><rect fill="#555753" height="182.86" ry="21.429001" stroke="#8d8d8d" width="194.28999" x="71.429001" y="200.92999"/><rect fill="url(#a)" height="153.02" ry="17.931999" stroke="#f8f8f8" stroke-width=".83429" width="161.59" x="87.059998" y="213.14"/></g><g transform="matrix(.03584415 0 0 .03807221 5.457061 1.368668)"><rect fill="#555753" height="182.86" ry="21.429001" stroke="#8d8d8d" width="194.28999" x="71.429001" y="200.92999"/><rect fill="url(#a)" height="153.02" ry="17.931999" stroke="#f8f8f8" stroke-width=".83429" width="161.59" x="87.059998" y="213.14"/></g><g transform="matrix(.03584415 0 0 .03807221 -2.542391 9.369232)"><rect fill="#555753" height="182.86" ry="21.429001" stroke="#8d8d8d" width="194.28999" x="71.429001" y="200.92999"/><rect fill="url(#a)" height="153.02" ry="17.931999" stroke="#f8f8f8" stroke-width=".83429" width="161.59" x="87.059998" y="213.14"/></g><g transform="matrix(.03575866 0 0 .08172529 13.471472 -7.393769)"><rect fill="#555753" height="182.86" rx="15.16763" ry="13.962881" stroke="#8d8d8d" width="194.28999" x="71.429001" y="200.92999"/><rect fill="url(#a)" height="166.22777" rx="22.751432" ry="13.784149" stroke="#f8f8f8" stroke-width=".83429" width="162.81818" x="87.059998" y="209.82173"/></g><g transform="matrix(.03584415 0 0 .03807221 5.457061 9.368668)"><rect fill="#555753" height="182.86" ry="21.429001" stroke="#8d8d8d" width="194.28999" x="71.429001" y="200.92999"/><rect fill="url(#a)" height="153.02" ry="17.931999" stroke="#f8f8f8" stroke-width=".83429" width="161.59" x="87.059998" y="213.14"/></g></g><text fill="#555753" font-family="sans-serif" font-size="2.295964" letter-spacing="0" word-spacing="0" x="1.151837" y="5.704036"><tspan x="1.151837" y="5.704036">Q</tspan></text><text fill="#555753" font-family="sans-serif" font-size="2.295964" letter-spacing="0" word-spacing="0" x="9.219647" y="6.000001"><tspan x="9.219647" y="6.000001">W</tspan></text><text fill="#555753" font-family="sans-serif" font-size="2.295964" letter-spacing="0" word-spacing="0" x="17.355255" y="6"><tspan x="17.355255" y="6">E</tspan></text><text fill="#555753" font-family="sans-serif" font-size="2.295964" letter-spacing="0" word-spacing="0" x="1.423024" y="22.000002"><tspan x="1.423024" y="22.000002">ctrl</tspan></text><text fill="#555753" font-family="sans-serif" font-size="2.295964" letter-spacing="0" word-spacing="0" x="9.219647" y="21.967489"><tspan x="9.219647" y="21.967489">alt</tspan></text><text fill="#555753" font-family="sans-serif" font-size="2.295964" letter-spacing="0" word-spacing="0" x="1.287431" y="13.967489"><tspan x="1.287431" y="13.967489">&amp;</tspan></text><text fill="#555753" font-family="sans-serif" font-size="2.295964" letter-spacing="0" word-spacing="0" x="9.151852" y="13.899693"><tspan x="9.151852" y="13.899693">@</tspan></text><rect fill="#555753" height="24.000002" opacity="0" ry="7.446946" width="24.000002" x="-.000001"/></svg>