<?xml version="1.0" encoding="UTF-8" standalone="no"?>
<!-- Generator: Adobe Illustrator 12.0.0, SVG Export Plug-In . SVG Version: 6.00 Build 51448)  -->

<svg
   xmlns:dc="http://purl.org/dc/elements/1.1/"
   xmlns:cc="http://creativecommons.org/ns#"
   xmlns:rdf="http://www.w3.org/1999/02/22-rdf-syntax-ns#"
   xmlns:svg="http://www.w3.org/2000/svg"
   xmlns="http://www.w3.org/2000/svg"
   xmlns:sodipodi="http://sodipodi.sourceforge.net/DTD/sodipodi-0.dtd"
   xmlns:inkscape="http://www.inkscape.org/namespaces/inkscape"
   version="1.0"
   id=""
   width="24"
   height="24"
   viewBox="0 0 26.0625 26.0625"
   overflow="visible"
   enable-background="new 0 0 139 139"
   xml:space="preserve"
   sodipodi:version="0.32"
   inkscape:version="0.91+devel r"
   sodipodi:docname="gimp-warning-24a.svg"
   inkscape:output_extension="org.inkscape.output.svgz.inkscape"
   style="overflow:visible"><metadata
     id="metadata3164"><rdf:RDF><cc:Work
         rdf:about=""><dc:format>image/svg+xml</dc:format><dc:type
           rdf:resource="http://purl.org/dc/dcmitype/StillImage" /><dc:title></dc:title></cc:Work></rdf:RDF></metadata><defs
     id="defs3162" /><sodipodi:namedview
     inkscape:window-height="1016"
     inkscape:window-width="1920"
     inkscape:pageshadow="2"
     inkscape:pageopacity="0.0"
     guidetolerance="10.0"
     gridtolerance="10.0"
     objecttolerance="10.0"
     borderopacity="1.0"
     bordercolor="#666666"
     pagecolor="#ffffff"
     id="base"
     inkscape:zoom="23.482014"
     inkscape:cx="-12.169258"
     inkscape:cy="9.9309068"
     inkscape:window-x="0"
     inkscape:window-y="27"
     inkscape:current-layer=""
     height="128px"
     width="128px"
     showgrid="true"
     inkscape:window-maximized="1"
     showguides="false"
     inkscape:snap-global="false"><inkscape:grid
       type="xygrid"
       id="grid4234" /></sodipodi:namedview><g
     id="g4240"
     transform="matrix(1.0845755,0,0,1.0859678,0.0162043,8.6870199)"><rect
       style="fill:none;stroke-width:0.29999164"
       y="-7.9993348"
       x="7.7556515e-06"
       height="23.999331"
       width="23.999331"
       id="rect6639-9" /><path
       style="fill:#f57900;fill-opacity:1;fill-rule:nonzero;stroke:#f57900;stroke-width:1.13471687;stroke-miterlimit:4;stroke-dasharray:none;stroke-opacity:1"
       d="M 23.285155,13.001741 13.351911,-6.5717568 c -0.285517,-0.5437038 -0.802143,-0.8457691 -1.377504,-0.8457691 -0.57536,0 -1.094642,0.3624808 -1.384486,0.9061845 L 0.73064839,13.062156 c -0.23208287,0.483288 -0.23472746,1.147823 0.0510109,1.631123 0.28576041,0.4833 0.74507961,0.724938 1.32045121,0.724938 H 21.894627 c 0.575361,0 1.094399,-0.302054 1.326471,-0.785354 0.289611,-0.4833 0.292024,-1.087419 0.06407,-1.631122 z"
       id="path10109"
       inkscape:connector-curvature="0" /><path
       id="path10111"
       d="m 5.0577629,11.548009 c -0.1436881,0.251114 -0.00217,0.452016 0.2359541,0.452016 h 13.410541 c 0.237769,0 0.381252,-0.200902 0.239596,-0.452016 l -6.74662,-13.3596651 c -0.141644,-0.251125 -0.331873,-0.251125 -0.427998,0 z"
       style="fill:#fcaf3e;fill-opacity:1;fill-rule:nonzero;stroke:none;stroke-width:1.09164751;stroke-miterlimit:4"
       inkscape:connector-curvature="0" /><path
       style="opacity:1;fill:none;fill-opacity:1;fill-rule:nonzero;stroke:#ffffff;stroke-width:1.1486274;stroke-miterlimit:4;stroke-dasharray:none;stroke-opacity:1"
       d="M 21.814395,12.231872 12.874287,-5.4183886 c -0.38073,-0.7625991 -0.319916,-1.0072725 -0.898552,-1.0072725 -0.497683,0 -0.560685,0.3563402 -0.920326,1.0761746 L 2.2145317,12.286504 c -0.5133663,0.993087 -0.81511,1.356397 -0.5679993,1.793494 0.2470875,0.437096 0.6137082,0.308863 1.7859707,0.337368 H 20.808707 c 1.091366,0.01428 1.337204,0.03076 1.538004,-0.406259 0.250572,-0.437109 -0.05336,-0.888317 -0.532316,-1.779235 z"
       id="path1325"
       inkscape:connector-curvature="0" /><g
       style="fill:#121312;fill-opacity:1;fill-rule:nonzero;stroke:#000000;stroke-width:1.76948965;stroke-miterlimit:4"
       transform="matrix(0.65469027,0,0,0.56034483,-3.6413098,-9.4525615)"
       id="g10114"><path
         style="fill:#121312;fill-opacity:1;stroke:none"
         d="m 23.9,36.5 c -1.3,0 -2.3,-1 -2.3,-2.3 0,-1.4 0.9,-2.3 2.3,-2.3 1.4,0 2.2,0.9 2.3,2.3 0,1.3 -0.9,2.3 -2.3,2.3 z M 23.167629,29.066754 21.9,19.1 h 4 l -1.267629,11.609518 z"
         id="path10116"
         inkscape:connector-curvature="0" /></g></g></svg>