<svg height="24" viewBox="0 0 24 24" width="24" xmlns="http://www.w3.org/2000/svg" xmlns:xlink="http://www.w3.org/1999/xlink"><linearGradient id="a"><stop offset="0" stop-color="#424242"/><stop offset="1" stop-color="#777"/></linearGradient><linearGradient id="b" gradientTransform="matrix(.60072161 0 0 .60098717 -1.832228 -.055418)" gradientUnits="userSpaceOnUse" x1="18.112709" x2="15.514889" xlink:href="#a" y1="31.36775" y2="6.18025"/><linearGradient id="c" gradientTransform="matrix(.58553618 0 0 .59905303 -1.767658 .033281)" gradientUnits="userSpaceOnUse" x1="22.175976" x2="22.065331" y1="36.987999" y2="32.050499"><stop offset="0" stop-color="#6194cb"/><stop offset="1" stop-color="#729fcf"/></linearGradient><linearGradient id="d" gradientTransform="matrix(.77145159 0 0 .50194756 -2.348706 -.974753)" gradientUnits="userSpaceOnUse" x1="13.035696" x2="12.853771" y1="32.567184" y2="46.689312"><stop offset="0" stop-color="#fff" stop-opacity=".796078"/><stop offset="1" stop-color="#fff" stop-opacity=".215686"/></linearGradient><linearGradient id="e" gradientTransform="matrix(.02928331 -1.3121895 1.3099969 .02933232 1115.5381 338.85209)" gradientUnits="userSpaceOnUse" x1="1.204223" x2="14.824219" xlink:href="#a" y1="8.015625" y2="8.015625"/><path d="m.88410335 23.195223c.013093.250194.27627475.500388.52635795.500388h18.8188177c.250082 0 .487072-.250194.473979-.500388l-.562542-16.362918c-.013098-.250193-.276269-.500392-.526352-.500392h-7.9721c-.291384 0-.741575-.189664-.841998-.665071l-.367276-1.738699c-.093395-.44213-.5299646-.623756-.7800479-.623756h-8.87797962c-.25008809 0-.48707757.250193-.4739843.500387z" fill="#fff" stroke="url(#b)" stroke-linecap="round" stroke-linejoin="round" stroke-width=".600854"/><path d="m.003854 0h23.996141v23.996084h-23.996141z" fill="#bebebe" opacity="0"/><path d="m5.3281845 8.432175c-.00397.1776678.07203.7654612.2234182 1.1152798.075694.1749093.1627678.2895773.2026548.3250567.039887.035479.0007063.020529.048156.021591.013327.0002988-.098219.031879.279873-.1527104.3780927-.1845898 1.0556207-.4022892 1.9179719-.3724472a1.2144078 1.2164404 0 0 1 1.1703095 1.2416121l-.090024 4.033958 4.0272171.09018a1.2144078 1.2164404 0 0 1 1.18566 1.241955c-.02369 1.061434-.604942 1.830894-.984958 2.267733-.297955.342508-.287249.331923-.300129.257387.03712.01732.02403.01744.08369.03521.329184.09804.89176.12456 1.200419.121752.749691-.0068 1.6743.04871 2.302115-.03563.134088-.01802.144037-.03572.23432-.06142-.06083-.07764-.08826-.114401-.164177-.213936-.366296-.480259-.890518-1.275971-.866831-2.337404a1.2144078 1.2164404 0 0 1 1.239881-1.187645l5.337214.119506.04256-1.906776c-.378149.237866-.893845.379993-1.416147.368299-.54796-.01227-1.092517-.25891-1.448314-.599107-.3558-.340198-.555876-.731694-.691985-1.110387-.272219-.757387-.311681-1.519081-.296795-2.186174.02034-.9112589-.06021-1.5931907.261352-2.4198343.160782-.4133227.521035-.8690267.976844-1.1012256.455811-.232199.911661-.2718997 1.370248-.2616314.524072.011735.969378.2393239 1.257122.4486684.06317.045959.08399.076818.138091.121038l.104208-4.6695495-3.328724-.074534c.260439.3443184.497357.7696851.48282 1.4210941-.01637.7333852-.500552 1.516995-1.205009 1.9192089-.704459.4022094-1.566767.5469755-2.684151.5219559-1.117385-.0250191-1.972373-.2082378-2.658183-.6415815-.68581-.4333436-1.134554-1.2378427-1.118188-1.9712279.012562-.5627812.213351-1.0255084.451064-1.4001834l-3.234054-.0724147-.1193066 5.3461473a1.2144078 1.2164404 0 0 1 -1.2194117 1.1881039c-.6969655-.0044641-1.3697691-.3027777-1.7837595-.7091832-.4009328-.3935884-.5871997-.8114263-.7297325-1.1394379-.1254507.5456924-.1757168 1.4502477-.1973292 2.4187039z" style="fill:#73d216;stroke-width:.65571;stroke-linecap:square;stroke-linejoin:round;stroke-dashoffset:1.5;stroke:url(#e)"/><path d="m21.527038 23.702238c.669792-.02639 1.149451-.656742 1.198615-1.390406.463618-6.918276.971614-12.7190634.971614-12.7190634.04224-.1482565-.09832-.2965121-.28114-.2965121h-20.1255542s-1.0834287 13.0994285-1.0834287 13.0994285c-.067076.588309-.2728642 1.081121-.9074848 1.308161l20.2273787-.0016z" display="block" fill="url(#c)" stroke="#3465a4" stroke-linejoin="round" stroke-width=".592262"/><path d="m3.7994298 9.960143 19.2007262.039857-.921678 12.299996c-.04937.658913-.263893.878264-1.096528.878264-1.095851 0-16.7922948-.01993-18.3830937-.01993.1367828-.197279.1954297-.607942.1962147-.617775z" fill="none" opacity=".465909" stroke="url(#d)" stroke-linecap="round" stroke-width=".600063"/></svg>