<svg height="24" viewBox="0 0 24 24" width="24" xmlns="http://www.w3.org/2000/svg"><g transform="translate(0 -1028.3622)"><g transform="matrix(-1.5126905 0 0 1.5136145 20.177268 1040.0447)"><path d="m-1.5242091-6.7157845h9.8935302v9.8870733h-9.8935302z" fill="#d3d7cf" stroke="#fff" stroke-width=".68365"/><path d="m-2.1962783-7.3874502h11.2376688v11.2304048h-11.2376688z" fill="none" stroke="#000" stroke-width=".661659"/></g><path d="m18.485703 1034.8767h-17.97140555v16.9712h17.97140555z" fill="none" stroke="#000" stroke-width="1.028595"/><path d="m1 1035.3623h17v16h-17z" fill="#babdb6" opacity=".5"/><g stroke-linecap="round" stroke-linejoin="round" stroke-width=".308849" transform="matrix(1.4295063 0 0 1.5778916 .728606 1026.466039)"><path d="m7.6775054 14.989937h-3.2822408c-.9299683 0-1.8506764-.339668-2.1881602-1.307782-.3204812-.91934-.0547041-2.670055 2.0240482-4.0868194h3.883985c2.0787524 1.3077814 2.3385304 3.0962914 1.8599362 4.1413094-.487572 1.064621-1.3128961 1.253292-2.2975684 1.253292z" fill="#73d216" fill-rule="evenodd" stroke="#4e9a06"/><path d="m7.6267926 14.686845-3.2472247-.0068c-.8168692 0-1.6256044-.298359-1.9220449-1.148735-.2815056-.807534.029311-2.345334 1.8552548-3.5897965l3.5663564-.0749361c1.8259428 1.1487346 2.1793568 2.7197326 1.7521297 3.7125856-.4272278.992852-1.050657 1.100871-2.0044713 1.107682z" fill="none" opacity=".21519" stroke="#fff"/></g><ellipse cx="-6.091089" cy="8.015099" rx="2.680497" ry="2.670055" style="fill:#fcaf3e;fill-rule:evenodd;stroke:#c17d11;stroke-width:.308849;stroke-linecap:round;stroke-linejoin:round" transform="matrix(-1.4109861 0 0 1.4161862 .905592 1029.012339)"/><ellipse cx="-6.091083" cy="8.015102" rx="2.35105" ry="2.341892" style="opacity:.196203;fill:none;stroke:#fff;stroke-width:.30885;stroke-linecap:round;stroke-linejoin:round" transform="matrix(-1.4109861 0 0 1.4161862 .905592 1029.012339)"/><g fill="#fff"><g transform="matrix(0 -1 1 0 0 1037.3622)"><path d="m-14 0h1v1h-1z"/><path d="m-12 0h1v1h-1z"/><path d="m-10 0h1v1h-1z"/><path d="m-8 0h1v1h-1z"/><path d="m-6 0h1v1h-1z"/></g><path d="m-1041.3622 0h1v1h-1z" transform="rotate(-90)"/><path d="m-1039.3622 0h1v1h-1z" transform="rotate(-90)"/><path d="m-1037.3622 0h1v1h-1z" transform="rotate(-90)"/><path d="m-1035.3622 0h1v1h-1z" transform="rotate(-90)"/><g transform="matrix(0 -1 1 0 18 1037.3622)"><path d="m-14 0h1v1h-1z"/><path d="m-12 0h1v1h-1z"/><path d="m-10 0h1v1h-1z"/><path d="m-8 0h1v1h-1z"/><path d="m-6 0h1v1h-1z"/></g><path d="m-1041.3622 0h1v1h-1z" transform="matrix(0 -1 1 0 18 0)"/><path d="m-1039.3622 0h1v1h-1z" transform="matrix(0 -1 1 0 18 0)"/><path d="m-1037.3622 0h1v1h-1z" transform="matrix(0 -1 1 0 18 0)"/><path d="m-1035.3622 0h1v1h-1z" transform="matrix(0 -1 1 0 18 0)"/><g transform="matrix(-1 0 0 -1 3.999975 1052.362175)"><path d="m-14 0h1v1h-1z"/><path d="m-12 0h1v1h-1z"/><path d="m-10 0h1v1h-1z"/><path d="m-8 0h1v1h-1z"/><path d="m-6 0h1v1h-1z"/></g><path d="m-1041.3622 0h1v1h-1z" transform="matrix(-1 0 0 -1 -1033.362225 1052.362175)"/><path d="m-1039.3622 0h1v1h-1z" transform="matrix(-1 0 0 -1 -1033.362225 1052.362175)"/><path d="m-1037.3622 0h1v1h-1z" transform="matrix(-1 0 0 -1 -1033.362225 1052.362175)"/><path d="m-1035.3622 0h1v1h-1z" transform="matrix(-1 0 0 -1 -1033.362225 1052.362175)"/><g transform="matrix(-1 0 0 -1 3.00001 1035.36221)"><path d="m-14 0h1v1h-1z"/><path d="m-12 0h1v1h-1z"/><path d="m-10 0h1v1h-1z"/><path d="m-8 0h1v1h-1z"/><path d="m-6 0h1v1h-1z"/></g><path d="m-6.999983-1035.3622h1v1h-1z" transform="scale(-1)"/><path d="m-4.999983-1035.3622h1v1h-1z" transform="scale(-1)"/><path d="m-2.999983-1035.3622h1v1h-1z" transform="scale(-1)"/></g></g></svg>