<svg height="24" viewBox="0 0 24 24" width="24" xmlns="http://www.w3.org/2000/svg"><path d="m163.21122 608.00656.52371-2.07609.68394-.65957 1.45619-.61395.0139-1.95475.16911-5.07644 2.45076-.97426.8044 3.52175 1.64438.0263 1.49776 2.42969.55695 2.05074 1.90613.008.23923-2.05921v-2.66667l.52542-.45583.54376-.37948 1.6015 3.65993.0316 2.50867 1.35115 1.08334-.0367 1.66213z" fill="#555753" transform="matrix(1.5000103 0 0 2.1072298 -244.81851130206 -1257.28178976644)"/><path d="m163.21122 608.00656.48534-1.83029.76707-.5253 1.66081-.67084-.004-2.27793-.0622-5.07644 1.99037-.86502.72766 3.54906 1.98968-.0283 1.45939 2.53893.63369 2.48771 2.75018-.0193.31596-2.76928.0767-1.51963-.19183-.81932.14175-.42851.58213-.35217 1.44803 3.52337-.12186 2.37212.0767.49159 1.27442.91948-.0367 1.3344z" fill="#729fcf" transform="matrix(1.3750095 0 0 1.9316274 -223.4169775019 -1151.50838375572)"/></svg>