<svg height="24" viewBox="0 0 24 24" width="24" xmlns="http://www.w3.org/2000/svg" xmlns:xlink="http://www.w3.org/1999/xlink"><linearGradient id="a" gradientTransform="matrix(1.6987032 0 0 1.6954684 -3.016251 1028.1202)" gradientUnits="userSpaceOnUse" x1="8.590249" x2="15.262132" y1="11.755022" y2="11.755022"><stop offset="0"/><stop offset="1" stop-opacity="0"/></linearGradient><linearGradient id="b" gradientTransform="matrix(1.6982697 0 0 1.7443128 -3.057098 1028.3579)" gradientUnits="userSpaceOnUse" x1="7.469972" x2="4.62447" xlink:href="#c" y1="8.394972" y2="10.76474"/><linearGradient id="c"><stop offset="0" stop-color="#d3d7cf"/><stop offset="1" stop-color="#fff"/></linearGradient><linearGradient id="d" gradientTransform="matrix(1.8647058 -.00930969 .01031829 1.6824324 15.104108 1033.3716)" gradientUnits="userSpaceOnUse" x1="-2.292774" x2="4.289299" y1="1.012595" y2="1.012595"><stop offset="0" stop-color="#ef2929"/><stop offset="1" stop-color="#ef2929" stop-opacity="0"/></linearGradient><linearGradient id="e" gradientTransform="matrix(1.5618204 0 0 1.5515536 -1.009648 1027.7473)" gradientUnits="userSpaceOnUse" x1="13.865578" x2="10.768333" xlink:href="#c" y1="1.301375" y2="4.151609"/><g transform="translate(0 -1028.3622)"><path d="m13.77112 1043.7684s-2.156059 4.3369-.962218 5.5199c1.121308 1.1112 2.850933-1.3715 4.38874-1.6554 1.800022-.3323 4.422275-1.5076 5.491616-.025.97778 1.3559-1.615773 4.7453-1.615773 4.7453.09307.095.06968-.6321-.204661-.3639-.27435.2682-.57015.4078-.663231.3129 0 0 2.612162-2.9711 1.73831-4.2153-.848295-1.2078-2.978107-.09-4.42959.1877-1.89019.3613-3.957719 3.1121-5.450764 1.9001-1.421197-1.1538.717136-5.4385.717136-5.4385-.09308-.095.05285-.3871.327203-.6553.274351-.2682.570151-.4078.663232-.3129z" fill="url(#a)"/><g stroke-linecap="round"><path d="m21.715764 1028.683c-.785579.027-1.091999.2598-2.003701 1.0686-5.681297 5.0934-10.9327601 10.0408-16.1497391 15.4039l-.032392.089-1.6067286 4.2136 4.7780737-1.327c1.1609738-1.1684 2.3748965-2.3596 3.611899-3.56.374065.2383.824142.3666 1.28603.3666 1.211963.0003 2.19426-.8642 2.193057-1.9299-.0012-.4633-.192107-.9107-.537737-1.2603 3.168026-3.0209 6.360821-5.9267 9.443105-8.8587.616573-.7156.980491-1.3066.981571-2.0865-.000598-1.2037-.812863-2.1181-1.963438-2.1189zm-19.7925621 20.7747c-.096229-.1286-.2532872-.2055-.4211187-.2061-.2867047-.001-.51940217.2166-.51829965.4848.00069442.267.23286285.4827.51829965.4817.2841727-.0006.5143675-.2159.5150601-.4817.0002199-.1-.032596-.1971-.093941-.2787z" fill="url(#b)" stroke="#183436" stroke-linejoin="round" stroke-width=".641594"/><path d="m21.814249 1029.3529c-.526231.056-.815374.2921-1.051483.5404l-10.018256 9.4191 1.913859 1.7012 9.799478-9.0159c.369631-.3029.769785-.8391.690988-1.3335-.09816-.6159-.714466-1.3777-1.334586-1.3113z" fill="#f00" stroke="url(#d)" stroke-linejoin="round" stroke-width="1.217234"/><path d="m10.757438 1038.7736 10.004506-9.2031" fill="none" stroke="url(#e)" stroke-width=".38917"/></g><path d="m10.794235 1041.4872-3.294235-5.0748 5.795334-.1562z" fill="#3465a4"/><path d="m10.306469 1040.7389-2.6393649-4.3842 2.9155269-.037c.0076.024.1783.4496.09884 5.234z" fill="#729fcf"/><path d="m8.3060942 1031.6719c-.5515941 0-.9964003.4684-.9964003 1.0496v2.8133c0 .105.01941.204.046463.2996.7523776 2.0715 2.2972307 3.8162 3.4067471 5.7181l2.546849-4.73c.230037-.1919.380552-.9532.380552-1.2877v-2.8133c0-.5812-.444805-1.0496-.996384-1.0496z" fill="none" stroke="#183436" stroke-linecap="round" stroke-linejoin="round" stroke-width=".619388"/><ellipse cx="1.517771" cy="1049.7438" fill="#3465a4" rx=".245082" ry=".244615"/><circle cx="1" cy="-1051.3622" fill="#729fcf" r=".857243" stroke="#fff" stroke-linecap="round" stroke-width=".285514" transform="scale(1 -1)"/></g></svg>