<svg height="24" viewBox="0 0 6.3499999 6.3500002" width="24" xmlns="http://www.w3.org/2000/svg"><g fill-rule="evenodd" transform="translate(0 -290.64999)"><circle cx="3.175008" cy="293.82498" r="2.381258" stroke="#000" stroke-linecap="round" stroke-width=".529167"/><circle cx="3.175008" cy="293.82498" fill="#fff" r="2.381258" stroke="#000" stroke-linecap="round" stroke-width=".264583"/><path d="m2.3812498 291.70832-1.0583334.26459-.52916657 1.8464.52916657 1.85725 1.0583334.26458v-.52865c0-.14117.1287772-.26458.260449-.26458h1.0624678c.146577 0 .264583-.11801.264583-.26459 0-.14657-.118006-.26458-.264583-.26458h-1.0583335v-.52917h1.0583335c.146582 0 .264583-.118.264583-.26458s-.118001-.26458-.264583-.26458h-1.0583335v-.52917h1.0583335c.146578 0 .264583-.11801.264583-.26458 0-.14658-.118005-.26459-.264583-.26459h-1.0506378c-.1426419 0-.272279-.12391-.272279-.26699z"/><g fill="#fff"><rect height=".529179" rx=".26459" width="1.852084" x="2.381251" y="293.03122"/><rect height=".529179" rx=".26459" width="1.852084" x="2.381251" y="294.08957"/></g></g></svg>