<svg height="24" viewBox="0 0 24 24" width="24" xmlns="http://www.w3.org/2000/svg"><g transform="translate(0 -1028.3622)"><path d="m0 1028.3622h24v24h-24z" opacity="0"/><path d="m3.2047838 1031.4682 4.4601947-.0001c1.1749449 0 2.2291066 1.0875 2.2291066 2.1973v6.5907l-5.5747369.0002c-2.9115619 0-2.9906563-4.3941 0-4.3941h5.5747369" fill="none" stroke="#000" stroke-width="2.211829"/><path d="m14.101887 1029.3621v10.8982h5.857473c2.550239 0 2.619504-5.4489 0-5.4489h-5.857473" fill="none" stroke="#000" stroke-width="2.203775"/><path d="m22.034857 1047.3622v2h-19.5616642v-2z"/><g fill="#ff9753" stroke="#ff5000"><path d="m17.761717 1044.624v.9345c0 .24.125828.4939.302863.6717l2.604624 2.132-2.604624 2.1322c-.177035.1779-.302863.4317-.302863.6717v.9344c.323055 0 .646109-.0002.969163-.0002.299908 0 .535288-.084.726872-.2625 1.372983-1.0028 2.745957-2.4728 4.11894-3.4756l-4.11894-3.4755c-.191584-.1784-.426964-.2627-.726872-.2627-.323054 0-.646108 0-.969163 0z" stroke-width=".523433"/><path d="m6.2354701 1044.624v.9346c0 .2401-.1257672.4938-.3027226.6714l-2.6034156 2.132 2.6034156 2.1322c.1769547.1779.3027226.4317.3027226.6716v.9346c-.3229043 0-.6458087-.0001-.9687128-.0001-.2997679 0-.5350393-.084-.7265344-.2627-1.3723462-1.0027-2.7446832-2.4727-4.11702928-3.4756l4.11702928-3.4753c.1914951-.1783.4267665-.2629.7265344-.2629.3229041.0002.6458085.0002.9687128.0002z" stroke-width=".523314"/></g></g></svg>