<svg height="24" viewBox="0 0 24 24" width="24" xmlns="http://www.w3.org/2000/svg"><g transform="translate(0 -1028.3622)"><g><path d="m0 1028.362217h24v24h-24z" fill="none"/><g fill="#eeeeec"><path d="m1 1031.362217h1v2h-1z"/><path d="m5 1031.362217h2v.999991h-2z"/><path d="m9 1031.362217h2v.999991h-2z"/><path d="m13 1031.362217h2v.999991h-2z"/><path d="m17 1031.362217h2v.999991h-2z"/><path d="m1 1035.362217h1v2h-1z"/><path d="m1 1039.362217h1v2h-1z"/><path d="m5 1048.362217h2v.999991h-2z"/><path d="m9 1048.362217h2v.999991h-2z"/><path d="m13 1048.362217h2v.999991h-2z"/><path d="m17 1048.362217h2v.999991h-2z"/><path d="m21 1048.362217h2v.999991h-2z"/><path d="m22 1043.362217h1v2h-1z"/><path d="m22 1039.362217h1v2h-1z"/><path d="m22 1035.362217h1v2h-1z"/></g><path d="m4 1034.362217h16v12h-16z" fill="#d3d7cf"/><path d="m1 1043.362217h1v2h-1z" fill="#eeeeec"/><path d="m1 1047.362217h1v2h-1z" fill="#eeeeec"/><path d="m21 1031.362217h2v.999991h-2z" fill="#eeeeec"/></g><g fill="#2e3436"><path d="m3 1031.3622h2v.999991h-2z"/><path d="m7 1031.3622h2v.999991h-2z"/><path d="m11 1031.3622h2v.999991h-2z"/><path d="m15 1031.3622h2v.999991h-2z"/><path d="m19 1031.3622h2v.999991h-2z"/><path d="m1 1033.3622h1v2h-1z"/><path d="m22 1033.3622h1v2h-1z"/><path d="m1 1037.3622h1v2h-1z"/><path d="m1 1041.3622h1v2h-1z"/><path d="m1 1045.3622h1v2h-1z"/><path d="m22 1037.3622h1v2h-1z"/><path d="m22 1041.3622h1v2h-1z"/><path d="m22 1045.3622h1v2h-1z"/><path d="m3 1048.3622h2v.999991h-2z"/><path d="m7 1048.3622h2v.999991h-2z"/><path d="m11 1048.3622h2v.999991h-2z"/><path d="m15 1048.3622h2v.999991h-2z"/><path d="m19 1048.3622h2v.999991h-2z"/></g><path d="m1031.3622-3h1v2h-1z" fill="#eeeeec" transform="rotate(90)"/><path d="m1031.3622-22.99999h2v.999991h-2z" fill="#eeeeec" transform="rotate(90)"/><path d="m1048.3622-3h1v2h-1z" fill="#eeeeec" transform="rotate(90)"/><path d="m1047.3622-22.99999h2v.999991h-2z" fill="#eeeeec" transform="rotate(90)"/></g></svg>