<svg height="24" viewBox="0 0 24 24" width="24" xmlns="http://www.w3.org/2000/svg" xmlns:xlink="http://www.w3.org/1999/xlink"><linearGradient id="a" gradientTransform="matrix(1.0073616 0 0 1.0227088 -2.371276 -22.704243)" gradientUnits="userSpaceOnUse" x1="3.298668" x2="19.242971" y1="1048.0988" y2="1048.0988"><stop offset="0"/><stop offset="1" stop-opacity="0"/></linearGradient><g transform="matrix(1.5 0 0 1.4999645 0 -1554.50612)"><g transform="matrix(.99615992 0 0 1.0000236 -.94802111574 2.14183513188)"><path d="m.951675 1048.1956h16.061678v1.999953h-16.061678z" fill="url(#a)"/><path d="m-9.0839653 1041.3845-1.6835687-1.0424-1.683568-1.0423 1.744472-.9369 1.7444715-.9368-.060903 1.9792z" stroke="#ce5c00" stroke-linecap="square" stroke-linejoin="round" stroke-width=".685035" transform="matrix(.73891877 -.3807533 .44870008 .62021805 -455.88582 400.60241)"/></g><path d="m0 1036.3622h16v13h-16z" fill="#d3d7cf"/><path d="m.66666667 1039.862 1.46666673-1.4166v7.0834l1.4666666-2.8335 1.4666667 2.8335v-5.6668h1.4666664v1.4167l1.4666665 1.4166v1.4168l1.4666665 1.4167 1.4666669-1.4167v-2.8334l1.466665 1.4166v-5.6667l1.46667 1.4168v2.8333l1.466666 1.4166v5.6669h-14.66666733z" fill="#729fcf"/><g stroke="#ce5c00" stroke-linecap="square" stroke-linejoin="round" stroke-width=".685035"><path d="m-9.0839653 1041.3845-1.6835687-1.0424-1.683568-1.0423 1.744472-.9369 1.7444715-.9368-.060903 1.9792z" fill="#babdb6" transform="matrix(.73605553 -.38072705 .4469614 .62017532 -449.06727 402.81348)"/><path d="m-9.0839653 1041.3845-1.6835687-1.0424-1.683568-1.0423 1.744472-.9369 1.7444715-.9368-.060903 1.9792z" fill="#fff" transform="matrix(.73605553 -.38072705 .4469614 .62017532 -443.06727 402.81348)"/></g></g></svg>