<svg height="24" viewBox="0 0 24 24" width="24" xmlns="http://www.w3.org/2000/svg"><g transform="translate(0 -1028.3622)"><path d="m0 1028.3623h23.999903v23.999903h-23.999903z" fill="none"/><path d="m0 1028.3623h23.999903v23.999903h-23.999903z" fill="none" opacity=".3"/><g fill="#fcaf3e" stroke="#ce5c00"><path d="m4.7052411 1035.6105a.77382059.78762418 0 0 0 -.1707675.018.77382059.78762418 0 0 0 -.3868718 1.3536l2.5358222 2.5808h-6.43627389v1.5751h6.44231889l-2.5418672 2.5873a.78649587.80052556 0 1 0 1.1122559 1.1319l3.8687162-3.9377.5319482-.5659-.5319482-.5662-3.8687162-3.9376a.77382059.78762418 0 0 0 -.5546166-.24z" stroke-width=".4943"/><path d="m19.294439 1035.6105a.77382059.78762418 0 0 1 .170768.018.77382059.78762418 0 0 1 .386871 1.3536l-2.535822 2.5808h6.436274v1.5751h-6.442319l2.541867 2.5873a.78649587.80052556 0 1 1 -1.112256 1.1319l-3.868716-3.9377-.531948-.5659.531948-.5662 3.868716-3.9376a.77382059.78762418 0 0 1 .554617-.24z" stroke-width=".4943"/><path d="m16.751659 1033.0678a.78769949.77381836 0 0 0 -.018-.1707.78769949.77381836 0 0 0 -1.35373-.3869l-2.581047 2.5358v-6.4362h-1.57525v6.4423l-2.5875481-2.5419a.8006021.7864936 0 1 0 -1.1320082 1.1123l3.9380773 3.8687.565954.5319.566254-.5319 3.937977-3.8687a.78769949.77381836 0 0 0 .240022-.5547z" stroke-width=".494323"/><path d="m16.751659 1047.657a.78769949.77381836 0 0 1 -.018.1707.78769949.77381836 0 0 1 -1.35373.3869l-2.581047-2.5358v6.4362h-1.57525v-6.4423l-2.5875485 2.5419a.8006021.7864936 0 1 1 -1.1320083-1.1123l3.9380778-3.8687.565954-.5319.566254.5319 3.937977 3.8687a.78769949.77381836 0 0 1 .240022.5547z" stroke-width=".494323"/></g></g></svg>