<svg height="24" viewBox="0 0 24 24" width="24" xmlns="http://www.w3.org/2000/svg"><g transform="translate(0 -1028.3622)"><path d="m.31162944801 1028.67382847807h23.37671918171v23.37671918171h-23.37671918171z" fill="none" opacity="0" stroke="#000" stroke-linecap="round" stroke-width=".62325841829"/><g fill="#fff" fill-rule="evenodd" stroke="#888a85" transform="matrix(0 1 -1 0 1052.3622 1028.3621)"><path d="m3.5486284 1028.898h12.6332956l6.282354 5.9953v15.0586c0 1.0385-.897757 1.8744-2.012907 1.8744h-16.9027426c-1.1151501 0-2.0129063-.8359-2.0129063-1.8744v-19.1795c0-1.0386.8977562-1.8744 2.0129063-1.8744z" stroke-width="1.071444"/><path d="m21.999999 1034.8294h-6.424213l-.043-5.4637" stroke-width="1.065607"/></g><g fill="#555753"><path d="m16.834423 1034.3622-7.8072504 10.5002-4.508412-3.6429-3.5187606 5.1427h15v-4h5.999987z" stroke-width="1.157794"/><circle cx="6.5" cy="1035.8622" r="2.5" stroke-width="1.010363"/></g></g></svg>