<svg height="24" viewBox="0 0 24 24" width="24" xmlns="http://www.w3.org/2000/svg" xmlns:xlink="http://www.w3.org/1999/xlink"><linearGradient id="a" gradientTransform="matrix(.53214611 0 0 .57204416 -.770802 1026.9196)" gradientUnits="userSpaceOnUse" x1="34.197105" x2="17.160702" y1="33.725819" y2="17.396523"><stop offset="0" stop-color="#d3d7cf"/><stop offset="1" stop-color="#eeeeec"/></linearGradient><linearGradient id="b" gradientTransform="matrix(.4853177 0 0 .70830248 17.817227 1023.717)" gradientUnits="userSpaceOnUse" x1="-11.986486" x2="-11.986486" y1="13.122552" y2="29.726542"><stop offset="0" stop-color="#555753"/><stop offset="1" stop-color="#fcaf3e"/></linearGradient><radialGradient id="c" cx="-6.007017" cy="32.837029" gradientTransform="matrix(.462962 0 0 .44272 10.864458 1031.8246)" gradientUnits="userSpaceOnUse" r="9.90625"><stop offset="0" stop-color="#fce94f"/><stop offset="1" stop-color="#fce94f" stop-opacity="0"/></radialGradient><linearGradient id="d" gradientTransform="matrix(.47058782 0 0 .4999995 .705881 1030.8623)" gradientUnits="userSpaceOnUse" x1="25.355263" x2="25.355263" y1="34.006802" y2="32.409008"><stop offset="0" stop-color="#2e3436"/><stop offset="1" stop-color="#2e3436" stop-opacity="0"/></linearGradient><g transform="translate(0 -1028.3622)"><rect fill="url(#a)" height="22.880863" rx="1.895901" ry="2.190056" stroke="#8a8a8a" stroke-linecap="round" stroke-linejoin="round" stroke-width="1.119137" width="22.880861" x=".559569" y="1028.9218"/><rect fill="url(#b)" height="16.999239" rx=".212327" ry=".306606" stroke="#888a85" stroke-linecap="round" stroke-linejoin="round" stroke-width="1.000762" width="16.999237" x="3.500381" y="1031.8625"/><path d="m7.7941083 1041.5126c-2.392951.1515-4.296871 2.1501-4.296871 4.5754 0 .094.00889.1819.014468.2742h9.1435087c.0056-.092.01447-.1806.01447-.2742 0-2.5239-2.056354-4.5754-4.5862227-4.5754-.09882 0-.192077-.01-.289351 0z" fill="url(#c)" fill-rule="evenodd"/><path d="m4 1047.3622h16v1h-16z" fill="url(#d)"/><rect fill="none" height="20.993977" rx="1.496964" ry="1.756965" stroke="#fff" stroke-linecap="round" stroke-linejoin="round" width="20.993975" x="1.503012" y="1029.8652"/><g fill-rule="evenodd"><path d="m14.210604 1046.8622s-.257213-1.4743-.257213-2.3776c.0071-.412 3.604954-3.6217 3.614237-4.0999l-.836462.7529-.585726-1.6457 1.974613.2113.925925-.9564-1.048689.7952-.360661-.085-.4425-1.6669.22506 1.6246-1.63441-.085.511509 1.3444-1.416971-1.4501 1.498813 2.0184c.000037.4502-2.954107 3.1985-2.949079 2.7246l-1.225207-1.6972-.102301-2.2945.925925-.2732.811179-2.0659-1.069313 1.9094-.834796-.039-1.868696-1.6302-2.565841-1.0142 2.192051 1.2443-1.757172.1612h2.314813l1.388887 1.4344.163681 2.4777-2.478493-2.4777 1.042268 1.2944-1.505231 1.0964 1.653439-.9563 2.615524 3.4026-.1023 2.322z"/><path d="m7.8107262 1043.3622c-1.5653082.0941-2.8107262 1.3301-2.8107262 2.8303 0 .058.00581.1122.00946.1697h5.981071c.0036-.057.0095-.1122.0095-.1697 0-1.5612-1.345131-2.8303-3.0000031-2.8303-.064648 0-.125644 0-.189275 0z" fill="#fef39e"/><path d="m7.8738374 1044.3622c-1.0435505.0624-1.8738374.8867-1.8738374 1.8869 0 .039.00388.075.00629.1131h3.9874254c.00241-.038.00629-.074.00629-.1131 0-1.0409-.8967617-1.8869-2.0000212-1.8869-.043099 0-.083767 0-.1261851 0z" fill="#fffbd7" fill-opacity=".556818"/></g></g></svg>