<svg height="24" viewBox="0 0 24 24" width="24" xmlns="http://www.w3.org/2000/svg"><g transform="translate(0 -1028.3622)"><path d="m1.511481 1029.8737h12.977037v8.977038h-12.977037z" style="fill:#729fcf;fill-rule:evenodd;stroke:#3465a4;stroke-width:1.022962;stroke-linecap:square;stroke-linejoin:round;stroke-miterlimit:0"/><path d="m2.514781 1030.877h10.970439v6.970439h-10.970439z" style="fill:none;stroke:#fff;stroke-width:1.029561;stroke-linecap:square;stroke-linejoin:round;stroke-miterlimit:0;stroke-opacity:.2"/><path d="m2.480553 1047.5365s-.091764 2.4705 2.487399 3.2249l1.9719254.036.00433-2.2893c-1.9531749-.01-1.8647953-.1004-1.9014476-1.0075l1.8889389-.036v-1.087l-2.9830236-3.2249-3.39446462 3.2608v1.087z" fill="#fff" fill-rule="evenodd" stroke="#3465a4" stroke-width="1.109001"/><path d="m0 1028.3622h23.975245v24.000013h-23.975245z" fill="#a3a4a2" opacity="0"/><g fill-rule="evenodd"><path d="m21.519173 1033.1874s.09176-2.4702-2.487417-3.2245l-1.97194-.036-.0043 2.289c1.953189.01 1.864808.1004 1.901461 1.0075l-1.888952.036v1.0869l2.983045 3.2246 3.394488-3.2606v-1.0868z" fill="#fff" stroke="#3465a4" stroke-width="1.108955"/><g fill="#204a87" stroke-linecap="square" stroke-linejoin="round" stroke-miterlimit="0" transform="matrix(-.62176624 -.78320287 .78320287 -.62176624 -790.080096 1693.375212)"><path d="m1.511481 1029.8737h12.977037v8.977038h-12.977037z" stroke="#204a87"/><path d="m2.514781 1030.877h10.970439v6.970439h-10.970439z" stroke="#fff" stroke-opacity=".2"/></g></g></g></svg>