<svg height="24" viewBox="0 0 24 24" width="24" xmlns="http://www.w3.org/2000/svg" xmlns:xlink="http://www.w3.org/1999/xlink"><linearGradient id="a" gradientTransform="matrix(1.0148653 0 0 .96781868 .170953 32.956636)" gradientUnits="userSpaceOnUse" x1="-19.375002" x2="-5.375001" y1="1032.1747" y2="1032.1122"><stop offset="0" stop-color="#edd400"/><stop offset="1" stop-color="#c00"/></linearGradient><g transform="translate(0 -1028.3622)"><rect fill="#204a87" height="13.005737" ry=".462351" stroke="#204a87" stroke-width=".494262" transform="scale(-1 1)" width="3.505738" x="-12.502869" y="1039.1093"/><path d="m21.577574 1031.5455c.8182 0 1.422426.6056 1.422426 1.2893v2.4406c0 .6837-.604226 1.2886-1.422426 1.2886h-8.636612c-.66052 0-1.343567.087-1.551719.2413-.20815.1542-.311167.4116-.311167.805l-.0018 1.2519h-.77342l.0018-1.2526c.000138-.4909.115721-1.0283.524281-1.3309.408769-.3028 1.345376-.4165 2.112005-.4165h8.636611c.330041 0 .649007-.1864.649007-.5868v-2.4406c0-.4003-.318966-.6683-.649007-.6683h-6.577553v-.6209h6.577553z" stroke="#000" stroke-width=".5"/><rect fill="url(#a)" height="6.004468" rx="1.295161" ry="2.196881" stroke="#000" stroke-width=".495531" transform="scale(-1 1)" width="20.504469" x="-21.752234" y="1028.61"/><path d="m12.441219 1040.5958h-3.3465461c-.5454605 3.3295-.4107084 6.5309-.0076 9.8605 1.1676551.2729 2.2223911.1777 3.3314391.018.39193-3.3294.521673-6.5484.02274-9.8778z" fill="#729fcf" stroke="#3465a4" stroke-width=".467216"/><path d="m-24 1028.3622h24v24h-24z" fill="#505050" opacity="0" transform="scale(-1 1)"/></g></svg>