<svg height="24" viewBox="0 0 24 24" width="24" xmlns="http://www.w3.org/2000/svg" xmlns:xlink="http://www.w3.org/1999/xlink"><linearGradient id="a" gradientUnits="userSpaceOnUse" x1="943.73547" x2="979.5885"><stop offset="0" stop-color="#6d706a"/><stop offset="1" stop-color="#2d2e2c"/></linearGradient><linearGradient id="b" gradientTransform="matrix(1.5081632 0 0 1.3801491 63.34696 -413.6338)" gradientUnits="userSpaceOnUse" x1="-35.329288" x2="-27.807579" y1="1055.748" y2="1062.0155"><stop offset="0" stop-color="#ee8719"/><stop offset="1" stop-color="#e07c12" stop-opacity="0"/></linearGradient><linearGradient id="c" gradientTransform="matrix(.02238697 0 0 .02444086 4.567895 1027.5528)" gradientUnits="userSpaceOnUse" x1="231.55" x2="320.70001" xlink:href="#d"/><linearGradient id="d" gradientTransform="matrix(.01502614 0 0 .01468232 2.968613 1037.3257)" gradientUnits="userSpaceOnUse" x1="231.55" x2="320.70001"><stop offset="0" stop-color="#a11f7c"/><stop offset="1" stop-color="#541f31" stop-opacity=".984"/></linearGradient><linearGradient id="e" gradientTransform="matrix(.02238698 0 0 .02444086 7.942853 1027.5528)" gradientUnits="userSpaceOnUse" x1="231.55" x2="320.70001" xlink:href="#d"/><linearGradient id="f" gradientUnits="userSpaceOnUse" x1="959.41132" x2="992.17279" y1="-1367.4045" y2="-1385.7935"><stop offset="0" stop-color="#2e3436"/><stop offset="1" stop-color="#6d706a" stop-opacity="0"/></linearGradient><g transform="translate(0 -1028.3622)"><g stroke-linecap="square" transform="matrix(.53095064011 0 0 .37830268144 -499.04267312012 1550.30451273406)"><path d="m946.85-1376.5 35.21657 13.3141" fill="#888a85" stroke="url(#a)" stroke-width="4.7462"/><path d="m975.69-1376.4-28.76 13.91" fill="#555753" stroke="url(#f)" stroke-width="4.9033"/></g><path d="m14.189851 1050.5313c-1.98815-1.9126-2.578643-1.9177-4.099034-.037-1.0566077 1.3079-2.9343626 1.9213-3.8745996.9981-.9458022-.9287-.4283717-2.0567 1.0692677-3.7811 1.8654119-2.148 1.6398873-2.8409-1.0720584-3.2943-2.5409863-.4248-3.533279-1.4983-2.3695925-2.5634.5181927-.4742 1.6305066-.6623 3.9182846-.6623 1.7570102 0 3.1946042-.1112 3.1946042-.2498 0-.1375-.414968-.7327-.92214-1.3228-1.1355926-1.3213-2.0510953-3.1198-.9945533-3.9689 1.5572043-1.2515 5.6392013-1.1997 6.8843653-.062 1.311159 1.2-.48712 3.1375-1.50963 3.9141-1.48212 1.1258-.803672 1.6877 2.037102 1.6877 3.284751 0 4.187356.2716 4.187356 1.2594 0 1.0012-.768825 1.5179-3.112218 2.0911-2.321212.568-2.496026 1.3055-.806869 3.4005.96288 1.1943 1.954224 2.9235.959846 3.7975-.916298.8052-2.658876-.4184-3.489944-1.2095z" fill="url(#b)" stroke="#000" stroke-width=".721368"/><path d="m10.741108 1035.905c-.385923.018-.731993.2525-.8647741.5658-.1924214.4111-.053863.9423.3668571 1.2056.261923.1672.633093.1944.917208.051.395602-.1875.592768-.6084.539194-.9912-.04077-.3359-.280214-.6651-.648803-.7858-.09755-.029-.209859-.053-.309682-.045zm-.151811.5355c.167932.031.184623.2719.02929.3272-.115783.029-.194234-.093-.176731-.182.0062-.07.067-.1398.14744-.1452zm.506505.1127c.168348.029.184427.2714.02928.3266-.115782.029-.193917-.091-.176062-.1816.0049-.073.06766-.1416.146772-.1454zm-.647118.3977c.132855 0 .183371.1616.129653.2536-.03141.087-.175836.1072-.22771.026-.07186-.087-.03837-.2529.09804-.2739h.000015zm.475029.089c.133297 0 .183274.1617.129654.2535-.03141.089-.175836.1054-.22771.023-.07171-.089-.03898-.2536.09805-.2736h.000001z" fill="url(#c)" stroke="#000" stroke-opacity=".62963" stroke-width=".082883"/><rect fill="#fff" height="23.944613" opacity="0" rx=".291452" ry="1.245594" width="23.999258" y="1028.4176"/><path d="m14.116065 1035.905c-.385922.018-.731992.2525-.864773.5658-.192423.4111-.05386.9423.366856 1.2056.261924.1672.633094.1944.917209.051.395602-.1875.592767-.6084.539194-.9912-.04077-.3359-.280215-.6651-.648803-.7858-.09755-.029-.209859-.053-.309683-.045zm-.15181.5355c.167932.031.184623.2719.02929.3272-.115783.029-.194234-.093-.17673-.182.0062-.07.067-.1398.147441-.1452zm.506504.1127c.168348.029.184427.2714.02929.3266-.115784.029-.193918-.091-.176063-.1816.0049-.073.06766-.1416.146773-.1453zm-.647118.3977c.132855 0 .183372.1616.129653.2536-.03141.087-.175836.1072-.22771.026-.07186-.087-.03837-.2529.09804-.2739h.000016zm.475029.089c.133297 0 .183275.1617.129654.2535-.03141.089-.175835.1054-.227709.023-.07172-.089-.03898-.2536.09805-.2736h.000002z" fill="url(#e)" stroke="#000" stroke-opacity=".62963" stroke-width=".082883"/></g></svg>