<svg height="24" viewBox="0 0 24 24" width="24" xmlns="http://www.w3.org/2000/svg" xmlns:xlink="http://www.w3.org/1999/xlink"><linearGradient id="a" gradientTransform="matrix(1.0003114 0 0 .9852831 -.003737 .988992)" gradientUnits="userSpaceOnUse" x1="12" x2="12" y1="1.268379" y2="21.251747"><stop offset="0" stop-color="#eeeeec"/><stop offset="1" stop-color="#d4d4cf"/></linearGradient><rect fill="url(#a)" fill-rule="evenodd" height="23.016216" rx="1.40557" ry="1.540835" stroke="#888a85" stroke-width=".983784" width="23.016216" x=".491892" y=".491892"/><path d="m2.833631 18h3.027728v3.027728h-3.027728z" fill="#2e3436" fill-rule="evenodd"/><path d="m5.861359 18h3.027728v3.027728h-3.027728z" fill="#555753" fill-rule="evenodd"/><path d="m8.889087 18h3.027728v3.027728h-3.027728z" fill="#888a85" fill-rule="evenodd"/><path d="m11.916815 18h3.027728v3.027728h-3.027728z" fill="#babdb6" fill-rule="evenodd"/><path d="m14.944543 18h3.027728v3.027728h-3.027728z" fill="#d3d7cf" fill-rule="evenodd"/><path d="m17.972271 18h3.027728v3.027728h-3.027728z" fill="#eeeeec" fill-rule="evenodd"/><path d="m5.4375 14.5 13.125-11.0625" fill="none" stroke="#babdb6" stroke-linecap="round"/><path d="m5.4471348 14.552865c5.9595652-1.734267 10.5163012-5.2807646 13.1057302-11.1057302" fill="none" stroke="#000" stroke-linecap="round" stroke-width=".89427"/><rect fill="none" height="21.097607" rx=".640129" ry=".629652" stroke="#fff" stroke-width=".902392" width="21.126432" x="1.436784" y="1.451196"/><g fill-rule="evenodd"><circle cx="3.49999967403" cy="2.50000084237" fill="#555753" r=".49999965853"/><circle cx="3.49999967403" cy="4.50000084237" fill="#555753" r=".49999965853"/><circle cx="3.49999967403" cy="6.50000084237" fill="#555753" r=".49999965853"/><circle cx="3.49999967403" cy="8.50000084237" fill="#555753" r=".49999965853"/><circle cx="3.49999967403" cy="10.50000084237" fill="#555753" r=".49999965853"/><circle cx="3.49999967403" cy="12.50000084237" fill="#555753" r=".49999965853"/><circle cx="3.49999967403" cy="14.50000084237" fill="#555753" r=".49999965853"/><circle cx="3.49999967403" cy="16.50000084237" fill="#555753" r=".49999965853"/><circle cx="20.506096" cy="2.521632" fill="#555753" r=".309359" transform="matrix(0 -1.6162441 1.6162441 0 1.424428 49.642856)"/><circle cx="20.506096" cy="2.521632" fill="#555753" r=".309359" transform="matrix(0 -1.6162441 1.6162441 0 3.424428 49.642856)"/><circle cx="20.506096" cy="2.521632" fill="#555753" r=".309359" transform="matrix(0 -1.6162441 1.6162441 0 5.424428 49.642856)"/><circle cx="20.506096" cy="2.521632" fill="#555753" r=".309359" transform="matrix(0 -1.6162441 1.6162441 0 7.424428 49.642856)"/><circle cx="20.506096" cy="2.521632" fill="#555753" r=".309359" transform="matrix(0 -1.6162441 1.6162441 0 9.424428 49.642856)"/><circle cx="20.506096" cy="2.521632" fill="#555753" r=".309359" transform="matrix(0 -1.6162441 1.6162441 0 11.424428 49.642856)"/><circle cx="20.506096" cy="2.521632" fill="#555753" r=".309359" transform="matrix(0 -1.6162441 1.6162441 0 13.424428 49.642856)"/><circle cx="20.506096" cy="2.521632" fill="#555753" r=".309359" transform="matrix(0 -1.6162441 1.6162441 0 15.424428 49.642856)"/></g></svg>