<svg height="24" viewBox="0 0 24 24" width="24" xmlns="http://www.w3.org/2000/svg" xmlns:xlink="http://www.w3.org/1999/xlink"><linearGradient id="a" gradientTransform="matrix(1.0003114 0 0 .9852831 -.003737 .988992)" gradientUnits="userSpaceOnUse" x1="12" x2="12" y1="1.268379" y2="21.251747"><stop offset="0" stop-color="#eeeeec"/><stop offset="1" stop-color="#d4d4cf"/></linearGradient><rect fill="url(#a)" fill-rule="evenodd" height="23.016216" rx="1.40557" ry="1.540835" stroke="#888a85" stroke-width=".983784" width="23.016216" x=".491892" y=".491892"/><rect fill="none" height="21.097607" rx=".640129" ry=".629652" stroke="#fff" stroke-width=".902392" width="21.126432" x="1.436784" y="1.451196"/><g fill="#ff0"><path d="m3 18h3v3h-3z"/><path d="m3 13h3v3h-3z" opacity=".75"/><path d="m3 8h3v3h-3z" opacity=".5"/><path d="m3 3h3v3h-3z" opacity=".25"/></g><path d="m13 18h3v3h-3z" fill="#f0f"/><path d="m13 13h3v3h-3z" fill="#f0f" opacity=".75"/><path d="m13 8h3v3h-3z" fill="#f0f" opacity=".5"/><path d="m13 3h3v3h-3z" fill="#f0f" opacity=".25"/><path d="m8 18h3v3h-3z" fill="#0ff"/><path d="m8 13h3v3h-3z" fill="#0ff" opacity=".75"/><path d="m8 8h3v3h-3z" fill="#0ff" opacity=".5"/><path d="m8 3h3v3h-3z" fill="#0ff" opacity=".25"/><path d="m18 18h3v3h-3z"/><path d="m18 13h3v3h-3z" opacity=".75"/><path d="m18 8h3v3h-3z" opacity=".5"/><path d="m18 3h3v3h-3z" opacity=".25"/></svg>