<svg height="24" viewBox="0 0 6.3499998 6.3500002" width="24" xmlns="http://www.w3.org/2000/svg"><g fill-rule="evenodd"><g transform="translate(.529167 -291.179133)"><path d="m-.264583 291.44373h5.820833v5.820833h-5.820833z" fill="#4040ff"/><path d="m-.26458335 291.44372 5.82083335 5.82083v-5.82083z" fill="#ff4040"/></g><g fill="#3030bf" transform="translate(0 .00001)"><path d="m.26458333.26458333.52916666.52916666-.52916666.52916661z"/><path d="m1.3229166 1.3229166.5291667.5291667-1.58749997 1.5875v-1.0583333z"/><path d="m2.38125 2.38125.5291666.5291666-2.64583327 2.6458333v-1.0583333z"/><path d="m3.4395833 3.4395833.5291667.5291667-2.1166667 2.1166666h-1.05833331z"/><path d="m4.4979166 4.4979166.5291667.5291667-1.0583333 1.0583333h-1.0583334z"/><path d="m5.5562499 5.5562499.5291667.5291667h-1.0583333z"/></g><g fill="#bf3030" transform="translate(0 .00001)"><path d="m.79374999.79374999.52916661.52916661 1.0583334-1.05833327h-1.0583334z"/><path d="m1.8520833 1.8520833.5291667.5291667 2.1166666-2.11666667h-1.0583333z"/><path d="m2.9104166 2.9104166.5291667.5291667 2.6458333-2.64583331v-.52916666h-.5291667z"/><path d="m3.96875 3.96875.5291666.5291666 1.5875-1.5875v-1.0583333z"/><path d="m5.0270833 5.0270833.5291666.5291666.5291667-.5291666v-1.0583333z"/></g></g><rect fill="none" height="6.089707" rx=".37189" ry=".407679" stroke="#888a85" stroke-width=".260293" width="6.089707" x=".130146" y=".13014"/><rect fill="none" height="5.582075" rx=".169367" ry=".166595" stroke="#fff" stroke-width=".238758" width="5.589702" x=".380149" y=".38396"/><path d="m0 .00001h6.35v6.35h-6.35z" fill="none"/></svg>