<svg height="24" viewBox="0 0 24 24" width="24" xmlns="http://www.w3.org/2000/svg" xmlns:xlink="http://www.w3.org/1999/xlink"><linearGradient id="a"><stop offset="0" stop-color="#888a85"/><stop offset="1" stop-color="#4a4b48"/></linearGradient><radialGradient id="b" cx="3.914371" cy="18.349249" gradientTransform="matrix(1.6219462 -.46643994 .32370432 1.3097446 -9.691753 -28.385071)" gradientUnits="userSpaceOnUse" r="19.769346"><stop offset="0" stop-color="#fff"/><stop offset="1" stop-color="#d3d7cf"/></radialGradient><linearGradient id="c" gradientTransform="matrix(1.0891277 0 0 1.1689223 -329.98611 -215.42631)" gradientUnits="userSpaceOnUse" x1="321.49927" x2="321.49927" y1="200.12854" y2="182.86234"><stop offset="0" stop-color="#2e3436"/><stop offset="1" stop-color="#babdb6"/></linearGradient><radialGradient id="d" cx="308.95609" cy="184.99548" gradientTransform="matrix(2.2894469 0 0 1.6485817 -701.39302 -304.6709)" gradientUnits="userSpaceOnUse" r="8"><stop offset="0" stop-color="#fff"/><stop offset="1" stop-color="#eeeeec"/></radialGradient><linearGradient id="e" gradientTransform="matrix(1.1264187 0 0 1.0814801 -341.69547 -198.81823)" gradientUnits="userSpaceOnUse" x1="313.24954" x2="313.24954" y1="205.79558" y2="183.75737"><stop offset="0" stop-color="#888a85"/><stop offset="1" stop-color="#d3d7cf"/></linearGradient><linearGradient id="f" gradientTransform="matrix(.4305409 -.5319753 .4931292 .4644567 17.523312 29.3483)" gradientUnits="userSpaceOnUse" x1="46.5" x2="46.5" xlink:href="#a" y1="4" y2="8"/><linearGradient id="g" gradientTransform="matrix(.4305409 -.5319753 .4931292 .4644567 18.912037 27.929845)" gradientUnits="userSpaceOnUse" x1="6.5" x2="6.5" xlink:href="#a" y1="3" y2="9"/><linearGradient id="h" gradientUnits="userSpaceOnUse" x1="36.551838" x2="33.716503" y1="16.344336" y2="13.448302"><stop offset="0" stop-color="#2e3436"/><stop offset="1" stop-color="#a8b2b5"/></linearGradient><g transform="translate(0 8)"><g stroke-linecap="round" stroke-linejoin="round"><rect fill="url(#b)" height="19.871681" rx="1.633691" ry="1.753383" stroke="url(#c)" stroke-width="1.12832" width="22.871679" x=".56416" y="-4.435841"/><rect fill="url(#d)" height="11.896279" rx="1.206877" ry="1.049672" stroke="url(#e)" stroke-width="1.10372" width="16.89628" x="3.55186" y="-1.448139"/><rect fill="none" height="16.912937" rx=".524025" ry=".563765" stroke="#fff" stroke-width="1.087063" width="19.912937" x="2.044883" y="-2.95513"/></g><g enable-background="new" transform="matrix(.7846779 0 0 .80264712 -12.853709 -12.900417)"><path d="m38.681414 8.0373428.440097-.543783c.235873-.2914437.643258-.3212227.913419-.066769l.504075.4747656c.270161.2544535.297766.6939299.06189.9853738l-.440097.543783c-.235873.2914438-.643258.3212227-.91342.066769l-.50407-.4747656c-.270162-.2544535-.297767-.69393-.06189-.9853738z" fill="#888a85"/><path d="m38.681414 8.0373428.440097-.543783c.235873-.2914437.643258-.3212227.913419-.066769l.504075.4747656c.270161.2544535.297766.6939299.06189.9853738l-.440097.543783c-.235873.2914438-.643258.3212227-.91342.066769l-.50407-.4747656c-.270162-.2544535-.297767-.69393-.06189-.9853738z" fill="url(#f)" stroke="#babdb6" stroke-linecap="round" stroke-linejoin="round" stroke-width="1.403511"/><path d="m33.436616 19.110318 7.54792-9.3261926c.589682-.7286088.825191-1.5371999.523538-1.8213137l-1.386927-1.3062845c-.301653-.2841136-1.012575.0767054-1.602257.8053147l-7.54792 9.3261921z" fill="#888a85"/><path d="m33.436616 19.110318 6.159195-7.907738c.589682-.728609.520181-1.2757929.218528-1.5599067l-1.386926-1.3062845c-.301653-.2841136-.707566-.1847017-1.297248.5439076l-6.159195 7.9077376z" fill="none" stroke="#fff" stroke-linecap="round" stroke-linejoin="round" stroke-width="1.403511"/><path d="m22.516623 29.918622 1.381717-3.854778 1.972516 1.857827z" fill="none" stroke="#fff" stroke-linecap="round" stroke-linejoin="round" stroke-width="1.403511"/><path d="m23.683069 26.329831 1.972517 1.857827.677105-.299747 6.704678-7.747401.399247-1.030192-2.465646-2.322284-.892376.565735-6.211549 8.211859z" fill="url(#g)"/><path d="m23.683069 26.329831 1.972517 1.857827.677105-.299747 6.704678-7.747401.399247-1.030192-2.465646-2.322284-.892376.565735-6.211549 8.211859z" fill="#888a85" stroke="#fff" stroke-linecap="round" stroke-linejoin="round" stroke-width="1.403511"/><path d="m22.054788 29.952381c-.11883.146826-.104809.370026.03129.498216.136104.12819.343006.113066.461835-.03376l.430541-.531976-.49313-.464456-.43054.531975z" fill="#eeeeec" fill-rule="evenodd"/><path d="m22.057089 30.486421 3.508335-1.807168 1.098399-.514606 6.785461-7.710043.506803-1.300263 6.227634-7.992302c.577576-.713651.832724-1.6163623.532644-2.0062511l.394909-.4879497c.244282-.3018338.165954-.8146003-.173236-1.1340678l-.619126-.5831276c-.339189-.3194675-.820733-.3340215-1.065015-.032187 0 0-.241639.2985678-.39491.4879495-.398596-.2681631-1.19332.1263445-1.770895.8399964l-6.227635 7.9923013-1.125929.717136-6.166336 8.29317-.324491 1.243515z" fill="none" stroke="url(#h)" stroke-miterlimit="1" stroke-width="1.207019"/></g></g></svg>