<svg height="24" viewBox="0 0 24 24" width="24" xmlns="http://www.w3.org/2000/svg" xmlns:xlink="http://www.w3.org/1999/xlink"><radialGradient id="a" cx="-6.007017" cy="32.837029" gradientTransform="matrix(.462962 0 0 .44272 14.86446 6.713194)" gradientUnits="userSpaceOnUse" r="9.90625"><stop offset="0" stop-color="#fce94f"/><stop offset="1" stop-color="#fce94f" stop-opacity="0"/></radialGradient><linearGradient id="b" gradientTransform="matrix(.46320735 0 0 .46690211 21.018191 5.928581)" gradientUnits="userSpaceOnUse" x1="-11.986486" x2="-11.986486" y1="13.122552" y2="29.726542"><stop offset="0" stop-color="#555753"/><stop offset="1" stop-color="#fcaf3e"/></linearGradient><linearGradient id="c" gradientTransform="matrix(.45264142 0 0 .40268835 4.602581 8.041616)" gradientUnits="userSpaceOnUse" x1="25.355263" x2="25.355263" y1="34.006802" y2="32.409008"><stop offset="0" stop-color="#2e3436"/><stop offset="1" stop-color="#2e3436" stop-opacity="0"/></linearGradient><linearGradient id="d" gradientTransform="matrix(1.143032 0 0 -.89853518 -23.627847 1050.9961)" gradientUnits="userSpaceOnUse" x1="21.9326" x2="21.9326" y1="24.627399" y2="7.1091"><stop offset="0" stop-color="#8595bc"/><stop offset="1" stop-color="#041a3b"/></linearGradient><linearGradient id="e" gradientTransform="matrix(1.143032 0 0 1.2252911 -23.627847 1003.8833)" gradientUnits="userSpaceOnUse" x1="21.9326" x2="21.9326" y1="24.627399" y2="7.1091"><stop offset="0" stop-color="#d0d6e5" stroke-width="1.216667"/><stop offset="1" stop-color="#093a80" stroke-width="1.216667"/></linearGradient><rect fill="none" height="11.203236" rx=".202546" ry=".202066" stroke="#888a85" stroke-linecap="round" stroke-linejoin="round" stroke-width=".999999" transform="matrix(1.0455626 0 0 1.2292038 -7.16956 -13.2716)" width="16.216183" x="7.357145" y="11.296763"/><g transform="matrix(.45072513 0 0 .47076797 8.149428 -476.89181)"><path d="m-15.862058 1042.7468h35.498354v-11.683h-35.498354z" fill="url(#d)"/><path d="m-15.862058 1015.1324h35.498354v15.9314h-35.498354z" fill="url(#e)"/><path d="m7.145401 1032.876h9.156798l1.756097.4994h-3.010453s3.010453.2498 4.515682 2.1228c1.505225 1.7481-1.756099 3.8708-1.756099 3.8708-.125435-.3746-.87805-3.3714-2.383276-4.62-1.128922-.999-2.383277-1.2487-2.383277-1.2487h-5.895472v-.4995z" opacity=".3"/><path d="m4.5428483 1033.2948h9.1567977l1.379792-.9036h-3.010453s2.75958-.5164 3.135888-3.7437c.376305-3.2272-4.26481-6.8417-4.26481-6.8417v.1291c.125434.7745 1.379789 6.1963.501743 8.2617-.376309 1.8073-1.5052277 2.1946-1.5052277 2.1946h-5.770037l.250872.9036z" fill="#515151"/><path d="m13.166311 1033.6252h-5.268295l9.783975 5.4941z" opacity=".3"/><path d="m10.062015 1031.8748h-5.2682947l6.2717767-9.8109z" fill="#515151"/></g><g transform="matrix(1.0526438 0 0 1.2416537 -1.280174 -4.4849)"><rect fill="url(#b)" height="11.205638" rx=".202653" ry=".20211" stroke="#888a85" stroke-linecap="round" stroke-linejoin="round" stroke-width=".8747" width="16.224777" x="7.353598" y="11.297948"/><path d="m11.79411 16.401215c-2.392951.151471-4.296871 2.150075-4.296871 4.575364 0 .09366.00889.181964.014468.274234h9.143509c.0056-.09227.01447-.180574.01447-.274234 0-2.523879-2.056354-4.575364-4.586223-4.575364-.09882 0-.192077-.0062-.289351 0z" fill="url(#a)" fill-rule="evenodd"/><path d="m7.771075 21.330343h15.389821v.805378h-15.389821z" fill="url(#c)"/><g fill-rule="evenodd"><path d="m18.031043 21.675958s-.257213-1.424098-.257213-2.296525c.0071-.39799 3.604954-3.498458 3.614237-3.960285l-.836462.727219-.585726-1.589717 1.974613.204118.925925-.923733-1.048689.768044-.360661-.08165-.4425-1.610129.22506 1.569306-1.63441-.08165.511509 1.29875-1.416971-1.400809 1.498813 1.949752c.000037.43486-2.954107 3.089518-2.949079 2.631777l-1.225207-1.639426-.102301-2.216308.925925-.263924.811179-1.99555-1.069313 1.844378-.834796-.03774-1.868696-1.574507-2.565841-.979767 2.192051 1.201894-1.757172.155689h2.314813l1.388887 1.385599.163681 2.393383-2.478493-2.393383 1.042268 1.250322-1.505231 1.05901 1.653439-.923733 2.615524 3.286696-.1023 2.242895h1.183137z"/><path d="m11.712722 18.933734c-1.372367.07619-2.4642745 1.081479-2.4642745 2.301389 0 .04711.0051.09153.00829.137938h5.2438415c.0032-.04641.0083-.09083.0083-.137938 0-1.2695-1.17933-2.301389-2.630221-2.301389-.05668 0-.110157-.0031-.165945 0z" fill="#fef39e"/><path d="m11.757998 19.746841c-.998096.05079-1.7922183.720986-1.7922183 1.53426 0 .03141.0037.06102.006.09196h3.8137453c.0023-.03094.006-.06055.006-.09196 0-.846334-.857704-1.53426-1.912909-1.53426-.04122 0-.08012-.0021-.120689 0z" fill="#fffbd7" fill-opacity=".556818"/></g></g></svg>