<svg height="24" viewBox="0 0 24 24" width="24" xmlns="http://www.w3.org/2000/svg"><g transform="translate(0 -1028.3622)"><g transform="matrix(1.5714914 0 0 1.6665294 -.286186 -700.76477)"><path d="m4.0961768 1048.4588v2.8077h6.8076462v-2.8077z" fill="#73d216" stroke="#000" stroke-linecap="round" stroke-width=".192354"/><path d="m5 1049.3622h5v1h-5z" fill="#4e9a06"/></g><path d="m0 1028.3622h24v24h-24z" fill="#fff" opacity="0"/><g transform="matrix(1.5714246 0 0 1.6666433 1.229316 -709.38434)"><path d="m4.0961768 1048.4588v2.8077h6.8076462v-2.8077z" fill="#729fcf" stroke="#000" stroke-linecap="round" stroke-width=".192354"/><path d="m5 1049.3622h5v1h-5z" fill="#3465a4"/></g><path d="m18.353062 1047.7153h5.293877v2.293877h-5.293877z" fill="#555753" stroke="#fff" stroke-width=".706124"/><path d="m.383288 1047.7455h4.233424v2.233424h-4.233424z" fill="#555753" stroke="#fff" stroke-linecap="round" stroke-width=".766576"/><g transform="matrix(1.5689309 0 0 1.6724755 -.270624 -724.01088)"><path d="m4.0961768 1048.4588v2.8077h6.8076462v-2.8077z" fill="#c00" stroke="#000" stroke-linecap="round" stroke-width=".192354"/><path d="m5 1049.3622h5v1h-5z" fill="#a40000"/></g><g fill="#555753" stroke="#fff"><path d="m.383288 1030.7455h4.233424v2.233424h-4.233424z" stroke-linecap="round" stroke-width=".766576"/><path d="m19.383287 1039.2455h4.233424v2.233424h-4.233424z" stroke-linecap="round" stroke-width=".766576"/><path d="m18.353062 1030.7152h5.293877v2.293877h-5.293877z" stroke-width=".706124"/><path d="m.353062 1039.2152h5.293877v2.293877h-5.293877z" stroke-width=".706124"/></g></g></svg>