<svg height="24" viewBox="0 0 24 24" width="24" xmlns="http://www.w3.org/2000/svg"><path d="m0 0h24v24h-24z" opacity="0"/><rect fill="#ecedea" height="22.041695" rx=".688266" ry=".690962" stroke="#888a85" stroke-width=".958305" width="22.041695" x=".4788" y="1.4795"/><g fill="#2e3436" transform="translate(0 -1027.3622)"><circle cx="7.5" cy="1035.862217" r=".5"/><circle cx="7.5" cy="1043.8622" r=".5"/><circle cx="15.5" cy="1031.862234" r=".5"/><circle cx="15.5" cy="1033.862234" r=".5"/><circle cx="15.5" cy="1035.862234" r=".5"/><circle cx="15.5" cy="1037.862234" r=".5"/><circle cx="15.5" cy="1039.862234" r=".5"/><circle cx="15.5" cy="1041.862234" r=".5"/><circle cx="15.5" cy="1043.862217" r=".5"/><circle cx="15.5" cy="1045.862217" r=".5"/><circle cx="15.5" cy="1047.862217" r=".5"/><g transform="matrix(0 1 -1 0 1051.362212 1028.362188)"><circle cx="7.5" cy="1031.862217" r=".5"/><circle cx="7.5" cy="1033.862217" r=".5"/><circle cx="7.5" cy="1035.862217" r=".5"/><circle cx="7.5" cy="1037.862217" r=".5"/><circle cx="7.5" cy="1039.862217" r=".5"/><circle cx="7.5" cy="1041.862217" r=".5"/><circle cx="7.5" cy="1045.8622" r=".5"/><circle cx="7.5" cy="1047.8622" r=".5"/></g><g transform="matrix(0 1 -1 0 1051.362197 1036.362204)"><circle cx="7.5" cy="1031.862217" r=".5"/><circle cx="7.5" cy="1033.862217" r=".5"/><circle cx="7.5" cy="1035.862217" r=".5"/><circle cx="7.5" cy="1037.862217" r=".5"/><circle cx="7.5" cy="1039.862217" r=".5"/><circle cx="7.5" cy="1041.862217" r=".5"/><circle cx="7.5" cy="1032.8622" r=".5" transform="matrix(0 -1 1 0 -1037.362204 1051.362197)"/><circle cx="7.5" cy="1034.8622" r=".5" transform="matrix(0 -1 1 0 -1037.362204 1051.362197)"/><circle cx="7.5" cy="1034.8622" r=".5" transform="matrix(0 -1 1 0 -1033.362204 1051.362197)"/><circle cx="7.5" cy="1032.8622" r=".5" transform="matrix(0 -1 1 0 -1029.362204 1051.362196)"/><circle cx="7.5" cy="1034.8622" r=".5" transform="matrix(0 -1 1 0 -1029.362204 1051.362196)"/><circle cx="7.5" cy="1045.8622" r=".5" transform="matrix(0 -1 1 0 -1036.362204 1051.362197)"/><circle cx="7.5" cy="1047.8622" r=".5" transform="matrix(0 -1 1 0 -1036.362204 1051.362197)"/><circle cx="-.500014" cy="1043.862186" r=".5"/><circle cx="7.5" cy="1043.8622" r=".5"/><circle cx="7.5" cy="1045.8622" r=".5"/><circle cx="7.5" cy="1047.8622" r=".5"/></g></g></svg>