<svg height="24" viewBox="0 0 24 24" width="24" xmlns="http://www.w3.org/2000/svg" xmlns:xlink="http://www.w3.org/1999/xlink"><linearGradient id="a" gradientTransform="matrix(.60072171 0 0 .60098717 -1.832228 23.944582)" gradientUnits="userSpaceOnUse" x1="18.112709" x2="15.514889" y1="31.36775" y2="6.18025"><stop offset="0" stop-color="#424242"/><stop offset="1" stop-color="#777"/></linearGradient><linearGradient id="b" gradientTransform="matrix(.58583149 0 0 .59874372 -1.306445 24.343264)" gradientUnits="userSpaceOnUse" x1="22.175976" x2="22.065331" y1="36.987999" y2="32.050499"><stop offset="0" stop-color="#6194cb"/><stop offset="1" stop-color="#729fcf"/></linearGradient><linearGradient id="c" gradientTransform="matrix(.77184067 0 0 .50168839 -1.887946 23.335751)" gradientUnits="userSpaceOnUse" x1="13.035696" x2="12.853771" y1="32.567184" y2="46.689312"><stop offset="0" stop-color="#fff" stop-opacity=".796078"/><stop offset="1" stop-color="#fff" stop-opacity=".215686"/></linearGradient><linearGradient id="d" gradientTransform="matrix(.52865572 0 0 .82235256 1245.4619 280.96906)" gradientUnits="userSpaceOnUse" x1="33.5" x2="32.615303" y1="38.100506" y2="30.145555"><stop offset="0" stop-color="#babdb6"/><stop offset="1" stop-color="#eeeeec"/></linearGradient><linearGradient id="e" gradientTransform="matrix(.52865572 0 0 .82235256 1245.4619 280.96906)" gradientUnits="userSpaceOnUse" x1="29.375" x2="32" y1="17.625" y2="36.6875"><stop offset="0" stop-color="#888a85"/><stop offset="1" stop-color="#555753"/></linearGradient><path d="m.88410381 47.195223c.013093.250194.27627479.500388.52635809.500388h18.8188211c.250082 0 .487072-.250194.473979-.500388l-.562542-16.362918c-.0131-.250193-.276269-.500392-.526352-.500392h-7.972102c-.291384 0-.741575-.189664-.841998-.665071l-.367276-1.738699c-.0934-.44213-.5299647-.623756-.780048-.623756h-8.87798108c-.25008813 0-.48707765.250193-.47398438.500387z" fill="#fff" stroke="url(#a)" stroke-linecap="round" stroke-linejoin="round" stroke-width=".600854" transform="translate(0 -24)"/><path d="m.003854 0h23.996145v23.996084h-23.996145z" fill="#bebebe" opacity="0"/><g transform="matrix(1.1248197 0 0 1.1250004 -286.38397 -46.361268)"><path d="m266.78786 41.808831c-1.46714 0-2.72895 1.42916-3.22149 3.4436-.23837-.0891-.48756-.15419-.74342-.15419-1.75091 0-3.17193 2.21048-3.17193 4.93411s1.42102 4.93412 3.17193 4.93412c.40854 0 .79767-.14065 1.15643-.35978.57816 1.21141 1.50044 2.00449 2.54416 2.00448.81236 0 1.55325-.47705 2.11462-1.25922.30989.27719.67441.43687 1.05731.43687.57508 0 1.08899-.37077 1.47032-.95084.20803.082.41996.12849.6443.12849 1.45908 0 2.64327-1.84207 2.64327-4.11176 0-1.34066-.41838-2.53865-1.05731-3.28941 0-2.2697-1.18419-4.11177-2.64327-4.11177-.44522 0-.85432.18544-1.22252.48827-.62731-1.2942-1.62091-2.13297-2.7424-2.13297z" style="fill-rule:evenodd;stroke-width:1.197655;stroke-linecap:round;stroke-linejoin:round;fill:url(#d);stroke:url(#e)"/><path d="m33 21.583984c-2.322807 0-4.306477 1.454315-5.080078 3.488282a1.0838078 1.0838078 0 0 1 -1.267578.667968c-.400612-.09628-.78649-.15625-1.152344-.15625-2.725648 0-4.916016 2.190367-4.916016 4.916016s2.190369 4.916016 4.916016 4.916016c.612912 0 1.213691-.134635 1.791016-.361328a1.0838078 1.0838078 0 0 1 1.267578.361328c.899781 1.211976 2.320039 2 3.941406 2 1.263934 0 2.40534-.47283 3.277344-1.253907a1.0838078 1.0838078 0 0 1 1.263672-.132812c.423728.243657.928392.386718 1.458984.386719.788379 0 1.485054-.321167 2.023438-.847657a1.0838078 1.0838078 0 0 1 1.023437-.27539c.318379.08062.625137.123047.953125.123047 2.173636 0 3.916016-1.742362 3.916016-3.916016 0-1.279551-.620635-2.418873-1.56836-3.134766a1.0838078 1.0838078 0 0 1 -.43164-.865234c0-2.173656-1.742372-3.916016-3.916016-3.916016-.648728 0-1.241801.170095-1.806641.46875a1.0838078 1.0838078 0 0 1 -1.371093-.30664c-.990966-1.314286-2.548223-2.16211-4.322266-2.16211z" fill="none" stroke="#fff" stroke-linecap="round" stroke-linejoin="round" stroke-width="1.840081" transform="matrix(.49612542 0 0 .80988198 250.43197 25.318451)"/><g transform="matrix(.9980455 0 0 .9980455 259.06782 39.229541)"><path d="m5.999993 7.999994 3.000007.000006v1h-2v1.000001h1v.999999h-1v1.043868l2-.043868v1l-3.000007-.000013zm3.974455 0 1.025552.000006 1.000001 2.521449v-2.521449l1.027867.000007v4.999993h-1.027867l-1.000001-2.521449v2.521449l-1.025552-.000013z"/><path d="m4.743101 8.24532v.6358942c-.218841-.1183525-.4253112-.2065817-.6194094-.2646875-.194103-.0580975-.3815436-.0871484-.5623218-.0871534-.3139884.000005-.556614.068866-.727878.206585-.1693632.1377275-.2540448.3335525-.2540436.5874759-.0000012.2130441.056136.3744383.168411.4841841.1141758.1075992.3292086.1947517.6450996.2614587l.3482394.0807c.4300644.09253.7469052.256082.9505236.490639.2055156.232406.3082746.544436.3082782.936085-.0000036.466969-.1389186.82096-.4167462 1.061976-.2759304.241015-.681258.361522-1.2159846.361523-.2017146-.000001-.4167474-.025823-.6451002-.077469-.2264514-.051647-.461466-.12804-.7050426-.229181v-.671401c.2340618.148484.4633674.260384.6879162.335701.224547.07532.4452882.112977.6622266.112976.329208.000001.5832516-.07316.7621314-.219497.1788744-.14633.2683128-.355067.2683158-.626211-.000003-.23671-.064703-.421775-.1941012-.555196-.1275-.133417-.3377754-.233481-.630828-.300194l-.3510942-.077469c-.4300674-.096834-.7411992-.248544-.933396-.455132-.1921986-.206582-.2882976-.4938637-.288297-.8618462-.0000006-.4260775.1322544-.7617775.396765-1.0071016.2664114-.2453142.6327294-.3679742 1.0989528-.3679792.1998084.000005.4034238.020448.6108468.061329.2074188.040892.419598.1022225.6365364.1839908"/><path d="m3.5 7.4722718v6.0277282" fill="none" stroke="#000" stroke-linecap="square"/></g></g><g transform="matrix(.99949608 0 0 1.0005166 -.461871 -24.322559)"><path d="m22 48c.670129-.02638 1.150031-.656403 1.199218-1.389688.463853-6.914704.972105-12.712496.972105-12.712496.04227-.14818-.09837-.296359-.281282-.296359h-20.1357041s-1.0839751 13.092665-1.0839751 13.092665c-.06711.588005-.2730018 1.080563-.9079425 1.307485l20.2375807-.0016z" display="block" fill="url(#b)" stroke="#3465a4" stroke-linejoin="round" stroke-width=".592258"/><path d="m4.2632901 34.265001 19.2104099.039836-.922143 12.293645c-.0494.658573-.264026.877811-1.097081.877811-1.096404 0-16.8007636-.01992-18.3923648-.01992.1368518-.197177.1955282-.607628.1963136-.617456z" fill="none" opacity=".465909" stroke="url(#c)" stroke-linecap="round" stroke-width=".600059"/></g></svg>