<svg height="24" viewBox="0 0 24 24" width="24" xmlns="http://www.w3.org/2000/svg" xmlns:xlink="http://www.w3.org/1999/xlink"><linearGradient id="a"><stop offset="0" stop-color="#fff" stop-opacity="0"/><stop offset=".5" stop-color="#fff"/><stop offset="1" stop-color="#fff" stop-opacity="0"/></linearGradient><radialGradient id="b" cx="-24.00001588352" cy="29.94941911648" gradientUnits="userSpaceOnUse" r="32.51736980912"><stop offset="0" stop-color="#f2f4f1"/><stop offset="1" stop-color="#d3d7cf"/></radialGradient><linearGradient id="c" gradientUnits="userSpaceOnUse" x1="-23.99999938432" x2="-23.99999938432" y1="13.55374364096" y2="34.91782262832"><stop offset="0" stop-color="#eeeeec"/><stop offset="1" stop-color="#fff"/></linearGradient><linearGradient id="d" gradientUnits="userSpaceOnUse" x1="38.292995" x2="39.4375" xlink:href="#a" y1="6.717449" y2="8.161993"/><linearGradient id="e" gradientUnits="userSpaceOnUse" x1="8.116879" x2="9.06748" xlink:href="#a" y1="7.933439" y2="6.784391"/><g transform="matrix(.6314947 0 0 .61601823 -3.162205 -2.476429)"><rect display="block" fill="#d3d7cf" height="37.959873" rx="4.534281" ry="4.651275" stroke="#888a85" width="37.00507" x="5.507493" y="4.52007"/><rect display="block" fill="url(#b)" height="29.00633" rx="3.554185" stroke="url(#c)" transform="scale(-1 1)" width="29.00633" x="-38.503174" y="7.496841"/><path d="m32.442896 30.089809h-2.098273v-1.373612c-.836432 1.110427-1.939647 1.66564-3.309648 1.66564-1.096008 0-1.96488-.295633-2.606618-.886899-.63453-.598475-.951795-1.395242-.951794-2.390301-.000001-.677789.129789-1.265449.389371-1.762982.266789-.497524.663369-.901315 1.189742-1.211375.533579-.310047 1.225792-.519154 2.076642-.627318l3.212305-.432634c-.000008-.850838-.180272-1.488973-.540792-1.914404-.353324-.425414-.8833-.638125-1.589929-.638135-.58406.00001-1.207773.111773-1.871141.335291-.656164.223537-1.243824.548012-1.762982.973426v-2.130721c1.348372-.677782 2.617429-1.016678 3.807177-1.016689 1.312315.000011 2.314582.364144 3.006804 1.0924.699415.728276 1.049127 1.759386 1.049136 3.093331zm-2.098273-4.18573v-1.265454c-1.802646.230743-2.819334.364138-3.050068.400186-.223531.03606-.501138.12619-.832819.270396-.324479.144216-.555217.335296-.692214.57324-.129793.237952-.194688.584059-.194685 1.038321-.000003.511952.180261.930164.540792 1.254637.367735.317267.847236.475899 1.438507.475897.735471.000002 1.384421-.263183 1.946851-.789556.562417-.526368.843628-1.178923.843636-1.957667m.908531-12.157007-2.909462 3.547596h-1.438507l2.347038-3.547596z"/><rect display="block" fill="none" height="36.011204" opacity=".488889" rx="3.537501" stroke="#fff" width="35.105415" x="6.457317" y="5.494402"/><path d="m5.9375 38.5c.0625 1.125 1.3125 2.9375 2.8125 3.3125l2.1875-5.5-.9375-.6875z" display="block" fill="#fff" opacity=".488889"/><path d="m42.0625 38.5c-.0625 1.125-1.3125 2.9375-2.8125 3.3125l-2.1875-5.5.9375-.6875z" display="block" fill="#fff" opacity=".488889"/><path d="m41.5 7.125c-.4375-.5625-1.1875-1.625-2.1875-1.9375l-1.9375 2.5625.9375 1z" display="block" fill="url(#d)"/><path d="m6.4375 7.125c.4375-.5625 1.125-1.5625 2.125-1.875l1.875 2.6875-.6875 1z" display="block" fill="url(#e)"/></g></svg>