<svg height="24" viewBox="0 0 24 24" width="24" xmlns="http://www.w3.org/2000/svg" xmlns:xlink="http://www.w3.org/1999/xlink"><linearGradient id="a" gradientTransform="matrix(.60072171 0 0 .60098717 -1.832228 -.055418)" gradientUnits="userSpaceOnUse" x1="18.112709" x2="15.514889" y1="31.36775" y2="6.18025"><stop offset="0" stop-color="#424242"/><stop offset="1" stop-color="#777"/></linearGradient><linearGradient id="b" gradientTransform="matrix(.58583149 0 0 .59874372 -1.306445 24.343264)" gradientUnits="userSpaceOnUse" x1="22.175976" x2="22.065331" y1="36.987999" y2="32.050499"><stop offset="0" stop-color="#6194cb"/><stop offset="1" stop-color="#729fcf"/></linearGradient><linearGradient id="c" gradientTransform="matrix(.77184067 0 0 .50168839 -1.887946 23.335751)" gradientUnits="userSpaceOnUse" x1="13.035696" x2="12.853771" xlink:href="#d" y1="32.567184" y2="46.689312"/><linearGradient id="d"><stop offset="0" stop-color="#fff" stop-opacity=".796078"/><stop offset="1" stop-color="#fff" stop-opacity=".215686"/></linearGradient><radialGradient id="e" cx="18.557627" cy="22.300018" gradientTransform="matrix(1.77275 0 0 1.29668 -16.3404 -6.615959)" gradientUnits="userSpaceOnUse" r="19.2292"><stop offset="0" stop-color="#857c63"/><stop offset="1" stop-color="#221f19"/></radialGradient><linearGradient id="f" gradientUnits="userSpaceOnUse" x1="28.51359" x2="17.37665" y1="28.429332" y2="30.639031"><stop offset="0"/><stop offset="1" stop-opacity="0"/></linearGradient><linearGradient id="g" gradientUnits="userSpaceOnUse" x1="14.96875" x2="39.524544" xlink:href="#d" y1="19.11068" y2="46.98568"/><radialGradient id="h" cx="6.02422" cy="25.27103" gradientTransform="matrix(.916159 .09318684 -.108765 1.069309 3.253668 -3.029272)" gradientUnits="userSpaceOnUse" r="4.831029"><stop offset="0" stop-color="#5b676b"/><stop offset="1" stop-color="#141718"/></radialGradient><linearGradient id="i" gradientUnits="userSpaceOnUse" x1="6.305153" x2="5.984629" xlink:href="#d" y1="23.362427" y2="31.57"/><radialGradient id="j" cx="69.47323853507" cy="19.59787596846" gradientUnits="userSpaceOnUse" r="4.63489932523"><stop offset="0" stop-color="#fff"/><stop offset="1" stop-color="#b9b9b0"/></radialGradient><linearGradient id="k" gradientTransform="matrix(-.117687 -.528197 .528197 -.117687 46.2238 49.69112)" gradientUnits="userSpaceOnUse" x1="37.017639" x2="27.753893" y1="19.239889" y2="11.182488"><stop offset="0" stop-color="#6e3d09"/><stop offset=".242424" stop-color="#ea8113"/><stop offset=".621212" stop-color="#5c3307"/><stop offset="1" stop-color="#e07c12"/></linearGradient><linearGradient id="l" gradientTransform="matrix(-.117687 -.528197 .528197 -.117687 40.56367 46.8748)" gradientUnits="userSpaceOnUse" x1="19.394735" x2="23.109329" y1="30.001329" y2="33.438831"><stop offset="0" stop-color="#bdbdbd"/><stop offset=".333333" stop-color="#e2e2e2"/><stop offset=".666667" stop-color="#a3a3a3"/><stop offset="1" stop-color="#ddd"/></linearGradient><radialGradient id="m" cx="15.415101" cy="35.35651" gradientTransform="matrix(-.09389073 -1.406075 1.370264 -.09149987 18.28382 59.78933)" gradientUnits="userSpaceOnUse" r="7.579156"><stop offset="0" stop-color="#696969"/><stop offset="1"/></radialGradient><linearGradient id="n" gradientTransform="matrix(.11984 -.445379 .445379 .11984 42.0839 34.30798)" gradientUnits="userSpaceOnUse" x1="13.236155" x2="7.752109" xlink:href="#d" y1="37.752247" y2="42.28215"/><radialGradient id="o" cx="29.288071" cy="15.720984" fx="29.158466" fy="15.755712" gradientUnits="userSpaceOnUse" r="8.90208"><stop offset="0" stop-color="#fffcde"/><stop offset=".64485979" stop-color="#f6e76a"/><stop offset="1" stop-color="#ffb738"/></radialGradient><radialGradient id="p" cx="24.836429" cy="36.11889" gradientUnits="userSpaceOnUse" r="19.6965"><stop offset="0" stop-color="#777"/><stop offset="1"/></radialGradient><path d="m.8841035 23.195223c.013093.250194.2762748.500388.5263581.500388h18.8188204c.250082 0 .487072-.250194.473979-.500388l-.562541-16.362918c-.013098-.250193-.27627-.500392-.526353-.500392h-7.972101c-.291385 0-.741575-.189664-.841998-.665071l-.367276-1.738699c-.093395-.44213-.529965-.623756-.7800483-.623756h-8.87798109c-.25008813 0-.48707765.250193-.47398438.500387z" fill="#fff" stroke="url(#a)" stroke-linecap="round" stroke-linejoin="round" stroke-width=".600854"/><path d="m.003854 0h23.996145v23.996084h-23.996145z" fill="#bebebe" opacity="0"/><g transform="matrix(.23991733045 0 0 .24802887246 11.59444801691 -.9772686198)"><g stroke-miterlimit="10"><path d="m10.374369 12.467884s2.874509 5.927634 9.599242 5.760407c14.092515-.353553 16.563709-7.70495 16.917262-8.7656106.353554-1.0606602.894534-.8999979 1.019607.080267 4.596194 41.7192996-31.896931 23.8191756-33.192966 16.7135196 7.247845-2.12132 5.480078-6.187185 5.480078-6.187185z" fill="url(#e)" fill-rule="evenodd" stroke="#2e3436" stroke-width="1.287112"/><path d="m15.73779 30.066049c6.7389 1.347837 10.170691.09809 12.179175-1.452776-.53033-.68501-1.43631-1.436311-1.43631-1.436311s1.311376.247882 2.165514 1.149049c.584618.616806.638264 1.613221.510406 2.977884-.127858-.57988-.341418-.940985-.507265-1.350934-1.806268 2.187568-6.70419 2.304812-12.91152.113088z" fill="url(#f)" fill-rule="evenodd"/><path d="m36.962891 11.804688c-.559728.934477-1.401421 2.056988-2.69336 3.130859-2.627218 2.183767-7.038435 4.183821-14.269531 4.365234-4.225837.105086-6.950072-1.954556-8.623047-3.773437l-.105469 4.480468c.134812.418317.393059 1.396473-.08789 2.72461-.516639 1.426693-2.1627183 2.86654-4.9707034 3.974609.2490233.522742.4817175 1.072909 1.2402344 1.814453 1.0281233 1.005118 2.4782262 2.08191 4.177734 3.056641 3.399017 1.949462 7.804708 3.488613 11.910157 3.558594 4.105448.06998 7.837138-1.225366 10.417968-4.990235 2.383441-3.47692 3.695079-9.381018 3.003907-18.341796z" fill="none" opacity=".185393" stroke="url(#g)" stroke-width="1.287112"/><ellipse cx="6.098796" cy="27.228741" fill="url(#h)" fill-rule="evenodd" rx="4.331029" ry="6.098796" stroke="#000" stroke-width="1.287112" transform="matrix(.81098368 -.58506878 .58506878 .81098368 -14.777903 6.947129)"/><path d="m5.6289062 19.876953c-.7393622-.039616-1.5276913.351699-2.1914062 1.201172-.9338949 1.790657-.9173276 4.670873.058594 6.404297a1.0444595 1.0444595 0 0 1 .1035156.261719c.4106138 1.666083 1.4339316 2.861611 2.3964844 3.189453.9392123.319891 1.9349814-.02541 2.7675781-1.095703.9308181-1.791631.912906-4.667248-.0625-6.398438a1.0444595 1.0444595 0 0 1 -.1035159-.261719c-.2462848-.998749-.7095548-1.860092-1.2539062-2.427734s-1.1433429-.842253-1.7148438-.873047z" fill="none" opacity=".280899" stroke="url(#i)" stroke-width="1.287113" transform="matrix(.80038899 -.599481 .599481 .80038899 -15.00556 7.504618)"/><ellipse cx="4.065864" cy="23.251261" fill="#fff" fill-rule="evenodd" rx="1.767767" ry="2.12132"/><circle cx="13.611794" cy="21.837049" fill="#eeeeec" fill-rule="evenodd" r="3.181981" stroke="#888a85" stroke-width="1.287112"/><circle cx="69.473244" cy="21.837049" fill="url(#j)" fill-rule="evenodd" r="3.181981" stroke="#888a85" stroke-width=".858075" transform="matrix(1.5 0 0 1.5 -82.1682 -10.91852)"/><circle cx="23.157754" cy="22.544157" fill="#2e3436" fill-rule="evenodd" r="2.298097" stroke="#000" stroke-width="1.287112"/><circle cx="22.273862" cy="21.4834965" fill="#fff" fill-rule="evenodd" r="1.5909903" stroke-width=".9"/><circle cx="14.63954467059" cy="22.27900039887" fill="#2e3436" fill-rule="evenodd" r="1.41421442234" stroke="#000" stroke-width="1.28711341983"/><circle cx="14.09560486308" cy="21.62627662259" fill="#fff" fill-rule="evenodd" r=".97907068188" stroke-width=".553846"/></g><path d="m35.763473 35.714292 1.529018-2.59487c-2.75182-1.783078-6.107312-2.722843-8.624927-3.723707 0 0-1.392594.9569-1.392594.9569 2.411363 1.559 5.377611 3.673661 8.488503 5.361677z" fill="url(#k)" stroke="#673907" stroke-linecap="round" stroke-width="1.287113"/><path d="m42.122514 38.650724.757075-1.414085-4.890732-3.61885-.405187-.06222-.138207-.575965c-.77382.414973-1.96915 2.069575-1.748487 3.059944l.566122-.171609.279578.309163z" fill="url(#l)" stroke="#888a85" stroke-linecap="round" stroke-width="1.287113"/><path d="m47.53951 46.273923c-.394339-5.905517.0097-10.434265-4.343543-10.995857-3.508074-.452565-4.849219 4.419169-1.600654 6.572005 3.129392 2.073861 5.944197 4.423852 5.944197 4.423852z" fill="url(#m)" stroke-linecap="round" stroke-width=".2"/><circle cx="7.624999" cy="37.75" fill="#fff" opacity=".527779" r="1.25" stroke-linecap="round" transform="matrix(-.23154 -1.039181 1.039181 -.23154 5.254334 54.09927)"/><path d="m46.540795 41.779063s-.479161-2.790295-1.93816-3.254552c-.516189-.164253-.135515-.853626.402139-.583826 1.161317.58276 1.536021 3.838378 1.536021 3.838378z" fill="url(#n)" opacity=".427778" stroke-linecap="round"/><path d="m35.587145 33.172855s-2.253903-1.104854-5.391689-2.253903" style="opacity:.175258;fill:none;stroke:#fff;stroke-width:1.287113;stroke-linecap:round;stroke-linejoin:round"/></g><g opacity=".5" transform="matrix(.18270211173 0 0 .18593577397 3.95481273449 .1667113959)"><circle cx="31.112698" cy="19.008621" r="8.662058" style="opacity:1;fill-rule:evenodd;stroke:#9c8c0a;stroke-width:.480044;stroke-linecap:round;stroke-linejoin:round;fill:url(#o)" transform="matrix(2.083142 0 0 2.083142 -40.54715 -16.49224)"/><circle cx="24.26507947184" cy="23.10546570062" r="17.14898651136" style="opacity:.677215;fill:none;stroke:#fff;stroke-linecap:round;stroke-linejoin:round;stroke-width:.99999976689"/><g transform="matrix(.96937178 .24559794 -.24559794 .96937178 6.456941 -5.229998)"><path d="m37.284637 24.719966c-3.016467 5.224673-6.543503 8.990039-12.822145 8.990039-6.100017 0-10.565537-4.339697-13.352476-9.166816 2.549413 3.05592 6.282932 6.566312 13.087311 6.566312 8.130204 0 9.551776-2.906855 13.08731-6.389535z" fill="#fff" opacity=".36"/><path d="m37.284637 24.012862c-3.016467 5.224673-6.543503 8.990039-12.822145 8.990039-6.100017 0-10.565537-4.339697-13.352476-9.166816 2.549413 3.05592 6.282932 6.566312 13.087311 6.566312 8.130204 0 9.551776-2.906855 13.08731-6.389535z" fill="url(#p)"/></g><path d="m31.042065 17.714134c0 2.5-1.125 4.5-2.5 4.5s-2.5-2-2.5-4.5 1.125-4.5 2.5-4.5 2.5 2 2.5 4.5z" fill="#fff" opacity=".36"/><path d="m31.042065 17.089134c0 2.5-1.125 4.5-2.5 4.5s-2.5-2-2.5-4.5 1.125-4.5 2.5-4.5 2.5 2 2.5 4.5z"/><path d="m15.924926 17.535184c1.361504-3.344457 4.84345-3.432276 6.068764-.114834-2.161069-1.71313-4.148092-1.219733-6.068764.114834z" opacity="1"/></g><g transform="matrix(.99949609 0 0 1.0005166 -.461872 -24.322559)"><path d="m22 48c.670129-.02638 1.150031-.656403 1.199218-1.389688.463853-6.914704.972105-12.712496.972105-12.712496.04227-.14818-.09837-.296359-.281282-.296359h-20.1357041s-1.0839751 13.092665-1.0839751 13.092665c-.06711.588005-.2730018 1.080563-.9079425 1.307485l20.2375807-.0016z" display="block" fill="url(#b)" stroke="#3465a4" stroke-linejoin="round" stroke-width=".592258"/><path d="m4.2632903 34.265001 19.2104097.039836-.922143 12.293645c-.0494.658573-.264026.877811-1.097081.877811-1.096404 0-16.8007634-.01992-18.3923646-.01992.1368518-.197177.1955282-.607628.1963136-.617456z" fill="none" opacity=".465909" stroke="url(#c)" stroke-linecap="round" stroke-width=".600059"/></g></svg>