<?xml version="1.0" encoding="UTF-8" standalone="no"?>
<!-- Created with Inkscape (http://www.inkscape.org/) -->

<svg
   xmlns:dc="http://purl.org/dc/elements/1.1/"
   xmlns:cc="http://creativecommons.org/ns#"
   xmlns:rdf="http://www.w3.org/1999/02/22-rdf-syntax-ns#"
   xmlns:svg="http://www.w3.org/2000/svg"
   xmlns="http://www.w3.org/2000/svg"
   xmlns:xlink="http://www.w3.org/1999/xlink"
   xmlns:sodipodi="http://sodipodi.sourceforge.net/DTD/sodipodi-0.dtd"
   xmlns:inkscape="http://www.inkscape.org/namespaces/inkscape"
   width="24"
   height="24"
   id="svg11300"
   sodipodi:version="0.32"
   inkscape:version="0.91+devel r"
   sodipodi:docname="gimp-navigation-24.svg"
   version="1.0"
   viewBox="0 0 24 24">
  <sodipodi:namedview
     inkscape:cy="8.6335628"
     inkscape:cx="-26.384505"
     inkscape:zoom="9.8516108"
     inkscape:window-height="1016"
     inkscape:window-width="1920"
     inkscape:pageshadow="2"
     inkscape:pageopacity="0.0"
     borderopacity="0.17254902"
     bordercolor="#666"
     pagecolor="#ffffff"
     id="base"
     inkscape:showpageshadow="false"
     showborder="true"
     inkscape:window-x="0"
     inkscape:window-y="27"
     inkscape:current-layer="layer1"
     width="16px"
     height="16px"
     showgrid="true"
     inkscape:window-maximized="1"
     inkscape:document-units="px"
     showguides="true">
    <inkscape:grid
       type="xygrid"
       id="grid4246" />
  </sodipodi:namedview>
  <defs
     id="defs3">
    <linearGradient
       id="linearGradient4126"
       inkscape:collect="always">
      <stop
         id="stop4128"
         offset="0"
         style="stop-color:#000000;stop-opacity:1;" />
      <stop
         id="stop4130"
         offset="1"
         style="stop-color:#000000;stop-opacity:0;" />
    </linearGradient>
    <linearGradient
       inkscape:collect="always"
       xlink:href="#linearGradient4126"
       id="linearGradient8443"
       x1="-5887.6748"
       y1="-4387.5962"
       x2="-2336.387"
       y2="-4387.5962"
       gradientUnits="userSpaceOnUse" />
    <linearGradient
       inkscape:collect="always"
       xlink:href="#linearGradient4126"
       id="linearGradient8447"
       gradientUnits="userSpaceOnUse"
       x1="-5887.6748"
       y1="-4387.5962"
       x2="-2336.387"
       y2="-4387.5962" />
    <linearGradient
       inkscape:collect="always"
       xlink:href="#linearGradient4126"
       id="linearGradient8449"
       gradientUnits="userSpaceOnUse"
       x1="-5887.6748"
       y1="-4387.5962"
       x2="-2336.387"
       y2="-4387.5962" />
    <linearGradient
       inkscape:collect="always"
       xlink:href="#linearGradient4126"
       id="linearGradient8451"
       gradientUnits="userSpaceOnUse"
       x1="-5887.6748"
       y1="-4387.5962"
       x2="-2336.387"
       y2="-4387.5962" />
    <linearGradient
       inkscape:collect="always"
       xlink:href="#linearGradient4126"
       id="linearGradient8453"
       gradientUnits="userSpaceOnUse"
       x1="-5887.6748"
       y1="-4387.5962"
       x2="-2336.387"
       y2="-4387.5962" />
  </defs>
  <sodipodi:namedview
     stroke="#ef2929"
     fill="#eeeeec"
     pagecolor="#ffffff"
     bordercolor="#666666"
     borderopacity="0.25490196"
     inkscape:pageopacity="0.0"
     inkscape:pageshadow="2"
     inkscape:zoom="1"
     inkscape:cx="-14.198652"
     inkscape:cy="-5.1663457"
     inkscape:current-layer="layer1"
     showgrid="false"
     inkscape:grid-bbox="true"
     inkscape:document-units="px"
     inkscape:showpageshadow="false"
     inkscape:window-width="872"
     inkscape:window-height="659"
     inkscape:window-x="403"
     inkscape:window-y="296"
     id="namedview73" />
  <metadata
     id="metadata4">
    <rdf:RDF>
      <cc:Work
         rdf:about="">
        <dc:format>image/svg+xml</dc:format>
        <dc:type
           rdf:resource="http://purl.org/dc/dcmitype/StillImage" />
        <dc:creator>
          <cc:Agent>
            <dc:title />
          </cc:Agent>
        </dc:creator>
        <dc:source>http://jimmac.musichall.cz</dc:source>
        <cc:license
           rdf:resource="http://creativecommons.org/licenses/by-sa/2.0/" />
        <dc:title></dc:title>
      </cc:Work>
      <cc:License
         rdf:about="http://creativecommons.org/licenses/by-sa/2.0/">
        <cc:permits
           rdf:resource="http://web.resource.org/cc/Reproduction" />
        <cc:permits
           rdf:resource="http://web.resource.org/cc/Distribution" />
        <cc:requires
           rdf:resource="http://web.resource.org/cc/Notice" />
        <cc:requires
           rdf:resource="http://web.resource.org/cc/Attribution" />
        <cc:permits
           rdf:resource="http://web.resource.org/cc/DerivativeWorks" />
        <cc:requires
           rdf:resource="http://web.resource.org/cc/ShareAlike" />
      </cc:License>
    </rdf:RDF>
  </metadata>
  <g
     id="layer1"
     inkscape:label="Layer 1"
     inkscape:groupmode="layer"
     transform="translate(0,8)">
    <g
       id="g8601"
       transform="matrix(1.5000671,0,0,1.5001034,-131.00871,2.2403455)">
      <g
         transform="translate(0.13350585)"
         id="g8591">
        <g
           id="gimp-navigation"
           transform="matrix(0.00447877,0,0,0.00447035,113.61821,20.787107)"
           style="fill:url(#linearGradient8443);fill-opacity:1;stroke:#323232;stroke-width:22.21016502;stroke-miterlimit:4;stroke-dasharray:none;stroke-opacity:1">
          <path
             id="path3254-2-2-7-1"
             style="color:#000000;text-indent:0;text-transform:none;fill:#2e3436;fill-opacity:1;stroke:#323232;stroke-width:21.96143532;stroke-miterlimit:4;stroke-dasharray:none;stroke-opacity:1"
             inkscape:connector-curvature="0"
             d="m -4122.5,-6166.1 -272.97,1313.9 -492.72,-323.25 -10.375,10.344 322.69,491.94 -1311.3,272.34 v 23.5 l 1310.8,272.34 -324.78,495.09 10.344,10.344 493.03,-323.38 272.88,1313.8 h 23.5 l 273.03,-1314.1 492.75,323.22 10.344,-10.344 -322.81,-492.12 1311.2,-272.38 v -23.5 l -1310.5,-272.28 324.53,-494.69 -10.375,-10.344 -492.91,323.31 -272.88,-1313.7 h -23.5 z m -0.2188,119.03 v 1373.8 254.84 l -280.16,-280.25 28.969,-139.38 251.19,-1209 z m 736.97,923.69 -411.25,411.25 -25.875,-124.53 437.12,-286.72 z m -1460.5,10.781 410.31,410.31 -124.25,25.812 -286.06,-436.12 z m 1042,433.81 142.66,29.656 1205.7,250.5 h -1370 -258.53 l 280.22,-280.16 z m -1963.9,301.66 h 1370.3 258.5 l -280.22,280.22 -142.69,-29.656 -1205.9,-250.56 z m 1666.9,20.094 280.22,280.22 -28.969,139.38 -251.25,1209.2 v -1374.1 -254.75 z m 437.38,257.75 286.19,436.34 -410.53,-410.53 124.34,-25.812 z m -763.09,36.062 25.844,124.56 -437.19,286.78 411.34,-411.34 z" />
          <g
             id="text4344"
             style="fill:url(#linearGradient8447);fill-opacity:1;stroke:#323232;stroke-width:22.21016502;stroke-miterlimit:4;stroke-dasharray:none;stroke-opacity:1" />
          <g
             id="text4344-1"
             style="fill:url(#linearGradient8449);fill-opacity:1;stroke:#323232;stroke-width:22.21016502;stroke-miterlimit:4;stroke-dasharray:none;stroke-opacity:1" />
          <g
             id="text4344-8"
             style="fill:url(#linearGradient8451);fill-opacity:1;stroke:#323232;stroke-width:22.21016502;stroke-miterlimit:4;stroke-dasharray:none;stroke-opacity:1" />
          <g
             id="text4344-7"
             style="fill:url(#linearGradient8453);fill-opacity:1;stroke:#323232;stroke-width:22.21016502;stroke-miterlimit:4;stroke-dasharray:none;stroke-opacity:1" />
        </g>
        <path
           id="path3254-2-2-7-1-4"
           style="color:#000000;text-indent:0;text-transform:none;fill:#ffffff;fill-opacity:1;stroke:#323232;stroke-width:0.09826772;stroke-miterlimit:4;stroke-dasharray:none;stroke-opacity:1"
           inkscape:connector-curvature="0"
           d="m 95.24811,-6.7775622 1.22257,5.87358997 2.20678,-1.44503997 0.0465,0.0462 -1.44525,2.19914997 5.87301,1.21745003 v 0.10505 l -5.87077,1.21746 1.45461,2.21322 -0.0463,0.0463 -2.20816,-1.44563 -1.22217,5.87315 h -0.10525 l -1.22284,-5.87449 -2.20691,1.44491 -0.0463,-0.0462 1.44579,-2.19995 -5.872556,-1.21763 v -0.10506 l 5.869416,-1.21718003 -1.45349,-2.21143997 0.0465,-0.0462 2.20763,1.44530997 1.22216,-5.87269997 h 0.10525 z m 9.8e-4,0.5321 v 6.14136997 1.13923003 l 1.25477,-1.25282003 -0.12975,-0.62308 -1.12502,-5.40464997 z m -3.30072,4.12922 1.84189,1.83842997 0.11589,-0.55669 -1.95776,-1.28173997 z m 6.54124,0.0482 -1.83768,1.83422997 0.55648,0.11538 1.2812,-1.94959997 z m -4.66688,1.93927997 -0.63894,0.13257 -5.400046,1.11982003 h 6.135906 1.1579 l -1.25504,-1.25241003 z m 8.79586,1.34853003 h -6.13726 -1.15776 l 1.25504,1.25268 0.63907,-0.13258 5.40095,-1.12009 z m -7.46566,0.0898 -1.25504,1.25268 0.12974,0.62308 1.12529,5.40555 v -6.14271 -1.13882 z m -1.95893,1.15224 -1.28178,1.95059 1.83867,-1.83522 -0.55689,-0.11538 z m 3.41771,0.1612 -0.11575,0.55683 1.95807,1.28201 -1.8423,-1.83884 z" />
      </g>
    </g>
  </g>
</svg>
