<svg height="24" viewBox="0 0 24 24" width="24" xmlns="http://www.w3.org/2000/svg"><g transform="translate(0 -1028.3622)"><path d="m2.0118704 1032.5248c.6439322.5517 1.6098065.472 2.1568474-.1767.5473067-.6496.4679573-1.6239-.1758943-2.1755-.6441157-.5518-1.6099168-.4721-2.1568752.1766-.5472551.6494-.4680953 1.6238.1759221 2.1756z" fill="#f57900" stroke="#542900" stroke-width=".948181"/><path d="m8.22036 1033.4143c.8612056.708 2.136559.587 2.84835-.2698.712386-.857.590509-2.1264-.270403-2.8343-.8613023-.7083-2.1366556-.5872-2.848551.2699-.7122084.8566-.5904188 2.126.270604 2.8342z" fill="#f57900" stroke="#542900" stroke-width=".978657"/><path d="m19.416444 1038.7308 3.028796-3.0291.000057 15.1058h-15.106136l3.029048-3.0292s-6.0580655-5.2712-1.0226411-10.3068c4.9230351-4.7461 10.0705341 1.259 10.0705341 1.259z" fill="#396db1" stroke="#122439" stroke-width="1.109402"/><path d="m17.335239 1038.4778c1.09426.7987 2.100483 1.907 2.100483 1.907l1.873297-1.9171-.0028 11.3403-11.3291624-.011 1.8826754-1.9116c-2.0580437-1.9231-3.6448286-4.1167-3.4215123-6.4247.1124911-1.1593.8556925-2.2689 2.0445863-3.4313 1.779698-1.74 4.070603-1.791 6.851637.4449z" fill="none" opacity=".423581" stroke="#fff" stroke-linecap="square" stroke-width="1.107303"/><path d="m2.218039 1039.4129c.8573385.7114 2.1271669.5898 2.8359367-.2709.7092531-.861.5878213-2.1361-.2693158-2.8474-.8574126-.7115-2.1273129-.5898-2.8360127.271-.7090752.8608-.5879632 2.1359.2693918 2.8473z" fill="#f57900" stroke="#542900" stroke-width=".978738"/><path d="m.670921 1029.0331h22.658159v22.658157h-22.658159z" fill="#555753" opacity="0" stroke="#555753" stroke-width="1.341841"/></g></svg>