<svg height="24" viewBox="0 0 24 24" width="24" xmlns="http://www.w3.org/2000/svg" xmlns:xlink="http://www.w3.org/1999/xlink"><linearGradient id="a" gradientUnits="userSpaceOnUse" x1="64.81540262592" x2="65.28828877254" y1="103.5096064299" y2="62.63178975557"><stop offset="0" stop-color="#f2f2f1"/><stop offset=".2231553" stop-color="#c5c7c2"/><stop offset="1" stop-color="#eeeeec"/></linearGradient><linearGradient id="b" gradientUnits="userSpaceOnUse" x1="55.661797" x2="55.661797" y1="58.698524" y2="97.156609"><stop offset="0" stop-color="#6d706a"/><stop offset="1" stop-color="#2d2e2c"/></linearGradient><g transform="matrix(.52411218 0 0 .52326285 -19.915902 -29.02679)"><path id="c" d="m39.438364 78.98461c0 12.555369 8.881409 20.915102 22.284682 20.915102 13.491637 0 22.937978-11.784979 20.148481-25.811288h-20.118394c-6.756335 0-8.04823 8.751774-.840641 8.751774 3.770031 0 4.170667-2.759741 6.709417-3.001239.916673-.0872 3.235452.54889 3.384183 2.344955.351708 4.247206-5.004416 6.729844-9.383338 6.704497-14.67659-.08547-15.183659-20.735884-.581688-20.735884h18.894843c-.0071-.01304-.01297-.02709-.02006-.04012h.05015c-2.977491-5.153114-9.081792-11.353172-20.29341-11.197461-11.086642.153975-20.234225 9.690981-20.234225 22.069664z" fill="url(#a)" stroke="url(#b)" stroke-linejoin="round" stroke-width="2.878103"/><path d="m59.710938 59.683594c-9.51986.132216-17.503907 8.286543-17.503907 19.300781 0 5.62461 1.92311 10.030672 5.242188 13.148437 3.319078 3.117766 8.147659 4.998047 14.273437 4.998047 11.154936 0 18.816568-8.80226 17.654297-20.273437h-17.623047c-2.182306 0-2.817059 1.194107-2.908203 1.941406-.04557.373649.02563.566686.207031.75586.181399.189173.617973.515624 1.859375.515624 1.209532 0 1.334583-.195439 2.072266-.792968s2.129654-1.981725 4.375-2.195313c1.308364-.12446 2.295434.126328 3.523437.767578 1.228004.641251 2.712948 2.054186 2.882813 4.105469.274933 3.320075-1.817729 6.039999-4.212891 7.533203-2.395161 1.493204-5.22582 2.185664-7.945312 2.169922-8.637015-.0503-13.852913-6.619542-14.023438-13.097656-.08526-3.239057.973929-6.534381 3.283204-9.052735 2.309274-2.518353 5.87053-4.125 10.173828-4.125h13.332031c-3.028834-3.143299-7.536562-5.79818-14.662109-5.699218z" fill="none" opacity=".820175" stroke="#fff" stroke-width="2.878103" xlink:href="#c"/></g></svg>