<svg height="24" viewBox="0 0 24 24" width="24" xmlns="http://www.w3.org/2000/svg" xmlns:xlink="http://www.w3.org/1999/xlink"><linearGradient id="a" gradientUnits="userSpaceOnUse" x1="-1051.396" x2="-1033.2389" y1="11.929716" y2="11.929716"><stop offset="0" stop-color="#204a87"/><stop offset="1" stop-color="#204a87" stop-opacity="0"/></linearGradient><g transform="translate(0 -1028.3622)"><path d="m0 1028.3622h24v24h-24z" fill="none"/><path d="m0 1028.3622h24v9h-24z" fill="#3465a4"/><path d="m1.515361 1029.8776h20.969276v5.969277h-20.969276z" style="opacity:.5;fill:#d3d7cf;stroke:#d3d7cf;stroke-linecap:square;stroke-linejoin:round;stroke-miterlimit:0"/><path d="m2 1030.3622h20v5h-20z" fill="#729fcf"/><path d="m10 1052.3622v-9.2l9-13.8v23z" fill="#204a87"/><path d="m12 1050.3622.000394-6.5308 4.999606-7.6567v14.1875z" fill="url(#a)"/><g stroke-linejoin="round"><path d="m1.4051367 1040.7675v5.3592.041l3.4648273-.017-.026679 1.8069 3.751618-2.3315-3.6882574-2.7639-.016676 1.506-1.5039819-.012v-3.5882z" fill="#fff" fill-rule="evenodd" stroke="#204a87" stroke-width=".810273"/><path d="m-1050.9292 8.8150434 7.4747-.012272 9.7489 6.2538926-17.2236-.32509z" style="stroke:#fff;stroke-width:.93355;stroke-linecap:square;stroke-miterlimit:0;stroke-opacity:.2;fill:none" transform="matrix(-.00255006 -.99999675 .99999409 -.0034393 0 0)"/></g></g></svg>