<svg height="24" viewBox="0 0 24 24" width="24" xmlns="http://www.w3.org/2000/svg" xmlns:xlink="http://www.w3.org/1999/xlink"><linearGradient id="a" gradientTransform="matrix(.6008182 0 0 .60098717 -1.836377 23.944582)" gradientUnits="userSpaceOnUse" x1="18.112709" x2="15.514889" y1="31.36775" y2="6.18025"><stop offset="0" stop-color="#424242"/><stop offset="1" stop-color="#777"/></linearGradient><linearGradient id="b" gradientTransform="matrix(.58583149 0 0 .59874372 -1.306445 24.343264)" gradientUnits="userSpaceOnUse" x1="22.175976" x2="22.065331" y1="36.987999" y2="32.050499"><stop offset="0" stop-color="#6194cb"/><stop offset="1" stop-color="#729fcf"/></linearGradient><linearGradient id="c" gradientTransform="matrix(.77184067 0 0 .50168839 -1.887786 23.335751)" gradientUnits="userSpaceOnUse" x1="13.035696" x2="12.853771" y1="32.567184" y2="46.689312"><stop offset="0" stop-color="#fff" stop-opacity=".796078"/><stop offset="1" stop-color="#fff" stop-opacity=".215686"/></linearGradient><path d="m.88039079 47.195223c.01309514.250194.27631921.500388.52644261.500388h18.8218436c.250122 0 .48715-.250194.474055-.500388l-.562632-16.362918c-.0131-.250193-.276314-.500392-.526437-.500392h-7.973382c-.291431 0-.741694-.189664-.842133-.665071l-.367335-1.738699c-.09341-.44213-.53005-.623756-.7801735-.623756h-8.87940713c-.2501283 0-.48715589.250193-.47406051.500387z" fill="#fff" stroke="url(#a)" stroke-linecap="round" stroke-linejoin="round" stroke-width=".600903" transform="translate(0 -24)"/><path d="m0 0h24v23.996084h-24z" fill="#bebebe" opacity="0"/><g stroke-width=".154784" transform="matrix(1.0910439 0 0 1.076383 7.099439 -7.804557)"><path d="m5.3596894 11.40703c-.9090352.000003-1.5388348.0917-1.8893999.275077-.3505702.183386-.525855.496216-.5258528.938493-.0000022.352386.1304415.632857.3913318.841409.2649625.204959.6236824.307439 1.0761628.307437.6236813.000002 1.1230374-.194169 1.4980691-.582512.3790973-.391938.5686478-.911524.5686541-1.558764v-.22114zm2.2440443-.409917v3.44654h-1.1250792v-.916919c-.2568172.366768-.5768122.638247-.959987.814439-.3831833.172596-.8519661.258895-1.4063493.258895-.7011386 0-1.2596013-.172595-1.6753902-.51779-.4117147-.348787-.6175716-.814439-.6175704-1.396954-.0000012-.679597.2568108-1.191992.7704345-1.537189.517697-.345189 1.2881316-.517786 2.3113049-.517791h1.5775575v-.09709c-.0000063-.456652-.1712136-.8090371-.5136237-1.0571495-.3383445-.2516982-.8152788-.3775493-1.4308075-.3775545-.391335.0000052-.7724765.0413561-1.1434244.124054-.3709511.0827072-.7276333.2067605-1.0700477.3721609v-.9169207c.4117124-.1402274.8111971-.2445056 1.1984548-.3128303.3872533-.0719087.7643173-.1078665 1.1311942-.1078735.9905539.0000063 1.7304153.2265393 2.2195851.6795994.4891592.4530708.7337411 1.1398612.7337484 2.0603722" stroke="#fff"/><path d="m11.674456 17.986596c.356997.000001.628627-.136145.814893-.40844.189361-.272294.284043-.667767.284048-1.186424-.000005-.518652-.09469-.914127-.284048-1.186424-.186266-.27229-.457896-.408437-.814893-.408442-.357005.000005-.631739.137773-.824206.413303-.189369.2723-.284051.666151-.284048 1.181563-.000003.515415.09467.910889.284048 1.186424.192467.272295.467201.408441.824206.40844m-1.108254-3.525235c.229719-.31767.484275-.551065.763669-.700185.279389-.152348.60069-.228527.963904-.228532.642595.000005 1.170336.267436 1.583221.802295.412873.531626.619311 1.217223.619319 2.056793-.000008.839575-.206446 1.526793-.619319 2.061655-.412885.531621-.940626.797431-1.583221.797431-.363214 0-.684515-.07456-.963904-.223669-.279394-.152356-.53395-.387371-.763669-.705048v.787709h-1.6670401v-7.565885h1.6670401z" stroke="#787878"/></g><g transform="matrix(.99965663 0 0 1.0005166 -.465801 -24.322559)"><path d="m22 48c.670129-.02638 1.150031-.656403 1.199218-1.389688.463853-6.914704.972105-12.712496.972105-12.712496.04227-.14818-.09837-.296359-.281282-.296359h-20.1357041s-1.0839751 13.092665-1.0839751 13.092665c-.06711.588005-.2730018 1.080563-.9079425 1.307485l20.2375807-.0016z" display="block" fill="url(#b)" stroke="#3465a4" stroke-linejoin="round" stroke-width=".592258"/><path d="m4.2634507 34.265001 19.2104103.03984-.922143 12.293645c-.0494.658573-.264026.877811-1.097081.877811-1.096404 0-16.800764-.01992-18.3923652-.01992.1368518-.197181.1955282-.607632.1963136-.61746z" fill="none" opacity=".465909" stroke="url(#c)" stroke-linecap="round" stroke-width=".600059"/></g></svg>