<?xml version="1.0" encoding="UTF-8" standalone="no"?>
<!-- Created with Inkscape (http://www.inkscape.org/) -->

<svg
   xmlns:dc="http://purl.org/dc/elements/1.1/"
   xmlns:cc="http://creativecommons.org/ns#"
   xmlns:rdf="http://www.w3.org/1999/02/22-rdf-syntax-ns#"
   xmlns:svg="http://www.w3.org/2000/svg"
   xmlns="http://www.w3.org/2000/svg"
   xmlns:sodipodi="http://sodipodi.sourceforge.net/DTD/sodipodi-0.dtd"
   xmlns:inkscape="http://www.inkscape.org/namespaces/inkscape"
   width="24"
   height="24"
   viewBox="0 0 6.3499999 6.3500002"
   version="1.1"
   id="svg8"
   inkscape:version="0.92+devel (7a767eff19, 2017-12-26)"
   sodipodi:docname="gimp-color-temperature.svg"
   inkscape:export-filename="/home/alex/soft/graphics/gimp/gimp-2017-12-25/icons/Color/24/gimp-color-temperature.png"
   inkscape:export-xdpi="96"
   inkscape:export-ydpi="96">
  <defs
     id="defs2" />
  <sodipodi:namedview
     id="base"
     pagecolor="#ffffff"
     bordercolor="#666666"
     borderopacity="1.0"
     inkscape:pageopacity="0.0"
     inkscape:pageshadow="2"
     inkscape:zoom="8"
     inkscape:cx="11.315978"
     inkscape:cy="7.8299525"
     inkscape:document-units="px"
     inkscape:current-layer="layer1"
     inkscape:document-rotation="0"
     showgrid="false"
     units="px"
     inkscape:window-width="1920"
     inkscape:window-height="1147"
     inkscape:window-x="-1"
     inkscape:window-y="-1"
     inkscape:window-maximized="1">
    <inkscape:grid
       type="xygrid"
       id="grid34251" />
  </sodipodi:namedview>
  <metadata
     id="metadata5">
    <rdf:RDF>
      <cc:Work
         rdf:about="">
        <dc:format>image/svg+xml</dc:format>
        <dc:type
           rdf:resource="http://purl.org/dc/dcmitype/StillImage" />
        <dc:title></dc:title>
      </cc:Work>
    </rdf:RDF>
  </metadata>
  <g
     inkscape:label="Layer 1"
     inkscape:groupmode="layer"
     id="layer1"
     transform="translate(0,-290.64998)">
    <g
       style="display:inline"
       transform="translate(-125.14789,106.49998)"
       id="gimp-color-temperature-24">
      <path
         inkscape:connector-curvature="0"
         id="rect13227"
         transform="scale(0.26458333)"
         d="m 480.5,696 c -1.38501,0 -2.5,1.11499 -2.5,2.5 v 10.55469 c -1.92739,0.93386 -3.26367,2.90661 -3.26367,5.1875 0,3.17559 2.4487,5.75781 5.75781,5.75781 3.30911,0 5.75781,-2.58724 5.75781,-5.72852 0,-2.33483 -1.3335,-4.30917 -3.25195,-5.1875 V 698.5 c 0,-1.38501 -1.11499,-2.5 -2.5,-2.5 z m 0,1 c 0.831,0 1.5,0.66903 1.5,1.5 v 11.2832 c 1.88289,0.63477 3.25586,2.35851 3.25586,4.45899 4e-5,2.63516 -2.12656,4.76172 -4.76172,4.76172 -2.63516,0 -4.76172,-2.12656 -4.76172,-4.76172 3e-5,-2.10461 1.37889,-3.82945 3.26758,-4.46094 V 698.5 c 0,-0.83097 0.66903,-1.5 1.5,-1.5 z"
         style="color:#000000;overflow:visible;opacity:1;fill:#3465a4;fill-opacity:1;fill-rule:evenodd;stroke:none;stroke-width:12;stroke-linecap:round;stroke-linejoin:round;stroke-miterlimit:4;stroke-dasharray:none;stroke-opacity:1"
         sodipodi:nodetypes="sscssscssssccsccss" />
      <path
         inkscape:connector-curvature="0"
         d="m 128.48408,185.68187 a 0.67310576,0.67310576 0 0 1 0.50041,-0.22292 0.67310576,0.67310576 0 0 1 0.6731,0.6731 0.67310576,0.67310576 0 0 1 -0.6731,0.67311 0.67310576,0.67310576 0 0 1 -0.50034,-0.22284"
         style="color:#000000;overflow:visible;opacity:1;fill:none;fill-opacity:1;fill-rule:evenodd;stroke:#edd400;stroke-width:0.26458332;stroke-linecap:round;stroke-linejoin:round;stroke-opacity:1"
         id="path13472" />
      <g
         id="g33634"
         style="fill:#edd400;fill-opacity:1">
        <rect
           style="color:#000000;overflow:visible;opacity:1;fill:#edd400;fill-opacity:1;fill-rule:evenodd;stroke:none;stroke-width:0.26458332;stroke-linecap:round;stroke-linejoin:round"
           id="rect996"
           width="0.2645874"
           height="0.79374194"
           x="128.85219"
           y="184.15001"
           rx="0.13229154"
           ry="0.13229154" />
        <rect
           ry="0.13229154"
           rx="0.13229154"
           y="187.32501"
           x="128.85219"
           height="0.79374194"
           width="0.2645874"
           id="rect998"
           style="color:#000000;overflow:visible;opacity:1;fill:#edd400;fill-opacity:1;fill-rule:evenodd;stroke:none;stroke-width:0.26458332;stroke-linecap:round;stroke-linejoin:round" />
        <rect
           ry="0.13229154"
           rx="0.13229154"
           y="-130.96875"
           x="186.00208"
           height="0.79374194"
           width="0.2645874"
           id="rect1000"
           style="color:#000000;overflow:visible;opacity:1;fill:#edd400;fill-opacity:1;fill-rule:evenodd;stroke:none;stroke-width:0.26458332;stroke-linecap:round;stroke-linejoin:round"
           transform="rotate(90)" />
        <rect
           transform="rotate(45)"
           style="color:#000000;overflow:visible;opacity:1;fill:#edd400;fill-opacity:1;fill-rule:evenodd;stroke:none;stroke-width:0.26458332;stroke-linecap:round;stroke-linejoin:round"
           id="rect1020"
           width="0.2645874"
           height="0.79374194"
           x="222.68875"
           y="38.421719"
           rx="0.13229154"
           ry="0.13229154" />
        <rect
           ry="0.13229154"
           rx="0.13229154"
           y="-224.80875"
           x="40.277134"
           height="0.79374194"
           width="0.2645874"
           id="rect1026"
           style="color:#000000;overflow:visible;opacity:1;fill:#edd400;fill-opacity:1;fill-rule:evenodd;stroke:none;stroke-width:0.26458332;stroke-linecap:round;stroke-linejoin:round"
           transform="rotate(135)" />
      </g>
      <path
         inkscape:connector-curvature="0"
         id="rect13227-7"
         d="m 127.13229,186.00208 c -0.0733,0 -0.13229,0.059 -0.13229,0.13229 v 1.93994 c -0.44807,0.065 -0.78054,0.44899 -0.78083,0.90175 1.2e-4,0.5036 0.40849,0.91173 0.91209,0.91157 0.50339,-1.2e-4 0.91145,-0.40817 0.91157,-0.91157 -2.6e-4,-0.45172 -0.3314,-0.83508 -0.77825,-0.90124 v -1.94045 c 0,-0.0733 -0.059,-0.13229 -0.13229,-0.13229 z"
         style="color:#000000;display:inline;overflow:visible;opacity:1;fill:#cc0000;fill-opacity:1;fill-rule:evenodd;stroke:none;stroke-width:3.17499995;stroke-linecap:round;stroke-linejoin:round;stroke-miterlimit:4;stroke-dasharray:none;stroke-opacity:1"
         sodipodi:nodetypes="sscccccss" />
    </g>
  </g>
</svg>
