<svg height="24" viewBox="0 0 24 24" width="24" xmlns="http://www.w3.org/2000/svg"><path d="m0 .00001h24v24h-24z" fill="none"/><path d="m3 1-3 6h13l3-6zm.5 1h1l-.5 1h-1zm2 0h1l-.5 1h-1zm2 0h1l-.5 1h-1zm2 0h1l-.5 1h-1zm2 0h1l-.5 1h-1zm2 0h1l-.5 1h-1zm-10.75 1.5h1l-.5 1h-1zm10 0h1l-.5 1h-1zm-10.75 1.5h1l-.5 1h-1zm2 0h1l-.5 1h-1zm2 0h1l-.5 1h-1zm2 0h1l-.5 1h-1zm2 0h1l-.5 1h-1zm2 0h1l-.5 1h-1z" fill="#555753" transform="matrix(1.5 0 0 1.6666667 0 -.66663212126)"/><g transform="matrix(1.5 0 0 1.6666667 0 -1715.937)"><path d="m3 1037.3622h13l-3 6h-13z" fill="#d3d7cf"/><g transform="translate(.5)"><path d="m1.5 1041.3622h1l-.5 1h-1z"/><path d="m3.5 1041.3622h1l-.5 1h-1z"/><path d="m5.5 1041.3622h1l-.5 1h-1z"/><path d="m7.5 1041.3622h1l-.5 1h-1z"/><path d="m9.5 1041.3622h1l-.5 1h-1z"/><path d="m11.5 1041.3622h1l-.5 1h-1z"/></g><g transform="translate(2 -3)"><path d="m1.5 1041.3622h1l-.5 1h-1z"/><path d="m3.5 1041.3622h1l-.5 1h-1z"/><path d="m5.5 1041.3622h1l-.5 1h-1z"/><path d="m7.5 1041.3622h1l-.5 1h-1z"/><path d="m9.5 1041.3622h1l-.5 1h-1z"/><path d="m11.5 1041.3622h1l-.5 1h-1z"/></g><path d="m2.75 1039.8622h1l-.5 1h-1z"/><path d="m12.75 1039.8622h1l-.5 1h-1z"/></g></svg>