<svg height="24" viewBox="0 0 24 24" width="24" xmlns="http://www.w3.org/2000/svg" xmlns:xlink="http://www.w3.org/1999/xlink"><linearGradient id="a" gradientUnits="userSpaceOnUse" x1="-25.716305" x2="1.585028" y1="21.081213" y2="54.050068"><stop offset="0" stop-color="#86bd2a"/><stop offset="1" stop-color="#73a424"/></linearGradient><linearGradient id="b" gradientUnits="userSpaceOnUse" x1="4.335733" x2="-28.820567" y1="57.762379" y2="17.987622"><stop offset="0" stop-color="#3e5512"/><stop offset="1" stop-color="#567619"/></linearGradient><g stroke-linejoin="round"><rect fill="#eeeeec" fill-rule="evenodd" height="23.000025" rx=".538593" ry=".559727" stroke="#888a85" stroke-linecap="round" stroke-width=".999974" width="23.000027" x=".499672" y=".500301"/><rect fill="#555753" fill-rule="evenodd" height="19.413355" rx=".530209" ry=".554183" stroke="#2e3436" stroke-linecap="square" stroke-width=".586646" width="14.413354" x=".293341" y=".293323"/><rect fill="none" height="17.738785" opacity=".209016" rx=".535665" ry=".50638" stroke-linecap="square" stroke-width=".60672" width="14.561672" x=".854764" y="1.00036"/><g stroke-linecap="round" transform="matrix(0 .39024089317 -.31011100986 0 19.24541516754 14.82923123765)"><rect display="block" fill="url(#a)" height="40.920494" ry="1.149049" stroke="url(#b)" width="34.875" x="-29.8125" y="17.414753"/><g fill="none"><rect display="block" height="38.946384" opacity=".791209" rx=".149049" stroke="#fff" width="32.775887" x="-28.749998" y="18.352253"/><path d="m-25.916052 21.268307h5l4.999999 5v10" display="block" stroke="#b7e267"/><path d="m-11.916053 36.268307v-12l-3-3" display="block" stroke="#b7e267"/><path d="m-7.9160526 36.268307v-14l-1-1" display="block" stroke="#b7e267"/><path d="m-3.9160526 36.268307v-15" display="block" stroke="#b7e267"/><path d="m-15.916053 36.268307v2" display="block" stroke="#b7e267" stroke-width="2"/><path d="m-11.916053 36.268307v2" display="block" stroke="#b7e267" stroke-width="2"/><path d="m-7.9160526 36.268307v2" display="block" stroke="#b7e267" stroke-width="2"/><path d="m-3.9160526 36.268307v2" display="block" stroke="#b7e267" stroke-width="2"/><path d="m-3.9160526 45.268307v2" display="block" stroke="#b7e267" stroke-width="2"/><path d="m-7.9160526 45.268307v2" display="block" stroke="#b7e267" stroke-width="2"/><path d="m-11.916053 45.268307v2" display="block" stroke="#b7e267" stroke-width="2"/><path d="m-15.916053 45.268307v2" display="block" stroke="#b7e267" stroke-width="2"/><path d="m-15.916053 47.268307v4l-3 3h-6.999999" display="block" stroke="#b7e267"/><path d="m-11.916053 47.268307v7" display="block" stroke="#b7e267"/><path d="m-7.9160526 47.268307v4l3 3h6" display="block" stroke="#b7e267"/><path d="m-3.9160526 47.268307 2 2h3" display="block" stroke="#b7e267"/></g><path d="m-25.916052 24.268307h4l2.999999 3v22l-1.999999 2h-5z" display="block" fill="#b7e267" stroke="#b7e267"/><rect display="block" fill="none" height="17" ry="2.65165" stroke="#3e5512" width="18" x="-18.916052" y="33.268307"/></g></g><g transform="matrix(0 .57146392 -.54415169 0 36.652325 -10.06291)"><path d="m22.056313 26.927225h5.026019v9.97398h-5.026019z" fill="#2e3436"/><path d="m21.608353 32.434219h6.000001v5.01903h-6.000001z" fill="#eeeeec" stroke="#9b9b9b"/><path d="m22.5 33.453247h4.108354v3.046754h-4.108354z" fill="none" stroke="#fff"/></g><g transform="matrix(0 .57146392 -.54415169 0 36.652325 1.93709)"><path d="m22.056313 26.927225h5.026019v9.97398h-5.026019z" fill="#2e3436"/><path d="m21.608353 32.434219h6.000001v5.01903h-6.000001z" fill="#eeeeec" stroke="#9b9b9b"/><path d="m22.5 33.453247h4.108354v3.046754h-4.108354z" fill="none" stroke="#fff"/></g><g transform="matrix(0 .57146392 .54415169 0 1.347505 -4.06291)"><path d="m22.056313 26.927225h5.026019v9.97398h-5.026019z" fill="#2e3436"/><path d="m21.608353 32.434219h6.000001v5.01903h-6.000001z" fill="#eeeeec" stroke="#9b9b9b"/><path d="m22.5 33.453247h4.108354v3.046754h-4.108354z" fill="none" stroke="#fff"/></g></svg>