<svg height="24" viewBox="0 0 24 24" width="24" xmlns="http://www.w3.org/2000/svg" xmlns:xlink="http://www.w3.org/1999/xlink"><linearGradient id="a" gradientTransform="matrix(1.1313587 0 0 1.1710986 -1.150327 -180.23365)" gradientUnits="userSpaceOnUse" x1="3.095432" x2="19.29899" y1="1041.4088" y2="1041.4088"><stop offset="0" stop-color="#ededeb"/><stop offset="1" stop-color="#d3d6cf"/></linearGradient><radialGradient id="b" cx="2.96875" cy="14.025855" gradientTransform="matrix(1.7172691 -.00421756 .00228327 1.086778 -.668786 1020.4245)" gradientUnits="userSpaceOnUse" r="1.823314"><stop offset="0" stop-color="#a3bedd"/><stop offset="1" stop-color="#487cbc"/></radialGradient><g transform="translate(0 -1028.3622)"><path d="m3.7965743 1049.085.11744-14.4238 16.9085187-3.0649-.280165 14.2933-8.45485-6.3788z" fill="none" stroke="#000" stroke-width="2.4"/><g transform="matrix(.99995245 0 0 .99995245 0 .050042)"><path d="m3.7340684 1049.085.1799459-14.4238 16.9085177-3.0649-.280165 14.2933-8.454849-6.3788z" fill="none" stroke="url(#a)" stroke-width="1.597"/><g transform="matrix(1.0352729 0 0 .97275548 -1.118747 29.275414)"><ellipse cx="4.461381" cy="1033.7502" fill="url(#b)" rx="2.68324" ry="2.901102" stroke="#154384" stroke-width="1.395023"/><ellipse cx="4.558058" cy="1032.583147" fill="#adc5e1" rx="1.756718" ry="1.204291"/></g><g transform="matrix(1.0352729 0 0 .97275548 -1.118747 43.275414)"><ellipse cx="4.461381" cy="1033.7502" fill="url(#b)" rx="2.68324" ry="2.901102" stroke="#154384" stroke-width="1.395023"/><ellipse cx="4.558058" cy="1032.583147" fill="#adc5e1" rx="1.756718" ry="1.204291"/></g><g transform="matrix(1.0352729 0 0 .97275548 6.881253 35.275414)"><ellipse cx="4.461381" cy="1033.7502" fill="url(#b)" rx="2.68324" ry="2.901102" stroke="#154384" stroke-width="1.395023"/><ellipse cx="4.558058" cy="1032.583147" fill="#adc5e1" rx="1.756718" ry="1.204291"/></g><g transform="matrix(1.0352729 0 0 .97275548 15.881253 26.275414)"><ellipse cx="4.461381" cy="1033.7502" fill="url(#b)" rx="2.68324" ry="2.901102" stroke="#154384" stroke-width="1.395023"/><ellipse cx="4.558058" cy="1032.583147" fill="#adc5e1" rx="1.756718" ry="1.204291"/></g><g transform="matrix(1.0352729 0 0 .97275548 15.881253 40.275414)"><ellipse cx="4.461381" cy="1033.7502" fill="url(#b)" rx="2.68324" ry="2.901102" stroke="#154384" stroke-width="1.395023"/><ellipse cx="4.558058" cy="1032.583147" fill="#adc5e1" rx="1.756718" ry="1.204291"/></g></g></g></svg>