<svg height="24" viewBox="0 0 24 24" width="24" xmlns="http://www.w3.org/2000/svg" xmlns:xlink="http://www.w3.org/1999/xlink"><linearGradient id="a" gradientTransform="matrix(.49525698 0 0 .48083216 -64.571609 744.73396)" gradientUnits="userSpaceOnUse" x1="130.60985" x2="178.60985" xlink:href="#b" y1="631.98407" y2="631.98407"/><linearGradient id="b"><stop offset="0" stop-color="#e7ce79"/><stop offset="1" stop-color="#c17d11"/></linearGradient><linearGradient id="c" gradientTransform="matrix(.49495941 0 0 .44599145 -64.530069 766.22751)" gradientUnits="userSpaceOnUse" x1="144.62708" x2="197.17973" xlink:href="#b" y1="624.2533" y2="573.35046"/><linearGradient id="d" gradientTransform="matrix(.55783608 0 0 .45089998 -73.701415 762.59062)" gradientUnits="userSpaceOnUse" x1="167.54286" x2="154.65939" y1="590.24323" y2="611.33148"><stop offset="0" stop-color="#959791"/><stop offset=".37675089" stop-color="#f8f8f8"/><stop offset="1" stop-color="#8c8c8c"/></linearGradient><linearGradient id="e" gradientTransform="matrix(.25126116 0 0 .27027758 -161.56489 116.86383)" gradientUnits="userSpaceOnUse" x1="153.37535" x2="168.71077" y1="613.88568" y2="585.52985"><stop offset="0"/><stop offset="1" stop-color="#c9c9c9"/></linearGradient><filter id="f" color-interpolation-filters="sRGB" height="1.264665" width="1.459978" x="-.229989" y="-.132332"><feGaussianBlur stdDeviation=".55985302"/></filter><g transform="translate(0 -1028.3622)"><g stroke="#000" stroke-linecap="round" stroke-linejoin="round"><path d="m.149197 1045.7617h23.701607v5.701316h-23.701607z" fill="url(#a)" stroke-width=".298395"/><path d="m4.4987178 1040.5065h15.0025632l4.355087 4.9624h-23.71273575z" fill="url(#c)" stroke-width=".287294"/><path d="m12 1028.4887c-1.668204 0-3.1028914.5479-4.1961553 1.3801-1.0932693.8321-1.6783335 2.4359-1.6784619 3.7057.00111 1.6601.2657536 1.1203 2.517693 4.1272v5.5354h6.7138472v-5.5606c1.441205-2.6316 2.515374-2.3341 2.517694-4.102-.000127-1.2698-.622878-2.8838-1.678463-3.7057-1.055592-.8223-2.527946-1.3801-4.196154-1.3801z" fill="url(#d)" stroke-width=".250763"/><path d="m1.123105 1051.7521h21.75379v.487093h-21.75379z" stroke-width=".24621"/></g><path d="m-122.37361 275.92688c-.7514.00001-2.18608.24856-2.67851.7474s-.47374 1.83181-.47379 2.59304c.00049.9951.73823.87578 1.75256 2.67808l-.14229 4.13506 2.56948-.0875.0292-4.2376c.64916-1.57758 1.63199-1.3991 1.63303-2.45883-.00005-.76123.0225-2.01275-.45297-2.50551-.47546-.49276-1.4853-.8641-2.23669-.86411z" fill="url(#e)" filter="url(#f)" transform="matrix(1.46513 0 0 1.323916 191.88111 664.83716)"/></g></svg>