<svg height="24" viewBox="0 0 24 24" width="24" xmlns="http://www.w3.org/2000/svg" xmlns:xlink="http://www.w3.org/1999/xlink"><linearGradient id="a" gradientTransform="matrix(.60072171 0 0 .60098717 -1.832204 -.055418)" gradientUnits="userSpaceOnUse" x1="18.112709" x2="15.514889" y1="31.36775" y2="6.18025"><stop offset="0" stop-color="#424242"/><stop offset="1" stop-color="#777"/></linearGradient><linearGradient id="b" gradientTransform="matrix(.58583149 0 0 .59874372 -1.306445 24.343264)" gradientUnits="userSpaceOnUse" x1="22.175976" x2="22.065331" y1="36.987999" y2="32.050499"><stop offset="0" stop-color="#6194cb"/><stop offset="1" stop-color="#729fcf"/></linearGradient><linearGradient id="c" gradientTransform="matrix(.77184067 0 0 .50168839 -1.88797 23.335751)" gradientUnits="userSpaceOnUse" x1="13.035696" x2="12.853771" xlink:href="#d" y1="32.567184" y2="46.689312"/><linearGradient id="d"><stop offset="0" stop-color="#fff" stop-opacity=".796078"/><stop offset="1" stop-color="#fff" stop-opacity=".215686"/></linearGradient><radialGradient id="e" cx="23" cy="12.811336" fx="22.305519" fy="9.10744" gradientTransform="matrix(1 0 0 .75 8 12.75)" gradientUnits="userSpaceOnUse" r="4"><stop offset="0" stop-color="#fff"/><stop offset="1" stop-color="#555753"/></radialGradient><linearGradient id="f" gradientUnits="userSpaceOnUse" x1="29.849625" x2="35.907148" xlink:href="#d" y1="20.702785" y2="26.132356"/><linearGradient id="g" gradientTransform="matrix(1.1999998 0 0 1.2 -8.299991 -5.5)" gradientUnits="userSpaceOnUse" x1="33.5" x2="44.5" xlink:href="#d" y1="27.5" y2="27.5"/><path d="m.88412762 23.195223c.013093.250194.27627478.500388.52635808.500388h18.8188213c.250082 0 .487072-.250194.473979-.500388l-.562542-16.362918c-.0131-.250193-.276269-.500392-.526352-.500392h-7.972102c-.291384 0-.741575-.189664-.841998-.665071l-.367276-1.738699c-.0934-.44213-.5299649-.623756-.7800482-.623756h-8.87798107c-.25008813 0-.48707765.250193-.47398438.500387z" fill="#fff" stroke="url(#a)" stroke-linecap="round" stroke-linejoin="round" stroke-width=".600854"/><path d="m.003878 0h23.996145v23.996084h-23.996145z" fill="#bebebe" opacity="0"/><g transform="matrix(.50138702 0 0 .59162732 -11.311721 -7.591889)"><rect fill="#c17d11" height="2.179645" ry="1.089823" stroke="#8f5902" stroke-dashoffset="1.96" stroke-linecap="round" stroke-width="1.836772" transform="matrix(.8997453 .4364154 -.3756038 .9267803 0 0)" width="13.099022" x="40.698799" y="6.872793"/><g stroke-width="1.834737"><path d="m32.5 24.5 11.999997 6" fill="none" stroke="url(#g)" stroke-dashoffset="1.96" stroke-linecap="round"/><path d="m34.152603 25.518479c-1.009996 1.33264-2.634266 1.282064-4.284701.0075-1.629359-1.25824-2.367902-4.025979-2.367902-4.025979 1.713247 1.170566 3.49089.122618 5.01895.538741 2.014046.548469 2.357239 2.525002 1.633653 3.479738z" fill="url(#e)" fill-rule="evenodd" stroke="#2e3436"/><path d="m29.867902 25.526003c-1.629359-1.258264-2.367902-4.026003-2.367902-4.026003 1.713247 1.170566 2.97194.08388 4.5.500001-1.51895.96126-2 2-2.132098 3.526002z" fill="#3465a4" fill-rule="evenodd" stroke="#729fcf"/><path d="m29.086934 22.970488s2.241276-.331457 3.409265.126269c1.167989.457725.757615 2.020304.757615 2.020304" fill="none" stroke="url(#f)" stroke-dashoffset="1.96" stroke-linecap="round"/></g></g><g transform="matrix(0 .50138702 .59162732 0 -5.101881 -12.975378)"><rect fill="#c17d11" height="2.179645" ry="1.089823" stroke="#8f5902" stroke-dashoffset="1.96" stroke-linecap="round" stroke-width="1.836772" transform="matrix(.8997453 .4364154 -.3756038 .9267803 0 0)" width="13.099022" x="40.698799" y="6.872793"/><g stroke-width="1.834737"><path d="m32.5 24.5 11.999997 6" fill="none" stroke="url(#g)" stroke-dashoffset="1.96" stroke-linecap="round"/><path d="m34.152603 25.518479c-1.009996 1.33264-2.634266 1.282064-4.284701.0075-1.629359-1.25824-2.367902-4.025979-2.367902-4.025979 1.713247 1.170566 3.49089.122618 5.01895.538741 2.014046.548469 2.357239 2.525002 1.633653 3.479738z" fill="url(#e)" fill-rule="evenodd" stroke="#2e3436"/><path d="m29.867902 25.526003c-1.629359-1.258264-2.367902-4.026003-2.367902-4.026003 1.713247 1.170566 2.97194.08388 4.5.500001-1.51895.96126-2 2-2.132098 3.526002z" fill="#3465a4" fill-rule="evenodd" stroke="#729fcf"/><path d="m29.086934 22.970488s2.241276-.331457 3.409265.126269c1.167989.457725.757615 2.020304.757615 2.020304" fill="none" stroke="url(#f)" stroke-dashoffset="1.96" stroke-linecap="round"/></g></g><g transform="matrix(-.50138702 0 0 .59162732 36.295078 -9.494869)"><rect fill="#c17d11" height="2.179645" ry="1.089823" stroke="#8f5902" stroke-dashoffset="1.96" stroke-linecap="round" stroke-width="1.836772" transform="matrix(.8997453 .4364154 -.3756038 .9267803 0 0)" width="13.099022" x="40.698799" y="6.872793"/><g stroke-width="1.834737"><path d="m32.5 24.5 11.999997 6" fill="none" stroke="url(#g)" stroke-dashoffset="1.96" stroke-linecap="round"/><path d="m34.152603 25.518479c-1.009996 1.33264-2.634266 1.282064-4.284701.0075-1.629359-1.25824-2.367902-4.025979-2.367902-4.025979 1.713247 1.170566 3.49089.122618 5.01895.538741 2.014046.548469 2.357239 2.525002 1.633653 3.479738z" fill="url(#e)" fill-rule="evenodd" stroke="#2e3436"/><path d="m29.867902 25.526003c-1.629359-1.258264-2.367902-4.026003-2.367902-4.026003 1.713247 1.170566 2.97194.08388 4.5.500001-1.51895.96126-2 2-2.132098 3.526002z" fill="#3465a4" fill-rule="evenodd" stroke="#729fcf"/><path d="m29.086934 22.970488s2.241276-.331457 3.409265.126269c1.167989.457725.757615 2.020304.757615 2.020304" fill="none" stroke="url(#f)" stroke-dashoffset="1.96" stroke-linecap="round"/></g></g><g transform="matrix(.99949608 0 0 1.0005166 -.461848 -24.322559)"><path d="m22 48c.670129-.02638 1.150031-.656403 1.199218-1.389688.463853-6.914704.972105-12.712496.972105-12.712496.04227-.14818-.09837-.296359-.281282-.296359h-20.1357041s-1.0839751 13.092665-1.0839751 13.092665c-.06711.588005-.2730018 1.080563-.9079425 1.307485l20.2375807-.0016z" display="block" fill="url(#b)" stroke="#3465a4" stroke-linejoin="round" stroke-width=".592258"/><path d="m4.2632663 34.265001 19.2104097.03984-.922143 12.293645c-.0494.658573-.264026.877811-1.097081.877811-1.096404 0-16.8007634-.01992-18.3923646-.01992.1368518-.197177.1955282-.607628.1963136-.617456z" fill="none" opacity=".465909" stroke="url(#c)" stroke-linecap="round" stroke-width=".600059"/></g></svg>