<svg height="24" viewBox="0 0 24 24" width="24" xmlns="http://www.w3.org/2000/svg" xmlns:xlink="http://www.w3.org/1999/xlink"><linearGradient id="a"><stop offset="0" stop-color="#fff" stop-opacity=".796078"/><stop offset="1" stop-color="#fff" stop-opacity=".215686"/></linearGradient><linearGradient id="b" gradientUnits="userSpaceOnUse" x1="-.22833369072" x2="24.22833021286" y1="12.00000537172" y2="12.00000537172"><stop offset="0" stop-color="#030303"/><stop offset=".35135135" stop-color="#030303" stop-opacity="0"/><stop offset="1" stop-color="#030303"/></linearGradient><linearGradient id="c" gradientUnits="userSpaceOnUse" x1="9.6875" x2="9.40625" xlink:href="#a" y1="31.34375" y2="29.3125"/><linearGradient id="d" gradientTransform="matrix(-1 0 0 1 23.106302 0)" gradientUnits="userSpaceOnUse" x1="9.6875" x2="9.40625" xlink:href="#a" y1="31.34375" y2="29.3125"/><linearGradient id="e" gradientUnits="userSpaceOnUse" x1="11.453125" x2="11.453125" xlink:href="#a" y1="34" y2="32.390625"/><circle cx="12" cy="11.999999" fill="#d3d7cf" r="10.853594" stroke="url(#b)" stroke-linecap="round" stroke-linejoin="round" stroke-width="2.292812"/><g opacity=".843374" transform="matrix(.84126382552 0 0 .93954663199 6.38403052252 -16.17050529129)"><path d="m-31.66873 10.152117c-.744152 0-1.34375.539638-1.34375 1.209375v1.490625h-1.65625c-.744152 0-1.34375.539638-1.34375 1.209375v.99375c0 .669737.599598 1.209375 1.34375 1.209375h1.65625v1.678125c0 .669737.599598 1.209375 1.34375 1.209375h1.3125c.744152 0 1.34375-.539638 1.34375-1.209375v-1.678125h1.65625c.744152 0 1.34375-.539638 1.34375-1.209375v-.99375c0-.669737-.599598-1.209375-1.34375-1.209375h-1.65625v-1.490625c0-.669737-.599598-1.209375-1.34375-1.209375z" stroke="#d3d7cf" stroke-width=".51786" transform="translate(42.51248 15.347883)"/><path d="m7.0625 29.3125s-.03125.84375.5625.875h2.40625l-.03125.875-2.3125-.0625c-.8125-.0625-.625-1.6875-.625-1.6875z" fill="url(#c)"/><path d="m16.043802 29.3125s.03125.84375-.5625.875h-2.40625l.03125.875 2.3125-.0625c.8125-.0625.625-1.6875.625-1.6875z" fill="url(#d)"/><path d="m9.9375 32.71875h3.03125c-.04187.524614.07915 1.151034-.59375 1.28125h-1.75c-.7639132-.130002-.6332726-.756978-.6875-1.28125z" fill="url(#e)"/></g><g transform="matrix(.80279177 0 0 .98407933 31.873862 -16.442677)"><ellipse cx="-30.361156" cy="30.93512" fill="#3465a4" rx="1.368698" ry="1.024334" stroke="#204a87"/><ellipse cx="-30.350464" cy="30.604343" fill="#fff" fill-opacity=".64375" rx=".7592" ry=".330775"/></g><g transform="matrix(.80260927 0 0 .98394889 37.339675 -25.954228)"><ellipse cx="-33.440731" cy="32.983788" fill="#ef2929" rx="1.368698" ry="1.024334" stroke="#c00"/><ellipse cx="-33.430035" cy="32.631672" fill="#fff" fill-opacity=".64375" rx=".7592" ry=".330775"/></g><g transform="matrix(.80259327 0 0 .98404692 29.395835 -22.457611)"><ellipse cx="-27.281586" cy="32.983788" fill="#73d216" rx="1.368698" ry="1.024334" stroke="#4e9a06"/><ellipse cx="-27.249508" cy="32.674355" fill="#fff" fill-opacity=".64375" rx=".7592" ry=".330775"/></g><g transform="matrix(.80259179 0 0 .98399932 34.867417 -16.971856)"><ellipse cx="-30.361156" cy="35.032455" fill="#edd400" rx="1.368698" ry="1.024334" stroke="#c4a000"/><ellipse cx="-30.350464" cy="34.701679" fill="#fff" fill-opacity=".64375" rx=".7592" ry=".330775"/></g></svg>