<svg height="24" viewBox="0 0 24 24" width="24" xmlns="http://www.w3.org/2000/svg"><g fill-rule="evenodd" transform="translate(0 2)"><rect fill="#eeeeec" height="22.768805" rx=".933443" ry=".968187" stroke="#888a85" stroke-width="1.231195" width="22.768805" x=".615598" y="-1.384402"/><rect fill="#204a87" height="2" rx=".185226" ry=".222271" width="20" x="2"/><g stroke="#888a85" stroke-width="18.76" transform="matrix(.02028485 .02188317 -.02181519 .02034808 14.145557 -4.625744)"><path d="m161.78 597.91h126.63c-6.67-94.44-14.13-188.88-20.3-283.33 1.37-21.21 11.74-41.74 31.21-51.71 25.77-19.34 64.62-8.66 81.81 17.1 19.75 21.62 5.39 51.61 5.67 77.23-6.58 75.66-7.87 151.63-11.68 227.45 43.52 4.42 87.05 8.84 130.57 13.25 9.06-93 19.19-185.96 27.58-278.99.7-44.61-14.13-89.79-46.5-121.48-20.35-21.68-49.02-34.89-77.33-42.73-57.48-14.28-120.38-14.84-176.19 6.45-41.59 15.85-76.4 49.8-89.01 92.98-12.61 35.53-13.36 74.22-7.77 111.28 8.44 77.5 16.85 155.02 25.31 232.51z" fill="#d0411a"/><g fill="#959ba3"><path d="m152.02 507.66 10.38 91.25h125.94l-6.92-91.25zm228.12 0-6.84 91.25 131.39.61 10.21-91.86-128.14-.24"/><path d="m380.14 507.66-6.84 91.25 131.39.61 10.21-91.86-128.14-.24z"/></g></g></g></svg>