<svg height="24" viewBox="0 0 24 24" width="24" xmlns="http://www.w3.org/2000/svg" xmlns:xlink="http://www.w3.org/1999/xlink"><linearGradient id="a" gradientTransform="matrix(.60072161 0 0 .60098717 -1.832228 -.055418)" gradientUnits="userSpaceOnUse" x1="18.112709" x2="15.514889" y1="31.36775" y2="6.18025"><stop offset="0" stop-color="#424242"/><stop offset="1" stop-color="#777"/></linearGradient><linearGradient id="b" gradientTransform="matrix(.58553618 0 0 .59905303 -1.767658 .033281)" gradientUnits="userSpaceOnUse" x1="22.175976" x2="22.065331" y1="36.987999" y2="32.050499"><stop offset="0" stop-color="#6194cb"/><stop offset="1" stop-color="#729fcf"/></linearGradient><linearGradient id="c" gradientTransform="matrix(.77145159 0 0 .50194756 -2.348706 -.974753)" gradientUnits="userSpaceOnUse" x1="13.035696" x2="12.853771" xlink:href="#d" y1="32.567184" y2="46.689312"/><linearGradient id="d"><stop offset="0" stop-color="#fff" stop-opacity=".796078"/><stop offset="1" stop-color="#fff" stop-opacity=".215686"/></linearGradient><linearGradient id="e"><stop offset="0" stop-color="#6e3d09"/><stop offset=".24242425" stop-color="#ea8113"/><stop offset=".62121212" stop-color="#5c3307"/><stop offset="1" stop-color="#e07c12"/></linearGradient><linearGradient id="f"><stop offset="0" stop-color="#bdbdbd"/><stop offset=".33333334" stop-color="#e2e2e2"/><stop offset=".66666669" stop-color="#a3a3a3"/><stop offset="1" stop-color="#ddd"/></linearGradient><linearGradient id="g" gradientUnits="userSpaceOnUse" x1="6.154664" x2="9.603602" y1="3.449176" y2="8.987434"><stop offset="0" stop-color="#808080"/><stop offset="1" stop-color="#4d4d4d"/></linearGradient><linearGradient id="h" gradientUnits="userSpaceOnUse" x1="2.979" x2="6" y1="3.147" y2="7.842"><stop offset="0" stop-color="#fff"/><stop offset="1" stop-color="#808080"/></linearGradient><linearGradient id="i" gradientUnits="userSpaceOnUse" x1="1.721" x2="8.313" y1="4.02" y2="-.101"><stop offset="0" stop-color="#acacac"/><stop offset="1" stop-color="#6b6b6b" stop-opacity=".882"/></linearGradient><linearGradient id="j" gradientUnits="userSpaceOnUse" x1="8.510115" x2="14.391122" xlink:href="#e" y1="12.351767" y2="12.351767"/><linearGradient id="k" gradientUnits="userSpaceOnUse" x1="-.371071" x2="14.16794" y1="17.925917" y2="10.16636"><stop offset="0" stop-color="#6e3d09"/><stop offset=".20981443" stop-color="#ea8113"/><stop offset=".40646291" stop-color="#5c3307"/><stop offset="1" stop-color="#e07c12"/></linearGradient><linearGradient id="l" gradientUnits="userSpaceOnUse" x1="8.510115" x2="14.391122" xlink:href="#f" y1="12.351767" y2="12.351767"/><linearGradient id="m" gradientUnits="userSpaceOnUse" x1="24.151682" x2="29.530035" xlink:href="#e" y1="17.064911" y2="21.939911"/><linearGradient id="n" gradientUnits="userSpaceOnUse" x1="15.487785" x2="19.202381" xlink:href="#f" y1="28.198475" y2="31.635975"/><radialGradient id="o" cx="15.415101" cy="35.356506" gradientTransform="matrix(.994655 0 0 .969322 -4.583017 .165919)" gradientUnits="userSpaceOnUse" r="7.579156"><stop offset="0" stop-color="#696969"/><stop offset="1"/></radialGradient><linearGradient id="p" gradientUnits="userSpaceOnUse" x1="9.60604143419" x2="4.93199999648" xlink:href="#d" y1="35.93014161361" y2="39.79096547151"/><linearGradient id="q" gradientTransform="matrix(.00525957 .999987 .999987 -.00525957 42.9955 -2.496241)" gradientUnits="userSpaceOnUse" x1="48.90625" x2="50.988335" y1="17.376184" y2="22.250591"><stop offset="0" stop-color="#ffd1d1"/><stop offset=".5" stop-color="#ff1d1d"/><stop offset="1" stop-color="#6f0000"/></linearGradient><linearGradient id="r" gradientTransform="matrix(.00525957 .999987 .999987 -.00525957 42.99552 -2.496241)" gradientUnits="userSpaceOnUse" x1="46" x2="47.6875" y1="19.8125" y2="22.625"><stop offset="0" stop-color="#c1c1c1"/><stop offset="1" stop-color="#acacac"/></linearGradient><radialGradient id="s" cx="29.053354" cy="27.640751" gradientTransform="matrix(.0153767 2.923527 2.029691 -.01067544 20.39098 -69.72665)" gradientUnits="userSpaceOnUse" r="3.240855"><stop offset="0" stop-color="#e7e2b8"/><stop offset="1" stop-color="#e7e2b8" stop-opacity="0"/></radialGradient><linearGradient id="t" gradientTransform="matrix(.00525957 .999987 .999987 -.00525957 48.6929 -14.14491)" gradientUnits="userSpaceOnUse" x1="25.71875" x2="25.514589" y1="31.046875" y2="30.703125"><stop offset="0"/><stop offset="1" stop-color="#c9c9c9"/></linearGradient><path d="m.88410335 23.195223c.013093.250194.27627475.500388.52635795.500388h18.8188177c.250082 0 .487072-.250194.473979-.500388l-.562542-16.362918c-.013098-.250193-.276269-.500392-.526352-.500392h-7.9721c-.291384 0-.741575-.189664-.841998-.665071l-.367276-1.738699c-.093395-.44213-.5299646-.623756-.7800479-.623756h-8.87797962c-.25008809 0-.48707757.250193-.4739843.500387z" fill="#fff" stroke="url(#a)" stroke-linecap="round" stroke-linejoin="round" stroke-width=".600854"/><path d="m.003854 0h23.996141v23.996084h-23.996141z" fill="#bebebe" opacity="0"/><g transform="matrix(1.1249855 0 0 1.1250233 5 -1164.932)"><g transform="matrix(.85012838 .51995305 -.50889763 .82865467 4.427329 1032.2718)"><path d="m1.737 3.942c.907 2.881 6.586 6.936 8.174 5.818 1.61-1.133-.073-7.278-1.85-9.75" fill="url(#g)"/><path d="m1.737 3.943c.394 1.251 1.955 2.712 3.607 4.177.342-.798 1.243-2.426 4.557-3.842-.611-1.672-1.198-3.374-1.84-4.268" fill="url(#h)"/><path d="m1.737 3.943c.011.034.023.068.036.103l6.346-3.953c-.019-.028-.038-.057-.057-.083l-6.324 3.933" fill="url(#i)"/><g fill="url(#j)" fill-rule="evenodd"><path d="m1.838 13.01h2.466v7.101h-2.466z" fill="url(#k)" stroke="#673907" stroke-width=".499999" transform="matrix(.84502 -.53474 .53474 .84502 0 0)"/><path d="m12.201 11.868c1.044 1.533 1.92 2.756 1.697 2.908s-.911-1.225-1.955-2.758-1.743489-2.5744888-1.520489-2.7264888.734489 1.0424888 1.778489 2.5764888" fill="url(#l)" opacity=".5"/></g></g><g transform="matrix(-.07366747 .35374785 -.44735606 -.04193851 19.042748 1037.5613)"><path d="m19.651682 22.586735 4.065864 3.800698c7.187499-7.062499 17.78306-23.9772875 17.78306-23.9772875.42949-1.2244462-1.087245-1.99589286-1.846352-1.170495 0 0-13.690073 14.0970855-20.002572 21.3470845z" fill="url(#m)" stroke="#673907" stroke-linecap="round"/><path d="m12.050285 32.813894 2.24632 1.93382 8.492766-7.367031.275061-.705828 1.094405-.01782c-.4375-1.5625-2.941514-4.383455-4.816514-4.383455l.08202 1.090075-.669991.380027-6.704066 9.070207z" fill="url(#n)" stroke="#888a85" stroke-linecap="round"/><path d="m1.757709 40.723915c6.6053126 0 11.618187.786601 12.567225-4.019073.764793-3.872709-4.5603244-5.72836-7.1991314-2.271051-2.5420036 3.330479-5.3680936 6.290124-5.3680936 6.290124z" fill="url(#o)"/><circle cx="10.2323253977" cy="34.7498535" fill="#fff" opacity=".527778" r="1.0653725"/><circle cx="20.27286508713" cy="25.01861325" fill="#fff" r=".98483375"/><path d="m18.941438 26.398154-5.303301 6.14299" fill="none" stroke="#fff" stroke-linecap="round" stroke-linejoin="round"/><path d="m3.0708872 40.068976s3.3411114-1.641821 4.7648284-4.086829c.503707-.865037 1.644373-.126836.941666.734499-1.517828 1.860458-5.7064944 3.35233-5.7064944 3.35233z" fill="url(#p)" opacity=".427778"/></g><g fill-rule="evenodd" transform="matrix(.4621043 .11330868 -.14037077 .37900332 -20.860076 1026.0161)"><path d="m81.189325 8.8512115-5.595342 5.6545115-15.269189 31.644769c-1.23289 3.256532 3.40224 5.169682 5.012098 2.286172l14.894522-31.580297z" fill="#cb9022" stroke="#5c410c" stroke-width="1.000001"/><path d="m63.226659 41.398s.101309 1.436989 1.354252 1.992907c1.290792.572712 2.656215-.01397 2.656215-.01397l-2.442255 5.044169s-.873719 1.456649-2.840262.671199c-1.93968-.774722-1.17037-2.681384-1.17037-2.681384l2.44242-5.01292z" fill="url(#q)"/><path d="m63.226659 41.398s.101309 1.436989 1.354252 1.992907c1.290792.572712 2.656215-.01397 2.656215-.01397l-.989468 2.005234s-1.3145.833957-2.686314.232882c-1.409519-.617596-1.324153-2.211818-1.324153-2.211818z" fill="url(#r)"/><path d="m80.47809 10.282021-4.476274 4.52361c.820379 1.495707 2.168221 2.269879 3.728563 1.855416z" fill="url(#s)"/><path d="m79.078925 11.63315 1.585183-1.6333612-.300169 2.3453632c-.71759.222527-1.063472-.181909-1.285014-.712002z" fill="url(#t)"/><g fill-opacity=".363636"><path d="m75.970567 14.805795 1.258201 1.555905-12.78877 26.954662c-.85837-.439923-1.091114-1.236046-1.172258-1.897241z" fill="#fff"/><path d="m79.792879 16.660719-.749004.191442-12.549399 26.768391s.61304-.113386.748205-.219818z"/></g></g><path d="m.360186 1036.6418h15.359723v15.328328h-15.359723z" style="opacity:0;fill:none;stroke:#3c3c3c;stroke-width:.559309;stroke-linecap:round;stroke-linejoin:round"/></g><path d="m21.527038 23.702238c.669792-.02639 1.149451-.656742 1.198615-1.390406.463618-6.918276.971614-12.7190634.971614-12.7190634.04224-.1482565-.09832-.2965121-.28114-.2965121h-20.1255542s-1.0834287 13.0994285-1.0834287 13.0994285c-.067076.588309-.2728642 1.081121-.9074848 1.308161l20.2273787-.0016z" display="block" fill="url(#b)" stroke="#3465a4" stroke-linejoin="round" stroke-width=".592262"/><path d="m3.7994298 9.960143 19.2007262.039857-.921678 12.299996c-.04937.658913-.263893.878264-1.096528.878264-1.095851 0-16.7922948-.01993-18.3830937-.01993.1367828-.197279.1954297-.607942.1962147-.617775z" fill="none" opacity=".465909" stroke="url(#c)" stroke-linecap="round" stroke-width=".600063"/></svg>