<svg height="24" viewBox="0 0 24 24" width="24" xmlns="http://www.w3.org/2000/svg" xmlns:xlink="http://www.w3.org/1999/xlink"><linearGradient id="a" gradientTransform="matrix(.49923916 0 0 .51009081 .762156 1027.8597)" gradientUnits="userSpaceOnUse" x1="2" x2="8.917616"><stop offset="0" stop-color="#709bd2"/><stop offset="1" stop-color="#3465a4"/></linearGradient><linearGradient id="b" gradientTransform="matrix(.42033476 -.24933005 .2426799 .43185254 -37.094831 1056.5534)" gradientUnits="userSpaceOnUse" x1="83.84375" x2="119"><stop offset="0" stop-color="#818181"/><stop offset=".5" stop-color="#fff"/><stop offset="1" stop-color="#bebebe"/></linearGradient><g transform="translate(0 -1028.3622)"><g fill-rule="evenodd"><path d="m10.074519 1036.724-7.1158636.1429c-.9300493 0-2.25552396 1.174-2.25552396 2.8381v6.2025c0 2.3296 2.59194756 2.3242 2.59194756.044l.050931-6.0865c3.1306852-.3119 4.8440473-.7853 6.728509-3.141z" fill="url(#a)" stroke="#204a87" stroke-width="1.40527"/><path d="m4.0313466 1039.4826 6.6433744 11.2277c.510275.8249 1.330653 1.1421 2.121487.7209l9.641421-5.719c.733375-.513 1.073478-1.4764.605138-2.3203l-6.650961-11.0189z" fill="url(#b)" stroke="#555753" stroke-width="1.498798"/><ellipse cx="-508.142" cy="907.53473" fill="#d5d5d5" rx="2.203201" ry="2.201111" stroke="#555753" stroke-linecap="round" stroke-width="1.603055" transform="matrix(.86583575 -.50032835 .49966942 .86621618 0 0)"/></g><path d="m5.96701 1040.0083 5.354644 9.1246c.682551 1.2065.723505 1.1851 1.584964.5804l8.00065-4.8336c.956288-.5689 1.156706-.3532.561858-1.4149l-5.541329-9.2341z" fill="none" stroke="#fff" stroke-width="1.402508"/><path d="m13.751278 1038.2518v-6.4759c0-3.5901 7.497362-3.4795 7.497362.1493l.187499 8.1773" fill="none" stroke="#555753" stroke-linecap="round" stroke-width="1.5026"/></g></svg>