<svg height="24" viewBox="0 0 24 24" width="24" xmlns="http://www.w3.org/2000/svg" xmlns:xlink="http://www.w3.org/1999/xlink"><linearGradient id="a" gradientTransform="matrix(1.5511087 0 0 1.4994026 868.21842 220.12011)" gradientUnits="userSpaceOnUse" x1="23.991123" x2="23.991123" y1="6.583746" y2="15.069027"><stop offset="0" stop-color="#b1b1b1"/><stop offset=".2" stop-color="#dfdfdf"/><stop offset="1" stop-color="#565656"/></linearGradient><path d="m.59257178 7.2681314c-.85025705 2.1886591-.53567703 4.7791006-.53567703 7.4313596v9.300511h23.87688825s0 0 0-9.300511c0-2.52009.327517-5.2733983-.474231-7.4801699-3.396833-9.3496116-18.996311-9.9147322-22.86698022.04881z" fill="#c1c1c1"/><path d="m1.5431911 7.662453c-.77940256 2.0062707-.4910377 4.380842-.4910375 6.812079.0000005 8.525468.0000005 8.525468.0000005 8.525468h21.8871469s0 0 0-8.525468c0-2.310083.300224-4.8339481-.434712-6.8568217-3.113763-8.57047626-17.4132848-9.0885035-20.9613979.0447427z" fill="#555753"/><g fill-rule="evenodd"><ellipse cx="12.040905" cy="12.570719" fill="#eeeeec" rx="6.458454" ry="10.09702"/><ellipse cx="12.000002" cy="9.500002" fill="url(#a)" rx="3.368741" ry="7.118739" stroke="#595959" stroke-width=".762522"/></g></svg>