<svg height="24" viewBox="0 0 24 24" width="24" xmlns="http://www.w3.org/2000/svg" xmlns:xlink="http://www.w3.org/1999/xlink"><linearGradient id="a"><stop offset="0" stop-color="#fff"/><stop offset="1" stop-color="#fff" stop-opacity="0"/></linearGradient><linearGradient id="b"><stop offset="0" stop-color="#eeeeec"/><stop offset="1" stop-color="#a3a398"/></linearGradient><linearGradient id="c"><stop offset="0" stop-opacity=".278351"/><stop offset="1" stop-color="#a8a8a8" stop-opacity="0"/></linearGradient><linearGradient id="d" gradientUnits="userSpaceOnUse" x1="24" x2="23.433737" xlink:href="#b" y1="17.245949" y2="8.047659"/><linearGradient id="e" gradientTransform="matrix(.593728 0 0 .590305 7.25337 .782569)" gradientUnits="userSpaceOnUse" x1="17.160095" x2="37.969398" xlink:href="#a" y1="14.004482" y2="56.575912"/><radialGradient id="f" cx="24.225998" cy="30.479609" gradientTransform="matrix(1.840918 0 0 .821277 -20.45053 -6.182276)" gradientUnits="userSpaceOnUse" r="13.354399" xlink:href="#c"/><linearGradient id="g" gradientUnits="userSpaceOnUse" x1="23.433737" x2="23.433737" xlink:href="#b" y1="15.75864" y2="8.047659"/><linearGradient id="h" gradientTransform="matrix(.63763952 0 0 .22644438 -3.525355 12.111551)" gradientUnits="userSpaceOnUse" x1="24" x2="23.433737" xlink:href="#b" y1="17.245949" y2="8.047659"/><radialGradient id="i" cx="24.225998" cy="30.479609" gradientTransform="matrix(1.1927467 0 0 .19928333 -17.153937 4.066217)" gradientUnits="userSpaceOnUse" r="13.354399" xlink:href="#c"/><linearGradient id="j" gradientTransform="matrix(.64790863 0 0 .24265057 -3.903861 5.56635)" gradientUnits="userSpaceOnUse" x1="23.433737" x2="23.433737" xlink:href="#b" y1="15.75864" y2="8.047659"/><linearGradient id="k" gradientTransform="matrix(.61823835 0 0 .26260251 -3.188802 5.10276)" gradientUnits="userSpaceOnUse" x1="17.160095" x2="37.969398" xlink:href="#a" y1="14.004482" y2="56.575912"/><path d="m0 .118539h24v23.762693h-24z" opacity="0"/><g stroke-miterlimit="10"><ellipse cx="11.777994" cy="15.297947" display="block" fill="#d3d7cf" opacity=".236264" rx="8.198222" ry="1.245444" stroke="url(#h)" stroke-width=".680605"/><path d="m11.615599 7.6462107c-4.5302995 0-8.2139264.6861583-8.2139275 1.530236v5.8104033c0 .844079 3.683628 1.530236 8.2139275 1.530236 4.530299 0 8.360604-.686157 8.360603-1.530236 0-.04996 0-5.7604408 0-5.8104033 0-.8440783-3.830304-1.530236-8.360603-1.530236z" display="block" fill="none" opacity=".544304" stroke="url(#k)" stroke-width=".680605"/><ellipse cx="11.645947" cy="8.980791" display="block" fill="url(#i)" opacity=".773196" rx="8.330254" ry="1.334578" stroke="url(#j)" stroke-width=".680605"/><g transform="matrix(.92337719 0 0 .42977014 -7.904925 11.831894)"><path d="m21.464547 5.500002c-4.895979 0-8.876945 1.7334382-8.876946 3.8658299v14.3035631c0 2.132392 3.980966 3.865829 8.876946 3.865829 4.895981 0 9.035464-1.733438 9.035464-3.865829v-14.3035867c0-2.1323917-4.139483-3.8658063-9.035464-3.8658063z" display="block" fill="#3465a4" stroke="#767973" stroke-width="1.555547"/><ellipse cx="24" cy="14.071428" display="block" fill="#d3d7cf" opacity=".236264" rx="12.857142" ry="5.5" stroke="url(#d)" stroke-width="1.791129" transform="matrix(.61236 0 0 .509025 6.93016 16.53765)"/><path d="m21.470844 6.4999985c-4.350694 0-7.888282 1.5424173-7.888283 3.4398227v13.0612248c0 1.897408 3.537589 3.439823 7.888283 3.439823 4.350692 0 8.029144-1.542415 8.029142-3.439823 0-.112308 0-12.948914 0-13.0612248 0-1.8974064-3.67845-3.4398227-8.029142-3.4398227z" display="block" fill="none" opacity=".544304" stroke="url(#e)"/><ellipse cx="24" cy="14.071428" display="block" fill="url(#f)" opacity=".773196" rx="12.857142" ry="5.5" stroke="url(#g)" stroke-width="1.716514" transform="matrix(.622222 0 0 .545455 6.56666 1.824673)"/></g><g fill="#73d216" transform="matrix(.92337745 0 0 .42976732 -7.904928 5.396179)"><path d="m21.464547 5.500002c-4.895979 0-8.876946 1.5027854-8.876946 3.6351771v14.7625619c0 2.132392 3.980966 3.777946 8.876946 3.777946 4.895981 0 9.035464-1.733438 9.035464-3.865829v-14.6746789c0-2.1323917-4.139483-3.6351771-9.035464-3.6351771z" display="block" stroke="#767973" stroke-width="1.555547"/><ellipse cx="24" cy="14.071428" display="block" opacity=".236264" rx="12.857142" ry="5.5" stroke="url(#d)" stroke-width="1.791129" transform="matrix(.61236 0 0 .509025 6.93016 16.53765)"/><path d="m21.470844 6.4999985c-4.350694 0-7.888282 1.5424173-7.888283 3.4398227v13.0612248c0 1.897408 3.537589 3.439823 7.888283 3.439823 4.350692 0 8.029144-1.542415 8.029142-3.439823 0-.112308 0-12.948914 0-13.0612248 0-1.8974064-3.67845-3.4398227-8.029142-3.4398227z" display="block" opacity=".544304" stroke="url(#e)"/><ellipse cx="24" cy="14.071428" display="block" opacity=".773196" rx="12.857142" ry="5.5" stroke="url(#g)" stroke-width="1.716514" transform="matrix(.622222 0 0 .545455 6.56666 1.824673)"/></g><g transform="matrix(.92706904 0 0 .47318915 -7.981985 -2.25156)"><path d="m21.464547 5.500002c-4.895979 0-8.876946 1.7334382-8.876946 3.8658299v14.4809861c0 2.132392 3.980966 3.688406 8.876946 3.688406 4.895981 0 9.035464-1.556015 9.035464-3.688406v-14.4809861c0-2.1323917-4.139483-3.8658299-9.035464-3.8658299z" display="block" fill="#c00" stroke="#767973" stroke-width="1.483363"/><ellipse cx="24" cy="14.071428" display="block" fill="#d3d7cf" opacity=".236264" rx="12.857142" ry="5.5" stroke="url(#d)" stroke-width="1.791129" transform="matrix(.61236 0 0 .509025 6.93016 16.53765)"/><path d="m21.470844 6.4999985c-4.350694 0-7.888282 1.5424173-7.888283 3.4398227v13.0612248c0 1.897408 3.537589 3.439823 7.888283 3.439823 4.350692 0 8.029144-1.542415 8.029142-3.439823 0-.112308 0-12.948914 0-13.0612248 0-1.8974064-3.67845-3.4398227-8.029142-3.4398227z" display="block" fill="none" opacity=".544304" stroke="url(#e)"/><ellipse cx="24" cy="14.071428" display="block" fill="url(#f)" opacity=".773196" rx="12.857142" ry="5.5" stroke="url(#g)" stroke-width="1.716514" transform="matrix(.622222 0 0 .545455 6.56666 1.824673)"/></g></g></svg>