<svg height="24" viewBox="0 0 24 24" width="24" xmlns="http://www.w3.org/2000/svg" xmlns:xlink="http://www.w3.org/1999/xlink"><linearGradient id="a" gradientTransform="matrix(.6008182 0 0 .60098717 -1.836377 23.944582)" gradientUnits="userSpaceOnUse" x1="18.112709" x2="15.514889" y1="31.36775" y2="6.18025"><stop offset="0" stop-color="#424242"/><stop offset="1" stop-color="#777"/></linearGradient><linearGradient id="b" gradientTransform="matrix(.58583149 0 0 .59874372 -1.306445 24.343264)" gradientUnits="userSpaceOnUse" x1="22.175976" x2="22.065331" y1="36.987999" y2="32.050499"><stop offset="0" stop-color="#6194cb"/><stop offset="1" stop-color="#729fcf"/></linearGradient><linearGradient id="c" gradientTransform="matrix(.77184067 0 0 .50168839 -1.887946 23.335751)" gradientUnits="userSpaceOnUse" x1="13.035696" x2="12.853771" xlink:href="#d" y1="32.567184" y2="46.689312"/><linearGradient id="d"><stop offset="0" stop-color="#fff" stop-opacity=".796078"/><stop offset="1" stop-color="#fff" stop-opacity=".215686"/></linearGradient><linearGradient id="e" gradientTransform="matrix(.96592585 -.25881896 .25881896 .96592585 1714.031817 -60.212184)" gradientUnits="userSpaceOnUse" x1="22.96538" x2="12.641191" y1="35.310566" y2="11.423575"><stop offset="0" stop-color="#888a85"/><stop offset="1" stop-color="#d3d7cf"/></linearGradient><linearGradient id="f" gradientTransform="matrix(.96592585 -.25881896 .25881896 .96592585 1714.031817 -60.212184)" gradientUnits="userSpaceOnUse" x1="17.413136" x2="17.027729" xlink:href="#d" y1="7.870833" y2="52.50489"/><radialGradient id="g" cx="31" cy="12" gradientTransform="matrix(.977466 -.261911 .261911 .977466 1704.3059 -52.578155)" gradientUnits="userSpaceOnUse" r="11.125"><stop offset="0"/><stop offset="1" stop-opacity="0"/></radialGradient><linearGradient id="h" gradientTransform="matrix(.909106 -.243594 .243594 .909106 1715.427 -59.550735)" gradientUnits="userSpaceOnUse" x1="21.788134" x2="10.211396" y1="21.876961" y2="3.423279"><stop offset="0" stop-color="#d3d7cf"/><stop offset="1" stop-color="#888a85"/></linearGradient><linearGradient id="i" gradientTransform="matrix(.96592585 -.25881896 .25881896 .96592585 1930.200095 -62.364946)" gradientUnits="userSpaceOnUse" x1="16.487501" x2="32.566654" xlink:href="#d" y1="13.970829" y2="30.758347"/><linearGradient id="j" gradientTransform="matrix(.96592585 -.25881896 .25881896 .96592585 4140.84537 -141.330142)" gradientUnits="userSpaceOnUse" x1="28.357094" x2="17.732124" xlink:href="#d" y1="22.794661" y2="5.187518"/><path d="m.88039079 47.195223c.01309514.250194.27631921.500388.52644261.500388h18.8218436c.250122 0 .48715-.250194.474055-.500388l-.562632-16.362918c-.0131-.250193-.276314-.500392-.526437-.500392h-7.973382c-.291431 0-.741694-.189664-.842133-.665071l-.367335-1.738699c-.09341-.44213-.53005-.623756-.7801735-.623756h-8.87940713c-.2501283 0-.48715589.250193-.47406051.500387z" fill="#fff" stroke="url(#a)" stroke-linecap="round" stroke-linejoin="round" stroke-width=".600903" transform="matrix(.9998394 0 0 1 .003854 -24)"/><path d="m0 24h24v23.996084h-24z" fill="#bebebe" opacity="0" transform="matrix(.9998394 0 0 1 .003854 -24)"/><g transform="matrix(.72655838598 .19471194 -.19468066926 .72667509 -6.18553682417 -4.756171)"><path d="m31 .5c-.561936.00000002-1.1158.047001-1.65625.125l-.21875 3.09375c-.95964.2157447-1.849514.5835315-2.65625 1.09375l-2.34375-2.03125c-1.125001.7187509-1.625 1.21875-2.34375 2.34375l2.03125 2.34375c-.510219.8067359-.878005 1.6966095-1.09375 2.65625l-3.09375.21875c-.078.54045-.125 1.094312-.125 1.65625-.000001.561939.047 1.115801.125 1.65625l3.09375.21875c.215745.959641.583531 1.849514 1.09375 2.65625l-2.03125 2.34375c.71875 1.124999 1.21875 1.625 2.34375 2.34375l2.34375-2.03125c.806736.510219 1.696609.878005 2.65625 1.09375l.21875 3.09375c.54045.078 1.094313.125 1.65625.125.561936 0 1.115801-.047 1.65625-.125l.21875-3.09375c.959641-.215745 1.849514-.583531 2.65625-1.09375l2.34375 2.03125c1.125002-.718751 1.625-1.21875 2.34375-2.34375l-2.03125-2.34375c.510219-.806736.878005-1.696609 1.09375-2.65625l3.09375-.21875c.078-.540449.124999-1.094311.125-1.65625 0-.561937-.047-1.115801-.125-1.65625l-3.09375-.21875c-.215745-.9596405-.583531-1.8495141-1.09375-2.65625l2.03125-2.34375c-.649489-1.1076848-1.21875-1.625-2.34375-2.34375l-2.34375 2.03125c-.806736-.5102185-1.696609-.8780053-2.65625-1.09375l-.21875-3.09375c-.54045-.07799898-1.094312-.125-1.65625-.125zm0 9c1.380001.0000003 2.499999 1.119998 2.5 2.5.000001 1.380003-1.119997 2.5-2.5 2.5-1.380002 0-2.5-1.119997-2.5-2.5 0-1.380002 1.119998-2.5 2.5-2.5z" fill="url(#e)" stroke="#2e3436" stroke-linecap="square" stroke-width="1.005436"/><path d="m31.000007 1.437503c-.260073 0-.522134.041957-.78125.0625l-.21875 3.062501c-1.31703.174704-2.521711.702045-3.531252 1.468751l-2.3125-1.968751c-.391043.337636-.756116.702709-1.093751 1.093751l1.968751 2.312501c-.766706 1.009539-1.294048 2.214221-1.468751 3.53125l-3.0625.218751c-.02054.259116-.0625.521176-.0625.78125 0 .260073.04196.522133.0625.78125l3.062501.21875c.174704 1.317029.702045 2.521711 1.468751 3.531251l-1.968751 2.312501c.337635.391042.702708.756115 1.093751 1.09375l2.312501-1.968751c1.009539.766706 2.214221 1.294048 3.53125 1.468751l.218751 3.062501c.259116.02054.521177.0625.78125.0625.260072 0 .522134-.04196.78125-.0625l.21875-3.062501c1.317029-.174704 2.521711-.702045 3.531251-1.468751l2.312501 1.968751c.391043-.337635.756115-.702708 1.09375-1.093751l-1.968751-2.3125c.766706-1.00954 1.294048-2.214222 1.468751-3.531251l3.062501-.21875c.02054-.259116.0625-.521177.0625-.781251.000001-.260072-.04196-.522133-.0625-.781249l-3.062501-.21875c-.174704-1.31703-.702046-2.521711-1.468752-3.531252l1.968751-2.312501c-.337634-.391041-.702707-.756115-1.09375-1.09375l-2.312501 1.968751c-1.009539-.766706-2.214221-1.294048-3.53125-1.468751l-.218751-3.062501c-.259116-.020543-.521177-.062499-.78125-.0625z" fill="none" stroke="url(#f)" stroke-linecap="square" stroke-width="1.133334"/><path d="m31 .875c-.32102.00000002-.583975.0443823-.8125.0625l-.5.03125-.03125.5-.1875 2.65625c-1.060092.2090559-2.041676.6405265-2.90625 1.21875l-2.40625-2.03125-1.84375 1.84375 2.03125 2.40625c-.578224.864573-1.009695 1.846158-1.21875 2.90625l-2.65625.1875-.5.03125-.03125.5c-.018119.228528-.0625.491482-.0625.8125 0 .321017.04438.583973.0625.8125l.03125.5.5.03125 2.65625.1875c.209056 1.060092.640526 2.041676 1.21875 2.90625l-1.71875 2.03125-.3125.375.3125.375c.35567.411929.744319.80058 1.15625 1.15625l.375.3125.375-.3125 2.03125-1.71875c.864573.578224 1.846158 1.009695 2.90625 1.21875l.1875 2.65625.03125.5.5.03125c.228528.01812.491482.0625.8125.0625.321018.000001.583973-.04438.8125-.0625l.5-.03125.03125-.5.1875-2.65625c1.060091-.209056 2.041676-.640526 2.90625-1.21875l2.03125 1.71875.375.3125.375-.3125c.411933-.355671.80058-.74432 1.15625-1.15625l.3125-.375-.3125-.375-1.71875-2.03125c.578224-.864573 1.009695-1.846158 1.21875-2.90625l2.65625-.1875.5-.03125.03125-.5c.018117-.228525.0625-.491482.0625-.8125-.000001-.321015-.04438-.583972-.0625-.8125l-.03125-.5-.5-.03125-2.65625-.1875c-.209055-1.0600925-.640526-2.0416762-1.21875-2.90625l1.71875-2.03125.3125-.375-.3125-.375c-.355668-.4119287-.744319-.8005796-1.15625-1.15625l-.375-.3125-.375.3125-2.03125 1.71875c-.864573-.5782237-1.846158-1.0096946-2.90625-1.21875l-.1875-2.65625-.03125-.5-.5-.03125c-.228527-.01811779-.491484-.06249877-.8125-.0625zm0 7.625c1.932001-.0000024 3.499998 1.567999 3.5 3.5.000002 1.932002-1.567999 3.499998-3.5 3.5-1.932002.000002-3.499998-1.567999-3.5-3.5-.000001-1.932002 1.567999-3.4999978 3.5-3.5z" fill="url(#g)" opacity=".8"/><path d="m31 4c-4.415997 0-8 3.584-8 8 0 4.416001 3.584001 8.000001 8 8 4.415999 0 8-3.583999 8-8-.000001-4.416-3.584-8-8-8zm0 5c1.655999-.0000018 2.999998 1.344006 3 3s-1.344001 2.999998-3 3c-1.656.000002-2.999998-1.344006-3-3-.000001-1.655994 1.344001-2.9999981 3-3z" fill="url(#h)"/><g fill="none" stroke-linecap="square"><circle cx="23.5" cy="19" r="8.5" stroke="url(#i)" stroke-width="1.133333" transform="matrix(.882353 -.00000103 .00000103 .882353 10.26469 -4.764686)"/><circle cx="23.5" cy="19" r="8.5" stroke="url(#j)" stroke-width="2.428571" transform="matrix(.411765 -.00000048 .00000048 .411765 21.32353 4.17647)"/></g></g><g transform="matrix(.99949608515 0 0 1.0005166 -.46187219236 -24.322559)"><path d="m22 48c.670129-.02638 1.150031-.656403 1.199218-1.389688.463853-6.914704.972105-12.712496.972105-12.712496.04227-.14818-.09837-.296359-.281282-.296359h-20.1357041s-1.0839751 13.092665-1.0839751 13.092665c-.06711.588005-.2730018 1.080563-.9079425 1.307485l20.2375807-.0016z" display="block" fill="url(#b)" stroke="#3465a4" stroke-linejoin="round" stroke-width=".592258"/><path d="m4.26329 34.265001 19.21041.03984-.922143 12.293645c-.0494.658573-.264026.877811-1.097081.877811-1.096404 0-16.8007637-.01992-18.3923649-.01992.1368518-.197177.1955282-.607628.1963136-.617456z" fill="none" opacity=".465909" stroke="url(#c)" stroke-linecap="round" stroke-width=".600059"/></g></svg>