<svg height="24" viewBox="0 0 24 24" width="24" xmlns="http://www.w3.org/2000/svg" xmlns:xlink="http://www.w3.org/1999/xlink"><linearGradient id="a" gradientUnits="userSpaceOnUse" x1="1.89864976359" x2="5.85134999641" y1="9.06818323003" y2="9.06818323003"><stop offset="0" stop-color="#d3d7cf"/><stop offset="1" stop-color="#d3d7cf" stop-opacity="0"/></linearGradient><linearGradient id="b" gradientUnits="userSpaceOnUse" x1="33.31266" x2="-2.852047" xlink:href="#c" y1="6.117733" y2="6.009967"/><linearGradient id="c"><stop offset="0"/><stop offset="1" stop-opacity="0"/></linearGradient><linearGradient id="d" gradientUnits="userSpaceOnUse" x1="11.46920034584" x2=".82862152896" xlink:href="#c" y1="7.07943970186" y2="8.97938040656"/><linearGradient id="e" gradientUnits="userSpaceOnUse" x1="12.869631" x2="3.716116" xlink:href="#c" y1="12.925662" y2="12.949246"/><g transform="scale(1.5)"><path d="m0 .000052h16v15.900205h-16z" fill="none"/><g stroke="#fff"><path d="m9.1585583.62384887c-.4846536-.00392728-1.004719.02909133-1.513801.09204565-4.0726759.50406648-7.20391333 3.05675008-7.01291489 5.70683038.19099843 2.6500802 3.61990479 4.3699641 7.69258069 3.8659181 4.0726749-.5040673 7.2348069-3.056741 7.0438089-5.7068311-.167124-2.3188142-2.817119-3.92642697-6.2096737-3.95796303zm-.1853634 1.47273033c1.3636911.011094 2.5666351.3063771 3.4601161.797729.893491.491352 1.477519 1.1787832 1.544695 1.9943225.15355 1.8640938-2.379433 3.664762-5.6535829 4.0193268-3.2741502.3545648-6.0561235-.8665939-6.2096736-2.7306877-.1535501-1.8640937 2.3794332-3.6647621 5.6535834-4.0193269.4092725-.04428.8152332-.064506 1.204862-.061364z" fill="#d3d7cf" stroke-width=".247073"/><path d="m3.8919616 10.120063s4.2081419 2.879937 0 5.759874h1.9399235c3.4918625-2.443252-.014927-5.759874-.014927-5.759874z" fill="#d3d7cf" stroke-width=".240127"/><path d="m3.875 7.1975712c-1.0395953 0-1.8823529.8375012-1.8823529 1.8706122 0 1.0331106.8427576 1.8706126 1.8823529 1.8706126s1.8823529-.837502 1.8823529-1.8706126c0-1.033111-.8427576-1.8706122-1.8823529-1.8706122zm0 .9353062c.5197929 0 .9411765.4187552.9411765.935306 0 .516551-.4213836.9353066-.9411765.9353066s-.9411765-.4187556-.9411765-.9353066c0-.5165508.4213836-.935306.9411765-.935306z" fill="url(#a)" stroke-width=".235294"/></g><path d="m9.1585583.62384844c-.4846536-.00392728-1.004719.02909133-1.513801.09204565-4.0726759.50406651-7.20391333 3.05675011-7.01291489 5.70683041.19099843 2.6500802 3.61990479 4.3699645 7.69258069 3.8659185 4.0726749-.5040677 7.2348069-3.0567414 7.0438089-5.7068315-.167124-2.3188142-2.817119-3.926427-6.2096737-3.95796306zm-.1853634 1.47273036c1.3636911.011094 2.5666351.3063771 3.4601161.797729.893491.491352 1.477519 1.1787832 1.544695 1.9943225.15355 1.8640938-2.379433 3.664762-5.6535829 4.0193268-3.2741502.3545648-6.0561235-.8665939-6.2096736-2.7306877-.1535501-1.8640937 2.3794332-3.6647621 5.6535834-4.0193269.4092725-.04428.8152332-.064506 1.204862-.061364z" fill="url(#b)"/><path d="m3.875 7.1975712c-1.0395953 0-1.8823529.8375012-1.8823529 1.8706122 0 1.0331106.8427576 1.8706126 1.8823529 1.8706126s1.8823529-.837502 1.8823529-1.8706126c0-1.033111-.8427576-1.8706122-1.8823529-1.8706122zm0 .9353062c.5197929 0 .9411765.4187552.9411765.935306 0 .516551-.4213836.9353066-.9411765.9353066s-.9411765-.4187556-.9411765-.9353066c0-.5165508.4213836-.935306.9411765-.935306z" fill="url(#d)"/><path d="m3.8919616 10.120063s4.2081419 2.879937 0 5.759874h1.9399235c3.4918625-2.443252-.014927-5.759874-.014927-5.759874z" fill="url(#e)"/></g></svg>