<svg height="24" viewBox="0 0 24 23.999999" width="24" xmlns="http://www.w3.org/2000/svg"><path d="m0 0h24v24h-24z" fill="none"/><path d="m52.91884 17.289866c-5.167003 0-9.32378 4.156778-9.32378 9.323779v45.580257c0 5.167004 4.156777 9.32378 9.32378 9.32378h63.07279c5.16701 0 9.32378-4.156776 9.32378-9.32378v-45.580257c0-5.167001-4.15677-9.323779-9.32378-9.323779z" fill="#eeeeec" stroke="#396db1" stroke-width="3.767271" transform="matrix(.28070311378 0 0 .26477146404 -11.70686239359 -1.08070970713)"/><g stroke-linecap="round" stroke-linejoin="round"><g stroke-width=".308849" transform="matrix(1.19121334612 0 0 1.51637351386 .69101787894 -3.96452956223)"><path d="m7.6775054 14.989937h-3.2822408c-.9299683 0-1.8506764-.339668-2.1881602-1.307782-.3204812-.91934-.0547041-2.670055 2.0240482-4.0868194h3.883985c2.0787524 1.3077814 2.3385304 3.0962914 1.8599362 4.1413094-.487572 1.064621-1.3128961 1.253292-2.2975684 1.253292z" fill="#73d216" fill-rule="evenodd" stroke="#4e9a06"/><path d="m7.6267926 14.686845-3.2472247-.0068c-.8168692 0-1.6256044-.298359-1.9220449-1.148735-.2815056-.807534.029311-2.345334 1.8552548-3.5897965l3.5663564-.0749361c1.8259428 1.1487346 2.1793568 2.7197326 1.7521297 3.7125856-.4272278.992852-1.050657 1.100871-2.0044713 1.107682z" fill="none" opacity=".21519" stroke="#fff"/></g><ellipse cx="-6.091089" cy="8.015099" fill="#fcaf3e" fill-rule="evenodd" rx="2.680497" ry="2.670055" stroke="#c17d11" stroke-width=".308849" transform="matrix(-1.25940109341 0 0 1.27625685087 .31395987275 -.62456599835)"/><ellipse cx="-6.091083" cy="8.015102" fill="none" opacity=".196203" rx="2.35105" ry="2.341892" stroke="#fff" stroke-width=".30885" transform="matrix(-1.25940109341 0 0 1.27625685087 .31395987275 -.62456599835)"/></g><path d="m15 14h7.000001v2h-7.000001z"/><path d="m15 10h7.000001v2h-7.000001z"/><path d="m15 6h7.000001v2h-7.000001z"/></svg>