<svg height="24" viewBox="0 0 24 24" width="24" xmlns="http://www.w3.org/2000/svg" xmlns:xlink="http://www.w3.org/1999/xlink"><linearGradient id="a" gradientTransform="matrix(-1.2317617 0 0 1.1711927 372.55697 -3.322858)" gradientUnits="userSpaceOnUse" x1="292.97168" x2="296.93979" xlink:href="#b" y1="4.759277" y2="10.711433"/><linearGradient id="b" gradientUnits="userSpaceOnUse" x1="292.97168" x2="296.93979" y1="4.759277" y2="10.711433"><stop offset="0" stop-color="#eeeeec"/><stop offset="1" stop-color="#fff"/></linearGradient><linearGradient id="c" gradientTransform="matrix(.32711789 0 0 .31608888 .011782 .009668)" gradientUnits="userSpaceOnUse" x1="20.288025" x2="24.32597" xlink:href="#d" y1="6.460365" y2="23.942537"/><linearGradient id="d"><stop offset="0" stop-color="#e2e2e2"/><stop offset="1" stop-color="#d8d8d8"/></linearGradient><linearGradient id="e" gradientTransform="matrix(1.3259485 0 0 1.3075336 -384.44437 -2.647134)" gradientUnits="userSpaceOnUse" x1="292.97168" x2="296.93979" xlink:href="#b" y1="4.759277" y2="10.711433"/><linearGradient id="f" gradientTransform="matrix(.32711789 0 0 .31608888 .094163 1.115888)" gradientUnits="userSpaceOnUse" x1="20.288025" x2="24.32597" xlink:href="#d" y1="6.460365" y2="23.942537"/><g transform="translate(0 -1028.3622)"><path d="m0 1028.3622h24v24h-24z" fill="#3465a4" opacity="0"/><path d="m297.04443 12.300293-.64502 1.084473-1.2666 1.333984-.40039-1.045898 1.01416-1.712403z" fill="#204a87" stroke="#000" stroke-linecap="round" stroke-linejoin="round" stroke-width=".131287" transform="matrix(2.3628035 0 0 1.9869615 -688.10127 1016.8817)"/><path d="m8.6918817 1043.161c2.2612993.3847 3.0445973 2.7149 1.7466963 5.2054-1.2975589 2.4918-4.1815534 4.2006-6.4428098 3.8198-2.2622384-.3846-3.0442788-2.7137-1.7463784-5.2042 1.2969407-2.4904 4.1818722-4.1994 6.4424919-3.821zm-.824239 1.587c-1.0037522-.1693-2.7777448.8909-3.6483373 2.5657-.8731351 1.6754-.4023895 3.1185.6002141 3.2869 1.003463.1718 2.778583-.8911 3.6491739-2.5659.8739897-1.6755.4026822-3.1173-.6010507-3.2867z" fill="#3465a4" stroke="#000" stroke-width=".24434"/><path d="m13.7296 1041.5164-3.08291.5286 1.479969 2.0637 1.047187 1.1429c-.286594 1.1945.06004 2.7058 1.090131 4.1091 1.722017 2.3474 4.663767 3.4867 6.573819 2.5492 1.910068-.9417 2.062289-3.604.340252-5.95-1.721142-2.346-4.663768-3.487-6.57382-2.5522-.015.01-.02483.02-.03965.027zm2.760887 3.2803c1.21254.2192 2.15889.7947 3.02594 1.9783 1.158439 1.5781 1.07492 3.2268.227932 3.642-.846969.419-2.662694-.2963-3.818759-1.8744-.532184-.7245-.754677-1.3476-.845679-2.0851-.05769-.4676-.14169-1.051.200336-1.3996.278247-.2836.803673-.3347 1.21023-.2612z" fill="#3465a4" stroke="#000" stroke-width=".247515"/><g transform="matrix(1.3830507 0 0 1.4024706 1.014097 1028.0446)"><path d="m11.395136.5078667c.06324.0194041-.05214-.0297022.0096-.009079.794951.9635596 1.272205 1.321729.929506 1.9411905-1.141668 1.8064743-2.275171 3.6369175-3.4083086 5.4576381-.2225373.0415922-.4470249.0642457-.671947.0692789-.4733939.0113846-.9593651-.0550673-1.4086595-.2078367 1.5072265-2.4211157 3.0150874-4.8475709 4.5498091-7.2511918z" fill="url(#a)" stroke="#555753" stroke-linecap="round" stroke-linejoin="round" stroke-width=".290669" transform="matrix(1.1330815 0 0 1.0688983 -.885716 .979072)"/><path d="m11.22827 1.3530456c-.0756.097183-.147077.2752951-.224413.3654778-1.323799 2.1344626-2.6699395 4.2653283-3.9986296 6.3909221-.019807.0800074-.2662507.3199739-.0039385.2980601.3636102.0625476.7431291.110822 1.1056019.0180297 1.2296325-1.9651907 2.4356792-3.9455545 3.6625052-5.911439.112029-.1224129.133829-.2924637.016145-.4147025-.173378-.2581207-.349015-.5293588-.526669-.7759815l-.02308.022351z" fill="url(#c)" transform="matrix(1.1330815 0 0 1.0688983 -.885716 .979072)"/><path d="m4.3336434 1.6295326c-.068084.021663-.000595.00796-.067.030986-.6095714.7448-1.3128196 1.4344723-.943915 2.1260466 1.2289646 2.0167695 2.4491415 4.0602983 3.6689245 6.0929726.239554.046434.4812071.071725.7233277.077344.5095921.01271 1.032723-.061478 1.5163726-.2320313-1.6224766-2.7029629-3.2456359-5.4118866-4.8977098-8.0953179z" fill="url(#e)" stroke="#555753" stroke-linecap="round" stroke-linejoin="round" stroke-width=".321556"/><path d="m4.2549938 2.459266c-.1252976.3561308-.47421.6182587-.5609457.9976556 1.2131236 2.0211077 2.4438792 4.0361793 3.6561646 6.0550776.392007.0816454.7943865.0294468 1.1819931-.0493889-.061751-.2340458-.2414787-.4206925-.3369259-.6415182-1.2739943-2.0768702-2.5592722-4.151457-3.8200833-6.233415-.0047959-.0479221-.0708871-.1530296-.1202028-.1284111z" fill="url(#f)"/></g><g fill="#f57900" stroke="#ce5c00" stroke-linecap="square" stroke-width=".5"><circle cx="12.05" cy="1035.1122" r=".5"/><circle cx="12.05" cy="1033.1122" r=".5"/><circle cx="12.05" cy="1031.1122" r=".5"/><circle cx="12.05" cy="1029.1122" r=".5"/><circle cx="14.05" cy="1029.1122" r=".5"/><circle cx="16.049999" cy="1029.1122" r=".5"/><circle cx="18.049999" cy="1029.1122" r=".5"/><circle cx="20.049999" cy="1029.1122" r=".5"/><circle cx="22.049999" cy="1029.1122" r=".5"/></g></g></svg>