<svg height="24" viewBox="0 0 24 24" width="24" xmlns="http://www.w3.org/2000/svg"><g transform="matrix(.99984132 0 0 1 .003808 -1028.3622)"><g transform="matrix(.46666667 0 0 .48 .2 551.0502)"><path d="m34.773767 1025.5492-6.380265-9.6919-1.925391-6.1553 14.531889-15.302 10 10-5 10z" fill="#6595b9"/><path d="m6 1034.4 10 10 20.488568-20.5355.0349-2.7136-15.523468-6.7509-10 10z" fill="#da786c"/><path d="m9 1028.4-1 2 10 10 30-30 1-2-11-11-27 27z" fill="#e3dbc8"/><path d="m29.856992 1020.2596 3.838556 3.5989 15.304452-15.4585 2-4-10-10c-6.666667 6.6667-19.026357 18.8644-18.603039 18.4411 7.460031 7.4185 0 0 7.460031 7.4185z" fill="#6595b9"/><path d="m9 1028.4 10 10 17.523466-17.2491.0058-2.2059-10.361997-9.965-15.167269 15.42z" fill="#da786c"/><path d="m6 1034.4 5-10 10 10-5 10z" fill-opacity=".078431"/><path d="m16 1044.4 30-30 5-10-30 30z" fill-opacity=".23529"/></g><g stroke="#555753"><path d="m.0035907 1051.3773 3.9937723-.03" fill="#555753" fill-rule="evenodd" stroke-width="1.970026"/><path d="m11.003532 1051.3858 12.991698-.047" fill="none" stroke-width="1.952821"/></g></g></svg>