<svg height="24" viewBox="0 0 24 24" width="24" xmlns="http://www.w3.org/2000/svg" xmlns:xlink="http://www.w3.org/1999/xlink"><radialGradient id="a" cx="-112.5934" cy="9.092505" gradientTransform="matrix(.51071251 -1.0109563 .85391324 .43041535 -312.27765 -7.22711)" gradientUnits="userSpaceOnUse" r="4.822692"><stop offset="0" stop-color="#d3e9ff"/><stop offset=".20796148" stop-color="#d3e9ff"/><stop offset=".8170042" stop-color="#4074ae"/><stop offset="1" stop-color="#36486c"/></radialGradient><filter id="b" color-interpolation-filters="sRGB" height="1.080036" width="1.11992" x="-.05996" y="-.040018"><feGaussianBlur stdDeviation=".2167636"/></filter><g transform="matrix(1.5 0 0 1.5 0 -48.00001)"><path d="m0 32h16v16h-16z" fill-rule="evenodd" opacity="0"/><g transform="matrix(1.0317318 0 0 .9996891 380.89871 -69.755906)"><path d="m-355.88362 112.29669c0 3.13599-1.87053 5.22664-5.54628 5.22664-3.67573 0-5.54625-2.09065-5.54625-5.22664 0-4.18129 4.437-5.22663 5.54625-10.45326 1.10927 5.22663 5.54628 6.27197 5.54628 10.45326z" fill="#729fcf" stroke="#555759" stroke-width=".538407"/><path d="m-356.8842 112.59507c0 2.60001-1.46309 4.33334-4.33819 4.33334-2.87509 0-4.33817-1.73333-4.33817-4.33334 0-3.46666 3.47054-4.33333 4.33817-8.66666.86764 4.33333 4.33819 5.2 4.33819 8.66666z" fill="url(#a)" filter="url(#b)"/></g></g></svg>