<svg height="24" viewBox="0 0 24 24" width="24" xmlns="http://www.w3.org/2000/svg" xmlns:xlink="http://www.w3.org/1999/xlink"><linearGradient id="a"><stop offset="0" stop-color="#424242"/><stop offset="1" stop-color="#777"/></linearGradient><linearGradient id="b" gradientTransform="matrix(.6008182 0 0 .60098717 -1.836377 23.944582)" gradientUnits="userSpaceOnUse" x1="18.112709" x2="15.514889" xlink:href="#a" y1="31.36775" y2="6.18025"/><linearGradient id="c" gradientTransform="matrix(.58583149 0 0 .59874372 -1.306445 24.343264)" gradientUnits="userSpaceOnUse" x1="22.175976" x2="22.065331" y1="36.987999" y2="32.050499"><stop offset="0" stop-color="#6194cb"/><stop offset="1" stop-color="#729fcf"/></linearGradient><linearGradient id="d" gradientTransform="matrix(.77184067 0 0 .50168839 -1.887946 23.335751)" gradientUnits="userSpaceOnUse" x1="13.035696" x2="12.853771" y1="32.567184" y2="46.689312"><stop offset="0" stop-color="#fff" stop-opacity=".796078"/><stop offset="1" stop-color="#fff" stop-opacity=".215686"/></linearGradient><linearGradient id="e" gradientUnits="userSpaceOnUse" x1="9541.36699" x2="9606.36726" xlink:href="#a" y1="3275.10048" y2="3275.10048"/><path d="m.88039079 47.195223c.01309514.250194.27631921.500388.52644261.500388h18.8218436c.250122 0 .48715-.250194.474055-.500388l-.562632-16.362918c-.0131-.250193-.276314-.500392-.526437-.500392h-7.973382c-.291431 0-.741694-.189664-.842133-.665071l-.367335-1.738699c-.09341-.44213-.53005-.623756-.7801735-.623756h-8.87940713c-.2501283 0-.48715589.250193-.47406051.500387z" fill="#fff" stroke="url(#b)" stroke-linecap="round" stroke-linejoin="round" stroke-width=".600903" transform="matrix(.9998394 0 0 1 .003854 -24)"/><path d="m0 24h24v23.996084h-24z" fill="#bebebe" opacity="0" transform="matrix(.9998394 0 0 1 .003854 -24)"/><g fill-rule="evenodd" transform="matrix(.1138898168 0 0 .11400011685 -27.06666646642 -34.52908663681)"><path d="m-180.9753 535.70752h73.94383v73.94382h-73.94383z" fill="#5a5a5a" transform="matrix(.87274 -.48819 .87274 .48819 0 0)"/><path d="m374.60734 425.69331v-36.35996l65.00027-36.35961v36.35996z" fill="#5a5a5a"/><path d="m372.92276 424.43365v-36.35996l-65.00027-36.3596v36.35996z" fill="url(#e)"/><path d="m40.71429-106.42757c0 8.08703-6.55583 14.64286-14.64286 14.64286s-14.64286-6.55583-14.64286-14.64286 6.55583-14.64285 14.64286-14.64285 14.64286 6.55583 14.64286 14.64285z" fill="#fff" transform="matrix(1.2439 0 0 -.69582 305.94032 273.71926)"/><path d="m40.71429-106.42757c0 8.08703-6.55583 14.64286-14.64286 14.64286s-14.64286-6.55583-14.64286-14.64286 6.55583-14.64285 14.64286-14.64285 14.64286 6.55583 14.64286 14.64285z" fill="#5a5a5a" transform="matrix(1.2439 0 0 -.69582 305.94032 266.40121)"/><path d="m40.71429-106.42757a14.64286 14.64286 0 1 1 -29.28572 0 14.64286 14.64286 0 1 1 29.28572 0z" fill="#fff" transform="matrix(1.2439 0 0 -.69582 339.9046 291.47069)"/><path d="m40.71429-106.42757a14.64286 14.64286 0 1 1 -29.28572 0 14.64286 14.64286 0 1 1 29.28572 0z" fill="#5a5a5a" transform="matrix(1.2439 0 0 -.69582 339.9046 284.15264)"/><path d="m40.71429-106.42757c0 8.08703-6.55583 14.64286-14.64286 14.64286s-14.64286-6.55583-14.64286-14.64286 6.55583-14.64285 14.64286-14.64285 14.64286 6.55583 14.64286 14.64285z" fill="#fff" transform="matrix(1.2439 0 0 -.69582 374.90461 273.71925)"/><path d="m40.71429-106.42757c0 8.08703-6.55583 14.64286-14.64286 14.64286s-14.64286-6.55583-14.64286-14.64286 6.55583-14.64285 14.64286-14.64285 14.64286 6.55583 14.64286 14.64285z" fill="#5a5a5a" transform="matrix(1.2439 0 0 -.69582 374.90461 266.40121)"/><path d="m40.71429-106.42757a14.64286 14.64286 0 1 1 -29.28572 0 14.64286 14.64286 0 1 1 29.28572 0z" fill="#fff" transform="matrix(1.2439 0 0 -.69582 339.9046 255.11072)"/><path d="m40.71429-106.42757a14.64286 14.64286 0 1 1 -29.28572 0 14.64286 14.64286 0 1 1 29.28572 0z" fill="#5a5a5a" transform="matrix(1.2439 0 0 -.69582 339.9046 247.79268)"/></g><g transform="matrix(.99949608515 0 0 1.0005166 -.46187219236 -24.322559)"><path d="m22 48c.670129-.02638 1.150031-.656403 1.199218-1.389688.463853-6.914704.972105-12.712496.972105-12.712496.04227-.14818-.09837-.296359-.281282-.296359h-20.1357041s-1.0839751 13.092665-1.0839751 13.092665c-.06711.588005-.2730018 1.080563-.9079425 1.307485l20.2375807-.0016z" display="block" fill="url(#c)" stroke="#3465a4" stroke-linejoin="round" stroke-width=".592258"/><path d="m4.26329 34.265001 19.21041.03984-.922143 12.293645c-.0494.658573-.264026.877811-1.097081.877811-1.096404 0-16.8007637-.01992-18.3923649-.01992.1368518-.197177.1955282-.607628.1963136-.617456z" fill="none" opacity=".465909" stroke="url(#d)" stroke-linecap="round" stroke-width=".600059"/></g></svg>