<?xml version="1.0" encoding="UTF-8" standalone="no"?>
<svg
   xmlns:dc="http://purl.org/dc/elements/1.1/"
   xmlns:cc="http://creativecommons.org/ns#"
   xmlns:rdf="http://www.w3.org/1999/02/22-rdf-syntax-ns#"
   xmlns:svg="http://www.w3.org/2000/svg"
   xmlns="http://www.w3.org/2000/svg"
   xmlns:sodipodi="http://sodipodi.sourceforge.net/DTD/sodipodi-0.dtd"
   xmlns:inkscape="http://www.inkscape.org/namespaces/inkscape"
   width="24"
   height="24"
   viewBox="0 0 24 24"
   id="svg30571"
   version="1.1"
   inkscape:version="0.91+devel r"
   sodipodi:docname="gimp-center-24.svg">
  <defs
     id="defs30573" />
  <sodipodi:namedview
     id="base"
     pagecolor="#ffffff"
     bordercolor="#666666"
     borderopacity="1"
     inkscape:pageopacity="0"
     inkscape:pageshadow="2"
     inkscape:zoom="16"
     inkscape:cx="29.521167"
     inkscape:cy="7.488086"
     inkscape:document-units="px"
     inkscape:current-layer="layer1"
     showgrid="true"
     units="px"
     inkscape:snap-page="true"
     inkscape:snap-bbox="true"
     inkscape:bbox-paths="true"
     inkscape:bbox-nodes="true"
     inkscape:snap-bbox-edge-midpoints="true"
     inkscape:snap-bbox-midpoints="true"
     inkscape:object-paths="true"
     inkscape:snap-intersection-paths="true"
     inkscape:object-nodes="true"
     inkscape:snap-smooth-nodes="true"
     inkscape:snap-midpoints="true"
     inkscape:snap-object-midpoints="true"
     inkscape:snap-center="true"
     inkscape:snap-text-baseline="true"
     showborder="false"
     inkscape:window-width="1920"
     inkscape:window-height="1016"
     inkscape:window-x="0"
     inkscape:window-y="27"
     inkscape:window-maximized="1"
     inkscape:snap-global="false"
     showguides="false">
    <inkscape:grid
       type="xygrid"
       id="grid14" />
  </sodipodi:namedview>
  <metadata
     id="metadata30576">
    <rdf:RDF>
      <cc:Work
         rdf:about="">
        <dc:format>
          image/svg+xml
        </dc:format>
        <dc:type
           rdf:resource="http://purl.org/dc/dcmitype/StillImage" />
        <dc:creator>
          <cc:Agent>
            <dc:title>Klaus Staedtler       </dc:title>
          </cc:Agent>
        </dc:creator>
        <dc:title></dc:title>
      </cc:Work>
    </rdf:RDF>
  </metadata>
  <g
     inkscape:label="Layer 1"
     inkscape:groupmode="layer"
     id="layer1"
     transform="translate(0,-1028.3622)">
    <g
       id="g4284">
      <rect
         rx="0"
         y="1028.3623"
         x="0"
         height="23.999903"
         width="23.999903"
         id="rect28186-4"
         style="fill:none;stroke:none;stroke-width:1.49999392" />
      <rect
         y="1028.3623"
         x="0"
         height="23.999903"
         width="23.999903"
         id="rect6884"
         style="opacity:0.3;fill:none;stroke:none;stroke-width:1.49999392" />
      <path
         inkscape:connector-curvature="0"
         id="path8334"
         d="m 4.7052411,1035.6105 a 0.77382059,0.78762418 0 0 0 -0.1707675,0.018 0.77382059,0.78762418 0 0 0 -0.3868718,1.3536 l 2.5358222,2.5808 H 0.24715011 v 1.5751 H 6.689469 l -2.5418672,2.5873 a 0.78649587,0.80052556 0 1 0 1.1122559,1.1319 l 3.8687162,-3.9377 0.5319482,-0.5659 -0.5319482,-0.5662 -3.8687162,-3.9376 a 0.77382059,0.78762418 0 0 0 -0.5546166,-0.24 z"
         style="color:#000000;font-style:normal;font-variant:normal;font-weight:normal;font-stretch:normal;font-size:medium;line-height:normal;font-family:Sans;-inkscape-font-specification:Sans;text-indent:0;text-align:start;text-decoration:none;text-decoration-line:none;letter-spacing:normal;word-spacing:normal;text-transform:none;writing-mode:lr-tb;direction:ltr;baseline-shift:baseline;text-anchor:start;display:inline;overflow:visible;visibility:visible;fill:#fcaf3e;fill-opacity:1;stroke:#ce5c00;stroke-width:0.49430022;stroke-miterlimit:4;stroke-dasharray:none;stroke-opacity:1;marker:none;enable-background:accumulate" />
      <path
         inkscape:connector-curvature="0"
         id="path8334-2"
         d="m 19.294439,1035.6105 a 0.77382059,0.78762418 0 0 1 0.170768,0.018 0.77382059,0.78762418 0 0 1 0.386871,1.3536 l -2.535822,2.5808 h 6.436274 v 1.5751 h -6.442319 l 2.541867,2.5873 a 0.78649587,0.80052556 0 1 1 -1.112256,1.1319 l -3.868716,-3.9377 -0.531948,-0.5659 0.531948,-0.5662 3.868716,-3.9376 a 0.77382059,0.78762418 0 0 1 0.554617,-0.24 z"
         style="color:#000000;font-style:normal;font-variant:normal;font-weight:normal;font-stretch:normal;font-size:medium;line-height:normal;font-family:Sans;-inkscape-font-specification:Sans;text-indent:0;text-align:start;text-decoration:none;text-decoration-line:none;letter-spacing:normal;word-spacing:normal;text-transform:none;writing-mode:lr-tb;direction:ltr;baseline-shift:baseline;text-anchor:start;display:inline;overflow:visible;visibility:visible;fill:#fcaf3e;fill-opacity:1;stroke:#ce5c00;stroke-width:0.49430022;stroke-miterlimit:4;stroke-dasharray:none;stroke-opacity:1;marker:none;enable-background:accumulate" />
      <path
         inkscape:connector-curvature="0"
         id="path8334-0"
         d="m 16.751659,1033.0678 a 0.78769949,0.77381836 0 0 0 -0.018,-0.1707 0.78769949,0.77381836 0 0 0 -1.35373,-0.3869 l -2.581047,2.5358 v -6.4362 h -1.57525 v 6.4423 l -2.5875481,-2.5419 a 0.8006021,0.7864936 0 1 0 -1.1320082,1.1123 l 3.9380773,3.8687 0.565954,0.5319 0.566254,-0.5319 3.937977,-3.8687 a 0.78769949,0.77381836 0 0 0 0.240022,-0.5547 z"
         style="color:#000000;font-style:normal;font-variant:normal;font-weight:normal;font-stretch:normal;font-size:medium;line-height:normal;font-family:Sans;-inkscape-font-specification:Sans;text-indent:0;text-align:start;text-decoration:none;text-decoration-line:none;letter-spacing:normal;word-spacing:normal;text-transform:none;writing-mode:lr-tb;direction:ltr;baseline-shift:baseline;text-anchor:start;display:inline;overflow:visible;visibility:visible;fill:#fcaf3e;fill-opacity:1;stroke:#ce5c00;stroke-width:0.49432313;stroke-miterlimit:4;stroke-dasharray:none;stroke-opacity:1;marker:none;enable-background:accumulate" />
      <path
         inkscape:connector-curvature="0"
         id="path8334-0-6"
         d="m 16.751659,1047.657 a 0.78769949,0.77381836 0 0 1 -0.018,0.1707 0.78769949,0.77381836 0 0 1 -1.35373,0.3869 l -2.581047,-2.5358 v 6.4362 h -1.57525 v -6.4423 l -2.5875485,2.5419 a 0.8006021,0.7864936 0 1 1 -1.1320083,-1.1123 l 3.9380778,-3.8687 0.565954,-0.5319 0.566254,0.5319 3.937977,3.8687 a 0.78769949,0.77381836 0 0 1 0.240022,0.5547 z"
         style="color:#000000;font-style:normal;font-variant:normal;font-weight:normal;font-stretch:normal;font-size:medium;line-height:normal;font-family:Sans;-inkscape-font-specification:Sans;text-indent:0;text-align:start;text-decoration:none;text-decoration-line:none;letter-spacing:normal;word-spacing:normal;text-transform:none;writing-mode:lr-tb;direction:ltr;baseline-shift:baseline;text-anchor:start;display:inline;overflow:visible;visibility:visible;fill:#fcaf3e;fill-opacity:1;stroke:#ce5c00;stroke-width:0.49432313;stroke-miterlimit:4;stroke-dasharray:none;stroke-opacity:1;marker:none;enable-background:accumulate" />
    </g>
  </g>
</svg>
