<svg height="24" viewBox="0 0 24 24" width="24" xmlns="http://www.w3.org/2000/svg"><g transform="matrix(1.5283494 0 0 1.5283008 -.226682 -1584.09927)"><rect fill="#d3d7cf" height="15.608502" rx=".487434" ry=".489295" stroke="#888a85" stroke-width=".692052" transform="matrix(.96327079 0 0 .96336725 .293852 1036.6552)" width="15.610076" x=".194943" y=".195749"/><path d="m23.916721 13.035994c5.889134-1.669032 10.392018-5.0821297 12.950845-10.6879924" fill="none" stroke="#000" stroke-linecap="round" stroke-width="1.377115" transform="matrix(.99296003 0 0 .90940295 -22.175367 1035.7342)"/><g fill-rule="evenodd" stroke-width="3.003082"><path d="m1 1049.3622h2v2h-2z" fill="#2e3436"/><path d="m3 1049.3622h2v2h-2z" fill="#555753"/><path d="m5 1049.3622h2v2h-2z" fill="#888a85"/><path d="m7 1049.3622h2v2h-2z" fill="#babdb6"/><path d="m9 1049.3622h2v2h-2z" fill="#d3d7cf"/><path d="m11 1049.3622h2v2h-2z" fill="#eeeeec"/><path d="m13 1049.3622h2v2h-2z" fill="#fff"/></g></g></svg>