<svg height="24" viewBox="0 0 24 24" width="24" xmlns="http://www.w3.org/2000/svg" xmlns:xlink="http://www.w3.org/1999/xlink"><linearGradient id="a"><stop offset="0" stop-color="#fff"/><stop offset="1" stop-color="#fff" stop-opacity="0"/></linearGradient><linearGradient id="b"><stop offset="0" stop-color="#eeeeec"/><stop offset="1" stop-color="#a3a398"/></linearGradient><linearGradient id="c"><stop offset="0" stop-opacity=".278351"/><stop offset="1" stop-color="#a8a8a8" stop-opacity="0"/></linearGradient><linearGradient id="d" gradientUnits="userSpaceOnUse" x1="24" x2="23.433737" xlink:href="#b" y1="17.245949" y2="8.047659"/><linearGradient id="e" gradientTransform="matrix(.59923281 0 0 .590305 7.194689 1.343516)" gradientUnits="userSpaceOnUse" x1="17.160095" x2="37.969398" xlink:href="#a" y1="14.004482" y2="56.575912"/><radialGradient id="f" cx="24.225998" cy="30.479609" gradientTransform="matrix(1.840918 0 0 .821277 -20.45053 -6.182276)" gradientUnits="userSpaceOnUse" r="13.354399" xlink:href="#c"/><linearGradient id="g" gradientUnits="userSpaceOnUse" x1="23.433737" x2="23.433737" xlink:href="#b" y1="15.75864" y2="8.047659"/><linearGradient id="h" gradientTransform="matrix(.593728 0 0 .590305 7.25337 .782569)" gradientUnits="userSpaceOnUse" x1="17.160095" x2="37.969398" xlink:href="#a" y1="14.004482" y2="56.575912"/><radialGradient id="i" cx="24.225998" cy="30.479609" gradientTransform="matrix(1.1328104 0 0 .44630713 -5.944793 -1.491726)" gradientUnits="userSpaceOnUse" r="13.354399" xlink:href="#c"/><linearGradient id="j" gradientTransform="matrix(.61535081 0 0 .5434307 6.639457 1.867913)" gradientUnits="userSpaceOnUse" x1="23.433737" x2="23.433737" xlink:href="#b" y1="15.75864" y2="8.047659"/><g transform="translate(0 8)"><path d="m0-8h24v23.904383h-24z" fill="#73d216" opacity="0"/><g stroke-miterlimit="10"><g transform="matrix(.95144757 0 0 .6173597 -8.497968 -1.402968)"><path d="m21.46599 5.8627425c-4.817705 0-8.735025 1.7057249-8.735026 3.8040251v14.0748854c0 2.0983 3.917321 3.804024 8.735026 3.804024 4.817707 0 8.891012-1.705725 8.89101-3.804024 0-.1242 0-13.9506852 0-14.0748854 0-2.0983002-4.073303-3.8040251-8.89101-3.8040251z" display="block" fill="#323232" stroke="#767973" stroke-width="1.286727"/><ellipse cx="24" cy="14.071428" display="block" fill="#d3d7cf" opacity=".236264" rx="12.857142" ry="5.5" stroke="url(#d)" stroke-width="1.791129" transform="matrix(.61236 0 0 .509025 6.93016 16.53765)"/><path d="m21.543981 7.0609452c-4.391032 0-7.961419 1.542417-7.96142 3.4398228v13.061224c0 1.897408 3.570388 3.439823 7.96142 3.439823 4.391029 0 8.103586-1.542415 8.103584-3.439823 0-.112308 0-12.948914 0-13.061224 0-1.8974068-3.712555-3.4398228-8.103584-3.4398228z" display="block" fill="none" opacity=".544304" stroke="url(#e)" stroke-width="1.004625"/><ellipse cx="24" cy="14.071428" display="block" fill="url(#f)" opacity=".773196" rx="12.857142" ry="5.5" stroke="url(#g)" stroke-width="1.716514" transform="matrix(.622222 0 0 .545455 6.56666 1.824673)"/></g><g transform="matrix(.95147926 0 0 .64893826 -8.498351 -11.451942)"><path d="m21.465985 6.0883822c-4.817704 0-8.735025 1.7057249-8.735026 3.804025v14.0748848c0 2.098301 3.917321 3.804025 8.735026 3.804025 4.817707 0 8.891012-1.705725 8.89101-3.804025 0-.1242 0-13.950685 0-14.0748848 0-2.0983001-4.073303-3.804025-8.89101-3.804025z" display="block" fill="#d2d2d2" stroke="#767973" stroke-width="1.255008"/><ellipse cx="24" cy="14.071428" display="block" fill="#d3d7cf" opacity=".236264" rx="12.857142" ry="5.5" stroke="url(#d)" stroke-width="1.791129" transform="matrix(.61236 0 0 .509025 6.93016 16.53765)"/><path d="m21.470844 6.4999985c-4.350694 0-7.888282 1.5424173-7.888283 3.4398227v13.0612248c0 1.897408 3.537589 3.439823 7.888283 3.439823 4.350692 0 8.029144-1.542415 8.029142-3.439823 0-.112308 0-12.948914 0-13.0612248 0-1.8974064-3.67845-3.4398227-8.029142-3.4398227z" display="block" fill="none" opacity=".544304" stroke="url(#h)"/><ellipse cx="21.407877" cy="9.514759" display="block" fill="url(#i)" opacity=".773196" rx="7.911653" ry="2.988869" stroke="url(#j)" stroke-width=".992615"/></g></g></g></svg>