<svg height="24" viewBox="0 0 24 24" width="24" xmlns="http://www.w3.org/2000/svg" xmlns:xlink="http://www.w3.org/1999/xlink"><linearGradient id="a" gradientTransform="matrix(.52629714 0 0 .63986955 880.48963 662.83072)" gradientUnits="userSpaceOnUse" x1="83.031731" x2="66.311295" y1="40.924026" y2="22.765684"><stop offset="0" stop-color="#d0d0d0"/><stop offset="1" stop-color="#ececec"/></linearGradient><path d="m7.060199 5.799029h18.253176v14.767002h-18.253176z" style="fill-rule:evenodd;stroke:#888a85;stroke-width:1.027042;stroke-linecap:round;stroke-linejoin:round;stroke-miterlimit:10;fill:url(#a)" transform="matrix(.99913866 0 -.31732690801 .94972339385 .010327 3.980256)"/><path d="m9.439501 8.179223h14.081502v8.931645h-14.081502z" fill="none" stroke="#fff" stroke-miterlimit="10" stroke-width="1.599638" transform="matrix(.99913866 0 -.31449646808 .95066903617 .010327 3.980256)"/><path d="m.311628.311756h23.376616v23.376616h-23.376616z" fill="none" opacity="0" stroke="#000" stroke-linecap="round" stroke-width=".623256"/><g stroke-miterlimit="10"><path d="m7.060199 5.799029h18.253176v14.767002h-18.253176z" style="fill-rule:evenodd;stroke:#888a85;stroke-width:1.027042;stroke-linecap:round;stroke-linejoin:round;fill:url(#a)" transform="matrix(.99913866 0 -.31732690801 .94972339385 .010327 -.019744)"/><path d="m9.439501 8.179223h14.081502v8.931645h-14.081502z" fill="none" stroke="#fff" stroke-width="1.599638" transform="matrix(.99913866 0 -.31449646808 .95066903617 .010327 -.019744)"/><path d="m7.060199 5.799029h18.253176v14.767002h-18.253176z" style="fill-rule:evenodd;stroke:#888a85;stroke-width:1.027042;stroke-linecap:round;stroke-linejoin:round;fill:url(#a)" transform="matrix(.99913866 0 -.31732690801 .94972339385 .010327 -4.019744)"/><path d="m9.439501 8.179223h14.081502v8.931645h-14.081502z" fill="none" stroke="#fff" stroke-width="1.599638" transform="matrix(.99913866 0 -.31449646808 .95066903617 .010327 -4.019744)"/></g></svg>