<svg height="24" viewBox="0 0 24 24" width="24" xmlns="http://www.w3.org/2000/svg" xmlns:xlink="http://www.w3.org/1999/xlink"><linearGradient id="a"><stop offset="0" stop-color="#eeeeec"/><stop offset="1" stop-color="#a3a398"/></linearGradient><linearGradient id="b" gradientUnits="userSpaceOnUse" x1="24" x2="23.433737" xlink:href="#a" y1="17.245949" y2="8.047659"/><linearGradient id="c" gradientTransform="matrix(.593728 0 0 .590305 7.25337 .782569)" gradientUnits="userSpaceOnUse" x1="17.160095" x2="37.969398" y1="14.004482" y2="56.575912"><stop offset="0" stop-color="#fff"/><stop offset="1" stop-color="#fff" stop-opacity="0"/></linearGradient><linearGradient id="d" gradientUnits="userSpaceOnUse" x1="23.433737" x2="23.433737" xlink:href="#a" y1="15.75864" y2="8.047659"/><g transform="matrix(1.5000009 0 0 1.4999599 -.000007 .000635)"><g fill="#73d216" stroke-miterlimit="10" transform="matrix(.63450124 0 0 .69459044 -5.669939 -3.473372)"><path d="m21.465143 5.5020158c-4.894894 0-8.874978 1.7331636-8.874979 3.8652177v14.3012985c0 2.132054 3.980084 3.865216 8.874979 3.865216s9.033463-1.733163 9.033461-3.865216c0-.126199 0-14.1751004 0-14.3012985 0-2.1320541-4.138566-3.8652177-9.033461-3.8652177z" display="block" stroke="#767973" stroke-width="1.004041"/><ellipse cx="24" cy="14.071428" display="block" opacity=".236264" rx="12.857142" ry="5.5" stroke="url(#b)" stroke-width="1.791129" transform="matrix(.61236 0 0 .509025 6.93016 16.53765)"/><path d="m21.470844 6.4999985c-4.350694 0-7.888282 1.5424173-7.888283 3.4398227v13.0612248c0 1.897408 3.537589 3.439823 7.888283 3.439823 4.350692 0 8.029144-1.542415 8.029142-3.439823 0-.112308 0-12.948914 0-13.0612248 0-1.8974064-3.67845-3.4398227-8.029142-3.4398227z" display="block" opacity=".544304" stroke="url(#c)"/><ellipse cx="24" cy="14.071428" display="block" opacity=".773196" rx="12.857142" ry="5.5" stroke="url(#d)" stroke-width="1.716514" transform="matrix(.622222 0 0 .545455 6.56666 1.824673)"/></g><path d="m.340683.340682h15.318635v15.318635h-15.318635z" fill="none" opacity="0" stroke="#bebebe" stroke-linecap="round" stroke-width=".681365"/></g></svg>