<svg height="24" viewBox="0 0 24 24" width="24" xmlns="http://www.w3.org/2000/svg"><g transform="translate(0 -1028.3622)"><ellipse cx="12.01872" cy="1040.5812" fill="none" rx="11.266028" ry="8.082614" stroke="#000" stroke-width="1.430523"/><path d="m.207753.207753h15.584494v15.584494h-15.584494z" fill="#ef2929" opacity="0" transform="matrix(1.5375174 0 0 1.5399922 -.28142 1028.0423)"/><path d="m21.203409 1031.6078h1.496318v1.5h-1.496318z" fill="#fff" transform="matrix(.99995102 .00989703 -.00986524 .99995134 0 0)"/><path d="m22.501844 1039.7281h1.496318v1.5h-1.496318z" fill="#fff"/><path d="m0 1039.6901h1.534322v1.5h-1.534322z" fill="#fff"/><path d="m11.256655 1047.9072h1.496318v1.5h-1.496318z" fill="#fff"/><ellipse cx="12" cy="1040.3622" fill="#d3d7cf" rx="9.35337" ry="6.353368" stroke="#fff" stroke-width=".293264"/><g fill="#fff"><path d="m-676.24512 782.75317h1.497354v1.498964h-1.497354z" transform="matrix(.75457352 -.65621551 .65501309 .75561753 0 0)"/><path d="m-452.31223 928.58282h1.49679v1.499528h-1.49679z" transform="matrix(.89640568 -.44323453 .44208964 .89697088 0 0)"/><path d="m-909.00031 499.69h1.498168v1.498149h-1.498168z" transform="matrix(.48098372 -.87672953 .87607573 .48217354 0 0)"/><path d="m-213.30618 1009.9056h1.496429v1.499889h-1.496429z" transform="matrix(.97667383 -.21472828 .21407033 .97681825 0 0)"/><path d="m686.1814-788.29218h1.497351v1.498967h-1.497351z" transform="matrix(.75520356 .65549034 .65428725 -.75624612 0 0)"/><path d="m466.85226-937.43713h1.496788v1.49953h-1.496788z" transform="matrix(.89683138 .44237255 .44122878 -.89739465 0 0)"/><path d="m913.76099-502.18958h1.498166v1.498151h-1.498166z" transform="matrix(.48182479 .87626758 .87561183 -.48301545 0 0)"/><path d="m231.2392-1022.9726h1.496428v1.49989h-1.496428z" transform="matrix(.97687991 .21378878 .21313343 -.9770231 0 0)"/><path d="m-672.84265 785.74609h1.497289v1.499029h-1.497289z" transform="matrix(-.7722722 -.63529178 -.63407259 .77327353 0 0)"/><path d="m-448.27234 930.59283h1.496739v1.499579h-1.496739z" transform="matrix(-.9082234 -.41848567 -.41737613 .90873382 0 0)"/><path d="m-906.815 503.64429h1.498112v1.498206h-1.498112z" transform="matrix(-.50480195 -.86323519 -.86252619 .50601241 0 0)"/><path d="m-208.91414 1010.8391h1.496403v1.499915h-1.496403z" transform="matrix(-.98219742 -.18785161 -.18726951 .98230857 0 0)"/><path d="m661.78741-809.28888h1.497333v1.498985h-1.497333z" transform="matrix(-.76035016 .64951339 -.64830499 -.76138075 0 0)"/><path d="m437.93576-951.53949h1.496773v1.499545h-1.496773z" transform="matrix(-.90029527 .43527972 -.43414565 -.90084269 0 0)"/><path d="m898.06775-530.35052h1.49815v1.498167h-1.49815z" transform="matrix(-.48871387 .87244413 -.87177246 -.48991099 0 0)"/><path d="m199.79898-1029.7109h1.49642v1.499898h-1.49642z" transform="matrix(-.97853774 .2060677 -.20543388 -.978671 0 0)"/></g></g></svg>