<svg height="24" viewBox="0 0 24 24" width="24" xmlns="http://www.w3.org/2000/svg"><linearGradient gradientUnits="userSpaceOnUse" x1="-5887.6748" x2="-2336.387" y1="-4387.5962" y2="-4387.5962"><stop offset="0"/><stop offset="1" stop-opacity="0"/></linearGradient><g stroke="#323232" transform="matrix(1.5000671 0 0 1.5001034 -130.80844204175 10.240346)"><path d="m-4122.5-6166.1-272.97 1313.9-492.72-323.25-10.375 10.344 322.69 491.94-1311.3 272.34v23.5l1310.8 272.34-324.78 495.09 10.344 10.344 493.03-323.38 272.88 1313.8h23.5l273.03-1314.1 492.75 323.22 10.344-10.344-322.81-492.12 1311.2-272.38v-23.5l-1310.5-272.28 324.53-494.69-10.375-10.344-492.91 323.31-272.88-1313.7h-23.5zm-.2188 119.03v1373.8 254.84l-280.16-280.25 28.969-139.38 251.19-1209zm736.97 923.69-411.25 411.25-25.875-124.53 437.12-286.72zm-1460.5 10.781 410.31 410.31-124.25 25.812-286.06-436.12zm1042 433.81 142.66 29.656 1205.7 250.5h-1370-258.53l280.22-280.16zm-1963.9 301.66h1370.3 258.5l-280.22 280.22-142.69-29.656-1205.9-250.56zm1666.9 20.094 280.22 280.22-28.969 139.38-251.25 1209.2v-1374.1-254.75zm437.38 257.75 286.19 436.34-410.53-410.53 124.34-25.812zm-763.09 36.062 25.844 124.56-437.19 286.78 411.34-411.34z" fill="#2e3436" stroke-width="21.961435" transform="matrix(.00447877 0 0 .00447035 113.61821 20.787107)"/><path d="m95.24811-6.7775622 1.22257 5.87358997 2.20678-1.44503997.0465.0462-1.44525 2.19914997 5.87301 1.21745003v.10505l-5.87077 1.21746 1.45461 2.21322-.0463.0463-2.20816-1.44563-1.22217 5.87315h-.10525l-1.22284-5.87449-2.20691 1.44491-.0463-.0462 1.44579-2.19995-5.872556-1.21763v-.10506l5.869416-1.21718003-1.45349-2.21143997.0465-.0462 2.20763 1.44530997 1.22216-5.87269997h.10525zm.00098.5321v6.14136997 1.13923003l1.25477-1.25282003-.12975-.62308-1.12502-5.40464997zm-3.30072 4.12922 1.84189 1.83842997.11589-.55669-1.95776-1.28173997zm6.54124.0482-1.83768 1.83422997.55648.11538 1.2812-1.94959997zm-4.66688 1.93927997-.63894.13257-5.400046 1.11982003h6.135906 1.1579l-1.25504-1.25241003zm8.79586 1.34853003h-6.13726-1.15776l1.25504 1.25268.63907-.13258 5.40095-1.12009zm-7.46566.0898-1.25504 1.25268.12974.62308 1.12529 5.40555v-6.14271-1.13882zm-1.95893 1.15224-1.28178 1.95059 1.83867-1.83522-.55689-.11538zm3.41771.1612-.11575.55683 1.95807 1.28201-1.8423-1.83884z" fill="#fff" stroke-width=".098268"/></g></svg>