<svg height="24" viewBox="0 0 24 24" width="24" xmlns="http://www.w3.org/2000/svg" xmlns:xlink="http://www.w3.org/1999/xlink"><linearGradient id="a" gradientTransform="matrix(.45949087 .45589994 -.45949087 .45589994 121.58064 -71.627848)" gradientUnits="userSpaceOnUse" x1="-37.5" x2="-37.5" y1="199.3438" y2="204.34621"><stop offset="0" stop-color="#fff"/><stop offset="1" stop-color="#fff" stop-opacity="0"/></linearGradient><g transform="translate(0 -1028.3622)"><path d="m0 1028.3623h24v23.999952h-24z" fill="none" opacity=".242678"/><g transform="matrix(1.6362097 0 0 1.6528628 .803429 1026.3673)"><path d="m9.8343554 4.1370085-5.7138711 5.6977598v1.3240377h1.32997l5.7138647-5.7022084z" fill="#d3d7cf" fill-rule="evenodd" stroke="#888a85" stroke-width=".666669"/><path d="m9.9011892 4.516309.4607148.4765917-5.2437213 5.1942183-.0229581-.9293285z" fill="#fff"/><path d="m13.353849 2.0284512c-.656193-.653186-1.721297-.6532504-2.37749-.0000645-.300755.2994172-.465289.6878085-.490359 1.0798104l-1.1887323.5620197 2.3923513 2.3814757.579501-1.1685265c.393823-.024952.783987-.1887799 1.084735-.4881326.656187-.653186.65618-1.7133962-.000006-2.3665822z" fill="#183968" stroke="#2e3436" stroke-linecap="round" stroke-linejoin="round" stroke-width=".666669"/><path d="m12.910907 2.4559782c-.45293-.4493837-1.034368-.4025111-1.457094.016892-.19375.1922614-.237119.7317153-.24478.9918678l-.624261.330365.962049.9545373.347341-.6050883c.262195-.00761.777196-.022179.970939-.214376.422726-.4194678.498729-1.0248141.04581-1.4741978z" fill="none" opacity=".589958" stroke="url(#a)" stroke-linecap="round" stroke-width=".666669"/><path d="m7.6173121 6.769288h.947474l-4.1197956 4.072886v-.9431252z" fill="#729fcf"/></g><path d="m12.51846 1049.2748c0 .7165-4.5395795 1.601-5.6484472 1.601-1.1088674 0-5.3884725.1-5.3884725-.6171 0-.7167.3552213-2.5603 1.4888707-3.0541 2.9347746-1.2779 9.548049 1.3533 9.548049 2.0702z" fill="#3465a4" stroke="#204a87" stroke-linecap="round" stroke-linejoin="round" stroke-width=".963081"/><ellipse cx="5.875" cy="1048.8622" fill="#fff" fill-opacity=".648069" rx="1.875" ry="1.5"/></g></svg>