<svg height="24" viewBox="0 0 24 24" width="24" xmlns="http://www.w3.org/2000/svg" xmlns:xlink="http://www.w3.org/1999/xlink"><linearGradient id="a" gradientTransform="matrix(5.432954 0 0 6.1414975 .500249 -770.26288)" gradientUnits="userSpaceOnUse" x1="-.056703" x2="4.290036" y1="294.48645" y2="294.48645"><stop offset="0" stop-color="#555753"/><stop offset="1" stop-color="#555753" stop-opacity="0"/></linearGradient><g transform="translate(0 -1028.3622)"><g stroke-dashoffset="1.96" stroke-linecap="round" transform="matrix(-.01552479 -1.157222 -3.5818296 .63026585 1061.0515 858.42682)"><path d="m-6.1295432 290.33834-1.4358806-.0151 2.7661868 5.04219c.438279 0 1.8376346-.0622 1.4113132-.00042z" fill="#c17d11" stroke="#8f5902" stroke-linejoin="round" stroke-width=".263486"/><path d="m-6.2532924 290.60293-.820164.0314 2.4941674 4.64316.7323149-.1039z" fill="none" stroke="#e9b96e" stroke-width=".264583"/></g><path d="m14.165238 1029.4747a1.7797186 1.1125628 0 0 1 -1.716133 1.1119 1.7797186 1.1125628 0 0 1 -1.838761-1.0324 1.7797186 1.1125628 0 0 1 1.584741-1.1856 1.7797186 1.1125628 0 0 1 1.952001.9476" fill="#8f5902"/><g stroke-dashoffset="1.96" stroke-linecap="round" transform="matrix(1.2718516 -.51403137 1.1336304 4.606194 -307.44392 -311.22606)"><path d="m-6.1648722 290.37798-1.279508-.0396 2.2848098 4.97068 1.4611945.16899z" fill="#c17d11" stroke="#8f5902" stroke-linejoin="round" stroke-width=".263486"/><path d="m-6.2171811 290.62149-.8250133-.0186 2.0868169 4.48287.8327157.0884z" fill="none" stroke="#e9b96e" stroke-width=".264583"/></g><g stroke-dashoffset="1.96" stroke-linecap="round" transform="matrix(-1.2684888 -.52226188 -1.1635009 4.5987515 340.79949 -309.26635)"><path d="m-6.1905125 290.46237-1.2538677-.12405 2.608976 5.06652 1.4154146.15368z" fill="#c17d11" stroke="#8f5902" stroke-linejoin="round" stroke-width=".263486"/><path d="m-6.2532924 290.60293h-.788902l2.3064286 4.56363.889614.0892z" fill="none" stroke="#e9b96e" stroke-width=".264583"/></g><path d="m.500249 1031.8251h22.999502v12.999502h-22.999502z" fill="#eeeeec" stroke="url(#a)" stroke-width="1.000498"/></g><g transform="translate(8 -1036.362183)"><path d="m0 1036.3622h16v16h-16z" fill="none" opacity=".75"/><path d="m-20.433217 1049.479-.243616-.2772-.243616-.2772.361875-.072.361875-.072-.118259.3495z" fill="#d3d7cf" stroke="#555753" stroke-width="2.91148" transform="matrix(.26799057516 .40478534304 -.40711794817 .26645510812 433.74711133122 780.00220453166)"/><path d="m218.20736 576.6367-.84712-73.39348 564.56871 1.54144v140.4l-564.84685 1.11701z" fill="#3465a4" stroke="#555753" stroke-width="21.631079" transform="matrix(.01989485 -.01993646 .01350408 .01332378 -8.745451 1045.6083)"/><path d="m3.9397518 1049.0928 10.8741082-10.8217.369866.4029-10.7944691 10.8393z" fill="#204a87"/><path d="m2.034939 1048.2477 2.026924 2.035-1.3426608 1.173-1.77689279-1.8034z" fill="#e9b96e" opacity=".75" stroke="#f57900" stroke-linecap="round" stroke-width=".3"/><path d="m2.6485165 1047.8124 10.8236475-10.7697.298384.313-10.7438097 10.8119z" fill="#729fcf"/><path d="m271.97339 1014.1378.42576.2564-.45058 2.0261-.002-.019z" fill="#eeeeec" opacity=".75" transform="matrix(.96605692 .2583293 -.2583293 .96605692 0 0)"/><path d="m1.9948962 1051.2267.2887783.351-1.89579813.5863-.0240079-.028z" opacity=".75"/></g></svg>