<svg height="24" viewBox="0 0 24 24" width="24" xmlns="http://www.w3.org/2000/svg" xmlns:xlink="http://www.w3.org/1999/xlink"><linearGradient id="a"><stop offset="0" stop-color="#424242"/><stop offset="1" stop-color="#777"/></linearGradient><linearGradient id="b" gradientTransform="matrix(.6008182 0 0 .60098717 -1.836377 23.944582)" gradientUnits="userSpaceOnUse" x1="18.112709" x2="15.514889" xlink:href="#a" y1="31.36775" y2="6.18025"/><linearGradient id="c" gradientTransform="matrix(.58583149 0 0 .59874372 -1.306445 24.343264)" gradientUnits="userSpaceOnUse" x1="22.175976" x2="22.065331" y1="36.987999" y2="32.050499"><stop offset="0" stop-color="#6194cb"/><stop offset="1" stop-color="#729fcf"/></linearGradient><linearGradient id="d" gradientTransform="matrix(.77184067 0 0 .50168839 -1.887946 23.335751)" gradientUnits="userSpaceOnUse" x1="13.035696" x2="12.853771" xlink:href="#e" y1="32.567184" y2="46.689312"/><linearGradient id="e"><stop offset="0" stop-color="#fff" stop-opacity=".796078"/><stop offset="1" stop-color="#fff" stop-opacity=".215686"/></linearGradient><linearGradient id="f" gradientUnits="userSpaceOnUse" x1="-91.515998" x2="-79.465426" xlink:href="#a" y1="2162.4693" y2="2162.4693"/><linearGradient id="g" gradientTransform="matrix(.32399235 0 0 .35716019 -94.058324 2153.9078)" gradientUnits="userSpaceOnUse" x1="15.299923" x2="51.568203" xlink:href="#e" y1="9.144098" y2="83.076073"/><linearGradient id="h" gradientTransform="matrix(.81744022 0 0 .84959857 -73.230444 1277.3853)" gradientUnits="userSpaceOnUse" x1="-13.618783" x2="-9.83351" y1="1044.7833" y2="1044.7833"><stop offset="0" stop-color="#8ae234"/><stop offset="1" stop-color="#73d216"/></linearGradient><linearGradient id="i" gradientTransform="matrix(.81744022 0 0 .84959857 -76.808464 1279.1906)" gradientUnits="userSpaceOnUse" x1="-13.618783" x2="-9.83351" y1="1044.7833" y2="1044.7833"><stop offset="0" stop-color="#ef2929"/><stop offset="1" stop-color="#c00"/></linearGradient><linearGradient id="j" gradientTransform="matrix(.81744022 0 0 .84959857 -72.840114 1273.6934)" gradientUnits="userSpaceOnUse" x1="-13.618783" x2="-9.83351" y1="1044.7833" y2="1044.7833"><stop offset="0" stop-color="#729fcf"/><stop offset="1" stop-color="#3465a4"/></linearGradient><path d="m.88039079 47.195223c.01309514.250194.27631921.500388.52644261.500388h18.8218436c.250122 0 .48715-.250194.474055-.500388l-.562632-16.362918c-.0131-.250193-.276314-.500392-.526437-.500392h-7.973382c-.291431 0-.741694-.189664-.842133-.665071l-.367335-1.738699c-.09341-.44213-.53005-.623756-.7801735-.623756h-8.87940713c-.2501283 0-.48715589.250193-.47406051.500387z" fill="#fff" stroke="url(#b)" stroke-linecap="round" stroke-linejoin="round" stroke-width=".600903" transform="matrix(.9998394 0 0 1 .003854 -24)"/><path d="m0 24h24v23.996084h-24z" fill="#bebebe" opacity="0" transform="matrix(.9998394 0 0 1 .003854 -24)"/><g transform="matrix(.21286901273 -.97531059656 1.0063705203 .20629918032 -1037.05576153235 -197.80828927646)"><path d="m9.4536954 1036.7703c-1.900788.028-4.447296.7445-4.404271 3.0471.0459 2.4561 2.752324 1.487 2.855183 2.5782.166241 1.7637-3.296211 7.1293 1.964204 8.1811 3.5118376.7024 7.2390576-1.7087 6.8645866-6.5738-.336769-4.3755-3.620646-7.1213-6.9050856-7.2326-.119994 0-.247897 0-.374617 0zm-.820105 1.4287c.894219 0 1.6199616.56 1.6199616 1.2501 0 .6899-.7257426 1.2499-1.6199616 1.2499s-1.619962-.56-1.619962-1.2499c0-.6901.725743-1.2501 1.619962-1.2501z" fill="#e9b96e" fill-rule="evenodd" stroke="url(#f)" stroke-width=".340172"/><path d="m9.4744424 1037.1363c-.915046.013-1.983862.2027-2.78431.6362-.800447.4334-1.314734 1.0383-1.295969 2.0424.0101.5408.155408.8317.354367 1.038.198958.2065.484586.3301.80998.4242.325395.094.677648.1497.992227.2679.15729.058.311383.1357.44549.2679.134106.1322.232392.3381.253119.558.05537.5875-.155169 1.2513-.374617 2.0202-.219447.7689-.468522 1.6121-.556861 2.4108-.08834.7988-.01335 1.5286.344241 2.1095.357595.5808 1.027285 1.0649 2.288196 1.317 1.6713306.3342 3.3853516-.074 4.6270156-1.1273s2.031962-2.7287 1.852831-5.056c-.322615-4.1915-3.465043-6.8028-6.5912186-6.9088-.109183 0-.237167 0-.364491 0z" fill="none" opacity=".670498" stroke="url(#g)" stroke-width=".340172"/><g stroke-linecap="round" stroke-width=".416682"><ellipse cx="13.578941" cy="1046.2959" fill="url(#h)" rx="1.342757" ry="1.326493" stroke="#4e9a06"/><ellipse cx="10.000922" cy="1048.1011" fill="url(#i)" rx="1.342757" ry="1.326493" stroke="#a40000"/><ellipse cx="13.969272" cy="1042.604" fill="url(#j)" rx="1.342757" ry="1.326493" stroke="#204a87"/></g></g><g transform="matrix(.99949608515 0 0 1.0005166 -.46187219236 -24.322559)"><path d="m22 48c.670129-.02638 1.150031-.656403 1.199218-1.389688.463853-6.914704.972105-12.712496.972105-12.712496.04227-.14818-.09837-.296359-.281282-.296359h-20.1357041s-1.0839751 13.092665-1.0839751 13.092665c-.06711.588005-.2730018 1.080563-.9079425 1.307485l20.2375807-.0016z" display="block" fill="url(#c)" stroke="#3465a4" stroke-linejoin="round" stroke-width=".592258"/><path d="m4.26329 34.265001 19.21041.03984-.922143 12.293645c-.0494.658573-.264026.877811-1.097081.877811-1.096404 0-16.8007637-.01992-18.3923649-.01992.1368518-.197177.1955282-.607628.1963136-.617456z" fill="none" opacity=".465909" stroke="url(#d)" stroke-linecap="round" stroke-width=".600059"/></g></svg>