<svg height="24" viewBox="0 0 24 24" width="24" xmlns="http://www.w3.org/2000/svg" xmlns:xlink="http://www.w3.org/1999/xlink"><linearGradient id="a"><stop offset="0" stop-color="#eeeeec"/><stop offset="1" stop-color="#a3a398"/></linearGradient><linearGradient id="b" gradientUnits="userSpaceOnUse" x1="24" x2="23.433737" xlink:href="#a" y1="17.245949" y2="8.047659"/><linearGradient id="c" gradientTransform="matrix(.593728 0 0 .590305 7.25337 .782569)" gradientUnits="userSpaceOnUse" x1="17.160095" x2="37.969398" y1="14.004482" y2="56.575912"><stop offset="0" stop-color="#fff"/><stop offset="1" stop-color="#fff" stop-opacity="0"/></linearGradient><radialGradient id="d" cx="24.225998" cy="30.479609" gradientTransform="matrix(1.840918 0 0 .821277 -20.45053 -6.182276)" gradientUnits="userSpaceOnUse" r="13.354399"><stop offset="0" stop-opacity=".278351"/><stop offset="1" stop-color="#a8a8a8" stop-opacity="0"/></radialGradient><linearGradient id="e" gradientUnits="userSpaceOnUse" x1="23.433737" x2="23.433737" xlink:href="#a" y1="15.75864" y2="8.047659"/><g transform="matrix(1.5000061 0 0 1.4997176 -.000049 .00447)"><g stroke-miterlimit="10" transform="matrix(.63449913 0 0 .69458915 -5.669572 -3.472963)"><path d="m21.464637 5.497837c-4.894895 0-8.874979 1.7334468-8.87498 3.865849v14.303633c0 2.132403 3.980084 3.865848 8.87498 3.865848 4.894897 0 9.033465-1.733446 9.033463-3.865848 0-.126218 0-14.1774143 0-14.303633 0-2.1324022-4.138566-3.865849-9.033463-3.865849z" display="block" fill="#7d7d7d" stroke="#767973" stroke-width="1.004112"/><ellipse cx="24" cy="14.071428" display="block" fill="#d3d7cf" opacity=".236264" rx="12.857142" ry="5.5" stroke="url(#b)" stroke-width="1.791129" transform="matrix(.61236 0 0 .509025 6.93016 16.53765)"/><path d="m21.470844 6.4999985c-4.350694 0-7.888282 1.5424173-7.888283 3.4398227v13.0612248c0 1.897408 3.537589 3.439823 7.888283 3.439823 4.350692 0 8.029144-1.542415 8.029142-3.439823 0-.112308 0-12.948914 0-13.0612248 0-1.8974064-3.67845-3.4398227-8.029142-3.4398227z" display="block" fill="none" opacity=".544304" stroke="url(#c)"/><ellipse cx="24" cy="14.071428" display="block" fill="url(#d)" opacity=".773196" rx="12.857142" ry="5.5" stroke="url(#e)" stroke-width="1.716514" transform="matrix(.622222 0 0 .545455 6.56666 1.824673)"/></g><path d="m.340683.340682h15.318635v15.318635h-15.318635z" fill="none" opacity="0" stroke="#bebebe" stroke-linecap="round" stroke-width=".681365"/></g></svg>