<svg height="24" viewBox="0 0 24 24" width="24" xmlns="http://www.w3.org/2000/svg" xmlns:xlink="http://www.w3.org/1999/xlink"><linearGradient id="a" gradientTransform="matrix(1.0003114 0 0 .9852831 -.003737 .988992)" gradientUnits="userSpaceOnUse" x1="12" x2="12" y1="1.268379" y2="21.251747"><stop offset="0" stop-color="#eeeeec"/><stop offset="1" stop-color="#d4d4cf"/></linearGradient><linearGradient id="b" gradientTransform="matrix(1.158587 0 0 1.1453712 -2.346469 2.440148)" gradientUnits="userSpaceOnUse" x1="6.02886" x2="18.913376" y1="8.34651" y2="8.34651"><stop offset="0" stop-color="#729fcf"/><stop offset=".20362347" stop-color="#73d216"/><stop offset=".5222187" stop-color="#c17d11"/><stop offset=".88899916" stop-color="#75507b"/><stop offset="1" stop-color="#a40000"/></linearGradient><rect fill="url(#a)" fill-rule="evenodd" height="23.016216" rx="1.40557" ry="1.540835" stroke="#888a85" stroke-width=".983784" width="23.016216" x=".491892" y=".491892"/><rect fill="none" height="21.097607" rx=".640129" ry=".629652" stroke="#fff" stroke-width=".902392" width="21.126432" x="1.436784" y="1.451196"/><path d="m12 6c-4.9721134 0-9.0000015 4.004754-9 8.920152 0 1.084155.1950358 2.119225.5538461 3.079848h5.1000002c-.7606066-.806903-1.2230773-1.890826-1.2230773-3.079848.0000008-2.493317 2.0471442-4.51711 4.569231-4.51711 2.522089 0 4.569231 2.023793 4.569231 4.51711-.000001 1.192575-.481508 2.272186-1.246154 3.079848h5.1c.35881-.960623.576923-1.995693.576923-3.079848-.000002-4.915398-4.027887-8.920152-9-8.920152z" fill="url(#b)" fill-rule="evenodd"/></svg>