<svg height="24" viewBox="0 0 24 24" width="24" xmlns="http://www.w3.org/2000/svg" xmlns:xlink="http://www.w3.org/1999/xlink"><linearGradient id="a" gradientUnits="userSpaceOnUse" x1="18.112709" x2="15.514889" y1="31.36775" y2="6.18025"><stop offset="0" stop-color="#424242"/><stop offset="1" stop-color="#777"/></linearGradient><linearGradient id="b" gradientUnits="userSpaceOnUse" x1="22.175976" x2="22.065331" y1="36.987999" y2="32.050499"><stop offset="0" stop-color="#6194cb"/><stop offset="1" stop-color="#729fcf"/></linearGradient><linearGradient id="c" gradientTransform="matrix(1.317489 0 0 .816256 -.879573 -1.318166)" gradientUnits="userSpaceOnUse" x1="13.035696" x2="12.853771" y1="32.567184" y2="46.689312"><stop offset="0" stop-color="#fff" stop-opacity=".796078"/><stop offset="1" stop-color="#fff" stop-opacity=".215686"/></linearGradient><g><path d="m0 0h24v24h-24z" fill="none"/><g stroke-width="1.454547" transform="matrix(.26852761831 0 0 .27565709595 11.24199253266 .90553681988)"><path d="m4.5217805 38.687417c.021796.416304.4599049.832609.8762095.832609h31.327021c.416302 0 .810812-.416305.789016-.832609l-.936443-27.226735c-.0218-.416303-.459897-.832616-.876201-.832616h-13.270873c-.485057 0-1.234473-.315589-1.401644-1.1066322l-.611391-2.893071c-.155469-.7356733-.882214-1.0378862-1.298518-1.0378862h-14.7788595c-.4163128 0-.8108208.4163041-.7890249.8326083z" fill="#fff" stroke="url(#a)" stroke-linecap="round" stroke-linejoin="round"/><path d="m39.783532 39.51062c1.143894-.04406 1.963076-1.096299 2.047035-2.321005.791787-11.548687 1.65936-21.231949 1.65936-21.231949.07215-.247484-.167911-.494967-.48014-.494967h-34.3711566s-1.8503191 21.866892-1.8503191 21.866892c-.1145551.982066-.4660075 1.804718-1.5498358 2.183713l34.5450565-.0027z" display="block" fill="url(#b)" stroke="#3465a4" stroke-linejoin="round"/><path d="m9.6202444 16.463921 32.7910986.06481-1.574046 20.001979c-.08432 1.071511-.450678 1.428215-1.872656 1.428215-1.871502 0-28.677968-.03241-31.394742-.03241.2335983-.320811.3337557-.988623.3350963-1.004612z" fill="none" opacity=".465909" stroke="url(#c)" stroke-linecap="round"/></g><g><path d="m1.881654 6.000011h16v16h-16z" fill="none"/><g transform="matrix(.68749929 0 0 .68749929 453.813694 -198.187215)"><path d="m-649.99994 296.99994h16v16h-16z" fill="none"/><g stroke-width="1.454547" transform="matrix(.39058603 0 0 .40095619 -651.18613 295.95889)"><path d="m4.5217805 38.687417c.021796.416304.4599049.832609.8762095.832609h31.327021c.416302 0 .810812-.416305.789016-.832609l-.936443-27.226735c-.0218-.416303-.459897-.832616-.876201-.832616h-13.270873c-.485057 0-1.234473-.315589-1.401644-1.1066322l-.611391-2.893071c-.155469-.7356733-.882214-1.0378862-1.298518-1.0378862h-14.7788595c-.4163128 0-.8108208.4163041-.7890249.8326083z" fill="#fff" stroke="url(#a)" stroke-linecap="round" stroke-linejoin="round"/><path d="m39.783532 39.51062c1.143894-.04406 1.963076-1.096299 2.047035-2.321005.791787-11.548687 1.65936-21.231949 1.65936-21.231949.07215-.247484-.167911-.494967-.48014-.494967h-34.3711566s-1.8503191 21.866892-1.8503191 21.866892c-.1145551.982066-.4660075 1.804718-1.5498358 2.183713l34.5450565-.0027z" display="block" fill="url(#b)" stroke="#3465a4" stroke-linejoin="round"/><path d="m9.6202444 16.463921 32.7910986.06481-1.574046 20.001979c-.08432 1.071511-.450678 1.428215-1.872656 1.428215-1.871502 0-28.677968-.03241-31.394742-.03241.2335983-.320811.3337557-.988623.3350963-1.004612z" fill="none" opacity=".465909" stroke="url(#c)" stroke-linecap="round"/></g></g><g transform="matrix(.68749929 0 0 .68749929 448.695394 -193.187226)"><path d="m-649.99994 296.99994h16v16h-16z" fill="none"/><g stroke-width="1.454547" transform="matrix(.39058603 0 0 .40095619 -651.18613 295.95889)"><path d="m4.5217805 38.687417c.021796.416304.4599049.832609.8762095.832609h31.327021c.416302 0 .810812-.416305.789016-.832609l-.936443-27.226735c-.0218-.416303-.459897-.832616-.876201-.832616h-13.270873c-.485057 0-1.234473-.315589-1.401644-1.1066322l-.611391-2.893071c-.155469-.7356733-.882214-1.0378862-1.298518-1.0378862h-14.7788595c-.4163128 0-.8108208.4163041-.7890249.8326083z" fill="#fff" stroke="url(#a)" stroke-linecap="round" stroke-linejoin="round"/><path d="m39.783532 39.51062c1.143894-.04406 1.963076-1.096299 2.047035-2.321005.791787-11.548687 1.65936-21.231949 1.65936-21.231949.07215-.247484-.167911-.494967-.48014-.494967h-34.3711566s-1.8503191 21.866892-1.8503191 21.866892c-.1145551.982066-.4660075 1.804718-1.5498358 2.183713l34.5450565-.0027z" display="block" fill="url(#b)" stroke="#3465a4" stroke-linejoin="round"/><path d="m9.6202444 16.463921 32.7910986.06481-1.574046 20.001979c-.08432 1.071511-.450678 1.428215-1.872656 1.428215-1.871502 0-28.677968-.03241-31.394742-.03241.2335983-.320811.3337557-.988623.3350963-1.004612z" fill="none" opacity=".465909" stroke="url(#c)" stroke-linecap="round"/></g></g></g></g></svg>