<svg height="24" viewBox="0 0 24 24" width="24" xmlns="http://www.w3.org/2000/svg" xmlns:xlink="http://www.w3.org/1999/xlink"><radialGradient id="a" cx="24.225998" cy="30.479609" gradientTransform="matrix(1.0901943 0 0 .46664441 -14.375801 -6.808035)" gradientUnits="userSpaceOnUse" r="13.354399"><stop offset="0" stop-opacity=".278351"/><stop offset="1" stop-color="#a8a8a8" stop-opacity="0"/></radialGradient><linearGradient id="b" gradientTransform="matrix(.59220141 0 0 .5681937 -2.264968 -3.295305)" gradientUnits="userSpaceOnUse" x1="23.433737" x2="23.433737" y1="15.75864" y2="8.047659"><stop offset="0" stop-color="#eeeeec"/><stop offset="1" stop-color="#a3a398"/></linearGradient><g stroke-miterlimit="10" transform="matrix(.95153782 0 0 1.0416928 -8.499801 -5.206279)"><path d="m21.464547 5.500002c-4.895979 0-8.876945 1.7334382-8.876946 3.8658299v14.3035631c0 2.132392 3.980966 3.865829 8.876946 3.865829 4.895981 0 9.035466-1.733438 9.035464-3.865829 0-.126218 0-14.177345 0-14.3035631 0-2.1323917-4.139483-3.8658299-9.035464-3.8658299z" display="block" fill="#babdb6" stroke="#767973" stroke-width="1.004221"/><ellipse cx="24" cy="14.071428" display="block" fill="#d3d7cf" opacity=".236264" rx="12.857142" ry="5.5" stroke-width="1.791129" transform="matrix(.61236 0 0 .509025 6.93016 16.53765)"/><path d="m21.470844 6.4999985c-4.350694 0-7.888282 1.5424173-7.888283 3.4398227v13.0612248c0 1.897408 3.537589 3.439823 7.888283 3.439823 4.350692 0 8.029144-1.542415 8.029142-3.439823 0-.112308 0-12.948914 0-13.0612248 0-1.8974064-3.67845-3.4398227-8.029142-3.4398227z" display="block" fill="none" opacity=".544304"/></g><g stroke-width=".157872"><path d="m10.409267 11.472564h3.181737c.777926 0 1.40901.230171 1.40901.514288v1.16121c0 .283888-.630727.514092-1.40901.514092h-3.181737c-.7788184 0-1.4092777-.230172-1.4092777-.514092v-1.16121c0-.283889.6307269-.514288 1.4092777-.514288z" fill="#73d216"/><path d="m10.409267 5.8252615h3.181737c.777926 0 1.40901.2301713 1.40901.5142879v1.1612093c0 .2838887-.630727.5140926-1.40901.5140926h-3.181737c-.7788184 0-1.4092777-.2301713-1.4092777-.5140926v-1.1612093c0-.2838887.6307269-.5142879 1.4092777-.5142879z" fill="#f57900"/><path d="m10.409265 14.296053h3.181737c.777926 0 1.40901.230171 1.40901.514093v1.161111c0 .283889-.630727.514287-1.40901.514287h-3.181737c-.778818 0-1.4092773-.23017-1.4092773-.514287v-1.161111c0-.28389.6307269-.514093 1.4092773-.514093z" fill="#3465a4"/><path d="m10.409267 3.0017078h3.181737c.777926 0 1.40901.2301712 1.40901.5140926v1.1612091c0 .2838889-.630727.5141903-1.40901.5141903h-3.181737c-.7788184 0-1.4092777-.2301712-1.4092777-.5141903v-1.1612091c0-.2838889.6307269-.5140926 1.4092777-.5140926z" fill="#edd400"/><path d="m10.409267 8.6490106h3.181737c.777926 0 1.40901.2301714 1.40901.5141903v1.1610781c0 .283889-.630727.514224-1.40901.514224h-3.181737c-.7788184 0-1.4092777-.230172-1.4092777-.514224v-1.1610781c0-.2842143.6307269-.5141903 1.4092777-.5141903z" fill="#c17d11"/><path d="m10.409266 17.048992h3.181737c.777926 0 1.409009.230172 1.409009.514093v1.161112c0 .284214-.630726.514287-1.409009.514287h-3.181737c-.7788191 0-1.4092783-.230171-1.4092783-.514287v-1.161112c0-.283889.6307269-.514093 1.4092783-.514093z" fill="#75507b"/></g><path d="m10.409266 19.808543h3.181737c.777925 0 1.409009.230475 1.409009.514242v1.161104c0 .283864-.630727.514242-1.409009.514242h-3.181737c-.778819 0-1.4092783-.230476-1.4092783-.514242v-1.161104c0-.283865.630727-.514242 1.4092783-.514242z" fill="#c00" stroke-width=".157865"/><path d="m.510977.513198h22.978046v22.973627h-22.978046z" fill="none" opacity="0" stroke="#bebebe" stroke-linecap="round" stroke-width="1.021954"/><ellipse cx="11.947866" cy="4.699992" rx="7.614018" ry="3.125065" style="display:block;opacity:.773196;stroke-width:.995704;stroke-miterlimit:10;fill:url(#a);stroke:url(#b)"/></svg>