<svg height="24" viewBox="0 0 24 24" width="24" xmlns="http://www.w3.org/2000/svg" xmlns:xlink="http://www.w3.org/1999/xlink"><linearGradient id="a" gradientTransform="matrix(.6008182 0 0 .60098717 -1.836377 23.944582)" gradientUnits="userSpaceOnUse" x1="18.112709" x2="15.514889" y1="31.36775" y2="6.18025"><stop offset="0" stop-color="#424242"/><stop offset="1" stop-color="#777"/></linearGradient><linearGradient id="b" gradientTransform="matrix(.58563033 0 0 .59905303 -1.771797 .033281)" gradientUnits="userSpaceOnUse" x1="22.175976" x2="22.065331" y1="36.987999" y2="32.050499"><stop offset="0" stop-color="#6194cb"/><stop offset="1" stop-color="#729fcf"/></linearGradient><linearGradient id="c" gradientTransform="matrix(.77157564 0 0 .50194756 -2.352938 -.974753)" gradientUnits="userSpaceOnUse" x1="13.035696" x2="12.853771" y1="32.567184" y2="46.689312"><stop offset="0" stop-color="#fff" stop-opacity=".796078"/><stop offset="1" stop-color="#fff" stop-opacity=".215686"/></linearGradient><g transform="matrix(.99983923 0 0 1 .003854 0)"><path d="m.88039079 47.195223c.01309514.250194.27631921.500388.52644261.500388h18.8218436c.250122 0 .48715-.250194.474055-.500388l-.562632-16.362918c-.0131-.250193-.276314-.500392-.526437-.500392h-7.973382c-.291431 0-.741694-.189664-.842133-.665071l-.367335-1.738699c-.09341-.44213-.53005-.623756-.7801735-.623756h-8.87940713c-.2501283 0-.48715589.250193-.47406051.500387z" fill="#fff" stroke="url(#a)" stroke-linecap="round" stroke-linejoin="round" stroke-width=".600903" transform="translate(0 -24)"/><path d="m0 0h24v23.996084h-24z" fill="#bebebe" opacity="0"/><g stroke-linecap="round" transform="matrix(1.2727141 0 0 1.2727542 -1701.5278 -169.54936)"><path d="m1344.5 134.5h10v10h-10z" fill="#fff" stroke="#555753" stroke-dashoffset="16.199999"/><path d="m1345.256 135.2564v1.9833c.168.048.352.0875.535.0875 1.026-.0001 1.854-.8129 1.854-1.8083.001-.0864-.019-.1793-.031-.2625zm6.13 0c-.012.0831-.031.1761-.031.2625 0 .9954.829 1.8083 1.854 1.8083.183-.0001.367-.0395.535-.0875v-1.9833zm-1.886 2.5666c-1.026 0-1.855.8128-1.855 1.8082.001.9954.829 1.8083 1.855 1.8083s1.855-.8129 1.855-1.8083-.829-1.8082-1.855-1.8082zm3.709 4.1415c-1.025 0-1.854.7837-1.854 1.7791h2.389v-1.7208c-.168-.048-.352-.0583-.535-.0583z" fill="#c00" stroke="#c00" stroke-width=".512835"/><path d="m1345.72 141.8757c1.088 0 1.967.8657 1.967 1.9652h-2.534v-1.9008c.178-.053.373-.0644.567-.0644z" fill="#c00" stroke="#c00" stroke-width=".555037"/><path d="m1345.5 135.5h8v8h-8z" fill="none" opacity=".339695" stroke="#fff" stroke-dashoffset="16.199999"/></g><path d="m21.526645 23.702238c.669899-.02639 1.149636-.656742 1.198807-1.390406.463693-6.918276.971771-12.7190634.971771-12.7190634.04225-.1482565-.09834-.2965121-.281186-.2965121h-20.1287898s-1.0836029 13.0994285-1.0836029 13.0994285c-.067087.588309-.2729081 1.081121-.9076307 1.308161l20.2306314-.0016z" display="block" fill="url(#b)" stroke="#3465a4" stroke-linejoin="round" stroke-width=".592309"/><path d="m3.796186 9.960143 19.203814.039857-.921827 12.299996c-.04938.658913-.263935.878264-1.096704.878264-1.096027 0-16.7949948-.01993-18.3860495-.01993.1368048-.197279.1954611-.607942.1962462-.617775z" fill="none" opacity=".465909" stroke="url(#c)" stroke-linecap="round" stroke-width=".600111"/></g></svg>