<svg height="24" viewBox="0 0 24 24" width="24" xmlns="http://www.w3.org/2000/svg"><g fill="#fff" fill-rule="evenodd" stroke="#555753" stroke-linecap="round" transform="matrix(.99128807 0 0 1.0015061 .02572 -.018513)"><g stroke-linejoin="round" stroke-width="1.371427"><path d="m1.66841.704383h2.66402v2.824019h-2.66402z"/><path d="m1.66841 3.528402h2.66402v2.824019h-2.66402z"/><path d="m1.66841 6.352421h2.66402v2.824019h-2.66402z"/><path d="m1.66841 9.17644h2.66402v2.824019h-2.66402z"/><path d="m1.66841 12.000459h2.66402v2.824019h-2.66402z"/><path d="m1.66841 14.824478h2.66402v2.824019h-2.66402z"/><path d="m1.66841 17.648497h2.66402v2.824019h-2.66402z"/></g><path d="m1.66841 20.472515h2.66402v2.824019h-2.66402z" stroke-width="1.370957"/></g><path d="m0 0h24v24h-24z" fill="#fff" opacity="0"/><g stroke="#000" stroke-linecap="square"><path d="m5.259828 1.301734h13.412547v6.597548h-13.412547z" fill="#729fcf" opacity=".75" stroke-width=".587452"/><path d="m5.299594 10.081156h13.400812v6.869789h-13.400812z" fill="#729fcf" opacity=".75" stroke-width=".599188"/><path d="m5.295479 19.045481h13.409043v4.659043h-13.409043z" fill="#729fcf" opacity=".75" stroke-width=".590957"/><path d="m5.288561 17.612946h13.422877v.922878h-13.422877z" opacity=".75" stroke-width=".577122"/><path d="m5.296871 8.571117h13.406257v.978011h-13.406257z" opacity=".75" stroke-width=".593743"/></g><g fill="#fff" fill-rule="evenodd" stroke="#555753" stroke-linecap="round" stroke-width="1.371427" transform="matrix(.99128807 0 0 1.0015061 18.025865 -.018513)"><g stroke-linejoin="round"><path d="m1.66841.704383h2.66402v2.824019h-2.66402z"/><path d="m1.66841 3.528402h2.66402v2.824019h-2.66402z"/><path d="m1.66841 6.352421h2.66402v2.824019h-2.66402z"/><path d="m1.66841 9.17644h2.66402v2.824019h-2.66402z"/><path d="m1.66841 12.000459h2.66402v2.824019h-2.66402z"/><path d="m1.66841 14.824478h2.66402v2.824019h-2.66402z"/><path d="m1.66841 17.648497h2.66402v2.824019h-2.66402z"/></g><path d="m1.66841 20.472515h2.66402v2.824019h-2.66402z"/></g></svg>