<svg height="24" viewBox="0 0 24 24" width="24" xmlns="http://www.w3.org/2000/svg" xmlns:xlink="http://www.w3.org/1999/xlink"><linearGradient id="a" gradientTransform="matrix(.9014429 0 0 .96677306 -.214873 6.165353)" gradientUnits="userSpaceOnUse" x1="304.763" x2="309.05939" xlink:href="#b" y1="160.46092" y2="160.46092"/><linearGradient id="b"><stop offset="0" stop-color="#fff"/><stop offset="1" stop-color="#fffaa6" stop-opacity="0"/></linearGradient><linearGradient id="c" gradientTransform="matrix(.9014429 0 0 .96677306 8.314804 6.101226)" gradientUnits="userSpaceOnUse" x1="304.763" x2="309.05939" xlink:href="#b" y1="160.46092" y2="160.46092"/><g transform="translate(0 -1028.3622)"><path d="m.000006 1028.3619h23.886906v24.000269h-23.886906z" fill="#fff" opacity="0"/><g transform="matrix(1.5050219 0 0 1.554965 -410.37304 794.67759)"><path d="m653.01562 307.90039c-.86442-.00069-1.46249.30706-1.87109.61328s-.63281.64844-.63281.64844c-.0105.0109-.0216.0233-.0312.0352l-3.19927 6.37833c-.24555.38136-.47194 1.42462-.52219 1.81055 0 1.93425 1.4929 3.52205 3.3601 3.52205 1.70518 0 3.11769-1.30185 3.34961-3.00195.0104.00034.0208 0 .0312 0h1.93164c.0105 0 .0189.00034.0293 0 .23192 1.7001 1.64638 3.00195 3.35156 3.00195 1.8672 0 3.38086-1.5677 3.38086-3.50195-.0142-.36215-.48942-1.67064-.62362-1.98164l-3.1225-6.22734c-.01-.0119-.0208-.0242-.0312-.0352 0 0-.22264-.34222-.62696-.64844-.40433-.30622-1.02153-.61328-1.85156-.61328-.27235-.0435-.54883.23087-.54883.54492 0 .31406.27648.59031.54883.54688 0 0 1.13535-.46765 1.70312.7832l2.20313 4.3125c-.32696-.10909-.66926-.18359-1.03125-.18359-1.3761 0-2.55241.67945-3.08008 1.90172-.0466.0354-.0546.45591-.16473.45565l-2.02616-.005c-.11018-.00027-.2612-.53114-.2612-.53114-.52767-1.22227-1.78509-1.82134-3.16119-1.82134-.37063 0-.72099.0772-1.05469.1914l2.23047-4.32031c.57378-1.25085 1.7207-.7832 1.7207-.7832.27525.0434.55665-.23282.55665-.54688 0-.31405-.20873-.53814-.49436-.54492zm-2.83593 7.41016c1.13609 0 2.05273.93617 2.05273 2.0957s-.91664 2.0957-2.05273 2.0957c-1.1361 0-2.05274-.93617-2.05274-2.0957s.91664-2.0957 2.05274-2.0957zm8.69336 0c1.13609 0 2.05273.93617 2.05273 2.0957s-.91664 2.0957-2.05273 2.0957c-1.1361 0-2.05274-.93617-2.05274-2.0957s.91664-2.0957 2.05274-2.0957z" fill="#729fcf" stroke="#000" stroke-width=".491576" transform="matrix(1.00000003398 0 0 .9999999992 -373.82355920397 -156.07999674414)"/><ellipse cx="276.44806" cy="161.29465" fill="url(#a)" rx="1.967396" ry="1.745435"/><ellipse cx="284.97775" cy="161.23051" fill="url(#c)" rx="1.88111" ry="1.90621"/></g></g></svg>