<svg height="24" viewBox="0 0 24 24" width="24" xmlns="http://www.w3.org/2000/svg" xmlns:xlink="http://www.w3.org/1999/xlink"><linearGradient id="a" gradientUnits="userSpaceOnUse" x1="34.470947" x2="36.824364" y1="24.522668" y2="26.876085"><stop offset="0" stop-color="#fcaf3e"/><stop offset="1" stop-color="#ce5c00"/></linearGradient><linearGradient id="b" gradientUnits="userSpaceOnUse" x1="29.840059" x2="29.202465" y1="33.665848" y2="34.303443"><stop offset="0" stop-color="#ce5c00"/><stop offset="1" stop-color="#ce5c00"/></linearGradient><linearGradient id="c" gradientUnits="userSpaceOnUse" x1="26.379272" x2="25.485056" y1="34.389839" y2="32.714375"><stop offset="0" stop-color="#e9b96e"/><stop offset="1" stop-color="#fff"/></linearGradient><g enable-background="new" transform="matrix(.9086079 0 0 .92949659 -20.87765628793 -9.45976107573)"><path d="m25.89225 30.18459 19-19c2.175049.359961 3.084719 1.732225 3.5 3.5l-19 19-4.616117.704505z" fill="url(#a)" fill-rule="evenodd" stroke="url(#b)" stroke-linejoin="round"/><path d="m26.792248 30.68459 18.49775-18.397748c1.089745.178435 1.517261.987944 2 2l-18.397748 18.49775-3.300003.900001z" fill="none" opacity=".282353" stroke="#fff" stroke-width="1.000001"/><path d="m24.549577 34.633026 1.666322-4.180309s1.199535.24536 1.932177.975089.998391 1.943828.998391 1.943828z" fill="url(#c)" fill-rule="evenodd"/><path d="m23 21.5-5.5 1.5 2-5" fill="none" stroke="#e9b96e" stroke-linecap="round" stroke-linejoin="round" transform="translate(6.39225 12.18459)"/><path d="m23.982372 33.82642-.933872 2.10817 2.328164-.74215c.002-.03184.01558-.141504.01558-.173844 0-.802125-.514138-1.376144-1.30633-1.416343z" fill-rule="evenodd" stroke="#c8c8c8" stroke-width=".205634"/><path d="m42.821682 13.147263c1.834152-.500531 3.885052 1.651475 3.449911 3.449919l2.36589-2.195402c1.066511-2.466563-1.302745-4.4097129-3.665207-3.494723z" fill="#ef2929" stroke="#ef2929"/><path d="m40.50548 15.535402c1.936448-.528484 4.158228 1.459144 3.698817 3.358024l2.317841-2.31801c.754457-1.595776-1.737745-4.404567-3.382737-3.756963z" fill="#babdb6" stroke="#888a85"/></g></svg>