<svg height="24" viewBox="0 0 24 24" width="24" xmlns="http://www.w3.org/2000/svg" xmlns:xlink="http://www.w3.org/1999/xlink"><linearGradient id="a" gradientTransform="matrix(-.08658565 0 0 .08871724 -32.943692 1028.9354)" gradientUnits="userSpaceOnUse" x1="-579.9129" x2="-601" y1="198.91855" y2="174.91855"><stop offset="0" stop-color="#302c26"/><stop offset="1" stop-color="#9f8e79"/></linearGradient><radialGradient id="b" cx="-474.00003" cy="233.41937" gradientTransform="matrix(.06302108 -.06083706 -.15423054 -.16773192 82.368835 1053.7113)" gradientUnits="userSpaceOnUse" r="64"><stop offset="0" stop-color="#ece9e4"/><stop offset="1" stop-color="#ece9e4" stop-opacity="0"/></radialGradient><radialGradient id="c" cx="-188.33328" cy="95.86953" gradientTransform="matrix(1.818824 0 0 1.818847 -11.926935 -222.95706)" gradientUnits="userSpaceOnUse" r="108.2779"><stop offset="0" stop-color="#709bd2"/><stop offset="1" stop-color="#3465a4"/></radialGradient><linearGradient id="d" gradientTransform="matrix(19.3538 0 0 19.3543 -6293.4385 -4355.62)" gradientUnits="userSpaceOnUse" x1="305.45834" x2="314.41666"><stop offset="0" stop-color="#fff" stop-opacity=".796078"/><stop offset="1" stop-color="#fff" stop-opacity=".215686"/></linearGradient><g transform="translate(0 -1028.3622)"><path d="m16.953554 1041.5782 5.957178 7.0542c1.353303 1.4621-.863891 3.5089-2.308636 2.3881l-7.093128-6.1099c1.576896-.4833 2.781202-1.512 3.444586-3.3324z" fill="url(#a)" stroke-width="5.886783"/><path d="m16.582959 1042.2433 6.191811 6.3966c.306125.251.173162.7725.173162.7725l-.339333-.5062-5.97563-5.7581-.829271-.018.779261-.8871z" fill="url(#b)" opacity=".270492" stroke-width="2.999688"/><path d="m17.590223 1042.5571 5.650919 6.2087s.009 1.7429.009 2.8466c-1.078169 0-2.721966-.016-2.721966-.016l-6.664603-5.8001" fill="none" stroke="#191613" stroke-linecap="round" stroke-linejoin="round" stroke-width="1.499844"/><path d="m17.478335 1044.883 4.216781 4.4253" style="opacity:.375587;fill:none;stroke:#eeeeec;stroke-width:1.499844;stroke-linecap:round;stroke-linejoin:round;stroke-dashoffset:1.6"/><g transform="matrix(-.08651633 0 0 .08651533 -15.019731 1035.6958)"><path d="m-294.97129-76.100257c62.2081 0 112.69583 50.488972 112.69583 112.698599s-50.48773 112.698598-112.69583 112.698598c-62.20809 0-112.69582-50.488971-112.69582-112.698598s50.48773-112.698599 112.69582-112.698599zm0 34.676492c-43.06714 0-78.02018 34.9539039-78.02018 78.022107 0 43.068203 34.95304 78.022108 78.02018 78.022108 43.06715 0 78.02019-34.953905 78.02019-78.022108 0-43.0682031-34.95304-78.022107-78.02019-78.022107z" fill="#3465a4" stroke="#204a87" stroke-width="17.337999"/><g fill="none"><ellipse cx="-294.97049" cy="36.598949" rx="95.37719" ry="95.378403" stroke="url(#c)" stroke-width="17.300125"/><ellipse cx="-294.97012" cy="36.596455" rx="78.019997" ry="78.022018" stroke="url(#d)" stroke-width="17.338036"/></g></g></g></svg>