<svg height="24" width="24" xmlns="http://www.w3.org/2000/svg" xmlns:xlink="http://www.w3.org/1999/xlink"><linearGradient id="a" gradientUnits="userSpaceOnUse" x1="74.44361097245" x2="74.44361097245" y1="26.4872572566" y2="38.92240046735"><stop offset="0" stop-color="#555753"/><stop offset="1" stop-color="#fcaf3e"/></linearGradient><radialGradient id="b" cx="-6.007017" cy="32.837029" gradientTransform="matrix(.748925 -.00000001 .00000001 .717879 73.47172 17.83974)" gradientUnits="userSpaceOnUse" r="9.90625"><stop offset="0" stop-color="#fce94f"/><stop offset="1" stop-color="#fce94f" stop-opacity="0"/></radialGradient><linearGradient id="c" gradientUnits="userSpaceOnUse" x1="75.44848034228" x2="75.44848034228" y1="42.12799418785" y2="40.9313663164"><stop offset="0" stop-color="#2e3436"/><stop offset="1" stop-color="#2e3436" stop-opacity="0"/></linearGradient><g transform="translate(0 2)"><rect fill="#eeeeec" fill-rule="evenodd" height="22.768805" rx=".933443" ry=".968187" stroke="#888a85" stroke-width="1.231195" width="22.768805" x=".615598" y="-1.384402"/><rect fill="#204a87" fill-rule="evenodd" height="2" rx=".185226" ry=".222271" width="20" x="2"/><g transform="matrix(.71874047 0 0 .86893116 -41.505635 -18.284803)"><rect fill="url(#a)" height="17.974199" rx=".496428" ry=".415061" stroke="#babdb6" stroke-linecap="round" stroke-linejoin="round" stroke-width="1.610196" width="26.232616" x="61.327301" y="25.272087"/><path d="m68.504842 33.54904c-3.871028.245613-6.950961 3.486386-6.950961 7.419038 0 .151871.01439.295058.0234.444674h14.791269c.009-.149616.0234-.292803.0234-.444674 0-4.092517-3.326522-7.419038-7.419038-7.419038-.159864 0-.310719-.01-.468078 0z" fill="url(#b)" fill-rule="evenodd"/><path d="m61.701763 41.373974h25.463449v1.49785h-25.463449z" fill="url(#c)"/><g fill-rule="evenodd"><path d="m78.594206 42.102134s-.416091-2.309202-.416091-3.723859c.01154-.645348 5.83166-5.672814 5.846675-6.421675l-1.353125 1.1792-.947514-2.577756 3.194289.330981 1.49785-1.49785-1.696439 1.245397-.583434-.132393-.715827-2.610854.364079 2.544658-2.643952-.132392.827453 2.105948-2.292205-2.271439 2.424598 3.16156c.000063.705134-4.778797 5.009711-4.770668 4.267474l-1.981989-2.658368-.165491-3.593784 1.49785-.427957 1.312233-3.235821-1.729807 2.990693-1.350438-.06119-3.022952-2.553092-4.150706-1.58871 3.546036 1.948892-2.842541.252453h3.744625l2.246775 2.246775.264785 3.880915-4.00941-3.880915 1.686056 2.02742-2.434981 1.717205 2.674732-1.49785 4.231084 5.329438-.165491 3.636896z"/><path d="m68.717495 38.055881c-2.112372.10278-3.793053 1.458925-3.793053 3.104595 0 .06355.0079.123471.01277.18608h8.071414c.0049-.06261.01277-.122527.01277-.18608 0-1.712567-1.815242-3.104595-4.048478-3.104595-.08724 0-.169556-.0042-.255425 0z" fill="#fef39e"/><path d="m68.778119 38.614411c-1.611003.0839-2.892777 1.190836-2.892777 2.5341 0 .05187.006.100781.0097.151885h6.155676c.0038-.0511.0097-.100012.0097-.151885 0-1.397869-1.384397-2.5341-3.087578-2.5341-.06653 0-.129312-.0034-.194801 0z" fill="#fffbd7" fill-opacity=".556818"/></g></g></g></svg>