<svg height="24" viewBox="0 0 24 24" width="24" xmlns="http://www.w3.org/2000/svg" xmlns:xlink="http://www.w3.org/1999/xlink"><linearGradient id="a" gradientTransform="matrix(.60072161 0 0 .60098717 -1.832228 -.055418)" gradientUnits="userSpaceOnUse" x1="18.112709" x2="15.514889" y1="31.36775" y2="6.18025"><stop offset="0" stop-color="#424242"/><stop offset="1" stop-color="#777"/></linearGradient><linearGradient id="b" gradientTransform="matrix(.58553618 0 0 .59905303 -1.767658 .033281)" gradientUnits="userSpaceOnUse" x1="22.175976" x2="22.065331" y1="36.987999" y2="32.050499"><stop offset="0" stop-color="#6194cb"/><stop offset="1" stop-color="#729fcf"/></linearGradient><linearGradient id="c" gradientTransform="matrix(.77145159 0 0 .50194756 -2.348706 -.974753)" gradientUnits="userSpaceOnUse" x1="13.035696" x2="12.853771" xlink:href="#d" y1="32.567184" y2="46.689312"/><linearGradient id="d"><stop offset="0" stop-color="#fff" stop-opacity=".796078"/><stop offset="1" stop-color="#fff" stop-opacity=".215686"/></linearGradient><linearGradient id="e" gradientUnits="userSpaceOnUse" x1="1247.0065" x2="1247.0065" xlink:href="#f" y1="343.349729" y2="362.540351"/><linearGradient id="f"><stop offset="0" stop-color="#d3d7cf"/><stop offset="1" stop-color="#fff"/></linearGradient><linearGradient id="g" gradientUnits="userSpaceOnUse" x1="1256.354164" x2="1256.354164" y1="346.257554" y2="340.423253"><stop offset="0" stop-color="#888a85"/><stop offset="1" stop-color="#888a85"/></linearGradient><linearGradient id="h" gradientUnits="userSpaceOnUse" x1="1254.694" x2="1254.7565" xlink:href="#d" y1="346.7252" y2="370.1002"/><linearGradient id="i" gradientUnits="userSpaceOnUse" x1="1240.6315" x2="1240.6315" xlink:href="#f" y1="357.4752" y2="356.218967"/><linearGradient id="j" gradientUnits="userSpaceOnUse" x1="1239.53775" x2="1238.5065" y1="353.224418" y2="356.9127"><stop offset="0" stop-color="#babdb6"/><stop offset="1" stop-color="#888a85"/></linearGradient><path d="m.88410335 23.195223c.013093.250194.27627475.500388.52635795.500388h18.8188177c.250082 0 .487072-.250194.473979-.500388l-.562542-16.362918c-.013098-.250193-.276269-.500392-.526352-.500392h-7.9721c-.291384 0-.741575-.189664-.841998-.665071l-.367276-1.738699c-.093395-.44213-.5299646-.623756-.7800479-.623756h-8.87797962c-.25008809 0-.48707757.250193-.4739843.500387z" fill="#fff" stroke="url(#a)" stroke-linecap="round" stroke-linejoin="round" stroke-width=".600854"/><path d="m.003854 0h23.996141v23.996084h-23.996141z" fill="#bebebe" opacity="0"/><g stroke-linecap="round" transform="matrix(.9354563 0 0 .9354563 8.03269981042 .99999918958)"><path d="m4 .5c-.827303 0-1.500001 1.12-1.5 2.5v9.5h-.03125-1.9375c-.02001.162695-.03125.3275-.03125.5 0 1.38.672698 2.5 1.5 2.5h10c.827303 0 1.5-1.12 1.5-2.5v-9.5h1.96875c.02001-.162695.03125-.3275.03125-.5 0-1.38-.672697-2.5-1.5-2.5-5.694672.124755-4.305328 0-10 0z" fill="url(#e)" fill-rule="evenodd" stroke="url(#g)" stroke-linejoin="round"/><path d="m4.28125 1.5c-.391244 0-.78125.368273-.78125 1.5v9.5h-.03125-1.9375c-.02001.162695-.03125.3275-.03125.5 0 1.38.672698 1.5 1.5 1.5h8c.827303 0 1.5-.12 1.5-1.5.000645-6.639263 0-3.423675 0-10 0-.486756.01547-.971272.455806-1.5z" fill="none" stroke="url(#h)"/><path d="m.53125 12.5c-.02001.162695-.03125.3275-.03125.5 0 1.38.672698 2.5 1.5 2.5h10c-.827304 0-1.5-1.12-1.5-2.5 0-.1725.01124-.337305.03125-.5z" fill="url(#i)" fill-rule="evenodd" stroke="url(#j)" stroke-linejoin="round" stroke-width="1.069913"/></g><path d="m21.527038 23.702238c.669792-.02639 1.149451-.656742 1.198615-1.390406.463618-6.918276.971614-12.7190634.971614-12.7190634.04224-.1482565-.09832-.2965121-.28114-.2965121h-20.1255542s-1.0834287 13.0994285-1.0834287 13.0994285c-.067076.588309-.2728642 1.081121-.9074848 1.308161l20.2273787-.0016z" display="block" fill="url(#b)" stroke="#3465a4" stroke-linejoin="round" stroke-width=".592262"/><path d="m3.7994298 9.960143 19.2007262.039857-.921678 12.299996c-.04937.658913-.263893.878264-1.096528.878264-1.095851 0-16.7922948-.01993-18.3830937-.01993.1367828-.197279.1954297-.607942.1962147-.617775z" fill="none" opacity=".465909" stroke="url(#c)" stroke-linecap="round" stroke-width=".600063"/></svg>