<svg height="24" viewBox="0 0 24 24" width="24" xmlns="http://www.w3.org/2000/svg" xmlns:xlink="http://www.w3.org/1999/xlink"><linearGradient id="a" gradientTransform="matrix(.6008182 0 0 .60098717 -1.836377 -.055418)" gradientUnits="userSpaceOnUse" x1="18.112709" x2="15.514889" y1="31.36775" y2="6.18025"><stop offset="0" stop-color="#424242"/><stop offset="1" stop-color="#777"/></linearGradient><linearGradient id="b" gradientTransform="matrix(.58583149 0 0 .59874372 -1.306445 24.343264)" gradientUnits="userSpaceOnUse" x1="22.175976" x2="22.065331" y1="36.987999" y2="32.050499"><stop offset="0" stop-color="#6194cb"/><stop offset="1" stop-color="#729fcf"/></linearGradient><linearGradient id="c" gradientTransform="matrix(.77184067 0 0 .50168839 -1.887786 23.335751)" gradientUnits="userSpaceOnUse" x1="13.035696" x2="12.853771" xlink:href="#d" y1="32.567184" y2="46.689312"/><linearGradient id="d"><stop offset="0" stop-color="#fff" stop-opacity=".796078"/><stop offset="1" stop-color="#fff" stop-opacity=".215686"/></linearGradient><linearGradient id="e" gradientTransform="matrix(.8048011 -.08405894 -.2587753 .8411918 306.72336 53.510516)" gradientUnits="userSpaceOnUse" x1="33.175713" x2="31.180811" y1="18.657627" y2="17.17729"><stop offset="0" stop-color="#c17d11"/><stop offset="1" stop-color="#e9b96e"/></linearGradient><linearGradient id="f" gradientTransform="matrix(.8048011 -.08405894 -.2587753 .8411918 306.72336 53.510516)" gradientUnits="userSpaceOnUse" x1="19.635454" x2="23.529133" y1="29.591417" y2="33.485096"><stop offset="0" stop-color="#eeeeec"/><stop offset="1" stop-color="#888a85"/></linearGradient><linearGradient id="g" gradientUnits="userSpaceOnUse" x1="314.1875" x2="337.4375" xlink:href="#d" y1="77.625" y2="55.1875"/><linearGradient id="h" gradientTransform="matrix(1 0 0 1.2675301 295 35.14642)" gradientUnits="userSpaceOnUse" x1="10.593056" x2="10.165062" y1="38.581955" y2="43.382187"><stop offset="0" stop-color="#555753"/><stop offset="1" stop-color="#1f2324"/></linearGradient><linearGradient id="i" gradientTransform="matrix(.6424152 0 0 .7146281 299.4458 56.787435)" gradientUnits="userSpaceOnUse" x1="9.3437" x2="10.924745" xlink:href="#d" y1="38.811657" y2="46.82093"/><linearGradient id="j" gradientTransform="matrix(.8048011 -.08405894 -.2587753 .8411918 306.62672 55.876157)" gradientUnits="userSpaceOnUse" x1="38.289421" x2="36.610626" y1="5.253948" y2="7.331462"><stop offset="0" stop-color="#eac586"/><stop offset="1" stop-color="#eac586" stop-opacity="0"/></linearGradient><g transform="matrix(.9998394 0 0 1 .003854 0)"><path d="m.88039079 23.195223c.01309514.250194.27631921.500388.52644261.500388h18.8218436c.250122 0 .48715-.250194.474055-.500388l-.562632-16.362918c-.0131-.250193-.276314-.500392-.526437-.500392h-7.973382c-.291431 0-.741694-.189664-.842133-.665071l-.367335-1.738699c-.09341-.44213-.53005-.623756-.7801735-.623756h-8.87940713c-.2501283 0-.48715589.250193-.47406051.500387z" fill="#fff" stroke="url(#a)" stroke-linecap="round" stroke-linejoin="round" stroke-width=".600903"/><path d="m0 0h24v23.996084h-24z" fill="#bebebe" opacity="0"/><g enable-background="new" transform="matrix(.01627403742 .33517238334 -.32634380897 .01397187975 26.10795539649 -99.88873413928)"><g fill-rule="evenodd"><path d="m320.3776 76.216886c3.74479-3.557225 10.29133-10.392843 18.1224-21.216886.31508-.348949-.20939-.648913-.5-.5-11.8317 8.286013-17.78213 14.476254-21.15733 18.01528" fill="url(#e)" stroke="#8f5902" stroke-linejoin="round"/><path d="m317.43642 71.92153c1.48148.593851 2.79794 1.536069 3.53493 3.701606-1.50039 1.439227-7.46345 6.424706-11.18179 8.495374l-1.09205-1.514265c2.11292-3.07026 5.97347-7.921974 8.73891-10.682715z" opacity=".15" stroke="#000" stroke-linejoin="round"/><path d="m316.84267 72.51528c1.48148.593851 2.79794 1.536069 3.53493 3.701606-1.50039 1.439227-7.46345 6.424706-11.18179 8.495374l-1.09205-1.514265c2.11292-3.07026 5.97347-7.921974 8.73891-10.682715z" fill="url(#f)" stroke="#888a85"/><path d="m308.9375 83.4375c5.61007-8.503571 23.67787-24.203721 27.5625-26.8125-8.26477 8.802256-18.60785 18.641733-27.5625 26.8125z" fill="url(#g)" opacity=".68"/><path d="m298.5 89.533975c4.69347.0018 4.22115-4.892079 6.5-6.392279 2.64077-1.738454 4.95498.415683 5.41701 2.188487.58299 2.236937-.41701 4.695506-3.41701 5.678933-3.36365 1.102635-8.11053.475429-8.5-1.475141z" fill="url(#h)" stroke="#000"/></g><path d="m300 90.11888c2.03536-.02563 3.43589-2.444925 3.96623-3.979048 1.59922-4.626059 6.41448-2.426936 5.53377.792882-1.04847 5.181517-6.45517 3.194333-9.5 3.186166z" fill="none" opacity=".291188" stroke="url(#i)" stroke-linejoin="round" stroke-miterlimit="5"/><path d="m337.51065 55.5-3.01065 3.008813" fill="none" stroke="url(#j)" stroke-linecap="round"/></g><g enable-background="new" transform="matrix(-.24073216868 .22757300547 -.23427296836 -.23384747938 115.56992675562 -45.43262063751)"><g fill-rule="evenodd"><path d="m320.3776 76.216886c3.74479-3.557225 10.29133-10.392843 18.1224-21.216886.31508-.348949-.20939-.648913-.5-.5-11.8317 8.286013-17.78213 14.476254-21.15733 18.01528" fill="url(#e)" stroke="#8f5902" stroke-linejoin="round"/><path d="m317.43642 71.92153c1.48148.593851 2.79794 1.536069 3.53493 3.701606-1.50039 1.439227-7.46345 6.424706-11.18179 8.495374l-1.09205-1.514265c2.11292-3.07026 5.97347-7.921974 8.73891-10.682715z" opacity=".15" stroke="#000" stroke-linejoin="round"/><path d="m316.84267 72.51528c1.48148.593851 2.79794 1.536069 3.53493 3.701606-1.50039 1.439227-7.46345 6.424706-11.18179 8.495374l-1.09205-1.514265c2.11292-3.07026 5.97347-7.921974 8.73891-10.682715z" fill="url(#f)" stroke="#888a85"/><path d="m308.9375 83.4375c5.61007-8.503571 23.67787-24.203721 27.5625-26.8125-8.26477 8.802256-18.60785 18.641733-27.5625 26.8125z" fill="url(#g)" opacity=".68"/><path d="m298.5 89.533975c4.69347.0018 4.22115-4.892079 6.5-6.392279 2.64077-1.738454 4.95498.415683 5.41701 2.188487.58299 2.236937-.41701 4.695506-3.41701 5.678933-3.36365 1.102635-8.11053.475429-8.5-1.475141z" fill="url(#h)" stroke="#000"/></g><path d="m300 90.11888c2.03536-.02563 3.43589-2.444925 3.96623-3.979048 1.59922-4.626059 6.41448-2.426936 5.53377.792882-1.04847 5.181517-6.45517 3.194333-9.5 3.186166z" fill="none" opacity=".291188" stroke="url(#i)" stroke-linejoin="round" stroke-miterlimit="5"/><path d="m337.51065 55.5-3.01065 3.008813" fill="none" stroke="url(#j)" stroke-linecap="round"/></g><g enable-background="new" transform="matrix(-.30364763786 .12369472092 -.12733640961 -.29496363167 121.41890831465 -9.11356434309)"><g fill-rule="evenodd"><path d="m320.3776 76.216886c3.74479-3.557225 10.29133-10.392843 18.1224-21.216886.31508-.348949-.20939-.648913-.5-.5-11.8317 8.286013-17.78213 14.476254-21.15733 18.01528" fill="url(#e)" stroke="#8f5902" stroke-linejoin="round"/><path d="m317.43642 71.92153c1.48148.593851 2.79794 1.536069 3.53493 3.701606-1.50039 1.439227-7.46345 6.424706-11.18179 8.495374l-1.09205-1.514265c2.11292-3.07026 5.97347-7.921974 8.73891-10.682715z" opacity=".15" stroke="#000" stroke-linejoin="round"/><path d="m316.84267 72.51528c1.48148.593851 2.79794 1.536069 3.53493 3.701606-1.50039 1.439227-7.46345 6.424706-11.18179 8.495374l-1.09205-1.514265c2.11292-3.07026 5.97347-7.921974 8.73891-10.682715z" fill="url(#f)" stroke="#888a85"/><path d="m308.9375 83.4375c5.61007-8.503571 23.67787-24.203721 27.5625-26.8125-8.26477 8.802256-18.60785 18.641733-27.5625 26.8125z" fill="url(#g)" opacity=".68"/><path d="m298.5 89.533975c4.69347.0018 4.22115-4.892079 6.5-6.392279 2.64077-1.738454 4.95498.415683 5.41701 2.188487.58299 2.236937-.41701 4.695506-3.41701 5.678933-3.36365 1.102635-8.11053.475429-8.5-1.475141z" fill="url(#h)" stroke="#000"/></g><path d="m300 90.11888c2.03536-.02563 3.43589-2.444925 3.96623-3.979048 1.59922-4.626059 6.41448-2.426936 5.53377.792882-1.04847 5.181517-6.45517 3.194333-9.5 3.186166z" fill="none" opacity=".291188" stroke="url(#i)" stroke-linejoin="round" stroke-miterlimit="5"/><path d="m337.51065 55.5-3.01065 3.008813" fill="none" stroke="url(#j)" stroke-linecap="round"/></g><g transform="matrix(.99965663 0 0 1.0005166 -.465801 -24.322559)"><path d="m22 48c.670129-.02638 1.150031-.656403 1.199218-1.389688.463853-6.914704.972105-12.712496.972105-12.712496.04227-.14818-.09837-.296359-.281282-.296359h-20.1357041s-1.0839751 13.092665-1.0839751 13.092665c-.06711.588005-.2730018 1.080563-.9079425 1.307485l20.2375807-.0016z" display="block" fill="url(#b)" stroke="#3465a4" stroke-linejoin="round" stroke-width=".592258"/><path d="m4.2634507 34.265001 19.2104103.03984-.922143 12.293645c-.0494.658573-.264026.877811-1.097081.877811-1.096404 0-16.800764-.01992-18.3923652-.01992.1368518-.197181.1955282-.607632.1963136-.61746z" fill="none" opacity=".465909" stroke="url(#c)" stroke-linecap="round" stroke-width=".600059"/></g></g></svg>