<svg height="24" viewBox="0 0 24 24" width="24" xmlns="http://www.w3.org/2000/svg"><g transform="translate(0 -1028.3622)"><rect height="23.456678" rx="1.596513" ry="1.710832" style="fill:#c3c6c0;fill-rule:evenodd;stroke:#676964;stroke-width:.54294;stroke-linecap:round;stroke-linejoin:round" width="23.45747" x=".271256" y="1028.6338"/><rect height="18.395338" rx=".577005" ry=".622389" style="fill:#3465a4;fill-rule:evenodd;stroke:#173562;stroke-width:.604662;stroke-linecap:round;stroke-linejoin:round" width="21.395338" x="1.302331" y="1029.6646"/><rect fill="none" height="22.300621" rx="1.444184" ry="1.547595" width="22.480021" x=".760595" y="1029.1934"/><path d="m11.532885 1031.6693a1.254467 1.1923404 0 0 0 -.276837.027 1.254467 1.1923404 0 0 0 -.627171 2.0491l4.110909 3.9073h-10.4340642v2.3844h10.4438642l-4.120709 3.917a1.2749955 1.2118521 0 1 0 1.803116 1.7136l6.27171-5.9611.862361-.8567-.862361-.8569-6.27171-5.9611a1.254467 1.1923404 0 0 0 -.899108-.3634z" fill="#fcaf3e" stroke="#ce5c00" stroke-width=".611444"/></g></svg>