<svg height="24" viewBox="0 0 24 24" width="24" xmlns="http://www.w3.org/2000/svg" xmlns:xlink="http://www.w3.org/1999/xlink"><g transform="translate(0 -1028.3622)"><g id="a" transform="matrix(.9981241 0 0 .9997997 -171.6564 1007.8704)"><path d="m177.49705 22.999562c-2.49843.500023-3.99749 2.500115-3.99749 4.500207 0 4.367679 5.99623 6.500299 5.99623 10.00046 0 1.500069-.87711 4.520083-5.99623 4.500207" fill="none" stroke="#5c3566" stroke-linecap="round" stroke-width="2.999127"/><path d="m177.5 23c-2.5.5-4 2.5-4 4.5 0 4.367478 6 6.5 6 10 0 1.5-.87766 4.519875-6 4.5" fill="none" stroke="#ad7fa8" stroke-linecap="round"/></g><use height="100%" opacity=".667" transform="matrix(-1.0000252 0 0 1.0000146 23.999651 -.014927)" width="100%" xlink:href="#a"/><path d="m13.25 1032.3622c0 .4714-.746549 1-1.245529 1s-1.23359-.3992-1.245529-1c-.02012-1.0122 0-3 0-3 0-.5117.746549-1 1.245529-1s1.245529.5283 1.245529 1z" fill="#ce5c00"/><path d="m12.5 1032.0035c0 .3444-.264297.6087-.5.6087-.235702 0-.5-.2349-.5-.6087v-1.1272-1.1554c0-.3738.222213-.6087.5-.6087s.5.2641.5.6087v1.1875z" fill="#fcaf3e"/><g transform="translate(0 19)"><path d="m13.25 1032.3622c0 .4714-.746549 1-1.245529 1s-1.23359-.3992-1.245529-1c-.02012-1.0122 0-3 0-3 0-.5117.746549-1 1.245529-1s1.245529.5283 1.245529 1z" fill="#ce5c00"/><path d="m12.5 1032.0035c0 .3444-.264297.6087-.5.6087-.235702 0-.5-.2349-.5-.6087v-1.1272-1.1554c0-.3738.222213-.6087.5-.6087s.5.2641.5.6087v1.1875z" fill="#fcaf3e"/></g><g transform="translate(0 6)"><path d="m13.25 1032.3622c0 .4714-.746549 1-1.245529 1s-1.23359-.3992-1.245529-1c-.02012-1.0122 0-3 0-3 0-.5117.746549-1 1.245529-1s1.245529.5283 1.245529 1z" fill="#ce5c00"/><path d="m12.5 1032.0035c0 .3444-.264297.6087-.5.6087-.235702 0-.5-.2349-.5-.6087v-1.1272-1.1554c0-.3738.222213-.6087.5-.6087s.5.2641.5.6087v1.1875z" fill="#fcaf3e"/></g><g transform="translate(0 13)"><path d="m13.25 1032.3622c0 .4714-.746549 1-1.245529 1s-1.23359-.3992-1.245529-1c-.02012-1.0122 0-3 0-3 0-.5117.746549-1 1.245529-1s1.245529.5283 1.245529 1z" fill="#ce5c00"/><path d="m12.5 1032.0035c0 .3444-.264297.6087-.5.6087-.235702 0-.5-.2349-.5-.6087v-1.1272-1.1554c0-.3738.222213-.6087.5-.6087s.5.2641.5.6087v1.1875z" fill="#fcaf3e"/></g></g></svg>