<svg height="24" viewBox="0 0 24 24" width="24" xmlns="http://www.w3.org/2000/svg" xmlns:xlink="http://www.w3.org/1999/xlink"><linearGradient id="a" gradientTransform="matrix(.60072171 0 0 .60098717 -1.832204 23.944582)" gradientUnits="userSpaceOnUse" x1="18.112709" x2="15.514889" y1="31.36775" y2="6.18025"><stop offset="0" stop-color="#424242"/><stop offset="1" stop-color="#777"/></linearGradient><linearGradient id="b" gradientTransform="matrix(.58583149 0 0 .59874372 -1.306445 24.343264)" gradientUnits="userSpaceOnUse" x1="22.175976" x2="22.065331" y1="36.987999" y2="32.050499"><stop offset="0" stop-color="#6194cb"/><stop offset="1" stop-color="#729fcf"/></linearGradient><linearGradient id="c" gradientTransform="matrix(.77184067 0 0 .50168839 -1.88797 23.335751)" gradientUnits="userSpaceOnUse" x1="13.035696" x2="12.853771" y1="32.567184" y2="46.689312"><stop offset="0" stop-color="#fff" stop-opacity=".796078"/><stop offset="1" stop-color="#fff" stop-opacity=".215686"/></linearGradient><path d="m.88412762 47.195223c.013093.250194.27627478.500388.52635808.500388h18.8188213c.250082 0 .487072-.250194.473979-.500388l-.562542-16.362918c-.0131-.250193-.276269-.500392-.526352-.500392h-7.972102c-.291384 0-.741575-.189664-.841998-.665071l-.367276-1.738699c-.0934-.44213-.5299649-.623756-.7800482-.623756h-8.87798107c-.25008813 0-.48707765.250193-.47398438.500387z" fill="#fff" stroke="url(#a)" stroke-linecap="round" stroke-linejoin="round" stroke-width=".600854" transform="translate(0 -24)"/><path d="m.003878 0h23.996145v23.996084h-23.996145z" fill="#bebebe" opacity="0"/><g transform="matrix(1.6682374 0 0 1.7570343 -.731062 -68.607046)"><path d="m13.01923 42.799754 1.020097-1.010697.00002 5.04006h-5.0877403l1.0201821-1.010696s-2.0403537-1.758726-.3444251-3.438833c1.6580753-1.583563 3.3917503.420055 3.3917503.420055z" fill="#396db1" stroke="#122439" stroke-width=".371894"/><g fill="#f57900" stroke="#542900" stroke-width=".475533" transform="translate(1.432577 1.841884)"><path d="m4.911377 38.791359c.3264168.273788.81603.234252 1.0933315-.08762.2774363-.322328.2372131-.80577-.089163-1.079458-.3265099-.273838-.8160859-.234302-1.0933456.08757-.2774101.322228-.2372831.80572.089177 1.079508z"/><path d="m7.4049627 39.269118c.4194911.343203 1.0407126.284552 1.3874244-.130783.3470018-.415335.2876356-1.030666-.1317125-1.373819-.4195384-.343304-1.04076-.284603-1.3875225.130833-.346915.415184-.2875916 1.030515.1318106 1.373769z"/><path d="m5.1136848 41.560375c.4194419.343254 1.0406891.284603 1.3874456-.130732.3469929-.415385.287584-1.030666-.1317593-1.373869-.4194781-.343304-1.0407605-.284603-1.3874828.130782-.3469059.415285-.2876534 1.030566.1317965 1.373819z"/></g></g><g transform="matrix(.99949608 0 0 1.0005166 -.461848 -24.322559)"><path d="m22 48c.670129-.02638 1.150031-.656403 1.199218-1.389688.463853-6.914704.972105-12.712496.972105-12.712496.04227-.14818-.09837-.296359-.281282-.296359h-20.1357041s-1.0839751 13.092665-1.0839751 13.092665c-.06711.588005-.2730018 1.080563-.9079425 1.307485l20.2375807-.0016z" display="block" fill="url(#b)" stroke="#3465a4" stroke-linejoin="round" stroke-width=".592258"/><path d="m4.2632663 34.265001 19.2104097.03984-.922143 12.293645c-.0494.658573-.264026.877811-1.097081.877811-1.096404 0-16.8007634-.01992-18.3923646-.01992.1368518-.197177.1955282-.607628.1963136-.617456z" fill="none" opacity=".465909" stroke="url(#c)" stroke-linecap="round" stroke-width=".600059"/></g></svg>