<svg height="24" viewBox="0 0 384.00005 384.00064" width="24" xmlns="http://www.w3.org/2000/svg"><path d="m186.43649 6.50195-86.608937 86.424484 86.608937 85.417576c.0796-14.23439 0-21.47968.0847-63.9793l119.08721-.46138c18.08932-.073 32.39375 14.17327 32.39375 32.22039 0 18.04726-14.28399 32.22038-32.47834 32.22038h-10.82611v42.96051h10.82613c41.59586 0 75.7828-33.91575 75.7828-75.18089 0-41.26526-34.16688-75.347203-75.86738-75.180905l-119.00275.503336z" fill="#edd400" opacity=".5" stroke="#000" stroke-width="5.391519"/><path d="m100.42279 151.15138-96.247436 92.50245 96.247436 91.42474c.0885-15.23544 0-22.99025.0941-68.47874l132.34012-.49374c20.10242-.0776 35.99883 15.17006 35.99883 34.48637 0 19.31646-15.87365 34.48634-36.09282 34.48634h-12.03096v45.9818h12.03093c46.22498 0 84.2165-36.30095 84.2165-80.46814 0-44.16731-37.96923-80.64615-84.31048-80.46815l-132.24623.53875z" fill="#edd400" stroke="#000" stroke-width="5.880072"/><path d="m.021092-384.00061h383.978v383.97238h-383.978z" fill="none" transform="scale(1 -1)"/></svg>