<?xml version="1.0" encoding="UTF-8" standalone="no"?>
<!-- Created with Inkscape (http://www.inkscape.org/) -->

<svg
   xmlns:dc="http://purl.org/dc/elements/1.1/"
   xmlns:cc="http://creativecommons.org/ns#"
   xmlns:rdf="http://www.w3.org/1999/02/22-rdf-syntax-ns#"
   xmlns:svg="http://www.w3.org/2000/svg"
   xmlns="http://www.w3.org/2000/svg"
   xmlns:xlink="http://www.w3.org/1999/xlink"
   xmlns:sodipodi="http://sodipodi.sourceforge.net/DTD/sodipodi-0.dtd"
   xmlns:inkscape="http://www.inkscape.org/namespaces/inkscape"
   width="24"
   height="24"
   id="svg97"
   sodipodi:version="0.32"
   inkscape:version="0.92pre1 unknown"
   sodipodi:docname="gimp-prefs-folders-mypaint-brushes.svg"
   inkscape:output_extension="org.inkscape.output.svg.inkscape"
   version="1.1"
   viewBox="0 0 24 24">
  <defs
     id="defs3">
    <linearGradient
       id="linearGradient9766">
      <stop
         style="stop-color:#6194cb;stop-opacity:1;"
         offset="0"
         id="stop9768" />
      <stop
         style="stop-color:#729fcf;stop-opacity:1;"
         offset="1"
         id="stop9770" />
    </linearGradient>
    <linearGradient
       id="linearGradient3096">
      <stop
         id="stop3098"
         offset="0"
         style="stop-color:#424242;stop-opacity:1;" />
      <stop
         id="stop3100"
         offset="1.0000000"
         style="stop-color:#777777;stop-opacity:1.0000000;" />
    </linearGradient>
    <linearGradient
       gradientUnits="userSpaceOnUse"
       y2="6.1802502"
       x2="15.514889"
       y1="31.36775"
       x1="18.112709"
       id="linearGradient3104-5"
       xlink:href="#linearGradient3096"
       inkscape:collect="always"
       gradientTransform="matrix(0.60072171,0,0,0.60098717,-1.8322037,-0.055418)" />
    <linearGradient
       inkscape:collect="always"
       xlink:href="#linearGradient9766"
       id="linearGradient9772"
       x1="22.175976"
       y1="36.987999"
       x2="22.065331"
       y2="32.050499"
       gradientUnits="userSpaceOnUse"
       gradientTransform="matrix(0.58583149,0,0,0.59874372,-1.3064445,24.343264)" />
    <linearGradient
       gradientUnits="userSpaceOnUse"
       y2="46.689312"
       x2="12.853771"
       y1="32.567184"
       x1="13.035696"
       gradientTransform="matrix(0.77184067,0,0,0.50168839,-1.8879701,23.335751)"
       id="linearGradient322-1"
       xlink:href="#linearGradient8340"
       inkscape:collect="always" />
    <linearGradient
       id="linearGradient8340">
      <stop
         id="stop8342"
         stop-color="#ffffff"
         stop-opacity="0.796078" />
      <stop
         id="stop8344"
         offset="1"
         stop-color="#ffffff"
         stop-opacity="0.215686" />
    </linearGradient>
    <linearGradient
       y2="27.5"
       x2="44.5"
       y1="27.5"
       x1="33.5"
       gradientTransform="matrix(1.1999998,0,0,1.2,-8.299991,-5.5000001)"
       gradientUnits="userSpaceOnUse"
       id="linearGradient12088"
       xlink:href="#linearGradient8340"
       inkscape:collect="always" />
    <radialGradient
       r="4"
       fy="9.10744"
       fx="22.305519"
       cy="12.811336"
       cx="23"
       gradientTransform="matrix(1,0,0,0.75,8,12.75)"
       gradientUnits="userSpaceOnUse"
       id="radialGradient12090"
       xlink:href="#linearGradient7641"
       inkscape:collect="always" />
    <linearGradient
       id="linearGradient7641"
       inkscape:collect="always">
      <stop
         id="stop7643"
         offset="0"
         style="stop-color:#ffffff;stop-opacity:1" />
      <stop
         id="stop7645"
         offset="1"
         style="stop-color:#555753;stop-opacity:1" />
    </linearGradient>
    <linearGradient
       y2="17.132355"
       x2="27.907148"
       y1="11.702784"
       x1="21.849625"
       gradientTransform="translate(8,9.000001)"
       gradientUnits="userSpaceOnUse"
       id="linearGradient12092"
       xlink:href="#linearGradient8340"
       inkscape:collect="always" />
  </defs>
  <sodipodi:namedview
     fill="#729fcf"
     id="base"
     pagecolor="#ffffff"
     bordercolor="#666666"
     borderopacity="0.10196078"
     inkscape:pageopacity="0.0"
     inkscape:pageshadow="2"
     inkscape:zoom="11.313708"
     inkscape:cx="18.542515"
     inkscape:cy="7.5300291"
     inkscape:current-layer="svg97"
     showgrid="true"
     inkscape:grid-bbox="true"
     inkscape:document-units="px"
     inkscape:window-width="1346"
     inkscape:window-height="1016"
     inkscape:window-x="259"
     inkscape:window-y="446"
     inkscape:showpageshadow="false"
     stroke="#3465a4"
     inkscape:window-maximized="0">
    <inkscape:grid
       type="xygrid"
       id="grid4153" />
  </sodipodi:namedview>
  <metadata
     id="metadata4">
    <rdf:RDF>
      <cc:Work
         rdf:about="">
        <dc:format>image/svg+xml</dc:format>
        <dc:type
           rdf:resource="http://purl.org/dc/dcmitype/StillImage" />
        <dc:title></dc:title>
        <dc:date />
        <dc:creator>
          <cc:Agent>
            <dc:title>Jakub Steiner</dc:title>
          </cc:Agent>
        </dc:creator>
        <cc:license
           rdf:resource="http://creativecommons.org/publicdomain/zero/1.0/" />
        <dc:source>http://jimmac.musichall.cz</dc:source>
        <dc:subject>
          <rdf:Bag>
            <rdf:li>folder</rdf:li>
            <rdf:li>directory</rdf:li>
          </rdf:Bag>
        </dc:subject>
      </cc:Work>
      <cc:License
         rdf:about="http://creativecommons.org/publicdomain/zero/1.0/">
        <cc:permits
           rdf:resource="http://creativecommons.org/ns#Reproduction" />
        <cc:permits
           rdf:resource="http://creativecommons.org/ns#Distribution" />
        <cc:permits
           rdf:resource="http://creativecommons.org/ns#DerivativeWorks" />
      </cc:License>
    </rdf:RDF>
  </metadata>
  <g
     id="layer1"
     inkscape:label="Folder"
     inkscape:groupmode="layer"
     transform="translate(0,-24)" />
  <g
     id="g4385">
    <path
       sodipodi:nodetypes="ccccccssssccc"
       style="fill:#ffffff;fill-opacity:1;fill-rule:nonzero;stroke:url(#linearGradient3104-5);stroke-width:0.60085434;stroke-linecap:round;stroke-linejoin:round;stroke-miterlimit:4;stroke-dasharray:none;stroke-opacity:1"
       id="path216-5"
       d="m 0.88412762,23.195223 c 0.013093,0.250194 0.27627478,0.500388 0.52635808,0.500388 H 20.229307 c 0.250082,0 0.487072,-0.250194 0.473979,-0.500388 L 20.140744,6.832305 C 20.127644,6.582112 19.864475,6.331913 19.614392,6.331913 H 11.64229 c -0.291384,0 -0.741575,-0.189664 -0.841998,-0.665071 L 10.433016,3.928143 C 10.339616,3.486013 9.9030511,3.304387 9.6529678,3.304387 H 0.77498673 c -0.25008813,0 -0.48707765,0.250193 -0.47398438,0.500387 z"
       inkscape:connector-curvature="0" />
    <rect
       y="0"
       x="0.0038782416"
       height="23.996084"
       width="23.996145"
       id="rect3965-5"
       style="color:#000000;clip-rule:nonzero;display:inline;overflow:visible;visibility:visible;opacity:0;isolation:auto;mix-blend-mode:normal;color-interpolation:sRGB;color-interpolation-filters:linearRGB;solid-color:#000000;solid-opacity:1;fill:#bebebe;fill-opacity:1;fill-rule:nonzero;stroke:none;stroke-width:0.7393803;stroke-linecap:round;stroke-linejoin:miter;stroke-miterlimit:4;stroke-dasharray:none;stroke-dashoffset:0;stroke-opacity:1;color-rendering:auto;image-rendering:auto;shape-rendering:auto;text-rendering:auto;enable-background:accumulate" />
    <g
       transform="matrix(1.0044963,0,0,0.98746989,5.9910074,-1.9749399)"
       inkscape:label="Ebene 1"
       id="layer1-8">
      <path
         inkscape:connector-curvature="0"
         style="fill:#729fcf;fill-opacity:1;stroke:none"
         d="M 3.0766895,2.6088418 C 2.4735926,4.8943204 2.6596276,7.3160378 2.8738374,9.6532582 2.9025386,10.29777 2.9524608,10.957288 3.1792358,11.556144 3.1838561,12.186581 2.2511474,12.120755 2.2492553,11.514904 2.1200956,10.789878 2.3700516,10.07056 2.3472473,9.3424246 2.4175618,7.1826494 2.5043193,4.9719941 3.1854654,2.9301744 3.3034914,2.556095 3.4690112,1.7051038 3.9549155,2.1040086 4.2366422,2.4939457 4.2013408,3.053825 4.1613069,3.528186 4.0132645,4.9516417 3.456336,6.344289 3.6865156,7.7988968 3.8002817,8.8142039 3.810895,9.8416528 3.8731283,10.859523 3.94584,11.511742 3.1434708,11.31253 3.2306949,10.775181 3.3580165,10.353358 3.4637006,9.929 3.5403707,9.4898076 3.9679182,7.4709029 4.499681,5.4826358 4.9089586,3.4584854 4.8008517,3.0290771 5.2791366,2.4242833 5.5367435,2.9749981 5.8161465,3.5048975 5.5577076,4.1235168 5.4034361,4.6492865 5.1035634,5.5904922 4.7552684,6.5792056 4.9007574,7.6008414 4.9646852,8.7628022 4.9258387,9.9289183 4.9986045,11.090428 4.9583664,11.737192 3.9915537,11.331386 4.3061659,10.809234 4.441253,10.169304 4.6612035,9.5550246 4.7556122,8.9035823 5.2084065,6.8670127 5.8121269,4.8583622 6.7189031,3.0235376 7.2104833,3.3808305 7.2222227,4.1935275 6.9603697,4.7271682 6.5711457,5.9390844 5.8250766,7.0433622 5.8139444,8.3817608 5.846266,8.8911183 5.9521685,9.446903 5.7179363,9.9171525 5.1141778,9.9557797 5.3776844,9.0214107 5.6748781,8.7555623 5.9581921,7.9915622 6.1196105,7.1691711 6.4622354,6.4316695 6.6385395,6.0937155 6.863883,5.4172316 7.3002588,5.734605 7.7338885,6.042386 7.4759651,6.5780767 7.3384924,6.9831122 7.2174807,7.4073745 7.1925088,7.8804237 6.9913276,8.2668369 6.5183765,8.6550269 6.4060913,7.4684929 6.9654176,7.6050491 7.3262335,7.5036614 7.8280556,7.6159229 7.9741162,8.0541353 8.1559277,8.5495854 7.3230238,8.8034638 7.2467441,8.3255768 7.4204645,7.906683 7.583749,8.5801976 7.3248317,8.6966584 7.0811157,8.8791984 6.695287,8.8909746 6.4665461,8.6465038 6.2242835,8.415523 6.1938435,7.9846568 6.384109,7.7015283 6.5934511,7.2381644 6.5065218,6.6751683 6.7221246,6.2183083 6.9598129,5.8207286 7.4944217,6.2803645 7.1087204,6.6051183 6.4425135,7.6358006 6.5775665,9.0653045 5.869831,10.070975 5.5874259,10.666659 4.8467085,10.052954 5.0627758,9.5129546 5.1917153,9.0516592 5.2176071,8.5502408 5.3149155,8.0750468 5.528602,6.7777933 5.8350477,5.4920375 6.3407036,4.3012711 6.3725757,3.8609004 6.9605707,3.3522376 7.0588447,4.0269311 7.143657,4.5169432 6.6738357,4.7432924 6.5508541,5.1618576 6.1233841,5.9403916 5.6702745,6.7535534 5.5813506,7.6887622 5.3331208,8.4955615 5.1207465,9.3333431 5.142361,10.196813 5.1124592,10.687787 5.0618958,11.188664 4.8825104,11.641623 4.518895,11.967686 4.0401553,11.413745 4.1287207,10.967899 4.244018,10.195738 4.2089188,9.4092922 4.2529879,8.6295014 4.3153488,6.7779983 4.581526,4.9423512 4.9411463,3.1381226 4.7689282,2.4992751 5.7166994,2.4995975 5.6720483,3.1093405 5.8181757,3.7004105 5.5209712,4.2674119 5.3758099,4.8180903 5.0875369,5.6542096 4.7097538,6.4698605 4.6167311,7.3745683 4.125528,8.6203568 4.234182,10.02862 3.9251715,11.325573 3.7203502,11.859958 3.0094355,11.463893 3.0798557,10.956411 3.0599296,9.6197611 3.0233416,8.2813969 3.1094637,6.9463161 3.1898292,5.4537547 3.3437662,3.9680544 3.5078465,2.4849834 3.4383743,1.9176692 4.1159548,2.1796283 4.1630502,2.5679583 4.180765,2.9281492 4.0300462,3.2821207 3.8700619,3.5897385 3.3883952,4.4264611 3.0124999,5.4121757 3.1083196,6.4354112 3.04482,7.2118062 2.8454076,7.990963 2.9820784,8.7726168 3.0535637,9.7043917 3.1969671,10.647611 3.0568771,11.580514 2.7018366,12.028811 2.2573634,11.356246 2.2380118,10.936394 1.9280763,9.4892261 1.9847143,7.9881268 2.0561932,6.5138155 2.0900919,5.3474357 2.0934382,4.1748996 2.1891189,3.0146808 2.2615396,2.5058992 2.7250553,2.3220379 3.0766895,2.6088418 Z"
         id="path10768" />
      <g
         id="g11558"
         transform="matrix(0.4461286,0,0,0.6030185,-4.7778401,-5.4360828)">
        <rect
           transform="matrix(0.8997453,0.4364154,-0.3756038,0.9267803,0,0)"
           ry="1.0898225"
           y="6.8727927"
           x="40.698799"
           height="2.1796451"
           width="13.099022"
           id="rect7258"
           style="fill:#c17d11;fill-opacity:1;stroke:#8f5902;stroke-width:1.93012774;stroke-linecap:round;stroke-linejoin:miter;stroke-miterlimit:4;stroke-dasharray:none;stroke-dashoffset:1.96000016;stroke-opacity:1" />
        <path
           inkscape:connector-curvature="0"
           id="path10786"
           d="m 32.5,24.5 11.999997,6"
           style="fill:none;stroke:url(#linearGradient12088);stroke-width:1.92798901;stroke-linecap:round;stroke-linejoin:miter;stroke-miterlimit:4;stroke-dasharray:none;stroke-dashoffset:1.96000016;stroke-opacity:1" />
        <path
           inkscape:connector-curvature="0"
           sodipodi:nodetypes="cssss"
           id="path6864"
           d="m 34.152603,25.518479 c -1.009996,1.33264 -2.634266,1.282064 -4.284701,0.0075 C 28.238543,24.267739 27.5,21.5 27.5,21.5 c 1.713247,1.170566 3.49089,0.122618 5.01895,0.538741 2.014046,0.548469 2.357239,2.525002 1.633653,3.479738 z"
           style="color:#000000;display:inline;overflow:visible;visibility:visible;fill:url(#radialGradient12090);fill-opacity:1;fill-rule:evenodd;stroke:#2e3436;stroke-width:1.92798901px;stroke-linecap:butt;stroke-linejoin:miter;stroke-miterlimit:4;stroke-dashoffset:0;stroke-opacity:1;marker:none;enable-background:accumulate" />
        <path
           inkscape:connector-curvature="0"
           style="color:#000000;display:inline;overflow:visible;visibility:visible;fill:#3465a4;fill-opacity:1;fill-rule:evenodd;stroke:#729fcf;stroke-width:1.92798901px;stroke-linecap:butt;stroke-linejoin:miter;stroke-miterlimit:4;stroke-dashoffset:0;stroke-opacity:1;marker:none;enable-background:accumulate"
           d="M 29.867902,25.526003 C 28.238543,24.267739 27.5,21.5 27.5,21.5 c 1.713247,1.170566 2.97194,0.08388 4.5,0.500001 -1.51895,0.96126 -2,2 -2.132098,3.526002 z"
           id="path8812"
           sodipodi:nodetypes="cscc" />
        <path
           inkscape:connector-curvature="0"
           sodipodi:nodetypes="csc"
           id="path8030"
           d="m 29.086934,22.970488 c 0,0 2.241276,-0.331457 3.409265,0.126269 1.167989,0.457725 0.757615,2.020304 0.757615,2.020304"
           style="fill:none;stroke:url(#linearGradient12092);stroke-width:1.92798901;stroke-linecap:round;stroke-linejoin:miter;stroke-miterlimit:4;stroke-dasharray:none;stroke-dashoffset:1.96000016;stroke-opacity:1" />
      </g>
    </g>
    <g
       transform="matrix(0.99949608,0,0,1.0005166,-0.46184755,-24.322559)"
       id="g4420">
      <path
         inkscape:connector-curvature="0"
         style="color:#000000;display:block;visibility:visible;fill:url(#linearGradient9772);fill-opacity:1;fill-rule:nonzero;stroke:#3465a4;stroke-width:0.59225792;stroke-linecap:butt;stroke-linejoin:round;stroke-miterlimit:4;stroke-dasharray:none;stroke-dashoffset:0;stroke-opacity:1;marker:none;marker-start:none;marker-mid:none;marker-end:none"
         d="m 22,48 c 0.670129,-0.02638 1.150031,-0.656403 1.199218,-1.389688 0.463853,-6.914704 0.972105,-12.712496 0.972105,-12.712496 0.04227,-0.14818 -0.09837,-0.296359 -0.281282,-0.296359 H 3.7543369 c 0,0 -1.0839751,13.092665 -1.0839751,13.092665 -0.06711,0.588005 -0.2730018,1.080563 -0.9079425,1.307485 L 22,48.000007 Z"
         id="path233-5"
         sodipodi:nodetypes="cscccscc"
         inkscape:export-filename="/home/jimmac/ximian_art/icons/nautilus/suse93/gnome-fs-directory.png"
         inkscape:export-xdpi="74.800003"
         inkscape:export-ydpi="74.800003" />
      <path
         inkscape:connector-curvature="0"
         sodipodi:nodetypes="ccsscsc"
         id="path304-3"
         d="m 4.2632663,34.265001 19.2104097,0.03984 -0.922143,12.293645 c -0.0494,0.658573 -0.264026,0.877811 -1.097081,0.877811 -1.096404,0 -16.8007634,-0.01992 -18.3923646,-0.01992 C 3.1989392,47.2592 3.2576156,46.848749 3.258401,46.838921 Z"
         style="opacity:0.46590911;fill:none;fill-opacity:1;fill-rule:evenodd;stroke:url(#linearGradient322-1);stroke-width:0.60005915px;stroke-linecap:round;stroke-linejoin:miter;stroke-opacity:1" />
    </g>
  </g>
</svg>
