<svg height="24" viewBox="0 0 24 24" width="24" xmlns="http://www.w3.org/2000/svg"><g fill="#729fcf" transform="matrix(-1.5000103 0 0 1.5048435 24.000041 -.0386)"><path d="m.47415668.50000006 7.09276472 1.37179184-.041078 12.3178351-7.05168672 1.310373z" style="fill:#729fcf;stroke:#204a87;stroke-width:.948313;stroke-linecap:square;stroke-linejoin:round;stroke-miterlimit:0"/><path d="m.93840343 1.0885428 6.14480767 1.246618-.020539 11.3910972-6.10390612 1.096006z" style="opacity:.5;fill:#729fcf;stroke:#fff;stroke-width:.499218;stroke-linecap:square;stroke-linejoin:round;stroke-miterlimit:0"/><path d="m4.2144358 7.4761665h2.2052365v1.7119918h-2.2052365v1.2228507h-.7350783l-2.1309925-2.2011317 2.1309925-1.956562h.7350783z" fill="#fff" fill-rule="evenodd" stroke="#3465a4" stroke-width=".493952"/></g><g transform="matrix(1.5001581 0 0 1.499827 0 .2525)"><path d="m.480041 1.64517h7.039075v12.374789h-7.039075z" style="fill:#3465a4;stroke:#204a87;stroke-width:.960082;stroke-linecap:square;stroke-linejoin:round;stroke-miterlimit:0"/><path d="m4.2188099 7.3068586h2.2046966v1.718166h-2.2046966v1.2272614h-.7348984l-2.1304709-2.2090706 2.1304709-1.9636184h.7348984z" fill="#fff" fill-rule="evenodd" stroke="#3465a4" stroke-width=".494516"/><path d="m.998945 2.498945h6.00211v11.00211h-6.00211z" style="opacity:.5;fill:none;stroke:#fff;stroke-width:.49789;stroke-linecap:square;stroke-linejoin:round;stroke-miterlimit:0"/></g></svg>