<svg height="24" viewBox="0 0 24 24" width="24" xmlns="http://www.w3.org/2000/svg" xmlns:xlink="http://www.w3.org/1999/xlink"><linearGradient id="a" gradientUnits="userSpaceOnUse" x1="10.563464" x2="3.282309" y1="1044.2316" y2="1044.199"><stop offset="0" stop-color="#555753"/><stop offset="1" stop-color="#fff"/></linearGradient><g transform="translate(0 -1028.3622)"><path d="m8 1037.3622c3.865988 0 7 3.134 7 7s-3.134012 7-7 7c0-14 0 0 0-14zm0 0c-3.865988 0-7 3.134-7 7s3.134012 7 7 7c0-14 0 0 0-14z" fill="url(#a)" transform="matrix(1.7142857 0 0 1.714277 -1.714286 -749.9638)"/><g transform="matrix(1.2857143 0 0 1.2857078 1.714286 -302.38234)"><path d="m8 1037.3622c-3.865988 0-7 3.134-7 7s3.134012 7 7 7c0-14 0 0 0-14z" fill="#2e3436"/><path d="m8 1037.3622c3.865988 0 7 3.134 7 7s-3.134012 7-7 7c0-14 0 0 0-14z" fill="#eeeeec"/></g><path d="m20.683475 1039.6122h3.316524v1.499992h-3.316524z" fill="#eeeeec"/><path d="m-1031.5996 12h3.237376v1.5h-3.237376z" fill="#eeeeec" transform="rotate(-90)"/><path d="m-1052.3622 12h3.197811v1.5h-3.197811z" fill="#fff" transform="rotate(-90)"/><g fill="#eeeeec"><path d="m-737.28827 738.32361h3.083281v1.542582h-3.083281z" transform="matrix(.7019082 -.71226742 .72508916 .688655 0 0)"/><path d="m687.33954 775.44336h3.083282v1.542581h-3.083282z" transform="matrix(.75377844 .65712865 -.64312538 .76576089 0 0)"/></g></g></svg>