<svg height="24" viewBox="0 0 24 24" width="24" xmlns="http://www.w3.org/2000/svg"><g transform="translate(0 -1028.3622)"><path d="m0 1028.3622h24v24h-24z" opacity="0"/><rect fill="#ecedea" height="22.041695" rx=".688266" ry=".690962" stroke="#888a85" stroke-width=".958305" width="22.041695" x=".4788" y="1029.8417"/><g fill="#2e3436"><circle cx="15.5" cy="1032.862234" r=".5"/><circle cx="15.5" cy="1046.862217" r=".5"/><circle cx="15.5" cy="1048.862217" r=".5"/><g transform="matrix(0 1 -1 0 1051.362212 1029.362188)"><circle cx="7.5" cy="1031.862217" r=".5"/><circle cx="7.5" cy="1045.8622" r=".5"/><circle cx="7.5" cy="1047.8622" r=".5"/></g><g transform="matrix(0 1 -1 0 1051.362197 1037.362204)"><circle cx="7.5" cy="1031.862217" r=".5"/><circle cx="7.5" cy="1032.8622" r=".5" transform="matrix(0 -1 1 0 -1037.362204 1051.362197)"/><circle cx="7.5" cy="1045.8622" r=".5" transform="matrix(0 -1 1 0 -1036.362204 1051.362197)"/><circle cx="7.5" cy="1047.8622" r=".5" transform="matrix(0 -1 1 0 -1036.362204 1051.362197)"/><circle cx="7.5" cy="1045.8622" r=".5"/><circle cx="7.5" cy="1047.8622" r=".5"/></g></g><rect fill="none" height="7.952561" rx=".429057" ry=".431739" stroke="#204a87" stroke-width="1.047439" width="7.952561" x="7.523719" y="1036.8859"/><g fill="#204a87" transform="matrix(.58489254 0 0 .80518899 2.876161 1026.6999)"><path d="m25 13.84v8.16" stroke="#204a87" stroke-width="1.093133"/><path d="m25 12-1.707107 2.24h3.414214z"/><path d="m25 23.1775-1.707107-2.24h3.414214z"/></g><g fill="#204a87" transform="matrix(0 .58495112 -.80518902 0 25.662269 1020.2398)"><path d="m25 13.84v8.16" stroke="#204a87" stroke-width="1.093133"/><path d="m25 12-1.707107 2.24h3.414214z"/><path d="m25 23.1775-1.707107-2.24h3.414214z"/></g></g></svg>