<svg height="24" viewBox="0 0 24 24" width="24" xmlns="http://www.w3.org/2000/svg"><g transform="translate(0 -1028.3622)"><path d="m.049295 1028.3621h23.949812v24h-23.949812z" opacity="0"/><path d="m.3456033 1028.69v1.6343 13.0761 1.593.042h1.6333262v-.042c4.8692556-.049 9.8930555.044 14.6999355.042v-16.345h-.092445-14.6074251c-.5443142.0002-1.08967791-.0001-1.6333916-.0004zm1.6333262 1.6343h13.0666095v13.0761h-13.0666095z" fill="#3465a4" stroke="#204a87" stroke-width=".653567"/><g fill="#729fcf" stroke-linejoin="bevel"><path d="m16.734805 1045.0119 6.890239 6.9702-.07993-2.0159-6.721981-6.6569z" stroke="#204a87" stroke-width=".637698"/><path d="m.36286661 1030.942 6.95057349 7.1666-.0000002-2.292-6.9064142-7.1537z" stroke="#3565a4" stroke-width=".637739"/><path d="m16.742213 1031.1867 6.764629 6.9081c.04537-.5167.181689-1.5243.163264-2.3745l-6.952962-7.0406z" stroke="#204a87" stroke-linecap="round" stroke-width=".638331"/><path d="m.31870732 1045.4932 6.95057348 6.6132.094203-2.1429-7.01441929-6.4111z" stroke="#3565a4" stroke-width=".637698"/></g><path d="m7.3379987 1035.6935v14.6947 1.5912.041h1.6143113l-1.63717.017c11.28731-.041 11.852287-.017 16.354859-.017-.02049-5.4227.01921-10.8454.000016-16.268-5.30658-.062-11.155502.023-16.3319518-.06zm1.6143113 1.6326h12.914488l-.09444 12.9433-12.820034.1189z" fill="#3465a4" stroke="#204a87" stroke-width=".649401"/></g></svg>