<svg height="24" viewBox="0 0 24 24" width="24" xmlns="http://www.w3.org/2000/svg" xmlns:xlink="http://www.w3.org/1999/xlink"><radialGradient id="a" cx="18.557627" cy="22.300018" gradientTransform="matrix(.72883784 0 0 .55321006 -5.126489 -9.420922)" gradientUnits="userSpaceOnUse" r="19.2292"><stop offset="0" stop-color="#857c63"/><stop offset="1" stop-color="#221f19"/></radialGradient><linearGradient id="b" gradientTransform="matrix(.41113402 0 0 .42663576 .014269 -6.450714)" gradientUnits="userSpaceOnUse" x1="32.35014" x2="21.2132" y1="28.083361" y2="30.29306"><stop offset="0"/><stop offset="1" stop-opacity="0"/></linearGradient><linearGradient id="c" gradientTransform="matrix(.41113402 0 0 .42663576 1.591605 -6.598318)" gradientUnits="userSpaceOnUse" x1="14.96875" x2="39.524544" xlink:href="#d" y1="19.11068" y2="46.98568"/><linearGradient id="d"><stop offset="0" stop-color="#fff" stop-opacity=".796078"/><stop offset="1" stop-color="#fff" stop-opacity=".215686"/></linearGradient><radialGradient id="e" cx="6.02422" cy="25.27103" gradientTransform="matrix(.38158508 .03926834 -.0453012 .45059999 -.252969 -6.87673)" gradientUnits="userSpaceOnUse" r="4.831029"><stop offset="0" stop-color="#5b676b"/><stop offset="1" stop-color="#141718"/></radialGradient><linearGradient id="f" gradientTransform="matrix(.32906715 -.25576003 .24646704 .34147457 -4.577691 -3.39658)" gradientUnits="userSpaceOnUse" x1="6.305153" x2="5.984629" xlink:href="#d" y1="23.362427" y2="31.57"/><radialGradient id="g" cx="69.473244" cy="19.597878" gradientTransform="matrix(.81311292 0 0 .84377121 -45.835911 -15.250942)" gradientUnits="userSpaceOnUse" r="3.515314"><stop offset="0" stop-color="#fff"/><stop offset="1" stop-color="#b9b9b0"/></radialGradient><linearGradient id="h" gradientTransform="matrix(-.04838513 -.22534773 .21715976 -.05020948 20.595782 14.601692)" gradientUnits="userSpaceOnUse" x1="37.017639" x2="27.753893" y1="19.239889" y2="11.182488"><stop offset="0" stop-color="#6e3d09"/><stop offset=".242424" stop-color="#ea8113"/><stop offset=".621212" stop-color="#5c3307"/><stop offset="1" stop-color="#e07c12"/></linearGradient><linearGradient id="i" gradientTransform="matrix(-.04838513 -.22534773 .21715976 -.05020948 18.26871 13.400148)" gradientUnits="userSpaceOnUse" x1="19.394735" x2="23.109329" y1="30.001329" y2="33.438831"><stop offset="0" stop-color="#bdbdbd"/><stop offset=".333333" stop-color="#e2e2e2"/><stop offset=".666667" stop-color="#a3a3a3"/><stop offset="1" stop-color="#ddd"/></linearGradient><radialGradient id="j" cx="15.415101" cy="35.35651" gradientTransform="matrix(-.03860168 -.59988189 .56336215 -.03903711 9.108706 18.909948)" gradientUnits="userSpaceOnUse" r="7.579156"><stop offset="0" stop-color="#696969"/><stop offset="1"/></radialGradient><linearGradient id="k" gradientTransform="matrix(.0492703 -.19001461 .18311046 .05112803 18.893729 8.038694)" gradientUnits="userSpaceOnUse" x1="13.236155" x2="7.752109" xlink:href="#d" y1="37.752247" y2="42.28215"/><radialGradient id="l" cx="39.75" cy="7.75" gradientTransform="matrix(.64285666 0 0 .6428567 -6.053563 -8.482127)" gradientUnits="userSpaceOnUse" r="7"><stop offset="0" stop-color="#fff"/><stop offset=".5" stop-color="#e6ff8f" stop-opacity=".932039"/><stop offset="1" stop-color="#ff3a20" stop-opacity=".019417"/></radialGradient><g transform="translate(0 8)"><rect fill="#eeeeec" fill-rule="evenodd" height="22.999952" rx=".94292" ry=".978016" stroke="#888a85" stroke-width="1.000037" width="22.999964" x=".500462" y="-7.500413"/><rect fill="#709bd2" height="15.434235" rx=".21776" ry=".281353" stroke="#204a87" stroke-linecap="round" stroke-linejoin="round" stroke-width=".565766" width="17.434221" x="3.282883" y="-3.717117"/><g stroke-miterlimit="10"><path d="m5.8568613-1.2790725s1.1818085 2.5289407 3.9465751 2.4575956c5.7939126-.1508384 6.8099036-3.2872072 6.9552616-3.739723.145364-.4525156.367774-.3839712.419195.034245 1.889652 17.7989449-13.1139132 10.1621118-13.6467572 7.130585 2.9798357-.905031 2.2530465-2.6396744 2.2530465-2.6396744z" fill="url(#a)" fill-rule="evenodd" stroke="#2e3436" stroke-width=".539059"/><path d="m8.0619462 6.2289341c2.7705908.5750353 4.1815168.0418486 5.0072728-.6198063-.218036-.2922498-.590516-.6127817-.590516-.6127817s.539152.1057559.890317.4902255c.240356.2631515.262412.6882577.209845 1.2704717-.05257-.2473975-.140368-.4014577-.208554-.5763567-.742618.9332942-2.75632.9833147-5.3083648.048248z" fill="url(#b)" fill-rule="evenodd" stroke-width=".418813"/><path d="m16.788308-1.5620157c-.230124.3986813-.576172.87758474-1.107333 1.33573645-1.080138.93167317-2.89374 1.78496765-5.8666893 1.86236485-1.7373854.0448335-2.857411-.8338834-3.545228-1.60988309l-.043362 1.91152799c.0554265.1784689.1615999.5957853-.0361349 1.162416-.2124078.6086783-.889167 1.2229685-2.0436252 1.6957104.1023824.2230203.1980504.4577413.5099025.7741104.4226964.4288194 1.0188831.8882173 1.7176086 1.3040723 1.3974514.8317103 3.208781 1.4883678 4.8966703 1.5182238 1.68789.02985 3.222115-.5227856 4.283181-2.129013.979915-1.4833784 1.519174-4.0022777 1.23501-7.8252661z" fill="none" opacity=".185393" stroke="url(#c)" stroke-width=".539059"/><ellipse cx=".932042" cy="5.873804" fill="url(#e)" fill-rule="evenodd" rx="1.803897" ry="2.569994" stroke="#000" stroke-width=".539226" transform="matrix(.80052518 -.59929912 .57082423 .82107229 0 0)"/><path d="m2.1736108 1.9512452c-.2530637.1755714-.4160308.5108186-.4250704.9706438.1340237.8503169.8493538 1.8296 1.5977295 2.1719185a.44560377.42941285 89.999986 0 1 .09857.062895c.5457528.4639067 1.1771512.6104253 1.574698.4761925.3879065-.1309783.6304761-.5035678.6406644-1.0819907-.1352764-.8498624-.8499154-1.8272313-1.5975708-2.1689187a.44560377.42941285 89.999986 0 1 -.0985689-.0628953c-.3272028-.2780575-.6919424-.4536983-1.0109757-.5083103-.3190332-.054612-.5838241.0048135-.7794761.1404652z" fill="none" opacity=".280899" stroke="url(#f)" stroke-width=".53906"/><ellipse cx="3.26322" cy="3.321502" fill="#fff" fill-rule="evenodd" rx=".726789" ry=".905031" stroke-width=".418813"/><ellipse cx="7.187877" cy="2.718148" fill="#eeeeec" fill-rule="evenodd" rx="1.308221" ry="1.357547" stroke="#888a85" stroke-width=".539059"/><ellipse cx="10.653685" cy="2.718151" fill="url(#g)" fill-rule="evenodd" rx="1.962331" ry="2.03632" stroke="#888a85" stroke-width=".53906"/><ellipse cx="11.112546" cy="3.019826" fill="#2e3436" fill-rule="evenodd" rx=".944826" ry=".98045" stroke="#000" stroke-width=".539059"/><ellipse cx="10.749148" cy="2.56731" fill="#fff" fill-rule="evenodd" rx=".65411" ry=".678773" stroke-width=".376932"/><ellipse cx="7.61042" cy="2.9067" fill="#2e3436" fill-rule="evenodd" rx=".581432" ry=".603354" stroke="#000" stroke-width=".53906"/><ellipse cx="7.386788" cy="2.628225" fill="#fff" fill-rule="evenodd" rx=".402529" ry=".417707" stroke-width=".231958"/></g><path d="m16.295186 8.6386772.628631-1.1070652c-1.131366-.7607247-2.510924-1.1616621-3.546001-1.5886665 0 0-.572542.4082478-.572542.4082478.991393.6651256 2.210918 1.5673149 3.489912 2.2874839z" fill="url(#h)" stroke="#673907" stroke-linecap="round" stroke-width=".53906"/><path d="m18.909605 9.8914628.311258-.6032981-2.010747-1.5439308-.166585-.02655-.05682-.2457283c-.318144.1770433-.809585.8829548-.718863 1.305482l.232752-.073215.114945.1318949z" fill="url(#i)" stroke="#888a85" stroke-linecap="round" stroke-width=".53906"/><path d="m21.136716 13.143793c-.162127-2.519506.004-4.4516303-1.785779-4.6912267-1.442289-.1930798-1.993678 1.8853757-.658084 2.8038537 1.2866.884783 2.443863 1.887373 2.443863 1.887373z" fill="url(#j)" stroke-linecap="round" stroke-width=".083763"/><ellipse cx="-13.448368" cy="16.762022" fill="#fff" opacity=".527779" rx=".56682" ry=".548142" stroke-linecap="round" stroke-width=".445923" transform="matrix(-.20992971 -.97771648 .97429679 -.22526821 0 0)"/><path d="m20.726109 11.226124s-.196999-1.190439-.796843-1.3885082c-.212223-.07008-.05571-.3641862.165333-.2490808.477457.2486263.63151 1.637589.63151 1.637589z" fill="url(#k)" opacity=".427778" stroke-linecap="round" stroke-width=".418813"/><path d="m16.222691 7.554409s-.926656-.4713702-2.216706-.9615961" style="opacity:.175258;fill:none;stroke:#fff;stroke-width:.53906;stroke-linecap:round;stroke-linejoin:round"/><circle cx="19.499987" cy="-3.499987" fill="url(#l)" r="4.499997" stroke-linecap="round" stroke-linejoin="round" stroke-miterlimit="10" stroke-width=".321428"/></g></svg>