<svg height="24" viewBox="0 0 24 24" width="24" xmlns="http://www.w3.org/2000/svg" xmlns:xlink="http://www.w3.org/1999/xlink"><radialGradient id="a" cx="2.96875" cy="14.025855" gradientTransform="matrix(.99999742 -.00227153 .00132959 .58532608 -.018641 5.8229)" gradientUnits="userSpaceOnUse" r="1.823314"><stop offset="0" stop-color="#a3bedd"/><stop offset="1" stop-color="#487cbc"/></radialGradient><path d="m2.625009 4.6247h13.750194v13.750195h-13.750194z" style="fill:#3465a4;fill-rule:evenodd;stroke:#204a87;stroke-width:1.250018;stroke-linecap:square;stroke-linejoin:round;stroke-miterlimit:0"/><path d="m4.125076 5.6251h11.249848v11.249848h-11.249848z" style="fill:none;stroke:#fff;stroke-width:1.250152;stroke-linecap:square;stroke-linejoin:round;stroke-miterlimit:0;stroke-opacity:.2"/><g transform="translate(0 -1028.3622)"><path d="m0 1028.3622h24v24h-24z" opacity="0"/><path d="m1.795305.892183h8.921194v11.672466h-8.921194z" style="opacity:.5;fill:#4877b1;fill-rule:evenodd;stroke:#204a87;stroke-width:.852832;stroke-linecap:square;stroke-linejoin:round;stroke-miterlimit:0" transform="matrix(1.5850957 0 .55067229569 1.43688835093 -.621513 1031.6955)"/><path d="m2.948885 1.301681h7.268956v10.201797h-7.268956z" style="opacity:.5;fill:none;stroke:#fff;stroke-width:.865479;stroke-linecap:square;stroke-linejoin:round;stroke-miterlimit:0;stroke-opacity:.547368" transform="matrix(1.5850957 0 .51336740126 1.44973903727 -.621513 1031.6955)"/><circle cx="2.96875" cy="13" fill="url(#a)" r="1.5625" stroke="#154384" stroke-width=".775171" transform="matrix(1.79479321609 0 0 1.79469086616 -1.82829199874 1008.53141809502)"/><ellipse cx="4.651437" cy="2.300447" fill="#adc5e1" rx="1.756718" ry="1.204291" transform="matrix(.93621483702 0 0 .93616144841 -.85909524923 1028.50713746503)"/><circle cx="2.96875" cy="13" fill="url(#a)" r="1.5625" stroke="#154384" stroke-width=".775171" transform="matrix(1.79479321609 0 0 1.79469086616 11.17170800126 1008.53141809502)"/><ellipse cx="4.651437" cy="2.300447" fill="#adc5e1" rx="1.756718" ry="1.204291" transform="matrix(.93621483702 0 0 .93616144841 12.14090475077 1028.50713746503)"/><circle cx="2.96875" cy="13" fill="url(#a)" r="1.5625" stroke="#154384" stroke-width=".775171" transform="matrix(1.79479321609 0 0 1.79469086616 10.17170800126 1025.53141809502)"/><ellipse cx="4.651437" cy="2.300447" fill="#adc5e1" rx="1.756718" ry="1.204291" transform="matrix(.93621483702 0 0 .93616144841 11.14090475077 1045.50713746503)"/></g></svg>