<?xml version="1.0" encoding="UTF-8" standalone="no"?>
<svg
   xmlns:dc="http://purl.org/dc/elements/1.1/"
   xmlns:cc="http://creativecommons.org/ns#"
   xmlns:rdf="http://www.w3.org/1999/02/22-rdf-syntax-ns#"
   xmlns:svg="http://www.w3.org/2000/svg"
   xmlns="http://www.w3.org/2000/svg"
   xmlns:xlink="http://www.w3.org/1999/xlink"
   xmlns:sodipodi="http://sodipodi.sourceforge.net/DTD/sodipodi-0.dtd"
   xmlns:inkscape="http://www.inkscape.org/namespaces/inkscape"
   width="24"
   height="24"
   viewBox="0 0 24 24"
   id="svg30571"
   version="1.1"
   inkscape:version="0.91+devel r"
   sodipodi:docname="gimp-display-filter-24.svg">
  <defs
     id="defs30573">
    <linearGradient
       inkscape:collect="always"
       xlink:href="#linearGradient3095"
       id="linearGradient8668"
       x1="304.763"
       y1="160.46092"
       x2="309.05939"
       y2="160.46092"
       gradientUnits="userSpaceOnUse"
       gradientTransform="matrix(0.9014429,0,0,0.96677306,-0.21487333,6.1653533)" />
    <linearGradient
       id="linearGradient3095">
      <stop
         id="stop3097"
         offset="0"
         style="stop-color:#ffffff;stop-opacity:1;" />
      <stop
         style="stop-color:#fffaa6;stop-opacity:0;"
         offset="1"
         id="stop3099" />
    </linearGradient>
    <linearGradient
       inkscape:collect="always"
       xlink:href="#linearGradient3095"
       id="linearGradient8668-4"
       x1="304.763"
       y1="160.46092"
       x2="309.05939"
       y2="160.46092"
       gradientUnits="userSpaceOnUse"
       gradientTransform="matrix(0.9014429,0,0,0.96677306,8.3148039,6.1012263)" />
  </defs>
  <sodipodi:namedview
     id="base"
     pagecolor="#ffffff"
     bordercolor="#666666"
     borderopacity="1"
     inkscape:pageopacity="0"
     inkscape:pageshadow="2"
     inkscape:zoom="5.6568543"
     inkscape:cx="10.421404"
     inkscape:cy="3.2146485"
     inkscape:document-units="px"
     inkscape:current-layer="layer1"
     showgrid="true"
     units="px"
     inkscape:snap-page="true"
     inkscape:snap-bbox="true"
     inkscape:bbox-paths="true"
     inkscape:bbox-nodes="true"
     inkscape:snap-bbox-edge-midpoints="true"
     inkscape:snap-bbox-midpoints="true"
     inkscape:object-paths="true"
     inkscape:snap-intersection-paths="true"
     inkscape:object-nodes="true"
     inkscape:snap-smooth-nodes="true"
     inkscape:snap-midpoints="true"
     inkscape:snap-object-midpoints="true"
     inkscape:snap-center="true"
     inkscape:snap-text-baseline="true"
     showborder="false"
     inkscape:window-width="1920"
     inkscape:window-height="1016"
     inkscape:window-x="0"
     inkscape:window-y="27"
     inkscape:window-maximized="1"
     inkscape:snap-global="false"
     showguides="true">
    <inkscape:grid
       type="xygrid"
       id="grid4269" />
  </sodipodi:namedview>
  <metadata
     id="metadata30576">
    <rdf:RDF>
      <cc:Work
         rdf:about="">
        <dc:format>
          image/svg+xml
        </dc:format>
        <dc:type
           rdf:resource="http://purl.org/dc/dcmitype/StillImage" />
        <dc:creator>
          <cc:Agent>
            <dc:title>Klaus Staedtler       </dc:title>
          </cc:Agent>
        </dc:creator>
        <dc:title></dc:title>
      </cc:Work>
    </rdf:RDF>
  </metadata>
  <g
     inkscape:label="Layer 1"
     inkscape:groupmode="layer"
     id="layer1"
     transform="translate(0,-1028.3622)">
    <g
       id="g4309">
      <rect
         y="1028.3619"
         x="6.4937226e-06"
         height="24.000269"
         width="23.886906"
         id="rect8700"
         style="color:#000000;clip-rule:nonzero;display:inline;overflow:visible;visibility:visible;opacity:0;isolation:auto;mix-blend-mode:normal;color-interpolation:sRGB;color-interpolation-filters:linearRGB;solid-color:#000000;solid-opacity:1;fill:#ffffff;fill-opacity:1;fill-rule:nonzero;stroke:none;stroke-width:0.74675286;stroke-linecap:round;stroke-linejoin:round;stroke-miterlimit:4;stroke-dasharray:none;stroke-dashoffset:0;stroke-opacity:1;color-rendering:auto;image-rendering:auto;shape-rendering:auto;text-rendering:auto;enable-background:accumulate" />
      <g
         style="opacity:1"
         transform="matrix(1.5050219,0,0,1.554965,-410.37304,794.67759)"
         id="g8694">
        <g
           transform="matrix(0.96596111,0,0,1.0006489,136.71349,-448.56934)"
           id="g8718"
           inkscape:label="gimp-display-filter"
           inkscape:export-xdpi="135"
           inkscape:export-ydpi="135"
           style="fill:#729fcf;stroke:#000000;stroke-width:0.5;stroke-miterlimit:4;stroke-dasharray:none;stroke-opacity:1">
          <path
             style="fill:#729fcf;stroke:#000000;stroke-width:0.49157602;stroke-miterlimit:4;stroke-dasharray:none;stroke-opacity:1"
             d="m 653.01562,307.90039 c -0.86442,-6.9e-4 -1.46249,0.30706 -1.87109,0.61328 -0.4086,0.30622 -0.63281,0.64844 -0.63281,0.64844 -0.0105,0.0109 -0.0216,0.0233 -0.0312,0.0352 l -3.19927,6.37833 c -0.24555,0.38136 -0.47194,1.42462 -0.52219,1.81055 0,1.93425 1.4929,3.52205 3.3601,3.52205 1.70518,0 3.11769,-1.30185 3.34961,-3.00195 0.0104,3.4e-4 0.0208,0 0.0312,0 h 1.93164 c 0.0105,0 0.0189,3.4e-4 0.0293,0 0.23192,1.7001 1.64638,3.00195 3.35156,3.00195 1.8672,0 3.38086,-1.5677 3.38086,-3.50195 -0.0142,-0.36215 -0.48942,-1.67064 -0.62362,-1.98164 l -3.1225,-6.22734 c -0.01,-0.0119 -0.0208,-0.0242 -0.0312,-0.0352 0,0 -0.22264,-0.34222 -0.62696,-0.64844 -0.40433,-0.30622 -1.02153,-0.61328 -1.85156,-0.61328 -0.27235,-0.0435 -0.54883,0.23087 -0.54883,0.54492 0,0.31406 0.27648,0.59031 0.54883,0.54688 0,0 1.13535,-0.46765 1.70312,0.7832 l 2.20313,4.3125 c -0.32696,-0.10909 -0.66926,-0.18359 -1.03125,-0.18359 -1.3761,0 -2.55241,0.67945 -3.08008,1.90172 -0.0466,0.0354 -0.0546,0.45591 -0.16473,0.45565 l -2.02616,-0.005 c -0.11018,-2.7e-4 -0.2612,-0.53114 -0.2612,-0.53114 -0.52767,-1.22227 -1.78509,-1.82134 -3.16119,-1.82134 -0.37063,0 -0.72099,0.0772 -1.05469,0.1914 l 2.23047,-4.32031 c 0.57378,-1.25085 1.7207,-0.7832 1.7207,-0.7832 0.27525,0.0434 0.55665,-0.23282 0.55665,-0.54688 0,-0.31405 -0.20873,-0.53814 -0.49436,-0.54492 z m -2.83593,7.41016 c 1.13609,0 2.05273,0.93617 2.05273,2.0957 0,1.15953 -0.91664,2.0957 -2.05273,2.0957 -1.1361,0 -2.05274,-0.93617 -2.05274,-2.0957 0,-1.15953 0.91664,-2.0957 2.05274,-2.0957 z m 8.69336,0 c 1.13609,0 2.05273,0.93617 2.05273,2.0957 0,1.15953 -0.91664,2.0957 -2.05273,2.0957 -1.1361,0 -2.05274,-0.93617 -2.05274,-2.0957 0,-1.15953 0.91664,-2.0957 2.05274,-2.0957 z"
             transform="matrix(1.0352384,0,0,0.99935152,-528.52754,292.29967)"
             id="path8303"
             inkscape:connector-curvature="0"
             sodipodi:nodetypes="ssccccscsscsccccscscccscsscscccscsssssssssss" />
        </g>
        <ellipse
           style="color:#000000;clip-rule:nonzero;display:inline;overflow:visible;visibility:visible;opacity:1;isolation:auto;mix-blend-mode:normal;color-interpolation:sRGB;color-interpolation-filters:linearRGB;solid-color:#000000;solid-opacity:1;fill:url(#linearGradient8668);fill-opacity:1;fill-rule:nonzero;stroke:none;stroke-width:0.39209896;stroke-linecap:round;stroke-linejoin:round;stroke-miterlimit:4;stroke-dasharray:none;stroke-dashoffset:0;stroke-opacity:1;color-rendering:auto;image-rendering:auto;shape-rendering:auto;text-rendering:auto;enable-background:accumulate"
           id="path8651"
           cx="276.44806"
           cy="161.29465"
           rx="1.9673955"
           ry="1.7454345"
           inkscape:transform-center-x="-2.3125011"
           inkscape:transform-center-y="-1.116037" />
        <ellipse
           style="color:#000000;clip-rule:nonzero;display:inline;overflow:visible;visibility:visible;opacity:1;isolation:auto;mix-blend-mode:normal;color-interpolation:sRGB;color-interpolation-filters:linearRGB;solid-color:#000000;solid-opacity:1;fill:url(#linearGradient8668-4);fill-opacity:1;fill-rule:nonzero;stroke:none;stroke-width:0.39209896;stroke-linecap:round;stroke-linejoin:round;stroke-miterlimit:4;stroke-dasharray:none;stroke-dashoffset:0;stroke-opacity:1;color-rendering:auto;image-rendering:auto;shape-rendering:auto;text-rendering:auto;enable-background:accumulate"
           id="path8651-1"
           cx="284.97775"
           cy="161.23051"
           rx="1.88111"
           ry="1.9062098"
           inkscape:transform-center-x="-2.3125011"
           inkscape:transform-center-y="-1.116037" />
      </g>
    </g>
  </g>
</svg>
