<svg height="24" viewBox="0 0 24 24" width="24" xmlns="http://www.w3.org/2000/svg" xmlns:xlink="http://www.w3.org/1999/xlink"><linearGradient id="a" gradientTransform="matrix(.52629714 0 0 .63986955 880.48963 662.83072)" gradientUnits="userSpaceOnUse" x1="83.031731" x2="66.311295" y1="40.924026" y2="22.765684"><stop offset="0" stop-color="#d0d0d0"/><stop offset="1" stop-color="#ececec"/></linearGradient><linearGradient id="b" gradientTransform="matrix(1.4444444 0 0 1.5000002 -1.444444 -.000002)" gradientUnits="userSpaceOnUse" x1="6" x2="12" y1="3" y2="5"><stop offset="0"/><stop offset="1" stop-opacity="0"/></linearGradient><path d="m7.060199 5.799029h18.253176v14.767002h-18.253176z" style="fill-rule:evenodd;stroke:#888a85;stroke-width:1.027042;stroke-linecap:round;stroke-linejoin:round;stroke-miterlimit:10;fill:url(#a)" transform="matrix(.99913866 0 -.31732690801 .94972339385 .010327 -.019772)"/><path d="m9.439501 8.179223h14.081502v8.931645h-14.081502z" fill="none" stroke="#fff" stroke-miterlimit="10" stroke-width="1.599638" transform="matrix(.99913866 0 -.31449646808 .95066903617 .010327 -.019772)"/><path d="m.311628.311756h23.376616v23.376616h-23.376616z" fill="none" opacity="0" stroke="#000" stroke-linecap="round" stroke-width=".623256"/><path d="m13-.000002v4.0597349h-.379558c-.224935-.9365662-.47446-1.6076568-.748572-2.0132744-.27414-.4129658-.650181-.7411368-1.128133-.9845135-.267106-.132729-.502954-.1991007-1.170684-.1991148h-1.0648693v11.5707978c-.0000106.766962.038644 1.246313.1159744 1.438052.084327.191742.2424865.361358.4744479.508851.2389698.140115.5622973.210177.969981.210176h.474446v.409293h-8.2847072v-.409293h.4744481c.4146975.000001.748567-.07745 1.0016114-.232301.1827445-.103245.3268366-.280234.4322724-.530973.077315-.176989.1159744-.641592.1159744-1.393805v-11.5707978h-1.1123885c-.962955.0000141-1.174058.2138781-1.6098425.641593-.61151189.5973581-.99809928 1.4491271-1.15976071 2.5553097h-.40064039v-4.0597349h13" fill="url(#b)" fill-rule="evenodd"/></svg>