<svg height="24" viewBox="0 0 24 24" width="24" xmlns="http://www.w3.org/2000/svg" xmlns:xlink="http://www.w3.org/1999/xlink"><radialGradient id="a" cx="22.903999" cy="23.1" gradientTransform="matrix(.41152263 0 0 .41152263 -1.849509 -1.830605)" gradientUnits="userSpaceOnUse" r="19.827999"><stop offset="0" stop-color="#ccc"/><stop offset="1" stop-color="#c5c5c5"/></radialGradient><linearGradient id="b"><stop offset="0" stop-color="#f7ad42"/><stop offset="1" stop-color="#f7ad42" stop-opacity="0"/></linearGradient><linearGradient id="c"><stop offset="0" stop-color="#fff"/><stop offset="1" stop-color="#fff" stop-opacity="0"/></linearGradient><linearGradient id="d" gradientTransform="matrix(.61624559 0 0 .61533137 -2.769708 -10.73022)" gradientUnits="userSpaceOnUse" x1="40.550774" x2="15.76" xlink:href="#c" y1="41.356617" y2="13.171"/><linearGradient id="e" gradientTransform="matrix(.61827958 0 0 .61827956 -2.83871 -10.838708)" gradientUnits="userSpaceOnUse" x1="-9.127616" x2="55.948334" xlink:href="#c" y1="-7.556897" y2="55.878414"/><linearGradient id="f" gradientTransform="matrix(1.4974768 0 0 1.4952552 -.144226 -8.141909)" gradientUnits="userSpaceOnUse" x1="14.813328" x2="9.924866" xlink:href="#b" y1="14.465931" y2="9.943409"/><radialGradient id="g" cx="12.807176" cy="12.716385" fx="12.807176" fy="12.716385" gradientTransform="matrix(1.4974768 0 0 1.5278911 -.144226 -8.556917)" gradientUnits="userSpaceOnUse" r="3.310938" xlink:href="#a"/><radialGradient id="h" cx="22.903999" cy="23.1" gradientTransform="matrix(.61624559 0 0 .61533137 -2.769708 -10.73022)" gradientUnits="userSpaceOnUse" r="19.827999"><stop offset="0" stop-color="#c5c5c5"/><stop offset=".237" stop-color="#c8c8c8"/><stop offset=".408" stop-color="#d1d1d1"/><stop offset=".559" stop-color="#e1e1e1"/><stop offset=".696" stop-color="#f7f7f7"/><stop offset=".736" stop-color="#fff"/><stop offset=".819" stop-color="#fcfcfc"/><stop offset=".881" stop-color="#f2f2f2"/><stop offset=".936" stop-color="#e2e2e2"/><stop offset=".988" stop-color="#ccc"/><stop offset="1" stop-color="#c5c5c5"/></radialGradient><linearGradient id="i" gradientTransform="matrix(-1.4974768 0 0 1.4952552 24.13639 -8.073105)" gradientUnits="userSpaceOnUse" x1="14.813328" x2="9.924866" xlink:href="#b" y1="14.465931" y2="9.943409"/><radialGradient id="j" cx="12.807176" cy="12.716385" fx="12.807176" fy="12.716385" gradientTransform="matrix(-1.4974768 0 0 1.5278911 24.13639 -8.488114)" gradientUnits="userSpaceOnUse" r="3.310938" xlink:href="#a"/><linearGradient id="k" gradientTransform="matrix(-1.4974768 0 0 -1.4952552 24.13639 16.073224)" gradientUnits="userSpaceOnUse" x1="14.813328" x2="9.924866" xlink:href="#b" y1="14.465931" y2="9.943409"/><radialGradient id="l" cx="12.807176" cy="12.716385" fx="12.807176" fy="12.716385" gradientTransform="matrix(-1.4974768 0 0 -1.5278911 24.13639 16.488231)" gradientUnits="userSpaceOnUse" r="3.310938" xlink:href="#a"/><linearGradient id="m" gradientTransform="matrix(1.4974768 0 0 -1.4952552 -.256382 16.073224)" gradientUnits="userSpaceOnUse" x1="14.813328" x2="9.924866" xlink:href="#b" y1="14.465931" y2="9.943409"/><radialGradient id="n" cx="12.807176" cy="12.716385" fx="12.807176" fy="12.716385" gradientTransform="matrix(1.4974768 0 0 -1.5278911 -.256382 16.488231)" gradientUnits="userSpaceOnUse" r="3.310938" xlink:href="#a"/><g transform="translate(0 8)"><g stroke-linecap="round" stroke-linejoin="round" stroke-width=".299273"><path d="m18.922069 1.9682078c-2.655188.0001051-4.807834-2.19772032-4.808306-4.909227.000472-2.7115068 2.153115-4.9093321 4.808306-4.9092269 1.327595-.0000511 1.451241 1.8457659 2.32136 2.7341475.870117.8883815 2.486706.819326 2.486942 2.1750794-.000473 2.71150518-2.153116 4.9093306-4.808302 4.909227zm.02632-.98126059c2.188369.001013 3.96295-1.79447621 3.963046-4.00973981-.000096-2.2152621-1.774678-4.0107513-3.963046-4.0097369-2.187227.0006206-3.960027 1.7956304-3.960123 4.0097369.000096 2.21410635 1.772896 4.00911912 3.960123 4.00973981z" fill="url(#m)" stroke="url(#n)"/><path d="m4.9579385 1.9682084c2.6551894.0001051 4.8078348-2.19772032 4.8083073-4.909227-.0004725-2.7115068-2.1531149-4.9093321-4.8083073-4.9092269-1.3275947-.0000511-1.4512406 1.8457659-2.3213595 2.7341475-.8701174.8883815-2.48670694.819326-2.48694244 2.1750794.00047249 2.71150518 2.15311544 4.9093306 4.80830194 4.909227zm-.0263246-.98126059c-2.1883688.0010128-3.96294984-1.79447621-3.96304584-4.00973981.000096-2.2152621 1.77467854-4.0107513 3.96304584-4.0097369 2.1872273.0006206 3.960028 1.7956304 3.960124 4.0097369-.000096 2.21410635-1.7728967 4.00911912-3.960124 4.00973981z" fill="url(#k)" stroke="url(#l)"/><path d="m4.9579385 6.0319102c2.6551894-.0001059 4.8078348 2.1977195 4.8083073 4.9092268-.0004725 2.711506-2.1531149 4.909332-4.8083073 4.909227-1.3275947.000051-1.4512406-1.845765-2.3213595-2.734148-.8701174-.888381-2.48670694-.819326-2.48694244-2.175079.00047249-2.7115058 2.15311544-4.9093306 4.80830194-4.9092268zm-.0263249.9812599c-2.1883688-.0010125-3.96294984 1.7944773-3.96304584 4.0097399.000096 2.215263 1.77467854 4.010751 3.96304584 4.009737 2.1872273-.000621 3.960028-1.795631 3.960124-4.009737-.000096-2.2141061-1.7728967-4.0091189-3.960124-4.0097399z" fill="url(#i)" stroke="url(#j)"/><path d="m19.034225 5.9631062c-2.65519-.0001059-4.807835 2.1977204-4.808307 4.9092258.000472 2.711507 2.153116 4.909332 4.808307 4.909227 1.327594.000051 1.45124-1.845765 2.321359-2.734148.870117-.888381 2.486707-.819326 2.486942-2.175079-.000472-2.7115039-2.153115-4.9093296-4.808301-4.9092258zm.02632.9812612c2.188369-.00101 3.962952 1.7944753 3.963048 4.0097376-.000098 2.215263-1.774679 4.010753-3.963048 4.009737-2.187227-.000619-3.960026-1.795629-3.960123-4.009737.000096-2.2141058 1.772896-4.0091169 3.960123-4.0097376z" fill="url(#f)" stroke="url(#g)"/></g><ellipse cx="12.020185" cy="4.037732" fill="none" rx="8.146766" ry="8.13468" stroke="url(#h)" stroke-width="6.773671"/><path d="m6.3856041-6.4151081 3.3821968 5.94180621c-1.1273991.63225539-1.6283258 1.09789444-2.1882586 2.12926889l-6.0795423-2.887595c.75139-1.8961323 3.1317331-4.4245202 4.8856041-5.1828466m15.7999049 4.7963979-5.829706 3.3798419c-.639656-1.08712439-1.175108-1.54832857-2.108538-2.12800145l2.853021-6.13376375c1.860587.7513574 4.341364 3.1296004 5.085223 4.8819233m-4.632003 16.0027737-3.404167-5.9715789c1.023823-.5803078 1.550488-1.1314709 2.175703-2.1938895l6.174958 2.9218064c-.760806 1.919571-3.297452 4.479004-4.945867 5.243662m-15.9267042-4.8147671 5.86737-3.4134198c.6264723 1.1378053 1.0878519 1.5445296 2.1292522 2.2084586l-2.8611826 6.1350313c-1.8787887-.758325-4.3840496-3.286713-5.1354396-4.9300701" fill="#c00"/><ellipse cx="12.020185" cy="4.037732" fill="none" rx="5.114838" ry="5.107251" stroke="url(#d)" stroke-width=".615788"/><circle cx="12" cy="4" fill="none" r="11.19086" stroke="url(#e)" stroke-width=".61828"/><g fill="none" stroke="#606060" stroke-width=".88" transform="matrix(.61624557 0 0 .61533137 -2.769708 -10.73022)"><ellipse cx="23.967243" cy="23.938679" rx="7.663692" ry="7.675746" stroke-width=".899913"/><ellipse cx="23.967243" cy="23.938313" rx="19.031689" ry="19.060619" stroke-width=".881797"/></g></g></svg>