<svg height="24" viewBox="0 0 24 24" width="24" xmlns="http://www.w3.org/2000/svg" xmlns:xlink="http://www.w3.org/1999/xlink"><linearGradient id="a" gradientTransform="matrix(.52629714 0 0 .63986955 880.48963 662.83072)" gradientUnits="userSpaceOnUse" x1="83.031731" x2="66.311295" y1="40.924026" y2="22.765684"><stop offset="0" stop-color="#d0d0d0"/><stop offset="1" stop-color="#ececec"/></linearGradient><linearGradient id="b" gradientUnits="userSpaceOnUse" x1="3" x2="22.0625" y1="14.59375" y2="14.59375"><stop offset="0" stop-color="#f0f1ee"/><stop offset="1" stop-color="#d3d7cf"/></linearGradient><radialGradient id="c" cx="24.3754842636" cy="30.8208638304" gradientUnits="userSpaceOnUse" r="5.4908799696"><stop offset="0" stop-color="#777"/><stop offset="1"/></radialGradient><linearGradient id="d" gradientUnits="userSpaceOnUse" x1="7.419417" x2="19.764402" y1="9.113672" y2="33.508858"><stop offset="0" stop-color="#fff"/><stop offset="1" stop-color="#fff" stop-opacity="0"/></linearGradient><g transform="matrix(.99912418 0 0 1.0000115 .0105 -.000138)"><path d="m7.060199 5.799029h18.253176v14.767002h-18.253176z" style="fill-rule:evenodd;stroke:#888a85;stroke-width:1.027042;stroke-linecap:round;stroke-linejoin:round;stroke-miterlimit:10;fill:url(#a)" transform="matrix(1 0 -.31760047 .94822463 0 0)"/><path d="m9.439501 8.179223h14.081502v8.931645h-14.081502z" fill="none" stroke="#fff" stroke-miterlimit="10" stroke-width="1.599638" transform="matrix(1 0 -.31476759 .94916878 0 0)"/><path d="m.311628.311756h23.376616v23.376616h-23.376616z" fill="none" opacity="0" stroke="#000" stroke-linecap="round" stroke-width=".623256"/><g transform="matrix(.66426958 0 0 .6584505 -1.824128 -3.125208)"><path id="e" d="m3.5000001 5.5v9.75c0 3.467351 5.433283 7.103424 8.9999999 8.4375 3.473888-1.240724 9.0625-4.420893 9.0625-8.3125v-9.875z" fill="url(#b)" fill-rule="evenodd" stroke="#888a85" stroke-width="1.507319"/><g fill-rule="evenodd"><path d="m12.3125 6v16.983915c.07932.03108.172488.06496.25.09375 3.23348-1.146924 8.4375-4.090103 8.4375-7.6875v-9.390165z" fill="#85907a" opacity=".262887"/><path d="m13.358021 9.1812731v2.5124539l1.234743-1.642759 2.944388-.6764293z" opacity=".283505"/><path d="m11.698726 9.1812731v2.4578349l-1.205344-1.607046-2.8742821-.6617246z" opacity=".283505"/></g><g transform="matrix(1.532984 0 0 1 -24.74082 -12.14934)"><path d="m27.845738 27.643149c-.840915 1.456507-1.824163 2.506196-3.57449 2.506196-1.700531 0-2.945405-1.209798-3.722333-2.555477.710712.851913 1.751523 1.830522 3.648412 1.830522 2.266495 0 2.662793-.810358 3.648411-1.781241z" fill="#fff" opacity=".36"/><path d="m27.845738 27.446026c-.840915 1.456507-1.824163 2.506196-3.57449 2.506196-1.700531 0-2.945405-1.209798-3.722333-2.555477.710712.851913 1.751523 1.830522 3.648412 1.830522 2.266495 0 2.662793-.810357 3.648411-1.781241z" fill="url(#c)"/></g><path d="m4.5605469 6.5605469v8.6894531c0 1.179663 1.0921648 2.790509 2.7832031 4.205078 1.5823226 1.323627 3.567306 2.420654 5.173828 3.06836 1.591013-.606071 3.573638-1.585998 5.16211-2.832032 1.705009-1.337448 2.822265-2.878329 2.822265-4.316406v-8.8144531z" fill="none" stroke="url(#d)" stroke-width="1.600996" transform="matrix(.941484 0 0 .941493 .733284 .851087)" xlink:href="#e"/></g></g></svg>