<svg height="24" viewBox="0 0 24 24" width="24" xmlns="http://www.w3.org/2000/svg" xmlns:xlink="http://www.w3.org/1999/xlink"><linearGradient id="a" gradientTransform="matrix(1.3274582 0 0 1.2565254 .614006 1029.6756)" gradientUnits="userSpaceOnUse" x1="8.428783" x2="11.973971" y1="4.250652" y2="4.326782"><stop offset="0" stop-color="#c00"/><stop offset="1" stop-color="#c00" stop-opacity="0"/></linearGradient><linearGradient id="b" gradientTransform="matrix(1.3274583 0 0 1.2565254 -.081428 1032.2856)" gradientUnits="userSpaceOnUse" x1="3.378849" x2="6.847906" y1="12.447282" y2="12.396528"><stop offset="0" stop-color="#73d216"/><stop offset="1" stop-color="#73d216" stop-opacity="0"/></linearGradient><linearGradient id="c" gradientTransform="matrix(1.3274582 0 0 1.2565254 2.82522 1032.2537)" gradientUnits="userSpaceOnUse" x1="12.615916" x2="15.958091" y1="12.498034" y2="12.421905"><stop offset="0" stop-color="#3465a4"/><stop offset="1" stop-color="#3465a4" stop-opacity="0"/></linearGradient><path d="m5.5 1.5h13v11h-13z" fill="#babdb6" opacity=".5"/><g transform="translate(0 -1028.3622)"><circle cx="11.999983" cy="1035.1123" fill="url(#a)" r="4.177105" stroke="#a40000" stroke-width=".645753"/><circle cx="4.499913" cy="1047.8621" fill="url(#b)" r="4.177105" stroke="#4e9a06" stroke-width=".645753"/><circle cx="19.49995" cy="1047.8621" fill="url(#c)" r="4.177105" stroke="#204a87" stroke-width=".645753"/><g stroke-linecap="square"><path d="m4.536059 1029.1483h14.927847v11.92786h-14.927847z" fill="none" stroke="#fff" stroke-width="1.572082"/><g stroke="#000" stroke-width=".598301" transform="matrix(1.5217763 0 0 1.5554991 .184671 1028.3512)"><path d="m2.79915.29915h.401699v.401699h-.401699z"/><path d="m2.79915 2.29915h.401699v.401699h-.401699z"/><path d="m2.79915 4.299151h.401699v.401699h-.401699z"/><path d="m2.79915 8.299151h.401699v.401699h-.401699z"/><path d="m2.79915 6.299151h.401699v.401699h-.401699z"/></g><g stroke="#000" stroke-width=".598301" transform="matrix(1.5217763 0 0 1.5554991 14.684671 1028.3627)"><path d="m2.79915.29915h.401699v.401699h-.401699z"/><path d="m2.79915 2.29915h.401699v.401699h-.401699z"/><path d="m2.79915 4.299151h.401699v.401699h-.401699z"/><path d="m2.79915 8.299151h.401699v.401699h-.401699z"/><path d="m2.79915 6.299151h.401699v.401699h-.401699z"/></g><path d="m1041.3044-16.557964h.615929v.572014h-.615929z" stroke="#000" stroke-width=".884071" transform="rotate(90)"/><path d="m1041.3044-13.709993h.615929v.572014h-.615929z" stroke="#000" stroke-width=".884071" transform="rotate(90)"/><path d="m1041.3044-10.862022h.615929v.572014h-.615929z" stroke="#000" stroke-width=".884071" transform="rotate(90)"/><path d="m1041.3044-8.01405h.615929v.572014h-.615929z" stroke="#000" stroke-width=".884071" transform="rotate(90)"/><path d="m1028.8042-16.557964h.615929v.572014h-.615929z" stroke="#000" stroke-width=".884071" transform="rotate(90)"/><path d="m1028.8042-13.709993h.615929v.572014h-.615929z" stroke="#000" stroke-width=".884071" transform="rotate(90)"/><path d="m1028.8042-8.01405h.615929v.572014h-.615929z" stroke="#000" stroke-width=".884071" transform="rotate(90)"/><path d="m1028.8042-10.862022h.615929v.572014h-.615929z" stroke="#000" stroke-width=".884071" transform="rotate(90)"/></g></g></svg>