<svg height="24" viewBox="0 0 24 24" width="24" xmlns="http://www.w3.org/2000/svg"><path d="m.070797.070836h23.858397v23.858397h-23.858397z" opacity="0" stroke="#fff" stroke-linecap="round" stroke-width=".141603"/><path d="m16.751425 21.948322c-4.789219 1.52897-10.2621136.445446-14.0458443-2.828735-.8203914-.726527-1.6325108-1.499536-2.23733523-2.423942l1.26296003-1.234193c.6990938.395903 1.601275 1.834824 2.4246399 2.359829 3.1467268 2.654315 8.1065356 3.632489 12.0330246 2.331706 2.215685-.695637 4.720494-2.556542 6.15352-4.40681l1.273667 1.11325c.160029.64653-.888912 1.270621-1.321179 1.815297-1.584272 1.484966-3.488668 2.623861-5.543453 3.273598z" fill="#8f5902" stroke="#555753" stroke-width=".736478"/><g transform="matrix(1.609792 0 0 1.662271 -1.789976 -1724.8176)"><path d="m546.13456 641.57278c32.90423-1.65692 65.81713-6.0759 98.74713-5.00418 33.81992 12.16959 17.80527 55.902 31.67463 81.83714 6.85538 10.42704 24.06984 23.57012-.0227 20.95656-20.99463 1.41288-42.40919 5.27268-63.23432 5.28901-24.06791-5.60432-35.01981-29.86591-34.60761-52.79944 4.41465-28.82039-35.2915-21.52829-26.32877 4.82486m0 0c.0998 26.07642-50.0158 38.92446-33.60315 74.21997 3.78635 41.28478 9.84488 82.55606 12.68333 123.8112-9.60886 4.22038-25.1484 11.99079-35.25404 8.64702h-.00004c-15.7679-53.47957-28.24281-107.95455-44.99479-161.11102-36.24867-22.2979-76.12765-39.51059-113.94663-59.4966-24.35472-7.58225-47.09917-33.88114-72.97927-27.18502-51.52847 15.99902-104.20638 34.81864-155.83695 50.46272-12.435097-33.6101-49.958632-21.80142 11.12899-45.96895 34.13784-17.19117 70.06604-35.26764 104.25936-52.34813 28.10727-44.45355 47.95606-96.17866 47.79381-149.30813-19.35451-13.31324-43.32186 65.88469-69.07218 36.02309-36.24961-12.69011 20.92844-69.92519 25.21831-94.23465 13.38839-17.87279 11.22339-63.23791 28.60242-64.50902 9.11614 33.60058 50.26314 34.1921 68.4794 61.2358 31.11958 32.46346 46.93885 78.40907 39.63815 123.07909-9.74107 35.07813 55.72196 58.52025 55.72196 58.52025s85.83781 43.47875 125.93296 63.05843" fill="#fcaf3e" stroke="#555753" stroke-width="12.417515" transform="matrix(.02057544 -.01030171 .01086997 .02171042 -6.308771 1033.6431)"/><path d="m688.95764 1251.7031h2.004648v2.54379h-2.004648z" fill="#ef2929" stroke="#505050" stroke-linecap="round" stroke-linejoin="round" stroke-width=".294117" transform="matrix(.99991685 -.01289559 -.54327908 .83955217 0 0)"/><g fill="#2e3436"><path d="m7.0595945 1040.0936c.3486257.8444.6375587.6227.6151222 1.0209-.078001 1.3855-1.0349723.2168-1.7054994-1.1224-.6705554-1.3393-2.730283-.9161-1.68976-1.437 1.0405227-.521 2.1096099.1993 2.7801372 1.5385z"/><path d="m12.518048 1041.7567c.620957-.4619.969295-.9349 1.575873-.8461.553128.081.601877.8234.942893 1.1354.341058.312-.04248-.099.570817.3788.223299.2653.538905.037-1.207549.9794-.864187.2389-1.320915-1.0459-1.882034-1.6475z"/></g></g></svg>