<svg height="24" viewBox="0 0 24 24" width="24" xmlns="http://www.w3.org/2000/svg" xmlns:xlink="http://www.w3.org/1999/xlink"><linearGradient id="a" gradientTransform="matrix(.60072161 0 0 .60098717 -1.832228 -.055418)" gradientUnits="userSpaceOnUse" x1="18.112709" x2="15.514889" y1="31.36775" y2="6.18025"><stop offset="0" stop-color="#424242"/><stop offset="1" stop-color="#777"/></linearGradient><linearGradient id="b" gradientTransform="matrix(.58553618 0 0 .59905303 -1.767658 .033281)" gradientUnits="userSpaceOnUse" x1="22.175976" x2="22.065331" y1="36.987999" y2="32.050499"><stop offset="0" stop-color="#6194cb"/><stop offset="1" stop-color="#729fcf"/></linearGradient><linearGradient id="c" gradientTransform="matrix(.77145159 0 0 .50194756 -2.348706 -.974753)" gradientUnits="userSpaceOnUse" x1="13.035696" x2="12.853771" y1="32.567184" y2="46.689312"><stop offset="0" stop-color="#fff" stop-opacity=".796078"/><stop offset="1" stop-color="#fff" stop-opacity=".215686"/></linearGradient><path d="m.88410335 23.195223c.013093.250194.27627475.500388.52635795.500388h18.8188177c.250082 0 .487072-.250194.473979-.500388l-.562542-16.362918c-.013098-.250193-.276269-.500392-.526352-.500392h-7.9721c-.291384 0-.741575-.189664-.841998-.665071l-.367276-1.738699c-.093395-.44213-.5299646-.623756-.7800479-.623756h-8.87797962c-.25008809 0-.48707757.250193-.4739843.500387z" fill="#fff" stroke="url(#a)" stroke-linecap="round" stroke-linejoin="round" stroke-width=".600854"/><path d="m.003854 0h23.996141v23.996084h-23.996141z" fill="#bebebe" opacity="0"/><g transform="matrix(3.7795277 0 0 3.7795277 6 -1106.5198)"><path d="m2.4985904 292.96292a.31392258.1962437 0 0 1 -.3027066.19612.31392258.1962437 0 0 1 -.3243371-.1821.31392258.1962437 0 0 1 .2795306-.20914.31392258.1962437 0 0 1 .3443114.16716" fill="#8f5902"/><g stroke-dashoffset="1.96" stroke-linecap="round"><g transform="matrix(.22434049 -.09066942 .1999598 .81248142 -54.22969 56.4782)"><path d="m-6.1648722 290.37798-1.279508-.0396 2.6451432 5.02709 1.3046254.1296z" fill="#c17d11" stroke="#8f5902" stroke-linejoin="round" stroke-width=".263486"/><path d="m-6.2171811 290.62149-.8250133-.0186 2.3667073 4.49791.8864827.1268z" fill="none" stroke="#e9b96e" stroke-width=".264583"/></g><g transform="matrix(-.22374732 -.09212119 -.20522863 .81116864 60.113242 56.823871)"><path d="m-6.1905125 290.46237-1.2538677-.12405 2.608976 5.06652 1.359144.12435z" fill="#c17d11" stroke="#8f5902" stroke-linejoin="round" stroke-width=".263486"/><path d="m-6.2532924 290.60293h-.788902l2.3064286 4.56363.7169802.0209z" fill="none" stroke="#e9b96e" stroke-width=".264583"/></g><g transform="matrix(-.00272966 -.23238865 -.62977863 .12656744 186.56726 256.48185)"><path d="m-6.1295432 290.33834h-1.314837l2.6451432 5.02709h1.314837z" fill="#c17d11" stroke="#8f5902" stroke-linejoin="round" stroke-width=".263486"/><path d="m-6.2532924 290.60293h-.788902l2.3667073 4.49791h.788902z" fill="none" stroke="#e9b96e" stroke-width=".264583"/></g></g></g><path d="m21.527038 23.702238c.669792-.02639 1.149451-.656742 1.198615-1.390406.463618-6.918276.971614-12.7190634.971614-12.7190634.04224-.1482565-.09832-.2965121-.28114-.2965121h-20.1255542s-1.0834287 13.0994285-1.0834287 13.0994285c-.067076.588309-.2728642 1.081121-.9074848 1.308161l20.2273787-.0016z" display="block" fill="url(#b)" stroke="#3465a4" stroke-linejoin="round" stroke-width=".592262"/><path d="m3.7994298 9.960143 19.2007262.039857-.921678 12.299996c-.04937.658913-.263893.878264-1.096528.878264-1.095851 0-16.7922948-.01993-18.3830937-.01993.1367828-.197279.1954297-.607942.1962147-.617775z" fill="none" opacity=".465909" stroke="url(#c)" stroke-linecap="round" stroke-width=".600063"/></svg>