<svg height="24" viewBox="0 0 24 23.999999" width="24" xmlns="http://www.w3.org/2000/svg" xmlns:xlink="http://www.w3.org/1999/xlink"><linearGradient id="a"><stop offset="0" stop-color="#d3d7cf"/><stop offset="1" stop-color="#555753"/></linearGradient><linearGradient id="b" gradientTransform="matrix(1.4809082 0 0 1.452859 -448.4097 -325.42177)" gradientUnits="userSpaceOnUse" x2="0" xlink:href="#a" y1="230.5257" y2="234.17552"/><linearGradient id="c" gradientUnits="userSpaceOnUse" x1="318.23053" x2="313.30359" xlink:href="#a" y1="221.36496" y2="225.07529"/><linearGradient id="d" gradientUnits="userSpaceOnUse" x1="315.76736" x2="305.20496" xlink:href="#a" y1="219" y2="224.26392"/><g transform="translate(0 8)"><path d="m4.7481932 15.273665h18.5113528v-7.2642953h-18.5113528c-2.0447047 0-3.7022705 1.6260398-3.7022705 3.6321473 0 2.005963 1.6575658 3.632148 3.7022705 3.632148z" fill="#eeeeec" stroke="url(#b)" stroke-linecap="round" stroke-linejoin="round" stroke-width="1.466817"/><path d="m18.076366 8.735863h2.961816v5.811436h-2.961816z" fill="#729fcf" stroke-width="1.466817"/><path d="m13.633642 8.735863h2.961816v5.811436h-2.961816z" fill="#3465a4" stroke-width="1.466817"/><path d="m9.190917 8.735863h2.961816v5.811436h-2.961816z" fill="#204a87" stroke-width="1.466817"/><path id="e" d="m305.89648 230.49414c-.77533.0165-1.52756.93771-1.38671 1.69922a.99446835.99446835 0 0 1 .006.0469c.0902.66322.80075 1.27805 1.46485 1.26563a.99446835.99446835 0 0 1 .0195 0h11.50586v-3.01172c-3.87231.0004-7.74026-.006-11.60938 0z" fill="none" opacity=".3" stroke="#fff" stroke-linecap="round" stroke-linejoin="round" transform="matrix(1.4809082 0 0 1.452859 -448.4097 -325.42177)"/><g enable-background="new" transform="matrix(1.0899323 -.98357597 1.0025651 1.0692884 -550.44221 74.352284)"><path d="m306 224.5h12.5v-5h-12.5c-1.38071 0-2.5 1.11929-2.5 2.5s1.11929 2.5 2.5 2.5z" fill="#eeeeec" stroke="url(#c)" stroke-linecap="round" stroke-linejoin="round"/><path d="m309 220h2v4h-2z" fill="#ce5c00"/><path d="m312 220h2v4h-2z" fill="#f57900"/><path d="m315 220h2v4h-2z" fill="#fcaf3e"/><use height="300" transform="matrix(.6752613 0 0 .68829804 302.79372 213.98717)" width="400" xlink:href="#e"/></g><g enable-background="new" transform="matrix(0 -1.452859 1.4809082 0 -324.3189 455.4619)"><path d="m306 224.5h12.5v-5h-12.5c-1.38071 0-2.5 1.11929-2.5 2.5s1.11929 2.5 2.5 2.5z" fill="#eeeeec" stroke="url(#d)" stroke-linecap="round" stroke-linejoin="round"/><path d="m309 220h2v4h-2z" fill="#c4a000"/><path d="m312 220h2v4h-2z" fill="#edd400"/><path d="m315 220h2v4h-2z" fill="#fce94f"/><use height="300" transform="matrix(.6752613 0 0 .68829804 302.79372 213.98717)" width="400" xlink:href="#e"/></g><g enable-background="new" transform="matrix(1.4809082 0 0 1.452859 -448.4097 -325.42177)"><circle cx="306" cy="232" fill="#888a85" r="1"/><circle cx="305.80570524" cy="231.86630528" fill="#fff" r=".50281554" stroke-width=".50281554"/></g></g></svg>