<svg height="24" viewBox="0 0 24 24" width="24" xmlns="http://www.w3.org/2000/svg"><g stroke="#fff" transform="translate(0 -1028.3622)"><path d="m11.999971 1028.7266c-.805818 0-1.454545.6485-1.454545 1.4541v2.9084c0 .051-.0161.132-.01116.1821-2.7733229.5316-5.0937233 2.7922-5.6649791 5.6637-.049017 0-.091681-.028-.1420454-.028h-2.909091c-.8058179 0-1.45454505.6486-1.45454505 1.4542s.64872715 1.4542 1.45454505 1.4542h2.7310457c.050364 0 .3106382.015.3596552.015.4129943 2.8715 2.6938292 5.0331 5.5660646 5.6042-.005.05.04212.3938.03494-.2929l.03556 3.4032c.0084.8056.648727 1.4542 1.454545 1.4542s1.454545-.6486 1.454545-1.4542c-.02334-1.8941.02851-3.7871.04546-5.6806-.539454.046-.992752.015-1.509891.015-2.4099639-.01-4.4901032-2.1083-4.4901032-4.5178 0-2.4094 2.0900306-4.499 4.4999992-4.499 2.409969 0 4.499998 2.0896 4.499998 4.499 0 .5172.01512 1.0395-.15 1.4996 2.012851-.043 3.778003-.042 5.831819-.042.805818 0 1.454545-.652 1.454545-1.4576s-.648727-1.4508-1.454545-1.4508h-2.909086c-.05037 0-.152377-.015-.201397-.015-.53169-2.6341-2.792745-5.1321-5.664979-5.7033.005-.05.04819-.1035.04819-.1035v-2.9084c0-.8057-.648728-1.4541-1.454545-1.4541z" stroke-width=".727189"/><path d="m15.41296 1043.7751v1.6348h1.668898v4.9045c-.924569 0-1.668898.3646-1.668898.8174 0 .4529.744329.8174 1.668898.8174h3.337794c.924569 0 1.668898-.3645 1.668898-.8174 0-.4528-.744329-.8174-1.668898-.8174v-6.5393z" stroke-width=".825886"/></g></svg>