<svg height="24" viewBox="0 0 24 24" width="24" xmlns="http://www.w3.org/2000/svg"><g transform="translate(0 -1028.3622)"><path d="m.31162944801 1028.67382847807h23.37671918171v23.37671918171h-23.37671918171z" fill="none" opacity="0" stroke="#000" stroke-linecap="round" stroke-width=".62325841829"/><g fill-rule="evenodd"><path d="m3.5486284 1028.898h12.6332956l6.282354 5.9953v15.0586c0 1.0385-.897757 1.8744-2.012907 1.8744h-16.9027426c-1.1151501 0-2.0129063-.8359-2.0129063-1.8744v-19.1795c0-1.0386.8977562-1.8744 2.0129063-1.8744z" fill="#fff" stroke="#888a85" stroke-width="1.071444"/><g fill="#555753" transform="matrix(1.1201828 0 0 1.0793876 -1.276481 1029.1178)"><circle cx="12.238166" cy="10.027681" r="3.319664" transform="matrix(.9948357 0 0 1.0050216 -.174965 -1.883016)"/><path d="m17.208335 16.45c0 3.036001-2.399608 2.200002-5.356268 2.200002-2.9566614 0-5.3562696.835999-5.3562696-2.200002 0-3.036 2.3996082-5.5 5.3562696-5.5 2.95666 0 5.356268 2.464 5.356268 5.5z"/></g><path d="m21.999999 1034.8294h-6.424213l-.043-5.4637" fill="#fff" stroke="#888a85" stroke-width="1.065607"/></g></g></svg>