<svg height="24" viewBox="0 0 6.3499999 6.3500002" width="24" xmlns="http://www.w3.org/2000/svg"><g transform="translate(-125.14789 -184.15)"><path d="m480.5 696c-1.38501 0-2.5 1.11499-2.5 2.5v10.55469c-1.92739.93386-3.26367 2.90661-3.26367 5.1875 0 3.17559 2.4487 5.75781 5.75781 5.75781s5.75781-2.58724 5.75781-5.72852c0-2.33483-1.3335-4.30917-3.25195-5.1875v-10.58398c0-1.38501-1.11499-2.5-2.5-2.5zm0 1c.831 0 1.5.66903 1.5 1.5v11.2832c1.88289.63477 3.25586 2.35851 3.25586 4.45899.00004 2.63516-2.12656 4.76172-4.76172 4.76172s-4.76172-2.12656-4.76172-4.76172c.00003-2.10461 1.37889-3.82945 3.26758-4.46094v-11.28125c0-.83097.66903-1.5 1.5-1.5z" fill="#3465a4" fill-rule="evenodd" transform="scale(.26458333)"/><path d="m128.48408 185.68187a.67310576.67310576 0 0 1 .50041-.22292.67310576.67310576 0 0 1 .6731.6731.67310576.67310576 0 0 1 -.6731.67311.67310576.67310576 0 0 1 -.50034-.22284" fill="none" stroke="#edd400" stroke-linecap="round" stroke-linejoin="round" stroke-width=".264583"/><g fill-rule="evenodd"><g fill="#edd400"><rect height=".793742" rx=".132292" width=".264587" x="128.85219" y="184.15001"/><rect height=".793742" rx=".132292" width=".264587" x="128.85219" y="187.32501"/><rect height=".793742" rx=".132292" transform="rotate(90)" width=".264587" x="186.00208" y="-130.96875"/><rect height=".793742" rx=".132292" transform="matrix(.70710678 .70710678 -.70710678 .70710678 0 0)" width=".264587" x="222.68875" y="38.421719"/><rect height=".793742" rx=".132292" transform="matrix(-.70710678 .70710678 -.70710678 -.70710678 0 0)" width=".264587" x="40.277134" y="-224.80875"/></g><path d="m127.13229 186.00208c-.0733 0-.13229.059-.13229.13229v1.93994c-.44807.065-.78054.44899-.78083.90175.00012.5036.40849.91173.91209.91157.50339-.00012.91145-.40817.91157-.91157-.00026-.45172-.3314-.83508-.77825-.90124v-1.94045c0-.0733-.059-.13229-.13229-.13229z" fill="#c00"/></g></g></svg>