<svg enable-background="new" height="24" viewBox="0 0 24 24" width="24" xmlns="http://www.w3.org/2000/svg" xmlns:xlink="http://www.w3.org/1999/xlink"><clipPath id="a"><path d="m471.43078 685.92888c0 22.09674-12.84202 40.00973-12.84202 40.00973s-12.84203-17.91299-12.84203-40.00973c0-22.09678 12.84203-40.00974 12.84203-40.00974s12.84202 17.91296 12.84202 40.00974z"/></clipPath><filter id="b" color-interpolation-filters="sRGB" height="1.158517" width="1.493864" x="-.246932" y="-.079258"><feGaussianBlur stdDeviation="2.642588"/></filter><clipPath id="c"><path d="m401.43078 865.80173c0 22.09677-12.84202 40.00973-12.84202 40.00973s-12.84203-17.91296-12.84203-40.00973c0-22.09675 12.84203-40.00974 12.84203-40.00974s12.84202 17.91299 12.84202 40.00974z"/></clipPath><clipPath id="d"><path d="m348.71074 698.72614c-22.06442 0-39.95118-12.86084-39.95118-12.86084s17.88676-12.86084 39.95118-12.86084c22.06446 0 39.95119 12.86084 39.95119 12.86084s-17.88673 12.86084-39.95119 12.86084z"/></clipPath><filter id="e" color-interpolation-filters="sRGB" height="1.492771" width="1.15863" x="-.079315" y="-.246385"><feGaussianBlur stdDeviation="2.6406013"/></filter><clipPath id="f"><path d="m299.47143 763.19859c-15.60192 15.62478-37.33043 19.19718-37.33043 19.19718s3.56716-21.76037 19.16908-37.38511c15.60192-15.62479 37.33043-19.19719 37.33043-19.19719s-3.56717 21.76037-19.16908 37.38512z"/></clipPath><filter id="g" color-interpolation-filters="sRGB" height="1.239824" width="1.240176" x="-.120088" y="-.119912"><feGaussianBlur stdDeviation="2.8270453"/></filter><clipPath id="h"><path d="m538.46677 738.72614c-22.06443 0-39.95119-12.86084-39.95119-12.86084s17.88676-12.86084 39.95119-12.86084c22.06442 0 39.95119 12.86084 39.95119 12.86084s-17.88677 12.86084-39.95119 12.86084z"/></clipPath><filter id="i" color-interpolation-filters="sRGB" height="1.492771" width="1.15863" x="-.079315" y="-.246385"><feGaussianBlur stdDeviation="2.6406015"/></filter><clipPath id="j"><path d="m515.86743 706.71995c-15.60192 15.62478-37.33043 19.19718-37.33043 19.19718s3.56717-21.76037 19.16909-37.38511c15.60192-15.62478 37.33043-19.19719 37.33043-19.19719s-3.56717 21.76034-19.16909 37.38512z"/></clipPath><filter id="k" color-interpolation-filters="sRGB" height="1.239824" width="1.240176" x="-.120088" y="-.119912"><feGaussianBlur stdDeviation="2.8270455"/></filter><clipPath id="l"><path d="m515.86743 745.01066c15.60192 15.62474 19.16909 37.38511 19.16909 37.38511s-21.72851-3.5724-37.33043-19.19718c-15.60192-15.62475-19.16909-37.38512-19.16909-37.38512s21.72851 3.5724 37.33043 19.19719z"/></clipPath><clipPath id="m"><path d="m269.47143 688.53202c15.60191 15.62474 19.16908 37.38511 19.16908 37.38511s-21.72851-3.5724-37.33043-19.19718-19.16908-37.38512-19.16908-37.38512 21.72851 3.57241 37.33043 19.19719z"/></clipPath><g transform="translate(-30.407115 -253.7175)"><path d="m296.0625 49.996326h48v48h-48z" fill="#eeeeec"/><path d="m303 125.99633h32v32h-32z" fill="#eeeeec"/><path d="m302 176h24v24h-24z" fill="#fff"/><g fill="#eeeeec"><path d="m303 177.05884h22v22h-22z"/><path d="m303 219h16v16h-16z"/><path d="m16.0625 31.996323h256v256h-256z"/></g><text font-family="Bitstream Vera Sans" font-size="18.300707" x="20.970737" y="21.513618"><tspan x="20.970737" y="21.513618">apps</tspan></text><text font-family="Droid Sans" font-size="18.300707" font-weight="bold" x="191.97073" y="21.513618"><tspan x="191.97073" y="21.513618">gnome-color-manager</tspan></text></g><g fill-rule="evenodd" transform="matrix(.12086366 0 0 .12067409 -4.719475 -6.951654)"><path d="m154.30526 107.37313c0 27.48513-15.97192 49.76628-15.97192 49.76628s-15.97193-22.28115-15.97193-49.76628c0-27.485174 15.97193-49.766288 15.97193-49.766288s15.97192 22.281114 15.97192 49.766288z" fill="#d5be00"/><path clip-path="url(#a)" d="m471.43078 685.92888c0 22.09674-12.84202 40.00973-12.84202 40.00973s-12.84203-17.91299-12.84203-40.00973c0-22.09678 12.84203-40.00974 12.84203-40.00974s12.84202 17.91296 12.84202 40.00974z" fill="#edd400" filter="url(#b)" transform="matrix(1.2437231 0 0 1.2438544 -432.02409 -745.82249)"/><path d="m154.30526 206.72332c0 27.48517-15.97192 49.76628-15.97192 49.76628s-15.97193-22.28111-15.97193-49.76628c0-27.48514 15.97193-49.76629 15.97193-49.76629s15.97192 22.28115 15.97192 49.76629z" fill="#23446e"/><path d="m187.93055 173.04523c-27.44205 0-49.68822-15.99701-49.68822-15.99701s22.24617-15.99701 49.68822-15.99701c27.44202 0 49.68821 15.99701 49.68821 15.99701s-22.24619 15.99701-49.68821 15.99701z" fill="#56aa07"/><path d="m88.736129 173.04523c-27.442028 0-49.688205-15.99701-49.688205-15.99701s22.246177-15.99701 49.688205-15.99701c27.442081 0 49.688221 15.99701 49.688221 15.99701s-22.24614 15.99701-49.688221 15.99701z" fill="#ca0f0f"/><path d="m184.69769 133.23419c-19.40447 19.43496-46.42872 23.8785-46.42872 23.8785s4.43657-27.06673 23.84104-46.50163c19.40447-19.434952 46.42872-23.87851 46.42872-23.87851s-4.43657 27.06669-23.84104 46.50164z" fill="#85b912"/><path clip-path="url(#c)" d="m401.43078 865.80173c0 22.09677-12.84202 40.00973-12.84202 40.00973s-12.84203-17.91296-12.84203-40.00973c0-22.09675 12.84203-40.00974 12.84203-40.00974s12.84202 17.91299 12.84202 40.00974z" fill="#3465a4" filter="url(#b)" transform="matrix(1.2437231 0 0 1.2438544 -344.96347 -870.20793)"/><path clip-path="url(#d)" d="m348.71074 698.72614c-22.06442 0-39.95118-12.86084-39.95118-12.86084s17.88676-12.86084 39.95118-12.86084c22.06446 0 39.95119 12.86084 39.95119 12.86084s-17.88673 12.86084-39.95119 12.86084z" fill="#ef2929" filter="url(#e)" transform="matrix(1.2437231 0 0 1.2438544 -344.96347 -696.06832)"/><path d="m114.55668 203.4854c-19.404469 19.43495-46.428719 23.87849-46.428719 23.87849s4.436559-27.06673 23.841028-46.50163c19.404471-19.43496 46.428721-23.87851 46.428721-23.87851s-4.43658 27.06673-23.84103 46.50165z" fill="#593d5e"/><path d="m114.55668 110.61106c19.40445 19.4349 23.84103 46.50163 23.84103 46.50163s-27.02425-4.44354-46.428721-23.8785c-19.404469-19.43495-23.841028-46.50164-23.841028-46.50164s27.02425 4.443558 46.428719 23.87851z" fill="#c96300"/><path clip-path="url(#f)" d="m299.47143 763.19859c-15.60192 15.62478-37.33043 19.19718-37.33043 19.19718s3.56716-21.76037 19.16908-37.38511c15.60192-15.62479 37.33043-19.19719 37.33043-19.19719s-3.56717 21.76037-19.16908 37.38512z" fill="#75507b" filter="url(#g)" transform="matrix(1.2437231 0 0 1.2438544 -257.90286 -745.82249)"/><path d="m184.69769 180.86226c19.40447 19.4349 23.84104 46.50163 23.84104 46.50163s-27.02425-4.44354-46.42872-23.87849c-19.40447-19.43492-23.84104-46.50165-23.84104-46.50165s27.02425 4.44355 46.42872 23.87851z" fill="#3f7bba"/><path clip-path="url(#h)" d="m538.46677 738.72614c-22.06443 0-39.95119-12.86084-39.95119-12.86084s17.88676-12.86084 39.95119-12.86084c22.06442 0 39.95119 12.86084 39.95119 12.86084s-17.88677 12.86084-39.95119 12.86084z" fill="#65c808" filter="url(#i)" transform="matrix(1.2437231 0 0 1.2438544 -481.77301 -745.82249)"/><path clip-path="url(#j)" d="m515.86743 706.71995c-15.60192 15.62478-37.33043 19.19718-37.33043 19.19718s3.56717-21.76037 19.16909-37.38511c15.60192-15.62478 37.33043-19.19719 37.33043-19.19719s-3.56717 21.76034-19.16909 37.38512z" fill="#afea2c" filter="url(#k)" transform="matrix(1.2437231 0 0 1.2438544 -456.89855 -745.82249)"/><path clip-path="url(#l)" d="m515.86743 745.01066c15.60192 15.62474 19.16909 37.38511 19.16909 37.38511s-21.72851-3.5724-37.33043-19.19718c-15.60192-15.62475-19.16909-37.38512-19.16909-37.38512s21.72851 3.5724 37.33043 19.19719z" fill="#729fcf" filter="url(#k)" transform="matrix(1.2437231 0 0 1.2438544 -456.89855 -745.82249)"/><path clip-path="url(#m)" d="m269.47143 688.53202c15.60191 15.62474 19.16908 37.38511 19.16908 37.38511s-21.72851-3.5724-37.33043-19.19718-19.16908-37.38512-19.16908-37.38512 21.72851 3.57241 37.33043 19.19719z" fill="#f57900" filter="url(#g)" transform="matrix(1.2437231 0 0 1.2438544 -220.59116 -745.82249)"/></g></svg>