<svg height="24" viewBox="0 0 24 24" width="24" xmlns="http://www.w3.org/2000/svg" xmlns:xlink="http://www.w3.org/1999/xlink"><linearGradient id="a" gradientTransform="matrix(1.0073616 0 0 1.0203018 -2.371276 -21.298157)" gradientUnits="userSpaceOnUse" x1="3.298668" x2="19.242971" y1="1048.0988" y2="1048.0988"><stop offset="0"/><stop offset="1" stop-opacity="0"/></linearGradient><g transform="translate(0 -1028.3622)"><g transform="matrix(1.4942399 0 0 1.50357413351 -1.42203069388 -525.00216044064)"><path d="m.951675 1047.0813h16.061678v1.995246h-16.061678z" fill="url(#a)"/><path d="m-9.0839653 1041.3845-1.6835687-1.0424-1.683568-1.0423 1.744472-.9369 1.7444715-.9368-.060903 1.9792z" stroke="#ce5c00" stroke-linecap="square" stroke-linejoin="round" stroke-width=".685035" transform="matrix(.73889293 -.37982203 .44868438 .6187011 -449.84669 401.07182)"/></g><path d="m0 1028.3622h24v19.5h-24z" fill="#d3d7cf"/><path d="m-9.0839653 1041.3845-1.6835687-1.0424-1.683568-1.0423 1.744472-.9369 1.7444715-.9368-.060903 1.9792z" fill="#fff" stroke="#ce5c00" stroke-linecap="square" stroke-linejoin="round" stroke-width=".685035" transform="matrix(1.1040833 -.57109058 .67044212 .93026298 -664.60092 78.039056)"/><path d="m12 1028.3622h12v19.5h-12z" fill="#555753"/><path d="m0 1047.8622 1.249995-3.2769.750015-2.7956h1.999995l1.99998-5.9638h2.00001l1.999995 5.9638h2.00001v6.0725-1.2272l4.000005-4.8447 1.99998-5.9638v-5.9639l2.00001 5.9639 1.999995 5.9638 2.00001 2.4224v3.6495z" fill="#729fcf" stroke-width="3.453652"/></g></svg>