<svg height="24" viewBox="0 0 24 24" width="24" xmlns="http://www.w3.org/2000/svg" xmlns:xlink="http://www.w3.org/1999/xlink"><linearGradient id="a" gradientUnits="userSpaceOnUse" x1="187.5" x2="187.5" y1="491.49991" y2="470.49991"><stop offset="0" stop-color="#ce5c00" stop-opacity="0"/><stop offset=".09044679" stop-color="#ce5c00"/><stop offset=".90803826" stop-color="#ce5c00"/><stop offset="1" stop-color="#ce5c00" stop-opacity="0"/></linearGradient><g transform="matrix(.99992933 0 0 -1 0 1052.3622)"><path d="m.000006 1028.3622h23.988617v24h-23.988617z" fill="#fff" opacity="0"/><g fill="#eeeeec" stroke="#555753" stroke-width=".997928" transform="matrix(-1.143438 0 0 -1.0805365 -104.1967 1240.15)"><path d="m-111.4592 185.55431h17.925461v7.013995h-17.925461z" style="fill:#204a87;fill-rule:evenodd;stroke:#888a85;stroke-width:1.31484;stroke-linejoin:round;stroke-miterlimit:0"/><path d="m-110.20835 186.88931h16.834675v4.344022h-16.834675z" fill="none" stroke="#fff" stroke-linecap="round" stroke-miterlimit="2" stroke-width=".945119"/></g><g fill="#eeeeec" stroke="#555753" stroke-width=".997928" transform="matrix(-.77962817 0 0 -.72037358 -69.408993 1182.5572)"><path d="m-111.4592 185.55431h17.925461v7.013995h-17.925461z" style="fill:#204a87;fill-rule:evenodd;stroke:#888a85;stroke-width:1.31484;stroke-linejoin:round;stroke-miterlimit:0"/><path d="m-110.20978 186.88789h16.723007v4.346873h-16.723007z" fill="none" stroke="#fff" stroke-linecap="round" stroke-miterlimit="2" stroke-width=".942288"/></g><path d="m187.5 470.49991h2.000122v21h-2.000122z" fill="url(#a)" transform="matrix(-1.4999085 0 0 -1.047619 285.23284 1544.5289)"/><path d="m2 1030.6122h1v20.25h-1z" fill="#fcaf3e"/></g></svg>