<svg height="24" viewBox="0 0 24 24" width="24" xmlns="http://www.w3.org/2000/svg" xmlns:xlink="http://www.w3.org/1999/xlink"><linearGradient id="a"><stop offset="0" stop-color="#fff" stop-opacity=".796078"/><stop offset="1" stop-color="#fff" stop-opacity=".215686"/></linearGradient><linearGradient id="b"><stop offset="0" stop-color="#f2f2f2"/><stop offset="1" stop-color="#c3c3c3"/></linearGradient><linearGradient id="c" gradientUnits="userSpaceOnUse" x1="554.06866" x2="607.10168" y1="584.32733" y2="583.3172"><stop offset="0" stop-color="#729fcf"/><stop offset=".31578946" stop-color="#a5bfda"/><stop offset="1" stop-color="#376ca4"/></linearGradient><linearGradient id="d" gradientUnits="userSpaceOnUse" x1="733.37073" x2="586.89862" y1="533.31464" y2="599.98468"><stop offset="0" stop-color="#035f9c"/><stop offset="1" stop-color="#035f9c" stop-opacity="0"/></linearGradient><linearGradient id="e" gradientUnits="userSpaceOnUse" x1="958.63477" x2="600.03064" xlink:href="#a" y1="387.85266" y2="600.99487"/><linearGradient id="f" gradientUnits="userSpaceOnUse" x1="700.03571" x2="504.06613" xlink:href="#a" y1="441.39075" y2="438.36029"/><radialGradient id="g" cx="380.06989" cy="391.65781" gradientTransform="matrix(1 0 0 .57419364 0 168.26858)" gradientUnits="userSpaceOnUse" r="39.143414"><stop offset="0" stop-color="#f9f9f9"/><stop offset="1" stop-color="#f9f9f9" stop-opacity="0"/></radialGradient><linearGradient id="h" gradientUnits="userSpaceOnUse" x1="375.77676" x2="351.53308" y1="342.39578" y2="431.28922"><stop offset="0" stop-color="#b3b3b3"/><stop offset="1" stop-color="#b3b3b3" stop-opacity="0"/></linearGradient><linearGradient id="i" gradientUnits="userSpaceOnUse" x1="720.97552" x2="612.93127" y1="507.60095" y2="543.341"><stop offset="0" stop-color="#627272"/><stop offset="1" stop-color="#1d2222"/></linearGradient><linearGradient id="j" gradientTransform="matrix(.71944 0 0 .718914 -7.696252 9.471728)" gradientUnits="userSpaceOnUse" x1="53.168766" x2="69.690994" xlink:href="#b" y1="24.244797" y2="24.244797"/><linearGradient id="k" gradientTransform="matrix(.888619 0 0 .718914 -18.29768 9.471728)" gradientUnits="userSpaceOnUse" x1="61.871845" x2="61.871845" y1="29.615223" y2="41.459263"><stop offset="0" stop-color="#aeaeae"/><stop offset="1" stop-color="#c4c4c4" stop-opacity="0"/></linearGradient><linearGradient id="l" gradientTransform="matrix(.737307 0 0 .770854 -8.532023 7.121636)" gradientUnits="userSpaceOnUse" x1="60.168766" x2="60.440994" xlink:href="#b" y1="40.119797" y2="43.869797"/><linearGradient id="m" gradientTransform="matrix(.39446844 -.0568076 .05611324 .39934968 -8.865666 -54.253714)" gradientUnits="userSpaceOnUse" x1="29.61363" x2="40.762386" xlink:href="#a" y1="120.04816" y2="174.51074"/><linearGradient id="n" gradientTransform="matrix(.39446844 -.0568076 .05611324 .39934968 -8.865666 -54.253714)" gradientUnits="userSpaceOnUse" x1="31.734951" x2="23.623526" xlink:href="#a" y1="127.64955" y2="132.11465"/><g stroke-width=".400897" transform="translate(.911415 9.796319)"><path d="m4.1020398-7.7044446c-3.63469257.2595074-4.15909895 3.7481723-3.64429982 4.5828733.65895862 1.0684535 1.59989842.9420887 2.01659812-.1400707.4167109-1.0820088-.8822568-1.4885151.1075374-2.1396181 1.7221008-1.1329162 5.458839 1.0077562 5.3047765 3.2624432-.4350553 4.4906977 1.0780898 4.8734071 2.34509 5.0696568 3.092698.4788009 4.179811 3.4248047.711609 4.7483978.651571 1.4903224 4.867502 2.2744173 4.844347-.703366-.023149-2.9779338-1.3589-11.6523787-7.8571608-14.0058682-1.5520271-.5620903-2.8108193-.7470439-3.8285357-.6744481zm2.5233487 1.8278477c1.8949482.5199185 3.5057795 1.9063175 4.7981095 3.5341502.548665.7196323.993965 1.77437993.622226 2.70728113-.286306.59929187-.837153 1.17026837-1.477979 1.09827507-.8001103-.1903758-1.2234488-1.2371409-1.1517787-2.10091041.1479544-.59612899.2424857-1.19798129.0116786-1.80194219-.4631597-1.5376152-1.6385766-2.5971825-2.8022579-3.4368538z" fill="#4e9a06" fill-opacity=".65625" stroke="#c4a000"/><path d="m4.1020398-7.7044446c-3.63469257.2595074-4.15909895 3.7481723-3.64429982 4.5828733.65895862 1.0684535 1.59989842.9420887 2.01659812-.1400707.4167109-1.0820088-.8822568-1.4885151.1075374-2.1396181 1.7221008-1.1329162 5.458839 1.0077562 5.3047765 3.2624432-.4350553 4.4906977 1.0797776 4.8625629 2.34509 5.0696568 3.071146.5025978 4.179811 3.4248047.711609 4.7483978.651571 1.4903224 4.867502 2.2744173 4.844347-.703366-.023149-2.9779338-1.3589-11.6523787-7.8571608-14.0058682-1.5520271-.5620903-2.8108193-.7470439-3.8285357-.6744481zm2.5233487 1.8278477c1.8949482.5199185 3.5057795 1.9063175 4.7981095 3.5341502.548665.7196323.993965 1.77437993.622226 2.70728113-.286306.59929187-.837153 1.17026837-1.477979 1.09827507-.8001103-.1903758-1.2234488-1.2371409-1.1517787-2.10091041.1479544-.59612899.2424857-1.19798129.0116786-1.80194219-.4631597-1.5376152-1.6385766-2.5971825-2.8022579-3.4368538z" fill="#73d216" fill-opacity=".65625" stroke="#73d216"/><g fill="none" stroke-linejoin="round"><path d="m4.2694685-7.3983976c-3.40355359.241735-4.06795474 3.6677446-3.40979117 4.3098107.52297507.5101286 1.50175587.4929586 1.37093277-.5907069-.026302-.2195947-1.2012886-1.1759917.4058423-2.1591978 1.6185854-.9904356 5.1795425.8911812 5.5789129 3.2910597-.4045505 4.2251659.6717714 4.6471854 2.4978197 5.1104731 3.310945.8401232 3.986278 4.0801249.73889 5.3234409.836614.8613597 3.983113 1.2594317 3.959516-1.542736-.023595-2.8020171-1.470034-10.8865081-7.5569247-13.1051984-1.4537687-.529859-2.6326859-.7048721-3.585687-.6370959z" stroke="url(#m)"/><path d="m5.4051892-6.7221421c1.7748507.4903981 4.6610348 2.1069349 5.8722828 3.6394292.514281.6774603 1.727369 2.49792801 1.379852 3.37540337-.267711.56359643-1.03358 1.64590643-2.397905 1.50945043-.7493803-.1796822-1.3503416-1.89938927-1.2837747-2.71210075.138195-.56088535.1875321-1.04495775-.0289839-1.61352445-.434729-1.4469457-2.4512148-3.407936-3.5414712-4.1986578z" stroke="url(#n)"/></g></g><path d="m.500538.421918h22.869408v23.156006h-22.869408z" style="opacity:0;fill:none;stroke:#3c3c3c;stroke-width:.838827;stroke-linecap:round;stroke-linejoin:round"/><g transform="matrix(.01631721 .00092424 -.00091649 .01599837 -.29814334611 11.60704317215)"><path d="m267.90625 134.28125c-14.08628.0231-27.74138 2.48726-40.625 9.125l-176.78125 166.65625c-.897678 14.92776 1.660467 29.18843 14.15625 41.4375l63.625 20.1875 357.59375 133.34375 73.75 25.25 52.53125-3.03125 160.625-185.875-13.15625-30.28125c-175.04072-62.26549-331.84182-114.86867-488.90625-176.78125-.94293-.0196-1.87341-.0328-2.8125-.0312z" fill="#3691d3"/><path d="m267.90625 134.28125c-14.08628.0231-27.74138 2.48726-40.625 9.125l-176.78125 166.65625c-.897678 14.92776 4.690925 27.92574 17.186708 40.17481l59.079312 26.24841 359.10898 128.54553 73.75 25.25 52.53125-3.03125 160.625-185.875-13.15625-30.28125c-133.10063-46.28163-266.68054-91.656-397.90625-141.375-.6091-.23078-1.23476-.48779-1.84375-.71875-7.41713-2.81297-14.81736-5.62689-22.21875-8.46875-.78993-.3033-1.58526-.60261-2.375-.90625-21.59634-8.30347-43.11856-16.72963-64.5625-25.3125-.94293-.0196-1.87341-.0328-2.8125-.0312z" fill="none"/><path d="m236.42857 159.28571-2.85714 100-88.57143 101.42858-65-24.28572c-7.805076-7.85714-8.819644-15.71429-7.142857-23.57143z" fill="#3465a4"/><path d="m772.7667 339.87041-1.01015 215.66757-161.62441 177.28177-61.11423 10.10153c-500.025512-195.96959-348.88309-139.24551-500.025512-195.96959l1.010153-236.3757c1.1153 11.5562-.146018 20.08022 15.404827 40.65864 78.535342 19.94869 323.743782 121.79463 492.701902 178.03939l53.53809-2.52539z" fill="url(#c)"/><path d="m611.65625 527.25-17.59375.34375-35.46875 1.65625-9.21875 213.59375 60.75-10.03125.1875-.21875z" fill="url(#d)"/><path d="m644.46875 435.0625c-8.19551 17.54081-15.81084 26.7219-23.125 31.21875-.80054.49218-1.93963.56436-2.40625 1.3125-.85129 1.36488-1.66011 2.5583-2.46875 3.59375 12.98338-7.03999 26.85549-25.29246 32.31932-34.8777zm-56.0625 32.09375 5.46875 13.65625c3.72895-1.23544 7.34029-2.57996 10.8125-4.03125-5.60096-1.63748-10.58746-8.27636-16.28125-9.625z" fill="#1a1a1a"/><path d="m163.65625 339.75-16.6875 19.3125 347.5 125.25c40.35572 11.08258 86.91209 4.4541 118.40625-11.28125 12.96773-9.97468 25.1778-20.79649 32.09375-37.6875z" fill="#3691d3"/><path d="m177.4375 323.78125-13.15625 15.25 484.375 97.8125c.6329-2.56165.95921-5.1683.90625-7.8125-5.75962-10.96836-14.53891-20.30358-32.875-24.5z" fill="#1a1a1a"/><path d="m275.38582 356.75866-27.20588 37.47775 250.01441 93.05354c40.75673 11.38428 87.03081 3.02137 117.90229-15.09418 12.57721-11.32971 24.36472-23.58075 30.6284-42.43565z" fill="#999"/><path d="m270 155 2.85714 98.57143 445.71429 76.42857 28.82524 1.84699-17.39667-8.27556z" fill="#3465a4"/><path d="m772.78125 339.875-161.125 186.875-.375.0312.75 203.9375 159.71875-175.18745z" fill="url(#e)"/><path d="m275.38582 356.75866-27.20588 37.47775 250.01441 93.05354c40.75673 11.38428 87.03081 3.02137 117.90229-15.09418 12.57721-11.32971 24.36472-23.58075 30.6284-42.43565z" fill="url(#f)"/><path d="m320.72343 393.91357 85.35789-1.51522c5.06871 9.26571 4.70623 16.72103 6.06092 24.74873-27.91696 43.48242-57.66608 13.27793-90.91373 5.55584z" fill="#666"/><path d="m405.57625 395.17629c0 13.52887-18.88189 24.4962-42.17387 24.4962s-42.17388-10.96733-42.17388-24.4962c0-2.03557.42746-4.01316 1.23309-5.90412.27736-.65101.23955-1.98156.96454-1.92107 22.9061 1.91122 31.13406-.29864 11.09562-10.02608-.86451-.41967 1.71955-.90115 2.62607-1.32054 7.20406-3.33277 16.32888-5.32439 26.25456-5.32439 21.68446 0 39.8349 9.55125 41.96911 22.08526" fill="#4d4d4d"/><path d="m402.54579 395.17629c0 12.41309-17.52511 22.4759-39.14341 22.4759-21.61831 0-39.14342-10.06281-39.14342-22.4759 0-1.86769.39674-3.68217 1.14449-5.41718.25743-.59732.22233-1.81813.89522-1.76263 21.26016 1.75359 28.89688-.27402 10.29834-9.19919-.8024-.38506 1.59599-.82683 2.43737-1.21163 6.6864-3.0579 15.15554-4.88527 24.368-4.88527 20.12629 0 36.97251 8.76352 38.95337 20.2638" fill="url(#g)"/><path d="m404.06102 417.08129-11.80735 9.15717c-3.12347-40.61891-31.46731-33.67955-64.20663-39.17013 9.71486 1.56736 9.95833 5.45665 4.04538-9.30897 51.71908-1.73823 71.14126 13.8143 71.9686 39.32193z" fill="#333"/><path d="m404.06102 417.08129-11.80735 9.15717c-3.12347-40.61891-33.74015-33.67955-66.47947-39.17013 9.71486 1.56736 12.23117 5.45665 6.31822-9.30897 51.71908-1.73823 71.14126 13.8143 71.9686 39.32193z" fill="url(#h)"/><path d="m737.91647 517.15216a47.224632 89.398499 0 0 1 -46.0609 89.37135 47.224632 89.398499 0 0 1 -48.33101-84.96666 47.224632 89.398499 0 0 1 43.67888-93.55895 47.224632 89.398499 0 0 1 50.48374 80.35558" fill="#06a" transform="matrix(.69628225 .52178133 -.39070363 .99585823 429.2724 -353.95504)"/><path d="m737.91647 517.15216a47.224632 89.398499 0 0 1 -46.0609 89.37135 47.224632 89.398499 0 0 1 -48.33101-84.96666 47.224632 89.398499 0 0 1 43.67888-93.55895 47.224632 89.398499 0 0 1 50.48374 80.35558" fill="url(#i)" transform="matrix(.62297194 .48185056 -.34956714 .91964741 458.63341 -286.9626)"/></g><g transform="matrix(.42882573 .00258156 -.00259627 .42639401 3.950415 -3.010888)"><path d="m35.12694 7.3500759c-3.057856.087289-5.484389 1.0560825-5.484389 2.2243336v3.5701185c0 1.225706 2.670932 2.224333 5.94142 2.224333 3.270486 0 5.916029-.998627 5.916029-2.224333 0-.277699 0-3.2924195 0-3.5701185 0-1.2257062-2.645543-2.2243336-5.916029-2.2243336-.153305 0-.306646-.00429-.457031 0z" fill="#c00" stroke="#a40000" stroke-linecap="round"/><ellipse cx="52" cy="49.75" fill="#3465a4" rx="5.375" ry="1.5" transform="matrix(.886278 0 0 .468914 -10.44392 -9.718859)"/><path d="m27.926447 39.155467 1.047009-21.349435 2.486646-3.663512c1.971292-.635437 6.726427-.635437 8.506948 0l2.486647 3.031873 2.617523 22.486387z" fill="url(#j)" stroke="#5a5a5a" stroke-linecap="round"/><path d="m28.828495 38.896108s2.590673-9.531543 7.540188-9.531543c5.106601 0 8.168535 9.912805 8.168535 9.912805z" fill="url(#k)"/><path d="m29.180138 20.498708-.295913 6.474742c1.662489-1.078371 11.992511-1.264486 14.343625.387648l-.701548-6.597313c-1.39796-.953154-10.582838-1.478245-13.346164-.265077z" fill="#c00"/><path d="m29.048762 38.222096.877497-20.194312 1.839967-3.032835c1.818556-.592175 6.205258-.592175 7.847823 0l1.960481 2.532586 2.452224 21.248365z" fill="none" opacity=".594444" stroke="#fff" stroke-linecap="round"/><rect fill="url(#l)" height="3.927753" rx=".883884" stroke="#5a5a5a" stroke-linecap="round" stroke-width="1.000001" width="19.974413" x="26.512789" y="37.536133"/><path d="m29.395219 17.996451c1.874537-1.366188 9.097934-1.655174 12.71992-.606704l-2.337406-2.885623c-2.478201-.667208-5.924347-.375766-8.275461.06904z" fill="#fff"/><g fill="#e6e7e6" opacity=".577778"><path d="m31.009391 9.3809738v3.2400352s.611189-.347686.990609-.361321v-3.259688c-.481572.069463-.990609.3809738-.990609.3809738z" opacity=".411111"/><path d="m33.009391 8.7599648v3.2400352s.611189-.08252.990609-.09616v-3.3149267c-.511601.025805-.990609.1710515-.990609.1710515z"/><path d="m35.009391 8.561091v3.295278s.555946-.0052.990609.01433v-3.3370284c-.500552-.051535-.990609.02742-.990609.02742z" opacity=".444444"/></g></g></svg>