<svg height="24" viewBox="0 0 24 24" width="24" xmlns="http://www.w3.org/2000/svg"><g transform="translate(0 -1028.3622)"><g fill-rule="evenodd"><path d="m12.635236 1029.9843h-.01319c-.386784.02-.632833.1911-1.034373.4242-.401541.2332-.886687.551-1.428153.9268-1.0829316.7516-2.3898436 1.7314-3.6269035 2.6883-1.2370601.957-2.4043845 1.8899-3.2048639 2.5417-.4002398.3258-.7075659.5801-.8911821.7371-.091808.078-.1297185.1057-.2015993.1818-.00898.01-.01869.02-.037682.045-.00949.012-.039241.06-.039567.061-.0003248.0006-.065916.2108-.065943.2112-.0000276.0003.3332148.5219.3334867.522.000272 0 .2688534.01.2694272.01.0005737-.0002.057971-.02.07348-.027.015509-.01.027295-.013.035798-.018.068022-.037.074415-.047.109278-.072l-.5482747-.8172c.00527 0 .00956-.01.018841-.01.013753-.01.072169-.026.071596-.025-.0005738.0002.2640468.01.2637748.01-.0002719-.0001.3334591.5205.3334867.5202.0000276-.0004-.064384.2097-.064059.2092.0003249-.0006-.029426.044-.037682.055-.016512.022-.022204.029-.026378.033-.033392.035.040824-.038.1262351-.1114.1708235-.146.4773812-.3983.8742251-.7215.7936875-.6462 1.9546901-1.575 3.1841386-2.526 1.2294487-.9511 2.5271794-1.9246 3.5854533-2.6591.529137-.3671 1.000915-.6748 1.364093-.8856.363178-.2109.68999-.3032.612335-.2992h2.882681.01319c.281574-.015 1.003233.2953 1.541198.8291.537965.5336.894233 1.2286.838428 1.8064l.959009.1001c.09947-1.0299-.453778-1.9583-1.130463-2.6297s-1.47497-1.1482-2.260927-1.1046h.02637z" fill="#fff" stroke="#000" stroke-width=".491341"/><rect fill="#d3d7cf" height="6.495986" ry="1.010071" stroke="#2e3436" stroke-linecap="square" stroke-linejoin="round" stroke-width="1.004014" width="1.995986" x="17.502007" y="1033.3666"/><path d="m15.647593 1038.5121h5.704814v4.704814h-5.704814z" fill="#edd400" stroke="#c4a000" stroke-linecap="square" stroke-linejoin="round" stroke-width="1.295"/><path d="m16.856108 1039.7831h3.287786v1.787786h-3.287786z" fill="#edd400"/><path d="m13.507279 1051.8549v-7.9138c0-.5351 1.734966-2.0716 2.339089-2.0716h5.307263c.604121 0 2.33909 1.5365 2.33909 2.0716v7.9138" fill="#3465a4" stroke="#204a87" stroke-linecap="square" stroke-linejoin="round" stroke-width="1.014558"/></g><path d="m15.054699 1051.8075v-7.4351c0-.398.888889-1.2055 1.363192-1.2055h4.16422c.474306 0 1.36319.8075 1.36319 1.2055v7.4351" fill="none" stroke="#729fcf" stroke-linecap="square" stroke-linejoin="round" stroke-width="1.109398"/><path d="m103.01917 176.83448v3.33618h1.07038v3.31337c-.53394.21185-1.07004.74923-1.07014 1.35893-.00009.60994.5362 1.14804 1.07014 1.3599v3.31153h-1.07038v3.33704h2.67594v-3.33704h-1.07038v-3.31153c.53394-.21186 1.07053-.74984 1.07062-1.3599.0001-.61031-.53608-1.1488-1.07062-1.3609v-3.3114h1.07038v-3.33618z" fill="#fff" stroke="#000" stroke-width=".298818" transform="matrix(1.6825479 0 .00000002 1.4706892 -172.9833 768.51795)"/></g></svg>