<svg height="24" viewBox="0 0 24 24" width="24" xmlns="http://www.w3.org/2000/svg" xmlns:xlink="http://www.w3.org/1999/xlink"><linearGradient id="a"><stop offset="0" stop-color="#424242"/><stop offset="1" stop-color="#777"/></linearGradient><linearGradient id="b" gradientTransform="matrix(.60072161 0 0 .60098717 -1.832228 -.055418)" gradientUnits="userSpaceOnUse" x1="18.112709" x2="15.514889" xlink:href="#a" y1="31.36775" y2="6.18025"/><linearGradient id="c" gradientTransform="matrix(.58553618 0 0 .59905303 -1.767658 .033281)" gradientUnits="userSpaceOnUse" x1="22.175976" x2="22.065331" y1="36.987999" y2="32.050499"><stop offset="0" stop-color="#6194cb"/><stop offset="1" stop-color="#729fcf"/></linearGradient><linearGradient id="d" gradientTransform="matrix(.77145159 0 0 .50194756 -2.348706 -.974753)" gradientUnits="userSpaceOnUse" x1="13.035696" x2="12.853771" y1="32.567184" y2="46.689312"><stop offset="0" stop-color="#fff" stop-opacity=".796078"/><stop offset="1" stop-color="#fff" stop-opacity=".215686"/></linearGradient><linearGradient id="e" gradientUnits="userSpaceOnUse" x1="1252.352031" x2="1268.352031" xlink:href="#a" y1="1398.52924" y2="1398.52924"/><linearGradient id="f" gradientUnits="userSpaceOnUse" x1="1022.11945" x2="1017.19251" xlink:href="#a" y1="1348.82436" y2="1352.53469"/><linearGradient id="g" gradientUnits="userSpaceOnUse" x1="-37.50228" x2="-48.06468" xlink:href="#a" y1="1500.3371" y2="1505.60102"/><path d="m.88410335 23.195223c.013093.250194.27627475.500388.52635795.500388h18.8188177c.250082 0 .487072-.250194.473979-.500388l-.562542-16.362918c-.013098-.250193-.276269-.500392-.526352-.500392h-7.9721c-.291384 0-.741575-.189664-.841998-.665071l-.367276-1.738699c-.093395-.44213-.5299646-.623756-.7800479-.623756h-8.87797962c-.25008809 0-.48707757.250193-.4739843.500387z" fill="#fff" stroke="url(#b)" stroke-linecap="round" stroke-linejoin="round" stroke-width=".600854"/><path d="m.003854 0h23.996141v23.996084h-23.996141z" fill="#bebebe" opacity="0"/><g transform="matrix(.92555949 0 0 .90802886 35.018322 -935.84997)"><path d="m-25.985069 1047.7596h12.5v-5h-12.5c-1.38071 0-2.5 1.1192-2.5 2.5 0 1.3807 1.11929 2.5 2.5 2.5z" fill="#bebebe" stroke="url(#e)" stroke-linecap="round" stroke-linejoin="round"/><path id="h" d="m305.89648 230.49414c-.77533.0165-1.52756.93771-1.38671 1.69922a.99446835.99446835 0 0 1 .006.0469c.0902.66322.80075 1.27805 1.46485 1.26563a.99446835.99446835 0 0 1 .0195 0h11.50586v-3.01172c-3.87231.0004-7.74026-.006-11.60938 0z" fill="none" opacity=".3" stroke="#fff" stroke-linecap="round" stroke-linejoin="round" transform="translate(-331.98506 813.2596)"/><g enable-background="new" transform="matrix(.73598908 -.67699341 .67699341 .73598908 -400.883665 1088.423298)"><path d="m306 224.5h12.5v-5h-12.5c-1.38071 0-2.5 1.11929-2.5 2.5s1.11929 2.5 2.5 2.5z" fill="#f57900" stroke="url(#f)" stroke-linecap="round" stroke-linejoin="round"/><use height="300" transform="translate(331.98506 -823.2596)" width="400" xlink:href="#h"/></g><g enable-background="new" fill="#edd400" transform="matrix(0 -1 1 0 -248.19134 1350.7403)"><path d="m306 224.5h12.5v-5h-12.5c-1.38071 0-2.5 1.11929-2.5 2.5s1.11929 2.5 2.5 2.5z" stroke="url(#g)" stroke-linecap="round" stroke-linejoin="round"/><use height="300" transform="translate(331.98506 -823.2596)" width="400" xlink:href="#h"/></g><g enable-background="new"><circle cx="-25.98506" cy="1045.2596" fill="#888a85" r="1"/><circle cx="-26.17935476" cy="1045.12590528" fill="#fff" r=".50281554"/></g></g><path d="m21.527038 23.702238c.669792-.02639 1.149451-.656742 1.198615-1.390406.463618-6.918276.971614-12.7190634.971614-12.7190634.04224-.1482565-.09832-.2965121-.28114-.2965121h-20.1255542s-1.0834287 13.0994285-1.0834287 13.0994285c-.067076.588309-.2728642 1.081121-.9074848 1.308161l20.2273787-.0016z" display="block" fill="url(#c)" stroke="#3465a4" stroke-linejoin="round" stroke-width=".592262"/><path d="m3.7994298 9.960143 19.2007262.039857-.921678 12.299996c-.04937.658913-.263893.878264-1.096528.878264-1.095851 0-16.7922948-.01993-18.3830937-.01993.1367828-.197279.1954297-.607942.1962147-.617775z" fill="none" opacity=".465909" stroke="url(#d)" stroke-linecap="round" stroke-width=".600063"/></svg>