<svg height="24" viewBox="0 0 24 24" width="24" xmlns="http://www.w3.org/2000/svg" xmlns:xlink="http://www.w3.org/1999/xlink"><linearGradient id="a"><stop offset="0" stop-color="#fff"/><stop offset="1" stop-color="#fff" stop-opacity="0"/></linearGradient><linearGradient id="b" gradientTransform="matrix(.47280006 0 0 .60134895 -.347204 1028.0216)" gradientUnits="userSpaceOnUse" x1="35" x2="0" xlink:href="#a" y1="47" y2="-6"/><linearGradient id="c" gradientTransform="matrix(1.1999998 0 0 1.2 -8.299991 -5.5)" gradientUnits="userSpaceOnUse" x1="33.5" x2="44.5" xlink:href="#a" y1="27.5" y2="27.5"/><radialGradient id="d" cx="23" cy="12.811336" fx="22.305519" fy="9.10744" gradientTransform="matrix(1 0 0 .75 8 12.75)" gradientUnits="userSpaceOnUse" r="4"><stop offset="0" stop-color="#fff"/><stop offset="1" stop-color="#555753"/></radialGradient><linearGradient id="e" gradientUnits="userSpaceOnUse" x1="29.849625" x2="35.907148" xlink:href="#a" y1="20.702785" y2="26.132356"/><g transform="translate(0 -1028.3622)"><path d="m.50520695 1028.8674h20.98958605v19.9896h-20.98958605z" style="fill:#eeeeec;stroke:#888a85;stroke-width:1.010414;stroke-linecap:round;stroke-linejoin:round;stroke-dashoffset:1.96"/><path d="m1.7803985 1030.1427h18.4392025v17.4391h-18.4392025z" style="stroke:#fff;stroke-width:1.560797;stroke-linecap:round;stroke-linejoin:round;stroke-dashoffset:1.96;fill:url(#b)"/><path d="m4.63046 1032.2612c-.907935 3.4281-.62787 7.0605-.305385 10.5661.0432.9667.11835 1.9559.45975 2.8542.0075.9456-1.397175.8468-1.400025-.062-.19446-1.0875.181845-2.1664.1476-3.2586.1059-3.2395.23646-6.5553 1.261905-9.6178.17769-.5611.426855-1.8375 1.15836-1.2392.424125.5848.37098 1.4246.31071 2.1361-.222855 2.1351-1.061295 4.2239-.714765 6.4057.17127 1.5229.187245 3.064.280935 4.5907.1095.9783-1.098465.6795-.967155-.1264.19167-.6327.350775-1.2692.4662-1.928.643665-3.0282 1.4442-6.0104 2.06034-9.0465-.16275-.644.557295-1.5512.945105-.7252.420645.7948.0315 1.7227-.200685 2.5113-.45144 1.4118-.97578 2.8948-.756765 4.4271.0963 1.7429.0378 3.492.1473 5.2341-.0606.9701-1.51608.3615-1.04244-.4217.20337-.9599.534495-1.8813.676635-2.8584.68166-3.0547 1.590525-6.0675 2.95563-8.8195.740055.5359.757725 1.7548.36351 2.5553-.58596 1.8177-1.70913 3.4741-1.72587 5.4816.0486.764.20808 1.5976-.1446 2.3029-.908925.058-.51222-1.3435-.0648-1.7423.42651-1.1459.669525-2.3794 1.18533-3.4856.26541-.5069.604665-1.5216 1.26159-1.0456.652815.4617.264525 1.2652.0576 1.8727-.182175.6364-.219765 1.3459-.522645 1.9255-.71199.5822-.88104-1.1975-.039-.9926.543195-.1521 1.298655.016 1.51854.6735.27372.7432-.980175 1.124-1.095015.4072.261525-.6283.507345.3819.1176.5566-.3669.2738-.947745.2914-1.292115-.075-.36471-.3465-.410535-.9927-.1242-1.4174.315165-.695.184305-1.5394.508875-2.2247.357825-.5963 1.162665.093.582015.5802-1.002945 1.5459-.799635 3.6901-1.8651 5.1985-.425145.8935-1.54026-.027-1.214985-.837.194115-.6919.233085-1.444.37959-2.1567.321705-1.9458.78303-3.8744 1.54428-5.6604.048-.6605.93318-1.4235 1.08111-.4115.12765.735-.5796 1.0745-.764745 1.7023-.64353 1.1677-1.32567 2.3874-1.459545 3.7901-.373695 1.2102-.69342 2.4668-.66087 3.7619-.045.7365-.1212 1.4877-.3912 2.1671-.54741.4891-1.268115-.3418-1.134795-1.0105.17358-1.1582.12075-2.3378.18708-3.5074.0939-2.7771.49461-5.5304 1.03599-8.2366-.259275-.9583 1.167555-.9578 1.10034-.043.219975.8865-.227445 1.737-.44598 2.563-.43398 1.2541-1.002705 2.4775-1.142745 3.8345-.7395 1.8686-.575925 3.9808-1.04112 5.9262-.30834.8015-1.37859.2074-1.272585-.5537-.03-2.0049-.08505-4.0124.04455-6.0149.12105-2.2387.35274-4.4671.599745-6.6916-.10455-.8509.91548-.458.98637.1245.0267.5402-.20022 1.0711-.44106 1.5326-.725145 1.255-1.291035 2.7335-1.14678 4.2683-.09555 1.1645-.39579 2.3332-.19005 3.5056.1077 1.3976.323505 2.8123.11265 4.2116-.53451.6724-1.203645-.3364-1.232775-.9661-.46659-2.1707-.38133-4.4222-.27372-6.6336.051-1.7494.0561-3.5082.200115-5.2484.10905-.7631.80682-1.0389 1.3362-.6087z" fill="#729fcf"/><g transform="matrix(.68729734 .04018554 -.0552622 .90602412 -6.241345 1018.8917)"><rect fill="#c17d11" height="1.868961" rx="1.939125" ry=".93448" stroke="#8f5902" stroke-dashoffset="1.96" stroke-linecap="round" stroke-width="1.930128" transform="matrix(.8997453 .4364154 -.37560381 .92678033 0 0)" width="13.601209" x="40.303612" y="7.079619"/><g stroke-width="1.927989"><path d="m32.5 24.5 11.999997 6" fill="none" stroke="url(#c)" stroke-dashoffset="1.96" stroke-linecap="round"/><path d="m34.152603 25.518479c-1.009996 1.33264-2.634266 1.282064-4.284701.0075-1.629359-1.25824-2.367902-4.025979-2.367902-4.025979 1.713247 1.170566 3.49089.122618 5.01895.538741 2.014046.548469 2.357239 2.525002 1.633653 3.479738z" fill="url(#d)" fill-rule="evenodd" stroke="#2e3436"/><path d="m29.867902 25.526003c-1.629359-1.258264-2.367902-4.026003-2.367902-4.026003 1.713247 1.170566 2.97194.08388 4.5.500001-1.51895.96126-2 2-2.132098 3.526002z" fill="#3465a4" fill-rule="evenodd" stroke="#729fcf"/><path d="m29.086934 22.970488s2.241276-.331457 3.409265.126269c1.167989.457725.757615 2.020304.757615 2.020304" fill="none" stroke="url(#e)" stroke-dashoffset="1.96" stroke-linecap="round"/></g></g><path d="m-.000007 1049.3624h24v2.999776h-24z" fill="none"/></g></svg>