<svg height="24" width="24" xmlns="http://www.w3.org/2000/svg" xmlns:xlink="http://www.w3.org/1999/xlink"><linearGradient id="a" gradientUnits="userSpaceOnUse" x1="26.162951" x2="24.328892" xlink:href="#l" y1="30.543303" y2="30.985245"/><linearGradient id="b" gradientTransform="matrix(.755165 .395143 -.395143 .755165 -25.91245 6.532586)" gradientUnits="userSpaceOnUse" x1="13.236155" x2="7.752109" xlink:href="#m" y1="37.752247" y2="42.282146"/><radialGradient id="c" cx="15.415101" cy="35.356506" gradientTransform="matrix(1.572694 0 0 1.532639 -55.36682 -21.35823)" gradientUnits="userSpaceOnUse" r="7.579156"><stop offset="0" stop-color="#696969"/><stop offset="1"/></radialGradient><linearGradient id="d" gradientUnits="userSpaceOnUse" x1="-27.012215" x2="-23.297619" y1="28.198475" y2="31.635975"><stop offset="0" stop-color="#bdbdbd"/><stop offset=".33333334" stop-color="#e2e2e2"/><stop offset=".66666669" stop-color="#a3a3a3"/><stop offset="1" stop-color="#ddd"/></linearGradient><linearGradient id="e" gradientUnits="userSpaceOnUse" x1="-12.287321" x2="-21.551067" y1="21.117612" y2="13.060211"><stop offset="0" stop-color="#6e3d09"/><stop offset=".24242425" stop-color="#ea8113"/><stop offset=".62121212" stop-color="#5c3307"/><stop offset="1" stop-color="#e07c12"/></linearGradient><radialGradient id="f" cx="69.47323853507" cy="19.59787596846" gradientUnits="userSpaceOnUse" r="4.63489932523"><stop offset="0" stop-color="#fff"/><stop offset="1" stop-color="#b9b9b0"/></radialGradient><linearGradient id="g" gradientUnits="userSpaceOnUse" x1="6.305153" x2="5.984629" xlink:href="#m" y1="23.362427" y2="31.57"/><radialGradient id="h" cx="6.024219" cy="25.271027" gradientTransform="matrix(.916159 .09318684 -.108765 1.069309 3.253668 -3.029272)" gradientUnits="userSpaceOnUse" r="4.831029"><stop offset="0" stop-color="#5b676b"/><stop offset="1" stop-color="#141718"/></radialGradient><linearGradient id="i" gradientUnits="userSpaceOnUse" x1="14.96875" x2="39.524544" xlink:href="#m" y1="19.110678" y2="46.98568"/><linearGradient id="j" gradientUnits="userSpaceOnUse" x1="28.513587" x2="17.376654" xlink:href="#l" y1="28.429326" y2="30.639035"/><radialGradient id="k" cx="18.557627" cy="22.300018" gradientTransform="matrix(1.77275 0 0 1.29668 -16.3404 -6.615959)" gradientUnits="userSpaceOnUse" r="19.2292"><stop offset="0" stop-color="#857c63"/><stop offset="1" stop-color="#221f19"/></radialGradient><linearGradient id="l"><stop offset="0"/><stop offset="1" stop-opacity="0"/></linearGradient><linearGradient id="m"><stop offset="0" stop-color="#fff"/><stop offset="1" stop-color="#fff" stop-opacity="0"/></linearGradient><g transform="matrix(.5217739 0 0 .5217739 -.313108 -1.151454)"><path d="m10.374369 12.467884s2.874509 5.927634 9.599242 5.760407c14.092515-.353553 16.335615-7.645572 17.859175-9.4622811 5.062357 42.6516241-31.8192372 24.5961131-33.1152716 17.4904571 7.2478446-2.12132 5.4800776-6.187185 5.4800776-6.187185l.176777-7.601398z" fill="url(#k)" fill-rule="evenodd" stroke="#2e3436" stroke-miterlimit="10" stroke-width=".983645"/><path d="m15.73779 30.066049c6.7389 1.347837 10.170691.09809 12.179175-1.452776-.53033-.68501-1.43631-1.436311-1.43631-1.436311s2.353317.653942 3.18198 1.723573c.82629 1.066568.306808 1.723707.09056 3.08837-.481411-1.198599-1.379981-1.648092-1.501634-2.124332-1.806268 2.496927-6.306442 2.3932-12.513772.201476z" fill="url(#j)" fill-rule="evenodd"/><path d="m36.960938 11.824219c-.56181.93015-1.398897 2.044455-2.6875 3.111328-2.631918 2.179042-7.046657 4.174065-14.277344 4.355469-4.227472.105126-6.951375-1.952777-8.623047-3.769532l-.111328 4.480469c.136236.419607.397529 1.395368-.08008 2.722656-.513689 1.42756-2.1595021 2.86828-4.9667972 3.976563.2489928.522717.481845 1.073036 1.2402343 1.814453 1.0279504 1.004945 2.4765646 2.08219 4.1757809 3.056641 3.398434 1.948901 7.80549 3.485399 11.910157 3.554687 4.104667.06929 7.835641-1.224784 10.416015-4.990234 2.380198-3.47334 3.689352-9.369828 3.003907-18.3125z" fill="none" opacity=".185393" stroke="url(#i)" stroke-miterlimit="10" stroke-width=".983645"/><ellipse cx="6.098796" cy="27.228739" fill="url(#h)" fill-rule="evenodd" rx="4.331029" ry="6.098796" stroke="#000" stroke-miterlimit="10" stroke-width=".983645" transform="matrix(.810984 -.585069 .585069 .810984 -14.77791 6.947121)"/><path d="m6.09375 22.169922c-.7982492 0-1.5648492.444218-2.1992188 1.341797-.6343695.897579-1.0683593 2.222485-1.0683593 3.707031s.4339898 2.809452 1.0683593 3.707031c.6343696.897579 1.4009699 1.341797 2.1992188 1.341797.7982492 0 1.5772839-.447092 2.21875-1.345703s1.0800781-2.221811 1.0800781-3.703125-.4386119-2.804514-1.0800781-3.703125-1.4205011-1.345703-2.21875-1.345703z" fill="none" opacity=".280899" stroke="url(#g)" stroke-miterlimit="10" stroke-width=".983645" transform="matrix(.800389 -.599481 .599481 .800389 -15.2744 7.32784)"/><g fill-rule="evenodd"><ellipse cx="4.065864" cy="23.251263" fill="#fff" rx="1.767767" ry="2.12132"/><circle cx="13.611794" cy="21.837049" fill="#eeeeec" r="3.181981" stroke="#888a85" stroke-miterlimit="10" stroke-width=".983645"/><circle cx="69.473244" cy="21.837049" fill="url(#f)" r="3.181981" stroke="#888a85" stroke-miterlimit="10" stroke-width=".655763" transform="matrix(1.5 0 0 1.5 -82.16821 -10.91852)"/><circle cx="23.15775" cy="22.544157" fill="#2e3436" r="2.298097" stroke="#000" stroke-miterlimit="10"/><circle cx="22.273865" cy="21.4834965" fill="#fff" r="1.5909903"/><circle cx="14.63954067059" cy="22.27900039887" fill="#2e3436" r="1.41421442234" stroke="#000" stroke-miterlimit="10" stroke-width="1.000000625"/><circle cx="14.09560086308" cy="21.62627662259" fill="#fff" r=".97907068188"/></g><g transform="matrix(-.114852 -.389864 .389864 -.114852 24.71507 29.68942)"><g stroke-linecap="round"><path d="m-23.364209 23.568336 3.710098 3.469175c8.346983-6.380847 17.0940772-20.0993736 17.0940772-20.0993736 1.97631487-2.2424123-.1169199-3.7504826-2.1649066-2.3979188 0 0-12.9703626 10.1148664-18.6392686 19.0281174z" fill="url(#e)" stroke="#673907" stroke-width="2.420211"/><path d="m-30.449715 32.813894 2.24632 1.93382 8.492766-7.367031.275061-.705828 1.094405-.01782c-.4375-1.5625-2.941514-4.383455-4.816514-4.383455l.08202 1.090075-.669991.380027-6.704066 9.070207z" fill="url(#d)" stroke="#888a85" stroke-width="2.420211"/><path d="m-23.801371 28.376767-4.364933 5.266471" fill="none" stroke="#fff" stroke-linejoin="round" stroke-width="2.460453"/></g><path d="m-45.341208 42.769835c10.443958 0 18.370039 1.24373 19.870605-6.354738 1.209249-6.123314-7.210534-9.057368-11.38287-3.590861-4.019277 5.265971-8.487735 9.945599-8.487735 9.945599z" fill="url(#c)"/><circle cx="-28.9671116949" cy="36.62905825" fill="#fff" opacity=".527778" r="2.58737875"/><circle cx="-21.40566027167" cy="26.84761475" fill="#fff" r="1.74583625"/><path d="m-38.543723 40.909242s3.72152.0943 6.116538-1.411995c.847351-.532923 1.515774.649985.493819 1.087367-2.207394.944732-6.610357.324628-6.610357.324628z" fill="url(#b)" opacity=".427778"/></g><path d="m23.003067 31.736544c1.497372.143092 2.849629-.272213 3.411893-.474047.09822-.555386.536552-1.621257 2.046088-1.691468l-.53033-.928077s-1.966641 1.347921-4.065864 1.745669l-.861787 1.347923z" fill="url(#a)" fill-rule="evenodd"/></g><path d="m.326998.326998h23.346004v23.346004h-23.346004z" fill="#eeeeec" opacity="0" stroke="#555753" stroke-width=".653995"/></svg>