<svg height="24" viewBox="0 0 24 24" width="24" xmlns="http://www.w3.org/2000/svg" xmlns:xlink="http://www.w3.org/1999/xlink"><linearGradient id="a" gradientUnits="userSpaceOnUse" x1="17.95908562562" x2="-8.57910579613" y1="1035.82957513829" y2="1062.17791327541"><stop offset="0"/><stop offset="1" stop-opacity="0"/></linearGradient><g transform="translate(0 -1028.3622)"><path d="m11.999996 1028.7375-5.2499975 4.1247h3.7499985v6h-5.9999073l-.0001801-3.75-4.12459101 5.25 4.12459101 5.052v-3.552h6.0000874v6h-3.7499985l5.2499975 4.1247 5.249998-4.1247h-3.749999v-6h5.999998v3.948l4.124681-5.448-4.124681-5.25v3.75h-5.999998v-6h3.749999z" style="fill:#3465a4;fill-rule:evenodd;stroke-width:.750665;stroke-linecap:round;stroke-linejoin:round;stroke-miterlimit:10;stroke:url(#a)"/><g fill="#d3d7cf"><path d="m1.500001 1039.9872h21.000269v.75h-21.000269z" opacity=".33"/><path d="m1029.8619-12.374996h21.000269v.75h-21.000269z" opacity=".33" transform="rotate(90)"/><path d="m-7.6210137 1032.1795-1.700032-1.45 2.1058261-.7473z" opacity=".5" transform="matrix(1.2979666 -.48616464 1.064361 .59286793 -1074.8903 415.44856)"/><path d="m-7.6210137 1032.1795-1.700032-1.45 2.1058261-.7473z" opacity=".5" transform="matrix(1.2979666 .48616464 1.064361 -.59286793 -1074.8695 1665.3571)"/><path d="m-7.6210137 1032.1795-1.700032-1.45 2.1058261-.7473z" opacity=".5" transform="matrix(.48616464 -1.2979666 -.59286793 -1.064361 636.96143 2127.3281)"/><path d="m-7.6210137 1032.1795-1.700032-1.45 2.1058261-.7473z" opacity=".5" transform="matrix(-.48616464 -1.2979666 .59286793 -1.064361 -612.94767 2127.2153)"/></g></g></svg>