<svg height="24" viewBox="0 0 24 23.999999" width="24" xmlns="http://www.w3.org/2000/svg" xmlns:xlink="http://www.w3.org/1999/xlink"><linearGradient id="a" gradientTransform="matrix(.50990053 0 0 .57727428 1153.4888 137.93966)" gradientUnits="userSpaceOnUse" x1="17.247635" x2="39.904388" y1="6.376041" y2="38.876041"><stop offset="0" stop-color="#eeeeec"/><stop offset="1" stop-color="#e6e6e3"/></linearGradient><g fill-rule="evenodd"><path d="m6.8599028 18.781771s.6497177 2.721098-2.058981 2.746643c-1.2975791.01203-1.0317935 2.225113-1.0317935 2.225113l16.4696237-.017307s.223414-2.148029-1.079706-2.173212c-2.662922-.0508-2.034529-2.815842-2.034529-2.815842l-10.2646142.0346z" fill="#eeeeec" stroke="#888a85" stroke-width=".492471"/><path d="m2.0200813.25056145h19.8967317c1.056766 0 1.826913.82414815 1.826913 2.09327775l.0057 15.1268018c0 .976786-.275707 1.278795-1.061743 1.278795l-21.3754956-.010931c-.61537793-.016622-1.05336165-.285556-1.06162402-1.165692l.00792-15.337354c0-1.023984.80330742-1.98489755 1.76159822-1.98489755z" fill="url(#a)" stroke="#888a85" stroke-width=".501126"/><path d="m2.279891 2.27989h6.440218v13.440218h-6.440218z" fill="#c00" stroke="#a40000" stroke-dashoffset=".8" stroke-width=".559781"/></g><path d="m1.9990787.7672177c-.6529499 0-1.26959428.7354616-1.26959428 1.4633271v15.1809022c.003193.344922.0722061.453096.1414052.518633.0691991.06553.21173438.122697.45575178.129379l20.8231786.01784c.32896 0 .431365-.0608.473046-.110413.04167-.04963.112926-.225791.112926-.656936v-14.9723346c0-1.0344368-.523044-1.5703997-1.334703-1.5703997h-19.4020058z" fill="none" stroke="#fff" stroke-width=".546017"/><path d="m8.779891 2.27989h6.440218v13.440218h-6.440218z" fill="#73d216" fill-rule="evenodd" stroke="#4e9a06" stroke-dashoffset=".8" stroke-width=".559781"/><path d="m15.279891 2.27989h6.440218v13.440218h-6.440218z" fill="#3465a4" fill-rule="evenodd" stroke="#204a87" stroke-dashoffset=".8" stroke-width=".559781"/></svg>