<svg height="24" viewBox="0 0 24 24.000001" width="24" xmlns="http://www.w3.org/2000/svg"><g><g fill="#bebebe" stroke-width="1.4999998"><path d="m.00000274357.0000027765h5.9999992v5.9999992h-5.9999992z"/><path d="m6.00000194357 6.0000019765h5.9999992v5.9999992h-5.9999992z"/><path d="m12.00000114357.0000027765h5.9999992v5.9999992h-5.9999992z"/><path d="m18.00000034357 6.0000019765h5.9999992v5.9999992h-5.9999992z"/><path d="m12.00000114357 12.0000011765h5.9999992v5.9999992h-5.9999992z"/><path d="m.00000274357 12.0000011765h5.9999992v5.9999992h-5.9999992z"/><path d="m6.00000194357 18.0000003765h5.9999992v5.9999992h-5.9999992z"/><path d="m18.00000034357 18.0000003765h5.9999992v5.9999992h-5.9999992z"/><path d="m.00000274357 6.0000019765h5.9999992v5.9999992h-5.9999992z" opacity=".3"/><path d="m6.00000194357.0000027765h5.9999992v5.9999992h-5.9999992z" opacity=".3"/><path d="m18.00000034357.0000027765h5.9999992v5.9999992h-5.9999992z" opacity=".3"/><path d="m12.00000114357 6.0000019765h5.9999992v5.9999992h-5.9999992z" opacity=".3"/><path d="m18.00000034357 12.0000011765h5.9999992v5.9999992h-5.9999992z" opacity=".3"/><path d="m6.00000194357 12.0000011765h5.9999992v5.9999992h-5.9999992z" opacity=".3"/><path d="m12.00000114357 18.0000003765h5.9999992v5.9999992h-5.9999992z" opacity=".3"/><path d="m.00000274357 18.0000003765h5.9999992v5.9999992h-5.9999992z" opacity=".3"/></g><path d="m.49980267693.49965270988h23.00039243328v23.00039243328h-23.00039243328z" fill="none" stroke="#000" stroke-linecap="round" stroke-linejoin="round" stroke-width=".99960736672"/></g></svg>