<svg height="24" viewBox="0 0 24 24" width="24" xmlns="http://www.w3.org/2000/svg" xmlns:xlink="http://www.w3.org/1999/xlink"><linearGradient id="a" gradientTransform="matrix(.6008182 0 0 .60098717 -1.836377 23.944582)" gradientUnits="userSpaceOnUse" x1="18.112709" x2="15.514889" y1="31.36775" y2="6.18025"><stop offset="0" stop-color="#424242"/><stop offset="1" stop-color="#777"/></linearGradient><linearGradient id="b" gradientTransform="matrix(.58583149 0 0 .59874372 -1.306445 24.343264)" gradientUnits="userSpaceOnUse" x1="22.175976" x2="22.065331" y1="36.987999" y2="32.050499"><stop offset="0" stop-color="#6194cb"/><stop offset="1" stop-color="#729fcf"/></linearGradient><linearGradient id="c" gradientTransform="matrix(.77184067 0 0 .50168839 -1.887786 23.335751)" gradientUnits="userSpaceOnUse" x1="13.035696" x2="12.853771" y1="32.567184" y2="46.689312"><stop offset="0" stop-color="#fff" stop-opacity=".796078"/><stop offset="1" stop-color="#fff" stop-opacity=".215686"/></linearGradient><linearGradient id="d" gradientUnits="userSpaceOnUse" x1=".888907" x2="7.111118" y1="12.276211" y2="12.276211"><stop offset="0" stop-color="#555753"/><stop offset="1" stop-color="#d3d7cf"/></linearGradient><path d="m.88039079 47.195223c.01309514.250194.27631921.500388.52644261.500388h18.8218436c.250122 0 .48715-.250194.474055-.500388l-.562632-16.362918c-.0131-.250193-.276314-.500392-.526437-.500392h-7.973382c-.291431 0-.741694-.189664-.842133-.665071l-.367335-1.738699c-.09341-.44213-.53005-.623756-.7801735-.623756h-8.87940713c-.2501283 0-.48715589.250193-.47406051.500387z" fill="#fff" stroke="url(#a)" stroke-linecap="round" stroke-linejoin="round" stroke-width=".600903" transform="translate(0 -24)"/><path d="m0 0h24v23.996084h-24z" fill="#bebebe" opacity="0"/><path d="m.516424 9.069076h14.967161v6.414497h-14.967161z" fill="url(#d)" stroke="#2e3436" stroke-dashoffset="1.5" stroke-linecap="square" stroke-width="1.032833" transform="matrix(0 1.125002 -1.0741743 0 30.18679 .999978)"/><g transform="matrix(.99965663 0 0 1.0005166 -.465801 -24.322559)"><path d="m22 48c.670129-.02638 1.150031-.656403 1.199218-1.389688.463853-6.914704.972105-12.712496.972105-12.712496.04227-.14818-.09837-.296359-.281282-.296359h-20.1357041s-1.0839751 13.092665-1.0839751 13.092665c-.06711.588005-.2730018 1.080563-.9079425 1.307485l20.2375807-.0016z" display="block" fill="url(#b)" stroke="#3465a4" stroke-linejoin="round" stroke-width=".592258"/><path d="m4.2634507 34.265001 19.2104103.03984-.922143 12.293645c-.0494.658573-.264026.877811-1.097081.877811-1.096404 0-16.800764-.01992-18.3923652-.01992.1368518-.197181.1955282-.607632.1963136-.61746z" fill="none" opacity=".465909" stroke="url(#c)" stroke-linecap="round" stroke-width=".600059"/></g></svg>