<svg height="24" viewBox="0 0 24 24" width="24" xmlns="http://www.w3.org/2000/svg" xmlns:xlink="http://www.w3.org/1999/xlink"><linearGradient id="a" gradientTransform="matrix(1.2195963 0 0 1.084097 -23.847217 -17.436101)" gradientUnits="userSpaceOnUse" x1="104.0002" x2="113.9572" xlink:href="#b"/><linearGradient id="b"><stop offset="0" stop-color="#e7ce79"/><stop offset="1" stop-color="#c17d11"/></linearGradient><linearGradient id="c" gradientTransform="matrix(-.92933343 .6704774 .63351983 .98354784 -20.594738 769.68442)" gradientUnits="userSpaceOnUse" x1="104.0002" x2="113.9572" xlink:href="#b"/><linearGradient id="d" gradientTransform="matrix(-.89235914 .60799632 .60831472 .89189205 -19.482726 795.25599)" gradientUnits="userSpaceOnUse" x1="104.0002" x2="113.9572" xlink:href="#b"/><g transform="matrix(1.500001 0 0 1.500001 -.000003 -1554.54432)"><path d="m109.74476 197.75561c-.26305.19407-.39392.51966-.55998.80957l-5.4746 9.98695c-.66431 1.15946-.31725 2.12879.56109 3.11363l1.79124.79061c1.31128.61986 2.39957.0361 3.06388-1.1234l5.53646-10.15983c.6643-1.15947.19355-2.64745-1.11774-3.26731l-1.25633-.55819c-.98346-.46491-1.75497-.17431-2.54402.40797zm-1.91732 4.82168c.40208-.26604.98884-.19783 1.2958.15066.30696.34846.22825.85701-.17384 1.12306-.40209.26603-.98885.19782-1.29581-.15068-.30696-.34847-.22825-.85701.17385-1.12304zm-1.21155 2.14568c.40207-.26606.98883-.19783 1.2958.15066.30695.34847.22825.85701-.17383 1.12305-.40208.26603-.98884.19781-1.2958-.15067-.30698-.34847-.22826-.85701.17383-1.12304zm3.68727-1.09566c.40207-.26603.98884-.19782 1.29581.15067.30695.34847.22825.85701-.17384 1.12305s-.98885.19783-1.2958-.15066c-.30697-.34848-.22826-.85701.17383-1.12306zm-1.21154 2.14568c.40209-.26603.98883-.19782 1.29581.15066.30696.34847.22826.85702-.17383 1.12304-.40209.26605-.98886.19784-1.29582-.15065-.30696-.34848-.22826-.85702.17384-1.12305z" fill="url(#a)" transform="matrix(.90470015 0 0 .97094713 -90.545446 845.41587)"/><path d="m8.7320244 1037.1288c-.2379814.1986-.449636.4532-.5998705.75l-5.1393845 10.1241c-.6010013 1.1867-.1191489 2.6508 1.0671572 3.2853l1.0433545.5517c1.1863153.6345 2.6175147.1961 3.218516-.9907l5.1393889-10.124c.600993-1.1869.119158-2.6509-1.067166-3.2853l-1.043345-.5518c-.889737-.4758-1.904797-.3554-2.6186506.2407z" fill="none" opacity=".561" stroke="#000" stroke-width=".468619"/><path d="m3.4439032 1038.2745c.3138393.031.6375009.1285.9334311.3002 4.7810163 2.8909 6.7391587 3.9003 10.1087387 5.8505 1.183761.6868 1.613787 2.2773.976822 3.5605l-.563813 1.123c-.636953 1.2833-2.092655 1.7645-3.276418 1.0777l-10.1087457-5.8504c-1.18375997-.6868-1.61377987-2.2772-.97682204-3.5606l.56380914-1.123c.4777354-.9624 1.4014702-1.4724 2.3429978-1.3779zm4.195626 3.4058c-.4618433-.021-.8690964.3642-.8993488.8491-.030252.4849.3268906.9031.7887628.9233.4618432.02.8690866-.3641.8993487-.8491.030252-.4848-.3268904-.903-.7887627-.9233zm2.1771045 1.2807c-.4618528-.02-.869116.3641-.8993684.849-.030252.4849.3268906.903.7887344.9234.4618523.02.8690923-.3642.8993443-.8492.03026-.4848-.326868-.903-.7887103-.9232zm-3.4500022 1.033c-.4618239-.021-.8690771.3641-.8993487.8491-.030252.4848.3269001.9029.7887531.9233.4618529.02.8690962-.3642.8993486-.8491.030252-.4849-.3268807-.903-.788753-.9233zm2.1770945 1.2806c-.4618528-.02-.869106.3641-.8993681.8491-.030252.4849.3268906.9029.7887338.9233.4618722.02.8691253-.3641.8993675-.8491.030256-.4849-.3268608-.903-.7887332-.9233z" fill="url(#c)" opacity=".559" stroke="#000" stroke-width=".484528"/><path d="m3.3206379 1038.5742c.3013603.029.8910119.3587 1.1751806.5144l9.7065565 5.3054c1.136668.6227 1.549576 2.065.937955 3.2287l-.640982 1.335c-.61161 1.1637-1.909791 1.3393-3.046464.7165l-9.7065698-5.3612c-1.13666499-.6227-1.54957114-2.0651-.93794967-3.2287l.54137207-1.0184c.458721-.8728 1.0668304-1.5774 1.9709013-1.4917zm4.3075811 3.3307c-.4434687-.018-.8345194.3302-.8635694.7699-.029088.4398.313878.8189.7573759.8374.4434688.018.8345194-.3303.8635695-.7701.029089-.4397-.3138781-.8188-.757376-.8372zm2.0904783 1.1612c-.4434789-.018-.8345297.3303-.8635797.77-.029088.4397.3138877.8189.7573567.8372.4434687.019.8345267-.3302.8635767-.7699.02909-.4397-.313885-.8188-.7573537-.8373zm-3.3127323.9368c-.4434494-.019-.8345098.3303-.8635695.77-.029088.4398.3138877.8188.7573662.8373.4434785.018.8345291-.3303.8635696-.77.029088-.4397-.3138685-.8189-.7573663-.8373zm2.090468 1.1613c-.4434785-.018-.8345194.3302-.8635791.77-.029088.4397.3138877.8189.7573565.8372.4434881.019.8345385-.3302.8635885-.7699.029086-.4398-.313868-.8188-.7573659-.8373z" fill="url(#d)" stroke-width=".969056"/><g fill="none" stroke="#000" stroke-linecap="round" stroke-linejoin="round" stroke-width=".374668"><ellipse cx="9.815909" cy="1043.8246" opacity=".561" rx=".699393" ry=".711223"/><ellipse cx="6.255371" cy="1044.7762" opacity=".561" rx=".699393" ry=".711223"/><ellipse cx="8.45949" cy="1045.9535" opacity=".561" rx=".699393" ry=".711223"/><ellipse cx="7.584487" cy="1042.6351" opacity=".561" rx=".699393" ry=".711223"/></g></g></svg>