<svg height="24" viewBox="0 0 24 24" width="24" xmlns="http://www.w3.org/2000/svg"><g transform="matrix(.57118758 0 0 .58691647 -1.710045 -1.8008)"><path d="m4.9016086 3.9323938h38.2009444c.578848 0 1.044854.4657562 1.044854 1.0442965v37.0760177c0 .578539-.466006 1.044297-1.044854 1.044297h-36.2363958s-3.009402-3.007798-3.009402-3.007798v-35.1125167c0-.5785403.4660045-1.0442965 1.0448534-1.0442965z" fill="#3465a4" stroke="#25375f" stroke-linecap="round" stroke-linejoin="round" stroke-width="1.727068"/><path d="m9.996795 9.883519h28.011814v17.0382h-28.011814z" fill="#fff"/><rect fill="#d31c00" height="5.111538" rx=".117844" ry=".161279" width="28.011814" x="9.996795" y="4.771981"/><rect height="1.70382" opacity=".738636" rx=".110478" ry=".107518" width="1.750738" x="6.495318" y="6.475879"/><path d="m4.6189226 4.5276647h38.7684814c.06992 0 .126208.056289.126208.1262077v37.6482386c0 .06992-.05629.126208-.126208.126208h-36.4591222s-2.4355669-2.391373-2.4355669-2.391373v-35.3830736c0-.069919.056289-.1262077.1262077-.1262077z" fill="none" opacity=".596591" stroke-linecap="round"/><g stroke="#525252"><path d="m14.185763 29.470343h19.633877c.882757 0 1.593426.688333 1.593426 1.543347v12.101424h-22.820729v-12.101424c0-.855014.710669-1.543347 1.593426-1.543347z" fill="#d3d7cf" stroke-width="1.689607"/><rect fill="#4967a2" height="9.327216" rx=".650645" ry=".696076" stroke-width=".89586" width="4.356435" x="16.572403" y="31.628906"/></g></g></svg>