/* XPM */
static char * arrow_down_xpm[] = {
"16 16 7 1",
" 	c None",
".	c #000000",
"+	c #248124",
"@	c #489F48",
"#	c #6DBD6D",
"$	c #6DBC6D",
"%	c #91DA91",
"                ",
"                ",
" .............  ",
"  .++++++++@.   ",
"  .+@@@@@@#@.   ",
"   .@$####@.    ",
"   .@$%%%#@.    ",
"    .@$%#@.     ",
"    .@$%#@.     ",
"     .@$@.      ",
"     .@$@.      ",
"      .@.       ",
"      .@.       ",
"       .        ",
"       .        ",
"                "};
