/* XPM */
static char * arrow_up_xpm[] = {
"16 16 8 1",
" 	c None",
".	c #000000",
"+	c #1D7B1D",
"@	c #3A933A",
"#	c #57AB57",
"$	c #74C274",
"%	c #91DA91",
"&	c #74C374",
"                ",
"       .        ",
"       .        ",
"      .+.       ",
"      .@.       ",
"     .@#@.      ",
"     .@#@.      ",
"    .@#$#@.     ",
"    .@#$#@.     ",
"   .@#$%&#@.    ",
"   .@#&&&#@.    ",
"  .+#######@.   ",
"  .@@@@@@@@@.   ",
" .............  ",
"                ",
"                "};
