/* XPM */
static char * circle_xpm[] = {
"16 16 14 1",
" 	c None",
".	c #000000",
"+	c #7A99D5",
"@	c #7BA2DC",
"#	c #729EDB",
"$	c #72A0DC",
"%	c #7DB0E7",
"&	c #7DB2E8",
"*	c #7BA0DB",
"=	c #7EB7EC",
"-	c #7EB9EE",
";	c #7EB6EB",
">	c #7EBAEE",
",	c #7FBAEF",
"                ",
"      ....      ",
"    ..++++..    ",
"   .@@@@@@@@.   ",
"  .@##$$$$##@.  ",
"  .@#%&&&&%#*.  ",
" .+@$&===-;%#@. ",
" .+@$&=>,-;%#@. ",
" .+@$&=,,-;%#@. ",
" .+@$&----;%#@. ",
"  .@#%;;;;%#@.  ",
"  .@#$%%%%#$@.  ",
"   .@@####@@.   ",
"    ..@@@@..    ",
"      ....      ",
"                "};
