/* XPM */
static char * cut_xpm[] = {
"16 16 5 1",
" 	c None",
".	c #808080",
"X	c #000080",
"o	c #7B0000",
"O	c #670000",
"                ",
"      .   .     ",
"      .   .     ",
"      X   X     ",
"      X. .X     ",
"      XX XX     ",
"      .X X.     ",
"       XXX      ",
"       .X.      ",
"       ooo      ",
"       o ooo    ",
"     ooo o Oo   ",
"    oO o o  o   ",
"    o  o oO o   ",
"    o Oo  oo    ",
"     oo         "};
