/* XPM */
static char * delete_xpm[] = {
"16 16 86 1",
" 	c None",
".	c #9D3E3E",
"+	c #882323",
"@	c #CC2F31",
"#	c #642728",
"$	c #F57474",
"%	c #F91F1F",
"&	c #9F2D2E",
"*	c #D76467",
"=	c #F66D6D",
"-	c #FEA9A9",
";	c #F41212",
">	c #6B3333",
",	c #CA3739",
"'	c #FE2C2C",
")	c #F60203",
"!	c #973338",
"~	c #DC3033",
"{	c #FD1111",
"]	c #FE0D0D",
"^	c #FC0101",
"/	c #C20405",
"(	c #3B1215",
"_	c #C91616",
":	c #FE0101",
"<	c #E90505",
"[	c #783E40",
"}	c #E22627",
"|	c #FF0000",
"1	c #FE0000",
"2	c #F30000",
"3	c #8E0004",
"4	c #360B36",
"5	c #CD1111",
"6	c #DD080A",
"7	c #E22020",
"8	c #DF0001",
"9	c #691417",
"0	c #D40405",
"a	c #C10003",
"b	c #500221",
"c	c #760303",
"d	c #F50000",
"e	c #F40000",
"f	c #C30003",
"g	c #513740",
"h	c #D90610",
"i	c #DB000F",
"j	c #D1000F",
"k	c #CC0014",
"l	c #A30A1A",
"m	c #CF0017",
"n	c #6E0010",
"o	c #71323D",
"p	c #B30221",
"q	c #9F082B",
"r	c #732233",
"s	c #B7001F",
"t	c #720016",
"u	c #221E21",
"v	c #AB3B7C",
"w	c #97002E",
"x	c #790A46",
"y	c #980B35",
"z	c #71021E",
"A	c #271C21",
"B	c #9A3474",
"C	c #770333",
"D	c #551530",
"E	c #7A002A",
"F	c #241218",
"G	c #732962",
"H	c #510549",
"I	c #6C0D37",
"J	c #351427",
"K	c #2E3030",
"L	c #582462",
"M	c #73567D",
"N	c #331926",
"O	c #4E1A41",
"P	c #1C1F20",
"Q	c #3C0F56",
"R	c #59415F",
"S	c #524D52",
"T	c #261333",
"U	c #3A1753",
"                ",
"  .+        @   ",
" #$%&     *=-;> ",
"  ,')!   ~{]^/( ",
"   _:<[ }|1234  ",
"    51671|89    ",
"     0111ab     ",
"     cdefg      ",
"     hijk       ",
"    lmnopq      ",
"   rstu vwx     ",
"   yzA   BC     ",
"  DEF     GH    ",
"  IJK      LM   ",
" NOP        Q   ",
" RS         TU  "};
