/* XPM */
static char *java_xpm[] = {
/* columns rows colors chars-per-pixel */
"16 16 125 2",
"   c black",
".  c #010000",
"X  c #010101",
"o  c #020101",
"O  c #060606",
"+  c #0E0000",
"@  c #0A0A0A",
"#  c #0C0C0C",
"$  c #130404",
"%  c #160F0F",
"&  c #111111",
"*  c #181717",
"=  c #1A1A1A",
"-  c #271C1C",
";  c #2F1D1D",
":  c #202020",
">  c #242525",
",  c #3B3A3A",
"<  c #3C3C3C",
"1  c #492020",
"2  c #5E2E2E",
"3  c #424242",
"4  c #434343",
"5  c #464646",
"6  c #474747",
"7  c #4A4A4A",
"8  c #4D4D4D",
"9  c #4E4E4E",
"0  c #515151",
"q  c #555555",
"w  c #585858",
"e  c #5C5C5C",
"r  c #626262",
"t  c #636363",
"y  c #646464",
"u  c #6D6161",
"i  c #696A6A",
"p  c #6C6C6C",
"a  c #6D6D6D",
"s  c #707070",
"d  c #717171",
"f  c #727272",
"g  c #747474",
"h  c #767676",
"j  c #777777",
"k  c #787878",
"l  c #797979",
"z  c #7B7B7B",
"x  c #7C7C7C",
"c  c #7D7D7D",
"v  c #7E7E7E",
"b  c #7F7F7F",
"n  c #841414",
"m  c #A81515",
"M  c #AA1515",
"N  c #A52D2D",
"B  c #8F6363",
"V  c #AA7575",
"C  c #C50000",
"Z  c #F50101",
"A  c #F42525",
"S  c #FF2626",
"D  c #C57777",
"F  c #ED4545",
"G  c #F67A7A",
"H  c #808080",
"J  c #818181",
"K  c #828282",
"L  c #848484",
"P  c #868686",
"I  c #878787",
"U  c #898989",
"Y  c #8D8D8D",
"T  c #8F8F8F",
"R  c #909090",
"E  c #919191",
"W  c #949494",
"Q  c #959595",
"!  c #979797",
"~  c #989898",
"^  c #9A9A9A",
"/  c #9B9B9B",
"(  c #9C9C9C",
")  c #9D9D9D",
"_  c #9E9E9E",
"`  c #A0A0A0",
"'  c #A3A3A3",
"]  c #A5A5A5",
"[  c #A9A9A9",
"{  c #ABABAB",
"}  c #ACACAC",
"|  c #ADADAD",
" . c #AEAEAE",
".. c #AFAFAF",
"X. c #B0B0B0",
"o. c #B3B3B3",
"O. c #B4B4B4",
"+. c #B5B6B6",
"@. c #B7B7B7",
"#. c #B9B9B9",
"$. c #BABABA",
"%. c #BBBBBB",
"&. c #BCBCBC",
"*. c #BDBDBD",
"=. c #BEBEBE",
"-. c #BFBFBF",
";. c #C8B9B9",
":. c #CCBDBD",
">. c #C0C0C0",
",. c #C3C3C3",
"<. c #D6CECE",
"1. c #D5D5D5",
"2. c #E1E1E1",
"3. c #E7E7E7",
"4. c #E9E7E7",
"5. c #E8E8E8",
"6. c #EEEBEB",
"7. c #EDEDED",
"8. c #EFEFEF",
"9. c #F8F8F8",
"0. c #FAFAFA",
"q. c #FEFEFE",
"w. c #FEFFFF",
"e. c gray100",
"r. c None",
/* pixels */
"r.r.r.r.r.r.*.@.y P *.r.r.r.r.r.",
"r.r.r.r.r.r.*.P = 5 O.r.r.r.r.r.",
"r.r.r.r.r.r.} < X = ` r.*.} O.r.",
"r.r.r.r.r.*.U # X @ g *.$.l l -.",
"r.r.r.r.r.O.7 X X X 9 O.*.p 5 } ",
"r.r.r.r.r.! * - 1 $ > ) *.r O d ",
"r.r.r.r.*.d ; D F n % x $.e = x ",
"r.r.*.} J , 2 G S C + q ! d U [ ",
"r.r.} p q i B A Z m u 9 t [ r.r.",
"%.O.x 5 R @.;.N m V 4.x l *.r.r.",
"} y : 3 L ,.9.<.:.6.e.) ~ *.r.r.",
"*.p # & 0 2.e.e.e.e.e.' ) *.r.r.",
"$.P 3 w x 8.e.6.4.9.e.' ~ *.r.r.",
"r.%.! J R 4.} b l Y 1.' ) *.r.r.",
"r.r.@.) b R l R ! J J U ' *.r.r.",
"r.r.r.X.p g } *.r.$.U f X.r.r.r."
};
