/* XPM */
static char *link_xpm[] = {
/* columns rows colors chars-per-pixel */
"16 16 10 1",
"  c black",
". c navy",
"X c blue",
"o c #008000",
"O c #008080",
"+ c #808080",
"@ c #C0C0C0",
"# c #D4D0C8",
"$ c gray100",
"% c None",
/* pixels */
"%%%@+@@+@%%%%%%%",
"%%+@O@##o %%%%%%",
"%@#@$#oooo %%%%%",
"+@X$@XXXXoo@%%%%",
"@X@##.ooXoo %%%%",
"@X#oooo.O.o %%%%",
"+XX#oooooXX %%%%",
"@XXXXooooOX %%%%",
"@.XXXooooX.@%%%%",
"% XXX    .    %%",
"%% . @$@$ $#$# %",
"%%% @         # ",
"%%% $ + @@@ + $ ",
"%%% #         # ",
"%%%% @$@# #@$# %",
"%%%%%    %    %%"
};
