/* XPM */
static char * map_info_xpm[] = {
"16 16 12 1",
" 	c None",
".	c black",
"X	c #38488D",
"o	c #BCC2D9",
"O	c white",
"+	c #4D5C99",
"@	c #6370A6",
"#	c #7A85B3",
"$	c #E8EAF2",
"%	c #D2D6E5",
"&	c #A6ADCC",
"*	c #9099BF",
"                ",
"   .........    ",
"  .XXXXXXXX..   ",
"  .XXXXXoO+.O.  ",
"  .XXXXXoOXX... ",
"  .XXXXX@#XXXX. ",
"  .XXX@o$%XXXX. ",
"  .XXXX#O&XXXX. ",
"  .XXXXOO#XXXX. ",
"  .XXX+O%+XXXX. ",
"  .XXX#O*@XXXX. ",
"  .XXXoOo&XXXX. ",
"  .XXX&O*XXXXX. ",
"  .XXXXXXXXXXX. ",
"   ...........  ",
"                "};
