/* XPM */
static char * open_xpm[] = {
"16 16 4 1",
" 	c None",
".	c #000000",
"+	c #FFFDA0",
"@	c #808000",
"                ",
"                ",
"          ...   ",
"         .   . .",
"              ..",
"  ...        ...",
" .+++.......    ",
" .+++++++++.    ",
" .+++++++++.    ",
" .++++..........",
" .+++.@@@@@@@@@.",
" .++.@@@@@@@@@. ",
" .+.@@@@@@@@@.  ",
" ..@@@@@@@@@.   ",
" ...........    ",
"                "};
