/* XPM */
static char * paste_xpm[] = {
"16 16 5 1",
" 	c None",
".	c black",
"X	c blue",
"o	c white",
"O	c #9A9A94949494",
"      .     XXX ",
"     .o.      X ",
".....o.o....  X ",
".OO.ooooo.O.  X ",
".O........O. XXX",
".OOOOOOOOOO.  X ",
".OOOOOOOOOO.    ",
".OOOOOO.......  ",
".OOOOOO.ooooo.. ",
".OOOOOO.o...o...",
".OOOOOO.ooooooo.",
".OOOOOO.o.....o.",
"........ooooooo.",
"       .o.....o.",
"       .ooooooo.",
"       ........."};
