/* XPM */
static char * polygon_xpm[] = {
"16 16 11 1",
" 	c None",
".	c #000000",
"+	c #7A96D3",
"@	c #7A9DD8",
"#	c #7B9DD9",
"$	c #7BA4DE",
"%	c #7CA5DE",
"&	c #7CACE3",
"*	c #7DACE4",
"=	c #7DB3E9",
"-	c #7FBAEF",
"                ",
"        ....... ",
"       .+++++@. ",
"      .@####@.  ",
"     .@$%%%$@.  ",
"    .@$&*&$@.   ",
"   .@$&==&$@.   ",
"  .+#%*=&$@.    ",
"  .+#%*=&$@.    ",
"  .+#%*-=&$@.   ",
"  .+#%===&$@.   ",
"  .+#&&&&&&$@.  ",
"  .+$$$$$$$$@.  ",
"  .@@@@@@@@@@@. ",
"  ............. ",
"                "};
