/* XPM */
static char * preferences_xpm[] = {
"16 16 5 1",
" 	c None",
".	c #707070",
"+	c #000000",
"@	c #D6D6D6",
"#	c #C1C1C1",
"                ",
"                ",
"                ",
" ...  ...  ...  ",
" .+@  .+@  .+@  ",
".###. .+@  .+@  ",
".+++. .+@  .+@  ",
" .+@ .###. .+@  ",
" .+@ .+++. .+@  ",
" .+@  .+@ .###. ",
" .+@  .+@ .+++. ",
" .+@  .+@  .+@  ",
" ...  ...  ...  ",
"                ",
"                ",
"                "};
