/* XPM */
static char * redo_xpm[] = {
"16 16 2 1",
" 	c None",
".	c #38488D",
"                ",
"                ",
"     ....       ",
"    ......      ",
"   ..    ...    ",
"  ...     ..  . ",
"  ..       .... ",
" ..        .... ",
" ..        .... ",
" ..       ..... ",
"                ",
"                ",
"                ",
" .. .. .. ..... ",
" .. .. .. ..... ",
"                "};
