/* XPM */
static char * save_xpm[] = {
"16 16 7 1",
" 	c None",
".	c #808080",
"+	c #000000",
"@	c #0000FF",
"#	c #FFFFFF",
"$	c #008080",
"%	c #C0C0C0",
"                ",
" .++++++++++++. ",
" +@+########+@+ ",
" +++########+++ ",
" +@+########+@+ ",
" +@+########+@+ ",
" +@+########+@+ ",
" +@+########+@+ ",
" +@$++++++++$@+ ",
" +@@@@@@@@@@@@+ ",
" +@@$++++++$@@+ ",
" +@@+%..%%%+@@+ ",
" +@@+.@@#%%+@@+ ",
" +@@+.@@#%%+@@+ ",
" .++++++++++++. ",
"                "};
