/* XPM */
static char * to_back_xpm[] = {
"16 16 5 1",
" 	c None",
".	c #F7A559",
"+	c #FFFF00",
"@	c #2F4AAA",
"#	c #798FCE",
"  ...           ",
" .+++.          ",
".+++++.         ",
".+++++.@@@@@@   ",
".+++++.#####@   ",
" .+++.######@   ",
"  ...#######@   ",
"   @########@   ",
"   @########@   ",
"   @#######...  ",
"   @######.+++. ",
"   @#####.+++++.",
"   @@@@@@.+++++.",
"         .+++++.",
"          .+++. ",
"           ...  "};
