/* XPM */
static char * zoom_in_xpm[] = {
"16 16 6 1",
" 	c None",
".	c #7F7F7F",
"+	c #000000",
"@	c #FFFFFF",
"#	c #D3D3D3",
"$	c #770333",
"   .++++.       ",
"  ++    ++      ",
" +.@@    .+     ",
".+@# $$   +.    ",
"+ #  $$    +    ",
"+  $$$$$$  +    ",
"+  $$$$$$  +    ",
"+    $$  . +    ",
".+  .$$ . +.    ",
" +.  ... .+     ",
"  ++    ++++    ",
"   .++++. +++   ",
"           +++  ",
"            +++ ",
"             +. ",
"                "};
