#define cursor_color_picker_width 32
#define cursor_color_picker_height 32
#define cursor_color_picker_x_hot 1
#define cursor_color_picker_y_hot 30
static unsigned char cursor_color_picker_bits[] = {
   0x00, 0x00, 0x00, 0x00, 0x00, 0x00, 0x00, 0x00, 0x00, 0x00, 0x00, 0x00,
   0x00, 0x00, 0x00, 0x00, 0x00, 0x00, 0x00, 0x00, 0x00, 0x00, 0x00, 0x00,
   0x00, 0x00, 0x00, 0x00, 0x00, 0x00, 0x00, 0x00, 0x00, 0x00, 0x00, 0x00,
   0x00, 0x00, 0x00, 0x00, 0x00, 0x00, 0x07, 0x00, 0x00, 0x80, 0x08, 0x00,
   0x00, 0x40, 0x10, 0x00, 0x00, 0x70, 0x28, 0x00, 0x00, 0x08, 0x2f, 0x00,
   0x00, 0xd0, 0x2e, 0x00, 0x00, 0x20, 0x11, 0x00, 0x00, 0x10, 0x0d, 0x00,
   0x00, 0xc8, 0x04, 0x00, 0x00, 0x64, 0x05, 0x00, 0x00, 0x32, 0x00, 0x00,
   0x00, 0x19, 0x00, 0x00, 0x80, 0x0c, 0x00, 0x00, 0x40, 0x06, 0x00, 0x00,
   0x20, 0x03, 0x00, 0x00, 0x90, 0x01, 0x00, 0x00, 0xc8, 0x00, 0x00, 0x00,
   0x64, 0x00, 0x00, 0x00, 0x34, 0x00, 0x00, 0x00, 0x1e, 0x00, 0x00, 0x00,
   0x02, 0x00, 0x00, 0x00, 0x00, 0x00, 0x00, 0x00 };
