#define cursor_color_picker_mask_width 32
#define cursor_color_picker_mask_height 32
#define cursor_color_picker_mask_x_hot 1
#define cursor_color_picker_mask_y_hot 30
static unsigned char cursor_color_picker_mask_bits[] = {
   0x00, 0x00, 0x00, 0x00, 0x00, 0x00, 0x00, 0x00, 0x00, 0x00, 0x00, 0x00,
   0x00, 0x00, 0x00, 0x00, 0x00, 0x00, 0x00, 0x00, 0x00, 0x00, 0x00, 0x00,
   0x00, 0x00, 0x00, 0x00, 0x00, 0x00, 0x00, 0x00, 0x00, 0x00, 0x00, 0x00,
   0x00, 0x00, 0x00, 0x00, 0x00, 0x00, 0x07, 0x00, 0x00, 0x80, 0x0f, 0x00,
   0x00, 0xc0, 0x1f, 0x00, 0x00, 0xf0, 0x3f, 0x00, 0x00, 0xf8, 0x3f, 0x00,
   0x00, 0xf0, 0x3f, 0x00, 0x00, 0xf0, 0x1f, 0x00, 0x00, 0xf8, 0x0f, 0x00,
   0x00, 0xfc, 0x07, 0x00, 0x00, 0xfe, 0x07, 0x00, 0x00, 0x7f, 0x00, 0x00,
   0x80, 0x3f, 0x00, 0x00, 0xc0, 0x1f, 0x00, 0x00, 0xe0, 0x0f, 0x00, 0x00,
   0xf0, 0x07, 0x00, 0x00, 0xf8, 0x03, 0x00, 0x00, 0xfc, 0x01, 0x00, 0x00,
   0xfe, 0x00, 0x00, 0x00, 0x7e, 0x00, 0x00, 0x00, 0x3f, 0x00, 0x00, 0x00,
   0x1e, 0x00, 0x00, 0x00, 0x04, 0x00, 0x00, 0x00 };
