/* Created with GIMP */
#define cursor_bad_mask_width 32
#define cursor_cursor_bad_mask_height 32
#define bad_mask_x_hot 10
#define cursor_bad_mask_y_hot 10
static unsigned char cursor_bad_mask_bits[] = {
   0x00, 0x00, 0x00, 0x00, 0x00, 0x00, 0x00, 0x00, 0x80, 0x1f, 0x00, 0x00,
   0xe0, 0x7f, 0x00, 0x00, 0xf0, 0xff, 0x00, 0x00, 0xf8, 0xff, 0x01, 0x00,
   0x78, 0xf8, 0x01, 0x00, 0x3c, 0xfc, 0x03, 0x00, 0x3c, 0xfe, 0x03, 0x00,
   0x3c, 0xdf, 0x03, 0x00, 0xbc, 0xcf, 0x03, 0x00, 0xfc, 0xc7, 0x03, 0x00,
   0xfc, 0xc3, 0x03, 0x00, 0xf8, 0xe1, 0x01, 0x00, 0xf8, 0xff, 0x01, 0x00,
   0xf0, 0xff, 0x00, 0x00, 0xe0, 0x7f, 0x00, 0x00, 0x80, 0x1f, 0x00, 0x00,
   0x00, 0x00, 0x00, 0x00, 0x00, 0x00, 0x00, 0x00, 0x00, 0x00, 0x00, 0x00,
   0x00, 0x00, 0x00, 0x00, 0x00, 0x00, 0x00, 0x00, 0x00, 0x00, 0x00, 0x00,
   0x00, 0x00, 0x00, 0x00, 0x00, 0x00, 0x00, 0x00, 0x00, 0x00, 0x00, 0x00,
   0x00, 0x00, 0x00, 0x00, 0x00, 0x00, 0x00, 0x00, 0x00, 0x00, 0x00, 0x00,
   0x00, 0x00, 0x00, 0x00, 0x00, 0x00, 0x00, 0x00 };
