#define modifier_bad_mask_width 32
#define modifier_bad_mask_height 32
static unsigned char modifier_bad_mask_bits[] = {
   0x00, 0x00, 0x00, 0x0f, 0x00, 0x00, 0xc0, 0x3f, 0x00, 0x00, 0xe0, 0x7f,
   0x00, 0x00, 0xe0, 0x7f, 0x00, 0x00, 0xf0, 0xfe, 0x00, 0x00, 0xf0, 0xff,
   0x00, 0x00, 0xf0, 0xff, 0x00, 0x00, 0xf0, 0xf7, 0x00, 0x00, 0xe0, 0x7f,
   0x00, 0x00, 0xe0, 0x7f, 0x00, 0x00, 0xc0, 0x3f, 0x00, 0x00, 0x00, 0x0f,
   0x00, 0x00, 0x00, 0x00, 0x00, 0x00, 0x00, 0x00, 0x00, 0x00, 0x00, 0x00,
   0x00, 0x00, 0x00, 0x00, 0x00, 0x00, 0x00, 0x00, 0x00, 0x00, 0x00, 0x00,
   0x00, 0x00, 0x00, 0x00, 0x00, 0x00, 0x00, 0x00, 0x00, 0x00, 0x00, 0x00,
   0x00, 0x00, 0x00, 0x00, 0x00, 0x00, 0x00, 0x00, 0x00, 0x00, 0x00, 0x00,
   0x00, 0x00, 0x00, 0x00, 0x00, 0x00, 0x00, 0x00, 0x00, 0x00, 0x00, 0x00,
   0x00, 0x00, 0x00, 0x00, 0x00, 0x00, 0x00, 0x00, 0x00, 0x00, 0x00, 0x00,
   0x00, 0x00, 0x00, 0x00, 0x00, 0x00, 0x00, 0x00 };
