#define tool_move_width 32
#define tool_move_height 32
static unsigned char tool_move_bits[] = {
   0x00, 0x00, 0x00, 0x00, 0x00, 0x00, 0x00, 0x00, 0x00, 0x00, 0x00, 0x00,
   0x00, 0x00, 0x00, 0x00, 0x00, 0x00, 0x00, 0x00, 0x00, 0x00, 0x00, 0x00,
   0x00, 0x00, 0x00, 0x00, 0x00, 0x00, 0x00, 0x00, 0x00, 0x00, 0x00, 0x00,
   0x00, 0x00, 0x00, 0x00, 0x00, 0x00, 0x00, 0x00, 0x00, 0x00, 0x00, 0x00,
   0x00, 0x00, 0x00, 0x00, 0x00, 0x00, 0x00, 0x00, 0x00, 0x00, 0x00, 0x00,
   0x00, 0x00, 0x00, 0x00, 0x00, 0x00, 0x00, 0x00, 0x00, 0x00, 0x80, 0x00,
   0x00, 0x00, 0xc0, 0x01, 0x00, 0x00, 0xe0, 0x03, 0x00, 0x00, 0x80, 0x00,
   0x00, 0x00, 0x88, 0x08, 0x00, 0x00, 0x8c, 0x18, 0x00, 0x00, 0xfe, 0x3f,
   0x00, 0x00, 0x8c, 0x18, 0x00, 0x00, 0x88, 0x08, 0x00, 0x00, 0x80, 0x00,
   0x00, 0x00, 0xe0, 0x03, 0x00, 0x00, 0xc0, 0x01, 0x00, 0x00, 0x80, 0x00,
   0x00, 0x00, 0x00, 0x00, 0x00, 0x00, 0x00, 0x00 };
