#define tool_paths_mask_width 32
#define tool_paths_mask_height 32
static unsigned char tool_paths_mask_bits[] = {
   0x00, 0x00, 0x00, 0x00, 0x00, 0x00, 0x00, 0x00, 0x00, 0x00, 0x00, 0x00,
   0x00, 0x00, 0x00, 0x00, 0x00, 0x00, 0x00, 0x00, 0x00, 0x00, 0x00, 0x00,
   0x00, 0x00, 0x00, 0x00, 0x00, 0x00, 0x00, 0x00, 0x00, 0x00, 0x00, 0x00,
   0x00, 0x00, 0x00, 0x00, 0x00, 0x00, 0x00, 0x00, 0x00, 0x00, 0x00, 0x00,
   0x00, 0x00, 0x00, 0x00, 0x00, 0x00, 0x00, 0x00, 0x00, 0x00, 0x00, 0x02,
   0x00, 0x00, 0x00, 0x07, 0x00, 0x00, 0x80, 0x0f, 0x00, 0x00, 0xc0, 0x1d,
   0x00, 0x00, 0x80, 0x0f, 0x08, 0x00, 0x00, 0x07, 0x1c, 0x00, 0x00, 0x07,
   0x1c, 0x00, 0x00, 0x07, 0x38, 0x00, 0x80, 0x03, 0x38, 0x00, 0x80, 0x03,
   0x70, 0x00, 0xc0, 0x01, 0xe0, 0x40, 0xe0, 0x00, 0xdc, 0xe3, 0x78, 0x1c,
   0xfe, 0xff, 0x7f, 0x3f, 0xfe, 0xbf, 0xff, 0x3f, 0x7e, 0xfd, 0x57, 0x3f,
   0x1c, 0xe0, 0x00, 0x1c, 0x00, 0x40, 0x00, 0x00 };
