#define tool_crop_mask_width 32
#define tool_crop_mask_height 32
static unsigned char tool_crop_mask_bits[] = {
   0x00, 0x00, 0x00, 0x00, 0x00, 0x00, 0x00, 0x00, 0x00, 0x00, 0x00, 0x00,
   0x00, 0x00, 0x00, 0x00, 0x00, 0x00, 0x00, 0x00, 0x00, 0x00, 0x00, 0x00,
   0x00, 0x00, 0x00, 0x00, 0x00, 0x00, 0x00, 0x00, 0x00, 0x00, 0x00, 0x00,
   0x00, 0x00, 0x00, 0x00, 0x00, 0x00, 0x00, 0x00, 0x00, 0x00, 0x00, 0x00,
   0x00, 0x00, 0x00, 0x00, 0x00, 0x00, 0x00, 0x00, 0x00, 0x00, 0x00, 0x00,
   0x00, 0x00, 0x00, 0x00, 0x00, 0x00, 0x00, 0x00, 0x00, 0x00, 0x00, 0x00,
   0x00, 0x00, 0x00, 0x08, 0x00, 0x00, 0x00, 0x1c, 0x00, 0x00, 0xf0, 0x3f,
   0x00, 0x00, 0xf0, 0x7f, 0x00, 0x00, 0xf0, 0x3f, 0x00, 0x00, 0x70, 0x1c,
   0x00, 0x00, 0x70, 0x1c, 0x00, 0x00, 0x70, 0x1c, 0x00, 0x00, 0xf8, 0x1f,
   0x00, 0x00, 0xfc, 0x1f, 0x00, 0x00, 0xf8, 0x1f, 0x00, 0x00, 0x70, 0x00,
   0x00, 0x00, 0x20, 0x00, 0x00, 0x00, 0x00, 0x00 };
