#define tool_blur_mask_width 32
#define tool_blur_mask_height 32
static unsigned char tool_blur_mask_bits[] = {
   0x00, 0x00, 0x00, 0x00, 0x00, 0x00, 0x00, 0x00, 0x00, 0x00, 0x00, 0x00,
   0x00, 0x00, 0x00, 0x00, 0x00, 0x00, 0x00, 0x00, 0x00, 0x00, 0x00, 0x00,
   0x00, 0x00, 0x00, 0x00, 0x00, 0x00, 0x00, 0x00, 0x00, 0x00, 0x00, 0x00,
   0x00, 0x00, 0x00, 0x00, 0x00, 0x00, 0x00, 0x00, 0x00, 0x00, 0x00, 0x00,
   0x00, 0x00, 0x00, 0x00, 0x00, 0x00, 0x00, 0x00, 0x00, 0x00, 0x00, 0x02,
   0x00, 0x00, 0x00, 0x07, 0x00, 0x00, 0x00, 0x07, 0x00, 0x00, 0x80, 0x0f,
   0x00, 0x00, 0x80, 0x1f, 0x00, 0x00, 0xc0, 0x1f, 0x00, 0x00, 0xc0, 0x3f,
   0x00, 0x00, 0xe0, 0x3f, 0x00, 0x00, 0xf0, 0x7f, 0x00, 0x00, 0xf0, 0xff,
   0x00, 0x00, 0xf8, 0xff, 0x00, 0x00, 0xf8, 0xff, 0x00, 0x00, 0xf8, 0xff,
   0x00, 0x00, 0xf8, 0xff, 0x00, 0x00, 0xf0, 0x7f, 0x00, 0x00, 0xe0, 0x3f,
   0x00, 0x00, 0xc0, 0x1f, 0x00, 0x00, 0x80, 0x0f };
