#define tool_paths_segment_mask_width 32
#define tool_paths_segment_mask_height 32
static unsigned char tool_paths_segment_mask_bits[] = {
   0x00, 0x00, 0x00, 0x00, 0x00, 0x00, 0x00, 0x00, 0x00, 0x00, 0x00, 0x00,
   0x00, 0x00, 0x00, 0x00, 0x00, 0x00, 0x00, 0x00, 0x00, 0x00, 0x00, 0x00,
   0x00, 0x00, 0x00, 0x00, 0x00, 0x00, 0x00, 0x00, 0x00, 0x00, 0x00, 0x00,
   0x00, 0x00, 0x00, 0x00, 0x00, 0x00, 0x00, 0x00, 0x00, 0x00, 0x00, 0x00,
   0x00, 0x00, 0x00, 0x00, 0x00, 0x00, 0x00, 0x00, 0x00, 0x00, 0x00, 0x02,
   0x00, 0x00, 0x00, 0x07, 0x00, 0x00, 0x80, 0x0f, 0x00, 0x00, 0xc0, 0x1d,
   0x08, 0x00, 0x80, 0x0f, 0x1c, 0x00, 0x80, 0x0f, 0x3e, 0x00, 0x80, 0x0f,
   0x3e, 0x00, 0x80, 0x0f, 0x7c, 0x00, 0xc0, 0x07, 0x7c, 0x00, 0xc0, 0x07,
   0xf8, 0x00, 0xe0, 0x03, 0xf0, 0x43, 0xf8, 0x01, 0xfc, 0xff, 0xff, 0x1c,
   0xfe, 0xff, 0x7f, 0x3f, 0xfe, 0xbf, 0xff, 0x3f, 0x7e, 0xff, 0x5f, 0x3f,
   0x1c, 0xfc, 0x07, 0x1c, 0x00, 0x40, 0x00, 0x00 };
