#define tool_paths_anchor_mask_width 32
#define tool_paths_anchor_mask_height 32
static unsigned char tool_paths_anchor_mask_bits[] = {
   0x00, 0x00, 0x00, 0x00, 0x00, 0x00, 0x00, 0x00, 0x00, 0x00, 0x00, 0x00,
   0x00, 0x00, 0x00, 0x00, 0x00, 0x00, 0x00, 0x00, 0x00, 0x00, 0x00, 0x00,
   0x00, 0x00, 0x00, 0x00, 0x00, 0x00, 0x00, 0x00, 0x00, 0x00, 0x00, 0x00,
   0x00, 0x00, 0x00, 0x00, 0x00, 0x00, 0x00, 0x00, 0x00, 0x00, 0x00, 0x00,
   0x00, 0x00, 0x00, 0x00, 0x00, 0x00, 0x00, 0x02, 0x00, 0x00, 0x00, 0x07,
   0x00, 0x00, 0x80, 0x0f, 0x00, 0x00, 0xc0, 0x1f, 0x00, 0x00, 0xe0, 0x3f,
   0x00, 0x00, 0xc0, 0x1f, 0x08, 0x00, 0x80, 0x0f, 0x1c, 0x00, 0x00, 0x07,
   0x1c, 0x00, 0x00, 0x07, 0x38, 0x00, 0x80, 0x03, 0x38, 0x00, 0x80, 0x03,
   0x70, 0x40, 0xc0, 0x01, 0xe0, 0xe0, 0xe0, 0x00, 0xdc, 0xf3, 0x79, 0x1c,
   0xfe, 0xff, 0x7f, 0x3f, 0xfe, 0xff, 0xff, 0x3f, 0x7e, 0xfd, 0x57, 0x3f,
   0x1c, 0xf0, 0x01, 0x1c, 0x00, 0xe0, 0x00, 0x00 };
