#define tool_paths_anchor_width 32
#define tool_paths_anchor_height 32
static unsigned char tool_paths_anchor_bits[] = {
   0x00, 0x00, 0x00, 0x00, 0x00, 0x00, 0x00, 0x00, 0x00, 0x00, 0x00, 0x00,
   0x00, 0x00, 0x00, 0x00, 0x00, 0x00, 0x00, 0x00, 0x00, 0x00, 0x00, 0x00,
   0x00, 0x00, 0x00, 0x00, 0x00, 0x00, 0x00, 0x00, 0x00, 0x00, 0x00, 0x00,
   0x00, 0x00, 0x00, 0x00, 0x00, 0x00, 0x00, 0x00, 0x00, 0x00, 0x00, 0x00,
   0x00, 0x00, 0x00, 0x00, 0x00, 0x00, 0x00, 0x00, 0x00, 0x00, 0x00, 0x02,
   0x00, 0x00, 0x00, 0x07, 0x00, 0x00, 0x80, 0x0f, 0x00, 0x00, 0xc0, 0x1d,
   0x00, 0x00, 0x80, 0x0f, 0x00, 0x00, 0x00, 0x07, 0x08, 0x00, 0x00, 0x02,
   0x08, 0x00, 0x00, 0x02, 0x10, 0x00, 0x00, 0x01, 0x10, 0x00, 0x00, 0x01,
   0x20, 0x00, 0x80, 0x00, 0x40, 0x40, 0x40, 0x00, 0x80, 0xe0, 0x20, 0x00,
   0x1c, 0xf3, 0x19, 0x1c, 0x54, 0xbd, 0x57, 0x15, 0x1c, 0xf0, 0x01, 0x1c,
   0x00, 0xe0, 0x00, 0x00, 0x00, 0x40, 0x00, 0x00 };
