#define tool_ink_width 32
#define tool_ink_height 32
static unsigned char tool_ink_bits[] = {
   0x00, 0x00, 0x00, 0x00, 0x00, 0x00, 0x00, 0x00, 0x00, 0x00, 0x00, 0x00,
   0x00, 0x00, 0x00, 0x00, 0x00, 0x00, 0x00, 0x00, 0x00, 0x00, 0x00, 0x00,
   0x00, 0x00, 0x00, 0x00, 0x00, 0x00, 0x00, 0x00, 0x00, 0x00, 0x00, 0x00,
   0x00, 0x00, 0x00, 0x00, 0x00, 0x00, 0x00, 0x00, 0x00, 0x00, 0x00, 0x00,
   0x00, 0x00, 0x00, 0x00, 0x00, 0x00, 0x00, 0x18, 0x00, 0x00, 0x00, 0x2c,
   0x00, 0x00, 0x00, 0x76, 0x00, 0x00, 0x00, 0x7b, 0x00, 0x00, 0x80, 0x3d,
   0x00, 0x00, 0xc0, 0x1e, 0x00, 0x00, 0x60, 0x0f, 0x00, 0x00, 0xb8, 0x07,
   0x00, 0x00, 0xfe, 0x03, 0x00, 0x00, 0xe3, 0x01, 0x00, 0x00, 0xd5, 0x00,
   0x00, 0x80, 0xc9, 0x00, 0x00, 0x80, 0x54, 0x00, 0x00, 0x80, 0x62, 0x00,
   0x00, 0x40, 0x39, 0x00, 0x00, 0xc0, 0x0e, 0x00, 0x00, 0xe0, 0x01, 0x00,
   0x00, 0x60, 0x00, 0x00, 0x00, 0x00, 0x00, 0x00 };
