#define tool_heal_mask_width 32
#define tool_heal_mask_height 32
static unsigned char tool_heal_mask_bits[] = {
   0x00, 0x00, 0x00, 0x00, 0x00, 0x00, 0x00, 0x00, 0x00, 0x00, 0x00, 0x00,
   0x00, 0x00, 0x00, 0x00, 0x00, 0x00, 0x00, 0x00, 0x00, 0x00, 0x00, 0x00,
   0x00, 0x00, 0x00, 0x00, 0x00, 0x00, 0x00, 0x00, 0x00, 0x00, 0x00, 0x00,
   0x00, 0x00, 0x00, 0x00, 0x00, 0x00, 0x00, 0x00, 0x00, 0x00, 0x00, 0x00,
   0x00, 0x00, 0x00, 0x00, 0x00, 0x00, 0x00, 0x00, 0x00, 0x00, 0x00, 0x00,
   0x00, 0x00, 0x00, 0x00, 0x00, 0x00, 0x00, 0x00, 0x00, 0x00, 0x60, 0x04,
   0x00, 0x00, 0xa0, 0x01, 0x00, 0x00, 0xa0, 0x0d, 0x00, 0x00, 0x78, 0x05,
   0x00, 0x00, 0xbd, 0x55, 0x00, 0x00, 0xd8, 0x58, 0x00, 0x00, 0x80, 0x37,
   0x00, 0x00, 0xcc, 0x37, 0x00, 0x00, 0xc0, 0x7b, 0x00, 0x00, 0x12, 0x59,
   0x00, 0x00, 0x2a, 0x0b, 0x00, 0x00, 0xf8, 0x09, 0x00, 0x00, 0xc0, 0x01,
   0x00, 0x00, 0x10, 0x06, 0x00, 0x00, 0x60, 0x04 };
