#define tool_rect_select_mask_width 32
#define tool_rect_select_mask_height 32
static unsigned char tool_rect_select_mask_bits[] = {
   0x00, 0x00, 0x00, 0x00, 0x00, 0x00, 0x00, 0x00, 0x00, 0x00, 0x00, 0x00,
   0x00, 0x00, 0x00, 0x00, 0x00, 0x00, 0x00, 0x00, 0x00, 0x00, 0x00, 0x00,
   0x00, 0x00, 0x00, 0x00, 0x00, 0x00, 0x00, 0x00, 0x00, 0x00, 0x00, 0x00,
   0x00, 0x00, 0x00, 0x00, 0x00, 0x00, 0x00, 0x00, 0x00, 0x00, 0x00, 0x00,
   0x00, 0x00, 0x00, 0x00, 0x00, 0x00, 0x00, 0x00, 0x00, 0x00, 0x00, 0x00,
   0x00, 0x00, 0x00, 0x00, 0x00, 0x00, 0x00, 0x00, 0x00, 0x00, 0x00, 0x00,
   0x00, 0x00, 0x00, 0x00, 0x00, 0x00, 0xf8, 0xff, 0x00, 0x00, 0xf8, 0xff,
   0x00, 0x00, 0xf8, 0xff, 0x00, 0x00, 0x38, 0xe0, 0x00, 0x00, 0x38, 0xe0,
   0x00, 0x00, 0x38, 0xe0, 0x00, 0x00, 0x38, 0xe0, 0x00, 0x00, 0x38, 0xe0,
   0x00, 0x00, 0x38, 0xe0, 0x00, 0x00, 0x38, 0xe0, 0x00, 0x00, 0xf8, 0xff,
   0x00, 0x00, 0xf8, 0xff, 0x00, 0x00, 0xf8, 0xff };
