#define tool_heal_width 32
#define tool_heal_height 32
static unsigned char tool_heal_bits[] = {
   0x00, 0x00, 0x00, 0x00, 0x00, 0x00, 0x00, 0x00, 0x00, 0x00, 0x00, 0x00,
   0x00, 0x00, 0x00, 0x00, 0x00, 0x00, 0x00, 0x00, 0x00, 0x00, 0x00, 0x00,
   0x00, 0x00, 0x00, 0x00, 0x00, 0x00, 0x00, 0x00, 0x00, 0x00, 0x00, 0x00,
   0x00, 0x00, 0x00, 0x00, 0x00, 0x00, 0x00, 0x00, 0x00, 0x00, 0x00, 0x00,
   0x00, 0x00, 0x00, 0x00, 0x00, 0x00, 0x00, 0x00, 0x00, 0x00, 0x00, 0x00,
   0x00, 0x00, 0x00, 0x00, 0x00, 0x00, 0x00, 0x00, 0x00, 0x00, 0x60, 0x04,
   0x00, 0x00, 0x80, 0x01, 0x00, 0x00, 0x80, 0x01, 0x00, 0x00, 0x40, 0x01,
   0x00, 0x00, 0x21, 0x44, 0x00, 0x00, 0x10, 0x48, 0x00, 0x00, 0x00, 0x30,
   0x00, 0x00, 0x4c, 0x32, 0x00, 0x00, 0x00, 0x78, 0x00, 0x00, 0x02, 0x48,
   0x00, 0x00, 0x02, 0x02, 0x00, 0x00, 0x88, 0x01, 0x00, 0x00, 0x80, 0x01,
   0x00, 0x00, 0x10, 0x06, 0x00, 0x00, 0x60, 0x04 };
