#define tool_shear_mask_width 32
#define tool_shear_mask_height 32
static unsigned char tool_shear_mask_bits[] = {
   0x00, 0x00, 0x00, 0x00, 0x00, 0x00, 0x00, 0x00, 0x00, 0x00, 0x00, 0x00,
   0x00, 0x00, 0x00, 0x00, 0x00, 0x00, 0x00, 0x00, 0x00, 0x00, 0x00, 0x00,
   0x00, 0x00, 0x00, 0x00, 0x00, 0x00, 0x00, 0x00, 0x00, 0x00, 0x00, 0x00,
   0x00, 0x00, 0x00, 0x00, 0x00, 0x00, 0x00, 0x00, 0x00, 0x00, 0x00, 0x00,
   0x00, 0x00, 0x00, 0x00, 0x00, 0x00, 0x00, 0x00, 0x00, 0x00, 0x00, 0x00,
   0x00, 0x00, 0x00, 0x00, 0x00, 0x00, 0x00, 0x00, 0x00, 0x00, 0x00, 0x00,
   0x00, 0x00, 0xfc, 0xff, 0x00, 0x00, 0xfc, 0xff, 0x00, 0x00, 0xfc, 0xff,
   0x00, 0x00, 0x0e, 0x70, 0x00, 0x00, 0x0e, 0x70, 0x00, 0x00, 0x07, 0x38,
   0x00, 0x00, 0x07, 0x38, 0x00, 0x80, 0x03, 0x1c, 0x00, 0x80, 0x03, 0x1c,
   0x00, 0xc0, 0x01, 0x0e, 0x00, 0xc0, 0x01, 0x0e, 0x00, 0xe0, 0xff, 0x07,
   0x00, 0xe0, 0xff, 0x07, 0x00, 0xe0, 0xff, 0x07 };
