#define tool_paths_control_width 32
#define tool_paths_control_height 32
static unsigned char tool_paths_control_bits[] = {
   0x00, 0x00, 0x00, 0x00, 0x00, 0x00, 0x00, 0x00, 0x00, 0x00, 0x00, 0x00,
   0x00, 0x00, 0x00, 0x00, 0x00, 0x00, 0x00, 0x00, 0x00, 0x00, 0x00, 0x00,
   0x00, 0x00, 0x00, 0x00, 0x00, 0x00, 0x00, 0x00, 0x00, 0x00, 0x00, 0x00,
   0x00, 0x00, 0x00, 0x00, 0x00, 0x00, 0x00, 0x00, 0x00, 0x00, 0x00, 0x00,
   0x00, 0x00, 0x00, 0x00, 0x00, 0x00, 0x00, 0x00, 0x00, 0x00, 0x00, 0x00,
   0x00, 0x00, 0x00, 0x02, 0x00, 0x00, 0x00, 0x05, 0x00, 0x00, 0x80, 0x08,
   0x00, 0x00, 0x00, 0x05, 0x00, 0x00, 0x00, 0x02, 0x08, 0x00, 0x00, 0x02,
   0x08, 0x00, 0x00, 0x02, 0x10, 0x00, 0x00, 0x01, 0x10, 0x00, 0x00, 0x01,
   0x20, 0x00, 0x80, 0x00, 0x40, 0x00, 0x40, 0x00, 0xbe, 0x40, 0x20, 0x3e,
   0x3e, 0xa3, 0x18, 0x3e, 0x76, 0x1d, 0x57, 0x37, 0x3e, 0xa0, 0x00, 0x3e,
   0x3e, 0x40, 0x00, 0x3e, 0x00, 0x00, 0x00, 0x00 };
