/* XPM */
static char *magick[] = {
/* columns rows colors chars-per-pixel */
"108 33 18 1",
"  c #030305",
". c #181818",
"X c #222221",
"o c Gray19",
"O c Gray25",
"+ c #4e4e4f",
"@ c #606060",
"# c #777776",
"$ c #8a8a89",
"% c #a0a09f",
"& c #b7b7b7",
"* c #c7c7c6",
"= c #d5d5d4",
"- c gainsboro",
"; c #e5e5e4",
": c #fbfbf9",
"> c Gray100",
", c None",
/* pixels */
",,,,,,,,,,,,,,,,,,,,,,,,,,,,,,,,,,,,,,,,,,,,,,,,,,,,,,,,,,,,,,,,,,,,,,,,,,,,,,,,,,,,,,,,,,,,,,,,,,,,,,,,,,,,",
",,,,,,,,,,,,,,,,,,,,,,,,,,,,,,,,,,,,,:::::,,,,,:::,,,,,,,,,,,,,,,,,,,,,,,,,,,,,,,,,,,,,,,,,,,,#@@$&,,,,,,,,,",
",,,,,,,,,,,,,,,,,,,,,,,,,,,,,,,,,,,:;$@+#&::,,:@+-,,,,,,,,,,,,,,,,,,,,,,,,,,,,,,,&#@%,,,,,,,#++$+O%&,,,,,,,,",
",,,,,,,,,,,,,,,,,,,,,,,,,,,,,,,,,,:%.     O-:,%  #:,,,,,,,,,,,,,,,,,,,,,,,,,,,+$#+#+#%,,,,,#OOO+@++%%,,,,,,,",
",,,,,,,,,,,,,,,,,,,,,,,,,,,,,#,,,:%   .X   X;,=. &:,,,,,,,,,,,,,,,,,,,,,,,,,,+@$%@@@@#,,,,,OoXoo++O##,,,,,,,",
",,,,,,&,,,,,,,,,,,,,,,,,,,,,##,,,:.  #::*XO&:,:::::::::;&-::;&-:,:::::**::,,,###&$#+oo#,,,+XXoXX#%@+@*,,,,,,",
",,,,,,&&,,,,,,,,,,,,,,,,,,,,##,,*&  O:::::::::&  %:#  %.  #$   %:;  $o  X*:,,,#++#&+o+$,#OO#OoXO#&%@O#,,,,,,",
",,,,,,,%%,,,,,,,,,,,,,,,,,,#@@,,;#  $::@OOOOO:&  %:#  .+   .O  .:;   ..  X:,,,,+o+#o+O$#OOO#$O+$%*;%$#$,,,,,",
",,,,,,,%%$,,,,,,,,,,,,,,,,@@@@,,;#  $::X    .:&  %:#  *:@  *:+  ;;  O::+  &,,,,+o++#@@$Oo+$&=#&%%&-*$#@,,,,,",
",,,,,,,,%$#@,,,,,,,,,,,,@@@@@@,,-%  @::%$$  X:&  %:#  ;:#  ::#  ;;  %:,&  %:,,,@@$@Oo+#XO@&;=%@+#@#%@@$$,,,,",
",,,,,,,,%$##@,,,,,,,,,###@@@++,,,;.  *:::%  @:&  %:#  ::#  ::#  ;;  $::%  %,,,,+O#+O+#+o#%&;=&%&#$+%&%%#,,,,",
",,,,,,,,$$$#####,,,@@@@@@@@++,,,,:$  .@$+  .=,&  %:#  ::#  ::#  ;;  .%%.  =,,,,@+@%@#%Oo@@-;-*&%&%*;;*%+$,,,",
",,,,,,,,*&$$#$%$##@@@@@@@+++O,,,,,:#      .&:,&  %:#  ::#  ::#  ;;  X    @:,,,,#oO$##%#oo@*=&$&$%&=::%&#+$,,",
",,,,,,,;::;$*:::&#@@@++++++O,,,,,,,:*#OO+$;:,,=##*:&##::&##::&##:;  $%OO$:,,,,,#oo#&#&$Ooo$*#%$$$#%=&O##+@,,",
",,Xo..$:;%*-::;;;%@@++OOOOO,,,,,,,,,,:::::,,,,::::,:::,,:::,,:::,;  $::::,,,,,,,+o@%%*%+O.#$+%*#@+#@oX@++@,,",
",X#%+X@;%Oo;:;%+&%@@+OOOOo,,,,,,,,,,,,,,,,,,,::::::::,,,,,,,,,,,,;  $:,,,,,,,,,,%+O@**$oo.##@&%+oooo.X@+O+$,",
",X$&+oO$&o@&:=+.#$@++OOOo,,,,,,,,,,,,,,,,,,,,=$$$$$$$=,,,,,,,,,,,;oX%:,,,,,,,,,,,%++@$XXX.X+#&##OOOOoo#@@+,,",
",.+@OO+@###$*=#+$@@+OOOOo,,,,,,,,,,::::,,,,,,%       &,,,,,,::::,::::,,,,,,,,,,,,,$@O@O...X.O$#%OXX@@@+@++,,",
",.oOO+@@@####$$$@@++OOOoX,,,,,,,,,-&&&&&-:,,,-%%%%%%%-,,,,,:#  -,,,,,,,,,,,,,,,,,,,,&,OXOo#@O+o$oXo,#+@O@%,,",
",.oO+@#@@@###@@@@OOOOOOo,,,,,,,,,:%      @:,,,:::::::,,,,,,:#  =,,,,,,,,,,,,,,,,,,,,,,@oXo,OooO$OX+,,+O+%,,,",
",,O+@##+++@@@@@+Oo@OOOoX,,,,,,,,,:%       $:,,,,,,,,,,,,,,,:#  =,,,,,,,,,,,,,,,,,,,,,,@oXO,Ooo#,Oo@,,@oO,,,,",
",,o+##@OO++++OOoo+#OOoX,,,,,,,,,,:%  $;%  O:,::*=::,,:::::;:#  =,,,,,,,,,,,,,,,,,,,,,,@oo@@ooo@,++@,,%OO,,,,",
",,,,OOooooXXXXoO+@+OoX,,,,,,,,,,,:%  $:;  o::$.  X%::%..*o %#  =,,,,,,,,,,,,,,,,,,,,,,@O+,@@@@$,+$%,,,++,,,,",
",,,,,,... ..oO+@+OX.,,,,,,,,,,,,,:%  +$O  +:$ .#@  &:$  o  *#  =,,,,,,,,,,,,,,,,,,,,,,#O+,+#&,,,$*@,,,+@,,,,",
",,,,,,,,,,.....X.,,,,,,,,,,,,,,,,:%       %;. #--o +:$  .%&:#  =,,,,,,,,,,,,,,,,,,,,,,,@@,,O%&,,%=,,,,@#,,,,",
",,,,,,,,,,,,,,,,,,,,,,,,,,,,,,,,,:%    .o%:*       .:$  %:,:#  =,,,,,,,,,,,,,,,,,,,,,,,+@,,,+&,#&,,,,,#@,,,,",
",,,,,,,,,,,,,,,,,,,,,,,,,,,,,,,,,:%  $::::,*  #%%%%&:$  *,,:#  =,,,,,,,,,,,,,,,,,,,,,,,#@,,,,@-%&,,,,,$#,,,,",
",,,,,,,,,,,,,,,,,,,,,,,,,,,,,,,,,:%  $:,,,,:. #::$%::$  *,,:#  =,,,,,,,,,,,,,,,,,,,,,,,@&,,,,,@-$,,,,,$%,,,,",
",,,,,,,,,,,,,,,,,,,,,,,,,,,,,,,,,:%  $:,,,,:%  X.  %:$  *,,:#  =,,,,,,,,,,,,,,,,,,,,,,$%,,,,,$@+%&,,,,@%,,,,",
",,,,,,,,,,,,,,,,,,,,,,,,,,,,,,,,,:*@@&:,,,,,:*+XX+&::&@@-,,:%@@;,,,,,,,,,,,,,,,,,,,,,,$=,,,,@@##+#,,,@%&,,,,",
",,,,,,,,,,,,,,,,,,,,,,,,,,,,,,,,,,::::,,,,,,,::::::,,::::,,,::::,,,,,,,,,,,,,,,,,,,,,%$*,,,,$%&,@,,,,@+@,,,,",
",,,,,,,,,,,,,,,,,,,,,,,,,,,,,,,,,,,,,,,,,,,,,,,,,,,,,,,,,,,,,,,,,,,,,,,,,,,,,,,,,,,,+@%#,,,,,,,,,,,,,@@#,,,,",
",,,,,,,,,,,,,,,,,,,,,,,,,,,,,,,,,,,,,,,,,,,,,,,,,,,,,,,,,,,,,,,,,,,,,,,,,,,,,,,,,,,,o$&,,,,,,,,,,,,,,,,,,,,,"
};
