/* XPM */
static char * logo_xpm[] = {
"79 33 25 1",
" 	c None",
".	c #020204",
"+	c #848484",
"@	c #444444",
"#	c #C3C3C4",
"$	c #252524",
"%	c #A5A5A4",
"&	c #646464",
"*	c #E4E4E4",
"=	c #171718",
"-	c #989898",
";	c #585858",
">	c #D7D7D7",
",	c #383838",
"'	c #B8B8B8",
")	c #787878",
"!	c #F7F7F8",
"~	c #0B0B0C",
"{	c #8C8C8C",
"]	c #4C4C4C",
"^	c #CCCCCC",
"/	c #2C2C2C",
"(	c #ABABAC",
"_	c #6C6C6C",
":	c #EBEBEC",
"                                                                               ",
"                  ]&@;%                                                        ",
"     ;]_        ]];{_,&(              ^{__{^    #);^                           ",
"  ]);;+;)      ,//,@;@@)_           #_......_^  (..;                           ",
" ;-''@];@      /$=$/@_@;&          #]........]' ^..{                           ",
" @@_+%-,,]    ,/$///_^)&@;         -...{^>+./(  '*^!  {{  ##(  ##'   {{  ##(   ",
"    ;))@/;  //]);/$]_(');]        %,..+   ^*!   #/,{ #,/%&..@*&..,^ >,,(;..,^  ",
"   /,)];]] ,/],+%;_%-#!#()_       '...> >)_)_))''.._ (..=~...=.~..; ^..=....=> ",
"   ,]]&;;] /@;->>+-+{(''-+]       #...# #.....=''..) '..]*'..$>>../-^..$##,..- ",
"   @_{@/, @$@_^*>(_;_&;{);']      '~..> ^,,/../-'.._ (..{ ^..; '=./-^..%  #..& ",
"   ,&);,& ,])-^:>#%#%+;)>->]       ;..)   >(..; '..) '..- #.._ -=./-^..(  ^..& ",
"   ,&&%]-&/]]_::^'#--(#!:#:]&      ^...)^#-~..# '.._ (..% #.._ %=./-^..,>*;..+ ",
"   ,/&%;{%;//_#^#+%+{%#!:-#%]]      -........{  '..) '..% #.._ %=./-^..~....~* ",
"   ;$@%+)#)@$/-')%-+-)+^#@;)@,       #@..../'   #~~) '~~% #~=_ -/~,-^..)/..='  ",
"    ,@+('#);,={)]%^);@;&@=]] ,        %#'#^(     (%(  (%   %%(  (%% ^..{>###   ",
"     ,@)^#;,/={)_'-;///$$=;@ ,,                                     ^..{       ",
"     ],&)_=$==/])'+),],,/$)@ @,                %('(('(('            ^..{       ",
"       @@]/=====@-)-]$$, ]_/ ,                 %=~~=~==&            >%%^       ",
"          =$@/@,@]/]$=/  ])$ &       {{{{      %=====~=_      '-{%             ",
"          ,$// /$/@ /$,  $,,       %;@,,,;{>   (''''''''      #~.$-            ",
"          //=/ $,/; $,,   @@       ($......,>                 #~.${            ",
"          /$,  /,,,  @@   ,,       %$..],...{                 ^~.$-            ",
"           ],  ]@]   )&    ,       ($..>({..;  #'+)'^  ^#'*>(-!~.${            ",
"           @,  --    (;    @       %$..^({..] *,..../* ^.._,.$!~.$-            ",
"           _,  @'   ;'     )       %$..@@...)!@.$#(=.; ^..~.~,!~.${            ",
"           ]/   ])  -      ]       ($......=>^..;--@.~^>...(^#:~.$-            ",
"           ;     ;-__      ;       ($../,])> %........#>..@(  #~.${            ",
"           _      )*       ]       %$..>{    '..->^*>>'>..;   #~.$-            ",
"           )      &&+      _       %$..'     >=.]>>)&^ ^..;   #~.${            ",
"          ;-     @;];]    &-       ($..'      '~.....+ ^..;   #~.$-            ",
"          ')    ]_& @     __       %{))#       >_@,;'  >)+(   #+){             ",
"         &%               @;                                                   ",
"        ,{_                                                                    "};
