<?xml version="1.0" encoding="UTF-8" standalone="no"?>
<svg
   xmlns:dc="http://purl.org/dc/elements/1.1/"
   xmlns:cc="http://creativecommons.org/ns#"
   xmlns:rdf="http://www.w3.org/1999/02/22-rdf-syntax-ns#"
   xmlns:svg="http://www.w3.org/2000/svg"
   xmlns="http://www.w3.org/2000/svg"
   xmlns:sodipodi="http://sodipodi.sourceforge.net/DTD/sodipodi-0.dtd"
   xmlns:inkscape="http://www.inkscape.org/namespaces/inkscape"
   width="16"
   height="16"
   viewBox="0 0 16 16"
   id="svg30571"
   version="1.1"
   inkscape:version="0.91+devel r"
   sodipodi:docname="gimp-warning.svg">
  <defs
     id="defs30573" />
  <sodipodi:namedview
     id="base"
     pagecolor="#ffffff"
     bordercolor="#666666"
     borderopacity="1"
     inkscape:pageopacity="0"
     inkscape:pageshadow="2"
     inkscape:zoom="16"
     inkscape:cx="-1.875"
     inkscape:cy="12.488086"
     inkscape:document-units="px"
     inkscape:current-layer="layer1"
     showgrid="true"
     units="px"
     inkscape:snap-page="true"
     inkscape:snap-bbox="true"
     inkscape:bbox-paths="true"
     inkscape:bbox-nodes="true"
     inkscape:snap-bbox-edge-midpoints="true"
     inkscape:snap-bbox-midpoints="true"
     inkscape:object-paths="true"
     inkscape:snap-intersection-paths="true"
     inkscape:object-nodes="true"
     inkscape:snap-smooth-nodes="true"
     inkscape:snap-midpoints="true"
     inkscape:snap-object-midpoints="true"
     inkscape:snap-center="true"
     inkscape:snap-text-baseline="true"
     showborder="false"
     inkscape:window-width="1920"
     inkscape:window-height="1016"
     inkscape:window-x="0"
     inkscape:window-y="27"
     inkscape:window-maximized="1"
     inkscape:snap-global="false"
     showguides="false">
    <inkscape:grid
       type="xygrid"
       id="grid4237" />
  </sodipodi:namedview>
  <metadata
     id="metadata30576">
    <rdf:RDF>
      <cc:Work
         rdf:about="">
        <dc:format>
          image/svg+xml
        </dc:format>
        <dc:type
           rdf:resource="http://purl.org/dc/dcmitype/StillImage" />
        <dc:creator>
          <cc:Agent>
            <dc:title>Klaus Staedtler       </dc:title>
          </cc:Agent>
        </dc:creator>
        <dc:title />
      </cc:Work>
    </rdf:RDF>
  </metadata>
  <g
     inkscape:label="Layer 1"
     inkscape:groupmode="layer"
     id="layer1"
     transform="translate(0,-1036.3622)">
    <g
       id="g3950">
      <path
         style="color:#bebebe;display:inline;overflow:visible;visibility:visible;fill:#bebebe;fill-opacity:1;fill-rule:nonzero;stroke:none;stroke-width:1.83994448;marker:none;enable-background:new"
         id="path18112"
         d="m 7.9351329,1036.3642 c -0.5285793,-0.031 -1.0443139,0.3037 -1.4459231,1.0396 l -6.28662498,12.443 c -0.536596,1.0339 0.0485,2.5154 1.10015898,2.5154 H 14.536089 c 0.987472,0 1.914262,-1.2444 1.225891,-2.5154 L 9.4124897,1037.471 c -0.4010565,-0.6935 -0.9487774,-1.0762 -1.4773568,-1.1068 z m 0.062866,4.2258 c 0.5476706,-0.018 1.054634,0.5225 1.037293,1.1069 v 4.2258 c 0.00704,0.567 -0.4743937,1.0733 -1.0058599,1.0733 -0.5314561,0 -1.0133737,-0.5063 -1.0058599,-1.0733 v -4.2258 c -0.00805,-0.5009 0.356175,-0.9795 0.8172612,-1.0732 0.051399,-0.015 0.1040562,-0.027 0.1571656,-0.033 z m 0.031433,7.4793 c 0.5555163,0 1.0058599,0.4804 1.0058599,1.0732 0,0.5927 -0.4503436,1.0733 -1.0058599,1.0733 -0.5555163,0 -1.0058599,-0.4806 -1.0058599,-1.0733 0,-0.5928 0.4503436,-1.0732 1.0058599,-1.0732 z"
         inkscape:connector-curvature="0" />
    </g>
  </g>
</svg>
