<?xml version="1.0" encoding="UTF-8" standalone="no"?>
<svg
   xmlns:dc="http://purl.org/dc/elements/1.1/"
   xmlns:cc="http://creativecommons.org/ns#"
   xmlns:rdf="http://www.w3.org/1999/02/22-rdf-syntax-ns#"
   xmlns:svg="http://www.w3.org/2000/svg"
   xmlns="http://www.w3.org/2000/svg"
   xmlns:sodipodi="http://sodipodi.sourceforge.net/DTD/sodipodi-0.dtd"
   xmlns:inkscape="http://www.inkscape.org/namespaces/inkscape"
   width="16"
   height="16"
   viewBox="0 0 16 16"
   id="svg30571"
   version="1.1"
   inkscape:version="0.92pre1 unknown"
   sodipodi:docname="gimp-edit-clear.svg">
  <defs
     id="defs30573" />
  <sodipodi:namedview
     id="base"
     pagecolor="#ffffff"
     bordercolor="#666666"
     borderopacity="1"
     inkscape:pageopacity="0"
     inkscape:pageshadow="2"
     inkscape:zoom="18.09049"
     inkscape:cx="16.181076"
     inkscape:cy="6.4590775"
     inkscape:document-units="px"
     inkscape:current-layer="layer1"
     showgrid="true"
     units="px"
     inkscape:snap-page="true"
     inkscape:snap-bbox="true"
     inkscape:bbox-paths="true"
     inkscape:bbox-nodes="true"
     inkscape:snap-bbox-edge-midpoints="true"
     inkscape:snap-bbox-midpoints="true"
     inkscape:object-paths="true"
     inkscape:snap-intersection-paths="true"
     inkscape:object-nodes="true"
     inkscape:snap-smooth-nodes="true"
     inkscape:snap-midpoints="true"
     inkscape:snap-object-midpoints="true"
     inkscape:snap-center="true"
     inkscape:snap-text-baseline="true"
     showborder="false"
     inkscape:window-width="1920"
     inkscape:window-height="1016"
     inkscape:window-x="0"
     inkscape:window-y="27"
     inkscape:window-maximized="1">
    <inkscape:grid
       type="xygrid"
       id="grid4244" />
  </sodipodi:namedview>
  <metadata
     id="metadata30576">
    <rdf:RDF>
      <cc:Work
         rdf:about="">
        <dc:format>
          image/svg+xml
        </dc:format>
        <dc:type
           rdf:resource="http://purl.org/dc/dcmitype/StillImage" />
        <dc:creator>
          <cc:Agent>
            <dc:title>Klaus Staedtler       </dc:title>
          </cc:Agent>
        </dc:creator>
        <dc:title></dc:title>
      </cc:Work>
    </rdf:RDF>
  </metadata>
  <g
     inkscape:label="Layer 1"
     inkscape:groupmode="layer"
     id="layer1"
     transform="translate(0,-1036.3622)">
    <g
       id="g4251">
      <g
         transform="matrix(1.0002938,0,0,1,-120.03526,498.3622)"
         id="layer12">
        <g
           transform="translate(79,-222)"
           id="g27035">
          <path
             inkscape:connector-curvature="0"
             d="m 126,540 -6,6 6,6 h 9.0353 c 0.53,-0.02 0.96,-0.49 0.96,-1 v -10 c 0,-0.53079 -0.34561,-1 -1.0089,-1 h -8.99 z m 1,3 h 1 c 0.0104,-1.2e-4 0.0208,-4.6e-4 0.0313,0 0.25495,0.0112 0.50987,0.12858 0.6875,0.3125 l 1.2812,1.2812 1.3125,-1.2812 c 0.27,-0.23 0.45,-0.3 0.69,-0.31 h 1 v 1 c 0,0.28647 -0.0343,0.55065 -0.25,0.75 l -1.2812,1.2812 1.25,1.25 c 0.19,0.19 0.28,0.45 0.28,0.72 v 1 h -1 c -0.2653,-10e-6 -0.53059,-0.0931 -0.71875,-0.28125 l -1.28,-1.28 -1.2812,1.2812 c -0.19,0.19 -0.45,0.28 -0.72,0.28 h -1 v -1 c 0,-0.26529 0.0931,-0.53058 0.28125,-0.71875 l 1.2812,-1.25 -1.2812,-1.2812 c -0.21,-0.19 -0.3,-0.47 -0.28,-0.75 v -1 z"
             transform="translate(-79,222)"
             style="color:#000000;fill:#bebebe"
             id="path27041" />
        </g>
      </g>
    </g>
  </g>
</svg>
