<?xml version="1.0" encoding="UTF-8" standalone="no"?>
<svg
   xmlns:dc="http://purl.org/dc/elements/1.1/"
   xmlns:cc="http://creativecommons.org/ns#"
   xmlns:rdf="http://www.w3.org/1999/02/22-rdf-syntax-ns#"
   xmlns:svg="http://www.w3.org/2000/svg"
   xmlns="http://www.w3.org/2000/svg"
   xmlns:sodipodi="http://sodipodi.sourceforge.net/DTD/sodipodi-0.dtd"
   xmlns:inkscape="http://www.inkscape.org/namespaces/inkscape"
   width="16"
   height="16"
   viewBox="0 0 16 16"
   id="svg30571"
   version="1.1"
   inkscape:version="0.92pre1 unknown"
   sodipodi:docname="gimp-edit-cut.svg">
  <defs
     id="defs30573" />
  <sodipodi:namedview
     id="base"
     pagecolor="#ffffff"
     bordercolor="#666666"
     borderopacity="1"
     inkscape:pageopacity="0"
     inkscape:pageshadow="2"
     inkscape:zoom="4.1484962"
     inkscape:cx="26.2677"
     inkscape:cy="1.1319681"
     inkscape:document-units="px"
     inkscape:current-layer="layer1"
     showgrid="true"
     units="px"
     inkscape:snap-page="true"
     inkscape:snap-bbox="true"
     inkscape:bbox-paths="true"
     inkscape:bbox-nodes="true"
     inkscape:snap-bbox-edge-midpoints="true"
     inkscape:snap-bbox-midpoints="true"
     inkscape:object-paths="true"
     inkscape:snap-intersection-paths="true"
     inkscape:object-nodes="true"
     inkscape:snap-smooth-nodes="true"
     inkscape:snap-midpoints="true"
     inkscape:snap-object-midpoints="true"
     inkscape:snap-center="true"
     inkscape:snap-text-baseline="true"
     showborder="false"
     inkscape:window-width="1920"
     inkscape:window-height="1016"
     inkscape:window-x="0"
     inkscape:window-y="27"
     inkscape:window-maximized="1"
     inkscape:snap-global="false"
     showguides="false">
    <inkscape:grid
       type="xygrid"
       id="grid4289" />
  </sodipodi:namedview>
  <metadata
     id="metadata30576">
    <rdf:RDF>
      <cc:Work
         rdf:about="">
        <dc:format>
          image/svg+xml
        </dc:format>
        <dc:type
           rdf:resource="http://purl.org/dc/dcmitype/StillImage" />
        <dc:creator>
          <cc:Agent>
            <dc:title>Klaus Staedtler       </dc:title>
          </cc:Agent>
        </dc:creator>
        <dc:title />
      </cc:Work>
    </rdf:RDF>
  </metadata>
  <g
     inkscape:label="Layer 1"
     inkscape:groupmode="layer"
     id="layer1"
     transform="translate(0,-1036.3622)">
    <g
       id="g4060"
       transform="matrix(0,0.9999994,-0.99760656,0,1049.8815,1036.3619)">
      <g
         id="g3994"
         transform="translate(-2.9467144,1005.4207)">
        <path
           style="fill:#ffffff;fill-opacity:1;stroke:#888a85;stroke-width:0.34893051;stroke-linecap:round;stroke-linejoin:round;stroke-miterlimit:4;stroke-dasharray:none;stroke-opacity:1"
           d="m 14.548103,31.153875 c 0.07396,0.02391 0.145595,0.05048 0.217727,0.07589 0.227299,0.766601 1.281093,1.541826 0.880373,2.305255 -1.334954,2.226312 -2.660363,4.482163 -3.985343,6.726032 -0.260214,0.05126 -0.522707,0.07918 -0.785709,0.08538 -0.553541,0.01403 -1.1217881,-0.06786 -1.647149,-0.256139 1.762403,-2.983801 3.525548,-5.974181 5.320101,-8.936421 z"
           id="path16717"
           inkscape:connector-curvature="0" />
        <path
           style="fill:#e2e2e2;fill-opacity:1;stroke:none;stroke-width:1.25;stroke-linecap:round;stroke-linejoin:round;stroke-miterlimit:4;stroke-dasharray:none;stroke-opacity:1"
           d="m 14.58806,32.069818 c -0.08065,0.107279 -0.156884,0.303898 -0.239377,0.403451 -1.412071,2.356233 -2.847973,4.708495 -4.265262,7.054938 -0.02113,0.08832 -0.2840048,0.353219 -0.0042,0.329029 0.387856,0.06905 0.792682,0.122336 1.179325,0.0199 1.311626,-2.169373 2.598094,-4.355497 3.906726,-6.525637 0.119498,-0.135131 0.142752,-0.32285 0.01722,-0.45779 -0.184939,-0.284939 -0.372287,-0.584359 -0.561788,-0.856606 l -0.02462,0.02467 -0.008,0.008 z"
           id="path16719"
           inkscape:connector-curvature="0" />
        <path
           transform="matrix(1.2693718,0,0,1.2109197,-365.88744,25.001449)"
           style="fill:#ff4c4c;fill-opacity:1;stroke:#9a0c00;stroke-width:0.28144068;stroke-linecap:round;stroke-linejoin:round;stroke-miterlimit:4;stroke-dasharray:none;stroke-opacity:1"
           d="m 294.73242,13.672852 1.01416,-1.712403 1.29785,0.339844 -0.64502,1.084473 -1.2666,1.333984 z"
           id="polygon45129"
           inkscape:connector-curvature="0" />
        <path
           style="fill:#ff4c4c;fill-opacity:1;stroke:none;stroke-width:1.00000012;stroke-linecap:round;stroke-linejoin:round;stroke-miterlimit:4;stroke-dasharray:none;stroke-opacity:1"
           d="m 9.7440071,39.997082 c -0.4265135,0.169831 -0.423608,0.710136 -0.6716836,1.034235 -0.1194469,0.249762 -0.3293167,0.469739 -0.4187243,0.732226 -0.00338,0.179836 0.1563045,0.474624 0.3598346,0.316218 0.4832604,-0.399988 0.8947855,-0.885822 1.2017952,-1.439991 0.08108,-0.170987 0.277662,-0.312001 0.302968,-0.49003 -0.187924,-0.199173 -0.5278687,-0.185989 -0.7741899,-0.152658 z"
           id="polygon16896"
           inkscape:connector-curvature="0" />
        <path
           style="fill:#ffffff;fill-opacity:1;stroke:#888a85;stroke-width:0.34893051;stroke-linecap:round;stroke-linejoin:round;stroke-miterlimit:4;stroke-dasharray:none;stroke-opacity:1"
           d="m 7.1458179,31.153875 c -0.072624,0.02391 -0.1429722,0.05048 -0.2138058,0.07589 -0.2232053,0.766601 -1.2580219,1.541826 -0.8645183,2.305255 1.3109135,2.226312 2.6124532,4.482163 3.9135728,6.726032 0.2555274,0.05126 0.5132944,0.07918 0.7715604,0.08538 0.543572,0.01403 1.101586,-0.06786 1.617486,-0.256139 -1.730665,-2.983801 -3.462059,-5.974181 -5.2242951,-8.936421 z"
           id="polygon45097"
           inkscape:connector-curvature="0" />
        <path
           style="fill:#e2e2e2;fill-opacity:1;stroke:none;stroke-width:1.25;stroke-linecap:round;stroke-linejoin:round;stroke-miterlimit:4;stroke-dasharray:none;stroke-opacity:1"
           d="m 7.0619238,32.069818 c -0.1336526,0.393132 -0.5058309,0.682495 -0.5983502,1.101312 1.2940161,2.2311 2.6068399,4.455538 3.8999624,6.684199 0.418146,0.09013 0.847357,0.03251 1.260809,-0.05452 -0.06587,-0.258363 -0.25758,-0.464402 -0.359392,-0.708172 -1.3589459,-2.292657 -2.7299277,-4.582793 -4.0748112,-6.881066 -0.00512,-0.0529 -0.075614,-0.16893 -0.128218,-0.141753 z"
           id="path16635"
           inkscape:connector-curvature="0" />
        <path
           id="path45138"
           style="fill:#ef3535;fill-opacity:1;stroke:#a40000;stroke-width:0.34893051;stroke-opacity:1"
           d="m 8.799851,41.154898 c 1.128794,0.602481 1.219804,2.307448 0.2016627,3.80835 -1.01813,1.501785 -2.7581173,2.231476 -3.8874198,1.631645 -1.129313,-0.602481 -1.2198033,-2.306565 -0.2016627,-3.807467 1.0176111,-1.5009 2.7581174,-2.230591 3.8874198,-1.632528 z M 8.1525413,42.111716 C 7.6512946,41.845263 6.5797518,42.30032 5.8962376,43.309953 5.2113184,44.319585 5.2601731,45.37336 5.7609487,45.63901 6.2617149,45.907069 7.3342006,45.450406 8.0177146,44.440773 8.7031055,43.431141 8.6537789,42.37817 8.1525413,42.111716 Z"
           inkscape:connector-curvature="0" />
        <path
           d="m 13.207322,41.154898 c -1.128794,0.602481 -1.219804,2.307448 -0.201663,3.80835 1.01813,1.501785 2.758118,2.231476 3.88742,1.631645 1.129313,-0.602481 1.219803,-2.306565 0.201663,-3.807467 -1.017611,-1.5009 -2.758118,-2.230591 -3.88742,-1.632528 z m 0.64731,0.956818 c 0.501246,-0.266453 1.572789,0.188604 2.256303,1.198237 0.684919,1.009632 0.636065,2.063407 0.135289,2.329057 -0.500766,0.268059 -1.573252,-0.188604 -2.256766,-1.198237 -0.685391,-1.009632 -0.636064,-2.062603 -0.134826,-2.329057 z"
           style="fill:#ef3535;fill-opacity:1;stroke:#a40000;stroke-width:0.34893051;stroke-opacity:1"
           id="path11967"
           inkscape:connector-curvature="0" />
        <path
           transform="matrix(1.264677,0,0,1.264677,-364.86263,24.708361)"
           style="fill:#ef2929;fill-opacity:1;stroke:url(#linearGradient2265);stroke-width:0.27590489;stroke-linecap:round;stroke-linejoin:round;stroke-miterlimit:4;stroke-dasharray:none;stroke-opacity:1"
           d="m 299.26807,13.672852 -1.01416,-1.712403 -1.29786,0.339844 0.64405,1.084473 1.26709,1.333984 z"
           id="polygon45101"
           inkscape:connector-curvature="0" />
      </g>
      <rect
         ry="0.34441933"
         y="1036.3619"
         x="0.00029021449"
         height="16.038387"
         width="16.00001"
         id="rect4056"
         style="color:#000000;clip-rule:nonzero;display:inline;overflow:visible;visibility:visible;opacity:0;isolation:auto;mix-blend-mode:normal;color-interpolation:sRGB;color-interpolation-filters:linearRGB;solid-color:#000000;solid-opacity:1;fill:none;fill-opacity:1;fill-rule:nonzero;stroke:none;stroke-width:0.50059956;stroke-linecap:round;stroke-linejoin:miter;stroke-miterlimit:4;stroke-dasharray:none;stroke-dashoffset:0;stroke-opacity:1;color-rendering:auto;image-rendering:auto;shape-rendering:auto;text-rendering:auto;enable-background:accumulate" />
    </g>
  </g>
</svg>
