<?xml version="1.0" encoding="UTF-8" standalone="no"?>
<svg
   xmlns:dc="http://purl.org/dc/elements/1.1/"
   xmlns:cc="http://creativecommons.org/ns#"
   xmlns:rdf="http://www.w3.org/1999/02/22-rdf-syntax-ns#"
   xmlns:svg="http://www.w3.org/2000/svg"
   xmlns="http://www.w3.org/2000/svg"
   xmlns:sodipodi="http://sodipodi.sourceforge.net/DTD/sodipodi-0.dtd"
   xmlns:inkscape="http://www.inkscape.org/namespaces/inkscape"
   width="16"
   height="16"
   viewBox="0 0 16 16"
   id="svg30571"
   version="1.1"
   inkscape:version="0.92pre1 unknown"
   sodipodi:docname="gimp-edit-clear.svg">
  <defs
     id="defs30573" />
  <sodipodi:namedview
     id="base"
     pagecolor="#ffffff"
     bordercolor="#666666"
     borderopacity="1"
     inkscape:pageopacity="0"
     inkscape:pageshadow="2"
     inkscape:zoom="18.09049"
     inkscape:cx="22.279781"
     inkscape:cy="-3.6139819"
     inkscape:document-units="px"
     inkscape:current-layer="layer1"
     showgrid="true"
     units="px"
     inkscape:snap-page="true"
     inkscape:snap-bbox="true"
     inkscape:bbox-paths="true"
     inkscape:bbox-nodes="true"
     inkscape:snap-bbox-edge-midpoints="true"
     inkscape:snap-bbox-midpoints="true"
     inkscape:object-paths="true"
     inkscape:snap-intersection-paths="true"
     inkscape:object-nodes="true"
     inkscape:snap-smooth-nodes="true"
     inkscape:snap-midpoints="true"
     inkscape:snap-object-midpoints="true"
     inkscape:snap-center="true"
     inkscape:snap-text-baseline="true"
     showborder="false"
     inkscape:window-width="1920"
     inkscape:window-height="1016"
     inkscape:window-x="0"
     inkscape:window-y="27"
     inkscape:window-maximized="1">
    <inkscape:grid
       type="xygrid"
       id="grid4244" />
  </sodipodi:namedview>
  <metadata
     id="metadata30576">
    <rdf:RDF>
      <cc:Work
         rdf:about="">
        <dc:format>
          image/svg+xml
        </dc:format>
        <dc:type
           rdf:resource="http://purl.org/dc/dcmitype/StillImage" />
        <dc:creator>
          <cc:Agent>
            <dc:title>Klaus Staedtler       </dc:title>
          </cc:Agent>
        </dc:creator>
        <dc:title />
      </cc:Work>
    </rdf:RDF>
  </metadata>
  <g
     inkscape:label="Layer 1"
     inkscape:groupmode="layer"
     id="layer1"
     transform="translate(0,-1036.3622)">
    <g
       id="g4246">
      <g
         id="g3941">
        <rect
           style="color:#000000;clip-rule:nonzero;display:inline;overflow:visible;visibility:visible;opacity:1;isolation:auto;mix-blend-mode:normal;color-interpolation:sRGB;color-interpolation-filters:linearRGB;solid-color:#000000;solid-opacity:1;fill:none;fill-opacity:1;fill-rule:nonzero;stroke:none;stroke-width:0.4848485;stroke-linecap:round;stroke-linejoin:round;stroke-miterlimit:4;stroke-dasharray:none;stroke-dashoffset:0;stroke-opacity:1;color-rendering:auto;image-rendering:auto;shape-rendering:auto;text-rendering:auto;enable-background:accumulate"
           id="rect3999"
           width="16"
           height="16"
           x="0"
           y="1036.3622" />
      </g>
      <g
         style="fill:#d3d7cf;stroke:#000000;stroke-width:0.99985313;stroke-linejoin:round;stroke-miterlimit:4;stroke-dasharray:none;stroke-opacity:1"
         transform="matrix(0.94145151,0,0,0.92307505,-112.50359,540.3633)"
         id="layer12">
        <g
           style="fill:#d3d7cf;stroke:#000000;stroke-width:0.99985313;stroke-linejoin:round;stroke-miterlimit:4;stroke-dasharray:none;stroke-opacity:1"
           transform="translate(79,-222)"
           id="g27035">
          <path
             inkscape:connector-curvature="0"
             d="m 126,540 -6,6 6,6 h 9.0353 c 0.53,-0.02 0.96,-0.49 0.96,-1 v -10 c 0,-0.53079 -0.34561,-1 -1.0089,-1 h -8.99 z m 1,3 h 1 c 0.0104,-1.2e-4 0.0208,-4.6e-4 0.0313,0 0.25495,0.0112 0.50987,0.12858 0.6875,0.3125 l 1.2812,1.2812 1.3125,-1.2812 c 0.27,-0.23 0.45,-0.3 0.69,-0.31 h 0.98745 l 0.0126,1 c 0.004,0.28645 -0.0343,0.55065 -0.25,0.75 l -1.2812,1.2812 1.25,1.25 c 0.19,0.19 0.28,0.45 0.28,0.72 l -0.0113,1 h -0.98865 c -0.2653,-10e-6 -0.53059,-0.0931 -0.71875,-0.28125 l -1.28,-1.28 -1.2812,1.2812 c -0.19,0.19 -0.45,0.28 -0.72,0.28 h -1.06588 l 0.0659,-1 c 0.0174,-0.26469 0.0931,-0.53058 0.28125,-0.71875 l 1.2812,-1.25 -1.2812,-1.2812 c -0.21,-0.19 -0.3,-0.47 -0.28,-0.75 l -0.0671,-1 z"
             transform="translate(-79,222)"
             style="color:#000000;fill:#d3d7cf;stroke:#000000;stroke-width:0.99985313;stroke-linejoin:round;stroke-miterlimit:4;stroke-dasharray:none;stroke-opacity:1"
             id="path27041"
             sodipodi:nodetypes="ccccsssccccccccccsccssccccsscscccccc" />
        </g>
      </g>
    </g>
  </g>
</svg>
