<?xml version="1.0" encoding="UTF-8" standalone="no"?>
<!-- Created with Inkscape (http://www.inkscape.org/) -->

<svg
   xmlns:osb="http://www.openswatchbook.org/uri/2009/osb"
   xmlns:dc="http://purl.org/dc/elements/1.1/"
   xmlns:cc="http://creativecommons.org/ns#"
   xmlns:rdf="http://www.w3.org/1999/02/22-rdf-syntax-ns#"
   xmlns:svg="http://www.w3.org/2000/svg"
   xmlns="http://www.w3.org/2000/svg"
   xmlns:xlink="http://www.w3.org/1999/xlink"
   xmlns:sodipodi="http://sodipodi.sourceforge.net/DTD/sodipodi-0.dtd"
   xmlns:inkscape="http://www.inkscape.org/namespaces/inkscape"
   width="16"
   height="16"
   viewBox="0 0 16 16"
   id="svg9284"
   version="1.1"
   inkscape:version="0.91 r13725"
   sodipodi:docname="folder-new.svg">
  <defs
     id="defs9286">
    <linearGradient
       inkscape:collect="always"
       xlink:href="#linearGradient19282-4"
       id="linearGradient9254"
       gradientUnits="userSpaceOnUse"
       x1="15"
       y1="-32"
       x2="31"
       y2="-32"
       gradientTransform="translate(87.2708,506.4328)" />
    <linearGradient
       id="linearGradient19282-4"
       osb:paint="solid"
       gradientTransform="matrix(0.23667958,0,0,0.20304569,-208.29645,97.782765)">
      <stop
         style="stop-color:#bebebe;stop-opacity:1;"
         offset="0"
         id="stop19284-0" />
    </linearGradient>
  </defs>
  <sodipodi:namedview
     id="base"
     pagecolor="#ffffff"
     bordercolor="#666666"
     borderopacity="1.0"
     inkscape:pageopacity="0.0"
     inkscape:pageshadow="2"
     inkscape:zoom="1.979899"
     inkscape:cx="29.802213"
     inkscape:cy="34.969185"
     inkscape:document-units="px"
     inkscape:current-layer="layer1"
     showgrid="false"
     units="px"
     inkscape:window-width="1366"
     inkscape:window-height="741"
     inkscape:window-x="0"
     inkscape:window-y="27"
     inkscape:window-maximized="1" />
  <metadata
     id="metadata9289">
    <rdf:RDF>
      <cc:Work
         rdf:about="">
        <dc:format>image/svg+xml</dc:format>
        <dc:type
           rdf:resource="http://purl.org/dc/dcmitype/StillImage" />
        <dc:title></dc:title>
      </cc:Work>
    </rdf:RDF>
  </metadata>
  <g
     inkscape:label="Layer 1"
     inkscape:groupmode="layer"
     id="layer1"
     transform="translate(0,-1036.3622)">
    <g
       style="display:inline"
       id="folder-new"
       inkscape:label="#folder-new"
       transform="matrix(0.9999575,0,0,0.99995063,-14.999363,1076.3602)"
       inkscape:export-filename="/home/jehan/dev/src/gimp/icons/Symbolic/16/folder-new.png"
       inkscape:export-xdpi="423.35001"
       inkscape:export-ydpi="423.35001">
      <path
         style="display:inline;fill:url(#linearGradient9254);fill-opacity:1;stroke:none"
         d="m 102.80273,466.43359 c -0.28913,0 -0.53125,0.24212 -0.53125,0.53125 l 0,14.9375 c 0,0.2985 0.23264,0.53125 0.53125,0.53125 l 14.9375,0 c 0.2986,0 0.53125,-0.23265 0.53125,-0.53125 l 0,-9.9375 c 0,-0.2891 -0.24212,-0.53125 -0.53125,-0.53125 l -12.46875,0 0,8.5 c 0,0.277 -0.223,0.5 -0.5,0.5 -0.277,0 -0.5,-0.223 -0.5,-0.5 l 0,-9 c 0,-0.277 0.223,-0.5 0.5,-0.5 l 2.96875,0 8.53125,0 0,-1.40625 c 0,-0.3272 -0.26666,-0.59375 -0.59375,-0.59375 l -7.40625,0 0,-1.46875 c 0,-0.28915 -0.24212,-0.53125 -0.53125,-0.53125 l -4.9375,0 z m 8.21289,6.28125 2,0 0,3 3,0 0,2 -3,0 0,3 -2,0 0,-3 -3,0 0,-2 3,0 0,-3 z"
         transform="translate(-87.2708,-506.4328)"
         id="rect3845-53"
         inkscape:connector-curvature="0" />
    </g>
  </g>
</svg>
