<?xml version="1.0" encoding="UTF-8" standalone="no"?>
<svg
   xmlns:osb="http://www.openswatchbook.org/uri/2009/osb"
   xmlns:dc="http://purl.org/dc/elements/1.1/"
   xmlns:cc="http://creativecommons.org/ns#"
   xmlns:rdf="http://www.w3.org/1999/02/22-rdf-syntax-ns#"
   xmlns:svg="http://www.w3.org/2000/svg"
   xmlns="http://www.w3.org/2000/svg"
   xmlns:xlink="http://www.w3.org/1999/xlink"
   xmlns:sodipodi="http://sodipodi.sourceforge.net/DTD/sodipodi-0.dtd"
   xmlns:inkscape="http://www.inkscape.org/namespaces/inkscape"
   viewBox="0 0 16.000572 16"
   id="svg7384"
   height="16"
   width="16.000572"
   version="1.1"
   inkscape:version="0.91+devel r"
   sodipodi:docname="gimp-convert-indexed.svg">
  <sodipodi:namedview
     pagecolor="#ffffff"
     bordercolor="#666666"
     borderopacity="1"
     objecttolerance="10"
     gridtolerance="10"
     guidetolerance="10"
     inkscape:pageopacity="0"
     inkscape:pageshadow="2"
     inkscape:window-width="1051"
     inkscape:window-height="432"
     id="namedview1517"
     showgrid="false"
     inkscape:zoom="14.75"
     inkscape:cx="-613.58218"
     inkscape:cy="7.8571426"
     inkscape:window-x="0"
     inkscape:window-y="27"
     inkscape:window-maximized="0"
     inkscape:current-layer="svg7384" />
  <metadata
     id="metadata90">
    <rdf:RDF>
      <cc:Work
         rdf:about="">
        <dc:format>image/svg+xml</dc:format>
        <dc:type
           rdf:resource="http://purl.org/dc/dcmitype/StillImage" />
        <dc:title />
        <dc:contributor>
          <cc:Agent>
            <dc:title>Barbara Muraus, Jakub Steiner, Klaus Staedtler</dc:title>
          </cc:Agent>
        </dc:contributor>
        <dc:description>Images originally created as the &quot;Art Libre&quot; icon set. Extended and adopted for GIMP</dc:description>
      </cc:Work>
    </rdf:RDF>
  </metadata>
  <defs
     id="defs7386">
    <linearGradient
       osb:paint="solid"
       id="linearGradient8074">
      <stop
         id="stop8072"
         offset="0"
         style="stop-color:#be00be;stop-opacity:1;" />
    </linearGradient>
    <linearGradient
       gradientTransform="matrix(0.34682586,0,0,0.30620888,-154.35207,761.03852)"
       osb:paint="solid"
       id="linearGradient19282-4">
      <stop
         id="stop19284-0"
         offset="0"
         style="stop-color:#bebebe;stop-opacity:1;" />
    </linearGradient>
    <linearGradient
       gradientTransform="translate(602.39408,418.45008)"
       gradientUnits="userSpaceOnUse"
       y2="-0.14554323"
       x2="-21.686975"
       y1="-0.14554323"
       x1="-37.691898"
       id="linearGradient8060"
       xlink:href="#linearGradient19282-4" />
    <linearGradient
       gradientTransform="translate(608.58941,422.75363)"
       gradientUnits="userSpaceOnUse"
       y2="11.708742"
       x2="16.179516"
       y1="11.708742"
       x1="0.0004558436"
       id="linearGradient8062"
       xlink:href="#linearGradient19282-4" />
    <linearGradient
       gradientTransform="translate(602.39408,418.45008)"
       gradientUnits="userSpaceOnUse"
       y2="-0.14554323"
       x2="-21.686975"
       y1="-0.14554323"
       x1="-37.691898"
       id="linearGradient8068"
       xlink:href="#linearGradient19282-4" />
    <linearGradient
       gradientTransform="translate(608.58941,422.75363)"
       gradientUnits="userSpaceOnUse"
       y2="11.708742"
       x2="16.179516"
       y1="11.708742"
       x1="0.0004558436"
       id="linearGradient8070"
       xlink:href="#linearGradient19282-4" />
    <linearGradient
       gradientTransform="translate(601.34518,422.76856)"
       gradientUnits="userSpaceOnUse"
       y2="6.25"
       x2="6.5"
       y1="6.25"
       x1="3.5"
       id="linearGradient8076"
       xlink:href="#linearGradient8074" />
    <linearGradient
       gradientTransform="translate(601.34518,422.76856)"
       gradientUnits="userSpaceOnUse"
       y2="9.5"
       x2="6.5"
       y1="9.5"
       x1="3.5"
       id="linearGradient8078"
       xlink:href="#linearGradient8074" />
    <linearGradient
       gradientTransform="translate(601.34518,422.76856)"
       gradientUnits="userSpaceOnUse"
       y2="11.5"
       x2="9.5"
       y1="11.5"
       x1="6.5"
       id="linearGradient8080"
       xlink:href="#linearGradient8074" />
    <linearGradient
       gradientTransform="translate(601.34518,422.76856)"
       gradientUnits="userSpaceOnUse"
       y2="8"
       x2="9.5"
       y1="8"
       x1="6.5"
       id="linearGradient8082"
       xlink:href="#linearGradient8074" />
    <linearGradient
       gradientTransform="translate(601.34518,422.76856)"
       gradientUnits="userSpaceOnUse"
       y2="9.5"
       x2="12.5"
       y1="9.5"
       x1="9.5"
       id="linearGradient8084"
       xlink:href="#linearGradient8074" />
    <linearGradient
       gradientTransform="translate(601.34518,422.76856)"
       gradientUnits="userSpaceOnUse"
       y2="6.25"
       x2="12.5"
       y1="6.25"
       x1="9.5"
       id="linearGradient8086"
       xlink:href="#linearGradient8074" />
    <linearGradient
       gradientTransform="translate(601.34518,422.76856)"
       gradientUnits="userSpaceOnUse"
       y2="4.5"
       x2="9.5"
       y1="4.5"
       x1="6.5"
       id="linearGradient8088"
       xlink:href="#linearGradient8074" />
    <linearGradient
       gradientTransform="translate(601.34518,422.76856)"
       gradientUnits="userSpaceOnUse"
       y2="6.2499986"
       x2="6.5343528"
       y1="6.2499986"
       x1="3.4656458"
       id="linearGradient8094"
       xlink:href="#linearGradient19282-4" />
    <linearGradient
       gradientTransform="translate(601.34518,422.76856)"
       gradientUnits="userSpaceOnUse"
       y2="9.499999"
       x2="6.5343528"
       y1="9.499999"
       x1="3.4656458"
       id="linearGradient8096"
       xlink:href="#linearGradient19282-4" />
    <linearGradient
       gradientTransform="translate(601.34518,422.76856)"
       gradientUnits="userSpaceOnUse"
       y2="11.499999"
       x2="9.5343533"
       y1="11.499999"
       x1="6.4656458"
       id="linearGradient8098"
       xlink:href="#linearGradient19282-4" />
    <linearGradient
       gradientTransform="translate(601.34518,422.76856)"
       gradientUnits="userSpaceOnUse"
       y2="7.9999986"
       x2="9.5343533"
       y1="7.9999986"
       x1="6.4656458"
       id="linearGradient8100"
       xlink:href="#linearGradient19282-4" />
    <linearGradient
       gradientTransform="translate(601.34518,422.76856)"
       gradientUnits="userSpaceOnUse"
       y2="9.499999"
       x2="12.534353"
       y1="9.499999"
       x1="9.4656458"
       id="linearGradient8102"
       xlink:href="#linearGradient19282-4" />
    <linearGradient
       gradientTransform="translate(601.34518,422.76856)"
       gradientUnits="userSpaceOnUse"
       y2="6.2499986"
       x2="12.534353"
       y1="6.2499986"
       x1="9.4656458"
       id="linearGradient8104"
       xlink:href="#linearGradient19282-4" />
    <linearGradient
       gradientTransform="translate(601.34518,422.76856)"
       gradientUnits="userSpaceOnUse"
       y2="4.4999986"
       x2="9.5343533"
       y1="4.4999986"
       x1="6.4656458"
       id="linearGradient8106"
       xlink:href="#linearGradient19282-4" />
  </defs>
  <g
     transform="translate(-143.53403,-255.73732)"
     style="display:inline"
     id="stock">
    <g
       id="gimp-convert-indexed"
       transform="translate(143.53403,255.73734)">
      <g
         id="g3988"
         transform="matrix(0.99825878,0,0,1.0103202,37.649785,-1042.6369)">
        <path
           style="opacity:1;fill:url(#linearGradient8062);fill-opacity:1;stroke:url(#linearGradient8070);stroke-width:0.92452389;stroke-miterlimit:4;stroke-dasharray:none;stroke-opacity:1"
           d="m 15.717085,7.9199219 -1.851851,0.00781 C 13.8598,11.070934 11.239612,13.486478 8.0963737,13.499515 4.953023,13.513495 2.4658804,11.119717 2.4335938,7.9765625 l -1.96679692,0.00781 C 0.50379698,12.179127 3.9014945,15.517405 8.0963737,15.499444 12.290375,15.480694 15.715571,12.113963 15.717085,7.9199219 Z"
           transform="matrix(0.98982019,0,0,0.98982019,-37.715456,1031.9866)"
           id="path3938"
           inkscape:connector-curvature="0" />
        <path
           id="path3938-8"
           transform="translate(0,1036.3622)"
           d="m -29.65625,-3.9179688 c -4.15312,-0.017645 -7.539055,3.32550704 -7.574219,7.4785157 l 1.955078,0.00781 c 0.09858,-3.0593611 2.512899,-5.4802286 5.573889,-5.4695019 3.061221,0.015377 5.654745,2.45798074 5.726893,5.51833 l 1.830078,0.00781 c 3.24e-4,-4.1538122 -3.403193,-7.4887895 -7.556971,-7.5057104 z"
           style="opacity:0.3;fill:url(#linearGradient8060);fill-opacity:1;stroke:url(#linearGradient8068);stroke-width:0.91511244;stroke-miterlimit:4;stroke-dasharray:none;stroke-opacity:1"
           inkscape:connector-curvature="0" />
      </g>
      <path
         style="opacity:0.3;fill:url(#linearGradient8106);fill-opacity:1;stroke:url(#linearGradient8088);stroke-width:0.06870588;stroke-miterlimit:4;stroke-dasharray:none;stroke-opacity:1"
         id="path4054-3"
         d="M 9.5,4.5 A 1.5,1.5 0 0 1 8.0068264,5.9999845 1.5,1.5 0 0 1 6.5000621,4.5136527 1.5,1.5 0 0 1 7.9795214,3.0001398 1.5,1.5 0 0 1 9.4997515,4.4726958"
         inkscape:connector-curvature="0" />
      <path
         style="opacity:0.4;fill:url(#linearGradient8104);fill-opacity:1;stroke:url(#linearGradient8086);stroke-width:0.06870588;stroke-miterlimit:4;stroke-dasharray:none;stroke-opacity:1"
         id="path4054-1-3"
         d="M 12.5,6.25 A 1.5,1.5 0 0 1 11.006826,7.7499845 1.5,1.5 0 0 1 9.5000621,6.2636527 1.5,1.5 0 0 1 10.979521,4.7501398 a 1.5,1.5 0 0 1 1.52023,1.472556"
         inkscape:connector-curvature="0" />
      <path
         style="opacity:0.5;fill:url(#linearGradient8102);fill-opacity:1;stroke:url(#linearGradient8084);stroke-width:0.06870588;stroke-miterlimit:4;stroke-dasharray:none;stroke-opacity:1"
         id="path4054-1-9-0"
         d="m 12.5,9.5 a 1.5,1.5 0 0 1 -1.493174,1.499984 1.5,1.5 0 0 1 -1.5067639,-1.4863313 1.5,1.5 0 0 1 1.4794589,-1.5135129 1.5,1.5 0 0 1 1.52023,1.472556"
         inkscape:connector-curvature="0" />
      <path
         style="opacity:0.8;fill:url(#linearGradient8094);fill-opacity:1;stroke:url(#linearGradient8076);stroke-width:0.06870588;stroke-miterlimit:4;stroke-dasharray:none;stroke-opacity:1"
         id="path4054-7-5"
         d="M 6.5,6.25 A 1.5,1.5 0 0 1 5.0068264,7.7499845 1.5,1.5 0 0 1 3.5000621,6.2636527 1.5,1.5 0 0 1 4.9795214,4.7501398 1.5,1.5 0 0 1 6.4997515,6.2226958"
         inkscape:connector-curvature="0" />
      <path
         style="opacity:0.7;fill:url(#linearGradient8096);fill-opacity:1;stroke:url(#linearGradient8078);stroke-width:0.06870588;stroke-miterlimit:4;stroke-dasharray:none;stroke-opacity:1"
         id="path4054-7-4-8"
         d="M 6.5,9.5 A 1.5,1.5 0 0 1 5.0068264,10.999984 1.5,1.5 0 0 1 3.5000621,9.5136527 1.5,1.5 0 0 1 4.9795214,8.0001398 1.5,1.5 0 0 1 6.4997515,9.4726958"
         inkscape:connector-curvature="0" />
      <path
         style="opacity:0.6;fill:url(#linearGradient8098);fill-opacity:1;stroke:url(#linearGradient8080);stroke-width:0.06870588;stroke-miterlimit:4;stroke-dasharray:none;stroke-opacity:1"
         id="path4054-7-4-3-4"
         d="M 9.5,11.5 A 1.5,1.5 0 0 1 8.0068264,12.999984 1.5,1.5 0 0 1 6.5000621,11.513653 1.5,1.5 0 0 1 7.9795214,10.00014 1.5,1.5 0 0 1 9.4997515,11.472696"
         inkscape:connector-curvature="0" />
      <path
         style="opacity:1;fill:url(#linearGradient8100);fill-opacity:1;stroke:url(#linearGradient8082);stroke-width:0.06870588;stroke-miterlimit:4;stroke-dasharray:none;stroke-opacity:1"
         id="path4054-5-8"
         d="M 9.5,8 A 1.5,1.5 0 0 1 8.0068264,9.4999845 1.5,1.5 0 0 1 6.5000621,8.0136527 1.5,1.5 0 0 1 7.9795214,6.5001398 1.5,1.5 0 0 1 9.4997515,7.9726958"
         inkscape:connector-curvature="0" />
    </g>
  </g>
</svg>
