<?xml version="1.0" encoding="UTF-8" standalone="no"?>
<svg
   width="32"
   height="32"
   fill="none"
   version="1.1"
   id="svg11"
   xmlns="http://www.w3.org/2000/svg"
   xmlns:svg="http://www.w3.org/2000/svg">
  <path
     fill="url(#a)"
     d="M1 17c0-4.9706 4.02944-9 9-9h12c4.9706 0 9 4.0294 9 9s-4.0294 9-9 9H10c-4.97056 0-9-4.0294-9-9Z"
     id="path1" />
  <circle
     cx="10"
     cy="17"
     r="6"
     fill="#EBEBEB"
     id="circle1" />
  <path
     fill="url(#b)"
     fill-opacity=".9"
     fill-rule="evenodd"
     d="M10 8c-4.97058 0-9 4.0294-9 9s4.02942 9 9 9h12c4.9706 0 9-4.0294 9-9s-4.0294-9-9-9H10Zm0 1c-4.41833 0-8 3.5817-8 8s3.58167 8 8 8h12c4.4183 0 8-3.5817 8-8s-3.5817-8-8-8H10Z"
     clip-rule="evenodd"
     id="path2" />
  <path
     fill="url(#c)"
     fill-opacity=".9"
     fill-rule="evenodd"
     d="M10 8c-4.97058 0-9 4.0294-9 9s4.02942 9 9 9h12c4.9706 0 9-4.0294 9-9s-4.0294-9-9-9H10Zm0 1c-4.41833 0-8 3.5817-8 8s3.58167 8 8 8h12c4.4183 0 8-3.5817 8-8s-3.5817-8-8-8H10Z"
     clip-rule="evenodd"
     id="path3" />
  <path
     fill="#525252"
     fill-rule="evenodd"
     d="M10 7C4.47715 7 0 11.4772 0 17s4.47715 10 10 10h12c5.5228 0 10-4.4772 10-10S27.5228 7 22 7H10Zm0 1c-4.97056 0-9 4.0294-9 9s4.02944 9 9 9h12c4.9706 0 9-4.0294 9-9s-4.0294-9-9-9H10Z"
     clip-rule="evenodd"
     id="path4" />
  <defs
     id="defs11">
    <linearGradient
       id="a"
       x1="16"
       x2="16"
       y1="8"
       y2="26"
       gradientUnits="userSpaceOnUse">
      <stop
         stop-color="#ABABAB"
         id="stop4" />
      <stop
         offset="1"
         stop-color="#8A8A8A"
         id="stop5" />
    </linearGradient>
    <linearGradient
       id="b"
       x1="236.625"
       x2="236.625"
       y1="7.69854"
       y2="26.2352"
       gradientUnits="userSpaceOnUse">
      <stop
         stop-color="white"
         stop-opacity=".5"
         id="stop6" />
      <stop
         offset=".50776"
         stop-color="white"
         stop-opacity=".12"
         id="stop7" />
      <stop
         offset=".83457"
         stop-color="white"
         stop-opacity=".09"
         id="stop8" />
      <stop
         offset="1"
         stop-color="white"
         stop-opacity=".26"
         id="stop9" />
    </linearGradient>
    <linearGradient
       id="c"
       x1="1"
       x2="31"
       y1="17"
       y2="17"
       gradientUnits="userSpaceOnUse">
      <stop
         stop-color="#888888"
         stop-opacity=".8"
         id="stop10" />
      <stop
         offset=".745"
         stop-color="white"
         stop-opacity="0"
         id="stop11" />
    </linearGradient>
  </defs>
</svg>
