<?xml version="1.0" encoding="UTF-8" standalone="no"?>
<svg
   xmlns:dc="http://purl.org/dc/elements/1.1/"
   xmlns:cc="http://creativecommons.org/ns#"
   xmlns:rdf="http://www.w3.org/1999/02/22-rdf-syntax-ns#"
   xmlns:svg="http://www.w3.org/2000/svg"
   xmlns="http://www.w3.org/2000/svg"
   xmlns:sodipodi="http://sodipodi.sourceforge.net/DTD/sodipodi-0.dtd"
   xmlns:inkscape="http://www.inkscape.org/namespaces/inkscape"
   width="4.4921298mm"
   height="4.7608285mm"
   viewBox="0 0 4.4921298 4.7608285"
   version="1.1"
   id="svg31752"
   inkscape:version="1.0.2 (e86c870879, 2021-01-15)"
   sodipodi:docname="multiple lock.svg">
  <defs
     id="defs31746" />
  <sodipodi:namedview
     id="base"
     pagecolor="#ffffff"
     bordercolor="#666666"
     borderopacity="1.0"
     inkscape:pageopacity="0.0"
     inkscape:pageshadow="2"
     inkscape:zoom="3.4868549"
     inkscape:cx="43.45029"
     inkscape:cy="48.245674"
     inkscape:document-units="mm"
     inkscape:current-layer="layer1"
     inkscape:document-rotation="0"
     showgrid="false"
     inkscape:pagecheckerboard="false"
     fit-margin-top="0"
     fit-margin-left="0"
     fit-margin-right="0"
     fit-margin-bottom="0"
     inkscape:window-width="1920"
     inkscape:window-height="1136"
     inkscape:window-x="0"
     inkscape:window-y="27"
     inkscape:window-maximized="1" />
  <metadata
     id="metadata31749">
    <rdf:RDF>
      <cc:Work
         rdf:about="">
        <dc:format>image/svg+xml</dc:format>
        <dc:type
           rdf:resource="http://purl.org/dc/dcmitype/StillImage" />
        <dc:title></dc:title>
      </cc:Work>
    </rdf:RDF>
  </metadata>
  <g
     inkscape:label="Layer 1"
     inkscape:groupmode="layer"
     id="layer1"
     transform="translate(-38.58479,-91.530558)">
    <g
       id="g1145"
       transform="translate(-162.48252,30.84899)"
       style="fill:#bebebe;fill-opacity:1">
      <path
         style="color:#bebebe;font-style:normal;font-variant:normal;font-weight:normal;font-stretch:normal;font-size:medium;line-height:normal;font-family:sans-serif;font-variant-ligatures:normal;font-variant-position:normal;font-variant-caps:normal;font-variant-numeric:normal;font-variant-alternates:normal;font-variant-east-asian:normal;font-feature-settings:normal;font-variation-settings:normal;text-indent:0;text-align:start;text-decoration:none;text-decoration-line:none;text-decoration-style:solid;text-decoration-color:#000000;letter-spacing:normal;word-spacing:normal;text-transform:none;writing-mode:lr-tb;direction:ltr;text-orientation:mixed;dominant-baseline:auto;baseline-shift:baseline;text-anchor:start;white-space:normal;shape-padding:0;shape-margin:0;inline-size:0;clip-rule:nonzero;display:inline;overflow:visible;visibility:visible;isolation:auto;mix-blend-mode:normal;color-interpolation:sRGB;color-interpolation-filters:linearRGB;solid-color:#000000;solid-opacity:1;vector-effect:none;fill:#bebebe;fill-opacity:1;fill-rule:nonzero;stroke:none;stroke-width:0.3;stroke-linecap:butt;stroke-linejoin:miter;stroke-miterlimit:4;stroke-dasharray:none;stroke-dashoffset:0;stroke-opacity:1;marker:none;color-rendering:auto;image-rendering:auto;shape-rendering:auto;text-rendering:auto;enable-background:accumulate;stop-color:#000000"
         d="m 203.70735,62.002812 c -0.43524,0 -0.79375,0.358511 -0.79375,0.79375 v 0.79375 h -0.26458 c -0.14658,0 -0.26458,0.118002 -0.26458,0.264584 v 0.79375 0.79375 h 3.175 v -1.058334 -0.529166 c 0,-0.146582 -0.11801,-0.264584 -0.26459,-0.264584 h -0.26458 v -0.79375 c 0,-0.435239 -0.35851,-0.79375 -0.79375,-0.79375 z m 0,0.529167 h 0.52917 c 0.15108,0 0.26458,0.113506 0.26458,0.264583 v 0.79375 h -1.05833 v -0.79375 c 0,-0.151077 0.11351,-0.264583 0.26458,-0.264583 z"
         id="path1134" />
      <path
         id="path1136"
         style="color:#bebebe;fill:#bebebe;fill-opacity:1;stroke-width:0.999999;marker:none"
         d="m 764.93945,229.34766 c -1.645,0 -3,1.35499 -3,3 v 3 h -1 c -0.55396,0 -1,0.44599 -1,1 v 3 3 h 4.41211 v -1.03125 c 0,-0.85827 0.70815,-1.56641 1.56641,-1.56641 h 0.43359 v -2.43359 c 0,-0.72589 0.22279,-1.40277 0.60156,-1.96875 h -3.01367 v -3 c 0,-0.57101 0.42903,-1 1,-1 h 2 c 0.57105,0 1,0.42899 1,1 v 2.00976 c 0.56773,-0.38231 1.24893,-0.60742 1.97852,-0.60742 h 0.0215 v -1.40234 c 0,-1.64501 -1.35496,-3 -3,-3 z"
         sodipodi:nodetypes="sscsscccsscsccsssscscsss"
         transform="scale(0.26458333)" />
    </g>
  </g>
</svg>
