<?xml version="1.0" encoding="UTF-8" standalone="no"?>
<svg
   xmlns:dc="http://purl.org/dc/elements/1.1/"
   xmlns:cc="http://creativecommons.org/ns#"
   xmlns:rdf="http://www.w3.org/1999/02/22-rdf-syntax-ns#"
   xmlns:svg="http://www.w3.org/2000/svg"
   xmlns="http://www.w3.org/2000/svg"
   xmlns:sodipodi="http://sodipodi.sourceforge.net/DTD/sodipodi-0.dtd"
   xmlns:inkscape="http://www.inkscape.org/namespaces/inkscape"
   width="4.2329998mm"
   height="4.2329998mm"
   viewBox="0 0 4.2329998 4.2329998"
   version="1.1"
   id="svg35166"
   inkscape:version="1.0.2 (e86c870879, 2021-01-15)"
   sodipodi:docname="gimp-visible-color.svg">
  <defs
     id="defs35160" />
  <sodipodi:namedview
     id="base"
     pagecolor="#ffffff"
     bordercolor="#666666"
     borderopacity="1.0"
     inkscape:pageopacity="0.0"
     inkscape:pageshadow="2"
     inkscape:zoom="14.979456"
     inkscape:cx="0.94787197"
     inkscape:cy="9.571213"
     inkscape:document-units="mm"
     inkscape:current-layer="layer1"
     inkscape:document-rotation="0"
     showgrid="false"
     fit-margin-top="0"
     fit-margin-left="0"
     fit-margin-right="0"
     fit-margin-bottom="0"
     inkscape:window-width="1920"
     inkscape:window-height="1136"
     inkscape:window-x="0"
     inkscape:window-y="27"
     inkscape:window-maximized="1" />
  <metadata
     id="metadata35163">
    <rdf:RDF>
      <cc:Work
         rdf:about="">
        <dc:format>image/svg+xml</dc:format>
        <dc:type
           rdf:resource="http://purl.org/dc/dcmitype/StillImage" />
        <dc:title></dc:title>
      </cc:Work>
    </rdf:RDF>
  </metadata>
  <g
     inkscape:label="Layer 1"
     inkscape:groupmode="layer"
     id="layer1"
     transform="translate(-181.31457,-57.208792)">
    <rect
       style="fill:none;fill-opacity:1;stroke:none;stroke-width:0.4;stroke-linecap:square;stroke-linejoin:miter;stroke-miterlimit:4;stroke-dasharray:none;stroke-opacity:1;paint-order:stroke markers fill"
       id="rect99545"
       width="4.2329998"
       height="4.2329998"
       x="181.31458"
       y="57.20879" />
    <g
       id="g97273"
       transform="matrix(1.1034465,0,0,1.1034465,43.535443,-2.7997844)">
      <g
         id="path97265"
         style="opacity:1">
        <path
           id="path99353"
           style="color:#000000;font-style:normal;font-variant:normal;font-weight:normal;font-stretch:normal;font-size:medium;line-height:normal;font-family:sans-serif;font-variant-ligatures:normal;font-variant-position:normal;font-variant-caps:normal;font-variant-numeric:normal;font-variant-alternates:normal;font-variant-east-asian:normal;font-feature-settings:normal;font-variation-settings:normal;text-indent:0;text-align:start;text-decoration:none;text-decoration-line:none;text-decoration-style:solid;text-decoration-color:#000000;letter-spacing:normal;word-spacing:normal;text-transform:none;writing-mode:lr-tb;direction:ltr;text-orientation:mixed;dominant-baseline:auto;baseline-shift:baseline;text-anchor:start;white-space:normal;shape-padding:0;shape-margin:0;inline-size:0;clip-rule:nonzero;display:inline;overflow:visible;visibility:visible;isolation:auto;mix-blend-mode:normal;color-interpolation:sRGB;color-interpolation-filters:linearRGB;solid-color:#000000;solid-opacity:1;vector-effect:none;fill:#ffffff;fill-opacity:1;fill-rule:evenodd;stroke:none;stroke-width:1.38325;stroke-linecap:square;stroke-linejoin:round;stroke-miterlimit:4;stroke-dasharray:none;stroke-dashoffset:0.2;stroke-opacity:1;marker:none;color-rendering:auto;image-rendering:auto;shape-rendering:auto;text-rendering:auto;enable-background:accumulate;stop-color:#000000;stop-opacity:1"
           d="m 245.44922,181.75 c -3.75533,0 -6.1224,2.10937 -6.80274,4.21875 0.55449,1.71917 2.24509,3.41888 4.87891,3.99609 0.14793,-0.79905 0.75769,-1.47662 1.70703,-1.67187 v -1.20899 c 0,-1.73821 1.33635,-3.29296 3.12891,-3.29296 h 0.34765 c 1.72621,0 3.0952,1.52892 3.18993,3.18959 0.1731,-0.30472 0.25257,-0.70034 0.35304,-1.01186 -0.68033,-2.10938 -3.0474,-4.21875 -6.80273,-4.21875 z"
           transform="matrix(0.23977903,0,0,0.23977903,67.917309,11.326474)"
           sodipodi:nodetypes="scccsssccs" />
        <path
           id="path99355"
           style="color:#000000;font-style:normal;font-variant:normal;font-weight:normal;font-stretch:normal;font-size:medium;line-height:normal;font-family:sans-serif;font-variant-ligatures:normal;font-variant-position:normal;font-variant-caps:normal;font-variant-numeric:normal;font-variant-alternates:normal;font-variant-east-asian:normal;font-feature-settings:normal;font-variation-settings:normal;text-indent:0;text-align:start;text-decoration:none;text-decoration-line:none;text-decoration-style:solid;text-decoration-color:#000000;letter-spacing:normal;word-spacing:normal;text-transform:none;writing-mode:lr-tb;direction:ltr;text-orientation:mixed;dominant-baseline:auto;baseline-shift:baseline;text-anchor:start;white-space:normal;shape-padding:0;shape-margin:0;inline-size:0;clip-rule:nonzero;display:inline;overflow:visible;visibility:visible;isolation:auto;mix-blend-mode:normal;color-interpolation:sRGB;color-interpolation-filters:linearRGB;solid-color:#000000;solid-opacity:1;vector-effect:none;fill:#555753;fill-opacity:1;fill-rule:evenodd;stroke:none;stroke-width:4.17051;stroke-linecap:square;stroke-linejoin:round;stroke-miterlimit:4;stroke-dasharray:none;stroke-dashoffset:0.2;stroke-opacity:1;marker:none;color-rendering:auto;image-rendering:auto;shape-rendering:auto;text-rendering:auto;enable-background:accumulate;stop-color:#000000;stop-opacity:1"
           d="m 245.45117,181.05664 c -4.01432,0 -6.67805,2.27387 -7.46094,4.70117 -0.0444,0.1378 -0.0444,0.28603 0,0.42383 0.64694,2.00578 2.5816,3.90052 5.49805,4.5 l 0.004,-0.33561 c 0.005,-0.36892 0.0984,-0.72215 0.27884,-1.03292 -2.32503,-0.48739 -3.75734,-1.93431 -4.30663,-3.34436 0.67241,-1.72614 2.635,-3.52734 5.98633,-3.52734 2.19899,0 3.78566,0.77997 4.81445,1.80078 0.95614,0.5828 1.58204,1.66306 1.58204,2.84179 v 1.00391 c 0.48419,-0.59707 0.85047,-1.24283 1.06445,-1.90625 0.0443,-0.1378 0.0443,-0.28603 0,-0.42383 -0.78289,-2.4273 -3.44658,-4.70117 -7.46094,-4.70117 z"
           transform="matrix(0.23977903,0,0,0.23977903,67.917309,11.326474)"
           sodipodi:nodetypes="scccsccscscccs" />
      </g>
      <path
         id="circle97267"
         style="display:inline;fill:#204a87;fill-opacity:1;fill-rule:evenodd;stroke:none;stroke-width:2.92493;stroke-linecap:round;stroke-linejoin:round;stroke-miterlimit:4;stroke-dasharray:none;stroke-dashoffset:0;stroke-opacity:1;marker:none;marker-start:none;marker-mid:none;marker-end:none"
         d="m 245.25977,182.28711 c -1.96462,0.0461 -3.53322,1.65203 -3.53321,3.61719 -3.2e-4,1.41764 0.82729,2.70487 2.11719,3.29297 0.29667,-0.43929 0.76742,-0.77653 1.38867,-0.9043 v -1.20899 c 0,-1.71342 1.3007,-3.24168 3.05469,-3.28515 -0.67934,-0.94873 -1.77453,-1.5116 -2.94141,-1.51172 -0.0286,-3.4e-4 -0.0573,-3.4e-4 -0.0859,0 z"
         transform="matrix(0.23977903,0,0,0.23977903,67.917309,11.326474)"
         sodipodi:nodetypes="ccccsccc" />
      <path
         id="circle97269"
         style="display:inline;fill:#3a73aa;fill-opacity:1;fill-rule:evenodd;stroke:none;stroke-width:1.67139;stroke-linecap:round;stroke-linejoin:round;stroke-miterlimit:4;stroke-dasharray:none;stroke-dashoffset:0;stroke-opacity:1;marker:none;marker-start:none;marker-mid:none;marker-end:none"
         d="m 245.44922,183.73438 a 2.0675291,2.0675291 0 0 0 -2.06836,2.0664 2.0675291,2.0675291 0 0 0 1.85156,2.05664 v -0.77344 c 0,-1.17728 0.62169,-2.25654 1.57422,-2.83984 a 2.0675291,2.0675291 0 0 0 -1.35742,-0.50976 z"
         transform="matrix(0.23977903,0,0,0.23977903,67.917309,11.326474)" />
      <path
         id="circle97271"
         style="display:inline;fill:#000000;fill-opacity:1;fill-rule:evenodd;stroke:none;stroke-width:0.668553;stroke-linecap:round;stroke-linejoin:round;stroke-miterlimit:4;stroke-dasharray:none;stroke-dashoffset:0;stroke-opacity:1;marker:none;marker-start:none;marker-mid:none;marker-end:none"
         d="m 245.44922,184.97461 a 0.82701145,0.82701145 0 0 0 -0.82813,0.82617 0.82701145,0.82701145 0 0 0 0.65625,0.81055 c 0.0784,-0.5554 0.29189,-1.07133 0.60938,-1.51172 a 0.82701145,0.82701145 0 0 0 -0.4375,-0.125 z"
         transform="matrix(0.23977903,0,0,0.23977903,67.917309,11.326474)" />
    </g>
    <g
       id="g99227"
       transform="translate(126.04639,10.940189)">
      <g
         id="g97518-15-5-9-4-0"
         transform="matrix(0.74750808,0,0,0.74750808,-7.218628,0.2337136)">
        <path
           style="color:#000000;font-style:normal;font-variant:normal;font-weight:normal;font-stretch:normal;font-size:medium;line-height:normal;font-family:sans-serif;font-variant-ligatures:normal;font-variant-position:normal;font-variant-caps:normal;font-variant-numeric:normal;font-variant-alternates:normal;font-variant-east-asian:normal;font-feature-settings:normal;font-variation-settings:normal;text-indent:0;text-align:start;text-decoration:none;text-decoration-line:none;text-decoration-style:solid;text-decoration-color:#000000;letter-spacing:normal;word-spacing:normal;text-transform:none;writing-mode:lr-tb;direction:ltr;text-orientation:mixed;dominant-baseline:auto;baseline-shift:baseline;text-anchor:start;white-space:normal;shape-padding:0;shape-margin:0;inline-size:0;clip-rule:nonzero;display:inline;overflow:visible;visibility:visible;isolation:auto;mix-blend-mode:normal;color-interpolation:sRGB;color-interpolation-filters:linearRGB;solid-color:#000000;solid-opacity:1;vector-effect:none;fill:#494949;fill-opacity:1;fill-rule:nonzero;stroke:#cccccc;stroke-width:0.131206;stroke-linecap:round;stroke-linejoin:round;stroke-miterlimit:4;stroke-dasharray:none;stroke-dashoffset:0;stroke-opacity:1;paint-order:fill markers stroke;color-rendering:auto;image-rendering:auto;shape-rendering:auto;text-rendering:auto;enable-background:accumulate;stop-color:#000000"
           d="m 87.441415,63.345707 c -0.479645,0 -0.842077,0.419789 -0.842077,0.900936 v 0.646581 c 0,0.48114 0.362432,0.900927 0.842077,0.900927 h 0.123256 c 0.479635,0 0.843366,-0.419787 0.843366,-0.900927 v -0.646581 c 0,-0.481147 -0.363731,-0.900936 -0.843366,-0.900936 z m 0,0.454266 h 0.123256 c 0.196891,0 0.377563,0.180364 0.377563,0.44667 v 0.646581 c 0,0.266306 -0.180672,0.44793 -0.377563,0.44793 h -0.123256 c -0.1969,0 -0.377579,-0.181624 -0.377579,-0.44793 v -0.646581 c 0,-0.266306 0.180679,-0.44667 0.377579,-0.44667 z"
           id="path97512-4-1-3-8-9" />
        <g
           id="path97514-1-0-4-9-0"
           style="opacity:1">
          <path
             style="color:#000000;font-style:normal;font-variant:normal;font-weight:normal;font-stretch:normal;font-size:medium;line-height:normal;font-family:sans-serif;font-variant-ligatures:normal;font-variant-position:normal;font-variant-caps:normal;font-variant-numeric:normal;font-variant-alternates:normal;font-variant-east-asian:normal;font-feature-settings:normal;font-variation-settings:normal;text-indent:0;text-align:start;text-decoration:none;text-decoration-line:none;text-decoration-style:solid;text-decoration-color:#000000;letter-spacing:normal;word-spacing:normal;text-transform:none;writing-mode:lr-tb;direction:ltr;text-orientation:mixed;dominant-baseline:auto;baseline-shift:baseline;text-anchor:start;white-space:normal;shape-padding:0;shape-margin:0;inline-size:0;clip-rule:nonzero;display:inline;overflow:visible;visibility:visible;isolation:auto;mix-blend-mode:normal;color-interpolation:sRGB;color-interpolation-filters:linearRGB;solid-color:#000000;solid-opacity:1;vector-effect:none;fill:#494949;fill-opacity:1;fill-rule:nonzero;stroke:none;stroke-width:0.131206;stroke-linecap:round;stroke-linejoin:round;stroke-miterlimit:4;stroke-dasharray:none;stroke-dashoffset:0;stroke-opacity:1;paint-order:fill markers stroke;color-rendering:auto;image-rendering:auto;shape-rendering:auto;text-rendering:auto;enable-background:accumulate;stop-color:#000000;stop-opacity:1"
             d="m 87.441415,63.345707 c -0.479645,0 -0.842077,0.419789 -0.842077,0.900936 v 0.646581 c 0,0.48114 0.362432,0.900927 0.842077,0.900927 h 0.123256 c 0.479635,0 0.843366,-0.419787 0.843366,-0.900927 v -0.646581 c 0,-0.481147 -0.363731,-0.900936 -0.843366,-0.900936 z m 0,0.454266 h 0.123256 c 0.196891,0 0.377563,0.180364 0.377563,0.44667 v 0.646581 c 0,0.266306 -0.180672,0.44793 -0.377563,0.44793 h -0.123256 c -0.1969,0 -0.377579,-0.181624 -0.377579,-0.44793 v -0.646581 c 0,-0.266306 0.180679,-0.44667 0.377579,-0.44667 z"
             id="path97532-5-8-1-6-4" />
          <path
             style="color:#000000;font-style:normal;font-variant:normal;font-weight:normal;font-stretch:normal;font-size:medium;line-height:normal;font-family:sans-serif;font-variant-ligatures:normal;font-variant-position:normal;font-variant-caps:normal;font-variant-numeric:normal;font-variant-alternates:normal;font-variant-east-asian:normal;font-feature-settings:normal;font-variation-settings:normal;text-indent:0;text-align:start;text-decoration:none;text-decoration-line:none;text-decoration-style:solid;text-decoration-color:#000000;letter-spacing:normal;word-spacing:normal;text-transform:none;writing-mode:lr-tb;direction:ltr;text-orientation:mixed;dominant-baseline:auto;baseline-shift:baseline;text-anchor:start;white-space:normal;shape-padding:0;shape-margin:0;inline-size:0;clip-rule:nonzero;display:inline;overflow:visible;visibility:visible;isolation:auto;mix-blend-mode:normal;color-interpolation:sRGB;color-interpolation-filters:linearRGB;solid-color:#000000;solid-opacity:1;vector-effect:none;fill:#cccccc;fill-opacity:1;fill-rule:nonzero;stroke:none;stroke-linecap:round;stroke-linejoin:round;stroke-miterlimit:4;stroke-dasharray:none;stroke-dashoffset:0;stroke-opacity:1;paint-order:fill markers stroke;color-rendering:auto;image-rendering:auto;shape-rendering:auto;text-rendering:auto;enable-background:accumulate;stop-color:#000000;stop-opacity:1"
             d="m 87.441406,63.279297 c -0.517922,0 -0.908203,0.452705 -0.908203,0.966797 v 0.646484 c 0,0.514085 0.390281,0.966797 0.908203,0.966797 h 0.123047 c 0.517913,0 0.910156,-0.452594 0.910156,-0.966797 v -0.646484 c 0,-0.51421 -0.392243,-0.966797 -0.910156,-0.966797 z m 0,0.132812 h 0.123047 c 0.441357,0 0.777344,0.3859 0.777344,0.833985 v 0.646484 c 0,0.448077 -0.335987,0.835938 -0.777344,0.835938 h -0.123047 c -0.441367,0 -0.777344,-0.387743 -0.777344,-0.835938 v -0.646484 c 0,-0.448203 0.335977,-0.833985 0.777344,-0.833985 z m 0,0.322266 c -0.236962,0 -0.443359,0.21574 -0.443359,0.511719 v 0.646484 c 0,0.295979 0.206117,0.513672 0.443359,0.513672 h 0.123047 c 0.237235,0 0.443359,-0.217694 0.443359,-0.513672 v -0.646484 c 0,-0.295978 -0.206404,-0.511719 -0.443359,-0.511719 z m 0,0.130859 h 0.123047 c 0.156827,0 0.3125,0.144225 0.3125,0.38086 v 0.646484 c 0,0.236634 -0.155953,0.382813 -0.3125,0.382813 h -0.123047 c -0.156558,0 -0.3125,-0.14618 -0.3125,-0.382813 v -0.646484 c 0,-0.236633 0.155663,-0.38086 0.3125,-0.38086 z"
             id="path97534-5-7-5-7-0" />
        </g>
        <path
           style="fill:none;stroke:#cccccc;stroke-width:0.204994;stroke-linecap:round;stroke-linejoin:miter;stroke-miterlimit:4;stroke-dasharray:none;stroke-opacity:1"
           d="m 86.828127,63.869671 c 0.0033,-0.01617 0.199628,-0.250641 0.199628,-0.250641"
           id="path97516-4-6-0-7-1" />
      </g>
      <path
         style="fill:#dbb458;fill-opacity:1;stroke:none;stroke-width:0.193169;stroke-linecap:round;stroke-linejoin:round;stroke-miterlimit:4;stroke-dasharray:none;stroke-opacity:1;paint-order:stroke markers fill"
         d="m 57.402774,48.722973 c -0.220628,0 -0.398357,0.177726 -0.398357,0.398355 v 0.986124 h 2.373338 v -0.986124 c 0,-0.220629 -0.177286,-0.398355 -0.397914,-0.398355 z"
         id="path97520-9-3-8-37-3" />
      <path
         style="fill:#c48319;fill-opacity:1;stroke:none;stroke-width:0.193169;stroke-linecap:round;stroke-linejoin:round;stroke-miterlimit:4;stroke-dasharray:none;stroke-opacity:1;paint-order:stroke markers fill"
         d="m 58.919621,48.723005 v 1.384447 h 0.458134 v -0.986188 c 0,-0.220627 -0.177247,-0.398259 -0.397875,-0.398259 z"
         id="path97522-8-5-3-12-7" />
      <path
         style="fill:#e6ca74;fill-opacity:1;stroke:none;stroke-width:0.193169;stroke-linecap:round;stroke-linejoin:round;stroke-miterlimit:4;stroke-dasharray:none;stroke-opacity:1;paint-order:stroke markers fill"
         d="m 57.402773,48.722973 c -0.220629,0 -0.398647,0.177632 -0.398647,0.398259 v 0.986188 h 0.45852 v -1.384447 z"
         id="path97524-3-0-5-2-4" />
    </g>
  </g>
</svg>
