<?xml version="1.0" encoding="UTF-8" standalone="no"?>
<!-- Created with Inkscape (http://www.inkscape.org/) -->

<svg
   xmlns:dc="http://purl.org/dc/elements/1.1/"
   xmlns:cc="http://creativecommons.org/ns#"
   xmlns:rdf="http://www.w3.org/1999/02/22-rdf-syntax-ns#"
   xmlns:svg="http://www.w3.org/2000/svg"
   xmlns="http://www.w3.org/2000/svg"
   xmlns:sodipodi="http://sodipodi.sourceforge.net/DTD/sodipodi-0.dtd"
   xmlns:inkscape="http://www.inkscape.org/namespaces/inkscape"
   width="16"
   height="16"
   viewBox="0 0 16 16"
   id="svg30571"
   version="1.1"
   inkscape:version="0.91+devel r"
   sodipodi:docname="gimp-invert.svg">
  <defs
     id="defs30573" />
  <sodipodi:namedview
     id="base"
     pagecolor="#ffffff"
     bordercolor="#666666"
     borderopacity="1.0"
     inkscape:pageopacity="0.0"
     inkscape:pageshadow="2"
     inkscape:zoom="26.807756"
     inkscape:cx="9.5961621"
     inkscape:cy="11.670847"
     inkscape:document-units="px"
     inkscape:current-layer="layer1"
     showgrid="true"
     units="px"
     inkscape:snap-page="true"
     inkscape:snap-bbox="true"
     inkscape:bbox-paths="true"
     inkscape:bbox-nodes="true"
     inkscape:snap-bbox-edge-midpoints="true"
     inkscape:snap-bbox-midpoints="true"
     inkscape:object-paths="true"
     inkscape:snap-intersection-paths="true"
     inkscape:object-nodes="true"
     inkscape:snap-smooth-nodes="true"
     inkscape:snap-midpoints="true"
     inkscape:snap-object-midpoints="true"
     inkscape:snap-center="true"
     inkscape:snap-text-baseline="true"
     showborder="false"
     inkscape:window-width="1920"
     inkscape:window-height="1016"
     inkscape:window-x="0"
     inkscape:window-y="27"
     inkscape:window-maximized="1">
    <inkscape:grid
       type="xygrid"
       id="grid13" />
  </sodipodi:namedview>
  <metadata
     id="metadata30576">
    <rdf:RDF>
      <cc:Work
         rdf:about="">
        <dc:format>image/svg+xml</dc:format>
        <dc:type
           rdf:resource="http://purl.org/dc/dcmitype/StillImage" />
        <dc:title />
        <dc:creator>
          <cc:Agent>
            <dc:title>Klaus Staedtler</dc:title>
          </cc:Agent>
        </dc:creator>
      </cc:Work>
    </rdf:RDF>
  </metadata>
  <g
     inkscape:label="Layer 1"
     inkscape:groupmode="layer"
     id="layer1"
     transform="translate(0,-1036.3622)">
    <g
       id="g4028">
      <g
         inkscape:export-ydpi="90"
         inkscape:export-xdpi="90"
         inkscape:label="gimp-invert"
         id="gimp-invert"
         transform="matrix(1.1428571,0,0,1.1428571,-185.14308,464.93365)">
        <path
           style="fill:#000000"
           d="m -79,283 v 14 l 3.46875,-3.46875 C -76.436072,292.62643 -77,291.38071 -77,290 c 0,-2.76142 2.238576,-5 5,-5 1.380712,0 2.626428,0.56393 3.53125,1.46875 L -65,283 Z"
           transform="translate(241.0002,217)"
           id="path7206"
           inkscape:connector-curvature="0" />
      </g>
      <path
         style="fill:#ffffff;stroke-width:1.14285707"
         d="m 15.999998,1052.3622 v -16 l -3.964286,3.9643 c 1.034083,1.0341 1.678572,2.4577 1.678572,4.0357 0,3.1559 -2.558373,5.7143 -5.7142857,5.7143 -1.5779565,0 -3.0016325,-0.6445 -4.0357145,-1.6786 l -3.96428502858,3.9643 z"
         id="path7206-3"
         inkscape:connector-curvature="0" />
      <g
         id="g18"
         transform="matrix(1.05,0,0,1.05,-0.39999875,-52.218154)">
        <path
           inkscape:connector-curvature="0"
           id="path7221"
           d="m 174.0002,507 c 0,2.76142 -2.23858,5 -5,5 -1.38071,0 -2.62643,-0.56393 -3.53125,-1.46875 l 7.0625,-7.0625 c 0.90482,0.90482 1.46875,2.15054 1.46875,3.53125 z"
           style="fill:#000000"
           transform="matrix(1.1428571,0,0,1.1428571,-185.14308,464.93365)" />
        <path
           inkscape:connector-curvature="0"
           id="path7221-9"
           d="m 2.285713,1044.3622 c 0,-3.1559 2.558377,-5.7143 5.7142856,-5.7143 1.5779541,0 3.0016344,0.6445 4.0357144,1.6786 l -8.071429,8.0714 c -1.03408,-1.0341 -1.678571,-2.4578 -1.678571,-4.0357 z"
           style="fill:#ffffff;stroke-width:1.14285707" />
      </g>
    </g>
  </g>
</svg>
