<?xml version="1.0" encoding="UTF-8" standalone="no"?>
<svg
   xmlns:osb="http://www.openswatchbook.org/uri/2009/osb"
   xmlns:dc="http://purl.org/dc/elements/1.1/"
   xmlns:cc="http://creativecommons.org/ns#"
   xmlns:rdf="http://www.w3.org/1999/02/22-rdf-syntax-ns#"
   xmlns:svg="http://www.w3.org/2000/svg"
   xmlns="http://www.w3.org/2000/svg"
   xmlns:xlink="http://www.w3.org/1999/xlink"
   xmlns:sodipodi="http://sodipodi.sourceforge.net/DTD/sodipodi-0.dtd"
   xmlns:inkscape="http://www.inkscape.org/namespaces/inkscape"
   viewBox="0 0 15.999999 16"
   id="svg7384"
   height="16"
   width="16"
   version="1.1"
   inkscape:version="0.91 r13725"
   sodipodi:docname="gimp-prefs-interface.svg">
  <sodipodi:namedview
     pagecolor="#ffffff"
     bordercolor="#666666"
     borderopacity="1"
     objecttolerance="10"
     gridtolerance="10"
     guidetolerance="10"
     inkscape:pageopacity="0"
     inkscape:pageshadow="2"
     inkscape:window-width="640"
     inkscape:window-height="480"
     id="namedview1508"
     showgrid="false"
     inkscape:zoom="14.75"
     inkscape:cx="-646.15456"
     inkscape:cy="-58.9423"
     inkscape:window-x="0"
     inkscape:window-y="27"
     inkscape:window-maximized="0"
     inkscape:current-layer="svg7384" />
  <metadata
     id="metadata90">
    <rdf:RDF>
      <cc:Work
         rdf:about="">
        <dc:format>image/svg+xml</dc:format>
        <dc:type
           rdf:resource="http://purl.org/dc/dcmitype/StillImage" />
        <dc:title />
        <dc:contributor>
          <cc:Agent>
            <dc:title>Barbara Muraus, Jakub Steiner, Klaus Staedtler</dc:title>
          </cc:Agent>
        </dc:contributor>
        <dc:description>Images originally created as the &quot;Art Libre&quot; icon set. Extended and adopted for GIMP</dc:description>
      </cc:Work>
    </rdf:RDF>
  </metadata>
  <defs
     id="defs7386">
    <linearGradient
       osb:paint="solid"
       id="linearGradient8074">
      <stop
         id="stop8072"
         offset="0"
         style="stop-color:#be00be;stop-opacity:1;" />
    </linearGradient>
    <linearGradient
       osb:paint="solid"
       id="linearGradient7561">
      <stop
         id="stop7558"
         offset="0"
         style="stop-color:#a5a5a5;stop-opacity:1;" />
    </linearGradient>
    <linearGradient
       osb:paint="solid"
       id="linearGradient7548">
      <stop
         id="stop7546"
         offset="0"
         style="stop-color:#ebebeb;stop-opacity:1;" />
    </linearGradient>
    <linearGradient
       osb:paint="solid"
       id="linearGradient7542">
      <stop
         id="stop7538"
         offset="0"
         style="stop-color:#c9c9c9;stop-opacity:1;" />
    </linearGradient>
    <linearGradient
       gradientTransform="matrix(0,-735328.32,170712.69,0,2464326300,577972450)"
       osb:paint="solid"
       id="linearGradient19282">
      <stop
         id="stop19284"
         offset="0"
         style="stop-color:#b4b4b4;stop-opacity:1;" />
    </linearGradient>
    <linearGradient
       gradientTransform="matrix(0.34682586,0,0,0.30620888,-19.35207,761.03851)"
       osb:paint="solid"
       id="linearGradient19282-4">
      <stop
         id="stop19284-0"
         offset="0"
         style="stop-color:#bebebe;stop-opacity:1;" />
    </linearGradient>
    <linearGradient
       gradientTransform="translate(789.15456,355.96911)"
       gradientUnits="userSpaceOnUse"
       y2="6"
       x2="142"
       y1="6"
       x1="135"
       id="linearGradient7468"
       xlink:href="#linearGradient19282-4" />
    <linearGradient
       gradientTransform="translate(789.15456,355.96911)"
       gradientUnits="userSpaceOnUse"
       y2="10"
       x2="151"
       y1="10"
       x1="138"
       id="linearGradient7470"
       xlink:href="#linearGradient19282-4" />
  </defs>
  <g
     transform="translate(-175.83395,-197.96911)"
     style="display:inline"
     id="preferences">
    <g
       transform="translate(40.833947,197.96911)"
       id="gimp-prefs-interface">
      <path
         style="fill:url(#linearGradient7470);fill-opacity:1;stroke:none"
         d="m 143,4 0,1 7,0 0,1 -7,0 0,7 -5,0 0,3 13,0 0,-12 z"
         id="rect28732-9"
         inkscape:connector-curvature="0" />
      <path
         style="fill:url(#linearGradient7468);fill-opacity:1;stroke:none"
         d="m 135,0 0,12 7,0 0,-12 z m 1,1 5,0 0,1 -5,0 z m 0.5625,2 0.875,0 C 137.74912,3 138,3.250875 138,3.5625 l 0,0.875 C 138,4.749125 137.74912,5 137.4375,5 l -0.875,0 C 136.25088,5 136,4.749125 136,4.4375 l 0,-0.875 C 136,3.250875 136.25088,3 136.5625,3 Z m 3,0 0.875,0 C 140.74912,3 141,3.250875 141,3.5625 l 0,0.875 C 141,4.749125 140.74912,5 140.4375,5 l -0.875,0 C 139.25088,5 139,4.749125 139,4.4375 l 0,-0.875 C 139,3.250875 139.25088,3 139.5625,3 Z m -3,3 0.875,0 C 137.74912,6 138,6.250875 138,6.5625 l 0,0.875 C 138,7.749125 137.74912,8 137.4375,8 l -0.875,0 C 136.25088,8 136,7.749125 136,7.4375 l 0,-0.875 C 136,6.250875 136.25088,6 136.5625,6 Z m 3,0 0.875,0 C 140.74912,6 141,6.250875 141,6.5625 l 0,0.875 C 141,7.749125 140.74912,8 140.4375,8 l -0.875,0 C 139.25088,8 139,7.749125 139,7.4375 l 0,-0.875 C 139,6.250875 139.25088,6 139.5625,6 Z m -3,3 0.875,0 C 137.74912,9 138,9.250875 138,9.5625 l 0,0.875 C 138,10.749125 137.74912,11 137.4375,11 l -0.875,0 C 136.25088,11 136,10.749125 136,10.4375 l 0,-0.875 C 136,9.250875 136.25088,9 136.5625,9 Z m 3,0 0.875,0 C 140.74912,9 141,9.250875 141,9.5625 l 0,0.875 C 141,10.749125 140.74912,11 140.4375,11 l -0.875,0 C 139.25088,11 139,10.749125 139,10.4375 l 0,-0.875 C 139,9.250875 139.25088,9 139.5625,9 Z"
         id="rect15227"
         inkscape:connector-curvature="0" />
    </g>
  </g>
</svg>
