<?xml version="1.0" encoding="UTF-8" standalone="no"?>
<!-- Created with Inkscape (http://www.inkscape.org/) -->

<svg
   xmlns:dc="http://purl.org/dc/elements/1.1/"
   xmlns:cc="http://creativecommons.org/ns#"
   xmlns:rdf="http://www.w3.org/1999/02/22-rdf-syntax-ns#"
   xmlns:svg="http://www.w3.org/2000/svg"
   xmlns="http://www.w3.org/2000/svg"
   xmlns:sodipodi="http://sodipodi.sourceforge.net/DTD/sodipodi-0.dtd"
   xmlns:inkscape="http://www.inkscape.org/namespaces/inkscape"
   width="16"
   height="16"
   id="svg11300"
   sodipodi:version="0.32"
   inkscape:version="0.92pre1 unknown"
   sodipodi:docname="gimp-color-water.svg"
   version="1.0"
   viewBox="0 0 16 16">
  <sodipodi:namedview
     inkscape:cy="13.816391"
     inkscape:cx="17.477291"
     inkscape:zoom="19.486724"
     inkscape:window-height="1016"
     inkscape:window-width="1920"
     inkscape:pageshadow="2"
     inkscape:pageopacity="0.0"
     borderopacity="0.17254902"
     bordercolor="#666"
     pagecolor="#ffffff"
     id="base"
     inkscape:showpageshadow="false"
     showborder="true"
     inkscape:window-x="0"
     inkscape:window-y="27"
     inkscape:current-layer="layer1"
     width="16px"
     height="16px"
     showgrid="true"
     inkscape:window-maximized="1"
     inkscape:document-units="px">
    <inkscape:grid
       type="xygrid"
       id="grid4261" />
  </sodipodi:namedview>
  <defs
     id="defs3" />
  <sodipodi:namedview
     stroke="#ef2929"
     fill="#eeeeec"
     pagecolor="#ffffff"
     bordercolor="#666666"
     borderopacity="0.25490196"
     inkscape:pageopacity="0.0"
     inkscape:pageshadow="2"
     inkscape:zoom="1"
     inkscape:cx="-14.198652"
     inkscape:cy="-5.1663457"
     inkscape:current-layer="layer1"
     showgrid="false"
     inkscape:grid-bbox="true"
     inkscape:document-units="px"
     inkscape:showpageshadow="false"
     inkscape:window-width="872"
     inkscape:window-height="659"
     inkscape:window-x="403"
     inkscape:window-y="296"
     width="32px"
     height="32px"
     id="namedview73" />
  <metadata
     id="metadata4">
    <rdf:RDF>
      <cc:Work
         rdf:about="">
        <dc:format>image/svg+xml</dc:format>
        <dc:type
           rdf:resource="http://purl.org/dc/dcmitype/StillImage" />
        <dc:creator>
          <cc:Agent>
            <dc:title />
          </cc:Agent>
        </dc:creator>
        <dc:source>http://jimmac.musichall.cz</dc:source>
        <cc:license
           rdf:resource="http://creativecommons.org/licenses/by-sa/2.0/" />
        <dc:title />
      </cc:Work>
      <cc:License
         rdf:about="http://creativecommons.org/licenses/by-sa/2.0/">
        <cc:permits
           rdf:resource="http://web.resource.org/cc/Reproduction" />
        <cc:permits
           rdf:resource="http://web.resource.org/cc/Distribution" />
        <cc:requires
           rdf:resource="http://web.resource.org/cc/Notice" />
        <cc:requires
           rdf:resource="http://web.resource.org/cc/Attribution" />
        <cc:permits
           rdf:resource="http://web.resource.org/cc/DerivativeWorks" />
        <cc:requires
           rdf:resource="http://web.resource.org/cc/ShareAlike" />
      </cc:License>
    </rdf:RDF>
  </metadata>
  <g
     id="layer1"
     inkscape:label="Layer 1"
     inkscape:groupmode="layer">
    <g
       id="g4294">
      <path
         inkscape:connector-curvature="0"
         id="path4015"
         d="M 7.2137584,15.261679 C 6.744803,15.201805 5.9555085,15.027427 5.5723969,14.899055 4.463395,14.527455 3.6936426,14.040168 2.7837316,13.133709 1.5570134,11.911645 0.95823789,10.702714 0.69416856,8.9148709 0.43723162,7.1753176 0.97723968,5.1117223 2.0660262,3.6724307 2.8909383,2.581961 3.90982,1.7710026 5.0570044,1.2918218 7.1153369,0.43205305 9.3884047,0.53213795 11.380948,1.5702695 c 1.209757,0.6302936 2.415997,1.8640284 3.03,3.0990654 0.327259,0.6582653 0.468335,1.0699675 0.638905,1.8645206 0.115388,0.5374996 0.132121,0.7235288 0.131922,1.4665984 -2.34e-4,0.9557532 -0.08274,1.4657122 -0.382654,2.3658881 -0.365247,1.096259 -0.85656,1.874147 -1.748414,2.768236 -1.22223,1.225294 -2.418225,1.821826 -4.183773,2.086761 -0.4424291,0.06639 -1.2876083,0.08701 -1.6531756,0.04034 z M 8.6967542,12.404824 C 10.403593,12.095214 11.803755,10.802623 12.2561,9.1189319 12.402295,8.5747754 12.414694,7.470649 12.280129,6.979235 12.066474,6.1990019 11.699288,5.5299 11.180337,4.9751505 10.744754,4.509519 10.351944,4.2217259 9.7969569,3.961615 7.2478718,2.7669094 4.2447417,4.211609 3.5574096,6.9632401 3.4410988,7.4288747 3.4404651,8.58818 3.5562893,9.0138008 c 0.416181,1.5293472 1.4232633,2.6630812 2.8244393,3.1796432 0.7368589,0.271653 1.5663758,0.347361 2.3160256,0.21138 z"
         style="fill:#fce94f;stroke-width:0.03890092" />
      <path
         inkscape:connector-curvature="0"
         id="path4017"
         d="M 7.2137584,15.261679 C 5.9333995,15.098208 4.8261939,14.702642 3.8700103,14.067073 3.2160775,13.632408 2.2445038,12.648717 1.8029818,11.974264 0.80139898,10.444282 0.40744567,8.4132816 0.76664067,6.6314739 1.0777096,5.0883965 1.7746803,3.8228159 2.9188964,2.723342 3.9715165,1.7118824 5.0193968,1.1748877 6.5816618,0.84632832 7.2800562,0.69944902 8.4983583,0.68701155 9.1343595,0.82026798 9.647998,0.92788657 10.591417,1.240953 11.073788,1.463853 c 0.941517,0.4350669 2.074322,1.4040314 2.752673,2.3545454 0.507745,0.7114594 1.1471,2.1546052 1.013672,2.2880515 -0.06186,0.061869 -2.388258,0.6876149 -2.485631,0.6685751 C 12.313372,6.7669825 12.242477,6.650986 12.196959,6.5172549 11.703684,5.0680429 10.389061,3.9157212 8.890998,3.6194416 8.4819393,3.5385401 8.2553084,3.5226904 7.7486093,3.5395473 7.1778681,3.558535 7.0636528,3.5783003 6.5719373,3.7431753 4.9255817,4.2952069 3.802509,5.5761065 3.5132383,7.2317176 3.4204563,7.7627472 3.4443795,8.5880268 3.5656864,9.04102 c 0.7070737,2.640408 3.3861895,4.073907 5.8911633,3.15215 0.6457033,-0.2376 1.1784533,-0.58609 1.7857073,-1.168096 0.340606,-0.326444 0.810941,-1.1137303 0.957181,-1.6022079 0.03864,-0.1290665 0.09094,-0.2072845 0.139268,-0.208298 0.04257,-8.909e-4 0.632127,0.1459954 1.310137,0.3264182 l 1.232743,0.32804 -0.02311,0.1720347 c -0.03808,0.283553 -0.411548,1.18043 -0.672125,1.614108 -0.347366,0.57812 -0.720756,1.049777 -1.28178,1.619111 -1.053726,1.069336 -2.34814,1.693491 -4.037941,1.947059 -0.4424291,0.06639 -1.2876083,0.08701 -1.6531756,0.04034 z"
         style="fill:#8ae234;stroke-width:0.03890092" />
      <path
         inkscape:connector-curvature="0"
         id="path4019"
         d="M 7.2137584,15.264796 C 5.2321213,14.969435 4.0608634,14.405995 2.7837316,13.133709 2.314136,12.665895 2.0558866,12.360592 1.8029818,11.974264 1.0071567,10.75859 0.57496643,9.1790394 0.64250235,7.7329918 0.73220444,5.8123201 1.4929395,4.1058469 2.8449823,2.7924103 3.8965568,1.7708626 4.9704982,1.2013702 6.4692132,0.87054425 6.9860636,0.75645483 7.1808668,0.73802153 7.8944778,0.73567915 c 0.9475302,-0.003112 1.3089657,0.0560289 2.2342352,0.36557425 1.239132,0.4145464 1.985346,0.8713596 2.846849,1.7427679 0.652978,0.6604867 1.046466,1.1914626 1.389113,1.8744819 0.293043,0.5841396 0.54468,1.3187142 0.475458,1.3879467 -0.06186,0.061869 -2.388258,0.6876149 -2.485631,0.6685751 C 12.313372,6.7669825 12.242477,6.650986 12.196959,6.5172549 11.703684,5.0680429 10.389061,3.9157212 8.890998,3.6194416 8.2885637,3.5002951 7.3111304,3.5119658 6.831867,3.6440279 5.2003546,4.093595 3.9602099,5.3506899 3.5574096,6.9632401 3.4410988,7.4288747 3.4404651,8.58818 3.5562893,9.0138008 3.9725002,10.543259 4.980499,11.677927 6.3807286,12.19317 c 0.7660906,0.281899 1.5234644,0.346904 2.368236,0.203264 0.7827634,-0.133095 1.4838564,-0.465777 2.1321334,-1.011738 l 0.215119,-0.181168 0.959636,0.958867 c 0.527799,0.527376 0.949545,0.985162 0.937214,1.017302 -0.03215,0.0838 -0.48037,0.462937 -0.924505,0.782016 -0.734119,0.527413 -1.923227,1.027625 -2.8855793,1.213854 -0.3970177,0.07683 -1.6664952,0.134351 -1.9692239,0.08923 z"
         style="fill:#edd400;stroke-width:0.03890092" />
      <path
         inkscape:connector-curvature="0"
         id="path4021"
         d="M 7.2137584,15.264796 C 5.2321213,14.969435 4.0608634,14.405995 2.7837316,13.133709 2.314136,12.665895 2.0558866,12.360592 1.8029818,11.974264 1.0071567,10.75859 0.57496643,9.1790394 0.64250235,7.7329918 0.73220444,5.8123201 1.4929395,4.1058469 2.8449823,2.7924103 3.8965568,1.7708626 4.9704982,1.2013702 6.4692132,0.87054425 6.9860636,0.75645483 7.1808668,0.73802153 7.8944778,0.73567915 9.033697,0.73194052 9.267276,0.78223001 10.684592,1.3364064 c 0.532885,0.2083602 1.07764,0.5105862 1.524107,0.8455627 0.289951,0.2175454 0.685602,0.5716026 0.743556,0.665387 0.0378,0.061163 -1.754304,1.894923 -1.851872,1.894923 -0.02903,0 -0.105827,-0.056762 -0.17066,-0.1261379 C 10.601948,4.2653951 9.5686137,3.7053649 9.156253,3.654984 9.0506123,3.6420769 8.8131591,3.6050714 8.6285787,3.5727492 8.2061515,3.4987771 7.2199875,3.5381479 6.831867,3.6444796 5.2034906,4.0905986 3.9602061,5.3507046 3.5574096,6.9632401 3.4410988,7.4288747 3.4404651,8.58818 3.5562893,9.0138008 3.9725002,10.543259 4.980499,11.677927 6.3807286,12.19317 c 0.7660906,0.281899 1.5234644,0.346904 2.368236,0.203264 0.7827634,-0.133095 1.4838564,-0.465777 2.1321334,-1.011738 l 0.215119,-0.181168 0.959636,0.958867 c 0.527799,0.527376 0.949545,0.985162 0.937214,1.017302 -0.03215,0.0838 -0.48037,0.462937 -0.924505,0.782016 -0.734119,0.527413 -1.923227,1.027625 -2.8855793,1.213854 -0.3970177,0.07683 -1.6664952,0.134351 -1.9692239,0.08923 z"
         style="fill:#fcaf3e;stroke-width:0.03890092" />
      <path
         inkscape:connector-curvature="0"
         id="path4023"
         d="M 7.2137584,15.264796 C 5.2321213,14.969435 4.0608634,14.405995 2.7837316,13.133709 1.5570134,11.911645 0.95823789,10.702714 0.69416856,8.9148709 0.49457658,7.5635628 0.7838193,5.950585 1.4628139,4.6284752 2.1495252,3.2913409 3.4673104,2.0325782 4.8312406,1.4109185 5.8730855,0.93606021 7.4491461,0.64116174 8.3928616,0.74449898 8.8806091,0.79790737 9.6969367,0.96070018 9.7517105,1.0154819 9.7866112,1.0503873 9.1474507,3.4738749 9.0821817,3.5541155 9.0524012,3.5907273 8.9357699,3.5877166 8.6860291,3.5438886 7.9152047,3.4086138 7.188762,3.4769281 6.4601048,3.7532132 5.7802882,4.0109793 5.2847844,4.3192147 4.8269886,4.7691175 4.1947629,5.3904423 3.7645657,6.1339212 3.5574096,6.9632401 3.4410988,7.4288747 3.4404651,8.58818 3.5562893,9.0138008 3.9725002,10.543259 4.980499,11.677927 6.3807286,12.19317 c 0.7660906,0.281899 1.5234644,0.346904 2.368236,0.203264 0.7827634,-0.133095 1.4838564,-0.465777 2.1321334,-1.011738 l 0.215119,-0.181168 0.959636,0.958867 c 0.527799,0.527376 0.949545,0.985162 0.937214,1.017302 -0.03215,0.0838 -0.48037,0.462937 -0.924505,0.782016 -0.734119,0.527413 -1.923227,1.027625 -2.8855793,1.213854 -0.3970177,0.07683 -1.6664952,0.134351 -1.9692239,0.08923 z"
         style="fill:#729fcf;stroke-width:0.03890092" />
      <path
         inkscape:connector-curvature="0"
         id="path4025"
         d="m 9.4538502,13.726278 c -0.185305,-0.701925 -0.3440873,-1.29811 -0.3528495,-1.324857 -0.00876,-0.02675 0.1537905,-0.108506 0.361229,-0.18169 0.4482405,-0.158138 0.8684843,-0.399314 1.3127223,-0.753365 L 11.1,11.207308 l 0.957744,0.956977 c 0.526759,0.526337 0.947654,0.983272 0.935323,1.015412 -0.0755,0.196769 -1.150266,0.977844 -1.782981,1.295761 -0.411262,0.206643 -1.2515632,0.528247 -1.3778678,0.527343 -0.022798,-1.55e-4 -0.1930637,-0.574598 -0.378368,-1.276523 z M 5.4515175,14.811176 C 4.496898,14.474455 3.7832583,14.030557 2.8863281,13.215578 1.7454015,12.178897 1.0893421,10.985196 0.76190364,9.3501845 0.61647281,8.6239982 0.60693068,7.4758917 0.74037968,6.7604023 1.0296068,5.2097048 1.7665229,3.8195547 2.8360723,2.8069987 3.9687613,1.7346671 4.9311601,1.2248321 6.4048883,0.91640262 7.2841016,0.73239647 7.8418706,0.68416536 8.3928616,0.74449898 8.8806091,0.79790737 9.6969367,0.96070018 9.7517105,1.0154819 9.7866112,1.0503873 9.1474507,3.4738749 9.0821817,3.5541155 9.0524012,3.5907273 8.9357699,3.5877166 8.6860291,3.5438886 7.9152047,3.4086138 7.188762,3.4769281 6.4601048,3.7532132 5.7802882,4.0109793 5.2847844,4.3192147 4.8269886,4.7691175 4.1947629,5.3904423 3.7645657,6.1339212 3.5574096,6.9632401 3.4410988,7.4288747 3.4404651,8.58818 3.5562893,9.0138008 3.7529822,9.7365919 4.2205334,10.623824 4.583563,10.963171 c 0.069366,0.06484 0.1261209,0.145961 0.1261209,0.180265 0,0.06856 0.5300202,0.508681 0.8752106,0.726762 0.1203415,0.07603 0.4157251,0.218481 0.656408,0.31656 0.4325509,0.176268 0.4375404,0.180222 0.432009,0.342384 -0.00308,0.09023 -0.1431214,0.672842 -0.3112085,1.294692 -0.3515379,1.300535 -0.2708147,1.213007 -0.9105855,0.987342 z"
         style="fill:#f57900;stroke-width:0.03890092" />
      <path
         inkscape:connector-curvature="0"
         id="path4027"
         d="m 9.4538502,13.726278 c -0.185305,-0.701925 -0.3440873,-1.29811 -0.3528495,-1.324857 -0.00876,-0.02675 0.1537905,-0.108506 0.361229,-0.18169 0.4482405,-0.158138 0.8684843,-0.399314 1.3127223,-0.753365 L 11.1,11.207308 l 0.957744,0.956977 c 0.526759,0.526337 0.947654,0.983272 0.935323,1.015412 -0.0755,0.196769 -1.150266,0.977844 -1.782981,1.295761 -0.411262,0.206643 -1.2515632,0.528247 -1.3778678,0.527343 -0.022798,-1.55e-4 -0.1930637,-0.574598 -0.378368,-1.276523 z M 5.4515175,14.811176 C 4.496898,14.474455 3.7832583,14.030557 2.8863281,13.215578 1.7454015,12.178897 1.0893421,10.985196 0.76190364,9.3501845 0.61647281,8.6239982 0.60693068,7.4758917 0.74037968,6.7604023 0.94203832,5.6792045 1.4220781,4.535421 2.0032242,3.7514411 2.3256635,3.3164629 2.7528487,2.8457296 2.8251477,2.8457296 c 0.025449,0 0.1918474,-0.1334899 0.3697738,-0.2966437 C 3.5843906,2.191953 4.152687,1.8094841 4.6998178,1.5362771 5.2200998,1.276477 5.9700028,1.0231128 6.0327954,1.0859141 6.0823499,1.1354749 6.7019725,3.3979352 6.7027587,3.5321836 6.703031,3.5847396 6.6025607,3.6467325 6.3993263,3.7193445 5.6475433,3.9879418 5.1205436,4.3572259 4.6155564,4.9692834 3.9715274,5.7498635 3.6606786,6.3878597 3.5132383,7.2317176 3.4204563,7.7627472 3.4443795,8.5880268 3.5656864,9.04102 c 0.1854019,0.6923429 0.6590044,1.58669 1.0178766,1.922151 0.069366,0.06484 0.1261205,0.145961 0.1261205,0.180265 0,0.06856 0.5300202,0.508681 0.8752107,0.726762 0.1203414,0.07603 0.415725,0.218481 0.6564079,0.31656 0.4325509,0.176268 0.4375408,0.180222 0.4320094,0.342384 -0.00308,0.09023 -0.1431218,0.672842 -0.3112089,1.294692 -0.3515375,1.300535 -0.2708143,1.213007 -0.9105851,0.987342 z"
         style="fill:#3465a4;stroke-width:0.03890092" />
      <path
         inkscape:connector-curvature="0"
         id="path4029"
         d="m 9.4538502,13.726278 c -0.185305,-0.701925 -0.3440873,-1.29811 -0.3528495,-1.324857 -0.00876,-0.02675 0.1537905,-0.108506 0.361229,-0.18169 0.4482405,-0.158138 0.8684843,-0.399314 1.3127223,-0.753365 L 11.1,11.207308 l 0.957744,0.956977 c 0.526759,0.526337 0.947654,0.983272 0.935323,1.015412 -0.0755,0.196769 -1.150266,0.977844 -1.782981,1.295761 -0.411262,0.206643 -1.2515632,0.528247 -1.3778678,0.527343 -0.022798,-1.55e-4 -0.1930637,-0.574598 -0.378368,-1.276523 z M 2.4320323,12.790865 C 1.2686957,11.547085 0.558162,9.5388532 0.64250235,7.7329918 0.72455082,5.9761972 1.4151955,4.2880401 2.5374905,3.1010343 2.6702533,2.9606169 2.7996989,2.8457296 2.8251477,2.8457296 c 0.025449,0 0.1918474,-0.1334899 0.3697738,-0.2966437 C 3.5843906,2.191953 4.152687,1.8094841 4.6998178,1.5362771 5.2200998,1.276477 5.9700028,1.0231128 6.0327954,1.0859141 6.0823499,1.1354749 6.7019725,3.3979352 6.7027587,3.5321836 6.703031,3.5847396 6.6025607,3.6467325 6.3993263,3.7193445 5.6475433,3.9879418 5.1205436,4.3572259 4.6155564,4.9692834 3.9715274,5.7498635 3.6606786,6.3878597 3.5132383,7.2317176 3.4204563,7.7627472 3.4443795,8.5880268 3.5656864,9.04102 c 0.1858492,0.6940135 0.5599197,1.412601 0.9739398,1.870935 0.1193667,0.132142 0.1685963,0.226039 0.1497116,0.285547 -0.034232,0.10787 -1.8360697,1.909047 -1.9097473,1.909047 -0.028761,0 -0.1851623,-0.142057 -0.3475582,-0.315684 z"
         style="fill:#73d216;stroke-width:0.03890092" />
      <path
         inkscape:connector-curvature="0"
         id="path4031"
         d="M 2.4320323,12.790865 C 1.2686957,11.547085 0.558162,9.5388532 0.64250235,7.7329918 0.72455082,5.9761972 1.4151955,4.2880401 2.5374905,3.1010343 2.6702533,2.9606169 2.7996989,2.8457296 2.8251477,2.8457296 c 0.025449,0 0.1918474,-0.1334899 0.3697738,-0.2966437 C 3.5843906,2.191953 4.152687,1.8094841 4.6998178,1.5362771 5.2200998,1.276477 5.9700028,1.0231128 6.0327954,1.0859141 6.0823499,1.1354749 6.7019725,3.3979352 6.7027587,3.5321836 6.703031,3.5847396 6.6025607,3.6467325 6.3993263,3.7193445 5.6475433,3.9879418 5.1205436,4.3572259 4.6155564,4.9692834 3.9715274,5.7498635 3.6606786,6.3878597 3.5132383,7.2317176 3.4204563,7.7627472 3.4443795,8.5880268 3.5656864,9.04102 c 0.1858492,0.6940135 0.5599197,1.412601 0.9739398,1.870935 0.1193667,0.132142 0.1685963,0.226039 0.1497116,0.285547 -0.034232,0.10787 -1.8360697,1.909047 -1.9097473,1.909047 -0.028761,0 -0.1851623,-0.142057 -0.3475582,-0.315684 z"
         style="fill:#ad7fa8;stroke-width:0.03890092" />
      <path
         inkscape:connector-curvature="0"
         id="path4033"
         d="M 2.4430821,12.711573 C 1.8237994,11.98738 1.3713116,11.195705 1.0890356,10.342526 1.0034485,10.083839 0.97175386,9.9201534 1.0014924,9.8904109 c 0.049446,-0.049453 2.3168,-0.6735513 2.4485464,-0.6739727 0.052066,-1.556e-4 0.1288403,0.1313564 0.2340465,0.4009458 0.1858698,0.476287 0.503215,1.001495 0.8140676,1.347286 L 4.723077,11.214874 3.8290139,12.115682 C 3.3372794,12.611128 2.8995924,13.035956 2.856376,13.059744 2.7944897,13.09381 2.7067103,13.019862 2.4430821,12.711573 Z M 2.2542315,6.4833349 C 1.5589253,6.2966008 0.96930444,6.1239487 0.94396301,6.0996631 0.84555744,6.0053577 1.3368567,4.7722625 1.7074629,4.1833813 2.0417062,3.6522798 2.715625,2.8457296 2.8251477,2.8457296 c 0.025449,0 0.1918474,-0.1334899 0.3697738,-0.2966437 C 3.5843906,2.191953 4.152687,1.8094841 4.6998178,1.5362771 5.2200998,1.276477 5.9700028,1.0231128 6.0327954,1.0859141 6.0823499,1.1354749 6.7019725,3.3979352 6.7027587,3.5321836 6.703031,3.5847396 6.6025607,3.6467325 6.3993263,3.7193445 5.6486052,3.9875625 5.1202456,4.3574585 4.6185154,4.9660607 4.1705608,5.5094336 3.9661011,5.8396413 3.7580137,6.355795 3.6714208,6.5705863 3.5820886,6.7635438 3.5594981,6.7845883 3.5369075,6.8056332 2.9495377,6.6700686 2.2542315,6.4833349 Z"
         style="fill:#ef2929;stroke-width:0.03890092" />
      <path
         inkscape:connector-curvature="0"
         id="path4035"
         d="M 2.4430821,12.711573 C 1.8237994,11.98738 1.3713116,11.195705 1.0890356,10.342526 1.0034485,10.083839 0.97175386,9.9201534 1.0014924,9.8904109 c 0.049446,-0.049453 2.3168,-0.6735513 2.4485464,-0.6739727 0.052066,-1.556e-4 0.1288403,0.1313564 0.2340465,0.4009458 0.1858698,0.476287 0.503215,1.001495 0.8140676,1.347286 L 4.723077,11.214874 3.8290139,12.115682 C 3.3372794,12.611128 2.8995924,13.035956 2.856376,13.059744 2.7944897,13.09381 2.7067103,13.019862 2.4430821,12.711573 Z M 2.2542315,6.4833349 C 1.5589253,6.2966008 0.96930444,6.1239487 0.94396301,6.0996631 0.84555744,6.0053577 1.3368567,4.7722625 1.7074629,4.1833813 1.9316619,3.8271366 2.2660363,3.3923008 2.5415974,3.0986359 L 2.7834134,2.8409328 3.767559,3.8243347 4.7517049,4.8077371 4.4997357,5.111725 C 4.1698369,5.5097312 3.9513968,5.876115 3.7580137,6.355795 3.6714208,6.5705863 3.5820886,6.7635438 3.5594981,6.7845883 3.5369075,6.8056332 2.9495377,6.6700686 2.2542315,6.4833349 Z"
         style="fill:#cc0000;stroke-width:0.03890092" />
      <path
         inkscape:connector-curvature="0"
         id="path4037"
         d="M 2.4430821,12.711573 C 1.8237994,11.98738 1.3713116,11.195705 1.0890356,10.342526 1.0034485,10.083839 0.97175386,9.9201534 1.0014924,9.8904109 c 0.049446,-0.049453 2.3168,-0.6735513 2.4485464,-0.6739727 0.052066,-1.556e-4 0.1288403,0.1313564 0.2340465,0.4009458 0.1858698,0.476287 0.503215,1.001495 0.8140676,1.347286 L 4.723077,11.214874 3.8290139,12.115682 C 3.3372794,12.611128 2.8995924,13.035956 2.856376,13.059744 2.7944897,13.09381 2.7067103,13.019862 2.4430821,12.711573 Z"
         style="fill:#75507b;stroke-width:0.03890092" />
      <path
         style="color:#000000;clip-rule:nonzero;display:inline;overflow:visible;visibility:visible;opacity:1;isolation:auto;mix-blend-mode:normal;color-interpolation:sRGB;color-interpolation-filters:linearRGB;solid-color:#000000;solid-opacity:1;fill:#ffffff;fill-opacity:1;fill-rule:nonzero;stroke:none;stroke-width:0.45587003;stroke-linecap:round;stroke-linejoin:round;stroke-miterlimit:4;stroke-dasharray:none;stroke-dashoffset:0;stroke-opacity:1;color-rendering:auto;image-rendering:auto;shape-rendering:auto;text-rendering:auto;enable-background:accumulate"
         id="path4039"
         sodipodi:type="arc"
         sodipodi:cx="7.8767509"
         sodipodi:cy="8.1844206"
         sodipodi:rx="4.6970806"
         sodipodi:ry="4.8680339"
         sodipodi:start="6.2730799"
         sodipodi:end="6.2702229"
         d="M 12.573592,8.135228 A 4.6970806,4.8680339 0 0 1 7.9275708,13.05217 4.6970806,4.8680339 0 0 1 3.1799828,8.2405668 4.6970806,4.8680339 0 0 1 7.8192218,3.3167518 4.6970806,4.8680339 0 0 1 12.573437,8.1213209"
         sodipodi:open="true" />
      <path
         id="path4041"
         d="M 7.9024136,0.00107134 A 7.9995306,7.9994643 0 0 0 5.3344182e-4,8.0923264 7.9995306,7.9994643 0 0 0 8.0859965,16 7.9995306,7.9994643 0 0 0 15.999595,7.9204629 V 7.897027 A 7.9995306,7.9994643 0 0 0 7.9024136,0.00107134 Z m 0.011718,0.96868513 A 7.0310278,7.0309695 0 0 1 15.030901,7.9087449 v 0.021483 A 7.0310278,7.0309695 0 0 1 8.0762315,15.031315 7.0310278,7.0309695 0 0 1 0.96922659,8.0825614 7.0310278,7.0309695 0 0 1 7.9141316,0.96975647 Z"
         style="color:#000000;clip-rule:nonzero;display:inline;overflow:visible;visibility:visible;opacity:1;isolation:auto;mix-blend-mode:normal;color-interpolation:sRGB;color-interpolation-filters:linearRGB;solid-color:#000000;solid-opacity:1;fill:#b4b4b4;fill-opacity:1;fill-rule:nonzero;stroke:none;stroke-width:0.49996859;stroke-linecap:round;stroke-linejoin:round;stroke-miterlimit:4;stroke-dasharray:none;stroke-dashoffset:0;stroke-opacity:1;color-rendering:auto;image-rendering:auto;shape-rendering:auto;text-rendering:auto;enable-background:accumulate"
         inkscape:connector-curvature="0" />
      <path
         sodipodi:nodetypes="caaac"
         inkscape:connector-curvature="0"
         id="path4263"
         d="m 4,6.25 c 0,0 1.2576558,-1.0669371 2,-1 0.8299661,0.074838 1.1666667,1.5 2,1.5 0.8333333,0 1.1700339,-1.425162 2,-1.5 0.742344,-0.066937 2,1 2,1"
         style="fill:none;fill-opacity:1;fill-rule:evenodd;stroke:#3465a4;stroke-width:0.5;stroke-linecap:butt;stroke-linejoin:miter;stroke-miterlimit:4;stroke-dasharray:none;stroke-opacity:1" />
      <path
         sodipodi:nodetypes="caaac"
         inkscape:connector-curvature="0"
         id="path4263-7"
         d="m 4,10.25 c 0,0 1.2576558,-1.0669371 2,-1 0.8299661,0.074838 1.1666667,1.5 2,1.5 0.8333333,0 1.1700339,-1.425162 2,-1.5 0.742344,-0.066937 2,1 2,1"
         style="fill:none;fill-opacity:1;fill-rule:evenodd;stroke:#3465a4;stroke-width:0.5;stroke-linecap:butt;stroke-linejoin:miter;stroke-miterlimit:4;stroke-dasharray:none;stroke-opacity:1" />
      <path
         sodipodi:nodetypes="caaac"
         inkscape:connector-curvature="0"
         id="path4263-0"
         d="m 4,8.25 c 0,0 1.2576558,-1.0669371 2,-1 0.8299661,0.074838 1.1666667,1.5 2,1.5 0.8333333,0 1.1700339,-1.425162 2,-1.5 0.742344,-0.066937 2,1 2,1"
         style="fill:none;fill-opacity:1;fill-rule:evenodd;stroke:#3465a4;stroke-width:0.5;stroke-linecap:butt;stroke-linejoin:miter;stroke-miterlimit:4;stroke-dasharray:none;stroke-opacity:1" />
    </g>
  </g>
</svg>
