<svg xmlns="http://www.w3.org/2000/svg" width="16" height="16"><g color="#bebebe" fill="#474747"><path d="M3 7h10c.554 0 1 .446 1 1v3c0 .554-.446 1-1 1H3c-.554 0-1-.446-1-1V8c0-.554.446-1 1-1z" style="marker:none" overflow="visible"/><path d="M2 10h12v4H2z" style="marker:none" overflow="visible"/><path d="M7 1C5.355 1 4 2.355 4 4v6c0 1.645 1.355 3 3 3h2c1.645 0 3-1.355 3-3V4c0-1.645-1.355-3-3-3zm0 2h2c.571 0 1 .429 1 1v6c0 .571-.429 1-1 1H7c-.571 0-1-.429-1-1V4c0-.571.429-1 1-1z" style="line-height:normal;font-variant-ligatures:normal;font-variant-position:normal;font-variant-caps:normal;font-variant-numeric:normal;font-variant-alternates:normal;font-feature-settings:normal;text-indent:0;text-align:start;text-decoration-line:none;text-decoration-style:solid;text-decoration-color:#000;text-transform:none;text-orientation:mixed;shape-padding:0;isolation:auto;mix-blend-mode:normal;marker:none" font-weight="400" font-family="sans-serif" overflow="visible"/></g></svg>