<?xml version="1.0" encoding="UTF-8" standalone="no"?>
<svg
   xmlns:osb="http://www.openswatchbook.org/uri/2009/osb"
   xmlns:dc="http://purl.org/dc/elements/1.1/"
   xmlns:cc="http://creativecommons.org/ns#"
   xmlns:rdf="http://www.w3.org/1999/02/22-rdf-syntax-ns#"
   xmlns:svg="http://www.w3.org/2000/svg"
   xmlns="http://www.w3.org/2000/svg"
   xmlns:xlink="http://www.w3.org/1999/xlink"
   xmlns:sodipodi="http://sodipodi.sourceforge.net/DTD/sodipodi-0.dtd"
   xmlns:inkscape="http://www.inkscape.org/namespaces/inkscape"
   viewBox="0 0 16.000001 16"
   id="svg7384"
   height="16"
   width="16.000002"
   version="1.1"
   inkscape:version="0.91 r13725"
   sodipodi:docname="gimp-prefs-folders-brushes.svg">
  <sodipodi:namedview
     pagecolor="#ffffff"
     bordercolor="#666666"
     borderopacity="1"
     objecttolerance="10"
     gridtolerance="10"
     guidetolerance="10"
     inkscape:pageopacity="0"
     inkscape:pageshadow="2"
     inkscape:window-width="640"
     inkscape:window-height="480"
     id="namedview1509"
     showgrid="false"
     inkscape:zoom="14.75"
     inkscape:cx="-725.15947"
     inkscape:cy="-55.38672"
     inkscape:window-x="0"
     inkscape:window-y="27"
     inkscape:window-maximized="0"
     inkscape:current-layer="svg7384" />
  <metadata
     id="metadata90">
    <rdf:RDF>
      <cc:Work
         rdf:about="">
        <dc:format>image/svg+xml</dc:format>
        <dc:type
           rdf:resource="http://purl.org/dc/dcmitype/StillImage" />
        <dc:title />
        <dc:contributor>
          <cc:Agent>
            <dc:title>Barbara Muraus, Jakub Steiner, Klaus Staedtler</dc:title>
          </cc:Agent>
        </dc:contributor>
        <dc:description>Images originally created as the &quot;Art Libre&quot; icon set. Extended and adopted for GIMP</dc:description>
      </cc:Work>
    </rdf:RDF>
  </metadata>
  <defs
     id="defs7386">
    <linearGradient
       osb:paint="solid"
       id="linearGradient8074">
      <stop
         id="stop8072"
         offset="0"
         style="stop-color:#be00be;stop-opacity:1;" />
    </linearGradient>
    <linearGradient
       osb:paint="solid"
       id="linearGradient7561">
      <stop
         id="stop7558"
         offset="0"
         style="stop-color:#a5a5a5;stop-opacity:1;" />
    </linearGradient>
    <linearGradient
       osb:paint="solid"
       id="linearGradient7548">
      <stop
         id="stop7546"
         offset="0"
         style="stop-color:#ebebeb;stop-opacity:1;" />
    </linearGradient>
    <linearGradient
       osb:paint="solid"
       id="linearGradient7542">
      <stop
         id="stop7538"
         offset="0"
         style="stop-color:#c9c9c9;stop-opacity:1;" />
    </linearGradient>
    <linearGradient
       gradientTransform="matrix(0,-735328.32,170712.69,0,2464326300,577972450)"
       osb:paint="solid"
       id="linearGradient19282">
      <stop
         id="stop19284"
         offset="0"
         style="stop-color:#b4b4b4;stop-opacity:1;" />
    </linearGradient>
    <linearGradient
       gradientTransform="matrix(0.34682586,0,0,0.30620888,-119.35207,801.03851)"
       osb:paint="solid"
       id="linearGradient19282-4">
      <stop
         id="stop19284-0"
         offset="0"
         style="stop-color:#bebebe;stop-opacity:1;" />
    </linearGradient>
    <linearGradient
       gradientTransform="translate(768.15947,399.52469)"
       gradientUnits="userSpaceOnUse"
       y2="-32"
       x2="51"
       y1="-32"
       x1="35"
       id="linearGradient8298"
       xlink:href="#linearGradient19282-4" />
  </defs>
  <g
     transform="translate(-154.83886,-241.52469)"
     style="display:inline"
     id="preferences">
    <g
       transform="translate(119.83886,281.52469)"
       id="gimp-prefs-folders-brushes">
      <g
         id="g560"
         transform="translate(20,0)">
        <g
           id="folder"
           transform="translate(-192.9998,-1036)"
           style="display:inline">
          <path
             style="display:inline;fill:url(#linearGradient8298);fill-opacity:1;stroke:none"
             d="M 35.53125,-40 C 35.24212,-40 35,-39.75788 35,-39.46875 l 0,14.9375 C 35,-24.23275 35.23264,-24 35.53125,-24 l 14.9375,0 C 50.76735,-24 51,-24.23265 51,-24.53125 l 0,-9.9375 C 51,-34.75785 50.75788,-35 50.46875,-35 L 38,-35 l 0,8.5 c 0,0.277 -0.223,0.5 -0.5,0.5 -0.277,0 -0.5,-0.223 -0.5,-0.5 l 0,-9 c 0,-0.277 0.223,-0.5 0.5,-0.5 l 2.96875,0 8.53125,0 0,-1.40625 C 49,-37.73345 48.733264,-38.007036 48.40625,-38 L 41,-38 41,-39.46875 C 41,-39.7579 40.75788,-40 40.46875,-40 Z M 41,-34 l 0,0.5625 C 41,-33.192664 41.216234,-33 41.46875,-33 l 0.0625,0 C 41.783766,-33 42,-33.192664 42,-33.4375 L 42,-34 l 1,0 0,0.5625 C 43,-33.192664 43.216234,-33 43.46875,-33 l 0.0625,0 C 43.783766,-33 44,-33.192664 44,-33.4375 L 44,-34 l 1,0 0,0.5625 C 45,-33.192664 45.216234,-33 45.46875,-33 l 0.0625,0 C 45.783766,-33 46,-33.192664 46,-33.4375 L 46,-34 l 1,0 0,0.5625 C 47,-33.192664 47.216234,-33 47.46875,-33 l 0.0625,0 C 47.783766,-33 48,-33.192664 48,-33.4375 L 48,-34 c 0.554,0 1.021427,0.446415 1,1 l 0,3 -9,0 0,-3 c 0,-0.554 0.446,-1 1,-1 z m -1,5 9,0 -1,2 -2,0 0,2 -3,0 0,-2 -2,0 z"
             transform="translate(172.9998,1036)"
             id="path7149"
             inkscape:connector-curvature="0" />
        </g>
      </g>
    </g>
  </g>
</svg>
