<?xml version="1.0" encoding="UTF-8" standalone="no"?>
<svg
   xmlns:osb="http://www.openswatchbook.org/uri/2009/osb"
   xmlns:dc="http://purl.org/dc/elements/1.1/"
   xmlns:cc="http://creativecommons.org/ns#"
   xmlns:rdf="http://www.w3.org/1999/02/22-rdf-syntax-ns#"
   xmlns:svg="http://www.w3.org/2000/svg"
   xmlns="http://www.w3.org/2000/svg"
   xmlns:xlink="http://www.w3.org/1999/xlink"
   xmlns:sodipodi="http://sodipodi.sourceforge.net/DTD/sodipodi-0.dtd"
   xmlns:inkscape="http://www.inkscape.org/namespaces/inkscape"
   version="1.1"
   width="16"
   height="15.999605"
   id="svg2"
   viewBox="0 0 16 15.999605"
   inkscape:version="0.91 r13725"
   sodipodi:docname="gimp-navigation.svg">
  <sodipodi:namedview
     pagecolor="#ffffff"
     bordercolor="#666666"
     borderopacity="1"
     objecttolerance="10"
     gridtolerance="10"
     guidetolerance="10"
     inkscape:pageopacity="0"
     inkscape:pageshadow="2"
     inkscape:window-width="501"
     inkscape:window-height="405"
     id="namedview1701"
     showgrid="false"
     inkscape:zoom="14.751025"
     inkscape:cx="-309.07583"
     inkscape:cy="-288.78011"
     inkscape:window-x="0"
     inkscape:window-y="27"
     inkscape:window-maximized="0"
     inkscape:current-layer="svg2" />
  <metadata
     id="metadata90">
    <rdf:RDF>
      <cc:Work>
        <dc:format>image/svg+xml</dc:format>
        <dc:type
           rdf:resource="http://purl.org/dc/dcmitype/StillImage" />
        <dc:title>Gimp Color Icon Theme</dc:title>
        <dc:contributor>
          <cc:Agent>
            <dc:title>many unknown and unnamed, Andrew Chadwick, Alexandre Prokoudine, Aryeom Han, Benoit Touchette, Jakub Steiner, Jehan, Johannes Matschke, Kevin Payne, Klaus Staedtler, Marek Dvoroznak, Michael Natterer</dc:title>
          </cc:Agent>
        </dc:contributor>
        <dc:description>Enhanced, extended tango-art-libre for GIMP</dc:description>
      </cc:Work>
    </rdf:RDF>
  </metadata>
  <defs
     id="defs7386">
    <linearGradient
       id="linearGradient8437">
      <stop
         id="stop8439"
         offset="0"
         style="stop-color:#000000;stop-opacity:1;" />
      <stop
         id="stop8441"
         offset="1"
         style="stop-color:#000000;stop-opacity:0;" />
    </linearGradient>
    <linearGradient
       gradientTransform="matrix(0,-735328.32,170712.69,0,2464326300,577972450)"
       osb:paint="solid"
       id="linearGradient19282">
      <stop
         stop-color="#b4b4b4"
         id="stop19284" />
    </linearGradient>
    <linearGradient
       osb:paint="gradient"
       x1="231.55"
       x2="320.70001"
       gradientUnits="userSpaceOnUse"
       id="linearGradient6057"
       gradientTransform="matrix(0.01502614,0,0,0.01468232,2.9686133,1037.3257)">
      <stop
         stop-color="#a11f7c"
         id="stop6053" />
      <stop
         stop-opacity="0.984"
         stop-color="#541f31"
         offset="1"
         id="stop6055" />
    </linearGradient>
    <linearGradient
       gradientTransform="translate(90290.994,34180.916)"
       gradientUnits="userSpaceOnUse"
       y2="-4387.5962"
       x2="-2336.387"
       y1="-4387.5962"
       x1="-5887.6748"
       id="linearGradient8443"
       xlink:href="#linearGradient8437" />
    <linearGradient
       gradientTransform="translate(90290.994,34180.916)"
       y2="-4387.5962"
       x2="-2336.387"
       y1="-4387.5962"
       x1="-5887.6748"
       gradientUnits="userSpaceOnUse"
       id="linearGradient8447"
       xlink:href="#linearGradient8437" />
    <linearGradient
       gradientTransform="translate(90290.994,34180.916)"
       y2="-4387.5962"
       x2="-2336.387"
       y1="-4387.5962"
       x1="-5887.6748"
       gradientUnits="userSpaceOnUse"
       id="linearGradient8449"
       xlink:href="#linearGradient8437" />
    <linearGradient
       gradientTransform="translate(90290.994,34180.916)"
       y2="-4387.5962"
       x2="-2336.387"
       y1="-4387.5962"
       x1="-5887.6748"
       gradientUnits="userSpaceOnUse"
       id="linearGradient8451"
       xlink:href="#linearGradient8437" />
    <linearGradient
       gradientTransform="translate(90290.994,34180.916)"
       y2="-4387.5962"
       x2="-2336.387"
       y1="-4387.5962"
       x1="-5887.6748"
       gradientUnits="userSpaceOnUse"
       id="linearGradient8453"
       xlink:href="#linearGradient8437" />
    <linearGradient
       osb:paint="solid"
       id="linearGradient5487">
      <stop
         id="stop5485"
         offset="0"
         style="stop-color:#888a85;stop-opacity:1;" />
    </linearGradient>
  </defs>
  <g
     style="display:inline"
     transform="translate(-27.386257,3.2724776)"
     id="stock">
    <g
       transform="matrix(1.0000448,0,0,1.0000448,-59.952889,3.5542552)"
       id="gimp-navigation">
      <g
         id="g8591"
         transform="translate(0.13350585,0)">
        <g
           style="fill:url(#linearGradient8443);fill-opacity:1;stroke:#323232;stroke-width:22.21016502;stroke-miterlimit:4;stroke-dasharray:none;stroke-opacity:1"
           transform="matrix(0.00447877,0,0,0.00447035,113.61821,20.787107)"
           id="g8699">
          <path
             d="m -4122.5,-6166.1 -272.97,1313.9 -492.72,-323.25 -10.375,10.344 322.69,491.94 -1311.3,272.34 0,23.5 1310.8,272.34 -324.78,495.09 10.344,10.344 493.03,-323.38 272.88,1313.8 23.5,0 273.03,-1314.1 492.75,323.22 10.344,-10.344 -322.81,-492.12 1311.2,-272.38 0,-23.5 -1310.5,-272.28 324.53,-494.69 -10.375,-10.344 -492.91,323.31 -272.88,-1313.7 -23.5,0 z m -0.2188,119.03 0,1373.8 0,254.84 -280.16,-280.25 28.969,-139.38 251.19,-1209 z m 736.97,923.69 -411.25,411.25 -25.875,-124.53 437.12,-286.72 z m -1460.5,10.781 410.31,410.31 -124.25,25.812 -286.06,-436.12 z m 1042,433.81 142.66,29.656 1205.7,250.5 -1370,0 -258.53,0 280.22,-280.16 z m -1963.9,301.66 1370.3,0 258.5,0 -280.22,280.22 -142.69,-29.656 -1205.9,-250.56 z m 1666.9,20.094 280.22,280.22 -28.969,139.38 -251.25,1209.2 0,-1374.1 0,-254.75 z m 437.38,257.75 286.19,436.34 -410.53,-410.53 124.34,-25.812 z m -763.09,36.062 25.844,124.56 -437.19,286.78 411.34,-411.34 z"
             style="color:#000000;text-indent:0;text-transform:none;fill:#2e3436;fill-opacity:1;stroke:#323232;stroke-width:21.96143532;stroke-miterlimit:4;stroke-dasharray:none;stroke-opacity:1"
             id="path3254-2-2-7-1"
             inkscape:connector-curvature="0" />
          <g
             style="fill:url(#linearGradient8447);fill-opacity:1;stroke:#323232;stroke-width:22.21016502;stroke-miterlimit:4;stroke-dasharray:none;stroke-opacity:1"
             id="text4344" />
          <g
             style="fill:url(#linearGradient8449);fill-opacity:1;stroke:#323232;stroke-width:22.21016502;stroke-miterlimit:4;stroke-dasharray:none;stroke-opacity:1"
             id="text4344-1" />
          <g
             style="fill:url(#linearGradient8451);fill-opacity:1;stroke:#323232;stroke-width:22.21016502;stroke-miterlimit:4;stroke-dasharray:none;stroke-opacity:1"
             id="text4344-8" />
          <g
             style="fill:url(#linearGradient8453);fill-opacity:1;stroke:#323232;stroke-width:22.21016502;stroke-miterlimit:4;stroke-dasharray:none;stroke-opacity:1"
             id="text4344-7" />
        </g>
        <path
           d="m 95.24811,-6.7775622 1.22257,5.87358997 2.20678,-1.44503997 0.0465,0.0462 -1.44525,2.19914997 5.87301,1.21745003 0,0.10505 -5.87077,1.21746 1.45461,2.21322 -0.0463,0.0463 -2.20816,-1.44563 -1.22217,5.87315 -0.10525,0 -1.22284,-5.87449 -2.20691,1.44491 -0.0463,-0.0462 1.44579,-2.19995 -5.872556,-1.21763 0,-0.10506 5.869416,-1.21718003 -1.45349,-2.21143997 0.0465,-0.0462 2.20763,1.44530997 1.22216,-5.87269997 0.10525,0 z m 9.8e-4,0.5321 0,6.14136997 0,1.13923003 1.25477,-1.25282003 -0.12975,-0.62308 -1.12502,-5.40464997 z m -3.30072,4.12922 1.84189,1.83842997 0.11589,-0.55669 -1.95776,-1.28173997 z m 6.54124,0.0482 -1.83768,1.83422997 0.55648,0.11538 1.2812,-1.94959997 z m -4.66688,1.93927997 -0.63894,0.13257 -5.400046,1.11982003 6.135906,0 1.1579,0 -1.25504,-1.25241003 z m 8.79586,1.34853003 -6.13726,0 -1.15776,0 1.25504,1.25268 0.63907,-0.13258 5.40095,-1.12009 z m -7.46566,0.0898 -1.25504,1.25268 0.12974,0.62308 1.12529,5.40555 0,-6.14271 0,-1.13882 z m -1.95893,1.15224 -1.28178,1.95059 1.83867,-1.83522 -0.55689,-0.11538 z m 3.41771,0.1612 -0.11575,0.55683 1.95807,1.28201 -1.8423,-1.83884 z"
           style="color:#000000;text-indent:0;text-transform:none;fill:#ffffff;fill-opacity:1;stroke:#000000;stroke-width:0.09799561;stroke-miterlimit:4;stroke-dasharray:none;stroke-opacity:1"
           id="path3254-2-2-7-1-4"
           inkscape:connector-curvature="0" />
      </g>
    </g>
  </g>
</svg>
