<?xml version="1.0" encoding="UTF-8" standalone="no"?>
<svg
   xmlns:osb="http://www.openswatchbook.org/uri/2009/osb"
   xmlns:dc="http://purl.org/dc/elements/1.1/"
   xmlns:cc="http://creativecommons.org/ns#"
   xmlns:rdf="http://www.w3.org/1999/02/22-rdf-syntax-ns#"
   xmlns:svg="http://www.w3.org/2000/svg"
   xmlns="http://www.w3.org/2000/svg"
   xmlns:xlink="http://www.w3.org/1999/xlink"
   xmlns:sodipodi="http://sodipodi.sourceforge.net/DTD/sodipodi-0.dtd"
   xmlns:inkscape="http://www.inkscape.org/namespaces/inkscape"
   viewBox="0 0 15.999999 16"
   id="svg7384"
   height="16"
   width="16"
   version="1.1"
   inkscape:version="0.91 r13725"
   sodipodi:docname="gimp-prefs-folders-environ.svg">
  <sodipodi:namedview
     pagecolor="#ffffff"
     bordercolor="#666666"
     borderopacity="1"
     objecttolerance="10"
     gridtolerance="10"
     guidetolerance="10"
     inkscape:pageopacity="0"
     inkscape:pageshadow="2"
     inkscape:window-width="501"
     inkscape:window-height="405"
     id="namedview1509"
     showgrid="false"
     inkscape:zoom="14.75"
     inkscape:cx="-728.48816"
     inkscape:cy="4.61328"
     inkscape:window-x="0"
     inkscape:window-y="27"
     inkscape:window-maximized="0"
     inkscape:current-layer="svg7384" />
  <metadata
     id="metadata90">
    <rdf:RDF>
      <cc:Work
         rdf:about="">
        <dc:format>image/svg+xml</dc:format>
        <dc:type
           rdf:resource="http://purl.org/dc/dcmitype/StillImage" />
        <dc:title />
        <dc:contributor>
          <cc:Agent>
            <dc:title>Barbara Muraus, Jakub Steiner, Klaus Staedtler</dc:title>
          </cc:Agent>
        </dc:contributor>
        <dc:description>Images originally created as the &quot;Art Libre&quot; icon set. Extended and adopted for GIMP</dc:description>
      </cc:Work>
    </rdf:RDF>
  </metadata>
  <defs
     id="defs7386">
    <linearGradient
       osb:paint="solid"
       id="linearGradient8074">
      <stop
         id="stop8072"
         offset="0"
         style="stop-color:#be00be;stop-opacity:1;" />
    </linearGradient>
    <linearGradient
       osb:paint="solid"
       id="linearGradient7561">
      <stop
         id="stop7558"
         offset="0"
         style="stop-color:#a5a5a5;stop-opacity:1;" />
    </linearGradient>
    <linearGradient
       osb:paint="solid"
       id="linearGradient7548">
      <stop
         id="stop7546"
         offset="0"
         style="stop-color:#ebebeb;stop-opacity:1;" />
    </linearGradient>
    <linearGradient
       osb:paint="solid"
       id="linearGradient7542">
      <stop
         id="stop7538"
         offset="0"
         style="stop-color:#c9c9c9;stop-opacity:1;" />
    </linearGradient>
    <linearGradient
       gradientTransform="matrix(0,-735328.32,170712.69,0,2464326300,577972450)"
       osb:paint="solid"
       id="linearGradient19282">
      <stop
         id="stop19284"
         offset="0"
         style="stop-color:#b4b4b4;stop-opacity:1;" />
    </linearGradient>
    <linearGradient
       gradientTransform="matrix(0.34682586,0,0,0.30620888,-79.35207,741.03851)"
       osb:paint="solid"
       id="linearGradient19282-4">
      <stop
         id="stop19284-0"
         offset="0"
         style="stop-color:#bebebe;stop-opacity:1;" />
    </linearGradient>
    <linearGradient
       gradientTransform="translate(811.48816,399.52469)"
       gradientUnits="userSpaceOnUse"
       y2="28"
       x2="91"
       y1="28"
       x1="75"
       id="linearGradient8310"
       xlink:href="#linearGradient19282-4" />
  </defs>
  <g
     transform="translate(-198.16755,-241.52469)"
     style="display:inline"
     id="preferences">
    <g
       transform="translate(123.16755,221.52469)"
       id="gimp-prefs-folders-environ">
      <g
         id="g749"
         transform="translate(20,0)">
        <g
           id="g751"
           transform="translate(40,60)">
          <path
             style="display:inline;fill:url(#linearGradient8310);fill-opacity:1;stroke:none"
             d="M 75.53125,20 C 75.24212,20 75,20.24212 75,20.53125 l 0,14.9375 C 75,35.76725 75.23264,36 75.53125,36 l 14.9375,0 C 90.76735,36 91,35.76735 91,35.46875 l 0,-9.9375 C 91,25.24215 90.75788,25 90.46875,25 L 78,25 78,33.5 C 78,33.777 77.777,34 77.5,34 77.223,34 77,33.777 77,33.5 l 0,-9 C 77,24.223 77.223,24 77.5,24 L 80.46875,24 89,24 89,22.59375 C 89,22.26655 88.73334,22 88.40625,22 L 81,22 81,20.53125 C 81,20.2421 80.75788,20 80.46875,20 Z M 83,26 l 1,0 0,2 -1,0 z m 2,0 1,0 0,2 -1,0 z m -5,3 2,0 0,1 -2,0 z m 4,0 1,0 c 0.554,0 1,0.446 1,1 l 0,1 c 0,0.554 -0.446,1 -1,1 l -1,0 c -0.554,0 -1,-0.446 -1,-1 l 0,-1 c 0,-0.554 0.446,-1 1,-1 z m 3,0 2,0 0,1 -2,0 z m -7,2 2,0 0,1 -2,0 z m 7,0 2,0 0,1 -2,0 z m -4,2 1,0 0,2 -1,0 z m 2,0 1,0 0,2 -1,0 z"
             transform="translate(-60,-60)"
             id="path7541"
             inkscape:connector-curvature="0" />
        </g>
      </g>
    </g>
  </g>
</svg>
