<?xml version="1.0" encoding="UTF-8" standalone="no"?>
<svg
   viewBox="0 0 24.000194 24"
   id="svg7384"
   height="24"
   width="24.000195"
   version="1.1"
   inkscape:version="1.1.2 (1:1.1+202202050942+0a00cf5339)"
   sodipodi:docname="gimp-hchain.svg"
   xmlns:inkscape="http://www.inkscape.org/namespaces/inkscape"
   xmlns:sodipodi="http://sodipodi.sourceforge.net/DTD/sodipodi-0.dtd"
   xmlns:xlink="http://www.w3.org/1999/xlink"
   xmlns="http://www.w3.org/2000/svg"
   xmlns:svg="http://www.w3.org/2000/svg"
   xmlns:rdf="http://www.w3.org/1999/02/22-rdf-syntax-ns#"
   xmlns:cc="http://creativecommons.org/ns#"
   xmlns:dc="http://purl.org/dc/elements/1.1/">
  <sodipodi:namedview
     pagecolor="#ffffff"
     bordercolor="#666666"
     borderopacity="1"
     objecttolerance="10"
     gridtolerance="10"
     guidetolerance="10"
     inkscape:pageopacity="0"
     inkscape:pageshadow="2"
     inkscape:window-width="1274"
     inkscape:window-height="1387"
     id="namedview1508"
     showgrid="false"
     inkscape:zoom="13.906433"
     inkscape:cx="10.75042"
     inkscape:cy="9.9234649"
     inkscape:window-x="0"
     inkscape:window-y="22"
     inkscape:window-maximized="0"
     inkscape:current-layer="svg7384"
     inkscape:pagecheckerboard="0"
     inkscape:lockguides="true" />
  <metadata
     id="metadata90">
    <rdf:RDF>
      <cc:Work
         rdf:about="">
        <dc:format>image/svg+xml</dc:format>
        <dc:type
           rdf:resource="http://purl.org/dc/dcmitype/StillImage" />
        <dc:contributor>
          <cc:Agent>
            <dc:title>Barbara Muraus, Jakub Steiner, Klaus Staedtler</dc:title>
          </cc:Agent>
        </dc:contributor>
        <dc:description>Images originally created as the &quot;Art Libre&quot; icon set. Extended and adopted for GIMP</dc:description>
      </cc:Work>
    </rdf:RDF>
  </metadata>
  <defs
     id="defs7386">
    <linearGradient
       id="linearGradient8074"
       inkscape:swatch="solid">
      <stop
         id="stop8072"
         offset="0"
         style="stop-color:#be00be;stop-opacity:1;" />
    </linearGradient>
    <linearGradient
       id="linearGradient7561"
       inkscape:swatch="solid">
      <stop
         id="stop7558"
         offset="0"
         style="stop-color:#a5a5a5;stop-opacity:1;" />
    </linearGradient>
    <linearGradient
       id="linearGradient7548"
       inkscape:swatch="solid">
      <stop
         id="stop7546"
         offset="0"
         style="stop-color:#ebebeb;stop-opacity:1;" />
    </linearGradient>
    <linearGradient
       id="linearGradient7542"
       inkscape:swatch="solid">
      <stop
         id="stop7538"
         offset="0"
         style="stop-color:#c9c9c9;stop-opacity:1;" />
    </linearGradient>
    <linearGradient
       gradientTransform="matrix(0,-735328.32,170712.69,0,2464326300,577972450)"
       id="linearGradient19282"
       inkscape:swatch="solid">
      <stop
         id="stop19284"
         offset="0"
         style="stop-color:#b4b4b4;stop-opacity:1;" />
    </linearGradient>
    <linearGradient
       gradientTransform="matrix(0.34682586,0,0,0.30620888,-154.35226,-275.32368)"
       id="linearGradient19282-4"
       inkscape:swatch="solid">
      <stop
         id="stop19284-0"
         offset="0"
         style="stop-color:#bebebe;stop-opacity:1;" />
    </linearGradient>
    <linearGradient
       gradientTransform="translate(3.56102,-1.0000002e-5)"
       gradientUnits="userSpaceOnUse"
       y2="194.64062"
       x2="1020.9883"
       y1="194.64062"
       x1="996.98828"
       id="linearGradient9980"
       xlink:href="#linearGradient19282-4" />
    <linearGradient
       gradientTransform="rotate(90,418.967,575.34657)"
       gradientUnits="userSpaceOnUse"
       y2="164.94727"
       x2="1017.1035"
       y1="164.94727"
       x1="1002.1035"
       id="linearGradient9972"
       xlink:href="#linearGradient19282-4" />
  </defs>
  <path
     id="rect6775-9"
     d="m 6.2500123,5.4999975 c -1.5927488,0 -2.875017,1.1596178 -2.875017,2.6000012 V 10.699999 H 1.9374964 c -0.7963744,0 -1.4374989,0.579809 -1.4374989,1.300001 0,0.7202 0.6411245,1.3 1.4374989,1.3 h 1.4374989 v 2.600002 c 0,1.4404 1.2822682,2.6 2.875017,2.6 H 17.750003 c 1.59275,0 2.874998,-1.1596 2.874998,-2.6 V 13.3 h 1.527295 C 22.898933,13.3 23.5,12.756435 23.5,12.081259 v -0.1625 c 0,-0.675195 -0.601067,-1.218751 -1.347704,-1.21876 H 20.625001 V 8.0999987 c 0,-1.4403834 -1.282248,-2.6000012 -2.874998,-2.6000012 z m 1.4374989,2.6000012 h 8.6249938 c 0.796374,0 1.437498,0.5798176 1.437498,1.3000005 v 1.2999998 h -1.52739 c -0.746541,0 -1.347607,0.543565 -1.347607,1.21876 v 0.1625 c 0,0.675176 0.601066,1.218741 1.347607,1.218741 h 1.52739 v 1.300002 c 0,0.7202 -0.641124,1.300008 -1.437498,1.3 H 7.6875112 c -0.7963745,0 -1.4374989,-0.5798 -1.4374989,-1.3 V 13.3 H 7.6875112 C 8.4838855,13.3 9.12501,12.7202 9.12501,12 c 0,-0.720192 -0.6411245,-1.300001 -1.4374988,-1.300001 H 6.2500123 V 9.3999992 c 0,-0.7201829 0.6411244,-1.3000005 1.4374989,-1.3000005 z"
     style="fill:#bebebe;fill-opacity:1;stroke:#555555;stroke-width:0.999991;stroke-miterlimit:4;stroke-dasharray:none;stroke-opacity:1"
     inkscape:connector-curvature="0" />
</svg>
