<?xml version="1.0" encoding="UTF-8" standalone="no"?>
<svg
   height="16"
   viewBox="0 0 16 16"
   width="16"
   version="1.1"
   id="svg10"
   xml:space="preserve"
   xmlns="http://www.w3.org/2000/svg"
   xmlns:svg="http://www.w3.org/2000/svg"><defs
     id="defs10" /><g
     fill="#222222"
     id="g10"
     style="fill:#729fcf;fill-opacity:1;stroke:none;stroke-width:0.521477;stroke-linecap:butt;stroke-linejoin:miter;stroke-miterlimit:4;stroke-dasharray:none;stroke-opacity:1;paint-order:normal"
     transform="matrix(0.96292602,0,0,0.95472001,0.29863779,0.32686401)"><path
       id="path8"
       style="fill:#729fcf;fill-opacity:1;stroke:#2d5887;stroke-width:0.521477;stroke-linecap:butt;stroke-linejoin:miter;stroke-miterlimit:4;stroke-dasharray:none;stroke-opacity:1;paint-order:normal"
       d="m 6.0431962,1.8355267 c -1.5176618,0 -2.5881434,0.9255593 -3.0090842,1.7660605 C 2.7794752,4.1149556 2.6408305,4.6781817 2.6256705,5.2511529 v 0.00466 l 0.00462,1.1369889 H 1.4926488 v 2.2763074 h 1.1491747 l 0.00923,2.2669878 c 0,0 -0.018312,0.333064 -0.1707609,0.633732 C 2.3267054,11.871637 2.249171,12.087067 1.49034,12.087067 H 0.35270429 v 2.276308 H 1.4903411 c 1.5176619,0 2.5905155,-0.923177 3.0160069,-1.761401 0.4277667,-0.838222 0.4199795,-1.644904 0.4199795,-1.644904 v -0.007 L 4.9170972,8.669109 H 7.1808331 V 6.3928015 H 4.9055593 l -0.00462,-1.1369887 c 0,0 0.01711,-0.3330124 0.1661459,-0.6314018 0.1501772,-0.2983892 0.2161414,-0.5125768 0.97611,-0.5125768 H 7.1808323 V 1.8355267 Z m 3.9782678,4.8974395 c -0.2910853,0 -0.5831437,0.1107356 -0.8053455,0.333175 -0.439961,0.4448786 -0.4397943,1.1674089 0.00462,1.6122874 L 10.7022,10.160241 9.2161185,11.658364 c -0.4444059,0.444878 -0.4397943,1.165078 0.00462,1.609959 0.4488486,0.444876 1.1684245,0.440211 1.6083835,-0.0046 l 1.483773,-1.495793 1.458391,1.456184 c 0.444406,0.44488 1.166285,0.44488 1.610691,0 0.444404,-0.444876 0.444228,-1.165078 -0.0046,-1.609957 l -1.46296,-1.460835 1.465313,-1.4771529 c 0.4444,-0.449334 0.442086,-1.1695275 -0.0023,-1.6099576 -0.444406,-0.4448786 -1.166287,-0.4446719 -1.610691,0.00466 L 12.305968,8.5432948 10.826809,7.0661412 c -0.222202,-0.2224393 -0.51426,-0.333175 -0.805345,-0.333175 z" /></g></svg>