<?xml version="1.0" encoding="UTF-8" standalone="no"?>
<svg
   width="16"
   height="16"
   id="svg11300"
   sodipodi:version="0.32"
   inkscape:version="1.3.2 (091e20e, 2023-11-25, custom)"
   sodipodi:docname="gimp-lock-path.svg"
   version="1.0"
   viewBox="0 0 16 16"
   xmlns:inkscape="http://www.inkscape.org/namespaces/inkscape"
   xmlns:sodipodi="http://sodipodi.sourceforge.net/DTD/sodipodi-0.dtd"
   xmlns="http://www.w3.org/2000/svg"
   xmlns:svg="http://www.w3.org/2000/svg"
   xmlns:rdf="http://www.w3.org/1999/02/22-rdf-syntax-ns#"
   xmlns:cc="http://creativecommons.org/ns#"
   xmlns:dc="http://purl.org/dc/elements/1.1/">
  <sodipodi:namedview
     inkscape:cy="8.734375"
     inkscape:cx="12.640625"
     inkscape:zoom="32"
     inkscape:window-height="1002"
     inkscape:window-width="1920"
     inkscape:pageshadow="2"
     inkscape:pageopacity="0.0"
     borderopacity="0.17254902"
     bordercolor="#666"
     pagecolor="#ffffff"
     id="base"
     inkscape:showpageshadow="false"
     showborder="true"
     inkscape:window-x="-8"
     inkscape:window-y="-8"
     inkscape:current-layer="layer1"
     width="16px"
     height="16px"
     showgrid="true"
     inkscape:window-maximized="1"
     inkscape:document-units="px"
     inkscape:snap-global="false"
     showguides="false"
     inkscape:pagecheckerboard="0"
     inkscape:deskcolor="#d1d1d1">
    <inkscape:grid
       type="xygrid"
       id="grid4042"
       originx="0"
       originy="0"
       spacingy="1"
       spacingx="1"
       units="px"
       visible="true" />
  </sodipodi:namedview>
  <defs
     id="defs3" />
  <sodipodi:namedview
     stroke="#ef2929"
     fill="#eeeeec"
     pagecolor="#ffffff"
     bordercolor="#666666"
     borderopacity="0.25490196"
     inkscape:pageopacity="0.0"
     inkscape:pageshadow="2"
     inkscape:zoom="1"
     inkscape:cx="-14.198652"
     inkscape:cy="-5.1663457"
     inkscape:current-layer="layer1"
     showgrid="false"
     inkscape:grid-bbox="true"
     inkscape:document-units="px"
     inkscape:showpageshadow="false"
     inkscape:window-width="872"
     inkscape:window-height="659"
     inkscape:window-x="403"
     inkscape:window-y="296"
     width="32px"
     height="32px"
     id="namedview73" />
  <metadata
     id="metadata4">
    <rdf:RDF>
      <cc:Work
         rdf:about="">
        <dc:format>image/svg+xml</dc:format>
        <dc:type
           rdf:resource="http://purl.org/dc/dcmitype/StillImage" />
        <dc:creator>
          <cc:Agent>
            <dc:title>Jakub Steiner</dc:title>
          </cc:Agent>
        </dc:creator>
        <dc:source>http://jimmac.musichall.cz</dc:source>
        <cc:license
           rdf:resource="http://creativecommons.org/licenses/by-sa/2.0/" />
        <dc:title />
      </cc:Work>
      <cc:License
         rdf:about="http://creativecommons.org/licenses/by-sa/2.0/">
        <cc:permits
           rdf:resource="http://web.resource.org/cc/Reproduction" />
        <cc:permits
           rdf:resource="http://web.resource.org/cc/Distribution" />
        <cc:requires
           rdf:resource="http://web.resource.org/cc/Notice" />
        <cc:requires
           rdf:resource="http://web.resource.org/cc/Attribution" />
        <cc:permits
           rdf:resource="http://web.resource.org/cc/DerivativeWorks" />
        <cc:requires
           rdf:resource="http://web.resource.org/cc/ShareAlike" />
      </cc:License>
    </rdf:RDF>
  </metadata>
  <g
     id="layer1"
     inkscape:label="Layer 1"
     inkscape:groupmode="layer">
    <g
       id="g12141">
      <path
         sodipodi:nodetypes="cc"
         style="display:inline;fill:none;fill-rule:evenodd;stroke:#ffffff;stroke-width:0.723603;stroke-linecap:butt;stroke-linejoin:miter;stroke-miterlimit:4;stroke-dasharray:none;stroke-opacity:1"
         d="M 0.43657192,12.164886 1.8212617,11.082989"
         id="path13884"
         inkscape:connector-curvature="0" />
      <path
         inkscape:connector-curvature="0"
         id="path13886-4-6"
         d="m 8.596961,1.0902242 h -0.0091 C 8.320848,1.1035432 8.150991,1.217353 7.873791,1.3724516 7.596592,1.5275501 7.261676,1.7389876 6.88788,1.9889833 6.140289,2.4889747 5.238075,3.1408015 4.384084,3.7773782 3.530091,4.4140215 2.724241,5.0346821 2.171638,5.4682787 1.895337,5.6850438 1.683177,5.854194 1.556419,5.9586142 c -0.06338,0.051944 -0.08955,0.070324 -0.139172,0.1210022 -0.0062,0.00666 -0.01291,0.013319 -0.02601,0.029967 -0.0065,0.00799 -0.02709,0.039957 -0.02732,0.040623 -2.25e-4,3.996e-4 -0.0455,0.140248 -0.04552,0.1405144 -2e-5,1.998e-4 0.230031,0.3472236 0.230219,0.3472902 1.88e-4,0 0.1856,0.00666 0.185996,0.00666 3.96e-4,-1.332e-4 0.04002,-0.013319 0.05072,-0.017981 0.01071,-0.00666 0.01884,-0.00866 0.02471,-0.011987 0.04696,-0.02464 0.05137,-0.031299 0.07544,-0.047948 L 1.506987,6.0230777 c 0.0037,0 0.0066,-0.00666 0.013,-0.00666 0.0095,-0.00666 0.04982,-0.017315 0.04943,-0.016649 -3.96e-4,1.332e-4 0.182282,0.00666 0.182094,0.00666 -1.88e-4,-6.66e-5 0.2302,0.3462248 0.230219,0.346025 1.9e-5,-2.664e-4 -0.04444,0.1395154 -0.04423,0.1391824 2.24e-4,-3.995e-4 -0.02031,0.029302 -0.02601,0.036627 -0.0114,0.014651 -0.01533,0.019312 -0.01821,0.021976 -0.02305,0.023308 0.02818,-0.025306 0.08715,-0.07412 C 2.098357,6.3790241 2.309985,6.2111397 2.583943,5.9961727 3.131857,5.566305 3.933344,4.9483748 4.782081,4.3157272 5.630818,3.683013 6.526694,3.0353816 7.257263,2.5467779 7.622547,2.3025094 7.948234,2.0978645 8.198951,1.9576165 8.449667,1.8173019 8.675278,1.7559018 8.62167,1.7585656 h 1.99003 0.0091 c 0.194382,-0.00999 0.692572,0.1964537 1.06395,0.5515355 0.371379,0.3550152 0.617325,0.8173807 0.5788,1.2017641 l 0.662043,0.066594 C 12.994263,2.8932685 12.612332,2.2756713 12.145189,1.8290221 11.678046,1.3823729 11.126958,1.0651833 10.58438,1.0941519 h 0.01821 z"
         style="color:#000000;font-style:normal;font-variant:normal;font-weight:normal;font-stretch:normal;font-size:medium;line-height:normal;font-family:sans-serif;font-variant-ligatures:normal;font-variant-position:normal;font-variant-caps:normal;font-variant-numeric:normal;font-variant-alternates:normal;font-feature-settings:normal;text-indent:0;text-align:start;text-decoration:none;text-decoration-line:none;text-decoration-style:solid;text-decoration-color:#000000;letter-spacing:normal;word-spacing:normal;text-transform:none;writing-mode:lr-tb;direction:ltr;text-orientation:mixed;dominant-baseline:auto;baseline-shift:baseline;text-anchor:start;white-space:normal;shape-padding:0;clip-rule:nonzero;display:inline;overflow:visible;visibility:visible;opacity:1;isolation:auto;mix-blend-mode:normal;color-interpolation:sRGB;color-interpolation-filters:linearRGB;solid-color:#000000;solid-opacity:1;fill:#ffffff;fill-opacity:1;fill-rule:evenodd;stroke:#000000;stroke-width:0.332972;stroke-linecap:butt;stroke-linejoin:miter;stroke-miterlimit:4;stroke-dasharray:none;stroke-dashoffset:0;stroke-opacity:1;color-rendering:auto;image-rendering:auto;shape-rendering:auto;text-rendering:auto;enable-background:accumulate" />
      <g
         id="rect14212">
        <path
           id="path142"
           style="color:#000000;fill:#d3d7cf;fill-rule:evenodd;stroke-linecap:square;stroke-linejoin:round;-inkscape-stroke:none"
           d="M 12.5 3.234375 C 12.131408 3.234375 11.833984 3.5351504 11.833984 3.9082031 L 11.833984 6.2285156 C 12.331396 6.45246 12.745729 6.8239901 13.042969 7.28125 C 13.119849 7.1714038 13.166016 7.0380202 13.166016 6.8925781 L 13.166016 3.9082031 C 13.166016 3.5351504 12.868592 3.234375 12.5 3.234375 z " />
        <path
           id="path141"
           style="color:#000000;fill:#2e3436;fill-rule:evenodd;stroke-linecap:square;stroke-linejoin:round;-inkscape-stroke:none"
           d="M 12.5 2.9003906 C 11.949616 2.9003906 11.5 3.35768 11.5 3.9082031 L 11.5 6.1054688 C 11.738792 6.1764992 11.963844 6.2797404 12.169922 6.4101562 L 12.169922 3.9082031 C 12.169922 3.7126216 12.313201 3.5683594 12.5 3.5683594 C 12.686799 3.5683594 12.830078 3.7126216 12.830078 3.9082031 L 12.830078 6.8925781 C 12.830078 6.9241597 12.827364 6.9539932 12.820312 6.9824219 C 12.976197 7.1670552 13.110334 7.3708069 13.21875 7.5898438 C 13.392594 7.4078622 13.5 7.1614425 13.5 6.8925781 L 13.5 3.9082031 C 13.5 3.35768 13.050384 2.9003906 12.5 2.9003906 z " />
      </g>
      <g
         id="rect14215">
        <path
           id="path131"
           style="color:#000000;fill:#edd400;fill-rule:evenodd;stroke-linecap:square;stroke-linejoin:round;-inkscape-stroke:none"
           d="M 13.539062 9.8320312 L 14.099609 9.8320312 L 14.099609 6.6328125 L 12.46875 6.6328125 C 13.127494 7.1854809 13.539062 8.0355206 13.539062 8.9453125 L 13.539062 9.8320312 z " />
        <path
           id="path128"
           style="color:#000000;fill:#c4a000;fill-rule:evenodd;stroke-linecap:square;stroke-linejoin:round;-inkscape-stroke:none"
           d="M 14.212891 10.216797 A 0.40004001 0.40004001 0 0 0 14.5 9.8320312 L 14.5 6.6328125 A 0.40004001 0.40004001 0 0 0 14.099609 6.2324219 L 11.841797 6.2324219 C 12.242033 6.4141796 12.586415 6.6926494 12.861328 7.0332031 L 13.699219 7.0332031 L 13.699219 9.4316406 L 13.539062 9.4316406 L 13.539062 10.03125 C 13.778429 10.051803 14.005267 10.117486 14.212891 10.216797 z " />
      </g>
      <g
         id="rect14217">
        <path
           id="path120"
           style="color:#000000;display:inline;fill:#3465a4;fill-rule:evenodd;stroke-linecap:square;stroke-linejoin:round;-inkscape-stroke:none"
           d="M 15.337891,15.525391 H 15.625 v -5.152344 c 0,-0.348396 -1.086709,-1.3476564 -1.464844,-1.3476564 H 13.539062 V 10.03125 c 1.007162,0.08648 1.802735,0.940704 1.802735,1.96875 v 3.490234 c -2e-6,0.01195 -0.0032,0.02339 -0.0039,0.03516 z" />
        <path
           id="path122"
           style="color:#000000;display:inline;fill:#204a87;fill-rule:evenodd;stroke-linecap:square;stroke-linejoin:round;-inkscape-stroke:none"
           d="m 15.25,15.796875 v 0.103516 H 16 v -0.375 -5.152344 C 16,10.091174 15.874971,9.9572805 15.748047,9.7890625 15.621123,9.6208445 15.462027,9.4522836 15.289062,9.2929688 15.116097,9.1336538 14.932298,8.9865411 14.751953,8.8710938 14.571608,8.7556463 14.419974,8.6503906 14.160156,8.6503906 h -0.634765 c 0.0096,0.097715 0.01367,0.1955369 0.01367,0.2949219 v 0.4550781 h 0.603516 c -0.021,0.00469 0.09166,0.028956 0.205078,0.1015625 0.129624,0.082979 0.287802,0.2075109 0.433594,0.3417969 0.145792,0.134286 0.28063,0.281131 0.369141,0.398438 0.08851,0.117305 0.09961,0.238534 0.09961,0.130859 v 1.037109 c 0.05873,0.186606 0.0918,0.38467 0.0918,0.589844 v 3.490234 c -1.8e-5,0.112779 -0.03509,0.218095 -0.0918,0.306641 z" />
      </g>
      <path
         id="path14222"
         style="color:#000000;fill:#729fcf;fill-rule:evenodd;stroke-linecap:square;stroke-linejoin:round;-inkscape-stroke:none"
         d="M 15 10.894531 L 15 10.599609 L 15 10.564453 C 15 10.374127 14.92966 10.251782 14.853516 10.132812 C 14.777366 10.013843 14.681222 9.903835 14.576172 9.8027344 C 14.366072 9.6005331 14.161036 9.4003906 13.794922 9.4003906 L 13.539062 9.4003906 L 13.539062 9.8359375 L 13.539062 10.03125 C 14.145909 10.083358 14.67453 10.414893 15 10.894531 z " />
      <path
         sodipodi:nodetypes="ccccaccccccccaccccc"
         style="display:inline;fill:#ffffff;fill-opacity:1;stroke:#000000;stroke-width:0.31303275;stroke-miterlimit:4;stroke-dasharray:none;stroke-opacity:1"
         d="M 0.156516,0.156516 V 3.4239639 H 1.35586 V 6.6690717 C 0.757589,6.8765568 0.156897,7.4028657 0.156785,8.0000051 0.156685,8.5973789 0.757589,9.124393 1.35586,9.3318881 V 12.575193 H 0.156516 v 3.268291 h 2.998349 l -1e-6,-3.268291 H 1.955521 V 9.3318881 C 2.553792,9.124393 3.155033,8.5974961 3.155133,8.0000051 3.155245,7.4022683 2.554465,6.8748726 1.955521,6.6671422 V 3.4239639 H 3.154864 V 0.156516 Z"
         id="path82013-7-7"
         inkscape:connector-curvature="0" />
    </g>
    <g
       id="g99249"
       transform="matrix(3.5396213,0,0,3.5396213,-195.39696,-161.87026)">
      <g
         id="g99241"
         transform="matrix(0.74750808,0,0,0.74750808,-7.218628,0.2337136)">
        <path
           style="color:#000000;font-style:normal;font-variant:normal;font-weight:normal;font-stretch:normal;font-size:medium;line-height:normal;font-family:sans-serif;font-variant-ligatures:normal;font-variant-position:normal;font-variant-caps:normal;font-variant-numeric:normal;font-variant-alternates:normal;font-variant-east-asian:normal;font-feature-settings:normal;font-variation-settings:normal;text-indent:0;text-align:start;text-decoration:none;text-decoration-line:none;text-decoration-style:solid;text-decoration-color:#000000;letter-spacing:normal;word-spacing:normal;text-transform:none;writing-mode:lr-tb;direction:ltr;text-orientation:mixed;dominant-baseline:auto;baseline-shift:baseline;text-anchor:start;white-space:normal;shape-padding:0;shape-margin:0;inline-size:0;clip-rule:nonzero;display:inline;overflow:visible;visibility:visible;isolation:auto;mix-blend-mode:normal;color-interpolation:sRGB;color-interpolation-filters:linearRGB;solid-color:#000000;solid-opacity:1;vector-effect:none;fill:#494949;fill-opacity:1;fill-rule:nonzero;stroke:#cccccc;stroke-width:0.131206;stroke-linecap:round;stroke-linejoin:round;stroke-miterlimit:4;stroke-dasharray:none;stroke-dashoffset:0;stroke-opacity:1;paint-order:fill markers stroke;color-rendering:auto;image-rendering:auto;shape-rendering:auto;text-rendering:auto;enable-background:accumulate;stop-color:#000000"
           d="m 87.441415,63.345707 c -0.479645,0 -0.842077,0.419789 -0.842077,0.900936 v 0.646581 c 0,0.48114 0.362432,0.900927 0.842077,0.900927 h 0.123256 c 0.479635,0 0.843366,-0.419787 0.843366,-0.900927 v -0.646581 c 0,-0.481147 -0.363731,-0.900936 -0.843366,-0.900936 z m 0,0.454266 h 0.123256 c 0.196891,0 0.377563,0.180364 0.377563,0.44667 v 0.646581 c 0,0.266306 -0.180672,0.44793 -0.377563,0.44793 h -0.123256 c -0.1969,0 -0.377579,-0.181624 -0.377579,-0.44793 v -0.646581 c 0,-0.266306 0.180679,-0.44667 0.377579,-0.44667 z"
           id="path99231" />
        <g
           id="g99237"
           style="opacity:1">
          <path
             style="color:#000000;font-style:normal;font-variant:normal;font-weight:normal;font-stretch:normal;font-size:medium;line-height:normal;font-family:sans-serif;font-variant-ligatures:normal;font-variant-position:normal;font-variant-caps:normal;font-variant-numeric:normal;font-variant-alternates:normal;font-variant-east-asian:normal;font-feature-settings:normal;font-variation-settings:normal;text-indent:0;text-align:start;text-decoration:none;text-decoration-line:none;text-decoration-style:solid;text-decoration-color:#000000;letter-spacing:normal;word-spacing:normal;text-transform:none;writing-mode:lr-tb;direction:ltr;text-orientation:mixed;dominant-baseline:auto;baseline-shift:baseline;text-anchor:start;white-space:normal;shape-padding:0;shape-margin:0;inline-size:0;clip-rule:nonzero;display:inline;overflow:visible;visibility:visible;isolation:auto;mix-blend-mode:normal;color-interpolation:sRGB;color-interpolation-filters:linearRGB;solid-color:#000000;solid-opacity:1;vector-effect:none;fill:#494949;fill-opacity:1;fill-rule:nonzero;stroke:none;stroke-width:0.131206;stroke-linecap:round;stroke-linejoin:round;stroke-miterlimit:4;stroke-dasharray:none;stroke-dashoffset:0;stroke-opacity:1;paint-order:fill markers stroke;color-rendering:auto;image-rendering:auto;shape-rendering:auto;text-rendering:auto;enable-background:accumulate;stop-color:#000000;stop-opacity:1"
             d="m 87.441415,63.345707 c -0.479645,0 -0.842077,0.419789 -0.842077,0.900936 v 0.646581 c 0,0.48114 0.362432,0.900927 0.842077,0.900927 h 0.123256 c 0.479635,0 0.843366,-0.419787 0.843366,-0.900927 v -0.646581 c 0,-0.481147 -0.363731,-0.900936 -0.843366,-0.900936 z m 0,0.454266 h 0.123256 c 0.196891,0 0.377563,0.180364 0.377563,0.44667 v 0.646581 c 0,0.266306 -0.180672,0.44793 -0.377563,0.44793 h -0.123256 c -0.1969,0 -0.377579,-0.181624 -0.377579,-0.44793 v -0.646581 c 0,-0.266306 0.180679,-0.44667 0.377579,-0.44667 z"
             id="path99233" />
          <path
             style="color:#000000;font-style:normal;font-variant:normal;font-weight:normal;font-stretch:normal;font-size:medium;line-height:normal;font-family:sans-serif;font-variant-ligatures:normal;font-variant-position:normal;font-variant-caps:normal;font-variant-numeric:normal;font-variant-alternates:normal;font-variant-east-asian:normal;font-feature-settings:normal;font-variation-settings:normal;text-indent:0;text-align:start;text-decoration:none;text-decoration-line:none;text-decoration-style:solid;text-decoration-color:#000000;letter-spacing:normal;word-spacing:normal;text-transform:none;writing-mode:lr-tb;direction:ltr;text-orientation:mixed;dominant-baseline:auto;baseline-shift:baseline;text-anchor:start;white-space:normal;shape-padding:0;shape-margin:0;inline-size:0;clip-rule:nonzero;display:inline;overflow:visible;visibility:visible;isolation:auto;mix-blend-mode:normal;color-interpolation:sRGB;color-interpolation-filters:linearRGB;solid-color:#000000;solid-opacity:1;vector-effect:none;fill:#cccccc;fill-opacity:1;fill-rule:nonzero;stroke:none;stroke-linecap:round;stroke-linejoin:round;stroke-miterlimit:4;stroke-dasharray:none;stroke-dashoffset:0;stroke-opacity:1;paint-order:fill markers stroke;color-rendering:auto;image-rendering:auto;shape-rendering:auto;text-rendering:auto;enable-background:accumulate;stop-color:#000000;stop-opacity:1"
             d="m 87.441406,63.279297 c -0.517922,0 -0.908203,0.452705 -0.908203,0.966797 v 0.646484 c 0,0.514085 0.390281,0.966797 0.908203,0.966797 h 0.123047 c 0.517913,0 0.910156,-0.452594 0.910156,-0.966797 v -0.646484 c 0,-0.51421 -0.392243,-0.966797 -0.910156,-0.966797 z m 0,0.132812 h 0.123047 c 0.441357,0 0.777344,0.3859 0.777344,0.833985 v 0.646484 c 0,0.448077 -0.335987,0.835938 -0.777344,0.835938 h -0.123047 c -0.441367,0 -0.777344,-0.387743 -0.777344,-0.835938 v -0.646484 c 0,-0.448203 0.335977,-0.833985 0.777344,-0.833985 z m 0,0.322266 c -0.236962,0 -0.443359,0.21574 -0.443359,0.511719 v 0.646484 c 0,0.295979 0.206117,0.513672 0.443359,0.513672 h 0.123047 c 0.237235,0 0.443359,-0.217694 0.443359,-0.513672 v -0.646484 c 0,-0.295978 -0.206404,-0.511719 -0.443359,-0.511719 z m 0,0.130859 h 0.123047 c 0.156827,0 0.3125,0.144225 0.3125,0.38086 v 0.646484 c 0,0.236634 -0.155953,0.382813 -0.3125,0.382813 h -0.123047 c -0.156558,0 -0.3125,-0.14618 -0.3125,-0.382813 v -0.646484 c 0,-0.236633 0.155663,-0.38086 0.3125,-0.38086 z"
             id="path99235" />
        </g>
        <path
           style="fill:none;stroke:#cccccc;stroke-width:0.204994;stroke-linecap:round;stroke-linejoin:miter;stroke-miterlimit:4;stroke-dasharray:none;stroke-opacity:1"
           d="m 86.828127,63.869671 c 0.0033,-0.01617 0.199628,-0.250641 0.199628,-0.250641"
           id="path99239" />
      </g>
      <path
         style="fill:#dbb458;fill-opacity:1;stroke:none;stroke-width:0.193169;stroke-linecap:round;stroke-linejoin:round;stroke-miterlimit:4;stroke-dasharray:none;stroke-opacity:1;paint-order:stroke markers fill"
         d="m 57.402774,48.722973 c -0.220628,0 -0.398357,0.177726 -0.398357,0.398355 v 0.986124 h 2.373338 v -0.986124 c 0,-0.220629 -0.177286,-0.398355 -0.397914,-0.398355 z"
         id="path99243" />
      <path
         style="fill:#c48319;fill-opacity:1;stroke:none;stroke-width:0.193169;stroke-linecap:round;stroke-linejoin:round;stroke-miterlimit:4;stroke-dasharray:none;stroke-opacity:1;paint-order:stroke markers fill"
         d="m 58.919621,48.723005 v 1.384447 h 0.458134 v -0.986188 c 0,-0.220627 -0.177247,-0.398259 -0.397875,-0.398259 z"
         id="path99245" />
      <path
         style="fill:#e6ca74;fill-opacity:1;stroke:none;stroke-width:0.193169;stroke-linecap:round;stroke-linejoin:round;stroke-miterlimit:4;stroke-dasharray:none;stroke-opacity:1;paint-order:stroke markers fill"
         d="m 57.402773,48.722973 c -0.220629,0 -0.398647,0.177632 -0.398647,0.398259 v 0.986188 h 0.45852 v -1.384447 z"
         id="path99247" />
    </g>
  </g>
</svg>
