<?xml version="1.0" encoding="UTF-8" standalone="no"?>
<!-- Created with Inkscape (http://www.inkscape.org/) -->

<svg
   xmlns:dc="http://purl.org/dc/elements/1.1/"
   xmlns:cc="http://creativecommons.org/ns#"
   xmlns:rdf="http://www.w3.org/1999/02/22-rdf-syntax-ns#"
   xmlns:svg="http://www.w3.org/2000/svg"
   xmlns="http://www.w3.org/2000/svg"
   xmlns:sodipodi="http://sodipodi.sourceforge.net/DTD/sodipodi-0.dtd"
   xmlns:inkscape="http://www.inkscape.org/namespaces/inkscape"
   width="16"
   height="16"
   viewBox="0 0 4.2333333 4.2333335"
   version="1.1"
   id="svg8"
   inkscape:version="0.92.2 (5c3e80d, 2017-08-06)"
   sodipodi:docname="gimp-tool-shadows-highlights.svg"
   inkscape:export-filename="/home/alex/soft/graphics/gimp/gimp-2018-01-05/icons/Symbolic/16/gimp-tool-shadows-highlights.png"
   inkscape:export-xdpi="96"
   inkscape:export-ydpi="96">
  <defs
     id="defs2" />
  <sodipodi:namedview
     id="base"
     pagecolor="#ffffff"
     bordercolor="#666666"
     borderopacity="1.0"
     inkscape:pageopacity="0.0"
     inkscape:pageshadow="2"
     inkscape:zoom="22.627417"
     inkscape:cx="7.3768245"
     inkscape:cy="11.329369"
     inkscape:document-units="px"
     inkscape:current-layer="layer1"
     inkscape:document-rotation="0"
     showgrid="true"
     units="px"
     inkscape:window-width="1920"
     inkscape:window-height="1136"
     inkscape:window-x="0"
     inkscape:window-y="27"
     inkscape:window-maximized="1"
     inkscape:snap-page="true"
     inkscape:snap-global="true"
     inkscape:object-paths="true"
     inkscape:snap-intersection-paths="true"
     inkscape:snap-bbox="true"
     inkscape:bbox-paths="true"
     inkscape:bbox-nodes="true"
     inkscape:snap-bbox-edge-midpoints="true"
     inkscape:snap-bbox-midpoints="true"
     inkscape:snap-smooth-nodes="true"
     inkscape:snap-midpoints="true"
     inkscape:snap-object-midpoints="true"
     inkscape:snap-center="true"
     inkscape:snap-text-baseline="true"
     inkscape:snap-grids="true">
    <inkscape:grid
       type="xygrid"
       id="grid2087" />
  </sodipodi:namedview>
  <metadata
     id="metadata5">
    <rdf:RDF>
      <cc:Work
         rdf:about="">
        <dc:format>image/svg+xml</dc:format>
        <dc:type
           rdf:resource="http://purl.org/dc/dcmitype/StillImage" />
        <dc:title />
      </cc:Work>
    </rdf:RDF>
  </metadata>
  <g
     inkscape:label="Layer 1"
     inkscape:groupmode="layer"
     id="layer1"
     transform="translate(0,-292.76666)">
    <path
       inkscape:connector-curvature="0"
       style="color:#000000;overflow:visible;opacity:1;fill:#bebebe;fill-opacity:1;fill-rule:evenodd;stroke:none;stroke-width:0.26458335;stroke-linecap:round;stroke-linejoin:miter;stroke-opacity:1;paint-order:normal"
       d="m 2.1166667,293.03123 a 1.8520833,1.8520833 0 0 0 -1.85208338,1.85208 1.8520833,1.8520833 0 0 0 1.85208338,1.85209 1.8520833,1.8520833 0 0 0 1.8520833,-1.85209 1.8520833,1.8520833 0 0 0 -1.8520833,-1.85208 z m 0,0.26458 a 1.5875,1.5875 0 0 1 1.5875,1.5875 1.5875,1.5875 0 0 1 -1.5875,1.5875 1.5875,1.5875 0 0 1 -0.5291667,-0.093 v -0.30593 c 0,-0.0899 0.07643,-0.13022 0.1281575,-0.13022 H 2.1166667 2.38125 c 0.1465722,0 0.2645833,-0.11801 0.2645833,-0.26459 0,-0.14657 -0.1180111,-0.26458 -0.2645833,-0.26458 H 2.2505086 1.7637166 1.7197917 c -0.073358,0 -0.1322917,-0.0589 -0.1322917,-0.13229 0,-0.0734 0.058934,-0.13229 0.1322917,-0.13229 h 0.043925 0.486792 0.1307414 c 0.1465788,0 0.2645833,-0.11801 0.2645833,-0.26459 0,-0.14658 -0.1180045,-0.26458 -0.2645833,-0.26458 H 1.7637166 1.7197917 c -0.07329,0 -0.1322917,-0.059 -0.1322917,-0.13229 0,-0.0733 0.059002,-0.13229 0.1322917,-0.13229 h 0.043925 0.6185669 c 0.1465784,0 0.2645833,-0.11801 0.2645833,-0.26459 0,-0.14658 -0.1180049,-0.26458 -0.2645833,-0.26458 H 1.8520833 c -0.1612402,0 -0.2645833,-0.13022 -0.2645833,-0.26458 v -0.17209 a 1.5875,1.5875 0 0 1 0.5291667,-0.0925 z"
       id="path2932" />
  </g>
</svg>
