<?xml version="1.0" encoding="UTF-8" standalone="no"?>
<svg
   xmlns:osb="http://www.openswatchbook.org/uri/2009/osb"
   xmlns:dc="http://purl.org/dc/elements/1.1/"
   xmlns:cc="http://creativecommons.org/ns#"
   xmlns:rdf="http://www.w3.org/1999/02/22-rdf-syntax-ns#"
   xmlns:svg="http://www.w3.org/2000/svg"
   xmlns="http://www.w3.org/2000/svg"
   xmlns:xlink="http://www.w3.org/1999/xlink"
   xmlns:sodipodi="http://sodipodi.sourceforge.net/DTD/sodipodi-0.dtd"
   xmlns:inkscape="http://www.inkscape.org/namespaces/inkscape"
   viewBox="0 0 15.999999 16"
   id="svg7384"
   height="16"
   width="16"
   version="1.1"
   inkscape:version="0.91 r13725"
   sodipodi:docname="gimp-prefs-new-image.svg">
  <sodipodi:namedview
     pagecolor="#ffffff"
     bordercolor="#666666"
     borderopacity="1"
     objecttolerance="10"
     gridtolerance="10"
     guidetolerance="10"
     inkscape:pageopacity="0"
     inkscape:pageshadow="2"
     inkscape:window-width="501"
     inkscape:window-height="405"
     id="namedview1509"
     showgrid="false"
     inkscape:zoom="14.75"
     inkscape:cx="-687.8189"
     inkscape:cy="-58.9423"
     inkscape:window-x="0"
     inkscape:window-y="27"
     inkscape:window-maximized="0"
     inkscape:current-layer="svg7384" />
  <metadata
     id="metadata90">
    <rdf:RDF>
      <cc:Work
         rdf:about="">
        <dc:format>image/svg+xml</dc:format>
        <dc:type
           rdf:resource="http://purl.org/dc/dcmitype/StillImage" />
        <dc:title />
        <dc:contributor>
          <cc:Agent>
            <dc:title>Barbara Muraus, Jakub Steiner, Klaus Staedtler</dc:title>
          </cc:Agent>
        </dc:contributor>
        <dc:description>Images originally created as the &quot;Art Libre&quot; icon set. Extended and adopted for GIMP</dc:description>
      </cc:Work>
    </rdf:RDF>
  </metadata>
  <defs
     id="defs7386">
    <linearGradient
       osb:paint="solid"
       id="linearGradient8074">
      <stop
         id="stop8072"
         offset="0"
         style="stop-color:#be00be;stop-opacity:1;" />
    </linearGradient>
    <linearGradient
       osb:paint="solid"
       id="linearGradient7561">
      <stop
         id="stop7558"
         offset="0"
         style="stop-color:#a5a5a5;stop-opacity:1;" />
    </linearGradient>
    <linearGradient
       osb:paint="solid"
       id="linearGradient7548">
      <stop
         id="stop7546"
         offset="0"
         style="stop-color:#ebebeb;stop-opacity:1;" />
    </linearGradient>
    <linearGradient
       osb:paint="solid"
       id="linearGradient7542">
      <stop
         id="stop7538"
         offset="0"
         style="stop-color:#c9c9c9;stop-opacity:1;" />
    </linearGradient>
    <linearGradient
       gradientTransform="matrix(0,-735328.32,170712.69,0,2464326300,577972450)"
       osb:paint="solid"
       id="linearGradient19282">
      <stop
         id="stop19284"
         offset="0"
         style="stop-color:#b4b4b4;stop-opacity:1;" />
    </linearGradient>
    <linearGradient
       gradientTransform="matrix(0.34682586,0,0,0.30620888,-39.35207,761.03851)"
       osb:paint="solid"
       id="linearGradient19282-4">
      <stop
         id="stop19284-0"
         offset="0"
         style="stop-color:#bebebe;stop-opacity:1;" />
    </linearGradient>
    <linearGradient
       gradientTransform="translate(810.8189,355.96911)"
       gradientUnits="userSpaceOnUse"
       y2="7.5"
       x2="127"
       y1="7.5"
       x1="117"
       id="linearGradient7458"
       xlink:href="#linearGradient19282-4" />
    <linearGradient
       gradientTransform="translate(810.8189,355.96911)"
       gradientUnits="userSpaceOnUse"
       y2="3.5441902"
       x2="130.98772"
       y1="3.5441902"
       x1="124"
       id="linearGradient7460"
       xlink:href="#linearGradient19282-4" />
    <linearGradient
       gradientTransform="translate(810.8189,355.96911)"
       gradientUnits="userSpaceOnUse"
       y2="8.9935856"
       x2="129"
       y1="8.9935856"
       x1="115"
       id="linearGradient7462"
       xlink:href="#linearGradient19282-4" />
  </defs>
  <g
     transform="translate(-197.49829,-197.96911)"
     style="display:inline"
     id="preferences">
    <g
       transform="translate(82.498287,197.96911)"
       id="gimp-prefs-new-image">
      <path
         style="fill:url(#linearGradient7462);fill-opacity:1;stroke:none"
         d="m 115,2 0,14 14,0 0,-8.34375 C 128.64135,7.4295251 128.28079,7.1959179 128,7.0625 l 0,4.9375 -12,0 0,-9 6.75,0 c -0.40406,-0.3742462 -0.68299,-0.7195239 -0.59375,-1 0.009,-0.028863 0,0 0,0 z"
         id="rect5882-6"
         inkscape:connector-curvature="0" />
      <path
         style="opacity:0.3;fill:url(#linearGradient7458);fill-opacity:1;stroke:none"
         d="m 117,4 0,7 1,0 c 0,-0.75515 0.67157,-1.375 1.5,-1.375 0.82843,0 1.5,0.61985 1.5,1.375 l 1,0 0,-1.5 c 1.4e-4,-0.98573 -0.7274,-1.47402 -2,-2.0625 0,0 0.0295,3.7e-4 0.25,0 0.40803,0.0835 1.38212,0.3501 1.75,0.59375 C 121.90181,7.67571 121.85899,7.13772 121.5625,6.6875 121.26599,6.23732 120,5.34375 120,5.34375 l 0.0625,-0.03125 c 0.0557,-0.0402 0.9453,0.7655 1.25,0.6875 -0.13515,-0.32497 -0.25949,-0.63468 -0.40625,-0.8125 l 0.1875,-0.03125 c 0.35629,0.59147 0.46684,0.72309 0.84375,1.15625 C 122.06222,6.3696 121.9064,6.2702 123,5.71875 L 123,6 c 0,0 -1.0625,0.30993 -0.75,0.90625 0.22248,0.30573 0.39823,1.01025 0.75,1.09375 0,0 0.48673,-0.4867637 1,-1 0.375,-1.8125 0,0 0.375,-2 l -0.78125,-1 z m 10,3.09375 c -0.79822,0.3856455 -2.01719,1.3328183 -2.78125,1.5625 C 124.14774,8.7666914 124.05432,8.8660032 124,9 l 0,2 3,0 z"
         id="rect10683-6"
         inkscape:connector-curvature="0" />
      <path
         style="color:#000000;display:inline;overflow:visible;visibility:visible;fill:url(#linearGradient7460);fill-opacity:1;fill-rule:nonzero;stroke:none;stroke-width:2;marker:none;enable-background:accumulate"
         d="M 130.00175,7 C 129.59856,7.30064 128.01178,5.8764 127.51481,5.87427 127.01763,5.87227 125.40108,7.30398 125,7 c -0.40093,-0.30387 0.74435,-2.04513 0.59271,-2.53484 -0.15168,-0.48991 -1.73746,-1.32666 -1.582,-1.81529 0.15541,-0.48846 1.95505,-0.31906 2.35832,-0.6196 0.40342,-0.30066 0.63836,-1.98624 1.13554,-1.98425 0.49697,0.002 0.76103,1.68027 1.16188,1.98425 0.40101,0.30409 2.15927,0.1595 2.31108,0.64934 0.15174,0.48967 -1.44059,1.3123 -1.59612,1.80072 -0.15559,0.48859 1.02369,2.2189 0.62034,2.51967 z"
         id="path12190"
         inkscape:connector-curvature="0" />
    </g>
  </g>
</svg>
