<?xml version="1.0" encoding="UTF-8" standalone="no"?>
<svg
   xmlns:dc="http://purl.org/dc/elements/1.1/"
   xmlns:cc="http://creativecommons.org/ns#"
   xmlns:rdf="http://www.w3.org/1999/02/22-rdf-syntax-ns#"
   xmlns:svg="http://www.w3.org/2000/svg"
   xmlns="http://www.w3.org/2000/svg"
   xmlns:sodipodi="http://sodipodi.sourceforge.net/DTD/sodipodi-0.dtd"
   xmlns:inkscape="http://www.inkscape.org/namespaces/inkscape"
   width="16"
   height="16"
   viewBox="0 0 4.2333332 4.2333335"
   version="1.1"
   id="svg8"
   inkscape:version="1.0.2 (e86c870879, 2021-01-15)"
   sodipodi:docname="visible lock.svg">
  <defs
     id="defs2" />
  <sodipodi:namedview
     id="base"
     pagecolor="#ffffff"
     bordercolor="#666666"
     borderopacity="1.0"
     inkscape:pageopacity="0.0"
     inkscape:pageshadow="2"
     inkscape:zoom="20.54966"
     inkscape:cx="-0.90187181"
     inkscape:cy="4.0274659"
     inkscape:document-units="px"
     inkscape:current-layer="layer4"
     showgrid="false"
     units="in"
     showborder="true"
     inkscape:window-width="1920"
     inkscape:window-height="1136"
     inkscape:window-x="0"
     inkscape:window-y="27"
     inkscape:window-maximized="1"
     inkscape:document-rotation="0">
    <inkscape:grid
       type="xygrid"
       id="grid815"
       empspacing="4" />
  </sodipodi:namedview>
  <metadata
     id="metadata5">
    <rdf:RDF>
      <cc:Work
         rdf:about="">
        <dc:format>image/svg+xml</dc:format>
        <dc:type
           rdf:resource="http://purl.org/dc/dcmitype/StillImage" />
        <dc:title></dc:title>
      </cc:Work>
    </rdf:RDF>
  </metadata>
  <g
     inkscape:groupmode="layer"
     id="layer4"
     inkscape:label="Layer 1"
     style="display:inline">
    <path
       id="path817-3-9"
       style="color:#000000;font-style:normal;font-variant:normal;font-weight:normal;font-stretch:normal;font-size:medium;line-height:normal;font-family:sans-serif;font-variant-ligatures:normal;font-variant-position:normal;font-variant-caps:normal;font-variant-numeric:normal;font-variant-alternates:normal;font-feature-settings:normal;text-indent:0;text-align:start;text-decoration:none;text-decoration-line:none;text-decoration-style:solid;text-decoration-color:#000000;letter-spacing:normal;word-spacing:normal;text-transform:none;writing-mode:lr-tb;direction:ltr;text-orientation:mixed;dominant-baseline:auto;baseline-shift:baseline;text-anchor:start;white-space:normal;shape-padding:0;clip-rule:nonzero;display:inline;overflow:visible;visibility:visible;isolation:auto;mix-blend-mode:normal;color-interpolation:sRGB;color-interpolation-filters:linearRGB;solid-color:#000000;solid-opacity:1;vector-effect:none;fill:#bebebe;fill-opacity:1;fill-rule:nonzero;stroke:none;stroke-width:1.22914;stroke-linecap:round;stroke-linejoin:miter;stroke-miterlimit:4;stroke-dasharray:none;stroke-dashoffset:0;stroke-opacity:1;color-rendering:auto;image-rendering:auto;shape-rendering:auto;text-rendering:auto;enable-background:accumulate"
       d="m 8.0019531,3.4394531 c -1.675587,0 -3.3175114,0.6545384 -4.7753906,1.875 -0.055774,0.046662 -0.1147037,0.082508 -0.1699219,0.1308594 l -0.00195,0.00195 C 2.7556698,5.7092398 2.46465,5.9957034 2.1835938,6.3066406 l -0.00195,0.00195 c -0.2810524,0.3110815 -0.5521925,0.6468998 -0.8125,1.0058593 l -0.00195,0.00195 C 1.1068843,7.6755143 0.85786569,8.0589414 0.62109375,8.4648438 l -0.001953,0.00195 c -0.31162993,0.5371177 0.0537915,1.2139417 0.67382815,1.2480469 0.2384983,0.2359407 0.482456,0.4623663 0.7363281,0.6718753 -0.00204,4.7e-4 -0.00382,0.0015 -0.00586,0.002 0.031778,0.02623 0.065632,0.04847 0.097656,0.07422 0.1784507,0.143599 0.3592641,0.281408 0.5449218,0.410156 0.034579,0.02396 0.070658,0.0449 0.1054688,0.06836 0.6580938,0.44356 1.3545333,0.799149 2.078125,1.058594 0.00907,0.0033 0.018273,0.0065 0.027344,0.0098 0.2411188,0.08561 0.484671,0.157455 0.7304688,0.222656 0.017575,0.0047 0.035148,0.0091 0.052734,0.01367 0.1820536,0.04716 0.3652746,0.08457 0.5488282,0.121094 v -1.486329 c 0,-0.06571 0.027213,-0.124025 0.037109,-0.1875 C 5.3053472,10.105879 4.6738945,9.0700631 4.6738281,7.8789062 4.6738372,7.714391 4.6976404,7.556554 4.7207031,7.3984375 4.0857999,7.9320524 3.4782491,8.6426502 2.9160156,9.5371094 2.6956579,9.3600238 2.4818775,9.1705165 2.2734375,8.9707031 3.9305738,6.3168965 6.0029459,5.1015625 8.0019531,5.1015625 c 0.4246235,0 0.8527357,0.065921 1.2792969,0.1777344 0.3296002,-0.151708 0.6929189,-0.2382813 1.076172,-0.2382813 h 1.453125 c 0.279311,0 0.543799,0.057503 0.796875,0.140625 C 11.192096,4.0498646 9.6132712,3.4394531 8.0019531,3.4394531 Z M 7.1289062,6.1875 C 6.7572804,6.2618924 6.3852488,6.3786229 6.015625,6.5527344 5.8446278,6.7539678 5.7502466,7.0093729 5.7480469,7.2734375 c -0.00533,0.6196517 0.4897657,1.1277201 1.109375,1.1367187 0.3194298,0.00447 0.6052714,-0.1261498 0.8125,-0.3300781 V 7.8320312 c 0,-0.3585674 0.071254,-0.7017728 0.1933593,-1.0195312 C 7.7179374,6.5034882 7.4618506,6.2653303 7.1289062,6.1875 Z m 7.2187498,0.7714844 c 0.08988,0.2772577 0.150391,0.5676488 0.150391,0.8730468 v 1.7871094 h 0.228515 c 0.09058,0 0.179047,0.010001 0.263672,0.029297 0.2613,-0.1115011 0.447627,-0.3486445 0.494141,-0.6289063 0.01465,-0.089246 0.01465,-0.1802849 0,-0.2695312 -8.38e-4,-0.00518 -9.53e-4,-0.010447 -0.002,-0.015625 -0.01696,-0.092 -0.04931,-0.1804812 -0.0957,-0.2617188 -6.44e-4,-0.00196 -0.0013,-0.00391 -0.002,-0.00586 l -0.002,-0.00195 C 15.145905,8.0589443 14.896885,7.675516 14.636582,7.3164087 l -0.002,-0.00195 C 14.542777,7.1876022 14.44231,7.0799852 14.347656,6.9589844 Z"
       transform="scale(0.26458333)"
       sodipodi:nodetypes="sccccccccccccccccccccscccccscsscscccccscccscscccccccccc" />
    <g
       id="g5000" />
    <path
       style="color:#bebebe;font-style:normal;font-variant:normal;font-weight:normal;font-stretch:normal;font-size:medium;line-height:normal;font-family:sans-serif;font-variant-ligatures:normal;font-variant-position:normal;font-variant-caps:normal;font-variant-numeric:normal;font-variant-alternates:normal;font-variant-east-asian:normal;font-feature-settings:normal;font-variation-settings:normal;text-indent:0;text-align:start;text-decoration:none;text-decoration-line:none;text-decoration-style:solid;text-decoration-color:#000000;letter-spacing:normal;word-spacing:normal;text-transform:none;writing-mode:lr-tb;direction:ltr;text-orientation:mixed;dominant-baseline:auto;baseline-shift:baseline;text-anchor:start;white-space:normal;shape-padding:0;shape-margin:0;inline-size:0;clip-rule:nonzero;display:inline;overflow:visible;visibility:visible;isolation:auto;mix-blend-mode:normal;color-interpolation:sRGB;color-interpolation-filters:linearRGB;solid-color:#000000;solid-opacity:1;vector-effect:none;fill:#bebebe;fill-opacity:1;fill-rule:nonzero;stroke:none;stroke-width:0.264583;stroke-linecap:butt;stroke-linejoin:miter;stroke-miterlimit:4;stroke-dasharray:none;stroke-dashoffset:0;stroke-opacity:1;marker:none;color-rendering:auto;image-rendering:auto;shape-rendering:auto;text-rendering:auto;enable-background:accumulate;stop-color:#000000"
       d="m 2.7395615,1.4670737 c -0.3172031,0 -0.5784854,0.2734048 -0.5784854,0.6053233 v 0.6053233 h -0.192826 c -0.1068276,0 -0.192826,0.08999 -0.192826,0.201775 V 3.4848186 4.0901419 H 4.0893655 V 3.2830436 2.8794953 c 0,-0.1117852 -0.086006,-0.201775 -0.1928333,-0.201775 H 3.7037062 V 2.072397 c 0,-0.3319185 -0.2612823,-0.6053233 -0.5784854,-0.6053233 z m 0,0.4035492 h 0.3856593 c 0.1101072,0 0.192826,0.086561 0.192826,0.2017741 V 2.6777203 H 2.5467355 V 2.072397 c 0,-0.1152131 0.082726,-0.2017741 0.192826,-0.2017741 z"
       id="path81949" />
    <path
       style="color:#bebebe;font-style:normal;font-variant:normal;font-weight:normal;font-stretch:normal;font-size:medium;line-height:normal;font-family:sans-serif;font-variant-ligatures:normal;font-variant-position:normal;font-variant-caps:normal;font-variant-numeric:normal;font-variant-alternates:normal;font-variant-east-asian:normal;font-feature-settings:normal;font-variation-settings:normal;text-indent:0;text-align:start;text-decoration:none;text-decoration-line:none;text-decoration-style:solid;text-decoration-color:#000000;letter-spacing:normal;word-spacing:normal;text-transform:none;writing-mode:lr-tb;direction:ltr;text-orientation:mixed;dominant-baseline:auto;baseline-shift:baseline;text-anchor:start;white-space:normal;shape-padding:0;shape-margin:0;inline-size:0;clip-rule:nonzero;display:inline;overflow:visible;visibility:visible;isolation:auto;mix-blend-mode:normal;color-interpolation:sRGB;color-interpolation-filters:linearRGB;solid-color:#000000;solid-opacity:1;vector-effect:none;fill:#bebebe;fill-opacity:1;fill-rule:nonzero;stroke:none;stroke-width:0.223654;stroke-linecap:butt;stroke-linejoin:miter;stroke-miterlimit:4;stroke-dasharray:none;stroke-dashoffset:0;stroke-opacity:1;marker:none;color-rendering:auto;image-rendering:auto;shape-rendering:auto;text-rendering:auto;enable-background:accumulate;stop-color:#000000"
       d="m 2.7395615,1.4670737 c -0.3172031,0 -0.5784854,0.2734048 -0.5784854,0.6053233 v 0.6053233 h -0.192826 c -0.1068276,0 -0.192826,0.08999 -0.192826,0.201775 V 3.4848186 4.0901419 H 4.0893655 V 3.2830436 2.8794953 c 0,-0.1117852 -0.086006,-0.201775 -0.1928333,-0.201775 H 3.7037062 V 2.072397 c 0,-0.3319185 -0.2612823,-0.6053233 -0.5784854,-0.6053233 z m 0,0.4035492 h 0.3856593 c 0.1101072,0 0.192826,0.086561 0.192826,0.2017741 V 2.6777203 H 2.5467355 V 2.072397 c 0,-0.1152131 0.082726,-0.2017741 0.192826,-0.2017741 z"
       id="path1134" />
  </g>
</svg>
