<?xml version="1.0" encoding="UTF-8" standalone="no"?>
<!-- Created with Inkscape (http://www.inkscape.org/) -->

<svg
   xmlns:dc="http://purl.org/dc/elements/1.1/"
   xmlns:cc="http://creativecommons.org/ns#"
   xmlns:rdf="http://www.w3.org/1999/02/22-rdf-syntax-ns#"
   xmlns:svg="http://www.w3.org/2000/svg"
   xmlns="http://www.w3.org/2000/svg"
   xmlns:sodipodi="http://sodipodi.sourceforge.net/DTD/sodipodi-0.dtd"
   xmlns:inkscape="http://www.inkscape.org/namespaces/inkscape"
   width="16"
   height="16"
   id="svg11300"
   sodipodi:version="0.32"
   inkscape:version="0.92pre1 unknown"
   sodipodi:docname="gimp-prefs-color-management.svg"
   inkscape:output_extension="org.inkscape.output.svg.inkscape"
   version="1.0"
   style="display:inline;enable-background:new"
   viewBox="0 0 16 16">
  <sodipodi:namedview
     stroke="#ef2929"
     fill="#f57900"
     id="base"
     pagecolor="#ffffff"
     bordercolor="#666666"
     borderopacity="0.25490196"
     inkscape:pageopacity="0.0"
     inkscape:pageshadow="2"
     inkscape:zoom="8"
     inkscape:cx="-41.033888"
     inkscape:cy="29.6875"
     inkscape:current-layer="svg11300"
     showgrid="false"
     inkscape:grid-bbox="true"
     inkscape:document-units="px"
     inkscape:showpageshadow="false"
     inkscape:window-width="1680"
     inkscape:window-height="977"
     inkscape:window-x="0"
     inkscape:window-y="25"
     width="400px"
     height="300px"
     inkscape:snap-nodes="false"
     inkscape:snap-bbox="true"
     objecttolerance="7"
     gridtolerance="12"
     guidetolerance="13"
     showguides="true"
     inkscape:guide-bbox="true"
     inkscape:snap-page="true"
     inkscape:object-nodes="false"
     inkscape:window-maximized="1">
    <inkscape:grid
       type="xygrid"
       id="grid5883"
       spacingx="1px"
       spacingy="1px"
       enabled="true"
       visible="true"
       empspacing="4"
       snapvisiblegridlinesonly="true" />
  </sodipodi:namedview>
  <defs
     id="defs3">
    <clipPath
       clipPathUnits="userSpaceOnUse"
       id="clipPath4169">
      <path
         sodipodi:nodetypes="csssc"
         id="path4171"
         d="m 471.43078,685.92888 c 0,22.09674 -12.84202,40.00973 -12.84202,40.00973 0,0 -12.84203,-17.91299 -12.84203,-40.00973 0,-22.09678 12.84203,-40.00974 12.84203,-40.00974 0,0 12.84202,17.91296 12.84202,40.00974 z"
         style="color:#000000;display:inline;overflow:visible;visibility:visible;fill:#edd400;fill-opacity:1;fill-rule:evenodd;stroke:none;stroke-width:12;marker:none;enable-background:new"
         inkscape:connector-curvature="0" />
    </clipPath>
    <filter
       inkscape:collect="always"
       id="filter4173"
       x="-0.2469319"
       width="1.4938638"
       y="-0.079258353"
       height="1.1585166"
       style="color-interpolation-filters:sRGB">
      <feGaussianBlur
         inkscape:collect="always"
         stdDeviation="2.642588"
         id="feGaussianBlur4175" />
    </filter>
    <clipPath
       clipPathUnits="userSpaceOnUse"
       id="clipPath4145">
      <path
         style="color:#000000;display:inline;overflow:visible;visibility:visible;fill:#3465a4;fill-opacity:1;fill-rule:evenodd;stroke:none;stroke-width:12;marker:none;enable-background:new"
         d="m 401.43078,865.80173 c 0,22.09677 -12.84202,40.00973 -12.84202,40.00973 0,0 -12.84203,-17.91296 -12.84203,-40.00973 0,-22.09675 12.84203,-40.00974 12.84203,-40.00974 0,0 12.84202,17.91299 12.84202,40.00974 z"
         id="path4147"
         sodipodi:nodetypes="csssc"
         inkscape:connector-curvature="0" />
    </clipPath>
    <filter
       inkscape:collect="always"
       id="filter4149"
       x="-0.2469319"
       width="1.4938638"
       y="-0.079258353"
       height="1.1585166"
       style="color-interpolation-filters:sRGB">
      <feGaussianBlur
         inkscape:collect="always"
         stdDeviation="2.642588"
         id="feGaussianBlur4151" />
    </filter>
    <clipPath
       clipPathUnits="userSpaceOnUse"
       id="clipPath4181">
      <path
         sodipodi:nodetypes="csssc"
         id="path4183"
         d="m 348.71074,698.72614 c -22.06442,0 -39.95118,-12.86084 -39.95118,-12.86084 0,0 17.88676,-12.86084 39.95118,-12.86084 22.06446,0 39.95119,12.86084 39.95119,12.86084 0,0 -17.88673,12.86084 -39.95119,12.86084 z"
         style="color:#000000;display:inline;overflow:visible;visibility:visible;fill:#ef2929;fill-opacity:1;fill-rule:evenodd;stroke:none;stroke-width:12;marker:none;enable-background:new"
         inkscape:connector-curvature="0" />
    </clipPath>
    <filter
       inkscape:collect="always"
       id="filter4189"
       x="-0.079314828"
       width="1.1586297"
       y="-0.24638528"
       height="1.4927706"
       style="color-interpolation-filters:sRGB">
      <feGaussianBlur
         inkscape:collect="always"
         stdDeviation="2.6406013"
         id="feGaussianBlur4191" />
    </filter>
    <clipPath
       clipPathUnits="userSpaceOnUse"
       id="clipPath4197">
      <path
         style="color:#000000;display:inline;overflow:visible;visibility:visible;fill:#75507b;fill-opacity:1;fill-rule:evenodd;stroke:none;stroke-width:12;marker:none;enable-background:new"
         d="m 299.47143,763.19859 c -15.60192,15.62478 -37.33043,19.19718 -37.33043,19.19718 0,0 3.56716,-21.76037 19.16908,-37.38511 15.60192,-15.62479 37.33043,-19.19719 37.33043,-19.19719 0,0 -3.56717,21.76037 -19.16908,37.38512 z"
         id="path4199"
         sodipodi:nodetypes="csssc"
         inkscape:connector-curvature="0" />
    </clipPath>
    <filter
       inkscape:collect="always"
       id="filter4201"
       x="-0.12008792"
       width="1.2401758"
       y="-0.11991221"
       height="1.2398244"
       style="color-interpolation-filters:sRGB">
      <feGaussianBlur
         inkscape:collect="always"
         stdDeviation="2.8270453"
         id="feGaussianBlur4203" />
    </filter>
    <clipPath
       clipPathUnits="userSpaceOnUse"
       id="clipPath4133">
      <path
         style="color:#000000;display:inline;overflow:visible;visibility:visible;fill:#65c808;fill-opacity:1;fill-rule:evenodd;stroke:none;stroke-width:12;marker:none;enable-background:new"
         d="m 538.46677,738.72614 c -22.06443,0 -39.95119,-12.86084 -39.95119,-12.86084 0,0 17.88676,-12.86084 39.95119,-12.86084 22.06442,0 39.95119,12.86084 39.95119,12.86084 0,0 -17.88677,12.86084 -39.95119,12.86084 z"
         id="path4135"
         sodipodi:nodetypes="csssc"
         inkscape:connector-curvature="0" />
    </clipPath>
    <filter
       inkscape:collect="always"
       id="filter4137"
       x="-0.079314828"
       width="1.1586297"
       y="-0.24638529"
       height="1.4927706"
       style="color-interpolation-filters:sRGB">
      <feGaussianBlur
         inkscape:collect="always"
         stdDeviation="2.6406015"
         id="feGaussianBlur4139" />
    </filter>
    <clipPath
       clipPathUnits="userSpaceOnUse"
       id="clipPath4071">
      <path
         sodipodi:nodetypes="csssc"
         id="path4073"
         d="m 515.86743,706.71995 c -15.60192,15.62478 -37.33043,19.19718 -37.33043,19.19718 0,0 3.56717,-21.76037 19.16909,-37.38511 15.60192,-15.62478 37.33043,-19.19719 37.33043,-19.19719 0,0 -3.56717,21.76034 -19.16909,37.38512 z"
         style="color:#000000;display:inline;overflow:visible;visibility:visible;fill:#afea2c;fill-opacity:1;fill-rule:evenodd;stroke:none;stroke-width:12;marker:none;enable-background:new"
         inkscape:connector-curvature="0" />
    </clipPath>
    <filter
       inkscape:collect="always"
       id="filter4075"
       x="-0.12008791"
       width="1.2401758"
       y="-0.11991222"
       height="1.2398244"
       style="color-interpolation-filters:sRGB">
      <feGaussianBlur
         inkscape:collect="always"
         stdDeviation="2.8270455"
         id="feGaussianBlur4077" />
    </filter>
    <clipPath
       clipPathUnits="userSpaceOnUse"
       id="clipPath4083">
      <path
         sodipodi:nodetypes="csssc"
         id="path4085"
         d="m 515.86743,745.01066 c 15.60192,15.62474 19.16909,37.38511 19.16909,37.38511 0,0 -21.72851,-3.5724 -37.33043,-19.19718 -15.60192,-15.62475 -19.16909,-37.38512 -19.16909,-37.38512 0,0 21.72851,3.5724 37.33043,19.19719 z"
         style="color:#000000;display:inline;overflow:visible;visibility:visible;fill:#729fcf;fill-opacity:1;fill-rule:evenodd;stroke:none;stroke-width:12;marker:none;enable-background:new"
         inkscape:connector-curvature="0" />
    </clipPath>
    <filter
       inkscape:collect="always"
       id="filter4087"
       x="-0.12008791"
       width="1.2401758"
       y="-0.11991222"
       height="1.2398244"
       style="color-interpolation-filters:sRGB">
      <feGaussianBlur
         inkscape:collect="always"
         stdDeviation="2.8270455"
         id="feGaussianBlur4089" />
    </filter>
    <clipPath
       clipPathUnits="userSpaceOnUse"
       id="clipPath4157">
      <path
         style="color:#000000;display:inline;overflow:visible;visibility:visible;fill:#f57900;fill-opacity:1;fill-rule:evenodd;stroke:none;stroke-width:12;marker:none;enable-background:new"
         d="m 269.47143,688.53202 c 15.60191,15.62474 19.16908,37.38511 19.16908,37.38511 0,0 -21.72851,-3.5724 -37.33043,-19.19718 -15.60192,-15.62478 -19.16908,-37.38512 -19.16908,-37.38512 0,0 21.72851,3.57241 37.33043,19.19719 z"
         id="path4159"
         sodipodi:nodetypes="csssc"
         inkscape:connector-curvature="0" />
    </clipPath>
    <filter
       inkscape:collect="always"
       id="filter4161"
       x="-0.12008792"
       width="1.2401758"
       y="-0.11991221"
       height="1.2398244"
       style="color-interpolation-filters:sRGB">
      <feGaussianBlur
         inkscape:collect="always"
         stdDeviation="2.8270453"
         id="feGaussianBlur4163" />
    </filter>
  </defs>
  <metadata
     id="metadata4">
    <rdf:RDF>
      <cc:Work
         rdf:about="">
        <dc:format>image/svg+xml</dc:format>
        <dc:type
           rdf:resource="http://purl.org/dc/dcmitype/StillImage" />
        <dc:creator>
          <cc:Agent>
            <dc:title>Lapo Calamandrei</dc:title>
          </cc:Agent>
        </dc:creator>
        <dc:source />
        <cc:license
           rdf:resource="" />
        <dc:title />
        <dc:subject>
          <rdf:Bag>
            <rdf:li>keyboard</rdf:li>
            <rdf:li>keys</rdf:li>
            <rdf:li>configure</rdf:li>
          </rdf:Bag>
        </dc:subject>
        <dc:date />
        <dc:rights>
          <cc:Agent>
            <dc:title />
          </cc:Agent>
        </dc:rights>
        <dc:publisher>
          <cc:Agent>
            <dc:title />
          </cc:Agent>
        </dc:publisher>
        <dc:identifier />
        <dc:relation />
        <dc:language />
        <dc:coverage />
        <dc:description />
        <dc:contributor>
          <cc:Agent>
            <dc:title />
          </cc:Agent>
        </dc:contributor>
      </cc:Work>
    </rdf:RDF>
  </metadata>
  <g
     id="layer1"
     inkscape:label="gnome-color-manager"
     inkscape:groupmode="layer"
     style="display:inline"
     transform="translate(-30.407115,-261.7175)">
    <g
       inkscape:groupmode="layer"
       id="layer6"
       inkscape:label="baseplate"
       style="display:none">
      <rect
         inkscape:label="48x48"
         y="49.996326"
         x="296.0625"
         height="48"
         width="48"
         id="rect6284"
         style="display:inline;overflow:visible;visibility:visible;fill:#eeeeec;fill-opacity:1;fill-rule:nonzero;stroke:none;stroke-width:2;marker:none;enable-background:accumulate" />
      <rect
         style="display:inline;overflow:visible;visibility:visible;fill:#eeeeec;fill-opacity:1;fill-rule:nonzero;stroke:none;stroke-width:2;marker:none;enable-background:accumulate"
         id="rect6592"
         width="32"
         height="32"
         x="303"
         y="125.99633"
         inkscape:label="32x32" />
      <rect
         style="display:inline;overflow:visible;visibility:visible;fill:#ffffff;fill-opacity:1;fill-rule:nonzero;stroke:none;stroke-width:2;marker:none;enable-background:accumulate"
         id="rect8104"
         width="24"
         height="24"
         x="302"
         y="176"
         inkscape:label="24x24" />
      <rect
         inkscape:label="22x22"
         y="177.05884"
         x="303"
         height="22"
         width="22"
         id="rect6749"
         style="display:inline;overflow:visible;visibility:visible;fill:#eeeeec;fill-opacity:1;fill-rule:nonzero;stroke:none;stroke-width:2;marker:none;enable-background:accumulate" />
      <rect
         style="display:inline;overflow:visible;visibility:visible;fill:#eeeeec;fill-opacity:1;fill-rule:nonzero;stroke:none;stroke-width:2;marker:none;enable-background:accumulate"
         id="rect6833"
         width="16"
         height="16"
         x="303"
         y="219"
         inkscape:label="16x16" />
      <rect
         inkscape:label="256x256"
         y="31.996323"
         x="16.0625"
         height="256"
         width="256"
         id="rect3068"
         style="display:inline;overflow:visible;visibility:visible;fill:#eeeeec;fill-opacity:1;fill-rule:nonzero;stroke:none;stroke-width:2;marker:none;enable-background:accumulate" />
      <text
         xml:space="preserve"
         style="font-style:normal;font-weight:normal;font-size:18.30070686px;font-family:'Bitstream Vera Sans';display:inline;fill:#000000;fill-opacity:1;stroke:none;enable-background:new"
         x="20.970737"
         y="21.513618"
         id="context"
         inkscape:label="context"><tspan
           sodipodi:role="line"
           id="tspan2716"
           x="20.970737"
           y="21.513618">apps</tspan></text>
      <text
         inkscape:label="icon-name"
         id="text3021"
         y="21.513618"
         x="191.97073"
         style="font-style:normal;font-variant:normal;font-weight:bold;font-stretch:normal;font-size:18.30070686px;line-height:125%;font-family:'Droid Sans';-inkscape-font-specification:'Droid Sans Bold';text-align:start;writing-mode:lr-tb;text-anchor:start;display:inline;fill:#000000;fill-opacity:1;stroke:none;enable-background:new"
         xml:space="preserve"
         sodipodi:linespacing="125%"><tspan
           y="21.513618"
           x="191.97073"
           id="tspan3023"
           sodipodi:role="line">gnome-color-manager</tspan></text>
    </g>
    <g
       inkscape:groupmode="layer"
       id="layer8"
       inkscape:label="small sizes"
       style="display:inline" />
    <g
       inkscape:groupmode="layer"
       id="layer7"
       inkscape:label="hires"
       style="display:inline" />
  </g>
  <g
     id="g4017"
     transform="matrix(0.08057578,0,0,0.08044939,-3.1463169,-4.6344351)">
    <path
       style="color:#000000;display:inline;overflow:visible;visibility:visible;fill:#d5be00;fill-opacity:1;fill-rule:evenodd;stroke:none;stroke-width:12;marker:none;enable-background:new"
       d="m 154.30526,107.37313 c 0,27.48513 -15.97192,49.76628 -15.97192,49.76628 0,0 -15.97193,-22.28115 -15.97193,-49.76628 0,-27.485174 15.97193,-49.766288 15.97193,-49.766288 0,0 15.97192,22.281114 15.97192,49.766288 z"
       id="path3689"
       sodipodi:nodetypes="csssc"
       inkscape:connector-curvature="0" />
    <path
       transform="matrix(1.2437231,0,0,1.2438544,-432.02409,-745.82249)"
       clip-path="url(#clipPath4169)"
       sodipodi:nodetypes="csssc"
       id="path4165"
       d="m 471.43078,685.92888 c 0,22.09674 -12.84202,40.00973 -12.84202,40.00973 0,0 -12.84203,-17.91299 -12.84203,-40.00973 0,-22.09678 12.84203,-40.00974 12.84203,-40.00974 0,0 12.84202,17.91296 12.84202,40.00974 z"
       style="color:#000000;display:inline;overflow:visible;visibility:visible;fill:#edd400;fill-opacity:1;fill-rule:evenodd;stroke:none;stroke-width:12;marker:none;filter:url(#filter4173);enable-background:new"
       inkscape:connector-curvature="0" />
    <path
       sodipodi:nodetypes="csssc"
       id="path3691"
       d="m 154.30526,206.72332 c 0,27.48517 -15.97192,49.76628 -15.97192,49.76628 0,0 -15.97193,-22.28111 -15.97193,-49.76628 0,-27.48514 15.97193,-49.76629 15.97193,-49.76629 0,0 15.97192,22.28115 15.97192,49.76629 z"
       style="color:#000000;display:inline;overflow:visible;visibility:visible;fill:#23446e;fill-opacity:1;fill-rule:evenodd;stroke:none;stroke-width:12;marker:none;enable-background:new"
       inkscape:connector-curvature="0" />
    <path
       sodipodi:nodetypes="csssc"
       id="path3693"
       d="m 187.93055,173.04523 c -27.44205,0 -49.68822,-15.99701 -49.68822,-15.99701 0,0 22.24617,-15.99701 49.68822,-15.99701 27.44202,0 49.68821,15.99701 49.68821,15.99701 0,0 -22.24619,15.99701 -49.68821,15.99701 z"
       style="color:#000000;display:inline;overflow:visible;visibility:visible;fill:#56aa07;fill-opacity:1;fill-rule:evenodd;stroke:none;stroke-width:12;marker:none;enable-background:new"
       inkscape:connector-curvature="0" />
    <path
       style="color:#000000;display:inline;overflow:visible;visibility:visible;fill:#ca0f0f;fill-opacity:1;fill-rule:evenodd;stroke:none;stroke-width:12;marker:none;enable-background:new"
       d="m 88.736129,173.04523 c -27.442028,0 -49.688205,-15.99701 -49.688205,-15.99701 0,0 22.246177,-15.99701 49.688205,-15.99701 27.442081,0 49.688221,15.99701 49.688221,15.99701 0,0 -22.24614,15.99701 -49.688221,15.99701 z"
       id="path3695"
       sodipodi:nodetypes="csssc"
       inkscape:connector-curvature="0" />
    <path
       style="color:#000000;display:inline;overflow:visible;visibility:visible;fill:#85b912;fill-opacity:1;fill-rule:evenodd;stroke:none;stroke-width:12;marker:none;enable-background:new"
       d="m 184.69769,133.23419 c -19.40447,19.43496 -46.42872,23.8785 -46.42872,23.8785 0,0 4.43657,-27.06673 23.84104,-46.50163 19.40447,-19.434952 46.42872,-23.87851 46.42872,-23.87851 0,0 -4.43657,27.06669 -23.84104,46.50164 z"
       id="path3697"
       sodipodi:nodetypes="csssc"
       inkscape:connector-curvature="0" />
    <path
       transform="matrix(1.2437231,0,0,1.2438544,-344.96347,-870.20793)"
       clip-path="url(#clipPath4145)"
       style="color:#000000;display:inline;overflow:visible;visibility:visible;fill:#3465a4;fill-opacity:1;fill-rule:evenodd;stroke:none;stroke-width:12;marker:none;filter:url(#filter4149);enable-background:new"
       d="m 401.43078,865.80173 c 0,22.09677 -12.84202,40.00973 -12.84202,40.00973 0,0 -12.84203,-17.91296 -12.84203,-40.00973 0,-22.09675 12.84203,-40.00974 12.84203,-40.00974 0,0 12.84202,17.91299 12.84202,40.00974 z"
       id="path4141"
       sodipodi:nodetypes="csssc"
       inkscape:connector-curvature="0" />
    <path
       transform="matrix(1.2437231,0,0,1.2438544,-344.96347,-696.06832)"
       clip-path="url(#clipPath4181)"
       sodipodi:nodetypes="csssc"
       id="path4177"
       d="m 348.71074,698.72614 c -22.06442,0 -39.95118,-12.86084 -39.95118,-12.86084 0,0 17.88676,-12.86084 39.95118,-12.86084 22.06446,0 39.95119,12.86084 39.95119,12.86084 0,0 -17.88673,12.86084 -39.95119,12.86084 z"
       style="color:#000000;display:inline;overflow:visible;visibility:visible;fill:#ef2929;fill-opacity:1;fill-rule:evenodd;stroke:none;stroke-width:12;marker:none;filter:url(#filter4189);enable-background:new"
       inkscape:connector-curvature="0" />
    <path
       sodipodi:nodetypes="csssc"
       id="path3699"
       d="m 114.55668,203.4854 c -19.404469,19.43495 -46.428719,23.87849 -46.428719,23.87849 0,0 4.436559,-27.06673 23.841028,-46.50163 19.404471,-19.43496 46.428721,-23.87851 46.428721,-23.87851 0,0 -4.43658,27.06673 -23.84103,46.50165 z"
       style="color:#000000;display:inline;overflow:visible;visibility:visible;fill:#593d5e;fill-opacity:1;fill-rule:evenodd;stroke:none;stroke-width:12;marker:none;enable-background:new"
       inkscape:connector-curvature="0" />
    <path
       sodipodi:nodetypes="csssc"
       id="path3701"
       d="m 114.55668,110.61106 c 19.40445,19.4349 23.84103,46.50163 23.84103,46.50163 0,0 -27.02425,-4.44354 -46.428721,-23.8785 C 72.56452,113.79924 68.127961,86.73255 68.127961,86.73255 c 0,0 27.02425,4.443558 46.428719,23.87851 z"
       style="color:#000000;display:inline;overflow:visible;visibility:visible;fill:#c96300;fill-opacity:1;fill-rule:evenodd;stroke:none;stroke-width:12;marker:none;enable-background:new"
       inkscape:connector-curvature="0" />
    <path
       transform="matrix(1.2437231,0,0,1.2438544,-257.90286,-745.82249)"
       clip-path="url(#clipPath4197)"
       style="color:#000000;display:inline;overflow:visible;visibility:visible;fill:#75507b;fill-opacity:1;fill-rule:evenodd;stroke:none;stroke-width:12;marker:none;filter:url(#filter4201);enable-background:new"
       d="m 299.47143,763.19859 c -15.60192,15.62478 -37.33043,19.19718 -37.33043,19.19718 0,0 3.56716,-21.76037 19.16908,-37.38511 15.60192,-15.62479 37.33043,-19.19719 37.33043,-19.19719 0,0 -3.56717,21.76037 -19.16908,37.38512 z"
       id="path4193"
       sodipodi:nodetypes="csssc"
       inkscape:connector-curvature="0" />
    <path
       style="color:#000000;display:inline;overflow:visible;visibility:visible;fill:#3f7bba;fill-opacity:1;fill-rule:evenodd;stroke:none;stroke-width:12;marker:none;enable-background:new"
       d="m 184.69769,180.86226 c 19.40447,19.4349 23.84104,46.50163 23.84104,46.50163 0,0 -27.02425,-4.44354 -46.42872,-23.87849 -19.40447,-19.43492 -23.84104,-46.50165 -23.84104,-46.50165 0,0 27.02425,4.44355 46.42872,23.87851 z"
       id="path3703"
       sodipodi:nodetypes="csssc"
       inkscape:connector-curvature="0" />
    <path
       transform="matrix(1.2437231,0,0,1.2438544,-481.77301,-745.82249)"
       clip-path="url(#clipPath4133)"
       style="color:#000000;display:inline;overflow:visible;visibility:visible;fill:#65c808;fill-opacity:1;fill-rule:evenodd;stroke:none;stroke-width:12;marker:none;filter:url(#filter4137);enable-background:new"
       d="m 538.46677,738.72614 c -22.06443,0 -39.95119,-12.86084 -39.95119,-12.86084 0,0 17.88676,-12.86084 39.95119,-12.86084 22.06442,0 39.95119,12.86084 39.95119,12.86084 0,0 -17.88677,12.86084 -39.95119,12.86084 z"
       id="path4129"
       sodipodi:nodetypes="csssc"
       inkscape:connector-curvature="0" />
    <path
       transform="matrix(1.2437231,0,0,1.2438544,-456.89855,-745.82249)"
       clip-path="url(#clipPath4071)"
       sodipodi:nodetypes="csssc"
       id="path4067"
       d="m 515.86743,706.71995 c -15.60192,15.62478 -37.33043,19.19718 -37.33043,19.19718 0,0 3.56717,-21.76037 19.16909,-37.38511 15.60192,-15.62478 37.33043,-19.19719 37.33043,-19.19719 0,0 -3.56717,21.76034 -19.16909,37.38512 z"
       style="color:#000000;display:inline;overflow:visible;visibility:visible;fill:#afea2c;fill-opacity:1;fill-rule:evenodd;stroke:none;stroke-width:12;marker:none;filter:url(#filter4075);enable-background:new"
       inkscape:connector-curvature="0" />
    <path
       transform="matrix(1.2437231,0,0,1.2438544,-456.89855,-745.82249)"
       clip-path="url(#clipPath4083)"
       sodipodi:nodetypes="csssc"
       id="path4079"
       d="m 515.86743,745.01066 c 15.60192,15.62474 19.16909,37.38511 19.16909,37.38511 0,0 -21.72851,-3.5724 -37.33043,-19.19718 -15.60192,-15.62475 -19.16909,-37.38512 -19.16909,-37.38512 0,0 21.72851,3.5724 37.33043,19.19719 z"
       style="color:#000000;display:inline;overflow:visible;visibility:visible;fill:#729fcf;fill-opacity:1;fill-rule:evenodd;stroke:none;stroke-width:12;marker:none;filter:url(#filter4087);enable-background:new"
       inkscape:connector-curvature="0" />
    <path
       transform="matrix(1.2437231,0,0,1.2438544,-220.59116,-745.82249)"
       clip-path="url(#clipPath4157)"
       style="color:#000000;display:inline;overflow:visible;visibility:visible;fill:#f57900;fill-opacity:1;fill-rule:evenodd;stroke:none;stroke-width:12;marker:none;filter:url(#filter4161);enable-background:new"
       d="m 269.47143,688.53202 c 15.60191,15.62474 19.16908,37.38511 19.16908,37.38511 0,0 -21.72851,-3.5724 -37.33043,-19.19718 -15.60192,-15.62478 -19.16908,-37.38512 -19.16908,-37.38512 0,0 21.72851,3.57241 37.33043,19.19719 z"
       id="path4153"
       sodipodi:nodetypes="csssc"
       inkscape:connector-curvature="0" />
  </g>
</svg>
