<?xml version="1.0" encoding="UTF-8" standalone="no"?>
<svg
   xmlns:osb="http://www.openswatchbook.org/uri/2009/osb"
   xmlns:dc="http://purl.org/dc/elements/1.1/"
   xmlns:cc="http://creativecommons.org/ns#"
   xmlns:rdf="http://www.w3.org/1999/02/22-rdf-syntax-ns#"
   xmlns:svg="http://www.w3.org/2000/svg"
   xmlns="http://www.w3.org/2000/svg"
   xmlns:xlink="http://www.w3.org/1999/xlink"
   xmlns:sodipodi="http://sodipodi.sourceforge.net/DTD/sodipodi-0.dtd"
   xmlns:inkscape="http://www.inkscape.org/namespaces/inkscape"
   viewBox="0 0 15.999999 16.00003"
   id="svg7384"
   height="16.000031"
   width="16"
   version="1.1"
   inkscape:version="0.91 r13725"
   sodipodi:docname="gimp-video.svg">
  <sodipodi:namedview
     pagecolor="#ffffff"
     bordercolor="#666666"
     borderopacity="1"
     objecttolerance="10"
     gridtolerance="10"
     guidetolerance="10"
     inkscape:pageopacity="0"
     inkscape:pageshadow="2"
     inkscape:window-width="640"
     inkscape:window-height="480"
     id="namedview1509"
     showgrid="false"
     inkscape:zoom="14.749972"
     inkscape:cx="-387.86346"
     inkscape:cy="427.40701"
     inkscape:window-x="0"
     inkscape:window-y="27"
     inkscape:window-maximized="0"
     inkscape:current-layer="svg7384" />
  <metadata
     id="metadata90">
    <rdf:RDF>
      <cc:Work
         rdf:about="">
        <dc:format>image/svg+xml</dc:format>
        <dc:type
           rdf:resource="http://purl.org/dc/dcmitype/StillImage" />
        <dc:title />
        <dc:contributor>
          <cc:Agent>
            <dc:title>Barbara Muraus, Jakub Steiner, Klaus Staedtler</dc:title>
          </cc:Agent>
        </dc:contributor>
        <dc:description>Images originally created as the &quot;Art Libre&quot; icon set. Extended and adopted for GIMP</dc:description>
      </cc:Work>
    </rdf:RDF>
  </metadata>
  <defs
     id="defs7386">
    <linearGradient
       osb:paint="solid"
       id="linearGradient8074">
      <stop
         id="stop8072"
         offset="0"
         style="stop-color:#be00be;stop-opacity:1;" />
    </linearGradient>
    <linearGradient
       osb:paint="solid"
       id="linearGradient7561">
      <stop
         id="stop7558"
         offset="0"
         style="stop-color:#a5a5a5;stop-opacity:1;" />
    </linearGradient>
    <linearGradient
       osb:paint="solid"
       id="linearGradient7548">
      <stop
         id="stop7546"
         offset="0"
         style="stop-color:#ebebeb;stop-opacity:1;" />
    </linearGradient>
    <linearGradient
       osb:paint="solid"
       id="linearGradient7542">
      <stop
         id="stop7538"
         offset="0"
         style="stop-color:#c9c9c9;stop-opacity:1;" />
    </linearGradient>
    <linearGradient
       gradientTransform="matrix(0,-735328.32,170712.69,0,2464326300,577972450)"
       osb:paint="solid"
       id="linearGradient19282">
      <stop
         id="stop19284"
         offset="0"
         style="stop-color:#b4b4b4;stop-opacity:1;" />
    </linearGradient>
    <linearGradient
       gradientTransform="matrix(0.34682586,0,0,0.30620888,26.67918,122.03851)"
       osb:paint="solid"
       id="linearGradient19282-4">
      <stop
         id="stop19284-0"
         offset="0"
         style="stop-color:#bebebe;stop-opacity:1;" />
    </linearGradient>
    <linearGradient
       gradientTransform="translate(576.89471,203.31841)"
       gradientUnits="userSpaceOnUse"
       y2="-14"
       x2="-144"
       y1="-14"
       x1="-157"
       id="linearGradient7027"
       xlink:href="#linearGradient19282-4" />
  </defs>
  <g
     transform="translate(-119.08356,-36.287169)"
     style="display:inline"
     id="stock">
    <g
       id="gimp-video"
       style="display:inline"
       transform="translate(-61.947694,-602.7128)">
      <g
         style="display:inline"
         id="emblem-videos"
         transform="translate(-380.96875,257)">
        <g
           id="g1873">
          <path
             style="color:#000000;display:inline;overflow:visible;visibility:visible;fill:url(#linearGradient7027);fill-opacity:1;fill-rule:nonzero;stroke:none;stroke-width:1.50793636;marker:none;enable-background:new"
             d="m -156,-22 c 0,0 0,0 0,2 l 0,12 c 0,2 -1,2 -1,2 l 1,0 c 0,0 1,0 1,-1 l 1,0 c 0,1 -1,1 -1,1 l 1,0 c 0,0 1,0 1,-1 l 6,0 c 0,1 -0.67515,1 -1,1 l 1,0 c 0,0 1,0 1,-1 l 1,0 c 0,1 -1,1 -1,1 l 1,0 c 0,0 1,0 1,-2 l 0,-12 c 0,-2 0,-2 0,-2 l -3,0 c 0,0 0,0 0,2 l 0,2 -6,0 0,-2 c 0,-2 0,-2 0,-2 z m 1,1 1,0 0,1 -1,0 z m 9,0 1,0 0,1 -1,0 z m -9,2 1,0 0,1 -1,0 z m 9,0 1,0 0,1 -1,0 z m -9,2 1,0 0,1 -1,0 z m 2,0 6,0 0,4 -6,0 z m 7,0 1,0 0,1 -1,0 z m -9,2 1,0 0,1 -1,0 z m 9,0 1,0 0,1 -1,0 z m -9,2 1,0 0,1 -1,0 z m 9,0 1,0 0,1 -1,0 z m -7,1 6,0 0,4 -6,0 z m -2,1 1,0 0,1 -1,0 z m 9,0 1,0 0,1 -1,0 z m -9,2 1,0 0,1 -1,0 z m 9,0 1,0 0,1 -1,0 z"
             transform="translate(719.96895,404)"
             id="rect5523"
             inkscape:connector-curvature="0" />
        </g>
      </g>
    </g>
  </g>
</svg>
