<?xml version="1.0" encoding="UTF-8" standalone="no"?>
<svg
   xmlns:osb="http://www.openswatchbook.org/uri/2009/osb"
   xmlns:dc="http://purl.org/dc/elements/1.1/"
   xmlns:cc="http://creativecommons.org/ns#"
   xmlns:rdf="http://www.w3.org/1999/02/22-rdf-syntax-ns#"
   xmlns:svg="http://www.w3.org/2000/svg"
   xmlns="http://www.w3.org/2000/svg"
   xmlns:xlink="http://www.w3.org/1999/xlink"
   xmlns:sodipodi="http://sodipodi.sourceforge.net/DTD/sodipodi-0.dtd"
   xmlns:inkscape="http://www.inkscape.org/namespaces/inkscape"
   viewBox="0 0 11.999999 12"
   id="svg7384"
   height="12"
   width="12"
   version="1.1"
   inkscape:version="0.91 r13725"
   sodipodi:docname="gimp-quick-mask-on.svg">
  <sodipodi:namedview
     pagecolor="#ffffff"
     bordercolor="#666666"
     borderopacity="1"
     objecttolerance="10"
     gridtolerance="10"
     guidetolerance="10"
     inkscape:pageopacity="0"
     inkscape:pageshadow="2"
     inkscape:window-width="640"
     inkscape:window-height="480"
     id="namedview1506"
     showgrid="false"
     inkscape:zoom="19.666667"
     inkscape:cx="-739.33351"
     inkscape:cy="846.76831"
     inkscape:window-x="0"
     inkscape:window-y="27"
     inkscape:window-maximized="0"
     inkscape:current-layer="svg7384" />
  <metadata
     id="metadata90">
    <rdf:RDF>
      <cc:Work
         rdf:about="">
        <dc:format>image/svg+xml</dc:format>
        <dc:type
           rdf:resource="http://purl.org/dc/dcmitype/StillImage" />
        <dc:title />
        <dc:contributor>
          <cc:Agent>
            <dc:title>Barbara Muraus, Jakub Steiner, Klaus Staedtler</dc:title>
          </cc:Agent>
        </dc:contributor>
        <dc:description>Images originally created as the &quot;Art Libre&quot; icon set. Extended and adopted for GIMP</dc:description>
      </cc:Work>
    </rdf:RDF>
  </metadata>
  <defs
     id="defs7386">
    <linearGradient
       osb:paint="solid"
       id="linearGradient8074">
      <stop
         id="stop8072"
         offset="0"
         style="stop-color:#be00be;stop-opacity:1;" />
    </linearGradient>
    <linearGradient
       osb:paint="solid"
       id="linearGradient7561">
      <stop
         id="stop7558"
         offset="0"
         style="stop-color:#a5a5a5;stop-opacity:1;" />
    </linearGradient>
    <linearGradient
       osb:paint="solid"
       id="linearGradient7548">
      <stop
         id="stop7546"
         offset="0"
         style="stop-color:#ebebeb;stop-opacity:1;" />
    </linearGradient>
    <linearGradient
       osb:paint="solid"
       id="linearGradient7542">
      <stop
         id="stop7538"
         offset="0"
         style="stop-color:#c9c9c9;stop-opacity:1;" />
    </linearGradient>
    <linearGradient
       gradientTransform="matrix(0,-735328.32,170712.69,0,2464326300,577972450)"
       osb:paint="solid"
       id="linearGradient19282">
      <stop
         id="stop19284"
         offset="0"
         style="stop-color:#b4b4b4;stop-opacity:1;" />
    </linearGradient>
    <linearGradient
       gradientTransform="matrix(0.34682586,0,0,0.30620888,-154.35207,-275.32369)"
       osb:paint="solid"
       id="linearGradient19282-4">
      <stop
         id="stop19284-0"
         offset="0"
         style="stop-color:#bebebe;stop-opacity:1;" />
    </linearGradient>
    <linearGradient
       gradientTransform="translate(745.33351,227.31752)"
       gradientUnits="userSpaceOnUse"
       y2="10"
       x2="12"
       y1="10"
       x1="0"
       id="linearGradient7921"
       xlink:href="#linearGradient19282-4" />
  </defs>
  <g
     transform="translate(-287.52236,-60.28628)"
     style="display:inline"
     id="stock">
    <g
       id="gimp-quick-mask-on"
       transform="translate(287.52236,-980.07592)">
      <path
         id="rect17271"
         transform="translate(0,1036.3622)"
         d="M 0,4 0,16 12,16 12,4 Z M 1,5 2,5 2,6 1,6 Z m 2.0195312,0 1,0 0,1 -1,0 z m 2.0195313,0 1,0 0,1 -1,0 z m 2.0214844,0 1,0 0,1 -1,0 z m 1.9960937,0 1.0000004,0 0,1 -1.0000004,0 z M 1,7.0449219 l 1,0 0,1 -1,0 z m 8,0.025391 1,0 0,1 -1,0 z m -8,1.958984 1,0 0,1.0000001 -1,0 z m 8,0.017578 1,0 0,1.0000001 -1,0 z m -8,1.9687501 1,0 0,1 -1,0 z m 8,0.0078 1,0 0,1 -1,0 z m -4,1.949218 1,0 0,1 -1,0 z m -2,0.0078 1,0 0,1 -1,0 z M 1,13 l 1,0 0,1 -1,0 z m 6.0507812,0 1,0 0,1 -1,0 z M 9,13 l 1,0 0,1 -1,0 z"
         style="opacity:1;fill:url(#linearGradient7921);fill-opacity:1;stroke:none;stroke-width:1.00349033"
         inkscape:connector-curvature="0" />
    </g>
  </g>
</svg>
