<?xml version="1.0" encoding="UTF-8" standalone="no"?>
<svg
   width="16"
   height="16"
   viewBox="0 0 16 16"
   fill="none"
   version="1.1"
   id="svg2"
   xmlns="http://www.w3.org/2000/svg"
   xmlns:svg="http://www.w3.org/2000/svg">
  <path
     fill-rule="evenodd"
     clip-rule="evenodd"
     d="M5 3C2.23858 3 0 5.23858 0 8C0 10.7614 2.23858 13 5 13H11C13.7614 13 16 10.7614 16 8C16 5.23858 13.7614 3 11 3H5ZM11 12C13.2091 12 15 10.2091 15 8C15 5.79086 13.2091 4 11 4C8.79086 4 7 5.79086 7 8C7 10.2091 8.79086 12 11 12Z"
     fill="#969696"
     id="path1" />
  <g
     clip-path="url(#clip0_713_90)"
     id="g2">
    <path
       d="M 13.2456,6.07668 C 13.026978,5.8848832 12.667796,5.8826526 12.4517,6.12941 L 10.2222,8.67677 9.52274,7.97731 c -0.2191491,-0.2191075 -0.576189,-0.2191586 -0.79541,0 -0.219161,0.2192234 -0.2191051,0.5762633 0,0.79541 l 1.125,1.125 c 0.229177,0.229261 0.606875,0.217201 0.82107,-0.0271 l 2.625,-3 C 13.512815,6.6259141 13.466418,6.2695492 13.2456,6.07668 Z"
       fill="#969696"
       id="path2" />
  </g>
  <defs
     id="defs2">
    <clipPath
       id="clip0_713_90">
      <rect
         width="6"
         height="6"
         fill="white"
         transform="translate(8 5)"
         id="rect2" />
    </clipPath>
  </defs>
</svg>
