<?xml version="1.0" encoding="UTF-8" standalone="no"?>
<svg
   width="16"
   height="16"
   fill="none"
   version="1.1"
   id="svg2"
   xmlns="http://www.w3.org/2000/svg"
   xmlns:svg="http://www.w3.org/2000/svg">
  <defs
     id="defs2" />
  <path
     fill="#969696"
     fill-opacity=".1"
     d="M1 8c0-2.2091 1.7909-4 4-4h6c2.2091 0 4 1.7909 4 4 0 2.2091-1.7909 4-4 4H5c-2.2091 0-4-1.7909-4-4Z"
     id="path1" />
  <path
     fill="#969696"
     fill-rule="evenodd"
     d="M0 8c0-2.7614 2.2386-5 5-5h6c2.7614 0 5 2.2386 5 5s-2.2386 5-5 5H5c-2.7614 0-5-2.2386-5-5Zm1 0c0-2.2091 1.7909-4 4-4h6c2.2091 0 4 1.7909 4 4 0 2.2091-1.7909 4-4 4H5c-2.2091 0-4-1.7909-4-4Z"
     clip-rule="evenodd"
     id="path2" />
  <circle
     cx="5"
     cy="8"
     r="3"
     fill="#969696"
     id="circle2" />
</svg>
