<?xml version="1.0" encoding="UTF-8" standalone="no"?>
<!-- Created with Inkscape (http://www.inkscape.org/) -->

<svg
   xmlns:dc="http://purl.org/dc/elements/1.1/"
   xmlns:cc="http://creativecommons.org/ns#"
   xmlns:rdf="http://www.w3.org/1999/02/22-rdf-syntax-ns#"
   xmlns:svg="http://www.w3.org/2000/svg"
   xmlns="http://www.w3.org/2000/svg"
   xmlns:xlink="http://www.w3.org/1999/xlink"
   xmlns:sodipodi="http://sodipodi.sourceforge.net/DTD/sodipodi-0.dtd"
   xmlns:inkscape="http://www.inkscape.org/namespaces/inkscape"
   width="16"
   height="16"
   id="svg11300"
   sodipodi:version="0.32"
   inkscape:version="0.91+devel r"
   sodipodi:docname="gimp-weba.svg"
   version="1.0"
   viewBox="0 0 16 16">
  <defs
     id="defs3">
    <linearGradient
       id="linearGradient3962">
      <stop
         style="stop-color:#4074ae;stop-opacity:1.0000000;"
         offset="0"
         id="stop4346" />
      <stop
         style="stop-color:#36486c;stop-opacity:1.0000000;"
         offset="1.0000000"
         id="stop3966" />
    </linearGradient>
    <radialGradient
       r="40.692665"
       fy="17.810213"
       fx="18.934305"
       cy="17.486208"
       cx="18.63378"
       gradientTransform="scale(1.036822,0.964486)"
       gradientUnits="userSpaceOnUse"
       id="radialGradient1460"
       xlink:href="#linearGradient4750"
       inkscape:collect="always" />
    <linearGradient
       id="linearGradient4750">
      <stop
         style="stop-color:#ffffff;stop-opacity:1;"
         offset="0"
         id="stop4752" />
      <stop
         style="stop-color:#fefefe;stop-opacity:1.0000000;"
         offset="0.37931034"
         id="stop4758" />
      <stop
         style="stop-color:#1d1d1d;stop-opacity:1.0000000;"
         offset="1.0000000"
         id="stop4754" />
    </linearGradient>
    <radialGradient
       r="40.692665"
       fy="17.810213"
       fx="18.934305"
       cy="17.486208"
       cx="18.63378"
       gradientTransform="scale(1.036822,0.964486)"
       gradientUnits="userSpaceOnUse"
       id="radialGradient1462"
       xlink:href="#linearGradient4750"
       inkscape:collect="always" />
    <radialGradient
       r="40.692665"
       fy="17.810213"
       fx="18.934305"
       cy="17.486208"
       cx="18.63378"
       gradientTransform="scale(1.036822,0.964486)"
       gradientUnits="userSpaceOnUse"
       id="radialGradient1466"
       xlink:href="#linearGradient4750"
       inkscape:collect="always" />
    <radialGradient
       r="40.692665"
       fy="17.810213"
       fx="18.934305"
       cy="17.486208"
       cx="18.63378"
       gradientTransform="scale(1.036822,0.964486)"
       gradientUnits="userSpaceOnUse"
       id="radialGradient1468"
       xlink:href="#linearGradient4750"
       inkscape:collect="always" />
    <radialGradient
       r="40.692665"
       fy="17.810213"
       fx="18.934305"
       cy="17.486208"
       cx="18.63378"
       gradientTransform="scale(1.036822,0.964486)"
       gradientUnits="userSpaceOnUse"
       id="radialGradient1470"
       xlink:href="#linearGradient4750"
       inkscape:collect="always" />
    <radialGradient
       r="40.692665"
       fy="17.810213"
       fx="18.934305"
       cy="17.486208"
       cx="18.63378"
       gradientTransform="scale(1.036822,0.964486)"
       gradientUnits="userSpaceOnUse"
       id="radialGradient1474"
       xlink:href="#linearGradient4750"
       inkscape:collect="always" />
    <radialGradient
       r="40.692665"
       fy="17.810213"
       fx="18.934305"
       cy="17.486208"
       cx="18.63378"
       gradientTransform="scale(1.036822,0.964486)"
       gradientUnits="userSpaceOnUse"
       id="radialGradient1476"
       xlink:href="#linearGradient4750"
       inkscape:collect="always" />
    <radialGradient
       r="40.692665"
       fy="17.810213"
       fx="18.934305"
       cy="17.486208"
       cx="18.63378"
       gradientTransform="scale(1.036822,0.964486)"
       gradientUnits="userSpaceOnUse"
       id="radialGradient1478"
       xlink:href="#linearGradient4750"
       inkscape:collect="always" />
    <radialGradient
       r="40.692665"
       fy="17.810213"
       fx="18.934305"
       cy="17.486208"
       cx="18.63378"
       gradientTransform="scale(1.036822,0.964486)"
       gradientUnits="userSpaceOnUse"
       id="radialGradient1482"
       xlink:href="#linearGradient4750"
       inkscape:collect="always" />
    <radialGradient
       r="40.692665"
       fy="17.810213"
       fx="18.934305"
       cy="17.486208"
       cx="18.63378"
       gradientTransform="scale(1.036822,0.964486)"
       gradientUnits="userSpaceOnUse"
       id="radialGradient1484"
       xlink:href="#linearGradient4750"
       inkscape:collect="always" />
    <radialGradient
       r="40.692665"
       fy="17.810213"
       fx="18.934305"
       cy="17.486208"
       cx="18.63378"
       gradientTransform="scale(1.036822,0.964486)"
       gradientUnits="userSpaceOnUse"
       id="radialGradient1486"
       xlink:href="#linearGradient4750"
       inkscape:collect="always" />
    <radialGradient
       r="40.692665"
       fy="17.810213"
       fx="18.934305"
       cy="17.486208"
       cx="18.63378"
       gradientTransform="scale(1.036822,0.964486)"
       gradientUnits="userSpaceOnUse"
       id="radialGradient1490"
       xlink:href="#linearGradient4750"
       inkscape:collect="always" />
    <radialGradient
       r="40.692665"
       fy="17.810213"
       fx="18.934305"
       cy="17.486208"
       cx="18.63378"
       gradientTransform="scale(1.036822,0.964486)"
       gradientUnits="userSpaceOnUse"
       id="radialGradient1492"
       xlink:href="#linearGradient4750"
       inkscape:collect="always" />
    <radialGradient
       r="40.692665"
       fy="17.810213"
       fx="18.934305"
       cy="17.486208"
       cx="18.63378"
       gradientTransform="scale(1.036822,0.964486)"
       gradientUnits="userSpaceOnUse"
       id="radialGradient1494"
       xlink:href="#linearGradient4750"
       inkscape:collect="always" />
    <radialGradient
       r="40.692665"
       fy="17.810213"
       fx="18.934305"
       cy="17.486208"
       cx="18.63378"
       gradientTransform="scale(1.036822,0.964486)"
       gradientUnits="userSpaceOnUse"
       id="radialGradient1498"
       xlink:href="#linearGradient4750"
       inkscape:collect="always" />
    <radialGradient
       r="40.692665"
       fy="17.810213"
       fx="18.934305"
       cy="17.486208"
       cx="18.63378"
       gradientTransform="scale(1.036822,0.964486)"
       gradientUnits="userSpaceOnUse"
       id="radialGradient1500"
       xlink:href="#linearGradient4750"
       inkscape:collect="always" />
    <radialGradient
       r="40.692665"
       fy="17.810213"
       fx="18.934305"
       cy="17.486208"
       cx="18.63378"
       gradientTransform="scale(1.036822,0.964486)"
       gradientUnits="userSpaceOnUse"
       id="radialGradient1502"
       xlink:href="#linearGradient4750"
       inkscape:collect="always" />
    <radialGradient
       r="40.692665"
       fy="17.810213"
       fx="18.934305"
       cy="17.486208"
       cx="18.63378"
       gradientTransform="scale(1.036822,0.964486)"
       gradientUnits="userSpaceOnUse"
       id="radialGradient1506"
       xlink:href="#linearGradient4750"
       inkscape:collect="always" />
    <radialGradient
       r="40.692665"
       fy="17.810213"
       fx="18.934305"
       cy="17.486208"
       cx="18.63378"
       gradientTransform="scale(1.036822,0.964486)"
       gradientUnits="userSpaceOnUse"
       id="radialGradient1508"
       xlink:href="#linearGradient4750"
       inkscape:collect="always" />
    <radialGradient
       r="40.692665"
       fy="17.810213"
       fx="18.934305"
       cy="17.486208"
       cx="18.63378"
       gradientTransform="scale(1.036822,0.964486)"
       gradientUnits="userSpaceOnUse"
       id="radialGradient1510"
       xlink:href="#linearGradient4750"
       inkscape:collect="always" />
    <radialGradient
       r="40.692665"
       fy="17.810213"
       fx="18.934305"
       cy="17.486208"
       cx="18.63378"
       gradientTransform="scale(1.036822,0.964486)"
       gradientUnits="userSpaceOnUse"
       id="radialGradient1514"
       xlink:href="#linearGradient4750"
       inkscape:collect="always" />
    <radialGradient
       r="40.692665"
       fy="17.810213"
       fx="18.934305"
       cy="17.486208"
       cx="18.63378"
       gradientTransform="scale(1.036822,0.964486)"
       gradientUnits="userSpaceOnUse"
       id="radialGradient1516"
       xlink:href="#linearGradient4750"
       inkscape:collect="always" />
    <radialGradient
       r="40.692665"
       fy="17.810213"
       fx="18.934305"
       cy="17.486208"
       cx="18.63378"
       gradientTransform="scale(1.036822,0.964486)"
       gradientUnits="userSpaceOnUse"
       id="radialGradient1518"
       xlink:href="#linearGradient4750"
       inkscape:collect="always" />
    <radialGradient
       r="40.692665"
       fy="17.810213"
       fx="18.934305"
       cy="17.486208"
       cx="18.63378"
       gradientTransform="scale(1.036822,0.964486)"
       gradientUnits="userSpaceOnUse"
       id="radialGradient1522"
       xlink:href="#linearGradient4750"
       inkscape:collect="always" />
    <radialGradient
       r="40.692665"
       fy="17.810213"
       fx="18.934305"
       cy="17.486208"
       cx="18.63378"
       gradientTransform="scale(1.036822,0.964486)"
       gradientUnits="userSpaceOnUse"
       id="radialGradient1524"
       xlink:href="#linearGradient4750"
       inkscape:collect="always" />
    <radialGradient
       r="40.692665"
       fy="17.810213"
       fx="18.934305"
       cy="17.486208"
       cx="18.63378"
       gradientTransform="scale(1.036822,0.964486)"
       gradientUnits="userSpaceOnUse"
       id="radialGradient1526"
       xlink:href="#linearGradient4750"
       inkscape:collect="always" />
    <radialGradient
       r="40.692665"
       fy="17.810213"
       fx="18.934305"
       cy="17.486208"
       cx="18.63378"
       gradientTransform="scale(1.036822,0.964486)"
       gradientUnits="userSpaceOnUse"
       id="radialGradient1528"
       xlink:href="#linearGradient4750"
       inkscape:collect="always" />
    <radialGradient
       r="40.692665"
       fy="17.810213"
       fx="18.934305"
       cy="17.486208"
       cx="18.63378"
       gradientTransform="scale(1.036822,0.964486)"
       gradientUnits="userSpaceOnUse"
       id="radialGradient1530"
       xlink:href="#linearGradient4750"
       inkscape:collect="always" />
    <radialGradient
       r="40.692665"
       fy="17.810213"
       fx="18.934305"
       cy="17.486208"
       cx="18.63378"
       gradientTransform="scale(1.036822,0.964486)"
       gradientUnits="userSpaceOnUse"
       id="radialGradient1532"
       xlink:href="#linearGradient4750"
       inkscape:collect="always" />
    <radialGradient
       r="40.692665"
       fy="17.810213"
       fx="18.934305"
       cy="17.486208"
       cx="18.63378"
       gradientTransform="scale(1.036822,0.964486)"
       gradientUnits="userSpaceOnUse"
       id="radialGradient1534"
       xlink:href="#linearGradient4750"
       inkscape:collect="always" />
    <radialGradient
       r="40.692665"
       fy="17.810213"
       fx="18.934305"
       cy="17.486208"
       cx="18.63378"
       gradientTransform="scale(1.036822,0.964486)"
       gradientUnits="userSpaceOnUse"
       id="radialGradient1536"
       xlink:href="#linearGradient4750"
       inkscape:collect="always" />
    <radialGradient
       r="40.692665"
       fy="17.810213"
       fx="18.934305"
       cy="17.486208"
       cx="18.63378"
       gradientTransform="scale(1.036822,0.964486)"
       gradientUnits="userSpaceOnUse"
       id="radialGradient1538"
       xlink:href="#linearGradient4750"
       inkscape:collect="always" />
    <radialGradient
       r="40.692665"
       fy="17.810213"
       fx="18.934305"
       cy="17.486208"
       cx="18.63378"
       gradientTransform="scale(1.036822,0.964486)"
       gradientUnits="userSpaceOnUse"
       id="radialGradient1540"
       xlink:href="#linearGradient4750"
       inkscape:collect="always" />
    <radialGradient
       r="40.692665"
       fy="17.810213"
       fx="18.934305"
       cy="17.486208"
       cx="18.63378"
       gradientTransform="scale(1.036822,0.964486)"
       gradientUnits="userSpaceOnUse"
       id="radialGradient1542"
       xlink:href="#linearGradient4750"
       inkscape:collect="always" />
    <radialGradient
       r="40.692665"
       fy="17.810213"
       fx="18.934305"
       cy="17.486208"
       cx="18.63378"
       gradientTransform="scale(1.036822,0.964486)"
       gradientUnits="userSpaceOnUse"
       id="radialGradient1544"
       xlink:href="#linearGradient4750"
       inkscape:collect="always" />
    <radialGradient
       r="40.692665"
       fy="17.810213"
       fx="18.934305"
       cy="17.486208"
       cx="18.63378"
       gradientTransform="scale(1.036822,0.964486)"
       gradientUnits="userSpaceOnUse"
       id="radialGradient1546"
       xlink:href="#linearGradient4750"
       inkscape:collect="always" />
    <radialGradient
       r="40.692665"
       fy="17.810213"
       fx="18.934305"
       cy="17.486208"
       cx="18.63378"
       gradientTransform="scale(1.036822,0.964486)"
       gradientUnits="userSpaceOnUse"
       id="radialGradient1550"
       xlink:href="#linearGradient4750"
       inkscape:collect="always" />
    <radialGradient
       r="40.692665"
       fy="17.810213"
       fx="18.934305"
       cy="17.486208"
       cx="18.63378"
       gradientTransform="scale(1.036822,0.964486)"
       gradientUnits="userSpaceOnUse"
       id="radialGradient1552"
       xlink:href="#linearGradient4750"
       inkscape:collect="always" />
    <radialGradient
       r="40.692665"
       fy="17.810213"
       fx="18.934305"
       cy="17.486208"
       cx="18.63378"
       gradientTransform="scale(1.036822,0.964486)"
       gradientUnits="userSpaceOnUse"
       id="radialGradient1554"
       xlink:href="#linearGradient4750"
       inkscape:collect="always" />
    <radialGradient
       r="40.692665"
       fy="17.810213"
       fx="18.934305"
       cy="17.486208"
       cx="18.63378"
       gradientTransform="scale(1.036822,0.964486)"
       gradientUnits="userSpaceOnUse"
       id="radialGradient1558"
       xlink:href="#linearGradient4750"
       inkscape:collect="always" />
    <radialGradient
       inkscape:collect="always"
       xlink:href="#linearGradient4750"
       id="radialGradient4756"
       gradientTransform="scale(1.036822,0.964486)"
       cx="18.63378"
       cy="17.486208"
       fx="18.934305"
       fy="17.810213"
       r="40.692665"
       gradientUnits="userSpaceOnUse" />
    <radialGradient
       inkscape:collect="always"
       xlink:href="#linearGradient4126"
       id="radialGradient4132"
       gradientTransform="scale(0.999989,1.000011)"
       cx="15.601279"
       cy="12.142302"
       fx="15.601279"
       fy="12.142302"
       r="43.526714"
       gradientUnits="userSpaceOnUse" />
    <linearGradient
       id="linearGradient4126">
      <stop
         style="stop-color:#ffffff;stop-opacity:1.0000000;"
         offset="0.0000000"
         id="stop4128" />
      <stop
         style="stop-color:#ffffff;stop-opacity:0.16494845;"
         offset="1.0000000"
         id="stop4130" />
    </linearGradient>
  </defs>
  <sodipodi:namedview
     stroke="#555753"
     fill="#eeeeec"
     id="base"
     pagecolor="#ffffff"
     bordercolor="#666666"
     borderopacity="0.25490196"
     inkscape:pageopacity="0.0"
     inkscape:pageshadow="2"
     inkscape:zoom="11.313708"
     inkscape:cx="-15.906484"
     inkscape:cy="6.6056572"
     inkscape:current-layer="layer1"
     showgrid="true"
     inkscape:grid-bbox="true"
     inkscape:document-units="px"
     inkscape:showpageshadow="false"
     inkscape:window-width="1920"
     inkscape:window-height="1016"
     inkscape:window-x="0"
     inkscape:window-y="27"
     width="16px"
     height="16px"
     inkscape:window-maximized="1" />
  <metadata
     id="metadata4">
    <rdf:RDF>
      <cc:Work
         rdf:about="">
        <dc:format>image/svg+xml</dc:format>
        <dc:type
           rdf:resource="http://purl.org/dc/dcmitype/StillImage" />
        <dc:creator>
          <cc:Agent>
            <dc:title>Jakub Steiner</dc:title>
          </cc:Agent>
        </dc:creator>
        <dc:source>http://jimmac.musichall.cz</dc:source>
        <cc:license
           rdf:resource="http://creativecommons.org/licenses/GPL/2.0/" />
        <dc:title></dc:title>
      </cc:Work>
      <cc:License
         rdf:about="http://creativecommons.org/licenses/GPL/2.0/">
        <cc:permits
           rdf:resource="http://web.resource.org/cc/Reproduction" />
        <cc:permits
           rdf:resource="http://web.resource.org/cc/Distribution" />
        <cc:requires
           rdf:resource="http://web.resource.org/cc/Notice" />
        <cc:permits
           rdf:resource="http://web.resource.org/cc/DerivativeWorks" />
        <cc:requires
           rdf:resource="http://web.resource.org/cc/ShareAlike" />
        <cc:requires
           rdf:resource="http://web.resource.org/cc/SourceCode" />
      </cc:License>
    </rdf:RDF>
  </metadata>
  <g
     id="layer1"
     inkscape:label="Layer 1"
     inkscape:groupmode="layer">
    <g
       id="g4462"
       transform="matrix(0.40220017,0,0,0.40220017,-1.8817604,-1.4463261)">
      <path
         inkscape:connector-curvature="0"
         id="path3214"
         d="m 43.959853,23.485499 c 0,10.709718 -8.682103,19.391723 -19.390348,19.391723 -10.709226,0 -19.3908387,-8.682103 -19.3908387,-19.391723 0,-10.709227 8.6816127,-19.3903473 19.3908387,-19.3903473 10.708245,0 19.390348,8.6811203 19.390348,19.3903473 z"
         style="fill:#36486c;fill-opacity:1;fill-rule:nonzero;stroke:#39396c;stroke-miterlimit:4;stroke-opacity:1" />
      <g
         transform="matrix(0.982371,0,0,0.982371,0.121079,0.232914)"
         style="fill:#000000;fill-opacity:0.71345029;fill-rule:nonzero;stroke:none;stroke-miterlimit:4"
         id="g4136">
        <g
           id="g4138">
          <g
             id="g4142">
            <path
               inkscape:connector-curvature="0"
               id="path4144"
               d="m 44.0713,20.7144 c 0,0.2627 0,0 0,0 l -0.5449,0.6172 c -0.334,-0.3936 -0.709,-0.7246 -1.0898,-1.0703 l -0.8359,0.123 -0.7637,-0.8633 v 1.0684 l 0.6543,0.4951 0.4355,0.4932 0.582,-0.6582 c 0.1465,0.2744 0.291,0.5488 0.4365,0.8232 v 0.8223 l -0.6553,0.7402 -1.1992,0.8232 -0.9082,0.9063 -0.582,-0.6602 0.291,-0.7402 -0.5811,-0.6582 -0.9814,-2.0977 -0.8359,-0.9453 -0.2188,0.2461 0.3281,1.1934 0.6172,0.6992 c 0.3525,1.0176 0.7012,1.9902 1.1641,2.9629 0.7178,0 1.3945,-0.0762 2.1074,-0.166 v 0.5762 l -0.8721,2.1392 -0.7998,0.9043 -0.6543,1.4004 c 0,0.7676 0,1.5352 0,2.3027 l 0.2188,0.9063 -0.3633,0.4102 -0.8008,0.4941 -0.8359,0.6992 0.6914,0.7813 -0.9453,0.8242 0.1816,0.5332 -1.418,1.6055 h -0.9443 l -0.7998,0.4941 H 33.6396 V 38.2814 L 33.4228,36.963 c -0.2813,-0.8262 -0.5742,-1.6465 -0.8721,-2.4668 0,-0.6055 0.0361,-1.2051 0.0723,-1.8105 l 0.3643,-0.8223 -0.5098,-0.9883 0.0371,-1.3574 -0.6914,-0.7813 0.3457,-1.1309 -0.5625,-0.6382 H 30.624 l -0.3271,-0.3701 -0.9814,0.6177 -0.3994,-0.4536 -0.9092,0.7817 c -0.6172,-0.6997 -1.2354,-1.3989 -1.8535,-2.0981 l -0.7266,-1.7285 0.6543,-0.9863 -0.3633,-0.4111 0.7988,-1.8936 c 0.6563,-0.8164 1.3418,-1.5996 2.0352,-2.3857 l 1.2363,-0.3291 1.3809,-0.1641 0.9453,0.2471 1.3447,1.3564 0.4727,-0.5342 0.6533,-0.082 1.2363,0.4111 h 0.9453 l 0.6543,-0.5762 0.291,-0.4111 -0.6553,-0.4111 -1.0908,-0.082 c -0.3027,-0.4199 -0.584,-0.8613 -0.9434,-1.2344 l -0.3643,0.1641 -0.1455,1.0703 -0.6543,-0.7402 -0.1445,-0.8242 -0.7266,-0.5742 h -0.292 l 0.7275,0.8223 -0.291,0.7402 -0.5811,0.1641 0.3633,-0.7402 -0.6553,-0.3281 -0.5801,-0.6582 -1.0918,0.2461 -0.1445,0.3281 -0.6543,0.4121 -0.3633,0.9053 -0.9082,0.4521 -0.4004,-0.4521 h -0.4355 v -1.4814 l 0.9453,-0.4941 h 0.7266 l -0.1465,-0.5752 -0.5801,-0.5762 0.9805,-0.2061 0.5449,-0.6162 0.4355,-0.7412 h 0.8008 l -0.2188,-0.5752 0.5098,-0.3291 v 0.6582 l 1.0898,0.2461 1.0898,-0.9043 0.0732,-0.4121 0.9443,-0.6577 c -0.3418,0.0425 -0.6836,0.0737 -1.0176,0.1646 V 9.9766 L 34.2213,9.1538 H 33.858 l -0.7984,0.7402 -0.2188,0.4116 0.2188,0.5767 -0.3643,0.9863 -0.5811,-0.3291 -0.5078,-0.5752 -0.8008,0.5752 -0.291,-1.3159 1.3809,-0.9048 V 8.8247 l 0.873,-0.5757 1.3809,-0.3296 0.9453,0.3296 1.7441,0.3291 -0.4355,0.4932 H 35.458 l 0.9453,0.9873 0.7266,-0.8223 0.2207,-0.3618 c 0,0 2.7871,2.498 4.3799,5.2305 1.5928,2.7334 2.3408,5.9551 2.3408,6.6094 z" />
          </g>
        </g>
        <g
           id="g4146">
          <g
             id="g4150">
            <path
               inkscape:connector-curvature="0"
               id="path4152"
               d="m 26.0703,9.2363 -0.0732,0.4932 0.5098,0.3291 0.8711,-0.5757 -0.4355,-0.4937 -0.582,0.3296 -0.29,-0.0825" />
          </g>
        </g>
        <g
           id="g4154">
          <g
             id="g4158">
            <path
               inkscape:connector-curvature="0"
               id="path4160"
               d="m 26.8701,5.8633 -1.8906,-0.7407 -2.1797,0.2466 -2.6904,0.7402 -0.5088,0.4941 1.6719,1.1514 v 0.6582 l -0.6543,0.6582 0.873,1.729 0.5801,-0.3301 0.7285,-1.1514 c 1.123,-0.3472 2.1299,-0.7407 3.1973,-1.2344 l 0.873,-2.2212" />
          </g>
        </g>
        <g
           id="g4162">
          <g
             id="g4166">
            <path
               inkscape:connector-curvature="0"
               id="path4168"
               d="m 28.833,12.7749 -0.291,-0.7412 -0.5098,0.165 0.1465,0.9043 0.6543,-0.3281" />
          </g>
        </g>
        <g
           id="g4170">
          <g
             id="g4174">
            <path
               inkscape:connector-curvature="0"
               id="path4176"
               d="m 29.123,12.6089 -0.1455,0.9883 0.7998,-0.165 0.5811,-0.5752 -0.5088,-0.4941 C 29.6787,11.9078 29.4824,11.483 29.2685,11.0465 H 28.833 v 0.4932 l 0.29,0.3291 v 0.7402" />
          </g>
        </g>
        <g
           id="g4178">
          <g
             id="g4182">
            <path
               inkscape:connector-curvature="0"
               id="path4184"
               d="m 18.3652,28.2422 -0.582,-1.1523 -1.0903,-0.2466 -0.5815,-1.5625 -1.4536,0.1641 -1.2354,-0.9043 -1.3091,1.1514 v 0.1816 c -0.396,-0.1143 -0.8828,-0.1299 -1.2354,-0.3467 l -0.291,-0.8223 v -0.9053 l -0.8721,0.082 c 0.0728,-0.5762 0.145,-1.1514 0.2183,-1.7275 H 9.4238 L 8.9155,22.812 8.4062,23.0581 7.6791,22.6479 7.6063,21.7426 7.7518,20.7553 8.8426,19.933 h 0.8721 l 0.145,-0.4941 1.0903,0.2461 0.7998,0.9883 0.1455,-1.6465 1.3813,-1.1514 0.5088,-1.2344 1.0176,-0.4111 0.5815,-0.8223 1.3081,-0.248 0.6548,-0.9863 c -0.6543,0 -1.3086,0 -1.9629,0 l 1.2358,-0.5762 h 0.8716 l 1.2363,-0.4121 0.1455,-0.4922 -0.4365,-0.4121 -0.5088,-0.165 0.1455,-0.4932 -0.3633,-0.7402 -0.8726,0.3281 0.1455,-0.6577 -1.0176,-0.5762 -0.7993,1.3979 0.0723,0.4941 -0.7993,0.3301 -0.5093,1.0693 -0.2178,-0.9873 -1.3813,-0.5762 -0.2183,-0.7402 1.8174,-1.0703 0.7998,-0.7402 0.0728,-0.9048 -0.436,-0.2471 -0.5815,-0.0825 -0.3633,0.9053 c 0,0 -0.6079,0.1191 -0.7642,0.1577 -1.9961,1.8394 -6.0293,5.8101 -6.9663,13.3062 0.0371,0.1738 0.6792,1.1816 0.6792,1.1816 l 1.5264,0.9043 1.5264,0.4121 0.6548,0.8232 1.0171,0.7402 0.5815,-0.082 0.436,0.1963 v 0.1328 l -0.5811,1.563 -0.4365,0.6582 0.1455,0.3301 -0.3633,1.2324 1.3086,2.3867 1.3081,1.1523 0.582,0.8223 -0.0732,1.7285 0.4365,0.9863 -0.4365,1.8926 c 0,0 -0.0342,-0.0117 0.0215,0.1777 0.0562,0.1895 2.3291,1.4512 2.4736,1.3438 0.144,-0.1094 0.2671,-0.2051 0.2671,-0.2051 l -0.145,-0.4102 0.5811,-0.5762 0.2183,-0.5762 0.9453,-0.3301 0.7266,-1.8105 -0.2178,-0.4922 0.5078,-0.7402 1.0908,-0.248 0.582,-1.3164 -0.1455,-1.6445 0.8721,-1.2344 0.1455,-1.2344 C 20.7331,29.4607 19.5495,28.8513 18.365,28.242" />
          </g>
        </g>
        <g
           id="g4186">
          <g
             id="g4190">
            <path
               inkscape:connector-curvature="0"
               id="path4192"
               d="m 16.7656,9.5649 0.7266,0.4937 h 0.582 V 9.4829 l -0.7266,-0.3291 -0.582,0.4111" />
          </g>
        </g>
        <g
           id="g4194">
          <g
             id="g4198">
            <path
               inkscape:connector-curvature="0"
               id="path4200"
               d="M 14.876,8.9072 14.5122,9.812 h 0.7271 L 15.6031,8.9892 C 15.9166,8.7675 16.2286,8.5444 16.5479,8.331 l 0.7271,0.2471 c 0.4844,0.3291 0.9688,0.6582 1.4536,0.9868 L 19.4561,8.9072 18.6558,8.5781 18.292,7.8374 16.9111,7.6728 16.8383,7.2612 16.184,7.4262 15.8936,8.002 15.5298,7.2613 l -0.145,0.3291 0.0728,0.8228 -0.5816,0.494" />
          </g>
        </g>
        <g
           id="g4202">
          <g
             id="g4204"
             style="opacity:0.75">
            <path
               inkscape:connector-curvature="0"
               d=""
               id="path4206" />
          </g>
          <g
             id="g4208">
            <path
               inkscape:connector-curvature="0"
               d=""
               id="path4210" />
          </g>
        </g>
        <g
           id="g4212">
          <g
             id="g4214"
             style="opacity:0.75">
            <path
               inkscape:connector-curvature="0"
               d=""
               id="path4216" />
          </g>
          <g
             id="g4218">
            <path
               inkscape:connector-curvature="0"
               d=""
               id="path4220" />
          </g>
        </g>
        <g
           id="g4222">
          <g
             id="g4226">
            <path
               inkscape:connector-curvature="0"
               id="path4228"
               d="M 17.4922,6.8496 17.856,6.521 18.5831,6.3564 c 0.498,-0.2422 0.998,-0.4053 1.5264,-0.5762 l -0.29,-0.4937 -0.9385,0.1348 -0.4434,0.4419 -0.731,0.106 -0.6499,0.3052 -0.3159,0.1528 -0.1929,0.2583 0.9443,0.1641" />
          </g>
        </g>
        <g
           id="g4230">
          <g
             id="g4234">
            <path
               inkscape:connector-curvature="0"
               id="path4236"
               d="m 18.7285,14.6665 0.4365,-0.6582 -0.6548,-0.4932 0.2183,1.1514" />
          </g>
        </g>
      </g>
      <g
         transform="matrix(0.982371,0,0,0.982371,-0.08095179,0.030883)"
         style="color:#000000;display:inline;overflow:visible;visibility:visible;fill:url(#radialGradient1460);fill-opacity:1;fill-rule:nonzero;stroke:none;stroke-width:1.01794541;stroke-linecap:butt;stroke-linejoin:miter;stroke-miterlimit:4;stroke-dashoffset:0;stroke-opacity:1;marker:none;marker-start:none;marker-mid:none;marker-end:none"
         id="g3216">
        <g
           style="color:#000000;display:inline;overflow:visible;visibility:visible;fill:url(#radialGradient1462);stroke-dashoffset:0;marker:none;marker-start:none;marker-mid:none;marker-end:none"
           id="g3218">
          <g
             style="color:#000000;display:inline;overflow:visible;visibility:visible;fill:url(#radialGradient1466);stroke-dashoffset:0;marker:none;marker-start:none;marker-mid:none;marker-end:none"
             id="g3222">
            <path
               inkscape:connector-curvature="0"
               style="color:#000000;display:inline;overflow:visible;visibility:visible;fill:url(#radialGradient1468);stroke-dashoffset:0;marker:none;marker-start:none;marker-mid:none;marker-end:none"
               id="path3224"
               d="m 44.0713,20.7144 c 0,0.2627 0,0 0,0 l -0.5449,0.6172 c -0.334,-0.3936 -0.709,-0.7246 -1.0898,-1.0703 l -0.8359,0.123 -0.7637,-0.8633 v 1.0684 l 0.6543,0.4951 0.4355,0.4932 0.582,-0.6582 c 0.1465,0.2744 0.291,0.5488 0.4365,0.8232 v 0.8223 l -0.6553,0.7402 -1.1992,0.8232 -0.9082,0.9063 -0.582,-0.6602 0.291,-0.7402 -0.5811,-0.6582 -0.9814,-2.0977 -0.8359,-0.9453 -0.2188,0.2461 0.3281,1.1934 0.6172,0.6992 c 0.3525,1.0176 0.7012,1.9902 1.1641,2.9629 0.7178,0 1.3945,-0.0762 2.1074,-0.166 v 0.5762 l -0.8721,2.1392 -0.7998,0.9043 -0.6543,1.4004 c 0,0.7676 0,1.5352 0,2.3027 l 0.2188,0.9063 -0.3633,0.4102 -0.8008,0.4941 -0.8359,0.6992 0.6914,0.7813 -0.9453,0.8242 0.1816,0.5332 -1.418,1.6055 h -0.9443 l -0.7998,0.4941 H 33.6396 V 38.2814 L 33.4228,36.963 c -0.2813,-0.8262 -0.5742,-1.6465 -0.8721,-2.4668 0,-0.6055 0.0361,-1.2051 0.0723,-1.8105 l 0.3643,-0.8223 -0.5098,-0.9883 0.0371,-1.3574 -0.6914,-0.7813 0.3457,-1.1309 -0.5625,-0.6382 H 30.624 l -0.3271,-0.3701 -0.9814,0.6177 -0.3994,-0.4536 -0.9092,0.7817 c -0.6172,-0.6997 -1.2354,-1.3989 -1.8535,-2.0981 l -0.7266,-1.7285 0.6543,-0.9863 -0.3633,-0.4111 0.7988,-1.8936 c 0.6563,-0.8164 1.3418,-1.5996 2.0352,-2.3857 l 1.2363,-0.3291 1.3809,-0.1641 0.9453,0.2471 1.3447,1.3564 0.4727,-0.5342 0.6533,-0.082 1.2363,0.4111 h 0.9453 l 0.6543,-0.5762 0.291,-0.4111 -0.6553,-0.4111 -1.0908,-0.082 c -0.3027,-0.4199 -0.584,-0.8613 -0.9434,-1.2344 l -0.3643,0.1641 -0.1455,1.0703 -0.6543,-0.7402 -0.1445,-0.8242 -0.7266,-0.5742 h -0.292 l 0.7275,0.8223 -0.291,0.7402 -0.5811,0.1641 0.3633,-0.7402 -0.6553,-0.3281 -0.5801,-0.6582 -1.0918,0.2461 -0.1445,0.3281 -0.6543,0.4121 -0.3633,0.9053 -0.9082,0.4521 -0.4004,-0.4521 h -0.4355 v -1.4814 l 0.9453,-0.4941 h 0.7266 l -0.1465,-0.5752 -0.5801,-0.5762 0.9805,-0.2061 0.5449,-0.6162 0.4355,-0.7412 h 0.8008 l -0.2188,-0.5752 0.5098,-0.3291 v 0.6582 l 1.0898,0.2461 1.0898,-0.9043 0.0732,-0.4121 0.9443,-0.6577 c -0.3418,0.0425 -0.6836,0.0737 -1.0176,0.1646 V 9.9766 L 34.2213,9.1538 H 33.858 l -0.7984,0.7402 -0.2188,0.4116 0.2188,0.5767 -0.3643,0.9863 -0.5811,-0.3291 -0.5078,-0.5752 -0.8008,0.5752 -0.291,-1.3159 1.3809,-0.9048 V 8.8247 l 0.873,-0.5757 1.3809,-0.3296 0.9453,0.3296 1.7441,0.3291 -0.4355,0.4932 H 35.458 l 0.9453,0.9873 0.7266,-0.8223 0.2207,-0.3618 c 0,0 2.7871,2.498 4.3799,5.2305 1.5928,2.7334 2.3408,5.9551 2.3408,6.6094 z" />
          </g>
        </g>
        <g
           style="color:#000000;display:inline;overflow:visible;visibility:visible;fill:url(#radialGradient1470);stroke-dashoffset:0;marker:none;marker-start:none;marker-mid:none;marker-end:none"
           id="g3226">
          <g
             style="color:#000000;display:inline;overflow:visible;visibility:visible;fill:url(#radialGradient1474);stroke-dashoffset:0;marker:none;marker-start:none;marker-mid:none;marker-end:none"
             id="g3230">
            <path
               inkscape:connector-curvature="0"
               style="color:#000000;display:inline;overflow:visible;visibility:visible;fill:url(#radialGradient1476);stroke-dashoffset:0;marker:none;marker-start:none;marker-mid:none;marker-end:none"
               id="path3232"
               d="m 26.0703,9.2363 -0.0732,0.4932 0.5098,0.3291 0.8711,-0.5757 -0.4355,-0.4937 -0.582,0.3296 -0.29,-0.0825" />
          </g>
        </g>
        <g
           style="color:#000000;display:inline;overflow:visible;visibility:visible;fill:url(#radialGradient1478);stroke-dashoffset:0;marker:none;marker-start:none;marker-mid:none;marker-end:none"
           id="g3234">
          <g
             style="color:#000000;display:inline;overflow:visible;visibility:visible;fill:url(#radialGradient1482);stroke-dashoffset:0;marker:none;marker-start:none;marker-mid:none;marker-end:none"
             id="g3238">
            <path
               inkscape:connector-curvature="0"
               style="color:#000000;display:inline;overflow:visible;visibility:visible;fill:url(#radialGradient1484);stroke-dashoffset:0;marker:none;marker-start:none;marker-mid:none;marker-end:none"
               id="path3240"
               d="m 26.8701,5.8633 -1.8906,-0.7407 -2.1797,0.2466 -2.6904,0.7402 -0.5088,0.4941 1.6719,1.1514 v 0.6582 l -0.6543,0.6582 0.873,1.729 0.5801,-0.3301 0.7285,-1.1514 c 1.123,-0.3472 2.1299,-0.7407 3.1973,-1.2344 l 0.873,-2.2212" />
          </g>
        </g>
        <g
           style="color:#000000;display:inline;overflow:visible;visibility:visible;fill:url(#radialGradient1486);stroke-dashoffset:0;marker:none;marker-start:none;marker-mid:none;marker-end:none"
           id="g3242">
          <g
             style="color:#000000;display:inline;overflow:visible;visibility:visible;fill:url(#radialGradient1490);stroke-dashoffset:0;marker:none;marker-start:none;marker-mid:none;marker-end:none"
             id="g3246">
            <path
               inkscape:connector-curvature="0"
               style="color:#000000;display:inline;overflow:visible;visibility:visible;fill:url(#radialGradient1492);stroke-dashoffset:0;marker:none;marker-start:none;marker-mid:none;marker-end:none"
               id="path3248"
               d="m 28.833,12.7749 -0.291,-0.7412 -0.5098,0.165 0.1465,0.9043 0.6543,-0.3281" />
          </g>
        </g>
        <g
           style="color:#000000;display:inline;overflow:visible;visibility:visible;fill:url(#radialGradient1494);stroke-dashoffset:0;marker:none;marker-start:none;marker-mid:none;marker-end:none"
           id="g3250">
          <g
             style="color:#000000;display:inline;overflow:visible;visibility:visible;fill:url(#radialGradient1498);stroke-dashoffset:0;marker:none;marker-start:none;marker-mid:none;marker-end:none"
             id="g3254">
            <path
               inkscape:connector-curvature="0"
               style="color:#000000;display:inline;overflow:visible;visibility:visible;fill:url(#radialGradient1500);stroke-dashoffset:0;marker:none;marker-start:none;marker-mid:none;marker-end:none"
               id="path3256"
               d="m 29.123,12.6089 -0.1455,0.9883 0.7998,-0.165 0.5811,-0.5752 -0.5088,-0.4941 C 29.6787,11.9078 29.4824,11.483 29.2685,11.0465 H 28.833 v 0.4932 l 0.29,0.3291 v 0.7402" />
          </g>
        </g>
        <g
           style="color:#000000;display:inline;overflow:visible;visibility:visible;fill:url(#radialGradient1502);stroke-dashoffset:0;marker:none;marker-start:none;marker-mid:none;marker-end:none"
           id="g3258">
          <g
             style="color:#000000;display:inline;overflow:visible;visibility:visible;fill:url(#radialGradient1506);stroke-dashoffset:0;marker:none;marker-start:none;marker-mid:none;marker-end:none"
             id="g3262">
            <path
               inkscape:connector-curvature="0"
               style="color:#000000;display:inline;overflow:visible;visibility:visible;fill:url(#radialGradient1508);stroke-dashoffset:0;marker:none;marker-start:none;marker-mid:none;marker-end:none"
               id="path3264"
               d="m 18.3652,28.2422 -0.582,-1.1523 -1.0903,-0.2466 -0.5815,-1.5625 -1.4536,0.1641 -1.2354,-0.9043 -1.3091,1.1514 v 0.1816 c -0.396,-0.1143 -0.8828,-0.1299 -1.2354,-0.3467 l -0.291,-0.8223 v -0.9053 l -0.8721,0.082 c 0.0728,-0.5762 0.145,-1.1514 0.2183,-1.7275 H 9.4238 L 8.9155,22.812 8.4062,23.0581 7.6791,22.6479 7.6063,21.7426 7.7518,20.7553 8.8426,19.933 h 0.8721 l 0.145,-0.4941 1.0903,0.2461 0.7998,0.9883 0.1455,-1.6465 1.3813,-1.1514 0.5088,-1.2344 1.0176,-0.4111 0.5815,-0.8223 1.3081,-0.248 0.6548,-0.9863 c -0.6543,0 -1.3086,0 -1.9629,0 l 1.2358,-0.5762 h 0.8716 l 1.2363,-0.4121 0.1455,-0.4922 -0.4365,-0.4121 -0.5088,-0.165 0.1455,-0.4932 -0.3633,-0.7402 -0.8726,0.3281 0.1455,-0.6577 -1.0176,-0.5762 -0.7993,1.3979 0.0723,0.4941 -0.7993,0.3301 -0.5093,1.0693 -0.2178,-0.9873 -1.3813,-0.5762 -0.2183,-0.7402 1.8174,-1.0703 0.7998,-0.7402 0.0728,-0.9048 -0.436,-0.2471 -0.5815,-0.0825 -0.3633,0.9053 c 0,0 -0.6079,0.1191 -0.7642,0.1577 -1.9961,1.8394 -6.0293,5.8101 -6.9663,13.3062 0.0371,0.1738 0.6792,1.1816 0.6792,1.1816 l 1.5264,0.9043 1.5264,0.4121 0.6548,0.8232 1.0171,0.7402 0.5815,-0.082 0.436,0.1963 v 0.1328 l -0.5811,1.563 -0.4365,0.6582 0.1455,0.3301 -0.3633,1.2324 1.3086,2.3867 1.3081,1.1523 0.582,0.8223 -0.0732,1.7285 0.4365,0.9863 -0.4365,1.8926 c 0,0 -0.0342,-0.0117 0.0215,0.1777 0.0562,0.1895 2.3291,1.4512 2.4736,1.3438 0.144,-0.1094 0.2671,-0.2051 0.2671,-0.2051 l -0.145,-0.4102 0.5811,-0.5762 0.2183,-0.5762 0.9453,-0.3301 0.7266,-1.8105 -0.2178,-0.4922 0.5078,-0.7402 1.0908,-0.248 0.582,-1.3164 -0.1455,-1.6445 0.8721,-1.2344 0.1455,-1.2344 C 20.7331,29.4607 19.5495,28.8513 18.365,28.242" />
          </g>
        </g>
        <g
           style="color:#000000;display:inline;overflow:visible;visibility:visible;fill:url(#radialGradient1510);stroke-dashoffset:0;marker:none;marker-start:none;marker-mid:none;marker-end:none"
           id="g3266">
          <g
             style="color:#000000;display:inline;overflow:visible;visibility:visible;fill:url(#radialGradient1514);stroke-dashoffset:0;marker:none;marker-start:none;marker-mid:none;marker-end:none"
             id="g3270">
            <path
               inkscape:connector-curvature="0"
               style="color:#000000;display:inline;overflow:visible;visibility:visible;fill:url(#radialGradient1516);stroke-dashoffset:0;marker:none;marker-start:none;marker-mid:none;marker-end:none"
               id="path3272"
               d="m 16.7656,9.5649 0.7266,0.4937 h 0.582 V 9.4829 l -0.7266,-0.3291 -0.582,0.4111" />
          </g>
        </g>
        <g
           style="color:#000000;display:inline;overflow:visible;visibility:visible;fill:url(#radialGradient1518);stroke-dashoffset:0;marker:none;marker-start:none;marker-mid:none;marker-end:none"
           id="g3274">
          <g
             style="color:#000000;display:inline;overflow:visible;visibility:visible;fill:url(#radialGradient1522);stroke-dashoffset:0;marker:none;marker-start:none;marker-mid:none;marker-end:none"
             id="g3278">
            <path
               inkscape:connector-curvature="0"
               style="color:#000000;display:inline;overflow:visible;visibility:visible;fill:url(#radialGradient1524);stroke-dashoffset:0;marker:none;marker-start:none;marker-mid:none;marker-end:none"
               id="path3280"
               d="M 14.876,8.9072 14.5122,9.812 h 0.7271 L 15.6031,8.9892 C 15.9166,8.7675 16.2286,8.5444 16.5479,8.331 l 0.7271,0.2471 c 0.4844,0.3291 0.9688,0.6582 1.4536,0.9868 L 19.4561,8.9072 18.6558,8.5781 18.292,7.8374 16.9111,7.6728 16.8383,7.2612 16.184,7.4262 15.8936,8.002 15.5298,7.2613 l -0.145,0.3291 0.0728,0.8228 -0.5816,0.494" />
          </g>
        </g>
        <g
           style="color:#000000;display:inline;overflow:visible;visibility:visible;fill:url(#radialGradient1526);stroke-dashoffset:0;marker:none;marker-start:none;marker-mid:none;marker-end:none"
           id="g3282">
          <g
             id="g3284"
             style="color:#000000;display:inline;overflow:visible;visibility:visible;opacity:0.75;fill:url(#radialGradient1528);stroke-dashoffset:0;marker:none;marker-start:none;marker-mid:none;marker-end:none">
            <path
               inkscape:connector-curvature="0"
               id="path3286"
               style="color:#000000;display:inline;overflow:visible;visibility:visible;fill:url(#radialGradient1530);stroke-dashoffset:0;marker:none;marker-start:none;marker-mid:none;marker-end:none"
               d="" />
          </g>
          <g
             style="color:#000000;display:inline;overflow:visible;visibility:visible;fill:url(#radialGradient1532);stroke-dashoffset:0;marker:none;marker-start:none;marker-mid:none;marker-end:none"
             id="g3288">
            <path
               inkscape:connector-curvature="0"
               style="color:#000000;display:inline;overflow:visible;visibility:visible;fill:url(#radialGradient1534);stroke-dashoffset:0;marker:none;marker-start:none;marker-mid:none;marker-end:none"
               id="path3290"
               d="" />
          </g>
        </g>
        <g
           style="color:#000000;display:inline;overflow:visible;visibility:visible;fill:url(#radialGradient1536);stroke-dashoffset:0;marker:none;marker-start:none;marker-mid:none;marker-end:none"
           id="g3292">
          <g
             id="g3294"
             style="color:#000000;display:inline;overflow:visible;visibility:visible;opacity:0.75;fill:url(#radialGradient1538);stroke-dashoffset:0;marker:none;marker-start:none;marker-mid:none;marker-end:none">
            <path
               inkscape:connector-curvature="0"
               id="path3296"
               style="color:#000000;display:inline;overflow:visible;visibility:visible;fill:url(#radialGradient1540);stroke-dashoffset:0;marker:none;marker-start:none;marker-mid:none;marker-end:none"
               d="" />
          </g>
          <g
             style="color:#000000;display:inline;overflow:visible;visibility:visible;fill:url(#radialGradient1542);stroke-dashoffset:0;marker:none;marker-start:none;marker-mid:none;marker-end:none"
             id="g3298">
            <path
               inkscape:connector-curvature="0"
               style="color:#000000;display:inline;overflow:visible;visibility:visible;fill:url(#radialGradient1544);stroke-dashoffset:0;marker:none;marker-start:none;marker-mid:none;marker-end:none"
               id="path3300"
               d="" />
          </g>
        </g>
        <g
           style="color:#000000;display:inline;overflow:visible;visibility:visible;fill:url(#radialGradient1546);stroke-dashoffset:0;marker:none;marker-start:none;marker-mid:none;marker-end:none"
           id="g3302">
          <g
             style="color:#000000;display:inline;overflow:visible;visibility:visible;fill:url(#radialGradient1550);stroke-dashoffset:0;marker:none;marker-start:none;marker-mid:none;marker-end:none"
             id="g3306">
            <path
               inkscape:connector-curvature="0"
               style="color:#000000;display:inline;overflow:visible;visibility:visible;fill:url(#radialGradient1552);stroke-dashoffset:0;marker:none;marker-start:none;marker-mid:none;marker-end:none"
               id="path3308"
               d="M 17.4922,6.8496 17.856,6.521 18.5831,6.3564 c 0.498,-0.2422 0.998,-0.4053 1.5264,-0.5762 l -0.29,-0.4937 -0.9385,0.1348 -0.4434,0.4419 -0.731,0.106 -0.6499,0.3052 -0.3159,0.1528 -0.1929,0.2583 0.9443,0.1641" />
          </g>
        </g>
        <g
           style="color:#000000;display:inline;overflow:visible;visibility:visible;fill:url(#radialGradient1554);stroke-dashoffset:0;marker:none;marker-start:none;marker-mid:none;marker-end:none"
           id="g3310">
          <g
             style="color:#000000;display:inline;overflow:visible;visibility:visible;fill:url(#radialGradient1558);stroke-dashoffset:0;marker:none;marker-start:none;marker-mid:none;marker-end:none"
             id="g3314">
            <path
               inkscape:connector-curvature="0"
               style="color:#000000;display:inline;overflow:visible;visibility:visible;fill:url(#radialGradient4756);stroke-dashoffset:0;marker:none;marker-start:none;marker-mid:none;marker-end:none"
               id="path3316"
               d="m 18.7285,14.6665 0.4365,-0.6582 -0.6548,-0.4932 0.2183,1.1514" />
          </g>
        </g>
      </g>
      <path
         inkscape:connector-curvature="0"
         id="path4122"
         d="m 42.975093,23.485534 c 0,10.16582 -8.241178,18.406906 -18.4056,18.406906 -10.165354,0 -18.4060669,-8.241179 -18.4060669,-18.406906 0,-10.165354 8.2407129,-18.4056 18.4060669,-18.4056 10.164422,0 18.4056,8.240246 18.4056,18.4056 z"
         style="fill:none;fill-opacity:1;fill-rule:nonzero;stroke:url(#radialGradient4132);stroke-miterlimit:4;stroke-opacity:1" />
    </g>
  </g>
</svg>
