<?xml version="1.0" encoding="UTF-8" standalone="no"?>
<!-- Created with Inkscape (http://www.inkscape.org/) -->

<svg
   xmlns:dc="http://purl.org/dc/elements/1.1/"
   xmlns:cc="http://creativecommons.org/ns#"
   xmlns:rdf="http://www.w3.org/1999/02/22-rdf-syntax-ns#"
   xmlns:svg="http://www.w3.org/2000/svg"
   xmlns="http://www.w3.org/2000/svg"
   xmlns:xlink="http://www.w3.org/1999/xlink"
   xmlns:sodipodi="http://sodipodi.sourceforge.net/DTD/sodipodi-0.dtd"
   xmlns:inkscape="http://www.inkscape.org/namespaces/inkscape"
   width="16"
   height="16"
   viewBox="0 0 16 16"
   id="svg12279"
   version="1.1"
   inkscape:version="0.91 r13725"
   sodipodi:docname="gimp-prefs-folders.svg">
  <defs
     id="defs12281">
    <linearGradient
       inkscape:collect="always"
       xlink:href="#linearGradient3096"
       id="linearGradient11996"
       gradientUnits="userSpaceOnUse"
       x1="18.112709"
       y1="31.36775"
       x2="15.514889"
       y2="6.1802502" />
    <linearGradient
       id="linearGradient3096">
      <stop
         id="stop3098"
         stop-color="#424242" />
      <stop
         id="stop3100"
         offset="1"
         stop-color="#777777" />
    </linearGradient>
    <linearGradient
       inkscape:collect="always"
       xlink:href="#linearGradient9766"
       id="linearGradient11998"
       gradientUnits="userSpaceOnUse"
       x1="22.175976"
       y1="36.987999"
       x2="22.065331"
       y2="32.050499" />
    <linearGradient
       id="linearGradient9766">
      <stop
         id="stop9768"
         stop-color="#6194cb" />
      <stop
         offset="1"
         id="stop9770"
         stop-color="#729fcf" />
    </linearGradient>
    <linearGradient
       inkscape:collect="always"
       xlink:href="#linearGradient8340"
       id="linearGradient12000"
       gradientUnits="userSpaceOnUse"
       gradientTransform="matrix(1.317489,0,0,0.816256,-0.879573,-1.318166)"
       x1="13.035696"
       y1="32.567184"
       x2="12.853771"
       y2="46.689312" />
    <linearGradient
       id="linearGradient8340">
      <stop
         id="stop8342"
         stop-color="#ffffff"
         stop-opacity="0.796078" />
      <stop
         id="stop8344"
         offset="1"
         stop-color="#ffffff"
         stop-opacity="0.215686" />
    </linearGradient>
    <linearGradient
       inkscape:collect="always"
       xlink:href="#linearGradient3096"
       id="linearGradient12947"
       gradientUnits="userSpaceOnUse"
       x1="18.112709"
       y1="31.36775"
       x2="15.514889"
       y2="6.1802502" />
    <linearGradient
       inkscape:collect="always"
       xlink:href="#linearGradient9766"
       id="linearGradient12949"
       gradientUnits="userSpaceOnUse"
       x1="22.175976"
       y1="36.987999"
       x2="22.065331"
       y2="32.050499" />
    <linearGradient
       inkscape:collect="always"
       xlink:href="#linearGradient8340"
       id="linearGradient12951"
       gradientUnits="userSpaceOnUse"
       gradientTransform="matrix(1.317489,0,0,0.816256,-0.879573,-1.318166)"
       x1="13.035696"
       y1="32.567184"
       x2="12.853771"
       y2="46.689312" />
  </defs>
  <sodipodi:namedview
     id="base"
     pagecolor="#ffffff"
     bordercolor="#666666"
     borderopacity="1.0"
     inkscape:pageopacity="0.0"
     inkscape:pageshadow="2"
     inkscape:zoom="5.6"
     inkscape:cx="15.833642"
     inkscape:cy="4.5203051"
     inkscape:document-units="px"
     inkscape:current-layer="layer1"
     showgrid="false"
     units="px"
     inkscape:window-width="1366"
     inkscape:window-height="741"
     inkscape:window-x="0"
     inkscape:window-y="27"
     inkscape:window-maximized="1" />
  <metadata
     id="metadata12284">
    <rdf:RDF>
      <cc:Work
         rdf:about="">
        <dc:format>image/svg+xml</dc:format>
        <dc:type
           rdf:resource="http://purl.org/dc/dcmitype/StillImage" />
        <dc:title></dc:title>
      </cc:Work>
    </rdf:RDF>
  </metadata>
  <g
     inkscape:label="Layer 1"
     inkscape:groupmode="layer"
     id="layer1"
     transform="translate(0,-1036.3622)">
    <g
       style="display:inline"
       id="gimp-prefs-folders"
       transform="matrix(0.99257239,0,0,1,-720.48951,916.36226)"
       inkscape:export-filename="/home/jehan/dev/src/gimp/icons/Color/16/gimp-prefs-folders.png"
       inkscape:export-xdpi="90"
       inkscape:export-ydpi="90">
      <rect
         y="119.99994"
         x="726.00006"
         height="16"
         width="16"
         id="rect11940"
         style="opacity:1;fill:none;fill-opacity:1;fill-rule:evenodd;stroke:none;stroke-width:4;stroke-miterlimit:4;stroke-dasharray:none;stroke-opacity:1" />
      <g
         id="folder-6-1"
         style="display:inline"
         transform="matrix(0.67991151,0,0,0.68749929,1173.0016,-84.187286)">
        <g
           style="display:inline"
           id="folder-1-9-7"
           transform="matrix(0.39062662,0,0,0.40095619,-651.18627,295.95889)"
           inkscape:label="">
          <path
             sodipodi:nodetypes="ccccccssssccc"
             style="fill:#ffffff;fill-opacity:1;fill-rule:nonzero;stroke:url(#linearGradient12947);stroke-width:1.468027;stroke-linecap:round;stroke-linejoin:round;stroke-miterlimit:4;stroke-dasharray:none;stroke-opacity:1"
             id="path216-5-6-1-9"
             d="m 4.5217805,38.687417 c 0.021796,0.416304 0.4599049,0.832609 0.8762095,0.832609 l 31.327021,0 c 0.416302,0 0.810812,-0.416305 0.789016,-0.832609 L 36.577584,11.460682 c -0.0218,-0.416303 -0.459897,-0.832616 -0.876201,-0.832616 l -13.270873,0 c -0.485057,0 -1.234473,-0.315589 -1.401644,-1.1066322 L 20.417475,6.6283628 C 20.262006,5.8926895 19.535261,5.5904766 19.118957,5.5904766 l -14.7788595,0 c -0.4163128,0 -0.8108208,0.4163041 -0.7890249,0.8326083 z"
             inkscape:connector-curvature="0" />
          <path
             inkscape:export-ydpi="74.800003"
             inkscape:export-xdpi="74.800003"
             inkscape:export-filename="/home/jimmac/ximian_art/icons/nautilus/suse93/gnome-fs-directory.png"
             sodipodi:nodetypes="cscccscc"
             id="path233-5-05-2-2"
             d="m 39.783532,39.51062 c 1.143894,-0.04406 1.963076,-1.096299 2.047035,-2.321005 0.791787,-11.548687 1.65936,-21.231949 1.65936,-21.231949 0.07215,-0.247484 -0.167911,-0.494967 -0.48014,-0.494967 l -34.3711566,0 c 0,0 -1.8503191,21.866892 -1.8503191,21.866892 -0.1145551,0.982066 -0.4660075,1.804718 -1.5498358,2.183713 l 34.5450565,-0.0027 z"
             style="color:#000000;display:block;visibility:visible;fill:url(#linearGradient12949);fill-opacity:1;fill-rule:nonzero;stroke:#3465a4;stroke-width:1.468027;stroke-linecap:butt;stroke-linejoin:round;stroke-miterlimit:4;stroke-dasharray:none;stroke-dashoffset:0;stroke-opacity:1;marker:none;marker-start:none;marker-mid:none;marker-end:none"
             inkscape:connector-curvature="0" />
          <path
             style="opacity:0.46590911;fill:none;fill-opacity:1;fill-rule:evenodd;stroke:url(#linearGradient12951);stroke-width:1.46802664px;stroke-linecap:round;stroke-linejoin:miter;stroke-opacity:1"
             d="m 9.6202444,16.463921 32.7910986,0.06481 -1.574046,20.001979 c -0.08432,1.071511 -0.450678,1.428215 -1.872656,1.428215 -1.871502,0 -28.677968,-0.03241 -31.394742,-0.03241 0.2335983,-0.320811 0.3337557,-0.988623 0.3350963,-1.004612 z"
             id="path304-3-72-7-0"
             sodipodi:nodetypes="ccsscsc"
             inkscape:connector-curvature="0" />
        </g>
      </g>
      <g
         id="folder-6"
         style="display:inline"
         transform="matrix(0.68749929,0,0,0.68749929,1172.8138,-79.187297)">
        <rect
           style="opacity:1;fill:none;fill-opacity:1;fill-rule:evenodd;stroke:none;stroke-width:4;stroke-miterlimit:4;stroke-dasharray:none;stroke-opacity:1"
           id="rect11969-2"
           width="16"
           height="16"
           x="-649.99994"
           y="296.99994" />
        <g
           style="display:inline"
           id="folder-1-9"
           transform="matrix(0.39058603,0,0,0.40095619,-651.18613,295.95889)"
           inkscape:label="">
          <path
             sodipodi:nodetypes="ccccccssssccc"
             style="fill:#ffffff;fill-opacity:1;fill-rule:nonzero;stroke:url(#linearGradient11996);stroke-width:1.45997918;stroke-linecap:round;stroke-linejoin:round;stroke-miterlimit:4;stroke-dasharray:none;stroke-opacity:1"
             id="path216-5-6-1"
             d="m 4.5217805,38.687417 c 0.021796,0.416304 0.4599049,0.832609 0.8762095,0.832609 l 31.327021,0 c 0.416302,0 0.810812,-0.416305 0.789016,-0.832609 L 36.577584,11.460682 c -0.0218,-0.416303 -0.459897,-0.832616 -0.876201,-0.832616 l -13.270873,0 c -0.485057,0 -1.234473,-0.315589 -1.401644,-1.1066322 L 20.417475,6.6283628 C 20.262006,5.8926895 19.535261,5.5904766 19.118957,5.5904766 l -14.7788595,0 c -0.4163128,0 -0.8108208,0.4163041 -0.7890249,0.8326083 z"
             inkscape:connector-curvature="0" />
          <path
             inkscape:export-ydpi="74.800003"
             inkscape:export-xdpi="74.800003"
             inkscape:export-filename="/home/jimmac/ximian_art/icons/nautilus/suse93/gnome-fs-directory.png"
             sodipodi:nodetypes="cscccscc"
             id="path233-5-05-2"
             d="m 39.783532,39.51062 c 1.143894,-0.04406 1.963076,-1.096299 2.047035,-2.321005 0.791787,-11.548687 1.65936,-21.231949 1.65936,-21.231949 0.07215,-0.247484 -0.167911,-0.494967 -0.48014,-0.494967 l -34.3711566,0 c 0,0 -1.8503191,21.866892 -1.8503191,21.866892 -0.1145551,0.982066 -0.4660075,1.804718 -1.5498358,2.183713 l 34.5450565,-0.0027 z"
             style="color:#000000;display:block;visibility:visible;fill:url(#linearGradient11998);fill-opacity:1;fill-rule:nonzero;stroke:#3465a4;stroke-width:1.45997918;stroke-linecap:butt;stroke-linejoin:round;stroke-miterlimit:4;stroke-dasharray:none;stroke-dashoffset:0;stroke-opacity:1;marker:none;marker-start:none;marker-mid:none;marker-end:none"
             inkscape:connector-curvature="0" />
          <path
             style="opacity:0.46590911;fill:none;fill-opacity:1;fill-rule:evenodd;stroke:url(#linearGradient12000);stroke-width:1.45997882px;stroke-linecap:round;stroke-linejoin:miter;stroke-opacity:1"
             d="m 9.6202444,16.463921 32.7910986,0.06481 -1.574046,20.001979 c -0.08432,1.071511 -0.450678,1.428215 -1.872656,1.428215 -1.871502,0 -28.677968,-0.03241 -31.394742,-0.03241 0.2335983,-0.320811 0.3337557,-0.988623 0.3350963,-1.004612 z"
             id="path304-3-72-7"
             sodipodi:nodetypes="ccsscsc"
             inkscape:connector-curvature="0" />
        </g>
      </g>
    </g>
  </g>
</svg>
