<?xml version="1.0" encoding="UTF-8" standalone="no"?>
<svg
   xmlns:osb="http://www.openswatchbook.org/uri/2009/osb"
   xmlns:dc="http://purl.org/dc/elements/1.1/"
   xmlns:cc="http://creativecommons.org/ns#"
   xmlns:rdf="http://www.w3.org/1999/02/22-rdf-syntax-ns#"
   xmlns:svg="http://www.w3.org/2000/svg"
   xmlns="http://www.w3.org/2000/svg"
   xmlns:xlink="http://www.w3.org/1999/xlink"
   xmlns:sodipodi="http://sodipodi.sourceforge.net/DTD/sodipodi-0.dtd"
   xmlns:inkscape="http://www.inkscape.org/namespaces/inkscape"
   viewBox="0 0 15.999999 16"
   id="svg7384"
   height="16"
   width="16"
   version="1.1"
   inkscape:version="0.91 r13725"
   sodipodi:docname="gimp-prefs-folders-fonts.svg">
  <sodipodi:namedview
     pagecolor="#ffffff"
     bordercolor="#666666"
     borderopacity="1"
     objecttolerance="10"
     gridtolerance="10"
     guidetolerance="10"
     inkscape:pageopacity="0"
     inkscape:pageshadow="2"
     inkscape:window-width="640"
     inkscape:window-height="480"
     id="namedview1507"
     showgrid="false"
     inkscape:zoom="14.75"
     inkscape:cx="-770.15251"
     inkscape:cy="-55.38672"
     inkscape:window-x="0"
     inkscape:window-y="27"
     inkscape:window-maximized="0"
     inkscape:current-layer="svg7384" />
  <metadata
     id="metadata90">
    <rdf:RDF>
      <cc:Work
         rdf:about="">
        <dc:format>image/svg+xml</dc:format>
        <dc:type
           rdf:resource="http://purl.org/dc/dcmitype/StillImage" />
        <dc:title />
        <dc:contributor>
          <cc:Agent>
            <dc:title>Barbara Muraus, Jakub Steiner, Klaus Staedtler</dc:title>
          </cc:Agent>
        </dc:contributor>
        <dc:description>Images originally created as the &quot;Art Libre&quot; icon set. Extended and adopted for GIMP</dc:description>
      </cc:Work>
    </rdf:RDF>
  </metadata>
  <defs
     id="defs7386">
    <linearGradient
       osb:paint="solid"
       id="linearGradient8074">
      <stop
         id="stop8072"
         offset="0"
         style="stop-color:#be00be;stop-opacity:1;" />
    </linearGradient>
    <linearGradient
       osb:paint="solid"
       id="linearGradient7561">
      <stop
         id="stop7558"
         offset="0"
         style="stop-color:#a5a5a5;stop-opacity:1;" />
    </linearGradient>
    <linearGradient
       osb:paint="solid"
       id="linearGradient7548">
      <stop
         id="stop7546"
         offset="0"
         style="stop-color:#ebebeb;stop-opacity:1;" />
    </linearGradient>
    <linearGradient
       osb:paint="solid"
       id="linearGradient7542">
      <stop
         id="stop7538"
         offset="0"
         style="stop-color:#c9c9c9;stop-opacity:1;" />
    </linearGradient>
    <linearGradient
       gradientTransform="matrix(0,-735328.32,170712.69,0,2464326300,577972450)"
       osb:paint="solid"
       id="linearGradient19282">
      <stop
         id="stop19284"
         offset="0"
         style="stop-color:#b4b4b4;stop-opacity:1;" />
    </linearGradient>
    <linearGradient
       gradientTransform="matrix(0.34682586,0,0,0.30620888,-99.35207,801.03851)"
       osb:paint="solid"
       id="linearGradient19282-4">
      <stop
         id="stop19284-0"
         offset="0"
         style="stop-color:#bebebe;stop-opacity:1;" />
    </linearGradient>
    <linearGradient
       gradientTransform="translate(833.15251,399.52469)"
       gradientUnits="userSpaceOnUse"
       y2="-32"
       x2="71"
       y1="-32"
       x1="55"
       id="linearGradient8316"
       xlink:href="#linearGradient19282-4" />
  </defs>
  <g
     transform="translate(-219.8319,-241.52469)"
     style="display:inline"
     id="preferences">
    <g
       transform="translate(164.8319,281.52469)"
       id="gimp-prefs-folders-fonts">
      <path
         style="display:inline;fill:url(#linearGradient8316);fill-opacity:1;stroke:none"
         d="M 55.53125,-40 C 55.24212,-40 55,-39.75785 55,-39.46875 l 0,14.9375 C 55,-24.23275 55.23264,-24 55.53125,-24 l 14.9375,0 C 70.76735,-24 71,-24.23265 71,-24.53125 l 0,-9.9375 C 71,-34.75775 70.75788,-35 70.46875,-35 L 58,-35 l 0,8.5 c 0,0.277 -0.223,0.5 -0.5,0.5 -0.277,0 -0.5,-0.223 -0.5,-0.5 l 0,-9 c 0,-0.277 0.223,-0.5 0.5,-0.5 l 2.96875,0 8.53125,0 0,-1.40625 C 69,-37.73335 68.73334,-38 68.40625,-38 L 61,-38 61,-39.46875 C 61,-39.75785 60.75788,-40 60.46875,-40 Z M 62,-34 l 3.90625,0.03125 0.0625,0 c 0.551829,0.04493 1.099741,0.271151 1.46875,0.625 C 67.806506,-32.989919 68,-32.518643 68,-32 l 0,5 0,2 -0.75,0 -5.25,0 c -3,0 -3,-6 0,-6 l 2,0 2,0 -0.03125,-0.25 c -3.77e-4,-0.02141 8.77e-4,-0.04249 0,-0.0625 -0.01157,-0.26362 -0.132627,-0.4174 -0.21875,-0.5 C 65.6574,-31.90126 65.534995,-31.9818 65.3125,-32 L 62,-32 Z m 1,5 c -0.554,0 -1,0.446 -1,1 0,0.554 0.446,1 1,1 l 3,0 0,-2 z"
         id="path14416"
         inkscape:connector-curvature="0" />
    </g>
  </g>
</svg>
