<?xml version="1.0" encoding="UTF-8" standalone="no"?>
<!-- Created with Inkscape (http://www.inkscape.org/) -->

<svg
   xmlns:dc="http://purl.org/dc/elements/1.1/"
   xmlns:cc="http://creativecommons.org/ns#"
   xmlns:rdf="http://www.w3.org/1999/02/22-rdf-syntax-ns#"
   xmlns:svg="http://www.w3.org/2000/svg"
   xmlns="http://www.w3.org/2000/svg"
   xmlns:sodipodi="http://sodipodi.sourceforge.net/DTD/sodipodi-0.dtd"
   xmlns:inkscape="http://www.inkscape.org/namespaces/inkscape"
   id="svg7384"
   height="16"
   width="16"
   version="1.1"
   sodipodi:docname="media-seek-backward-symbolic.svg"
   viewBox="0 0 16 16"
   inkscape:version="0.92pre1 unknown">
  <defs
     id="defs11" />
  <sodipodi:namedview
     pagecolor="#ffffff"
     bordercolor="#666666"
     borderopacity="1"
     objecttolerance="10"
     gridtolerance="10"
     guidetolerance="10"
     inkscape:pageopacity="0"
     inkscape:pageshadow="2"
     inkscape:window-width="1920"
     inkscape:window-height="1016"
     id="namedview9"
     showgrid="false"
     inkscape:zoom="43.1875"
     inkscape:cx="6.128518"
     inkscape:cy="7.8494935"
     inkscape:window-x="0"
     inkscape:window-y="27"
     inkscape:window-maximized="1"
     inkscape:current-layer="svg7384" />
  <metadata
     id="metadata90">
    <rdf:RDF>
      <cc:Work
         rdf:about="">
        <dc:format>image/svg+xml</dc:format>
        <dc:type
           rdf:resource="http://purl.org/dc/dcmitype/StillImage" />
        <dc:title>Gnome Symbolic Icon Theme</dc:title>
      </cc:Work>
    </rdf:RDF>
  </metadata>
  <title
     id="title9167">Gnome Symbolic Icon Theme</title>
  <g
     id="g4251">
    <g
       transform="translate(-60,-606)"
       id="layer12">
      <g
         transform="translate(40,119)"
         id="g3940">
        <path
           inkscape:connector-curvature="0"
           d="m 34,491 c -0.17738,0.008 -0.35117,0.0592 -0.5,0.15625 l -5,3 c -0.2824,0.17971 -0.4375,0.51173 -0.4375,0.84375 0,0.33202 0.1551,0.66404 0.4375,0.84375 l 5,3 c 0.14883,0.097 0.32262,0.14825 0.5,0.15625 H 34.15625 35 v -8 h -0.84375 z"
           style="color:#000000;text-indent:0;text-transform:none;fill:#bebebe"
           id="path3807-1-1-4-7-2" />
        <path
           inkscape:connector-curvature="0"
           d="m 27,491 c -0.17738,0.008 -0.35117,0.0592 -0.5,0.15625 l -5,3 c -0.2824,0.17971 -0.4375,0.51173 -0.4375,0.84375 0,0.33202 0.1551,0.66404 0.4375,0.84375 l 5,3 c 0.14883,0.097 0.32262,0.14825 0.5,0.15625 H 27.15625 28 v -8 h -0.84375 z"
           style="color:#000000;text-indent:0;text-transform:none;fill:#bebebe"
           id="path3807-1-1-4-7-2-0" />
      </g>
    </g>
  </g>
</svg>
