<?xml version="1.0" encoding="UTF-8" standalone="no"?>
<!-- Created with Inkscape (http://www.inkscape.org/) -->

<svg
   xmlns:dc="http://purl.org/dc/elements/1.1/"
   xmlns:cc="http://creativecommons.org/ns#"
   xmlns:rdf="http://www.w3.org/1999/02/22-rdf-syntax-ns#"
   xmlns:svg="http://www.w3.org/2000/svg"
   xmlns="http://www.w3.org/2000/svg"
   xmlns:sodipodi="http://sodipodi.sourceforge.net/DTD/sodipodi-0.dtd"
   xmlns:inkscape="http://www.inkscape.org/namespaces/inkscape"
   id="svg7384"
   height="16"
   width="16"
   version="1.1"
   sodipodi:docname="system-run-symbolic.svg"
   viewBox="0 0 16 16"
   inkscape:version="0.92pre1 unknown">
  <defs
     id="defs10" />
  <sodipodi:namedview
     pagecolor="#ffffff"
     bordercolor="#666666"
     borderopacity="1"
     objecttolerance="10"
     gridtolerance="10"
     guidetolerance="10"
     inkscape:pageopacity="0"
     inkscape:pageshadow="2"
     inkscape:window-width="1920"
     inkscape:window-height="1016"
     id="namedview8"
     showgrid="true"
     inkscape:zoom="43.1875"
     inkscape:cx="6.0015585"
     inkscape:cy="7.8494935"
     inkscape:window-x="0"
     inkscape:window-y="27"
     inkscape:window-maximized="1"
     inkscape:current-layer="svg7384">
    <inkscape:grid
       type="xygrid"
       id="grid4233" />
  </sodipodi:namedview>
  <metadata
     id="metadata90">
    <rdf:RDF>
      <cc:Work
         rdf:about="">
        <dc:format>image/svg+xml</dc:format>
        <dc:type
           rdf:resource="http://purl.org/dc/dcmitype/StillImage" />
        <dc:title>Gnome Symbolic Icon Theme</dc:title>
      </cc:Work>
    </rdf:RDF>
  </metadata>
  <title
     id="title9167">Gnome Symbolic Icon Theme</title>
  <g
     id="g4251">
    <g
       transform="matrix(1.0021279,0,0,1.0147305,-61.038528,-697.37237)"
       id="layer12">
      <path
         inkscape:connector-curvature="0"
         d="m 72.375,687.25 c -0.23994,0.43525 -0.46762,1.0058 -0.71875,1.4375 -0.09387,-0.007 -0.18571,-0.0313 -0.28125,-0.0313 -0.33226,0 -0.66009,0.0487 -0.96875,0.125 -0.30502,-0.3828 -0.63034,-0.89813 -0.9375,-1.2812 -0.2846,0.10504 -0.55227,0.22648 -0.8125,0.375 0.09593,0.48262 0.2769,1.071 0.375,1.5625 -0.343,0.24882 -0.62618,0.532 -0.875,0.875 -0.49145,-0.0981 -1.0799,-0.27907 -1.5625,-0.375 -0.14852,0.26023 -0.26996,0.5279 -0.375,0.8125 0.38312,0.30716 0.89845,0.63248 1.2812,0.9375 -0.07635,0.30866 -0.125,0.6365 -0.125,0.96875 0,0.0955 0.02466,0.18738 0.03125,0.28125 -0.43174,0.25113 -1.0022,0.47881 -1.4375,0.71875 0.05124,0.27476 0.1283,0.55374 0.21875,0.8125 0.4914,-0.01 1.0995,-0.0946 1.5938,-0.0937 0.18712,0.39176 0.42053,0.75381 0.71875,1.0625 -0.17204,0.46783 -0.44812,1.0086 -0.625,1.4688 0.2129,0.1757 0.4495,0.32623 0.6875,0.46875 0.36921,-0.32011 0.77542,-0.77147 1.1562,-1.0938 0.37804,0.17256 0.78862,0.26529 1.2188,0.3125 0.16454,0.47676 0.30428,1.0881 0.46875,1.5625 0.30154,-0.002 0.5868,-0.0141 0.875,-0.0625 0.08055,-0.49291 0.11037,-1.1186 0.1875,-1.625 0.41009,-0.11684 0.81134,-0.26698 1.1562,-0.5 0.42433,0.26446 0.89887,0.62889 1.3125,0.875 0.22374,-0.19067 0.43433,-0.40126 0.625,-0.625 -0.24611,-0.41363 -0.61054,-0.88817 -0.875,-1.3125 0.23302,-0.34491 0.38316,-0.74616 0.5,-1.1562 0.50645,-0.0771 1.1321,-0.10695 1.625,-0.1875 0.04835,-0.2882 0.06081,-0.57346 0.0625,-0.875 -0.47442,-0.16447 -1.0857,-0.30421 -1.5625,-0.46875 -0.047,-0.43 -0.139,-0.84 -0.312,-1.22 0.32228,-0.38083 0.77364,-0.78704 1.0938,-1.1562 -0.14252,-0.238 -0.29305,-0.4746 -0.46875,-0.6875 -0.46015,0.17688 -1.0009,0.45296 -1.4688,0.625 -0.30869,-0.29822 -0.67074,-0.53162 -1.0625,-0.71875 -8.87e-4,-0.49426 0.08396,-1.1024 0.09375,-1.5938 -0.25876,-0.0904 -0.53774,-0.16751 -0.8125,-0.21875 z m -1,3.4062 c 1.1046,0 2,0.89543 2,2 0,1.10457 -0.89543,2 -2,2 -1.10457,0 -2,-0.89543 -2,-2 0,-1.10457 0.89543,-2 2,-2 z"
         style="color:#000000;fill:#bebebe"
         id="path42961" />
      <path
         inkscape:connector-curvature="0"
         d="m 64.688,694.75 c -0.23014,0.0471 -0.44391,0.13096 -0.65625,0.21875 -0.01671,0.62433 0.08693,1.4418 -0.15625,1.6562 -0.23896,0.21077 -1.0384,0.0343 -1.6562,-0.0313 -0.13139,0.23649 -0.23526,0.48523 -0.3125,0.75 0.47809,0.39586 1.1405,0.83901 1.1562,1.1562 0.01594,0.32119 -0.62642,0.80489 -1.0625,1.25 0.10339,0.25783 0.25014,0.49354 0.40625,0.71875 0.60832,-0.12641 1.3664,-0.37354 1.625,-0.1875 0.26331,0.18942 0.26521,1.0054 0.34375,1.625 0.24955,0.075 0.51251,0.1045 0.78125,0.125 0.28135,-0.55462 0.56741,-1.3198 0.875,-1.4062 0.31575,-0.0887 0.96354,0.45813 1.5,0.78125 0.21871,-0.1516 0.41293,-0.33706 0.59375,-0.53125 -0.25384,-0.57232 -0.72108,-1.2919 -0.59375,-1.5938 0.12745,-0.30211 0.9754,-0.46963 1.5625,-0.6875 0.0044,-0.0735 0.03125,-0.14414 0.03125,-0.21875 0,-0.19137 -0.0344,-0.37899 -0.0625,-0.5625 -0.6061,-0.16082 -1.4672,-0.2413 -1.625,-0.53125 -0.15674,-0.28801 0.24179,-1.0614 0.4375,-1.6562 -0.20116,-0.17858 -0.41941,-0.33716 -0.65625,-0.46875 -0.50089,0.37513 -1.0843,0.99436 -1.4062,0.9375 -0.31689,-0.056 -0.66289,-0.81955 -1,-1.3438 -0.04019,0.007 -0.08527,-0.008 -0.125,0 z m 0.625,1.875 c 0.93198,0 1.6875,0.75552 1.6875,1.6875 0,0.93198 -0.75552,1.6875 -1.6875,1.6875 -0.93198,0 -1.6875,-0.75552 -1.6875,-1.6875 0,-0.93198 0.75552,-1.6875 1.6875,-1.6875 z"
         style="color:#000000;fill:#bebebe"
         id="path42972" />
    </g>
  </g>
</svg>
