<?xml version="1.0" encoding="UTF-8" standalone="no"?>
<svg
   width="16"
   height="16"
   fill="none"
   version="1.1"
   id="svg1"
   xmlns="http://www.w3.org/2000/svg"
   xmlns:svg="http://www.w3.org/2000/svg">
  <defs
     id="defs1" />
  <path
     fill="#DCDCDC"
     fill-rule="evenodd"
     d="M4 1C2.34315 1 1 2.34315 1 4v8c0 1.6569 1.34315 3 3 3h8c1.6569 0 3-1.3431 3-3V4c0-1.65685-1.3431-3-3-3H4ZM3 5c0-1.10457.89543-2 2-2h6c1.1046 0 2 .89543 2 2v1.20255C12.7467 6.07307 12.4599 6 12.1562 6c-.4367 0-.8386.15118-1.1562.40397V5H5v6h1.40397C6.15118 11.3176 6 11.7195 6 12.1562c0 .3037.07307.5905.20255.8438H5c-1.10457 0-2-.8954-2-2V5Zm4.85937 8.0156h5.15623V7.85938c0-.47333-.386-.85938-.8594-.85938-.4733 0-.8593.38605-.8593.85938v2.22232L8.46698 7.25177c-.33569-.33569-.87952-.33569-1.21521 0-.33106.33106-.33106.88415 0 1.21521l2.82993 2.82992H7.85938c-.47333 0-.85938.386-.85938.8593 0 .4734.38605.8594.85937.8594Z"
     clip-rule="evenodd"
     id="path1" />
</svg>
