<?xml version="1.0" encoding="UTF-8" standalone="no"?>
<svg
   width="16"
   height="16"
   fill="none"
   version="1.1"
   id="svg19"
   xmlns="http://www.w3.org/2000/svg"
   xmlns:svg="http://www.w3.org/2000/svg">
  <path
     fill="url(#a)"
     d="M0 4c0-2.20914 1.79086-4 4-4h8c2.2091 0 4 1.79086 4 4v8c0 2.2091-1.7909 4-4 4H4c-2.20914 0-4-1.7909-4-4V4Z"
     id="path1" />
  <path
     fill="url(#b)"
     d="M 1,4 C 1,2.34315 2.34315,1 4,1 h 8 c 1.6569,0 3,1.34315 3,3 v 8 c 0,1.6569 -1.3431,3 -3,3 H 4 C 2.34315,15 1,13.6569 1,12 Z"
     id="path2" />
  <path
     fill="url(#c)"
     fill-rule="evenodd"
     d="M.5 4C.5 2.067 2.067.5 4 .5h8c1.933 0 3.5 1.567 3.5 3.5v8c0 1.933-1.567 3.5-3.5 3.5H4C2.067 15.5.5 13.933.5 12V4ZM1 4c0-1.65685 1.34315-3 3-3h8c1.6569 0 3 1.34315 3 3v8c0 1.6569-1.3431 3-3 3H4c-1.65685 0-3-1.3431-3-3V4Z"
     clip-rule="evenodd"
     id="path3" />
  <path
     fill="#7B7D78"
     d="M4 4h8v2.59263l1-.99905V3H3v10h2.58411l1.00551-1H4V4Z"
     id="path4" />
  <path
     fill="url(#d)"
     fill-opacity=".45"
     d="M3.5 3.5v9h2.58687l.50275-.5H4V4h8v2.59263l.5-.49952V3.5h-9Z"
     id="path5" />
  <path
     fill="#ffffff"
     d="M 6.5,13.5 H 13 V 13 H 7 Z M 5.5820312,13 H 3 v 0.5 h 2.0820312 z"
     id="path6" />
  <path
     fill="#7B7D78"
     d="M13 7v6H7l2.25492-2.2549L7.3551 8.85355c-.19599-.19513-.19634-.51231-.00077-.70788l.79411-.79411c.19448-.19448.50952-.19537.7051-.00199l1.90916 1.88772L13 7Z"
     id="path7" />
  <path
     fill="url(#e)"
     fill-opacity=".5"
     d="M13 7v6H7l2.25492-2.2549L7.3551 8.85355c-.19599-.19513-.19634-.51231-.00077-.70788l.79411-.79411c.19448-.19448.50952-.19537.7051-.00199l1.90916 1.88772L13 7Z"
     id="path8" />
  <path
     fill="#23456F"
     fill-opacity=".4"
     fill-rule="evenodd"
     d="M13 13V7l-2.2373 2.23729-1.90916-1.88772c-.19558-.19338-.51062-.19249-.7051.00199l-.79411.79411c-.19557.19557-.19522.51275.00077.70788l1.89982 1.89155L7 13h6Zm-.4998-.4999V8.2l-1.6324 1.64088-.1078.10834-.1087-.10834-2.14784-2.14093-.80326.79999L9.95 10.75 8.2 12.5001h4.3002Z"
     clip-rule="evenodd"
     id="path9" />
  <defs
     id="defs19">
    <linearGradient
       id="a"
       x1="8"
       x2="8"
       y1="0"
       y2="16"
       gradientUnits="userSpaceOnUse">
      <stop
         stop-color="#A6AAA2"
         id="stop9" />
      <stop
         offset="1"
         stop-color="#6B6D69"
         id="stop10" />
    </linearGradient>
    <linearGradient
       id="b"
       x1="8"
       x2="8"
       y1="1"
       y2="15"
       gradientUnits="userSpaceOnUse">
      <stop
         stop-color="#fff"
         id="stop11" />
      <stop
         offset=".5"
         stop-color="#DDDDDB"
         id="stop12" />
      <stop
         offset="1"
         stop-color="#F5F5F5"
         id="stop13" />
    </linearGradient>
    <linearGradient
       id="c"
       x1="8"
       x2="8"
       y1=".5"
       y2="15.5"
       gradientUnits="userSpaceOnUse">
      <stop
         stop-color="#fff"
         id="stop14" />
      <stop
         offset="1"
         stop-color="#fff"
         stop-opacity=".7"
         id="stop15" />
    </linearGradient>
    <linearGradient
       id="d"
       x1="8"
       x2="8"
       y1="-5.5"
       y2="21.5"
       gradientUnits="userSpaceOnUse">
      <stop
         stop-color="#fff"
         id="stop16" />
      <stop
         offset="1"
         stop-color="#fff"
         stop-opacity=".75"
         id="stop17" />
    </linearGradient>
    <linearGradient
       id="e"
       x1="12.5178"
       x2="10.5254"
       y1="10.5749"
       y2="8.36518"
       gradientUnits="userSpaceOnUse">
      <stop
         stop-color="#3B6CA9"
         id="stop18" />
      <stop
         offset="1"
         stop-color="#6190C4"
         id="stop19" />
    </linearGradient>
  </defs>
</svg>
