<?xml version="1.0" encoding="UTF-8" standalone="no"?>
<svg
   width="16"
   height="16"
   fill="none"
   version="1.1"
   id="svg2"
   xmlns="http://www.w3.org/2000/svg"
   xmlns:svg="http://www.w3.org/2000/svg">
  <defs
     id="defs2" />
  <path
     fill="#DCDCDC"
     d="M4 1C2.35547 1 1 2.35547 1 4v8c0 1.6445 1.35547 3 3 3h1c.55078 0 1-.4492 1-1s-.44922-1-1-1H4c-.57031 0-1-.4297-1-1V6c0-.55469.44531-1 1-1h9c0 .55078.4492 1 1 1s1-.44922 1-1V4c0-1.64453-1.3555-3-3-3H4Z"
     id="path1" />
  <path
     fill="#DCDCDC"
     d="M7 11.25c0-.3442.28076-.625.625-.625s.625.2808.625.625v1.6162L12.8662 8.25H11.25c-.3442 0-.625-.28076-.625-.625S10.9058 7 11.25 7H15v3.75c0 .3442-.2808.625-.625.625s-.625-.2808-.625-.625V9.13379L9.13379 13.75H10.75c.3442 0 .625.2808.625.625s-.2808.625-.625.625H7v-3.75Z"
     id="path2" />
</svg>
