<?xml version="1.0" encoding="UTF-8" standalone="no"?>
<svg
   width="16"
   height="16"
   fill="none"
   version="1.1"
   id="svg18"
   xmlns="http://www.w3.org/2000/svg"
   xmlns:svg="http://www.w3.org/2000/svg">
  <path
     fill="url(#a)"
     d="M0 4c0-2.20914 1.79086-4 4-4h8c2.2091 0 4 1.79086 4 4v8c0 2.2091-1.7909 4-4 4H4c-2.20914 0-4-1.7909-4-4V4Z"
     id="path1" />
  <path
     fill="url(#b)"
     fill-rule="evenodd"
     d="M.5 4C.5 2.067 2.067.5 4 .5h8c1.933 0 3.5 1.567 3.5 3.5v8c0 1.933-1.567 3.5-3.5 3.5H4C2.067 15.5.5 13.933.5 12V4ZM1 4c0-1.65685 1.34315-3 3-3h8c1.6569 0 3 1.34315 3 3v8c0 1.6569-1.3431 3-3 3H4c-1.65685 0-3-1.3431-3-3V4Z"
     clip-rule="evenodd"
     id="path2" />
  <rect
     width="14"
     height="14"
     x="1"
     y="1"
     fill="url(#c)"
     rx="3"
     id="rect2" />
  <path
     fill="#959992"
     d="M0 4h16v.5H0V4Z"
     id="path3" />
  <path
     fill="#B1B3B0"
     d="M.5 4.5h15V5H.5v-.5Z"
     id="path4" />
  <path
     fill="url(#d)"
     d="M.5 4C.5 2.067 2.067.5 4 .5h8c1.933 0 3.5 1.567 3.5 3.5H.5Z"
     id="path5" />
  <path
     fill="#7B7D78"
     d="M6.99893 6h4.99997v5l-1.875-1.875-3.00994 3.0097.01104.0113L9 13.9985H4V8.99847l1.85313 1.85313 3.0208-2.99908L6.99893 6Z"
     id="path6" />
  <path
     fill="url(#e)"
     fill-opacity=".5"
     d="M6.99893 6h4.99997v5l-1.875-1.875-3.00994 3.0097.01104.0113L9 13.9985H4V8.99847l1.85313 1.85313 3.0208-2.99908L6.99893 6Z"
     id="path7" />
  <path
     fill="#23456F"
     fill-opacity=".4"
     fill-rule="evenodd"
     d="M11.9989 6H6.99893l1.875 1.85252-3.0208 2.99908L4 8.99847v5.00003h5L7.125 12.146l-.01104-.0113L10.1239 9.125 11.9989 11V6ZM4.5 10.2v3.3h3.3l-1.39-1.37 3.71-3.71L11.5 9.8V6.5H8.2l1.38 1.35-3.73 3.7L4.5 10.2Z"
     clip-rule="evenodd"
     id="path8" />
  <path
     fill="#EDEDED"
     d="M7.11914 12.1348 10.125 9.12891l.3516.35156-3.0059 3.00583-.35156-.3515Z"
     id="path9" />
  <defs
     id="defs18">
    <linearGradient
       id="a"
       x1="8"
       x2="8"
       y1="0"
       y2="16"
       gradientUnits="userSpaceOnUse">
      <stop
         stop-color="#A6AAA2"
         id="stop9" />
      <stop
         offset="1"
         stop-color="#6B6D69"
         id="stop10" />
    </linearGradient>
    <linearGradient
       id="b"
       x1="8"
       x2="8"
       y1=".5"
       y2="15.5"
       gradientUnits="userSpaceOnUse">
      <stop
         stop-color="#F0F0F0"
         id="stop11" />
      <stop
         offset="1"
         stop-color="#E5E5E5"
         id="stop12" />
    </linearGradient>
    <linearGradient
       id="c"
       x1="8"
       x2="8"
       y1="3"
       y2="15"
       gradientUnits="userSpaceOnUse">
      <stop
         stop-color="#E2E2E2"
         id="stop13" />
      <stop
         offset="1"
         stop-color="#D4D4D4"
         id="stop14" />
    </linearGradient>
    <linearGradient
       id="d"
       x1="8.5"
       x2="8.5"
       y1=".5"
       y2="4"
       gradientUnits="userSpaceOnUse">
      <stop
         stop-color="#fff"
         id="stop15" />
      <stop
         offset="1"
         stop-color="#F5F5F5"
         id="stop16" />
    </linearGradient>
    <linearGradient
       id="e"
       x1="11.3562"
       x2="8.70024"
       y1="10.7656"
       y2="7.81967"
       gradientUnits="userSpaceOnUse">
      <stop
         stop-color="#3B6CA9"
         id="stop17" />
      <stop
         offset="1"
         stop-color="#6190C4"
         id="stop18" />
    </linearGradient>
  </defs>
</svg>
