<?xml version="1.0" encoding="UTF-8" standalone="no"?>
<svg
   width="16"
   height="16"
   fill="none"
   version="1.1"
   id="svg16"
   xmlns="http://www.w3.org/2000/svg"
   xmlns:svg="http://www.w3.org/2000/svg">
  <path
     fill="url(#a)"
     d="M0 4c0-2.20914 1.79086-4 4-4h8c2.2091 0 4 1.79086 4 4v8c0 2.2091-1.7909 4-4 4H4c-2.20914 0-4-1.7909-4-4V4Z"
     id="path1" />
  <path
     fill="url(#b)"
     d="M1 4c0-1.65685 1.34315-3 3-3h8c1.6569 0 3 1.34315 3 3v8c0 1.6569-1.3431 3-3 3H4c-1.65685 0-3-1.3431-3-3V4Z"
     id="path2" />
  <path
     fill="url(#c)"
     fill-rule="evenodd"
     d="M.5 4C.5 2.067 2.067.5 4 .5h8c1.933 0 3.5 1.567 3.5 3.5v8c0 1.933-1.567 3.5-3.5 3.5H4C2.067 15.5.5 13.933.5 12V4ZM1 4c0-1.65685 1.34315-3 3-3h8c1.6569 0 3 1.34315 3 3v8c0 1.6569-1.3431 3-3 3H4c-1.65685 0-3-1.3431-3-3V4Z"
     clip-rule="evenodd"
     id="path3" />
  <path
     fill="url(#d)"
     fill-rule="evenodd"
     d="M6 8H5V5.31665L6.5 4H10v8H6V8Zm.85-3L6 5.75V7h1v4h2V5H6.85Z"
     clip-rule="evenodd"
     id="path4" />
  <path
     fill="#fff"
     d="M6 5.75V7h1v4h2V5H6.85L6 5.75Z"
     id="path5" />
  <path
     fill="url(#e)"
     fill-opacity=".45"
     fill-rule="evenodd"
     d="M6 7V5.76948L6.87663 5H9v6H7V7H6Zm-.5.5V5.6l1.25-1.1H9.5v7h-3v-4h-1Z"
     clip-rule="evenodd"
     id="path6" />
  <defs
     id="defs16">
    <linearGradient
       id="a"
       x1="8"
       x2="8"
       y1="0"
       y2="16"
       gradientUnits="userSpaceOnUse">
      <stop
         stop-color="#A6AAA2"
         id="stop6" />
      <stop
         offset="1"
         stop-color="#6B6D69"
         id="stop7" />
    </linearGradient>
    <linearGradient
       id="b"
       x1="8"
       x2="8"
       y1="1"
       y2="15"
       gradientUnits="userSpaceOnUse">
      <stop
         stop-color="#fff"
         id="stop8" />
      <stop
         offset=".5"
         stop-color="#DDDDDB"
         id="stop9" />
      <stop
         offset="1"
         stop-color="#F5F5F5"
         id="stop10" />
    </linearGradient>
    <linearGradient
       id="c"
       x1="8"
       x2="8"
       y1=".5"
       y2="15.5"
       gradientUnits="userSpaceOnUse">
      <stop
         stop-color="#fff"
         id="stop11" />
      <stop
         offset="1"
         stop-color="#fff"
         stop-opacity=".7"
         id="stop12" />
    </linearGradient>
    <linearGradient
       id="d"
       x1="7.5"
       x2="7.5"
       y1="5"
       y2="11"
       gradientUnits="userSpaceOnUse">
      <stop
         stop-color="#545652"
         id="stop13" />
      <stop
         offset="1"
         stop-color="#ABAEA7"
         id="stop14" />
    </linearGradient>
    <linearGradient
       id="e"
       x1="7.5"
       x2="7.5"
       y1="4.5"
       y2="11.5"
       gradientUnits="userSpaceOnUse">
      <stop
         stop-color="#fff"
         id="stop15" />
      <stop
         offset="1"
         stop-color="#fff"
         stop-opacity=".75"
         id="stop16" />
    </linearGradient>
  </defs>
</svg>
