<?xml version="1.0" encoding="UTF-8" standalone="no"?>
<svg
   width="16"
   height="16"
   fill="none"
   version="1.1"
   id="svg34"
   xmlns="http://www.w3.org/2000/svg"
   xmlns:svg="http://www.w3.org/2000/svg">
  <path
     fill="url(#a)"
     d="M0 4c0-2.20914 1.79086-4 4-4h8c2.2091 0 4 1.79086 4 4v8c0 2.2091-1.7909 4-4 4H4c-2.20914 0-4-1.7909-4-4V4Z"
     id="path1" />
  <path
     fill="url(#b)"
     d="M1 4c0-1.65685 1.34315-3 3-3h8c1.6569 0 3 1.34315 3 3v8c0 1.6569-1.3431 3-3 3H4c-1.65685 0-3-1.3431-3-3V4Z"
     id="path2" />
  <path
     fill="url(#c)"
     fill-rule="evenodd"
     d="M.5 4C.5 2.067 2.067.5 4 .5h8c1.933 0 3.5 1.567 3.5 3.5v8c0 1.933-1.567 3.5-3.5 3.5H4C2.067 15.5.5 13.933.5 12V4ZM1 4c0-1.65685 1.34315-3 3-3h8c1.6569 0 3 1.34315 3 3v8c0 1.6569-1.3431 3-3 3H4c-1.65685 0-3-1.3431-3-3V4Z"
     clip-rule="evenodd"
     id="path3" />
  <path
     fill="#fff"
     d="M7 3.5H3v4h3v-1h1v-3ZM10 7.5h3v-4H9v3h1v1ZM9 13.5V11h1.5V9.5H13v4H9ZM3 9.5v4h4V11H5.5V9.5H3Z"
     id="path4" />
  <path
     fill="url(#d)"
     fill-rule="evenodd"
     d="M3 3h4v3H6v1H3V3Zm2 3H4V4h2v1H5v1Z"
     clip-rule="evenodd"
     id="path5" />
  <path
     fill="url(#e)"
     fill-rule="evenodd"
     d="M13 7h-3V6H9V3h4v4Zm-3-3h2v2h-1V5h-1V4Z"
     clip-rule="evenodd"
     id="path6" />
  <path
     fill="url(#f)"
     fill-rule="evenodd"
     d="M9 10v3h4V9h-3v1H9Zm3 2h-2v-1h1v-1h1v2Z"
     clip-rule="evenodd"
     id="path7" />
  <path
     fill="url(#g)"
     fill-rule="evenodd"
     d="M3 13V9h3v1h1v3H3Zm1-1h2v-1H5v-1H4v2Z"
     clip-rule="evenodd"
     id="path8" />
  <path
     fill="url(#h)"
     fill-opacity=".45"
     fill-rule="evenodd"
     d="M12.5 6.5h-2v-1h-1v-2h3v3ZM10 4h2v2h-1V5h-1V4Z"
     clip-rule="evenodd"
     id="path9" />
  <path
     fill="url(#i)"
     fill-opacity=".45"
     fill-rule="evenodd"
     d="M5.5 9.5h-2v3h3v-2h-1v-1ZM4 12h2v-1H5v-1H4v2Z"
     clip-rule="evenodd"
     id="path10" />
  <path
     fill="url(#j)"
     fill-opacity=".45"
     fill-rule="evenodd"
     d="M9.5 12.5v-2h1v-1h2v3h-3Zm.5-.5v-1h1v-1h1v2h-2Z"
     clip-rule="evenodd"
     id="path11" />
  <path
     fill="url(#k)"
     fill-opacity=".45"
     fill-rule="evenodd"
     d="M6.5 3.5v2h-1v1h-2v-3h3ZM4 6V4h2v1H5v1H4Z"
     clip-rule="evenodd"
     id="path12" />
  <defs
     id="defs34">
    <linearGradient
       id="a"
       x1="8"
       x2="8"
       y1="0"
       y2="16"
       gradientUnits="userSpaceOnUse">
      <stop
         stop-color="#A6AAA2"
         id="stop12" />
      <stop
         offset="1"
         stop-color="#6B6D69"
         id="stop13" />
    </linearGradient>
    <linearGradient
       id="b"
       x1="8"
       x2="8"
       y1="1"
       y2="15"
       gradientUnits="userSpaceOnUse">
      <stop
         stop-color="#fff"
         id="stop14" />
      <stop
         offset=".5"
         stop-color="#DDDDDB"
         id="stop15" />
      <stop
         offset="1"
         stop-color="#F5F5F5"
         id="stop16" />
    </linearGradient>
    <linearGradient
       id="c"
       x1="8"
       x2="8"
       y1=".5"
       y2="15.5"
       gradientUnits="userSpaceOnUse">
      <stop
         stop-color="#fff"
         id="stop17" />
      <stop
         offset="1"
         stop-color="#fff"
         stop-opacity=".7"
         id="stop18" />
    </linearGradient>
    <linearGradient
       id="d"
       x1="8"
       x2="8"
       y1="-7"
       y2="23"
       gradientUnits="userSpaceOnUse">
      <stop
         stop-color="#545652"
         id="stop19" />
      <stop
         offset="1"
         stop-color="#ABAEA7"
         id="stop20" />
    </linearGradient>
    <linearGradient
       id="e"
       x1="8"
       x2="8"
       y1="-7"
       y2="23"
       gradientUnits="userSpaceOnUse">
      <stop
         stop-color="#545652"
         id="stop21" />
      <stop
         offset="1"
         stop-color="#ABAEA7"
         id="stop22" />
    </linearGradient>
    <linearGradient
       id="f"
       x1="8"
       x2="8"
       y1="-7"
       y2="23"
       gradientUnits="userSpaceOnUse">
      <stop
         stop-color="#545652"
         id="stop23" />
      <stop
         offset="1"
         stop-color="#ABAEA7"
         id="stop24" />
    </linearGradient>
    <linearGradient
       id="g"
       x1="8"
       x2="8"
       y1="-7"
       y2="23"
       gradientUnits="userSpaceOnUse">
      <stop
         stop-color="#545652"
         id="stop25" />
      <stop
         offset="1"
         stop-color="#ABAEA7"
         id="stop26" />
    </linearGradient>
    <linearGradient
       id="h"
       x1="8"
       x2="8"
       y1="-5.5"
       y2="21.5"
       gradientUnits="userSpaceOnUse">
      <stop
         stop-color="#fff"
         id="stop27" />
      <stop
         offset="1"
         stop-color="#fff"
         stop-opacity=".75"
         id="stop28" />
    </linearGradient>
    <linearGradient
       id="i"
       x1="8"
       x2="8"
       y1="-5.5"
       y2="21.5"
       gradientUnits="userSpaceOnUse">
      <stop
         stop-color="#fff"
         id="stop29" />
      <stop
         offset="1"
         stop-color="#fff"
         stop-opacity=".75"
         id="stop30" />
    </linearGradient>
    <linearGradient
       id="j"
       x1="8"
       x2="8"
       y1="-5.5"
       y2="21.5"
       gradientUnits="userSpaceOnUse">
      <stop
         stop-color="#fff"
         id="stop31" />
      <stop
         offset="1"
         stop-color="#fff"
         stop-opacity=".75"
         id="stop32" />
    </linearGradient>
    <linearGradient
       id="k"
       x1="8"
       x2="8"
       y1="-5.5"
       y2="21.5"
       gradientUnits="userSpaceOnUse">
      <stop
         stop-color="#fff"
         id="stop33" />
      <stop
         offset="1"
         stop-color="#fff"
         stop-opacity=".75"
         id="stop34" />
    </linearGradient>
  </defs>
</svg>
