<?xml version="1.0" encoding="UTF-8" standalone="no"?>
<svg
   width="16"
   height="16"
   fill="none"
   version="1.1"
   id="svg17"
   xmlns="http://www.w3.org/2000/svg"
   xmlns:svg="http://www.w3.org/2000/svg">
  <path
     fill="url(#a)"
     d="M0 4c0-2.20914 1.79086-4 4-4h8c2.2091 0 4 1.79086 4 4v8c0 2.2091-1.7909 4-4 4H4c-2.20914 0-4-1.7909-4-4V4Z"
     id="path1" />
  <path
     fill="url(#b)"
     d="M1 4c0-1.65685 1.34315-3 3-3h8c1.6569 0 3 1.34315 3 3v8c0 1.6569-1.3431 3-3 3H4c-1.65685 0-3-1.3431-3-3V4Z"
     id="path2" />
  <path
     fill="#fff"
     d="M10 12.5H6v-2H4V10h8v.5h-2v2Z"
     id="path3" />
  <path
     fill="url(#c)"
     d="M10 12H6v-2H4V6h2V4h4v2h2v4h-2v2Z"
     id="path4" />
  <path
     fill="url(#d)"
     fill-opacity=".45"
     fill-rule="evenodd"
     d="M9.5 11.5v-2h2v-3h-2v-2h-3v2h-2v3h2v2h3ZM7 11h2V9h2V7H9V5H7v2H5v2h2v2Z"
     clip-rule="evenodd"
     id="path5" />
  <path
     fill="url(#e)"
     fill-rule="evenodd"
     d="M.5 4C.5 2.067 2.067.5 4 .5h8c1.933 0 3.5 1.567 3.5 3.5v8c0 1.933-1.567 3.5-3.5 3.5H4C2.067 15.5.5 13.933.5 12V4ZM1 4c0-1.65685 1.34315-3 3-3h8c1.6569 0 3 1.34315 3 3v8c0 1.6569-1.3431 3-3 3H4c-1.65685 0-3-1.3431-3-3V4Z"
     clip-rule="evenodd"
     id="path6" />
  <path
     fill="#fff"
     d="M9 11H7V9H5V7h2V5h2v2h2v2H9v2Z"
     id="path7" />
  <defs
     id="defs17">
    <linearGradient
       id="a"
       x1="8"
       x2="8"
       y1="0"
       y2="16"
       gradientUnits="userSpaceOnUse">
      <stop
         stop-color="#A6AAA2"
         id="stop7" />
      <stop
         offset="1"
         stop-color="#6B6D69"
         id="stop8" />
    </linearGradient>
    <linearGradient
       id="b"
       x1="8"
       x2="8"
       y1="1"
       y2="15"
       gradientUnits="userSpaceOnUse">
      <stop
         stop-color="#fff"
         id="stop9" />
      <stop
         offset=".5"
         stop-color="#DDDDDB"
         id="stop10" />
      <stop
         offset="1"
         stop-color="#F5F5F5"
         id="stop11" />
    </linearGradient>
    <linearGradient
       id="c"
       x1="8"
       x2="8"
       y1="5"
       y2="11"
       gradientUnits="userSpaceOnUse">
      <stop
         stop-color="#545652"
         id="stop12" />
      <stop
         offset="1"
         stop-color="#ABAEA7"
         id="stop13" />
    </linearGradient>
    <linearGradient
       id="d"
       x1="8"
       x2="8"
       y1="4.5"
       y2="11.5"
       gradientUnits="userSpaceOnUse">
      <stop
         stop-color="#fff"
         id="stop14" />
      <stop
         offset="1"
         stop-color="#fff"
         stop-opacity=".75"
         id="stop15" />
    </linearGradient>
    <linearGradient
       id="e"
       x1="8"
       x2="8"
       y1=".5"
       y2="15.5"
       gradientUnits="userSpaceOnUse">
      <stop
         stop-color="#fff"
         id="stop16" />
      <stop
         offset="1"
         stop-color="#fff"
         stop-opacity=".7"
         id="stop17" />
    </linearGradient>
  </defs>
</svg>
