<?xml version="1.0" encoding="UTF-8" standalone="no"?>
<!-- Created with Inkscape (http://www.inkscape.org/) -->
<svg
   xmlns:dc="http://purl.org/dc/elements/1.1/"
   xmlns:cc="http://creativecommons.org/ns#"
   xmlns:rdf="http://www.w3.org/1999/02/22-rdf-syntax-ns#"
   xmlns:svg="http://www.w3.org/2000/svg"
   xmlns="http://www.w3.org/2000/svg"
   xmlns:xlink="http://www.w3.org/1999/xlink"
   xmlns:sodipodi="http://sodipodi.sourceforge.net/DTD/sodipodi-0.dtd"
   xmlns:inkscape="http://www.inkscape.org/namespaces/inkscape"
   version="1.0"
   width="48"
   height="48"
   id="svg7323"
   sodipodi:version="0.32"
   inkscape:version="0.46"
   sodipodi:docname="stock-gegl.svg"
   inkscape:output_extension="org.inkscape.output.svg.inkscape"
   inkscape:export-filename="/home/neo/gnomesvn/gimp/themes/Default/images/stock-gegl-22.png"
   inkscape:export-xdpi="41.25"
   inkscape:export-ydpi="41.25">
  <metadata
     id="metadata24">
    <rdf:RDF>
      <cc:Work
         rdf:about="">
        <dc:format>image/svg+xml</dc:format>
        <dc:type
           rdf:resource="http://purl.org/dc/dcmitype/StillImage" />
      </cc:Work>
    </rdf:RDF>
  </metadata>
  <sodipodi:namedview
     inkscape:window-height="969"
     inkscape:window-width="1400"
     inkscape:pageshadow="2"
     inkscape:pageopacity="0.0"
     guidetolerance="10.0"
     gridtolerance="10.0"
     objecttolerance="10.0"
     borderopacity="1.0"
     bordercolor="#666666"
     pagecolor="#ffffff"
     id="base"
     showgrid="false"
     inkscape:zoom="10.291667"
     inkscape:cx="19.65645"
     inkscape:cy="18.681913"
     inkscape:window-x="0"
     inkscape:window-y="25"
     inkscape:current-layer="g3290"
     showguides="true"
     inkscape:guide-bbox="true"
     inkscape:snap-global="false" />
  <defs
     id="defs7325">
    <linearGradient
       id="linearGradient3704">
      <stop
         id="stop3706"
         offset="0"
         style="stop-color:#252525;stop-opacity:1;" />
      <stop
         id="stop3708"
         offset="1"
         style="stop-color:#ffffff;stop-opacity:0;" />
    </linearGradient>
    <linearGradient
       id="linearGradient3176">
      <stop
         style="stop-color:#252525;stop-opacity:1;"
         offset="0"
         id="stop3178" />
      <stop
         style="stop-color:#ffffff;stop-opacity:1;"
         offset="1"
         id="stop3180" />
    </linearGradient>
    <inkscape:perspective
       sodipodi:type="inkscape:persp3d"
       inkscape:vp_x="0 : 143.5 : 1"
       inkscape:vp_y="0 : 1000 : 0"
       inkscape:vp_z="602 : 143.5 : 1"
       inkscape:persp3d-origin="301 : 95.666667 : 1"
       id="perspective26" />
    <filter
       height="1.5381823"
       y="-0.2690911"
       width="1.5451649"
       x="-0.2725825"
       id="filter7279">
      <feGaussianBlur
         id="feGaussianBlur7281"
         stdDeviation="18.874919" />
    </filter>
    <filter
       height="1.5376269"
       y="-0.26881346"
       width="1.5376269"
       x="-0.26881346"
       id="filter7275">
      <feGaussianBlur
         id="feGaussianBlur7277"
         stdDeviation="19.440972" />
    </filter>
    <filter
       height="1.5376269"
       y="-0.26881346"
       width="1.5376269"
       x="-0.26881346"
       id="filter7271"
       inkscape:label="filter7271" />
    <filter
       height="1.5376269"
       y="-0.26881346"
       width="1.5376269"
       x="-0.27000000000000002"
       id="filter7267">
      <feGaussianBlur
         id="feGaussianBlur7269"
         stdDeviation="1.3432000000000002" />
      <feOffset
         dx="2"
         dy="2"
         id="feOffset3678" />
    </filter>
    <linearGradient
       inkscape:collect="always"
       xlink:href="#linearGradient3176"
       id="linearGradient3676"
       gradientUnits="userSpaceOnUse"
       gradientTransform="matrix(0.3209315,0,0,0.3209315,20.742185,29.838576)"
       x1="36.543892"
       y1="372.16403"
       x2="136.16916"
       y2="98.342926" />
    <linearGradient
       inkscape:collect="always"
       xlink:href="#linearGradient3176"
       id="linearGradient3682"
       gradientUnits="userSpaceOnUse"
       gradientTransform="matrix(0.3209315,0,0,0.3209315,21.764092,31.070447)"
       x1="36.543892"
       y1="372.16403"
       x2="136.16916"
       y2="98.342926" />
    <radialGradient
       inkscape:collect="always"
       xlink:href="#linearGradient3704"
       id="radialGradient3702"
       cx="24.34008"
       cy="42.121456"
       fx="24.34008"
       fy="42.121456"
       r="19.481781"
       gradientTransform="matrix(1,0,0,0.1471322,0,35.924035)"
       gradientUnits="userSpaceOnUse" />
  </defs>
  <path
     style="fill:#ffffff;fill-opacity:1;fill-rule:nonzero;stroke:none;stroke-width:13.89999962;stroke-linecap:butt;stroke-linejoin:miter;marker:none;marker-start:none;marker-mid:none;marker-end:none;stroke-miterlimit:4;stroke-dasharray:none;stroke-dashoffset:0;stroke-opacity:1;visibility:visible;display:inline;overflow:visible;enable-background:accumulate"
     d="M -539.44183,-436.37305 C -542.16964,-436.27563 -544.3205,-433.97586 -544.22308,-431.24805 C -544.12566,-428.52024 -541.82589,-426.40063 -539.09808,-426.49805 C -536.37027,-426.59547 -534.21941,-428.86399 -534.31683,-431.5918 C -534.32898,-431.93199 -534.39605,-432.27324 -534.47308,-432.5918 L -539.09808,-432.5918 C -539.12416,-432.58866 -539.13388,-432.59142 -539.16058,-432.5918 C -539.69306,-432.5918 -539.94325,-432.41834 -540.12933,-432.18555 C -540.30787,-431.9622 -540.39814,-431.63266 -540.41058,-431.43555 C -540.41001,-431.42491 -540.41147,-431.41484 -540.41058,-431.4043 C -540.4118,-431.36543 -540.38431,-431.23706 -540.37933,-431.2168 C -540.30819,-430.92739 -540.09248,-430.65287 -539.94183,-430.5293 C -539.7784,-430.39526 -539.479,-430.29809 -539.19183,-430.31055 C -538.90466,-430.32301 -538.63083,-430.4115 -538.34808,-430.7793 C -538.22028,-430.9505 -537.99749,-431.05638 -537.78558,-431.0293 C -537.57367,-431.00222 -537.39747,-430.85213 -537.31683,-430.6543 C -537.23619,-430.45647 -537.27799,-430.22806 -537.41058,-430.06055 C -537.87929,-429.45087 -538.53221,-429.15774 -539.12933,-429.12305 C -539.13873,-429.12118 -539.15106,-429.12447 -539.16058,-429.12305 C -539.19199,-429.11837 -539.43739,-429.11169 -539.53558,-429.12305 C -539.57865,-429.12804 -539.89056,-429.21094 -540.00433,-429.24805 C -540.13369,-429.29025 -540.26445,-429.34389 -540.37933,-429.4043 C -540.64175,-429.54231 -540.89367,-429.69821 -541.06683,-429.9043 C -541.32906,-430.21641 -541.46271,-430.5788 -541.53558,-430.93555 C -541.54517,-430.97459 -541.55943,-431.02025 -541.56683,-431.06055 C -541.58188,-431.16269 -541.59713,-431.27231 -541.59808,-431.37305 C -541.59927,-431.40455 -541.59823,-431.43486 -541.59808,-431.4668 C -541.59458,-431.57781 -541.58806,-431.69014 -541.56683,-431.81055 C -541.54917,-431.91801 -541.5071,-432.04532 -541.47308,-432.1543 C -541.43062,-432.29029 -541.35564,-432.42529 -541.28558,-432.56055 C -541.24932,-432.63055 -541.08319,-432.88383 -541.06683,-432.9043 C -540.72064,-433.33739 -540.13151,-433.70625 -539.39953,-433.77015 C -539.35391,-433.7806 -539.30227,-433.77998 -539.25433,-433.7793 L -534.91058,-433.7793 C -535.73898,-435.30912 -537.35605,-436.34551 -539.19183,-436.37305 C -539.27617,-436.37432 -539.35658,-436.3761 -539.44183,-436.37305 z"
     id="path5654"
     sodipodi:nodetypes="csssccssssssssssssssssssssssssssccsc" />
  <g
     id="g3290"
     transform="translate(-37.852792,-55.380933)">
    <path
       sodipodi:type="arc"
       style="opacity:1;fill:url(#radialGradient3702);fill-opacity:1;stroke:none;stroke-width:2;stroke-linejoin:round;stroke-miterlimit:4;stroke-dasharray:none;stroke-opacity:1"
       id="path3684"
       sodipodi:cx="24.34008"
       sodipodi:cy="42.121456"
       sodipodi:rx="19.481781"
       sodipodi:ry="2.8663967"
       d="M 43.821861,42.121456 A 19.481781,2.8663967 0 1 1 4.8582993,42.121456 A 19.481781,2.8663967 0 1 1 43.821861,42.121456 z"
       transform="matrix(1.3241896,0,0,2.2881356,29.184664,1.2199499)" />
    <path
       id="path3680"
       d="M 60.987172,56.904917 C 60.80756,56.903991 60.620916,56.908418 60.435571,56.914946 C 54.875023,57.113488 49.873513,59.419996 46.164149,63.032703 C 46.150587,63.045842 46.13756,63.059646 46.124032,63.07282 C 45.698273,63.489648 45.2906,63.926375 44.900481,64.376604 C 44.850965,64.433749 44.798965,64.489437 44.750044,64.547098 C 44.569828,64.758397 44.400591,64.97084 44.22853,65.188961 C 44.178436,65.252779 44.127479,65.315132 44.078094,65.379515 C 44.075202,65.383266 44.070954,65.385789 44.068065,65.389544 C 43.868253,65.650387 43.674313,65.911966 43.486376,66.181843 C 43.474221,66.19919 43.458365,66.214607 43.44626,66.231989 C 43.261719,66.498667 43.087318,66.769299 42.914717,67.044347 C 42.544013,67.631209 42.205366,68.237175 41.891748,68.859616 C 41.882977,68.877023 41.870385,68.892328 41.861661,68.909761 C 40.306257,72.017773 39.482748,75.54275 39.61514,79.249775 C 40.038792,91.112229 50.037312,100.32327 61.899822,99.899712 C 66.739254,99.726912 71.15609,97.976072 74.666878,95.165973 C 74.92164,94.963147 75.174018,94.758001 75.419062,94.544168 C 75.433298,94.53168 75.444977,94.516577 75.459178,94.504051 C 76.219009,93.833956 76.937787,93.116632 77.595379,92.347793 C 77.6062,92.335138 77.614673,92.320356 77.625466,92.307676 C 77.837939,92.059259 78.046255,91.803387 78.247271,91.545464 C 78.257576,91.532177 78.267085,91.518657 78.277358,91.505347 C 78.476117,91.249093 78.671946,90.988279 78.859046,90.723077 C 78.870199,90.707178 78.878023,90.688862 78.889134,90.672931 C 78.982274,90.540146 79.069764,90.406709 79.15992,90.271767 C 79.259774,90.121484 79.3647,89.973336 79.460793,89.820457 C 79.63441,89.545672 79.801083,89.260935 79.962248,88.978012 C 79.971783,88.961166 79.982846,88.944738 79.992336,88.927866 C 80.322793,88.344047 80.61986,87.738411 80.894956,87.122626 C 82.176381,84.254237 82.850176,81.062326 82.730283,77.705292 C 82.677445,76.22584 82.383285,74.747748 82.048303,73.362688 L 61.929909,73.362688 C 61.81645,73.376157 61.775233,73.363984 61.659123,73.362688 C 59.888887,73.362688 58.848003,73.80601 58.088761,74.46589 C 57.854837,74.6692 57.637496,74.889362 57.446898,75.127811 C 57.439395,75.137198 57.434273,75.148424 57.42684,75.157898 C 57.423868,75.161602 57.419776,75.164217 57.416811,75.167927 C 57.331311,75.277702 57.252128,75.389438 57.176112,75.508917 C 57.166847,75.523144 57.155155,75.534685 57.146025,75.549034 C 57.070888,75.669823 57.001153,75.792804 56.935413,75.920111 C 56.926395,75.937149 56.914174,75.953122 56.905326,75.970256 C 56.464831,76.823292 56.233835,77.784537 56.193259,78.427388 C 56.195692,78.473496 56.189344,78.521687 56.193259,78.567796 C 56.187909,78.736532 56.31201,79.291869 56.333667,79.380154 C 56.643035,80.638667 57.574029,81.831319 58.229167,82.368828 C 58.939835,82.951563 60.239806,83.375966 61.488628,83.321594 C 62.515172,83.27726 63.505461,83.000184 64.50739,82.01781 C 64.571955,81.955546 64.643276,81.895544 64.707972,81.827256 C 64.71916,81.81526 64.726869,81.799323 64.73806,81.78714 C 64.767646,81.755419 64.798703,81.719879 64.828322,81.686849 C 64.875267,81.633687 64.92169,81.582934 64.968729,81.526383 C 65.033403,81.44978 65.094409,81.36888 65.159282,81.285684 C 65.170325,81.27089 65.188031,81.260138 65.199399,81.245568 C 65.258906,81.165855 65.321539,81.08774 65.389952,81.014899 C 65.960318,80.429603 66.800041,80.089383 67.606385,80.192512 C 68.527924,80.309908 69.301638,80.966653 69.652323,81.827256 C 69.959166,82.579924 69.857983,83.434064 69.441712,84.123923 C 69.429539,84.144093 69.414305,84.164216 69.401596,84.184097 C 69.360298,84.246088 69.317723,84.305868 69.271217,84.364621 C 69.14382,84.530334 69.01348,84.690999 68.880082,84.846019 C 68.869212,84.858766 68.860903,84.873458 68.849995,84.886135 C 68.727071,85.027682 68.596427,85.164691 68.468888,85.297328 C 68.457569,85.309209 68.450156,85.325635 68.438801,85.337445 C 68.311083,85.469052 68.179553,85.595718 68.047666,85.718551 C 66.177264,87.460561 63.909325,88.32387 61.79953,88.446469 C 61.75865,88.45473 61.700523,88.440381 61.659123,88.446469 C 61.522528,88.466906 60.46141,88.496046 60.034407,88.446469 C 59.847063,88.424735 58.493249,88.056197 57.998499,87.894868 C 57.4359,87.711337 56.863335,87.485581 56.363754,87.222918 C 55.22256,86.622798 54.128062,85.942436 53.375079,85.046601 C 52.234712,83.689368 51.65606,82.115209 51.339169,80.563589 C 51.297423,80.393973 51.230899,80.197258 51.198762,80.022017 C 51.13327,79.577995 51.062442,79.096405 51.058354,78.658058 C 51.053136,78.521081 51.057658,78.385603 51.058354,78.246864 C 51.073574,77.764167 51.106438,77.276101 51.198762,76.752527 C 51.27556,76.285453 51.462012,75.731766 51.609955,75.258189 C 51.794561,74.666754 52.117641,74.081446 52.422313,73.493066 C 52.456034,73.427972 52.519326,73.312494 52.592808,73.192193 C 52.598603,73.182802 52.606944,73.171663 52.612866,73.162105 C 52.624835,73.142641 52.630406,73.122159 52.642954,73.101931 C 52.915988,72.661764 53.323123,72.063522 53.375079,71.998729 C 53.39867,71.969216 53.421174,71.937838 53.445282,71.908467 C 54.963626,70.082604 57.477483,68.549307 60.586008,68.277927 C 60.784395,68.232702 61.009365,68.234781 61.217842,68.237811 L 80.112685,68.237811 C 80.105621,68.224768 80.099716,68.210721 80.092627,68.197694 L 80.142772,68.197694 C 76.540284,61.544577 69.512054,57.034958 61.528744,56.914946 C 61.345358,56.912122 61.166785,56.905843 60.987172,56.904917 z"
       style="opacity:1;fill:url(#linearGradient3682);fill-opacity:1;fill-rule:nonzero;stroke:#060000;stroke-width:2;stroke-linecap:butt;stroke-linejoin:round;marker:none;marker-start:none;marker-mid:none;marker-end:none;stroke-miterlimit:4;stroke-dasharray:none;stroke-dashoffset:0;stroke-opacity:1;visibility:visible;display:inline;overflow:visible;enable-background:accumulate"
       inkscape:export-filename="/home/neo/gnomesvn/gimp/themes/Default/images/stock-gegl-22.png"
       inkscape:export-xdpi="43.860001"
       inkscape:export-ydpi="43.860001" />
  </g>
</svg>
