/* XPM */
static char * delete_is_xpm[] = {
"16 16 3 1",
" 	c None",
".	c #7F7F7F",
"+	c #FFFFFF",
"                ",
"                ",
"   .+       .+  ",
"  ...+     ...+ ",
"   ...+   ...+  ",
"    ...+ ...+   ",
"     ......+    ",
"      ....+     ",
"      ....+     ",
"     ......+    ",
"    ...++...+   ",
"   ...+   ...+  ",
"  ...+     ...+ ",
"   .+       .+  ",
"                ",
"                "};
