/* XPM */
static char * duplicate_is_xpm[] = {
"17 17 3 1",
" 	c None",
".	c #7F7F7F",
"+	c #FFFFFF",
"      ......     ",
"     ..    .     ",
"    . .    .+    ",
"   .  .    ....  ",
"  .....    .  .+ ",
"  .        .  .+ ",
"  .        .  .+ ",
"  .        .  .+ ",
"  .        .  .+ ",
"  .        .  .+ ",
"  .        .  .+ ",
"  .        .  .+ ",
"  ..........  .+ ",
"   ++.        .+ ",
"     .        .+ ",
"     ..........+ ",
"      ++++++++++ "};
