/* XPM */
static char * duplicate_xpm[] = {
"17 17 4 1",
" 	c None",
".	c #000000",
"+	c #FFFFFF",
"@	c #7F7F7F",
"      ......     ",
"     ..++++.     ",
"    .+.++++.@    ",
"   .++.++++....  ",
"  .....++++.++.@ ",
"  .++++++++.++.@ ",
"  .++++++++.++.@ ",
"  .++++++++.++.@ ",
"  .++++++++.++.@ ",
"  .++++++++.++.@ ",
"  .++++++++.++.@ ",
"  .++++++++.++.@ ",
"  ..........++.@ ",
"   @@.++++++++.@ ",
"     .++++++++.@ ",
"     ..........@ ",
"      @@@@@@@@@@ "};
