#define mask_width 21
#define mask_height 21
static unsigned char mask_bits[] = {
   0x00, 0x00, 0x00, 0x38, 0x80, 0x03, 0x78, 0xc0, 0x03, 0xf8, 0xe0, 0x03,
   0xf8, 0xf1, 0x03, 0xf8, 0xfb, 0x03, 0xb8, 0xbf, 0x03, 0x38, 0x9f, 0x03,
   0x38, 0x8e, 0x03, 0x38, 0x84, 0x03, 0x38, 0x80, 0x03, 0x38, 0x80, 0x03,
   0x38, 0x80, 0x03, 0x38, 0x80, 0x03, 0x38, 0x80, 0x03, 0x38, 0x80, 0x03,
   0x38, 0x80, 0x03, 0x38, 0x80, 0x03, 0x38, 0x80, 0x03, 0x38, 0x80, 0x03,
   0x00, 0x00, 0x00};
