/* XPM */
static char * new_is_xpm[] = {
"16 16 3 1",
" 	c None",
".	c #7F7F7F",
"+	c #F7F7F7",
"                ",
"       ......   ",
"      ..    .+  ",
"     . .    .+  ",
"    .  .    .+  ",
"   .....    .+  ",
"   .        .+  ",
"   .        .+  ",
"   .        .+  ",
"   .        .+  ",
"   .        .+  ",
"   .        .+  ",
"   .        .+  ",
"   ..........+  ",
"    ++++++++++  ",
"                "};
