/* XPM */
static char * penadd_xpm[] = {
"25 24 5 1",
" 	c None",
".	c #949194",
"+	c #000000",
"@	c #FFFFFF",
"#	c #DEDADE",
"                         ",
"                         ",
"                         ",
"         .               ",
"         +               ",
"         +.              ",
"        +++.             ",
"       +@+#+.            ",
"       +@+@+.            ",
"       +@+@+.            ",
"      +@#+##+.           ",
"      +@#+##+.           ",
"     +@#+++##+.          ",
"     +@#.+.##+.          ",
"      +#####+..          ",
"       +###+..           ",
"       +++++.      +     ",
"       +.+++.      +.    ",
"       +.+++.    +++++   ",
"       +.+++.      +...  ",
"       +.+++.      +.    ",
"        .....       .    ",
"                         ",
"                         "};
