/* XPM */
static char * penedit_xpm[] = {
"25 24 5 1",
" 	c None",
".	c #000000",
"+	c #949194",
"@	c #FFFFFF",
"#	c #DEDADE",
"                         ",
"                         ",
"        ...          .   ",
"      ........     ...   ",
"     .. ...  ..   ..     ",
"    ..   .+   .....      ",
"   ..   ...+             ",
"   .   .@.#.+            ",
"  .    .@.@.+            ",
"       .@.@.+            ",
"      .@#.##.+           ",
"      .@#.##.+           ",
"     .@#...##.+          ",
"     .@#+.+##.+          ",
"      .#####.++          ",
"       .###.++           ",
"       .....+            ",
"       .+...+            ",
"       .+...+            ",
"       .+...+            ",
"       .+...+            ",
"        +++++            ",
"                         ",
"                         "};
