/* XPM */
static char * ptoselection_xpm[] = {
"17 17 4 1",
" 	c None",
".	c #000000",
"+	c #FFFFFF",
"@	c #DEDADE",
"                 ",
"                 ",
"                 ",
"       ..++.     ",
"     ++@@@@@.+   ",
"    .+@@@@@@@+.  ",
"    .@@@@@@@@@.  ",
"   +@@@@@@@@@@@+ ",
"   .@@@@@@@@@@@+ ",
"   .@@@@@@@@@@@. ",
"   +@@@@@@@@@@@. ",
"   +@@@@@@@@@@@+ ",
"    .@@@@@@@@@+  ",
"    .+@@@@@@@..  ",
"     +.@@@@@++   ",
"       .++..     ",
"                 "};
