/* XPM */
static char * anchor_xpm[] = {
"15 15 46 1",
" 	c None",
".	c #000000",
"+	c #C5C5C5",
"@	c #555555",
"#	c #2F2F2F",
"$	c #5B5B5B",
"%	c #A6A6A6",
"&	c #373737",
"*	c #393939",
"=	c #575757",
"-	c #1E1E1E",
";	c #959595",
">	c #E0E0E0",
",	c #F5F5F5",
"'	c #808080",
")	c #F3F3F3",
"!	c #989898",
"~	c #747474",
"{	c #F2F2F2",
"]	c #8B8B8B",
"^	c #616161",
"/	c #AAAAAA",
"(	c #040404",
"_	c #474747",
":	c #696969",
"<	c #222222",
"[	c #EFEFEF",
"}	c #7E7E7E",
"|	c #9B9B9B",
"1	c #454545",
"2	c #C9C9C9",
"3	c #CDCDCD",
"4	c #2C2C2C",
"5	c #464646",
"6	c #2D2D2D",
"7	c #5D5D5D",
"8	c #B8B8B8",
"9	c #EEEEEE",
"0	c #585858",
"a	c #818181",
"b	c #6A6A6A",
"c	c #636363",
"d	c #212121",
"e	c #515151",
"f	c #6F6F6F",
"g	c #2B2B2B",
"      ...      ",
"     .+@#.     ",
"     .$%&.     ",
"     .*=-.     ",
"      .;.      ",
"      .>.      ",
"..    .,.    ..",
".'.   .).   .!.",
".~..  .{.  .]^.",
"./.   .{.   (_.",
" .:.  <[.  .}. ",
" .|1..234..56. ",
"  .7'890abcd.  ",
"   ..ef]fg..   ",
"     .....     "};
