/* XPM */
static char * anchor_xpm[] = {
"24 24 69 1",
" 	c None",
".	c #000000",
"+	c #858585",
"@	c #555555",
"#	c #2F2F2F",
"$	c #5B5B5B",
"%	c #636363",
"&	c #373737",
"*	c #393939",
"=	c #3F3F3F",
"-	c #1E1E1E",
";	c #474747",
">	c #585858",
",	c #676767",
"'	c #414141",
")	c #434343",
"!	c #222222",
"~	c #9E9E9E",
"{	c #C8C8C8",
"]	c #5D5D5D",
"^	c #2D2D2D",
"/	c #171717",
"(	c #4D4D4D",
"_	c #5F5F5F",
":	c #686868",
"<	c #565656",
"[	c #101010",
"}	c #242424",
"|	c #D3D3D3",
"1	c #A1A1A1",
"2	c #545454",
"3	c #777777",
"4	c #363636",
"5	c #9B9B9B",
"6	c #AFAFAF",
"7	c #A2A2A2",
"8	c #A0A0A0",
"9	c #919191",
"0	c #949494",
"a	c #B9B9B9",
"b	c #838383",
"c	c #828282",
"d	c #A9A9A9",
"e	c #7B7B7B",
"f	c #1C1C1C",
"g	c #494949",
"h	c #727272",
"i	c #757575",
"j	c #969696",
"k	c #ACACAC",
"l	c #454545",
"m	c #8A8A8A",
"n	c #5E5E5E",
"o	c #737373",
"p	c #9D9D9D",
"q	c #5A5A5A",
"r	c #2C2C2C",
"s	c #424242",
"t	c #909090",
"u	c #626262",
"v	c #9F9F9F",
"w	c #8F8F8F",
"x	c #595959",
"y	c #7F7F7F",
"z	c #999999",
"A	c #696969",
"B	c #505050",
"C	c #535353",
"D	c #525252",
"                        ",
"          ...           ",
"         .+@#.          ",
"         .$%&.          ",
"         .*=-.          ",
"  ..      .;.      ..   ",
" .>,')!...~{]^/=(_&:<.  ",
" .([.....}|1,^.....<..  ",
"  ..     .234.     ..   ",
"          /5.           ",
"          .6.           ",
"          .7.           ",
"  .       .8.       .   ",
"  ..      .9.      ..   ",
"  -<.     .0.     .a.   ",
"  .b..    .9.    .cd.   ",
"  .ef     .0.     gh.   ",
"   .i.    .j.    .k.    ",
"   .3l.   !0.   .mn.    ",
"    .ol...pqr.[st(.     ",
"     -,3uvw>xyzi'.      ",
"      ..=ABCD;r-.       ",
"        .......         ",
"                        "};
