/* XPM */
static char * anchor_xpm[] = {
"15 14 3 1",
" 	c None",
".	c #000000",
"+	c #7F7F7F",
"      ..       ",
"    ......     ",
"     ....++    ",
"      ..++     ",
"      ..+      ",
"      ..+      ",
"      ..+      ",
"..    ..+   .. ",
" ..   ..+  ..++",
" ...  ..+ ...+ ",
"  ..........++ ",
"   ........++  ",
"    ++..++++   ",
"       ++      "};
