/* XPM */
static char * anchor_xpm[] = {
"24 24 9 1",
" 	c None",
".	c #020204",
"+	c #8F8F91",
"@	c #6E6E6E",
"#	c #5A5A5C",
"$	c #9A9A98",
"%	c #D0D0D1",
"&	c #E8E8E9",
"*	c #B5B5B6",
"                        ",
"                        ",
"          ...           ",
"         .+@..          ",
"         .###.          ",
"         ..#..          ",
"  ..      .#.      ..   ",
" .####....$%@#..###@#.  ",
" .#.......&$#......#..  ",
"  ..     .#@#.     ..   ",
"          .*.           ",
"          .*.           ",
"          .$.           ",
"  .       .+.       .   ",
"  ..      .+.      ..   ",
"  .#.     .+.     .*.   ",
"  .+..    .+.    .+@.   ",
"  .+.     .$.     ##.   ",
"   .@.    .$.    .+.    ",
"   .##....$@.....@#.    ",
"    .##@@$+#@+$#+..     ",
"     ..###@+####..      ",
"       .........        ",
"                        "};
