/* XPM */
static char * default_xpm[] = {
"13 13 4 1",
" 	c None",
".	c #919191",
"+	c #000000",
"@	c #FFFFFF",
"             ",
"........     ",
".++++++.     ",
".++++++.     ",
".++++++.     ",
".++++++..... ",
".++++++.@@@. ",
".++++++.@@@. ",
"........@@@. ",
"    .@@@@@@. ",
"    .@@@@@@. ",
"    .@@@@@@. ",
"    ........ "};
