/* XPM */
static char * dropper_xpm[] = {
"22 22 3 1",
" 	c None",
".	c #FFFFFF",
"+	c #000000",
"                      ",
"                      ",
"                      ",
"    ...               ",
"   .....              ",
"  .+....              ",
"  .++++....           ",
"  .+++.++.            ",
"   ...+..+.           ",
"     .+...+.          ",
"     ..++..+.         ",
"     . .++..+.        ",
"        .++..+.       ",
"         .++..+.      ",
"          .++..+.     ",
"           .++..+.    ",
"            .++..+.   ",
"             .++..+.  ",
"              .++.+.  ",
"               .++++. ",
"                ...   ",
"                  .   "};
