/* XPM */
static char * dropper_xpm[] = {
"17 17 4 1",
" 	c None",
".	c #000000",
"+	c #929292",
"@	c #FFFFFF",
"            ...  ",
"           ..... ",
"           .....+",
"        ........+",
"         ......++",
"        +@...+++ ",
"       +@@@..+   ",
"      +@@@.+.+   ",
"     +@@@.++ +   ",
"    +@@@.++      ",
"   +@@@.++       ",
"  +@@@.++        ",
" +@@@.++         ",
" +@@.++          ",
"+@..++           ",
" .+++            ",
"  +              "};
