/* XPM */
static char * duplicate_xpm[] = {
"16 16 29 1",
" 	c None",
".	c #000000",
"+	c #F0F0F0",
"@	c #FFFFFF",
"#	c #CCCCCC",
"$	c #F6F6F6",
"%	c #666666",
"&	c #F5F5F5",
"*	c #F7F7F7",
"=	c #EEEEEE",
"-	c #FAFAFA",
";	c #E6E6E6",
">	c #DDDDDD",
",	c #DBDBDB",
"'	c #F2F2F2",
")	c #F4F4F4",
"!	c #E5E5E5",
"~	c #F8F8F8",
"{	c #F9F9F9",
"]	c #E7E7E7",
"^	c #F3F3F3",
"/	c #EFEFEF",
"(	c #E1E1E1",
"_	c #D8D8D8",
":	c #EBEBEB",
"<	c #D3D3D3",
"[	c #D2D2D2",
"}	c #C7C7C7",
"|	c #BDBDBD",
"    .......     ",
"   ..+@@@#.     ",
"  .@.$@@@%.     ",
" .@#.&*@@%......",
".....=@-*%.@@@#.",
".=;>,'-@)%.@@@%.",
".@@+@@@&!%.*@@%.",
".@@~@@{];%.@-*%.",
".@$&*^/(_%.-@)%.",
".@)$&:;,_%.@&!%.",
".@(>,<[}|%.{];%.",
".#%%%%%%%%./(_%.",
"...........;,_%.",
"     .@(>,<[}|%.",
"     .#%%%%%%%%.",
"     ..........."};
