/* XPM */
static char * last_xpm[] = {
"13 13 24 1",
" 	c None",
".	c #000000",
"+	c #999999",
"@	c #333333",
"#	c #FFFFFF",
"$	c #CCCCCC",
"%	c #BEBEBE",
"&	c #A2A2A2",
"*	c #B7B7B7",
"=	c #8B8B8B",
"-	c #CDCDCD",
";	c #E5E5E5",
">	c #9B9B9B",
",	c #A4A4A4",
"'	c #979797",
")	c #636363",
"!	c #6B6B6B",
"~	c #B2B2B2",
"{	c #9F9F9F",
"]	c #5D5D5D",
"^	c #8A8A8A",
"/	c #757575",
"(	c #666666",
"_	c #898989",
" .         ..",
".+..       @.",
".##+..     @.",
".#$##+..   @.",
".#$%$##+.. @.",
".#$$&*=-;+...",
".#$%$>,=')!@.",
".#$$~*={]@...",
".#$%*^/@.. @.",
".#$,(@..   @.",
".+_@..     @.",
".@..       @.",
" .         .."};
