/* Made with Gimp */
#define locked_width 20
#define locked_height 20
static char locked_bits[] = {
   0x00, 0x00, 0x00, 0x80, 0x1f, 0x00, 0xc0, 0x3f, 0x00, 0xe0, 0x70, 0x00,
   0x60, 0x60, 0x00, 0x30, 0xc0, 0x00, 0x30, 0xc0, 0x00, 0xf8, 0xff, 0x01,
   0xf8, 0xff, 0x01, 0x18, 0x80, 0x01, 0x18, 0x86, 0x01, 0x18, 0x8f, 0x01,
   0x18, 0x8f, 0x01, 0x18, 0x86, 0x01, 0x18, 0x86, 0x01, 0x18, 0x86, 0x01,
   0x18, 0x80, 0x01, 0xf8, 0xff, 0x01, 0xf0, 0xff, 0x00, 0x00, 0x00, 0x00 };
