/* XPM */
static char * new_xpm[] = {
"12 14 37 1",
" 	c None",
".	c #000000",
"+	c #F0F0F0",
"@	c #FFFFFF",
"#	c #CCCCCC",
"$	c #F6F6F6",
"%	c #666666",
"&	c #F5F5F5",
"*	c #F7F7F7",
"=	c #F9F9F9",
"-	c #EEEEEE",
";	c #FAFAFA",
">	c #E6E6E6",
",	c #DDDDDD",
"'	c #DBDBDB",
")	c #F2F2F2",
"!	c #FCFCFC",
"~	c #F4F4F4",
"{	c #FBFBFB",
"]	c #E5E5E5",
"^	c #F8F8F8",
"/	c #F1F1F1",
"(	c #E7E7E7",
"_	c #F3F3F3",
":	c #EFEFEF",
"<	c #E1E1E1",
"[	c #D8D8D8",
"}	c #EBEBEB",
"|	c #DFDFDF",
"1	c #E8E8E8",
"2	c #DADADA",
"3	c #C9C9C9",
"4	c #D3D3D3",
"5	c #D2D2D2",
"6	c #CDCDCD",
"7	c #C7C7C7",
"8	c #BDBDBD",
"    ........",
"   ..+@@@@#.",
"  .@.$@@@@%.",
" .@#.&*=@@%.",
".....-@@;*%.",
".->,');!@~%.",
".@@+@@@{&]%.",
".@@^@@=/(>%.",
".@$&*_:(<[%.",
".@~$&}>|'[%.",
".@1](<2[#3%.",
".@<,'45678%.",
".#%%%%%%%%%.",
"............"};
