/* XPM */
static char * no_xpm[] = {
"18 18 3 1",
" 	c None",
".	c #FF0000",
"+	c #7F7F7F",
"                  ",
"                  ",
"   .          .   ",
"  ...        ...  ",
"   ...      ...+  ",
"    ...    ...+   ",
"     ...  ...+    ",
"      ......+     ",
"       ....+      ",
"       ....       ",
"      ......      ",
"     ...++...     ",
"    ...+   ...    ",
"   ...+     ...   ",
"  ...+       ...  ",
"   .+         .+  ",
"                  ",
"                  "};
