/* XPM */
static char * paste_into_xpm[] = {
"13 16 31 1",
" 	c None",
".	c #000000",
"+	c #B8B8B9",
"@	c #656566",
"#	c #F0F0F0",
"$	c #FFFFFF",
"%	c #CCCCCC",
"&	c #F6F6F6",
"*	c #666666",
"=	c #F5F5F5",
"-	c #F9F9F9",
";	c #EEEEEE",
">	c #F7F7F7",
",	c #E6E6E6",
"'	c #DDDDDD",
")	c #DBDBDB",
"!	c #F2F2F2",
"~	c #FCFCFC",
"{	c #F4F4F4",
"]	c #F8F8F8",
"^	c #F1F1F1",
"/	c #F3F3F3",
"(	c #E7E7E7",
"_	c #D8D8D8",
":	c #E8E8E8",
"<	c #E5E5E5",
"[	c #E1E1E1",
"}	c #C9C9C9",
"|	c #D3D3D3",
"1	c #CDCDCD",
"2	c #BDBDBD",
"........     ",
".++++++.     ",
".++..++.     ",
".+.@@.+.     ",
".+....+......",
".+++++..#$$%.",
".++++.$.&$$*.",
".+++.$%.=-$*.",
".++.....;$>*.",
".++.;,')!~{*.",
"....$$]$$^,*.",
"   .$&=>/(_*.",
"   .$:<([_}*.",
"   .$[')|12*.",
"   .%*******.",
"   .........."};
