#define path_width 21
#define path_height 21
static unsigned char path_bits[] = {
  0x00, 0x00, 0x00, 0xe0, 0x7f, 0x00, 0xe0, 0xff, 0x00, 0xe0, 0xff, 0x01,
  0xe0, 0xe1, 0x01, 0xe0, 0xe1, 0x01, 0xe0, 0xe1, 0x01, 0xe0, 0xe1, 0x01,
  0xe0, 0xff, 0x01, 0xe0, 0xff, 0x00, 0xe0, 0x7f, 0x00, 0xe0, 0x0f, 0x00,
  0xe0, 0x01, 0x00, 0xe0, 0x01, 0x00, 0xe0, 0x01, 0x00, 0xe0, 0x01, 0x00,
  0xe0, 0x01, 0x00, 0xe0, 0x01, 0x00, 0xe0, 0x01, 0x00, 0xe0, 0x01, 0x00,
  0x00, 0x00, 0x00, };
