/* XPM */
static char * penstroke_xpm[] = {
"17 17 73 1",
" 	c None",
".	c #C5C5C5",
"+	c #A4A4A4",
"@	c #858585",
"#	c #8F8F8F",
"$	c #B2B2B2",
"%	c #979797",
"&	c #343434",
"*	c #262626",
"=	c #323232",
"-	c #2C2C2C",
";	c #1D1D1D",
">	c #111111",
",	c #838383",
"'	c #545454",
")	c #202020",
"!	c #525252",
"~	c #A1A1A1",
"{	c #BBBBBB",
"]	c #C0C0C0",
"^	c #B7B7B7",
"/	c #949494",
"(	c #494949",
"_	c #181818",
":	c #575757",
"<	c #535353",
"[	c #888888",
"}	c #C8C8C8",
"|	c #C7C7C7",
"1	c #989898",
"2	c #5A5A5A",
"3	c #9A9A9A",
"4	c #8C8C8C",
"5	c #969696",
"6	c #141414",
"7	c #282828",
"8	c #555555",
"9	c #4B4B4B",
"0	c #2A2A2A",
"a	c #B0B0B0",
"b	c #999999",
"c	c #919191",
"d	c #1C1C1C",
"e	c #B6B6B6",
"f	c #8B8B8B",
"g	c #292929",
"h	c #8E8E8E",
"i	c #1E1E1E",
"j	c #B8B8B8",
"k	c #8A8A8A",
"l	c #B3B3B3",
"m	c #909090",
"n	c #BABABA",
"o	c #C6C6C6",
"p	c #4C4C4C",
"q	c #2B2B2B",
"r	c #0E0E0E",
"s	c #4F4F4F",
"t	c #939393",
"u	c #1F1F1F",
"v	c #585858",
"w	c #484848",
"x	c #222222",
"y	c #505050",
"z	c #B9B9B9",
"A	c #9D9D9D",
"B	c #101010",
"C	c #5B5B5B",
"D	c #272727",
"E	c #252525",
"F	c #808080",
"G	c #959595",
"H	c #C9C9C9",
"      .+@#$      ",
"    %&*=-;>-,    ",
"   ')!~{]^/(_:   ",
"  <*[}     |1;2  ",
" 3;4         56, ",
" 78}         |90 ",
"a>b           c>{",
"#d^           edf",
",g]           ]0,",
"hij           e;k",
"l>%           m>n",
" *(o         |pq ",
" [rh         4i[ ",
"  s0t}     |tuv  ",
"   wxy5z]{A9BC   ",
"    cDBu0ED0F    ",
"      lf,GH      "};
