/* XPM */
static char * play_xpm[] = {
"13 13 23 1",
" 	c None",
".	c #000000",
"+	c #4D4D4D",
"@	c #808080",
"#	c #666666",
"$	c #5F5F5F",
"%	c #515151",
"&	c #5C5C5C",
"*	c #464646",
"=	c #676767",
"-	c #737373",
";	c #4E4E4E",
">	c #525252",
",	c #4C4C4C",
"'	c #323232",
")	c #363636",
"!	c #1A1A1A",
"~	c #595959",
"{	c #505050",
"]	c #2F2F2F",
"^	c #454545",
"/	c #3B3B3B",
"(	c #333333",
" .           ",
".+..         ",
".@@+..       ",
".@#@@+..     ",
".@#$#@@+..   ",
".@##%&*=-+.. ",
".@#$#;>*,')!.",
".@##~&*{]!.. ",
".@#$&^/!..   ",
".@#>(!..     ",
".+^!..       ",
".!..         ",
" .           "};
