/* XPM */
static char * qmasksel_xpm[] = {
"11 11 2 1",
" 	c None",
".	c #FF0000",
"...........",
"...........",
"..       ..",
"..       ..",
"..       ..",
"..       ..",
"..       ..",
"..       ..",
"..       ..",
"...........",
"..........."};
