/* XPM */
static char * question_xpm[] = {
"18 27 40 1",
" 	c None",
".	c #000000",
"+	c #CDCACD",
"@	c #BDBEBD",
"#	c #ACAEAC",
"$	c #A4A5A4",
"%	c #6A756A",
"&	c #313031",
"*	c #202420",
"=	c #292829",
"-	c #4A4C4A",
";	c #A4A1A4",
">	c #312C31",
",	c #101410",
"'	c #201C20",
")	c #B4B6B4",
"!	c #202020",
"~	c #C5C2C5",
"{	c #A4AAA4",
"]	c #8B8D8B",
"^	c #080808",
"/	c #ACB2AC",
"(	c #525952",
"_	c #000400",
":	c #BDBABD",
"<	c #4A444A",
"[	c #4A484A",
"}	c #ACAAAC",
"|	c #9C999C",
"1	c #524C52",
"2	c #5A5D5A",
"3	c #625962",
"4	c #313431",
"5	c #292C29",
"6	c #5A555A",
"7	c #C5C6C5",
"8	c #393C39",
"9	c #B4B2B4",
"0	c #6A656A",
"a	c #949994",
"..................",
".++@###@+++@###@+.",
".++@###@+++@###@+.",
".@@@@@@@@@@@@@@@@.",
".##@@$%&*=-;+++@#.",
".#$>...,*'..*)+@#.",
".#;.!;~@##{]^^)@#.",
".@/.(@@@@@@@$_*:@.",
".+@.<##@+++@#[.}+.",
".++@###@+++@#].|+.",
".++@###@+++@#].|+.",
".@@@@@@@@@@@@1.}@.",
".##@+++@###@}.*:#.",
".##@+++@##;2.^)@#.",
".##@+++}3=..4:+@#.",
".@@@@@@5..6$@@@@@.",
".++@###*.7+@###@+.",
".++@###!.++@###@+.",
".++@##$88@+@###@+.",
".@@@@9,..^9@@@@@@.",
".##@+;....0@+++@#.",
".##@+:....a@+++@#.",
".##@++}8=]#@+++@#.",
".@@@@@@@@@@@@@@@@.",
".++@###@+++@###@+.",
".++@###@+++@###@+.",
".................."};
