/* XPM */
static char * raise_xpm[] = {
"13 13 11 1",
" 	c None",
".	c #000000",
"+	c #CCCCCC",
"@	c #FFFFFF",
"#	c #666666",
"$	c #DADADA",
"%	c #999999",
"&	c #BEBEBE",
"*	c #AEAEAE",
"=	c #B3B3B3",
"-	c #333333",
"      .      ",
"     .+.     ",
"     .@.     ",
"    .+@#.    ",
"    .@$%.    ",
"   .+@+$#.   ",
"   .@&$&%.   ",
"  .+@$&$&#.  ",
"  .@+*+=+%.  ",
" .+@%+%+%&#. ",
" .@%=%=%=%%. ",
".+%########-.",
" ........... "};
