/* XPM */
static char * raise_xpm[] = {
"16 16 24 1",
" 	c None",
".	c #000000",
"+	c #999999",
"@	c #FFFFFF",
"#	c #333333",
"$	c #CCCCCC",
"%	c #898989",
"&	c #BEBEBE",
"*	c #A4A4A4",
"=	c #A2A2A2",
"-	c #B2B2B2",
";	c #B7B7B7",
">	c #666666",
",	c #9B9B9B",
"'	c #8A8A8A",
")	c #8B8B8B",
"!	c #757575",
"~	c #CDCDCD",
"{	c #9F9F9F",
"]	c #E5E5E5",
"^	c #979797",
"/	c #5D5D5D",
"(	c #636363",
"_	c #6B6B6B",
"                ",
"                ",
"  ...........   ",
" .+@@@@@@@@+#.  ",
"  .@$$$$$$$%.   ",
"  .+@&$&$&*#.   ",
"   .@$=$-;>.    ",
"   .+@;,;'#.    ",
"    .@)*)!.     ",
"    .+~){#.     ",
"     .]^/.      ",
"     .+(#.      ",
"      ._.       ",
"      .#.       ",
"       .        ",
"                "};
