/* XPM */
static char * refresh_xpm[] = {
"14 12 2 1",
" 	c None",
".	c #000000",
"   ..   ..... ",
" ...    ....  ",
" ..     ....  ",
"..      ..... ",
"..      .  .. ",
"..         .. ",
"..  .      .. ",
".....      .. ",
" ....     ..  ",
" ....    ...  ",
".....   ..    ",
"              "};
