/* XPM */
static char * refresh_xpm[] = {
"24 24 57 1",
" 	c None",
".	c #000000",
"+	c #E9E9E9",
"@	c #E6E6E6",
"#	c #E3E3E3",
"$	c #E0E0E0",
"%	c #DEDEDE",
"&	c #DCDCDC",
"*	c #DADADA",
"=	c #D8D8D8",
"-	c #D5D5D5",
";	c #D3D3D3",
">	c #D1D1D1",
",	c #DBDBDB",
"'	c #D9D9D9",
")	c #D7D7D7",
"!	c #D0D0D0",
"~	c #CECECE",
"{	c #CCCCCC",
"]	c #CACACA",
"^	c #D6D6D6",
"/	c #D4D4D4",
"(	c #C7C7C7",
"_	c #C5C5C5",
":	c #C2C2C2",
"<	c #CFCFCF",
"[	c #BFBFBF",
"}	c #BDBDBD",
"|	c #BBBBBB",
"1	c #B8B8B8",
"2	c #B6B6B6",
"3	c #B1B1B1",
"4	c #AFAFAF",
"5	c #A9A9A9",
"6	c #C9C9C9",
"7	c #BABABA",
"8	c #B5B5B5",
"9	c #B3B3B3",
"0	c #A4A4A4",
"a	c #A1A1A1",
"b	c #AEAEAE",
"c	c #ACACAC",
"d	c #A7A7A7",
"e	c #A5A5A5",
"f	c #A3A3A3",
"g	c #9F9F9F",
"h	c #9C9C9C",
"i	c #9A9A9A",
"j	c #A2A2A2",
"k	c #A0A0A0",
"l	c #9E9E9E",
"m	c #999999",
"n	c #979797",
"o	c #959595",
"p	c #949494",
"q	c #929292",
"r	c #8F8F8F",
"            .           ",
"           ..           ",
"          ...           ",
"         ..+.           ",
"        ..@#......      ",
"       ..#$%&*=-;>..    ",
"       ..%,')-;!~{]..   ",
"    .   ..^/.....(_:..  ",
"   ..    ..<.    .[}|.  ",
"   .      ...     .12.. ",
"  ..       ..      .34. ",
" ...        .      ..5. ",
" .~..      .        ... ",
" .6(.      ..       ..  ",
" ..:[.     ...      .   ",
"  .}71.    .5..    ..   ",
"  ..893.....0a..   .    ",
"   ..bc5defaghi..       ",
"    ..d0jklhmno..       ",
"      ......pq..        ",
"           .r..         ",
"           ...          ",
"           ..           ",
"           .            "};
