/* XPM */
static char * swap_xpm[] = {
"13 13 3 1",
" 	c None",
".	c #919191",
"+	c #000000",
"   .         ",
"  .+.        ",
" .++...      ",
".++++++.     ",
" .++...+.    ",
"  .+.  .+.   ",
"   .    .+.  ",
"        .+.  ",
"       ..+.. ",
"      .+++++.",
"       .+++. ",
"        .+.  ",
"         .   "};
