/* XPM */
static char * topath_xpm[] = {
"18 18 5 1",
" 	c None",
".	c #000000",
"+	c #BCBABC",
"@	c #DEDADE",
"#	c #FFFFFF",
" ..             ..",
"  ............... ",
" ..     ...     ..",
"       +@@#.      ",
"     #.@@@@@.#    ",
"    .+@@@@@@@++   ",
"    #@@@@@@@@@.   ",
"   .@@@@@@@@@@@#  ",
"   +@@@@@@@@@@@+  ",
"   #@@@@@@@@@@@.  ",
"   .@@@@@@@@@@@+  ",
"   +@@@@@@@@@@@#  ",
"    .@@@@@@@@@+   ",
"    ++@@@@@@@.#   ",
"     #.@@@@@#+    ",
"       .+#.+      ",
"  .     ...     . ",
" ................."};
