/* XPM */
static char * topath_xpm[] = {
"24 24 4 1",
" 	c None",
".	c #020204",
"+	c #E8E8E9",
"@	c #B5B5B6",
"                        ",
"                        ",
"                        ",
"                        ",
"   ..      ...      ..  ",
"   ...................  ",
"   ..   +++...+++   ..  ",
"       .@ @ @ @ @.      ",
"      .@ @ @ @ @ @.     ",
"      + @ @ @ @ @ +     ",
"     + @ @ @ @ @ @ +    ",
"     .@ @ @ @ @ @ @.    ",
"     . @ @ @ @ @ @ .    ",
"     .@ @ @ @ @ @ @.    ",
"     + @ @ @ @ @ @ +    ",
"      + @ @ @ @ @ +     ",
"      .@ @ @ @ @ @.     ",
"       .@ @ @ @ @.      ",
"   ..   +++...+++   ..  ",
"   ...................  ",
"   ..      ...      ..  ",
"                        ",
"                        ",
"                        "};
