/* XPM */
static char * update_xpm[] = {
"17 17 76 1",
" 	c None",
".	c #C5C5C5",
"+	c #8A8A8A",
"@	c #000000",
"#	c #848484",
"$	c #B2B2B2",
"%	c #979797",
"&	c #343434",
"*	c #272727",
"=	c #CCCCCC",
"-	c #111111",
";	c #2C2C2C",
">	c #838383",
",	c #545454",
"'	c #202020",
")	c #525252",
"!	c #ADADAD",
"~	c #FFFFFF",
"{	c #989898",
"]	c #494949",
"^	c #222222",
"/	c #565656",
"(	c #535353",
"_	c #262626",
":	c #888888",
"<	c #C8C8C8",
"[	c #666666",
"}	c #C6C6C6",
"|	c #1D1D1D",
"1	c #5A5A5A",
"2	c #9A9A9A",
"3	c #8C8C8C",
"4	c #DADADA",
"5	c #999999",
"6	c #969696",
"7	c #141414",
"8	c #282828",
"9	c #555555",
"0	c #C7C7C7",
"a	c #4B4B4B",
"b	c #2A2A2A",
"c	c #B0B0B0",
"d	c #BEBEBE",
"e	c #919191",
"f	c #BBBBBB",
"g	c #8F8F8F",
"h	c #1C1C1C",
"i	c #B7B7B7",
"j	c #B6B6B6",
"k	c #8B8B8B",
"l	c #292929",
"m	c #C0C0C0",
"n	c #AEAEAE",
"o	c #B3B3B3",
"p	c #8E8E8E",
"q	c #1E1E1E",
"r	c #B8B8B8",
"s	c #909090",
"t	c #BABABA",
"u	c #333333",
"v	c #2B2B2B",
"w	c #0E0E0E",
"x	c #4F4F4F",
"y	c #939393",
"z	c #1F1F1F",
"A	c #585858",
"B	c #484848",
"C	c #505050",
"D	c #B9B9B9",
"E	c #9D9D9D",
"F	c #101010",
"G	c #5B5B5B",
"H	c #252525",
"I	c #808080",
"J	c #959595",
"K	c #C9C9C9",
"      .+@#$      ",
"    %&*@=@-;>    ",
"   ,')!@~@{]^/   ",
"  (_:<@=~[@}%|1  ",
" 2|3  @~45@  67> ",
" 89< @=~=4[@ 0ab ",
"c-5  @~d4d5@  e-f",
"ghi @=~4d4d[@ jhk",
">lm @~=n=o=5@ mb>",
"pqr@=~5=5=5d[@j|+",
"o-%@~5o5o5o55@s-t",
" _@=5[[[[[[[[u@v ",
" :w@@@@@@@@@@@q: ",
"  xby<     0yzA  ",
"   B^C6DmfEaFG   ",
"    e*FzbH*bI    ",
"      ok>JK      "};
