/* XPM */
static char * wilber2_xpm[] = {
"95 95 9 1",
" 	c None",
".	c #FFFFFF",
"+	c #B6B6B6",
"@	c #494949",
"#	c #DBDBDB",
"$	c #6D6D6D",
"%	c #929292",
"&	c #242424",
"*	c #000000",
"                                              .+.                                              ",
"                                     .+.     .+@#     ..+.                                     ",
"                                     #@+.    .$@#     .%&.                                     ",
"                                     #&+.    .&@#.   .+&$.     ..#.                            ",
"                            .++.     +*$..   .$*%.   .%*%.    ..%%.                            ",
"                            .$@.     #@*%.   .#*&.   .#&@.    .%*%.                            ",
"                            .$&+.    .#&&+   .%*&#   .#&*#    #&@..                            ",
"                            .+*&+.   .#*&+  .#&*$.  .#@*&#    #&$.                             ",
"                    .+#.    ..%&&+.  .%*&#  .%**+.  .$**%.   .+&@.    ..++.                    ",
"                    .%@#.    ..@*$.  #@*&#. .$**+.  #**@.. ..+@*@.   .#$&%.                    ",
"                    .+&$..    .@*%.  .@**%. .#&*@.. #&*@.  .%**&+.   .%*%..                    ",
"                     #&*@+.   #&*@.. .+&*&+. .%**%. .$*&#. #&*&+.    .$*#.                     ",
"                  .#+.+$*&+.  #&*&%.. .+&*&+..#&*&#..+**%. #&*@.   ..+&*#                      ",
"              ... .@&...@*%.  .%***$#. .%**&# .@**%. #&*@. .@*@.  .+@&*&.     ....             ",
"              +%..#&$+..@*@.. ..+@**&+..#&**+ .@**$..#**&# .$*&#  #&**@+.   .#+@%.             ",
"              +&%.+*@+#.@**%#.. .#@**@. #&**+.#&**+..%**&. .$*&+  +**$#.    .$*@#.             ",
"              #@&$@**%+#%***@%#...+**&#.+&*@##@**$..%&**$..#&**+ .+**+.    .#&&#.              ",
"              .+@&***@##.%&***&%. #&*&#.@*&+#@**$.#@**&%..#$**&+ .%*&#  ..#+$*%.               ",
"               ..+&**&#...#+&**&#.#&*$.%**@.#&**+.%**&+.#$&***$. .$*&# .#$&**&+.               ",
"                 .@***%.....+&**+.%**+.%**@.#&**+.$**@..@***&%#..+&*&# .%***@%.                ",
"        ...      .$***@......$**+.@**+.+***+.@**$.%**@.+&**$#..#%&**&#..$**%#..   .....        ",
"        #$#.     .$***&%.....#@*#.@**@#.$**&+#&**+#&*&#+**&#.%&*****%.#$@*@..    ..%@&+        ",
"        #@@++#.. .$****&$+....#$#.%***@+#$**&+%**@.$**+#&*@.#&***&@%#%$+$*%.     .%*&%.        ",
"        .+&*&&$. .@******&%.....++#%&**&+#@**$#***#%**$#&*&#+**&%##+@%##&*+. .#+++@&+..        ",
"         .+%$**+..$********$.....#+++@**&+%**&#&**#%**@#@*&#%**$#$&*%..%*&# .+&****$.          ",
"          ...@*&%#%*****@$@*@#....#&$+&**$+**&+***#@**$#&*&+%**&***@..#&*$. .@***&@#.          ",
"            .+***&&*****&##+@@+....%&&&**@+**&@**@%***+$**&+$*****@#..#@%#..+&*@+#..           ",
"             .@**********%..#@&+...#&$%&*&@**&**&@***@%&***&*****&+.........$*&#.              ",
"    ...      ..+++%&*****@...#&@...#&@##@*********************@%&%....++###$**$.      ..##..   ",
"    +$+..#..     ..+*****&#...+&+..+@&$.#&@%+%$$@&&**&***&&@$+#%&#...$&*&&&**&+. .....#@&&%.   ",
"    #@&@@&$#.      #@*****@#...%$...#@&.+$#......##++%%%%+#.+$@&%...+&*******@. .#%$++@*$%#.   ",
"    .#&*&**$#..#++#.#******&+..#%....+%....................#&@%+....@**&$$@&$#..#@*****$...    ",
"     ..#.%**&@&***&+.$*******&%%++%$@&$.............##++#..#+......+**&#........$***&&@#.      ",
"        ..@********@##&*************&%..........+##....+$%#.......+@**%.#++#...%&*@+##..       ",
"         .#@@@%%$&**+.+&************%..........%&&@$.....$$#.....+&**&##@**&$%@**&#.           ",
"          .......+&*&##@***********@...........%$%+@+.....$%.#%$$@***%#@*********%.            ",
"                 .%***&&***********+...............+@#....#$+#+##+@&%#$***@@&***$.. ...  ..... ",
" .##..#+#.  ..###.#&**************&#........#$#.....%#.....#@.....#$%$&*&%#.#%$+....+%#..+@@%# ",
" #@@$$&*@#..+@&&@+.%&*&&@&*********@+#......+*@$$+..........@#.....#&***%..##... ..$&*&$$&&&@+ ",
" .#@**@**&@&*****&#.####.#%*******@&*&$+....+%+++$$#.....##.%+......&**@#+@&@%...#$******&+... ",
"  ..+#.%&****&&***$#.#+$&@&******&+##%@&@#........$+.....%&@%%......@&$#+&****@%$@**@%%$$#.    ",
"      ..%&&$+##+@**&@&***********&#....%&#..#......#.....@**&%...#+.@+#+&**********$#.....     ",
"       ..##..  .#&***************&#....+&#.#$........+.#%****%...$*%&@&***@%+$****@#.          ",
"            .....+&**&@%%$*******&#....+@#.#&&@$@$..#*&&*****#.+#$*******$#...+@@%#.           ",
"           .#%@$#.+%%##++%&******&#...#@+...+%+$$$%.#&******&.#&&&**&**&$##%%#.......#..       ",
"    .###...+&***&#...+@&*********&+...$%.....#.......%&*****%.#@****%%%+#%&**&+.  .#%&@+..#+#..",
".##.+@*&%%$******&++$&************%..+&#.....+#.......%@&**&+..#+@**@%%%@*****&+##+@***&$%&*&%#",
"#$&&*&&*****&$$@*******&&&********@..%$.......%%#......#$@++@$%$@&&*************&&***&&***&$$$#",
".#%@@##$**&$#...%****&$##+&*******&#.%$........%@%%%%%$$%#..#+++%$$@@&***&*********&+##%@$#....",
" .......+$+..  ..%&&@+#+@&*********$.+@.........#+++++#.............+&**$+$****&**@#. .....    ",
"        ... ..#+#.##..$*************$#&$..........%$@$$%...........#&**@+$&****$+#..           ",
"           .#$&*&%#.#$***************$@*$.......+@&@@@$+..........#@***********@#  ....        ",
"          .#$*****@@&**&@%%***********&&*%.....$@%#...............%************&#..#%%#.       ",
"     ..+#.#$***&&*****&%#+@**************&#....#.................#&*************$%$&**&#...    ",
"   ..#@*&&&**@+##%&**&+#@*****************@+....................#@&********************&%%@.   ",
" .#+%@*&****$#. ..+$%##$*******************&&$%+###............#$&@***********&&**&$+%&***&.   ",
" #$&*&%#%@&$#...##....+&**@%@***************@@@&&&@@$+#......#%@**@&*********&@@$%#...+@@%%.   ",
" ..#++....#....%&&@%+%&**%#+&***********&%@*@##&&@&***&@%%%%$&****&$********@$@#...   .....    ",
"             .%*********@#$************&@+&&@$.&*+%****************&%@&**&@$@$#.               ",
"            .#&**&&****&#+&***&*******&+$&*$#$%&*$$*$&***&**********&@@@@$@&*@+###++#.         ",
"        ....#@**$##+$&$+.@**&+%&********&&*%.#@&&@@*@$*&&***************$+#@***&&&**$..        ",
"       .#%%$&**%.. .....+**&#+&***********@+..#&%+*&$&&+%****************$.+*********%....     ",
"      .#@*****@#..#+%+#+&**%#&***&*********&$+.+#.@$#+++&***@***$%@@&&&**&#.%@@@%+%&*&%%%$.    ",
"    ..#%*&@&&@#..#@**&&&**&#%***%%&**********&@+#.####+&****%***@+####+@*&+...#....#@*****.    ",
"    #$&*@#.###. .$********%.@**$#@**************&@@@&****&**%$****@$%#.#**$..      .#%%+%..    ",
"    #%$%#.      #&**@%%$@+.#&*&#$***$%&*****************&$**@#$******@#.&**$#.....  ....       ",
"    .....      .+**$#......%**@#&**$+&**&@&**********&**@%***%#+$@&***%.@***&@@@%#.            ",
"            ...#@*@#...+%%$&**$#&*&#$**&%@**&$**&$&*&%**&#@***$+..+@**$.+&*******%.            ",
"           .#%$&**%..#$******&+#&*@.@**$+&**%@**$%**@+***++@****@#.#&*$..#%$$$@**@..           ",
"           #@****@#..%****&&&+.#**@#&**+%**@+&**+%**&#@**@+#%&***@#.&*@........%&*%##.         ",
"          .+*&@@$+. .@**@+###..%**@.@**#%**@#&**++**&++&**&%##$***+.&**%..    ..$**&@+.        ",
"        ..+@&#....  .&*&#...#+$&**$.$**++**@#@**%.&**@#+&***$.#@*&+.@***$+#..  .#%$@&@#        ",
"        .$*&$.     .#**%..#$*****&#.$**%#@*&+%**&#+&**@##@***#.$*&#.+&*****@+.  ....+@%        ",
"        #++#..    ..$*&+..%***&@%+.#@**$.$**$.@**$.+&**$.#&**%.@*&#..+$@&***@.      .##        ",
"                ..+$**&# .$**@#...+@***+.%**@.+***#.%**&#.@**##@**+. ...#+&*&#                 ",
"                .$****$. .@**+..#@****$..$**@.#&**+.#**&##@*@..@**&+..   .#**+..               ",
"                #&*@$+.. .$*@. .@***$#.#%&**%.#&**+.+**$.+**%..+&**&$+..  .@*&%+.              ",
"               .+*$#..   .@*@. .&**%..#@**&%##@**$.#@*&#.$**$. .+@&**&$.  .+@&*&#.             ",
"              .#@*+.    .#&*@. .&*&#..%**&+..$**$#.%**$..%**&#. ..+$**&#   ..#%*%.             ",
"              #&&%.    .#@**$. .@*&. .@**$. +**&#..@**%..#&**@#.. ..$**+     ..$@.             ",
"              #+#..   .+&**&+. .%*&. .$**+. +**@# .$**@#..+@**&%.. .#&*+.     ..#.             ",
"                      .$*@%#.  .%*&# .+**%. #&*&#..+&*&+. .#%&**%.  #&*$#.                     ",
"                      .@&#..  ..$**+  .&*$. .$**+. .+&*&+. ..%**$.  .%&*@+.                    ",
"                     .#@&.   ..%**&#  .$*&#...@*&#. .+&*&#. .#&*%.  ..#%*$.                    ",
"                     .$&$.   .%**@+.  .%**%. .+**$.  .$**%.  #&*+.    ..@@.                    ",
"                     #@%#.   .$*@#.  ..@**+.  #**&.  .%**+.  #&*%..    .+$#                    ",
"                     ##..    .%*+.   .%**$.  .+**$.  .%*&#   .%&&%.     ...                    ",
"                             .+*%.   #@*$..  .@*@#.  .@*$.   ..#&&#                            ",
"                             #@&+.   .$*+.   .@*%.   .%&@#.    .%&#                            ",
"                             +&%.    .+*%.   .$*%.   ..%*$.    .+@#                            ",
"                             ##..    .+*$.   .#&&#    .#@@.     .#.                            ",
"                                     .$&#.    .$&#     .@$.                                    ",
"                                     .$%.     .@@.     .%+.                                    ",
"                                     .#..     .%+.     ....                                    ",
"                                              ...                                              "};
