/* XPM */
static char * wilber_xpm[] = {
"62 62 218 2",
"  	c None",
". 	c #797561",
"+ 	c #797161",
"@ 	c #CFBE9E",
"# 	c #797159",
"$ 	c #D7CBB6",
"% 	c #CFBEA6",
"& 	c #969286",
"* 	c #716D59",
"= 	c #DFDBD7",
"- 	c #BEB296",
"; 	c #BEB6A6",
"> 	c #BEAE96",
", 	c #B6AA8E",
"' 	c #B6AE96",
") 	c #716951",
"! 	c #716959",
"~ 	c #CFC7B6",
"{ 	c #B6A68E",
"] 	c #AE9E86",
"^ 	c #A69E8E",
"/ 	c #696951",
"( 	c #696959",
"_ 	c #696551",
": 	c #AEA68E",
"< 	c #9E9279",
"[ 	c #867D69",
"} 	c #696151",
"| 	c #9E9679",
"1 	c #968A71",
"2 	c #696149",
"3 	c #616151",
"4 	c #CFC7BE",
"5 	c #8E8269",
"6 	c #797961",
"7 	c #BEBEBE",
"8 	c #615D49",
"9 	c #615949",
"0 	c #968E71",
"a 	c #867561",
"b 	c #796D59",
"c 	c #9E9286",
"d 	c #A69E96",
"e 	c #717161",
"f 	c #A69679",
"g 	c #9E8E71",
"h 	c #8E8671",
"i 	c #868271",
"j 	c #595541",
"k 	c #8E8679",
"l 	c #CFCBC7",
"m 	c #A69A79",
"n 	c #AEAEAE",
"o 	c #968E86",
"p 	c #595941",
"q 	c #AEAAAE",
"r 	c #B6AEA6",
"s 	c #595949",
"t 	c #595141",
"u 	c #C7C3BE",
"v 	c #867961",
"w 	c #AEA6A6",
"x 	c #9E9A8E",
"y 	c #515549",
"z 	c #8E8A86",
"A 	c #C7C7C7",
"B 	c #AEAAA6",
"C 	c #968671",
"D 	c #8E7D69",
"E 	c #A6A296",
"F 	c #9E9A96",
"G 	c #9E968E",
"H 	c #DFDFDF",
"I 	c #515141",
"J 	c #969696",
"K 	c #EFEFEF",
"L 	c #F7F3F7",
"M 	c #FFFFFF",
"N 	c #F7EFEF",
"O 	c #CFCBBE",
"P 	c #9E9271",
"Q 	c #AEA696",
"R 	c #DFD7D7",
"S 	c #F7F3EF",
"T 	c #D7D7D7",
"U 	c #AEA69E",
"V 	c #867D61",
"W 	c #696961",
"X 	c #F7F7F7",
"Y 	c #E7E3DF",
"Z 	c #FFFBFF",
"` 	c #D7CFC7",
" .	c #717159",
"..	c #514D41",
"+.	c #514D38",
"@.	c #514938",
"#.	c #9E9E9E",
"$.	c #EFEBEF",
"%.	c #C7C3C7",
"&.	c #CFCFCF",
"*.	c #FFF7F7",
"=.	c #494538",
"-.	c #494938",
";.	c #8E8A8E",
">.	c #B6B6B6",
",.	c #616561",
"'.	c #494D49",
").	c #595D59",
"!.	c #868286",
"~.	c #B6B2B6",
"{.	c #282C28",
"].	c #B6B2AE",
"^.	c #BEBAB6",
"/.	c #E7E7E7",
"(.	c #EFEBE7",
"_.	c #414130",
":.	c #494130",
"<.	c #797979",
"[.	c #A6A2A6",
"}.	c #515151",
"|.	c #414541",
"1.	c #383838",
"2.	c #282828",
"3.	c #202020",
"4.	c #303030",
"5.	c #000000",
"6.	c #9E9A9E",
"7.	c #696969",
"8.	c #202420",
"9.	c #CFCBCF",
"0.	c #C7BEB6",
"a.	c #413C30",
"b.	c #413828",
"c.	c #383C28",
"d.	c #717171",
"e.	c #494949",
"f.	c #616161",
"g.	c #868686",
"h.	c #414141",
"i.	c #181818",
"j.	c #000400",
"k.	c #101010",
"l.	c #080808",
"m.	c #DFDBDF",
"n.	c #383828",
"o.	c #383C30",
"p.	c #696D69",
"q.	c #969296",
"r.	c #595959",
"s.	c #383830",
"t.	c #494941",
"u.	c #080C08",
"v.	c #181C18",
"w.	c #383C38",
"x.	c #515551",
"y.	c #D7D3D7",
"z.	c #D7D3CF",
"A.	c #101410",
"B.	c #383428",
"C.	c #3E3C30",
"D.	c #303430",
"E.	c #AEAA9E",
"F.	c #8E8E8E",
"G.	c #A6A6A6",
"H.	c #303028",
"I.	c #616159",
"J.	c #383430",
"K.	c #313029",
"L.	c #302C28",
"M.	c #494138",
"N.	c #3F382E",
"O.	c #3D392C",
"P.	c #312F25",
"Q.	c #797D79",
"R.	c #3B382B",
"S.	c #303129",
"T.	c #717169",
"U.	c #202018",
"V.	c #282820",
"W.	c #515541",
"X.	c #303020",
"Y.	c #201C18",
"Z.	c #413C38",
"`.	c #595951",
" +	c #413830",
".+	c #282420",
"++	c #414538",
"@+	c #717571",
"#+	c #383829",
"$+	c #383528",
"%+	c #343228",
"&+	c #181410",
"*+	c #181810",
"=+	c #100C08",
"-+	c #101008",
";+	c #333025",
">+	c #080800",
",+	c #080400",
"'+	c #51503E",
")+	c #1E221E",
"!+	c #24211C",
"~+	c #484438",
"{+	c #4F4B3F",
"]+	c #56564D",
"^+	c #5C5B4E",
"/+	c #5E5D4F",
"(+	c #45413A",
"_+	c #383431",
":+	c #504F3D",
"<+	c #262A26",
"[+	c #242220",
"}+	c #2C2C25",
"|+	c #333425",
"1+	c #3B372F",
"2+	c #444035",
"3+	c #3F3D35",
"4+	c #434239",
"5+	c #45443A",
"                                                                                                                            ",
"                                                                                                                            ",
"                                                                                                                            ",
"                                                                                                                            ",
"                                                                                                                            ",
"                                                                                                                            ",
"                                                                                                                            ",
"                                                                                                                            ",
"                                                                                                                        .   ",
"                                                                                                                        +   ",
"                          @                                                                                           # #   ",
"                          $ %                                                                                       & # *   ",
"                          = - ;                                                                                     # * *   ",
"                            > , '                                                                                 * * ) !   ",
"                            ~ { ] ^                                                                             * ! / ( _   ",
"                              : ] < <                                                                         [ ) ) _ _ }   ",
"                              ; ^ | 1 1                                                                     [ ) / } 2 3 3   ",
"                              4 ^ | 1 5 6 7                                                               * ! _ _ } 8 9 8   ",
"                                : | 0 5 a b c                                                         d * _ _ } 8 8 9 8 e   ",
"                                ; f g h [ . * i                                                     5 * * _ _ 3 8 9 j j k   ",
"                                l m < 1 5 a * ! / n                                             o * * ) _ _ 3 8 9 p j j q   ",
"                                  r f g h [ . b ) _ i                                       &   * * ! ) 2 2 8 9 s j t _     ",
"                                  u m g 1 5 v . # * ! * [ w                           x * ! ) ) ) _ _ } } 8 8 s j t y z     ",
"                                  A B < 0 C D [ v . . + . . . v v h E d F G G + } } _ _ ) _ _ _ _ 3 3 8 8 s 9 j j t 8       ",
"                                H 4 E | < 0 C D [ v v v . v v [ v 6 . # # ( _ } 2 3 2 2 8 8 8 8 8 9 j 9 j j t t I I J       ",
"                                K L M N O P 1 h 5 [ Q R S M L T U V 6 . # ! / } 3 8 8 8 8 9 j j j j j j I t t t I W         ",
"                              X M M M M M Y 0 C h R M M M M M M Z ` V .  .* _ _ 8 9 j j I t I ..I ..+.@...I ..+.j #.        ",
"                            $.M X T %.&.L M 4 1 = M M M M M M Z *.L l . b ) _ 2 8 9 j t I ..+.@.=.=.-.-.-.+.+.j ;.          ",
"        >.,.'.'.).!.      R S M 7 ~.{.{.].M K ^.M M M Z /.&.A Y L L (.E  ./ _ 8 9 j t +.-.-.=._._.:.:.:.=.-.+.<.            ",
"      [.}.|.|.1.2.3.}.].l f M M }.[.4.5.{.M M Y M M M T 6.7.8.,.9.$.Y 0.) ) _ 8 9 j I @.=._._.a.b.a.c.a._.-.d.              ",
"    ~.e.f.g.g.7.e.{.3.h.* g S M i.8.j.5.k.M (.S Z Z M J >.~.4.l.<./.m.&.* _ } 8 p t +.-.=._.a.n.o.n.b.a.=.f.                ",
"    p.}.q.A 7 ;.r.s.8.8.t.+ 4 M ,.u.5.u.f.Z 0.K X X X f.<.<.v.5.e.H T A / / 2 9 j t @.-._.a.a.n.n.s.n.a.'.                  ",
"    w.x.[.T y.J ).1.2.{.1.I 1 = m.p.w.7.R z.C z.L L X r.i.A.5.5.}.T 9.w _ 3 8 p I I @.:.a.a.n.n.B.B.o.C.                    ",
"    4.'.g.q [.<.'.D.4.D.w.e.+ 5 0./.Z /.0.h h E.K K K #.8.5.5.3.;.&.A o } 8 9 j ..+.=._.a.b.n.n.n.B.n.h.                    ",
"  q 3.w.7.!.<.r.w.4.D.w.|.'.s v v v [ 5 5 [ D D A $./.y.J '.e.F.%.%.6._ } 2 9 j I =.=._._.o.n.B.n.n.s.                      ",
"  G.8.4.}.f.r.e.w.1.w.|.'.x.x.* . . v v [ [ [ [ [ ^.H m.m.= m.y.&.d * 2 8 8 j t +.-.=._.a.b.o.n.s.n.H.                      ",
"    2.8.1.|.|.w.1.w.e.'.x.).I._ * b . 6 v V V v v 6 E r A T &.].& _ } } 9 t I ..-.=.:.a.a.n.n.B.n.J.                        ",
"    4.3.4.D.1.w.h.|.}.r.f.,.,.8 _ ) * # . v a . . + . + * ! * _ _ 2 3 8 s =._.@.-.:._.a.a.B.n.n.n.K.                        ",
"    d.2.2.D.w.h.e.}.r.f.,.d.W j 8 3 / * # # . # b # * ) ( ) _ } } 3 9 9 ..B.a.=.=._.a.b.B.B.n.n.B.                          ",
"      w.4.1.h.e.}.r.f.7.p.<.W t p 9 8 _ ) *  . .* ) ! _ _ } _ 8 8 9 p j L.n._.M._.a.n.n.n.n.N.O.P.                          ",
"      g.e.h.e.}.r.f.7.d.<.Q.s +.I j p 9 3 _ ) _ _ _ _ 2 3 3 9 9 j p t {.H._.I +.a.o.b.n.s.n.R.S.                            ",
"        Q.}.x.).,.p.T.<.!.T.-.-.@.+.j t j 8 } 8 8 8 8 9 p 9 j j I -.U.V.h.y ).W.b.n.B.n.n.n.H.                              ",
"          ;.,.f.7.d.Q.!.Q.r.=.=.=.-.@.I t j 9 9 s j p j t t I ..X.Y.{.Z.t ,.* `. +n.s.n.n.n.                                ",
"            [.!.T.<.!.7.W.-.:._.:.-.@.@...I j I I +...I I =..+Y.U.{.o.I _ . + =.o.n.n.B.n.                                  ",
"                x _ 8 9 t -.=._.++=.=.-.=.-.+.-.+._.H.U.v.Y.U.V.D.a.I I.p.@+,.n.#+n.$+%+                                    ",
"                  >.e a.X.V.H.H.H.H.H.X.U.&+*+A.=+-+*+Y.U.L.B.a.t.t 8 W ! _ a.n.n.n.;+                                      ",
"                        W L.-+-+l.>+>+>+,+>+u.=+A.v.U.V.D.o.-.I ).I._ _ I.o.o.c.n.                                          ",
"                            6.I.D.*+u.u.l.u.A.*+U.V.D.n.+++.x.8 ,.,.8 '+ +L.o.                                              ",
"                                      w.H.U.)+!+H.n.Z.~+{+]+^+/+I (+_+:+'+                                                  ",
"                                          1.<+[+}+|+Z.1+2+3+4+5+5+                                                          ",
"                                                                                                                            ",
"                                                                                                                            ",
"                                                                                                                            ",
"                                                                                                                            ",
"                                                                                                                            ",
"                                                                                                                            ",
"                                                                                                                            ",
"                                                                                                                            ",
"                                                                                                                            ",
"                                                                                                                            ",
"                                                                                                                            ",
"                                                                                                                            "};
