/* XPM */
static char * wilber3_xpm[] = {
"79 59 299 2",
"  	c None",
". 	c #D5D6D5",
"+ 	c #C5C2BD",
"@ 	c #A4A194",
"# 	c #C5BEBD",
"$ 	c #D5D2D5",
"% 	c #CDCAC5",
"& 	c #7B7562",
"* 	c #B4B2AC",
"= 	c #D5CEBD",
"- 	c #D5CEC5",
"; 	c #A49D94",
"> 	c #CDBE9C",
", 	c #D5D2CD",
"' 	c #BDBEBD",
") 	c #7B715A",
"! 	c #B4AEAC",
"~ 	c #CDCECD",
"{ 	c #CDC2AC",
"] 	c #C5BAA4",
"^ 	c #524439",
"/ 	c #8B857B",
"( 	c #736D5A",
"_ 	c #9C998B",
": 	c #CDCABD",
"< 	c #C5B694",
"[ 	c #BDB29C",
"} 	c #D5CECD",
"| 	c #413020",
"1 	c #291C08",
"2 	c #9C9994",
"3 	c #94897B",
"4 	c #BDB294",
"5 	c #B4AA8B",
"6 	c #B4AA94",
"7 	c #CDCACD",
"8 	c #736962",
"9 	c #291808",
"0 	c #B4AEA4",
"a 	c #73695A",
"b 	c #ACAAA4",
"c 	c #C5BAAC",
"d 	c #ACA183",
"e 	c #A49983",
"f 	c #CDC6C5",
"g 	c #C5C6C5",
"h 	c #C5C2C5",
"i 	c #BDBABD",
"j 	c #B4B6B4",
"k 	c #B4B2B4",
"l 	c #94918B",
"m 	c #736952",
"n 	c #6A6952",
"o 	c #6A6552",
"p 	c #A4A59C",
"q 	c #ACA58B",
"r 	c #AC9D83",
"s 	c #9C917B",
"t 	c #736552",
"u 	c #625541",
"v 	c #392408",
"w 	c #312008",
"x 	c #311C08",
"y 	c #4A4039",
"z 	c #5A504A",
"A 	c #73716A",
"B 	c #7B7573",
"C 	c #9C9D9C",
"D 	c #7B7962",
"E 	c #A4A19C",
"F 	c #9C957B",
"G 	c #948973",
"H 	c #8B8573",
"I 	c #6A5941",
"J 	c #412C10",
"K 	c #412810",
"L 	c #412808",
"M 	c #392008",
"N 	c #201808",
"O 	c #201408",
"P 	c #181000",
"Q 	c #180C00",
"R 	c #312C29",
"S 	c #6A6562",
"T 	c #BDB6B4",
"U 	c #6A6152",
"V 	c #62614A",
"W 	c #C5BEB4",
"X 	c #523C20",
"Y 	c #4A2C10",
"Z 	c #392808",
"` 	c #201400",
" .	c #100C00",
"..	c #413C39",
"+.	c #625D4A",
"@.	c #ACA18B",
"#.	c #7B6952",
"$.	c #4A3010",
"%.	c #100800",
"&.	c #080800",
"*.	c #393C39",
"=.	c #62594A",
"-.	c #736D62",
";.	c #B4B2A4",
">.	c #523818",
",.	c #080400",
"'.	c #ACAAAC",
").	c #7B7162",
"!.	c #5A594A",
"~.	c #5A5541",
"{.	c #837D73",
"].	c #ACAEAC",
"^.	c #A4997B",
"/.	c #101410",
"(.	c #6A695A",
"_.	c #5A5941",
":.	c #949594",
"<.	c #ACAA9C",
"[.	c #181400",
"}.	c #101008",
"|.	c #292820",
"1.	c #524C41",
"2.	c #6A614A",
"3.	c #625D52",
"4.	c #626152",
"5.	c #A4A1A4",
"6.	c #A4A5A4",
"7.	c #202018",
"8.	c #201C18",
"9.	c #312C20",
"0.	c #413C31",
"a.	c #4A4839",
"b.	c #5A5041",
"c.	c #9C999C",
"d.	c #ACA59C",
"e.	c #83755A",
"f.	c #5A4429",
"g.	c #312410",
"h.	c #292010",
"i.	c #292418",
"j.	c #292420",
"k.	c #313029",
"l.	c #313020",
"m.	c #393429",
"n.	c #393831",
"o.	c #414031",
"p.	c #4A4439",
"q.	c #524C39",
"r.	c #8B8D8B",
"s.	c #BDBAB4",
"t.	c #A49D8B",
"u.	c #948D73",
"v.	c #8B816A",
"w.	c #837962",
"x.	c #5A554A",
"y.	c #525041",
"z.	c #413831",
"A.	c #393829",
"B.	c #313429",
"C.	c #8B898B",
"D.	c #949194",
"E.	c #DEDEDE",
"F.	c #F6EEEE",
"G.	c #FFFAFF",
"H.	c #EEEAE6",
"I.	c #7B7973",
"J.	c #9C9594",
"K.	c #8B8983",
"L.	c #6A6962",
"M.	c #4A4431",
"N.	c #7B7D7B",
"O.	c #838583",
"P.	c #EEEAEE",
"Q.	c #FFFFFF",
"R.	c #F6F6F6",
"S.	c #D5D6CD",
"T.	c #8B7D6A",
"U.	c #524839",
"V.	c #7B797B",
"W.	c #838183",
"X.	c #E6E2E6",
"Y.	c #DEDADE",
"Z.	c #625D5A",
"`.	c #6A696A",
" +	c #737573",
".+	c #5A595A",
"++	c #414441",
"@+	c #4A4C4A",
"#+	c #6A6D6A",
"$+	c #F6F2EE",
"%+	c #BDB6A4",
"&+	c #F6F2F6",
"*+	c #E6E6E6",
"=+	c #EEEEEE",
"-+	c #525552",
";+	c #5A5D5A",
">+	c #4A484A",
",+	c #414041",
"'+	c #393839",
")+	c #292829",
"!+	c #181C18",
"~+	c #292C29",
"{+	c #313031",
"]+	c #E6DEDE",
"^+	c #525052",
"/+	c #626162",
"(+	c #202020",
"_+	c #9C8D7B",
":+	c #000000",
"<+	c #626562",
"[+	c #393C29",
"}+	c #202420",
"|+	c #4A4841",
"1+	c #CDC6BD",
"2+	c #000400",
"3+	c #080C08",
"4+	c #413C29",
"5+	c #393C31",
"6+	c #737173",
"7+	c #83817B",
"8+	c #52504A",
"9+	c #181818",
"0+	c #ACA5A4",
"a+	c #313431",
"b+	c #4A4441",
"c+	c #E6E2DE",
"d+	c #8B856A",
"e+	c #948D83",
"f+	c #83796A",
"g+	c #837D6A",
"h+	c #C5C6BD",
"i+	c #5A5552",
"j+	c #83816A",
"k+	c #948D8B",
"l+	c #62615A",
"m+	c #7B6D5A",
"n+	c #837D62",
"o+	c #949183",
"p+	c #4A4031",
"q+	c #73715A",
"r+	c #413829",
"s+	c #414039",
"t+	c #5A5952",
"u+	c #524841",
"v+	c #392C20",
"w+	c #4A3C29",
"x+	c #5A4839",
"y+	c #5A4C39",
"z+	c #5A4029",
"A+	c #624831",
"B+	c #6A5039",
"C+	c #735939",
"D+	c #7B6141",
"E+	c #83654A",
"F+	c #8B6D4A",
"G+	c #947552",
"H+	c #9C795A",
"I+	c #A4815A",
"J+	c #AC8962",
"K+	c #B4916A",
"L+	c #A48962",
"M+	c #8B7152",
"N+	c #94795A",
"O+	c #83715A",
"P+	c #52554A",
"Q+	c #312818",
"R+	c #413429",
"S+	c #524031",
"T+	c #624C31",
"U+	c #6A5539",
"V+	c #735941",
"W+	c #83694A",
"X+	c #8B6D52",
"Y+	c #9C7D5A",
"Z+	c #A4855A",
"`+	c #BD996A",
" @	c #C5A173",
".@	c #AC9173",
"+@	c #292C20",
"@@	c #736152",
"#@	c #947952",
"$@	c #A48562",
"%@	c #AC8D62",
"&@	c #BD9973",
"*@	c #181810",
"=@	c #100C08",
"-@	c #101010",
";@	c #202418",
">@	c #6A655A",
",@	c #524831",
"'@	c #625539",
")@	c #B4956A",
"!@	c #BD9D73",
"~@	c #080808",
"{@	c #181410",
"]@	c #8B796A",
"^@	c #414439",
"/@	c #62655A",
"(@	c #393431",
". . . . . . . . . . . . . . . . . . . . . . . . . . . . . . . . . . . . . . . . . . . . . . . . . . . . . . . . . . . . . . . . . . . . . . . . . . . . . . . ",
". . . . . . . . . . . . . . . . . . . . . . . . . . . . . . . . . . . . . . . . . . . . . . . . . . . . . . . . . . . . . . . . . . . . . . . . . . . . . . . ",
". . . . . . . . . . . . . . . . . . . . . . . . . . . . . . . . . . . . . . . . . . . . . . . . . . . . . . . . . . . . . . . + . . . . . . . . . . . . . . . ",
". . . . . . . . . . . . . . . . . . . . . . . . . . . . . . . . . . . . . . . . . . . . . . . . . . . . . . . . . . . . . . . @ # . . . . . . . . . . . . . . ",
". . . . . . . . . . . . . . . $ . . . . . . . . . . . . . . . . . . . . . . . . . . . . . . . . . . . . . . . . . . . . . . % & * $ $ $ . . . . . . . . . . . ",
". . . . . . . . . . . . . . . = - . . . . . . . . . . . . . . . . . . . . . . . . . . . . . . . . . . . . . . . . . . . . $ ; & * $ $ $ $ . . . . . . . . . . ",
". . . . . . . . . . . . . . . $ > , . . . . . . . . . . . . . . . . . . . . . . . . . . . . . . . . . . . . . . . . . $ $ ' & ) ! ~ $ $ $ $ . . . . . . . . . ",
". . . . . . . . . . . . . . . . { ] , . $ $ $ $ $ $ . . . . . . . . . . . . ! ^ . . . . . . . . . . . . . . . . . . $ $ $ / ) ( _ ~ ~ $ $ $ $ . . . . . . . . ",
". . . . . . . . . . . . . . . . : < [ } $ $ $ $ $ $ $ $ $ . . . . . . . . . | 1 . . . . . . . . . . . . . . . . . $ $ $ 2 ) ( ( 3 ~ ~ ~ $ $ $ . . . . . . . . ",
". . . . . . . . . . . . . . . . . 4 5 6 ~ $ $ ~ ~ ~ ~ ~ ~ ~ ~ $ ~ $ ~ ~ 7 7 8 9 ~ ~ ~ ~ $ $ $ $ $ $ . . . . . . $ $ $ 0 ( ( ( a b 7 7 ~ ~ $ $ . . . . . . . . ",
". . . . . . . . . . . . . . . . . c 5 d e f ~ 7 7 g g g g h h h h ' i j j k l 9 j i h ' h g g ~ ~ ~ $ . . . . $ $ ~ h ( a m n o p g 7 ~ ~ $ $ . . . . . . . . ",
". . . . . . . . . . . . . . . . $ % q r s s + g h ' i 3 t u v v v w w w x 1 9 9 y z A B B C k i h g 7 ~ $ $ $ $ ~ h D a m o o o E h g 7 ~ $ $ . . . . . . . . ",
". . . . . . . . . . . . . . . . $ $ [ r F G H p 2 I J K L v v v M w w x 1 1 9 9 N O O P P P Q R S j ' g ~ ~ ~ ~ T & m o o U U V b # h 7 ~ $ $ $ . . . . . . . ",
". . . . . . . . . . . . . . . $ $ $ W r F H ) X Y J K L Z v v v w w x x 1 9 9 N O O ` P P P  . . ...k i g 7 7 b ( m n o U +.+.+.i ' h g 7 ~ $ $ . . . . . . . ",
". . . . . . . . . . . . . . . $ $ ~ ~ @.F #.$.Y J J K L v v v w w w x 1 1 9 9 N O O P P P Q  . .%.&.*.k i h 3 ( m o U V +.=.=.-.k i ' g 7 ~ $ $ . . . . . . . ",
". . . . . . . . . . . . . . . $ $ ~ 7 ;.F >.Y Y J K L Z v v v w w x 1 1 9 9 N O O ` P P P  . .%.%.&.,.'.E ).a m o o U +.=.!.~.{.].j i h 7 ~ $ $ . . . . . . . ",
". . . . . . . . . . . . . . . $ $ ~ 7 + ^.$.Y J K K L v v v w w w x 1 1 9 N O O ` P P P Q  . .%.&.&./.(.U n m o U U +.=._.~.~.:.'.k i h g 7 ~ $ $ . . . . . . ",
". . . . . . . . . . . . . . . $ $ ~ 7 h <.>.Y J K L Z v v v w w x 1 1 9 9 N O O [.P P P  . .%.%.}.|.1.!.+.U o U 2.3.+.!.~.~.4.5.6.].j ' g 7 ~ $ $ . . . . . . ",
". . . . . . . . . . . . . . . $ $ ~ f h i ) J K L L v v v w w w x 1 1 9 N O O ` P P P Q 7.8.9.9.0.a.1.~.=.4.U 4.+.=.=.~.~.b.B c.5.].j ' g 7 ~ $ $ . . . . . . ",
". . . . . . . . . . . . . . $ $ $ ~ g h i d.e.f.L Z v v M w w x 1 g.h.h.i.|.j.|.k.k.|.|.9.l.m.n.o.p.q.b._.=.+.+.!.=.~.~.b.!.r.:.E '.k ' h 7 ~ $ $ . . . . . . ",
". . . . . . . . . . . . . . . $ $ ~ 7 h s.t.u.v.w.a V x.y.q.a.p.y o.0.z.A.m.B.k.k.k.k.k.m.A.0.0.p.a.q.b.~.x.!.~.~.~.b.b.y.B C.D.C 6.k i h 7 ~ $ $ . . . . . . ",
". . . . . . . . . . . . . . . $ $ ~ % E.F.G.H.W v.& ( o 3.I.J.b '.C K.L.a.p.p.o.0.0.0.0.o.o.o.M.a.a.q.1.y.b.b.y.b.b.y.y.3.N.O.D.c.6.k i h 7 ~ $ $ . . . . . . ",
". . . . . . . . . . . . . . . $ $ ~ P.Q.G.G.R.R.S.T.w.& * $ ~ ~ ~ 7 h h 2 !.~.y.q.q.U.a.a.p.a.p.a.a.a.q.U.q.q.q.q.1.q.y.A V.W.r.c.6.k ' h 7 ~ $ $ . . . . . . ",
". . . . . . . . . j k h 7 . $ $ ~ E.Q.R.G.R.R.R.R.W v.% P.P.X.Y.Y.E.E.E.. * o U +.=.~.b.y.q.U.a.a.p.a.p.p.p.p.a.q.q.y.Z.`. +W.l C '.k ' g 7 ~ $ $ . . . . . . ",
". . . . . . ~ c..+++++@+#+i $ $ s.$+R.G.R.. h E.G.H.%+G.R.&+*+P.P.=+P.P.*+X.t.m o U +.~.b.y.U.a.p.M.o.o.0.o.M.p.a.a.-+;+`. +W.D.C '.j ' g 7 ~ $ . . . . . . . ",
". . . . . ~ r.>+,+++'+)+!+++:.* ^.Q.&+G.' k ~+{+g Q.]+Q.Q.&+&+R.*+$ $ X.P.E.' ( n U +.=.~.y.U.p.M.o.0.0.0.0.0.M.p.>+^+;+`. +O.D.5.].j h g ~ $ $ . . . . . . . ",
". . . . . :.,+/+O.O.`.>+~+(+*.( _+F.&+Q.-+5.~+:+~+P.&+G.G.=+G.. c.<+)+<+$ Y.~ ( o U =.!.b.q.p.p.0.0.0.[+n.[+0.o.*.++^+;+#+V.C.:.6.k i h 7 ~ $ $ . . . . . . . ",
". . . . 7 /+@+D.g h r..+'+}+}+|+).1+R.Q./.}+2+:+3+1+F.R.R.=+G.:.j j {+3+N.. g m o U +.~.y.U.p.o.0.4+5+A.A.A.n.k.'+++^+/+6+7+r.C '.j ' g 7 ~ $ $ . . . . . . . ",
". . . . h '+.+5.. ~ :.;+'+~+~+'+8+G E.R./+3+:+3+ +H , &+&+&+R./+V.V.9+:+@+7 0+n U +.!.b.y.U.M.0.0.A.A.A.A.5+R ~+'+>+-+<+ +O.:.5.].i h g ~ $ $ . . . . . . . . ",
". . . . :.~+@+O.].6.V.@+a+{+a+*.b+) v.+ c+6+,+O.d+v.0 =+=+=+&+;+9+/.:+:+;+g e+o U =.~.1.q.p.y 0.0.A.A.A.A.A.}+~+*.@+;+#+N.r.C '.j ' g 7 ~ $ $ . . . . . . . . ",
". . . . D.!+*.`.W.V.;+,+{+a+*.++@+!.f+g+g+g+v.v.v.v.T.h+P.*+X.C }+:+:+(+'.2 o U +.=.~.y.a.p.o.o.0.A.A.A.A.9.}+{+,+^+<+ +O.:.6.k i h 7 ~ $ $ . . . . . . . . . ",
". . . . r.(+{+^+/+.+>+'+'+*.++@+-+i+( & & w.w.g+g+g+g+j+s.E.Y.. C @+^+'.E a U +.=.~.b.q.a.M.o.0.4+n.A.m.n.(+}+a+++.+`.N.k+C '.j h g ~ ~ $ . . . . . . . . . . ",
". . . . C }+}+'+++++*.'+,+>+^+.+;+l+U ( m+& D w.n+n+w.w.& @ * 7 . ~ * o+o U V +.~.y.1.a.p.p+o.0.A.A.n.A.k.!+)+'+@+/+ +O.:.6.k ' g 7 ~ $ $ . . . . . . . . . . ",
". . . . 7 ~+(+~+'+*.*.,+>+^+.+/+`.L.+.o m q+) & w.w.& & & & ) ( ( ( n o U 4.+.!.p.o.q.a.p+o.0.r+A.A.A.A.|.(+{+,+-+`.N.D.5.].i h g ~ $ $ . . . . . . . . . . . ",
". . . . . /+}+~+a+*.,+>+^+.+/+`.6+L.!.+.U n ( ) ) & ) ) ) ( ( m m o U U V +.=.y.m.0.p.p.o.0.n.A.m.A.A.A.!+)+a+>+;+6+O.c.'.k ' g 7 ~ $ $ . . . . . . . . . . . ",
". . . . . 5.'+{+'+,+>+^+.+/+`.6+I.L.~._.=.+.o m ( ( ( ( ( m n o o U +.+.=.!.~.R n.s+p.o.0.0.A.A.A.A.0.}+(+{+*.^+<+V.r.C ].i h 7 ~ $ $ . . . . . . . . . . . . ",
". . . . . 7  +>+,+>+^+.+/+`.6+V.N.t+q.y.~.x.+.V o m m o o o U V +.=.!.!.~.~.9.k.s+1.u+0.0.A.A.A.A.A.9.!+)+a+|+.+#+W.:.6.j ' g ~ $ $ . . . . . . . . . . . . . ",
". . . . . $ j  +^+-+;+<+#+6+V.W. +a.a.U.q.b.~.=.+.U 4.+.+.+.=.!.=.x.y.y.p.v+w+x+u U =.y+M.n.A.A.A.m.!+(+k.*.^+/+ +C.c.'.i h 7 ~ $ $ . . . . . . . . . . . . . ",
". . . . . . . k W.<+<+#+6+N.W.N.!.p.M.p.a.1.y.b.~.=.=.!.~.x.~.~.~.y.U.l.| z+A+B+C+D+E+F+G+H+I+J+K+L+M+N+O+Z..+/+6+O.5.].i h 7 ~ 5.j $ . . . . . . . . . . . . ",
". . . . . . . $ i :.N. +V.N.L.P+a.p.o.M.p.a.q.1.q.~.y.y.1.y.y.1.p.j.7.Q+R+S+T+U+V+D+W+X+G+Y+Z+J+K+`+ @.@r.O.N. +6+#+#+O.C C -+*.++@+<+C $ . . . . . . . . . . ",
". . . . . . . . $ ~ h l (.U =.b.a.p.s+M.p.M.a.p.q.q.U.q.o.k.i.8.8.7.+@m.s+y.4.-.m+@@I M+#@Y+$@%@K+&@ @l ].k j j k ].6.C C.{+'+,+>+^+.+/+W.g $ . . . . . . . . ",
". . . . . . . . $ $ ~ g 0+L.0.l.|.l.B.k.k.k.l.7.*@*@/.=@-@*@!+;@+@B.0.|+P+4.(.-.>@0.5+A.o.,@'@M+)@!@ @7+c.6.k i h g g 7 >+a+*.++@+-+;+<+#+ +5.h $ . . . . . . ",
". . . . . . . . $ $ ~ g h i 5.l+~+-@=@3+~@~@&.,.&.3+}.{@!+7.+@k.0.a.y.t+l+>@>@3.0.A.A.k.{@-@/.9+(+p.t ]@N.W.r.:.C 6.].j @+a+*.>+^+.+/+`.6+V.W.C.D.j 7 . . . . ",
". . . . . . . . $ $ ~ 7 h i k 6.c.r.t+k.*@3+3+~@=@-@*@7.|.k.n.^@1.x.4./@>@4.1.z.k.7.-@-@-@/.9+(+)+{+'+++@+;+`.W.r.:.C '.5./+,+>+-+;+<+#+ +N.O.C h $ $ . . . . ",
". . . . . . . . $ $ ~ 7 g ' j '.E :.C.V.6+<+++a+|.|.|.k.n.o.|+y.t+4.l+x.s+}+7.-@-@-@/.9+9+!+}+)+{+'+,+>+^+;+`. +N.O.D.c.5.6.:.#+/+;+`.6+W.C h ~ ~ $ $ . . . . ",
". . . . . . . . . $ $ ~ g h i ].6.C D.O.V.#+<+-+@+,+a+~+)+(+!+!+9+9+9+9+9+9+9+9+9+!+!+(+}+)+~+a+'+,+>+^+.+/+#+ +N.O.r.:.c.5.6.'.].k j i ' h g 7 ~ $ $ $ . . . ",
". . . . . . . . . $ $ ~ 7 g ' j ].6.c.l O.N.6+<+.+@+++*.(@{+~+)+)+}+}+}+}+}+}+}+)+)+~+{+a+'+*.++>+^+-+;+<+#+ +N.O.C.D.:.c.5.6.'.].k j i ' h g 7 ~ $ $ $ . . . ",
". . . . . . . . . . $ $ ~ 7 h ' j ].6.c.D.C.N.6+`.;+-+@+>+,+*.'+'+'+'+'+a+a+'+'+'+*.,+++|+@+^+-+;+/+`.#+ +V.W.O.r.D.:.c.C 5.6.'.].k j ' ' h g 7 ~ ~ $ $ . . . ",
". . . . . . . . . . $ $ ~ ~ g h ' j ].6.C :.r.W.V.#+`./+;+i+^+@+@+@+@+>+>+>+@+@+^+^+-+.+;+<+`.#+6+V.N.W.C.r.D.:.c.C 5.6.6.'.'.].k j i ' h g g 7 ~ $ $ $ . . . ",
". . . . . . . . . . . $ $ ~ 7 g h ' j k '.5.c.D.C.W.V. +6+`.`.<+/+/+/+/+/+/+<+<+`.`.#+6+V.N.W.O.C.D.:.c.C C 5.6.'.'.].k k k k k j i ' h h g 7 ~ ~ $ $ $ . . . ",
". . . . . . . . . . . $ $ $ ~ 7 g h ' i j ].'.5.c.D.r.C.O.W.N.V.V.V.V.V.V.V.N.N.W.W.O.C.k+D.c.C 5.6.'.].].k k j j i i i i i i i ' ' h h g 7 ~ ~ $ $ $ $ . . . ",
". . . . . . . . . . . . $ $ $ ~ ~ 7 g h ' i j ].'.6.5.C c.:.D.D.r.r.r.r.r.D.D.D.:.c.C 5.5.6.'.].k j i ' ' ' h h h g g h h h h h h g g g 7 ~ ~ ~ $ $ $ . . . . ",
". . . . . . . . . . . . . $ $ $ $ ~ ~ 7 g h ' i j k ].].'.6.6.5.5.5.5.5.5.5.6.6.'.].].k j j i ' h h g g 7 7 7 7 7 ~ 7 7 7 g 7 g 7 7 7 ~ ~ ~ $ $ $ $ . . . . . ",
". . . . . . . . . . . . . . . $ $ $ ~ ~ 7 7 g h h ' ' i j j j k k k k k k k j j j i ' ' h g g 7 7 7 ~ ~ ~ $ $ $ $ $ $ $ ~ ~ ~ ~ ~ ~ ~ ~ $ $ $ $ $ . . . . . . ",
". . . . . . . . . . . . . . . . $ $ $ $ $ ~ ~ 7 7 g g h h h ' ' ' ' ' ' ' ' h h h g g g 7 ~ ~ ~ $ $ $ $ . . . . . . $ $ $ $ $ $ $ $ $ $ $ $ $ . . . . . . . . ",
". . . . . . . . . . . . . . . . . . $ $ $ $ $ ~ ~ ~ ~ 7 7 7 7 7 g g g g 7 7 7 7 7 ~ ~ ~ ~ $ $ $ $ . . . . . . . . . . . . $ $ $ $ $ $ $ $ $ . . . . . . . . . ",
". . . . . . . . . . . . . . . . . . . . . $ $ $ $ $ $ $ ~ ~ ~ ~ ~ ~ ~ ~ ~ ~ ~ ~ $ $ $ $ $ $ . . . . . . . . . . . . . . . . . . . . . . . . . . . . . . . . . ",
". . . . . . . . . . . . . . . . . . . . . . . . . . $ $ $ $ $ $ $ $ $ $ $ $ $ $ $ . . . . . . . . . . . . . . . . . . . . . . . . . . . . . . . . . . . . . . ",
". . . . . . . . . . . . . . . . . . . . . . . . . . . . . . . . . . . . . . . . . . . . . . . . . . . . . . . . . . . . . . . . . . . . . . . . . . . . . . . "};
