/* XPM */
static char * wilber_xpm[] = {
"62 62 191 2",
"  	c None",
". 	c #797561",
"+ 	c #797161",
"@ 	c #CFBE9E",
"# 	c #797159",
"$ 	c #D7CBB6",
"% 	c #CFBEA6",
"& 	c #969286",
"* 	c #716D59",
"= 	c #DFDBD7",
"- 	c #BEB296",
"; 	c #BEB6A6",
"> 	c #BEAE96",
", 	c #B6AA8E",
"' 	c #B6AE96",
") 	c #716951",
"! 	c #716959",
"~ 	c #CFC7B6",
"{ 	c #B6A68E",
"] 	c #AE9E86",
"^ 	c #A69E8E",
"/ 	c #696951",
"( 	c #696959",
"_ 	c #696551",
": 	c #E7DFDF",
"< 	c #AEA68E",
"[ 	c #9E9279",
"} 	c #867D69",
"| 	c #696151",
"1 	c #9E9679",
"2 	c #968A71",
"3 	c #C7BEB6",
"4 	c #696149",
"5 	c #616151",
"6 	c #CFC7BE",
"7 	c #8E8269",
"8 	c #797961",
"9 	c #BEBEBE",
"0 	c #615D49",
"a 	c #615949",
"b 	c #968E71",
"c 	c #867561",
"d 	c #796D59",
"e 	c #9E9286",
"f 	c #A69E96",
"g 	c #717161",
"h 	c #DFDBDF",
"i 	c #A69679",
"j 	c #9E8E71",
"k 	c #8E8671",
"l 	c #868271",
"m 	c #595541",
"n 	c #8E8679",
"o 	c #CFCBC7",
"p 	c #A69A79",
"q 	c #AEAEAE",
"r 	c #968E86",
"s 	c #595941",
"t 	c #AEAAAE",
"u 	c #D7D3D7",
"v 	c #B6AEA6",
"w 	c #595949",
"x 	c #595141",
"y 	c #C7C3BE",
"z 	c #867961",
"A 	c #AEA6A6",
"B 	c #9E9A8E",
"C 	c #515549",
"D 	c #8E8A86",
"E 	c #C7C7C7",
"F 	c #AEAAA6",
"G 	c #968671",
"H 	c #8E7D69",
"I 	c #A6A296",
"J 	c #9E9A96",
"K 	c #9E968E",
"L 	c #DFDFDF",
"M 	c #515141",
"N 	c #969696",
"O 	c #EFEBEF",
"P 	c #EFEFEF",
"Q 	c #F7F3F7",
"R 	c #FFFFFF",
"S 	c #F7EFEF",
"T 	c #CFCBBE",
"U 	c #9E9271",
"V 	c #AEA696",
"W 	c #DFD7D7",
"X 	c #F7F3EF",
"Y 	c #D7D7D7",
"Z 	c #AEA69E",
"` 	c #867D61",
" .	c #696961",
"..	c #F7F7F7",
"+.	c #E7E3DF",
"@.	c #FFFBFF",
"#.	c #D7CFC7",
"$.	c #717159",
"%.	c #514D41",
"&.	c #514D38",
"*.	c #514938",
"=.	c #9E9E9E",
"-.	c #C7C3C7",
";.	c #CFCFCF",
">.	c #FFF7F7",
",.	c #494538",
"'.	c #494938",
").	c #8E8A8E",
"!.	c #B6B6B6",
"~.	c #616561",
"{.	c #494D49",
"].	c #595D59",
"^.	c #868286",
"/.	c #B6B2B6",
"(.	c #282C28",
"_.	c #B6B2AE",
":.	c #BEBAB6",
"<.	c #E7E7E7",
"[.	c #EFEBE7",
"}.	c #414130",
"|.	c #494130",
"1.	c #797979",
"2.	c #A6A2A6",
"3.	c #515151",
"4.	c #414541",
"5.	c #383838",
"6.	c #282828",
"7.	c #202020",
"8.	c #303030",
"9.	c #000000",
"0.	c #9E9A9E",
"a.	c #696969",
"b.	c #202420",
"c.	c #CFCBCF",
"d.	c #413C30",
"e.	c #413828",
"f.	c #383C28",
"g.	c #717171",
"h.	c #494949",
"i.	c #616161",
"j.	c #868686",
"k.	c #414141",
"l.	c #181818",
"m.	c #000400",
"n.	c #101010",
"o.	c #080808",
"p.	c #383828",
"q.	c #383C30",
"r.	c #696D69",
"s.	c #797D79",
"t.	c #969296",
"u.	c #595959",
"v.	c #383830",
"w.	c #494941",
"x.	c #080C08",
"y.	c #181C18",
"z.	c #383C38",
"A.	c #515551",
"B.	c #D7D3CF",
"C.	c #101410",
"D.	c #383428",
"E.	c #303430",
"F.	c #AEAA9E",
"G.	c #8E8E8E",
"H.	c #A6A6A6",
"I.	c #303028",
"J.	c #616159",
"K.	c #383430",
"L.	c #717571",
"M.	c #302C28",
"N.	c #494138",
"O.	c #413830",
"P.	c #717169",
"Q.	c #202018",
"R.	c #282820",
"S.	c #515541",
"T.	c #181810",
"U.	c #303020",
"V.	c #201C18",
"W.	c #413C38",
"X.	c #595951",
"Y.	c #282420",
"Z.	c #414538",
"`.	c #181410",
" +	c #100C08",
".+	c #101008",
"++	c #080800",
"@+	c #080400",
"#+	c #BEBABE",
"$+	c #A6A29E",
"%+	c #494541",
"                                                                                                                            ",
"                                                                                                                            ",
"                                                                                                                            ",
"                                                                                                                            ",
"                                                                                                                            ",
"                                                                                                                            ",
"                                                                                                                            ",
"                                                                                                                            ",
"                                                                                                                        .   ",
"                                                                                                                        +   ",
"                          @                                                                                           # #   ",
"                          $ %                                                                                       & # *   ",
"                          = - ;                                                                                     # * *   ",
"                            > , '                                                                                 * * ) !   ",
"                            ~ { ] ^                                                                             * ! / ( _   ",
"                            : < ] [ [                                                                         } ) ) _ _ |   ",
"                              ; ^ 1 2 2 3                                                                   } ) / | 4 5 5   ",
"                              6 ^ 1 2 7 8 9                                                               * ! _ _ | 0 a 0   ",
"                              = < 1 b 7 c d e                                                         f * _ _ | 0 0 a 0 g   ",
"                              h ; i j k } . * l                                                     7 * * _ _ 5 0 a m m n   ",
"                                o p [ 2 7 c * ! / q                                             r * * ) _ _ 5 0 a s m m t   ",
"                                u v i j k } . d ) _ l                                       &   * * ! ) 4 4 0 a w m x _     ",
"                                  y p j 2 7 z . # * ! * } A 6                         B * ! ) ) ) _ _ | | 0 0 w m x C D     ",
"                                  E F [ b G H } z . . + . . . z z k I f J K K + | | _ _ ) _ _ _ _ 5 5 0 0 w a m m x 0       ",
"                                L 6 I 1 [ b G H } z z z . z z } z 8 . # # ( _ | 4 5 4 4 0 0 0 0 0 a m a m m x x M M N       ",
"                              O P Q R S T U 2 k 7 } V W X R Q Y Z ` 8 . # ! / | 5 0 0 0 0 a m m m m m m M x x x M  .        ",
"                            ....R R R R R +.b G k W R R R R R R @.#.` . $.* _ _ 0 a m m M x M %.M %.&.*.%.M %.&.m =.        ",
"              Y           @.O R ..Y -.;.Q R 6 2 = R R R R R R @.>.Q o . d ) _ 4 0 a m x M %.&.*.,.,.'.'.'.&.&.m ).          ",
"        !.~.{.{.].^.      W X R 9 /.(.(._.R P :.R R R @.<.;.E +.Q Q [.I $./ _ 0 a m x &.'.'.,.}.}.|.|.|.,.'.&.1.            ",
"      2.3.4.4.5.6.7.3._.o i R R 3.2.8.9.(.R R +.R R R Y 0.a.b.~.c.O +.3 ) ) _ 0 a m M *.,.}.}.d.e.d.f.d.}.'.g.              ",
"    /.h.i.j.j.a.h.(.7.k.* j X R l.b.m.9.n.R [.X @.@.R N !./.8.o.1.<.h ;.* _ | 0 s x &.'.,.}.d.p.q.p.e.d.,.i.r.s.            ",
"    r.3.t.E 9 ).u.v.b.b.w.+ 6 R ~.x.9.x.i.@.3 P ......i.1.1.y.9.h.L Y E / / 4 a m x *.'.}.d.d.p.p.v.p.d.{.].r.^.            ",
"    z.A.2.Y u N ].5.6.(.5.M 2 = h r.z.a.W B.G B.Q Q ..u.l.C.9.9.3.Y c.A _ 5 0 s M M *.|.d.d.p.p.D.D.q.d.{.].g.              ",
"    8.{.j.t 2.1.{.E.8.E.z.h.+ 7 3 <.@.<.3 k k F.P P P =.b.9.9.7.).;.E r | 0 a m %.&.,.}.d.e.p.p.p.D.p.k.{.i.1.              ",
"  t 7.z.a.^.1.u.z.8.E.z.4.{.w z z z } 7 7 } H H E O <.u N {.h.G.-.-.0._ | 4 a m M ,.,.}.}.q.p.D.p.p.v.z.3.a.                ",
"  H.b.8.3.i.u.h.z.5.z.4.{.A.A.* . . z z } } } } } :.L h h = h u ;.f * 4 0 0 m x &.'.,.}.d.e.q.p.v.p.I.k.A.g.                ",
"    6.b.5.4.4.z.5.z.h.{.A.].J._ * d . 8 z ` ` z z 8 I v E Y ;._.& _ | | a x M %.'.,.|.d.d.p.p.D.p.K.8.4.i.                  ",
"    8.7.8.E.5.z.k.4.3.u.i.~.~.0 _ ) * # . z c . . + . + * ! * _ _ 4 5 0 w ,.}.*.'.|.}.d.d.D.p.p.p.I.E.{.a.                  ",
"    g.6.6.E.z.k.h.3.u.i.~.g. .m 0 5 / * # # . # d # * ) ( ) _ | | 5 a a %.D.d.,.,.}.d.e.D.D.p.p.D.b.5.A.L.                  ",
"      z.8.5.k.h.3.u.i.a.r.1. .x s a 0 _ ) * $.$.* ) ! _ _ | _ 0 0 a s m M.p.}.N.}.d.p.p.p.p.O.d.b.6.k.i.s.                  ",
"      j.h.k.h.3.u.i.a.g.1.s.w &.M m s a 5 _ ) _ _ _ _ 4 5 5 a a m s x (.I.}.M &.d.q.e.p.v.p.p.(.y.8.{.a.                    ",
"        s.3.A.].~.r.P.1.^.P.'.'.*.&.m x m 0 | 0 0 0 0 a s a m m M '.Q.R.k.C ].S.e.p.D.p.p.p.I.T.b.5.u.1.                    ",
"        E ).~.i.a.g.s.^.s.u.,.,.,.'.*.M x m a a w m s m x x M %.U.V.(.W.x ~.* X.O.p.v.p.p.p.T.l.8.h.J.                      ",
"            2.^.P.1.^.a.S.'.|.}.|.'.*.*.%.M m M M &.%.M M ,.Y.V.Q.(.q.M _ . + ,.q.p.p.D.p.y.C.7.5.u.                        ",
"              u B _ 0 a x '.,.}.Z.,.,.'.,.'.&.'.&.}.I.Q.y.V.Q.R.E.d.M J.r.L.~.p.p.p.D.I.n.n.y.8.h.~.                        ",
"                  !.g d.U.R.I.I.I.I.I.U.Q.`.T.C. +.+T.V.Q.M.D.d.w.x 0  .! _ d.p.O.p.R.n.n.y.(.k.].                          ",
"                         .M..+.+o.++++++@+++x. +C.y.Q.R.E.q.'.M ].J._ _ J.q.q.f.I.C.x.n.y.6.z.A.                            ",
"                        #+  0.J.E.T.x.x.o.x.C.T.Q.R.E.p.Z.&.A.0 ~.~.0 '.O.M.y.x.x.n.T.7.(.W.A.r.                            ",
"                            $+t.s.r.].z.I.Q.b.Y.I.p.W.,.%.X.5 5 M W.7.T.o.x.x.n.C.l.b.8.4.u.g.                              ",
"                                ).L.~.A.4.5.(.7.l.C.C.n.x.o.x.x.x.x.x.x.n.C.l.y.6.8.z.h.                                    ",
"                                  j.g.~.3.%+5.8.6.b.y.y.l.l.l.l.l.l.y.7.7.Y.(.E.                                            ",
"                                    j.1.a.].{.4.z.5.8.8.8.(.(.(.8.8.8.E.z.k.                                                ",
"                                        j.L.r.i.u.A.3.{.{.h.h.{.h.{.3.A.                                                    ",
"                                              ^.1.L.g.r.g.r.r.r.                                                            ",
"                                                      N t.N                                                                 ",
"                                                                                                                            ",
"                                                                                                                            ",
"                                                                                                                            ",
"                                                                                                                            ",
"                                                                                                                            ",
"                                                                                                                            ",
"                                                                                                                            "};
