/* XPM */
static char * yes_xpm[] = {
"18 18 3 1",
" 	c None",
".	c #3D841B",
"+	c #7F7F7F",
"                  ",
"                  ",
"                  ",
"              .   ",
"             ...  ",
"            ...+  ",
"           ...+   ",
"  .       ...+    ",
" ...     ...+     ",
"  ...   ...+      ",
"   ... ...+       ",
"    .....+        ",
"     ...+         ",
"      .+          ",
"                  ",
"                  ",
"                  ",
"                  "};
