/* XPM */
static char * yes_xpm[] = {
"18 18 18 1",
" 	c None",
".	c #000000",
"+	c #B3C2A7",
"@	c #708C58",
"#	c #859D71",
"$	c #627B4D",
"%	c #97AB86",
"&	c #566C43",
"*	c #A2BD9E",
"=	c #789774",
"-	c #88AC84",
";	c #5E764A",
">	c #698566",
",	c #6D8855",
"'	c #688251",
")	c #668050",
"!	c #6D8956",
"~	c #4F633E",
"                  ",
"                  ",
"            ..    ",
"           .+@.   ",
"           .#$.   ",
"          .%@.    ",
"    ..    .#&.    ",
"   .*=.  .#@.     ",
"   .--.. .@&.     ",
"    .-=..;@.      ",
"    .-->.,&.      ",
"     .--').       ",
"      .-!~.       ",
"      .--.        ",
"       .>.        ",
"        .         ",
"                  ",
"                  "};
