/* XPM */
static char * zoom_in_xpm[] = {
"20 19 3 1",
" 	c None",
".	c #000000",
"+	c #7F7F7F",
"                    ",
"                    ",
"                    ",
"         .          ",
"         .+         ",
"         .+         ",
"         .+         ",
"         .+         ",
"    ...........     ",
"     ++++.++++++    ",
"         .+         ",
"         .+         ",
"         .+         ",
"         .+         ",
"          +         ",
"                    ",
"                    ",
"                    ",
"                    "};
