/* XPM */
static char * zoom_out_xpm[] = {
"20 20 3 1",
" 	c None",
".	c #000000",
"+	c #7F7F7F",
"                    ",
"                    ",
"                    ",
"                    ",
"                    ",
"                    ",
"                    ",
"                    ",
"                    ",
"    ...........     ",
"     +++++++++++    ",
"                    ",
"                    ",
"                    ",
"                    ",
"                    ",
"                    ",
"                    ",
"                    ",
"                    "};
