<?xml version="1.0" encoding="UTF-8" standalone="no"?>
<svg
   version="1.1"
   id="svg1"
   width="24"
   height="24"
   viewBox="0 0 24 24"
   sodipodi:docname="gfig-bezier.svg"
   inkscape:version="1.3.2 (091e20e, 2023-11-25, custom)"
   xmlns:inkscape="http://www.inkscape.org/namespaces/inkscape"
   xmlns:sodipodi="http://sodipodi.sourceforge.net/DTD/sodipodi-0.dtd"
   xmlns="http://www.w3.org/2000/svg"
   xmlns:svg="http://www.w3.org/2000/svg">
  <defs
     id="defs1" />
  <sodipodi:namedview
     id="namedview1"
     pagecolor="#ffffff"
     bordercolor="#999999"
     borderopacity="1"
     inkscape:showpageshadow="0"
     inkscape:pageopacity="0"
     inkscape:pagecheckerboard="0"
     inkscape:deskcolor="#d1d1d1"
     inkscape:zoom="16.854167"
     inkscape:cx="23.673671"
     inkscape:cy="19.372064"
     inkscape:window-width="1920"
     inkscape:window-height="1002"
     inkscape:window-x="-8"
     inkscape:window-y="-8"
     inkscape:window-maximized="1"
     inkscape:current-layer="g1" />
  <g
     inkscape:groupmode="layer"
     inkscape:label="gfig-bezier"
     id="g1">
    <path
       style="fill:none;stroke:#ffffff;stroke-width:2.7;stroke-linecap:butt;stroke-linejoin:miter;stroke-dasharray:none;stroke-opacity:1"
       d="m 4.3609394,16.969098 c 1.9257395,-3.593677 3.7307634,-9.0439595 8.0692216,-4.390606 2.310204,2.477884 5.388462,-1.02313 7.208899,-5.7552534"
       id="path2"
       sodipodi:nodetypes="csc"
       inkscape:label="bezier outline" />
    <path
       style="fill:none;stroke:#000000;stroke-width:1px;stroke-linecap:butt;stroke-linejoin:miter;stroke-opacity:1"
       d="m 4.776267,16.375773 c 1.9257395,-3.593677 3.3154358,-8.4506345 7.653894,-3.797281 2.310204,2.477884 5.299464,-0.07381 6.763906,-4.9839308"
       id="path1"
       sodipodi:nodetypes="csc"
       inkscape:label="bezier" />
    <path
       id="rect1-4-6-9-9"
       style="display:inline;fill:none;stroke:#ffffff;stroke-width:1.974;stroke-linecap:round;stroke-dasharray:none;stroke-opacity:1;paint-order:markers fill stroke"
       d="m 1.318,16.323368 h 3.705195 c 0,0 0,0.21504 0,0.482153 v 2.740891 c 0,0.267113 0,0.482153 0,0.482153 H 1.318 c 0,0 0,-0.21504 0,-0.482153 v -2.740891 c 0,-0.267113 0,-0.482153 0,-0.482153 z m 16.103832,-2.117429 h 3.705195 c 0,0 0,0.215041 0,0.482153 v 2.740891 c 0,0.267113 0,0.482154 0,0.482154 h -3.705195 c 0,0 0,-0.215041 0,-0.482154 v -2.740891 c 0,-0.267112 0,-0.482153 0,-0.482153 z M 19.326653,4.1775093 h 3.705196 c 0,0 0,0.2150404 0,0.482153 v 2.740891 c 0,0.267113 0,0.482153 0,0.482153 h -3.705196 c 0,0 0,-0.21504 0,-0.482153 v -2.740891 c 0,-0.2671126 0,-0.482153 0,-0.482153 z M 4.5491476,5.4074208 h 3.7051955 c 0,0 0,0.2150404 0,0.482153 v 2.740891 c 0,0.2671127 0,0.4821531 0,0.4821531 H 4.5491476 c 0,0 0,-0.2150404 0,-0.4821531 v -2.740891 c 0,-0.2671126 0,-0.482153 0,-0.482153 z"
       inkscape:label="points outline" />
    <path
       id="rect1-4-1-6"
       style="display:inline;fill:none;stroke:#df421e;stroke-width:0.631879;stroke-linecap:round;stroke-opacity:1;paint-order:markers fill stroke"
       d="m 1.3179395,16.323028 h 3.705196 c 0,0 0,0.215041 0,0.482153 v 2.740891 c 0,0.267113 0,0.482153 0,0.482153 h -3.705196 c 0,0 0,-0.21504 0,-0.482153 v -2.740891 c 0,-0.267112 0,-0.482153 0,-0.482153 z M 17.421771,14.2056 h 3.705196 c 0,0 0,0.21504 0,0.482153 v 2.740891 c 0,0.267112 0,0.482152 0,0.482152 h -3.705196 c 0,0 0,-0.21504 0,-0.482152 v -2.740891 c 0,-0.267113 0,-0.482153 0,-0.482153 z M 19.326592,4.1771695 h 3.705196 c 0,0 0,0.2150404 0,0.482153 v 2.7408908 c 0,0.267113 0,0.482152 0,0.482152 h -3.705196 c 0,0 0,-0.215039 0,-0.482152 V 4.6593225 c 0,-0.2671126 0,-0.482153 0,-0.482153 z M 4.5490874,5.407081 H 8.254283 c 0,0 0,0.2150404 0,0.482153 v 2.740891 c 0,0.2671126 0,0.4821523 0,0.4821523 H 4.5490874 c 0,0 0,-0.2150397 0,-0.4821523 V 5.889234 c 0,-0.2671126 0,-0.482153 0,-0.482153 z"
       inkscape:label="points" />
  </g>
</svg>
