<?xml version="1.0" encoding="UTF-8" standalone="no"?>
<svg
   version="1.1"
   id="svg1"
   width="32"
   height="32"
   viewBox="0 0 32 32"
   sodipodi:docname="gfig-rectangle.svg"
   inkscape:version="1.3.2 (091e20e, 2023-11-25, custom)"
   xml:space="preserve"
   xmlns:inkscape="http://www.inkscape.org/namespaces/inkscape"
   xmlns:sodipodi="http://sodipodi.sourceforge.net/DTD/sodipodi-0.dtd"
   xmlns="http://www.w3.org/2000/svg"
   xmlns:svg="http://www.w3.org/2000/svg"><defs
     id="defs1" /><sodipodi:namedview
     id="namedview1"
     pagecolor="#ffffff"
     bordercolor="#999999"
     borderopacity="1"
     inkscape:showpageshadow="0"
     inkscape:pageopacity="0"
     inkscape:pagecheckerboard="0"
     inkscape:deskcolor="#d1d1d1"
     inkscape:zoom="12.640625"
     inkscape:cx="7.3572311"
     inkscape:cy="23.139679"
     inkscape:window-width="1920"
     inkscape:window-height="1002"
     inkscape:window-x="-8"
     inkscape:window-y="-8"
     inkscape:window-maximized="1"
     inkscape:current-layer="g1" /><g
     inkscape:groupmode="layer"
     inkscape:label="gfig-rectangle"
     id="g1"><path
       style="fill:none;stroke:#ffffff;stroke-width:3.9;stroke-linecap:butt;stroke-linejoin:miter;stroke-dasharray:none;stroke-opacity:1"
       d="M 4.5488257,6.9616811 V 26.066749 H 23.930779"
       id="path9"
       inkscape:label="left rectangle outline"
       sodipodi:nodetypes="ccc" /><path
       style="fill:none;stroke:#ffffff;stroke-width:3.9;stroke-linecap:butt;stroke-linejoin:miter;stroke-dasharray:none;stroke-opacity:1"
       d="M 6.7639061,4.7466007 H 25.908529 V 23.733004"
       id="path10"
       inkscape:label="right rectangle outline"
       sodipodi:nodetypes="ccc" /><path
       style="fill:none;stroke:#000000;stroke-width:1.7;stroke-linecap:butt;stroke-linejoin:miter;stroke-dasharray:none;stroke-opacity:1"
       d="M 4.5488257,6.9616811 V 26.066749 H 23.930779"
       id="path8"
       inkscape:label="left rectangle"
       sodipodi:nodetypes="ccc" /><path
       style="fill:none;stroke:#000000;stroke-width:1.7;stroke-linecap:butt;stroke-linejoin:miter;stroke-dasharray:none;stroke-opacity:1"
       d="M 6.7639061,4.7466007 H 25.908529 V 23.733004"
       id="path7"
       inkscape:label="right rectangle"
       sodipodi:nodetypes="ccc" /><path
       id="rect1-9-9"
       style="fill:none;stroke:#ffffff;stroke-width:2.638;stroke-linecap:round;stroke-dasharray:none;stroke-opacity:1;paint-order:markers fill stroke"
       d="m 24.515081,24.534858 h 4.419414 c 0,0 0,0.256492 0,0.575094 v 3.269229 c 0,0.318601 0,0.575092 0,0.575092 h -4.419414 c 0,0 0,-0.256491 0,-0.575092 v -3.269229 c 0,-0.318602 0,-0.575094 0,-0.575094 z"
       inkscape:label="bottom-endpoint-outline" /><path
       id="rect1-2"
       style="fill:none;stroke:#e1502f;stroke-width:0.753681;stroke-linecap:round;paint-order:markers fill stroke"
       d="m 24.514502,24.534279 h 4.419414 c 0,0 0,0.256491 0,0.575092 v 3.269231 c 0,0.3186 0,0.575092 0,0.575092 h -4.419414 c 0,0 0,-0.256492 0,-0.575092 v -3.269231 c 0,-0.318601 0,-0.575092 0,-0.575092 z"
       inkscape:label="bottom-endpoint" /><path
       id="rect1-9"
       style="display:inline;fill:none;stroke:#ffffff;stroke-width:2.638;stroke-linecap:round;stroke-dasharray:none;stroke-opacity:1;paint-order:markers fill stroke"
       d="m 1.7944416,1.8006221 h 4.4194143 c 0,0 0,0.2564917 0,0.5750932 v 3.2692291 c 0,0.3186015 0,0.575092 0,0.575092 H 1.7944416 c 0,0 0,-0.2564905 0,-0.575092 V 2.3757153 c 0,-0.3186015 0,-0.5750932 0,-0.5750932 z"
       inkscape:label="top-endpoint-outline" /><path
       id="rect1"
       style="display:inline;fill:none;stroke:#e1502f;stroke-width:0.753681;stroke-linecap:round;paint-order:markers fill stroke"
       d="m 1.7938626,1.8000431 h 4.4194143 c 0,0 0,0.2564905 0,0.5750921 v 3.2692301 c 0,0.3186003 0,0.5750921 0,0.5750921 H 1.7938626 c 0,0 0,-0.2564918 0,-0.5750921 V 2.3751352 c 0,-0.3186016 0,-0.5750921 0,-0.5750921 z"
       inkscape:label="top-endpoint" /></g></svg>
