<?xml version="1.0" encoding="UTF-8" standalone="no"?>
<svg
   version="1.1"
   id="svg1"
   width="24"
   height="24"
   viewBox="0 0 24 24"
   sodipodi:docname="gfig-spiral.svg"
   inkscape:version="1.3.2 (091e20e, 2023-11-25, custom)"
   xmlns:inkscape="http://www.inkscape.org/namespaces/inkscape"
   xmlns:sodipodi="http://sodipodi.sourceforge.net/DTD/sodipodi-0.dtd"
   xmlns="http://www.w3.org/2000/svg"
   xmlns:svg="http://www.w3.org/2000/svg">
  <defs
     id="defs1" />
  <sodipodi:namedview
     id="namedview1"
     pagecolor="#ffffff"
     bordercolor="#999999"
     borderopacity="1"
     inkscape:showpageshadow="0"
     inkscape:pageopacity="0"
     inkscape:pagecheckerboard="0"
     inkscape:deskcolor="#d1d1d1"
     inkscape:zoom="16.854167"
     inkscape:cx="26.343634"
     inkscape:cy="18.422744"
     inkscape:window-width="1920"
     inkscape:window-height="1002"
     inkscape:window-x="-8"
     inkscape:window-y="-8"
     inkscape:window-maximized="1"
     inkscape:current-layer="g1" />
  <g
     inkscape:groupmode="layer"
     inkscape:label="gfig-spiral"
     id="g1">
    <path
       style="fill:none;stroke:#ffffff;stroke-width:3.7;stroke-linecap:butt;stroke-linejoin:miter;stroke-opacity:1;stroke-dasharray:none"
       d="M 8.1878863,5.5475896 H 20.499382 V 18.571075 H 4.4202719 V 8.5735476 H 17.384425 V 15.485785 H 7.2682324 v -3.708282 h 3.4709516"
       id="path2"
       inkscape:label="path outline"
       sodipodi:nodetypes="cccccccccc" />
    <path
       style="fill:none;stroke:#000000;stroke-width:1px;stroke-linecap:butt;stroke-linejoin:miter;stroke-opacity:1"
       d="M 8.1878863,5.5475896 H 20.499382 V 18.571075 H 4.4202719 V 8.5735476 H 17.384425 V 15.485785 H 7.2682324 v -3.708282 h 3.4709516"
       id="path1"
       inkscape:label="path"
       sodipodi:nodetypes="cccccccccc" />
    <path
       id="rect1-9-1"
       style="fill:none;stroke:#ffffff;stroke-width:1.896;stroke-linecap:round;stroke-dasharray:none;stroke-opacity:1;paint-order:markers fill stroke"
       d="m 11.249978,10.284588 h 3.495981 c 0,0 0,0.202898 0,0.454928 v 2.586126 c 0,0.25203 0,0.454928 0,0.454928 h -3.495981 c 0,0 0,-0.202898 0,-0.454928 v -2.586126 c 0,-0.25203 0,-0.454928 0,-0.454928 z"
       inkscape:label="bottom-endpoint-outline" />
    <path
       id="rect1-2"
       style="fill:none;stroke:#df421e;stroke-width:0.5962;stroke-linecap:round;stroke-opacity:1;paint-order:markers fill stroke"
       d="m 11.24952,10.28413 h 3.495981 c 0,0 0,0.202898 0,0.454928 v 2.586126 c 0,0.25203 0,0.454927 0,0.454927 H 11.24952 c 0,0 0,-0.202897 0,-0.454927 v -2.586126 c 0,-0.25203 0,-0.454928 0,-0.454928 z"
       inkscape:label="bottom-endpoint" />
    <path
       id="rect1-9"
       style="fill:none;stroke:#ffffff;stroke-width:1.896;stroke-linecap:round;stroke-dasharray:none;stroke-opacity:1;paint-order:markers fill stroke"
       d="m 4.1461459,3.1943535 h 3.495981 c 0,0 0,0.2028976 0,0.4549275 v 2.5861263 c 0,0.2520298 0,0.4549274 0,0.4549274 h -3.495981 c 0,0 0,-0.2028976 0,-0.4549274 V 3.649281 c 0,-0.2520299 0,-0.4549275 0,-0.4549275 z"
       inkscape:label="top-endpoint-outline" />
    <path
       id="rect1"
       style="fill:none;stroke:#df421e;stroke-width:0.5962;stroke-linecap:round;stroke-opacity:1;paint-order:markers fill stroke"
       d="m 4.1456879,3.1938953 h 3.495981 c 0,0 0,0.2028976 0,0.4549275 v 2.5861263 c 0,0.2520298 0,0.4549274 0,0.4549274 h -3.495981 c 0,0 0,-0.2028976 0,-0.4549274 V 3.6488228 c 0,-0.2520299 0,-0.4549275 0,-0.4549275 z"
       inkscape:label="top-endpoint" />
  </g>
</svg>
