<?xml version="1.0" encoding="UTF-8" standalone="no"?>
<svg
   xmlns:osb="http://www.openswatchbook.org/uri/2009/osb"
   xmlns:dc="http://purl.org/dc/elements/1.1/"
   xmlns:cc="http://creativecommons.org/ns#"
   xmlns:rdf="http://www.w3.org/1999/02/22-rdf-syntax-ns#"
   xmlns:svg="http://www.w3.org/2000/svg"
   xmlns="http://www.w3.org/2000/svg"
   xmlns:xlink="http://www.w3.org/1999/xlink"
   xmlns:sodipodi="http://sodipodi.sourceforge.net/DTD/sodipodi-0.dtd"
   xmlns:inkscape="http://www.inkscape.org/namespaces/inkscape"
   viewBox="0 0 15.999999 16"
   id="svg7384"
   height="16"
   width="16"
   version="1.1"
   inkscape:version="0.92pre1 unknown"
   sodipodi:docname="gimp-prefs-folders-tool-presets.svg">
  <sodipodi:namedview
     pagecolor="#ffffff"
     bordercolor="#666666"
     borderopacity="1"
     objecttolerance="10"
     gridtolerance="10"
     guidetolerance="10"
     inkscape:pageopacity="0"
     inkscape:pageshadow="2"
     inkscape:window-width="1920"
     inkscape:window-height="1016"
     id="namedview1507"
     showgrid="true"
     inkscape:zoom="16.347398"
     inkscape:cx="-1.4609825"
     inkscape:cy="11.415684"
     inkscape:window-x="0"
     inkscape:window-y="27"
     inkscape:window-maximized="1"
     inkscape:current-layer="svg7384">
    <inkscape:grid
       type="xygrid"
       id="grid4256" />
  </sodipodi:namedview>
  <metadata
     id="metadata90">
    <rdf:RDF>
      <cc:Work
         rdf:about="">
        <dc:format>image/svg+xml</dc:format>
        <dc:type
           rdf:resource="http://purl.org/dc/dcmitype/StillImage" />
        <dc:title></dc:title>
        <dc:contributor>
          <cc:Agent>
            <dc:title>Barbara Muraus, Jakub Steiner, Klaus Staedtler</dc:title>
          </cc:Agent>
        </dc:contributor>
        <dc:description>Images originally created as the &quot;Art Libre&quot; icon set. Extended and adopted for GIMP</dc:description>
      </cc:Work>
    </rdf:RDF>
  </metadata>
  <defs
     id="defs7386">
    <linearGradient
       osb:paint="solid"
       id="linearGradient8074">
      <stop
         id="stop8072"
         offset="0"
         style="stop-color:#be00be;stop-opacity:1;" />
    </linearGradient>
    <linearGradient
       osb:paint="solid"
       id="linearGradient7561">
      <stop
         id="stop7558"
         offset="0"
         style="stop-color:#a5a5a5;stop-opacity:1;" />
    </linearGradient>
    <linearGradient
       osb:paint="solid"
       id="linearGradient7548">
      <stop
         id="stop7546"
         offset="0"
         style="stop-color:#ebebeb;stop-opacity:1;" />
    </linearGradient>
    <linearGradient
       osb:paint="solid"
       id="linearGradient7542">
      <stop
         id="stop7538"
         offset="0"
         style="stop-color:#c9c9c9;stop-opacity:1;" />
    </linearGradient>
    <linearGradient
       gradientTransform="matrix(0,-735328.32,170712.69,0,2464326300,577972450)"
       osb:paint="solid"
       id="linearGradient19282">
      <stop
         id="stop19284"
         offset="0"
         style="stop-color:#b4b4b4;stop-opacity:1;" />
    </linearGradient>
    <linearGradient
       gradientTransform="matrix(0.34682586,0,0,0.30620888,-139.35207,801.03851)"
       osb:paint="solid"
       id="linearGradient19282-4">
      <stop
         id="stop19284-0"
         offset="0"
         style="stop-color:#bebebe;stop-opacity:1;" />
    </linearGradient>
    <linearGradient
       gradientTransform="translate(774.93754,420.28591)"
       gradientUnits="userSpaceOnUse"
       y2="-32"
       x2="31"
       y1="-32"
       x1="15"
       id="linearGradient8286"
       xlink:href="#linearGradient19282-4" />
    <linearGradient
       gradientTransform="translate(542.07359,263.99385)"
       gradientUnits="userSpaceOnUse"
       y2="104.96255"
       x2="100.26245"
       y1="104.96255"
       x1="84.262444"
       id="linearGradient7524"
       xlink:href="#linearGradient19282-4" />
  </defs>
  <g
     transform="translate(-176.61693,-222.28591)"
     style="display:inline"
     id="preferences">
    <g
       transform="translate(161.61693,262.28591)"
       id="gimp-prefs-folders">
      <path
         style="display:inline;fill:url(#linearGradient8286);fill-opacity:1;stroke:none"
         d="M 0.53125 0 C 0.24212 0 0 0.24212 0 0.53125 L 0 15.46875 C 0 15.76725 0.23264 16 0.53125 16 L 15.46875 16 C 15.76735 16 16 15.76735 16 15.46875 L 16 5.53125 C 16 5.24215 15.75788 5 15.46875 5 L 3 5 L 3 13.5 C 3 13.777 2.777 14 2.5 14 C 2.223 14 2 13.777 2 13.5 L 2 4.5 C 2 4.223 2.223 4 2.5 4 L 5.46875 4 L 14 4 L 14 2.59375 C 14 2.26655 13.73334 2 13.40625 2 L 6 2 L 6 0.53125 C 6 0.2421 5.75788 0 5.46875 0 L 0.53125 0 z M 9.9765625 6 C 10.1563 6 10.428228 6.1413821 10.544922 6.3242188 L 11.177734 7.5 L 15 7.5 L 15 15 L 5 15 L 5 7.5 L 8.8867188 7.5 L 9.4140625 6.4003906 C 9.4483125 6.2379316 9.7939188 6 9.9765625 6 z M 10 6.75 L 9.6875 7.5 L 10.3125 7.5 L 10 6.75 z M 5.625 8.25 L 5.625 14.25 L 14.375 14.25 L 14.375 8.25 L 5.625 8.25 z "
         transform="translate(15,-40)"
         id="rect3845" />
    </g>
  </g>
  <g
     transform="matrix(0.6249998,0,0,0.75000694,-47.664011,-66.722631)"
     style="display:inline;fill:#000000;fill-opacity:1"
     id="stock" />
</svg>
