<?xml version="1.0" encoding="UTF-8" standalone="no"?>
<svg
   xmlns:osb="http://www.openswatchbook.org/uri/2009/osb"
   xmlns:dc="http://purl.org/dc/elements/1.1/"
   xmlns:cc="http://creativecommons.org/ns#"
   xmlns:rdf="http://www.w3.org/1999/02/22-rdf-syntax-ns#"
   xmlns:svg="http://www.w3.org/2000/svg"
   xmlns="http://www.w3.org/2000/svg"
   xmlns:xlink="http://www.w3.org/1999/xlink"
   xmlns:sodipodi="http://sodipodi.sourceforge.net/DTD/sodipodi-0.dtd"
   xmlns:inkscape="http://www.inkscape.org/namespaces/inkscape"
   viewBox="0 0 15.999999 16.000004"
   id="svg7384"
   height="16.000004"
   width="16"
   version="1.1"
   inkscape:version="0.92.2 2405546, 2018-03-11"
   sodipodi:docname="gimp-tool-cage-symbolic.svg">
  <sodipodi:namedview
     pagecolor="#ffffff"
     bordercolor="#666666"
     borderopacity="1"
     objecttolerance="10"
     gridtolerance="10"
     guidetolerance="10"
     inkscape:pageopacity="0"
     inkscape:pageshadow="2"
     inkscape:window-width="1366"
     inkscape:window-height="741"
     id="namedview1512"
     showgrid="false"
     inkscape:zoom="7.3749982"
     inkscape:cx="-35.983013"
     inkscape:cy="2.6902153"
     inkscape:window-x="0"
     inkscape:window-y="27"
     inkscape:window-maximized="1"
     inkscape:current-layer="svg7384"
     fit-margin-top="0"
     fit-margin-left="0"
     fit-margin-right="0"
     fit-margin-bottom="0" />
  <metadata
     id="metadata90">
    <rdf:RDF>
      <cc:Work
         rdf:about="">
        <dc:format>image/svg+xml</dc:format>
        <dc:type
           rdf:resource="http://purl.org/dc/dcmitype/StillImage" />
        <dc:title></dc:title>
        <dc:contributor>
          <cc:Agent>
            <dc:title>Barbara Muraus, Jakub Steiner, Klaus Staedtler</dc:title>
          </cc:Agent>
        </dc:contributor>
        <dc:description>Images originally created as the &quot;Art Libre&quot; icon set. Extended and adopted for GIMP</dc:description>
      </cc:Work>
    </rdf:RDF>
  </metadata>
  <defs
     id="defs7386">
    <linearGradient
       gradientTransform="matrix(0.34682586,0,0,0.30620888,-73.367505,544.03851)"
       osb:paint="solid"
       id="linearGradient19282-4">
      <stop
         id="stop19284-0"
         offset="0"
         style="stop-color:#bebebe;stop-opacity:1;" />
    </linearGradient>
    <linearGradient
       gradientTransform="translate(275.76804,116.53019)"
       gradientUnits="userSpaceOnUse"
       y2="225.35899"
       x2="95.881874"
       y1="225.35899"
       x1="82.250198"
       id="linearGradient7333"
       xlink:href="#linearGradient19282-4" />
    <linearGradient
       gradientTransform="translate(272.59862,115.19089)"
       gradientUnits="userSpaceOnUse"
       y2="-39.984375"
       x2="-174"
       y1="-39.984375"
       x1="-178.03125"
       id="linearGradient7339"
       xlink:href="#linearGradient19282-4" />
    <linearGradient
       gradientTransform="translate(276.84072,116.98346)"
       gradientUnits="userSpaceOnUse"
       y2="-39.984375"
       x2="-174"
       y1="-39.984375"
       x1="-178.03125"
       id="linearGradient7345"
       xlink:href="#linearGradient19282-4" />
    <linearGradient
       gradientTransform="translate(286.88772,121.22898)"
       gradientUnits="userSpaceOnUse"
       y2="-39.984375"
       x2="-174"
       y1="-39.984375"
       x1="-178.03125"
       id="linearGradient7351"
       xlink:href="#linearGradient19282-4" />
    <linearGradient
       gradientTransform="translate(284.59242,120.25907)"
       gradientUnits="userSpaceOnUse"
       y2="-39.984375"
       x2="-174"
       y1="-39.984375"
       x1="-178.03125"
       id="linearGradient7357"
       xlink:href="#linearGradient19282-4" />
    <linearGradient
       gradientTransform="translate(281.21764,118.83299)"
       gradientUnits="userSpaceOnUse"
       y2="-39.984375"
       x2="-174"
       y1="-39.984375"
       x1="-178.03125"
       id="linearGradient7363"
       xlink:href="#linearGradient19282-4" />
    <linearGradient
       inkscape:collect="always"
       xlink:href="#linearGradient19282-4"
       id="linearGradient7345-6"
       x1="-178.03125"
       y1="-39.984375"
       x2="-174"
       y2="-39.984375"
       gradientUnits="userSpaceOnUse" />
    <linearGradient
       inkscape:collect="always"
       xlink:href="#linearGradient19282-4"
       id="linearGradient7333-9"
       x1="82.250198"
       y1="225.35899"
       x2="95.881874"
       y2="225.35899"
       gradientUnits="userSpaceOnUse" />
    <linearGradient
       inkscape:collect="always"
       xlink:href="#linearGradient19282-4"
       id="linearGradient24321"
       gradientUnits="userSpaceOnUse"
       x1="-178.03125"
       y1="-39.984375"
       x2="-174"
       y2="-39.984375" />
    <linearGradient
       inkscape:collect="always"
       xlink:href="#linearGradient19282-4"
       id="linearGradient24323"
       gradientUnits="userSpaceOnUse"
       x1="-178.03125"
       y1="-39.984375"
       x2="-174"
       y2="-39.984375" />
    <linearGradient
       inkscape:collect="always"
       xlink:href="#linearGradient19282-4"
       id="linearGradient24325"
       gradientUnits="userSpaceOnUse"
       x1="-178.03125"
       y1="-39.984375"
       x2="-174"
       y2="-39.984375" />
    <linearGradient
       inkscape:collect="always"
       xlink:href="#linearGradient19282-4"
       id="linearGradient24327"
       gradientUnits="userSpaceOnUse"
       x1="-178.03125"
       y1="-39.984375"
       x2="-174"
       y2="-39.984375" />
  </defs>
  <g
     style="display:inline"
     id="gimp-tool-cage"
     inkscape:label="gimp-tool-cage"
     transform="matrix(0.99805136,0,0,1,-80.826755,-217)">
    <rect
       rx="0"
       transform="translate(241.0002,217)"
       y="0"
       x="-160"
       height="16"
       width="16"
       id="rect34193"
       style="opacity:0;fill:none;fill-opacity:1;stroke:none" />
    <path
       inkscape:connector-curvature="0"
       transform="matrix(0.99612528,0,0,0.99612528,258.326,260.83727)"
       style="color:#000000;display:inline;overflow:visible;visibility:visible;fill:url(#linearGradient24321);fill-opacity:1;stroke:none;stroke-width:0.99999976;marker:none;enable-background:new"
       d="m -174,-39.984375 a 2.015625,2.015625 0 0 1 -2.01562,2.015625 2.015625,2.015625 0 0 1 -2.01563,-2.015625 A 2.015625,2.015625 0 0 1 -176.01562,-42 2.015625,2.015625 0 0 1 -174,-39.984375 Z"
       id="path3908" />
    <path
       inkscape:connector-curvature="0"
       transform="matrix(0.98062141,0,0,0.98062141,255.56582,270.1861)"
       style="color:#000000;display:inline;overflow:visible;visibility:visible;fill:url(#linearGradient24323);fill-opacity:1;fill-rule:nonzero;stroke:none;stroke-width:0.99999976;marker:none;enable-background:new"
       d="m -174,-39.984375 a 2.015625,2.015625 0 0 1 -2.01562,2.015625 2.015625,2.015625 0 0 1 -2.01563,-2.015625 A 2.015625,2.015625 0 0 1 -176.01562,-42 2.015625,2.015625 0 0 1 -174,-39.984375 Z"
       id="path3910" />
    <path
       inkscape:connector-curvature="0"
       transform="matrix(0.96899291,0,0,0.96899291,265.62057,267.7602)"
       style="color:#000000;display:inline;overflow:visible;visibility:visible;fill:url(#linearGradient24325);fill-opacity:1;fill-rule:nonzero;stroke:none;stroke-width:0.99999976;marker:none;enable-background:new"
       d="m -174,-39.984375 a 2.015625,2.015625 0 0 1 -2.01562,2.015625 2.015625,2.015625 0 0 1 -2.01563,-2.015625 A 2.015625,2.015625 0 0 1 -176.01562,-42 2.015625,2.015625 0 0 1 -174,-39.984375 Z"
       id="path3912" />
    <path
       inkscape:connector-curvature="0"
       transform="matrix(0.96124033,0,0,0.96124033,263.27163,257.37209)"
       style="color:#000000;display:inline;overflow:visible;visibility:visible;fill:url(#linearGradient24327);fill-opacity:1;fill-rule:nonzero;stroke:none;stroke-width:0.99999976;marker:none;enable-background:new"
       d="m -174,-39.984375 a 2.015625,2.015625 0 0 1 -2.01562,2.015625 2.015625,2.015625 0 0 1 -2.01563,-2.015625 A 2.015625,2.015625 0 0 1 -176.01562,-42 2.015625,2.015625 0 0 1 -174,-39.984375 Z"
       id="path3914" />
    <path
       style="color:#000000;font-style:normal;font-variant:normal;font-weight:normal;font-stretch:normal;font-size:medium;line-height:normal;font-family:sans-serif;font-variant-ligatures:normal;font-variant-position:normal;font-variant-caps:normal;font-variant-numeric:normal;font-variant-alternates:normal;font-feature-settings:normal;text-indent:0;text-align:start;text-decoration:none;text-decoration-line:none;text-decoration-style:solid;text-decoration-color:#000000;letter-spacing:normal;word-spacing:normal;text-transform:none;writing-mode:lr-tb;direction:ltr;text-orientation:mixed;dominant-baseline:auto;baseline-shift:baseline;text-anchor:start;white-space:normal;shape-padding:0;clip-rule:nonzero;display:inline;overflow:visible;visibility:visible;opacity:1;isolation:auto;mix-blend-mode:normal;color-interpolation:sRGB;color-interpolation-filters:linearRGB;solid-color:#000000;solid-opacity:1;vector-effect:none;fill:url(#linearGradient7333-9);fill-opacity:1;fill-rule:nonzero;stroke:none;stroke-width:1.5;stroke-linecap:butt;stroke-linejoin:miter;stroke-miterlimit:4;stroke-dasharray:none;stroke-dashoffset:0;stroke-opacity:1;marker:none;color-rendering:auto;image-rendering:auto;shape-rendering:auto;text-rendering:auto;enable-background:new"
       d="M 94.666016,218.11719 82.25,220.375 V 221 232.60156 l 6.853516,-5.71094 6.779296,3.38868 z m -1.332032,1.76562 0.785157,7.83789 -5.222657,-2.61132 -5.146484,4.28906 v -7.77149 z"
       id="rect3916"
       inkscape:connector-curvature="0" />
    <path
       inkscape:connector-curvature="0"
       transform="matrix(1.0116267,0,0,1.0116267,267.10136,266.50395)"
       style="color:#000000;display:inline;overflow:visible;visibility:visible;fill:url(#linearGradient7345-6);fill-opacity:1;stroke:none;stroke-width:0.99999976;marker:none;enable-background:new"
       d="m -174,-39.984375 a 2.015625,2.015625 0 0 1 -2.01562,2.015625 2.015625,2.015625 0 0 1 -2.01563,-2.015625 A 2.015625,2.015625 0 0 1 -176.01562,-42 2.015625,2.015625 0 0 1 -174,-39.984375 Z"
       id="path38587" />
  </g>
</svg>
