<?xml version="1.0" encoding="UTF-8" standalone="no"?>
<svg
   xmlns:osb="http://www.openswatchbook.org/uri/2009/osb"
   xmlns:dc="http://purl.org/dc/elements/1.1/"
   xmlns:cc="http://creativecommons.org/ns#"
   xmlns:rdf="http://www.w3.org/1999/02/22-rdf-syntax-ns#"
   xmlns:svg="http://www.w3.org/2000/svg"
   xmlns="http://www.w3.org/2000/svg"
   xmlns:xlink="http://www.w3.org/1999/xlink"
   xmlns:sodipodi="http://sodipodi.sourceforge.net/DTD/sodipodi-0.dtd"
   xmlns:inkscape="http://www.inkscape.org/namespaces/inkscape"
   viewBox="0 0 16.000016 16"
   id="svg7384"
   height="16"
   width="16.000017"
   version="1.1"
   inkscape:version="0.91 r13725"
   sodipodi:docname="gimp-layer-to-imagesize.svg">
  <sodipodi:namedview
     pagecolor="#ffffff"
     bordercolor="#666666"
     borderopacity="1"
     objecttolerance="10"
     gridtolerance="10"
     guidetolerance="10"
     inkscape:pageopacity="0"
     inkscape:pageshadow="2"
     inkscape:window-width="640"
     inkscape:window-height="480"
     id="namedview1510"
     showgrid="false"
     inkscape:zoom="14.75"
     inkscape:cx="-414.6398"
     inkscape:cy="925.51135"
     inkscape:window-x="0"
     inkscape:window-y="27"
     inkscape:window-maximized="0"
     inkscape:current-layer="svg7384" />
  <metadata
     id="metadata90">
    <rdf:RDF>
      <cc:Work
         rdf:about="">
        <dc:format>image/svg+xml</dc:format>
        <dc:type
           rdf:resource="http://purl.org/dc/dcmitype/StillImage" />
        <dc:title />
        <dc:contributor>
          <cc:Agent>
            <dc:title>Barbara Muraus, Jakub Steiner, Klaus Staedtler</dc:title>
          </cc:Agent>
        </dc:contributor>
        <dc:description>Images originally created as the &quot;Art Libre&quot; icon set. Extended and adopted for GIMP</dc:description>
      </cc:Work>
    </rdf:RDF>
  </metadata>
  <defs
     id="defs7386">
    <linearGradient
       osb:paint="solid"
       id="linearGradient8074">
      <stop
         id="stop8072"
         offset="0"
         style="stop-color:#be00be;stop-opacity:1;" />
    </linearGradient>
    <linearGradient
       osb:paint="solid"
       id="linearGradient7561">
      <stop
         id="stop7558"
         offset="0"
         style="stop-color:#a5a5a5;stop-opacity:1;" />
    </linearGradient>
    <linearGradient
       osb:paint="solid"
       id="linearGradient7548">
      <stop
         id="stop7546"
         offset="0"
         style="stop-color:#ebebeb;stop-opacity:1;" />
    </linearGradient>
    <linearGradient
       osb:paint="solid"
       id="linearGradient7542">
      <stop
         id="stop7538"
         offset="0"
         style="stop-color:#c9c9c9;stop-opacity:1;" />
    </linearGradient>
    <linearGradient
       gradientTransform="matrix(0,-735328.32,170712.69,0,2464326300,577972450)"
       osb:paint="solid"
       id="linearGradient19282">
      <stop
         id="stop19284"
         offset="0"
         style="stop-color:#b4b4b4;stop-opacity:1;" />
    </linearGradient>
    <linearGradient
       gradientTransform="matrix(0.34682586,0,0,0.30620888,-154.35207,-275.32368)"
       osb:paint="solid"
       id="linearGradient19282-4">
      <stop
         id="stop19284-0"
         offset="0"
         style="stop-color:#bebebe;stop-opacity:1;" />
    </linearGradient>
    <linearGradient
       gradientTransform="translate(422.63981,304.06057)"
       gradientUnits="userSpaceOnUse"
       y2="1047.3622"
       x2="16.000004"
       y1="1047.3622"
       x1="4e-06"
       id="linearGradient7718"
       xlink:href="#linearGradient19282-4" />
    <linearGradient
       gradientTransform="translate(422.63981,304.06057)"
       gradientUnits="userSpaceOnUse"
       y2="1041.8622"
       x2="16.000017"
       y1="1041.8622"
       x1="11"
       id="linearGradient7724"
       xlink:href="#linearGradient19282-4" />
    <linearGradient
       gradientTransform="translate(422.63981,304.06057)"
       gradientUnits="userSpaceOnUse"
       y2="1041.3622"
       x2="10"
       y1="1041.3622"
       x1="2e-07"
       id="linearGradient7730"
       xlink:href="#linearGradient19282-4" />
    <linearGradient
       gradientTransform="translate(422.63981,304.06057)"
       gradientUnits="userSpaceOnUse"
       y2="1040.9115"
       x2="7.9724727"
       y1="1040.9115"
       x1="1.9936166"
       id="linearGradient7736"
       xlink:href="#linearGradient19282-4" />
  </defs>
  <g
     transform="translate(35.171338,-137.02933)"
     style="display:inline"
     id="stock">
    <g
       id="gimp-layer-to-imagesize"
       transform="translate(-35.171339,-899.33285)">
      <path
         style="fill:url(#linearGradient7718);fill-opacity:1;stroke-width:1"
         d="m 11.000004,1044.3622 0,2 -8.3439999,0 -2.6560001,4 12,0 4,-6 z"
         id="path8-2"
         inkscape:connector-curvature="0" />
      <path
         style="fill:url(#linearGradient7730);fill-opacity:1;stroke-width:1"
         d="m 2e-7,1037.3622 0,8 9.9999998,0 0,-8 z m 1,1 8,0 0,5 -8,0 z"
         id="path10-9-3"
         inkscape:connector-curvature="0" />
      <path
         d="m 1.9936166,1039.4135 0,3 2.9904246,0 0,-1 c 0,-0.529 -0.3498797,-0.545 -1.0306997,-0.861 0,0 0.015949,0 0.1335723,0 0.218301,0.045 0.7386349,0.188 0.9350061,0.318 -0.052831,-0.191 -0.075757,-0.479 -0.2342499,-0.72 -0.1584925,-0.241 -0.8353253,-0.72 -0.8353253,-0.72 l 0.033892,-0.017 c 0.029904,-0.022 0,0 0.6678615,0.369 0.3339307,0.168 0.3129978,0.157 0.3339307,0.168 0.066786,0.031 -0.016946,-0.023 0.5681807,-0.318 l 0,0.151 c 0,0 -0.5681807,0.166 -0.4007169,0.486 0.1186202,0.164 0.213317,0.542 0.4007169,0.586 0,0 0.4545445,-0.657 0.8014338,-0.871 0,0 -0.1176234,-0.273 -0.1166266,-0.419 0.011962,0.212 0.081738,0.127 0.23425,0.335 l 0.8712103,-0.486 c 0,0 -1.3895506,1.113 -1.2559783,1.324 0.2113233,-0.026 1.0685784,-0.184 1.0685784,-0.184 l 0,0.034 c -0.5592094,0.187 -1.0067763,0.392 -1.1802209,0.827 l 0,1 1.9936164,0 0,-3 z"
         id="path12-0-9"
         style="opacity:0.3;fill:url(#linearGradient7736);fill-opacity:1;stroke-width:0.99840283"
         inkscape:connector-curvature="0" />
      <path
         style="fill:url(#linearGradient7724);fill-opacity:1;stroke-width:0.94072175"
         id="path14-3"
         d="m 13,1040.3622 -2,1.5 2,1.5 m 0,-1 3,0 1.7e-5,-1 -3.000017,0"
         inkscape:connector-curvature="0" />
    </g>
  </g>
</svg>
