<?xml version="1.0" encoding="UTF-8" standalone="no"?>
<!-- Created with Inkscape (http://www.inkscape.org/) -->

<svg
   xmlns:dc="http://purl.org/dc/elements/1.1/"
   xmlns:cc="http://creativecommons.org/ns#"
   xmlns:rdf="http://www.w3.org/1999/02/22-rdf-syntax-ns#"
   xmlns:svg="http://www.w3.org/2000/svg"
   xmlns="http://www.w3.org/2000/svg"
   xmlns:sodipodi="http://sodipodi.sourceforge.net/DTD/sodipodi-0.dtd"
   xmlns:inkscape="http://www.inkscape.org/namespaces/inkscape"
   width="14"
   height="14"
   viewBox="0 0 14 14"
   id="svg30571"
   version="1.1"
   inkscape:version="0.92.2 2405546, 2018-03-11"
   sodipodi:docname="gimp-pattern-symbolic.svg">
  <defs
     id="defs30573" />
  <sodipodi:namedview
     id="base"
     pagecolor="#ffffff"
     bordercolor="#666666"
     borderopacity="1.0"
     inkscape:pageopacity="0.0"
     inkscape:pageshadow="2"
     inkscape:zoom="16"
     inkscape:cx="11.46875"
     inkscape:cy="3.910174"
     inkscape:document-units="px"
     inkscape:current-layer="layer1"
     showgrid="true"
     units="px"
     inkscape:snap-page="true"
     inkscape:snap-bbox="true"
     inkscape:bbox-paths="true"
     inkscape:bbox-nodes="true"
     inkscape:snap-bbox-edge-midpoints="true"
     inkscape:snap-bbox-midpoints="true"
     inkscape:object-paths="true"
     inkscape:snap-intersection-paths="true"
     inkscape:object-nodes="true"
     inkscape:snap-smooth-nodes="true"
     inkscape:snap-midpoints="true"
     inkscape:snap-object-midpoints="true"
     inkscape:snap-center="true"
     inkscape:snap-text-baseline="true"
     showborder="false"
     inkscape:window-width="1366"
     inkscape:window-height="741"
     inkscape:window-x="0"
     inkscape:window-y="27"
     inkscape:window-maximized="1"
     inkscape:snap-global="false"
     fit-margin-top="0"
     fit-margin-left="0"
     fit-margin-right="0"
     fit-margin-bottom="0">
    <inkscape:grid
       type="xygrid"
       id="grid3413"
       originx="-1.5"
       originy="0.5625" />
  </sodipodi:namedview>
  <metadata
     id="metadata30576">
    <rdf:RDF>
      <cc:Work
         rdf:about="">
        <dc:format>image/svg+xml</dc:format>
        <dc:type
           rdf:resource="http://purl.org/dc/dcmitype/StillImage" />
        <dc:title></dc:title>
        <dc:creator>
          <cc:Agent>
            <dc:title>Klaus Staedtler</dc:title>
          </cc:Agent>
        </dc:creator>
      </cc:Work>
    </rdf:RDF>
  </metadata>
  <g
     inkscape:label="Layer 1"
     inkscape:groupmode="layer"
     id="layer1"
     transform="translate(-1.5,-1038.9247)">
    <g
       style="display:inline"
       transform="translate(0.5,1.56248)"
       id="gimp-pattern"
       inkscape:label="gimp-pattern">
      <g
         inkscape:label="#tweak_moreless_mode"
         id="object-tweak-duplicate"
         transform="translate(-255,249.00002)">
        <path
           style="color:#000000;fill:#bebebe;fill-opacity:1;stroke-width:0.138679"
           d="m 260.4062,788.3622 c 0.1274,1.3311 1.2293,2.375 2.5938,2.375 1.3645,0 2.4664,-1.0439 2.5937,-2.375 z"
           id="use5685"
           inkscape:connector-curvature="0" />
        <path
           style="color:#000000;fill:#bebebe;fill-opacity:1;stroke-width:0.138679"
           d="m 263,799.5809 c -1.4516,0 -2.625,1.2047 -2.625,2.6563 0,0.045 0,0.081 0,0.125 h 5.25 c 0,-0.045 0,-0.08 0,-0.125 0,-1.4516 -1.1734,-2.6563 -2.625,-2.6563 z"
           id="use5828"
           inkscape:connector-curvature="0" />
        <path
           style="color:#000000;fill:#bebebe;fill-opacity:1;stroke-width:0.138679"
           d="m 270,792.5497 c -1.4208,0.033 -2.5625,1.1961 -2.5625,2.625 0,1.4288 1.1417,2.5916 2.5625,2.625 z"
           id="path5885"
           inkscape:connector-curvature="0" />
        <path
           style="color:#000000;fill:#bebebe;fill-opacity:1;stroke-width:0.138679"
           d="m 256,792.5497 v 5.25 c 1.4225,-0.034 2.5625,-1.1945 2.5625,-2.625 0,-1.4304 -1.1403,-2.5912 -2.5625,-2.625 z"
           id="path5889"
           inkscape:connector-curvature="0" />
        <path
           style="color:#000000;fill:#bebebe;fill-opacity:1;stroke-width:0.138679"
           d="m 267.4687,788.3622 c 0.1254,1.3106 1.1959,2.3435 2.5313,2.375 v -2.375 z"
           id="path5893"
           inkscape:connector-curvature="0" />
        <path
           style="color:#000000;fill:#bebebe;fill-opacity:1;stroke-width:0.138679"
           d="m 256,788.3622 v 2.375 c 1.3385,-0.032 2.4077,-1.0615 2.5312,-2.375 z"
           id="path5895"
           inkscape:connector-curvature="0" />
        <path
           style="color:#000000;fill:#bebebe;fill-opacity:1;stroke-width:0.138679"
           d="m 270,799.6122 c -1.4205,0.034 -2.5625,1.1964 -2.5625,2.625 0,0.041 0,0.084 0,0.125 H 270 Z"
           id="path5897"
           inkscape:connector-curvature="0" />
        <path
           style="color:#000000;fill:#bebebe;fill-opacity:1;stroke-width:0.138679"
           d="m 256,799.5809 v 2.7813 h 2.5625 c 0,-0.045 0,-0.08 0,-0.125 0,-1.4306 -1.1401,-2.622 -2.5625,-2.6563 z"
           id="path5899"
           inkscape:connector-curvature="0" />
        <path
           inkscape:connector-curvature="0"
           style="color:#000000;fill:#bebebe;fill-opacity:1;stroke-width:0.24945228"
           d="m 265,795.36218 a 2,2 0 0 1 -2,2 2,2 0 0 1 -2,-2 2,2 0 0 1 2,-2 2,2 0 0 1 2,2 z"
           id="path5911" />
      </g>
    </g>
  </g>
</svg>
