<?xml version="1.0" encoding="UTF-8" standalone="no"?>
<svg
   xmlns:osb="http://www.openswatchbook.org/uri/2009/osb"
   xmlns:dc="http://purl.org/dc/elements/1.1/"
   xmlns:cc="http://creativecommons.org/ns#"
   xmlns:rdf="http://www.w3.org/1999/02/22-rdf-syntax-ns#"
   xmlns:svg="http://www.w3.org/2000/svg"
   xmlns="http://www.w3.org/2000/svg"
   xmlns:xlink="http://www.w3.org/1999/xlink"
   xmlns:sodipodi="http://sodipodi.sourceforge.net/DTD/sodipodi-0.dtd"
   xmlns:inkscape="http://www.inkscape.org/namespaces/inkscape"
   viewBox="0 0 15.999999 16"
   id="svg7384"
   height="16"
   width="16"
   version="1.1"
   inkscape:version="0.91+devel r"
   sodipodi:docname="gimp-tool-handle-transform.svg">
  <sodipodi:namedview
     pagecolor="#ffffff"
     bordercolor="#666666"
     borderopacity="1"
     objecttolerance="10"
     gridtolerance="10"
     guidetolerance="10"
     inkscape:pageopacity="0"
     inkscape:pageshadow="2"
     inkscape:window-width="1051"
     inkscape:window-height="480"
     id="namedview1512"
     showgrid="false"
     inkscape:zoom="14.75"
     inkscape:cx="-332.13739"
     inkscape:cy="737.98096"
     inkscape:window-x="0"
     inkscape:window-y="27"
     inkscape:window-maximized="0"
     inkscape:current-layer="svg7384" />
  <metadata
     id="metadata90">
    <rdf:RDF>
      <cc:Work
         rdf:about="">
        <dc:format>image/svg+xml</dc:format>
        <dc:type
           rdf:resource="http://purl.org/dc/dcmitype/StillImage" />
        <dc:title />
        <dc:contributor>
          <cc:Agent>
            <dc:title>Barbara Muraus, Jakub Steiner, Klaus Staedtler</dc:title>
          </cc:Agent>
        </dc:contributor>
        <dc:description>Images originally created as the &quot;Art Libre&quot; icon set. Extended and adopted for GIMP</dc:description>
      </cc:Work>
    </rdf:RDF>
  </metadata>
  <defs
     id="defs7386">
    <linearGradient
       gradientTransform="matrix(0.34682586,0,0,0.30620888,-154.39932,-275.32368)"
       osb:paint="solid"
       id="linearGradient19282-4">
      <stop
         id="stop19284-0"
         offset="0"
         style="stop-color:#bebebe;stop-opacity:1;" />
    </linearGradient>
    <linearGradient
       gradientTransform="translate(319.85285,116.53018)"
       gradientUnits="userSpaceOnUse"
       y2="1049.8622"
       x2="9"
       y1="1049.8622"
       x1="6"
       id="linearGradient6853"
       xlink:href="#linearGradient19282-4" />
    <linearGradient
       gradientTransform="translate(319.85285,116.53018)"
       gradientUnits="userSpaceOnUse"
       y2="1038.8622"
       x2="5"
       y1="1038.8622"
       x1="2"
       id="linearGradient7229"
       xlink:href="#linearGradient19282-4" />
    <linearGradient
       gradientTransform="translate(319.85285,116.53018)"
       gradientUnits="userSpaceOnUse"
       y2="13.976562"
       x2="14.953125"
       y1="13.976562"
       x1="0.94140625"
       id="linearGradient7235"
       xlink:href="#linearGradient19282-4" />
    <linearGradient
       gradientTransform="translate(319.85285,116.53018)"
       gradientUnits="userSpaceOnUse"
       y2="1038.8622"
       x2="12"
       y1="1038.8622"
       x1="9"
       id="linearGradient7241"
       xlink:href="#linearGradient19282-4" />
  </defs>
  <g
     transform="translate(-29.219167,-181.05367)"
     style="display:inline"
     id="tools">
    <g
       id="gimp-tool-handle-transform"
       transform="translate(29.266412,-855.30851)">
      <g
         style="display:inline"
         transform="matrix(0.65756629,0,0,0.65756629,0.94395539,359.72731)"
         id="g4140">
        <g
           transform="matrix(1.0287785,0,0,1.0287785,-1.7209906,-30.673001)"
           id="g5662" />
      </g>
      <path
         style="opacity:1;fill:url(#linearGradient7235);fill-opacity:1;stroke:none;stroke-width:1.08499873;stroke-miterlimit:4;stroke-dasharray:none;stroke-opacity:1"
         d="M 0.94140625,8.953125 0.953125,19 5.0527344,19 A 2.5,2.5 0 0 1 7.4121094,17.001953 2.5,2.5 0 0 1 9.9492188,19 l 1.0039062,0 4,0 -3.318359,-8.275391 A 2.5,2.5 0 0 1 10.587891,10.998047 2.5,2.5 0 0 1 8.0546875,9.0195312 L 5.9472656,9 A 2.5,2.5 0 0 1 3.5878906,10.998047 2.5,2.5 0 0 1 1.0429688,8.953125 Z"
         transform="translate(0,1030.3622)"
         id="rect7228-9"
         inkscape:connector-curvature="0" />
      <path
         d="m 8.9990899,1049.8099 a 1.5,1.5 0 0 1 -1.4466556,1.5514 1.5,1.5 0 0 1 -1.5515109,-1.4465 1.5,1.5 0 0 1 1.4462629,-1.5517 1.5,1.5 0 0 1 1.551877,1.4461 L 7.5,1049.8622 Z"
         id="path7231-1-8"
         style="opacity:1;fill:url(#linearGradient6853);fill-opacity:1;stroke:none;stroke-width:0.51658648;stroke-miterlimit:4;stroke-dasharray:none;stroke-opacity:1"
         inkscape:connector-curvature="0" />
      <path
         d="m 4.9990899,1038.8099 a 1.5,1.5 0 0 1 -1.4466556,1.5514 1.5,1.5 0 0 1 -1.5515109,-1.4465 1.5,1.5 0 0 1 1.4462629,-1.5517 1.5,1.5 0 0 1 1.551877,1.4461 L 3.5,1038.8622 Z"
         id="path7231-1-8-0"
         style="opacity:1;fill:url(#linearGradient7229);fill-opacity:1;stroke:none;stroke-width:0.51658648;stroke-miterlimit:4;stroke-dasharray:none;stroke-opacity:1"
         inkscape:connector-curvature="0" />
      <path
         d="m 11.99909,1038.8099 a 1.5,1.5 0 0 1 -1.446656,1.5514 1.5,1.5 0 0 1 -1.5515106,-1.4465 1.5,1.5 0 0 1 1.4462626,-1.5517 1.5,1.5 0 0 1 1.551877,1.4461 L 10.5,1038.8622 Z"
         id="path7231-1-8-0-5"
         style="opacity:1;fill:url(#linearGradient7241);fill-opacity:1;stroke:none;stroke-width:0.51658648;stroke-miterlimit:4;stroke-dasharray:none;stroke-opacity:1"
         inkscape:connector-curvature="0" />
    </g>
  </g>
</svg>
