<?xml version="1.0" encoding="UTF-8" standalone="no"?>
<svg
   xmlns:osb="http://www.openswatchbook.org/uri/2009/osb"
   xmlns:dc="http://purl.org/dc/elements/1.1/"
   xmlns:cc="http://creativecommons.org/ns#"
   xmlns:rdf="http://www.w3.org/1999/02/22-rdf-syntax-ns#"
   xmlns:svg="http://www.w3.org/2000/svg"
   xmlns="http://www.w3.org/2000/svg"
   xmlns:xlink="http://www.w3.org/1999/xlink"
   xmlns:sodipodi="http://sodipodi.sourceforge.net/DTD/sodipodi-0.dtd"
   xmlns:inkscape="http://www.inkscape.org/namespaces/inkscape"
   viewBox="0 0 15.999999 16"
   id="svg7384"
   height="16"
   width="16"
   version="1.1"
   inkscape:version="0.91 r13725"
   sodipodi:docname="gimp-prefs-folders-tool-presets.svg">
  <sodipodi:namedview
     pagecolor="#ffffff"
     bordercolor="#666666"
     borderopacity="1"
     objecttolerance="10"
     gridtolerance="10"
     guidetolerance="10"
     inkscape:pageopacity="0"
     inkscape:pageshadow="2"
     inkscape:window-width="501"
     inkscape:window-height="405"
     id="namedview1507"
     showgrid="false"
     inkscape:zoom="14.75"
     inkscape:cx="-723.22388"
     inkscape:cy="-55.63375"
     inkscape:window-x="0"
     inkscape:window-y="27"
     inkscape:window-maximized="0"
     inkscape:current-layer="svg7384" />
  <metadata
     id="metadata90">
    <rdf:RDF>
      <cc:Work
         rdf:about="">
        <dc:format>image/svg+xml</dc:format>
        <dc:type
           rdf:resource="http://purl.org/dc/dcmitype/StillImage" />
        <dc:title />
        <dc:contributor>
          <cc:Agent>
            <dc:title>Barbara Muraus, Jakub Steiner, Klaus Staedtler</dc:title>
          </cc:Agent>
        </dc:contributor>
        <dc:description>Images originally created as the &quot;Art Libre&quot; icon set. Extended and adopted for GIMP</dc:description>
      </cc:Work>
    </rdf:RDF>
  </metadata>
  <defs
     id="defs7386">
    <linearGradient
       osb:paint="solid"
       id="linearGradient8074">
      <stop
         id="stop8072"
         offset="0"
         style="stop-color:#be00be;stop-opacity:1;" />
    </linearGradient>
    <linearGradient
       osb:paint="solid"
       id="linearGradient7561">
      <stop
         id="stop7558"
         offset="0"
         style="stop-color:#a5a5a5;stop-opacity:1;" />
    </linearGradient>
    <linearGradient
       osb:paint="solid"
       id="linearGradient7548">
      <stop
         id="stop7546"
         offset="0"
         style="stop-color:#ebebeb;stop-opacity:1;" />
    </linearGradient>
    <linearGradient
       osb:paint="solid"
       id="linearGradient7542">
      <stop
         id="stop7538"
         offset="0"
         style="stop-color:#c9c9c9;stop-opacity:1;" />
    </linearGradient>
    <linearGradient
       gradientTransform="matrix(0,-735328.32,170712.69,0,2464326300,577972450)"
       osb:paint="solid"
       id="linearGradient19282">
      <stop
         id="stop19284"
         offset="0"
         style="stop-color:#b4b4b4;stop-opacity:1;" />
    </linearGradient>
    <linearGradient
       gradientTransform="matrix(0.34682586,0,0,0.30620888,-139.35207,801.03851)"
       osb:paint="solid"
       id="linearGradient19282-4">
      <stop
         id="stop19284-0"
         offset="0"
         style="stop-color:#bebebe;stop-opacity:1;" />
    </linearGradient>
    <linearGradient
       gradientTransform="translate(746.22388,399.27766)"
       gradientUnits="userSpaceOnUse"
       y2="14"
       x2="16"
       y1="14"
       x1="0"
       id="linearGradient8292"
       xlink:href="#linearGradient19282-4" />
  </defs>
  <g
     transform="translate(-132.90327,-241.27766)"
     style="display:inline"
     id="preferences">
    <g
       transform="translate(117.90327,281.27766)"
       id="gimp-prefs-folders-tool-presets"
       style="display:inline">
      <path
         id="rect3845-47"
         transform="translate(15,-46)"
         d="M 0.53125,6 C 0.24212,6 0,6.24212 0,6.53125 l 0,14.9375 C 0,21.76725 0.23264,22 0.53125,22 l 14.9375,0 C 15.76735,22 16,21.76735 16,21.46875 l 0,-9.9375 C 16,11.24215 15.75788,11 15.46875,11 L 3,11 3,19.5 C 3,19.777 2.777,20 2.5,20 2.223,20 2,19.777 2,19.5 l 0,-9 C 2,10.223 2.223,10 2.5,10 L 5.46875,10 14,10 14,8.59375 C 14,8.26655 13.73334,8 13.40625,8 L 6,8 6,6.53125 C 6,6.2421 5.75788,6 5.46875,6 Z m 12.140625,5.988281 0.707031,1.785157 0.0957,4.939453 c -0.419494,0.445106 -1.247219,0.501028 -1.65625,0.111328 l -0.03125,-4.853516 z m -7.2324219,0.02344 0.7089844,1.785156 0.09375,4.939453 c -0.4194943,0.445106 -1.2472192,0.499075 -1.65625,0.109375 l -0.03125,-4.851562 z m 3.4453125,0.0059 0.7070313,1.785156 0.095703,4.939454 C 9.2680057,19.187294 8.4402808,19.241262 8.03125,18.851562 L 8,14 Z m 4.5410154,7.371094 0.02149,1.230469 c -0.419496,0.445106 -1.249159,0.495168 -1.658204,0.105468 l 0.01758,-1.269531 c 0.396297,0.37755 1.188812,0.341237 1.61914,-0.06641 z m -7.2324216,0.02344 0.023437,1.230469 C 5.7973009,21.08773 4.9676381,21.137793 4.5585933,20.748093 l 0.017578,-1.269531 c 0.3962974,0.377549 1.1868594,0.341237 1.6171875,-0.06641 z m 3.4453125,0.0059 0.021484,1.230469 c -0.4194949,0.44502 -1.249158,0.495082 -1.6582028,0.105382 l 0.017578,-1.269531 c 0.3962977,0.37755 1.1888126,0.341237 1.6191407,-0.06641 z"
         style="display:inline;fill:url(#linearGradient8292);fill-opacity:1;stroke:none"
         inkscape:connector-curvature="0" />
      <rect
         style="color:#bebebe;display:inline;overflow:visible;visibility:visible;fill:none;stroke:none;stroke-width:2;marker:none;enable-background:accumulate"
         id="rect14152-0"
         width="16"
         height="16"
         x="15"
         y="-40" />
    </g>
  </g>
</svg>
