<?xml version="1.0" encoding="UTF-8" standalone="no"?>
<svg
   xmlns:osb="http://www.openswatchbook.org/uri/2009/osb"
   xmlns:dc="http://purl.org/dc/elements/1.1/"
   xmlns:cc="http://creativecommons.org/ns#"
   xmlns:rdf="http://www.w3.org/1999/02/22-rdf-syntax-ns#"
   xmlns:svg="http://www.w3.org/2000/svg"
   xmlns="http://www.w3.org/2000/svg"
   xmlns:xlink="http://www.w3.org/1999/xlink"
   xmlns:sodipodi="http://sodipodi.sourceforge.net/DTD/sodipodi-0.dtd"
   xmlns:inkscape="http://www.inkscape.org/namespaces/inkscape"
   viewBox="0 0 15.999959 16.000398"
   id="svg7384"
   height="16.000399"
   width="15.99996"
   version="1.1"
   inkscape:version="0.91 r13725"
   sodipodi:docname="gimp-prefs-tool-options.svg">
  <sodipodi:namedview
     pagecolor="#ffffff"
     bordercolor="#666666"
     borderopacity="1"
     objecttolerance="10"
     gridtolerance="10"
     guidetolerance="10"
     inkscape:pageopacity="0"
     inkscape:pageshadow="2"
     inkscape:window-width="640"
     inkscape:window-height="480"
     id="namedview1505"
     showgrid="false"
     inkscape:zoom="14.749633"
     inkscape:cx="-449.81117"
     inkscape:cy="131.23525"
     inkscape:window-x="0"
     inkscape:window-y="27"
     inkscape:window-maximized="0"
     inkscape:current-layer="svg7384" />
  <metadata
     id="metadata90">
    <rdf:RDF>
      <cc:Work
         rdf:about="">
        <dc:format>image/svg+xml</dc:format>
        <dc:type
           rdf:resource="http://purl.org/dc/dcmitype/StillImage" />
        <dc:title />
        <dc:contributor>
          <cc:Agent>
            <dc:title>Barbara Muraus, Jakub Steiner, Klaus Staedtler</dc:title>
          </cc:Agent>
        </dc:contributor>
        <dc:description>Images originally created as the &quot;Art Libre&quot; icon set. Extended and adopted for GIMP</dc:description>
      </cc:Work>
    </rdf:RDF>
  </metadata>
  <defs
     id="defs7386">
    <linearGradient
       osb:paint="solid"
       id="linearGradient8074">
      <stop
         id="stop8072"
         offset="0"
         style="stop-color:#be00be;stop-opacity:1;" />
    </linearGradient>
    <linearGradient
       osb:paint="solid"
       id="linearGradient7561">
      <stop
         id="stop7558"
         offset="0"
         style="stop-color:#a5a5a5;stop-opacity:1;" />
    </linearGradient>
    <linearGradient
       osb:paint="solid"
       id="linearGradient7548">
      <stop
         id="stop7546"
         offset="0"
         style="stop-color:#ebebeb;stop-opacity:1;" />
    </linearGradient>
    <linearGradient
       osb:paint="solid"
       id="linearGradient7542">
      <stop
         id="stop7538"
         offset="0"
         style="stop-color:#c9c9c9;stop-opacity:1;" />
    </linearGradient>
    <linearGradient
       gradientTransform="matrix(0,-735328.32,170712.69,0,2464326300,577972450)"
       osb:paint="solid"
       id="linearGradient19282">
      <stop
         id="stop19284"
         offset="0"
         style="stop-color:#b4b4b4;stop-opacity:1;" />
    </linearGradient>
    <linearGradient
       gradientTransform="matrix(0.34682586,0,0,0.30620888,287.66936,571.4807)"
       osb:paint="solid"
       id="linearGradient19282-4">
      <stop
         id="stop19284-0"
         offset="0"
         style="stop-color:#bebebe;stop-opacity:1;" />
    </linearGradient>
    <linearGradient
       gradientTransform="translate(899.83258,356.58865)"
       gradientUnits="userSpaceOnUse"
       y2="197.55762"
       x2="458.02139"
       y1="197.55762"
       x1="442.02142"
       id="linearGradient8041"
       xlink:href="#linearGradient19282-4" />
  </defs>
  <g
     transform="translate(-442.02143,-189.55741)"
     style="display:inline"
     id="stock">
    <path
       id="gimp-prefs-tool-options"
       d="m 450.02143,189.55741 c -0.29223,0 -0.8827,0.3166 -0.9375,0.5332 l -0.8418,1.4668 -6.2207,0 0,10 2.14063,0 -1.12891,3.125 c -0.0739,0.21997 0.0556,0.76471 0.33984,0.85742 0.31174,0.10167 0.76167,-0.24998 0.78907,-0.5 l 0.5996,-1.48242 10.5293,0 0.56641,1.67578 c 0.12786,0.26684 0.44747,0.36736 0.67578,0.26758 0.23745,-0.11679 0.39997,-0.63306 0.28125,-0.81641 l -0.93164,-3.12695 2.11523,0 0.0234,-10 -6.11719,0 -1.00976,-1.56641 c -0.18671,-0.24378 -0.58547,-0.43359 -0.87305,-0.43359 z m 0,1 0.44727,1 -0.83985,0 z m 3,2 1.16992,1.16992 1.66016,0 0,1.66016 1.16992,1.16992 -1.16992,1.16992 0,1.66016 -1.66016,0 -1.16992,1.16992 -1.16992,-1.16992 -1.66016,0 0,-1.66016 -1.16992,-1.16992 1.16992,-1.16992 0,-1.66016 1.66016,0 z m -3.08203,0.38281 c 0.0753,0.0383 0.0966,0.15191 0.0195,0.31836 -0.95865,1.54121 -1.20816,2.82276 -3.42187,5.20899 -0.22372,-0.46818 -0.65448,-0.79365 -1.15625,-0.8125 1.86996,-2.57484 2.21156,-2.5898 4.21093,-4.57422 0.14218,-0.14111 0.27238,-0.17888 0.34766,-0.14063 z m 3.08203,1.4961 0,4.24218 c 1.17065,0 2.12109,-0.95042 2.12109,-2.12109 0,-1.17067 -0.95044,-2.12109 -2.12109,-2.12109 z m -7.83984,3.64843 c 0.5179,-0.0122 0.92103,0.41155 1.02148,0.77735 0.169,0.61541 -0.14745,1.11851 -0.56836,1.39062 -0.80743,0.522 -2.75595,0.40129 -2.88476,-0.0976 1.36054,4.9e-4 1.22222,-1.48181 1.88281,-1.89453 0.19137,-0.11957 0.37619,-0.17171 0.54883,-0.17579 z m 0.51953,3.47266 8.91992,0 0.28711,1 -9.72656,0 z"
       style="fill:url(#linearGradient8041);fill-opacity:1;stroke-width:0.08724019"
       inkscape:connector-curvature="0" />
  </g>
</svg>
