<?xml version="1.0" encoding="UTF-8" standalone="no"?>
<svg
   xmlns:osb="http://www.openswatchbook.org/uri/2009/osb"
   xmlns:dc="http://purl.org/dc/elements/1.1/"
   xmlns:cc="http://creativecommons.org/ns#"
   xmlns:rdf="http://www.w3.org/1999/02/22-rdf-syntax-ns#"
   xmlns:svg="http://www.w3.org/2000/svg"
   xmlns="http://www.w3.org/2000/svg"
   xmlns:xlink="http://www.w3.org/1999/xlink"
   xmlns:sodipodi="http://sodipodi.sourceforge.net/DTD/sodipodi-0.dtd"
   xmlns:inkscape="http://www.inkscape.org/namespaces/inkscape"
   viewBox="0 0 15.999999 16.000271"
   id="svg7384"
   height="16.000271"
   width="16"
   version="1.1"
   inkscape:version="0.91 r13725"
   sodipodi:docname="gimp-anchor.svg">
  <sodipodi:namedview
     pagecolor="#ffffff"
     bordercolor="#666666"
     borderopacity="1"
     objecttolerance="10"
     gridtolerance="10"
     guidetolerance="10"
     inkscape:pageopacity="0"
     inkscape:pageshadow="2"
     inkscape:window-width="640"
     inkscape:window-height="480"
     id="namedview1508"
     showgrid="false"
     inkscape:zoom="14.74975"
     inkscape:cx="-313.4484"
     inkscape:cy="51.366095"
     inkscape:window-x="0"
     inkscape:window-y="27"
     inkscape:window-maximized="0"
     inkscape:current-layer="svg7384" />
  <metadata
     id="metadata90">
    <rdf:RDF>
      <cc:Work
         rdf:about="">
        <dc:format>image/svg+xml</dc:format>
        <dc:type
           rdf:resource="http://purl.org/dc/dcmitype/StillImage" />
        <dc:title />
        <dc:contributor>
          <cc:Agent>
            <dc:title>Barbara Muraus, Jakub Steiner, Klaus Staedtler</dc:title>
          </cc:Agent>
        </dc:contributor>
        <dc:description>Images originally created as the &quot;Art Libre&quot; icon set. Extended and adopted for GIMP</dc:description>
      </cc:Work>
    </rdf:RDF>
  </metadata>
  <defs
     id="defs7386">
    <linearGradient
       osb:paint="solid"
       id="linearGradient8074">
      <stop
         id="stop8072"
         offset="0"
         style="stop-color:#be00be;stop-opacity:1;" />
    </linearGradient>
    <linearGradient
       osb:paint="solid"
       id="linearGradient7561">
      <stop
         id="stop7558"
         offset="0"
         style="stop-color:#a5a5a5;stop-opacity:1;" />
    </linearGradient>
    <linearGradient
       osb:paint="solid"
       id="linearGradient7548">
      <stop
         id="stop7546"
         offset="0"
         style="stop-color:#ebebeb;stop-opacity:1;" />
    </linearGradient>
    <linearGradient
       osb:paint="solid"
       id="linearGradient7542">
      <stop
         id="stop7538"
         offset="0"
         style="stop-color:#c9c9c9;stop-opacity:1;" />
    </linearGradient>
    <linearGradient
       gradientTransform="matrix(0,-735328.32,170712.69,0,2464326300,577972450)"
       osb:paint="solid"
       id="linearGradient19282">
      <stop
         id="stop19284"
         offset="0"
         style="stop-color:#b4b4b4;stop-opacity:1;" />
    </linearGradient>
    <linearGradient
       gradientTransform="matrix(0.34682586,0,0,0.30620888,26.64813,402.03824)"
       osb:paint="solid"
       id="linearGradient19282-4">
      <stop
         id="stop19284-0"
         offset="0"
         style="stop-color:#bebebe;stop-opacity:1;" />
    </linearGradient>
    <linearGradient
       gradientTransform="translate(502.4486,107.27709)"
       gradientUnits="userSpaceOnUse"
       y2="97.556641"
       x2="535.97845"
       y1="97.556641"
       x1="522.04095"
       id="linearGradient7194"
       xlink:href="#linearGradient19282-4" />
  </defs>
  <g
     transform="translate(-44.63745,59.75414)"
     style="display:inline"
     id="stock">
    <g
       id="gimp-anchor"
       style="display:inline"
       transform="translate(-136.36275,-418.75414)">
      <g
         style="fill:#bebebe;fill-opacity:1"
         transform="matrix(-0.05495446,0,0,0.05788099,195.91579,358.1862)"
         id="g16133">
        <path
           id="path16135"
           transform="matrix(-18.196885,0,0,17.27683,9752.7557,-1533.1903)"
           d="m 529.04102,89.556641 c -1.65688,0 -3,1.34311 -3,3 0,1.30386 0.8381,2.402791 2,2.816406 l 0,1.183594 -3,0 0,1 3,0 0,4.999999 0,1 c -1.16473,0.27623 -2.46787,-0.46036 -3.46875,-1.3125 l 0.71875,-0.5 c 0.24954,-0.15638 0.27497,-0.58768 0.0312,-0.71875 l -0.875,-0.46875 -0.46875,-0.25 -1.34375,-0.687499 c -0.0441,-0.0268 -0.0732,-0.0555 -0.125,-0.0625 -0.22288,-0.0122 -0.47075,0.20092 -0.46875,0.4375 l 0,1.624999 0,1.625 c 0.005,0.29142 0.38819,0.4813 0.625,0.3125 l 1.0625,-0.75 c 1.17387,1.1755 3.1634,2.75 5.3125,2.75 l 0.0625,0 c 2.1385,0 4.10519,-1.57624 5.28125,-2.75 l 1,0.65625 c 0.23681,0.16496 0.58875,0.004 0.59375,-0.28125 l 0,-1.59375 0,-1.593749 c 0.002,-0.23119 -0.21462,-0.4495 -0.4375,-0.4375 -0.0518,0.007 -0.11213,0.0363 -0.15625,0.0625 l -1.1875,0.624999 -0.125,0.0625 -1.34375,0.65625 c -0.24372,0.12809 -0.24954,0.56593 0,0.71875 l 0.8125,0.5625 c -0.99834,0.84536 -2.34247,1.58702 -3.5,1.3125 l 0,-1 0,-4.999999 3,0 0,-1 -3,0 0,-1.183594 c 1.1628,-0.413123 2,-1.511891 2,-2.816406 0,-1.65689 -1.34314,-3 -3,-3 z m 0,1.5 c 0.81356,0 1.5,0.6856 1.5,1.5 0,0.8144 -0.68644,1.5 -1.5,1.5 -0.81356,0 -1.5,-0.6856 -1.5,-1.5 0,-0.8144 0.68644,-1.5 1.5,-1.5 z"
           style="fill:url(#linearGradient7194);fill-opacity:1"
           inkscape:connector-curvature="0" />
      </g>
    </g>
  </g>
</svg>
