<?xml version="1.0" encoding="UTF-8" standalone="no"?>
<!-- Created with Inkscape (http://www.inkscape.org/) -->

<svg
   xmlns:dc="http://purl.org/dc/elements/1.1/"
   xmlns:cc="http://creativecommons.org/ns#"
   xmlns:rdf="http://www.w3.org/1999/02/22-rdf-syntax-ns#"
   xmlns:svg="http://www.w3.org/2000/svg"
   xmlns="http://www.w3.org/2000/svg"
   xmlns:sodipodi="http://sodipodi.sourceforge.net/DTD/sodipodi-0.dtd"
   xmlns:inkscape="http://www.inkscape.org/namespaces/inkscape"
   width="16"
   height="16"
   viewBox="0 0 16 16"
   id="svg9411"
   version="1.1"
   inkscape:version="0.91 r13725"
   sodipodi:docname="gimp-color-mode.svg">
  <title
     id="title10744">GIMP Color (HSV) Mode</title>
  <defs
     id="defs9413" />
  <sodipodi:namedview
     id="base"
     pagecolor="#ffffff"
     bordercolor="#666666"
     borderopacity="1.0"
     inkscape:pageopacity="0.0"
     inkscape:pageshadow="2"
     inkscape:zoom="46.3125"
     inkscape:cx="8"
     inkscape:cy="8"
     inkscape:document-units="px"
     inkscape:current-layer="svg9411"
     showgrid="true"
     units="px"
     inkscape:window-width="1535"
     inkscape:window-height="876"
     inkscape:window-x="65"
     inkscape:window-y="24"
     inkscape:window-maximized="1">
    <inkscape:grid
       empspacing="4"
       type="xygrid"
       id="grid9959" />
  </sodipodi:namedview>
  <metadata
     id="metadata9416">
    <rdf:RDF>
      <cc:Work
         rdf:about="">
        <dc:format>image/svg+xml</dc:format>
        <dc:type
           rdf:resource="http://purl.org/dc/dcmitype/StillImage" />
        <dc:title>GIMP Color (HSV) Mode</dc:title>
        <dc:creator>
          <cc:Agent>
            <dc:title>Ell</dc:title>
          </cc:Agent>
        </dc:creator>
        <cc:license
           rdf:resource="http://creativecommons.org/licenses/by-sa/3.0/" />
        <dc:date />
      </cc:Work>
      <cc:License
         rdf:about="http://creativecommons.org/licenses/by-sa/3.0/">
        <cc:permits
           rdf:resource="http://creativecommons.org/ns#Reproduction" />
        <cc:permits
           rdf:resource="http://creativecommons.org/ns#Distribution" />
        <cc:requires
           rdf:resource="http://creativecommons.org/ns#Notice" />
        <cc:requires
           rdf:resource="http://creativecommons.org/ns#Attribution" />
        <cc:permits
           rdf:resource="http://creativecommons.org/ns#DerivativeWorks" />
        <cc:requires
           rdf:resource="http://creativecommons.org/ns#ShareAlike" />
      </cc:License>
    </rdf:RDF>
  </metadata>
  <g
     id="gimp-color-mode">
    <g
       id="g4914">
      <rect
         style="opacity:1;fill:none;fill-opacity:1;stroke:#bebebe;stroke-width:1;stroke-linecap:square;stroke-linejoin:miter;stroke-miterlimit:4;stroke-dasharray:none;stroke-opacity:1"
         id="rect6157"
         width="13"
         height="13"
         x="1.5"
         y="1.499983"
         ry="1.5" />
      <g
         style="font-style:normal;font-weight:normal;font-size:8.75px;line-height:125%;font-family:sans-serif;letter-spacing:0px;word-spacing:0px;display:inline;fill:#bebebe;fill-opacity:0.94117647;stroke:none;stroke-width:1px;stroke-linecap:butt;stroke-linejoin:miter;stroke-opacity:1"
         id="text6320">
        <path
           d="m 2.6456678,5.0344372 1.5274048,0 0,2.2573852 2.2534179,0 0,-2.2573852 1.5274048,0 0,5.9231568 -1.5274048,0 0,-2.5112916 -2.2534179,0 0,2.5112916 -1.5274048,0 0,-5.9231568 z"
           style="font-style:normal;font-variant:normal;font-weight:bold;font-stretch:normal;font-size:8.125px;font-family:sans-serif;-inkscape-font-specification:'sans-serif Bold';fill:#bebebe;fill-opacity:0.94117647"
           id="path4910" />
        <path
           d="m 12.965538,5.2208996 0,1.2536621 Q 12.477562,6.256361 12.01339,6.145277 11.549217,6.034193 11.13662,6.034193 q -0.547486,0 -0.809326,0.1507569 -0.261841,0.1507568 -0.261841,0.4681396 0,0.2380371 0.17456,0.3729248 0.178528,0.1309204 0.642701,0.2261353 L 11.533348,7.38307 q 0.987854,0.1983642 1.404419,0.6030273 0.416565,0.4046631 0.416565,1.1505127 0,0.979919 -0.583191,1.459961 -0.579223,0.476074 -1.773376,0.476074 -0.563355,0 -1.1306764,-0.107117 Q 9.2997668,10.858412 8.732445,10.648146 l 0,-1.289368 q 0.5673218,0.3015137 1.0949707,0.4562378 0.5316163,0.1507568 1.0235593,0.1507568 0.499878,0 0.765686,-0.1666259 0.265808,-0.166626 0.265808,-0.4760743 0,-0.2777099 -0.182495,-0.4284668 Q 11.521446,8.7438488 10.981896,8.6248302 L 10.39077,8.4939098 Q 9.5020983,8.3034801 9.0895007,7.8869152 8.6808703,7.4703503 8.6808703,6.7641735 q 0,-0.8847046 0.5712891,-1.3607788 0.571289,-0.4760742 1.6424556,-0.4760742 0.487976,0 1.003724,0.075378 0.515747,0.071411 1.067199,0.2182007 z"
           style="font-style:normal;font-variant:normal;font-weight:bold;font-stretch:normal;font-size:8.125px;font-family:sans-serif;-inkscape-font-specification:'sans-serif Bold';fill:#bebebe;fill-opacity:0.94117647"
           id="path4912" />
      </g>
    </g>
    <rect
       ry="1.5"
       y="0"
       x="0"
       height="16"
       width="16"
       id="rect4920"
       style="opacity:1;fill:none;fill-opacity:0;stroke:none;stroke-width:2;stroke-linecap:round;stroke-linejoin:miter;stroke-miterlimit:4;stroke-dasharray:none;stroke-opacity:1" />
  </g>
</svg>
