<?xml version="1.0" encoding="UTF-8" standalone="no"?>
<svg
   xmlns:osb="http://www.openswatchbook.org/uri/2009/osb"
   xmlns:dc="http://purl.org/dc/elements/1.1/"
   xmlns:cc="http://creativecommons.org/ns#"
   xmlns:rdf="http://www.w3.org/1999/02/22-rdf-syntax-ns#"
   xmlns:svg="http://www.w3.org/2000/svg"
   xmlns="http://www.w3.org/2000/svg"
   xmlns:xlink="http://www.w3.org/1999/xlink"
   xmlns:sodipodi="http://sodipodi.sourceforge.net/DTD/sodipodi-0.dtd"
   xmlns:inkscape="http://www.inkscape.org/namespaces/inkscape"
   viewBox="0 0 15.999999 16"
   id="svg7384"
   height="16"
   width="16"
   version="1.1"
   inkscape:version="0.91 r13725"
   sodipodi:docname="gimp-tool-ellipse-select.svg">
  <sodipodi:namedview
     pagecolor="#ffffff"
     bordercolor="#666666"
     borderopacity="1"
     objecttolerance="10"
     gridtolerance="10"
     guidetolerance="10"
     inkscape:pageopacity="0"
     inkscape:pageshadow="2"
     inkscape:window-width="640"
     inkscape:window-height="480"
     id="namedview1508"
     showgrid="false"
     inkscape:zoom="14.75"
     inkscape:cx="-111.18538"
     inkscape:cy="-36.00963"
     inkscape:window-x="0"
     inkscape:window-y="27"
     inkscape:window-maximized="0"
     inkscape:current-layer="svg7384" />
  <metadata
     id="metadata90">
    <rdf:RDF>
      <cc:Work
         rdf:about="">
        <dc:format>image/svg+xml</dc:format>
        <dc:type
           rdf:resource="http://purl.org/dc/dcmitype/StillImage" />
        <dc:title />
        <dc:contributor>
          <cc:Agent>
            <dc:title>Barbara Muraus, Jakub Steiner, Klaus Staedtler</dc:title>
          </cc:Agent>
        </dc:contributor>
        <dc:description>Images originally created as the &quot;Art Libre&quot; icon set. Extended and adopted for GIMP</dc:description>
      </cc:Work>
    </rdf:RDF>
  </metadata>
  <defs
     id="defs7386">
    <linearGradient
       osb:paint="solid"
       id="linearGradient8074">
      <stop
         id="stop8072"
         offset="0"
         style="stop-color:#be00be;stop-opacity:1;" />
    </linearGradient>
    <linearGradient
       osb:paint="solid"
       id="linearGradient7561">
      <stop
         id="stop7558"
         offset="0"
         style="stop-color:#a5a5a5;stop-opacity:1;" />
    </linearGradient>
    <linearGradient
       osb:paint="solid"
       id="linearGradient7548">
      <stop
         id="stop7546"
         offset="0"
         style="stop-color:#ebebeb;stop-opacity:1;" />
    </linearGradient>
    <linearGradient
       osb:paint="solid"
       id="linearGradient7542">
      <stop
         id="stop7538"
         offset="0"
         style="stop-color:#c9c9c9;stop-opacity:1;" />
    </linearGradient>
    <linearGradient
       gradientTransform="matrix(0,-735328.32,170712.69,0,2464326300,577972450)"
       osb:paint="solid"
       id="linearGradient19282">
      <stop
         id="stop19284"
         offset="0"
         style="stop-color:#b4b4b4;stop-opacity:1;" />
    </linearGradient>
    <linearGradient
       gradientTransform="matrix(0.34682586,0,0,0.30620888,-93.35187,504.03851)"
       osb:paint="solid"
       id="linearGradient19282-4">
      <stop
         id="stop19284-0"
         offset="0"
         style="stop-color:#bebebe;stop-opacity:1;" />
    </linearGradient>
    <linearGradient
       gradientTransform="translate(216.22264,162.5357)"
       gradientUnits="userSpaceOnUse"
       y2="48"
       x2="-166"
       y1="48"
       x1="-178"
       id="linearGradient10686"
       xlink:href="#linearGradient19282-4" />
    <linearGradient
       gradientTransform="translate(180.18558,121.90178)"
       gradientUnits="userSpaceOnUse"
       y2="48"
       x2="-166"
       y1="48"
       x1="-177"
       id="linearGradient9738"
       xlink:href="#linearGradient19282-4" />
  </defs>
  <g
     transform="translate(110.4481,-186.42526)"
     style="display:inline"
     id="tools">
    <g
       transform="translate(-171.4483,-70.57474)"
       id="gimp-tool-ellipse-select"
       style="display:inline">
      <rect
         style="fill:none;fill-opacity:1;stroke:none"
         id="rect4708"
         width="16"
         height="16"
         x="-180"
         y="40"
         transform="translate(241.0002,217)" />
      <ellipse
         ry="4"
         rx="6"
         cy="48"
         cx="-172"
         style="fill:url(#linearGradient10686);fill-opacity:1;stroke:none"
         id="path4710"
         transform="matrix(0.83333356,0,0,0.75,212.33357,229)" />
      <path
         style="fill:url(#linearGradient9738);fill-opacity:1;stroke:none"
         d="m -172,42 c -0.33893,0 -0.67129,0.03136 -1,0.0625 l 0,1 C -172.66967,43.02584 -172.3446,43 -172,43 Z m 1,0.0625 0,1 c 0.34825,0.0357 0.67022,0.116808 1,0.1875 l 0,-1.03125 c -0.3282,-0.06354 -0.65694,-0.124015 -1,-0.15625 z m -3,0.125 c -0.34262,0.06635 -0.67761,0.15236 -1,0.25 l 0,1.0625 c 0.32247,-0.109721 0.6537,-0.204691 1,-0.28125 z m 5,0.28125 0,1.03125 c 0.35597,0.1208 0.67996,0.277599 1,0.4375 l 0,-1.125 c -0.31848,-0.136641 -0.6556,-0.239896 -1,-0.34375 z m -7,0.34375 c -0.35696,0.155266 -0.68046,0.338085 -1,0.53125 l 0,1.1875 c 0.30947,-0.227085 0.63617,-0.442712 1,-0.625 z m 9,0.5 0,1.21875 c 0.37827,0.275423 0.71787,0.575609 1,0.90625 l 0,-1.40625 c -0.30538,-0.257891 -0.63855,-0.50472 -1,-0.71875 z m 1,7.25 c -0.28218,0.334433 -0.62081,0.66046 -1,0.9375 l 0,1.1875 c 0.35999,-0.216071 0.6951,-0.459896 1,-0.71875 z m -11,0.9375 0,1.15625 c 0.3196,0.193115 0.6429,0.376009 1,0.53125 l 0,-1.0625 c -0.36558,-0.183046 -0.68997,-0.396016 -1,-0.625 z m 9,0.59375 c -0.31199,0.156312 -0.65518,0.287157 -1,0.40625 l 0,1.0625 c 0.34848,-0.106694 0.67723,-0.234604 1,-0.375 z m -7,0.4375 0,1.03125 c 0.3255,0.09898 0.65476,0.183495 1,0.25 l 0,-1 c -0.35191,-0.07437 -0.67387,-0.169683 -1,-0.28125 z m 5,0.25 c -0.32714,0.07088 -0.65646,0.118704 -1,0.15625 l 0,1 c 0.34283,-0.03893 0.66861,-0.09062 1,-0.15625 z m -3,0.15625 0,1 c 0.32906,0.03092 0.65976,0.0625 1,0.0625 l 0,-1 c -0.34065,0 -0.67236,-0.02891 -1,-0.0625 z"
         id="path4760"
         transform="translate(241.0002,217)"
         inkscape:connector-curvature="0" />
    </g>
  </g>
</svg>
