<?xml version="1.0" encoding="UTF-8" standalone="no"?>
<svg
   xmlns:dc="http://purl.org/dc/elements/1.1/"
   xmlns:cc="http://creativecommons.org/ns#"
   xmlns:rdf="http://www.w3.org/1999/02/22-rdf-syntax-ns#"
   xmlns:svg="http://www.w3.org/2000/svg"
   xmlns="http://www.w3.org/2000/svg"
   xmlns:sodipodi="http://sodipodi.sourceforge.net/DTD/sodipodi-0.dtd"
   xmlns:inkscape="http://www.inkscape.org/namespaces/inkscape"
   height="16"
   viewBox="0 0 21.333333 21.333333"
   width="16"
   version="1.1"
   id="svg6"
   sodipodi:docname="gimp-repeat-filter.svg"
   style="fill:#000000"
   inkscape:version="0.92pre1 unknown">
  <metadata
     id="metadata12">
    <rdf:RDF>
      <cc:Work
         rdf:about="">
        <dc:format>image/svg+xml</dc:format>
        <dc:type
           rdf:resource="http://purl.org/dc/dcmitype/StillImage" />
        <dc:title />
      </cc:Work>
    </rdf:RDF>
  </metadata>
  <defs
     id="defs10" />
  <sodipodi:namedview
     pagecolor="#ffffff"
     bordercolor="#666666"
     borderopacity="1"
     objecttolerance="10"
     gridtolerance="10"
     guidetolerance="10"
     inkscape:pageopacity="0"
     inkscape:pageshadow="2"
     inkscape:window-width="1920"
     inkscape:window-height="1016"
     id="namedview8"
     showgrid="true"
     inkscape:zoom="13.82216"
     inkscape:cx="8.818123"
     inkscape:cy="9.1693198"
     inkscape:window-x="0"
     inkscape:window-y="27"
     inkscape:window-maximized="1"
     inkscape:current-layer="svg6">
    <inkscape:grid
       type="xygrid"
       id="grid4236" />
  </sodipodi:namedview>
  <g
     id="g4270">
    <rect
       y="9.382324e-07"
       x="0"
       height="21.333332"
       width="21.333332"
       id="rect4264"
       style="opacity:1;fill:none;fill-opacity:1;stroke:none;stroke-width:1.64102566;stroke-linecap:square;stroke-linejoin:round;stroke-miterlimit:4;stroke-dasharray:none;stroke-opacity:1;paint-order:stroke fill markers" />
    <g
       id="g4262">
      <path
         d="M 17.333333,16 H 9.3333337 v -2.666667 l -4.0000005,4 4.0000005,4 v -2.666667 c 0,0 5.6616743,0.02159 9.6616743,0.02159 C 20.772786,18.688256 20,13.333333 20,13.333333 h -2.666667 z"
         id="path4"
         inkscape:connector-curvature="0"
         sodipodi:nodetypes="ccccccsccc"
         style="fill:#bebebe;fill-opacity:1" />
      <path
         style="fill:#bebebe;fill-opacity:1;stroke-width:0.99750924"
         inkscape:connector-curvature="0"
         d="M 12.6,8.5910438 7.8299999,0.37213925 c 0.7,-0.14925369 1.42,-0.23880592 2.1699999,-0.23880592 C 12.4,0.13333333 14.6,0.9791043 16.32,2.3721389 L 12.66,8.6905464 Z M 0.45999999,7.0985068 C 1.38,4.193034 3.6099999,1.8646763 6.4599999,0.79004961 L 10.12,7.0985068 Z M 0.2,8.0935316 h 7.4899999 l -0.29,0.4975122 L 2.64,16.799999 C 0.99999998,15.028855 0,12.680595 0,10.083581 0,9.3970138 0.07,8.7402976 0.2,8.0935316 Z m 13.26,1.9900494 3.9,-6.7164175 c 1.63,1.7711443 2.64,4.119403 2.64,6.7164175 0,0.686567 -0.07,1.343283 -0.2,1.990049 h -7.49 z"
         id="path4-3"
         sodipodi:nodetypes="ccscccccccccccscccsccc" />
    </g>
  </g>
</svg>
