<?xml version="1.0" encoding="UTF-8" standalone="no"?>
<svg
   xmlns:osb="http://www.openswatchbook.org/uri/2009/osb"
   xmlns:dc="http://purl.org/dc/elements/1.1/"
   xmlns:cc="http://creativecommons.org/ns#"
   xmlns:rdf="http://www.w3.org/1999/02/22-rdf-syntax-ns#"
   xmlns:svg="http://www.w3.org/2000/svg"
   xmlns="http://www.w3.org/2000/svg"
   xmlns:xlink="http://www.w3.org/1999/xlink"
   xmlns:sodipodi="http://sodipodi.sourceforge.net/DTD/sodipodi-0.dtd"
   xmlns:inkscape="http://www.inkscape.org/namespaces/inkscape"
   viewBox="0 0 15.999999 16"
   id="svg7384"
   height="16"
   width="16"
   version="1.1"
   inkscape:version="0.91 r13725"
   sodipodi:docname="gimp-prefs-folders-icon-themes.svg">
  <sodipodi:namedview
     pagecolor="#ffffff"
     bordercolor="#666666"
     borderopacity="1"
     objecttolerance="10"
     gridtolerance="10"
     guidetolerance="10"
     inkscape:pageopacity="0"
     inkscape:pageshadow="2"
     inkscape:window-width="501"
     inkscape:window-height="405"
     id="namedview1507"
     showgrid="false"
     inkscape:zoom="14.75"
     inkscape:cx="-854.5614"
     inkscape:cy="-55.80853"
     inkscape:window-x="0"
     inkscape:window-y="27"
     inkscape:window-maximized="0"
     inkscape:current-layer="svg7384" />
  <metadata
     id="metadata90">
    <rdf:RDF>
      <cc:Work
         rdf:about="">
        <dc:format>image/svg+xml</dc:format>
        <dc:type
           rdf:resource="http://purl.org/dc/dcmitype/StillImage" />
        <dc:title />
        <dc:contributor>
          <cc:Agent>
            <dc:title>Barbara Muraus, Jakub Steiner, Klaus Staedtler</dc:title>
          </cc:Agent>
        </dc:contributor>
        <dc:description>Images originally created as the &quot;Art Libre&quot; icon set. Extended and adopted for GIMP</dc:description>
      </cc:Work>
    </rdf:RDF>
  </metadata>
  <defs
     id="defs7386">
    <linearGradient
       osb:paint="solid"
       id="linearGradient8074">
      <stop
         id="stop8072"
         offset="0"
         style="stop-color:#be00be;stop-opacity:1;" />
    </linearGradient>
    <linearGradient
       osb:paint="solid"
       id="linearGradient7561">
      <stop
         id="stop7558"
         offset="0"
         style="stop-color:#a5a5a5;stop-opacity:1;" />
    </linearGradient>
    <linearGradient
       osb:paint="solid"
       id="linearGradient7548">
      <stop
         id="stop7546"
         offset="0"
         style="stop-color:#ebebeb;stop-opacity:1;" />
    </linearGradient>
    <linearGradient
       osb:paint="solid"
       id="linearGradient7542">
      <stop
         id="stop7538"
         offset="0"
         style="stop-color:#c9c9c9;stop-opacity:1;" />
    </linearGradient>
    <linearGradient
       gradientTransform="matrix(0,-735328.32,170712.69,0,2464326300,577972450)"
       osb:paint="solid"
       id="linearGradient19282">
      <stop
         id="stop19284"
         offset="0"
         style="stop-color:#b4b4b4;stop-opacity:1;" />
    </linearGradient>
    <linearGradient
       gradientTransform="matrix(0.34682586,0,0,0.30620888,-139.35207,801.03851)"
       osb:paint="solid"
       id="linearGradient19282-4">
      <stop
         id="stop19284-0"
         offset="0"
         style="stop-color:#bebebe;stop-opacity:1;" />
    </linearGradient>
    <linearGradient
       gradientTransform="translate(877.5614,399.10288)"
       gradientUnits="userSpaceOnUse"
       y2="8"
       x2="16"
       y1="8"
       x1="0"
       id="linearGradient8328"
       xlink:href="#linearGradient19282-4" />
  </defs>
  <g
     transform="translate(-264.24079,-241.10288)"
     style="display:inline"
     id="preferences">
    <g
       transform="translate(249.24079,281.10288)"
       id="gimp-prefs-folders-icon-themes"
       style="display:inline">
      <path
         id="rect3845-9"
         transform="translate(15,-40)"
         d="M 0.53125,0 C 0.24212,0 0,0.24212 0,0.53125 l 0,14.9375 C 0,15.76725 0.23264,16 0.53125,16 l 14.9375,0 C 15.76735,16 16,15.76735 16,15.46875 l 0,-9.9375 C 16,5.24215 15.75788,5 15.46875,5 L 3,5 3,13.5 C 3,13.777 2.777,14 2.5,14 2.223,14 2,13.777 2,13.5 l 0,-9 C 2,4.223 2.223,4 2.5,4 L 5.46875,4 14,4 14,2.59375 C 14,2.26655 13.73334,2 13.40625,2 L 6,2 6,0.53125 C 6,0.2421 5.75788,0 5.46875,0 Z m 13.837891,5.8164062 c 0.2873,2.9816271 0.221464,6.5824898 -1.44336,6.9882818 -0.389607,-0.259753 -0.523426,-0.38889 -0.949219,-0.607422 0.185706,-0.18408 0.314454,-0.314449 0.314454,-0.314454 0,0 -0.03182,-0.03897 0.291015,0.328126 0.04618,-0.767759 -0.658184,-1.336574 -1.199219,-1.34961 l 0.5,0.539063 c -0.952733,1.456556 -3.3574214,0.314453 -3.3574214,0.314453 0,0 1.0788724,1.064821 2.3554684,1.058594 0.0515,-5.32e-4 0.0076,0.0027 0.05664,-0.0039 0.185515,0.203655 0.32962,0.433177 0.652344,0.671875 C 9.8845656,13.859721 7.873989,12.740442 6.7109375,11.734375 A 1.3205066,1.0368471 45.007116 0 1 5.1464844,10.882812 1.3205066,1.0368471 45.007116 0 1 5.6171875,9.4296875 1.3205066,1.0368471 45.007116 0 1 7.2285156,10.267578 1.3205066,1.0368471 45.007116 0 1 7.3417969,10.59375 c 0.00295,-0.0085 0.013672,-0.02734 0.013672,-0.02734 0,0 0.908246,-1.1874844 0.59375,-4.1562498 0,0 0.06263,1.783048 2.9511721,1.7988282 3.402219,0.018699 3.46875,-2.392578 3.46875,-2.3925782 z m -2.429688,2.671875 c -0.569893,0 -1.039062,0.4674597 -1.039062,1.0390626 0,0.5715872 0.469169,1.0390622 1.039062,1.0390622 0.569893,0 1.039063,-0.467475 1.039063,-1.0390622 0,-0.5716032 -0.46917,-1.0390626 -1.039063,-1.0390626 z m -2.4687499,0.296875 c -0.4904269,0 -0.890625,0.3987573 -0.890625,0.890625 0,0.4918888 0.4001981,0.8906248 0.890625,0.8906248 0.4904111,0 0.8730469,-0.398736 0.8730469,-0.8906248 0,-0.4918677 -0.3826358,-0.890625 -0.8730469,-0.890625 z M 11.339844,9.1796875 A 0.39876698,0.3921652 0 0 1 11.738281,9.5722656 0.39876698,0.3921652 0 0 1 11.339844,9.9648438 0.39876698,0.3921652 0 0 1 10.941406,9.5722656 0.39876698,0.3921652 0 0 1 11.339844,9.1796875 Z M 9.1464844,9.3613281 c 0.1725954,0 0.3125,0.1366995 0.3125,0.3046875 0,0.1679775 -0.1399046,0.3046875 -0.3125,0.3046875 -0.1725902,0 -0.3125,-0.13671 -0.3125,-0.3046875 0,-0.167988 0.1399098,-0.3046875 0.3125,-0.3046875 z m 2.2773436,2.8984379 c 0.03734,0.002 0.08181,0.02056 0.13086,0.0625 0,0 1.037131,0.639173 1.632812,1.318359 0.493414,0.204619 0.759128,0.863006 0.783203,1.609375 0,0 0.05688,-0.376071 -1.121094,-0.560547 -0.613512,-0.09609 -0.684436,-0.704651 -0.380859,-0.980469 -0.592296,-0.519232 -1.115234,-1.175781 -1.115234,-1.175781 -0.09023,-0.134545 -0.04171,-0.279489 0.07031,-0.273437 z"
         style="display:inline;fill:url(#linearGradient8328);fill-opacity:1;stroke:none"
         inkscape:connector-curvature="0" />
    </g>
  </g>
</svg>
