<?xml version="1.0" encoding="UTF-8" standalone="no"?>
<svg
   xmlns:osb="http://www.openswatchbook.org/uri/2009/osb"
   xmlns:dc="http://purl.org/dc/elements/1.1/"
   xmlns:cc="http://creativecommons.org/ns#"
   xmlns:rdf="http://www.w3.org/1999/02/22-rdf-syntax-ns#"
   xmlns:svg="http://www.w3.org/2000/svg"
   xmlns="http://www.w3.org/2000/svg"
   xmlns:xlink="http://www.w3.org/1999/xlink"
   xmlns:sodipodi="http://sodipodi.sourceforge.net/DTD/sodipodi-0.dtd"
   xmlns:inkscape="http://www.inkscape.org/namespaces/inkscape"
   viewBox="0 0 15.999999 16"
   id="svg7384"
   height="16"
   width="16"
   version="1.1"
   inkscape:version="0.91 r13725"
   sodipodi:docname="gimp-toilet-paper.svg">
  <sodipodi:namedview
     pagecolor="#ffffff"
     bordercolor="#666666"
     borderopacity="1"
     objecttolerance="10"
     gridtolerance="10"
     guidetolerance="10"
     inkscape:pageopacity="0"
     inkscape:pageshadow="2"
     inkscape:window-width="501"
     inkscape:window-height="405"
     id="namedview1515"
     showgrid="false"
     inkscape:zoom="14.75"
     inkscape:cx="-375.20587"
     inkscape:cy="-160.51961"
     inkscape:window-x="0"
     inkscape:window-y="27"
     inkscape:window-maximized="0"
     inkscape:current-layer="svg7384" />
  <metadata
     id="metadata90">
    <rdf:RDF>
      <cc:Work
         rdf:about="">
        <dc:format>image/svg+xml</dc:format>
        <dc:type
           rdf:resource="http://purl.org/dc/dcmitype/StillImage" />
        <dc:title />
        <dc:contributor>
          <cc:Agent>
            <dc:title>Barbara Muraus, Jakub Steiner, Klaus Staedtler</dc:title>
          </cc:Agent>
        </dc:contributor>
        <dc:description>Images originally created as the &quot;Art Libre&quot; icon set. Extended and adopted for GIMP</dc:description>
      </cc:Work>
    </rdf:RDF>
  </metadata>
  <defs
     id="defs7386">
    <linearGradient
       osb:paint="solid"
       id="linearGradient8074">
      <stop
         id="stop8072"
         offset="0"
         style="stop-color:#be00be;stop-opacity:1;" />
    </linearGradient>
    <linearGradient
       osb:paint="solid"
       id="linearGradient7561">
      <stop
         id="stop7558"
         offset="0"
         style="stop-color:#a5a5a5;stop-opacity:1;" />
    </linearGradient>
    <linearGradient
       osb:paint="solid"
       id="linearGradient7548">
      <stop
         id="stop7546"
         offset="0"
         style="stop-color:#ebebeb;stop-opacity:1;" />
    </linearGradient>
    <linearGradient
       osb:paint="solid"
       id="linearGradient7542">
      <stop
         id="stop7538"
         offset="0"
         style="stop-color:#c9c9c9;stop-opacity:1;" />
    </linearGradient>
    <linearGradient
       gradientTransform="translate(15217.032,4989.3553)"
       gradientUnits="userSpaceOnUse"
       y2="617.86304"
       x2="264.02869"
       y1="617.86304"
       x1="65.257019"
       id="linearGradient4092"
       xlink:href="#linearGradient19282" />
    <linearGradient
       gradientTransform="matrix(0,-735328.32,170712.69,0,2464326300,577972450)"
       osb:paint="solid"
       id="linearGradient19282">
      <stop
         id="stop19284"
         offset="0"
         style="stop-color:#b4b4b4;stop-opacity:1;" />
    </linearGradient>
    <linearGradient
       gradientTransform="matrix(0.34682586,0,0,0.30620888,85.06762,710.79296)"
       osb:paint="solid"
       id="linearGradient19282-4">
      <stop
         id="stop19284-0"
         offset="0"
         style="stop-color:#bebebe;stop-opacity:1;" />
    </linearGradient>
  </defs>
  <g
     transform="translate(-164.81441,-37.115014)"
     style="display:inline"
     id="stock">
    <g
       transform="translate(-74.605277,-13.130529)"
       id="gimp-toilet-paper">
      <g
         id="gimp-new-toilet-paper"
         transform="translate(239.41969,-986.11664)">
        <g
           transform="matrix(0.04091636,0,0,0.04091636,0.17280194,1015.6658)"
           id="gimp-new-toilet-paper-1">
          <path
             style="fill:#ffffff;fill-opacity:1;stroke:none;stroke-width:1.13499999;stroke-miterlimit:4;stroke-dasharray:none;stroke-opacity:1"
             d="m 87.355,510.36221 202.14715,0 c 0.19667,0 0.355,0.15833 0.355,0.355 l 0,211.29 c 0,0.19667 -0.15833,0.355 -0.355,0.355 l -202.14715,0 c -0.19667,0 -0.227971,-0.24605 -0.355,-0.355 -53.380966,-45.78312 -59.452394,-145.14974 0,-211.29 0.111874,-0.12446 0.515473,-10.71214 0.355,-0.355 z"
             id="rect3940-5"
             inkscape:connector-curvature="0" />
          <path
             style="fill:url(#linearGradient4092);fill-opacity:1;stroke:none;stroke-width:1.13499999;stroke-miterlimit:4;stroke-dasharray:none;stroke-opacity:1"
             d="m 99.870243,533.7742 163.870677,0 c 0.15943,0 0.28778,0.12835 0.28778,0.28778 l 0,171.28232 c 0,0.15943 -0.12835,0.28778 -0.28778,0.28778 l -163.870677,0 c -0.15943,0 -0.1848,-0.19946 -0.28778,-0.28778 -43.2733,-37.1141 -48.1951,-117.66569 0,-171.28232 0.0907,-0.10089 0.417867,-8.6838 0.28778,-0.28778 z"
             id="rect3940-4-7"
             inkscape:connector-curvature="0" />
          <path
             style="fill:#ffffff;fill-opacity:1;stroke:none;stroke-width:1.13499999;stroke-miterlimit:4;stroke-dasharray:none;stroke-opacity:1"
             d="m 108.43802,552.14223 150.32667,0 c 0.14626,0 0.264,0.10022 0.264,0.22473 l 0,133.75468 c 0,0.1245 -0.1177,0.22473 -0.264,0.22473 l -150.32667,0 c -0.14626,0 -0.16953,-0.15576 -0.264,-0.22473 -39.696742,-28.98247 -44.211754,-91.88536 0,-133.75468 0.0832,-0.0788 0.38334,-6.7812 0.264,-0.22473 z"
             id="rect3940-8-8"
             inkscape:connector-curvature="0" />
        </g>
      </g>
      <path
         style="opacity:1;fill:#464646;fill-opacity:1;stroke:none;stroke-width:0.12168574;stroke-linecap:round;stroke-linejoin:round;stroke-miterlimit:4;stroke-dasharray:none;stroke-opacity:1"
         d="m 244.06687,58.36454 6.61554,0 c 0.0327,0 0.0591,0.026 0.0591,0.059 l 0,0.2705 c 0,0.033 -0.0264,0.059 -0.0591,0.059 l -6.4577,0.063 c 1.55084,0.036 0.0988,-0.059 0.0988,-0.059 0,0 -0.8257,-0.1199 -0.75762,-0.3967 0.0399,-0.1622 1.28905,0.099 0.50103,0 z"
         id="rect3956"
         inkscape:connector-curvature="0" />
      <ellipse
         style="fill:#bebebe;fill-opacity:1;stroke:none;stroke-width:1.13499999;stroke-miterlimit:4;stroke-dasharray:none;stroke-opacity:1"
         id="path3934-6"
         cx="251.75049"
         cy="54.768471"
         rx="2.5718856"
         ry="4.3371344" />
      <ellipse
         style="fill:#464646;fill-opacity:1;stroke:none;stroke-width:1.13499999;stroke-miterlimit:4;stroke-dasharray:none;stroke-opacity:1"
         id="path3938-4-8"
         cx="251.85719"
         cy="54.691933"
         rx="0.6429714"
         ry="1.2274908" />
      <path
         style="fill:#dcdcdc;fill-opacity:1;fill-rule:evenodd;stroke:none;stroke-width:1px;stroke-linecap:butt;stroke-linejoin:miter;stroke-opacity:1"
         d="m 243.04525,58.96091 c -1.61786,4.812704 -2.95485,6.087998 -1.63227,6.808737 l 8.01874,0.404252 c 2.22481,-1.348093 -1.35678,-4.791695 2.12593,-7.193785 z"
         id="path6379"
         inkscape:connector-curvature="0" />
    </g>
  </g>
</svg>
