<?xml version="1.0" encoding="UTF-8" standalone="no"?>
<!-- Created with Inkscape (http://www.inkscape.org/) -->

<svg
   xmlns:dc="http://purl.org/dc/elements/1.1/"
   xmlns:cc="http://creativecommons.org/ns#"
   xmlns:rdf="http://www.w3.org/1999/02/22-rdf-syntax-ns#"
   xmlns:svg="http://www.w3.org/2000/svg"
   xmlns="http://www.w3.org/2000/svg"
   xmlns:sodipodi="http://sodipodi.sourceforge.net/DTD/sodipodi-0.dtd"
   xmlns:inkscape="http://www.inkscape.org/namespaces/inkscape"
   width="16"
   height="16"
   viewBox="0 0 16 16"
   id="svg9411"
   version="1.1"
   inkscape:version="0.91 r13725"
   sodipodi:docname="gimp-lch-chroma-mode.svg">
  <title
     id="title10744">GIMP Chroma (LCH) Mode</title>
  <defs
     id="defs9413" />
  <sodipodi:namedview
     id="base"
     pagecolor="#ffffff"
     bordercolor="#666666"
     borderopacity="1.0"
     inkscape:pageopacity="0.0"
     inkscape:pageshadow="2"
     inkscape:zoom="46.3125"
     inkscape:cx="8"
     inkscape:cy="8"
     inkscape:document-units="px"
     inkscape:current-layer="svg9411"
     showgrid="true"
     units="px"
     inkscape:window-width="1535"
     inkscape:window-height="876"
     inkscape:window-x="65"
     inkscape:window-y="24"
     inkscape:window-maximized="1">
    <inkscape:grid
       empspacing="4"
       type="xygrid"
       id="grid9959" />
  </sodipodi:namedview>
  <metadata
     id="metadata9416">
    <rdf:RDF>
      <cc:Work
         rdf:about="">
        <dc:format>image/svg+xml</dc:format>
        <dc:type
           rdf:resource="http://purl.org/dc/dcmitype/StillImage" />
        <dc:title>GIMP Chroma (LCH) Mode</dc:title>
        <dc:creator>
          <cc:Agent>
            <dc:title>Ell</dc:title>
          </cc:Agent>
        </dc:creator>
        <cc:license
           rdf:resource="http://creativecommons.org/licenses/by-sa/3.0/" />
        <dc:date />
      </cc:Work>
      <cc:License
         rdf:about="http://creativecommons.org/licenses/by-sa/3.0/">
        <cc:permits
           rdf:resource="http://creativecommons.org/ns#Reproduction" />
        <cc:permits
           rdf:resource="http://creativecommons.org/ns#Distribution" />
        <cc:requires
           rdf:resource="http://creativecommons.org/ns#Notice" />
        <cc:requires
           rdf:resource="http://creativecommons.org/ns#Attribution" />
        <cc:permits
           rdf:resource="http://creativecommons.org/ns#DerivativeWorks" />
        <cc:requires
           rdf:resource="http://creativecommons.org/ns#ShareAlike" />
      </cc:License>
    </rdf:RDF>
  </metadata>
  <g
     style="display:inline"
     id="gimp-lch-chroma-mode"
     transform="translate(0,-10e-6)">
    <path
       id="rect6157-62"
       d="M 3,1 C 1.892,1 1,1.892 1,3 l 0,10 c 0,1.108 0.892,2 2,2 l 10,0 c 1.108,0 2,-0.892 2,-2 L 15,3 C 15,1.892 14.108,1 13,1 L 3,1 Z m 5.7226562,2.2734375 c 0.5086264,0 0.9969076,0.05599 1.4648438,0.1699219 0.467936,0.1139323 0.918294,0.2840169 1.349609,0.5078125 l 0,1.8847656 C 11.101725,5.5388997 10.673177,5.3219401 10.25,5.1835938 9.8268229,5.0452474 9.3800456,4.9765625 8.9121094,4.9765625 c -0.8382162,0 -1.4964193,0.2675781 -1.9765625,0.8046875 -0.4801433,0.5371094 -0.7207031,1.2786458 -0.7207031,2.2226562 0,0.9399415 0.2405598,1.6777344 0.7207031,2.2148438 0.4801432,0.537109 1.1383463,0.804688 1.9765625,0.804688 0.4679362,0 0.9147135,-0.06869 1.3378906,-0.207032 0.423177,-0.138346 0.851725,-0.355306 1.287109,-0.652344 l 0,1.884766 c -0.431315,0.223796 -0.881673,0.39388 -1.349609,0.507813 -0.4679362,0.113932 -0.9562174,0.169922 -1.4648438,0.169921 -1.5177408,0 -2.7203776,-0.423177 -3.6074218,-1.269531 C 4.2281901,10.606608 3.7851562,9.456543 3.7851562,8.0039062 c 0,-1.4567057 0.4430339,-2.6087239 1.3300782,-3.4550781 0.8870442,-0.8504232 2.089681,-1.2753906 3.6074218,-1.2753906 z"
       style="opacity:1;fill:#bebebe;fill-opacity:1;stroke:none;stroke-width:1;stroke-linecap:square;stroke-linejoin:miter;stroke-miterlimit:4;stroke-dasharray:none;stroke-opacity:1"
       inkscape:connector-curvature="0" />
    <rect
       ry="1.8571399"
       y="0"
       x="0"
       height="16"
       width="16"
       id="rect10633"
       style="opacity:1;fill:none;fill-opacity:1;stroke:none;stroke-width:2;stroke-linecap:round;stroke-linejoin:miter;stroke-miterlimit:4;stroke-dasharray:none;stroke-opacity:1" />
  </g>
</svg>
