<?xml version="1.0" encoding="UTF-8" standalone="no"?>
<svg
   xmlns:dc="http://purl.org/dc/elements/1.1/"
   xmlns:cc="http://creativecommons.org/ns#"
   xmlns:rdf="http://www.w3.org/1999/02/22-rdf-syntax-ns#"
   xmlns:svg="http://www.w3.org/2000/svg"
   xmlns="http://www.w3.org/2000/svg"
   xmlns:sodipodi="http://sodipodi.sourceforge.net/DTD/sodipodi-0.dtd"
   xmlns:inkscape="http://www.inkscape.org/namespaces/inkscape"
   width="16"
   height="16"
   viewBox="0 0 16 16"
   id="svg30571"
   version="1.1"
   inkscape:version="0.92pre1 unknown"
   sodipodi:docname="gimp-shred.svg">
  <defs
     id="defs30573" />
  <sodipodi:namedview
     id="base"
     pagecolor="#ffffff"
     bordercolor="#666666"
     borderopacity="1"
     inkscape:pageopacity="0"
     inkscape:pageshadow="2"
     inkscape:zoom="21.166144"
     inkscape:cx="9.5017934"
     inkscape:cy="3.384151"
     inkscape:document-units="px"
     inkscape:current-layer="layer1"
     showgrid="true"
     units="px"
     inkscape:snap-page="true"
     inkscape:snap-bbox="true"
     inkscape:bbox-paths="true"
     inkscape:bbox-nodes="true"
     inkscape:snap-bbox-edge-midpoints="true"
     inkscape:snap-bbox-midpoints="true"
     inkscape:object-paths="true"
     inkscape:snap-intersection-paths="true"
     inkscape:object-nodes="true"
     inkscape:snap-smooth-nodes="true"
     inkscape:snap-midpoints="true"
     inkscape:snap-object-midpoints="true"
     inkscape:snap-center="true"
     inkscape:snap-text-baseline="true"
     showborder="false"
     inkscape:window-width="1920"
     inkscape:window-height="1016"
     inkscape:window-x="0"
     inkscape:window-y="27"
     inkscape:window-maximized="1"
     inkscape:snap-global="false">
    <inkscape:grid
       type="xygrid"
       id="grid4234" />
  </sodipodi:namedview>
  <metadata
     id="metadata30576">
    <rdf:RDF>
      <cc:Work
         rdf:about="">
        <dc:format>
          image/svg+xml
        </dc:format>
        <dc:type
           rdf:resource="http://purl.org/dc/dcmitype/StillImage" />
        <dc:creator>
          <cc:Agent>
            <dc:title>Klaus Staedtler       </dc:title>
          </cc:Agent>
        </dc:creator>
        <dc:title />
      </cc:Work>
    </rdf:RDF>
  </metadata>
  <g
     inkscape:label="Layer 1"
     inkscape:groupmode="layer"
     id="layer1"
     transform="translate(0,-1036.3622)">
    <g
       id="g3939"
       transform="matrix(1,0,0,0.98507312,-0.24242425,15.70848)">
      <path
         sodipodi:nodetypes="cscccsccscsccscsscsscccsssss"
         inkscape:connector-curvature="0"
         id="path7075"
         d="m 6.2506867,1049.6955 c -0.1229063,-3.0306 -1.109128,-3.594 -1.474117,-0.8421 l -0.2419865,1.8246 -0.096081,-1.8105 c -0.090096,-1.6994 -0.225613,-1.3099 -1.896017,-1.4737 -1.83814318,0.024 -1.80000039,0.2947 -1.80000039,-1.979 0,-2.0959 0.1424217,-2.3157 1.50000209,-2.3157 H 14.242483 c 1.35758,0 1.500002,0.2198 1.500002,2.3157 0,2.2635 0.03101,2.0013 -1.765084,1.9855 -1.519124,0.1643 -1.804789,0.023 -1.999152,1.7544 l -0.234045,2.0847 -0.100891,-2.1053 c -0.14411,-3.008 -1.193024,-2.6046 -1.459827,0.5614 l -0.2247372,2.6667 -0.108147,-2.6667 c -0.1285921,-3.1709 -1.1363384,-3.5555 -1.4710711,-0.5614 l -0.2353603,2.1053 -0.10089,-2.1053 c -0.144121,-3.008 -1.1930356,-2.6046 -1.4598492,0.5614 l -0.2247262,2.6667 -0.1081469,-2.6667 z m 8.8918553,-3.3684 c 0,-0.2316 -3.104998,-0.421 -6.9000035,-0.421 -3.795005,0 -6.9000034,0.1894 -6.9000034,0.421 0,0.2316 3.1049984,0.4211 6.9000034,0.4211 3.7950055,0 6.9000035,-0.1895 6.9000035,-0.4211 z"
         style="fill:#bebebe;fill-opacity:1" />
      <path
         style="color:#000000;font-style:normal;font-variant:normal;font-weight:normal;font-stretch:normal;font-size:medium;line-height:normal;font-family:Sans;-inkscape-font-specification:Sans;text-indent:0;text-align:start;text-decoration:none;text-decoration-line:none;letter-spacing:normal;word-spacing:normal;text-transform:none;writing-mode:lr-tb;direction:ltr;baseline-shift:baseline;text-anchor:start;display:inline;overflow:visible;visibility:visible;fill:#bebebe;fill-opacity:1;stroke:none;stroke-width:2.03324413;marker:none;enable-background:accumulate"
         d="m 3.6362913,1036.9822 c -0.5042206,0.06 -0.9027574,0.3667 -0.8937162,0.6874 v 4.5411 h 0.9998492 v -4.5411 h 6.4999997 v 1.7187 h 2.5 v 2.8223 h 0.999727 v -2.7791 c 0.0066,-0.1816 -0.107355,-0.3637 -0.309363,-0.4942 l -2.690364,-1.7619 c -0.20875,-0.1263 -0.628417,-0.1975 -0.9188711,-0.1933 H 3.8425334 3.7394707 3.636408 Z"
         id="path7318"
         inkscape:connector-curvature="0"
         sodipodi:nodetypes="cccccccccccccccccc"
         inkscape:export-filename="/home/matthias/GIT/icons/exported-sifr/framework/res/folder_32.png"
         inkscape:export-xdpi="90"
         inkscape:export-ydpi="90" />
      <rect
         y="1036.1198"
         x="0.24242425"
         height="16"
         width="16"
         id="rect3999"
         style="color:#000000;clip-rule:nonzero;display:inline;overflow:visible;visibility:visible;opacity:1;isolation:auto;mix-blend-mode:normal;color-interpolation:sRGB;color-interpolation-filters:linearRGB;solid-color:#000000;solid-opacity:1;fill:none;fill-opacity:1;fill-rule:nonzero;stroke:none;stroke-width:0.4848485;stroke-linecap:round;stroke-linejoin:round;stroke-miterlimit:4;stroke-dasharray:none;stroke-dashoffset:0;stroke-opacity:1;color-rendering:auto;image-rendering:auto;shape-rendering:auto;text-rendering:auto;enable-background:accumulate" />
    </g>
  </g>
</svg>
