<?xml version="1.0" encoding="UTF-8" standalone="no"?>
<svg
   xmlns:osb="http://www.openswatchbook.org/uri/2009/osb"
   xmlns:dc="http://purl.org/dc/elements/1.1/"
   xmlns:cc="http://creativecommons.org/ns#"
   xmlns:rdf="http://www.w3.org/1999/02/22-rdf-syntax-ns#"
   xmlns:svg="http://www.w3.org/2000/svg"
   xmlns="http://www.w3.org/2000/svg"
   xmlns:xlink="http://www.w3.org/1999/xlink"
   xmlns:sodipodi="http://sodipodi.sourceforge.net/DTD/sodipodi-0.dtd"
   xmlns:inkscape="http://www.inkscape.org/namespaces/inkscape"
   viewBox="0 0 15.999999 16"
   id="svg7384"
   height="16"
   width="16"
   version="1.1"
   inkscape:version="0.91 r13725"
   sodipodi:docname="gimp-tool-dodge.svg">
  <sodipodi:namedview
     pagecolor="#ffffff"
     bordercolor="#666666"
     borderopacity="1"
     objecttolerance="10"
     gridtolerance="10"
     guidetolerance="10"
     inkscape:pageopacity="0"
     inkscape:pageshadow="2"
     inkscape:window-width="501"
     inkscape:window-height="405"
     id="namedview1510"
     showgrid="false"
     inkscape:zoom="14.75"
     inkscape:cx="-171.31261"
     inkscape:cy="903.00695"
     inkscape:window-x="0"
     inkscape:window-y="27"
     inkscape:window-maximized="0"
     inkscape:current-layer="svg7384" />
  <metadata
     id="metadata90">
    <rdf:RDF>
      <cc:Work
         rdf:about="">
        <dc:format>image/svg+xml</dc:format>
        <dc:type
           rdf:resource="http://purl.org/dc/dcmitype/StillImage" />
        <dc:title />
        <dc:contributor>
          <cc:Agent>
            <dc:title>Barbara Muraus, Jakub Steiner, Klaus Staedtler</dc:title>
          </cc:Agent>
        </dc:contributor>
        <dc:description>Images originally created as the &quot;Art Libre&quot; icon set. Extended and adopted for GIMP</dc:description>
      </cc:Work>
    </rdf:RDF>
  </metadata>
  <defs
     id="defs7386">
    <linearGradient
       osb:paint="solid"
       id="linearGradient8074">
      <stop
         id="stop8072"
         offset="0"
         style="stop-color:#be00be;stop-opacity:1;" />
    </linearGradient>
    <linearGradient
       osb:paint="solid"
       id="linearGradient7561">
      <stop
         id="stop7558"
         offset="0"
         style="stop-color:#a5a5a5;stop-opacity:1;" />
    </linearGradient>
    <linearGradient
       osb:paint="solid"
       id="linearGradient7548">
      <stop
         id="stop7546"
         offset="0"
         style="stop-color:#ebebeb;stop-opacity:1;" />
    </linearGradient>
    <linearGradient
       osb:paint="solid"
       id="linearGradient7542">
      <stop
         id="stop7538"
         offset="0"
         style="stop-color:#c9c9c9;stop-opacity:1;" />
    </linearGradient>
    <linearGradient
       gradientTransform="matrix(0,-735328.32,170712.69,0,2464326300,577972450)"
       osb:paint="solid"
       id="linearGradient19282">
      <stop
         id="stop19284"
         offset="0"
         style="stop-color:#b4b4b4;stop-opacity:1;" />
    </linearGradient>
    <linearGradient
       gradientTransform="matrix(0.34682586,0,0,0.30620888,-154.35207,-275.32369)"
       osb:paint="solid"
       id="linearGradient19282-4">
      <stop
         id="stop19284-0"
         offset="0"
         style="stop-color:#bebebe;stop-opacity:1;" />
    </linearGradient>
    <linearGradient
       gradientTransform="translate(179.31261,281.55616)"
       gradientUnits="userSpaceOnUse"
       y2="1047.3622"
       x2="12"
       y1="1047.3622"
       x1="4"
       id="linearGradient10770"
       xlink:href="#linearGradient19282-4" />
    <linearGradient
       gradientTransform="translate(179.31261,281.55616)"
       gradientUnits="userSpaceOnUse"
       y2="1047.3622"
       x2="13"
       y1="1047.3622"
       x1="3"
       id="linearGradient10776"
       xlink:href="#linearGradient19282-4" />
    <linearGradient
       gradientTransform="translate(179.31261,281.55616)"
       gradientUnits="userSpaceOnUse"
       y2="8.9375"
       x2="14"
       y1="8.9375"
       x1="3"
       id="linearGradient10782"
       xlink:href="#linearGradient19282-4" />
  </defs>
  <g
     transform="translate(111.32107,-346.07964)"
     style="display:inline"
     id="tools">
    <g
       id="gimp-tool-dodge"
       transform="translate(-111.32107,-690.28256)">
      <g
         style="display:inline"
         id="gimp-tool-dodge-0"
         transform="translate(-41.000198,799.2372)">
        <path
           style="fill:url(#linearGradient10782);fill-opacity:1;stroke:none"
           d="M 12,1.875 9.5058594,6.2382812 A 5,5 0 0 1 11.501953,7.4355469 L 14,3 Z M 8,6 C 7.967079,6 7.935113,6.00327 7.902344,6.00391 A 5,5 0 0 1 8.0781252,6.00782 C 8.0514642,6.0073111 8.0268346,6 8,6 Z M 7.3261719,6.0507812 C 7.209963,6.0664699 7.0940016,6.0819381 6.9804688,6.1054688 a 5,5 0 0 1 0.3457031,-0.054688 z m -1.2246094,0.328125 c -0.020667,0.0085 -0.041973,0.014665 -0.0625,0.023438 a 5,5 0 0 1 0.0625,-0.023438 z M 5.2597656,6.8242188 c -0.024981,0.016431 -0.051506,0.030011 -0.076172,0.046875 a 5,5 0 0 1 0.076172,-0.046875 z m -0.7578125,0.609375 c -0.01749,0.017156 -0.035497,0.033372 -0.052734,0.050781 a 5,5 0 0 1 0.052734,-0.050781 z M 3.9042969,8.1425781 c -0.025563,0.036554 -0.051571,0.072114 -0.076172,0.109375 a 5,5 0 0 1 0.076172,-0.109375 z m -0.46875,0.8339844 c -0.020933,0.0471 -0.042994,0.092771 -0.0625,0.140625 a 5,5 0 0 1 0.0625,-0.140625 z M 3.125,9.9140625 C 3.110551,9.9791395 3.09587,10.04337 3.083984,10.109375 A 5,5 0 0 1 3.125,9.9140625 Z M 3.052734,10.304688 c -0.012901,0.09254 -0.023487,0.185208 -0.03125,0.279296 a 5,5 0 0 1 0.03125,-0.279296 z m 9.9375,0.519531 -0.992187,0.03516 L 8,11 l 3.998047,-0.138672 0.992187,-0.03516 c -2.2e-5,-6.51e-4 2.3e-5,-0.0013 0,-0.002 z m -9.9824219,0.01758 C 3.0061533,10.894751 3,10.946643 3,11 c 0,0.03292 0.00327,0.06489 0.00391,0.09766 a 5,5 0 0 1 0.00391,-0.255859 z m 9.9882819,0.06641 a 5,5 0 0 1 -0.0039,0.248047 C 12.993806,11.103943 13,11.0527 13,11 13,10.96906 12.9967,10.939 12.9961,10.9082 Z m -0.01758,0.511719 a 5,5 0 0 1 -0.03125,0.269531 c 0.01235,-0.08939 0.02368,-0.178699 0.03125,-0.269531 z M 3.0429688,11.625 c 0.016613,0.13301 0.035649,0.264979 0.0625,0.394531 A 5,5 0 0 1 3.0429688,11.625 Z m 9.8730472,0.273438 a 5,5 0 0 1 -0.04102,0.18164 c 0.01342,-0.06077 0.02983,-0.120063 0.04102,-0.18164 z m -0.289063,0.984374 a 5,5 0 0 1 -0.0625,0.140626 c 0.02093,-0.0471 0.04299,-0.09277 0.0625,-0.140626 z M 3.375,12.888672 c 0.010552,0.0258 0.018328,0.05255 0.029297,0.07813 A 5,5 0 0 1 3.375,12.888672 Z m 0.4511719,0.853516 c 0.01596,0.02424 0.028554,0.05028 0.044922,0.07422 a 5,5 0 0 1 -0.044922,-0.07422 z m 8.3417971,0.01172 a 5,5 0 0 1 -0.06836,0.09961 c 0.02314,-0.03317 0.04601,-0.06586 0.06836,-0.09961 z M 4.4296875,14.49219 c 0.019054,0.01948 0.03532,0.04138 0.054687,0.06055 a 5,5 0 0 1 -0.054687,-0.06055 z m 7.1269535,0.01758 a 5,5 0 0 1 -0.06836,0.06445 c 0.02248,-0.02194 0.04629,-0.04209 0.06836,-0.06445 z m -6.4101566,0.589843 c 0.033167,0.02314 0.065861,0.04601 0.099609,0.06836 a 5,5 0 0 1 -0.099609,-0.06836 z m 5.6660156,0.0332 a 5,5 0 0 1 -0.0625,0.03711 c 0.02025,-0.01339 0.04246,-0.02344 0.0625,-0.03711 z m -4.8359375,0.431641 c 0.0471,0.02093 0.092771,0.04299 0.140625,0.0625 a 5,5 0 0 1 -0.140625,-0.0625 z m 3.9902344,0.03125 a 5,5 0 0 1 -0.080078,0.0293 c 0.026372,-0.01078 0.053933,-0.01808 0.080078,-0.0293 z M 6.9199219,15.875 c 0.060769,0.01342 0.1200632,0.02983 0.1816406,0.04102 A 5,5 0 0 1 6.9199219,15.875 Z m 2.0996093,0.01953 A 5,5 0 0 1 8.625,15.957031 c 0.1330105,-0.01661 0.2649791,-0.03565 0.3945312,-0.0625 z m -1.7109374,0.05274 c 0.090649,0.01256 0.1813026,0.02361 0.2734374,0.03125 A 5,5 0 0 1 7.3085938,15.947266 Z M 7.84375,15.992188 C 7.8960571,15.993806 7.9473001,16 8,16 8.032921,16 8.064887,15.9967 8.097656,15.9961 A 5,5 0 0 1 7.84375,15.9922 Z"
           transform="translate(41.000198,237.125)"
           id="path12686"
           inkscape:connector-curvature="0" />
      </g>
      <path
         style="opacity:0.66000001;fill:url(#linearGradient10776);fill-opacity:1;stroke:none;stroke-width:1.2598815;stroke-miterlimit:4;stroke-dasharray:none;stroke-opacity:1"
         id="path4390-0"
         d="m 12.996966,1047.188 a 5,5 0 0 1 -4.8221745,5.1711 5,5 0 0 1 -5.1717128,-4.8215 5,5 0 0 1 4.8208443,-5.1723 5,5 0 0 1 5.172953,4.8202 L 8,1047.3622 Z"
         inkscape:connector-curvature="0" />
      <path
         style="opacity:1;fill:url(#linearGradient10770);fill-opacity:1;stroke:none;stroke-width:1.00790524;stroke-miterlimit:4;stroke-dasharray:none;stroke-opacity:1"
         id="path4390-4"
         d="m 11.997573,1047.2229 a 4,4 0 0 1 -3.8577398,4.1368 4,4 0 0 1 -4.1373703,-3.8572 4,4 0 0 1 3.8566755,-4.1378 4,4 0 0 1 4.1383626,3.8561 L 8,1047.3622 Z"
         inkscape:connector-curvature="0" />
    </g>
  </g>
</svg>
