<?xml version="1.0" encoding="UTF-8" standalone="no"?>
<svg
   xmlns:dc="http://purl.org/dc/elements/1.1/"
   xmlns:cc="http://creativecommons.org/ns#"
   xmlns:rdf="http://www.w3.org/1999/02/22-rdf-syntax-ns#"
   xmlns:svg="http://www.w3.org/2000/svg"
   xmlns="http://www.w3.org/2000/svg"
   xmlns:sodipodi="http://sodipodi.sourceforge.net/DTD/sodipodi-0.dtd"
   xmlns:inkscape="http://www.inkscape.org/namespaces/inkscape"
   height="16"
   viewBox="0 0 21.333333 21.333333"
   width="16"
   version="1.1"
   id="svg6"
   style="fill:#000000"
   inkscape:version="0.92pre1 unknown"
   sodipodi:docname="gimp-yes.svg">
  <metadata
     id="metadata12">
    <rdf:RDF>
      <cc:Work
         rdf:about="">
        <dc:format>image/svg+xml</dc:format>
        <dc:type
           rdf:resource="http://purl.org/dc/dcmitype/StillImage" />
        <dc:title />
      </cc:Work>
    </rdf:RDF>
  </metadata>
  <defs
     id="defs10" />
  <sodipodi:namedview
     pagecolor="#ffffff"
     bordercolor="#666666"
     borderopacity="1"
     objecttolerance="10"
     gridtolerance="10"
     guidetolerance="10"
     inkscape:pageopacity="0"
     inkscape:pageshadow="2"
     inkscape:window-width="1920"
     inkscape:window-height="1016"
     id="namedview8"
     showgrid="true"
     inkscape:zoom="27.085794"
     inkscape:cx="10.531624"
     inkscape:cy="6.2458063"
     inkscape:window-x="0"
     inkscape:window-y="27"
     inkscape:window-maximized="1"
     inkscape:current-layer="svg6">
    <inkscape:grid
       type="xygrid"
       id="grid4236" />
  </sodipodi:namedview>
  <g
     id="g4261">
    <path
       sodipodi:nodetypes="ccccccsccccccssssccsccc"
       style="fill:#bebebe;fill-opacity:1;stroke-width:0.88989842"
       inkscape:connector-curvature="0"
       id="path4"
       d="M 1.3333333,20 H 3.9999999 V 7.9999999 H 1.3333333 Z M 20,9.7333331 C 20,8.7066668 19.236074,8.0232361 18.30303,7.9999999 h -5.353939 l 0.80606,-4.3986665 0.02545,-0.2986666 c 0,-0.3826667 -0.144243,-0.7373335 -0.373334,-0.9893335 L 12,1.3333333 6.9999999,7.4840001 c -0.3139394,0.336 -0.3333333,0.8026667 -0.3333333,1.316 V 18.133333 C 6.6666666,19.16 7.1878788,20 8.1212121,20 h 7.6363629 c 0.704243,0 1.306667,-0.466667 1.561213,-1.138667 l 2.562424,-6.58 C 19.957572,12.066667 20,11.842667 20,11.6 V 9.8173331 l -0.0085,-0.0093 z" />
  </g>
</svg>
