<?xml version="1.0" encoding="UTF-8" standalone="no"?>
<svg
   xmlns:dc="http://purl.org/dc/elements/1.1/"
   xmlns:cc="http://creativecommons.org/ns#"
   xmlns:rdf="http://www.w3.org/1999/02/22-rdf-syntax-ns#"
   xmlns:svg="http://www.w3.org/2000/svg"
   xmlns="http://www.w3.org/2000/svg"
   xmlns:sodipodi="http://sodipodi.sourceforge.net/DTD/sodipodi-0.dtd"
   xmlns:inkscape="http://www.inkscape.org/namespaces/inkscape"
   height="16"
   viewBox="0 0 21.333333 21.333333"
   width="16"
   version="1.1"
   id="svg6"
   style="fill:#000000"
   inkscape:version="0.92pre1 unknown"
   sodipodi:docname="gimp-no.svg">
  <metadata
     id="metadata12">
    <rdf:RDF>
      <cc:Work
         rdf:about="">
        <dc:format>image/svg+xml</dc:format>
        <dc:type
           rdf:resource="http://purl.org/dc/dcmitype/StillImage" />
        <dc:title />
      </cc:Work>
    </rdf:RDF>
  </metadata>
  <defs
     id="defs10" />
  <sodipodi:namedview
     pagecolor="#ffffff"
     bordercolor="#666666"
     borderopacity="1"
     objecttolerance="10"
     gridtolerance="10"
     guidetolerance="10"
     inkscape:pageopacity="0"
     inkscape:pageshadow="2"
     inkscape:window-width="1920"
     inkscape:window-height="1016"
     id="namedview8"
     showgrid="true"
     inkscape:zoom="43.151177"
     inkscape:cx="5.2073724"
     inkscape:cy="9.9636057"
     inkscape:window-x="0"
     inkscape:window-y="27"
     inkscape:window-maximized="1"
     inkscape:current-layer="svg6">
    <inkscape:grid
       type="xygrid"
       id="grid4236" />
  </sodipodi:namedview>
  <g
     id="g4261"
     transform="rotate(-180,10.666666,10.666667)">
    <path
       sodipodi:nodetypes="ccccccsccccccssssccsccc"
       style="fill:#bebebe;fill-opacity:1;stroke-width:0.88989842"
       inkscape:connector-curvature="0"
       id="path4"
       d="m 1.3333333,20 h 2.6666666 l 0,-12.0000001 -2.6666666,0 z M 20,9.7333331 C 20,8.7066668 19.236074,8.0232373 18.30303,8.0000009 l -5.353939,0 0.80606,-4.3986675 0.02545,-0.2986666 c 0,-0.3826667 -0.144243,-0.7373335 -0.373334,-0.9893335 l -0.899389,-0.98 -5.5078781,6.1506668 c -0.3139394,0.336 -0.3333333,0.8026667 -0.3333333,1.316 l 0,9.3333329 C 6.6666666,19.16 7.1878788,20 8.1212121,20 l 7.6363629,0 c 0.704243,0 1.306667,-0.466667 1.561213,-1.138667 l 2.562424,-6.58 C 19.957572,12.066667 20,11.842667 20,11.6 V 9.8173331 l -0.0085,-0.0093 z" />
  </g>
</svg>
