<?xml version="1.0" encoding="UTF-8" standalone="no"?>
<!-- Created with Inkscape (http://www.inkscape.org/) -->

<svg
   xmlns:dc="http://purl.org/dc/elements/1.1/"
   xmlns:cc="http://creativecommons.org/ns#"
   xmlns:rdf="http://www.w3.org/1999/02/22-rdf-syntax-ns#"
   xmlns:svg="http://www.w3.org/2000/svg"
   xmlns="http://www.w3.org/2000/svg"
   xmlns:sodipodi="http://sodipodi.sourceforge.net/DTD/sodipodi-0.dtd"
   xmlns:inkscape="http://www.inkscape.org/namespaces/inkscape"
   id="svg7384"
   height="16"
   width="16"
   version="1.1"
   sodipodi:docname="gimp-floppy.svg"
   viewBox="0 0 16 16"
   inkscape:version="0.92pre1 unknown">
  <defs
     id="defs10" />
  <sodipodi:namedview
     pagecolor="#ffffff"
     bordercolor="#666666"
     borderopacity="1"
     objecttolerance="10"
     gridtolerance="10"
     guidetolerance="10"
     inkscape:pageopacity="0"
     inkscape:pageshadow="2"
     inkscape:window-width="1920"
     inkscape:window-height="1016"
     id="namedview8"
     showgrid="true"
     inkscape:zoom="17.518275"
     inkscape:cx="8"
     inkscape:cy="8.0866284"
     inkscape:window-x="0"
     inkscape:window-y="27"
     inkscape:window-maximized="1"
     inkscape:current-layer="svg7384">
    <inkscape:grid
       type="xygrid"
       id="grid4233" />
  </sodipodi:namedview>
  <metadata
     id="metadata90">
    <rdf:RDF>
      <cc:Work
         rdf:about="">
        <dc:format>image/svg+xml</dc:format>
        <dc:type
           rdf:resource="http://purl.org/dc/dcmitype/StillImage" />
        <dc:title>Gnome Symbolic Icon Theme</dc:title>
      </cc:Work>
    </rdf:RDF>
  </metadata>
  <g
     id="g4245">
    <g
       transform="translate(-121.0012,-467)"
       id="layer10">
      <path
         inkscape:connector-curvature="0"
         d="m 123.97,468.0008 c -1.0753,0 -1.9688,0.89336 -1.9688,1.96869 v 9.03068 0.43748 l 0.3125,0.28123 1.6875,1.6874 v -11.40534 h 10 v 9.99942 h -2 v 1.99989 h 2.0312 c 1.0753,0 1.9688,-0.89336 1.9688,-1.96869 v -10.06142 c 0,-1.07994 -0.89,-1.96989 -1.97,-1.96989 z"
         style="color:#bebebe;text-indent:0;text-transform:none;fill:#bebebe;stroke-width:0.99997145"
         id="rect2860" />
      <path
         inkscape:connector-curvature="0"
         d="m 126,476 c -0.554,0 -1,0.446 -1,1 v 4 c 0,0.554 0.446,1 1,1 h 4 c 0.554,0 1,-0.446 1,-1 v -4 c 0,-0.554 -0.446,-1 -1,-1 z m 0,1 h 2 v 4 h -2 z"
         style="color:#bebebe;fill:#bebebe"
         id="rect2880" />
    </g>
  </g>
</svg>
