/* XPM */
static char * amb1_xpm[] = {
"32 32 53 1",
" 	c None",
".	c #861786178617",
"X	c #861782078617",
"o	c #69A66DB669A6",
"O	c #8E388E388E38",
"+	c #B6DAB2CAB6DA",
"@	c #BEFBBAEABEFB",
"#	c #AEBAAEBAAEBA",
"$	c #9E799E799E79",
"%	c #8E388A288E38",
"&	c #618565956185",
"*	c #30C234D330C2",
"=	c #A699A699A699",
"-	c #CF3CCF3CCF3C",
";	c #D75CD34CD75C",
":	c #C71BC30BC71B",
">	c #DF7DDF7DDF7D",
",	c #D75CD75CD75C",
"<	c #CF3CCB2BCF3C",
"1	c #AEBAAAAAAEBA",
"2	c #965896589658",
"3	c #79E779E779E7",
"4	c #514455555144",
"5	c #18611C711861",
"6	c #E79DE38DE79D",
"7	c #E79DE79DE79D",
"8	c #DF7DDB6CDF7D",
"9	c #BEFBBEFBBEFB",
"0	c #9E799A699E79",
"q	c #79E77DF779E7",
"w	c #618561856185",
"e	c #38E338E338E3",
"r	c #000004100000",
"t	c #EFBEEFBEEFBE",
"y	c #FFFFFBEEFFFF",
"u	c #410341034103",
"i	c #08200C300820",
"p	c #FFFFFFFFFFFF",
"a	c #B6DAB6DAB6DA",
"s	c #965892489658",
"d	c #104014511040",
"f	c #71C675D671C6",
"g	c #596559655965",
"h	c #104010401040",
"j	c #000000000000",
"k	c #514451445144",
"l	c #30C230C230C2",
"z	c #59655D755965",
"x	c #410345144103",
"c	c #208124922081",
"v	c #49244D344924",
"b	c #208120812081",
"n	c #082008200820",
"                                ",
"                                ",
"                                ",
"                                ",
"                                ",
"                                ",
"                                ",
"                                ",
"               .Xo              ",
"            O+@@#$%&*           ",
"           =-;;-:+$.&*          ",
"          =;>>>,<@12345         ",
"         O->6778-9#0qwer        ",
"         +;>7tyt-910X&ui        ",
"         @;>7ypy-a=sqwud        ",
"        .@-,8ty6:#$Ofgehj       ",
"        X#:<---:+=2Xoklij       ",
"        o$+@99a#=2.fzxcrj       ",
"         %$1#1=$2.f&v*dj        ",
"         &.200sOXf&kebrj        ",
"         *&3qXqfozvecnjj        ",
"          *4w&wgkx*bnjj         ",
"           5euuelcdrjj          ",
"            ridhirjjj           ",
"               jjj              ",
"                                ",
"                                ",
"                                ",
"                                ",
"                                ",
"                                ",
"                                "};
