/* XPM */
static char * diffref1_xpm[] = {
"32 32 11 1",
" 	c None",
".	c #49244D344924",
"X	c #410345144103",
"o	c #492449244924",
"O	c #514451445144",
"+	c #596559655965",
"@	c #79E779E779E7",
"#	c #69A669A669A6",
"$	c #BEFBBAEABEFB",
"%	c #8E388A288E38",
"&	c #514455555144",
"                                ",
"                                ",
"                                ",
"                                ",
"                                ",
"                                ",
"                                ",
"                                ",
"               ...              ",
"            Xo.....oX           ",
"           X.........X          ",
"          X...........X         ",
"         X....OO.......X        ",
"         o...+@#O......o        ",
"         ...O@$%&.......        ",
"        ....O#%#O........       ",
"        .....O&O.........       ",
"        .................       ",
"         ...............        ",
"         o.............o        ",
"         X.............X        ",
"          X...........X         ",
"           X.........X          ",
"            Xo.....oX           ",
"               ...              ",
"                                ",
"                                ",
"                                ",
"                                ",
"                                ",
"                                ",
"                                "};
