/* XPM */
static char * high2_xpm[] = {
"32 32 43 1",
" 	c None",
".	c #A699A699A699",
"X	c #A699A289A699",
"o	c #965896589658",
"O	c #BEFBBEFBBEFB",
"+	c #CF3CCB2BCF3C",
"@	c #C71BC71BC71B",
"#	c #C71BC30BC71B",
"$	c #B6DAB6DAB6DA",
"%	c #8E388E388E38",
"&	c #69A669A669A6",
"*	c #D75CD75CD75C",
"=	c #DF7DDB6CDF7D",
"-	c #CF3CCF3CCF3C",
";	c #965892489658",
":	c #DF7DDF7DDF7D",
">	c #E79DE38DE79D",
",	c #D75CD34CD75C",
"<	c #AEBAAEBAAEBA",
"1	c #9E799E799E79",
"2	c #861786178617",
"3	c #596559655965",
"4	c #E79DE79DE79D",
"5	c #B6DAB2CAB6DA",
"6	c #71C671C671C6",
"7	c #492449244924",
"8	c #F7DEF7DEF7DE",
"9	c #71C675D671C6",
"0	c #514455555144",
"q	c #FFFFFFFFFFFF",
"w	c #BEFBBAEABEFB",
"e	c #F7DEF3CEF7DE",
"r	c #AEBAAAAAAEBA",
"t	c #9E799A699E79",
"y	c #8E388A288E38",
"u	c #49244D344924",
"i	c #861782078617",
"p	c #69A66DB669A6",
"a	c #79E779E779E7",
"s	c #618565956185",
"d	c #514451445144",
"f	c #618561856185",
"g	c #410345144103",
"                                ",
"                                ",
"                                ",
"                                ",
"                                ",
"                                ",
"                                ",
"                                ",
"               .Xo              ",
"            .O+@#$.%&           ",
"           $*==*-#$.;&          ",
"          $=:>:=,+O<123         ",
"         .*:>4>=*+O5X%67        ",
"         O=>4>8:,+O5X%90        ",
"         +=:>8qq-@w<1%93        ",
"        .@*==:e=+#$rty93u       ",
"        X#-,*,*-#w<Xoip0u       ",
"        o$#+++@#w5.tyasdu       ",
"         .$OOOw$<.1%ip3u        ",
"         %.<55<rXt%i9fd7        ",
"         &;1XX1toyi9sdug        ",
"          &2%%%yiapfdug         ",
"           36999ps3dug          ",
"            70330du7g           ",
"               uuu              ",
"                                ",
"                                ",
"                                ",
"                                ",
"                                ",
"                                ",
"                                "};
