<?xml version="1.0" encoding="UTF-8" standalone="no"?>
<!-- Created with Inkscape (http://www.inkscape.org/) -->

<svg
   xmlns:osb="http://www.openswatchbook.org/uri/2009/osb"
   xmlns:dc="http://purl.org/dc/elements/1.1/"
   xmlns:cc="http://creativecommons.org/ns#"
   xmlns:rdf="http://www.w3.org/1999/02/22-rdf-syntax-ns#"
   xmlns:svg="http://www.w3.org/2000/svg"
   xmlns="http://www.w3.org/2000/svg"
   xmlns:sodipodi="http://sodipodi.sourceforge.net/DTD/sodipodi-0.dtd"
   xmlns:inkscape="http://www.inkscape.org/namespaces/inkscape"
   width="22"
   height="22"
   viewBox="0 0 22 22"
   id="svg30571"
   version="1.1"
   inkscape:version="0.91 r13725"
   sodipodi:docname="gimp-prefs-folders-icon-themes.svg"
   inkscape:export-filename="/home/klaus/Bilder/icons/Symbolic/hicolor/22x22/apps/gimp-prefs-folder-icon-themes.png"
   inkscape:export-xdpi="90"
   inkscape:export-ydpi="90">
  <defs
     id="defs30573">
    <linearGradient
       id="linearGradient19282"
       osb:paint="solid"
       gradientTransform="matrix(1.2178615,0,0,1.043881,356.69172,1794.4958)">
      <stop
         style="stop-color:#666666;stop-opacity:1;"
         offset="0"
         id="stop19284" />
    </linearGradient>
  </defs>
  <sodipodi:namedview
     id="base"
     pagecolor="#ffffff"
     bordercolor="#666666"
     borderopacity="1.0"
     inkscape:pageopacity="0.0"
     inkscape:pageshadow="2"
     inkscape:zoom="22.627417"
     inkscape:cx="16.665903"
     inkscape:cy="9.6122184"
     inkscape:document-units="px"
     inkscape:current-layer="svg30571"
     showgrid="false"
     units="px"
     inkscape:snap-page="true"
     inkscape:snap-bbox="true"
     inkscape:bbox-paths="true"
     inkscape:bbox-nodes="true"
     inkscape:snap-bbox-edge-midpoints="true"
     inkscape:snap-bbox-midpoints="true"
     inkscape:object-paths="true"
     inkscape:snap-intersection-paths="true"
     inkscape:object-nodes="true"
     inkscape:snap-smooth-nodes="true"
     inkscape:snap-midpoints="true"
     inkscape:snap-object-midpoints="true"
     inkscape:snap-center="true"
     inkscape:snap-text-baseline="true"
     showborder="false"
     inkscape:window-width="1920"
     inkscape:window-height="1016"
     inkscape:window-x="0"
     inkscape:window-y="27"
     inkscape:window-maximized="1" />
  <metadata
     id="metadata30576">
    <rdf:RDF>
      <cc:Work
         rdf:about="">
        <dc:format>image/svg+xml</dc:format>
        <dc:type
           rdf:resource="http://purl.org/dc/dcmitype/StillImage" />
        <dc:title />
        <dc:creator>
          <cc:Agent>
            <dc:title>Klaus Staedtler</dc:title>
          </cc:Agent>
        </dc:creator>
      </cc:Work>
    </rdf:RDF>
  </metadata>
  <g
     inkscape:label="Layer 1"
     inkscape:groupmode="layer"
     id="layer1"
     transform="translate(0,-1030.3622)">
    <g
       transform="matrix(1.375,0,0,1.375,-20.625,1002.8622)"
       id="g15650"
       inkscape:label="preferences-folders-tools">
      <g
         transform="translate(0,60)"
         id="g15572"
         inkscape:label="preferences-folders">
        <path
           style="display:inline;fill:#505050;fill-opacity:1;stroke:none"
           d="M 0.73046875 0 C 0.332915 0 1.4802974e-16 0.332915 0 0.73046875 L 0 21.269531 C 0 21.679969 0.31988 22 0.73046875 22 L 21.269531 22 C 21.680106 22 22 21.680106 22 21.269531 L 22 7.6054688 C 22 7.2079561 21.667085 6.875 21.269531 6.875 L 4.125 6.875 L 4.125 18.5625 C 4.125 18.943375 3.818375 19.25 3.4375 19.25 C 3.056625 19.25 2.75 18.943375 2.75 18.5625 L 2.75 6.1875 C 2.75 5.806625 3.056625 5.5 3.4375 5.5 L 7.5195312 5.5 L 19.25 5.5 L 19.25 3.5664062 C 19.25 3.1165062 18.883342 2.75 18.433594 2.75 L 8.25 2.75 L 8.25 0.73046875 C 8.25 0.3328875 7.9170851 1.4802974e-16 7.5195312 0 L 0.73046875 0 z M 14.759766 9.1601562 C 17.132198 9.0964396 19.464419 10.297689 20.740234 12.492188 C 19.810172 10.902965 17.768767 10.361258 16.171875 11.283203 C 14.569174 12.2085 14.019942 14.256674 14.945312 15.859375 C 15.870609 17.462076 15.321451 19.512204 13.71875 20.4375 C 12.116049 21.362796 10.067949 20.813645 9.1425781 19.210938 C 7.2919107 16.005536 8.3903021 11.907085 11.595703 10.056641 C 12.595576 9.4793542 13.681387 9.1891183 14.759766 9.1601562 z M 17.710938 13.076172 C 18.142901 13.022569 18.585082 13.224321 18.816406 13.625 C 19.124846 14.159238 18.940488 14.843912 18.40625 15.152344 C 17.872012 15.460791 17.189292 15.276426 16.880859 14.742188 C 16.57242 14.207948 16.754824 13.525229 17.289062 13.216797 C 17.422623 13.139685 17.566949 13.09404 17.710938 13.076172 z M 11.90625 16.425781 C 11.762264 16.443648 11.61988 16.491249 11.486328 16.568359 C 10.952097 16.876799 10.767732 17.559541 11.076172 18.09375 C 11.384611 18.627988 12.067354 18.810393 12.601562 18.501953 C 13.135794 18.193514 13.320158 17.510771 13.011719 16.976562 C 12.780389 16.575889 12.338208 16.372181 11.90625 16.425781 z "
           transform="matrix(0.72727273,0,0,0.72727273,15,-40)"
           id="path15574" />
        <rect
           y="-40"
           x="15"
           height="16"
           width="16"
           id="rect15576"
           style="color:#bebebe;display:inline;overflow:visible;visibility:visible;fill:none;stroke:none;stroke-width:2;marker:none;enable-background:accumulate" />
      </g>
    </g>
  </g>
</svg>
