<?xml version="1.0" encoding="UTF-8" standalone="no"?>
<!-- Created with Inkscape (http://www.inkscape.org/) -->

<svg
   xmlns:osb="http://www.openswatchbook.org/uri/2009/osb"
   xmlns:dc="http://purl.org/dc/elements/1.1/"
   xmlns:cc="http://creativecommons.org/ns#"
   xmlns:rdf="http://www.w3.org/1999/02/22-rdf-syntax-ns#"
   xmlns:svg="http://www.w3.org/2000/svg"
   xmlns="http://www.w3.org/2000/svg"
   xmlns:sodipodi="http://sodipodi.sourceforge.net/DTD/sodipodi-0.dtd"
   xmlns:inkscape="http://www.inkscape.org/namespaces/inkscape"
   width="22"
   height="22"
   viewBox="0 0 22 22"
   id="svg30571"
   version="1.1"
   inkscape:version="0.91 r13725"
   sodipodi:docname="gimp-prefs-folders-themes.svg"
   inkscape:export-filename="/home/klaus/Bilder/icons/Symbolic/hicolor/16x16/apps/gimp-prefs-folders-themes.png"
   inkscape:export-xdpi="65.454544"
   inkscape:export-ydpi="65.454544">
  <defs
     id="defs30573">
    <linearGradient
       id="linearGradient19282"
       osb:paint="solid"
       gradientTransform="matrix(1.2178615,0,0,1.043881,356.69172,1794.4958)">
      <stop
         style="stop-color:#666666;stop-opacity:1;"
         offset="0"
         id="stop19284" />
    </linearGradient>
  </defs>
  <sodipodi:namedview
     id="base"
     pagecolor="#ffffff"
     bordercolor="#666666"
     borderopacity="1.0"
     inkscape:pageopacity="0.0"
     inkscape:pageshadow="2"
     inkscape:zoom="22.627417"
     inkscape:cx="-0.32530589"
     inkscape:cy="15.209619"
     inkscape:document-units="px"
     inkscape:current-layer="layer1"
     showgrid="false"
     units="px"
     inkscape:snap-page="true"
     inkscape:snap-bbox="true"
     inkscape:bbox-paths="true"
     inkscape:bbox-nodes="true"
     inkscape:snap-bbox-edge-midpoints="true"
     inkscape:snap-bbox-midpoints="true"
     inkscape:object-paths="true"
     inkscape:snap-intersection-paths="true"
     inkscape:object-nodes="true"
     inkscape:snap-smooth-nodes="true"
     inkscape:snap-midpoints="true"
     inkscape:snap-object-midpoints="true"
     inkscape:snap-center="true"
     inkscape:snap-text-baseline="true"
     showborder="false"
     inkscape:window-width="1920"
     inkscape:window-height="1016"
     inkscape:window-x="0"
     inkscape:window-y="27"
     inkscape:window-maximized="1" />
  <metadata
     id="metadata30576">
    <rdf:RDF>
      <cc:Work
         rdf:about="">
        <dc:format>image/svg+xml</dc:format>
        <dc:type
           rdf:resource="http://purl.org/dc/dcmitype/StillImage" />
        <dc:title></dc:title>
        <dc:creator>
          <cc:Agent>
            <dc:title>Klaus Staedtler</dc:title>
          </cc:Agent>
        </dc:creator>
      </cc:Work>
    </rdf:RDF>
  </metadata>
  <g
     inkscape:label="Layer 1"
     inkscape:groupmode="layer"
     id="layer1"
     transform="translate(0,-1030.3622)">
    <rect
       y="999.4873"
       x="-65.730461"
       height="21.999998"
       width="21.999998"
       id="rect7151"
       style="color:#bebebe;display:inline;overflow:visible;visibility:visible;fill:none;stroke:none;stroke-width:2;marker:none;enable-background:accumulate" />
    <g
       inkscape:label="preferences-folders-dynamics"
       id="g7536"
       transform="matrix(1.375,0,0,1.375,-75.625,1002.8622)">
      <g
         inkscape:label="preferences-folders"
         id="g7539"
         transform="translate(40,60)">
        <rect
           style="color:#bebebe;display:inline;overflow:visible;visibility:visible;fill:none;stroke:none;stroke-width:2;marker:none;enable-background:accumulate"
           id="rect7543"
           width="16"
           height="16"
           x="15"
           y="-40" />
      </g>
    </g>
    <rect
       y="1030.3622"
       x="0"
       height="22"
       width="22"
       id="rect14414"
       style="color:#bebebe;display:inline;overflow:visible;visibility:visible;fill:none;stroke:none;stroke-width:2;marker:none;enable-background:accumulate" />
    <g
       transform="matrix(1.375,0,0,1.375,-130.625,1002.8622)"
       id="g7626"
       inkscape:label="preferences-folders-modules">
      <rect
         style="color:#bebebe;display:inline;overflow:visible;visibility:visible;fill:none;stroke:none;stroke-width:2;marker:none;enable-background:accumulate"
         id="rect7601"
         width="16"
         height="16"
         x="95"
         y="20" />
    </g>
    <g
       transform="matrix(1.375,0,0,1.375,-185.625,1085.3622)"
       id="g29129"
       inkscape:label="folders-plug-ins">
      <g
         transform="translate(120,0)"
         id="g29114"
         inkscape:label="preferences-folders">
        <rect
           y="-40"
           x="15"
           height="16"
           width="16"
           id="rect29118"
           style="color:#bebebe;display:inline;overflow:visible;visibility:visible;fill:none;stroke:none;stroke-width:2;marker:none;enable-background:accumulate" />
      </g>
    </g>
    <g
       transform="matrix(1.375,0,0,1.375,-158.125,1085.3622)"
       id="g29090"
       inkscape:label="folders-scripts">
      <g
         transform="translate(100,0)"
         id="g29076"
         inkscape:label="preferences-folders">
        <rect
           y="-40"
           x="15"
           height="16"
           width="16"
           id="rect29080"
           style="color:#bebebe;display:inline;overflow:visible;visibility:visible;fill:none;stroke:none;stroke-width:2;marker:none;enable-background:accumulate" />
      </g>
    </g>
    <g
       transform="matrix(1.375,0,0,1.375,-20.625,1002.8622)"
       id="g15650"
       inkscape:label="preferences-folders-tools">
      <g
         transform="translate(0,60)"
         id="g15572"
         inkscape:label="preferences-folders">
        <path
           style="display:inline;fill:#505050;fill-opacity:1;stroke:none"
           d="M 0.73046875 0 C 0.332915 0 2.9605947e-16 0.332915 0 0.73046875 L 0 21.269531 C 0 21.679969 0.31988 22 0.73046875 22 L 21.269531 22 C 21.680106 22 22 21.680106 22 21.269531 L 22 7.6054688 C 22 7.207956 21.667085 6.875 21.269531 6.875 L 4.125 6.875 L 4.125 18.5625 C 4.125 18.943375 3.818375 19.25 3.4375 19.25 C 3.056625 19.25 2.75 18.943375 2.75 18.5625 L 2.75 6.1875 C 2.75 5.806625 3.056625 5.5 3.4375 5.5 L 7.5195312 5.5 L 19.25 5.5 L 19.25 3.5664062 C 19.25 3.1165062 18.883342 2.75 18.433594 2.75 L 8.25 2.75 L 8.25 0.73046875 C 8.25 0.3328875 7.9170852 2.9605947e-16 7.5195312 0 L 0.73046875 0 z M 9.1679688 8.4023438 L 12.832031 8.4023438 C 13.267326 8.4023438 13.625831 8.6126938 13.625 8.8671875 L 13.603516 12.662109 L 16.113281 10.207031 C 16.157463 10.163719 16.213177 10.136462 16.277344 10.125 C 16.469842 10.090577 16.739498 10.198062 16.960938 10.425781 L 19.449219 12.996094 C 19.744435 13.29978 19.845261 13.670911 19.667969 13.84375 L 17.154297 16.277344 L 21.007812 16.277344 C 21.262306 16.277344 21.472656 16.607683 21.472656 17.042969 L 21.472656 20.707031 C 21.472656 21.142326 21.262306 21.500831 21.007812 21.5 L 16.085938 21.472656 L 13.84375 21.5 L 10.753906 21.5 C 10.232865 21.5 9.7809302 21.043559 9.5058594 20.361328 C 8.8408043 20.086147 8.4023438 19.639237 8.4023438 19.121094 L 8.4023438 8.8671875 C 8.4023438 8.6126938 8.7326823 8.4023438 9.1679688 8.4023438 z M 9.25 9.25 L 9.25 11 L 12.75 11 L 12.75 9.25 L 9.25 9.25 z M 16.441406 11.054688 L 15.210938 12.257812 L 17.589844 14.691406 L 18.792969 13.515625 L 16.441406 11.054688 z M 9.25 11.875 L 9.25 13.625 L 12.75 13.625 L 12.75 11.875 L 9.25 11.875 z M 14.609375 12.859375 L 13.597656 13.816406 L 13.603516 14.259766 L 15.757812 16.496094 L 16.988281 15.292969 L 14.609375 12.859375 z M 9.25 14.5 L 9.25 16.25 L 12.75 16.25 L 12.75 14.5 L 9.25 14.5 z M 13.611328 14.847656 L 13.625 16.03125 L 13.625 17.945312 L 13.953125 18.273438 L 15.15625 17.097656 L 13.625 15.511719 L 13.611328 14.847656 z M 16.277344 17.125 L 16.25 17.152344 L 16.25 20.625 L 18 20.625 L 18 17.125 L 16.279297 17.125 L 16.277344 17.125 z M 18.875 17.125 L 18.875 20.625 L 20.625 20.625 L 20.625 17.125 L 18.875 17.125 z M 16.222656 17.179688 L 14.691406 18.738281 L 13.625 19.777344 L 13.625 20.625 L 15.375 20.625 L 15.375 18.054688 L 16.222656 17.179688 z M 11 18 C 10.516746 18 10.125 18.391746 10.125 18.875 C 10.125 19.358254 10.516746 19.75 11 19.75 C 11.483254 19.75 11.875 19.358254 11.875 18.875 C 11.875 18.391746 11.483254 18 11 18 z M 10.349609 20.601562 C 10.554607 20.740476 10.760882 20.851847 10.964844 20.935547 C 10.761275 20.851594 10.553914 20.739478 10.349609 20.601562 z M 10.988281 20.943359 C 11.187499 21.023094 11.381854 21.07867 11.566406 21.101562 C 11.381781 21.077797 11.187457 21.023484 10.988281 20.943359 z M 12.310547 20.998047 C 12.275467 21.015943 12.236874 21.02733 12.199219 21.041016 C 12.236766 21.027169 12.275548 21.016049 12.310547 20.998047 z M 12.041016 21.087891 C 11.99842 21.096339 11.95499 21.103377 11.910156 21.107422 C 11.955085 21.103096 11.998332 21.096632 12.041016 21.087891 z M 11.582031 21.103516 C 11.638683 21.110071 11.691673 21.110409 11.746094 21.111328 C 11.691889 21.11011 11.638446 21.110307 11.582031 21.103516 z "
           transform="matrix(0.72727273,0,0,0.72727273,15,-40)"
           id="path15574" />
        <rect
           y="-40"
           x="15"
           height="16"
           width="16"
           id="rect15576"
           style="color:#bebebe;display:inline;overflow:visible;visibility:visible;fill:none;stroke:none;stroke-width:2;marker:none;enable-background:accumulate" />
      </g>
    </g>
    <g
       transform="matrix(0.875,0,0,0.875,-58.124956,1037.8622)"
       id="g14943"
       inkscape:label="preferences-theme">
      <g
         inkscape:label="preferences-theme"
         id="g13767"
         transform="translate(-146.0002,-543)">
        <rect
           style="fill:none;stroke:none"
           id="rect13610"
           width="16"
           height="16"
           x="-20"
           y="326"
           transform="translate(241.0002,217)" />
      </g>
    </g>
  </g>
</svg>
