<?xml version="1.0" encoding="UTF-8" standalone="no"?>
<!-- Created with Inkscape (http://www.inkscape.org/) -->

<svg
   xmlns:osb="http://www.openswatchbook.org/uri/2009/osb"
   xmlns:dc="http://purl.org/dc/elements/1.1/"
   xmlns:cc="http://creativecommons.org/ns#"
   xmlns:rdf="http://www.w3.org/1999/02/22-rdf-syntax-ns#"
   xmlns:svg="http://www.w3.org/2000/svg"
   xmlns="http://www.w3.org/2000/svg"
   xmlns:sodipodi="http://sodipodi.sourceforge.net/DTD/sodipodi-0.dtd"
   xmlns:inkscape="http://www.inkscape.org/namespaces/inkscape"
   width="22"
   height="22"
   viewBox="0 0 22 22"
   id="svg30571"
   version="1.1"
   inkscape:version="0.91 r13725"
   sodipodi:docname="gimp-prefs-folders-tool-plug-ins.svg"
   inkscape:export-filename="/home/klaus/Bilder/icons/Symbolic/hicolor/16x16/apps/gimp-prefs-folder-plugins.png"
   inkscape:export-xdpi="65.454544"
   inkscape:export-ydpi="65.454544">
  <defs
     id="defs30573">
    <linearGradient
       id="linearGradient19282"
       osb:paint="solid"
       gradientTransform="matrix(1.2178615,0,0,1.043881,356.69172,1794.4958)">
      <stop
         style="stop-color:#666666;stop-opacity:1;"
         offset="0"
         id="stop19284" />
    </linearGradient>
  </defs>
  <sodipodi:namedview
     id="base"
     pagecolor="#ffffff"
     bordercolor="#666666"
     borderopacity="1.0"
     inkscape:pageopacity="0.0"
     inkscape:pageshadow="2"
     inkscape:zoom="22.627417"
     inkscape:cx="18.314285"
     inkscape:cy="7.1650476"
     inkscape:document-units="px"
     inkscape:current-layer="layer1"
     showgrid="false"
     units="px"
     inkscape:snap-page="true"
     inkscape:snap-bbox="true"
     inkscape:bbox-paths="true"
     inkscape:bbox-nodes="true"
     inkscape:snap-bbox-edge-midpoints="true"
     inkscape:snap-bbox-midpoints="true"
     inkscape:object-paths="true"
     inkscape:snap-intersection-paths="true"
     inkscape:object-nodes="true"
     inkscape:snap-smooth-nodes="true"
     inkscape:snap-midpoints="true"
     inkscape:snap-object-midpoints="true"
     inkscape:snap-center="true"
     inkscape:snap-text-baseline="true"
     showborder="false"
     inkscape:window-width="1920"
     inkscape:window-height="1016"
     inkscape:window-x="0"
     inkscape:window-y="27"
     inkscape:window-maximized="1" />
  <metadata
     id="metadata30576">
    <rdf:RDF>
      <cc:Work
         rdf:about="">
        <dc:format>image/svg+xml</dc:format>
        <dc:type
           rdf:resource="http://purl.org/dc/dcmitype/StillImage" />
        <dc:title></dc:title>
        <dc:creator>
          <cc:Agent>
            <dc:title>Klaus Staedtler</dc:title>
          </cc:Agent>
        </dc:creator>
      </cc:Work>
    </rdf:RDF>
  </metadata>
  <g
     inkscape:label="Layer 1"
     inkscape:groupmode="layer"
     id="layer1"
     transform="translate(0,-1030.3622)">
    <rect
       y="999.4873"
       x="-65.730461"
       height="21.999998"
       width="21.999998"
       id="rect7151"
       style="color:#bebebe;display:inline;overflow:visible;visibility:visible;fill:none;stroke:none;stroke-width:2;marker:none;enable-background:accumulate" />
    <g
       inkscape:label="preferences-folders-dynamics"
       id="g7536"
       transform="matrix(1.375,0,0,1.375,-75.625,1002.8622)">
      <g
         inkscape:label="preferences-folders"
         id="g7539"
         transform="translate(40,60)">
        <rect
           style="color:#bebebe;display:inline;overflow:visible;visibility:visible;fill:none;stroke:none;stroke-width:2;marker:none;enable-background:accumulate"
           id="rect7543"
           width="16"
           height="16"
           x="15"
           y="-40" />
      </g>
    </g>
    <rect
       y="1030.3622"
       x="0"
       height="22"
       width="22"
       id="rect14414"
       style="color:#bebebe;display:inline;overflow:visible;visibility:visible;fill:none;stroke:none;stroke-width:2;marker:none;enable-background:accumulate" />
    <g
       transform="matrix(1.375,0,0,1.375,-130.625,1002.8622)"
       id="g7626"
       inkscape:label="preferences-folders-modules">
      <rect
         style="color:#bebebe;display:inline;overflow:visible;visibility:visible;fill:none;stroke:none;stroke-width:2;marker:none;enable-background:accumulate"
         id="rect7601"
         width="16"
         height="16"
         x="95"
         y="20" />
    </g>
    <g
       transform="matrix(1.375,0,0,1.375,-185.625,1085.3622)"
       id="g29129"
       inkscape:label="folders-plug-ins">
      <g
         transform="translate(120,0)"
         id="g29114"
         inkscape:label="preferences-folders">
        <rect
           y="-40"
           x="15"
           height="16"
           width="16"
           id="rect29118"
           style="color:#bebebe;display:inline;overflow:visible;visibility:visible;fill:none;stroke:none;stroke-width:2;marker:none;enable-background:accumulate" />
      </g>
    </g>
    <g
       transform="matrix(1.375,0,0,1.375,-158.125,1085.3622)"
       id="g29090"
       inkscape:label="folders-scripts">
      <g
         transform="translate(100,0)"
         id="g29076"
         inkscape:label="preferences-folders">
        <rect
           y="-40"
           x="15"
           height="16"
           width="16"
           id="rect29080"
           style="color:#bebebe;display:inline;overflow:visible;visibility:visible;fill:none;stroke:none;stroke-width:2;marker:none;enable-background:accumulate" />
      </g>
    </g>
    <g
       transform="matrix(1.375,0,0,1.375,-20.625,1002.8622)"
       id="g15650"
       inkscape:label="preferences-folders-tools">
      <g
         transform="translate(0,60)"
         id="g15572"
         inkscape:label="preferences-folders">
        <path
           style="display:inline;fill:#505050;fill-opacity:1;stroke:none"
           d="M 0.73046875 0 C 0.332915 0 2.9605947e-16 0.332915 0 0.73046875 L 0 21.269531 C 0 21.679969 0.31988 22 0.73046875 22 L 21.269531 22 C 21.680106 22 22 21.680106 22 21.269531 L 22 7.6054688 C 22 7.207956 21.667085 6.875 21.269531 6.875 L 4.125 6.875 L 4.125 18.5625 C 4.125 18.943375 3.818375 19.25 3.4375 19.25 C 3.056625 19.25 2.75 18.943375 2.75 18.5625 L 2.75 6.1875 C 2.75 5.806625 3.056625 5.5 3.4375 5.5 L 7.5195312 5.5 L 19.25 5.5 L 19.25 3.5664062 C 19.25 3.1165062 18.883342 2.75 18.433594 2.75 L 8.25 2.75 L 8.25 0.73046875 C 8.25 0.3328875 7.9170852 2.9605947e-16 7.5195312 0 L 0.73046875 0 z M 17 12.625 C 17.137906 12.625 17.275506 12.632031 17.410156 12.644531 L 17.664062 13.953125 C 17.873102 13.998962 18.078469 14.063054 18.269531 14.148438 L 18.875 13.5625 L 18.875 17 L 18.875 20.4375 L 18.269531 19.851562 C 18.078469 19.936946 17.873102 20.001062 17.664062 20.046875 L 17.410156 21.355469 C 17.275506 21.367906 17.137906 21.375 17 21.375 C 16.862094 21.375 16.724494 21.367969 16.589844 21.355469 L 16.335938 20.046875 C 16.126898 20.001038 15.921531 19.936946 15.730469 19.851562 L 14.773438 20.769531 C 14.530542 20.625712 14.319094 20.448231 14.109375 20.261719 L 14.675781 19.070312 C 14.536769 18.914694 14.410625 18.74375 14.304688 18.5625 L 12.996094 18.738281 C 12.885019 18.4828 12.803125 18.21555 12.742188 17.9375 L 13.894531 17.3125 C 13.883906 17.207444 13.875 17.107875 13.875 17 C 13.875 16.892125 13.883844 16.792556 13.894531 16.6875 L 12.742188 16.0625 C 12.803144 15.78445 12.885019 15.5172 12.996094 15.261719 L 14.304688 15.4375 C 14.410625 15.25625 14.536769 15.085306 14.675781 14.929688 L 14.109375 13.738281 C 14.319094 13.551769 14.530542 13.374287 14.773438 13.230469 L 15.730469 14.148438 C 15.921531 14.063054 16.126898 13.998938 16.335938 13.953125 L 16.589844 12.644531 C 16.724494 12.632094 16.862094 12.625 17 12.625 z M 18.875 17 C 18.875 15.964469 18.035531 15.125 17 15.125 C 15.964469 15.125 15.125 15.964469 15.125 17 C 15.125 18.035531 15.964469 18.875 17 18.875 C 18.035531 18.875 18.875 18.035531 18.875 17 z M 20.476562 12.625 L 21.003906 13.875 C 20.784163 14.225606 20.139106 14.210231 19.910156 13.875 L 20.476562 12.625 z M 19.734375 14.480469 C 19.906297 14.679957 20.153489 14.8125 20.4375 14.8125 C 20.721511 14.8125 20.968703 14.679957 21.140625 14.480469 L 21.375 15.125 L 21.375 18.875 C 20.914612 19.340806 19.933319 19.297675 19.5 18.875 L 19.5 15.125 L 19.734375 14.480469 z M 19.5 19.5 C 19.919831 19.909512 20.825519 20.023406 21.296875 19.597656 L 21.375 19.5 L 21.375 20.75 C 20.914619 21.215806 19.933331 21.172663 19.5 20.75 L 19.5 19.5 z "
           transform="matrix(0.72727273,0,0,0.72727273,15,-40)"
           id="path15574" />
        <rect
           y="-40"
           x="15"
           height="16"
           width="16"
           id="rect15576"
           style="color:#bebebe;display:inline;overflow:visible;visibility:visible;fill:none;stroke:none;stroke-width:2;marker:none;enable-background:accumulate" />
      </g>
    </g>
    <g
       transform="matrix(0.625,0,0,0.625,-9.875,1042.3622)"
       id="g14869"
       inkscape:label="preferences-tool-options">
      <rect
         y="0"
         x="35"
         height="16"
         width="16"
         id="rect6622"
         style="fill:none;stroke:none" />
    </g>
  </g>
</svg>
