<?xml version="1.0" encoding="UTF-8" standalone="no"?>
<!-- Created with Inkscape (http://www.inkscape.org/) -->

<svg
   xmlns:dc="http://purl.org/dc/elements/1.1/"
   xmlns:cc="http://creativecommons.org/ns#"
   xmlns:rdf="http://www.w3.org/1999/02/22-rdf-syntax-ns#"
   xmlns:svg="http://www.w3.org/2000/svg"
   xmlns="http://www.w3.org/2000/svg"
   xmlns:sodipodi="http://sodipodi.sourceforge.net/DTD/sodipodi-0.dtd"
   xmlns:inkscape="http://www.inkscape.org/namespaces/inkscape"
   width="16"
   height="16"
   viewBox="0 0 16 16.000001"
   id="svg10058"
   version="1.1"
   inkscape:version="0.91 r13725"
   sodipodi:docname="gimp-tool-mypaint-brush.svg"
   inkscape:export-filename="/home/alex/soft/graphics/gimp/gimp-2015-12-21/icons/Symbolic/16/gimp-tool-mypaint-brush.png"
   inkscape:export-xdpi="90"
   inkscape:export-ydpi="90">
  <defs
     id="defs10060">
    <clipPath
       id="clipPath23756"
       clipPathUnits="userSpaceOnUse">
      <rect
         ry="0"
         rx="0"
         y="876.36218"
         x="312"
         height="16"
         width="16"
         id="rect23758"
         style="color:#000000;display:inline;overflow:visible;visibility:visible;fill:#bebebe;fill-opacity:1;fill-rule:nonzero;stroke:none;stroke-width:2;marker:none;enable-background:accumulate" />
    </clipPath>
  </defs>
  <sodipodi:namedview
     id="base"
     pagecolor="#ffffff"
     bordercolor="#666666"
     borderopacity="1.0"
     inkscape:pageopacity="0.0"
     inkscape:pageshadow="2"
     inkscape:zoom="1"
     inkscape:cx="8.5100719"
     inkscape:cy="5.2442328"
     inkscape:document-units="px"
     inkscape:current-layer="layer1"
     showgrid="false"
     fit-margin-top="0"
     fit-margin-left="0"
     fit-margin-right="0"
     fit-margin-bottom="0"
     units="px"
     inkscape:snap-bbox="true"
     inkscape:bbox-paths="true"
     inkscape:bbox-nodes="true"
     inkscape:snap-bbox-edge-midpoints="true"
     inkscape:snap-bbox-midpoints="true"
     inkscape:object-paths="true"
     inkscape:snap-intersection-paths="true"
     inkscape:object-nodes="true"
     inkscape:snap-smooth-nodes="true"
     inkscape:snap-midpoints="true"
     showborder="false"
     inkscape:window-width="1920"
     inkscape:window-height="1136"
     inkscape:window-x="0"
     inkscape:window-y="27"
     inkscape:window-maximized="1">
    <inkscape:grid
       type="xygrid"
       id="grid10620" />
  </sodipodi:namedview>
  <metadata
     id="metadata10063">
    <rdf:RDF>
      <cc:Work
         rdf:about="">
        <dc:format>image/svg+xml</dc:format>
        <dc:type
           rdf:resource="http://purl.org/dc/dcmitype/StillImage" />
        <dc:title></dc:title>
      </cc:Work>
    </rdf:RDF>
  </metadata>
  <g
     inkscape:label="Layer 1"
     inkscape:groupmode="layer"
     id="layer1"
     transform="translate(847.5,-701.50822)">
    <path
       inkscape:connector-curvature="0"
       style="color:#000000;display:inline;overflow:visible;visibility:visible;fill:#505050;fill-opacity:1;fill-rule:nonzero;stroke:none;stroke-width:2.00000018;marker:none;enable-background:accumulate;clip-rule:nonzero;opacity:1;isolation:auto;mix-blend-mode:normal;color-interpolation:sRGB;color-interpolation-filters:linearRGB;solid-color:#000000;solid-opacity:1;stroke-linecap:butt;stroke-linejoin:miter;stroke-miterlimit:4;stroke-dasharray:none;stroke-dashoffset:0;stroke-opacity:1;filter-blend-mode:normal;filter-gaussianBlur-deviation:0;color-rendering:auto;image-rendering:auto;shape-rendering:auto;text-rendering:auto"
       d="m -846.35858,702.50807 c -0.63235,0 -1.14142,0.446 -1.14142,1 l 0,10.00015 c 0,0.554 0.50907,1 1.14142,1 l 13.69706,0 c 0.63235,0 1.16152,-0.446 1.16152,-1 l 0,-9.97507 c -0.46391,0.49032 -0.92252,0.94173 -1.3042,1.3125 -0.34479,0.33494 -0.67925,0.64953 -0.99874,0.9375 l -0.0356,0 c -1.022,0.949 -2.58256,2.27342 -4.53001,3.71875 0.0821,0.50544 0.11368,1.03839 -0.17835,1.53125 -0.35158,0.59343 -1.03454,1.06251 -1.89048,1.25 -0.73566,0.16115 -1.5645,0.26455 -2.35418,0.21875 -0.39484,-0.0229 -0.77679,-0.0713 -1.17709,-0.21875 -0.4003,-0.1474 -0.91416,-0.47182 -1.07008,-1.03125 -0.17776,-0.63157 0.36331,-1.24322 1.10575,-1.25 0.22235,10e-5 0.23342,-0.0256 0.28535,-0.0625 0.0519,-0.0369 0.1416,-0.15195 0.24969,-0.34375 0.21615,-0.3836 0.29721,-1.14754 1.2841,-1.71875 0.43049,-0.2491 0.92185,-0.3165 1.39111,-0.3125 1.14784,-1.43236 2.41834,-2.9522 3.78095,-4.27508 -10e-4,10e-4 0.0333,-0.0283 0.0356,-0.0312 l 0.57063,-0.5312 c 0.0151,-0.0149 0.0209,-0.017 0.0356,-0.0312 0.0894,-0.086 0.1384,-0.11731 0.21402,-0.1875 l -10.27279,0 z"
       id="rect23745"
       sodipodi:nodetypes="cssssscsccccsscccccccccccccc" />
    <path
       inkscape:connector-curvature="0"
       style="color:#000000;font-style:normal;font-variant:normal;font-weight:normal;font-stretch:normal;font-size:medium;line-height:normal;font-family:Sans;-inkscape-font-specification:Sans;text-indent:0;text-align:start;text-decoration:none;text-decoration-line:none;letter-spacing:normal;word-spacing:normal;text-transform:none;direction:ltr;block-progression:tb;writing-mode:lr-tb;baseline-shift:baseline;text-anchor:start;display:inline;overflow:visible;visibility:visible;fill:#505050;fill-opacity:1;stroke:none;stroke-width:2.00000018;marker:none;enable-background:accumulate;clip-rule:nonzero;opacity:1;isolation:auto;mix-blend-mode:normal;color-interpolation:sRGB;color-interpolation-filters:linearRGB;solid-color:#000000;solid-opacity:1;fill-rule:nonzero;stroke-linecap:butt;stroke-linejoin:miter;stroke-miterlimit:4;stroke-dasharray:none;stroke-dashoffset:0;stroke-opacity:1;filter-blend-mode:normal;filter-gaussianBlur-deviation:0;color-rendering:auto;image-rendering:auto;shape-rendering:auto;text-rendering:auto"
       d="m -845.93055,715.5019 -0.32102,0.5625 a 1.1486439,1.0063276 0 0 0 2.06883,0.875 l 0.82039,-1.4375 -2.5682,0 z m 10.2728,0 0.82039,1.4375 a 1.1486439,1.0063276 0 0 0 2.06883,-0.875 l -0.32103,-0.5625 -2.56819,0 z"
       id="path23225" />
    <path
       style="fill:#505050;fill-opacity:1;stroke:none;color:#000000;clip-rule:nonzero;display:inline;overflow:visible;visibility:visible;opacity:1;isolation:auto;mix-blend-mode:normal;color-interpolation:sRGB;color-interpolation-filters:linearRGB;solid-color:#000000;solid-opacity:1;fill-rule:nonzero;stroke-width:1.87200511;stroke-linecap:butt;stroke-linejoin:miter;stroke-miterlimit:4;stroke-dasharray:none;stroke-dashoffset:0;stroke-opacity:1;marker:none;filter-blend-mode:normal;filter-gaussianBlur-deviation:0;color-rendering:auto;image-rendering:auto;shape-rendering:auto;text-rendering:auto;enable-background:accumulate"
       d="m 330.03125,872.36233 c -1.79965,1.2988 -4.18521,3.31209 -6.09375,5.34375 -0.17324,0.18442 -0.36758,0.34657 -0.53125,0.53125 l -0.5,0.5625 c -1.30467,1.44196 -2.58769,3.12635 -3.65625,4.6875 -0.30993,-0.15117 -0.6844,-0.17668 -1.09375,0.0937 -0.75359,0.49786 -0.60416,2.28185 -2.15625,2.28125 0.14696,0.60185 1.73914,0.58086 2.8125,0.3125 1.01313,-0.25331 1.31779,-1.13266 1.125,-1.875 -0.0273,-0.10506 -0.0928,-0.20745 -0.15625,-0.3125 1.9784,-1.63945 3.41529,-3.01293 4.375,-4.03125 0.2404,-0.24587 0.52201,-0.58075 0.84375,-0.9375 1.20361,-1.33456 2.91323,-3.42684 5.03125,-6.65625 z"
       id="path9274-5-7"
       inkscape:connector-curvature="0"
       clip-path="url(#clipPath23756)"
       transform="matrix(1.1414214,0,0,1,-1204.7649,-174.86028)"
       sodipodi:nodetypes="cscccccscccscc" />
  </g>
</svg>
