<?xml version="1.0" encoding="UTF-8" standalone="no"?>
<!-- Created with Inkscape (http://www.inkscape.org/) -->

<svg
   xmlns:osb="http://www.openswatchbook.org/uri/2009/osb"
   xmlns:dc="http://purl.org/dc/elements/1.1/"
   xmlns:cc="http://creativecommons.org/ns#"
   xmlns:rdf="http://www.w3.org/1999/02/22-rdf-syntax-ns#"
   xmlns:svg="http://www.w3.org/2000/svg"
   xmlns="http://www.w3.org/2000/svg"
   xmlns:sodipodi="http://sodipodi.sourceforge.net/DTD/sodipodi-0.dtd"
   xmlns:inkscape="http://www.inkscape.org/namespaces/inkscape"
   width="22"
   height="22"
   viewBox="0 0 22 22"
   id="svg30571"
   version="1.1"
   inkscape:version="0.91 r13725"
   sodipodi:docname="gimp-prefs-toolbox.svg"
   inkscape:export-filename="/home/klaus/Bilder/icons/Symbolic/hicolor/16x16/apps/gimp-prefs-image-windows.png"
   inkscape:export-xdpi="65.454544"
   inkscape:export-ydpi="65.454544">
  <defs
     id="defs30573">
    <linearGradient
       id="linearGradient19282"
       osb:paint="solid"
       gradientTransform="matrix(1.2178615,0,0,1.043881,356.69172,1794.4958)">
      <stop
         style="stop-color:#666666;stop-opacity:1;"
         offset="0"
         id="stop19284" />
    </linearGradient>
  </defs>
  <sodipodi:namedview
     id="base"
     pagecolor="#ffffff"
     bordercolor="#666666"
     borderopacity="1.0"
     inkscape:pageopacity="0.0"
     inkscape:pageshadow="2"
     inkscape:zoom="16"
     inkscape:cx="5.7474138"
     inkscape:cy="7.633452"
     inkscape:document-units="px"
     inkscape:current-layer="layer1"
     showgrid="false"
     units="px"
     inkscape:snap-page="true"
     inkscape:snap-bbox="true"
     inkscape:bbox-paths="true"
     inkscape:bbox-nodes="true"
     inkscape:snap-bbox-edge-midpoints="true"
     inkscape:snap-bbox-midpoints="true"
     inkscape:object-paths="true"
     inkscape:snap-intersection-paths="true"
     inkscape:object-nodes="true"
     inkscape:snap-smooth-nodes="true"
     inkscape:snap-midpoints="true"
     inkscape:snap-object-midpoints="true"
     inkscape:snap-center="true"
     inkscape:snap-text-baseline="true"
     showborder="false"
     inkscape:window-width="1198"
     inkscape:window-height="652"
     inkscape:window-x="329"
     inkscape:window-y="206"
     inkscape:window-maximized="0" />
  <metadata
     id="metadata30576">
    <rdf:RDF>
      <cc:Work
         rdf:about="">
        <dc:format>image/svg+xml</dc:format>
        <dc:type
           rdf:resource="http://purl.org/dc/dcmitype/StillImage" />
        <dc:title></dc:title>
        <dc:creator>
          <cc:Agent>
            <dc:title>Klaus Staedtler</dc:title>
          </cc:Agent>
        </dc:creator>
      </cc:Work>
    </rdf:RDF>
  </metadata>
  <g
     inkscape:label="Layer 1"
     inkscape:groupmode="layer"
     id="layer1"
     transform="translate(0,-1030.3622)">
    <rect
       style="fill:none;stroke:none"
       id="rect5372"
       width="22"
       height="22"
       x="3.5823058e-07"
       y="1030.3622" />
    <g
       transform="matrix(1.375,0,0,1.375,-20.625,1057.8622)"
       id="g28886"
       inkscape:label="preferences-toolbox">
      <rect
         y="-20"
         x="15"
         height="16"
         width="16"
         id="rect5386"
         style="fill:none;stroke:none" />
      <g
         id="g4191">
        <path
           style="color:#000000;font-style:normal;font-variant:normal;font-weight:normal;font-stretch:normal;font-size:medium;line-height:normal;font-family:Sans;-inkscape-font-specification:Sans;text-indent:0;text-align:start;text-decoration:none;text-decoration-line:none;letter-spacing:normal;word-spacing:normal;text-transform:none;direction:ltr;block-progression:tb;writing-mode:lr-tb;text-anchor:start;display:inline;overflow:visible;visibility:visible;fill:#505050;fill-opacity:1;fill-rule:nonzero;stroke:none;stroke-width:3;marker:none;enable-background:accumulate"
           d="m 26.619111,-19.881678 c 0.389664,-0.101474 0.790724,-0.110768 1.17065,-0.08086 l -1.359697,2.305898 c -0.279422,0.473856 -0.122751,1.070712 0.353774,1.34773 l 0.874307,0.508248 c 0.476518,0.276998 1.07741,0.120517 1.356831,-0.353339 l 1.359698,-2.305898 c 0.21223,0.314297 0.400344,0.666111 0.501942,1.053167 0.486289,1.852561 -0.631432,3.748078 -2.496498,4.233768 -0.389665,0.101475 -0.790726,0.110769 -1.170647,0.08088 l -0.802126,1.114608 -3.409723,-0.02252 c 0,0 1.518597,-2.57735 1.62694,-2.594723 -0.212228,-0.314298 -0.400341,-0.666111 -0.501941,-1.053168 -0.48629,-1.852561 0.631426,-3.748097 2.49649,-4.233787 z"
           id="path3908-63"
           inkscape:connector-curvature="0"
           sodipodi:nodetypes="sccccccssccccss" />
        <path
           style="fill:#505050;fill-opacity:1;stroke:none"
           d="m 15,-12 0,8 16,0 0,-8 z m 4,1 2,0 0,2 4,0 0,-2 2,0 0,2 3,0 0,1 -3,0 0,1.96875 -2,0 L 25,-8 l -4,0 0,1.96875 -2,0 L 19,-8 16,-8 16,-8.984375 19,-9 Z"
           id="rect28823"
           inkscape:connector-curvature="0"
           sodipodi:nodetypes="cccccccccccccccccccccccccc" />
      </g>
    </g>
  </g>
</svg>
