<?xml version="1.0" encoding="UTF-8" standalone="no"?>
<!-- Created with Inkscape (http://www.inkscape.org/) -->

<svg
   xmlns:osb="http://www.openswatchbook.org/uri/2009/osb"
   xmlns:dc="http://purl.org/dc/elements/1.1/"
   xmlns:cc="http://creativecommons.org/ns#"
   xmlns:rdf="http://www.w3.org/1999/02/22-rdf-syntax-ns#"
   xmlns:svg="http://www.w3.org/2000/svg"
   xmlns="http://www.w3.org/2000/svg"
   xmlns:sodipodi="http://sodipodi.sourceforge.net/DTD/sodipodi-0.dtd"
   xmlns:inkscape="http://www.inkscape.org/namespaces/inkscape"
   width="22"
   height="22"
   viewBox="0 0 22 22"
   id="svg30571"
   version="1.1"
   inkscape:version="0.91 r13725"
   sodipodi:docname="gimp-prefs-folders-bruhses.svg"
   inkscape:export-filename="/home/klaus/Bilder/icons/Symbolic/hicolor/24x24/gimp-hfill.png"
   inkscape:export-xdpi="98.181816"
   inkscape:export-ydpi="98.181816">
  <defs
     id="defs30573">
    <linearGradient
       id="linearGradient19282"
       osb:paint="solid"
       gradientTransform="matrix(1.2178615,0,0,1.043881,356.69172,1794.4958)">
      <stop
         style="stop-color:#666666;stop-opacity:1;"
         offset="0"
         id="stop19284" />
    </linearGradient>
  </defs>
  <sodipodi:namedview
     id="base"
     pagecolor="#ffffff"
     bordercolor="#666666"
     borderopacity="1.0"
     inkscape:pageopacity="0.0"
     inkscape:pageshadow="2"
     inkscape:zoom="16"
     inkscape:cx="4.6825034"
     inkscape:cy="18.880208"
     inkscape:document-units="px"
     inkscape:current-layer="layer1"
     showgrid="false"
     units="px"
     inkscape:snap-page="true"
     inkscape:snap-bbox="true"
     inkscape:bbox-paths="true"
     inkscape:bbox-nodes="true"
     inkscape:snap-bbox-edge-midpoints="true"
     inkscape:snap-bbox-midpoints="true"
     inkscape:object-paths="true"
     inkscape:snap-intersection-paths="true"
     inkscape:object-nodes="true"
     inkscape:snap-smooth-nodes="true"
     inkscape:snap-midpoints="true"
     inkscape:snap-object-midpoints="true"
     inkscape:snap-center="true"
     inkscape:snap-text-baseline="true"
     showborder="false"
     inkscape:window-width="809"
     inkscape:window-height="428"
     inkscape:window-x="165"
     inkscape:window-y="81"
     inkscape:window-maximized="0" />
  <metadata
     id="metadata30576">
    <rdf:RDF>
      <cc:Work
         rdf:about="">
        <dc:format>image/svg+xml</dc:format>
        <dc:type
           rdf:resource="http://purl.org/dc/dcmitype/StillImage" />
        <dc:title></dc:title>
        <dc:creator>
          <cc:Agent>
            <dc:title>Klaus Staedtler</dc:title>
          </cc:Agent>
        </dc:creator>
      </cc:Work>
    </rdf:RDF>
  </metadata>
  <g
     inkscape:label="Layer 1"
     inkscape:groupmode="layer"
     id="layer1"
     transform="translate(0,-1030.3622)">
    <g
       id="g6016">
      <g
         transform="matrix(1.3749999,0,0,1.3749999,-350.9997,-370.0126)"
         id="g6006">
        <path
           style="display:inline;fill:#505050;fill-opacity:1;stroke:none"
           d="m 255.80378,1018.4545 c -0.28913,0 -0.53125,0.2421 -0.53125,0.5313 l 0,14.9375 c 0,0.2985 0.23264,0.5312 0.53125,0.5312 l 14.9375,0 c 0.2986,0 0.53125,-0.2326 0.53125,-0.5312 l 0,-9.9375 c 0,-0.2891 -0.24212,-0.5313 -0.53125,-0.5313 l -12.46875,0 0,8.5 c 0,0.277 -0.223,0.5 -0.5,0.5 -0.277,0 -0.5,-0.223 -0.5,-0.5 l 0,-9 c 0,-0.277 0.223,-0.5 0.5,-0.5 l 2.96875,0 8.53125,0 0,-1.4062 c 0,-0.3272 -0.26674,-0.6008 -0.59375,-0.5938 l -7.40625,0 0,-1.4687 c 0,-0.2892 -0.24212,-0.5313 -0.53125,-0.5313 z m 5.46875,6 0,0.5625 c 0,0.2448 0.21623,0.4375 0.46875,0.4375 l 0.0625,0 c 0.25251,0 0.46875,-0.1927 0.46875,-0.4375 l 0,-0.5625 1,0 0,0.5625 c 0,0.2448 0.21623,0.4375 0.46875,0.4375 l 0.0625,0 c 0.25251,0 0.46875,-0.1927 0.46875,-0.4375 l 0,-0.5625 1,0 0,0.5625 c 0,0.2448 0.21623,0.4375 0.46875,0.4375 l 0.0625,0 c 0.25251,0 0.46875,-0.1927 0.46875,-0.4375 l 0,-0.5625 1,0 0,0.5625 c 0,0.2448 0.21623,0.4375 0.46875,0.4375 l 0.0625,0 c 0.25251,0 0.46875,-0.1927 0.46875,-0.4375 l 0,-0.5625 c 0.554,0 1.02142,0.4464 1,1 l 0,3 -9,0 0,-3 c 0,-0.554 0.446,-1 1,-1 z m -1,5 9,0 -1,2 -2,0 0,2 -3,0 0,-2 -2,0 z"
           id="path7149"
           inkscape:connector-curvature="0"
           sodipodi:nodetypes="sssssssscsssssccsccssscssssccssssccssssccssssccccscccccccccc" />
      </g>
    </g>
    <rect
       y="999.4873"
       x="-65.730461"
       height="21.999998"
       width="21.999998"
       id="rect7151"
       style="color:#bebebe;display:inline;overflow:visible;visibility:visible;fill:none;stroke:none;stroke-width:2;marker:none;enable-background:accumulate" />
  </g>
</svg>
