<?xml version="1.0" encoding="UTF-8" standalone="no"?>
<!-- Created with Inkscape (http://www.inkscape.org/) -->

<svg
   xmlns:osb="http://www.openswatchbook.org/uri/2009/osb"
   xmlns:dc="http://purl.org/dc/elements/1.1/"
   xmlns:cc="http://creativecommons.org/ns#"
   xmlns:rdf="http://www.w3.org/1999/02/22-rdf-syntax-ns#"
   xmlns:svg="http://www.w3.org/2000/svg"
   xmlns="http://www.w3.org/2000/svg"
   xmlns:sodipodi="http://sodipodi.sourceforge.net/DTD/sodipodi-0.dtd"
   xmlns:inkscape="http://www.inkscape.org/namespaces/inkscape"
   width="22"
   height="22"
   viewBox="0 0 22 22"
   id="svg30571"
   version="1.1"
   inkscape:version="0.91 r13725"
   sodipodi:docname="gimp-prefs-folders-fonts.svg"
   inkscape:export-filename="/home/klaus/Bilder/icons/Symbolic/hicolor/16x16/apps/gimp-prefs-folder-environ.png"
   inkscape:export-xdpi="65.454544"
   inkscape:export-ydpi="65.454544">
  <defs
     id="defs30573">
    <linearGradient
       id="linearGradient19282"
       osb:paint="solid"
       gradientTransform="matrix(1.2178615,0,0,1.043881,356.69172,1794.4958)">
      <stop
         style="stop-color:#666666;stop-opacity:1;"
         offset="0"
         id="stop19284" />
    </linearGradient>
  </defs>
  <sodipodi:namedview
     id="base"
     pagecolor="#ffffff"
     bordercolor="#666666"
     borderopacity="1.0"
     inkscape:pageopacity="0.0"
     inkscape:pageshadow="2"
     inkscape:zoom="16"
     inkscape:cx="16.807503"
     inkscape:cy="23.880208"
     inkscape:document-units="px"
     inkscape:current-layer="layer1"
     showgrid="false"
     units="px"
     inkscape:snap-page="true"
     inkscape:snap-bbox="true"
     inkscape:bbox-paths="true"
     inkscape:bbox-nodes="true"
     inkscape:snap-bbox-edge-midpoints="true"
     inkscape:snap-bbox-midpoints="true"
     inkscape:object-paths="true"
     inkscape:snap-intersection-paths="true"
     inkscape:object-nodes="true"
     inkscape:snap-smooth-nodes="true"
     inkscape:snap-midpoints="true"
     inkscape:snap-object-midpoints="true"
     inkscape:snap-center="true"
     inkscape:snap-text-baseline="true"
     showborder="false"
     inkscape:window-width="947"
     inkscape:window-height="465"
     inkscape:window-x="467"
     inkscape:window-y="229"
     inkscape:window-maximized="0" />
  <metadata
     id="metadata30576">
    <rdf:RDF>
      <cc:Work
         rdf:about="">
        <dc:format>image/svg+xml</dc:format>
        <dc:type
           rdf:resource="http://purl.org/dc/dcmitype/StillImage" />
        <dc:title></dc:title>
        <dc:creator>
          <cc:Agent>
            <dc:title>Klaus Staedtler</dc:title>
          </cc:Agent>
        </dc:creator>
      </cc:Work>
    </rdf:RDF>
  </metadata>
  <g
     inkscape:label="Layer 1"
     inkscape:groupmode="layer"
     id="layer1"
     transform="translate(0,-1030.3622)">
    <rect
       y="999.4873"
       x="-65.730461"
       height="21.999998"
       width="21.999998"
       id="rect7151"
       style="color:#bebebe;display:inline;overflow:visible;visibility:visible;fill:none;stroke:none;stroke-width:2;marker:none;enable-background:accumulate" />
    <g
       inkscape:label="preferences-folders-dynamics"
       id="g7536"
       transform="matrix(1.375,0,0,1.375,-75.625,1002.8622)">
      <g
         inkscape:label="preferences-folders"
         id="g7539"
         transform="translate(40,60)">
        <rect
           style="color:#bebebe;display:inline;overflow:visible;visibility:visible;fill:none;stroke:none;stroke-width:2;marker:none;enable-background:accumulate"
           id="rect7543"
           width="16"
           height="16"
           x="15"
           y="-40" />
      </g>
    </g>
    <rect
       y="1030.3622"
       x="0"
       height="22"
       width="22"
       id="rect14414"
       style="color:#bebebe;display:inline;overflow:visible;visibility:visible;fill:none;stroke:none;stroke-width:2;marker:none;enable-background:accumulate" />
    <path
       style="display:inline;fill:#505050;fill-opacity:1;stroke:none"
       d="M 0.73046875,1030.3622 C 0.332915,1030.3622 0,1030.6952 0,1031.0927 l 0,20.539 c 0,0.4105 0.31988,0.7305 0.73046875,0.7305 l 20.53906225,0 c 0.410575,0 0.730469,-0.3199 0.730469,-0.7305 l 0,-13.664 c 0,-0.3974 -0.332915,-0.7305 -0.730469,-0.7305 l -17.144531,0 0,11.6875 c 0,0.3809 -0.306625,0.6875 -0.6875,0.6875 -0.380875,0 -0.6875,-0.3066 -0.6875,-0.6875 l 0,-12.375 c 0,-0.3809 0.306625,-0.6875 0.6875,-0.6875 l 4.0820312,0 11.7304688,0 0,-1.9336 c 0,-0.4498 -0.366658,-0.8164 -0.816406,-0.8164 l -10.183594,0 0,-2.0195 c 0,-0.3975 -0.332915,-0.7305 -0.7304688,-0.7305 z m 8.89453125,8.25 5.371094,0.043 0.08594,0 c 0.758765,0.062 1.512144,0.3728 2.019531,0.8593 0.507384,0.4866 0.773438,1.1346 0.773438,1.8477 l 0,6.875 0,2.75 -1.03125,0 -7.21875,0 c -4.125,0 -4.125,-8.25 0,-8.25 l 2.75,0 2.75,0 -0.04297,-0.3437 c -5.18e-4,-0.029 0.0012,-0.058 0,-0.086 -0.01591,-0.3625 -0.182362,-0.5739 -0.300781,-0.6875 -0.127325,-0.122 -0.295632,-0.2328 -0.601562,-0.2578 l -4.554688,0 z m 1.375,6.875 c -0.76175,0 -1.375,0.6133 -1.375,1.375 0,0.7618 0.61325,1.375 1.375,1.375 l 4.125,0 0,-2.75 z"
       id="path14416"
       inkscape:connector-curvature="0"
       sodipodi:nodetypes="sssssssscsssssccsscsssccccccccssccccccccsssccs" />
  </g>
</svg>
