<?xml version="1.0" encoding="UTF-8" standalone="no"?>
<!-- Created with Inkscape (http://www.inkscape.org/) -->

<svg
   xmlns:osb="http://www.openswatchbook.org/uri/2009/osb"
   xmlns:dc="http://purl.org/dc/elements/1.1/"
   xmlns:cc="http://creativecommons.org/ns#"
   xmlns:rdf="http://www.w3.org/1999/02/22-rdf-syntax-ns#"
   xmlns:svg="http://www.w3.org/2000/svg"
   xmlns="http://www.w3.org/2000/svg"
   xmlns:sodipodi="http://sodipodi.sourceforge.net/DTD/sodipodi-0.dtd"
   xmlns:inkscape="http://www.inkscape.org/namespaces/inkscape"
   width="22"
   height="22"
   viewBox="0 0 22 22"
   id="svg30571"
   version="1.1"
   inkscape:version="0.91 r13725"
   sodipodi:docname="gimp-prefs-folders-interp.svg"
   inkscape:export-filename="/home/klaus/Bilder/icons/Symbolic/hicolor/16x16/apps/gimp-prefs-folder-gradients.png"
   inkscape:export-xdpi="65.454544"
   inkscape:export-ydpi="65.454544">
  <defs
     id="defs30573">
    <linearGradient
       id="linearGradient19282"
       osb:paint="solid"
       gradientTransform="matrix(1.2178615,0,0,1.043881,356.69172,1794.4958)">
      <stop
         style="stop-color:#666666;stop-opacity:1;"
         offset="0"
         id="stop19284" />
    </linearGradient>
  </defs>
  <sodipodi:namedview
     id="base"
     pagecolor="#ffffff"
     bordercolor="#666666"
     borderopacity="1.0"
     inkscape:pageopacity="0.0"
     inkscape:pageshadow="2"
     inkscape:zoom="16"
     inkscape:cx="9.59375"
     inkscape:cy="18.880208"
     inkscape:document-units="px"
     inkscape:current-layer="layer1"
     showgrid="false"
     units="px"
     inkscape:snap-page="true"
     inkscape:snap-bbox="true"
     inkscape:bbox-paths="true"
     inkscape:bbox-nodes="true"
     inkscape:snap-bbox-edge-midpoints="true"
     inkscape:snap-bbox-midpoints="true"
     inkscape:object-paths="true"
     inkscape:snap-intersection-paths="true"
     inkscape:object-nodes="true"
     inkscape:snap-smooth-nodes="true"
     inkscape:snap-midpoints="true"
     inkscape:snap-object-midpoints="true"
     inkscape:snap-center="true"
     inkscape:snap-text-baseline="true"
     showborder="false"
     inkscape:window-width="1920"
     inkscape:window-height="1016"
     inkscape:window-x="0"
     inkscape:window-y="27"
     inkscape:window-maximized="1" />
  <metadata
     id="metadata30576">
    <rdf:RDF>
      <cc:Work
         rdf:about="">
        <dc:format>image/svg+xml</dc:format>
        <dc:type
           rdf:resource="http://purl.org/dc/dcmitype/StillImage" />
        <dc:title></dc:title>
        <dc:creator>
          <cc:Agent>
            <dc:title>Klaus Staedtler</dc:title>
          </cc:Agent>
        </dc:creator>
      </cc:Work>
    </rdf:RDF>
  </metadata>
  <g
     inkscape:label="Layer 1"
     inkscape:groupmode="layer"
     id="layer1"
     transform="translate(0,-1030.3622)">
    <rect
       y="999.4873"
       x="-65.730461"
       height="21.999998"
       width="21.999998"
       id="rect7151"
       style="color:#bebebe;display:inline;overflow:visible;visibility:visible;fill:none;stroke:none;stroke-width:2;marker:none;enable-background:accumulate" />
    <g
       inkscape:label="preferences-folders-dynamics"
       id="g7536"
       transform="matrix(1.375,0,0,1.375,-75.625,1002.8622)">
      <g
         inkscape:label="preferences-folders"
         id="g7539"
         transform="translate(40,60)">
        <rect
           style="color:#bebebe;display:inline;overflow:visible;visibility:visible;fill:none;stroke:none;stroke-width:2;marker:none;enable-background:accumulate"
           id="rect7543"
           width="16"
           height="16"
           x="15"
           y="-40" />
      </g>
    </g>
    <rect
       y="1030.3622"
       x="0"
       height="22"
       width="22"
       id="rect14414"
       style="color:#bebebe;display:inline;overflow:visible;visibility:visible;fill:none;stroke:none;stroke-width:2;marker:none;enable-background:accumulate" />
    <g
       transform="matrix(1.375,0,0,1.375,-48.125,1002.8622)"
       id="g15856"
       inkscape:label="preferences-folders-interp">
      <g
         transform="translate(20,0)"
         id="g15674"
         inkscape:label="preferences-folders-tools">
        <g
           transform="translate(0,60)"
           id="g15676"
           inkscape:label="preferences-folders">
          <path
             sodipodi:nodetypes="sssssssscsssssccsscsssccccccccccccccccc"
             inkscape:connector-curvature="0"
             id="path15678"
             transform="translate(-20,-60)"
             d="M 35.53125,20 C 35.24212,20 35,20.24212 35,20.53125 l 0,14.9375 C 35,35.76725 35.23264,36 35.53125,36 l 14.9375,0 C 50.76735,36 51,35.76735 51,35.46875 l 0,-9.9375 C 51,25.24215 50.75788,25 50.46875,25 L 38,25 38,33.5 C 38,33.777 37.777,34 37.5,34 37.223,34 37,33.777 37,33.5 l 0,-9 C 37,24.223 37.223,24 37.5,24 L 40.46875,24 49,24 49,22.59375 C 49,22.26655 48.73334,22 48.40625,22 L 41,22 41,20.53125 C 41,20.2421 40.75788,20 40.46875,20 Z m 6.53125,6 1.5,1.21875 c 0.627744,-0.184403 1.247257,-0.184403 1.875,0 L 46.9375,26 49,28.09375 47.78125,29.5625 c 0.182958,0.632699 0.182958,1.304801 0,1.9375 L 49,32.96875 l -2.0625,2.09375 -1.5,-1.21875 c -0.627744,0.184403 -1.247257,0.184402 -1.875,0 l -1.5,1.21875 L 40,32.96875 41.21875,31.5 c -0.182958,-0.632699 -0.182958,-1.304801 0,-1.9375 L 40,28.09375 Z"
             style="display:inline;fill:#505050;fill-opacity:1;stroke:none" />
          <rect
             y="-40"
             x="15"
             height="16"
             width="16"
             id="rect15680"
             style="color:#bebebe;display:inline;overflow:visible;visibility:visible;fill:none;stroke:none;stroke-width:2;marker:none;enable-background:accumulate" />
        </g>
      </g>
      <ellipse
         ry="1.265625"
         rx="1.5"
         cy="30.734375"
         cx="44.5"
         transform="matrix(1,0,0,1.1851852,0,-5.9259264)"
         id="path15832"
         style="fill:#505050;fill-opacity:1;stroke:none" />
    </g>
  </g>
</svg>
