<?xml version="1.0" standalone="yes"?>
<svg width="160mm" height="120mm" viewBox="0 0 77 60"
     xmlns="http://www.w3.org/2000/svg">
   <g>
      <g>
         <path id="head"
	       style="fill:#743e00"
	       d="M 39.4515 55.0948
	          C 43.9185 53.0698 45.6835 49.8408 46.0655 47.9788
		  C 46.4555 46.0778 46.3375 44.0488 45.0055 42.5139
		  C 42.4985 49.4099 24.2555 56.3078 8.86252 50.0158
		  C 16.3935 49.1309 17.7945 39.1968 12.7755 34.2698
		  C 13.7035 34.0458 15.8715 31.5418 16.4465 31.3549
		  C 18.4115 30.5888 19.7065 29.9988 21.3175 29.3738
		  C 19.0305 24.5148 10.8625 2.37185 16.4375 8.99984
		  C 18.1335 11.0158 25.4405 19.8608 32.3005 22.5768
		  C 39.1605 25.2918 44.3055 25.2918 50.8795 23.2908
		  C 57.4535 21.2899 67.0295 15.1448 70.6025 4.99782
		  C 71.4575 2.56783 73.4325 8.62282 72.2545 17.1649
		  C 70.9715 26.4718 67.2865 31.7689 60.2925 35.8818
		  C 58.7575 46.4019 50.9655 54.3348 39.4515 55.0948
		  z"/>
         <path id="shadow"
	       style="fill:#2f1a00"
	       d="M 72.3525 7.91488
	          C 72.6825 10.1958 72.7675 13.4448 72.2545 17.1649
	          C 70.9715 26.4718 67.2865 31.7689 60.2925 35.8818
	          C 59.1135 43.9598 54.2465 50.5118 46.8375 53.4628
	          C 55.9605 45.2048 56.2485 38.8608 56.8345 33.4968
	          C 64.0615 30.7788 71.3955 20.9468 72.3525 7.91488
		  z"/>
         <path id="mouth"
	       style="fill:#2f1a00"
	       d="M 20.4005 52.4778
	          C 25.1985 54.9718 33.1625 56.3759 39.6865 55.0059
	          C 44.1535 52.9808 45.6835 49.8408 46.0655 47.9788
	          C 46.4555 46.0778 46.3375 44.0488 45.0055 42.5139
	          C 43.1175 47.7068 32.2235 52.9078 20.4005 52.4778
		  z"/>
         <path id="head outline"
	       style="stroke:#000000;
		      stroke-width:0.850394;
		      stroke-linecap:round;
		      fill:none"
	       d="M 19.9475 26.1508
	          C 16.8785 18.4858 11.7035 3.37185 16.4375 8.99984
	          C 18.1335 11.0158 25.4405 19.8608 32.3005 22.5768
	          C 39.1605 25.2918 44.3055 25.2918 50.8795 23.2908
	          C 57.4535 21.2899 67.0295 15.1448 70.6025 4.99782
	          C 71.4575 2.56783 73.4325 8.62282 72.2545 17.1649
	          C 70.9715 26.4718 67.2865 31.7689 60.2925 35.8818
	          C 58.7575 46.4019 50.9655 54.3348 39.4515 55.0948
	          C 43.9185 53.0698 45.6835 49.8408 46.0655 47.9788
	          C 46.4555 46.0778 46.3375 44.0488 45.0055 42.5139
	          C 42.5675 49.2208 25.3765 55.8928 10.1345 50.5038
	          C 8.50052 49.9258 7.87552 49.3398 7.68851 48.3398
	          M 20.4005 52.4778
	          C 25.1985 54.9718 33.1625 56.3759 39.6865 55.0059
	          M 13.8665 33.5789
	          C 14.1875 33.3118 14.5275 32.9998 14.8555 32.6938"/>
      </g>

      <g>
         <path id="right eye"
	       style="fill:#ffffff;
	              stroke:#000000;
	              stroke-width:0.850394"
	       d="M 14.8768 32.1188
	          C 14.8768 28.8425 17.5124 26.1832 20.7595 26.1832
		  C 24.0066 26.1832 26.6423 28.8425 26.6423 32.1188
		  C 26.6423 35.3951 24.0066 38.0544 20.7595 38.0544
		  C 17.5124 38.0544 14.8768 35.3951 14.8768 32.1188
		  z"/>
         <path id="right eye pupil"
	       style="fill:#000000"
	       d="M 24.7885 33.4638
	          C 24.7885 35.1389 23.5065 36.4988 21.9275 36.4988
	          C 20.3485 36.4988 19.0665 35.1389 19.0665 33.4638
	          C 19.0665 31.7888 20.3485 30.4288 21.9275 30.4288
	          C 23.5065 30.4288 24.7885 31.7888 24.7885 33.4638
	          z"/>
         <path id="right eye pupil highlight"
	       style="fill:#ffffff"
	       d="M 20.1185 32.3679
	          C 20.1185 31.7748 20.5995 31.2938 21.1925 31.2938
	          C 21.7855 31.2938 22.2665 31.7748 22.2665 32.3679
	          C 22.2665 32.9608 21.7855 33.4418 21.1925 33.4418
	          C 20.5995 33.4418 20.1185 32.9608 20.1185 32.3679
	          z"/>
      </g>
      <g>
         <path id="left eye"
	       style="fill:#ffffff;
	              stroke:#000000;
		      stroke-width:0.850394"
	       d="M 41.0042 33.4728
	          C 41.0042 37.6855 37.6795 41.105 33.5835 41.105
		  C 29.4875 41.105 26.1629 37.6855 26.1629 33.4728
		  C 26.1629 29.2601 29.4875 25.8407 33.5835 25.8407
		  C 37.6795 25.8407 41.0042 29.2601 41.0042 33.4728
		  z"/>
         <path id="left eye pupil"
	       style="fill:#000000"
	       d="M 38.9905 35.4568
	          C 38.9905 37.6389 37.3155 39.4088 35.2515 39.4088
	          C 33.1875 39.4088 31.5125 37.6389 31.5125 35.4568
	          C 31.5125 33.2748 33.1875 31.5048 35.2515 31.5048
	          C 37.3155 31.5048 38.9905 33.2748 38.9905 35.4568
	          z"/>
         <path id="left eye pupil highlight"
	       style="fill:#ffffff"
	       d="M 32.5845 34.1848
	          C 32.5845 33.3068 33.2965 32.5948 34.1745 32.5948
		  C 35.0525 32.5948 35.7645 33.3068 35.7645 34.1848
		  C 35.7645 35.0628 35.0525 35.7748 34.1745 35.7748
		  C 33.2965 35.7748 32.5845 35.0628 32.5845 34.1848
		  z"/>
      </g>
      <g>
         <path id="nose"
	       style="fill:#000000"
	       d="M 15.8855 37.6998
	          C 17.6675 43.4308 15.7025 49.0728 11.4995 50.2918
		  C 7.29752 51.5118 2.43951 47.8508 0.657516 42.1198
		  C -1.12448 36.3889 0.840515 30.7468 5.04352 29.5278
		  C 9.24551 28.3078 14.1035 31.9688 15.8855 37.6998
		  z"/>
         <path id="nose highlight"
	       style="fill:#ffffff"
	       d="M 7.59151 36.4298
	          C 6.87252 38.1129 5.38551 39.0919 4.27151 38.6158
		  C 3.15752 38.1408 2.83652 36.3889 3.55552 34.7058
		  C 4.27451 33.0228 5.76152 32.0438 6.87552 32.5198
		  C 7.98952 32.9948 8.31052 34.7468 7.59151 36.4298
		  z"/>
      </g>
   </g>
</svg>
