<?xml version="1.0" encoding="UTF-8" standalone="no"?>
<svg
   xmlns:dc="http://purl.org/dc/elements/1.1/"
   xmlns:cc="http://creativecommons.org/ns#"
   xmlns:rdf="http://www.w3.org/1999/02/22-rdf-syntax-ns#"
   xmlns:svg="http://www.w3.org/2000/svg"
   xmlns="http://www.w3.org/2000/svg"
   xmlns:sodipodi="http://sodipodi.sourceforge.net/DTD/sodipodi-0.dtd"
   xmlns:inkscape="http://www.inkscape.org/namespaces/inkscape"
   version="1.1"
   id="Layer_1"
   x="0px"
   y="0px"
   width="22"
   height="22"
   viewBox="0 0 512 512"
   enable-background="new 0 0 512 512"
   xml:space="preserve"
   inkscape:version="0.91 r13725"
   sodipodi:docname="gimp-prefs-icon-theme-dark.svg"><metadata
     id="metadata9"><rdf:RDF><cc:Work
         rdf:about=""><dc:format>image/svg+xml</dc:format><dc:type
           rdf:resource="http://purl.org/dc/dcmitype/StillImage" /><dc:title></dc:title><cc:license
           rdf:resource="https://www.gnu.org/licenses/gpl-3.0.en.html" /><dc:date>2015/12/13</dc:date><dc:creator><cc:Agent><dc:title>Benoit Touchette</dc:title></cc:Agent></dc:creator><dc:rights><cc:Agent><dc:title>Licensed GPL v3</dc:title></cc:Agent></dc:rights><dc:description>Copyright 2015, Benoit Touchette.</dc:description></cc:Work></rdf:RDF></metadata><defs
     id="defs7"><clipPath
       clipPathUnits="userSpaceOnUse"
       id="clipPath4238"><rect
         style="opacity:1;fill:#515151;fill-opacity:0.33333333;fill-rule:nonzero;stroke:none;stroke-width:0.36399999;stroke-linecap:butt;stroke-linejoin:miter;stroke-miterlimit:4;stroke-dasharray:none;stroke-dashoffset:0;stroke-opacity:1"
         id="rect4240"
         width="286.37283"
         height="387.25421"
         x="5.4237218"
         y="61.830509" /></clipPath></defs><sodipodi:namedview
     pagecolor="#ffffff"
     bordercolor="#666666"
     borderopacity="1"
     objecttolerance="10"
     gridtolerance="10"
     guidetolerance="10"
     inkscape:pageopacity="0"
     inkscape:pageshadow="2"
     inkscape:window-width="1348"
     inkscape:window-height="847"
     id="namedview5"
     showgrid="false"
     fit-margin-top="0"
     fit-margin-left="0"
     fit-margin-right="0"
     fit-margin-bottom="0"
     inkscape:zoom="21.454545"
     inkscape:cx="5.3658844"
     inkscape:cy="10.612306"
     inkscape:window-x="150"
     inkscape:window-y="24"
     inkscape:window-maximized="0"
     inkscape:current-layer="Layer_1" /><g
     id="g4411"
     transform="matrix(1.0459907,0,0,1.0459907,5.8181823,-78.101645)"><path
       inkscape:connector-curvature="0"
       id="path3337-55-9-2"
       d="m 176.36364,135.59625 c -3.8247,-0.21322 -7.30116,1.37644 -10.31819,4.72727 -1.46599,1.62819 -13.1005,24.23939 -25.81818,50.27272 -12.71767,26.03332 -23.97515,47.6564 -25.04544,48.04546 -1.0703,0.38906 -26.335305,0.3096 -55.454558,4.5 C 0.472809,251.6687 0,255.85039 0,267.09624 c 0,5.2294 2.041312,7.63556 31.954545,37.22728 17.58443,17.39545 35.594602,35.01137 40.045456,39.18182 l 8.136361,7.59089 -12.090907,53.86366 c -6.567992,29.34199 -6.208443,55.44648 -5.727274,57.36361 0.481163,1.91721 2.382852,4.87259 4.227274,6.59091 1.844408,1.71825 5.316671,3.13637 7.727272,3.13637 2.518039,3e-5 21.555488,-9.20459 48.318183,-23.18182 0.90627,-7.43878 2.09968,-15.37403 4,-23.86362 l 12.09091,-53.86364 -8.09091,-7.59091 c -4.45086,-4.17045 -22.50647,-21.83182 -40.090905,-39.22727 -29.91325,-29.59172 -31.954552,-31.95243 -31.95455,-37.18182 0,-11.24585 0.518258,-15.42754 59.772735,-23.95455 29.11924,-4.19041 54.33878,-4.11094 55.40908,-4.5 1.07031,-0.38906 12.37323,-22.01212 25.09091,-48.04545 5.62033,-11.50494 7.00248,-13.57017 11.40909,-22.22728 0,0 0,-0.0455 0,-0.0455 -22.84989,-45.68298 -25.6271,-50.44599 -29.95454,-51.95454 -1.35077,-0.47088 -2.6342,-0.74711 -3.90909,-0.81818 z"
       mask="none"
       style="opacity:1;fill:#515151;fill-opacity:0.33333333;fill-rule:nonzero;stroke:none;stroke-width:0.36399999;stroke-linecap:butt;stroke-linejoin:miter;stroke-miterlimit:4;stroke-dasharray:none;stroke-dashoffset:0;stroke-opacity:1" /><path
       transform="translate(-13.839425,69.003796)"
       mask="none"
       clip-path="url(#clipPath4238)"
       sodipodi:nodetypes="ssscssssssssscsscscscsscsss"
       inkscape:connector-curvature="0"
       id="path3337-55-9"
       d="m 138.7817,420.0015 c -1.84442,-1.71833 -3.74718,-4.69281 -4.22835,-6.60995 -0.48117,-1.91713 -0.83276,-28.01031 5.73523,-57.35234 l 12.05766,-53.86666 -8.09247,-7.58265 c -4.45086,-4.17046 -22.47974,-21.81529 -40.06417,-39.21073 -29.913242,-29.59172 -31.971715,-31.98793 -31.971715,-37.21732 0,-11.24585 0.505858,-15.40975 59.760335,-23.93675 29.11925,-4.19041 54.36455,-4.12393 55.43485,-4.51299 1.07031,-0.38906 12.35137,-22.00738 25.06905,-48.04071 12.71766,-26.03333 24.32248,-48.665481 25.78848,-50.29367 4.0227,-4.467777 8.84658,-5.790332 14.24966,-3.906807 4.32927,1.509193 7.07302,6.27401 29.94955,52.010777 l 25.18368,50.34937 52.47506,6.80674 c 28.31263,3.67254 52.6166,8.61994 55.45279,9.50444 6.59336,2.05621 10.22691,9.58269 7.80255,16.16207 -0.897,2.43457 -17.44173,23.4645 -38.74076,44.07188 -21.02128,20.33863 -39.63228,34.94891 -40.02614,35.79635 -0.39388,0.84741 7.67358,23.67893 12.60118,52.06827 4.92758,28.38935 8.97498,53.55524 8.99419,55.92423 0.0463,5.74047 -10.53811,12.96071 -16.415,12.96071 -2.87324,0 -22.29679,-9.33735 -53.15124,-25.55105 l -48.6233,-25.55101 -48.56092,25.55101 c -29.78445,15.67154 -50.25558,25.55105 -52.9438,25.55105 -2.4106,0 -5.89198,-1.40592 -7.7364,-3.12426 z"
       style="opacity:1;fill:#515151;fill-opacity:0.66666667;fill-rule:nonzero;stroke:none;stroke-width:0.36399999;stroke-linecap:butt;stroke-linejoin:miter;stroke-miterlimit:4;stroke-dasharray:none;stroke-dashoffset:0;stroke-opacity:1" /><path
       sodipodi:nodetypes="ssscssssssssscsscscscsscsss"
       inkscape:connector-curvature="0"
       id="path3337-55"
       d="m 193.00656,508.87575 c -1.84443,-1.71833 -3.74718,-4.6928 -4.22835,-6.60995 -0.48117,-1.91713 -0.83276,-28.01031 5.73524,-57.35233 l 12.05765,-53.86667 -8.09247,-7.58265 c -4.45085,-4.17045 -22.47974,-21.81529 -40.06418,-39.21071 -29.91323,-29.59173 -31.97169,-31.98794 -31.97169,-37.21733 0,-11.24585 0.50585,-15.40975 59.76033,-23.93675 29.11924,-4.1904 54.36454,-4.12393 55.43485,-4.51298 1.07029,-0.38907 12.35136,-22.00738 25.06904,-48.04072 12.71767,-26.03333 24.32248,-48.66548 25.78848,-50.29367 4.02271,-4.46777 8.84659,-5.79033 14.24967,-3.90681 4.32925,1.5092 7.07302,6.274 29.94954,52.01078 l 25.18368,50.34937 52.47507,6.80675 c 28.31262,3.67254 52.61659,8.61993 55.45279,9.50443 6.59334,2.05621 10.2269,9.58269 7.80255,16.16207 -0.89702,2.43457 -17.44172,23.46451 -38.74077,44.07189 -21.02128,20.33862 -39.63227,34.94889 -40.02614,35.79633 -0.39388,0.84742 7.67359,23.67894 12.60118,52.06827 4.92759,28.38934 8.97499,53.55524 8.99419,55.92422 0.0463,5.74049 -10.53811,12.96073 -16.41498,12.96073 -2.87325,0 -22.29679,-9.33735 -53.15125,-25.55105 l -48.6233,-25.55101 -48.56092,25.55101 c -29.78445,15.67153 -50.25558,25.55105 -52.9438,25.55105 -2.4106,0 -5.89198,-1.40593 -7.7364,-3.12427 z"
       style="opacity:1;fill:#515151;fill-opacity:1;fill-rule:nonzero;stroke:none;stroke-width:0.36399999;stroke-linecap:butt;stroke-linejoin:miter;stroke-miterlimit:4;stroke-dasharray:none;stroke-dashoffset:0;stroke-opacity:1" /></g></svg>