<?xml version="1.0" encoding="UTF-8" standalone="no"?>
<!-- Created with Inkscape (http://www.inkscape.org/) -->

<svg
   xmlns:osb="http://www.openswatchbook.org/uri/2009/osb"
   xmlns:dc="http://purl.org/dc/elements/1.1/"
   xmlns:cc="http://creativecommons.org/ns#"
   xmlns:rdf="http://www.w3.org/1999/02/22-rdf-syntax-ns#"
   xmlns:svg="http://www.w3.org/2000/svg"
   xmlns="http://www.w3.org/2000/svg"
   xmlns:sodipodi="http://sodipodi.sourceforge.net/DTD/sodipodi-0.dtd"
   xmlns:inkscape="http://www.inkscape.org/namespaces/inkscape"
   width="22"
   height="22"
   viewBox="0 0 22 22"
   id="svg30571"
   version="1.1"
   inkscape:version="0.91 r13725"
   sodipodi:docname="gimp-prefs-playground.svg"
   inkscape:export-filename="/home/jehan/dev/src/gimp/icons/Symbolic/48/gimp-prefs-playground.png"
   inkscape:export-xdpi="196.36363"
   inkscape:export-ydpi="196.36363">
  <defs
     id="defs30573">
    <linearGradient
       id="linearGradient19282"
       osb:paint="solid"
       gradientTransform="matrix(1.2178615,0,0,1.043881,356.69172,1794.4958)">
      <stop
         style="stop-color:#666666;stop-opacity:1;"
         offset="0"
         id="stop19284" />
    </linearGradient>
    <clipPath
       clipPathUnits="userSpaceOnUse"
       id="clipPath4069">
      <path
         style="color:#000000;display:inline;overflow:visible;visibility:visible;fill:#ffffff;fill-opacity:1;fill-rule:nonzero;stroke:none;stroke-width:1.0629921;marker:none;enable-background:accumulate"
         d="m -261.46087,546.91414 c 0.64207,-0.54218 0.96944,-1.09 1.19651,-1.9865 0.54293,-2.14352 0.70889,-5.75002 0.75674,-8.88854 15.68984,-1.57202 32.14634,-5.0555 41.59074,-9.65044 3.41338,-1.66069 5.14838,-4.43338 5.40639,-7.9022 4.25024,-1.17828 10.00449,-3.62525 14.05104,-6.30518 3.21909,-2.13192 7.61912,-5.59906 10.94529,-11.44244 2.36275,-4.15087 4.26692,-9.81761 4.20184,-15.99527 -0.059,-5.60122 -2.52262,-12.33844 -6.28023,-17.1734 -4.51836,-5.81383 -11.23061,-10.51024 -19.95109,-14.42937 -6.14532,-2.76182 -12.96642,-6.28766 -18.07077,-9.62977 -5.74709,-3.76296 -9.99316,-8.03021 -12.24315,-12.64158 -4.20034,-8.60859 -5.89553,-14.98302 -7.25936,-23.00053 -0.32888,-1.93337 -1.00111,-4.59371 -2.177,-6.498 -0.60633,-0.98193 -1.42083,-1.71311 -2.79526,-2.33553 -3.28769,-1.48889 -7.92222,-2.71309 -13.44291,-2.71309 -5.52069,0 -10.15522,1.2242 -13.44291,2.71309 -1.37443,0.62242 -2.18893,1.3536 -2.79526,2.33553 -1.17589,1.90429 -1.84812,4.56463 -2.177,6.498 -1.36383,8.01751 -3.05902,14.39194 -7.25936,23.00053 -2.24999,4.61137 -6.49606,8.87862 -12.24315,12.64158 -5.10435,3.34211 -11.92545,6.86795 -18.07077,9.62977 -8.72048,3.91913 -15.43273,8.61554 -19.95109,14.42937 -3.75761,4.83496 -6.22122,11.57218 -6.28023,17.1734 -0.0651,6.17766 1.83909,11.8444 4.20184,15.99527 3.32617,5.84338 7.7262,9.31052 10.94529,11.44244 4.04655,2.67993 9.8008,5.1269 14.05104,6.30518 0.25801,3.46882 1.99301,6.24151 5.40639,7.9022 9.4444,4.59494 25.9009,8.07842 41.59074,9.65044 0.0478,3.13852 0.21381,6.74502 0.75674,8.88854 0.22707,0.8965 0.55444,1.44432 1.19651,1.9865 0.75812,0.64018 2.13971,1.09846 4.07122,1.09846 1.93151,0 3.3131,-0.45828 4.07122,-1.09846 z"
         id="path4071"
         inkscape:connector-curvature="0"
         sodipodi:nodetypes="sscscsssssssssszsssssssssscscssss" />
    </clipPath>
  </defs>
  <sodipodi:namedview
     id="base"
     pagecolor="#ffffff"
     bordercolor="#666666"
     borderopacity="1.0"
     inkscape:pageopacity="0.0"
     inkscape:pageshadow="2"
     inkscape:zoom="11.313708"
     inkscape:cx="0.46873819"
     inkscape:cy="14.854409"
     inkscape:document-units="px"
     inkscape:current-layer="layer1"
     showgrid="false"
     units="px"
     inkscape:snap-page="true"
     inkscape:snap-bbox="true"
     inkscape:bbox-paths="true"
     inkscape:bbox-nodes="true"
     inkscape:snap-bbox-edge-midpoints="true"
     inkscape:snap-bbox-midpoints="true"
     inkscape:object-paths="true"
     inkscape:snap-intersection-paths="true"
     inkscape:object-nodes="true"
     inkscape:snap-smooth-nodes="true"
     inkscape:snap-midpoints="true"
     inkscape:snap-object-midpoints="true"
     inkscape:snap-center="true"
     inkscape:snap-text-baseline="true"
     showborder="true"
     inkscape:window-width="1366"
     inkscape:window-height="741"
     inkscape:window-x="0"
     inkscape:window-y="27"
     inkscape:window-maximized="1" />
  <metadata
     id="metadata30576">
    <rdf:RDF>
      <cc:Work
         rdf:about="">
        <dc:format>image/svg+xml</dc:format>
        <dc:type
           rdf:resource="http://purl.org/dc/dcmitype/StillImage" />
        <dc:title></dc:title>
        <dc:creator>
          <cc:Agent>
            <dc:title>Klaus Staedtler</dc:title>
          </cc:Agent>
        </dc:creator>
      </cc:Work>
    </rdf:RDF>
  </metadata>
  <g
     inkscape:label="Layer 1"
     inkscape:groupmode="layer"
     id="layer1"
     transform="translate(0,-1030.3622)">
    <g
       id="g4400"
       transform="matrix(0.45833292,0,0,0.45833292,131.30301,426.34251)">
      <path
         id="path3897"
         style="color:#000000;display:inline;overflow:visible;visibility:visible;fill:#808080;fill-opacity:1;fill-rule:nonzero;stroke:none;stroke-width:1;marker:none;enable-background:accumulate"
         d="m -262.28209,1334.2746 c -0.0472,0 -0.10661,0.068 -0.19164,0.068 -0.085,0 -0.14575,0 -0.19163,-0.068 -0.0337,0 -0.0675,-0.067 -0.0816,-0.067 -0.21391,-0.2767 -0.32322,-0.5736 -0.32322,-0.8732 0,-0.2969 0.10999,-0.5938 0.32322,-0.8738 -0.21323,-0.2767 -0.32322,-0.5736 -0.32322,-0.8739 0,-0.2969 0.10999,-0.5938 0.32322,-0.8738 -0.21323,-0.2767 -0.32322,-0.5736 -0.32322,-0.8739 0,-0.2969 0.10999,-0.5938 0.32322,-0.8738 -0.21323,-0.2767 -0.32322,-0.5736 -0.32322,-0.8732 0,-0.2969 0.10999,-0.6005 0.32322,-0.8738 -0.21323,-0.2767 -0.32322,-0.5736 -0.32322,-0.8739 0,-0.2969 0.10999,-0.6005 0.32322,-0.8738 -0.21323,-0.2767 -0.32322,-0.5736 -0.32322,-0.8738 0,-0.2969 0.10999,-0.5939 0.32322,-0.8739 -0.21323,-0.2766 -0.32322,-0.5736 -0.32322,-0.8732 0,-0.2969 0.10594,-0.6005 0.32322,-0.8738 0.0202,0 0.0472,-0.068 0.0816,-0.068 0.0472,0 0.10661,-0.067 0.19163,-0.067 0.085,0 0.14576,0 0.19164,0.067 0.0337,0 0.0607,0.068 0.081,0.068 0.21795,0.2767 0.32322,0.5736 0.32322,0.8738 0,0.2969 -0.10999,0.5939 -0.32322,0.8732 0.21323,0.2767 0.32322,0.5736 0.32322,0.8739 0,0.2969 -0.10999,0.5938 -0.32322,0.8738 0.21323,0.2767 0.32322,0.5736 0.32322,0.8738 0,0.297 -0.10999,0.5939 -0.32322,0.8739 0.21323,0.2767 0.32322,0.5736 0.32322,0.8738 0,0.2969 -0.10999,0.5938 -0.32322,0.8732 0.21323,0.2767 0.32322,0.5736 0.32322,0.8738 0,0.3037 -0.10999,0.6006 -0.32322,0.8739 0.21323,0.2767 0.32322,0.5736 0.32322,0.8738 0,0.2969 -0.10999,0.5938 -0.32322,0.8739 0.21323,0.2766 0.32322,0.5735 0.32322,0.8738 0,0.2969 -0.10999,0.5938 -0.32322,0.8732 -0.0202,0 -0.0472,0.067 -0.081,0.067 z"
         inkscape:connector-curvature="0"
         sodipodi:nodetypes="ssssscscscscscscssssssscscscscscscsss" />
      <g
         style="fill:#505050;fill-opacity:1;fill-rule:evenodd"
         transform="matrix(0.20297199,0,0,0.20297199,-208.58396,1252.787)"
         clip-path="url(#clipPath4069)"
         id="g4057">
        <path
           inkscape:connector-curvature="0"
           id="path3988"
           style="fill:#505050;fill-opacity:1;stroke:none"
           d="m -265.53209,241.25494 c 85.70624,0 155.20869,69.50401 155.20869,155.2087 0,85.70624 -69.50245,155.20869 -155.20869,155.20869 -85.70469,0 -155.20869,-69.50245 -155.20869,-155.20869 0,-85.70469 69.504,-155.2087 155.20869,-155.2087 l 0,-3.1e-4 z m 0,147.44811 c 4.28376,0 7.76043,3.47667 7.76043,7.76043 0,4.28376 -3.47667,7.76044 -7.76043,7.76044 -4.28376,0 -7.76043,-3.47668 -7.76043,-7.76044 0,-4.28376 3.47667,-7.76043 7.76043,-7.76043 z" />
        <path
           inkscape:connector-curvature="0"
           id="path3990"
           style="fill:#505050;fill-opacity:1;stroke:none"
           d="m -265.53209,256.77566 c 77.13872,0 139.68782,62.55376 139.68782,139.68782 0,77.13872 -62.5491,139.68783 -139.68782,139.68783 -77.13406,0 -139.68782,-62.54911 -139.68782,-139.68783 0,-77.13406 62.55376,-139.68782 139.68782,-139.68782 z m 0,131.92739 c 4.28376,0 7.76043,3.47667 7.76043,7.76043 0,4.28376 -3.47667,7.76044 -7.76043,7.76044 -4.28376,0 -7.76043,-3.47668 -7.76043,-7.76044 0,-4.28376 3.47667,-7.76043 7.76043,-7.76043 z" />
        <path
           inkscape:connector-curvature="0"
           id="path3992"
           style="fill:#505050;fill-opacity:1;stroke:none"
           d="m -265.53209,272.29653 c 68.5712,0 124.16695,55.60351 124.16695,124.16695 0,68.5712 -55.59575,124.16696 -124.16695,124.16696 -68.56344,0 -124.16695,-55.59576 -124.16695,-124.16696 0,-68.56344 55.60351,-124.16695 124.16695,-124.16695 z m 0,116.40652 c 4.28376,0 7.76043,3.47667 7.76043,7.76043 0,4.28376 -3.47667,7.76044 -7.76043,7.76044 -4.28376,0 -7.76043,-3.47668 -7.76043,-7.76044 0,-4.28376 3.47667,-7.76043 7.76043,-7.76043 z" />
        <path
           inkscape:connector-curvature="0"
           id="path3994"
           style="fill:#505050;fill-opacity:1;stroke:none"
           d="m -265.53209,287.8174 c 59.98816,0 108.64608,48.65327 108.64608,108.64608 0,59.98816 -48.65792,108.64609 -108.64608,108.64609 -59.99282,0 -108.64608,-48.65793 -108.64608,-108.64609 0,-59.99281 48.65326,-108.64608 108.64608,-108.64608 z m 0,100.88565 c 4.28376,0 7.76043,3.47667 7.76043,7.76043 0,4.28376 -3.47667,7.76044 -7.76043,7.76044 -4.28376,0 -7.76043,-3.47668 -7.76043,-7.76044 0,-4.28376 3.47667,-7.76043 7.76043,-7.76043 z" />
        <path
           inkscape:connector-curvature="0"
           id="path3996"
           style="fill:#505050;fill-opacity:1;stroke:none"
           d="m -265.53209,303.33827 c 51.42064,0 93.12522,41.70147 93.12522,93.12521 0,51.42064 -41.70458,93.12522 -93.12522,93.12522 -51.42374,0 -93.12522,-41.70458 -93.12522,-93.12522 0,-51.42374 41.70148,-93.12521 93.12522,-93.12521 z m 0,85.36478 c 4.28376,0 7.76043,3.47667 7.76043,7.76043 0,4.28376 -3.47667,7.76044 -7.76043,7.76044 -4.28376,0 -7.76043,-3.47668 -7.76043,-7.76044 0,-4.28376 3.47667,-7.76043 7.76043,-7.76043 z" />
        <path
           inkscape:connector-curvature="0"
           id="path3998"
           style="fill:#505050;fill-opacity:1;stroke:none"
           d="m -265.53209,318.85914 c 42.85312,0 77.60435,34.75122 77.60435,77.60434 0,42.85312 -34.75123,77.60435 -77.60435,77.60435 -42.85312,0 -77.60435,-34.75123 -77.60435,-77.60435 0,-42.85312 34.75123,-77.60434 77.60435,-77.60434 z m 0,69.84391 c 4.28376,0 7.76043,3.47667 7.76043,7.76043 0,4.28376 -3.47667,7.76044 -7.76043,7.76044 -4.28376,0 -7.76043,-3.47668 -7.76043,-7.76044 0,-4.28376 3.47667,-7.76043 7.76043,-7.76043 z" />
        <path
           inkscape:connector-curvature="0"
           id="path4000"
           style="fill:#505050;fill-opacity:1;stroke:none"
           d="m -265.53209,334.38 c 34.2856,0 62.08348,27.80099 62.08348,62.08348 0,34.2856 -27.79788,62.08348 -62.08348,62.08348 -34.2825,0 -62.08348,-27.79788 -62.08348,-62.08348 0,-34.28249 27.80098,-62.08348 62.08348,-62.08348 z m 0,54.32305 c 4.28376,0 7.76043,3.47667 7.76043,7.76043 0,4.28376 -3.47667,7.76044 -7.76043,7.76044 -4.28376,0 -7.76043,-3.47668 -7.76043,-7.76044 0,-4.28376 3.47667,-7.76043 7.76043,-7.76043 z" />
        <path
           inkscape:connector-curvature="0"
           id="path4002"
           style="fill:#505050;fill-opacity:1;stroke:none"
           d="m -265.53209,349.90087 c 25.71808,0 46.56261,20.85074 46.56261,46.56261 0,25.71808 -20.84453,46.56261 -46.56261,46.56261 -25.71187,0 -46.56261,-20.84453 -46.56261,-46.56261 0,-25.71187 20.85074,-46.56261 46.56261,-46.56261 z m 0,38.80218 c 4.28376,0 7.76043,3.47667 7.76043,7.76043 0,4.28376 -3.47667,7.76044 -7.76043,7.76044 -4.28376,0 -7.76043,-3.47668 -7.76043,-7.76044 0,-4.28376 3.47667,-7.76043 7.76043,-7.76043 z" />
        <path
           inkscape:connector-curvature="0"
           id="path4004"
           style="fill:#505050;fill-opacity:1;stroke:none"
           d="m -265.53209,365.42174 c 17.13504,0 31.04174,13.90049 31.04174,31.04174 0,17.13504 -13.9067,31.04174 -31.04174,31.04174 -17.14125,0 -31.04174,-13.9067 -31.04174,-31.04174 0,-17.14125 13.90049,-31.04174 31.04174,-31.04174 z m 0,23.28131 c 4.28376,0 7.76043,3.47667 7.76043,7.76043 0,4.28376 -3.47667,7.76044 -7.76043,7.76044 -4.28376,0 -7.76043,-3.47668 -7.76043,-7.76044 0,-4.28376 3.47667,-7.76043 7.76043,-7.76043 z m 0,0 c 4.28376,0 7.76043,3.47667 7.76043,7.76043 0,4.28376 -3.47667,7.76044 -7.76043,7.76044 -4.28376,0 -7.76043,-3.47668 -7.76043,-7.76044 0,-4.28376 3.47667,-7.76043 7.76043,-7.76043 z m 0,0 c 4.28376,0 7.76043,3.47667 7.76043,7.76043 0,4.28376 -3.47667,7.76044 -7.76043,7.76044 -4.28376,0 -7.76043,-3.47668 -7.76043,-7.76044 0,-4.28376 3.47667,-7.76043 7.76043,-7.76043 z" />
        <path
           inkscape:connector-curvature="0"
           id="path4006"
           style="fill:#505050;fill-opacity:1;stroke:none"
           d="m -265.53209,380.94261 c 8.56752,0 15.52087,6.95025 15.52087,15.52087 0,8.56752 -6.95335,15.52087 -15.52087,15.52087 -8.57062,0 -15.52087,-6.95335 -15.52087,-15.52087 0,-8.57062 6.95025,-15.52087 15.52087,-15.52087 z m 0,7.76044 c 4.28376,0 7.76043,3.47667 7.76043,7.76043 0,4.28376 -3.47667,7.76044 -7.76043,7.76044 -4.28376,0 -7.76043,-3.47668 -7.76043,-7.76044 0,-4.28376 3.47667,-7.76043 7.76043,-7.76043 z" />
      </g>
      <path
         transform="matrix(0.1518794,-0.95648179,0.95648179,0.1518794,-1528.0316,903.79979)"
         inkscape:transform-center-y="5.3936016"
         inkscape:transform-center-x="-0.90152946"
         d="m -259.1077,1368.0839 -3.5757,-1.2944 -3.57571,-1.2943 2.90877,-2.4495 2.90877,-2.4495 0.66693,3.7438 z"
         inkscape:randomized="0"
         inkscape:rounded="0"
         inkscape:flatsided="false"
         sodipodi:arg2="1.918101"
         sodipodi:arg1="0.87090346"
         sodipodi:r2="2.1955211"
         sodipodi:r1="4.3910422"
         sodipodi:cy="1364.7251"
         sodipodi:cx="-261.93613"
         sodipodi:sides="3"
         id="path4394"
         style="fill:#505050;fill-opacity:1"
         sodipodi:type="star" />
      <ellipse
         ry="3.3140616"
         rx="3.4385276"
         cy="1321.1764"
         cx="-262.3837"
         id="path4398"
         style="fill:#505050;fill-opacity:1" />
    </g>
  </g>
</svg>
