<?xml version="1.0" encoding="UTF-8" standalone="no"?>
<svg
   version="1.1"
   id="svg1"
   width="16"
   height="16"
   viewBox="0 0 16 16"
   xml:space="preserve"
   xmlns="http://www.w3.org/2000/svg"
   xmlns:svg="http://www.w3.org/2000/svg"><defs
     id="defs1" /><g
     id="g1"><g
       id="g2"
       transform="matrix(0.03866004,0,0,0.03866004,3.6490115,0.15197798)"><path
         fill-rule="evenodd"
         clip-rule="evenodd"
         d="m 48.859,43.518 c 8.424,17.64 2.736,140.832 -7.128,184.032 -9.864,43.272 -19.728,98.28 -22.032,144.576 -1.008,19.728 2.016,27.504 14.904,27.504 22.752,0 51.624,-47.952 87.84,-46.872 36.288,1.08 47.808,55.008 64.8,54.648 16.992,-0.36 30.672,-6.264 30.816,-58.752 C 218.563,191.981 87.235,64.973 48.859,43.518 Z"
         id="path1" /><path
         fill-rule="evenodd"
         clip-rule="evenodd"
         d="m 162.763,168.726 c 7.992,13.464 28.368,3.096 29.232,-12.096 0.864,-15.192 -1.368,-34.344 -11.232,-35.064 -9.864,-0.72 -16.92,-10.584 -26.784,-11.304 -9.864,-0.72 -20.448,9.144 -25.056,-3.96 -4.608,-13.104 12.384,-18.648 25.056,-20.736 -11.304,-11.304 -17.928,-23.832 -22.896,-36.864 -4.968,-13.032 -8.64,-24.984 5.256,-30.096 13.896,-5.112 12.744,21.168 28.656,33.192 -4.68,-17.712 -6.408,-25.056 -6.048,-35.352 0.36,-10.296 -0.36,-18.144 14.256,-16.128 14.616,2.016 8.28,32.4 19.656,44.784 3.456,-11.736 5.544,-26.64 13.896,-32.76 8.352,-6.12 27.36,-6.264 15.264,18.864 -12.096,25.128 3.528,38.736 -0.144,58.536 -3.672,19.8 -15.048,16.2 -19.944,28.944 -4.896,12.744 2.88,41.76 -6.336,54.792 -9.216,13.032 -10.872,33.048 -4.896,49.032 -18.36,-17.136 -27.936,-53.784 -27.936,-53.784 z"
         id="path2" /><path
         fill-rule="evenodd"
         clip-rule="evenodd"
         d="m 48.355,185.646 c -7.416,50.832 -33.192,56.88 -34.488,77.976 -1.296,21.096 6.84,23.112 6.336,42.624 -0.504,19.512 -17.856,27.432 -19.944,38.016 -2.088,10.584 8.928,13.968 15.336,13.968 6.408,0 12.816,-28.08 15.408,-45.936 2.592,-17.856 -8.496,-28.368 -8.496,-40.608 0,-12.24 16.056,-34.632 13.104,-14.976 13.32,-21.024 19.657,-47.809 12.744,-71.064 z"
         id="path3" /><path
         fill-rule="evenodd"
         clip-rule="evenodd"
         fill="#ffffff"
         d="m 58.292,205.013 c -5.616,27.504 -40.68,181.08 -22.824,183.024 17.856,1.944 43.272,-47.52 84.888,-47.16 41.688,0.36 58.104,55.44 68.256,55.08 10.152,-0.36 16.848,3.6 17.928,-58.464 1.08,-62.064 -36.792,-141.336 -59.184,-176.256 -30.385,1.944 -63.073,26.281 -89.064,43.776 z"
         id="path4" /><g
         id="g15">
	<path
   fill="none"
   d="m 139.162,172.181 c -1.95,-18.251 -19.12,-25.421 -35.661,-23.168 -13.889,1.893 -32.403,13.613 -34.107,28.64 -1.921,16.937 11.402,32.522 28.361,33.203 15.03,0.604 31.176,-6.668 37.93,-20.79 2.73,-5.704 3.797,-11.578 3.477,-17.885"
   id="path5" />
	<path
   d="m 147.082,171.533 c -1.662,-17.195 -14.407,-27.988 -30.895,-30.627 -15.924,-2.549 -33.26,4.998 -44.408,16.146 -12.538,12.538 -13.039,29.978 -4.26,44.833 8.661,14.657 27.847,19.501 43.563,15.835 21.506,-5.015 37.398,-23.824 36,-46.187"
   id="path6" />
	<radialGradient
   id="SVGID_1_"
   cx="86.629898"
   cy="167.06931"
   r="54.7155"
   gradientUnits="userSpaceOnUse">
		<stop
   offset="0"
   style="stop-color:#FFFFFF"
   id="stop6" />
		<stop
   offset="0.0604"
   style="stop-color:#FBC8B4"
   id="stop7" />
		<stop
   offset="0.0712"
   style="stop-color:#FBC3B0"
   id="stop8" />
		<stop
   offset="0.1829"
   style="stop-color:#F7978B"
   id="stop9" />
		<stop
   offset="0.2995"
   style="stop-color:#F4716B"
   id="stop10" />
		<stop
   offset="0.4199"
   style="stop-color:#F15251"
   id="stop11" />
		<stop
   offset="0.5453"
   style="stop-color:#EF3A3D"
   id="stop12" />
		<stop
   offset="0.6778"
   style="stop-color:#EE292F"
   id="stop13" />
		<stop
   offset="0.822"
   style="stop-color:#ED1F27"
   id="stop14" />
		<stop
   offset="1"
   style="stop-color:#ED1C24"
   id="stop15" />
	</radialGradient>
	<path
   fill="url(#SVGID_1_)"
   stroke="#000000"
   d="m 139.162,177.941 c -1.493,15.627 -13.947,28.182 -28.944,31.824 -15.87,3.854 -33.393,-2.257 -39.096,-18.576 -2.912,-8.332 -2.37,-16.879 2.637,-24.198 4.223,-6.171 11.033,-11 17.779,-14.066 13.924,-6.326 33.832,-7.029 43.531,7.077 3.675,5.346 4.318,11.639 4.093,17.939"
   id="path15"
   style="fill:url(#SVGID_1_)" />
</g></g></g></svg>
