<?xml version="1.0" encoding="UTF-8" standalone="no"?>
<svg
   xmlns:dc="http://purl.org/dc/elements/1.1/"
   xmlns:cc="http://creativecommons.org/ns#"
   xmlns:rdf="http://www.w3.org/1999/02/22-rdf-syntax-ns#"
   xmlns:svg="http://www.w3.org/2000/svg"
   xmlns="http://www.w3.org/2000/svg"
   xmlns:sodipodi="http://sodipodi.sourceforge.net/DTD/sodipodi-0.dtd"
   xmlns:inkscape="http://www.inkscape.org/namespaces/inkscape"
   width="24"
   height="24"
   viewBox="0 0 24 24"
   id="svg30571"
   version="1.1"
   inkscape:version="0.91+devel r"
   sodipodi:docname="gimp-warning-24.svg">
  <defs
     id="defs30573" />
  <sodipodi:namedview
     id="base"
     pagecolor="#ffffff"
     bordercolor="#666666"
     borderopacity="1"
     inkscape:pageopacity="0"
     inkscape:pageshadow="2"
     inkscape:zoom="5.6568543"
     inkscape:cx="4.8515625"
     inkscape:cy="12.488086"
     inkscape:document-units="px"
     inkscape:current-layer="layer1"
     showgrid="true"
     units="px"
     inkscape:snap-page="true"
     inkscape:snap-bbox="true"
     inkscape:bbox-paths="true"
     inkscape:bbox-nodes="true"
     inkscape:snap-bbox-edge-midpoints="true"
     inkscape:snap-bbox-midpoints="true"
     inkscape:object-paths="true"
     inkscape:snap-intersection-paths="true"
     inkscape:object-nodes="true"
     inkscape:snap-smooth-nodes="true"
     inkscape:snap-midpoints="true"
     inkscape:snap-object-midpoints="true"
     inkscape:snap-center="true"
     inkscape:snap-text-baseline="true"
     showborder="false"
     inkscape:window-width="1920"
     inkscape:window-height="1016"
     inkscape:window-x="0"
     inkscape:window-y="27"
     inkscape:window-maximized="1"
     inkscape:snap-global="false"
     showguides="false">
    <inkscape:grid
       type="xygrid"
       id="grid4237" />
  </sodipodi:namedview>
  <metadata
     id="metadata30576">
    <rdf:RDF>
      <cc:Work
         rdf:about="">
        <dc:format>
          image/svg+xml
        </dc:format>
        <dc:type
           rdf:resource="http://purl.org/dc/dcmitype/StillImage" />
        <dc:creator>
          <cc:Agent>
            <dc:title>Klaus Staedtler       </dc:title>
          </cc:Agent>
        </dc:creator>
        <dc:title></dc:title>
      </cc:Work>
    </rdf:RDF>
  </metadata>
  <g
     inkscape:label="Layer 1"
     inkscape:groupmode="layer"
     id="layer1"
     transform="translate(0,-1028.3622)">
    <g
       id="g3950"
       transform="matrix(1.5000679,0,0,1.5000593,-8.3563217e-4,-526.24351)">
      <path
         style="color:#bebebe;display:inline;overflow:visible;visibility:visible;fill:#bebebe;fill-opacity:1;fill-rule:nonzero;stroke:none;stroke-width:2.75991654;marker:none;enable-background:new"
         d="M 11.902344,0.00390625 C 11.109475,-0.04259375 10.336789,0.45865007 9.734375,1.5625 L 0.3046875,20.226562 C -0.50020645,21.777412 0.37758976,24 1.9550781,24 H 21.804688 c 1.481207,0 2.870447,-1.866938 1.83789,-3.773438 L 14.119141,1.6640625 C 13.517556,0.62381257 12.695213,0.04980625 11.902344,0.00390625 Z M 12,6 c 1.380171,0.0225 1.484542,0.8790532 1.552734,2.0019531 V 14.339844 C 13.563294,15.190344 12.797199,16 12,16 11.202816,16 10.523886,15.190344 10.535156,14.339844 V 8.0019531 C 10.554331,6.8756032 10.745871,5.9844 12,6 Z m 0,11 c 1.098795,0 2.000018,0.9012 2,2 1.8e-5,1.0988 -0.901205,2 -2,2 -1.098795,0 -2.0000182,-0.9012 -2,-2 -1.82e-5,-1.0988 0.901205,-2 2,-2 z"
         transform="matrix(0.66666671,0,0,0.66666671,0,1036.3622)"
         id="path18112"
         inkscape:connector-curvature="0" />
    </g>
  </g>
</svg>
