<?xml version="1.0" encoding="UTF-8" standalone="no"?>
<!-- Created with Inkscape (http://www.inkscape.org/) -->

<svg
   xmlns:dc="http://purl.org/dc/elements/1.1/"
   xmlns:cc="http://creativecommons.org/ns#"
   xmlns:rdf="http://www.w3.org/1999/02/22-rdf-syntax-ns#"
   xmlns:svg="http://www.w3.org/2000/svg"
   xmlns="http://www.w3.org/2000/svg"
   xmlns:sodipodi="http://sodipodi.sourceforge.net/DTD/sodipodi-0.dtd"
   xmlns:inkscape="http://www.inkscape.org/namespaces/inkscape"
   id="svg7384"
   height="24"
   width="24"
   version="1.1"
   sodipodi:docname="gimp-display.svg"
   viewBox="0 0 24 24"
   inkscape:version="0.92pre1 unknown">
  <defs
     id="defs10" />
  <sodipodi:namedview
     pagecolor="#ffffff"
     bordercolor="#666666"
     borderopacity="1"
     objecttolerance="10"
     gridtolerance="10"
     guidetolerance="10"
     inkscape:pageopacity="0"
     inkscape:pageshadow="2"
     inkscape:window-width="1920"
     inkscape:window-height="1016"
     id="namedview8"
     showgrid="true"
     inkscape:zoom="22.395398"
     inkscape:cx="3.9609425"
     inkscape:cy="10.947034"
     inkscape:window-x="0"
     inkscape:window-y="27"
     inkscape:window-maximized="1"
     inkscape:current-layer="svg7384">
    <inkscape:grid
       type="xygrid"
       id="grid4233" />
  </sodipodi:namedview>
  <metadata
     id="metadata90">
    <rdf:RDF>
      <cc:Work
         rdf:about="">
        <dc:format>image/svg+xml</dc:format>
        <dc:type
           rdf:resource="http://purl.org/dc/dcmitype/StillImage" />
        <dc:title>Gnome Symbolic Icon Theme</dc:title>
      </cc:Work>
    </rdf:RDF>
  </metadata>
  <title
     id="title9167">Gnome Symbolic Icon Theme</title>
  <g
     id="g4239"
     transform="scale(1.5)">
    <g
       transform="translate(-161,-447)"
       id="layer10">
      <path
         inkscape:connector-curvature="0"
         d="m 164,447.66667 c -1.662,0 -3,1.338 -3,3 V 458 c 0,1.662 1.338,3 3,3 h 10 c 1.662,0 3,-1.338 3,-3 v -7.33333 c 0,-1.662 -1.338,-3 -3,-3 z m 0,2 h 10 c 0.554,0 1,0.446 1,1 V 458 c 0,0.554 -0.446,1 -1,1 h -10 c -0.554,0 -1,-0.446 -1,-1 v -7.33333 c 0,-0.554 0.446,-1 1,-1 z"
         style="fill:#bebebe"
         id="rect3773-3"
         sodipodi:nodetypes="ssssssssssssssssss" />
      <path
         inkscape:connector-curvature="0"
         d="m 169,463 c 3,0 4,-1.33333 4,-1.33333 h -1 -6 -1 c 0,0 1,1.33333 4,1.33333 z"
         style="fill:#bebebe"
         id="rect3778-2"
         sodipodi:nodetypes="sccccs" />
    </g>
  </g>
</svg>
