<?xml version="1.0" encoding="UTF-8" standalone="no"?>
<svg
   xmlns:osb="http://www.openswatchbook.org/uri/2009/osb"
   xmlns:dc="http://purl.org/dc/elements/1.1/"
   xmlns:cc="http://creativecommons.org/ns#"
   xmlns:rdf="http://www.w3.org/1999/02/22-rdf-syntax-ns#"
   xmlns:svg="http://www.w3.org/2000/svg"
   xmlns="http://www.w3.org/2000/svg"
   xmlns:xlink="http://www.w3.org/1999/xlink"
   xmlns:sodipodi="http://sodipodi.sourceforge.net/DTD/sodipodi-0.dtd"
   xmlns:inkscape="http://www.inkscape.org/namespaces/inkscape"
   viewBox="0 0 23.999999 24"
   id="svg7384"
   height="24"
   width="24"
   version="1.1"
   inkscape:version="0.92pre1 unknown"
   sodipodi:docname="gimp-prefs-new-image.svg">
  <sodipodi:namedview
     pagecolor="#ffffff"
     bordercolor="#666666"
     borderopacity="1"
     objecttolerance="10"
     gridtolerance="10"
     guidetolerance="10"
     inkscape:pageopacity="0"
     inkscape:pageshadow="2"
     inkscape:window-width="501"
     inkscape:window-height="405"
     id="namedview1509"
     showgrid="true"
     inkscape:zoom="14.75"
     inkscape:cx="-2.0640044"
     inkscape:cy="6.3389831"
     inkscape:window-x="0"
     inkscape:window-y="27"
     inkscape:window-maximized="0"
     inkscape:current-layer="svg7384">
    <inkscape:grid
       type="xygrid"
       id="grid4257" />
  </sodipodi:namedview>
  <metadata
     id="metadata90">
    <rdf:RDF>
      <cc:Work
         rdf:about="">
        <dc:format>image/svg+xml</dc:format>
        <dc:type
           rdf:resource="http://purl.org/dc/dcmitype/StillImage" />
        <dc:title />
        <dc:contributor>
          <cc:Agent>
            <dc:title>Barbara Muraus, Jakub Steiner, Klaus Staedtler</dc:title>
          </cc:Agent>
        </dc:contributor>
        <dc:description>Images originally created as the &quot;Art Libre&quot; icon set. Extended and adopted for GIMP</dc:description>
      </cc:Work>
    </rdf:RDF>
  </metadata>
  <defs
     id="defs7386">
    <linearGradient
       gradientTransform="matrix(0.34682586,0,0,0.30620888,-39.35207,761.03851)"
       osb:paint="solid"
       id="linearGradient19282-4">
      <stop
         id="stop19284-0"
         offset="0"
         style="stop-color:#bebebe;stop-opacity:1;" />
    </linearGradient>
    <linearGradient
       gradientTransform="matrix(1.6,0,0,1.5714286,1113.1101,559.09429)"
       gradientUnits="userSpaceOnUse"
       y2="7.5"
       x2="127"
       y1="7.5"
       x1="117"
       id="linearGradient7458"
       xlink:href="#linearGradient19282-4" />
    <linearGradient
       gradientTransform="matrix(1.5741922,0,0,1.5722498,1094.1848,559.6)"
       gradientUnits="userSpaceOnUse"
       y2="3.5441902"
       x2="130.98772"
       y1="3.5441902"
       x1="124"
       id="linearGradient7460"
       xlink:href="#linearGradient19282-4" />
    <linearGradient
       gradientTransform="matrix(1.4986268,0,0,1.4986268,1042.7728,533.48683)"
       gradientUnits="userSpaceOnUse"
       y2="8.9935856"
       x2="129"
       y1="8.9935856"
       x1="115"
       id="linearGradient7462"
       xlink:href="#linearGradient19282-4" />
  </defs>
  <g
     id="g4263">
    <path
       sodipodi:nodetypes="ccccccccccc"
       inkscape:connector-curvature="0"
       id="rect5882-6"
       d="M 0,2 V 24.000006 H 22 V 12 c -0.537482,-0.339775 -1.579201,-0.800057 -2,-1 v 7.005498 H 2.0002462 L 1.9997538,4 H 11.9 L 11,2 Z"
       style="fill:url(#linearGradient7462);fill-opacity:1;stroke:none;stroke-width:1.49862683" />
    <path
       sodipodi:nodetypes="cccsccccccccccccccccccccccccccc"
       inkscape:connector-curvature="0"
       id="rect10683-6"
       d="M 3,5 V 17 H 4 C 4,15.813336 5.1745121,14.5 6.5,14.5 7.825488,14.5 9,15.813336 9,17 h 2 v -2.357143 c 2.24e-4,-1.549004 -1.1638402,-2.316317 -3.2000001,-3.241071 0,0 0.047201,5.81e-4 0.4,0 C 8.8528479,11.533 10.411392,11.951943 11,12.334821 10.842896,11.776116 10.774384,10.930703 10.3,10.223214 9.8255841,9.5157886 7.7999999,8.1116071 7.7999999,8.1116071 l 0.1,-0.049107 c 0.08912,-0.063171 1.51248,1.2029286 1.9999999,1.0803571 C 9.6837595,8.63219 9.4848159,8.1455029 9.2499999,7.8660714 L 9.5499998,7.8169644 C 10.120064,8.7464172 10.296943,8.9532486 10.9,9.6339286 c 0.199552,0.089729 -0.04976,-0.066471 1.699999,-0.9330357 v 0.4419643 c 0,0 -1.699999,0.4870329 -1.199999,1.4241078 0.355967,0.480432 0.637168,1.587535 1.199999,1.718749 0,0 0.07877,-0.764915 0.900001,-1.571428 L 14,7.5714286 12.5,5 Z m 16,5.861607 c -1.277152,0.606014 -3.227504,2.094428 -4.45,2.455357 -0.113616,0.173551 -0.263088,0.329613 -0.35,0.540179 V 17 H 19 Z"
       style="opacity:0.3;fill:url(#linearGradient7458);fill-opacity:1;stroke:none;stroke-width:1.58564985" />
    <path
       inkscape:connector-curvature="0"
       id="path12190"
       d="m 22.44791,10.933396 c -0.6347,0.472681 -3.132596,-1.7665791 -3.914923,-1.769928 -0.782657,-0.00315 -3.327417,2.247861 -3.958794,1.769928 -0.631141,-0.47776 1.17175,-3.2154545 0.93304,-3.985401 C 15.268459,6.1777341 12.772137,4.8621541 13.016861,4.0939057 13.261506,3.3259245 16.094485,3.5922637 16.72931,3.1197398 17.36437,2.647027 17.734211,-0.00312574 18.516868,3.0343442e-6 19.299194,0.00314703 19.714875,2.6418072 20.34589,3.1197398 c 0.631267,0.4781053 3.399106,0.2507738 3.638084,1.0209246 0.238869,0.7698835 -2.267765,2.0632634 -2.512599,2.8311817 -0.244929,0.7681855 1.611484,3.4886639 0.976535,3.9615499 z"
       style="color:#000000;display:inline;overflow:visible;visibility:visible;fill:url(#linearGradient7460);fill-opacity:1;fill-rule:nonzero;stroke:none;stroke-width:3.14644146;marker:none;enable-background:accumulate" />
  </g>
</svg>
