<?xml version="1.0" encoding="UTF-8" standalone="no"?>
<svg
   xmlns:dc="http://purl.org/dc/elements/1.1/"
   xmlns:cc="http://creativecommons.org/ns#"
   xmlns:rdf="http://www.w3.org/1999/02/22-rdf-syntax-ns#"
   xmlns:svg="http://www.w3.org/2000/svg"
   xmlns="http://www.w3.org/2000/svg"
   xmlns:sodipodi="http://sodipodi.sourceforge.net/DTD/sodipodi-0.dtd"
   xmlns:inkscape="http://www.inkscape.org/namespaces/inkscape"
   width="24"
   height="24"
   viewBox="0 0 24 24"
   id="svg30571"
   version="1.1"
   inkscape:version="0.91+devel r"
   sodipodi:docname="gimp-floating-selection-24.svg">
  <defs
     id="defs30573" />
  <sodipodi:namedview
     id="base"
     pagecolor="#ffffff"
     bordercolor="#666666"
     borderopacity="1"
     inkscape:pageopacity="0"
     inkscape:pageshadow="2"
     inkscape:zoom="22.627417"
     inkscape:cx="-3.9298633"
     inkscape:cy="8.6752703"
     inkscape:document-units="px"
     inkscape:current-layer="layer1"
     showgrid="true"
     units="px"
     inkscape:snap-page="true"
     inkscape:snap-bbox="true"
     inkscape:bbox-paths="true"
     inkscape:bbox-nodes="true"
     inkscape:snap-bbox-edge-midpoints="true"
     inkscape:snap-bbox-midpoints="true"
     inkscape:object-paths="true"
     inkscape:snap-intersection-paths="true"
     inkscape:object-nodes="true"
     inkscape:snap-smooth-nodes="true"
     inkscape:snap-midpoints="true"
     inkscape:snap-object-midpoints="true"
     inkscape:snap-center="true"
     inkscape:snap-text-baseline="true"
     showborder="false"
     inkscape:window-width="1920"
     inkscape:window-height="1016"
     inkscape:window-x="0"
     inkscape:window-y="27"
     inkscape:window-maximized="1"
     inkscape:snap-global="false"
     showguides="false">
    <inkscape:grid
       type="xygrid"
       id="grid4372" />
  </sodipodi:namedview>
  <metadata
     id="metadata30576">
    <rdf:RDF>
      <cc:Work
         rdf:about="">
        <dc:format>
          image/svg+xml
        </dc:format>
        <dc:type
           rdf:resource="http://purl.org/dc/dcmitype/StillImage" />
        <dc:creator>
          <cc:Agent>
            <dc:title>Klaus Staedtler       </dc:title>
          </cc:Agent>
        </dc:creator>
        <dc:title></dc:title>
      </cc:Work>
    </rdf:RDF>
  </metadata>
  <g
     inkscape:label="Layer 1"
     inkscape:groupmode="layer"
     id="layer1"
     transform="translate(0,-1028.3622)">
    <g
       id="g4254">
      <path
         style="fill:#bebebe;stroke-width:1.58623374"
         d="M 24,1029.3622 6.0602501,1029.4571 0,1039.3622 h 17.998532 z m -17.6487879,0.529 1.4724472,0.04 -0.8317423,1.4859 H 5.4871411 l 0.864071,-1.5252 z m 2.868479,0 1.4695089,0.04 -0.8288039,1.4859 h -1.504776 l 0.864071,-1.5252 z m 2.8655399,0 1.472448,0.04 -0.831743,1.4859 H 11.22116 l 0.864071,-1.5252 z m 2.865541,0 1.472444,0.04 -0.831739,1.4859 h -1.504776 l 0.864071,-1.5252 z m 2.865539,0 1.472447,0.04 -0.831741,1.4859 h -1.504776 l 0.86407,-1.5252 z m 2.868479,0 1.469508,0.04 -0.828802,1.4859 H 19.82072 l 0.86407,-1.5252 z m -15.6414403,2.3057 1.4724472,0.037 -0.8317407,1.4894 h -1.504776 l 0.8640695,-1.5254 z m 14.3923603,0.1133 1.472445,0.038 -0.831741,1.486 h -1.504776 l 0.864072,-1.5251 z m -15.6561358,2.2143 1.4724457,0.037 -0.8317407,1.486 h -1.504776 l 0.864071,-1.5218 z m 14.3952978,0.1134 1.469507,0.037 -0.831742,1.4893 h -1.504776 l 0.867011,-1.5253 z m -15.7237335,2.4722 1.4695084,0.037 -0.8317423,1.486 H 1.5841287 l 0.8670097,-1.522 z m 2.8655401,0 1.4724473,0.037 -0.8317422,1.486 H 4.4526078 l 0.8640708,-1.522 z m 2.8655403,0 1.4724473,0.037 -0.8317424,1.486 H 7.3181479 l 0.864071,-1.522 z m 2.8655401,0 1.472446,0.037 -0.831741,1.486 h -1.504776 l 0.864071,-1.522 z m 2.868479,0 1.469507,0.037 -0.831741,1.486 h -1.504776 l 0.86701,-1.522 z m 2.86554,0 1.469506,0.037 -0.8288,1.486 h -1.504776 l 0.86407,-1.522 z"
         id="path8"
         inkscape:connector-curvature="0" />
      <path
         inkscape:connector-curvature="0"
         id="path8-8"
         d="M 24,1041.3622 6.0602501,1041.4575 0,1051.3622 H 17.998532 L 24,1041.3628 Z m -17.6487879,0.529 1.4724472,0.04 -0.8317423,1.4857 H 5.4871411 l 0.864071,-1.525 z m 2.868479,0 1.4695089,0.04 -0.8288039,1.4857 h -1.504776 l 0.864071,-1.525 z m 2.8655399,0 1.472448,0.04 -0.831743,1.4857 H 11.22116 l 0.864071,-1.525 z m 2.865541,0 1.472444,0.04 -0.831739,1.4857 h -1.504776 l 0.864071,-1.525 z m 2.865539,0 1.472447,0.04 -0.831741,1.4857 h -1.504776 l 0.86407,-1.525 z m 2.868479,0 1.469508,0.04 -0.828802,1.4857 H 19.82072 l 0.86407,-1.525 z m -15.6414403,2.3056 1.4724472,0.037 -0.8317407,1.4894 h -1.504776 l 0.8640695,-1.5254 z m 14.3923603,0.1133 1.472445,0.038 -0.831741,1.486 h -1.504776 l 0.864072,-1.525 z m -15.6561358,2.214 1.4724457,0.037 -0.8317407,1.4857 h -1.504776 l 0.864071,-1.5217 z m 14.3952978,0.1133 1.469507,0.037 -0.831742,1.4891 h -1.504776 l 0.867011,-1.5251 z m -15.7237335,2.4721 1.4695084,0.037 -0.8317423,1.486 H 1.5841287 l 0.8670097,-1.5218 z m 2.8655401,0 1.4724473,0.037 -0.8317422,1.486 H 4.4526078 l 0.8640708,-1.5218 z m 2.8655403,0 1.4724473,0.037 -0.8317424,1.486 H 7.3181479 l 0.864071,-1.5218 z m 2.8655401,0 1.472446,0.037 -0.831741,1.486 h -1.504776 l 0.864071,-1.5218 z m 2.868479,0 1.469507,0.037 -0.831741,1.486 h -1.504776 l 0.86701,-1.5218 z m 2.86554,0 1.469506,0.037 -0.8288,1.486 h -1.504776 l 0.86407,-1.5218 z"
         style="opacity:0.3;fill:#bebebe;stroke-width:1.5861938" />
    </g>
  </g>
</svg>
