<?xml version="1.0" encoding="UTF-8" standalone="no"?>
<!-- Created with Inkscape (http://www.inkscape.org/) -->

<svg
   xmlns:osb="http://www.openswatchbook.org/uri/2009/osb"
   xmlns:dc="http://purl.org/dc/elements/1.1/"
   xmlns:cc="http://creativecommons.org/ns#"
   xmlns:rdf="http://www.w3.org/1999/02/22-rdf-syntax-ns#"
   xmlns:svg="http://www.w3.org/2000/svg"
   xmlns="http://www.w3.org/2000/svg"
   xmlns:sodipodi="http://sodipodi.sourceforge.net/DTD/sodipodi-0.dtd"
   xmlns:inkscape="http://www.inkscape.org/namespaces/inkscape"
   id="svg30571"
   version="1.1"
   inkscape:version="0.91+devel r"
   sodipodi:docname="gimp-image.svg"
   height="24"
   width="24"
   viewBox="0 0 24 24">
  <defs
     id="defs30573">
    <linearGradient
       id="linearGradient3947"
       osb:paint="solid">
      <stop
         style="stop-color:#505050;stop-opacity:1;"
         offset="0"
         id="stop3949" />
    </linearGradient>
    <linearGradient
       id="linearGradient19282"
       osb:paint="solid"
       gradientTransform="matrix(1.2178615,0,0,1.043881,-633.30828,4728.4958)">
      <stop
         style="stop-color:#bebebe;stop-opacity:1;"
         offset="0"
         id="stop19284" />
    </linearGradient>
  </defs>
  <sodipodi:namedview
     id="base"
     pagecolor="#ffffff"
     bordercolor="#666666"
     borderopacity="1.0"
     inkscape:pageopacity="0.0"
     inkscape:pageshadow="2"
     inkscape:zoom="16"
     inkscape:cx="12.870733"
     inkscape:cy="10.529464"
     inkscape:document-units="px"
     inkscape:current-layer="svg30571"
     showgrid="true"
     units="px"
     inkscape:snap-page="true"
     inkscape:snap-bbox="true"
     inkscape:bbox-paths="true"
     inkscape:bbox-nodes="true"
     inkscape:snap-bbox-edge-midpoints="true"
     inkscape:snap-bbox-midpoints="true"
     inkscape:object-paths="true"
     inkscape:snap-intersection-paths="true"
     inkscape:object-nodes="true"
     inkscape:snap-smooth-nodes="true"
     inkscape:snap-midpoints="true"
     inkscape:snap-object-midpoints="true"
     inkscape:snap-center="true"
     inkscape:snap-text-baseline="true"
     showborder="false"
     inkscape:window-width="1920"
     inkscape:window-height="1016"
     inkscape:window-x="0"
     inkscape:window-y="27"
     inkscape:window-maximized="1">
    <inkscape:grid
       type="xygrid"
       id="grid4239" />
  </sodipodi:namedview>
  <metadata
     id="metadata30576">
    <rdf:RDF>
      <cc:Work
         rdf:about="">
        <dc:format>image/svg+xml</dc:format>
        <dc:type
           rdf:resource="http://purl.org/dc/dcmitype/StillImage" />
        <dc:title />
        <dc:creator>
          <cc:Agent>
            <dc:title>Klaus Staedtler</dc:title>
          </cc:Agent>
        </dc:creator>
      </cc:Work>
    </rdf:RDF>
  </metadata>
  <g
     inkscape:label="Layer 1"
     inkscape:groupmode="layer"
     id="layer1"
     transform="translate(0,-1036.3622)">
    <g
       id="g4239">
      <path
         sodipodi:nodetypes="cccccccccc"
         inkscape:connector-curvature="0"
         id="rect5882"
         d="m 1,1037.3622 v 22 h 22 v -22 z m 1,1 h 20 v 15 H 2 Z"
         style="fill:#bebebe;fill-opacity:1;stroke:none;stroke-width:1.5658462" />
      <path
         sodipodi:nodetypes="cccaccccccccccccccccccccccccccccccc"
         inkscape:connector-curvature="0"
         id="rect10683"
         d="m 4,1040.3623 v 10.9999 h 1 c 0,-2 1.5857864,-3 3,-3 1.4142136,0 3,1 3,3 h 1 v -2.3571 c 2.24e-4,-1.549 -1.16384,-2.3163 -3.2,-3.241 0,0 0.047152,5e-4 0.4,0 0.652848,0.1312 2.211392,0.5501 2.8,0.933 -0.157104,-0.5587 -0.225616,-1.4041 -0.7,-2.1116 -0.474416,-0.7074 -2.5,-2.1116 -2.5,-2.1116 l 0.1,-0.049 c 0.089088,-0.063 1.51248,1.203 2,1.0804 -0.21624,-0.5107 -0.415184,-0.9973 -0.65,-1.2768 l 0.3,-0.049 c 0.570064,0.9294 0.746944,1.1363 1.35,1.8169 0.199552,0.09 -0.04973,-0.066 1.7,-0.933 v 0.4418 c 0,0 -1.7,0.487 -1.2,1.4241 0.355968,0.4805 0.637168,1.5876 1.2,1.7187 0,0 1.360144,-1.9255 2.4,-2.5535 0,0 -0.350768,-0.7995 -0.35,-1.2277 5.92e-4,-0.3286 0.25,-0.933 0.25,-0.933 0.0371,0.6217 -0.0047,1.3057 0.45,1.9151 l 1.5,-1.9151 h 0.55 c 0,0 -3.601408,3.7535 -3.2,4.3705 0.63128,-0.075 3.2,-0.5401 3.2,-0.5401 v 0.098 c -1.675024,0.5483 -2.873776,1.0823 -3.4,2.3572 v 3.1428 h 5 v -10.9999 z"
         style="opacity:0.3;fill:#bebebe;fill-opacity:1;stroke:none;stroke-width:1.58564246" />
    </g>
  </g>
</svg>
