<?xml version="1.0" encoding="UTF-8" standalone="no"?>
<svg
   xmlns:dc="http://purl.org/dc/elements/1.1/"
   xmlns:cc="http://creativecommons.org/ns#"
   xmlns:rdf="http://www.w3.org/1999/02/22-rdf-syntax-ns#"
   xmlns:svg="http://www.w3.org/2000/svg"
   xmlns="http://www.w3.org/2000/svg"
   xmlns:xlink="http://www.w3.org/1999/xlink"
   xmlns:sodipodi="http://sodipodi.sourceforge.net/DTD/sodipodi-0.dtd"
   xmlns:inkscape="http://www.inkscape.org/namespaces/inkscape"
   viewBox="0 0 24 24"
   id="svg2"
   version="1.1"
   inkscape:version="0.91 r13725"
   sodipodi:docname="gimp-tools-24.svg"
   width="24"
   height="24">
  <metadata
     id="metadata42">
    <rdf:RDF>
      <cc:Work
         rdf:about="">
        <dc:format>image/svg+xml</dc:format>
        <dc:type
           rdf:resource="http://purl.org/dc/dcmitype/StillImage" />
        <dc:title></dc:title>
      </cc:Work>
    </rdf:RDF>
  </metadata>
  <sodipodi:namedview
     pagecolor="#ffffff"
     bordercolor="#666666"
     borderopacity="1"
     objecttolerance="10"
     gridtolerance="10"
     guidetolerance="10"
     inkscape:pageopacity="0"
     inkscape:pageshadow="2"
     inkscape:window-width="1920"
     inkscape:window-height="1016"
     id="namedview40"
     showgrid="true"
     inkscape:zoom="28.341445"
     inkscape:cx="13.603701"
     inkscape:cy="12.49634"
     inkscape:window-x="0"
     inkscape:window-y="27"
     inkscape:window-maximized="1"
     inkscape:current-layer="svg2"
     showguides="false"
     inkscape:snap-global="false">
    <inkscape:grid
       type="xygrid"
       id="grid4150" />
  </sodipodi:namedview>
  <defs
     id="defs4">
    <linearGradient
       id="linearGradient6951">
      <stop
         style="stop-color:#6e3d09;stop-opacity:1;"
         offset="0"
         id="stop6953" />
      <stop
         id="stop6959"
         offset="0.24242425"
         style="stop-color:#ea8113;stop-opacity:1;" />
      <stop
         style="stop-color:#5c3307;stop-opacity:1;"
         offset="0.62121212"
         id="stop6961" />
      <stop
         style="stop-color:#e07c12;stop-opacity:1;"
         offset="1"
         id="stop6955" />
    </linearGradient>
    <linearGradient
       inkscape:collect="always"
       xlink:href="#linearGradient6951"
       id="linearGradient4028"
       x1="8.5101147"
       y1="12.351767"
       x2="14.391122"
       y2="12.351767"
       gradientUnits="userSpaceOnUse" />
  </defs>
  <g
     id="g4041"
     transform="matrix(1.5035068,0,0,1.4999437,-3.6453775,-1.2690844)">
    <path
       inkscape:connector-curvature="0"
       inkscape:r_cy="true"
       inkscape:r_cx="true"
       sodipodi:nodetypes="cssssssc"
       id="path6659-0"
       d="M 3.2756368,8.3574651 C 2.6200906,8.957352 2.2698884,9.6320086 2.4906748,9.8899668 L 3.1653873,10.678275 C 3.397032,10.94892 3.9392237,10.231415 4.6579978,9.6104283 5.3767716,8.9894422 6.0030126,8.6974773 5.7713678,8.4268325 L 5.0966553,7.6385244 C 4.8650106,7.3678796 4.0948549,7.6497 3.3760811,8.2706861 3.3423883,8.2997941 3.307877,8.3279641 3.2756368,8.3574651 Z"
       style="color:#000000;display:inline;overflow:visible;visibility:visible;opacity:1;fill:#bebebe;fill-opacity:1;fill-rule:nonzero;stroke:none;stroke-width:0.29053822;stroke-linecap:round;stroke-linejoin:miter;stroke-miterlimit:4;stroke-dasharray:none;stroke-dashoffset:0;stroke-opacity:1;marker:none;marker-start:none;marker-mid:none;marker-end:none" />
    <g
       transform="translate(2.3869301,0.84681638)"
       id="g4001">
      <g
         id="g4052"
         transform="matrix(1.0021201,0,0,0.97880788,1.2330309,-0.00978808)">
        <path
           style="opacity:0.5;fill:#bebebe;fill-opacity:1"
           id="path28"
           d="M 1.737,3.942 C 2.644,6.823 8.323,10.878 9.911,9.76 11.521,8.627 9.838,2.482 8.061,0.01"
           inkscape:connector-curvature="0" />
        <path
           id="path30"
           d="M 1.737,3.943 C 2.131,5.194 3.692,6.655 5.344,8.12 5.686,7.322 6.587,5.694 9.901,4.278 9.29,2.606 8.703,0.904 8.061,0.01"
           style="fill:#bebebe;fill-opacity:1"
           inkscape:connector-curvature="0" />
        <path
           id="path32"
           d="M 1.737,3.943 C 1.748,3.977 1.76,4.011 1.773,4.046 L 8.119,0.093 C 8.1,0.065 8.081,0.036 8.062,0.01 L 1.738,3.943"
           style="opacity:0.33000004;fill:#bebebe;fill-opacity:1"
           inkscape:connector-curvature="0" />
        <g
           style="fill:url(#linearGradient4028);fill-opacity:1;fill-rule:evenodd"
           id="g34">
          <path
             style="fill:#bebebe;fill-opacity:1;stroke:#bebebe;stroke-width:0.49999857;stroke-miterlimit:4;stroke-dasharray:none;stroke-opacity:1"
             id="path36"
             d="m 1.838,13.01 2.466,0 0,7.101 -2.466,0 z"
             transform="matrix(0.84502,-0.53474,0.53474,0.84502,0,0)"
             inkscape:connector-curvature="0" />
        </g>
      </g>
      <g
         transform="matrix(0.19922346,-0.171041,0.1713155,0.19890422,-7.3547031,12.222308)"
         id="g7038">
        <path
           inkscape:connector-curvature="0"
           id="path6617"
           transform="matrix(2.8856659,2.4814314,-2.4854138,2.8902973,51.600709,-17.075913)"
           d="M 3.03125,8.1992188 C 2.5676682,8.3773697 1.6198049,9.190734 1.3359375,9.6542969 l 0.1328125,1.1542971 3.4472656,4.425781 3.5039063,-2.832031 -4.375,-4.0253909 z M 3.0546875,8.3027344 4.015625,8.4785156 C 3.1144213,8.8894786 1.7233869,10.181074 1.5839844,10.773438 L 1.4179688,9.7324219 C 1.8101637,9.2418112 2.4466687,8.5938979 3.0546875,8.3027344 Z m 1.6191406,0.7753906 1.2714844,1.193359 c -0.7514332,0.07352 -2.777363,1.876154 -2.9238281,2.375 L 1.9707031,11.308594 C 2.313388,10.594647 4.2320316,9.1276471 4.6738281,9.078125 Z"
           style="color:#000000;display:inline;overflow:visible;visibility:visible;fill:#bebebe;fill-opacity:1;fill-rule:nonzero;stroke:#bebebe;stroke-width:0.26254222;stroke-linecap:round;stroke-linejoin:miter;stroke-miterlimit:4;stroke-dasharray:none;stroke-dashoffset:0;stroke-opacity:1;marker:none;marker-start:none;marker-mid:none;marker-end:none" />
        <rect
           ry="0.88388366"
           rx="0.88388413"
           inkscape:r_cy="true"
           inkscape:r_cx="true"
           y="37.536133"
           x="26.512789"
           height="3.9277525"
           width="19.974413"
           id="rect5742"
           style="color:#000000;display:inline;overflow:visible;visibility:visible;opacity:1;fill:#bebebe;fill-opacity:1;fill-rule:nonzero;stroke:#bebebe;stroke-width:1.0000006;stroke-linecap:round;stroke-linejoin:miter;stroke-miterlimit:4;stroke-dasharray:none;stroke-dashoffset:0;stroke-opacity:1;marker:none;marker-start:none;marker-mid:none;marker-end:none" />
      </g>
    </g>
  </g>
</svg>
