<?xml version="1.0" encoding="UTF-8" standalone="no"?>
<!-- Created with Inkscape (http://www.inkscape.org/) -->

<svg
   xmlns:osb="http://www.openswatchbook.org/uri/2009/osb"
   xmlns:dc="http://purl.org/dc/elements/1.1/"
   xmlns:cc="http://creativecommons.org/ns#"
   xmlns:rdf="http://www.w3.org/1999/02/22-rdf-syntax-ns#"
   xmlns:svg="http://www.w3.org/2000/svg"
   xmlns="http://www.w3.org/2000/svg"
   xmlns:xlink="http://www.w3.org/1999/xlink"
   xmlns:sodipodi="http://sodipodi.sourceforge.net/DTD/sodipodi-0.dtd"
   xmlns:inkscape="http://www.inkscape.org/namespaces/inkscape"
   width="24"
   height="24"
   viewBox="0 0 24 24"
   id="svg30571"
   version="1.1"
   inkscape:version="0.92.2 2405546, 2018-03-11"
   sodipodi:docname="gimp-tool-ellipse-select-symbolic.svg"
   inkscape:export-filename="/home/klaus/Bilder/icons/Symbolic/hicolor/24x24/apps/gimp-channel.png"
   inkscape:export-xdpi="98.181816"
   inkscape:export-ydpi="98.181816">
  <defs
     id="defs30573">
    <linearGradient
       id="linearGradient19282-4"
       osb:paint="solid"
       gradientTransform="matrix(0.34682586,0,0,0.30620888,-482.61525,330.965)">
      <stop
         style="stop-color:#bebebe;stop-opacity:1;"
         offset="0"
         id="stop19284-0" />
    </linearGradient>
    <linearGradient
       inkscape:collect="always"
       xlink:href="#linearGradient19282-4"
       id="linearGradient8672"
       x1="4"
       y1="1040.3623"
       x2="20"
       y2="1040.3623"
       gradientUnits="userSpaceOnUse" />
    <linearGradient
       inkscape:collect="always"
       xlink:href="#linearGradient19282-4"
       id="linearGradient9738-5"
       x1="-177"
       y1="48"
       x2="-166"
       y2="48"
       gradientUnits="userSpaceOnUse"
       gradientTransform="matrix(1.6363636,0,0,1.6666557,350.65142,52.715289)" />
  </defs>
  <sodipodi:namedview
     id="base"
     pagecolor="#ffffff"
     bordercolor="#666666"
     borderopacity="1.0"
     inkscape:pageopacity="0.0"
     inkscape:pageshadow="2"
     inkscape:zoom="2.8284273"
     inkscape:cx="-14.791819"
     inkscape:cy="-2.1514226"
     inkscape:document-units="px"
     inkscape:current-layer="layer1"
     showgrid="true"
     units="px"
     inkscape:snap-page="true"
     inkscape:snap-bbox="true"
     inkscape:bbox-paths="true"
     inkscape:bbox-nodes="true"
     inkscape:snap-bbox-edge-midpoints="true"
     inkscape:snap-bbox-midpoints="true"
     inkscape:object-paths="true"
     inkscape:snap-intersection-paths="true"
     inkscape:object-nodes="true"
     inkscape:snap-smooth-nodes="true"
     inkscape:snap-midpoints="true"
     inkscape:snap-object-midpoints="true"
     inkscape:snap-center="true"
     inkscape:snap-text-baseline="true"
     showborder="false"
     inkscape:window-width="1366"
     inkscape:window-height="704"
     inkscape:window-x="0"
     inkscape:window-y="27"
     inkscape:window-maximized="0"
     inkscape:snap-global="false"
     fit-margin-top="0"
     fit-margin-left="0"
     fit-margin-right="0"
     fit-margin-bottom="0">
    <inkscape:grid
       type="xygrid"
       id="grid4369"
       originx="15.031147"
       originy="16.091807" />
  </sodipodi:namedview>
  <metadata
     id="metadata30576">
    <rdf:RDF>
      <cc:Work
         rdf:about="">
        <dc:format>image/svg+xml</dc:format>
        <dc:type
           rdf:resource="http://purl.org/dc/dcmitype/StillImage" />
        <dc:title></dc:title>
        <dc:creator>
          <cc:Agent>
            <dc:title>Klaus Staedtler</dc:title>
          </cc:Agent>
        </dc:creator>
      </cc:Work>
    </rdf:RDF>
  </metadata>
  <g
     inkscape:label="Layer 1"
     inkscape:groupmode="layer"
     id="layer1"
     transform="translate(15.031147,-1044.454)">
    <g
       style="display:inline"
       transform="translate(-15.031147,16.091824)"
       id="gimp-tool-ellipse-select-24"
       inkscape:export-filename="/home/jehan/dev/src/gimp/icons/Symbolic/24/gimp-tool-ellipse-select.png"
       inkscape:export-xdpi="95.999985"
       inkscape:export-ydpi="95.999985">
      <rect
         y="1028.3622"
         x="0"
         height="24"
         width="24"
         id="rect4708-2"
         style="opacity:0;fill:none;fill-opacity:1;stroke:none;stroke-width:1.5" />
      <path
         inkscape:connector-curvature="0"
         style="fill:url(#linearGradient8672);fill-opacity:1;stroke:none;stroke-width:1.29099452"
         d="m 20,1040.3623 a 8,5 0 0 1 -8,5 8,5 0 0 1 -8,-5 8,5 0 0 1 8,-5 8,5 0 0 1 8,5 z"
         id="path4710-9" />
      <path
         inkscape:connector-curvature="0"
         style="fill:url(#linearGradient9738-5);fill-opacity:1;stroke:none;stroke-width:1.65144014"
         d="m 69.197266,122.71484 c -0.554613,0 -1.09883,0.0513 -1.636719,0.10352 v 1.66797 c 0.54054,-0.061 1.072828,-0.10547 1.636719,-0.10547 z m 1.636718,0 v 1.66602 c 0.56389,0 1.094226,0.0445 1.634766,0.10547 v -1.66797 c -0.53788,-0.0522 -1.080156,-0.10352 -1.634766,-0.10352 z m -4.910156,0.3125 c -0.560651,0.1112 -1.109171,0.25322 -1.636719,0.41602 v 1.77148 c 0.527679,-0.1829 1.070046,-0.34095 1.636719,-0.46875 z m 8.181641,0 v 1.71875 c 0.56667,0.1278 1.109039,0.28585 1.636719,0.46875 v -1.77148 c -0.527541,-0.1628 -1.076069,-0.30482 -1.636719,-0.41602 z m -11.453125,1.04102 c -0.584117,0.2587 -1.113835,0.56297 -1.636719,0.88476 v 1.98047 c 0.506405,-0.3787 1.041361,-0.73731 1.636719,-1.04101 z m 14.726562,0 v 1.82422 c 0.59535,0.3037 1.130309,0.66231 1.636719,1.04101 v -1.97851 c -0.52288,-0.3218 -1.052609,-0.62802 -1.636719,-0.88672 z m -16.363281,14.48047 v 1.92578 c 0.522982,0.3219 1.052373,0.62792 1.636719,0.88672 v -1.77149 c -0.598222,-0.3051 -1.129397,-0.65941 -1.636719,-1.04101 z m 18,0 c -0.50732,0.3816 -1.038499,0.73591 -1.636719,1.04101 v 1.77149 c 0.58434,-0.2588 1.113739,-0.56482 1.636719,-0.88672 z m -14.728516,1.71875 v 1.71875 c 0.532637,0.165 1.071781,0.30501 1.636719,0.41601 v -1.66601 c -0.575853,-0.1239 -1.103051,-0.28285 -1.636719,-0.46875 z m 11.455079,0 c -0.53366,0.1859 -1.060869,0.34485 -1.636719,0.46875 v 1.66601 c 0.56494,-0.111 1.104089,-0.25101 1.636719,-0.41601 z m -8.181641,0.67578 v 1.66797 c 0.538461,0.05 1.079963,0.10351 1.636719,0.10351 v -1.66601 c -0.557427,0 -1.100581,-0.0482 -1.636719,-0.10547 z m 4.908203,0 c -0.53613,0.0573 -1.077336,0.10547 -1.634766,0.10547 v 1.66601 c 0.55676,0 1.096306,-0.0535 1.634766,-0.10351 z"
         transform="translate(-58.01505,907.64723)"
         id="path4760-1" />
    </g>
  </g>
</svg>
