<?xml version="1.0" encoding="UTF-8" standalone="no"?>
<!-- Created with Inkscape (http://www.inkscape.org/) -->

<svg
   xmlns:osb="http://www.openswatchbook.org/uri/2009/osb"
   xmlns:dc="http://purl.org/dc/elements/1.1/"
   xmlns:cc="http://creativecommons.org/ns#"
   xmlns:rdf="http://www.w3.org/1999/02/22-rdf-syntax-ns#"
   xmlns:svg="http://www.w3.org/2000/svg"
   xmlns="http://www.w3.org/2000/svg"
   xmlns:xlink="http://www.w3.org/1999/xlink"
   xmlns:sodipodi="http://sodipodi.sourceforge.net/DTD/sodipodi-0.dtd"
   xmlns:inkscape="http://www.inkscape.org/namespaces/inkscape"
   width="24"
   height="24"
   viewBox="0 0 24 24"
   id="svg10027"
   version="1.1"
   inkscape:version="0.91 r13725"
   sodipodi:docname="gimp-prefs-folders.svg">
  <defs
     id="defs10029">
    <linearGradient
       inkscape:collect="always"
       xlink:href="#linearGradient19282-4"
       id="linearGradient9359"
       gradientUnits="userSpaceOnUse"
       x1="15"
       y1="-32"
       x2="31"
       y2="-32" />
    <linearGradient
       id="linearGradient19282-4"
       osb:paint="solid"
       gradientTransform="matrix(0.23667958,0,0,0.20304569,-208.29645,97.782765)">
      <stop
         style="stop-color:#bebebe;stop-opacity:1;"
         offset="0"
         id="stop19284-0" />
    </linearGradient>
    <linearGradient
       inkscape:collect="always"
       xlink:href="#linearGradient19282-4"
       id="linearGradient9290-6"
       gradientUnits="userSpaceOnUse"
       x1="15"
       y1="-32"
       x2="31"
       y2="-32"
       gradientTransform="matrix(0.62500194,0,0,0.62500194,1373.64,221.71484)" />
    <linearGradient
       inkscape:collect="always"
       xlink:href="#linearGradient19282-4"
       id="linearGradient9290-6-2"
       gradientUnits="userSpaceOnUse"
       x1="15"
       y1="-32"
       x2="31"
       y2="-32"
       gradientTransform="translate(-4.8637471e-5,3.1998657)" />
  </defs>
  <sodipodi:namedview
     id="base"
     pagecolor="#ffffff"
     bordercolor="#666666"
     borderopacity="1.0"
     inkscape:pageopacity="0.0"
     inkscape:pageshadow="2"
     inkscape:zoom="15.839192"
     inkscape:cx="11.478018"
     inkscape:cy="13.318066"
     inkscape:document-units="px"
     inkscape:current-layer="layer1"
     showgrid="false"
     units="px"
     inkscape:window-width="1366"
     inkscape:window-height="741"
     inkscape:window-x="0"
     inkscape:window-y="27"
     inkscape:window-maximized="1" />
  <metadata
     id="metadata10032">
    <rdf:RDF>
      <cc:Work
         rdf:about="">
        <dc:format>image/svg+xml</dc:format>
        <dc:type
           rdf:resource="http://purl.org/dc/dcmitype/StillImage" />
        <dc:title></dc:title>
      </cc:Work>
    </rdf:RDF>
  </metadata>
  <g
     inkscape:label="Layer 1"
     inkscape:groupmode="layer"
     id="layer1"
     transform="translate(0,-1028.3622)">
    <g
       id="gimp-prefs-folders-24"
       transform="translate(-1412.0151,831.64744)"
       inkscape:export-filename="/home/jehan/dev/src/gimp/icons/Symbolic/48/gimp-prefs-folders.png"
       inkscape:export-xdpi="180"
       inkscape:export-ydpi="180">
      <g
         transform="translate(36.000055,7.9999951)"
         id="gimp-prefs-folders-2">
        <g
           style="display:inline"
           id="folder-6-1"
           inkscape:label="#folder"
           transform="matrix(0.62500194,0,0,0.62500194,1368.64,227.71481)">
          <path
             sodipodi:nodetypes="ccccccccccsccccccccccc"
             id="rect3845-7-8"
             d="M 15.53125,-40 C 15.24212,-40 15,-39.75788 15,-39.46875 l 0,14.93755 C 15,-24.2327 15.23264,-24 15.53125,-24 l 14.9375,0 C 30.76735,-24 31,-24.2326 31,-24.5312 l 0,-9.9376 C 31,-34.7579 30.75788,-35 30.46875,-35 L 18,-35 l 0,8.5 c 0,0.277 -0.223,0.5 -0.5,0.5 -0.277,0 -0.5,-0.223 -0.5,-0.5 l 0,-9 c 0,-0.277 0.223,-0.5 0.5,-0.5 l 2.96875,0 8.53125,0 0,-1.4062 C 29,-37.7334 28.73334,-38 28.40625,-38 L 21,-38 21,-39.46875 C 21,-39.7579 20.75788,-40 20.46875,-40 Z"
             style="display:inline;fill:url(#linearGradient9359);fill-opacity:1;stroke:none"
             inkscape:connector-curvature="0" />
        </g>
        <g
           style="display:inline"
           id="folder-6-0-9"
           inkscape:label="#folder"
           transform="matrix(0.62500194,0,0,0.62500194,1373.6395,221.71477)">
          <path
             style="display:inline;fill:url(#linearGradient9290-6);fill-opacity:1;stroke:none"
             d="m 1383.3477,196.71484 c -0.1808,0 -0.3321,0.15133 -0.3321,0.33204 l 0,5.66796 1.25,0 0,-3.1875 c 0,-0.17312 0.1394,-0.3125 0.3125,-0.3125 l 1.8555,0 5.332,0 0,-0.8789 c 0,-0.2045 -0.1666,-0.3711 -0.3711,-0.3711 l -4.6289,0 0,-0.91796 c 0,-0.18072 -0.1513,-0.33204 -0.332,-0.33204 l -3.0859,0 z m 1.5429,3.125 0,2.875 4.125,0 0,4 3.668,0 c 0.1866,0 0.332,-0.1454 0.332,-0.33203 l 0,-6.21093 c 0,-0.18069 -0.1513,-0.33204 -0.332,-0.33204 l -7.793,0 z"
             transform="matrix(1.599995,0,0,1.599995,-2197.8172,-354.74264)"
             id="rect3845-7-9-2"
             inkscape:connector-curvature="0" />
        </g>
      </g>
      <g
         style="display:inline"
         id="folder-6-0-9-7"
         inkscape:label="#folder"
         transform="matrix(0.62500194,0,0,0.62500194,1414.6395,221.71484)">
        <path
           style="display:inline;fill:url(#linearGradient9290-6-2);fill-opacity:1;stroke:none"
           d="m 15.532223,-36.800009 c -0.289279,0 -0.531359,0.242127 -0.531359,0.531262 l 0,9.068708 1.999994,0 0,-5.099984 c 0,-0.276992 0.22304,-0.499999 0.499999,-0.499999 l 2.96879,0 8.531174,0 0,-1.406235 c 0,-0.327199 -0.266559,-0.593759 -0.593758,-0.593759 l -7.406217,0 0,-1.468731 c 0,-0.289151 -0.24208,-0.531262 -0.531199,-0.531262 l -4.937424,0 z m 2.468632,4.999984 0,4.599986 6.599979,0 0,6.39998 5.868782,0 c 0.298559,0 0.531198,-0.23264 0.531198,-0.531247 l 0,-9.937457 c 0,-0.289103 -0.242079,-0.531262 -0.531198,-0.531262 l -12.468761,0 z"
           id="rect3845-7-9-2-5"
           inkscape:connector-curvature="0" />
      </g>
    </g>
  </g>
</svg>
