<?xml version="1.0" encoding="UTF-8" standalone="no"?>
<!-- Created with Inkscape (http://www.inkscape.org/) -->

<svg
   xmlns:osb="http://www.openswatchbook.org/uri/2009/osb"
   xmlns:dc="http://purl.org/dc/elements/1.1/"
   xmlns:cc="http://creativecommons.org/ns#"
   xmlns:rdf="http://www.w3.org/1999/02/22-rdf-syntax-ns#"
   xmlns:svg="http://www.w3.org/2000/svg"
   xmlns="http://www.w3.org/2000/svg"
   xmlns:sodipodi="http://sodipodi.sourceforge.net/DTD/sodipodi-0.dtd"
   xmlns:inkscape="http://www.inkscape.org/namespaces/inkscape"
   id="svg30571"
   version="1.1"
   inkscape:version="0.91+devel r"
   sodipodi:docname="gimp-images-24.svg"
   height="24"
   width="24"
   viewBox="0 0 24 24">
  <defs
     id="defs30573">
    <linearGradient
       id="linearGradient3947"
       osb:paint="solid">
      <stop
         style="stop-color:#505050;stop-opacity:1;"
         offset="0"
         id="stop3949" />
    </linearGradient>
    <linearGradient
       id="linearGradient19282"
       osb:paint="solid"
       gradientTransform="matrix(1.2178615,0,0,1.043881,-633.30828,4728.4958)">
      <stop
         style="stop-color:#bebebe;stop-opacity:1;"
         offset="0"
         id="stop19284" />
    </linearGradient>
  </defs>
  <sodipodi:namedview
     id="base"
     pagecolor="#ffffff"
     bordercolor="#666666"
     borderopacity="1.0"
     inkscape:pageopacity="0.0"
     inkscape:pageshadow="2"
     inkscape:zoom="16"
     inkscape:cx="9.012164"
     inkscape:cy="18.435714"
     inkscape:document-units="px"
     inkscape:current-layer="layer1"
     showgrid="true"
     units="px"
     inkscape:snap-page="true"
     inkscape:snap-bbox="true"
     inkscape:bbox-paths="true"
     inkscape:bbox-nodes="true"
     inkscape:snap-bbox-edge-midpoints="true"
     inkscape:snap-bbox-midpoints="true"
     inkscape:object-paths="true"
     inkscape:snap-intersection-paths="true"
     inkscape:object-nodes="true"
     inkscape:snap-smooth-nodes="true"
     inkscape:snap-midpoints="true"
     inkscape:snap-object-midpoints="true"
     inkscape:snap-center="true"
     inkscape:snap-text-baseline="true"
     showborder="false"
     inkscape:window-width="1920"
     inkscape:window-height="1016"
     inkscape:window-x="0"
     inkscape:window-y="27"
     inkscape:window-maximized="1"
     inkscape:snap-global="false"
     showguides="false">
    <inkscape:grid
       type="xygrid"
       id="grid4239" />
  </sodipodi:namedview>
  <metadata
     id="metadata30576">
    <rdf:RDF>
      <cc:Work
         rdf:about="">
        <dc:format>image/svg+xml</dc:format>
        <dc:type
           rdf:resource="http://purl.org/dc/dcmitype/StillImage" />
        <dc:title />
        <dc:creator>
          <cc:Agent>
            <dc:title>Klaus Staedtler</dc:title>
          </cc:Agent>
        </dc:creator>
      </cc:Work>
    </rdf:RDF>
  </metadata>
  <g
     inkscape:label="Layer 1"
     inkscape:groupmode="layer"
     id="layer1"
     transform="translate(0,-1036.3622)">
    <g
       id="g4286">
      <path
         id="rect5882-1"
         transform="translate(0,1036.3622)"
         d="M 1 0.90039062 L 1 15 L 8 15 L 8 11 L 2 11 L 2 2 L 14 2 L 14 8 L 15 8 L 15 0.90039062 L 1 0.90039062 z M 10 9 L 9.8007812 10.199219 L 10 10 L 14 9 L 10 9 z M 9.8007812 10.199219 L 9 11 L 9 15 L 9.8007812 10.199219 z "
         style="fill:#bebebe;fill-opacity:1;stroke:none" />
      <path
         inkscape:connector-curvature="0"
         id="rect10683-5"
         d="m 3,1039.3622 v 7 h 1 c 0,-0.7551 0.671573,-1.375 1.5,-1.375 0.828427,0 1.5,0.6199 1.5,1.375 h 1 v -1.5 c 1.4e-4,-0.9857 -0.7274,-1.474 -2,-2.0625 0,0 0.02947,4e-4 0.25,0 0.40803,0.083 1.38212,0.3501 1.75,0.5938 -0.09819,-0.3556 -0.14101,-0.8936 -0.4375,-1.3438 C 7.26599,1041.5995 6,1040.706 6,1040.706 l 0.0625,-0.031 c 0.05568,-0.04 0.9453,0.7655 1.25,0.6875 -0.13515,-0.325 -0.25949,-0.6347 -0.40625,-0.8125 l 0.1875,-0.031 c 0.35629,0.5914 0.46684,0.723 0.84375,1.1562 0.12472,0.057 -0.03108,-0.042 1.0625,-0.5937 v 0.2811 c 0,0 -1.0625,0.3099 -0.75,0.9063 0.22248,0.3057 0.39823,1.0102 0.75,1.0937 0,0 0.85009,-1.2253 1.5,-1.625 0,0 -0.21923,-0.5088 -0.21875,-0.7812 3.7e-4,-0.2092 0.15625,-0.5938 0.15625,-0.5938 0.02319,0.3956 -0.0029,0.8309 0.28125,1.2188 l 0.9375,-1.2188 H 12 c 0,0 -2.25088,2.3886 -2,2.7813 0.39455,-0.048 2,-0.3438 2,-0.3438 v 0.062 c -1.04689,0.3488 -1.67111,0.6887 -2,1.5 v 2 h 3 v -7 z"
         style="opacity:0.3;fill:#bebebe;fill-opacity:1;stroke:none" />
      <g
         inkscape:label="gimp-image"
         id="gimp-image"
         style="display:inline"
         transform="translate(-133.0002,665.3622)">
        <path
           style="fill:#bebebe;fill-opacity:1;stroke:none"
           d="M 142.0002,379.9 V 394 h 14 v -14.1 z m 1,1.1 h 12 v 9 h -12 z"
           id="rect5882"
           inkscape:connector-curvature="0"
           sodipodi:nodetypes="cccccccccc" />
        <path
           style="opacity:0.3;fill:#bebebe;fill-opacity:1;stroke:none"
           d="m -97,165 v 7 h 1 c 0,-0.75515 0.671573,-1.375 1.5,-1.375 0.828427,0 1.5,0.61985 1.5,1.375 h 1 v -1.5 c 1.4e-4,-0.98573 -0.7274,-1.47402 -2,-2.0625 0,0 0.02947,3.7e-4 0.25,0 0.40803,0.0835 1.38212,0.3501 1.75,0.59375 -0.09819,-0.35554 -0.14101,-0.89353 -0.4375,-1.34375 C -92.73401,167.23732 -94,166.34375 -94,166.34375 l 0.0625,-0.0312 c 0.05568,-0.0402 0.9453,0.7655 1.25,0.6875 -0.13515,-0.32497 -0.25949,-0.63468 -0.40625,-0.8125 l 0.1875,-0.0312 c 0.35629,0.59147 0.46684,0.72309 0.84375,1.15625 0.12472,0.0571 -0.03108,-0.0423 1.0625,-0.59375 V 167 c 0,0 -1.0625,0.30993 -0.75,0.90625 0.22248,0.30573 0.39823,1.01025 0.75,1.09375 0,0 0.85009,-1.22532 1.5,-1.625 0,0 -0.21923,-0.50879 -0.21875,-0.78125 3.7e-4,-0.20918 0.15625,-0.59375 0.15625,-0.59375 0.02319,0.39561 -0.0029,0.83091 0.28125,1.21875 L -88.34375,166 H -88 c 0,0 -2.25088,2.3886 -2,2.78125 0.39455,-0.048 2,-0.34375 2,-0.34375 V 168.5 c -1.04689,0.34884 -1.67111,0.68872 -2,1.5 v 2 h 3 v -7 z"
           transform="translate(241.0002,217)"
           id="rect10683"
           inkscape:connector-curvature="0" />
      </g>
    </g>
  </g>
</svg>
