<?xml version="1.0" encoding="UTF-8" standalone="no"?>
<svg
   xmlns:osb="http://www.openswatchbook.org/uri/2009/osb"
   xmlns:dc="http://purl.org/dc/elements/1.1/"
   xmlns:cc="http://creativecommons.org/ns#"
   xmlns:rdf="http://www.w3.org/1999/02/22-rdf-syntax-ns#"
   xmlns:svg="http://www.w3.org/2000/svg"
   xmlns="http://www.w3.org/2000/svg"
   xmlns:xlink="http://www.w3.org/1999/xlink"
   xmlns:sodipodi="http://sodipodi.sourceforge.net/DTD/sodipodi-0.dtd"
   xmlns:inkscape="http://www.inkscape.org/namespaces/inkscape"
   viewBox="0 0 23.999999 24"
   id="svg7384"
   height="24"
   width="24"
   version="1.1"
   inkscape:version="0.92pre1 unknown"
   sodipodi:docname="gimp-prefs-folders-plug-ins.svg">
  <sodipodi:namedview
     pagecolor="#ffffff"
     bordercolor="#666666"
     borderopacity="1"
     objecttolerance="10"
     gridtolerance="10"
     guidetolerance="10"
     inkscape:pageopacity="0"
     inkscape:pageshadow="2"
     inkscape:window-width="501"
     inkscape:window-height="405"
     id="namedview1508"
     showgrid="true"
     inkscape:zoom="14.75"
     inkscape:cx="5.9955149"
     inkscape:cy="6.3389831"
     inkscape:window-x="0"
     inkscape:window-y="27"
     inkscape:window-maximized="0"
     inkscape:current-layer="svg7384">
    <inkscape:grid
       type="xygrid"
       id="grid4245" />
  </sodipodi:namedview>
  <metadata
     id="metadata90">
    <rdf:RDF>
      <cc:Work
         rdf:about="">
        <dc:format>image/svg+xml</dc:format>
        <dc:type
           rdf:resource="http://purl.org/dc/dcmitype/StillImage" />
        <dc:title></dc:title>
        <dc:contributor>
          <cc:Agent>
            <dc:title>Barbara Muraus, Jakub Steiner, Klaus Staedtler</dc:title>
          </cc:Agent>
        </dc:contributor>
        <dc:description>Images originally created as the &quot;Art Libre&quot; icon set. Extended and adopted for GIMP</dc:description>
      </cc:Work>
    </rdf:RDF>
  </metadata>
  <defs
     id="defs7386">
    <linearGradient
       osb:paint="solid"
       id="linearGradient8074">
      <stop
         id="stop8072"
         offset="0"
         style="stop-color:#be00be;stop-opacity:1;" />
    </linearGradient>
    <linearGradient
       osb:paint="solid"
       id="linearGradient7561">
      <stop
         id="stop7558"
         offset="0"
         style="stop-color:#a5a5a5;stop-opacity:1;" />
    </linearGradient>
    <linearGradient
       osb:paint="solid"
       id="linearGradient7548">
      <stop
         id="stop7546"
         offset="0"
         style="stop-color:#ebebeb;stop-opacity:1;" />
    </linearGradient>
    <linearGradient
       osb:paint="solid"
       id="linearGradient7542">
      <stop
         id="stop7538"
         offset="0"
         style="stop-color:#c9c9c9;stop-opacity:1;" />
    </linearGradient>
    <linearGradient
       gradientTransform="matrix(0,-735328.32,170712.69,0,2464326300,577972450)"
       osb:paint="solid"
       id="linearGradient19282">
      <stop
         id="stop19284"
         offset="0"
         style="stop-color:#b4b4b4;stop-opacity:1;" />
    </linearGradient>
    <linearGradient
       gradientTransform="matrix(0.34682586,0,0,0.30620888,-19.35207,801.03851)"
       osb:paint="solid"
       id="linearGradient19282-4">
      <stop
         id="stop19284-0"
         offset="0"
         style="stop-color:#bebebe;stop-opacity:1;" />
    </linearGradient>
    <linearGradient
       gradientTransform="translate(811.48816,421.87401)"
       gradientUnits="userSpaceOnUse"
       y2="-32"
       x2="151"
       y1="-32"
       x1="135"
       id="linearGradient8364"
       xlink:href="#linearGradient19282-4" />
  </defs>
  <g
     transform="matrix(1.5,0,0,1.5,-297.25132,-395.81101)"
     style="display:inline"
     id="preferences">
    <g
       transform="translate(63.167547,303.87401)"
       id="gimp-prefs-folders-plug-ins">
      <g
         id="g612"
         transform="translate(120)">
        <path
           style="display:inline;fill:url(#linearGradient8364);fill-opacity:1;stroke:none"
           d="M 135.53125,-40 C 135.24212,-40 135,-39.75788 135,-39.46875 v 14.9375 c 0,0.2985 0.23264,0.53125 0.53125,0.53125 h 14.9375 C 150.76735,-24 151,-24.23265 151,-24.53125 v -9.63542 c 0,-0.2891 -0.24223,-0.492061 -0.53125,-0.5 H 138.33333 V -26.5 c 0,0.277 -0.38966,0.5 -0.66666,0.5 C 137.38967,-26 137,-26.223 137,-26.5 v -9 c 0,-0.277 0.223,-0.5 0.5,-0.5 H 140.46875 149 v -1.40625 C 149,-37.73345 148.73334,-38 148.40625,-38 H 141 v -1.46875 C 141,-39.7579 140.75788,-40 140.46875,-40 Z m 9.13542,6 c 0.5,0 0.83333,0.166667 0.83333,0.5 v 1.5 h 2.16667 v 2 l -1.16667,-3e-6 c -0.66609,-0.02775 -0.66667,1.999998 0,2 l 1.16667,3e-6 v 2 l -6,-3e-6 v -2 L 140.5625,-28 c -0.66667,2e-6 -0.66667,-2 0,-2 l 1.10417,-3e-6 v -2 l 2,3e-6 v -1.5 c 0,-0.333333 0.5,-0.5 1,-0.5 z"
           transform="translate(-120)"
           id="path29116"
           inkscape:connector-curvature="0"
           sodipodi:nodetypes="sssssssscsssssccsscsssssccccsccccsscccss" />
      </g>
    </g>
  </g>
</svg>
