<?xml version="1.0" encoding="UTF-8" standalone="no"?>
<svg
   xmlns:osb="http://www.openswatchbook.org/uri/2009/osb"
   xmlns:dc="http://purl.org/dc/elements/1.1/"
   xmlns:cc="http://creativecommons.org/ns#"
   xmlns:rdf="http://www.w3.org/1999/02/22-rdf-syntax-ns#"
   xmlns:svg="http://www.w3.org/2000/svg"
   xmlns="http://www.w3.org/2000/svg"
   xmlns:xlink="http://www.w3.org/1999/xlink"
   xmlns:sodipodi="http://sodipodi.sourceforge.net/DTD/sodipodi-0.dtd"
   xmlns:inkscape="http://www.inkscape.org/namespaces/inkscape"
   viewBox="0 0 23.999998 24.000001"
   id="svg7384"
   height="24"
   width="24"
   version="1.1"
   inkscape:version="0.91 r13725"
   sodipodi:docname="gimp-controller-linux-input.svg">
  <sodipodi:namedview
     pagecolor="#ffffff"
     bordercolor="#666666"
     borderopacity="1"
     objecttolerance="10"
     gridtolerance="10"
     guidetolerance="10"
     inkscape:pageopacity="0"
     inkscape:pageshadow="2"
     inkscape:window-width="1920"
     inkscape:window-height="1016"
     id="namedview1509"
     showgrid="false"
     inkscape:zoom="14.750162"
     inkscape:cx="-4.8470497"
     inkscape:cy="9.8439705"
     inkscape:window-x="0"
     inkscape:window-y="27"
     inkscape:window-maximized="1"
     inkscape:current-layer="svg7384" />
  <metadata
     id="metadata90">
    <rdf:RDF>
      <cc:Work
         rdf:about="">
        <dc:format>image/svg+xml</dc:format>
        <dc:type
           rdf:resource="http://purl.org/dc/dcmitype/StillImage" />
        <dc:title></dc:title>
        <dc:contributor>
          <cc:Agent>
            <dc:title>Barbara Muraus, Jakub Steiner, Klaus Staedtler</dc:title>
          </cc:Agent>
        </dc:contributor>
        <dc:description>Images originally created as the &quot;Art Libre&quot; icon set. Extended and adopted for GIMP</dc:description>
      </cc:Work>
    </rdf:RDF>
  </metadata>
  <defs
     id="defs7386">
    <linearGradient
       osb:paint="solid"
       id="linearGradient8074">
      <stop
         id="stop8072"
         offset="0"
         style="stop-color:#be00be;stop-opacity:1;" />
    </linearGradient>
    <linearGradient
       osb:paint="solid"
       id="linearGradient7561">
      <stop
         id="stop7558"
         offset="0"
         style="stop-color:#a5a5a5;stop-opacity:1;" />
    </linearGradient>
    <linearGradient
       osb:paint="solid"
       id="linearGradient7548">
      <stop
         id="stop7546"
         offset="0"
         style="stop-color:#ebebeb;stop-opacity:1;" />
    </linearGradient>
    <linearGradient
       osb:paint="solid"
       id="linearGradient7542">
      <stop
         id="stop7538"
         offset="0"
         style="stop-color:#c9c9c9;stop-opacity:1;" />
    </linearGradient>
    <linearGradient
       gradientTransform="matrix(0,-735328.32,170712.69,0,2464326300,577972450)"
       osb:paint="solid"
       id="linearGradient19282">
      <stop
         id="stop19284"
         offset="0"
         style="stop-color:#b4b4b4;stop-opacity:1;" />
    </linearGradient>
    <linearGradient
       gradientTransform="matrix(0.34682586,0,0,0.30620888,-154.35207,-275.32325)"
       osb:paint="solid"
       id="linearGradient19282-4">
      <stop
         id="stop19284-0"
         offset="0"
         style="stop-color:#bebebe;stop-opacity:1;" />
    </linearGradient>
    <linearGradient
       gradientTransform="matrix(1.0476191,0,0,1.0382355,623.12346,117.72427)"
       gradientUnits="userSpaceOnUse"
       y2="1045.2986"
       x2="15"
       y1="1045.2986"
       x1="1"
       id="linearGradient7159"
       xlink:href="#linearGradient19282-4" />
  </defs>
  <g
     id="g4156"
     transform="matrix(1.0000001,0,0,1.0047634,0,-3.1022333e-4)">
    <g
       id="gimp-controller-linux-input"
       transform="matrix(1.5,0,0,1.5,5e-6,-1554.5426)">
      <path
         style="fill:url(#linearGradient7159);fill-opacity:1"
         d="m 0.6666621,1051.5797 c 0.8013994,-1.9403 1.3309302,-4.0512 1.0550419,-6.1566 -0.123225,-2.1242 -0.1870481,-4.447 1.0494255,-6.2977 1.1674614,-1.5946 3.2825081,-2.1518 5.1907139,-2.0928 1.7457574,0.022 3.5754156,0.8106 4.4253056,2.3794 1.154372,1.9451 1.150442,4.2791 1.169951,6.4646 -0.03798,1.3518 0.05923,2.7728 0.797554,3.954 0.203967,0.5826 1.034266,1.4271 0.975728,1.7949 -1.287291,0 -2.574584,0 -3.861876,0 -0.32469,-0.8228 -0.568519,-1.6734 -0.858776,-2.5081 -0.9142012,0.8411 -2.1655113,1.1598 -3.1951641,1.8277 -1.0686164,0.5109 -2.4503771,0.4266 -3.3284665,-0.4105 -0.3609529,-0.5551 -1.4299778,-0.9898 -1.2800569,0.062 0.091261,0.869 -0.7023398,1.2717 -1.4593794,1.0278 -0.2271639,0 -0.45569632,-0.013 -0.680001,-0.046 z m 5.9162316,-1.2289 c 1.0892779,-0.4233 2.0601488,-1.0921 3.1346145,-1.545 0.7247538,-0.4218 0.5453108,-1.6529 -0.3049531,-1.8007 -1.2812995,-0.2189 -2.3085296,-1.4001 -3.6759561,-1.2097 -0.6829625,0.056 -1.2400464,0.4874 -1.6875801,0.9638 -0.5928809,0.3606 -1.7318529,0.9837 -1.0753511,1.7812 0.509246,0.6826 1.3665431,0.9736 1.9680178,1.5592 0.4739302,0.318 1.0918517,0.4224 1.6412081,0.2512 z m -1.3798348,-1.5531 c -0.5975985,-0.1974 -1.9161999,-0.1779 -1.7223364,-1.0899 0.6531698,-0.5153 1.4058514,0.4441 2.1503348,0.3016 1.0063426,0.042 2.057204,0.028 2.9884166,-0.3864 0.6941481,-0.3497 1.120237,0.5632 0.3607679,0.8167 -0.7761617,0.2899 -1.6254121,0.384 -2.4499262,0.4454 -0.4437213,0.013 -0.889813,-0.016 -1.3272567,-0.088 z m -1.9476561,-2.5161 c 0.2094483,-0.7018 -0.4999755,-2.1608 0.7580453,-2.1279 0.4359695,0.179 0.6819221,1.5502 1.1740972,0.6856 0.1111379,-0.8353 -0.3964772,-1.9446 -1.3329727,-2.0264 -0.8786708,-0.027 -1.2821319,0.8579 -1.3410376,1.5961 -0.092865,0.7032 0.053974,1.4536 0.4870268,2.0297 l 0.1335094,-0.069 0.121332,-0.088 0,0 z m 6.9596542,-0.086 c 0.682928,-1.284 0.249621,-3.2523 -1.249094,-3.7438 -0.8760583,-0.2069 -1.7722894,0.4258 -2.0524065,1.2315 -0.6020429,0.4764 -0.021767,1.9449 0.6202315,1.356 -0.1334445,-0.7752 1.0129166,-1.5121 1.5667357,-0.8236 0.4352502,0.6417 -0.2769899,1.9531 0.8285454,2.1323 0.1242309,0.045 0.2662839,-0.016 0.2859879,-0.1524 z"
         id="path3943"
         inkscape:connector-curvature="0" />
    </g>
  </g>
</svg>
