<?xml version="1.0" encoding="UTF-8" standalone="no"?>
<svg
   xmlns:osb="http://www.openswatchbook.org/uri/2009/osb"
   xmlns:dc="http://purl.org/dc/elements/1.1/"
   xmlns:cc="http://creativecommons.org/ns#"
   xmlns:rdf="http://www.w3.org/1999/02/22-rdf-syntax-ns#"
   xmlns:svg="http://www.w3.org/2000/svg"
   xmlns="http://www.w3.org/2000/svg"
   xmlns:xlink="http://www.w3.org/1999/xlink"
   xmlns:sodipodi="http://sodipodi.sourceforge.net/DTD/sodipodi-0.dtd"
   xmlns:inkscape="http://www.inkscape.org/namespaces/inkscape"
   viewBox="0 0 23.999999 24"
   id="svg7384"
   height="24"
   width="24"
   version="1.1"
   inkscape:version="0.92pre1 unknown"
   sodipodi:docname="gimp-prefs-folders-brushes.svg">
  <sodipodi:namedview
     pagecolor="#ffffff"
     bordercolor="#666666"
     borderopacity="1"
     objecttolerance="10"
     gridtolerance="10"
     guidetolerance="10"
     inkscape:pageopacity="0"
     inkscape:pageshadow="2"
     inkscape:window-width="640"
     inkscape:window-height="480"
     id="namedview1509"
     showgrid="true"
     inkscape:zoom="14.75"
     inkscape:cx="34.296515"
     inkscape:cy="6.3389831"
     inkscape:window-x="0"
     inkscape:window-y="27"
     inkscape:window-maximized="0"
     inkscape:current-layer="svg7384">
    <inkscape:grid
       type="xygrid"
       id="grid4246" />
  </sodipodi:namedview>
  <metadata
     id="metadata90">
    <rdf:RDF>
      <cc:Work
         rdf:about="">
        <dc:format>image/svg+xml</dc:format>
        <dc:type
           rdf:resource="http://purl.org/dc/dcmitype/StillImage" />
        <dc:title />
        <dc:contributor>
          <cc:Agent>
            <dc:title>Barbara Muraus, Jakub Steiner, Klaus Staedtler</dc:title>
          </cc:Agent>
        </dc:contributor>
        <dc:description>Images originally created as the &quot;Art Libre&quot; icon set. Extended and adopted for GIMP</dc:description>
      </cc:Work>
    </rdf:RDF>
  </metadata>
  <defs
     id="defs7386">
    <linearGradient
       gradientTransform="matrix(0.34682586,0,0,0.30620888,-119.35207,801.03851)"
       osb:paint="solid"
       id="linearGradient19282-4">
      <stop
         id="stop19284-0"
         offset="0"
         style="stop-color:#bebebe;stop-opacity:1;" />
    </linearGradient>
    <linearGradient
       gradientTransform="translate(768.15947,399.52469)"
       gradientUnits="userSpaceOnUse"
       y2="-32"
       x2="51"
       y1="-32"
       x1="35"
       id="linearGradient8298"
       xlink:href="#linearGradient19282-4" />
  </defs>
  <g
     transform="matrix(1.4999998,0,0,1.4999998,-232.25827,-362.287)"
     style="display:inline"
     id="preferences">
    <g
       transform="translate(119.83886,281.52469)"
       id="gimp-prefs-folders-brushes">
      <g
         id="g560"
         transform="translate(20)">
        <g
           id="folder"
           transform="translate(-192.9998,-1036)"
           style="display:inline">
          <path
             style="display:inline;fill:url(#linearGradient8298);fill-opacity:1;stroke:none"
             d="M 35.53125,-40 C 35.24212,-40 35,-39.75788 35,-39.46875 v 14.9375 C 35,-24.23275 35.23264,-24 35.53125,-24 h 14.9375 C 50.76735,-24 51,-24.23265 51,-24.53125 v -9.635407 c 0,-0.2891 -0.241933,-0.492061 -0.530954,-0.5 H 38.333637 L 38.333341,-26.5 c -10e-6,0.277 -0.389667,0.5 -0.666667,0.5 C 37.389674,-26 37,-26.223 37,-26.5 v -9 c 0,-0.277 0.223,-0.5 0.5,-0.5 H 40.46875 49 v -1.40625 C 49,-37.73345 48.733264,-38.007036 48.40625,-38 H 41 v -1.46875 C 41,-39.7579 40.75788,-40 40.46875,-40 Z M 41,-34 v 0.5625 C 41,-33.192664 41.216234,-33 41.46875,-33 h 0.0625 C 41.783766,-33 42,-33.192664 42,-33.4375 V -34 h 1 v 0.5625 C 43,-33.192664 43.216234,-33 43.46875,-33 h 0.0625 C 43.783766,-33 44,-33.192664 44,-33.4375 V -34 h 1 v 0.5625 C 45,-33.192664 45.216234,-33 45.46875,-33 h 0.0625 C 45.783766,-33 46,-33.192664 46,-33.4375 V -34 h 1 v 0.5625 C 47,-33.192664 47.216234,-33 47.46875,-33 h 0.0625 C 47.783766,-33 48,-33.192664 48,-33.4375 V -34 c 0.554,0 1.021427,0.446415 1,1 v 3 h -8.666659 v -3 c 0,-0.554 0.112659,-1 0.666659,-1 z m -0.666659,5 H 49 l -1,2 h -2.333325 v 2 h -2 v -2 H 41 Z"
             transform="translate(172.9998,1036)"
             id="path7149"
             inkscape:connector-curvature="0"
             sodipodi:nodetypes="sssssssscsssssccsccssscssssccssssccssssccssssccccscccccccccc" />
        </g>
      </g>
    </g>
  </g>
</svg>
