<?xml version="1.0" encoding="UTF-8" standalone="no"?>
<svg
   xmlns:osb="http://www.openswatchbook.org/uri/2009/osb"
   xmlns:dc="http://purl.org/dc/elements/1.1/"
   xmlns:cc="http://creativecommons.org/ns#"
   xmlns:rdf="http://www.w3.org/1999/02/22-rdf-syntax-ns#"
   xmlns:svg="http://www.w3.org/2000/svg"
   xmlns="http://www.w3.org/2000/svg"
   xmlns:xlink="http://www.w3.org/1999/xlink"
   xmlns:sodipodi="http://sodipodi.sourceforge.net/DTD/sodipodi-0.dtd"
   xmlns:inkscape="http://www.inkscape.org/namespaces/inkscape"
   width="24"
   height="24"
   viewBox="0 0 24 24"
   id="svg30571"
   version="1.1"
   inkscape:version="0.92pre1 unknown"
   sodipodi:docname="gimp-prefs-folders-tool-presets.svg">
  <defs
     id="defs30573">
    <linearGradient
       inkscape:collect="always"
       xlink:href="#linearGradient19282-4"
       id="linearGradient8286"
       x1="15"
       y1="-32"
       x2="31"
       y2="-32"
       gradientUnits="userSpaceOnUse"
       gradientTransform="matrix(1.5,0,0,1.5,-22.5,60)" />
    <linearGradient
       id="linearGradient19282-4"
       osb:paint="solid"
       gradientTransform="matrix(0.23667958,0,0,0.20304569,-212.51307,96.938703)">
      <stop
         style="stop-color:#bebebe;stop-opacity:1;"
         offset="0"
         id="stop19284-0" />
    </linearGradient>
    <linearGradient
       gradientTransform="translate(542.07359,263.99385)"
       gradientUnits="userSpaceOnUse"
       y2="104.96255"
       x2="100.26245"
       y1="104.96255"
       x1="84.262444"
       id="linearGradient7524"
       xlink:href="#linearGradient19282-4" />
  </defs>
  <sodipodi:namedview
     id="base"
     pagecolor="#ffffff"
     bordercolor="#666666"
     borderopacity="1"
     inkscape:pageopacity="0"
     inkscape:pageshadow="2"
     inkscape:zoom="23.043601"
     inkscape:cx="17.854537"
     inkscape:cy="14.141864"
     inkscape:document-units="px"
     inkscape:current-layer="layer1"
     showgrid="true"
     units="px"
     inkscape:snap-page="true"
     inkscape:snap-bbox="true"
     inkscape:bbox-paths="true"
     inkscape:bbox-nodes="true"
     inkscape:snap-bbox-edge-midpoints="true"
     inkscape:snap-bbox-midpoints="true"
     inkscape:object-paths="true"
     inkscape:snap-intersection-paths="true"
     inkscape:object-nodes="true"
     inkscape:snap-smooth-nodes="true"
     inkscape:snap-midpoints="true"
     inkscape:snap-object-midpoints="true"
     inkscape:snap-center="true"
     inkscape:snap-text-baseline="true"
     showborder="false"
     inkscape:window-width="1346"
     inkscape:window-height="939"
     inkscape:window-x="617"
     inkscape:window-y="58"
     inkscape:window-maximized="0"
     inkscape:snap-global="false"
     showguides="true">
    <inkscape:grid
       type="xygrid"
       id="grid4153" />
  </sodipodi:namedview>
  <metadata
     id="metadata30576">
    <rdf:RDF>
      <cc:Work
         rdf:about="">
        <dc:format>
          image/svg+xml
        </dc:format>
        <dc:type
           rdf:resource="http://purl.org/dc/dcmitype/StillImage" />
        <dc:creator>
          <cc:Agent>
            <dc:title>Klaus Staedtler       </dc:title>
          </cc:Agent>
        </dc:creator>
        <dc:title></dc:title>
      </cc:Work>
    </rdf:RDF>
  </metadata>
  <g
     inkscape:label="Layer 1"
     inkscape:groupmode="layer"
     id="layer1"
     transform="translate(0,-1028.3622)">
    <g
       inkscape:label="#tool-measure"
       id="tool-measure"
       transform="matrix(0.42865512,0,0,0.42865512,-115.44407,656.33387)" />
    <g
       style="display:inline"
       id="gimp-prefs-folders"
       inkscape:label="gimp-prefs-folders"
       transform="matrix(1.5,0,0,1.5,-22.5,1088.3622)">
      <path
         style="display:inline;fill:url(#linearGradient8286);fill-opacity:1;stroke:none;stroke-width:1.5"
         d="M 0.796875 0 C 0.36318 0 0 0.36318 0 0.796875 L 0 23.203125 C 0 23.650875 0.34896 24 0.796875 24 L 23.203125 24 C 23.651025 24 24 23.651025 24 23.203125 L 24 8.75 C 24 8.31635 23.63682 8 23.203125 8 L 5 8 L 5 20.25 C 5 20.6655 4.4155 21 4 21 C 3.5845 21 3 20.6655 3 20.25 L 3 6.75 C 3 6.3345 3.3345 6 3.75 6 L 8.203125 6 L 21 6 L 21 3.890625 C 21 3.399825 20.60001 3 20.109375 3 L 9 3 L 9 0.796875 C 9 0.36315 8.63682 0 8.203125 0 L 0.796875 0 z M 14.96875 9 C 15.220382 9 15.600301 9.1655988 15.763672 9.3789062 L 16.648438 10.75 L 22 10.75 L 22 19.5 L 20.25 19.5 L 21.125 23 L 20.25 23 L 19.8125 21.25 L 10.1875 21.25 L 9.75 23 L 8.875 23 L 9.75 19.5 L 8 19.5 L 8 10.75 L 13.443359 10.75 L 14.179688 9.4667969 C 14.227637 9.2772632 14.713049 9 14.96875 9 z M 15 9.875 L 14.5625 10.75 L 15.4375 10.75 L 15 9.875 z M 8.875 11.625 L 8.875 18.625 L 21.125 18.625 L 21.125 11.625 L 8.875 11.625 z M 10.625 19.5 L 10.625 20.375 L 19.375 20.375 L 19.375 19.5 L 10.625 19.5 z "
         transform="matrix(0.66666667,0,0,0.66666667,15,-40)"
         id="rect3845" />
    </g>
    <g
       transform="matrix(0.87499973,0,0,0.87499973,-65.729617,952.2329)"
       style="display:inline;fill:#000000;fill-opacity:1"
       id="stock" />
  </g>
</svg>
