<?xml version="1.0" encoding="UTF-8" standalone="no"?>
<!-- Created with Inkscape (http://www.inkscape.org/) -->

<svg
   xmlns:dc="http://purl.org/dc/elements/1.1/"
   xmlns:cc="http://creativecommons.org/ns#"
   xmlns:rdf="http://www.w3.org/1999/02/22-rdf-syntax-ns#"
   xmlns:svg="http://www.w3.org/2000/svg"
   xmlns="http://www.w3.org/2000/svg"
   xmlns:sodipodi="http://sodipodi.sourceforge.net/DTD/sodipodi-0.dtd"
   xmlns:inkscape="http://www.inkscape.org/namespaces/inkscape"
   width="24"
   height="24"
   viewBox="0 0 6.3499999 6.3500002"
   version="1.1"
   id="svg8"
   inkscape:version="0.92.2 (5c3e80d, 2017-08-06)"
   sodipodi:docname="gimp-tool-shadows-highlights.svg"
   inkscape:export-filename="/home/alex/soft/graphics/gimp/gimp-2018-01-05/icons/Symbolic/24/gimp-tool-shadows-highlights.png"
   inkscape:export-xdpi="96"
   inkscape:export-ydpi="96">
  <defs
     id="defs2" />
  <sodipodi:namedview
     id="base"
     pagecolor="#ffffff"
     bordercolor="#666666"
     borderopacity="1.0"
     inkscape:pageopacity="0.0"
     inkscape:pageshadow="2"
     inkscape:zoom="11.313708"
     inkscape:cx="20.100055"
     inkscape:cy="15.055747"
     inkscape:document-units="px"
     inkscape:current-layer="layer1"
     inkscape:document-rotation="0"
     showgrid="false"
     units="px"
     inkscape:window-width="1920"
     inkscape:window-height="1136"
     inkscape:window-x="0"
     inkscape:window-y="27"
     inkscape:window-maximized="1"
     inkscape:snap-page="true"
     inkscape:snap-global="true"
     inkscape:object-paths="true"
     inkscape:snap-intersection-paths="true"
     inkscape:snap-bbox="true"
     inkscape:bbox-paths="true"
     inkscape:bbox-nodes="true"
     inkscape:snap-bbox-edge-midpoints="true"
     inkscape:snap-bbox-midpoints="true"
     inkscape:snap-smooth-nodes="true"
     inkscape:snap-midpoints="true"
     inkscape:snap-object-midpoints="true"
     inkscape:snap-center="true"
     inkscape:snap-text-baseline="true"
     inkscape:snap-grids="true">
    <inkscape:grid
       type="xygrid"
       id="grid2087" />
  </sodipodi:namedview>
  <metadata
     id="metadata5">
    <rdf:RDF>
      <cc:Work
         rdf:about="">
        <dc:format>image/svg+xml</dc:format>
        <dc:type
           rdf:resource="http://purl.org/dc/dcmitype/StillImage" />
        <dc:title></dc:title>
      </cc:Work>
    </rdf:RDF>
  </metadata>
  <g
     inkscape:label="Layer 1"
     inkscape:groupmode="layer"
     id="layer1"
     transform="translate(0,-290.64999)">
    <g
       id="gimp-tool-shadows-highlights-24">
      <path
         style="color:#000000;overflow:visible;opacity:0.5;fill:#bebebe;fill-opacity:1;fill-rule:evenodd;stroke:none;stroke-width:0.26458335;stroke-linecap:round;stroke-linejoin:miter;stroke-opacity:1;paint-order:normal"
         d="m 3.1750002,291.17916 a 2.6458337,2.6458337 0 0 0 -2.64583343,2.64583 2.6458337,2.6458337 0 0 0 2.64583343,2.64583 2.6458337,2.6458337 0 0 0 2.6458334,-2.64583 2.6458337,2.6458337 0 0 0 -2.6458334,-2.64583 z m 0,0.52916 a 2.1166669,2.1166669 0 0 1 2.1166667,2.11667 2.1166669,2.1166669 0 0 1 -2.1166667,2.11667 2.1166669,2.1166669 0 0 1 -0.79375,-0.15607 v -0.3731 c 0,-0.14117 0.1287774,-0.26458 0.2604492,-0.26458 h 1.0624675 c 0.146577,0 0.2645833,-0.11801 0.2645833,-0.26459 0,-0.14657 -0.1180063,-0.26458 -0.2645833,-0.26458 H 2.6458335 c -0.1465826,0 -0.2645833,-0.118 -0.2645833,-0.26458 0,-0.14659 0.1180007,-0.26459 0.2645833,-0.26459 h 1.0583334 c 0.146582,0 0.2645833,-0.118 0.2645833,-0.26458 0,-0.14658 -0.1180013,-0.26458 -0.2645833,-0.26458 H 2.6458335 c -0.1465826,0 -0.2645833,-0.118 -0.2645833,-0.26459 0,-0.14658 0.1180007,-0.26458 0.2645833,-0.26458 h 1.0583334 c 0.1465781,0 0.2645833,-0.11801 0.2645833,-0.26458 0,-0.14658 -0.1180052,-0.26459 -0.2645833,-0.26459 H 2.653585 c -0.1426419,0 -0.2723348,-0.12408 -0.2723348,-0.26716 v -0.37104 a 2.1166669,2.1166669 0 0 1 0.79375,-0.15555 z"
         id="path3648"
         inkscape:connector-curvature="0" />
    </g>
  </g>
</svg>
