<?xml version="1.0" encoding="UTF-8" standalone="no"?>
<svg
   xmlns:osb="http://www.openswatchbook.org/uri/2009/osb"
   xmlns:dc="http://purl.org/dc/elements/1.1/"
   xmlns:cc="http://creativecommons.org/ns#"
   xmlns:rdf="http://www.w3.org/1999/02/22-rdf-syntax-ns#"
   xmlns:svg="http://www.w3.org/2000/svg"
   xmlns="http://www.w3.org/2000/svg"
   xmlns:xlink="http://www.w3.org/1999/xlink"
   xmlns:sodipodi="http://sodipodi.sourceforge.net/DTD/sodipodi-0.dtd"
   xmlns:inkscape="http://www.inkscape.org/namespaces/inkscape"
   viewBox="0 0 23.999999 24"
   id="svg7384"
   height="24"
   width="24"
   version="1.1"
   inkscape:version="0.92pre1 unknown"
   sodipodi:docname="gimp-prefs-folders-tool-presets.svg">
  <sodipodi:namedview
     pagecolor="#ffffff"
     bordercolor="#666666"
     borderopacity="1"
     objecttolerance="10"
     gridtolerance="10"
     guidetolerance="10"
     inkscape:pageopacity="0"
     inkscape:pageshadow="2"
     inkscape:window-width="501"
     inkscape:window-height="405"
     id="namedview1507"
     showgrid="true"
     inkscape:zoom="14.75"
     inkscape:cx="13.52511"
     inkscape:cy="12.557291"
     inkscape:window-x="0"
     inkscape:window-y="27"
     inkscape:window-maximized="0"
     inkscape:current-layer="svg7384">
    <inkscape:grid
       type="xygrid"
       id="grid23" />
  </sodipodi:namedview>
  <metadata
     id="metadata90">
    <rdf:RDF>
      <cc:Work
         rdf:about="">
        <dc:format>image/svg+xml</dc:format>
        <dc:type
           rdf:resource="http://purl.org/dc/dcmitype/StillImage" />
        <dc:title></dc:title>
        <dc:contributor>
          <cc:Agent>
            <dc:title>Barbara Muraus, Jakub Steiner, Klaus Staedtler</dc:title>
          </cc:Agent>
        </dc:contributor>
        <dc:description>Images originally created as the &quot;Art Libre&quot; icon set. Extended and adopted for GIMP</dc:description>
      </cc:Work>
    </rdf:RDF>
  </metadata>
  <defs
     id="defs7386">
    <linearGradient
       osb:paint="solid"
       id="linearGradient8074">
      <stop
         id="stop8072"
         offset="0"
         style="stop-color:#be00be;stop-opacity:1;" />
    </linearGradient>
    <linearGradient
       osb:paint="solid"
       id="linearGradient7561">
      <stop
         id="stop7558"
         offset="0"
         style="stop-color:#a5a5a5;stop-opacity:1;" />
    </linearGradient>
    <linearGradient
       osb:paint="solid"
       id="linearGradient7548">
      <stop
         id="stop7546"
         offset="0"
         style="stop-color:#ebebeb;stop-opacity:1;" />
    </linearGradient>
    <linearGradient
       osb:paint="solid"
       id="linearGradient7542">
      <stop
         id="stop7538"
         offset="0"
         style="stop-color:#c9c9c9;stop-opacity:1;" />
    </linearGradient>
    <linearGradient
       gradientTransform="matrix(0,-735328.32,170712.69,0,2464326300,577972450)"
       osb:paint="solid"
       id="linearGradient19282">
      <stop
         id="stop19284"
         offset="0"
         style="stop-color:#b4b4b4;stop-opacity:1;" />
    </linearGradient>
    <linearGradient
       gradientTransform="matrix(0.34682586,0,0,0.30620888,-139.35207,801.03851)"
       osb:paint="solid"
       id="linearGradient19282-4">
      <stop
         id="stop19284-0"
         offset="0"
         style="stop-color:#bebebe;stop-opacity:1;" />
    </linearGradient>
    <linearGradient
       gradientTransform="translate(746.22388,399.27766)"
       gradientUnits="userSpaceOnUse"
       y2="14"
       x2="16"
       y1="14"
       x1="0"
       id="linearGradient8292"
       xlink:href="#linearGradient19282-4" />
  </defs>
  <g
     transform="matrix(1.5,0,0,1.5,-199.3549,-361.91649)"
     style="display:inline"
     id="preferences">
    <g
       transform="translate(117.90327,281.27766)"
       id="gimp-prefs-folders-tool-presets"
       style="display:inline">
      <path
         id="rect3845-47"
         transform="translate(15,-46)"
         d="M 0.53125,6 C 0.24212,6 0,6.24212 0,6.53125 v 14.9375 C 0,21.76725 0.23264,22 0.53125,22 h 14.9375 C 15.76735,22 16,21.76735 16,21.46875 v -9.635417 c 0,-0.2891 -0.242229,-0.492061 -0.53125,-0.5 H 3.33333 V 19.5 c 0,0.277 -0.3896667,0.5 -0.6666667,0.5 C 2.3896633,20 2,19.777 2,19.5 v -9 C 2,10.223 2.223,10 2.5,10 H 5.46875 14 V 8.59375 C 14,8.26655 13.73334,8 13.40625,8 H 6 V 6.53125 C 6,6.2421 5.75788,6 5.46875,6 Z m 10.80208,5.988281 0.618817,1.997049 0.0957,4.727561 c -0.419494,0.445106 -0.956528,0.501028 -1.365559,0.111328 l -0.03125,-4.838868 z m -5.3333333,0.01172 0.6197916,2.008769 0.09375,4.727561 C 6.294044,19.181437 5.7579858,19.235406 5.348955,18.845706 l -0.03125,-4.836914 z m 2.6666666,0.01762 0.6188152,1.997048 0.095703,4.727562 c -0.4194942,0.445064 -0.956529,0.499032 -1.3655598,0.109332 l -0.03125,-4.836915 z m 3.3538437,8.601563 c -0.419496,0.445106 -0.958468,0.495168 -1.367513,0.105468 l 0.01758,-1.269531 c 0.396297,0.37755 0.899095,0.455543 1.329423,0.0479 -8.51e-4,-0.588491 0.01791,0.960431 0.02051,1.116167 z m -5.3323598,0.02344 c -0.4194955,0.445107 -0.9574916,0.49517 -1.3665364,0.10547 l 0.017578,-1.269531 c 0.3962974,0.377549 0.8951927,0.341237 1.3255208,-0.06641 -0.00595,0.410453 0.00973,0.820368 0.023438,1.230471 z m 2.6656903,0.0059 c -0.4194949,0.44502 -0.9584679,0.495082 -1.3675127,0.105382 l 0.017578,-1.269531 c 0.3962977,0.37755 0.8990991,0.446414 1.3294272,0.03877 -0.00234,-0.735478 0.017485,0.944053 0.020507,1.125382 z"
         style="display:inline;fill:url(#linearGradient8292);fill-opacity:1;stroke:none"
         inkscape:connector-curvature="0"
         sodipodi:nodetypes="sssssssscsssssccsscsssccccccccccccccccccccccccccccccccccc" />
      <rect
         style="color:#bebebe;display:inline;overflow:visible;visibility:visible;fill:none;stroke:none;stroke-width:2;marker:none;enable-background:accumulate"
         id="rect14152-0"
         width="16"
         height="16"
         x="15"
         y="-40" />
    </g>
  </g>
</svg>
