<?xml version="1.0" encoding="UTF-8" standalone="no"?>
<svg
   xmlns:osb="http://www.openswatchbook.org/uri/2009/osb"
   xmlns:dc="http://purl.org/dc/elements/1.1/"
   xmlns:cc="http://creativecommons.org/ns#"
   xmlns:rdf="http://www.w3.org/1999/02/22-rdf-syntax-ns#"
   xmlns:svg="http://www.w3.org/2000/svg"
   xmlns="http://www.w3.org/2000/svg"
   xmlns:xlink="http://www.w3.org/1999/xlink"
   xmlns:sodipodi="http://sodipodi.sourceforge.net/DTD/sodipodi-0.dtd"
   xmlns:inkscape="http://www.inkscape.org/namespaces/inkscape"
   viewBox="0 0 23.999999 24"
   id="svg7384"
   height="24"
   width="24"
   version="1.1"
   inkscape:version="0.92pre1 unknown"
   sodipodi:docname="gimp-prefs-interface.svg">
  <sodipodi:namedview
     pagecolor="#ffffff"
     bordercolor="#666666"
     borderopacity="1"
     objecttolerance="10"
     gridtolerance="10"
     guidetolerance="10"
     inkscape:pageopacity="0"
     inkscape:pageshadow="2"
     inkscape:window-width="640"
     inkscape:window-height="480"
     id="namedview1508"
     showgrid="true"
     inkscape:zoom="14.75"
     inkscape:cx="10.681662"
     inkscape:cy="6.3389831"
     inkscape:window-x="0"
     inkscape:window-y="27"
     inkscape:window-maximized="0"
     inkscape:current-layer="svg7384">
    <inkscape:grid
       type="xygrid"
       id="grid4253" />
  </sodipodi:namedview>
  <metadata
     id="metadata90">
    <rdf:RDF>
      <cc:Work
         rdf:about="">
        <dc:format>image/svg+xml</dc:format>
        <dc:type
           rdf:resource="http://purl.org/dc/dcmitype/StillImage" />
        <dc:title></dc:title>
        <dc:contributor>
          <cc:Agent>
            <dc:title>Barbara Muraus, Jakub Steiner, Klaus Staedtler</dc:title>
          </cc:Agent>
        </dc:contributor>
        <dc:description>Images originally created as the &quot;Art Libre&quot; icon set. Extended and adopted for GIMP</dc:description>
      </cc:Work>
    </rdf:RDF>
  </metadata>
  <defs
     id="defs7386">
    <linearGradient
       gradientTransform="matrix(0.34682586,0,0,0.30620888,-19.35207,761.03851)"
       osb:paint="solid"
       id="linearGradient19282-4">
      <stop
         id="stop19284-0"
         offset="0"
         style="stop-color:#bebebe;stop-opacity:1;" />
    </linearGradient>
    <linearGradient
       gradientTransform="matrix(1.4285714,0,0,1.5,934.50651,533.95367)"
       gradientUnits="userSpaceOnUse"
       y2="6"
       x2="142"
       y1="6"
       x1="135"
       id="linearGradient7468"
       xlink:href="#linearGradient19282-4" />
    <linearGradient
       gradientTransform="matrix(1.5384615,0,0,1.5833334,1005.7762,562.28445)"
       gradientUnits="userSpaceOnUse"
       y2="10"
       x2="151"
       y1="10"
       x1="138"
       id="linearGradient7470"
       xlink:href="#linearGradient19282-4" />
  </defs>
  <g
     id="g4258">
    <path
       sodipodi:nodetypes="ccccccccccc"
       inkscape:connector-curvature="0"
       id="rect28732-9"
       d="M 11,4 V 6 H 22 V 8 H 11 V 19 H 4 v 5.000005 H 24 V 4 Z"
       style="fill:url(#linearGradient7470);fill-opacity:1;stroke:none;stroke-width:1.56073618" />
    <path
       sodipodi:nodetypes="ccccccccccssssssssssssssssssssssssssssssssssssssssssssssssssssss"
       inkscape:connector-curvature="0"
       id="rect15227"
       d="m 0,5e-6 v 18 h 10 v -18 z M 1,1 H 9 V 3.000005 H 1 Z m 1.2321429,3.500005 h 1.25 c 0.4451714,0 0.8035714,0.3763125 0.8035714,0.84375 v 1.3125 c 0,0.4674375 -0.3584,0.84375 -0.8035714,0.84375 h -1.25 c -0.4451715,0 -0.8035715,-0.3763125 -0.8035715,-0.84375 v -1.3125 c 0,-0.4674375 0.3584,-0.84375 0.8035715,-0.84375 z m 4.2857142,0 h 1.25 c 0.4451715,0 0.8035715,0.3763125 0.8035715,0.84375 v 1.3125 c 0,0.4674375 -0.3584,0.84375 -0.8035715,0.84375 h -1.25 c -0.4451714,0 -0.8035714,-0.3763125 -0.8035714,-0.84375 v -1.3125 c 0,-0.4674375 0.3584,-0.84375 0.8035714,-0.84375 z m -4.2857142,4.5 h 1.25 c 0.4451714,0 0.8035714,0.3763125 0.8035714,0.84375 v 1.3125 c 0,0.467438 -0.3584,0.84375 -0.8035714,0.84375 h -1.25 c -0.4451715,0 -0.8035715,-0.376312 -0.8035715,-0.84375 v -1.3125 c 0,-0.4674375 0.3584,-0.84375 0.8035715,-0.84375 z m 4.2857142,0 h 1.25 c 0.4451715,0 0.8035715,0.3763125 0.8035715,0.84375 v 1.3125 c 0,0.467438 -0.3584,0.84375 -0.8035715,0.84375 h -1.25 c -0.4451714,0 -0.8035714,-0.376312 -0.8035714,-0.84375 v -1.3125 c 0,-0.4674375 0.3584,-0.84375 0.8035714,-0.84375 z m -4.2857142,4.5 h 1.25 c 0.4451714,0 0.8035714,0.376313 0.8035714,0.84375 v 1.3125 c 0,0.467437 -0.3584,0.84375 -0.8035714,0.84375 h -1.25 c -0.4451715,0 -0.8035715,-0.376313 -0.8035715,-0.84375 v -1.3125 c 0,-0.467437 0.3584,-0.84375 0.8035715,-0.84375 z m 4.2857142,0 h 1.25 c 0.4451715,0 0.8035715,0.376313 0.8035715,0.84375 v 1.3125 c 0,0.467437 -0.3584,0.84375 -0.8035715,0.84375 h -1.25 c -0.4451714,0 -0.8035714,-0.376313 -0.8035714,-0.84375 v -1.3125 c 0,-0.467437 0.3584,-0.84375 0.8035714,-0.84375 z"
       style="fill:url(#linearGradient7468);fill-opacity:1;stroke:none;stroke-width:1.46385014" />
  </g>
</svg>
