<?xml version="1.0" encoding="UTF-8" standalone="no"?>
<svg
   xmlns:osb="http://www.openswatchbook.org/uri/2009/osb"
   xmlns:dc="http://purl.org/dc/elements/1.1/"
   xmlns:cc="http://creativecommons.org/ns#"
   xmlns:rdf="http://www.w3.org/1999/02/22-rdf-syntax-ns#"
   xmlns:svg="http://www.w3.org/2000/svg"
   xmlns="http://www.w3.org/2000/svg"
   xmlns:xlink="http://www.w3.org/1999/xlink"
   xmlns:sodipodi="http://sodipodi.sourceforge.net/DTD/sodipodi-0.dtd"
   xmlns:inkscape="http://www.inkscape.org/namespaces/inkscape"
   viewBox="0 0 23.999999 24"
   id="svg7384"
   height="24"
   width="24"
   version="1.1"
   inkscape:version="0.92pre1 unknown"
   sodipodi:docname="gimp-prefs-folders-tools.svg">
  <sodipodi:namedview
     pagecolor="#ffffff"
     bordercolor="#666666"
     borderopacity="1"
     objecttolerance="10"
     gridtolerance="10"
     guidetolerance="10"
     inkscape:pageopacity="0"
     inkscape:pageshadow="2"
     inkscape:window-width="640"
     inkscape:window-height="480"
     id="namedview1507"
     showgrid="true"
     inkscape:zoom="14.75"
     inkscape:cx="6.7864326"
     inkscape:cy="4.2013084"
     inkscape:window-x="0"
     inkscape:window-y="27"
     inkscape:window-maximized="0"
     inkscape:current-layer="svg7384"
     showguides="false"
     inkscape:snap-global="false">
    <inkscape:grid
       type="xygrid"
       id="grid23" />
  </sodipodi:namedview>
  <metadata
     id="metadata90">
    <rdf:RDF>
      <cc:Work
         rdf:about="">
        <dc:format>image/svg+xml</dc:format>
        <dc:type
           rdf:resource="http://purl.org/dc/dcmitype/StillImage" />
        <dc:title></dc:title>
        <dc:contributor>
          <cc:Agent>
            <dc:title>Barbara Muraus, Jakub Steiner, Klaus Staedtler</dc:title>
          </cc:Agent>
        </dc:contributor>
        <dc:description>Images originally created as the &quot;Art Libre&quot; icon set. Extended and adopted for GIMP</dc:description>
      </cc:Work>
    </rdf:RDF>
  </metadata>
  <defs
     id="defs7386">
    <linearGradient
       osb:paint="solid"
       id="linearGradient8074">
      <stop
         id="stop8072"
         offset="0"
         style="stop-color:#be00be;stop-opacity:1;" />
    </linearGradient>
    <linearGradient
       osb:paint="solid"
       id="linearGradient7561">
      <stop
         id="stop7558"
         offset="0"
         style="stop-color:#a5a5a5;stop-opacity:1;" />
    </linearGradient>
    <linearGradient
       osb:paint="solid"
       id="linearGradient7548">
      <stop
         id="stop7546"
         offset="0"
         style="stop-color:#ebebeb;stop-opacity:1;" />
    </linearGradient>
    <linearGradient
       osb:paint="solid"
       id="linearGradient7542">
      <stop
         id="stop7538"
         offset="0"
         style="stop-color:#c9c9c9;stop-opacity:1;" />
    </linearGradient>
    <linearGradient
       gradientTransform="matrix(0,-735328.32,170712.69,0,2464326300,577972450)"
       osb:paint="solid"
       id="linearGradient19282">
      <stop
         id="stop19284"
         offset="0"
         style="stop-color:#b4b4b4;stop-opacity:1;" />
    </linearGradient>
    <linearGradient
       gradientTransform="matrix(0.34682586,0,0,0.30620888,-139.35207,801.03851)"
       osb:paint="solid"
       id="linearGradient19282-4">
      <stop
         id="stop19284-0"
         offset="0"
         style="stop-color:#bebebe;stop-opacity:1;" />
    </linearGradient>
    <linearGradient
       gradientTransform="translate(877.05355,422.91141)"
       gradientUnits="userSpaceOnUse"
       y2="8"
       x2="16"
       y1="8"
       x1="0"
       id="linearGradient8346"
       xlink:href="#linearGradient19282-4" />
  </defs>
  <g
     transform="matrix(1.5,0,0,1.5,-395.59941,-397.36711)"
     style="display:inline"
     id="preferences">
    <g
       transform="translate(248.73294,304.91141)"
       id="gimp-prefs-folders-tools"
       style="display:inline">
      <path
         id="rect3845-6"
         transform="translate(15,-40)"
         d="M 0.53125,0 C 0.24212,0 0,0.24212 0,0.53125 v 14.9375 C 0,15.76725 0.23264,16 0.53125,16 h 14.9375 C 15.76735,16 16,15.76735 16,15.46875 V 5.83333 c 0,-0.2891 -0.242229,-0.4920613 -0.53125,-0.5 H 3.3333333 V 13.5 c 0,0.277 -0.3896666,0.5 -0.6666666,0.5 C 2.3896667,14 2,13.777 2,13.5 v -9 C 2,4.223 2.223,4 2.5,4 H 5.46875 14 V 2.59375 C 14,2.26655 13.73334,2 13.40625,2 H 6 V 0.53125 C 6,0.2421 5.75788,0 5.46875,0 Z m 4.1354167,6.6666633 h 4 C 8.6227073,9.2767212 8.3656399,9.3671608 7.3333333,11.33333 v 0 L 7.2539061,15.33823 6,15.33333 v -4.153676 0 C 4.8425023,9.5432826 4.6496087,9.2307868 4.6666667,6.6666633 Z M 11.927734,6.3105466 c 0.705317,-0.00361 1.311729,0.154564 1.570313,0.3828125 0.0862,0.076084 0.13257,0.1599231 0.132812,0.2480468 l 0.002,1.0273438 c 6.05e-4,0.2375602 -0.362818,0.230716 -0.845703,0.203125 0.0583,0.012823 0.13657,0.019198 0.181641,0.035156 l 0.650391,0.7871094 0.648437,5.2890629 h 0.201172 c 0.127279,-2.33e-4 0.231687,0.09936 0.232422,0.226563 l 0.002,0.5625 c 7.33e-4,0.127201 -0.10124,0.230232 -0.228516,0.230468 l -4.7324215,0.0078 c -0.127279,2.33e-4 -0.2297354,-0.10131 -0.2304687,-0.228516 l -0.00195,-0.5625 c -7.313e-4,-0.127199 0.099287,-0.230232 0.2265625,-0.230469 h 0.1582031 l 0.2226566,-5.125 0.640624,-0.953125 c 0.02296,-0.00746 0.06215,-0.010784 0.08789,-0.017578 -0.366858,0.00937 -0.62062,-0.020993 -0.621094,-0.2070313 l -0.002,-1.0273437 c -9.76e-4,-0.3359419 0.695139,-0.6170853 1.57417,-0.646471 0.04355,-0.00183 0.08685,-0.00182 0.130859,-0.00195 z m -0.0957,1.8925781 c -0.380847,0.012515 -0.757274,0.060808 -1.0625,0.1191406 l -0.542969,0.890625 C 10.71176,8.8571061 12.58823,8.7801456 13.53125,9.0507812 l -0.611328,-0.75 C 12.597347,8.2147112 12.212878,8.1906101 11.832031,8.203125 Z m 0.208985,1.4804688 c -0.73196,-0.023957 -1.507011,0.023412 -1.865235,0.1816406 l -0.06836,1.6816409 c 0.430511,-0.280917 3.114926,-0.334303 3.728516,0.09375 L 13.642578,9.9257812 C 13.460181,9.8023146 12.772975,9.7075503 12.041016,9.6835938 Z"
         style="display:inline;fill:url(#linearGradient8346);fill-opacity:1;stroke:none"
         inkscape:connector-curvature="0"
         sodipodi:nodetypes="sssssssscsssssccsscssscccccccccccccccccccccccccccccccccccccccccccccccc" />
    </g>
  </g>
</svg>
