<?xml version="1.0" encoding="UTF-8" standalone="no"?>
<svg
   xmlns:osb="http://www.openswatchbook.org/uri/2009/osb"
   xmlns:dc="http://purl.org/dc/elements/1.1/"
   xmlns:cc="http://creativecommons.org/ns#"
   xmlns:rdf="http://www.w3.org/1999/02/22-rdf-syntax-ns#"
   xmlns:svg="http://www.w3.org/2000/svg"
   xmlns="http://www.w3.org/2000/svg"
   xmlns:xlink="http://www.w3.org/1999/xlink"
   xmlns:sodipodi="http://sodipodi.sourceforge.net/DTD/sodipodi-0.dtd"
   xmlns:inkscape="http://www.inkscape.org/namespaces/inkscape"
   viewBox="0 0 23.999999 24"
   id="svg7384"
   height="24"
   width="24"
   version="1.1"
   inkscape:version="0.92pre1 unknown"
   sodipodi:docname="gimp-prefs-color-management.svg">
  <sodipodi:namedview
     pagecolor="#ffffff"
     bordercolor="#666666"
     borderopacity="1"
     objecttolerance="10"
     gridtolerance="10"
     guidetolerance="10"
     inkscape:pageopacity="0"
     inkscape:pageshadow="2"
     inkscape:window-width="501"
     inkscape:window-height="405"
     id="namedview1513"
     showgrid="true"
     inkscape:zoom="14.75"
     inkscape:cx="-2.2372881"
     inkscape:cy="11.990625"
     inkscape:window-x="0"
     inkscape:window-y="27"
     inkscape:window-maximized="0"
     inkscape:current-layer="svg7384"
     showguides="true">
    <inkscape:grid
       type="xygrid"
       id="grid4254" />
  </sodipodi:namedview>
  <metadata
     id="metadata90">
    <rdf:RDF>
      <cc:Work
         rdf:about="">
        <dc:format>image/svg+xml</dc:format>
        <dc:type
           rdf:resource="http://purl.org/dc/dcmitype/StillImage" />
        <dc:title></dc:title>
        <dc:contributor>
          <cc:Agent>
            <dc:title>Barbara Muraus, Jakub Steiner, Klaus Staedtler</dc:title>
          </cc:Agent>
        </dc:contributor>
        <dc:description>Images originally created as the &quot;Art Libre&quot; icon set. Extended and adopted for GIMP</dc:description>
      </cc:Work>
    </rdf:RDF>
  </metadata>
  <defs
     id="defs7386">
    <linearGradient
       gradientTransform="matrix(0.34682586,0,0,0.30620888,-119.30694,780.96923)"
       osb:paint="solid"
       id="linearGradient19282-4">
      <stop
         id="stop19284-0"
         offset="0"
         style="stop-color:#bebebe;stop-opacity:1;" />
    </linearGradient>
    <linearGradient
       gradientTransform="matrix(1.3054279,0,0,1.212183,1073.6235,526.35213)"
       gradientUnits="userSpaceOnUse"
       y2="-7.5554948"
       x2="41.454136"
       y1="-7.5554948"
       x1="36.857941"
       id="linearGradient7504"
       xlink:href="#linearGradient19282-4" />
    <linearGradient
       gradientTransform="matrix(1.5026832,0,0,1.5026832,1068.0672,530.00558)"
       gradientUnits="userSpaceOnUse"
       y2="-7.9307203"
       x2="43.038185"
       y1="-7.9307203"
       x1="35.052467"
       id="linearGradient7506"
       xlink:href="#linearGradient19282-4" />
    <linearGradient
       gradientTransform="matrix(1.0827064,0,0,1.2,1086.0997,526.19348)"
       gradientUnits="userSpaceOnUse"
       y2="-7.5"
       x2="49.541672"
       y1="-7.5"
       x1="44"
       id="linearGradient7509"
       xlink:href="#linearGradient19282-4" />
    <linearGradient
       gradientTransform="matrix(1.5026832,0,0,1.5026832,1080.0672,530.00558)"
       gradientUnits="userSpaceOnUse"
       y2="-7.9307203"
       x2="43.038185"
       y1="-7.9307203"
       x1="35.052467"
       id="linearGradient7506-4"
       xlink:href="#linearGradient19282-4" />
    <linearGradient
       gradientTransform="matrix(1.5026832,0,0,1.5026832,1074.0672,520.00558)"
       gradientUnits="userSpaceOnUse"
       y2="-7.9307203"
       x2="43.038185"
       y1="-7.9307203"
       x1="35.052467"
       id="linearGradient7506-7"
       xlink:href="#linearGradient19282-4" />
  </defs>
  <g
     id="g4331">
    <g
       transform="matrix(1.5,0,0,1.5,-151.5,-415.5)"
       id="tfqwd"
       style="display:inline">
    </g>
    <circle
       r="3"
       cy="17"
       cx="6"
       id="path14494"
       style="opacity:0.3;fill:url(#linearGradient7504);fill-opacity:1;stroke:none;stroke-width:1.25794172" />
    <ellipse
       ry="3"
       rx="3.0000002"
       cy="17"
       cx="18"
       id="path14496"
       style="fill:url(#linearGradient7509);fill-opacity:1;stroke:none;stroke-width:1.13984549" />
    <path
       sodipodi:nodetypes="ssssssssss"
       id="path8591"
       d="M 6.0000005,11.000001 C 2.6898555,11.000001 0,13.689854 0,17.000001 0,20.310147 2.6898555,23 6.0000005,23 9.310144,23 12,20.310147 12,17.000001 c 0,-3.310147 -2.689856,-6 -5.9999995,-6 z m 0,0.999999 C 8.4438923,12 11,14.556109 11,17.000001 11,19.443892 8.4438923,22 6.0000005,22 3.5561072,22 1,19.443892 1,17.000001 1,14.556109 3.5561072,12 6.0000005,12 Z"
       style="color:#000000;font-style:normal;font-variant:normal;font-weight:normal;font-stretch:normal;font-size:medium;line-height:normal;font-family:Sans;-inkscape-font-specification:Sans;text-indent:0;text-align:start;text-decoration:none;text-decoration-line:none;letter-spacing:normal;word-spacing:normal;text-transform:none;writing-mode:lr-tb;direction:ltr;baseline-shift:baseline;text-anchor:start;display:inline;overflow:visible;visibility:visible;fill:url(#linearGradient7506);fill-opacity:1;fill-rule:nonzero;stroke:none;stroke-width:3.23654842;marker:none;enable-background:new"
       inkscape:connector-curvature="0" />
    <path
       sodipodi:nodetypes="ssssssssss"
       id="path8591-0"
       d="m 18,11.000001 c -3.310145,0 -6,2.689853 -6,6 C 12,20.310147 14.689855,23 18,23 c 3.310144,0 6,-2.689853 6,-5.999999 0,-3.310147 -2.689856,-6 -6,-6 z M 18,12 c 2.443892,0 5,2.556109 5,5.000001 C 23,19.443892 20.443892,22 18,22 15.556107,22 13,19.443892 13,17.000001 13,14.556109 15.556107,12 18,12 Z"
       style="color:#000000;font-style:normal;font-variant:normal;font-weight:normal;font-stretch:normal;font-size:medium;line-height:normal;font-family:Sans;-inkscape-font-specification:Sans;text-indent:0;text-align:start;text-decoration:none;text-decoration-line:none;letter-spacing:normal;word-spacing:normal;text-transform:none;writing-mode:lr-tb;direction:ltr;baseline-shift:baseline;text-anchor:start;display:inline;overflow:visible;visibility:visible;fill:url(#linearGradient7506-4);fill-opacity:1;fill-rule:nonzero;stroke:none;stroke-width:3.23654842;marker:none;enable-background:new"
       inkscape:connector-curvature="0" />
    <path
       sodipodi:nodetypes="ssssssssss"
       id="path8591-1"
       d="m 12,1.000001 c -3.310145,0 -6.0000005,2.689853 -6.0000005,6 C 5.9999995,10.310147 8.689855,13 12,13 c 3.310143,0 6,-2.689853 6,-5.999999 0,-3.310147 -2.689856,-6 -6,-6 z M 12,2 c 2.443892,0 5,2.556109 5,5.000001 C 17,9.443892 14.443892,12 12,12 9.5561067,12 6.9999995,9.443892 6.9999995,7.000001 6.9999995,4.556109 9.5561067,2 12,2 Z"
       style="color:#000000;font-style:normal;font-variant:normal;font-weight:normal;font-stretch:normal;font-size:medium;line-height:normal;font-family:Sans;-inkscape-font-specification:Sans;text-indent:0;text-align:start;text-decoration:none;text-decoration-line:none;letter-spacing:normal;word-spacing:normal;text-transform:none;writing-mode:lr-tb;direction:ltr;baseline-shift:baseline;text-anchor:start;display:inline;overflow:visible;visibility:visible;fill:url(#linearGradient7506-7);fill-opacity:1;fill-rule:nonzero;stroke:none;stroke-width:3.23654842;marker:none;enable-background:new"
       inkscape:connector-curvature="0" />
  </g>
</svg>
