<?xml version="1.0" encoding="UTF-8" standalone="no"?>
<svg
   xmlns:osb="http://www.openswatchbook.org/uri/2009/osb"
   xmlns:dc="http://purl.org/dc/elements/1.1/"
   xmlns:cc="http://creativecommons.org/ns#"
   xmlns:rdf="http://www.w3.org/1999/02/22-rdf-syntax-ns#"
   xmlns:svg="http://www.w3.org/2000/svg"
   xmlns="http://www.w3.org/2000/svg"
   xmlns:xlink="http://www.w3.org/1999/xlink"
   xmlns:sodipodi="http://sodipodi.sourceforge.net/DTD/sodipodi-0.dtd"
   xmlns:inkscape="http://www.inkscape.org/namespaces/inkscape"
   viewBox="0 0 23.999999 24"
   id="svg7384"
   height="24"
   width="24"
   version="1.1"
   inkscape:version="0.92pre1 unknown"
   sodipodi:docname="gimp-prefs-image-windows-appearance.svg">
  <sodipodi:namedview
     pagecolor="#ffffff"
     bordercolor="#666666"
     borderopacity="1"
     objecttolerance="10"
     gridtolerance="10"
     guidetolerance="10"
     inkscape:pageopacity="0"
     inkscape:pageshadow="2"
     inkscape:window-width="1920"
     inkscape:window-height="1016"
     id="namedview1509"
     showgrid="true"
     inkscape:zoom="14.75"
     inkscape:cx="-5.2987483"
     inkscape:cy="-0.065881594"
     inkscape:window-x="0"
     inkscape:window-y="27"
     inkscape:window-maximized="1"
     inkscape:current-layer="svg7384"
     showguides="false">
    <inkscape:grid
       type="xygrid"
       id="grid4247" />
  </sodipodi:namedview>
  <metadata
     id="metadata90">
    <rdf:RDF>
      <cc:Work
         rdf:about="">
        <dc:format>image/svg+xml</dc:format>
        <dc:type
           rdf:resource="http://purl.org/dc/dcmitype/StillImage" />
        <dc:title></dc:title>
        <dc:contributor>
          <cc:Agent>
            <dc:title>Barbara Muraus, Jakub Steiner, Klaus Staedtler</dc:title>
          </cc:Agent>
        </dc:contributor>
        <dc:description>Images originally created as the &quot;Art Libre&quot; icon set. Extended and adopted for GIMP</dc:description>
      </cc:Work>
    </rdf:RDF>
  </metadata>
  <defs
     id="defs7386">
    <linearGradient
       gradientTransform="matrix(0.34682586,0,0,0.30620888,-159.35206,741.03851)"
       osb:paint="solid"
       id="linearGradient19282-4">
      <stop
         id="stop19284-0"
         offset="0"
         style="stop-color:#bebebe;stop-opacity:1;" />
    </linearGradient>
    <linearGradient
       gradientTransform="matrix(0.99999747,0,0,1.047619,897.4869,348.10277)"
       gradientUnits="userSpaceOnUse"
       y2="30"
       x2="4"
       y1="30"
       x1="1.9817885"
       id="linearGradient8137"
       xlink:href="#linearGradient19282-4" />
    <linearGradient
       gradientTransform="matrix(1.047619,0,0,1.047619,939.11799,348.96051)"
       gradientUnits="userSpaceOnUse"
       y2="8"
       x2="30"
       y1="8"
       x1="16"
       id="linearGradient8141"
       xlink:href="#linearGradient19282-4" />
    <linearGradient
       gradientTransform="matrix(1.6666666,0,0,1.6666666,1219.3764,592.9485)"
       gradientUnits="userSpaceOnUse"
       y2="6.5"
       x2="22"
       y1="6.5"
       x1="19"
       id="linearGradient7486"
       xlink:href="#linearGradient19282-4" />
    <linearGradient
       gradientTransform="matrix(1.6000001,0,0,1.6382298,1168.5214,582.50044)"
       gradientUnits="userSpaceOnUse"
       y2="9.8635473"
       x2="28"
       y1="9.8635473"
       x1="18"
       id="linearGradient7488"
       xlink:href="#linearGradient19282-4" />
  </defs>
  <g
     id="g4372">
    <g
       id="g43">
      <g
         transform="matrix(1.5,0,0,1.5,-426.23351,-263.19348)"
         style="display:inline"
         id="preferences">
        <g
           transform="translate(289.15566,155.46232)"
           id="gimp-prefs-image-title">
          <g
             id="g724"
             transform="translate(-20,20)">
            <path
               style="fill:url(#linearGradient8141);fill-opacity:1;stroke:none;stroke-width:1.0476191"
               d="M 15.66668,0.66666666 V 15.333333 H 30.333347 V 0.66666666 Z M 17.000013,2 h 12 v 2 h -12 z m 0,2.6666667 h 12 V 14 h -12 z"
               id="path15296"
               inkscape:connector-curvature="0"
               sodipodi:nodetypes="ccccccccccccccc" />
          </g>
        </g>
      </g>
    </g>
    <path
       id="rect4242"
       d="M 4 8 L 4 20 L 6 20 L 6 19 L 5 19 L 5 18 L 6 18 L 6 17 L 5 17 L 5 16 L 6 16 L 6 15 L 5 15 L 5 14 L 6 14 L 6 13 L 5 13 L 5 12 L 6 12 L 6 8 L 4 8 z "
       style="opacity:0.83300003;fill:#bebebe;fill-opacity:1;stroke-width:1;stroke-miterlimit:4;stroke-dasharray:none" />
    <path
       id="rect4242-2"
       d="M 6 8 L 6 10 L 8 10 L 8 9 L 9 9 L 9 10 L 10 10 L 10 9 L 11 9 L 11 10 L 12 10 L 12 9 L 13 9 L 13 10 L 14 10 L 14 9 L 15 9 L 15 10 L 16 10 L 16 9 L 17 9 L 17 10 L 18 10 L 18 9 L 19 9 L 19 10 L 20 10 L 20 8 L 6 8 z "
       style="opacity:0.83300003;fill:#bebebe;fill-opacity:1;stroke-width:1.08012342;stroke-miterlimit:4;stroke-dasharray:none" />
  </g>
</svg>
