<?xml version="1.0" encoding="UTF-8" standalone="no"?>
<!-- Created with Inkscape (http://www.inkscape.org/) -->

<svg
   xmlns:osb="http://www.openswatchbook.org/uri/2009/osb"
   xmlns:dc="http://purl.org/dc/elements/1.1/"
   xmlns:cc="http://creativecommons.org/ns#"
   xmlns:rdf="http://www.w3.org/1999/02/22-rdf-syntax-ns#"
   xmlns:svg="http://www.w3.org/2000/svg"
   xmlns="http://www.w3.org/2000/svg"
   xmlns:xlink="http://www.w3.org/1999/xlink"
   xmlns:sodipodi="http://sodipodi.sourceforge.net/DTD/sodipodi-0.dtd"
   xmlns:inkscape="http://www.inkscape.org/namespaces/inkscape"
   width="24"
   height="24"
   viewBox="0 0 24 24"
   id="svg30571"
   version="1.1"
   inkscape:version="0.91+devel r"
   sodipodi:docname="gimp-web.svg">
  <defs
     id="defs30573">
    <linearGradient
       id="linearGradient19282-4"
       osb:paint="solid"
       gradientTransform="matrix(0.34682586,0,0,0.30620888,-482.61525,330.965)">
      <stop
         style="stop-color:#bebebe;stop-opacity:1;"
         offset="0"
         id="stop19284-0" />
    </linearGradient>
    <linearGradient
       inkscape:collect="always"
       xlink:href="#linearGradient19282-4"
       id="linearGradient7019"
       x1="507.73486"
       y1="404.71252"
       x2="509.63644"
       y2="404.71252"
       gradientUnits="userSpaceOnUse" />
    <linearGradient
       inkscape:collect="always"
       xlink:href="#linearGradient19282-4"
       id="linearGradient7017"
       x1="262.9375"
       y1="192.21875"
       x2="267.12506"
       y2="192.21875"
       gradientUnits="userSpaceOnUse" />
    <linearGradient
       inkscape:collect="always"
       xlink:href="#linearGradient19282-4"
       id="linearGradient7021"
       x1="267.65625"
       y1="191.85934"
       x2="273"
       y2="191.85934"
       gradientUnits="userSpaceOnUse" />
  </defs>
  <sodipodi:namedview
     id="base"
     pagecolor="#ffffff"
     bordercolor="#666666"
     borderopacity="1.0"
     inkscape:pageopacity="0.0"
     inkscape:pageshadow="2"
     inkscape:zoom="16"
     inkscape:cx="-15.636603"
     inkscape:cy="14.716875"
     inkscape:document-units="px"
     inkscape:current-layer="layer1"
     showgrid="true"
     units="px"
     inkscape:snap-page="true"
     inkscape:snap-bbox="true"
     inkscape:bbox-paths="true"
     inkscape:bbox-nodes="true"
     inkscape:snap-bbox-edge-midpoints="true"
     inkscape:snap-bbox-midpoints="true"
     inkscape:object-paths="true"
     inkscape:snap-intersection-paths="true"
     inkscape:object-nodes="true"
     inkscape:snap-smooth-nodes="true"
     inkscape:snap-midpoints="true"
     inkscape:snap-object-midpoints="true"
     inkscape:snap-center="true"
     inkscape:snap-text-baseline="true"
     showborder="false"
     inkscape:window-width="1774"
     inkscape:window-height="954"
     inkscape:window-x="0"
     inkscape:window-y="27"
     inkscape:window-maximized="0"
     inkscape:snap-global="false">
    <inkscape:grid
       type="xygrid"
       id="grid4369" />
  </sodipodi:namedview>
  <metadata
     id="metadata30576">
    <rdf:RDF>
      <cc:Work
         rdf:about="">
        <dc:format>image/svg+xml</dc:format>
        <dc:type
           rdf:resource="http://purl.org/dc/dcmitype/StillImage" />
        <dc:title />
        <dc:creator>
          <cc:Agent>
            <dc:title>Klaus Staedtler</dc:title>
          </cc:Agent>
        </dc:creator>
      </cc:Work>
    </rdf:RDF>
  </metadata>
  <g
     inkscape:label="Layer 1"
     inkscape:groupmode="layer"
     id="layer1"
     transform="translate(0,-1028.3622)">
    <g
       id="g4346">
      <g
         inkscape:label="gimp-web"
         id="gimp-web"
         style="display:inline"
         transform="matrix(1.6249983,0,0,1.625,-262.62505,-11.012787)">
        <g
           transform="translate(-339.99998,238)"
           style="display:inline"
           id="emblem-web"
           inkscape:label="emblem-web">
          <path
             inkscape:connector-curvature="0"
             id="path11004"
             d="m 509.14998,403.96071 0.48646,0.19901 -0.22111,0.57489 c -0.28103,0.12998 -0.54457,0.24026 -0.84024,0.33167 l -0.199,0.30956 -0.15477,0.0885 L 508.0002,405 l 0.17689,-0.17688 v -0.17689 l -0.44222,-0.28745 0.13266,-0.13267 0.70756,-0.199 0.57489,-0.0663 z"
             style="fill:url(#linearGradient7019);fill-opacity:1;fill-rule:nonzero;stroke:none" />
          <path
             inkscape:connector-curvature="0"
             id="path11002"
             transform="translate(241.0002,217)"
             d="m 265.03125,187.90625 -0.0937,0.21875 c 0,0 -0.1463,0.0525 -0.1875,0.0625 -0.26454,0.24021 -0.69407,0.62255 -1.0625,1.1875 -0.0921,0.14124 -0.16475,0.27221 -0.25,0.4375 -0.0363,0.0752 -0.0924,0.14159 -0.125,0.21875 -0.0462,0.10074 -0.0832,0.20329 -0.125,0.3125 -0.0174,0.0502 -0.0154,0.10531 -0.0313,0.15625 -0.12516,0.4024 -0.19776,0.81161 -0.21875,1.25 0.0563,0.0907 0.125,0.21875 0.125,0.21875 l 0.375,0.25 0.4375,0.125 0.125,0.1875 0.28125,0.1875 0.15625,-0.0313 0.125,0.0625 v 0.0313 l -0.15625,0.4375 -0.125,0.1875 0.0313,0.0625 -0.0625,0.3125 0.3125,0.65625 0.34375,0.3125 0.15625,0.1875 -0.0313,0.46875 0.0937,0.28125 -0.0937,0.4375 c 0.22103,0.15942 0.47306,0.28346 0.71875,0.40625 l -0.0313,-0.125 0.15625,-0.15625 0.0625,-0.15625 0.25,-0.0625 0.21875,-0.5 -0.0937,-0.125 0.125,-0.1875 0.28125,-0.0625 0.1875,-0.34375 -0.0625,-0.4375 0.25,-0.3125 0.0313,-0.3125 c -0.31304,-0.1581 -0.59558,-0.3373 -0.90625,-0.5 l -0.1875,-0.3125 -0.25,-0.0625 -0.1875,-0.40625 -0.375,0.0313 -0.3125,-0.25 -0.34375,0.3125 v 0.0313 c -0.10403,-0.0309 -0.25135,-0.005 -0.34375,-0.0625 l -0.0625,-0.25 v -0.21875 l -0.21875,0.0313 c 0.0202,-0.15156 0.0422,-0.31723 0.0625,-0.46875 l -0.125,0.0313 -0.15625,0.15625 -0.125,0.0313 -0.1875,-0.0937 v -0.21875 l 0.0313,-0.28125 0.28125,-0.1875 0.21875,-0.0313 0.0625,-0.125 0.28125,0.0625 0.1875,0.28125 0.0313,-0.4375 0.375,-0.28125 0.15625,-0.34375 0.28125,-0.0937 0.125,-0.25 0.34375,-0.0625 0.1875,-0.25 h -0.5 l 0.28125,-0.125 h 0.25 l 0.3125,-0.125 0.0625,-0.125 -0.125,-0.125 -0.125,-0.0313 0.0313,-0.125 -0.0937,-0.1875 -0.21875,0.0625 0.0313,-0.1875 -0.28125,-0.125 -0.1875,0.34375 v 0.15625 l -0.21875,0.0937 -0.125,0.28125 -0.0313,-0.28125 -0.40625,-0.15625 -0.0313,-0.1875 0.46875,-0.25 0.21875,-0.21875 0.0313,-0.25 -0.125,-0.0625 h -0.15625 z"
             style="fill:url(#linearGradient7017);fill-opacity:1;fill-rule:nonzero;stroke:none" />
          <path
             inkscape:connector-curvature="0"
             id="path8991"
             transform="translate(241.0002,217)"
             d="m 269.75,187.25 -0.28125,0.0625 -0.28125,0.1875 v 0.125 l -0.375,0.28125 0.0625,0.34375 0.25,-0.15625 0.15625,0.15625 0.15625,0.0937 0.0937,-0.28125 -0.0625,-0.15625 0.0625,-0.0937 0.25,-0.21875 h 0.0937 l -0.0937,0.21875 v 0.21875 c 0.0954,-0.026 0.18365,-0.0504 0.28125,-0.0625 l -0.28125,0.1875 v 0.125 l -0.3125,0.25 -0.3125,-0.0625 v -0.1875 l -0.15625,0.0937 0.0625,0.15625 h -0.21875 l -0.15625,0.21875 -0.15625,0.1875 -0.2812,0.0625 0.1875,0.15625 0.0313,0.15625 h -0.21875 l -0.25,0.15625 v 0.40625 h 0.125 l 0.125,0.125 0.25,-0.125 0.0937,-0.25 0.1875,-0.125 0.0625,-0.0937 0.3125,-0.0625 0.15625,0.1875 0.15625,0.0937 -0.0937,0.21875 0.1875,-0.0625 0.0625,-0.21875 -0.1875,-0.21875 h 0.0625 l 0.21875,0.15625 0.0625,0.25 0.15625,0.21875 0.0625,-0.3125 0.0937,-0.0625 c 0.10263,0.10657 0.19475,0.25508 0.28125,0.375 h 0.3125 l 0.21875,0.75 c -0.096,0.088 -0.18315,0.1644 -0.28125,0.25 h -0.25 L 270,190.875 h -0.15625 l -0.15625,0.1875 -0.375,-0.40625 -0.25,-0.0625 -0.40625,0.0625 -0.5,0.1875 c -0.19803,0.2245 -0.25007,0.32933 -0.4375,0.5625 l 0.0313,0.34375 0.0937,0.0937 -0.1875,0.28125 0.1875,0.5 c 0.17652,0.19969 0.35499,0.39391 0.53125,0.59375 l 0.28125,-0.2187 0.125,0.125 0.25,-0.1875 0.0937,0.125 h 0.28125 l 0.1875,0.15625 -0.125,0.34375 0.21875,0.21875 -0.0313,0.375 0.15625,0.28125 -0.0937,0.25 c -0.0102,0.1729 -0.0313,0.35833 -0.0313,0.53125 0.0851,0.23428 0.13835,0.45153 0.21875,0.6875 l 0.0937,0.40625 v 0.15625 h 0.125 l 0.25,-0.125 h 0.25 c 0.004,-0.003 -0.004,-0.0287 0,-0.0313 l 0.4375,-0.4375 -0.0625,-0.15625 0.25,-0.25 -0.1875,-0.1875 0.25,-0.21875 0.21875,-0.125 0.0937,-0.125 -0.0625,-0.25 v -0.65625 l 0.21875,-0.40625 0.1875,-0.28125 0.28125,-0.59375 v -0.15625 c -0.11737,0.014 -0.26027,0.0223 -0.375,0.0313 l 0.25,-0.25 0.34375,-0.25 0.1875,-0.21875 v -0.21875 c -0.0415,-0.0784 -0.0832,-0.14045 -0.125,-0.21875 l -0.15625,0.1875 -0.125,-0.15625 -0.1875,-0.125 v -0.3125 l 0.21875,0.21875 h 0.21875 c 0.10875,0.0987 0.2172,0.20003 0.3125,0.3125 L 273,191.25 c -0.35553,-1.32619 -0.82728,-2.13567 -1.40625,-2.84375 -0.0104,-0.0104 -0.0208,-0.021 -0.0313,-0.0313 -0.2705,-0.26589 -0.58192,-0.48708 -0.90625,-0.6875 l -0.15625,0.15625 -0.28125,-0.28125 h 0.21875 c -0.21959,-0.12123 -0.4496,-0.22433 -0.6875,-0.3125 z"
             style="fill:url(#linearGradient7021);fill-opacity:1;fill-rule:nonzero;stroke:none" />
        </g>
      </g>
      <path
         inkscape:connector-curvature="0"
         id="path4316"
         d="m 12,1028.3622 a 12,12 0 0 0 -12,12 12,12 0 0 0 12,12 12,12 0 0 0 12,-12 12,12 0 0 0 -12,-12 z m 0,2 a 10,10 0 0 1 10,10 10,10 0 0 1 -10,10 10,10 0 0 1 -10,-10 10,10 0 0 1 10,-10 z"
         style="opacity:1;fill:#bebebe;fill-opacity:1;stroke:none;stroke-width:1.44092333;stroke-miterlimit:4;stroke-dasharray:none;stroke-opacity:1" />
    </g>
  </g>
</svg>
