<?xml version="1.0" encoding="UTF-8" standalone="no"?>
<!-- Created with Inkscape (http://www.inkscape.org/) -->

<svg
   xmlns:dc="http://purl.org/dc/elements/1.1/"
   xmlns:cc="http://creativecommons.org/ns#"
   xmlns:rdf="http://www.w3.org/1999/02/22-rdf-syntax-ns#"
   xmlns:svg="http://www.w3.org/2000/svg"
   xmlns="http://www.w3.org/2000/svg"
   xmlns:sodipodi="http://sodipodi.sourceforge.net/DTD/sodipodi-0.dtd"
   xmlns:inkscape="http://www.inkscape.org/namespaces/inkscape"
   id="svg7384"
   height="24"
   width="24"
   version="1.1"
   sodipodi:docname="gimp-smartphone.svg"
   viewBox="0 0 24 24"
   inkscape:version="0.92pre1 unknown">
  <defs
     id="defs9" />
  <sodipodi:namedview
     pagecolor="#ffffff"
     bordercolor="#666666"
     borderopacity="1"
     objecttolerance="10"
     gridtolerance="10"
     guidetolerance="10"
     inkscape:pageopacity="0"
     inkscape:pageshadow="2"
     inkscape:window-width="1920"
     inkscape:window-height="1016"
     id="namedview7"
     showgrid="true"
     inkscape:zoom="22.395398"
     inkscape:cx="15.356997"
     inkscape:cy="7.5819917"
     inkscape:window-x="0"
     inkscape:window-y="27"
     inkscape:window-maximized="1"
     inkscape:current-layer="svg7384">
    <inkscape:grid
       type="xygrid"
       id="grid4232" />
  </sodipodi:namedview>
  <metadata
     id="metadata90">
    <rdf:RDF>
      <cc:Work
         rdf:about="">
        <dc:format>image/svg+xml</dc:format>
        <dc:type
           rdf:resource="http://purl.org/dc/dcmitype/StillImage" />
        <dc:title>Gnome Symbolic Icon Theme</dc:title>
      </cc:Work>
    </rdf:RDF>
  </metadata>
  <title
     id="title9167">Gnome Symbolic Icon Theme</title>
  <g
     id="g4239"
     transform="scale(1.5)">
    <g
       transform="translate(199,-447)"
       id="layer10">
      <path
         style="fill:#bebebe;stroke-width:1.65188575"
         d="M 7.5507812 1 C 6.1252113 1 5 2.0183537 5 3.3085938 L 5 20.691406 C 5 21.981571 6.1251213 23 7.5507812 23 L 16.449219 23 C 17.874804 23 19 21.981646 19 20.691406 L 19 3.3085938 C 19 2.0184287 17.874879 1 16.449219 1 L 7.5507812 1 z M 7 3 L 17 3 L 17 20 L 7 20 L 7 3 z M 12 21 A 0.5 0.5 0 0 1 12.5 21.5 A 0.5 0.5 0 0 1 12 22 A 0.5 0.5 0 0 1 11.5 21.5 A 0.5 0.5 0 0 1 12 21 z "
         transform="matrix(0.66666667,0,0,0.66666667,-199,447)"
         id="path5068" />
    </g>
  </g>
</svg>
