<?xml version="1.0" encoding="UTF-8" standalone="no"?>
<svg
   xmlns:dc="http://purl.org/dc/elements/1.1/"
   xmlns:cc="http://creativecommons.org/ns#"
   xmlns:rdf="http://www.w3.org/1999/02/22-rdf-syntax-ns#"
   xmlns:svg="http://www.w3.org/2000/svg"
   xmlns="http://www.w3.org/2000/svg"
   xmlns:sodipodi="http://sodipodi.sourceforge.net/DTD/sodipodi-0.dtd"
   xmlns:inkscape="http://www.inkscape.org/namespaces/inkscape"
   width="24"
   height="24"
   viewBox="0 0 24 24"
   id="svg30571"
   version="1.1"
   inkscape:version="0.91+devel r"
   sodipodi:docname="gimp-display-filter-lcms-24.svg">
  <defs
     id="defs30573" />
  <sodipodi:namedview
     id="base"
     pagecolor="#ffffff"
     bordercolor="#666666"
     borderopacity="1"
     inkscape:pageopacity="0"
     inkscape:pageshadow="2"
     inkscape:zoom="16"
     inkscape:cx="15.197038"
     inkscape:cy="12.081836"
     inkscape:document-units="px"
     inkscape:current-layer="layer1"
     showgrid="true"
     units="px"
     inkscape:snap-page="true"
     inkscape:snap-bbox="true"
     inkscape:bbox-paths="true"
     inkscape:bbox-nodes="true"
     inkscape:snap-bbox-edge-midpoints="true"
     inkscape:snap-bbox-midpoints="true"
     inkscape:object-paths="true"
     inkscape:snap-intersection-paths="true"
     inkscape:object-nodes="true"
     inkscape:snap-smooth-nodes="true"
     inkscape:snap-midpoints="true"
     inkscape:snap-object-midpoints="true"
     inkscape:snap-center="true"
     inkscape:snap-text-baseline="true"
     showborder="false"
     inkscape:window-width="1440"
     inkscape:window-height="752"
     inkscape:window-x="403"
     inkscape:window-y="27"
     inkscape:window-maximized="0"
     inkscape:snap-global="false"
     showguides="false">
    <inkscape:grid
       type="xygrid"
       id="grid4364" />
  </sodipodi:namedview>
  <metadata
     id="metadata30576">
    <rdf:RDF>
      <cc:Work
         rdf:about="">
        <dc:format>
          image/svg+xml
        </dc:format>
        <dc:type
           rdf:resource="http://purl.org/dc/dcmitype/StillImage" />
        <dc:creator>
          <cc:Agent>
            <dc:title>Klaus Staedtler       </dc:title>
          </cc:Agent>
        </dc:creator>
        <dc:title />
      </cc:Work>
    </rdf:RDF>
  </metadata>
  <g
     inkscape:label="Layer 1"
     inkscape:groupmode="layer"
     id="layer1"
     transform="translate(0,-1028.3622)">
    <g
       id="g4302">
      <path
         inkscape:connector-curvature="0"
         id="path8587"
         d="M 12.000001,1030.8622 C 9.2415462,1030.8622 7,1033.1038 7,1035.8623 c 0,2.7585 2.2415462,4.9999 5.000001,4.9999 2.758453,0 4.999999,-2.2414 4.999999,-4.9999 0,-2.7585 -2.241546,-5.0001 -4.999999,-5.0001 z m 0,1.3178 c 2.036577,0 3.68217,1.6456 3.68217,3.6823 0,2.0365 -1.645593,3.6821 -3.68217,3.6821 -2.0365793,0 -3.6821716,-1.6456 -3.6821716,-3.6821 0,-2.0367 1.6455923,-3.6823 3.6821716,-3.6823 z"
         style="color:#000000;font-style:normal;font-variant:normal;font-weight:normal;font-stretch:normal;font-size:medium;line-height:normal;font-family:Sans;-inkscape-font-specification:Sans;text-indent:0;text-align:start;text-decoration:none;text-decoration-line:none;letter-spacing:normal;word-spacing:normal;text-transform:none;writing-mode:lr-tb;direction:ltr;baseline-shift:baseline;text-anchor:start;display:inline;overflow:visible;visibility:visible;fill:#bebebe;fill-opacity:1;stroke:none;stroke-width:2.6971302;marker:none;enable-background:new" />
      <ellipse
         ry="2.4997613"
         rx="2.5"
         cy="1044.3624"
         cx="7"
         id="path14494"
         style="opacity:0.3;fill:#bebebe;fill-opacity:1;stroke:none;stroke-width:1.04823482" />
      <circle
         r="2.5"
         cy="1044.3622"
         cx="17"
         id="path14496"
         style="fill:#bebebe;fill-opacity:1;stroke:none;stroke-width:0.94987124" />
      <path
         style="fill:#bebebe;fill-opacity:1;stroke:none;stroke-width:1.49992847"
         d="m 1.5,1028.3634 c -0.981675,0 -1.5,-0.097 -1.5,1.4998 v 20.998 c 0,1.5968 0.518325,1.4999 1.5,1.4999 H 12 22.5 c 0.950211,0 1.451003,0.024 1.5,-1.4999 v 0 -10.499 -10.499 0 c -0.04899,-1.5234 -0.549789,-1.4998 -1.5,-1.4998 H 12 Z m 3,0.9988 h 7.5 7.5 c 2.395889,0 3.5,1.1433 3.5,3.8007 v 14.3986 c 0,2.7017 -0.927335,3.8007 -3.5,3.8007 H 12 4.5 c -2.4196061,0 -3.5,-1.1538 -3.5,-4.2506 v -13.4987 c 0,-3.1878 1.0599247,-4.2507 3.5,-4.2507 z"
         id="rect28283-2"
         inkscape:connector-curvature="0"
         sodipodi:nodetypes="sssscscccccscsscsssscssss" />
      <path
         inkscape:connector-curvature="0"
         id="path8587-6"
         d="M 7.000001,1039.3622 C 4.2415462,1039.3622 2,1041.6038 2,1044.3623 c 0,2.7585 2.2415462,4.9999 5.000001,4.9999 2.758453,0 4.999999,-2.2414 4.999999,-4.9999 0,-2.7585 -2.241546,-5.0001 -4.999999,-5.0001 z m 0,1.3178 c 2.036577,0 3.68217,1.6456 3.68217,3.6823 0,2.0365 -1.645593,3.6821 -3.68217,3.6821 -2.0365793,0 -3.6821716,-1.6456 -3.6821716,-3.6821 0,-2.0367 1.6455923,-3.6823 3.6821716,-3.6823 z"
         style="color:#000000;font-style:normal;font-variant:normal;font-weight:normal;font-stretch:normal;font-size:medium;line-height:normal;font-family:Sans;-inkscape-font-specification:Sans;text-indent:0;text-align:start;text-decoration:none;text-decoration-line:none;letter-spacing:normal;word-spacing:normal;text-transform:none;writing-mode:lr-tb;direction:ltr;baseline-shift:baseline;text-anchor:start;display:inline;overflow:visible;visibility:visible;fill:#bebebe;fill-opacity:1;stroke:none;stroke-width:2.6971302;marker:none;enable-background:new" />
      <path
         inkscape:connector-curvature="0"
         id="path8587-5"
         d="m 17.000001,1039.3622 c -2.758455,0 -5.000001,2.2416 -5.000001,5.0001 0,2.7585 2.241546,4.9999 5.000001,4.9999 2.758453,0 4.999999,-2.2414 4.999999,-4.9999 0,-2.7585 -2.241546,-5.0001 -4.999999,-5.0001 z m 0,1.3178 c 2.036577,0 3.68217,1.6456 3.68217,3.6823 0,2.0365 -1.645593,3.6821 -3.68217,3.6821 -2.03658,0 -3.682172,-1.6456 -3.682172,-3.6821 0,-2.0367 1.645592,-3.6823 3.682172,-3.6823 z"
         style="color:#000000;font-style:normal;font-variant:normal;font-weight:normal;font-stretch:normal;font-size:medium;line-height:normal;font-family:Sans;-inkscape-font-specification:Sans;text-indent:0;text-align:start;text-decoration:none;text-decoration-line:none;letter-spacing:normal;word-spacing:normal;text-transform:none;writing-mode:lr-tb;direction:ltr;baseline-shift:baseline;text-anchor:start;display:inline;overflow:visible;visibility:visible;fill:#bebebe;fill-opacity:1;stroke:none;stroke-width:2.6971302;marker:none;enable-background:new" />
    </g>
  </g>
</svg>
